<?xml version="1.0" standalone="no"?>
<!DOCTYPE svg PUBLIC "-//W3C//DTD SVG 1.1//EN" "http://www.w3.org/Graphics/SVG/1.1/DTD/svg11.dtd" >
<svg xmlns="http://www.w3.org/2000/svg" xmlns:xlink="http://www.w3.org/1999/xlink" version="1.1">
<metadata>
Created by FontForge 20170731 at Thu Nov 16 19:43:49 2023
 By Aleksey,,,
Copyright 2021 Alessio Laiso, Mario Rullo, Paolo Rosset
</metadata>
<defs>
<font id="TekneLDO-Medium" horiz-adv-x="1228" >
  <font-face 
    font-family="Tekne LDO Medium"
    font-weight="500"
    font-stretch="normal"
    units-per-em="2048"
    panose-1="2 0 0 9 0 0 0 0 0 0"
    ascent="1638"
    descent="-410"
    x-height="1126"
    cap-height="1495"
    bbox="-3547 -819 1462 2294"
    underline-thickness="102"
    underline-position="-419"
    unicode-range="U+000D-1D54A"
  />
<missing-glyph 
d="M1044 0h-860v1495h860v-1495zM287 1393v-1170l614 1170h-614zM942 1272l-614 -1170h614v1170z" />
    <glyph glyph-name=".notdef" 
d="M1044 0h-860v1495h860v-1495zM287 1393v-1170l614 1170h-614zM942 1272l-614 -1170h614v1170z" />
    <glyph glyph-name=".null" horiz-adv-x="0" 
 />
    <glyph glyph-name="nonmarkingreturn" horiz-adv-x="682" 
 />
    <glyph glyph-name="uni2400" unicode="&#x2400;" 
d="M113 502h-64v493h88l146 -415q-7 122 -7 149v266h64v-493h-88l-146 416q7 -122 7 -148v-268zM602 496q-69 0 -107 37.5t-38 105.5v356h67v-356q0 -84 78 -84q38 0 58 22t20 62v356h68v-356q0 -68 -38 -105.5t-108 -37.5zM1204 502h-286v493h67v-432h219v-61z" />
    <glyph glyph-name="uni2400" 
d="M113 502h-64v493h88l146 -415q-7 122 -7 149v266h64v-493h-88l-146 416q7 -122 7 -148v-268zM602 496q-69 0 -107 37.5t-38 105.5v356h67v-356q0 -84 78 -84q38 0 58 22t20 62v356h68v-356q0 -68 -38 -105.5t-108 -37.5zM1204 502h-286v493h67v-432h219v-61z" />
    <glyph glyph-name="uni2401" unicode="&#x2401;" 
d="M197 496q-72 0 -115 37t-43 100h65q0 -35 26 -56.5t67 -21.5t64.5 21t23.5 57q0 28 -15 49.5t-41 28.5l-69 20q-52 15 -80.5 51t-28.5 86q0 61 40 97t108 36q66 0 105.5 -36t39.5 -97h-65q0 34 -22 54t-60 20q-37 0 -58.5 -20t-21.5 -52q0 -56 57 -71l72 -23
q49 -15 76.5 -52.5t27.5 -90.5q0 -63 -41.5 -100t-111.5 -37zM602 496q-68 0 -106.5 37.5t-38.5 103.5v221q0 67 38.5 105t106.5 38t107 -37.5t39 -103.5v-223q0 -66 -39 -103.5t-107 -37.5zM958 502h-67v493h67v-207h152v207h68v-493h-68v225h-152v-225zM602 555
q38 0 59 21t21 61v221q0 84 -80 84t-80 -84v-221q0 -40 21 -61t59 -21z" />
    <glyph glyph-name="uni2401" 
d="M197 496q-72 0 -115 37t-43 100h65q0 -35 26 -56.5t67 -21.5t64.5 21t23.5 57q0 28 -15 49.5t-41 28.5l-69 20q-52 15 -80.5 51t-28.5 86q0 61 40 97t108 36q66 0 105.5 -36t39.5 -97h-65q0 34 -22 54t-60 20q-37 0 -58.5 -20t-21.5 -52q0 -56 57 -71l72 -23
q49 -15 76.5 -52.5t27.5 -90.5q0 -63 -41.5 -100t-111.5 -37zM602 496q-68 0 -106.5 37.5t-38.5 103.5v221q0 67 38.5 105t106.5 38t107 -37.5t39 -103.5v-223q0 -66 -39 -103.5t-107 -37.5zM958 502h-67v493h67v-207h152v207h68v-493h-68v225h-152v-225zM602 555
q38 0 59 21t21 61v221q0 84 -80 84t-80 -84v-221q0 -40 21 -61t59 -21z" />
    <glyph glyph-name="uni2402" unicode="&#x2402;" 
d="M197 496q-72 0 -115 37t-43 100h65q0 -35 26 -56.5t67 -21.5t64.5 21t23.5 57q0 28 -15 49.5t-41 28.5l-69 20q-52 15 -80.5 51t-28.5 86q0 61 40 97t108 36q66 0 105.5 -36t39.5 -97h-65q0 34 -22 54t-60 20q-37 0 -58.5 -20t-21.5 -52q0 -56 57 -71l72 -23
q49 -15 76.5 -52.5t27.5 -90.5q0 -63 -41.5 -100t-111.5 -37zM635 502h-66v432h-135v61h336v-61h-135v-432zM930 502h-74l141 250l-133 243h76l74 -141q4 -7 11.5 -23.5t10.5 -21.5q11 28 21 45l73 141h74l-133 -239l141 -254h-75l-82 151q-16 32 -21 47l-22 -47z" />
    <glyph glyph-name="uni2402" 
d="M197 496q-72 0 -115 37t-43 100h65q0 -35 26 -56.5t67 -21.5t64.5 21t23.5 57q0 28 -15 49.5t-41 28.5l-69 20q-52 15 -80.5 51t-28.5 86q0 61 40 97t108 36q66 0 105.5 -36t39.5 -97h-65q0 34 -22 54t-60 20q-37 0 -58.5 -20t-21.5 -52q0 -56 57 -71l72 -23
q49 -15 76.5 -52.5t27.5 -90.5q0 -63 -41.5 -100t-111.5 -37zM635 502h-66v432h-135v61h336v-61h-135v-432zM930 502h-74l141 250l-133 243h76l74 -141q4 -7 11.5 -23.5t10.5 -21.5q11 28 21 45l73 141h74l-133 -239l141 -254h-75l-82 151q-16 32 -21 47l-22 -47z" />
    <glyph glyph-name="uni2403" unicode="&#x2403;" 
d="M344 502h-287v493h287v-61h-221v-146h199v-59h-199v-168h221v-59zM635 502h-66v432h-135v61h336v-61h-135v-432zM930 502h-74l141 250l-133 243h76l74 -141q4 -7 11.5 -23.5t10.5 -21.5q11 28 21 45l73 141h74l-133 -239l141 -254h-75l-82 151q-16 32 -21 47l-22 -47z
" />
    <glyph glyph-name="uni2403" 
d="M344 502h-287v493h287v-61h-221v-146h199v-59h-199v-168h221v-59zM635 502h-66v432h-135v61h336v-61h-135v-432zM930 502h-74l141 250l-133 243h76l74 -141q4 -7 11.5 -23.5t10.5 -21.5q11 28 21 45l73 141h74l-133 -239l141 -254h-75l-82 151q-16 32 -21 47l-22 -47z
" />
    <glyph glyph-name="uni2404" unicode="&#x2404;" 
d="M602 496q-68 0 -106.5 37.5t-38.5 103.5v221q0 67 38.5 105t106.5 38t107 -37.5t39 -103.5v-223q0 -66 -39 -103.5t-107 -37.5zM344 502h-287v493h287v-61h-221v-146h199v-59h-199v-168h221v-59zM1067 502h-66v432h-135v61h336v-61h-135v-432zM602 555q38 0 59 21t21 61
v221q0 84 -80 84t-80 -84v-221q0 -40 21 -61t59 -21z" />
    <glyph glyph-name="uni2404" 
d="M602 496q-68 0 -106.5 37.5t-38.5 103.5v221q0 67 38.5 105t106.5 38t107 -37.5t39 -103.5v-223q0 -66 -39 -103.5t-107 -37.5zM344 502h-287v493h287v-61h-221v-146h199v-59h-199v-168h221v-59zM1067 502h-66v432h-135v61h336v-61h-135v-432zM602 555q38 0 59 21t21 61
v221q0 84 -80 84t-80 -84v-221q0 -40 21 -61t59 -21z" />
    <glyph glyph-name="uni2405" unicode="&#x2405;" 
d="M1110 512l80 -131h-76l-70 115h-10q-69 0 -110 39.5t-41 105.5v215q0 66 41 105.5t110 39.5t110.5 -39.5t41.5 -105.5v-215q0 -92 -76 -129zM344 502h-287v493h287v-61h-221v-146h199v-59h-199v-168h221v-59zM684 729v266h64v-493h-89l-145 416q6 -105 6 -148v-268h-63
v493h88l145 -415q-6 105 -6 149zM1034 555q38 0 61 23t23 63v215q0 40 -23 63t-61 23t-61 -23t-23 -63v-215q0 -40 23 -63t61 -23z" />
    <glyph glyph-name="uni2405" 
d="M1110 512l80 -131h-76l-70 115h-10q-69 0 -110 39.5t-41 105.5v215q0 66 41 105.5t110 39.5t110.5 -39.5t41.5 -105.5v-215q0 -92 -76 -129zM344 502h-287v493h287v-61h-221v-146h199v-59h-199v-168h221v-59zM684 729v266h64v-493h-89l-145 416q6 -105 6 -148v-268h-63
v493h88l145 -415q-6 105 -6 149zM1034 555q38 0 61 23t23 63v215q0 40 -23 63t-61 23t-61 -23t-23 -63v-215q0 -40 23 -63t61 -23z" />
    <glyph glyph-name="uni2406" unicode="&#x2406;" 
d="M604 496q-68 0 -107.5 37.5t-39.5 103.5v221q0 67 39.5 105t107.5 38t108 -38.5t40 -104.5h-66q0 41 -21.5 62.5t-60.5 21.5t-60.5 -21.5t-21.5 -60.5v-223q0 -39 21.5 -60.5t60.5 -21.5t60.5 21.5t21.5 60.5h66q0 -64 -40 -102.5t-108 -38.5zM92 502h-69l127 493h90
l127 -493h-68l-33 129h-143zM958 502h-67v493h67v-209h68l107 209h71l-119 -237l127 -256h-75l-111 225h-68v-225zM172 834l-37 -148h119l-37 148q-16 73 -22 106q-3 -17 -23 -106z" />
    <glyph glyph-name="uni2406" 
d="M604 496q-68 0 -107.5 37.5t-39.5 103.5v221q0 67 39.5 105t107.5 38t108 -38.5t40 -104.5h-66q0 41 -21.5 62.5t-60.5 21.5t-60.5 -21.5t-21.5 -60.5v-223q0 -39 21.5 -60.5t60.5 -21.5t60.5 21.5t21.5 60.5h66q0 -64 -40 -102.5t-108 -38.5zM92 502h-69l127 493h90
l127 -493h-68l-33 129h-143zM958 502h-67v493h67v-209h68l107 209h71l-119 -237l127 -256h-75l-111 225h-68v-225zM172 834l-37 -148h119l-37 148q-16 73 -22 106q-3 -17 -23 -106z" />
    <glyph glyph-name="uni2407" unicode="&#x2407;" 
d="M266 762q40 -11 63 -43.5t23 -79.5q0 -63 -39.5 -100t-107.5 -37h-154v493h144q69 0 108 -34t39 -93q0 -39 -20.5 -67t-55.5 -39zM764 502h-287v493h287v-61h-221v-146h198v-59h-198v-168h221v-59zM985 995v-432h219v-61h-286v493h67zM195 936h-78v-150h78q37 0 58 20.5
t21 55.5q0 34 -21 54t-58 20zM117 561h82q40 0 64 22t24 60t-24 62t-64 24h-82v-168z" />
    <glyph glyph-name="uni2407" 
d="M266 762q40 -11 63 -43.5t23 -79.5q0 -63 -39.5 -100t-107.5 -37h-154v493h144q69 0 108 -34t39 -93q0 -39 -20.5 -67t-55.5 -39zM764 502h-287v493h287v-61h-221v-146h198v-59h-198v-168h221v-59zM985 995v-432h219v-61h-286v493h67zM195 936h-78v-150h78q37 0 58 20.5
t21 55.5q0 34 -21 54t-58 20zM117 561h82q40 0 64 22t24 60t-24 62t-64 24h-82v-168z" />
    <glyph glyph-name="uni2408" unicode="&#x2408;" 
d="M801 799l71 -23q50 -15 77.5 -53t27.5 -90q0 -63 -41.5 -100t-112.5 -37q-72 0 -114.5 37t-42.5 100h65q0 -35 25.5 -56.5t66.5 -21.5t64.5 21t23.5 57q0 28 -14.5 49.5t-40.5 28.5l-70 20q-52 15 -80 51t-28 86q0 61 39.5 97t107.5 36q66 0 106 -36t40 -97h-66
q0 34 -22 54t-60 20q-37 0 -58.5 -20t-21.5 -52q0 -55 58 -71zM477 762q40 -11 63 -43.5t23 -79.5q0 -63 -39.5 -100t-107.5 -37h-154v493h144q69 0 108 -34t39 -93q0 -39 -20.5 -67t-55.5 -39zM406 936h-78v-150h78q37 0 58 20.5t21 55.5q0 34 -21 54t-58 20zM328 561h82
q40 0 64 22t24 60t-24 62t-64 24h-82v-168z" />
    <glyph glyph-name="uni2408" 
d="M801 799l71 -23q50 -15 77.5 -53t27.5 -90q0 -63 -41.5 -100t-112.5 -37q-72 0 -114.5 37t-42.5 100h65q0 -35 25.5 -56.5t66.5 -21.5t64.5 21t23.5 57q0 28 -14.5 49.5t-40.5 28.5l-70 20q-52 15 -80 51t-28 86q0 61 39.5 97t107.5 36q66 0 106 -36t40 -97h-66
q0 34 -22 54t-60 20q-37 0 -58.5 -20t-21.5 -52q0 -55 58 -71zM477 762q40 -11 63 -43.5t23 -79.5q0 -63 -39.5 -100t-107.5 -37h-154v493h144q69 0 108 -34t39 -93q0 -39 -20.5 -67t-55.5 -39zM406 936h-78v-150h78q37 0 58 20.5t21 55.5q0 34 -21 54t-58 20zM328 561h82
q40 0 64 22t24 60t-24 62t-64 24h-82v-168z" />
    <glyph glyph-name="uni240B" unicode="&#x240b;" 
d="M451 502h-91l-127 493h70l82 -331q11 -49 23 -107q2 22 22 107l78 331h70zM854 502h-66v432h-135v61h336v-61h-135v-432z" />
    <glyph glyph-name="uni240B" 
d="M451 502h-91l-127 493h70l82 -331q11 -49 23 -107q2 22 22 107l78 331h70zM854 502h-66v432h-135v61h336v-61h-135v-432z" />
    <glyph glyph-name="uni240C" unicode="&#x240c;" 
d="M332 502h-68v493h295v-61h-229v-156h211v-61h-209v-215zM748 502h-68v493h295v-61h-230v-156h211v-61h-208v-215z" />
    <glyph glyph-name="uni240C" 
d="M332 502h-68v493h295v-61h-229v-156h211v-61h-209v-215zM748 502h-68v493h295v-61h-230v-156h211v-61h-208v-215z" />
    <glyph glyph-name="CR" unicode="&#xd;" horiz-adv-x="819" 
 />
    <glyph glyph-name="uni240E" unicode="&#x240e;" 
d="M408 496q-72 0 -115 37t-43 100h65q0 -35 26 -56.5t67 -21.5t64.5 21t23.5 57q0 28 -15 49.5t-41 28.5l-69 20q-52 15 -80.5 51t-28.5 86q0 61 40 97t108 36q66 0 105.5 -36t39.5 -97h-66q0 34 -21.5 54t-59.5 20q-37 0 -58.5 -20t-21.5 -52q0 -56 57 -71l72 -23
q49 -15 76.5 -52.5t27.5 -90.5q0 -63 -41.5 -100t-111.5 -37zM821 496q-68 0 -106.5 37.5t-38.5 103.5v221q0 67 38.5 105t106.5 38t107 -37.5t39 -103.5v-223q0 -66 -39 -103.5t-107 -37.5zM821 555q38 0 59 21t21 61v221q0 84 -80 84t-80 -84v-221q0 -40 21 -61t59 -21z
" />
    <glyph glyph-name="uni240E" 
d="M408 496q-72 0 -115 37t-43 100h65q0 -35 26 -56.5t67 -21.5t64.5 21t23.5 57q0 28 -15 49.5t-41 28.5l-69 20q-52 15 -80.5 51t-28.5 86q0 61 40 97t108 36q66 0 105.5 -36t39.5 -97h-66q0 34 -21.5 54t-59.5 20q-37 0 -58.5 -20t-21.5 -52q0 -56 57 -71l72 -23
q49 -15 76.5 -52.5t27.5 -90.5q0 -63 -41.5 -100t-111.5 -37zM821 496q-68 0 -106.5 37.5t-38.5 103.5v221q0 67 38.5 105t106.5 38t107 -37.5t39 -103.5v-223q0 -66 -39 -103.5t-107 -37.5zM821 555q38 0 59 21t21 61v221q0 84 -80 84t-80 -84v-221q0 -40 21 -61t59 -21z
" />
    <glyph glyph-name="uni240F" unicode="&#x240f;" 
d="M408 496q-72 0 -115 37t-43 100h65q0 -35 26 -56.5t67 -21.5t64.5 21t23.5 57q0 28 -15 49.5t-41 28.5l-69 20q-52 15 -80.5 51t-28.5 86q0 61 40 97t108 36q66 0 105.5 -36t39.5 -97h-66q0 34 -21.5 54t-59.5 20q-37 0 -58.5 -20t-21.5 -52q0 -56 57 -71l72 -23
q49 -15 76.5 -52.5t27.5 -90.5q0 -63 -41.5 -100t-111.5 -37zM956 502h-270v61h100v371h-100v61h270v-61h-100v-371h100v-61z" />
    <glyph glyph-name="uni240F" 
d="M408 496q-72 0 -115 37t-43 100h65q0 -35 26 -56.5t67 -21.5t64.5 21t23.5 57q0 28 -15 49.5t-41 28.5l-69 20q-52 15 -80.5 51t-28.5 86q0 61 40 97t108 36q66 0 105.5 -36t39.5 -97h-66q0 34 -21.5 54t-59.5 20q-37 0 -58.5 -20t-21.5 -52q0 -56 57 -71l72 -23
q49 -15 76.5 -52.5t27.5 -90.5q0 -63 -41.5 -100t-111.5 -37zM956 502h-270v61h100v371h-100v61h270v-61h-100v-371h100v-61z" />
    <glyph glyph-name="uni2410" unicode="&#x2410;" 
d="M184 502h-133v493h133q72 0 115 -40.5t43 -108.5v-195q0 -68 -43 -108.5t-115 -40.5zM772 502h-287v493h68v-432h219v-61zM1184 502h-287v493h287v-61h-221v-146h198v-59h-198v-168h221v-59zM119 936v-375h65q41 0 65.5 24.5t24.5 65.5v195q0 41 -24.5 65.5t-65.5 24.5
h-65z" />
    <glyph glyph-name="uni2410" 
d="M184 502h-133v493h133q72 0 115 -40.5t43 -108.5v-195q0 -68 -43 -108.5t-115 -40.5zM772 502h-287v493h68v-432h219v-61zM1184 502h-287v493h287v-61h-221v-146h198v-59h-198v-168h221v-59zM119 936v-375h65q41 0 65.5 24.5t24.5 65.5v195q0 41 -24.5 65.5t-65.5 24.5
h-65z" />
    <glyph glyph-name="uni2411" unicode="&#x2411;" 
d="M604 496q-68 0 -107.5 37.5t-39.5 103.5v221q0 67 39.5 105t107.5 38t108 -38.5t40 -104.5h-66q0 41 -21.5 62.5t-60.5 21.5t-60.5 -21.5t-21.5 -60.5v-223q0 -39 21.5 -60.5t60.5 -21.5t60.5 21.5t21.5 60.5h66q0 -64 -40 -102.5t-108 -38.5zM184 502h-133v493h133
q72 0 115 -40.5t43 -108.5v-195q0 -68 -43 -108.5t-115 -40.5zM1198 502h-307v61h133v375l-133 -98v71l113 84h88v-432h106v-61zM119 936v-375h65q41 0 65.5 24.5t24.5 65.5v195q0 41 -24.5 65.5t-65.5 24.5h-65z" />
    <glyph glyph-name="uni2411" 
d="M604 496q-68 0 -107.5 37.5t-39.5 103.5v221q0 67 39.5 105t107.5 38t108 -38.5t40 -104.5h-66q0 41 -21.5 62.5t-60.5 21.5t-60.5 -21.5t-21.5 -60.5v-223q0 -39 21.5 -60.5t60.5 -21.5t60.5 21.5t21.5 60.5h66q0 -64 -40 -102.5t-108 -38.5zM184 502h-133v493h133
q72 0 115 -40.5t43 -108.5v-195q0 -68 -43 -108.5t-115 -40.5zM1198 502h-307v61h133v375l-133 -98v71l113 84h88v-432h106v-61zM119 936v-375h65q41 0 65.5 24.5t24.5 65.5v195q0 41 -24.5 65.5t-65.5 24.5h-65z" />
    <glyph glyph-name="uni2412" unicode="&#x2412;" 
d="M604 496q-68 0 -107.5 37.5t-39.5 103.5v221q0 67 39.5 105t107.5 38t108 -38.5t40 -104.5h-66q0 41 -21.5 62.5t-60.5 21.5t-60.5 -21.5t-21.5 -60.5v-223q0 -39 21.5 -60.5t60.5 -21.5t60.5 21.5t21.5 60.5h66q0 -64 -40 -102.5t-108 -38.5zM1188 502h-297v63l160 172
q63 66 63 119q0 40 -23 63t-61 23q-40 0 -63 -23.5t-23 -64.5h-65q1 67 42 107t109 40q69 0 110.5 -38.5t41.5 -104.5q0 -71 -88 -162l-123 -133h217v-61zM184 502h-133v493h133q72 0 115 -40.5t43 -108.5v-195q0 -68 -43 -108.5t-115 -40.5zM119 936v-375h65
q41 0 65.5 24.5t24.5 65.5v195q0 41 -24.5 65.5t-65.5 24.5h-65z" />
    <glyph glyph-name="uni2412" 
d="M604 496q-68 0 -107.5 37.5t-39.5 103.5v221q0 67 39.5 105t107.5 38t108 -38.5t40 -104.5h-66q0 41 -21.5 62.5t-60.5 21.5t-60.5 -21.5t-21.5 -60.5v-223q0 -39 21.5 -60.5t60.5 -21.5t60.5 21.5t21.5 60.5h66q0 -64 -40 -102.5t-108 -38.5zM1188 502h-297v63l160 172
q63 66 63 119q0 40 -23 63t-61 23q-40 0 -63 -23.5t-23 -64.5h-65q1 67 42 107t109 40q69 0 110.5 -38.5t41.5 -104.5q0 -71 -88 -162l-123 -133h217v-61zM184 502h-133v493h133q72 0 115 -40.5t43 -108.5v-195q0 -68 -43 -108.5t-115 -40.5zM119 936v-375h65
q41 0 65.5 24.5t24.5 65.5v195q0 41 -24.5 65.5t-65.5 24.5h-65z" />
    <glyph glyph-name="uni2413" unicode="&#x2413;" 
d="M604 942q-39 0 -60.5 -21.5t-21.5 -60.5v-223q0 -39 21.5 -60.5t60.5 -21.5t60.5 21.5t21.5 60.5h66q0 -64 -40 -102.5t-108 -38.5t-107.5 37.5t-39.5 103.5v221q0 67 39.5 105t107.5 38t108 -38.5t40 -104.5h-66q0 41 -21.5 62.5t-60.5 21.5zM51 995h133q72 0 115 -40.5
t43 -108.5v-195q0 -68 -43 -108.5t-115 -40.5h-133v493zM1163 936l-112 -123q59 -6 94 -43.5t35 -97.5v-35q0 -64 -42 -102.5t-110 -38.5q-69 0 -110 38.5t-41 102.5h67q0 -39 22.5 -61.5t61.5 -22.5t61.5 22.5t22.5 61.5v35q0 40 -22 62t-62 22h-55v55l117 125h-193v59h266
v-59zM274 651v195q0 41 -24.5 65.5t-65.5 24.5h-65v-375h65q41 0 65.5 24.5t24.5 65.5z" />
    <glyph glyph-name="uni2413" 
d="M604 942q-39 0 -60.5 -21.5t-21.5 -60.5v-223q0 -39 21.5 -60.5t60.5 -21.5t60.5 21.5t21.5 60.5h66q0 -64 -40 -102.5t-108 -38.5t-107.5 37.5t-39.5 103.5v221q0 67 39.5 105t107.5 38t108 -38.5t40 -104.5h-66q0 41 -21.5 62.5t-60.5 21.5zM51 995h133q72 0 115 -40.5
t43 -108.5v-195q0 -68 -43 -108.5t-115 -40.5h-133v493zM1163 936l-112 -123q59 -6 94 -43.5t35 -97.5v-35q0 -64 -42 -102.5t-110 -38.5q-69 0 -110 38.5t-41 102.5h67q0 -39 22.5 -61.5t61.5 -22.5t61.5 22.5t22.5 61.5v35q0 40 -22 62t-62 22h-55v55l117 125h-193v59h266
v-59zM274 651v195q0 41 -24.5 65.5t-65.5 24.5h-65v-375h65q41 0 65.5 24.5t24.5 65.5z" />
    <glyph glyph-name="uni2414" unicode="&#x2414;" 
d="M604 496q-68 0 -107.5 37.5t-39.5 103.5v221q0 67 39.5 105t107.5 38t108 -38.5t40 -104.5h-66q0 41 -21.5 62.5t-60.5 21.5t-60.5 -21.5t-21.5 -60.5v-223q0 -39 21.5 -60.5t60.5 -21.5t60.5 21.5t21.5 60.5h66q0 -64 -40 -102.5t-108 -38.5zM184 502h-133v493h133
q72 0 115 -40.5t43 -108.5v-195q0 -68 -43 -108.5t-115 -40.5zM1165 502h-65v106h-223v101l180 286h73l-188 -301v-26h158v118h65v-284zM119 936v-375h65q41 0 65.5 24.5t24.5 65.5v195q0 41 -24.5 65.5t-65.5 24.5h-65z" />
    <glyph glyph-name="uni2414" 
d="M604 496q-68 0 -107.5 37.5t-39.5 103.5v221q0 67 39.5 105t107.5 38t108 -38.5t40 -104.5h-66q0 41 -21.5 62.5t-60.5 21.5t-60.5 -21.5t-21.5 -60.5v-223q0 -39 21.5 -60.5t60.5 -21.5t60.5 21.5t21.5 60.5h66q0 -64 -40 -102.5t-108 -38.5zM184 502h-133v493h133
q72 0 115 -40.5t43 -108.5v-195q0 -68 -43 -108.5t-115 -40.5zM1165 502h-65v106h-223v101l180 286h73l-188 -301v-26h158v118h65v-284zM119 936v-375h65q41 0 65.5 24.5t24.5 65.5v195q0 41 -24.5 65.5t-65.5 24.5h-65z" />
    <glyph glyph-name="uni2415" unicode="&#x2415;" 
d="M113 502h-64v493h88l146 -415q-7 122 -7 149v266h64v-493h-88l-146 416q7 -122 7 -148v-268zM500 502h-70l127 493h90l127 -493h-67l-33 129h-144zM958 502h-67v493h67v-209h68l107 209h71l-119 -237l127 -256h-75l-111 225h-68v-225zM580 834l-37 -148h119l-37 148
q-20 89 -23 106q-6 -33 -22 -106z" />
    <glyph glyph-name="uni2415" 
d="M113 502h-64v493h88l146 -415q-7 122 -7 149v266h64v-493h-88l-146 416q7 -122 7 -148v-268zM500 502h-70l127 493h90l127 -493h-67l-33 129h-144zM958 502h-67v493h67v-209h68l107 209h71l-119 -237l127 -256h-75l-111 225h-68v-225zM580 834l-37 -148h119l-37 148
q-20 89 -23 106q-6 -33 -22 -106z" />
    <glyph glyph-name="uni2416" unicode="&#x2416;" 
d="M197 496q-72 0 -115 37t-43 100h65q0 -35 26 -56.5t67 -21.5t64.5 21t23.5 57q0 28 -15 49.5t-41 28.5l-69 20q-52 15 -80.5 51t-28.5 86q0 61 40 97t108 36q66 0 105.5 -36t39.5 -97h-65q0 34 -22 54t-60 20q-37 0 -58.5 -20t-21.5 -52q0 -56 57 -71l72 -23
q49 -15 76.5 -52.5t27.5 -90.5q0 -63 -41.5 -100t-111.5 -37zM635 502h-66v182l-147 311h67l95 -194q15 -37 18 -53q1 3 8 21t13 32l92 194h67l-147 -311v-182zM952 502h-63v493h88l145 -415q-6 105 -6 149v266h64v-493h-88l-146 416q6 -105 6 -148v-268z" />
    <glyph glyph-name="uni2416" 
d="M197 496q-72 0 -115 37t-43 100h65q0 -35 26 -56.5t67 -21.5t64.5 21t23.5 57q0 28 -15 49.5t-41 28.5l-69 20q-52 15 -80.5 51t-28.5 86q0 61 40 97t108 36q66 0 105.5 -36t39.5 -97h-65q0 34 -22 54t-60 20q-37 0 -58.5 -20t-21.5 -52q0 -56 57 -71l72 -23
q49 -15 76.5 -52.5t27.5 -90.5q0 -63 -41.5 -100t-111.5 -37zM635 502h-66v182l-147 311h67l95 -194q15 -37 18 -53q1 3 8 21t13 32l92 194h67l-147 -311v-182zM952 502h-63v493h88l145 -415q-6 105 -6 149v266h64v-493h-88l-146 416q6 -105 6 -148v-268z" />
    <glyph glyph-name="uni2417" unicode="&#x2417;" 
d="M344 502h-287v493h287v-61h-221v-146h199v-59h-199v-168h221v-59zM569 934h-135v61h336v-61h-135v-432h-66v432zM1106 762q40 -11 63 -43.5t23 -79.5q0 -63 -40 -100t-108 -37h-153v493h143q69 0 108.5 -34t39.5 -93q0 -39 -20.5 -67t-55.5 -39zM1034 936h-78v-150h78
q37 0 58.5 20.5t21.5 55.5q0 34 -21.5 54t-58.5 20zM956 561h82q40 0 64 22t24 60t-24 62t-64 24h-82v-168z" />
    <glyph glyph-name="uni2417" 
d="M344 502h-287v493h287v-61h-221v-146h199v-59h-199v-168h221v-59zM569 934h-135v61h336v-61h-135v-432h-66v432zM1106 762q40 -11 63 -43.5t23 -79.5q0 -63 -40 -100t-108 -37h-153v493h143q69 0 108.5 -34t39.5 -93q0 -39 -20.5 -67t-55.5 -39zM1034 936h-78v-150h78
q37 0 58.5 20.5t21.5 55.5q0 34 -21.5 54t-58.5 20zM956 561h82q40 0 64 22t24 60t-24 62t-64 24h-82v-168z" />
    <glyph glyph-name="uni2418" unicode="&#x2418;" 
d="M197 496q-68 0 -108 37.5t-40 103.5v221q0 67 40 105t108 38t107.5 -38.5t39.5 -104.5h-65q0 41 -21.5 62.5t-60.5 21.5t-60.5 -21.5t-21.5 -60.5v-223q0 -39 21.5 -60.5t60.5 -21.5t60.5 21.5t21.5 60.5h65q0 -65 -40 -103t-107 -38zM500 502h-70l127 493h90l127 -493
h-67l-33 129h-144zM952 502h-63v493h88l145 -415q-6 105 -6 149v266h64v-493h-88l-146 416q6 -105 6 -148v-268zM580 834l-37 -148h119l-37 148q-20 89 -23 106q-6 -33 -22 -106z" />
    <glyph glyph-name="uni2418" 
d="M197 496q-68 0 -108 37.5t-40 103.5v221q0 67 40 105t108 38t107.5 -38.5t39.5 -104.5h-65q0 41 -21.5 62.5t-60.5 21.5t-60.5 -21.5t-21.5 -60.5v-223q0 -39 21.5 -60.5t60.5 -21.5t60.5 21.5t21.5 60.5h65q0 -65 -40 -103t-107 -38zM500 502h-70l127 493h90l127 -493
h-67l-33 129h-144zM952 502h-63v493h88l145 -415q-6 105 -6 149v266h64v-493h-88l-146 416q6 -105 6 -148v-268zM580 834l-37 -148h119l-37 148q-20 89 -23 106q-6 -33 -22 -106z" />
    <glyph glyph-name="uni2419" unicode="&#x2419;" 
d="M555 502h-287v493h287v-61h-221v-146h198v-59h-198v-168h221v-59zM731 502h-65v493h86l51 -159q4 -13 8 -28t7.5 -28.5t4.5 -17.5q4 31 19 76l49 157h86v-493h-66v227q0 95 19 232l-78 -244h-61l-78 241q18 -148 18 -229v-227z" />
    <glyph glyph-name="uni2419" 
d="M555 502h-287v493h287v-61h-221v-146h198v-59h-198v-168h221v-59zM731 502h-65v493h86l51 -159q4 -13 8 -28t7.5 -28.5t4.5 -17.5q4 31 19 76l49 157h86v-493h-66v227q0 95 19 232l-78 -244h-61l-78 241q18 -148 18 -229v-227z" />
    <glyph glyph-name="uni241A" unicode="&#x241a;" 
d="M174 799l72 -23q49 -15 76.5 -52.5t27.5 -90.5q0 -63 -41.5 -100t-111.5 -37q-72 0 -115 37t-43 100h65q0 -35 26 -56.5t67 -21.5t64.5 21t23.5 57q0 28 -15 49.5t-41 28.5l-69 20q-52 15 -80.5 51t-28.5 86q0 61 40 97t108 36q66 0 105.5 -36t39.5 -97h-65q0 34 -22 54
t-60 20q-37 0 -58.5 -20t-21.5 -52q0 -56 57 -71zM680 639v356h68v-356q0 -68 -38 -105.5t-108 -37.5q-69 0 -107 37.5t-38 105.5v356h67v-356q0 -84 78 -84q38 0 58 22t20 62zM1106 762q40 -11 63 -43.5t23 -79.5q0 -63 -40 -100t-108 -37h-153v493h143q69 0 108.5 -34
t39.5 -93q0 -39 -20.5 -67t-55.5 -39zM1034 936h-78v-150h78q37 0 58.5 20.5t21.5 55.5q0 34 -21.5 54t-58.5 20zM956 561h82q40 0 64 22t24 60t-24 62t-64 24h-82v-168z" />
    <glyph glyph-name="uni241A" 
d="M174 799l72 -23q49 -15 76.5 -52.5t27.5 -90.5q0 -63 -41.5 -100t-111.5 -37q-72 0 -115 37t-43 100h65q0 -35 26 -56.5t67 -21.5t64.5 21t23.5 57q0 28 -15 49.5t-41 28.5l-69 20q-52 15 -80.5 51t-28.5 86q0 61 40 97t108 36q66 0 105.5 -36t39.5 -97h-65q0 34 -22 54
t-60 20q-37 0 -58.5 -20t-21.5 -52q0 -56 57 -71zM680 639v356h68v-356q0 -68 -38 -105.5t-108 -37.5q-69 0 -107 37.5t-38 105.5v356h67v-356q0 -84 78 -84q38 0 58 22t20 62zM1106 762q40 -11 63 -43.5t23 -79.5q0 -63 -40 -100t-108 -37h-153v493h143q69 0 108.5 -34
t39.5 -93q0 -39 -20.5 -67t-55.5 -39zM1034 936h-78v-150h78q37 0 58.5 20.5t21.5 55.5q0 34 -21.5 54t-58.5 20zM956 561h82q40 0 64 22t24 60t-24 62t-64 24h-82v-168z" />
    <glyph glyph-name="uni241B" unicode="&#x241b;" 
d="M604 496q-72 0 -115 37t-43 100h66q0 -35 25.5 -56.5t66.5 -21.5t64.5 21t23.5 57q0 28 -14.5 49.5t-40.5 28.5l-70 20q-52 15 -80 51t-28 86q0 61 39.5 97t107.5 36q66 0 106 -36t40 -97h-66q0 34 -22 54t-60 20q-37 0 -58.5 -20t-21.5 -52q0 -55 58 -71l71 -23
q50 -15 77.5 -53t27.5 -90q0 -63 -41.5 -100t-112.5 -37zM1036 496q-68 0 -107.5 37.5t-39.5 103.5v221q0 67 39.5 105t107.5 38t108 -38.5t40 -104.5h-66q0 41 -21.5 62.5t-60.5 21.5t-60.5 -21.5t-21.5 -60.5v-223q0 -39 21.5 -60.5t60.5 -21.5t60.5 21.5t21.5 60.5h66
q0 -64 -40 -102.5t-108 -38.5zM344 502h-287v493h287v-61h-221v-146h199v-59h-199v-168h221v-59z" />
    <glyph glyph-name="uni241B" 
d="M604 496q-72 0 -115 37t-43 100h66q0 -35 25.5 -56.5t66.5 -21.5t64.5 21t23.5 57q0 28 -14.5 49.5t-40.5 28.5l-70 20q-52 15 -80 51t-28 86q0 61 39.5 97t107.5 36q66 0 106 -36t40 -97h-66q0 34 -22 54t-60 20q-37 0 -58.5 -20t-21.5 -52q0 -55 58 -71l71 -23
q50 -15 77.5 -53t27.5 -90q0 -63 -41.5 -100t-112.5 -37zM1036 496q-68 0 -107.5 37.5t-39.5 103.5v221q0 67 39.5 105t107.5 38t108 -38.5t40 -104.5h-66q0 41 -21.5 62.5t-60.5 21.5t-60.5 -21.5t-21.5 -60.5v-223q0 -39 21.5 -60.5t60.5 -21.5t60.5 21.5t21.5 60.5h66
q0 -64 -40 -102.5t-108 -38.5zM344 502h-287v493h287v-61h-221v-146h199v-59h-199v-168h221v-59z" />
    <glyph glyph-name="uni241C" unicode="&#x241c;" 
d="M823 496q-72 0 -114.5 37t-42.5 100h65q0 -35 25.5 -56.5t66.5 -21.5t64.5 21t23.5 57q0 28 -14.5 49.5t-40.5 28.5l-70 20q-52 15 -80 51t-28 86q0 61 39.5 97t107.5 36q66 0 106 -36t40 -97h-66q0 34 -22 54t-60 20q-37 0 -58.5 -20t-21.5 -52q0 -55 58 -71l71 -23
q50 -15 77.5 -53t27.5 -90q0 -63 -41.5 -100t-112.5 -37zM332 502h-68v493h295v-61h-229v-156h211v-61h-209v-215z" />
    <glyph glyph-name="uni241C" 
d="M823 496q-72 0 -114.5 37t-42.5 100h65q0 -35 25.5 -56.5t66.5 -21.5t64.5 21t23.5 57q0 28 -14.5 49.5t-40.5 28.5l-70 20q-52 15 -80 51t-28 86q0 61 39.5 97t107.5 36q66 0 106 -36t40 -97h-66q0 34 -22 54t-60 20q-37 0 -58.5 -20t-21.5 -52q0 -55 58 -71l71 -23
q50 -15 77.5 -53t27.5 -90q0 -63 -41.5 -100t-112.5 -37zM332 502h-68v493h295v-61h-229v-156h211v-61h-209v-215z" />
    <glyph glyph-name="uni241D" unicode="&#x241d;" 
d="M408 496q-68 0 -108 37.5t-40 103.5v221q0 67 40 105t108 38t107.5 -38.5t39.5 -104.5h-66q0 41 -21 62.5t-60 21.5t-60.5 -21.5t-21.5 -60.5v-223q0 -39 21.5 -60.5t60.5 -21.5q38 0 59.5 21.5t21.5 60.5v59h-96v60h162v-119q0 -65 -40 -103t-107 -38zM823 496
q-72 0 -114.5 37t-42.5 100h65q0 -35 25.5 -56.5t66.5 -21.5t64.5 21t23.5 57q0 28 -14.5 49.5t-40.5 28.5l-70 20q-52 15 -80 51t-28 86q0 61 39.5 97t107.5 36q66 0 106 -36t40 -97h-66q0 34 -22 54t-60 20q-37 0 -58.5 -20t-21.5 -52q0 -55 58 -71l71 -23
q50 -15 77.5 -53t27.5 -90q0 -63 -41.5 -100t-112.5 -37z" />
    <glyph glyph-name="uni241D" 
d="M408 496q-68 0 -108 37.5t-40 103.5v221q0 67 40 105t108 38t107.5 -38.5t39.5 -104.5h-66q0 41 -21 62.5t-60 21.5t-60.5 -21.5t-21.5 -60.5v-223q0 -39 21.5 -60.5t60.5 -21.5q38 0 59.5 21.5t21.5 60.5v59h-96v60h162v-119q0 -65 -40 -103t-107 -38zM823 496
q-72 0 -114.5 37t-42.5 100h65q0 -35 25.5 -56.5t66.5 -21.5t64.5 21t23.5 57q0 28 -14.5 49.5t-40.5 28.5l-70 20q-52 15 -80 51t-28 86q0 61 39.5 97t107.5 36q66 0 106 -36t40 -97h-66q0 34 -22 54t-60 20q-37 0 -58.5 -20t-21.5 -52q0 -55 58 -71l71 -23
q50 -15 77.5 -53t27.5 -90q0 -63 -41.5 -100t-112.5 -37z" />
    <glyph glyph-name="uni241E" unicode="&#x241e;" 
d="M823 496q-72 0 -114.5 37t-42.5 100h65q0 -35 25.5 -56.5t66.5 -21.5t64.5 21t23.5 57q0 28 -14.5 49.5t-40.5 28.5l-70 20q-52 15 -80 51t-28 86q0 61 39.5 97t107.5 36q66 0 106 -36t40 -97h-66q0 34 -22 54t-60 20q-37 0 -58.5 -20t-21.5 -52q0 -55 58 -71l71 -23
q50 -15 77.5 -53t27.5 -90q0 -63 -41.5 -100t-112.5 -37zM330 502h-68v493h154q68 0 109.5 -39.5t41.5 -103.5q0 -49 -26 -85t-70 -50l102 -215h-77l-93 207h-73v-207zM330 936v-168h86q37 0 59.5 23t22.5 61t-22.5 61t-59.5 23h-86z" />
    <glyph glyph-name="uni241E" 
d="M823 496q-72 0 -114.5 37t-42.5 100h65q0 -35 25.5 -56.5t66.5 -21.5t64.5 21t23.5 57q0 28 -14.5 49.5t-40.5 28.5l-70 20q-52 15 -80 51t-28 86q0 61 39.5 97t107.5 36q66 0 106 -36t40 -97h-66q0 34 -22 54t-60 20q-37 0 -58.5 -20t-21.5 -52q0 -55 58 -71l71 -23
q50 -15 77.5 -53t27.5 -90q0 -63 -41.5 -100t-112.5 -37zM330 502h-68v493h154q68 0 109.5 -39.5t41.5 -103.5q0 -49 -26 -85t-70 -50l102 -215h-77l-93 207h-73v-207zM330 936v-168h86q37 0 59.5 23t22.5 61t-22.5 61t-59.5 23h-86z" />
    <glyph glyph-name="uni241F" unicode="&#x241f;" 
d="M823 496q-72 0 -114.5 37t-42.5 100h65q0 -35 25.5 -56.5t66.5 -21.5t64.5 21t23.5 57q0 28 -14.5 49.5t-40.5 28.5l-70 20q-52 15 -80 51t-28 86q0 61 39.5 97t107.5 36q66 0 106 -36t40 -97h-66q0 34 -22 54t-60 20q-37 0 -58.5 -20t-21.5 -52q0 -55 58 -71l71 -23
q50 -15 77.5 -53t27.5 -90q0 -63 -41.5 -100t-112.5 -37zM406 496q-69 0 -107.5 37.5t-38.5 105.5v356h68v-356q0 -84 78 -84q77 0 77 84v356h68v-356q0 -68 -37.5 -105.5t-107.5 -37.5z" />
    <glyph glyph-name="uni241F" 
d="M823 496q-72 0 -114.5 37t-42.5 100h65q0 -35 25.5 -56.5t66.5 -21.5t64.5 21t23.5 57q0 28 -14.5 49.5t-40.5 28.5l-70 20q-52 15 -80 51t-28 86q0 61 39.5 97t107.5 36q66 0 106 -36t40 -97h-66q0 34 -22 54t-60 20q-37 0 -58.5 -20t-21.5 -52q0 -55 58 -71l71 -23
q50 -15 77.5 -53t27.5 -90q0 -63 -41.5 -100t-112.5 -37zM406 496q-69 0 -107.5 37.5t-38.5 105.5v356h68v-356q0 -84 78 -84q77 0 77 84v356h68v-356q0 -68 -37.5 -105.5t-107.5 -37.5z" />
    <glyph glyph-name="space" unicode=" " horiz-adv-x="819" 
 />
    <glyph glyph-name="exclam" unicode="!" horiz-adv-x="819" 
d="M483 451h-147l-43 790v254h233v-254zM440 -10h-61q-56 0 -91.5 35t-35.5 92q0 55 35.5 90t91.5 35h61q59 0 93 -34.5t34 -90.5t-35 -91.5t-92 -35.5z" />
    <glyph glyph-name="quotedbl" unicode="&#x22;" horiz-adv-x="819" 
d="M281 881h-166l-25 409v205h215v-205zM707 881h-166l-27 409v205h215v-205z" />
    <glyph glyph-name="numbersign" unicode="#" 
d="M319 0h-151l76 420h-172v143h196l68 369h-193v143h217l78 420h154l-78 -420h317l78 420h154l-78 -420h172v-143h-196l-68 -369h192v-143h-217l-77 -420h-152l76 420h-318zM489 932l-67 -369h317l68 369h-318z" />
    <glyph glyph-name="dollar" unicode="$" 
d="M684 848l78 -25q156 -47 242 -160t86 -270q0 -170 -110.5 -281t-295.5 -130v-269h-125v269q-195 15 -306 123.5t-114 287.5h203q0 -95 57 -155t160 -74v510l-49 14q-159 47 -245.5 158.5t-86.5 265.5q0 167 103 274.5t278 124.5v271h125v-269q176 -17 280 -124t105 -275
h-203q0 90 -47.5 147t-134.5 70v-483zM381 1128q0 -87 46 -150t132 -91v444q-85 -14 -131.5 -67t-46.5 -136zM684 657v-493q96 14 149.5 73t53.5 152q0 90 -53 154.5t-148 87.5z" />
    <glyph glyph-name="percent" unicode="%" 
d="M319 819q-130 0 -209 74.5t-79 202.5v133q0 128 79 202t209 74t208.5 -74t78.5 -202v-133q0 -128 -78.5 -202.5t-208.5 -74.5zM180 0h-160l1029 1495h159zM319 963q130 0 130 133v133q0 133 -130 133q-129 0 -129 -133v-133q0 -133 129 -133zM909 -10q-130 0 -208 74
t-78 202v133q0 128 78 202.5t208 74.5q131 0 210 -74.5t79 -202.5v-133q0 -128 -78.5 -202t-210.5 -74zM909 135q66 0 97.5 32t31.5 99v133q0 133 -129 133t-129 -133v-133q0 -131 129 -131z" />
    <glyph glyph-name="ampersand" unicode="&#x26;" 
d="M473 -20q-172 0 -269.5 93t-97.5 257v239q0 116 60 193.5t170 105.5l-19 2q-122 167 -122 316t102.5 239.5t271.5 90.5q180 0 286 -96.5t106 -260.5h-197q0 86 -52.5 135t-142.5 49q-82 0 -130 -45t-48 -120q0 -109 86 -226l334 -463l137 248h207l-229 -409l237 -328
h-215l-121 168q-150 -188 -354 -188zM485 156q67 0 129 42.5t103 116.5l-295 412q-117 -28 -117 -158v-239q0 -83 47.5 -128.5t132.5 -45.5z" />
    <glyph glyph-name="quotesingle" unicode="'" horiz-adv-x="409" 
d="M289 881h-166l-27 305v309h215v-309z" />
    <glyph glyph-name="parenleft" unicode="(" horiz-adv-x="819" 
d="M727 -45v-201q-295 73 -459 283.5t-164 515.5v369q0 298 167 512t456 286v-194q-192 -44 -306 -207.5t-114 -396.5v-369q0 -230 113 -391t307 -207z" />
    <glyph glyph-name="parenright" unicode=")" horiz-adv-x="819" 
d="M86 -246v201q195 46 308.5 207t113.5 391v369q0 233 -114 396.5t-308 207.5v194q290 -72 457.5 -286t167.5 -512v-369q0 -305 -164.5 -515.5t-460.5 -283.5z" />
    <glyph glyph-name="asterisk" unicode="*" 
d="M479 338l-104 -150l-158 111l105 150q66 93 215 213l-7 12q-195 15 -292 51l-168 61l65 183l168 -62q110 -41 262 -153l10 8q-57 188 -57 305v182h193v-182q0 -113 -58 -305l9 -8q151 112 260 153l172 62l65 -183l-170 -61q-97 -36 -291 -51l-8 -15q149 -116 213 -210
l107 -150l-158 -111l-107 150q-64 95 -124 276h-15q-69 -193 -127 -276z" />
    <glyph glyph-name="plus" unicode="+" 
d="M715 193h-201v393h-383v182h383v391h201v-391h385v-182h-385v-393z" />
    <glyph glyph-name="comma" unicode="," horiz-adv-x="819" 
d="M334 -328h-180l163 637h283z" />
    <glyph glyph-name="hyphen" unicode="-" 
d="M942 586h-655v182h655v-182z" />
    <glyph glyph-name="period" unicode="." horiz-adv-x="819" 
d="M410 -20q-82 0 -129.5 46.5t-47.5 125.5q0 83 47.5 130.5t129.5 47.5t129 -47.5t47 -130.5q0 -80 -47 -126t-129 -46z" />
    <glyph glyph-name="slash" unicode="/" 
d="M358 -225h-213l725 1925h213z" />
    <glyph glyph-name="zero" unicode="0" 
d="M614 -20q-210 0 -333 120t-123 322v651q0 202 123 322.5t333 120.5t333.5 -120.5t123.5 -322.5v-651q0 -201 -124 -321.5t-333 -120.5zM614 154q118 0 190.5 74.5t72.5 193.5v651q0 120 -72.5 194t-190.5 74t-190 -74t-72 -194v-651q0 -119 72 -193.5t190 -74.5zM614 623
q-57 0 -91 36t-34 95q0 57 34 92t91 35t92 -35t35 -92q0 -59 -35 -95t-92 -36z" />
    <glyph glyph-name="one" unicode="1" 
d="M1112 0h-930v184h400v1139l-402 -301v221l340 252h264v-1311h328v-184z" />
    <glyph glyph-name="two" unicode="2" 
d="M1081 0h-899v195l484 522q100 106 145 191.5t45 168.5q0 119 -68.5 188.5t-185.5 69.5q-120 0 -189 -71.5t-69 -194.5h-203q4 205 129.5 326t331.5 121q211 0 334 -118t123 -319q0 -110 -62.5 -226t-199.5 -263l-377 -406h661v-184z" />
    <glyph glyph-name="three" unicode="3" 
d="M1006 1313l-344 -369q182 -19 287.5 -133.5t105.5 -296.5v-104q0 -193 -127 -311.5t-334 -118.5t-332 118t-125 312h203q0 -118 68 -185t188 -67t188 68t68 184v104q0 120 -67.5 187t-188.5 67h-166v170l348 377h-577v180h805v-182z" />
    <glyph glyph-name="four" unicode="4" 
d="M1014 0h-203v319h-674v310l547 866h223l-569 -909v-84h473v358h203v-860z" />
    <glyph glyph-name="five" unicode="5" 
d="M678 983q181 1 283 -112t102 -314v-145q0 -201 -120 -316.5t-333 -115.5q-188 0 -306.5 96.5t-137.5 261.5h203q11 -87 73 -132.5t170 -45.5q122 0 185 65t63 187v145q0 121 -63 186.5t-183 65.5q-75 0 -131.5 -37.5t-83.5 -101.5h-200l10 825h801v-184h-607l-6 -482h6
q20 72 92.5 113t182.5 41z" />
    <glyph glyph-name="six" unicode="6" 
d="M616 -20q-221 0 -356 133t-135 350q0 183 137 420l348 612h221l-407 -694l8 -6q39 58 107.5 91.5t154.5 33.5q183 0 296.5 -125.5t113.5 -329.5q0 -218 -134 -351.5t-354 -133.5zM614 158q129 0 208 83.5t79 219.5t-79 219.5t-208 83.5t-207.5 -83t-78.5 -220t78.5 -220
t207.5 -83z" />
    <glyph glyph-name="seven" unicode="7" 
d="M598 0h-223l536 1313h-553v-242h-202v424h966v-186z" />
    <glyph glyph-name="eight" unicode="8" 
d="M809 780q135 -64 213 -171t78 -232q0 -178 -133.5 -287.5t-352.5 -109.5t-352 109.5t-133 287.5q0 127 78.5 234t214.5 169q-127 62 -193.5 154t-66.5 199q0 168 127 276.5t325 108.5t325.5 -109t127.5 -276q0 -107 -66 -198t-192 -155zM614 1339q-113 0 -183.5 -60.5
t-70.5 -156.5q0 -80 54 -145t143 -98l57 -23l50 21q92 36 148 102t56 143q0 97 -70 157t-184 60zM614 158q129 0 208 67t79 176q0 87 -54.5 157.5t-148.5 109.5l-84 32l-88 -34q-93 -36 -145.5 -107.5t-52.5 -155.5q0 -110 78.5 -177.5t207.5 -67.5z" />
    <glyph glyph-name="nine" unicode="9" 
d="M625 0h-226l404 692l-8 6q-39 -58 -106.5 -90.5t-153.5 -32.5q-183 0 -296.5 125.5t-113.5 329.5q0 217 134.5 351.5t352.5 134.5q220 0 356 -133.5t136 -348.5q0 -176 -139 -422zM614 729q129 0 208 84t79 221q0 136 -79 219.5t-208 83.5t-207.5 -83t-78.5 -220
t78.5 -221t207.5 -84z" />
    <glyph glyph-name="colon" unicode=":" horiz-adv-x="819" 
d="M410 831q-79 0 -128 43.5t-49 114.5q0 70 49.5 114t127.5 44q79 0 127.5 -43.5t48.5 -114.5q0 -72 -48 -115t-128 -43zM410 -20q-78 0 -127.5 43.5t-49.5 113.5q0 72 49.5 116t127.5 44q79 0 127.5 -44t48.5 -116q0 -71 -48.5 -114t-127.5 -43z" />
    <glyph glyph-name="semicolon" unicode=";" horiz-adv-x="819" 
d="M430 831h-41q-69 0 -113.5 44.5t-44.5 113.5q0 67 45.5 112.5t112.5 45.5h41q68 0 113 -45.5t45 -112.5q0 -69 -44.5 -113.5t-113.5 -44.5zM315 -328h-180l164 637h283z" />
    <glyph glyph-name="less" unicode="&#x3c;" 
d="M1059 328v-199l-889 438v217l889 439v-193l-625 -303q-66 -32 -127 -47q60 -13 127 -49z" />
    <glyph glyph-name="equal" unicode="=" 
d="M1057 831h-885v183h885v-183zM1057 338h-885v182h885v-182z" />
    <glyph glyph-name="greater" unicode="&#x3e;" 
d="M1059 567l-889 -438v193l625 301q74 36 127 49q-60 13 -127 49l-625 303v199l889 -439v-217z" />
    <glyph glyph-name="question" unicode="?" 
d="M608 426h-194l-2 379h116q124 0 197.5 68t73.5 182t-73.5 182t-199.5 68h-268v190h266q218 0 347.5 -119.5t129.5 -320.5q0 -180 -109 -297.5t-284 -124.5v-207zM539 -10h-62q-56 0 -91.5 35t-35.5 92q0 55 35.5 90t91.5 35h62q59 0 94 -34.5t35 -90.5t-36 -91.5
t-93 -35.5z" />
    <glyph glyph-name="at" unicode="@" 
d="M645 1516q236 0 372 -134.5t136 -365.5v-883h-172v137h-6q-8 -71 -66 -114t-151 -43q-132 0 -201.5 82t-69.5 239v242q0 156 69.5 238.5t201.5 82.5q92 0 150.5 -42.5t66.5 -114.5h8l-6 164v12q0 168 -86 257t-248 89q-180 0 -280.5 -115.5t-100.5 -324.5v-697
q0 -200 107.5 -315t296.5 -115h143v-164h-143q-265 0 -422.5 161t-157.5 433v697q0 277 149 435.5t410 158.5zM977 451v227q0 93 -39 137.5t-119 44.5q-157 0 -157 -184v-242q0 -96 38.5 -141t118.5 -45q81 0 119.5 50t38.5 153z" />
    <glyph glyph-name="A" unicode="A" 
d="M301 0h-207l387 1495h269l385 -1495h-207l-94 389h-439zM545 1006l-111 -449h359l-109 447q-58 245 -70 325q-14 -93 -69 -323z" />
    <glyph glyph-name="B" unicode="B" 
d="M831 791q124 -32 194.5 -130.5t70.5 -242.5q0 -192 -122 -305t-331 -113h-461v1495h432q207 0 327 -103.5t120 -283.5q0 -122 -61 -204.5t-169 -112.5zM614 1317h-233v-453h231q114 0 180 61t66 165q0 106 -65 166.5t-179 60.5zM381 178h244q125 0 196.5 66.5t71.5 181.5
q0 120 -72.5 193t-195.5 73h-244v-514z" />
    <glyph glyph-name="C" unicode="C" 
d="M623 -20q-208 0 -329.5 116t-121.5 318v669q0 200 121.5 316.5t329.5 116.5q204 0 326 -117.5t122 -315.5h-203q0 121 -64.5 186.5t-180.5 65.5q-118 0 -183 -65.5t-65 -186.5v-669q0 -122 65 -188t183 -66q116 0 180.5 66t64.5 188h203q0 -199 -122 -316.5t-326 -117.5z
" />
    <glyph glyph-name="D" unicode="D" 
d="M582 0h-402v1495h402q218 0 348.5 -123.5t130.5 -329.5v-587q0 -207 -130.5 -331t-348.5 -124zM383 1315v-1135h199q129 0 202.5 73.5t73.5 201.5v587q0 128 -73.5 200.5t-202.5 72.5h-199z" />
    <glyph glyph-name="E" unicode="E" 
d="M1069 0h-870v1495h870v-182h-670v-445h598v-176h-598v-510h670v-182z" />
    <glyph glyph-name="F" unicode="F" 
d="M389 0h-203v1495h893v-186h-694v-471h641v-185h-637v-653z" />
    <glyph glyph-name="G" unicode="G" 
d="M623 -20q-208 0 -329.5 116t-121.5 318v669q0 200 121.5 316.5t329.5 116.5q204 0 326 -117.5t122 -315.5h-203q0 121 -64.5 186.5t-180.5 65.5q-118 0 -183 -65.5t-65 -186.5v-669q0 -122 65 -188t183 -66q116 0 180.5 66t64.5 188v174h-290v182h493v-356
q0 -199 -122 -316.5t-326 -117.5z" />
    <glyph glyph-name="H" unicode="H" 
d="M385 0h-203v1495h203v-629h459v629h203v-1495h-203v682h-459v-682z" />
    <glyph glyph-name="I" unicode="I" 
d="M1022 0h-815v184h305v1127h-305v184h815v-184h-305v-1127h305v-184z" />
    <glyph glyph-name="J" unicode="J" 
d="M553 -20q-218 0 -343.5 121.5t-125.5 332.5h203q0 -130 70 -202t196 -72q125 0 195.5 71.5t70.5 200.5v879h-420v184h623v-1063q0 -209 -126 -330.5t-343 -121.5z" />
    <glyph glyph-name="K" unicode="K" 
d="M383 0h-203v1495h203v-633h209l319 633h222l-363 -717l381 -778h-229l-334 684h-205v-684z" />
    <glyph glyph-name="L" unicode="L" 
d="M1130 0h-868v1495h203v-1311h665v-184z" />
    <glyph glyph-name="M" unicode="M" 
d="M340 0h-195v1495h258l156 -481q23 -72 59 -226q20 107 58 228l149 479h258v-1495h-194v686q0 314 53 703l-233 -736h-189l-235 731q55 -381 55 -698v-686z" />
    <glyph glyph-name="N" unicode="N" 
d="M367 0h-191v1495h262l447 -1262q-23 251 -23 457v805h193v-1495h-264l-445 1262q21 -218 21 -449v-813z" />
    <glyph glyph-name="O" unicode="O" 
d="M614 -20q-205 0 -323.5 116t-118.5 318v669q0 201 119 317t323 116t323.5 -116t119.5 -317v-669q0 -202 -119 -318t-324 -116zM614 160q116 0 178 65.5t62 188.5v669q0 121 -62 186.5t-178 65.5q-115 0 -177 -65t-62 -187v-669q0 -123 61.5 -188.5t177.5 -65.5z" />
    <glyph glyph-name="P" unicode="P" 
d="M383 0h-203v1495h486q214 0 340.5 -121t126.5 -325q0 -203 -127 -324t-340 -121h-283v-604zM383 1315v-531h283q118 0 188 72.5t70 192.5q0 122 -70 194t-188 72h-283z" />
    <glyph glyph-name="Q" unicode="Q" 
d="M846 29l241 -398h-229l-213 351q-8 -2 -31 -2q-209 0 -332.5 120.5t-123.5 321.5v651q0 203 123.5 323t332.5 120t333 -121t124 -322v-651q0 -137 -59 -239.5t-166 -153.5zM614 160q117 0 185.5 71t68.5 191v651q0 122 -68.5 193t-185.5 71t-185.5 -71t-68.5 -193v-651
q0 -120 68.5 -191t185.5 -71z" />
    <glyph glyph-name="R" unicode="R" 
d="M383 0h-203v1495h465q205 0 331 -119.5t126 -314.5q0 -150 -77.5 -259.5t-211.5 -152.5l309 -649h-235l-279 625h-225v-625zM383 1315v-510h262q114 0 181 69t67 185q0 117 -67.5 186.5t-180.5 69.5h-262z" />
    <glyph glyph-name="S" unicode="S" 
d="M621 -20q-220 0 -351 112.5t-131 302.5h203q0 -106 77 -170.5t204 -64.5q123 0 194.5 63.5t71.5 171.5q0 85 -45 149t-123 87l-211 63q-157 47 -244.5 157t-87.5 261q0 184 121.5 294t325.5 110q202 0 323 -109.5t121 -292.5h-203q0 102 -65.5 162.5t-177.5 60.5
t-179 -60.5t-67 -160.5q0 -80 45.5 -137t128.5 -82l217 -68q150 -46 236 -161t86 -271q0 -190 -127.5 -303.5t-341.5 -113.5z" />
    <glyph glyph-name="T" unicode="T" 
d="M717 0h-203v1311h-405v184h1011v-184h-403v-1311z" />
    <glyph glyph-name="U" unicode="U" 
d="M614 -20q-210 0 -324 115.5t-114 318.5v1081h203v-1081q0 -121 59.5 -187.5t175.5 -66.5t177 67t61 187v1081h203v-1081q0 -204 -114.5 -319t-326.5 -115z" />
    <glyph glyph-name="V" unicode="V" 
d="M750 0h-273l-383 1495h209l248 -1008q23 -90 67 -321q19 118 68 323l240 1006h209z" />
    <glyph glyph-name="W" unicode="W" 
d="M459 0h-246l-166 1495h186l109 -1089q14 -201 16 -263q16 170 27 263l135 1089h197l125 -1089q16 -140 28 -263q7 117 21 263l110 1089h181l-172 -1495h-244l-123 1106q-19 174 -25 252q-2 -21 -11 -111t-15 -141z" />
    <glyph glyph-name="X" unicode="X" 
d="M299 0h-223l426 760l-404 735h232l221 -426l67 -135q12 30 66 135l223 426h223l-403 -725l426 -770h-229l-246 459q-51 100 -66 141q-36 -86 -67 -139z" />
    <glyph glyph-name="Y" unicode="Y" 
d="M717 0h-203v555l-448 940h210l281 -590q47 -102 59 -157q19 65 64 157l274 590h209l-446 -940v-555z" />
    <glyph glyph-name="Z" unicode="Z" 
d="M1059 0h-887v199l653 1112h-643v184h854v-199l-655 -1112h678v-184z" />
    <glyph glyph-name="bracketleft" unicode="[" horiz-adv-x="819" 
d="M733 -225h-520v1925h520v-182h-317v-1561h317v-182z" />
    <glyph glyph-name="backslash" unicode="\" 
d="M1083 -225h-213l-725 1925h213z" />
    <glyph glyph-name="bracketright" unicode="]" horiz-adv-x="819" 
d="M606 -225h-520v182h317v1561h-317v182h520v-1925z" />
    <glyph glyph-name="asciicircum" unicode="^" 
d="M342 696h-184l362 799h193l358 -799h-184l-219 514q-34 79 -47 140q-33 -95 -54 -140z" />
    <glyph glyph-name="underscore" unicode="_" 
d="M1106 -225h-983v174h983v-174z" />
    <glyph glyph-name="grave" unicode="`" 
d="M770 1321h-211l-237 287h225z" />
    <glyph glyph-name="a" unicode="a" 
d="M625 1147q197 0 312.5 -101t115.5 -274v-772h-199v209q-15 -107 -107 -168t-237 -61q-178 0 -279.5 90t-101.5 247q0 160 105 251t288 91h328v107q0 98 -60 152.5t-167 54.5q-95 0 -160.5 -42t-79.5 -110h-199q13 146 135.5 236t305.5 90zM565 137q125 0 205 62.5
t80 160.5v154h-324q-91 0 -142.5 -48.5t-51.5 -133.5q0 -92 61.5 -143.5t171.5 -51.5z" />
    <glyph glyph-name="b" unicode="b" 
d="M688 1147q171 0 273 -114t102 -308v-324q0 -194 -102.5 -307.5t-272.5 -113.5q-128 0 -209 62.5t-96 172.5h-2v-215h-201v1495h203v-324l-4 -260h6q13 109 95 172.5t208 63.5zM860 414v301q0 122 -64.5 189t-177.5 67q-109 0 -172 -67.5t-63 -188.5v-301
q0 -122 62.5 -190t172.5 -68q114 0 178 67.5t64 190.5z" />
    <glyph glyph-name="c" unicode="c" 
d="M623 -20q-209 0 -333 116.5t-124 317.5v301q0 200 124.5 316t332.5 116q200 0 320 -106t126 -287h-201q-6 101 -71 158t-174 57q-118 0 -186 -67t-68 -187v-301q0 -122 68 -188t186 -66q109 0 174 56t71 157h201q-6 -181 -126 -287t-320 -106z" />
    <glyph glyph-name="d" unicode="d" 
d="M846 1171v324h203v-1495h-201v213h-4q-19 -110 -98.5 -171.5t-204.5 -61.5q-170 0 -272.5 113.5t-102.5 307.5v324q0 194 102 308t273 114q121 0 202 -62t101 -170h6zM610 156q109 0 172.5 68.5t63.5 189.5v299q0 121 -63.5 189.5t-172.5 68.5q-113 0 -177 -67t-64 -189
v-301q0 -124 64 -191t177 -67z" />
    <glyph glyph-name="e" unicode="e" 
d="M1063 715v-201h-701v-100q0 -130 65 -198.5t187 -68.5q102 0 164.5 37t77.5 107h201q-22 -142 -142.5 -226.5t-300.5 -84.5q-203 0 -325.5 119t-122.5 315v301q0 195 123 313.5t325 118.5q204 0 326.5 -118.5t122.5 -313.5zM362 715v-56h504v56q0 129 -64.5 197.5
t-187.5 68.5q-122 0 -187 -68.5t-65 -197.5z" />
    <glyph glyph-name="f" unicode="f" horiz-adv-x="1024" 
d="M530 0h-202v827h-240v185h240v188q0 137 87.5 216t239.5 79h271v-182h-269q-60 0 -93.5 -30t-33.5 -85v-186h396v-185h-396v-827z" />
    <glyph glyph-name="g" unicode="g" 
d="M848 911l-2 215h201v-1157q0 -157 -98.5 -247.5t-270.5 -90.5h-352v181h352q86 0 127 38.5t41 120.5v129l4 205h-4q-12 -109 -92.5 -172t-206.5 -63q-173 0 -274 114.5t-101 309.5v231q0 194 101 308t274 114q126 0 206.5 -63.5t92.5 -172.5h2zM610 246q109 0 172.5 68.5
t63.5 189.5v211q0 121 -63 188.5t-173 67.5q-113 0 -174 -66.5t-61 -189.5v-211q0 -124 61 -191t174 -67z" />
    <glyph glyph-name="h" unicode="h" 
d="M684 1147q168 0 268.5 -106t100.5 -287v-754h-203v731q0 115 -61.5 179.5t-167.5 64.5q-111 0 -174.5 -69t-63.5 -191v-715h-203v1495h203v-369l-2 -215h2q15 113 93.5 174.5t207.5 61.5z" />
    <glyph glyph-name="i" unicode="i" horiz-adv-x="1024" 
d="M539 1325q-70 0 -111 35.5t-41 97.5q0 64 40.5 100.5t111.5 36.5t111 -36.5t40 -100.5q0 -62 -40.5 -97.5t-110.5 -35.5zM938 0h-774v184h297v758h-254v184h457v-942h274v-184z" />
    <glyph glyph-name="j" unicode="j" horiz-adv-x="819" 
d="M500 1325q-70 0 -111 35.5t-41 97.5q0 64 40.5 100.5t111.5 36.5t111 -36.5t40 -100.5q0 -62 -40.5 -97.5t-110.5 -35.5zM186 -369h-141v187h137q120 0 187 65t67 185v874h-334v184h537v-1060q0 -199 -123 -317t-330 -118z" />
    <glyph glyph-name="k" unicode="k" 
d="M389 0h-203v1495h203v-827h209l313 458h230l-369 -538l375 -588h-234l-315 494h-209v-494z" />
    <glyph glyph-name="l" unicode="l" horiz-adv-x="819" 
d="M766 0h-178q-154 0 -247 90.5t-93 239.5v981h-225v184h428v-1163q0 -68 38.5 -108t102.5 -40h174v-184z" />
    <glyph glyph-name="m" unicode="m" horiz-adv-x="1638" 
d="M1165 1147q139 0 218 -80t79 -211v-856h-202v854q0 65 -45.5 102t-122.5 37q-80 0 -129.5 -37t-49.5 -102v-854h-184v854q0 65 -47.5 102t-126.5 37q-77 0 -124.5 -37t-47.5 -102v-854h-203v1126h191v-139h12q19 72 88.5 116t167.5 44q94 0 159 -42.5t95 -117.5h10
q20 72 92 116t170 44z" />
    <glyph glyph-name="n" unicode="n" 
d="M684 1147q168 0 268.5 -106t100.5 -287v-754h-203v731q0 114 -61 177t-168 63q-111 0 -174.5 -67t-63.5 -189v-715h-203v1126h201v-215h2q15 113 93.5 174.5t207.5 61.5z" />
    <glyph glyph-name="o" unicode="o" 
d="M614 -16q-207 0 -327.5 116t-120.5 316v295q0 200 120.5 316t327.5 116t328 -116t121 -314v-297q0 -199 -121 -315.5t-328 -116.5zM614 162q117 0 181.5 65.5t64.5 188.5v295q0 123 -64.5 188.5t-181.5 65.5t-181 -65.5t-64 -188.5v-295q0 -123 64 -188.5t181 -65.5z" />
    <glyph glyph-name="p" unicode="p" 
d="M692 1147q170 0 271.5 -114t101.5 -308v-322q0 -195 -101.5 -309t-271.5 -114q-124 0 -205.5 62t-101.5 171h-4l4 -258v-324h-203v1495h201v-211h2q20 109 102 170.5t205 61.5zM862 414v301q0 122 -63 189t-176 67q-110 0 -174 -68.5t-64 -189.5v-299q0 -121 64 -189.5
t174 -68.5q113 0 176 67t63 191z" />
    <glyph glyph-name="q" unicode="q" 
d="M848 915v211h201v-1495h-203v324l4 258h-6q-19 -109 -99.5 -171t-203.5 -62q-171 0 -270 113.5t-99 309.5v322q0 195 100 308.5t269 113.5q123 0 203 -61.5t100 -170.5h4zM610 156q109 0 172.5 68.5t63.5 189.5v299q0 121 -63.5 189.5t-172.5 68.5q-113 0 -174 -66.5
t-61 -189.5v-301q0 -124 61 -191t174 -67z" />
    <glyph glyph-name="r" unicode="r" 
d="M721 1147q174 0 278.5 -112.5t104.5 -303.5v-82h-205v66q0 122 -63.5 189t-182.5 67q-116 0 -175.5 -65.5t-59.5 -194.5v-711h-203v1126h201v-215h2q15 112 94.5 174t208.5 62z" />
    <glyph glyph-name="s" unicode="s" 
d="M664 -16h-86q-181 0 -293.5 83t-112.5 222h207q0 -62 56 -96.5t147 -34.5h86q103 0 156 40.5t53 112.5q0 133 -189 164l-153 23q-171 28 -253.5 107.5t-82.5 217.5q0 155 102 237.5t293 82.5h78q177 0 283 -78t106 -209h-207q0 52 -50 82.5t-136 30.5h-78
q-94 0 -143.5 -37.5t-49.5 -108.5q0 -118 168 -145l154 -25q184 -28 270 -107.5t86 -226.5q0 -160 -104.5 -247.5t-306.5 -87.5z" />
    <glyph glyph-name="t" unicode="t" horiz-adv-x="1024" 
d="M858 0h-229q-146 0 -232 83.5t-86 223.5v635h-252v184h252v318h203v-318h365v-184h-365v-633q0 -57 32.5 -91t86.5 -34h225v-184z" />
    <glyph glyph-name="u" unicode="u" 
d="M612 -20q-200 0 -318 117.5t-118 316.5v712h203v-712q0 -122 61.5 -189t171.5 -67q111 0 174.5 67t63.5 189v712h203v-712q0 -200 -120 -317t-321 -117z" />
    <glyph glyph-name="v" unicode="v" 
d="M745 0h-262l-409 1126h209l274 -739q14 -38 26 -82.5t22 -89t13 -55.5q3 10 13 54.5t22 89t27 83.5l266 739h211z" />
    <glyph glyph-name="w" unicode="w" 
d="M461 0h-219l-179 1126h173l108 -770q15 -121 21 -202h8q8 104 26 202l119 770h193l118 -770q20 -114 27 -202h8l25 202l112 770h164l-186 -1126h-217l-117 758q-4 28 -11 74.5t-11.5 81.5t-6.5 57h-8q-8 -100 -26 -213z" />
    <glyph glyph-name="x" unicode="x" 
d="M330 0h-236l400 580l-373 546h235l211 -329q31 -53 49 -95q16 45 48 95l213 329h233l-373 -548l398 -578h-238l-229 354q-14 21 -52 101q-30 -62 -55 -101z" />
    <glyph glyph-name="y" unicode="y" 
d="M571 -369h-211l164 437l-432 1058h221l262 -665q34 -95 52 -178q22 99 53 178l244 665h213z" />
    <glyph glyph-name="z" unicode="z" 
d="M1051 0h-873v197l621 747h-604v182h833v-196l-631 -748h654v-182z" />
    <glyph glyph-name="braceleft" unicode="{" 
d="M1038 1518h-96q-92 0 -141 -43t-43 -125l30 -332q10 -112 -45 -183.5t-159 -89.5q104 -22 159 -99t45 -189l-30 -332q-7 -82 41.5 -125t142.5 -43h96v-182h-104q-185 0 -289.5 92.5t-89.5 253.5l31 330q9 105 -32.5 149.5t-160.5 44.5h-241v182h241q120 0 161 45.5
t32 151.5l-31 332q-15 159 90 251.5t289 92.5h104v-182z" />
    <glyph glyph-name="bar" unicode="|" 
d="M717 -225h-203v1925h203v-1925z" />
    <glyph glyph-name="braceright" unicode="}" 
d="M836 827h243v-182h-243q-119 0 -160.5 -44.5t-32.5 -149.5l31 -330q15 -161 -89 -253.5t-288 -92.5h-104v182h94q94 0 142.5 43t41.5 125l-31 332q-10 113 47.5 191t163.5 97q-107 18 -164 89.5t-47 183.5l31 332q6 82 -43 125t-141 43h-94v182h104q183 0 287.5 -92.5
t89.5 -251.5l-31 -332q-9 -106 32 -151.5t161 -45.5z" />
    <glyph glyph-name="asciitilde" unicode="~" 
d="M319 522h-184v148q0 122 75 196t198 74q73 0 129 -28t90 -67.5t62 -79t60 -67.5t70 -28q43 0 66.5 27t23.5 79v146h187v-148q0 -120 -76 -195t-199 -75q-61 0 -111 20t-80.5 50t-59 65t-49 65t-49 50t-60.5 20q-45 0 -69 -27t-24 -79v-146z" />
    <glyph glyph-name="uni2421" unicode="&#x2421;" 
d="M184 502h-133v493h133q72 0 115 -40.5t43 -108.5v-195q0 -68 -43 -108.5t-115 -40.5zM752 502h-287v493h287v-61h-222v-146h199v-59h-199v-168h222v-59zM1204 502h-286v493h67v-432h219v-61zM119 936v-375h65q41 0 65.5 24.5t24.5 65.5v195q0 41 -24.5 65.5t-65.5 24.5
h-65z" />
    <glyph glyph-name="uni2421" 
d="M184 502h-133v493h133q72 0 115 -40.5t43 -108.5v-195q0 -68 -43 -108.5t-115 -40.5zM752 502h-287v493h287v-61h-222v-146h199v-59h-199v-168h222v-59zM1204 502h-286v493h67v-432h219v-61zM119 936v-375h65q41 0 65.5 24.5t24.5 65.5v195q0 41 -24.5 65.5t-65.5 24.5
h-65z" />
    <glyph glyph-name="uni00A0" unicode="&#xa0;" horiz-adv-x="819" 
 />
    <glyph glyph-name="exclamdown" unicode="&#xa1;" horiz-adv-x="819" 
d="M432 887h-45q-61 0 -98 35t-37 92t36.5 91t98.5 34h45q62 0 98.5 -33t36.5 -90q0 -59 -37 -94t-98 -35zM526 -369h-233v267l43 780h147l43 -780v-267z" />
    <glyph glyph-name="cent" unicode="&#xa2;" 
d="M684 963v-797q84 14 132 67.5t52 139.5h201q-6 -167 -108.5 -270.5t-276.5 -120.5v-269h-125v269q-182 19 -287.5 133t-105.5 299v301q0 184 105.5 297.5t287.5 132.5v268h125v-268q174 -17 276.5 -120.5t108.5 -270.5h-201q-4 86 -52.5 140.5t-131.5 68.5zM369 715v-301
q0 -104 50 -168.5t140 -79.5v797q-90 -17 -140 -81t-50 -167z" />
    <glyph glyph-name="sterling" unicode="&#xa3;" 
d="M338 182h758v-182h-942v223q85 62 154 147.5t69 155.5q0 53 -8 92h-217v177h149q-10 17 -36 57.5t-38.5 63t-29.5 59.5t-24 75.5t-7 82.5q0 174 121.5 278.5t326.5 104.5t324.5 -105.5t124.5 -290.5h-211q-2 98 -67.5 157.5t-172.5 59.5q-115 0 -178 -57.5t-63 -159.5
q0 -61 22.5 -111.5t65.5 -111.5t63 -102h369v-177h-320q4 -46 4 -73q0 -122 -73.5 -220t-163.5 -143z" />
    <glyph glyph-name="currency" unicode="&#xa4;" 
d="M1145 362l-131 -131l-178 179q-94 -60 -220 -60q-124 0 -221 60l-176 -177l-129 129l172 175q-67 98 -67 227q0 126 67 229l-176 176l131 131l180 -180q99 58 219 58q128 0 226 -64l172 174l129 -129l-170 -170q61 -103 61 -225q0 -120 -63 -227zM616 500q111 0 184.5 75
t73.5 189t-73.5 189t-184.5 75q-113 0 -187.5 -75t-74.5 -189t74.5 -189t187.5 -75z" />
    <glyph glyph-name="yen" unicode="&#xa5;" 
d="M954 1495h209l-370 -782h313v-162h-389v-148h389v-163h-389v-240h-203v240h-391v163h391v148h-391v162h315l-372 782h210l281 -590q47 -102 59 -157q19 65 64 157z" />
    <glyph glyph-name="brokenbar" unicode="&#xa6;" 
d="M717 922h-203v778h203v-778zM717 -225h-203v778h203v-778z" />
    <glyph glyph-name="section" unicode="&#xa7;" 
d="M645 -315h-61q-175 0 -294.5 86t-142.5 229h211q19 -63 81 -102t145 -39h61q111 0 172.5 46t61.5 124q0 139 -201 180l-189 41q-147 29 -235 119.5t-88 210.5q0 117 75.5 198t192.5 92v15q-45 1 -88.5 18t-83 50.5t-64 93t-24.5 135.5q0 154 110.5 244t305.5 90h61
q168 0 282 -82t134 -217h-211q-13 55 -70 89.5t-135 34.5h-61q-101 0 -157 -42.5t-56 -116.5q0 -63 50 -109t140 -65l187 -41q152 -31 237.5 -120t85.5 -214q0 -120 -75.5 -200t-198.5 -81v-14q47 -3 94 -22.5t89 -54.5t68.5 -94.5t26.5 -133.5q0 -162 -115.5 -255
t-320.5 -93zM522 416l150 -31q87 -18 144.5 48.5t57.5 174.5q0 72 -43.5 125t-115.5 68l-146 30q-87 18 -143.5 -45.5t-56.5 -169.5q0 -77 42 -132.5t111 -67.5z" />
    <glyph glyph-name="dieresis" unicode="&#xa8;" 
d="M383 1325q-62 0 -98.5 36t-36.5 97q0 64 36.5 100.5t98.5 36.5q63 0 100 -36.5t37 -100.5q0 -61 -37 -97t-100 -36zM846 1325q-63 0 -100 36t-37 97q0 64 37 100.5t100 36.5q62 0 98.5 -36.5t36.5 -100.5q0 -61 -36.5 -97t-98.5 -36z" />
    <glyph glyph-name="copyright" unicode="&#xa9;" 
d="M614 225q-235 0 -378.5 135.5t-143.5 356.5v307q0 221 143.5 356.5t378.5 135.5t379 -135.5t144 -356.5v-307q0 -221 -144 -356.5t-379 -135.5zM614 328q184 0 297 107t113 282v307q0 175 -113 282t-297 107q-183 0 -296 -107t-113 -282v-307q0 -175 113 -282t296 -107z
M625 502q-117 0 -187.5 65.5t-70.5 173.5v260q0 106 71 172t187 66q115 0 186.5 -66t71.5 -172h-140q0 54 -32.5 86.5t-85.5 32.5q-54 0 -86.5 -32.5t-32.5 -86.5v-260q0 -55 32.5 -87.5t86.5 -32.5q53 0 85.5 32.5t32.5 87.5h140q0 -107 -71 -173t-187 -66z" />
    <glyph glyph-name="ordfeminine" unicode="&#xaa;" 
d="M625 1516q111 0 175 -49.5t64 -135.5v-399h-106v112h-6q-22 -57 -73.5 -89.5t-119.5 -32.5q-92 0 -147.5 48t-55.5 128t58.5 128t158.5 48h179v57q0 44 -34 70t-93 26q-51 0 -86 -21t-41 -56h-111q10 78 73.5 122t164.5 44zM588 1006q77 0 120.5 35t43.5 96v51h-179
q-51 0 -78.5 -23t-27.5 -65q0 -44 32.5 -69t88.5 -25z" />
    <glyph glyph-name="guillemotleft" unicode="&#xab;" 
d="M690 82h-231l-402 491l400 492h233l-411 -487zM1171 82h-231l-401 491l401 492h231l-409 -487z" />
    <glyph glyph-name="logicalnot" unicode="&#xac;" 
d="M1085 412h-194v266h-748v182h942v-448z" />
    <glyph glyph-name="uni00AD" unicode="&#xad;" 
d="M942 586h-655v182h655v-182z" />
    <glyph glyph-name="registered" unicode="&#xae;" 
d="M614 225q-235 0 -378.5 135.5t-143.5 356.5v307q0 221 143.5 356.5t378.5 135.5t379 -135.5t144 -356.5v-307q0 -221 -144 -356.5t-379 -135.5zM205 1024v-307q0 -175 113 -282t296 -107q184 0 297 107t113 282v307q0 175 -113 282t-297 107q-183 0 -296 -107t-113 -282z
M516 512h-129v717h236q112 0 176.5 -58.5t64.5 -158.5q0 -139 -121 -193l136 -307h-138l-120 285h-105v-285zM516 1124v-219h107q53 0 82.5 28.5t29.5 80.5t-29.5 81t-82.5 29h-107z" />
    <glyph glyph-name="macron" unicode="&#xaf;" 
d="M948 1368h-667v164h667v-164z" />
    <glyph glyph-name="degree" unicode="&#xb0;" 
d="M614 922q-138 0 -222.5 81.5t-84.5 215.5t84.5 215.5t222.5 81.5t223 -82t85 -215t-85 -215t-223 -82zM612 1030q83 0 133 52t50 137q0 86 -50 138t-133 52q-80 0 -129 -52t-49 -138q0 -85 49 -137t129 -52z" />
    <glyph glyph-name="plusminus" unicode="&#xb1;" 
d="M1087 0h-946v156h375v438h-385v182h385v391h199v-391h385v-182h-385v-438h372v-156z" />
    <glyph glyph-name="uni00B2" unicode="&#xb2;" 
d="M936 829h-600v183l336 245q43 31 68.5 76.5t25.5 91.5q0 73 -42.5 116.5t-111.5 43.5q-71 0 -113 -43.5t-42 -116.5h-150q4 135 87 215t218 80q139 0 221 -78t82 -212q0 -74 -44.5 -148.5t-120.5 -128.5l-256 -186h442v-138z" />
    <glyph glyph-name="uni00B3" unicode="&#xb3;" 
d="M834 1536l-179 -168q108 -15 171 -86.5t63 -183.5q0 -133 -83 -211t-224 -78t-224.5 78t-83.5 211h150q0 -71 42.5 -112.5t115.5 -41.5q70 0 111.5 41.5t41.5 112.5q0 70 -41 111.5t-110 41.5h-62v138l187 176h-375v137h500v-166z" />
    <glyph glyph-name="acute" unicode="&#xb4;" 
d="M672 1321h-205l215 287h219z" />
    <glyph glyph-name="uni00B5" unicode="&#xb5;" 
d="M846 414v712h203v-1126h-199v215h-4q-16 -235 -236 -235q-114 0 -166.5 60t-58.5 175h-4l4 -260v-324h-203v1495h203v-712q0 -123 59 -190.5t168 -67.5t171.5 68t62.5 190z" />
    <glyph glyph-name="paragraph" unicode="&#xb6;" 
d="M690 -369h-172v1004q-175 0 -282 95.5t-107 252.5v164q0 157 107 252.5t282 95.5h172v-1864zM1042 -369h-174v1864h174v-1864z" />
    <glyph glyph-name="periodcentered" unicode="&#xb7;" 
d="M410 530q-82 0 -129.5 46.5t-47.5 125.5q0 82 47.5 130.5t129.5 48.5q81 0 128.5 -48.5t47.5 -130.5q0 -80 -47 -126t-129 -46z" />
    <glyph glyph-name="cedilla" unicode="&#xb8;" 
d="M598 -422h-182v117h145q44 0 73.5 22.5t29.5 51.5q0 38 -59 64t-159 26l72 190h121l-43 -123q60 -5 115.5 -25t97 -60t41.5 -91q0 -72 -71 -122t-181 -50z" />
    <glyph glyph-name="uni00B9" unicode="&#xb9;" 
d="M946 829h-631v138h269v598l-250 -179v168l198 146h203v-733h211v-138z" />
    <glyph glyph-name="ordmasculine" unicode="&#xba;" 
d="M614 913q-108 0 -174.5 61t-66.5 159v155q0 98 66 158.5t175 60.5t175.5 -60.5t66.5 -158.5v-155q0 -98 -66.5 -159t-175.5 -61zM614 1004q59 0 95 35.5t36 93.5v155q0 57 -36 92t-95 35q-58 0 -93.5 -35t-35.5 -92v-155q0 -59 35.5 -94t93.5 -35z" />
    <glyph glyph-name="guillemotright" unicode="&#xbb;" 
d="M289 82h-230l402 493l-404 490h232l401 -492zM772 82h-231l403 493l-405 490h231l401 -492z" />
    <glyph glyph-name="onequarter" unicode="&#xbc;" 
d="M633 922l282 573h136l-738 -1495h-135l410 829h-525v111h240v467q-31 -47 -67 -78l-127 -108v151l143 123h184v-555h197v-18zM977 250v176h131v-426h-131v141h-356v170l258 355h151l-276 -383v-33h223z" />
    <glyph glyph-name="onehalf" unicode="&#xbd;" 
d="M641 940l274 555h136l-738 -1495h-135l410 829h-525v111h240v469q-27 -45 -67 -80l-127 -108v151l143 123h184v-555h205zM952 111h219v-111h-528v139l254 144q133 78 133 159q0 57 -35 91t-92 34t-92 -34t-35 -91h-133q4 106 75.5 170t184.5 64q117 0 187.5 -62
t70.5 -165q0 -132 -178 -234l-180 -100v-21q88 17 149 17z" />
    <glyph glyph-name="threequarters" unicode="&#xbe;" 
d="M580 1036q0 -98 -73 -157.5t-192 -59.5q-120 0 -192 59t-72 156h131q0 -47 36.5 -76.5t96.5 -29.5q59 0 95 29.5t36 78.5q0 47 -36 78t-93 31h-61v119l160 125h-316v106h447v-115l-172 -133q93 -12 149 -69t56 -142zM178 0l737 1495h136l-738 -1495h-135zM977 250v176
h131v-426h-131v141h-356v170l258 355h151l-276 -383v-33h223z" />
    <glyph glyph-name="questiondown" unicode="&#xbf;" 
d="M731 885h-43q-61 0 -99 35t-38 92t37.5 91t99.5 34h43q62 0 99.5 -33t37.5 -90q0 -58 -37.5 -93.5t-99.5 -35.5zM958 -348h-264q-221 0 -349 116t-128 314q0 177 108 291t285 121v206h195l2 -378h-119q-125 0 -196.5 -64t-71.5 -176t72 -176t198 -64h268v-190z" />
    <glyph glyph-name="Agrave" unicode="&#xc0;" 
d="M750 1659h-211l-238 287h225zM301 0h-207l387 1495h269l385 -1495h-207l-94 389h-439zM545 1006l-111 -449h359l-109 447q-58 245 -70 325q-14 -93 -69 -323z" />
    <glyph glyph-name="Aacute" unicode="&#xc1;" 
d="M692 1659h-205l215 287h220zM301 0h-207l387 1495h269l385 -1495h-207l-94 389h-439zM545 1006l-111 -449h359l-109 447q-58 245 -70 325q-14 -93 -69 -323z" />
    <glyph glyph-name="Acircumflex" unicode="&#xc2;" 
d="M455 1659h-219l284 287h187l286 -287h-215l-164 158zM301 0h-207l387 1495h269l385 -1495h-207l-94 389h-439zM545 1006l-111 -449h359l-109 447q-58 245 -70 325q-14 -93 -69 -323z" />
    <glyph glyph-name="Atilde" unicode="&#xc3;" 
d="M758 1665q-46 0 -83 14.5t-61 35t-44 40.5t-42.5 34.5t-46.5 14.5q-61 0 -61 -69v-60h-139v64q0 93 51.5 146.5t138.5 53.5q46 0 83 -14.5t61 -35t44 -40.5t42.5 -34.5t46.5 -14.5q61 0 61 70v59h139v-61q0 -95 -51.5 -149t-138.5 -54zM301 0h-207l387 1495h269
l385 -1495h-207l-94 389h-439zM545 1006l-111 -449h359l-109 447q-58 245 -70 325q-14 -93 -69 -323z" />
    <glyph glyph-name="Adieresis" unicode="&#xc4;" 
d="M383 1669q-62 0 -98.5 36t-36.5 97q0 63 36.5 100t98.5 37q63 0 100 -37t37 -100q0 -61 -37 -97t-100 -36zM846 1669q-63 0 -100 36t-37 97q0 63 37 100t100 37q62 0 98.5 -37t36.5 -100q0 -61 -36.5 -97t-98.5 -36zM301 0h-207l387 1495h269l385 -1495h-207l-94 389
h-439zM545 1006l-111 -449h359l-109 447q-58 245 -70 325q-14 -93 -69 -323z" />
    <glyph glyph-name="Aring" unicode="&#xc5;" 
d="M614 1565q-114 0 -183 65.5t-69 171.5t69 172t183 66t183 -66t69 -172t-69 -171.5t-183 -65.5zM614 1679q56 0 89.5 33t33.5 90t-33.5 91t-89.5 34t-89 -34t-33 -91t33 -90t89 -33zM301 0h-207l387 1495h269l385 -1495h-207l-94 389h-439zM545 1006l-111 -449h359
l-109 447q-58 245 -70 325q-14 -93 -69 -323z" />
    <glyph glyph-name="AE" unicode="&#xc6;" 
d="M254 0h-201l293 1495h825v-180h-368v-451h317v-182h-317v-500h368v-182h-557v403h-282zM502 1315l-140 -748h252v748h-112z" />
    <glyph glyph-name="Ccedilla" unicode="&#xc7;" 
d="M623 160q116 0 180.5 66t64.5 188h203q0 -198 -120.5 -315t-323.5 -119l-19 -54q59 -5 114 -25t96.5 -60t41.5 -91q0 -72 -70 -122t-182 -50h-180v117h145q44 0 73.5 22.5t29.5 51.5q0 38 -59 64t-160 26l49 131q-156 31 -245 142.5t-89 281.5v669q0 200 121.5 316.5
t329.5 116.5q204 0 326 -117.5t122 -315.5h-203q0 121 -64.5 186.5t-180.5 65.5q-118 0 -183 -65.5t-65 -186.5v-669q0 -122 65 -188t183 -66z" />
    <glyph glyph-name="Egrave" unicode="&#xc8;" 
d="M791 1659h-211l-238 287h225zM1069 0h-870v1495h870v-182h-670v-445h598v-176h-598v-510h670v-182z" />
    <glyph glyph-name="Eacute" unicode="&#xc9;" 
d="M733 1659h-205l215 287h220zM1069 0h-870v1495h870v-182h-670v-445h598v-176h-598v-510h670v-182z" />
    <glyph glyph-name="Ecircumflex" unicode="&#xca;" 
d="M496 1659h-220l285 287h187l286 -287h-215l-164 158zM1069 0h-870v1495h870v-182h-670v-445h598v-176h-598v-510h670v-182z" />
    <glyph glyph-name="Edieresis" unicode="&#xcb;" 
d="M424 1669q-62 0 -98.5 36t-36.5 97q0 63 36.5 100t98.5 37q63 0 100 -37t37 -100q0 -61 -37 -97t-100 -36zM887 1669q-63 0 -100 36t-37 97q0 63 37 100t100 37q62 0 98.5 -37t36.5 -100q0 -61 -36.5 -97t-98.5 -36zM1069 0h-870v1495h870v-182h-670v-445h598v-176h-598
v-510h670v-182z" />
    <glyph glyph-name="Igrave" unicode="&#xcc;" 
d="M750 1659h-211l-238 287h225zM1022 0h-815v184h305v1127h-305v184h815v-184h-305v-1127h305v-184z" />
    <glyph glyph-name="Iacute" unicode="&#xcd;" 
d="M692 1659h-205l215 287h220zM1022 0h-815v184h305v1127h-305v184h815v-184h-305v-1127h305v-184z" />
    <glyph glyph-name="Icircumflex" unicode="&#xce;" 
d="M455 1659h-219l284 287h187l286 -287h-215l-164 158zM1022 0h-815v184h305v1127h-305v184h815v-184h-305v-1127h305v-184z" />
    <glyph glyph-name="Idieresis" unicode="&#xcf;" 
d="M383 1669q-62 0 -98.5 36t-36.5 97q0 63 36.5 100t98.5 37q63 0 100 -37t37 -100q0 -61 -37 -97t-100 -36zM846 1669q-63 0 -100 36t-37 97q0 63 37 100t100 37q62 0 98.5 -37t36.5 -100q0 -61 -36.5 -97t-98.5 -36zM1022 0h-815v184h305v1127h-305v184h815v-184h-305
v-1127h305v-184z" />
    <glyph glyph-name="Eth" unicode="&#xd0;" 
d="M180 1495h402q218 0 348.5 -123.5t130.5 -329.5v-587q0 -207 -130.5 -331t-348.5 -124h-402v684h-160v160h160v651zM858 455v587q0 128 -73.5 200.5t-202.5 72.5h-199v-471h211v-160h-211v-504h199q129 0 202.5 73.5t73.5 201.5z" />
    <glyph glyph-name="Ntilde" unicode="&#xd1;" 
d="M758 1665q-46 0 -83 14.5t-61 35t-44 40.5t-42.5 34.5t-46.5 14.5q-61 0 -61 -69v-60h-139v64q0 93 51.5 146.5t138.5 53.5q46 0 83 -14.5t61 -35t44 -40.5t42.5 -34.5t46.5 -14.5q61 0 61 70v59h139v-61q0 -95 -51.5 -149t-138.5 -54zM367 0h-191v1495h262l447 -1262
q-23 251 -23 457v805h193v-1495h-264l-445 1262q21 -218 21 -449v-813z" />
    <glyph glyph-name="Ograve" unicode="&#xd2;" 
d="M750 1659h-211l-238 287h225zM614 -20q-205 0 -323.5 116t-118.5 318v669q0 201 119 317t323 116t323.5 -116t119.5 -317v-669q0 -202 -119 -318t-324 -116zM614 160q116 0 178 65.5t62 188.5v669q0 121 -62 186.5t-178 65.5q-115 0 -177 -65t-62 -187v-669
q0 -123 61.5 -188.5t177.5 -65.5z" />
    <glyph glyph-name="Oacute" unicode="&#xd3;" 
d="M692 1659h-205l215 287h220zM614 -20q-205 0 -323.5 116t-118.5 318v669q0 201 119 317t323 116t323.5 -116t119.5 -317v-669q0 -202 -119 -318t-324 -116zM614 160q116 0 178 65.5t62 188.5v669q0 121 -62 186.5t-178 65.5q-115 0 -177 -65t-62 -187v-669
q0 -123 61.5 -188.5t177.5 -65.5z" />
    <glyph glyph-name="Ocircumflex" unicode="&#xd4;" 
d="M455 1659h-219l284 287h187l286 -287h-215l-164 158zM614 -20q-205 0 -323.5 116t-118.5 318v669q0 201 119 317t323 116t323.5 -116t119.5 -317v-669q0 -202 -119 -318t-324 -116zM614 160q116 0 178 65.5t62 188.5v669q0 121 -62 186.5t-178 65.5q-115 0 -177 -65
t-62 -187v-669q0 -123 61.5 -188.5t177.5 -65.5z" />
    <glyph glyph-name="Otilde" unicode="&#xd5;" 
d="M758 1665q-46 0 -83 14.5t-61 35t-44 40.5t-42.5 34.5t-46.5 14.5q-61 0 -61 -69v-60h-139v64q0 93 51.5 146.5t138.5 53.5q46 0 83 -14.5t61 -35t44 -40.5t42.5 -34.5t46.5 -14.5q61 0 61 70v59h139v-61q0 -95 -51.5 -149t-138.5 -54zM614 -20q-205 0 -323.5 116
t-118.5 318v669q0 201 119 317t323 116t323.5 -116t119.5 -317v-669q0 -202 -119 -318t-324 -116zM614 160q116 0 178 65.5t62 188.5v669q0 121 -62 186.5t-178 65.5q-115 0 -177 -65t-62 -187v-669q0 -123 61.5 -188.5t177.5 -65.5z" />
    <glyph glyph-name="Odieresis" unicode="&#xd6;" 
d="M383 1669q-62 0 -98.5 36t-36.5 97q0 63 36.5 100t98.5 37q63 0 100 -37t37 -100q0 -61 -37 -97t-100 -36zM846 1669q-63 0 -100 36t-37 97q0 63 37 100t100 37q62 0 98.5 -37t36.5 -100q0 -61 -36.5 -97t-98.5 -36zM614 -20q-205 0 -323.5 116t-118.5 318v669
q0 201 119 317t323 116t323.5 -116t119.5 -317v-669q0 -202 -119 -318t-324 -116zM614 160q116 0 178 65.5t62 188.5v669q0 121 -62 186.5t-178 65.5q-115 0 -177 -65t-62 -187v-669q0 -123 61.5 -188.5t177.5 -65.5z" />
    <glyph glyph-name="multiply" unicode="&#xd7;" 
d="M610 551l-282 -283l-121 121l282 283l-282 284l121 121l282 -282l291 288l119 -122l-289 -289l285 -283l-123 -121z" />
    <glyph glyph-name="Oslash" unicode="&#xd8;" 
d="M981 1536h182l-143 -254q37 -84 37 -199v-669q0 -202 -119 -318t-324 -116q-172 0 -284 83l-82 -145h-182l155 275q-49 91 -49 221v669q0 201 119 317t323 116q184 0 301 -97zM373 1083v-622l442 782q-64 92 -201 92q-116 0 -178.5 -65.5t-62.5 -186.5zM856 414v579
l-428 -757q64 -76 186 -76q116 0 179 65.5t63 188.5z" />
    <glyph glyph-name="Ugrave" unicode="&#xd9;" 
d="M750 1659h-211l-238 287h225zM614 -20q-210 0 -324 115.5t-114 318.5v1081h203v-1081q0 -121 59.5 -187.5t175.5 -66.5t177 67t61 187v1081h203v-1081q0 -204 -114.5 -319t-326.5 -115z" />
    <glyph glyph-name="Uacute" unicode="&#xda;" 
d="M692 1659h-205l215 287h220zM614 -20q-210 0 -324 115.5t-114 318.5v1081h203v-1081q0 -121 59.5 -187.5t175.5 -66.5t177 67t61 187v1081h203v-1081q0 -204 -114.5 -319t-326.5 -115z" />
    <glyph glyph-name="Ucircumflex" unicode="&#xdb;" 
d="M455 1659h-219l284 287h187l286 -287h-215l-164 158zM614 -20q-210 0 -324 115.5t-114 318.5v1081h203v-1081q0 -121 59.5 -187.5t175.5 -66.5t177 67t61 187v1081h203v-1081q0 -204 -114.5 -319t-326.5 -115z" />
    <glyph glyph-name="Udieresis" unicode="&#xdc;" 
d="M383 1669q-62 0 -98.5 36t-36.5 97q0 63 36.5 100t98.5 37q63 0 100 -37t37 -100q0 -61 -37 -97t-100 -36zM846 1669q-63 0 -100 36t-37 97q0 63 37 100t100 37q62 0 98.5 -37t36.5 -100q0 -61 -36.5 -97t-98.5 -36zM614 -20q-210 0 -324 115.5t-114 318.5v1081h203
v-1081q0 -121 59.5 -187.5t175.5 -66.5t177 67t61 187v1081h203v-1081q0 -204 -114.5 -319t-326.5 -115z" />
    <glyph glyph-name="Yacute" unicode="&#xdd;" 
d="M692 1659h-205l215 287h220zM717 0h-203v555l-448 940h210l281 -590q47 -102 59 -157q19 65 64 157l274 590h209l-446 -940v-555z" />
    <glyph glyph-name="Thorn" unicode="&#xde;" 
d="M381 0h-203v1495h203v-303h303q204 0 326.5 -113t122.5 -301q0 -190 -121.5 -301.5t-327.5 -111.5h-303v-365zM381 1016v-473h295q117 0 182.5 62.5t65.5 172.5t-66.5 174t-181.5 64h-295z" />
    <glyph glyph-name="germandbls" unicode="&#xdf;" 
d="M829 801q124 -34 195.5 -133t71.5 -242q0 -188 -124.5 -307t-326.5 -119h-131v180h111q119 0 188.5 70t69.5 186q0 114 -68.5 179t-189.5 65h-90v170h86q108 0 171.5 67.5t63.5 174.5q0 114 -64 178.5t-174 64.5q-111 0 -176 -66.5t-65 -181.5v-1087h-199v1087
q0 194 120.5 311.5t319.5 117.5q204 0 326.5 -101.5t122.5 -281.5q0 -124 -63.5 -212t-174.5 -120z" />
    <glyph glyph-name="agrave" unicode="&#xe0;" 
d="M537 1608l223 -287h-211l-238 287h226zM625 1147q197 0 312.5 -101t115.5 -274v-772h-199v209q-15 -107 -107 -168t-237 -61q-178 0 -279.5 90t-101.5 247q0 160 105 251t288 91h328v107q0 98 -60 152.5t-167 54.5q-95 0 -160.5 -42t-79.5 -110h-199q13 146 135.5 236
t305.5 90zM565 137q125 0 205 62.5t80 160.5v154h-324q-91 0 -142.5 -48.5t-51.5 -133.5q0 -92 61.5 -143.5t171.5 -51.5z" />
    <glyph glyph-name="aacute" unicode="&#xe1;" 
d="M713 1608h219l-230 -287h-204zM625 1147q197 0 312.5 -101t115.5 -274v-772h-199v209q-15 -107 -107 -168t-237 -61q-178 0 -279.5 90t-101.5 247q0 160 105 251t288 91h328v107q0 98 -60 152.5t-167 54.5q-95 0 -160.5 -42t-79.5 -110h-199q13 146 135.5 236t305.5 90z
M565 137q125 0 205 62.5t80 160.5v154h-324q-91 0 -142.5 -48.5t-51.5 -133.5q0 -92 61.5 -143.5t171.5 -51.5z" />
    <glyph glyph-name="acircumflex" unicode="&#xe2;" 
d="M788 1321l-163 158l-160 -158h-219l284 287h187l287 -287h-216zM625 1147q197 0 312.5 -101t115.5 -274v-772h-199v209q-15 -107 -107 -168t-237 -61q-178 0 -279.5 90t-101.5 247q0 160 105 251t288 91h328v107q0 98 -60 152.5t-167 54.5q-95 0 -160.5 -42t-79.5 -110
h-199q13 146 135.5 236t305.5 90zM565 137q125 0 205 62.5t80 160.5v154h-324q-91 0 -142.5 -48.5t-51.5 -133.5q0 -92 61.5 -143.5t171.5 -51.5z" />
    <glyph glyph-name="atilde" unicode="&#xe3;" 
d="M430 1397v-60h-139v64q0 93 51.5 147t138.5 54q46 0 83 -14.5t61 -35t44 -41t42.5 -35t46.5 -14.5q61 0 61 70v59h139v-61q0 -95 -51.5 -149t-138.5 -54q-46 0 -83 14.5t-60.5 35t-43.5 40.5t-42.5 34.5t-46.5 14.5q-29 0 -45.5 -17.5t-16.5 -51.5zM625 1147
q197 0 312.5 -101t115.5 -274v-772h-199v209q-15 -107 -107 -168t-237 -61q-178 0 -279.5 90t-101.5 247q0 160 105 251t288 91h328v107q0 98 -60 152.5t-167 54.5q-95 0 -160.5 -42t-79.5 -110h-199q13 146 135.5 236t305.5 90zM565 137q125 0 205 62.5t80 160.5v154h-324
q-91 0 -142.5 -48.5t-51.5 -133.5q0 -92 61.5 -143.5t171.5 -51.5z" />
    <glyph glyph-name="adieresis" unicode="&#xe4;" 
d="M393 1325q-62 0 -98.5 36t-36.5 97q0 64 36.5 100.5t98.5 36.5q63 0 100 -36.5t37 -100.5q0 -61 -37 -97t-100 -36zM856 1325q-63 0 -100 36t-37 97q0 64 37 100.5t100 36.5q62 0 98.5 -36.5t36.5 -100.5q0 -61 -36.5 -97t-98.5 -36zM625 1147q197 0 312.5 -101
t115.5 -274v-772h-199v209q-15 -107 -107 -168t-237 -61q-178 0 -279.5 90t-101.5 247q0 160 105 251t288 91h328v107q0 98 -60 152.5t-167 54.5q-95 0 -160.5 -42t-79.5 -110h-199q13 146 135.5 236t305.5 90zM565 137q125 0 205 62.5t80 160.5v154h-324
q-91 0 -142.5 -48.5t-51.5 -133.5q0 -92 61.5 -143.5t171.5 -51.5z" />
    <glyph glyph-name="aring" unicode="&#xe5;" 
d="M625 1243q-114 0 -183 65.5t-69 172.5q0 106 69 171.5t183 65.5t183 -65.5t69 -171.5q0 -107 -69 -172.5t-183 -65.5zM625 1606q-55 0 -89 -34.5t-34 -90.5q0 -57 33.5 -91t89.5 -34t89.5 34t33.5 91q0 56 -34 90.5t-89 34.5zM625 1147q197 0 312.5 -101t115.5 -274v-772
h-199v209q-15 -107 -107 -168t-237 -61q-178 0 -279.5 90t-101.5 247q0 160 105 251t288 91h328v107q0 98 -60 152.5t-167 54.5q-95 0 -160.5 -42t-79.5 -110h-199q13 146 135.5 236t305.5 90zM565 137q125 0 205 62.5t80 160.5v154h-324q-91 0 -142.5 -48.5t-51.5 -133.5
q0 -92 61.5 -143.5t171.5 -51.5z" />
    <glyph glyph-name="ae" unicode="&#xe6;" 
d="M348 -20q-127 0 -201.5 78t-74.5 212v119q0 126 86.5 202.5t230.5 76.5h141v153q0 83 -31.5 122.5t-97.5 39.5q-57 0 -91 -35t-34 -94h-184q0 132 76 212.5t201 80.5q109 0 171.5 -50.5t73.5 -111.5h11q11 61 71 111.5t164 50.5q138 0 217.5 -87t79.5 -237v-303h-450
v-215q0 -73 36 -117.5t95 -44.5q63 0 100 33.5t37 93.5h182q0 -130 -81.5 -210t-215.5 -80q-105 0 -165.5 50t-69.5 111h-11q-11 -61 -79 -111t-187 -50zM707 823v-155h268v155q0 73 -36.5 116.5t-100.5 43.5q-61 0 -96 -43.5t-35 -116.5zM391 143q63 0 101 44.5t38 117.5
v215h-137q-61 0 -95 -34.5t-34 -96.5v-119q0 -60 34 -93.5t93 -33.5z" />
    <glyph glyph-name="ccedilla" unicode="&#xe7;" 
d="M623 160q109 0 174 56t71 157h201q-6 -181 -126 -287t-320 -106l-19 -54q59 -5 114 -25t96.5 -60t41.5 -91q0 -72 -70 -122t-182 -50h-180v117h145q44 0 73.5 22.5t29.5 51.5q0 38 -59 64t-160 26l49 133q-157 31 -246.5 141.5t-89.5 280.5v301q0 200 124.5 316
t332.5 116q200 0 320 -106t126 -287h-201q-6 101 -71 158t-174 57q-118 0 -186 -67t-68 -187v-301q0 -122 68 -188t186 -66z" />
    <glyph glyph-name="egrave" unicode="&#xe8;" 
d="M526 1608l224 -287h-211l-238 287h225zM1063 715v-201h-701v-100q0 -130 65 -198.5t187 -68.5q102 0 164.5 37t77.5 107h201q-22 -142 -142.5 -226.5t-300.5 -84.5q-203 0 -325.5 119t-122.5 315v301q0 195 123 313.5t325 118.5q204 0 326.5 -118.5t122.5 -313.5z
M362 715v-56h504v56q0 129 -64.5 197.5t-187.5 68.5q-122 0 -187 -68.5t-65 -197.5z" />
    <glyph glyph-name="eacute" unicode="&#xe9;" 
d="M702 1608h220l-230 -287h-205zM1063 715v-201h-701v-100q0 -130 65 -198.5t187 -68.5q102 0 164.5 37t77.5 107h201q-22 -142 -142.5 -226.5t-300.5 -84.5q-203 0 -325.5 119t-122.5 315v301q0 195 123 313.5t325 118.5q204 0 326.5 -118.5t122.5 -313.5zM362 715v-56
h504v56q0 129 -64.5 197.5t-187.5 68.5q-122 0 -187 -68.5t-65 -197.5z" />
    <glyph glyph-name="ecircumflex" unicode="&#xea;" 
d="M778 1321l-164 158l-159 -158h-219l284 287h187l286 -287h-215zM1063 715v-201h-701v-100q0 -130 65 -198.5t187 -68.5q102 0 164.5 37t77.5 107h201q-22 -142 -142.5 -226.5t-300.5 -84.5q-203 0 -325.5 119t-122.5 315v301q0 195 123 313.5t325 118.5
q204 0 326.5 -118.5t122.5 -313.5zM362 715v-56h504v56q0 129 -64.5 197.5t-187.5 68.5q-122 0 -187 -68.5t-65 -197.5z" />
    <glyph glyph-name="edieresis" unicode="&#xeb;" 
d="M383 1325q-62 0 -98.5 36t-36.5 97q0 64 36.5 100.5t98.5 36.5q63 0 100 -36.5t37 -100.5q0 -61 -37 -97t-100 -36zM846 1325q-63 0 -100 36t-37 97q0 64 37 100.5t100 36.5q62 0 98.5 -36.5t36.5 -100.5q0 -61 -36.5 -97t-98.5 -36zM1063 715v-201h-701v-100
q0 -130 65 -198.5t187 -68.5q102 0 164.5 37t77.5 107h201q-22 -142 -142.5 -226.5t-300.5 -84.5q-203 0 -325.5 119t-122.5 315v301q0 195 123 313.5t325 118.5q204 0 326.5 -118.5t122.5 -313.5zM362 715v-56h504v56q0 129 -64.5 197.5t-187.5 68.5q-122 0 -187 -68.5
t-65 -197.5z" />
    <glyph glyph-name="igrave" unicode="&#xec;" horiz-adv-x="1024" 
d="M674 1321h-211l-238 287h226zM938 0h-774v184h297v758h-254v184h457v-942h274v-184z" />
    <glyph glyph-name="iacute" unicode="&#xed;" horiz-adv-x="1024" 
d="M616 1321h-204l215 287h219zM938 0h-774v184h297v758h-254v184h457v-942h274v-184z" />
    <glyph glyph-name="icircumflex" unicode="&#xee;" horiz-adv-x="1024" 
d="M379 1321h-219l284 287h187l287 -287h-216l-163 158zM938 0h-774v184h297v758h-254v184h457v-942h274v-184z" />
    <glyph glyph-name="idieresis" unicode="&#xef;" horiz-adv-x="1024" 
d="M307 1325q-62 0 -98.5 36t-36.5 97q0 64 36.5 100.5t98.5 36.5q63 0 100 -36.5t37 -100.5q0 -61 -37 -97t-100 -36zM770 1325q-63 0 -100 36t-37 97q0 64 37 100.5t100 36.5q62 0 98.5 -36.5t36.5 -100.5q0 -61 -36.5 -97t-98.5 -36zM938 0h-774v184h297v758h-254v184
h457v-942h274v-184z" />
    <glyph glyph-name="eth" unicode="&#xf0;" 
d="M612 -18q-215 0 -346 127.5t-131 336.5q0 204 117.5 328.5t310.5 124.5q84 0 149.5 -38t94.5 -85h24q-28 70 -135 209l-129 180l-331 -149v172l237 106l-145 201h231l86 -125l309 139v-172l-215 -96l152 -217q97 -137 151 -283t54 -276q0 -218 -133 -350.5t-351 -132.5z
M612 160q126 0 203.5 78.5t77.5 207.5t-77.5 208t-203.5 79q-123 0 -198.5 -79t-75.5 -208t75.5 -207.5t198.5 -78.5z" />
    <glyph glyph-name="ntilde" unicode="&#xf1;" 
d="M430 1397v-60h-139v64q0 93 51.5 147t138.5 54q46 0 83 -14.5t61 -35t44 -41t42.5 -35t46.5 -14.5q61 0 61 70v59h139v-61q0 -95 -51.5 -149t-138.5 -54q-46 0 -83 14.5t-60.5 35t-43.5 40.5t-42.5 34.5t-46.5 14.5q-29 0 -45.5 -17.5t-16.5 -51.5zM684 1147
q168 0 268.5 -106t100.5 -287v-754h-203v731q0 114 -61 177t-168 63q-111 0 -174.5 -67t-63.5 -189v-715h-203v1126h201v-215h2q15 113 93.5 174.5t207.5 61.5z" />
    <glyph glyph-name="ograve" unicode="&#xf2;" 
d="M750 1321h-211l-238 287h225zM614 -16q-207 0 -327.5 116t-120.5 316v295q0 200 120.5 316t327.5 116t328 -116t121 -314v-297q0 -199 -121 -315.5t-328 -116.5zM614 162q117 0 181.5 65.5t64.5 188.5v295q0 123 -64.5 188.5t-181.5 65.5t-181 -65.5t-64 -188.5v-295
q0 -123 64 -188.5t181 -65.5z" />
    <glyph glyph-name="oacute" unicode="&#xf3;" 
d="M692 1321h-205l215 287h220zM614 -16q-207 0 -327.5 116t-120.5 316v295q0 200 120.5 316t327.5 116t328 -116t121 -314v-297q0 -199 -121 -315.5t-328 -116.5zM614 162q117 0 181.5 65.5t64.5 188.5v295q0 123 -64.5 188.5t-181.5 65.5t-181 -65.5t-64 -188.5v-295
q0 -123 64 -188.5t181 -65.5z" />
    <glyph glyph-name="ocircumflex" unicode="&#xf4;" 
d="M455 1321h-219l284 287h187l286 -287h-215l-164 158zM614 -16q-207 0 -327.5 116t-120.5 316v295q0 200 120.5 316t327.5 116t328 -116t121 -314v-297q0 -199 -121 -315.5t-328 -116.5zM614 162q117 0 181.5 65.5t64.5 188.5v295q0 123 -64.5 188.5t-181.5 65.5
t-181 -65.5t-64 -188.5v-295q0 -123 64 -188.5t181 -65.5z" />
    <glyph glyph-name="otilde" unicode="&#xf5;" 
d="M758 1327q-46 0 -83 14.5t-61 35t-44 40.5t-42.5 34.5t-46.5 14.5q-61 0 -61 -69v-60h-139v64q0 93 51.5 147t138.5 54q46 0 83 -14.5t61 -35t44 -41t42.5 -35t46.5 -14.5q61 0 61 70v59h139v-61q0 -95 -51.5 -149t-138.5 -54zM614 -16q-207 0 -327.5 116t-120.5 316v295
q0 200 120.5 316t327.5 116t328 -116t121 -314v-297q0 -199 -121 -315.5t-328 -116.5zM614 162q117 0 181.5 65.5t64.5 188.5v295q0 123 -64.5 188.5t-181.5 65.5t-181 -65.5t-64 -188.5v-295q0 -123 64 -188.5t181 -65.5z" />
    <glyph glyph-name="odieresis" unicode="&#xf6;" 
d="M383 1325q-62 0 -98.5 36t-36.5 97q0 64 36.5 100.5t98.5 36.5q63 0 100 -36.5t37 -100.5q0 -61 -37 -97t-100 -36zM846 1325q-63 0 -100 36t-37 97q0 64 37 100.5t100 36.5q62 0 98.5 -36.5t36.5 -100.5q0 -61 -36.5 -97t-98.5 -36zM614 -16q-207 0 -327.5 116
t-120.5 316v295q0 200 120.5 316t327.5 116t328 -116t121 -314v-297q0 -199 -121 -315.5t-328 -116.5zM614 162q117 0 181.5 65.5t64.5 188.5v295q0 123 -64.5 188.5t-181.5 65.5t-181 -65.5t-64 -188.5v-295q0 -123 64 -188.5t181 -65.5z" />
    <glyph glyph-name="divide" unicode="&#xf7;" 
d="M614 942q-78 0 -127 44t-49 114q0 72 49 116t127 44q80 0 128.5 -44t48.5 -116q0 -71 -49 -114.5t-128 -43.5zM1024 594h-819v174h819v-174zM614 102q-78 0 -127 44t-49 114t49 114t127 44q79 0 128 -43.5t49 -114.5t-49 -114.5t-128 -43.5z" />
    <glyph glyph-name="oslash" unicode="&#xf8;" 
d="M967 1208h194l-172 -241q68 -103 68 -252v-301q0 -202 -119 -318t-324 -116q-160 0 -272 73l-82 -114h-190l163 231q-61 98 -61 244v301q0 201 119 316.5t323 115.5q154 0 263 -68zM362 715v-301q0 -11 5 -56l401 570q-62 41 -154 41q-119 0 -185.5 -67t-66.5 -187z
M866 414v301q0 35 -6 69l-409 -577q62 -47 163 -47q119 0 185.5 66.5t66.5 187.5z" />
    <glyph glyph-name="ugrave" unicode="&#xf9;" 
d="M750 1321h-211l-238 287h225zM612 -20q-200 0 -318 117.5t-118 316.5v712h203v-712q0 -122 61.5 -189t171.5 -67q111 0 174.5 67t63.5 189v712h203v-712q0 -200 -120 -317t-321 -117z" />
    <glyph glyph-name="uacute" unicode="&#xfa;" 
d="M692 1321h-205l215 287h220zM612 -20q-200 0 -318 117.5t-118 316.5v712h203v-712q0 -122 61.5 -189t171.5 -67q111 0 174.5 67t63.5 189v712h203v-712q0 -200 -120 -317t-321 -117z" />
    <glyph glyph-name="ucircumflex" unicode="&#xfb;" 
d="M455 1321h-219l284 287h187l286 -287h-215l-164 158zM612 -20q-200 0 -318 117.5t-118 316.5v712h203v-712q0 -122 61.5 -189t171.5 -67q111 0 174.5 67t63.5 189v712h203v-712q0 -200 -120 -317t-321 -117z" />
    <glyph glyph-name="udieresis" unicode="&#xfc;" 
d="M383 1325q-62 0 -98.5 36t-36.5 97q0 64 36.5 100.5t98.5 36.5q63 0 100 -36.5t37 -100.5q0 -61 -37 -97t-100 -36zM846 1325q-63 0 -100 36t-37 97q0 64 37 100.5t100 36.5q62 0 98.5 -36.5t36.5 -100.5q0 -61 -36.5 -97t-98.5 -36zM612 -20q-200 0 -318 117.5
t-118 316.5v712h203v-712q0 -122 61.5 -189t171.5 -67q111 0 174.5 67t63.5 189v712h203v-712q0 -200 -120 -317t-321 -117z" />
    <glyph glyph-name="yacute" unicode="&#xfd;" 
d="M692 1321h-205l215 287h220zM571 -369h-211l164 437l-432 1058h221l262 -665q34 -95 52 -178q22 99 53 178l244 665h213z" />
    <glyph glyph-name="thorn" unicode="&#xfe;" 
d="M680 1147q171 0 273 -114t102 -308v-324q0 -194 -102.5 -307.5t-272.5 -113.5q-128 0 -210 62.5t-95 172.5h-2v-563h-201v1843h203v-324l-6 -260h6q13 109 96 172.5t209 63.5zM852 414v301q0 122 -64.5 189t-177.5 67q-109 0 -172 -67.5t-63 -188.5v-301
q0 -122 62.5 -190t172.5 -68q114 0 178 67.5t64 190.5z" />
    <glyph glyph-name="ydieresis" unicode="&#xff;" 
d="M383 1325q-62 0 -98.5 36t-36.5 97q0 64 36.5 100.5t98.5 36.5q63 0 100 -36.5t37 -100.5q0 -61 -37 -97t-100 -36zM846 1325q-63 0 -100 36t-37 97q0 64 37 100.5t100 36.5q62 0 98.5 -36.5t36.5 -100.5q0 -61 -36.5 -97t-98.5 -36zM571 -369h-211l164 437l-432 1058
h221l262 -665q34 -95 52 -178q22 99 53 178l244 665h213z" />
    <glyph glyph-name="Amacron" unicode="&#x100;" 
d="M948 1714h-667v164h667v-164zM301 0h-207l387 1495h269l385 -1495h-207l-94 389h-439zM545 1006l-111 -449h359l-109 447q-58 245 -70 325q-14 -93 -69 -323z" />
    <glyph glyph-name="amacron" unicode="&#x101;" 
d="M291 1532h667v-164h-667v164zM625 1147q197 0 312.5 -101t115.5 -274v-772h-199v209q-15 -107 -107 -168t-237 -61q-178 0 -279.5 90t-101.5 247q0 160 105 251t288 91h328v107q0 98 -60 152.5t-167 54.5q-95 0 -160.5 -42t-79.5 -110h-199q13 146 135.5 236t305.5 90z
M565 137q125 0 205 62.5t80 160.5v154h-324q-91 0 -142.5 -48.5t-51.5 -133.5q0 -92 61.5 -143.5t171.5 -51.5z" />
    <glyph glyph-name="Abreve" unicode="&#x102;" 
d="M614 1647q-150 0 -242.5 82.5t-92.5 216.5h159q0 -76 48 -123t126 -47q80 0 129.5 47t49.5 123h159q0 -134 -92.5 -216.5t-243.5 -82.5zM301 0h-207l387 1495h269l385 -1495h-207l-94 389h-439zM545 1006l-111 -449h359l-109 447q-58 245 -70 325q-14 -93 -69 -323z" />
    <glyph glyph-name="abreve" unicode="&#x103;" 
d="M625 1309q-151 0 -243.5 82.5t-92.5 216.5h160q0 -76 48 -123t126 -47q80 0 129 47t49 123h160q0 -134 -92.5 -216.5t-243.5 -82.5zM625 1147q197 0 312.5 -101t115.5 -274v-772h-199v209q-15 -107 -107 -168t-237 -61q-178 0 -279.5 90t-101.5 247q0 160 105 251t288 91
h328v107q0 98 -60 152.5t-167 54.5q-95 0 -160.5 -42t-79.5 -110h-199q13 146 135.5 236t305.5 90zM565 137q125 0 205 62.5t80 160.5v154h-324q-91 0 -142.5 -48.5t-51.5 -133.5q0 -92 61.5 -143.5t171.5 -51.5z" />
    <glyph glyph-name="Aogonek" unicode="&#x104;" 
d="M1069 -287h125v-135h-168q-114 0 -184 54.5t-70 140.5q0 117 156 229l-94 387h-439l-94 -389h-207l387 1495h269l385 -1495h-48l-4 -4q-125 -102 -125 -184q0 -43 30 -71t81 -28zM545 1006l-111 -449h359l-109 447q-58 245 -70 325q-14 -93 -69 -323z" />
    <glyph glyph-name="aogonek" unicode="&#x105;" 
d="M1032 -287h125v-135h-168q-114 0 -184 54.5t-70 140.5q0 117 154 227h-35v209q-15 -107 -107 -168t-237 -61q-178 0 -279.5 90t-101.5 247q0 160 105 251t288 91h328v107q0 98 -60 152.5t-167 54.5q-95 0 -160.5 -42t-79.5 -110h-199q13 146 135.5 236t305.5 90
q197 0 312.5 -101t115.5 -274v-772q-69 -59 -100 -103t-31 -85q0 -42 30 -70.5t80 -28.5zM565 137q125 0 205 62.5t80 160.5v154h-324q-91 0 -142.5 -48.5t-51.5 -133.5q0 -92 61.5 -143.5t171.5 -51.5z" />
    <glyph glyph-name="Cacute" unicode="&#x106;" 
d="M702 1659h-204l215 287h219zM623 -20q-208 0 -329.5 116t-121.5 318v669q0 200 121.5 316.5t329.5 116.5q204 0 326 -117.5t122 -315.5h-203q0 121 -64.5 186.5t-180.5 65.5q-118 0 -183 -65.5t-65 -186.5v-669q0 -122 65 -188t183 -66q116 0 180.5 66t64.5 188h203
q0 -199 -122 -316.5t-326 -117.5z" />
    <glyph glyph-name="cacute" unicode="&#x107;" 
d="M700 1321h-204l215 287h219zM623 -20q-209 0 -333 116.5t-124 317.5v301q0 200 124.5 316t332.5 116q200 0 320 -106t126 -287h-201q-6 101 -71 158t-174 57q-118 0 -186 -67t-68 -187v-301q0 -122 68 -188t186 -66q109 0 174 56t71 157h201q-6 -181 -126 -287t-320 -106
z" />
    <glyph glyph-name="Ccircumflex" unicode="&#x108;" 
d="M465 1659h-219l284 287h187l287 -287h-216l-163 158zM623 -20q-208 0 -329.5 116t-121.5 318v669q0 200 121.5 316.5t329.5 116.5q204 0 326 -117.5t122 -315.5h-203q0 121 -64.5 186.5t-180.5 65.5q-118 0 -183 -65.5t-65 -186.5v-669q0 -122 65 -188t183 -66
q116 0 180.5 66t64.5 188h203q0 -199 -122 -316.5t-326 -117.5z" />
    <glyph glyph-name="ccircumflex" unicode="&#x109;" 
d="M463 1321h-219l284 287h187l284 -287h-213l-163 158zM623 -20q-209 0 -333 116.5t-124 317.5v301q0 200 124.5 316t332.5 116q200 0 320 -106t126 -287h-201q-6 101 -71 158t-174 57q-118 0 -186 -67t-68 -187v-301q0 -122 68 -188t186 -66q109 0 174 56t71 157h201
q-6 -181 -126 -287t-320 -106z" />
    <glyph glyph-name="Cdotaccent" unicode="&#x10a;" 
d="M625 1667q-70 0 -111 36.5t-41 98.5t41 98.5t111 36.5t110.5 -36.5t40.5 -98.5t-40.5 -98.5t-110.5 -36.5zM623 -20q-208 0 -329.5 116t-121.5 318v669q0 200 121.5 316.5t329.5 116.5q204 0 326 -117.5t122 -315.5h-203q0 121 -64.5 186.5t-180.5 65.5
q-118 0 -183 -65.5t-65 -186.5v-669q0 -122 65 -188t183 -66q116 0 180.5 66t64.5 188h203q0 -199 -122 -316.5t-326 -117.5z" />
    <glyph glyph-name="cdotaccent" unicode="&#x10b;" 
d="M623 1325q-70 0 -111 35.5t-41 97.5q0 64 40.5 100.5t111.5 36.5t111 -36.5t40 -100.5q0 -62 -40.5 -97.5t-110.5 -35.5zM623 -20q-209 0 -333 116.5t-124 317.5v301q0 200 124.5 316t332.5 116q200 0 320 -106t126 -287h-201q-6 101 -71 158t-174 57q-118 0 -186 -67
t-68 -187v-301q0 -122 68 -188t186 -66q109 0 174 56t71 157h201q-6 -181 -126 -287t-320 -106z" />
    <glyph glyph-name="Ccaron" unicode="&#x10c;" 
d="M719 1659h-187l-286 287h215l164 -158l159 158h220zM623 -20q-208 0 -329.5 116t-121.5 318v669q0 200 121.5 316.5t329.5 116.5q204 0 326 -117.5t122 -315.5h-203q0 121 -64.5 186.5t-180.5 65.5q-118 0 -183 -65.5t-65 -186.5v-669q0 -122 65 -188t183 -66
q116 0 180.5 66t64.5 188h203q0 -199 -122 -316.5t-326 -117.5z" />
    <glyph glyph-name="ccaron" unicode="&#x10d;" 
d="M717 1321h-187l-286 287h215l164 -158l159 158h219zM623 -20q-209 0 -333 116.5t-124 317.5v301q0 200 124.5 316t332.5 116q200 0 320 -106t126 -287h-201q-6 101 -71 158t-174 57q-118 0 -186 -67t-68 -187v-301q0 -122 68 -188t186 -66q109 0 174 56t71 157h201
q-6 -181 -126 -287t-320 -106z" />
    <glyph glyph-name="Dcaron" unicode="&#x10e;" 
d="M709 1659h-187l-286 287h215l163 -158l160 158h219zM582 0h-402v1495h402q218 0 348.5 -123.5t130.5 -329.5v-587q0 -207 -130.5 -331t-348.5 -124zM383 1315v-1135h199q129 0 202.5 73.5t73.5 201.5v587q0 128 -73.5 200.5t-202.5 72.5h-199z" />
    <glyph glyph-name="dcaron" unicode="&#x10f;" 
d="M737 911l-6 260v324h201v-1495h-199v215h-2q-14 -109 -86 -172t-186 -63q-155 0 -245.5 111t-90.5 300v344q0 189 90.5 300.5t245.5 111.5q113 0 185.5 -63.5t86.5 -172.5h6zM1042 1126v369h191l-21 -369h-170zM528 152q95 0 149 66.5t54 184.5v322q0 118 -54 184
t-149 66q-97 0 -151.5 -66t-54.5 -184v-322q0 -118 54.5 -184.5t151.5 -66.5z" />
    <glyph glyph-name="Dcroat" unicode="&#x110;" 
d="M180 1495h402q218 0 348.5 -123.5t130.5 -329.5v-587q0 -207 -130.5 -331t-348.5 -124h-402v684h-160v160h160v651zM858 455v587q0 128 -73.5 200.5t-202.5 72.5h-199v-471h211v-160h-211v-504h199q129 0 202.5 73.5t73.5 201.5z" />
    <glyph glyph-name="dcroat" unicode="&#x111;" 
d="M1044 1321h185v-158h-185v-1163h-200v215h-2q-15 -111 -94.5 -173t-206.5 -62q-169 0 -267 113t-98 308v201q0 195 97.5 308.5t267.5 113.5q126 0 205.5 -63.5t93.5 -172.5h8l-6 261v114h-332v158h332v174h202v-174zM610 156q109 0 170.5 68t61.5 190v178
q0 121 -61.5 188.5t-170.5 67.5q-112 0 -171.5 -66.5t-59.5 -189.5v-178q0 -125 59.5 -191.5t171.5 -66.5z" />
    <glyph glyph-name="Emacron" unicode="&#x112;" 
d="M989 1714h-667v164h667v-164zM1069 0h-870v1495h870v-182h-670v-445h598v-176h-598v-510h670v-182z" />
    <glyph glyph-name="emacron" unicode="&#x113;" 
d="M281 1532h667v-164h-667v164zM1063 715v-201h-701v-100q0 -130 65 -198.5t187 -68.5q102 0 164.5 37t77.5 107h201q-22 -142 -142.5 -226.5t-300.5 -84.5q-203 0 -325.5 119t-122.5 315v301q0 195 123 313.5t325 118.5q204 0 326.5 -118.5t122.5 -313.5zM362 715v-56h504
v56q0 129 -64.5 197.5t-187.5 68.5q-122 0 -187 -68.5t-65 -197.5z" />
    <glyph glyph-name="Ebreve" unicode="&#x114;" 
d="M655 1647q-151 0 -243.5 82.5t-92.5 216.5h160q0 -76 48 -123t126 -47q80 0 129 47t49 123h160q0 -134 -92.5 -216.5t-243.5 -82.5zM1069 0h-870v1495h870v-182h-670v-445h598v-176h-598v-510h670v-182z" />
    <glyph glyph-name="ebreve" unicode="&#x115;" 
d="M614 1309q-150 0 -242.5 82.5t-92.5 216.5h159q0 -76 48 -123t126 -47q80 0 129.5 47t49.5 123h159q0 -134 -92.5 -216.5t-243.5 -82.5zM1063 715v-201h-701v-100q0 -130 65 -198.5t187 -68.5q102 0 164.5 37t77.5 107h201q-22 -142 -142.5 -226.5t-300.5 -84.5
q-203 0 -325.5 119t-122.5 315v301q0 195 123 313.5t325 118.5q204 0 326.5 -118.5t122.5 -313.5zM362 715v-56h504v56q0 129 -64.5 197.5t-187.5 68.5q-122 0 -187 -68.5t-65 -197.5z" />
    <glyph glyph-name="Edotaccent" unicode="&#x116;" 
d="M655 1667q-70 0 -110.5 36.5t-40.5 98.5t40.5 98.5t110.5 36.5t111 -36.5t41 -98.5t-41 -98.5t-111 -36.5zM1069 0h-870v1495h870v-182h-670v-445h598v-176h-598v-510h670v-182z" />
    <glyph glyph-name="edotaccent" unicode="&#x117;" 
d="M614 1325q-70 0 -110.5 35.5t-40.5 97.5q0 64 40 100.5t111 36.5t111.5 -36.5t40.5 -100.5q0 -62 -41 -97.5t-111 -35.5zM1063 715v-201h-701v-100q0 -130 65 -198.5t187 -68.5q102 0 164.5 37t77.5 107h201q-22 -142 -142.5 -226.5t-300.5 -84.5q-203 0 -325.5 119
t-122.5 315v301q0 195 123 313.5t325 118.5q204 0 326.5 -118.5t122.5 -313.5zM362 715v-56h504v56q0 129 -64.5 197.5t-187.5 68.5q-122 0 -187 -68.5t-65 -197.5z" />
    <glyph glyph-name="Eogonek" unicode="&#x118;" 
d="M952 -287h125v-135h-168q-114 0 -183 54.5t-69 140.5q0 118 152 227h-610v1495h870v-182h-670v-445h598v-176h-598v-510h670v-182h-98l-4 -4q-125 -105 -125 -184q0 -42 30 -70.5t80 -28.5z" />
    <glyph glyph-name="eogonek" unicode="&#x119;" 
d="M1057 715v-201h-688v-100q0 -131 62 -199t183 -68q205 0 236 144h203q-12 -86 -62.5 -151.5t-130.5 -106.5l-43 -37q-123 -103 -123 -184q0 -42 29.5 -70.5t79.5 -28.5h127v-135h-170q-114 0 -183 54.5t-69 140.5q0 101 133 213q-9 -6 -27 -6q-202 0 -322 118.5
t-120 315.5v301q0 196 120 314t322 118q203 0 323 -118t120 -314zM369 715v-56h491v56q0 130 -62 198t-184 68q-121 0 -183 -68t-62 -198z" />
    <glyph glyph-name="Ecaron" unicode="&#x11a;" 
d="M750 1659h-187l-287 287h216l163 -158l160 158h219zM1069 0h-870v1495h870v-182h-670v-445h598v-176h-598v-510h670v-182z" />
    <glyph glyph-name="ecaron" unicode="&#x11b;" 
d="M993 1608l-284 -287h-187l-286 287h215l163 -158l160 158h219zM1063 715v-201h-701v-100q0 -130 65 -198.5t187 -68.5q102 0 164.5 37t77.5 107h201q-22 -142 -142.5 -226.5t-300.5 -84.5q-203 0 -325.5 119t-122.5 315v301q0 195 123 313.5t325 118.5
q204 0 326.5 -118.5t122.5 -313.5zM362 715v-56h504v56q0 129 -64.5 197.5t-187.5 68.5q-122 0 -187 -68.5t-65 -197.5z" />
    <glyph glyph-name="Gcircumflex" unicode="&#x11c;" 
d="M455 1659h-219l284 287h187l286 -287h-215l-164 158zM623 -20q-208 0 -329.5 116t-121.5 318v669q0 200 121.5 316.5t329.5 116.5q204 0 326 -117.5t122 -315.5h-203q0 121 -64.5 186.5t-180.5 65.5q-118 0 -183 -65.5t-65 -186.5v-669q0 -122 65 -188t183 -66
q116 0 180.5 66t64.5 188v174h-290v182h493v-356q0 -199 -122 -316.5t-326 -117.5z" />
    <glyph glyph-name="gcircumflex" unicode="&#x11d;" 
d="M772 1321l-164 158l-159 -158h-220l285 287h186l287 -287h-215zM848 911l-2 215h201v-1157q0 -157 -98.5 -247.5t-270.5 -90.5h-352v181h352q86 0 127 38.5t41 120.5v129l4 205h-4q-12 -109 -92.5 -172t-206.5 -63q-173 0 -274 114.5t-101 309.5v231q0 194 101 308
t274 114q126 0 206.5 -63.5t92.5 -172.5h2zM610 246q109 0 172.5 68.5t63.5 189.5v211q0 121 -63 188.5t-173 67.5q-113 0 -174 -66.5t-61 -189.5v-211q0 -124 61 -191t174 -67z" />
    <glyph glyph-name="Gbreve" unicode="&#x11e;" 
d="M614 1647q-150 0 -242.5 82.5t-92.5 216.5h159q0 -76 48 -123t126 -47q80 0 129.5 47t49.5 123h159q0 -134 -92.5 -216.5t-243.5 -82.5zM623 -20q-208 0 -329.5 116t-121.5 318v669q0 200 121.5 316.5t329.5 116.5q204 0 326 -117.5t122 -315.5h-203q0 121 -64.5 186.5
t-180.5 65.5q-118 0 -183 -65.5t-65 -186.5v-669q0 -122 65 -188t183 -66q116 0 180.5 66t64.5 188v174h-290v182h493v-356q0 -199 -122 -316.5t-326 -117.5z" />
    <glyph glyph-name="gbreve" unicode="&#x11f;" 
d="M608 1309q-151 0 -243.5 82.5t-92.5 216.5h160q0 -76 48 -123t126 -47q80 0 129 47t49 123h160q0 -134 -92.5 -216.5t-243.5 -82.5zM848 911l-2 215h201v-1157q0 -157 -98.5 -247.5t-270.5 -90.5h-352v181h352q86 0 127 38.5t41 120.5v129l4 205h-4q-12 -109 -92.5 -172
t-206.5 -63q-173 0 -274 114.5t-101 309.5v231q0 194 101 308t274 114q126 0 206.5 -63.5t92.5 -172.5h2zM610 246q109 0 172.5 68.5t63.5 189.5v211q0 121 -63 188.5t-173 67.5q-113 0 -174 -66.5t-61 -189.5v-211q0 -124 61 -191t174 -67z" />
    <glyph glyph-name="Gdotaccent" unicode="&#x120;" 
d="M614 1667q-70 0 -110.5 36.5t-40.5 98.5t40.5 98.5t110.5 36.5t111 -36.5t41 -98.5t-41 -98.5t-111 -36.5zM623 -20q-208 0 -329.5 116t-121.5 318v669q0 200 121.5 316.5t329.5 116.5q204 0 326 -117.5t122 -315.5h-203q0 121 -64.5 186.5t-180.5 65.5
q-118 0 -183 -65.5t-65 -186.5v-669q0 -122 65 -188t183 -66q116 0 180.5 66t64.5 188v174h-290v182h493v-356q0 -199 -122 -316.5t-326 -117.5z" />
    <glyph glyph-name="gdotaccent" unicode="&#x121;" 
d="M608 1325q-70 0 -110.5 35.5t-40.5 97.5q0 64 40 100.5t111 36.5t111.5 -36.5t40.5 -100.5q0 -62 -41 -97.5t-111 -35.5zM848 911l-2 215h201v-1157q0 -157 -98.5 -247.5t-270.5 -90.5h-352v181h352q86 0 127 38.5t41 120.5v129l4 205h-4q-12 -109 -92.5 -172t-206.5 -63
q-173 0 -274 114.5t-101 309.5v231q0 194 101 308t274 114q126 0 206.5 -63.5t92.5 -172.5h2zM610 246q109 0 172.5 68.5t63.5 189.5v211q0 121 -63 188.5t-173 67.5q-113 0 -174 -66.5t-61 -189.5v-211q0 -124 61 -191t174 -67z" />
    <glyph glyph-name="uni0122" unicode="&#x122;" 
d="M623 -20q-208 0 -329.5 116t-121.5 318v669q0 200 121.5 316.5t329.5 116.5q204 0 326 -117.5t122 -315.5h-203q0 121 -64.5 186.5t-180.5 65.5q-118 0 -183 -65.5t-65 -186.5v-669q0 -122 65 -188t183 -66q116 0 180.5 66t64.5 188v174h-290v182h493v-356
q0 -199 -122 -316.5t-326 -117.5zM598 -492h-205l195 297h229z" />
    <glyph glyph-name="uni0123" unicode="&#x123;" 
d="M684 1802h168l-164 -481h-270zM848 911l-2 215h201v-1157q0 -157 -98.5 -247.5t-270.5 -90.5h-352v181h352q86 0 127 38.5t41 120.5v129l4 205h-4q-12 -109 -92.5 -172t-206.5 -63q-173 0 -274 114.5t-101 309.5v231q0 194 101 308t274 114q126 0 206.5 -63.5
t92.5 -172.5h2zM610 246q109 0 172.5 68.5t63.5 189.5v211q0 121 -63 188.5t-173 67.5q-113 0 -174 -66.5t-61 -189.5v-211q0 -124 61 -191t174 -67z" />
    <glyph glyph-name="Hcircumflex" unicode="&#x124;" 
d="M455 1659h-219l284 287h187l286 -287h-215l-164 158zM385 0h-203v1495h203v-629h459v629h203v-1495h-203v682h-459v-682z" />
    <glyph glyph-name="hcircumflex" unicode="&#x125;" 
d="M518 1655l-166 157l-159 -157h-218l283 287h188l285 -287h-213zM684 1147q168 0 268.5 -106t100.5 -287v-754h-203v731q0 115 -61.5 179.5t-167.5 64.5q-111 0 -174.5 -69t-63.5 -191v-715h-203v1495h203v-369l-2 -215h2q15 113 93.5 174.5t207.5 61.5z" />
    <glyph glyph-name="Hbar" unicode="&#x126;" 
d="M1047 1235h161v-160h-161v-1075h-203v682h-459v-682h-203v1075h-162v160h162v260h203v-260h459v260h203v-260zM385 866h459v209h-459v-209z" />
    <glyph glyph-name="hbar" unicode="&#x127;" 
d="M180 1163h-180v158h180v174h203v-174h338v-158h-338v-159l-2 -216h4q13 112 91.5 174t207.5 62q168 0 268.5 -106t100.5 -287v-631h-203v608q0 115 -61.5 179.5t-167.5 64.5q-111 0 -174.5 -69t-63.5 -191v-592h-203v1163z" />
    <glyph glyph-name="Itilde" unicode="&#x128;" 
d="M758 1665q-46 0 -83 14.5t-61 35t-44 40.5t-42.5 34.5t-46.5 14.5q-61 0 -61 -69v-60h-139v64q0 93 51.5 146.5t138.5 53.5q46 0 83 -14.5t61 -35t44 -40.5t42.5 -34.5t46.5 -14.5q61 0 61 70v59h139v-61q0 -95 -51.5 -149t-138.5 -54zM1022 0h-815v184h305v1127h-305
v184h815v-184h-305v-1127h305v-184z" />
    <glyph glyph-name="itilde" unicode="&#x129;" 
d="M682 1327q-45 0 -82 14.5t-60.5 35t-43.5 40.5t-42.5 34.5t-47.5 14.5q-29 0 -45.5 -17.5t-16.5 -51.5v-60h-139v64q0 93 52 147t138 54q46 0 83 -14.5t61 -35t44 -41t42.5 -35t46.5 -14.5q61 0 61 70v59h139v-61q0 -95 -51.5 -149t-138.5 -54zM938 0h-774v184h297v758
h-254v184h457v-942h274v-184z" />
    <glyph glyph-name="Imacron" unicode="&#x12a;" 
d="M948 1714h-667v164h667v-164zM1022 0h-815v184h305v1127h-305v184h815v-184h-305v-1127h305v-184z" />
    <glyph glyph-name="imacron" unicode="&#x12b;" horiz-adv-x="1024" 
d="M872 1368h-667v164h667v-164zM938 0h-774v184h297v758h-254v184h457v-942h274v-184z" />
    <glyph glyph-name="Ibreve" unicode="&#x12c;" 
d="M614 1647q-150 0 -242.5 82.5t-92.5 216.5h159q0 -76 48 -123t126 -47q80 0 129.5 47t49.5 123h159q0 -134 -92.5 -216.5t-243.5 -82.5zM1022 0h-815v184h305v1127h-305v184h815v-184h-305v-1127h305v-184z" />
    <glyph glyph-name="ibreve" unicode="&#x12d;" 
d="M539 1309q-150 0 -242 82.5t-92 216.5h157q0 -76 48.5 -123t128.5 -47t129 47t49 123h157q0 -134 -91.5 -216.5t-243.5 -82.5zM938 0h-774v184h297v758h-254v184h457v-942h274v-184z" />
    <glyph glyph-name="Iogonek" unicode="&#x12e;" 
d="M1022 1495v-184h-305v-1127h305v-184h-334l-6 -4q-123 -103 -123 -184q0 -43 30 -71t81 -28h125v-135h-170q-114 0 -183 54.5t-69 140.5q0 119 151 227h-317v184h305v1127h-305v184h815z" />
    <glyph glyph-name="iogonek" unicode="&#x12f;" horiz-adv-x="1024" 
d="M539 1325q-70 0 -111 35.5t-41 97.5q0 64 40.5 100.5t111.5 36.5t111 -36.5t40 -100.5q0 -62 -40.5 -97.5t-110.5 -35.5zM635 0l-4 -4q-125 -105 -125 -184q0 -42 30 -70.5t80 -28.5h125v-135h-168q-114 0 -184 54.5t-70 140.5q0 118 152 227h-307v184h297v758h-254v184
h457v-942h274v-184h-303z" />
    <glyph glyph-name="Idotaccent" unicode="&#x130;" 
d="M614 1667q-70 0 -110.5 36.5t-40.5 98.5t40.5 98.5t110.5 36.5t111 -36.5t41 -98.5t-41 -98.5t-111 -36.5zM1022 0h-815v184h305v1127h-305v184h815v-184h-305v-1127h305v-184z" />
    <glyph glyph-name="dotlessi" unicode="&#x131;" horiz-adv-x="1024" 
d="M938 0h-774v184h297v758h-254v184h457v-942h274v-184z" />
    <glyph glyph-name="Jcircumflex" unicode="&#x134;" 
d="M578 1659h-220l285 287h186l287 -287h-215l-164 158zM553 -20q-218 0 -343.5 121.5t-125.5 332.5h203q0 -130 70 -202t196 -72q125 0 195.5 71.5t70.5 200.5v879h-420v184h623v-1063q0 -209 -126 -330.5t-343 -121.5z" />
    <glyph glyph-name="jcircumflex" unicode="&#x135;" horiz-adv-x="819" 
d="M238 1321h-220l285 287h186l287 -287h-215l-164 158zM186 -369h-141v187h137q120 0 187 65t67 185v874h-334v184h537v-1060q0 -199 -123 -317t-330 -118z" />
    <glyph glyph-name="uni0136" unicode="&#x136;" 
d="M383 0h-203v1495h203v-633h209l319 633h222l-363 -717l381 -778h-229l-334 684h-205v-684zM590 -492h-205l195 297h229z" />
    <glyph glyph-name="uni0137" unicode="&#x137;" 
d="M389 0h-203v1495h203v-827h209l313 458h230l-369 -538l375 -588h-234l-315 494h-209v-494zM590 -492h-205l195 297h229z" />
    <glyph glyph-name="kgreenlandic" unicode="&#x138;" 
d="M389 0h-203v1126h203v-458h207l315 458h230l-369 -538l375 -588h-236l-313 494h-209v-494z" />
    <glyph glyph-name="Lacute" unicode="&#x139;" 
d="M440 1659h-204l215 287h219zM1130 0h-868v1495h203v-1311h665v-184z" />
    <glyph glyph-name="lacute" unicode="&#x13a;" horiz-adv-x="819" 
d="M406 1659h-205l215 287h219zM766 0h-178q-154 0 -247 90.5t-93 239.5v981h-225v184h428v-1163q0 -68 38.5 -108t102.5 -40h174v-184z" />
    <glyph glyph-name="uni013B" unicode="&#x13b;" 
d="M1130 0h-868v1495h203v-1311h665v-184zM672 -492h-205l195 297h229z" />
    <glyph glyph-name="uni013C" unicode="&#x13c;" horiz-adv-x="819" 
d="M766 0h-178q-154 0 -247 90.5t-93 239.5v981h-225v184h428v-1163q0 -68 38.5 -108t102.5 -40h174v-184zM422 -492h-205l195 297h229z" />
    <glyph glyph-name="Lcaron" unicode="&#x13d;" 
d="M1399 1495h-170l20 369h191zM1130 0h-868v1495h203v-1311h665v-184z" />
    <glyph glyph-name="lcaron" unicode="&#x13e;" horiz-adv-x="819" 
d="M750 1495h-170l20 369h191zM766 0h-178q-154 0 -247 90.5t-93 239.5v981h-225v184h428v-1163q0 -68 38.5 -108t102.5 -40h174v-184z" />
    <glyph glyph-name="Ldot" unicode="&#x13f;" 
d="M1130 0h-868v1495h203v-1311h665v-184zM715 543q-82 0 -129 46t-47 126q0 83 47 130.5t129 47.5q80 0 127 -47.5t47 -130.5q0 -79 -47 -125.5t-127 -46.5z" />
    <glyph glyph-name="ldot" unicode="&#x140;" 
d="M725 0h-178q-154 0 -247 90.5t-93 239.5v981h-225v184h428v-1163q0 -68 38.5 -108t102.5 -40h174v-184zM922 543q-80 0 -127 46.5t-47 125.5q0 83 47 130.5t127 47.5q82 0 129 -47.5t47 -130.5q0 -80 -47 -126t-129 -46z" />
    <glyph glyph-name="Lslash" unicode="&#x141;" 
d="M467 748v-564h666v-184h-869v616l-223 -145v182l223 146v696h203v-565l336 217v-182z" />
    <glyph glyph-name="lslash" unicode="&#x142;" horiz-adv-x="819" 
d="M592 184h174v-184h-178q-154 0 -247 90.5t-93 239.5v276l-209 -135v182l209 135v523h-225v184h428v-573l223 145v-182l-223 -146v-407q0 -68 38.5 -108t102.5 -40z" />
    <glyph glyph-name="Nacute" unicode="&#x143;" 
d="M692 1659h-205l215 287h220zM367 0h-191v1495h262l447 -1262q-23 251 -23 457v805h193v-1495h-264l-445 1262q21 -218 21 -449v-813z" />
    <glyph glyph-name="nacute" unicode="&#x144;" 
d="M713 1608h219l-230 -287h-204zM684 1147q168 0 268.5 -106t100.5 -287v-754h-203v731q0 114 -61 177t-168 63q-111 0 -174.5 -67t-63.5 -189v-715h-203v1126h201v-215h2q15 113 93.5 174.5t207.5 61.5z" />
    <glyph glyph-name="uni0145" unicode="&#x145;" 
d="M367 0h-191v1495h262l447 -1262q-23 251 -23 457v805h193v-1495h-264l-445 1262q21 -218 21 -449v-813zM590 -492h-205l195 297h229z" />
    <glyph glyph-name="uni0146" unicode="&#x146;" 
d="M684 1147q168 0 268.5 -106t100.5 -287v-754h-203v731q0 114 -61 177t-168 63q-111 0 -174.5 -67t-63.5 -189v-715h-203v1126h201v-215h2q15 113 93.5 174.5t207.5 61.5zM590 -492h-205l195 297h229z" />
    <glyph glyph-name="Ncaron" unicode="&#x147;" 
d="M709 1659h-187l-286 287h215l163 -158l160 158h219zM367 0h-191v1495h262l447 -1262q-23 251 -23 457v805h193v-1495h-264l-445 1262q21 -218 21 -449v-813z" />
    <glyph glyph-name="ncaron" unicode="&#x148;" 
d="M1004 1608l-285 -287h-187l-286 287h215l164 -158l159 158h220zM684 1147q168 0 268.5 -106t100.5 -287v-754h-203v731q0 114 -61 177t-168 63q-111 0 -174.5 -67t-63.5 -189v-715h-203v1126h201v-215h2q15 113 93.5 174.5t207.5 61.5z" />
    <glyph glyph-name="napostrophe" unicode="&#x149;" 
d="M170 1618h229l-219 -297h-205zM684 1147q168 0 268.5 -106t100.5 -287v-754h-203v731q0 114 -61 177t-168 63q-111 0 -174.5 -67t-63.5 -189v-715h-203v1126h201v-215h2q15 113 93.5 174.5t207.5 61.5z" />
    <glyph glyph-name="Eng" unicode="&#x14a;" 
d="M623 -369h-127v187h131q104 0 164.5 59t60.5 162l-506 1223q21 -218 21 -449v-813h-191v1495h262l447 -1100q-23 251 -23 457v643h193v-1460q0 -183 -118.5 -293.5t-313.5 -110.5z" />
    <glyph glyph-name="eng" unicode="&#x14b;" 
d="M684 1147q168 0 266.5 -106t98.5 -287v-719q0 -183 -118 -293.5t-313 -110.5h-124v187h127q104 0 164.5 59t60.5 162v692q0 115 -59.5 179.5t-165.5 64.5q-110 0 -172 -68.5t-62 -191.5v-715h-203v1126h201v-215h2q14 113 91 174.5t206 61.5z" />
    <glyph glyph-name="Omacron" unicode="&#x14c;" 
d="M948 1714h-667v164h667v-164zM614 -20q-205 0 -323.5 116t-118.5 318v669q0 201 119 317t323 116t323.5 -116t119.5 -317v-669q0 -202 -119 -318t-324 -116zM614 160q116 0 178 65.5t62 188.5v669q0 121 -62 186.5t-178 65.5q-115 0 -177 -65t-62 -187v-669
q0 -123 61.5 -188.5t177.5 -65.5z" />
    <glyph glyph-name="omacron" unicode="&#x14d;" 
d="M948 1368h-667v164h667v-164zM614 -16q-207 0 -327.5 116t-120.5 316v295q0 200 120.5 316t327.5 116t328 -116t121 -314v-297q0 -199 -121 -315.5t-328 -116.5zM614 162q117 0 181.5 65.5t64.5 188.5v295q0 123 -64.5 188.5t-181.5 65.5t-181 -65.5t-64 -188.5v-295
q0 -123 64 -188.5t181 -65.5z" />
    <glyph glyph-name="Obreve" unicode="&#x14e;" 
d="M614 1647q-150 0 -242.5 82.5t-92.5 216.5h159q0 -76 48 -123t126 -47q80 0 129.5 47t49.5 123h159q0 -134 -92.5 -216.5t-243.5 -82.5zM614 -20q-205 0 -323.5 116t-118.5 318v669q0 201 119 317t323 116t323.5 -116t119.5 -317v-669q0 -202 -119 -318t-324 -116z
M614 160q116 0 178 65.5t62 188.5v669q0 121 -62 186.5t-178 65.5q-115 0 -177 -65t-62 -187v-669q0 -123 61.5 -188.5t177.5 -65.5z" />
    <glyph glyph-name="obreve" unicode="&#x14f;" 
d="M614 1309q-150 0 -242.5 82.5t-92.5 216.5h159q0 -76 48 -123t126 -47q80 0 129.5 47t49.5 123h159q0 -134 -92.5 -216.5t-243.5 -82.5zM614 -16q-207 0 -327.5 116t-120.5 316v295q0 200 120.5 316t327.5 116t328 -116t121 -314v-297q0 -199 -121 -315.5t-328 -116.5z
M614 162q117 0 181.5 65.5t64.5 188.5v295q0 123 -64.5 188.5t-181.5 65.5t-181 -65.5t-64 -188.5v-295q0 -123 64 -188.5t181 -65.5z" />
    <glyph glyph-name="Ohungarumlaut" unicode="&#x150;" 
d="M481 1659h-192l223 287h205zM858 1659h-192l225 287h203zM614 -20q-205 0 -323.5 116t-118.5 318v669q0 201 119 317t323 116t323.5 -116t119.5 -317v-669q0 -202 -119 -318t-324 -116zM614 160q116 0 178 65.5t62 188.5v669q0 121 -62 186.5t-178 65.5q-115 0 -177 -65
t-62 -187v-669q0 -123 61.5 -188.5t177.5 -65.5z" />
    <glyph glyph-name="ohungarumlaut" unicode="&#x151;" 
d="M481 1321h-192l223 287h205zM858 1321h-192l225 287h203zM614 -16q-207 0 -327.5 116t-120.5 316v295q0 200 120.5 316t327.5 116t328 -116t121 -314v-297q0 -199 -121 -315.5t-328 -116.5zM614 162q117 0 181.5 65.5t64.5 188.5v295q0 123 -64.5 188.5t-181.5 65.5
t-181 -65.5t-64 -188.5v-295q0 -123 64 -188.5t181 -65.5z" />
    <glyph glyph-name="OE" unicode="&#x152;" 
d="M393 -18q-146 0 -229.5 104.5t-83.5 286.5v751q0 182 83.5 287t229.5 105q97 0 155.5 -57.5t69.5 -127.5h11v164h551v-180h-359v-453h307v-182h-307v-498h359v-182h-551v166h-11q-10 -70 -69 -127t-156 -57zM453 160q82 0 128 56.5t46 156.5v751q0 100 -46 156.5
t-128 56.5q-81 0 -127.5 -57t-46.5 -156v-751q0 -99 46.5 -156t127.5 -57z" />
    <glyph glyph-name="oe" unicode="&#x153;" 
d="M369 -20q-136 0 -216.5 88t-80.5 237v518q0 148 80.5 236t216.5 88q111 0 172.5 -50.5t68.5 -111.5h8q7 61 68.5 111.5t173.5 50.5q136 0 216.5 -88t80.5 -236v-311h-450v-207q0 -75 35.5 -118.5t95.5 -43.5q51 0 87.5 31.5t43.5 85.5h182q-17 -129 -95.5 -204.5
t-195.5 -75.5q-112 0 -173.5 50t-68.5 111h-8q-7 -61 -68.5 -111t-172.5 -50zM391 143q60 0 95.5 43.5t35.5 118.5v518q0 73 -35.5 116.5t-95.5 43.5q-63 0 -99 -43t-36 -117v-518q0 -75 36 -118.5t99 -43.5zM707 823v-159h268v159q0 74 -37 117t-100 43q-60 0 -95.5 -43.5
t-35.5 -116.5z" />
    <glyph glyph-name="Racute" unicode="&#x154;" 
d="M692 1659h-205l215 287h220zM383 0h-203v1495h465q205 0 331 -119.5t126 -314.5q0 -150 -77.5 -259.5t-211.5 -152.5l309 -649h-235l-279 625h-225v-625zM383 1315v-510h262q114 0 181 69t67 185q0 117 -67.5 186.5t-180.5 69.5h-262z" />
    <glyph glyph-name="racute" unicode="&#x155;" 
d="M743 1608h220l-230 -287h-205zM721 1147q174 0 278.5 -112.5t104.5 -303.5v-82h-205v66q0 122 -63.5 189t-182.5 67q-116 0 -175.5 -65.5t-59.5 -194.5v-711h-203v1126h201v-215h2q15 112 94.5 174t208.5 62z" />
    <glyph glyph-name="uni0156" unicode="&#x156;" 
d="M383 0h-203v1495h465q205 0 331 -119.5t126 -314.5q0 -150 -77.5 -259.5t-211.5 -152.5l309 -649h-235l-279 625h-225v-625zM383 1315v-510h262q114 0 181 69t67 185q0 117 -67.5 186.5t-180.5 69.5h-262zM590 -492h-205l195 297h229z" />
    <glyph glyph-name="uni0157" unicode="&#x157;" 
d="M721 1147q174 0 278.5 -112.5t104.5 -303.5v-82h-205v66q0 122 -63.5 189t-182.5 67q-116 0 -175.5 -65.5t-59.5 -194.5v-711h-203v1126h201v-215h2q15 112 94.5 174t208.5 62zM272 -492h-204l194 297h230z" />
    <glyph glyph-name="Rcaron" unicode="&#x158;" 
d="M709 1659h-187l-286 287h215l163 -158l160 158h219zM383 0h-203v1495h465q205 0 331 -119.5t126 -314.5q0 -150 -77.5 -259.5t-211.5 -152.5l309 -649h-235l-279 625h-225v-625zM383 1315v-510h262q114 0 181 69t67 185q0 117 -67.5 186.5t-180.5 69.5h-262z" />
    <glyph glyph-name="rcaron" unicode="&#x159;" 
d="M1034 1608l-284 -287h-187l-287 287h216l163 -158l160 158h219zM721 1147q174 0 278.5 -112.5t104.5 -303.5v-82h-205v66q0 122 -63.5 189t-182.5 67q-116 0 -175.5 -65.5t-59.5 -194.5v-711h-203v1126h201v-215h2q15 112 94.5 174t208.5 62z" />
    <glyph glyph-name="Sacute" unicode="&#x15a;" 
d="M692 1659h-205l215 287h220zM621 -20q-220 0 -351 112.5t-131 302.5h203q0 -106 77 -170.5t204 -64.5q123 0 194.5 63.5t71.5 171.5q0 85 -45 149t-123 87l-211 63q-157 47 -244.5 157t-87.5 261q0 184 121.5 294t325.5 110q202 0 323 -109.5t121 -292.5h-203
q0 102 -65.5 162.5t-177.5 60.5t-179 -60.5t-67 -160.5q0 -80 45.5 -137t128.5 -82l217 -68q150 -46 236 -161t86 -271q0 -190 -127.5 -303.5t-341.5 -113.5z" />
    <glyph glyph-name="sacute" unicode="&#x15b;" 
d="M692 1321h-205l215 287h220zM664 -16h-86q-181 0 -293.5 83t-112.5 222h207q0 -62 56 -96.5t147 -34.5h86q103 0 156 40.5t53 112.5q0 133 -189 164l-153 23q-171 28 -253.5 107.5t-82.5 217.5q0 155 102 237.5t293 82.5h78q177 0 283 -78t106 -209h-207q0 52 -50 82.5
t-136 30.5h-78q-94 0 -143.5 -37.5t-49.5 -108.5q0 -118 168 -145l154 -25q184 -28 270 -107.5t86 -226.5q0 -160 -104.5 -247.5t-306.5 -87.5z" />
    <glyph glyph-name="Scircumflex" unicode="&#x15c;" 
d="M455 1659h-219l284 287h187l286 -287h-215l-164 158zM621 -20q-220 0 -351 112.5t-131 302.5h203q0 -106 77 -170.5t204 -64.5q123 0 194.5 63.5t71.5 171.5q0 85 -45 149t-123 87l-211 63q-157 47 -244.5 157t-87.5 261q0 184 121.5 294t325.5 110q202 0 323 -109.5
t121 -292.5h-203q0 102 -65.5 162.5t-177.5 60.5t-179 -60.5t-67 -160.5q0 -80 45.5 -137t128.5 -82l217 -68q150 -46 236 -161t86 -271q0 -190 -127.5 -303.5t-341.5 -113.5z" />
    <glyph glyph-name="scircumflex" unicode="&#x15d;" 
d="M455 1321h-219l284 287h187l286 -287h-215l-164 158zM664 -16h-86q-181 0 -293.5 83t-112.5 222h207q0 -62 56 -96.5t147 -34.5h86q103 0 156 40.5t53 112.5q0 133 -189 164l-153 23q-171 28 -253.5 107.5t-82.5 217.5q0 155 102 237.5t293 82.5h78q177 0 283 -78
t106 -209h-207q0 52 -50 82.5t-136 30.5h-78q-94 0 -143.5 -37.5t-49.5 -108.5q0 -118 168 -145l154 -25q184 -28 270 -107.5t86 -226.5q0 -160 -104.5 -247.5t-306.5 -87.5z" />
    <glyph glyph-name="Scedilla" unicode="&#x15e;" 
d="M621 -20h-5l-18 -54q59 -5 114 -25t96.5 -60t41.5 -91q0 -72 -70 -122t-182 -50h-180v117h145q44 0 73.5 22.5t29.5 51.5q0 38 -59.5 64t-160.5 26l50 131q-167 31 -262 138t-95 267h203q0 -106 77 -170.5t204 -64.5q123 0 194.5 63.5t71.5 171.5q0 85 -45 149t-123 87
l-211 63q-157 47 -244.5 157t-87.5 261q0 184 121.5 294t325.5 110q202 0 323 -109.5t121 -292.5h-203q0 102 -65.5 162.5t-177.5 60.5t-179 -60.5t-67 -160.5q0 -80 45.5 -137t128.5 -82l217 -68q150 -46 236 -161t86 -271q0 -190 -127.5 -303.5t-341.5 -113.5z" />
    <glyph glyph-name="scedilla" unicode="&#x15f;" 
d="M664 -16h-27l-21 -58q60 -5 115.5 -25t97 -60t41.5 -91q0 -72 -71 -122t-181 -50h-182v117h146q44 0 73 22.5t29 51.5q0 38 -58.5 64t-158.5 26l47 127q-155 15 -248.5 95.5t-93.5 207.5h207q0 -62 56 -96.5t147 -34.5h86q103 0 156 40.5t53 112.5q0 133 -189 164
l-153 23q-171 28 -253.5 107.5t-82.5 217.5q0 155 102 237.5t293 82.5h78q177 0 283 -78t106 -209h-207q0 52 -50 82.5t-136 30.5h-78q-94 0 -143.5 -37.5t-49.5 -108.5q0 -118 168 -145l154 -25q184 -28 270 -107.5t86 -226.5q0 -160 -104.5 -247.5t-306.5 -87.5z" />
    <glyph glyph-name="Scaron" unicode="&#x160;" 
d="M709 1659h-187l-286 287h215l163 -158l160 158h219zM621 -20q-220 0 -351 112.5t-131 302.5h203q0 -106 77 -170.5t204 -64.5q123 0 194.5 63.5t71.5 171.5q0 85 -45 149t-123 87l-211 63q-157 47 -244.5 157t-87.5 261q0 184 121.5 294t325.5 110q202 0 323 -109.5
t121 -292.5h-203q0 102 -65.5 162.5t-177.5 60.5t-179 -60.5t-67 -160.5q0 -80 45.5 -137t128.5 -82l217 -68q150 -46 236 -161t86 -271q0 -190 -127.5 -303.5t-341.5 -113.5z" />
    <glyph glyph-name="scaron" unicode="&#x161;" 
d="M709 1321h-187l-286 287h215l163 -158l160 158h219zM664 -16h-86q-181 0 -293.5 83t-112.5 222h207q0 -62 56 -96.5t147 -34.5h86q103 0 156 40.5t53 112.5q0 133 -189 164l-153 23q-171 28 -253.5 107.5t-82.5 217.5q0 155 102 237.5t293 82.5h78q177 0 283 -78
t106 -209h-207q0 52 -50 82.5t-136 30.5h-78q-94 0 -143.5 -37.5t-49.5 -108.5q0 -118 168 -145l154 -25q184 -28 270 -107.5t86 -226.5q0 -160 -104.5 -247.5t-306.5 -87.5z" />
    <glyph glyph-name="uni0162" unicode="&#x162;" 
d="M1120 1311h-403v-1311l-27 -74q60 -5 115.5 -25t97 -60t41.5 -91q0 -72 -71 -122t-181 -50h-182v117h145q44 0 73.5 22.5t29.5 51.5q0 38 -58 64t-159 26l53 141h-80v1311h-405v184h1011v-184z" />
    <glyph glyph-name="uni0163" unicode="&#x163;" horiz-adv-x="1024" 
d="M688 0l-26 -74q60 -5 115 -25t96.5 -60t41.5 -91q0 -72 -70 -122t-181 -50h-183v117h148q43 0 71.5 22.5t28.5 51.5q0 38 -58 64t-159 26l55 145q-120 17 -188 97.5t-68 205.5v635h-252v184h252v318h203v-318h365v-184h-365v-633q0 -57 32.5 -91t86.5 -34h225v-184h-170z
" />
    <glyph glyph-name="Tcaron" unicode="&#x164;" 
d="M709 1659h-187l-286 287h215l163 -158l160 158h219zM717 0h-203v1311h-405v184h1011v-184h-403v-1311z" />
    <glyph glyph-name="tcaron" unicode="&#x165;" horiz-adv-x="1024" 
d="M938 1270h-174l182 319h193zM858 0h-229q-146 0 -232 83.5t-86 223.5v635h-252v184h252v318h203v-318h365v-184h-365v-633q0 -57 32.5 -91t86.5 -34h225v-184z" />
    <glyph glyph-name="Tbar" unicode="&#x166;" 
d="M1120 1495v-184h-403v-547h291v-168h-291v-596h-203v596h-291v168h291v547h-405v184h1011z" />
    <glyph glyph-name="tbar" unicode="&#x167;" horiz-adv-x="1024" 
d="M879 1126v-184h-365v-293h258v-166h-258v-174q0 -57 32.5 -91t86.5 -34h225v-184h-229q-146 0 -232 83.5t-86 223.5v176h-243v166h243v293h-252v184h252v318h203v-318h365z" />
    <glyph glyph-name="Utilde" unicode="&#x168;" 
d="M758 1665q-46 0 -83 14.5t-61 35t-44 40.5t-42.5 34.5t-46.5 14.5q-61 0 -61 -69v-60h-139v64q0 93 51.5 146.5t138.5 53.5q46 0 83 -14.5t61 -35t44 -40.5t42.5 -34.5t46.5 -14.5q61 0 61 70v59h139v-61q0 -95 -51.5 -149t-138.5 -54zM614 -20q-210 0 -324 115.5
t-114 318.5v1081h203v-1081q0 -121 59.5 -187.5t175.5 -66.5t177 67t61 187v1081h203v-1081q0 -204 -114.5 -319t-326.5 -115z" />
    <glyph glyph-name="utilde" unicode="&#x169;" 
d="M758 1327q-46 0 -83 14.5t-61 35t-44 40.5t-42.5 34.5t-46.5 14.5q-61 0 -61 -69v-60h-139v64q0 93 51.5 147t138.5 54q46 0 83 -14.5t61 -35t44 -41t42.5 -35t46.5 -14.5q61 0 61 70v59h139v-61q0 -95 -51.5 -149t-138.5 -54zM612 -20q-200 0 -318 117.5t-118 316.5v712
h203v-712q0 -122 61.5 -189t171.5 -67q111 0 174.5 67t63.5 189v712h203v-712q0 -200 -120 -317t-321 -117z" />
    <glyph glyph-name="Umacron" unicode="&#x16a;" 
d="M948 1714h-667v164h667v-164zM614 -20q-210 0 -324 115.5t-114 318.5v1081h203v-1081q0 -121 59.5 -187.5t175.5 -66.5t177 67t61 187v1081h203v-1081q0 -204 -114.5 -319t-326.5 -115z" />
    <glyph glyph-name="umacron" unicode="&#x16b;" 
d="M948 1368h-667v164h667v-164zM612 -20q-200 0 -318 117.5t-118 316.5v712h203v-712q0 -122 61.5 -189t171.5 -67q111 0 174.5 67t63.5 189v712h203v-712q0 -200 -120 -317t-321 -117z" />
    <glyph glyph-name="Ubreve" unicode="&#x16c;" 
d="M614 1647q-150 0 -242.5 82.5t-92.5 216.5h159q0 -76 48 -123t126 -47q80 0 129.5 47t49.5 123h159q0 -134 -92.5 -216.5t-243.5 -82.5zM614 -20q-210 0 -324 115.5t-114 318.5v1081h203v-1081q0 -121 59.5 -187.5t175.5 -66.5t177 67t61 187v1081h203v-1081
q0 -204 -114.5 -319t-326.5 -115z" />
    <glyph glyph-name="ubreve" unicode="&#x16d;" 
d="M614 1309q-150 0 -242.5 82.5t-92.5 216.5h159q0 -76 48 -123t126 -47q80 0 129.5 47t49.5 123h159q0 -134 -92.5 -216.5t-243.5 -82.5zM612 -20q-200 0 -318 117.5t-118 316.5v712h203v-712q0 -122 61.5 -189t171.5 -67q111 0 174.5 67t63.5 189v712h203v-712
q0 -200 -120 -317t-321 -117z" />
    <glyph glyph-name="Uring" unicode="&#x16e;" 
d="M614 1565q-114 0 -183 65.5t-69 171.5t69 172t183 66t183 -66t69 -172t-69 -171.5t-183 -65.5zM614 1679q56 0 89.5 33t33.5 90t-33.5 91t-89.5 34t-89 -34t-33 -91t33 -90t89 -33zM614 -20q-210 0 -324 115.5t-114 318.5v1081h203v-1081q0 -121 59.5 -187.5t175.5 -66.5
t177 67t61 187v1081h203v-1081q0 -204 -114.5 -319t-326.5 -115z" />
    <glyph glyph-name="uring" unicode="&#x16f;" 
d="M614 1243q-114 0 -183 65.5t-69 172.5q0 106 69 171.5t183 65.5t183 -65.5t69 -171.5q0 -107 -69 -172.5t-183 -65.5zM614 1356q56 0 89.5 34t33.5 91q0 56 -34 90.5t-89 34.5t-88.5 -34.5t-33.5 -90.5q0 -57 33 -91t89 -34zM612 -20q-200 0 -318 117.5t-118 316.5v712
h203v-712q0 -122 61.5 -189t171.5 -67q111 0 174.5 67t63.5 189v712h203v-712q0 -200 -120 -317t-321 -117z" />
    <glyph glyph-name="Uhungarumlaut" unicode="&#x170;" 
d="M481 1659h-192l223 287h205zM858 1659h-192l225 287h203zM614 -20q-210 0 -324 115.5t-114 318.5v1081h203v-1081q0 -121 59.5 -187.5t175.5 -66.5t177 67t61 187v1081h203v-1081q0 -204 -114.5 -319t-326.5 -115z" />
    <glyph glyph-name="uhungarumlaut" unicode="&#x171;" 
d="M481 1321h-192l223 287h205zM858 1321h-192l225 287h203zM612 -20q-200 0 -318 117.5t-118 316.5v712h203v-712q0 -122 61.5 -189t171.5 -67q111 0 174.5 67t63.5 189v712h203v-712q0 -200 -120 -317t-321 -117z" />
    <glyph glyph-name="Uogonek" unicode="&#x172;" 
d="M938 -422h-170q-114 0 -183 54.5t-69 140.5q0 47 36 105t99 112q-15 -10 -37 -10q-204 0 -321 116t-117 318v1081h203v-1081q0 -123 60 -188.5t175 -65.5t176.5 65.5t61.5 188.5v1081h203v-1081q0 -122 -44.5 -215.5t-127.5 -149.5l-66 -53q-115 -94 -115 -182
q0 -44 29.5 -72.5t79.5 -28.5h127v-135z" />
    <glyph glyph-name="uogonek" unicode="&#x173;" 
d="M850 414v712h203v-712q0 -125 -46 -220t-133 -149l-59 -49q-123 -103 -123 -184q0 -42 29.5 -70.5t79.5 -28.5h127v-135h-170q-114 0 -183 54.5t-69 140.5q0 104 137 215q-16 -8 -29 -8q-204 0 -321 116t-117 318v712h203v-712q0 -125 60 -189.5t175 -64.5q116 0 176 65
t60 189z" />
    <glyph glyph-name="Wcircumflex" unicode="&#x174;" 
d="M455 1659h-219l284 287h187l286 -287h-215l-164 158zM459 0h-246l-166 1495h186l109 -1089q14 -201 16 -263q16 170 27 263l135 1089h197l125 -1089q16 -140 28 -263q7 117 21 263l110 1089h181l-172 -1495h-244l-123 1106q-19 174 -25 252q-2 -21 -11 -111t-15 -141z
" />
    <glyph glyph-name="wcircumflex" unicode="&#x175;" 
d="M455 1321h-219l284 287h187l286 -287h-215l-164 158zM461 0h-219l-179 1126h173l108 -770q15 -121 21 -202h8q8 104 26 202l119 770h193l118 -770q20 -114 27 -202h8l25 202l112 770h164l-186 -1126h-217l-117 758q-4 28 -11 74.5t-11.5 81.5t-6.5 57h-8
q-8 -100 -26 -213z" />
    <glyph glyph-name="Ycircumflex" unicode="&#x176;" 
d="M455 1659h-219l284 287h187l286 -287h-215l-164 158zM717 0h-203v555l-448 940h210l281 -590q47 -102 59 -157q19 65 64 157l274 590h209l-446 -940v-555z" />
    <glyph glyph-name="ycircumflex" unicode="&#x177;" 
d="M455 1321h-219l284 287h187l286 -287h-215l-164 158zM571 -369h-211l164 437l-432 1058h221l262 -665q34 -95 52 -178q22 99 53 178l244 665h213z" />
    <glyph glyph-name="Ydieresis" unicode="&#x178;" 
d="M383 1669q-62 0 -98.5 36t-36.5 97q0 63 36.5 100t98.5 37q63 0 100 -37t37 -100q0 -61 -37 -97t-100 -36zM846 1669q-63 0 -100 36t-37 97q0 63 37 100t100 37q62 0 98.5 -37t36.5 -100q0 -61 -36.5 -97t-98.5 -36zM717 0h-203v555l-448 940h210l281 -590
q47 -102 59 -157q19 65 64 157l274 590h209l-446 -940v-555z" />
    <glyph glyph-name="Zacute" unicode="&#x179;" 
d="M692 1659h-205l215 287h220zM1059 0h-887v199l653 1112h-643v184h854v-199l-655 -1112h678v-184z" />
    <glyph glyph-name="zacute" unicode="&#x17a;" 
d="M692 1321h-205l215 287h220zM1051 0h-873v197l621 747h-604v182h833v-196l-631 -748h654v-182z" />
    <glyph glyph-name="Zdotaccent" unicode="&#x17b;" 
d="M614 1667q-70 0 -110.5 36.5t-40.5 98.5t40.5 98.5t110.5 36.5t111 -36.5t41 -98.5t-41 -98.5t-111 -36.5zM1059 0h-887v199l653 1112h-643v184h854v-199l-655 -1112h678v-184z" />
    <glyph glyph-name="zdotaccent" unicode="&#x17c;" 
d="M614 1325q-70 0 -110.5 35.5t-40.5 97.5q0 64 40 100.5t111 36.5t111.5 -36.5t40.5 -100.5q0 -62 -41 -97.5t-111 -35.5zM1051 0h-873v197l621 747h-604v182h833v-196l-631 -748h654v-182z" />
    <glyph glyph-name="Zcaron" unicode="&#x17d;" 
d="M709 1659h-187l-286 287h215l163 -158l160 158h219zM1059 0h-887v199l653 1112h-643v184h854v-199l-655 -1112h678v-184z" />
    <glyph glyph-name="zcaron" unicode="&#x17e;" 
d="M709 1321h-187l-286 287h215l163 -158l160 158h219zM1051 0h-873v197l621 747h-604v182h833v-196l-631 -748h654v-182z" />
    <glyph glyph-name="longs" unicode="&#x17f;" 
d="M532 0h-202v1155q0 154 98.5 247t259.5 93h365v-178h-361q-72 0 -116 -45t-44 -119v-1153z" />
    <glyph glyph-name="uni018F" unicode="&#x18f;" 
d="M614 1516q206 0 323.5 -115.5t117.5 -317.5v-669q0 -198 -119 -316t-322 -118q-202 0 -320 118t-118 316v409h676v260q0 122 -61 188t-177 66q-115 0 -175 -66t-60 -188h-203q0 199 117.5 316t320.5 117zM852 414v254h-473v-254q0 -269 235 -269q238 0 238 269z" />
    <glyph glyph-name="uni0190" unicode="&#x190;" 
d="M922 397h202q-3 -187 -137.5 -302t-351.5 -115q-225 0 -362.5 122t-137.5 322q0 147 73.5 244t203.5 125q-115 26 -179.5 111t-64.5 212q0 181 127 290.5t336 109.5q215 0 346 -116.5t131 -307.5h-203q0 110 -73.5 177.5t-194.5 67.5q-119 0 -191.5 -65.5t-72.5 -171.5
t72 -170t192 -64h188v-176h-188q-133 0 -214 -73t-81 -193t80.5 -192t214.5 -72q125 0 203.5 65t81.5 172z" />
    <glyph glyph-name="florin" unicode="&#x192;" 
d="M219 -369h-219v187h221q104 0 164.5 59t60.5 162v594h-325v182h325v385q0 138 85.5 216.5t236.5 78.5h334v-178h-328q-125 0 -125 -119v-383h455v-182h-455v-598q0 -183 -118 -293.5t-312 -110.5z" />
    <glyph glyph-name="uni019B" unicode="&#x19b;" 
d="M963 1343l-277 -139l449 -1204h-215l-256 713q-15 40 -26.5 81.5t-21 81t-12.5 50.5q0 -94 -41 -213l-250 -713h-219l420 1110l-2 8l-328 -164v172l271 136l-93 233h216l53 -145l332 166v-173z" />
    <glyph glyph-name="Ohorn" unicode="&#x1a0;" 
d="M1102 1659v-162q0 -125 -101 -178q56 -106 56 -236v-669q0 -202 -119 -318t-324 -116t-323.5 116t-118.5 318v669q0 201 119 317t323 116q167 0 277 -78q45 16 45 67v154h166zM854 414v669q0 121 -62 186.5t-178 65.5q-115 0 -177 -65t-62 -187v-669q0 -123 61.5 -188.5
t177.5 -65.5t178 65.5t62 188.5z" />
    <glyph glyph-name="ohorn" unicode="&#x1a1;" 
d="M1118 1311v-162q0 -136 -123 -188q68 -100 68 -248v-297q0 -199 -121 -315.5t-328 -116.5t-327.5 116t-120.5 316v295q0 200 120.5 316t327.5 116q141 0 248 -58h17q71 0 71 72v154h168zM860 416v295q0 123 -64.5 188.5t-181.5 65.5t-181 -65.5t-64 -188.5v-295
q0 -123 64 -188.5t181 -65.5t181.5 65.5t64.5 188.5z" />
    <glyph glyph-name="Uhorn" unicode="&#x1af;" 
d="M1069 1567v153h166v-161q0 -84 -47.5 -137.5t-132.5 -65.5v-942q0 -204 -114.5 -319t-326.5 -115q-210 0 -324 115.5t-114 318.5v1081h203v-1081q0 -121 59.5 -187.5t175.5 -66.5t177 67t61 187v1081h145q32 0 52 20t20 52z" />
    <glyph glyph-name="uhorn" unicode="&#x1b0;" 
d="M176 412v714h203v-714q0 -121 60.5 -187.5t166.5 -66.5q108 0 170 66.5t62 187.5v714h163q34 0 53 18.5t19 53.5v154h166v-162q0 -97 -49.5 -152t-149.5 -55v-571q0 -199 -118.5 -315.5t-315.5 -116.5t-313.5 116.5t-116.5 315.5z" />
    <glyph glyph-name="uni01CD" unicode="&#x1cd;" 
d="M709 1659h-187l-286 287h215l163 -158l160 158h219zM301 0h-207l387 1495h269l385 -1495h-207l-94 389h-439zM545 1006l-111 -449h359l-109 447q-58 245 -70 325q-14 -93 -69 -323z" />
    <glyph glyph-name="uni01CE" unicode="&#x1ce;" 
d="M1004 1608l-285 -287h-187l-286 287h215l164 -158l159 158h220zM625 1147q197 0 312.5 -101t115.5 -274v-772h-199v209q-15 -107 -107 -168t-237 -61q-178 0 -279.5 90t-101.5 247q0 160 105 251t288 91h328v107q0 98 -60 152.5t-167 54.5q-95 0 -160.5 -42t-79.5 -110
h-199q13 146 135.5 236t305.5 90zM565 137q125 0 205 62.5t80 160.5v154h-324q-91 0 -142.5 -48.5t-51.5 -133.5q0 -92 61.5 -143.5t171.5 -51.5z" />
    <glyph glyph-name="uni01D0" unicode="&#x1d0;" horiz-adv-x="1024" 
d="M633 1321h-187l-286 287h215l164 -158l159 158h220zM938 0h-774v184h297v758h-254v184h457v-942h274v-184z" />
    <glyph glyph-name="uni01D2" unicode="&#x1d2;" 
d="M709 1321h-187l-286 287h215l163 -158l160 158h219zM614 -16q-207 0 -327.5 116t-120.5 316v295q0 200 120.5 316t327.5 116t328 -116t121 -314v-297q0 -199 -121 -315.5t-328 -116.5zM614 162q117 0 181.5 65.5t64.5 188.5v295q0 123 -64.5 188.5t-181.5 65.5
t-181 -65.5t-64 -188.5v-295q0 -123 64 -188.5t181 -65.5z" />
    <glyph glyph-name="uni01D4" unicode="&#x1d4;" 
d="M709 1321h-187l-286 287h215l163 -158l160 158h219zM612 -20q-200 0 -318 117.5t-118 316.5v712h203v-712q0 -122 61.5 -189t171.5 -67q111 0 174.5 67t63.5 189v712h203v-712q0 -200 -120 -317t-321 -117z" />
    <glyph glyph-name="uni01D6" unicode="&#x1d6;" 
d="M948 1837h-667v164h667v-164zM383 1325q-62 0 -98.5 36t-36.5 97q0 64 36.5 100.5t98.5 36.5q63 0 100 -36.5t37 -100.5q0 -61 -37 -97t-100 -36zM846 1325q-63 0 -100 36t-37 97q0 64 37 100.5t100 36.5q62 0 98.5 -36.5t36.5 -100.5q0 -61 -36.5 -97t-98.5 -36z
M612 -20q-200 0 -318 117.5t-118 316.5v712h203v-712q0 -122 61.5 -189t171.5 -67q111 0 174.5 67t63.5 189v712h203v-712q0 -200 -120 -317t-321 -117z" />
    <glyph glyph-name="uni01D8" unicode="&#x1d8;" 
d="M692 1790h-205l215 287h220zM383 1325q-62 0 -98.5 36t-36.5 97q0 64 36.5 100.5t98.5 36.5q63 0 100 -36.5t37 -100.5q0 -61 -37 -97t-100 -36zM846 1325q-63 0 -100 36t-37 97q0 64 37 100.5t100 36.5q62 0 98.5 -36.5t36.5 -100.5q0 -61 -36.5 -97t-98.5 -36zM612 -20
q-200 0 -318 117.5t-118 316.5v712h203v-712q0 -122 61.5 -189t171.5 -67q111 0 174.5 67t63.5 189v712h203v-712q0 -200 -120 -317t-321 -117z" />
    <glyph glyph-name="uni01DA" unicode="&#x1da;" 
d="M709 1790h-187l-286 287h215l163 -158l160 158h219zM383 1325q-62 0 -98.5 36t-36.5 97q0 64 36.5 100.5t98.5 36.5q63 0 100 -36.5t37 -100.5q0 -61 -37 -97t-100 -36zM846 1325q-63 0 -100 36t-37 97q0 64 37 100.5t100 36.5q62 0 98.5 -36.5t36.5 -100.5
q0 -61 -36.5 -97t-98.5 -36zM612 -20q-200 0 -318 117.5t-118 316.5v712h203v-712q0 -122 61.5 -189t171.5 -67q111 0 174.5 67t63.5 189v712h203v-712q0 -200 -120 -317t-321 -117z" />
    <glyph glyph-name="uni01DC" unicode="&#x1dc;" 
d="M750 1790h-211l-238 287h225zM383 1325q-62 0 -98.5 36t-36.5 97q0 64 36.5 100.5t98.5 36.5q63 0 100 -36.5t37 -100.5q0 -61 -37 -97t-100 -36zM846 1325q-63 0 -100 36t-37 97q0 64 37 100.5t100 36.5q62 0 98.5 -36.5t36.5 -100.5q0 -61 -36.5 -97t-98.5 -36z
M612 -20q-200 0 -318 117.5t-118 316.5v712h203v-712q0 -122 61.5 -189t171.5 -67q111 0 174.5 67t63.5 189v712h203v-712q0 -200 -120 -317t-321 -117z" />
    <glyph glyph-name="Gcaron" unicode="&#x1e6;" 
d="M709 1659h-187l-286 287h215l163 -158l160 158h219zM623 -20q-208 0 -329.5 116t-121.5 318v669q0 200 121.5 316.5t329.5 116.5q204 0 326 -117.5t122 -315.5h-203q0 121 -64.5 186.5t-180.5 65.5q-118 0 -183 -65.5t-65 -186.5v-669q0 -122 65 -188t183 -66
q116 0 180.5 66t64.5 188v174h-290v182h493v-356q0 -199 -122 -316.5t-326 -117.5z" />
    <glyph glyph-name="gcaron" unicode="&#x1e7;" 
d="M987 1608l-285 -287h-186l-287 287h215l164 -158l160 158h219zM848 911l-2 215h201v-1157q0 -157 -98.5 -247.5t-270.5 -90.5h-352v181h352q86 0 127 38.5t41 120.5v129l4 205h-4q-12 -109 -92.5 -172t-206.5 -63q-173 0 -274 114.5t-101 309.5v231q0 194 101 308
t274 114q126 0 206.5 -63.5t92.5 -172.5h2zM610 246q109 0 172.5 68.5t63.5 189.5v211q0 121 -63 188.5t-173 67.5q-113 0 -174 -66.5t-61 -189.5v-211q0 -124 61 -191t174 -67z" />
    <glyph glyph-name="uni01EA" unicode="&#x1ea;" 
d="M938 -422h-170q-114 0 -183 54.5t-69 140.5q0 47 36 105t99 112q-15 -10 -37 -10q-205 0 -323.5 116t-118.5 318v669q0 201 119 317t323 116t323.5 -116t119.5 -317v-669q0 -121 -45.5 -215t-128.5 -150l-66 -53q-115 -94 -115 -182q0 -44 29.5 -72.5t79.5 -28.5h127
v-135zM614 160q116 0 178 65.5t62 188.5v669q0 121 -62 186.5t-178 65.5q-115 0 -177 -65t-62 -187v-669q0 -123 61.5 -188.5t177.5 -65.5z" />
    <glyph glyph-name="uni01EB" unicode="&#x1eb;" 
d="M614 1147q205 0 324 -115.5t119 -316.5v-301q0 -125 -48 -219.5t-135 -149.5l-59 -49q-123 -103 -123 -184q0 -42 29.5 -70.5t79.5 -28.5h127v-135h-170q-114 0 -183 54.5t-69 140.5q0 104 137 215q-16 -8 -29 -8q-205 0 -323.5 116t-118.5 318v301q0 201 119 316.5
t323 115.5zM854 414v301q0 123 -62 188.5t-178 65.5t-177.5 -65.5t-61.5 -188.5v-301q0 -124 61.5 -189t177.5 -65t178 65t62 189z" />
    <glyph glyph-name="uni01F4" unicode="&#x1f4;" 
d="M692 1659h-205l215 287h220zM623 -20q-208 0 -329.5 116t-121.5 318v669q0 200 121.5 316.5t329.5 116.5q204 0 326 -117.5t122 -315.5h-203q0 121 -64.5 186.5t-180.5 65.5q-118 0 -183 -65.5t-65 -186.5v-669q0 -122 65 -188t183 -66q116 0 180.5 66t64.5 188v174h-290
v182h493v-356q0 -199 -122 -316.5t-326 -117.5z" />
    <glyph glyph-name="uni01F5" unicode="&#x1f5;" 
d="M696 1608h219l-229 -287h-207zM848 911l-2 215h201v-1157q0 -157 -98.5 -247.5t-270.5 -90.5h-352v181h352q86 0 127 38.5t41 120.5v129l4 205h-4q-12 -109 -92.5 -172t-206.5 -63q-173 0 -274 114.5t-101 309.5v231q0 194 101 308t274 114q126 0 206.5 -63.5
t92.5 -172.5h2zM610 246q109 0 172.5 68.5t63.5 189.5v211q0 121 -63 188.5t-173 67.5q-113 0 -174 -66.5t-61 -189.5v-211q0 -124 61 -191t174 -67z" />
    <glyph glyph-name="AEacute" unicode="&#x1fc;" 
d="M692 1659h-205l215 287h220zM254 0h-201l293 1495h825v-180h-368v-451h317v-182h-317v-500h368v-182h-557v403h-282zM502 1315l-140 -748h252v748h-112z" />
    <glyph glyph-name="aeacute" unicode="&#x1fd;" 
d="M692 1321h-205l215 287h220zM348 -20q-127 0 -201.5 78t-74.5 212v119q0 126 86.5 202.5t230.5 76.5h141v153q0 83 -31.5 122.5t-97.5 39.5q-57 0 -91 -35t-34 -94h-184q0 132 76 212.5t201 80.5q109 0 171.5 -50.5t73.5 -111.5h11q11 61 71 111.5t164 50.5
q138 0 217.5 -87t79.5 -237v-303h-450v-215q0 -73 36 -117.5t95 -44.5q63 0 100 33.5t37 93.5h182q0 -130 -81.5 -210t-215.5 -80q-105 0 -165.5 50t-69.5 111h-11q-11 -61 -79 -111t-187 -50zM707 823v-155h268v155q0 73 -36.5 116.5t-100.5 43.5q-61 0 -96 -43.5
t-35 -116.5zM391 143q63 0 101 44.5t38 117.5v215h-137q-61 0 -95 -34.5t-34 -96.5v-119q0 -60 34 -93.5t93 -33.5z" />
    <glyph glyph-name="Oslashacute" unicode="&#x1fe;" 
d="M702 1946h220l-230 -287h-205zM981 1536h182l-143 -254q37 -84 37 -199v-669q0 -202 -119 -318t-324 -116q-172 0 -284 83l-82 -145h-182l155 275q-49 91 -49 221v669q0 201 119 317t323 116q184 0 301 -97zM373 1083v-622l442 782q-64 92 -201 92q-116 0 -178.5 -65.5
t-62.5 -186.5zM856 414v579l-428 -757q64 -76 186 -76q116 0 179 65.5t63 188.5z" />
    <glyph glyph-name="oslashacute" unicode="&#x1ff;" 
d="M702 1608h220l-230 -287h-205zM967 1208h194l-172 -241q68 -103 68 -252v-301q0 -202 -119 -318t-324 -116q-160 0 -272 73l-82 -114h-190l163 231q-61 98 -61 244v301q0 201 119 316.5t323 115.5q154 0 263 -68zM362 715v-301q0 -11 5 -56l401 570q-62 41 -154 41
q-119 0 -185.5 -67t-66.5 -187zM866 414v301q0 35 -6 69l-409 -577q62 -47 163 -47q119 0 185.5 66.5t66.5 187.5z" />
    <glyph glyph-name="uni0218" unicode="&#x218;" 
d="M621 -20q-220 0 -351 112.5t-131 302.5h203q0 -106 77 -170.5t204 -64.5q123 0 194.5 63.5t71.5 171.5q0 85 -45 149t-123 87l-211 63q-157 47 -244.5 157t-87.5 261q0 184 121.5 294t325.5 110q202 0 323 -109.5t121 -292.5h-203q0 102 -65.5 162.5t-177.5 60.5
t-179 -60.5t-67 -160.5q0 -80 45.5 -137t128.5 -82l217 -68q150 -46 236 -161t86 -271q0 -190 -127.5 -303.5t-341.5 -113.5zM590 -492h-205l195 297h229z" />
    <glyph glyph-name="uni0219" unicode="&#x219;" 
d="M664 -16h-86q-181 0 -293.5 83t-112.5 222h207q0 -62 56 -96.5t147 -34.5h86q103 0 156 40.5t53 112.5q0 133 -189 164l-153 23q-171 28 -253.5 107.5t-82.5 217.5q0 155 102 237.5t293 82.5h78q177 0 283 -78t106 -209h-207q0 52 -50 82.5t-136 30.5h-78
q-94 0 -143.5 -37.5t-49.5 -108.5q0 -118 168 -145l154 -25q184 -28 270 -107.5t86 -226.5q0 -160 -104.5 -247.5t-306.5 -87.5zM590 -492h-205l195 297h229z" />
    <glyph glyph-name="uni021A" unicode="&#x21a;" 
d="M717 0h-203v1311h-405v184h1011v-184h-403v-1311zM590 -492h-205l195 297h229z" />
    <glyph glyph-name="uni021B" unicode="&#x21b;" 
d="M858 0h-229q-146 0 -232 83.5t-86 223.5v635h-252v184h252v318h203v-318h365v-184h-365v-633q0 -57 32.5 -91t86.5 -34h225v-184zM698 -492h-206l194 297h229z" />
    <glyph glyph-name="uni0232" unicode="&#x232;" 
d="M948 1714h-667v164h667v-164zM717 0h-203v555l-448 940h210l281 -590q47 -102 59 -157q19 65 64 157l274 590h209l-446 -940v-555z" />
    <glyph glyph-name="uni0233" unicode="&#x233;" 
d="M948 1368h-667v164h667v-164zM571 -369h-211l164 437l-432 1058h221l262 -665q34 -95 52 -178q22 99 53 178l244 665h213z" />
    <glyph glyph-name="uni0237" unicode="&#x237;" horiz-adv-x="819" 
d="M186 -369h-141v187h137q120 0 187 65t67 185v874h-334v184h537v-1060q0 -199 -123 -317t-330 -118z" />
    <glyph glyph-name="uni0259" unicode="&#x259;" 
d="M614 1147q202 0 321.5 -118t119.5 -314v-301q0 -197 -119.5 -315.5t-321.5 -118.5q-203 0 -320.5 118t-117.5 316v198h680v103q0 264 -242 264q-203 0 -231 -141h-203q22 142 138.5 225.5t295.5 83.5zM856 414v53h-483v-53q0 -269 241 -269q120 0 181 68.5t61 200.5z" />
    <glyph glyph-name="uni02B9" unicode="&#x2b9;" horiz-adv-x="819" 
d="M375 840h-180l163 637h283z" />
    <glyph glyph-name="uni02BA" unicode="&#x2ba;" 
d="M287 838h-178l163 637h281zM850 838h-178l164 637h280z" />
    <glyph glyph-name="uni02BC" unicode="&#x2bc;" horiz-adv-x="409" 
d="M170 952h-178l164 637h280z" />
    <glyph glyph-name="circumflex" unicode="&#x2c6;" 
d="M455 1321h-219l284 287h187l286 -287h-215l-164 158z" />
    <glyph glyph-name="caron" unicode="&#x2c7;" 
d="M709 1321h-187l-286 287h215l163 -158l160 158h219z" />
    <glyph glyph-name="uni02C9" unicode="&#x2c9;" 
d="M948 1368h-667v164h667v-164z" />
    <glyph glyph-name="breve" unicode="&#x2d8;" 
d="M614 1309q-150 0 -242.5 82.5t-92.5 216.5h159q0 -76 48 -123t126 -47q80 0 129.5 47t49.5 123h159q0 -134 -92.5 -216.5t-243.5 -82.5z" />
    <glyph glyph-name="dotaccent" unicode="&#x2d9;" 
d="M614 1325q-70 0 -110.5 35.5t-40.5 97.5q0 64 40 100.5t111 36.5t111.5 -36.5t40.5 -100.5q0 -62 -41 -97.5t-111 -35.5z" />
    <glyph glyph-name="ring" unicode="&#x2da;" 
d="M614 1243q-114 0 -183 65.5t-69 172.5q0 106 69 171.5t183 65.5t183 -65.5t69 -171.5q0 -107 -69 -172.5t-183 -65.5zM614 1356q56 0 89.5 34t33.5 91q0 56 -34 90.5t-89 34.5t-88.5 -34.5t-33.5 -90.5q0 -57 33 -91t89 -34z" />
    <glyph glyph-name="ogonek" unicode="&#x2db;" 
d="M795 -422h-170q-114 0 -183 54.5t-69 140.5q0 128 182 247h158l-31 -24q-123 -103 -123 -184q0 -43 30 -71t81 -28h125v-135z" />
    <glyph glyph-name="tilde" unicode="&#x2dc;" 
d="M758 1327q-46 0 -83 14.5t-61 35t-44 40.5t-42.5 34.5t-46.5 14.5q-61 0 -61 -69v-60h-139v64q0 93 51.5 147t138.5 54q46 0 83 -14.5t61 -35t44 -41t42.5 -35t46.5 -14.5q61 0 61 70v59h139v-61q0 -95 -51.5 -149t-138.5 -54z" />
    <glyph glyph-name="hungarumlaut" unicode="&#x2dd;" 
d="M481 1321h-192l223 287h205zM858 1321h-192l225 287h203z" />
    <glyph glyph-name="uni02F3" unicode="&#x2f3;" 
d="M-614 -516q-112 0 -181 57.5t-69 149.5q0 94 68.5 150.5t181.5 56.5q112 0 179.5 -56.5t67.5 -150.5q0 -93 -67.5 -150t-179.5 -57zM-616 -410q56 0 90 28t34 73q0 102 -124 102q-54 0 -87.5 -28t-33.5 -74q0 -44 33.5 -72.5t87.5 -28.5z" />
    <glyph glyph-name="uni02F7" unicode="&#x2f7;" 
d="M758 -440q-46 0 -83 14.5t-61 35t-44 41.5t-42.5 35.5t-46.5 14.5q-61 0 -61 -72v-59h-139v63q0 95 51.5 149t138.5 54q46 0 83 -14.5t61 -35t44 -41.5t42.5 -35.5t46.5 -14.5q61 0 61 69v62h139v-64q0 -93 -51.5 -147.5t-138.5 -54.5z" />
    <glyph glyph-name="gravecomb" unicode="&#x300;" horiz-adv-x="0" 
d="M-1688 1321h-213l-235 287h225z" />
    <glyph glyph-name="acutecomb" unicode="&#x301;" horiz-adv-x="0" 
d="M-1786 1321h-207l217 287h220z" />
    <glyph glyph-name="uni0302" unicode="&#x302;" horiz-adv-x="0" 
d="M-2003 1321h-219l285 287h186l287 -287h-215l-164 158z" />
    <glyph glyph-name="tildecomb" unicode="&#x303;" horiz-adv-x="0" 
d="M-1700 1327q-46 0 -83 14.5t-60.5 35t-43.5 40.5t-42.5 34.5t-46.5 14.5q-29 0 -45.5 -17.5t-16.5 -51.5v-60h-139v64q0 93 51.5 147t138.5 54q46 0 83 -14.5t61 -35t44 -41t42.5 -35t46.5 -14.5q61 0 61 70v59h140v-61q0 -94 -52 -148.5t-139 -54.5z" />
    <glyph glyph-name="uni0304" unicode="&#x304;" horiz-adv-x="0" 
d="M-1509 1368h-668v164h668v-164z" />
    <glyph glyph-name="uni0306" unicode="&#x306;" horiz-adv-x="0" 
d="M-1843 1309q-151 0 -243.5 82.5t-92.5 216.5h160q0 -76 48 -123t126 -47q80 0 129 47t49 123h160q0 -134 -92.5 -216.5t-243.5 -82.5z" />
    <glyph glyph-name="uni0307" unicode="&#x307;" horiz-adv-x="0" 
d="M-1843 1325q-70 0 -111 35.5t-41 97.5q0 64 40.5 100.5t111.5 36.5t111 -36.5t40 -100.5q0 -62 -40.5 -97.5t-110.5 -35.5z" />
    <glyph glyph-name="uni0308" unicode="&#x308;" horiz-adv-x="0" 
d="M-2075 1325q-62 0 -98.5 36t-36.5 97q0 64 36.5 100.5t98.5 36.5q63 0 100.5 -36.5t37.5 -100.5q0 -61 -37.5 -97t-100.5 -36zM-1612 1325q-63 0 -100 36t-37 97q0 64 37 100.5t100 36.5q62 0 98.5 -36.5t36.5 -100.5q0 -61 -36.5 -97t-98.5 -36z" />
    <glyph glyph-name="hookabovecomb" unicode="&#x309;" horiz-adv-x="0" 
d="M-1753 1321h-180l102 127q29 40 29 65q0 21 -15.5 30t-50.5 9h-164v140h215q82 0 131.5 -42t49.5 -112q0 -68 -35 -115z" />
    <glyph glyph-name="uni030A" unicode="&#x30a;" horiz-adv-x="0" 
d="M-1843 1243q-114 0 -183 65.5t-69 172.5q0 106 69 171.5t183 65.5t183 -65.5t69 -171.5q0 -107 -69 -172.5t-183 -65.5zM-1843 1356q56 0 89.5 34t33.5 91q0 56 -34 90.5t-89 34.5t-89 -34.5t-34 -90.5q0 -57 33.5 -91t89.5 -34z" />
    <glyph glyph-name="uni030B" unicode="&#x30b;" horiz-adv-x="0" 
d="M-1976 1321h-193l223 287h205zM-1599 1321h-193l225 287h203z" />
    <glyph glyph-name="uni030C" unicode="&#x30c;" horiz-adv-x="0" 
d="M-1749 1321h-186l-287 287h215l164 -158l160 158h219z" />
    <glyph glyph-name="uni030F" unicode="&#x30f;" horiz-adv-x="0" 
d="M-2120 1608l226 -287h-193l-235 287h202zM-1741 1608l223 -287h-192l-236 287h205z" />
    <glyph glyph-name="uni0312" unicode="&#x312;" horiz-adv-x="0" 
d="M-1767 1802h168l-164 -481h-271z" />
    <glyph glyph-name="uni031B" unicode="&#x31b;" horiz-adv-x="0" 
d="M-1636 983h-74v143h61q72 0 72 72v154h168v-162q0 -93 -62.5 -150t-164.5 -57z" />
    <glyph glyph-name="dotbelowcomb" unicode="&#x323;" horiz-adv-x="0" 
d="M-1843 -442q-70 0 -111 35.5t-41 97.5q0 63 41 100t111 37t110.5 -37t40.5 -100q0 -62 -40.5 -97.5t-110.5 -35.5z" />
    <glyph glyph-name="uni0325" unicode="&#x325;" horiz-adv-x="0" 
d="M-1843 -516q-112 0 -181 57.5t-69 149.5q0 94 68.5 150.5t181.5 56.5q112 0 180 -56.5t68 -150.5q0 -93 -68 -150t-180 -57zM-1845 -410q56 0 90.5 28t34.5 73q0 102 -125 102q-54 0 -87.5 -28t-33.5 -74q0 -44 33.5 -72.5t87.5 -28.5z" />
    <glyph glyph-name="uni0326" unicode="&#x326;" horiz-adv-x="0" 
d="M-1868 -492h-205l195 297h227z" />
    <glyph glyph-name="uni0327" unicode="&#x327;" horiz-adv-x="0" 
d="M-1862 -422h-180v117h146q44 0 73 22.5t29 51.5q0 38 -58.5 64t-158.5 26l72 190h120l-43 -123q96 -9 174 -55t78 -121q0 -72 -70 -122t-182 -50z" />
    <glyph glyph-name="uni0328" unicode="&#x328;" horiz-adv-x="0" 
d="M-1663 -422h-170q-114 0 -183 54.5t-69 140.5q0 128 182 247h158l-31 -24q-122 -102 -122 -184q0 -43 29 -71t79 -28h127v-135z" />
    <glyph glyph-name="uni0336" unicode="&#x336;" horiz-adv-x="0" 
d="M-1167 586h-1352v155h1352v-155z" />
    <glyph glyph-name="uni0337" unicode="&#x337;" horiz-adv-x="0" 
d="M-2198 -61h-192l899 1269h193z" />
    <glyph glyph-name="uni0338" unicode="&#x338;" horiz-adv-x="0" 
d="M-2097 -225h-137l645 1577h137z" />
    <glyph glyph-name="uni0374" unicode="&#x374;" 
d="M510 840h-180l164 637h282z" />
    <glyph glyph-name="uni0375" unicode="&#x375;" 
d="M334 -328h-180l163 637h283z" />
    <glyph glyph-name="uni037E" unicode="&#x37e;" 
d="M430 831h-41q-69 0 -113.5 44.5t-44.5 113.5q0 67 45.5 112.5t112.5 45.5h41q68 0 113 -45.5t45 -112.5q0 -69 -44.5 -113.5t-113.5 -44.5zM315 -328h-180l164 637h283z" />
    <glyph glyph-name="tonos" unicode="&#x384;" 
d="M631 1321h-205l215 287h219z" />
    <glyph glyph-name="dieresistonos" unicode="&#x385;" 
d="M682 1583h-160l160 268h178zM383 1325q-62 0 -98.5 36t-36.5 97q0 64 36.5 100.5t98.5 36.5q63 0 100 -36.5t37 -100.5q0 -61 -37 -97t-100 -36zM846 1325q-63 0 -100 36t-37 97q0 64 37 100.5t100 36.5q62 0 98.5 -36.5t36.5 -100.5q0 -61 -36.5 -97t-98.5 -36z" />
    <glyph glyph-name="Alphatonos" unicode="&#x386;" 
d="M195 1167h-189l117 328h203zM301 0h-207l387 1495h269l385 -1495h-207l-94 389h-439zM545 1006l-111 -449h359l-109 447q-58 245 -70 325q-14 -93 -69 -323z" />
    <glyph glyph-name="anoteleia" unicode="&#x387;" 
d="M410 543q-82 0 -129.5 46.5t-47.5 125.5q0 83 47.5 130.5t129.5 47.5t129 -47.5t47 -130.5q0 -80 -47 -126t-129 -46z" />
    <glyph glyph-name="Epsilontonos" unicode="&#x388;" 
d="M-57 1167h-189l117 328h205zM1069 0h-870v1495h870v-182h-670v-445h598v-176h-598v-510h670v-182z" />
    <glyph glyph-name="Etatonos" unicode="&#x389;" 
d="M-57 1167h-189l117 328h205zM385 0h-203v1495h203v-629h459v629h203v-1495h-203v682h-459v-682z" />
    <glyph glyph-name="Iotatonos" unicode="&#x38a;" 
d="M-57 1167h-189l117 328h205zM1022 0h-815v184h305v1127h-305v184h815v-184h-305v-1127h305v-184z" />
    <glyph glyph-name="Omicrontonos" unicode="&#x38c;" 
d="M614 -20q-205 0 -323.5 116t-118.5 318v669q0 201 119 317t323 116t323.5 -116t119.5 -317v-669q0 -202 -119 -318t-324 -116zM12 1167h-186l115 328h204zM614 160q116 0 178 65.5t62 188.5v669q0 121 -62 186.5t-178 65.5q-115 0 -177 -65t-62 -187v-669
q0 -123 61.5 -188.5t177.5 -65.5z" />
    <glyph glyph-name="Upsilontonos" unicode="&#x38e;" 
d="M-86 1167h-188l114 328h205zM717 0h-203v555l-448 940h210l281 -590q47 -102 59 -157q19 65 64 157l274 590h209l-446 -940v-555z" />
    <glyph glyph-name="Omegatonos" unicode="&#x38f;" 
d="M532 0h-430v182h297v11q-41 5 -82.5 26.5t-79 59.5t-60.5 101t-23 140v553q0 202 124.5 322.5t335.5 120.5q212 0 336.5 -120.5t124.5 -322.5v-553q0 -77 -23.5 -139.5t-61 -100.5t-78.5 -59t-83 -26v-13h299v-182h-432v262q78 0 127 69.5t49 178.5v563q0 120 -70.5 192
t-187.5 72t-187.5 -72t-70.5 -192v-563q0 -109 49 -178.5t127 -69.5v-262zM12 1167h-186l115 328h204z" />
    <glyph glyph-name="iotadieresistonos" unicode="&#x390;" 
d="M682 1583h-160l160 268h178zM383 1325q-62 0 -98.5 36t-36.5 97q0 64 36.5 100.5t98.5 36.5q63 0 100 -36.5t37 -100.5q0 -61 -37 -97t-100 -36zM846 1325q-63 0 -100 36t-37 97q0 64 37 100.5t100 36.5q62 0 98.5 -36.5t36.5 -100.5q0 -61 -36.5 -97t-98.5 -36zM1130 0
h-278q-154 0 -247 90.5t-93 239.5v612h-403v184h606v-796q0 -67 38 -106.5t103 -39.5h274v-184z" />
    <glyph glyph-name="Alpha" unicode="&#x391;" 
d="M301 0h-207l387 1495h269l385 -1495h-207l-94 389h-439zM545 1006l-111 -449h359l-109 447q-58 245 -70 325q-14 -93 -69 -323z" />
    <glyph glyph-name="Beta" unicode="&#x392;" 
d="M831 791q124 -32 194.5 -130.5t70.5 -242.5q0 -192 -122 -305t-331 -113h-461v1495h432q207 0 327 -103.5t120 -283.5q0 -122 -61 -204.5t-169 -112.5zM614 1317h-233v-453h231q114 0 180 61t66 165q0 106 -65 166.5t-179 60.5zM381 178h244q125 0 196.5 66.5t71.5 181.5
q0 120 -72.5 193t-195.5 73h-244v-514z" />
    <glyph glyph-name="Gamma" unicode="&#x393;" 
d="M465 0h-203v1495h877v-184h-674v-1311z" />
    <glyph glyph-name="uni0394" unicode="&#x394;" 
d="M481 1495h269l385 -1495h-1041zM545 1006l-201 -826h541l-201 824q-33 134 -70 327q-33 -171 -69 -325z" />
    <glyph glyph-name="Epsilon" unicode="&#x395;" 
d="M1069 0h-870v1495h870v-182h-670v-445h598v-176h-598v-510h670v-182z" />
    <glyph glyph-name="Zeta" unicode="&#x396;" 
d="M1059 0h-887v199l653 1112h-643v184h854v-199l-655 -1112h678v-184z" />
    <glyph glyph-name="Eta" unicode="&#x397;" 
d="M385 0h-203v1495h203v-629h459v629h203v-1495h-203v682h-459v-682z" />
    <glyph glyph-name="Theta" unicode="&#x398;" 
d="M614 -20q-205 0 -323.5 116t-118.5 318v669q0 201 119 317t323 116t323.5 -116t119.5 -317v-669q0 -202 -119 -318t-324 -116zM614 160q116 0 178 65.5t62 188.5v669q0 121 -62 186.5t-178 65.5q-115 0 -177 -65t-62 -187v-669q0 -123 61.5 -188.5t177.5 -65.5zM791 659
h-353v187h353v-187z" />
    <glyph glyph-name="Iota" unicode="&#x399;" 
d="M1022 0h-815v184h305v1127h-305v184h815v-184h-305v-1127h305v-184z" />
    <glyph glyph-name="Kappa" unicode="&#x39a;" 
d="M383 0h-203v1495h203v-633h209l319 633h222l-363 -717l381 -778h-229l-334 684h-205v-684z" />
    <glyph glyph-name="Lambda" unicode="&#x39b;" 
d="M301 0h-207l387 1495h269l385 -1495h-207l-244 1004q-19 81 -36.5 162.5t-25.5 123.5l-8 41q-26 -145 -69 -325z" />
    <glyph glyph-name="Mu" unicode="&#x39c;" 
d="M340 0h-195v1495h258l156 -481q23 -72 59 -226q20 107 58 228l149 479h258v-1495h-194v686q0 314 53 703l-233 -736h-189l-235 731q55 -381 55 -698v-686z" />
    <glyph glyph-name="Nu" unicode="&#x39d;" 
d="M367 0h-191v1495h262l447 -1262q-23 251 -23 457v805h193v-1495h-264l-445 1262q21 -218 21 -449v-813z" />
    <glyph glyph-name="Xi" unicode="&#x39e;" 
d="M1069 1309h-909v186h909v-186zM1008 666h-787v184h787v-184zM1069 0h-909v186h909v-186z" />
    <glyph glyph-name="Omicron" unicode="&#x39f;" 
d="M614 -20q-205 0 -323.5 116t-118.5 318v669q0 201 119 317t323 116t323.5 -116t119.5 -317v-669q0 -202 -119 -318t-324 -116zM614 160q116 0 178 65.5t62 188.5v669q0 121 -62 186.5t-178 65.5q-115 0 -177 -65t-62 -187v-669q0 -123 61.5 -188.5t177.5 -65.5z" />
    <glyph glyph-name="Pi" unicode="&#x3a0;" 
d="M387 0h-203v1495h860v-1495h-202v1311h-455v-1311z" />
    <glyph glyph-name="Rho" unicode="&#x3a1;" 
d="M383 0h-203v1495h486q214 0 340.5 -121t126.5 -325q0 -203 -127 -324t-340 -121h-283v-604zM383 1315v-531h283q118 0 188 72.5t70 192.5q0 122 -70 194t-188 72h-283z" />
    <glyph glyph-name="Sigma" unicode="&#x3a3;" 
d="M1126 0h-974v180l460 580l-460 557v178h974v-180h-735l465 -547l-467 -588h737v-180z" />
    <glyph glyph-name="Tau" unicode="&#x3a4;" 
d="M717 0h-203v1311h-405v184h1011v-184h-403v-1311z" />
    <glyph glyph-name="Upsilon" unicode="&#x3a5;" 
d="M717 0h-203v555l-448 940h210l281 -590q47 -102 59 -157q19 65 64 157l274 590h209l-446 -940v-555z" />
    <glyph glyph-name="Phi" unicode="&#x3a6;" 
d="M707 -51h-185v143q-189 0 -304.5 117.5t-115.5 312.5v473q0 198 115 318.5t305 120.5v143h185v-143q190 0 304.5 -120.5t114.5 -318.5v-473q0 -195 -115 -312.5t-304 -117.5v-143zM524 260v1006q-110 0 -172.5 -72.5t-62.5 -198.5v-473q0 -122 62.5 -192t172.5 -70z
M705 1266v-1006q110 0 172.5 70t62.5 192v473q0 126 -62.5 198.5t-172.5 72.5z" />
    <glyph glyph-name="Chi" unicode="&#x3a7;" 
d="M299 0h-223l426 760l-404 735h232l221 -426l67 -135q12 30 66 135l223 426h223l-403 -725l426 -770h-229l-246 459q-51 100 -66 141q-36 -86 -67 -139z" />
    <glyph glyph-name="Psi" unicode="&#x3a8;" 
d="M707 0h-185v348q-189 0 -304.5 117.5t-115.5 312.5v717h187v-717q0 -122 62.5 -192t172.5 -70v979h181v-979q110 0 172.5 70t62.5 192v717h186v-717q0 -195 -115 -312.5t-304 -117.5v-348z" />
    <glyph glyph-name="uni03A9" unicode="&#x3a9;" 
d="M532 0h-430v182h297v11q-41 5 -82.5 26.5t-79 59.5t-60.5 101t-23 140v553q0 202 124.5 322.5t335.5 120.5q212 0 336.5 -120.5t124.5 -322.5v-553q0 -77 -23.5 -139.5t-61 -100.5t-78.5 -59t-83 -26v-13h299v-182h-432v262q78 0 127 69.5t49 178.5v563q0 120 -70.5 192
t-187.5 72t-187.5 -72t-70.5 -192v-563q0 -109 49 -178.5t127 -69.5v-262z" />
    <glyph glyph-name="Iotadieresis" unicode="&#x3aa;" 
d="M383 1669q-62 0 -98.5 36t-36.5 97q0 63 36.5 100t98.5 37q63 0 100 -37t37 -100q0 -61 -37 -97t-100 -36zM846 1669q-63 0 -100 36t-37 97q0 63 37 100t100 37q62 0 98.5 -37t36.5 -100q0 -61 -36.5 -97t-98.5 -36zM1022 0h-815v184h305v1127h-305v184h815v-184h-305
v-1127h305v-184z" />
    <glyph glyph-name="Upsilondieresis" unicode="&#x3ab;" 
d="M383 1669q-62 0 -98.5 36t-36.5 97q0 63 36.5 100t98.5 37q63 0 100 -37t37 -100q0 -61 -37 -97t-100 -36zM846 1669q-63 0 -100 36t-37 97q0 63 37 100t100 37q62 0 98.5 -37t36.5 -100q0 -61 -36.5 -97t-98.5 -36zM717 0h-203v555l-448 940h210l281 -590
q47 -102 59 -157q19 65 64 157l274 590h209l-446 -940v-555z" />
    <glyph glyph-name="alphatonos" unicode="&#x3ac;" 
d="M690 1608h219l-229 -287h-207zM844 911v215h200v-1126h-200v215h-4q-14 -109 -93.5 -172t-205.5 -63q-170 0 -267.5 113t-97.5 310v322q0 195 98 308.5t267 113.5q127 0 206.5 -62.5t94.5 -173.5h2zM610 156q109 0 170.5 68t61.5 190v301q0 121 -61.5 188.5t-170.5 67.5
q-112 0 -171.5 -66.5t-59.5 -189.5v-301q0 -125 59.5 -191.5t171.5 -66.5z" />
    <glyph glyph-name="epsilontonos" unicode="&#x3ad;" 
d="M659 1321h-206l217 287h219zM668 -14h-99q-192 0 -302.5 87.5t-110.5 239.5q0 122 76 198t208 83v4q-125 6 -196.5 71.5t-71.5 174.5q0 136 107.5 216.5t291.5 80.5h101q170 0 277.5 -79.5t129.5 -219.5h-211q-11 58 -62 90.5t-134 32.5h-101q-88 0 -138 -39.5
t-50 -108.5t49.5 -109t134.5 -40h236v-170h-234q-93 0 -147.5 -46t-54.5 -124t54 -122t148 -44h99q90 0 150 30.5t75 83.5h209q-22 -134 -138 -212t-296 -78z" />
    <glyph glyph-name="etatonos" unicode="&#x3ae;" 
d="M713 1608h219l-230 -287h-204zM684 1147q168 0 268.5 -106t100.5 -287v-1123h-203v1100q0 115 -61.5 179.5t-167.5 64.5q-111 0 -174.5 -69t-63.5 -191v-715h-203v1126h201v-215h2q15 113 93.5 174.5t207.5 61.5z" />
    <glyph glyph-name="iotatonos" unicode="&#x3af;" 
d="M692 1321h-205l215 287h220zM1130 0h-278q-154 0 -247 90.5t-93 239.5v612h-403v184h606v-796q0 -67 38 -106.5t103 -39.5h274v-184z" />
    <glyph glyph-name="upsilondieresistonos" unicode="&#x3b0;" 
d="M682 1583h-160l160 268h178zM383 1325q-62 0 -98.5 36t-36.5 97q0 64 36.5 100.5t98.5 36.5q63 0 100 -36.5t37 -100.5q0 -61 -37 -97t-100 -36zM846 1325q-63 0 -100 36t-37 97q0 64 37 100.5t100 36.5q62 0 98.5 -36.5t36.5 -100.5q0 -61 -36.5 -97t-98.5 -36zM612 -20
q-200 0 -318 117.5t-118 316.5v712h203v-712q0 -122 61.5 -189t171.5 -67q111 0 174.5 67t63.5 189v712h203v-712q0 -200 -120 -317t-321 -117z" />
    <glyph glyph-name="alpha" unicode="&#x3b1;" 
d="M844 911v215h200v-1126h-200v215h-4q-14 -109 -93.5 -172t-205.5 -63q-170 0 -267.5 113t-97.5 310v322q0 195 98 308.5t267 113.5q127 0 206.5 -62.5t94.5 -173.5h2zM610 156q109 0 170.5 68t61.5 190v301q0 121 -61.5 188.5t-170.5 67.5q-112 0 -171.5 -66.5
t-59.5 -189.5v-301q0 -125 59.5 -191.5t171.5 -66.5z" />
    <glyph glyph-name="beta" unicode="&#x3b2;" 
d="M377 -369h-199v1456q0 193 122.5 311t322.5 118t322 -104.5t122 -276.5q0 -127 -64.5 -215.5t-179.5 -120.5q127 -33 200 -130.5t73 -242.5q0 -188 -124.5 -307t-326.5 -119h-268v-369zM377 1087v-907h248q119 0 188.5 70t69.5 186q0 114 -68.5 179t-189.5 65h-90v170h83
q110 0 174 68.5t64 177.5q0 110 -64 174.5t-176 64.5q-111 0 -175 -66.5t-64 -181.5z" />
    <glyph glyph-name="gamma" unicode="&#x3b3;" 
d="M717 -369h-203v369l-401 1126h213l245 -731q11 -31 20 -65.5t13.5 -57l10.5 -52.5l8 -40q1 5 6 39t9 54t12.5 55.5t19.5 66.5l239 731h207l-399 -1126v-369z" />
    <glyph glyph-name="delta" unicode="&#x3b4;" 
d="M614 -20q-204 0 -321 118t-117 324v174q0 183 80.5 292t214.5 109q93 0 186 -69l9 8l-449 395v164h770v-168h-518l393 -338q97 -83 145 -176.5t48 -208.5v-182q0 -205 -118.5 -323.5t-322.5 -118.5zM614 160q113 0 175.5 68.5t62.5 193.5v182q0 129 -63 199.5t-177 70.5
q-112 0 -172.5 -70.5t-60.5 -199.5v-182q0 -126 61 -194t174 -68z" />
    <glyph glyph-name="epsilon" unicode="&#x3b5;" 
d="M668 -14h-99q-192 0 -302.5 87.5t-110.5 239.5q0 122 76 198t208 83v4q-125 6 -196.5 71.5t-71.5 174.5q0 136 107.5 216.5t291.5 80.5h101q170 0 277.5 -79.5t129.5 -219.5h-211q-11 58 -62 90.5t-134 32.5h-101q-88 0 -138 -39.5t-50 -108.5t49.5 -109t134.5 -40h236
v-170h-234q-93 0 -147.5 -46t-54.5 -124t54 -122t148 -44h99q90 0 150 30.5t75 83.5h209q-22 -134 -138 -212t-296 -78z" />
    <glyph glyph-name="zeta" unicode="&#x3b6;" 
d="M1104 -369h-203v269q0 100 -100 100h-246q-200 0 -312 95.5t-112 258.5q0 292 406 682l284 273h-641v186h856v-199l-372 -374q-330 -333 -330 -553q0 -89 58.5 -139t164.5 -50h254q154 0 223.5 -64t69.5 -210v-275z" />
    <glyph glyph-name="eta" unicode="&#x3b7;" 
d="M684 1147q168 0 268.5 -106t100.5 -287v-1123h-203v1100q0 115 -61.5 179.5t-167.5 64.5q-111 0 -174.5 -69t-63.5 -191v-715h-203v1126h201v-215h2q15 113 93.5 174.5t207.5 61.5z" />
    <glyph glyph-name="theta" unicode="&#x3b8;" 
d="M614 -20q-205 0 -323.5 116t-118.5 318v649q0 201 119 316.5t323 115.5q205 0 324 -115.5t119 -316.5v-649q0 -202 -119 -318t-324 -116zM375 1063v-229h479v229q0 123 -62 188.5t-178 65.5t-177.5 -65.5t-61.5 -188.5zM614 160q116 0 178 65t62 189v245h-479v-245
q0 -124 61.5 -189t177.5 -65z" />
    <glyph glyph-name="iota" unicode="&#x3b9;" 
d="M1130 0h-278q-154 0 -247 90.5t-93 239.5v612h-403v184h606v-796q0 -67 38 -106.5t103 -39.5h274v-184z" />
    <glyph glyph-name="kappa" unicode="&#x3ba;" 
d="M389 0h-203v1126h203v-458h207l315 458h230l-369 -538l375 -588h-236l-313 494h-209v-494z" />
    <glyph glyph-name="lambda" unicode="&#x3bb;" 
d="M313 0h-219l420 1110l-152 385h216l557 -1495h-215l-256 713q-15 40 -26.5 81.5t-21 81t-12.5 50.5q0 -94 -41 -213z" />
    <glyph glyph-name="uni03BC" unicode="&#x3bc;" 
d="M846 414v712h203v-1126h-199v215h-4q-16 -235 -236 -235q-114 0 -166.5 60t-58.5 175h-4l4 -260v-324h-203v1495h203v-712q0 -123 59 -190.5t168 -67.5t171.5 68t62.5 190z" />
    <glyph glyph-name="nu" unicode="&#x3bd;" 
d="M745 0h-262l-409 1126h209l274 -739q14 -38 26 -82.5t22 -89t13 -55.5q3 10 13 54.5t22 89t27 83.5l266 739h211z" />
    <glyph glyph-name="xi" unicode="&#x3be;" 
d="M674 184h192q134 0 212.5 -74.5t78.5 -203.5v-271h-203v265q0 46 -27 73t-73 27h-182q-232 0 -368 118.5t-136 319.5q0 147 76 244.5t213 126.5q-121 26 -188.5 108.5t-67.5 206.5q0 170 121 270.5t327 100.5h387v-184h-389q-110 0 -174.5 -57.5t-64.5 -155.5
q0 -100 64.5 -158.5t174.5 -58.5h322v-179h-310q-129 0 -204.5 -70t-75.5 -190q0 -118 80 -188t215 -70z" />
    <glyph glyph-name="omicron" unicode="&#x3bf;" 
d="M614 -16q-207 0 -327.5 116t-120.5 316v295q0 200 120.5 316t327.5 116t328 -116t121 -314v-297q0 -199 -121 -315.5t-328 -116.5zM614 162q117 0 181.5 65.5t64.5 188.5v295q0 123 -64.5 188.5t-181.5 65.5t-181 -65.5t-64 -188.5v-295q0 -123 64 -188.5t181 -65.5z" />
    <glyph glyph-name="pi" unicode="&#x3c0;" 
d="M1143 -10h-45q-160 0 -255 99t-95 265v594h-336v-948h-197v948h-168v178h1094v-178h-199v-602q0 -81 40.5 -124.5t111.5 -43.5h49v-188z" />
    <glyph glyph-name="rho" unicode="&#x3c1;" 
d="M621 1147q201 0 317.5 -113t116.5 -309v-322q0 -196 -98.5 -309.5t-268.5 -113.5q-126 0 -205.5 63t-93.5 172h-8l6 -260v-324h-203v1094q0 195 118 308.5t319 113.5zM852 414v301q0 123 -61 189.5t-173 66.5t-171.5 -66.5t-59.5 -189.5v-301q0 -123 61 -190.5t170 -67.5
q113 0 173.5 67t60.5 191z" />
    <glyph glyph-name="uni03C2" unicode="&#x3c2;" 
d="M1118 -369h-203v269q0 100 -100 100h-192q-210 0 -333.5 109t-123.5 307v299q0 200 124.5 316t332.5 116q200 0 320 -106t126 -287h-203q-6 101 -70 158t-173 57q-118 0 -186 -67t-68 -187v-299q0 -118 67 -177t187 -59h204q139 0 215 -71.5t76 -202.5v-275z" />
    <glyph glyph-name="sigma" unicode="&#x3c3;" 
d="M1163 1126v-180h-336v-6q104 -12 165 -83t61 -181v-262q0 -195 -122 -314.5t-323 -119.5q-199 0 -320.5 119.5t-121.5 314.5v280q0 194 121.5 313t320.5 119h555zM850 414v280q0 120 -64 187t-178 67q-112 0 -175.5 -68t-63.5 -186v-280q0 -119 63.5 -186.5t175.5 -67.5
q114 0 178 67.5t64 186.5z" />
    <glyph glyph-name="tau" unicode="&#x3c4;" 
d="M1051 0h-263q-151 0 -233 80.5t-82 226.5v635h-356v184h962v-184h-403v-635q0 -63 28.5 -93t88.5 -30h258v-184z" />
    <glyph glyph-name="upsilon" unicode="&#x3c5;" 
d="M612 -20q-200 0 -318 117.5t-118 316.5v712h203v-712q0 -122 61.5 -189t171.5 -67q111 0 174.5 67t63.5 189v712h203v-712q0 -200 -120 -317t-321 -117z" />
    <glyph glyph-name="phi" unicode="&#x3c6;" 
d="M705 -369h-181v369q-194 0 -304.5 111.5t-110.5 304.5v710h182v-710q0 -120 64.5 -188t181.5 -68v966h225q166 0 262 -90t96 -245v-375q0 -193 -110.5 -304.5t-304.5 -111.5v-369zM692 969v-809q117 0 181.5 67t64.5 189v375q0 83 -47.5 130.5t-130.5 47.5h-68z" />
    <glyph glyph-name="chi" unicode="&#x3c7;" 
d="M299 -369h-223l426 760l-404 735h232l221 -426l67 -135q12 30 66 135l223 426h223l-403 -725l426 -770h-229l-246 459q-51 100 -66 141q-36 -86 -67 -139z" />
    <glyph glyph-name="psi" unicode="&#x3c8;" 
d="M705 -369h-181v369q-195 0 -307.5 111.5t-112.5 304.5v710h183v-710q0 -120 65.5 -186t184.5 -66v962h155v-962q119 0 184.5 66t65.5 186v710h182v-710q0 -194 -112 -305t-307 -111v-369z" />
    <glyph glyph-name="omega" unicode="&#x3c9;" 
d="M815 930v209q141 -23 223 -133.5t82 -278.5v-414q0 -155 -70 -244t-192 -89q-99 0 -164 59t-80 162q-15 -103 -79.5 -162t-165.5 -59q-120 0 -190 89t-70 244v414q0 172 79.5 285t217.5 135v-209q-53 -10 -83 -67t-30 -144v-420q0 -77 31 -119.5t88 -42.5q58 0 90.5 42.5
t32.5 119.5v398h159v-398q0 -77 32.5 -119.5t90.5 -42.5q57 0 88 42.5t31 119.5v420q0 82 -32 136.5t-89 66.5z" />
    <glyph glyph-name="iotadieresis" unicode="&#x3ca;" 
d="M383 1325q-62 0 -98.5 36t-36.5 97q0 64 36.5 100.5t98.5 36.5q63 0 100 -36.5t37 -100.5q0 -61 -37 -97t-100 -36zM846 1325q-63 0 -100 36t-37 97q0 64 37 100.5t100 36.5q62 0 98.5 -36.5t36.5 -100.5q0 -61 -36.5 -97t-98.5 -36zM1130 0h-278q-154 0 -247 90.5
t-93 239.5v612h-403v184h606v-796q0 -67 38 -106.5t103 -39.5h274v-184z" />
    <glyph glyph-name="upsilondieresis" unicode="&#x3cb;" 
d="M383 1325q-62 0 -98.5 36t-36.5 97q0 64 36.5 100.5t98.5 36.5q63 0 100 -36.5t37 -100.5q0 -61 -37 -97t-100 -36zM846 1325q-63 0 -100 36t-37 97q0 64 37 100.5t100 36.5q62 0 98.5 -36.5t36.5 -100.5q0 -61 -36.5 -97t-98.5 -36zM612 -20q-200 0 -318 117.5
t-118 316.5v712h203v-712q0 -122 61.5 -189t171.5 -67q111 0 174.5 67t63.5 189v712h203v-712q0 -200 -120 -317t-321 -117z" />
    <glyph glyph-name="omicrontonos" unicode="&#x3cc;" 
d="M692 1321h-205l215 287h220zM614 -16q-207 0 -327.5 116t-120.5 316v295q0 200 120.5 316t327.5 116t328 -116t121 -314v-297q0 -199 -121 -315.5t-328 -116.5zM614 162q117 0 181.5 65.5t64.5 188.5v295q0 123 -64.5 188.5t-181.5 65.5t-181 -65.5t-64 -188.5v-295
q0 -123 64 -188.5t181 -65.5z" />
    <glyph glyph-name="upsilontonos" unicode="&#x3cd;" 
d="M692 1321h-205l215 287h220zM612 -20q-200 0 -318 117.5t-118 316.5v712h203v-712q0 -122 61.5 -189t171.5 -67q111 0 174.5 67t63.5 189v712h203v-712q0 -200 -120 -317t-321 -117z" />
    <glyph glyph-name="omegatonos" unicode="&#x3ce;" 
d="M682 1608h219l-229 -287h-207zM815 930v209q141 -23 223 -133.5t82 -278.5v-414q0 -155 -70 -244t-192 -89q-99 0 -164 59t-80 162q-15 -103 -79.5 -162t-165.5 -59q-120 0 -190 89t-70 244v414q0 172 79.5 285t217.5 135v-209q-53 -10 -83 -67t-30 -144v-420
q0 -77 31 -119.5t88 -42.5q58 0 90.5 42.5t32.5 119.5v398h159v-398q0 -77 32.5 -119.5t90.5 -42.5q57 0 88 42.5t31 119.5v420q0 82 -32 136.5t-89 66.5z" />
    <glyph glyph-name="uni03CF" unicode="&#x3cf;" 
d="M770 778l305 -624h113v-158q0 -177 -97.5 -271t-281.5 -94h-72v176h68q88 0 140 52t52 141h-75l-334 684h-205v-684h-203v1495h203v-633h209l319 633h222z" />
    <glyph glyph-name="uni03D5" unicode="&#x3d5;" 
d="M702 -369h-176v369q-196 0 -309 111t-113 305v299q0 191 113 301t309 110v369h176v-369q196 0 309 -110t113 -301v-299q0 -194 -113 -305t-309 -111v-369zM532 160v807q-114 0 -177.5 -66.5t-63.5 -185.5v-299q0 -120 63.5 -188t177.5 -68zM696 967v-807q114 0 178 68
t64 188v299q0 119 -64 185.5t-178 66.5z" />
    <glyph glyph-name="uni03D6" unicode="&#x3d6;" 
d="M29 1126h1171v-182h-233q74 -35 113.5 -104.5t39.5 -165.5v-361q0 -155 -70 -244t-192 -89q-101 0 -165 59t-79 164q-15 -105 -79 -164t-166 -59q-120 0 -190 89t-70 244v361q0 96 39.5 165.5t113.5 104.5h-233v182zM936 307v475q0 78 -31 120t-88 42h-405q-57 0 -88 -42
t-31 -120v-475q0 -77 31 -119.5t88 -42.5q58 0 90.5 42.5t32.5 119.5v393h159v-393q0 -77 32.5 -119.5t90.5 -42.5q57 0 88 42.5t31 119.5z" />
    <glyph glyph-name="uni03D7" unicode="&#x3d7;" 
d="M1049 1126v-972h88v-158q0 -177 -97.5 -271t-283.5 -94h-72v176h70q87 0 139.5 52t52.5 141h-88v600q0 144 25 354l-447 -954h-256v1126h191v-598q0 -145 -25 -360l447 958h256z" />
    <glyph glyph-name="uni0401" unicode="&#x401;" 
d="M424 1669q-62 0 -98.5 36t-36.5 97q0 63 36.5 100t98.5 37q63 0 100 -37t37 -100q0 -61 -37 -97t-100 -36zM887 1669q-63 0 -100 36t-37 97q0 63 37 100t100 37q62 0 98.5 -37t36.5 -100q0 -61 -36.5 -97t-98.5 -36zM1069 0h-870v1495h870v-182h-670v-445h598v-176h-598
v-510h670v-182z" />
    <glyph glyph-name="uni0402" unicode="&#x402;" 
d="M678 -369h-137v187h139q104 0 164.5 59t60.5 162v563q0 118 -44 179t-126 61q-111 0 -223 -121l-86 -92v-629h-203v1315h-223v180h668v-180h-242v-496l31 33q152 162 325 162q148 0 237 -102.5t89 -272.5v-604q0 -183 -118 -293.5t-312 -110.5z" />
    <glyph glyph-name="uni0403" unicode="&#x403;" 
d="M733 1659h-205l215 287h220zM465 0h-203v1495h877v-184h-674v-1311z" />
    <glyph glyph-name="uni0404" unicode="&#x404;" 
d="M623 -20q-207 0 -327 116t-120 318v669q0 201 120 317t327 116q204 0 324 -117.5t120 -315.5h-203q0 122 -63 188t-178 66q-117 0 -180.5 -66t-63.5 -188v-237h455v-184h-455v-248q0 -123 63.5 -188.5t180.5 -65.5q116 0 178.5 65.5t62.5 188.5h203q0 -199 -120 -316.5
t-324 -117.5z" />
    <glyph glyph-name="uni0405" unicode="&#x405;" 
d="M621 -20q-220 0 -351 112.5t-131 302.5h203q0 -106 77 -170.5t204 -64.5q123 0 194.5 63.5t71.5 171.5q0 85 -45 149t-123 87l-211 63q-157 47 -244.5 157t-87.5 261q0 184 121.5 294t325.5 110q202 0 323 -109.5t121 -292.5h-203q0 102 -65.5 162.5t-177.5 60.5
t-179 -60.5t-67 -160.5q0 -80 45.5 -137t128.5 -82l217 -68q150 -46 236 -161t86 -271q0 -190 -127.5 -303.5t-341.5 -113.5z" />
    <glyph glyph-name="uni0406" unicode="&#x406;" 
d="M1022 0h-815v184h305v1127h-305v184h815v-184h-305v-1127h305v-184z" />
    <glyph glyph-name="uni0407" unicode="&#x407;" 
d="M383 1669q-62 0 -98.5 36t-36.5 97q0 63 36.5 100t98.5 37q63 0 100 -37t37 -100q0 -61 -37 -97t-100 -36zM846 1669q-63 0 -100 36t-37 97q0 63 37 100t100 37q62 0 98.5 -37t36.5 -100q0 -61 -36.5 -97t-98.5 -36zM1022 0h-815v184h305v1127h-305v184h815v-184h-305
v-1127h305v-184z" />
    <glyph glyph-name="uni0408" unicode="&#x408;" 
d="M553 -20q-218 0 -343.5 121.5t-125.5 332.5h203q0 -130 70 -202t196 -72q125 0 195.5 71.5t70.5 200.5v879h-420v184h623v-1063q0 -209 -126 -330.5t-343 -121.5z" />
    <glyph glyph-name="uni0409" unicode="&#x409;" 
d="M25 -10h-37v174h39q52 0 82 63t32 174l11 1094h596v-610h106q152 0 245 -89t93 -237v-231q0 -149 -92.5 -238.5t-245.5 -89.5h-283v1331h-245l-11 -930q-1 -190 -79.5 -300.5t-210.5 -110.5zM748 721v-557h106q72 0 117 45.5t45 118.5v229q0 75 -45 119.5t-117 44.5h-106
z" />
    <glyph glyph-name="uni040A" unicode="&#x40a;" 
d="M281 0h-177v1495h177v-606h290v606h177v-606h106q155 0 246.5 -88.5t91.5 -239.5v-233q0 -151 -91.5 -239.5t-246.5 -88.5h-283v725h-290v-725zM748 725v-561h106q75 0 118.5 44t43.5 120v233q0 76 -43.5 120t-118.5 44h-106z" />
    <glyph glyph-name="uni040B" unicode="&#x40b;" 
d="M426 0h-203v1315h-223v180h668v-180h-242v-496l31 33q152 162 325 162q148 0 237 -102.5t89 -272.5v-639h-203v602q0 118 -44 179t-126 61q-111 0 -223 -121l-86 -92v-629z" />
    <glyph glyph-name="uni040C" unicode="&#x40c;" 
d="M692 1659h-205l215 287h220zM383 0h-203v1495h203v-633h209l319 633h222l-363 -717l381 -778h-229l-334 684h-205v-684z" />
    <glyph glyph-name="uni040E" unicode="&#x40e;" 
d="M614 1647q-150 0 -242.5 82.5t-92.5 216.5h159q0 -76 48 -123t126 -47q80 0 129.5 47t49.5 123h159q0 -134 -92.5 -216.5t-243.5 -82.5zM598 0h-215l152 385l-441 1110h221l258 -713q42 -114 62 -223q16 116 53 223l227 713h220z" />
    <glyph glyph-name="uni040F" unicode="&#x40f;" 
d="M717 -256h-203v256h-330v1495h203v-1309h455v1309h202v-1495h-327v-256z" />
    <glyph glyph-name="uni0410" unicode="&#x410;" 
d="M301 0h-207l387 1495h269l385 -1495h-207l-94 389h-439zM545 1006l-111 -449h359l-109 447q-58 245 -70 325q-14 -93 -69 -323z" />
    <glyph glyph-name="uni0411" unicode="&#x411;" 
d="M627 0h-443v1495h848v-184h-647v-430h242q215 0 342 -120t127 -321q0 -200 -127 -320t-342 -120zM385 700v-520h242q121 0 190.5 70t69.5 190q0 122 -69.5 191t-190.5 69h-242z" />
    <glyph glyph-name="uni0412" unicode="&#x412;" 
d="M831 791q124 -32 194.5 -130.5t70.5 -242.5q0 -192 -122 -305t-331 -113h-461v1495h432q207 0 327 -103.5t120 -283.5q0 -122 -61 -204.5t-169 -112.5zM614 1317h-233v-453h231q114 0 180 61t66 165q0 106 -65 166.5t-179 60.5zM381 178h244q125 0 196.5 66.5t71.5 181.5
q0 120 -72.5 193t-195.5 73h-244v-514z" />
    <glyph glyph-name="uni0413" unicode="&#x413;" 
d="M465 0h-203v1495h877v-184h-674v-1311z" />
    <glyph glyph-name="uni0414" unicode="&#x414;" 
d="M233 -287h-182v459h86q41 73 75.5 196.5t35.5 254.5l14 872h776v-1323h140v-459h-183v287h-762v-287zM346 172h492v1145h-383l-11 -694q-1 -142 -31.5 -264.5t-66.5 -186.5z" />
    <glyph glyph-name="uni0415" unicode="&#x415;" 
d="M1069 0h-870v1495h870v-182h-670v-445h598v-176h-598v-510h670v-182z" />
    <glyph glyph-name="uni0416" unicode="&#x416;" 
d="M221 0h-196l258 768l-240 727h201l205 -666h83v666h164v-666h84l205 666h199l-236 -727l256 -768h-198l-222 700h-88v-700h-161l-3 700h-90z" />
    <glyph glyph-name="uni0417" unicode="&#x417;" 
d="M817 793q130 -28 203.5 -125t73.5 -244q0 -200 -137.5 -322t-362.5 -122q-217 0 -352 115t-138 302h203q3 -107 81.5 -172t203.5 -65q134 0 214.5 72t80.5 192t-81 193t-214 73h-189v176h189q120 0 192 64t72 170t-72.5 171.5t-191.5 65.5q-121 0 -194.5 -67.5
t-73.5 -177.5h-203q0 191 131.5 307.5t347.5 116.5q208 0 334.5 -109.5t126.5 -290.5q0 -127 -64.5 -212t-179.5 -111z" />
    <glyph glyph-name="uni0418" unicode="&#x418;" 
d="M438 0h-262v1495h191v-811q0 -233 -21 -451l445 1262h264v-1495h-193v807q0 204 23 455z" />
    <glyph glyph-name="uni0419" unicode="&#x419;" 
d="M614 1647q-150 0 -242.5 82.5t-92.5 216.5h159q0 -76 48 -123t126 -47q80 0 129.5 47t49.5 123h159q0 -134 -92.5 -216.5t-243.5 -82.5zM438 0h-262v1495h191v-811q0 -233 -21 -451l445 1262h264v-1495h-193v807q0 204 23 455z" />
    <glyph glyph-name="uni041A" unicode="&#x41a;" 
d="M383 0h-203v1495h203v-633h209l319 633h222l-363 -717l381 -778h-229l-334 684h-205v-684z" />
    <glyph glyph-name="uni041B" unicode="&#x41b;" 
d="M92 -10h-53v188h41q85 0 124 77.5t42 256.5l16 983h782v-1495h-202v1311h-381l-15 -799q-3 -266 -89.5 -394t-264.5 -128z" />
    <glyph glyph-name="uni041C" unicode="&#x41c;" 
d="M340 0h-195v1495h258l156 -481q23 -72 59 -226q20 107 58 228l149 479h258v-1495h-194v686q0 314 53 703l-233 -736h-189l-235 731q55 -381 55 -698v-686z" />
    <glyph glyph-name="uni041D" unicode="&#x41d;" 
d="M385 0h-203v1495h203v-629h459v629h203v-1495h-203v682h-459v-682z" />
    <glyph glyph-name="uni041E" unicode="&#x41e;" 
d="M614 -20q-205 0 -323.5 116t-118.5 318v669q0 201 119 317t323 116t323.5 -116t119.5 -317v-669q0 -202 -119 -318t-324 -116zM614 160q116 0 178 65.5t62 188.5v669q0 121 -62 186.5t-178 65.5q-115 0 -177 -65t-62 -187v-669q0 -123 61.5 -188.5t177.5 -65.5z" />
    <glyph glyph-name="uni041F" unicode="&#x41f;" 
d="M387 0h-203v1495h860v-1495h-202v1311h-455v-1311z" />
    <glyph glyph-name="uni0420" unicode="&#x420;" 
d="M383 0h-203v1495h486q214 0 340.5 -121t126.5 -325q0 -203 -127 -324t-340 -121h-283v-604zM383 1315v-531h283q118 0 188 72.5t70 192.5q0 122 -70 194t-188 72h-283z" />
    <glyph glyph-name="uni0421" unicode="&#x421;" 
d="M623 -20q-208 0 -329.5 116t-121.5 318v669q0 200 121.5 316.5t329.5 116.5q204 0 326 -117.5t122 -315.5h-203q0 121 -64.5 186.5t-180.5 65.5q-118 0 -183 -65.5t-65 -186.5v-669q0 -122 65 -188t183 -66q116 0 180.5 66t64.5 188h203q0 -199 -122 -316.5t-326 -117.5z
" />
    <glyph glyph-name="uni0422" unicode="&#x422;" 
d="M717 0h-203v1311h-405v184h1011v-184h-403v-1311z" />
    <glyph glyph-name="uni0423" unicode="&#x423;" 
d="M598 0h-215l152 385l-441 1110h221l258 -713q42 -114 62 -223q16 116 53 223l227 713h220z" />
    <glyph glyph-name="uni0424" unicode="&#x424;" 
d="M707 -51h-185v143q-189 0 -304.5 117.5t-115.5 312.5v473q0 198 115 318.5t305 120.5v143h185v-143q190 0 304.5 -120.5t114.5 -318.5v-473q0 -195 -115 -312.5t-304 -117.5v-143zM524 260v1006q-110 0 -172.5 -72.5t-62.5 -198.5v-473q0 -122 62.5 -192t172.5 -70z
M705 1266v-1006q110 0 172.5 70t62.5 192v473q0 126 -62.5 198.5t-172.5 72.5z" />
    <glyph glyph-name="uni0425" unicode="&#x425;" 
d="M299 0h-223l426 760l-404 735h232l221 -426l67 -135q12 30 66 135l223 426h223l-403 -725l426 -770h-229l-246 459q-51 100 -66 141q-36 -86 -67 -139z" />
    <glyph glyph-name="uni0426" unicode="&#x426;" 
d="M1161 -287h-182v287h-795v1495h203v-1315h418v1315h203v-1315h153v-467z" />
    <glyph glyph-name="uni0427" unicode="&#x427;" 
d="M1042 0h-202v584q-38 -12 -118.5 -21.5t-156.5 -9.5q-207 0 -313.5 95t-106.5 280v567h203v-563q0 -98 64.5 -148.5t189.5 -50.5q72 0 141 8.5t97 20.5v733h202v-1495z" />
    <glyph glyph-name="uni0428" unicode="&#x428;" 
d="M1106 0h-979l-4 1495h184v-1345h230v1345h157v-1345h230v1345h182v-1495z" />
    <glyph glyph-name="uni0429" unicode="&#x429;" 
d="M1182 -287h-181v287h-878v1495h176v-1331h227v1331h152v-1331h225v1331h176v-1331h103v-451z" />
    <glyph glyph-name="uni042A" unicode="&#x42a;" 
d="M670 0h-402v1315h-278v180h481v-610h199q207 0 335 -122t128 -321q0 -198 -128 -320t-335 -122zM471 702v-520h191q118 0 190 71.5t72 188.5q0 118 -71.5 189t-190.5 71h-191z" />
    <glyph glyph-name="uni042B" unicode="&#x42b;" 
d="M389 0h-264v1495h184v-610h80q186 0 292.5 -104.5t106.5 -284.5v-109q0 -181 -106.5 -284t-292.5 -103zM1104 0h-184v1495h184v-1495zM309 713v-541h80q101 0 157 57t56 160v107q0 103 -56 160t-157 57h-80z" />
    <glyph glyph-name="uni042C" unicode="&#x42c;" 
d="M670 0h-486v1495h203v-610h283q207 0 335 -122t128 -321q0 -198 -128 -320t-335 -122zM387 702v-520h275q118 0 190 71.5t72 188.5q0 118 -71.5 189t-190.5 71h-275z" />
    <glyph glyph-name="uni042D" unicode="&#x42d;" 
d="M606 -20q-204 0 -324 117.5t-120 316.5h203q0 -123 62.5 -188.5t178.5 -65.5q118 0 182 66t64 188v248h-455v184h455v237q0 121 -64.5 187.5t-181.5 66.5q-115 0 -178 -66t-63 -188h-203q0 198 120 315.5t324 117.5q207 0 328 -116t121 -317v-669q0 -202 -120.5 -318
t-328.5 -116z" />
    <glyph glyph-name="uni042E" unicode="&#x42e;" 
d="M797 -20q-155 0 -246.5 104.5t-91.5 282.5v315h-160v-682h-182v1495h182v-641h160v276q0 179 90.5 282.5t247.5 103.5q164 0 259 -103.5t95 -282.5v-763q0 -179 -95 -283t-259 -104zM797 150q83 0 127.5 54.5t44.5 157.5v771q0 103 -44.5 158t-127.5 55q-82 0 -125 -55
t-43 -158v-771q0 -103 43 -157.5t125 -54.5z" />
    <glyph glyph-name="uni042F" unicode="&#x42f;" 
d="M340 0h-231l303 649q-134 43 -210.5 152.5t-76.5 259.5q0 195 126 314.5t331 119.5h460v-1495h-200v625h-226zM582 803h260v514h-260q-112 0 -180 -70.5t-68 -187.5q0 -116 67.5 -186t180.5 -70z" />
    <glyph glyph-name="uni0430" unicode="&#x430;" 
d="M625 1147q197 0 312.5 -101t115.5 -274v-772h-199v209q-15 -107 -107 -168t-237 -61q-178 0 -279.5 90t-101.5 247q0 160 105 251t288 91h328v107q0 98 -60 152.5t-167 54.5q-95 0 -160.5 -42t-79.5 -110h-199q13 146 135.5 236t305.5 90zM565 137q125 0 205 62.5
t80 160.5v154h-324q-91 0 -142.5 -48.5t-51.5 -133.5q0 -92 61.5 -143.5t171.5 -51.5z" />
    <glyph glyph-name="uni0431" unicode="&#x431;" 
d="M682 1030q179 0 282 -115.5t103 -314.5v-178q0 -204 -121.5 -323t-327.5 -119t-327 119t-121 323v510q0 261 145 412t396 151h295v-199h-295q-157 0 -249.5 -98t-92.5 -266v-117h4q13 100 96.5 157.5t212.5 57.5zM864 422v178q0 121 -66 191.5t-180 70.5t-179.5 -70
t-65.5 -192v-178q0 -122 65.5 -192t179.5 -70t180 70.5t66 191.5z" />
    <glyph glyph-name="uni0432" unicode="&#x432;" 
d="M688 0h-508v1126h490q173 0 273.5 -77t100.5 -209q0 -103 -65.5 -166.5t-177.5 -67.5v-8q128 -3 205 -80t77 -201q0 -146 -106.5 -231.5t-288.5 -85.5zM379 956v-299h289q83 0 130.5 40t47.5 110t-47.5 109.5t-130.5 39.5h-289zM379 502v-332h305q94 0 146.5 44t52.5 122
t-52.5 122t-146.5 44h-305z" />
    <glyph glyph-name="uni0433" unicode="&#x433;" 
d="M465 0h-203v1126h817v-186h-614v-940z" />
    <glyph glyph-name="uni0434" unicode="&#x434;" 
d="M242 -287h-183v461h88q40 40 75 143.5t38 243.5l12 565h748v-952h141v-461h-182v287h-737v-287zM358 174h463v774h-358l-8 -391q-3 -143 -32.5 -245t-64.5 -138z" />
    <glyph glyph-name="uni0435" unicode="&#x435;" 
d="M1063 715v-201h-701v-100q0 -130 65 -198.5t187 -68.5q102 0 164.5 37t77.5 107h201q-22 -142 -142.5 -226.5t-300.5 -84.5q-203 0 -325.5 119t-122.5 315v301q0 195 123 313.5t325 118.5q204 0 326.5 -118.5t122.5 -313.5zM362 715v-56h504v56q0 129 -64.5 197.5
t-187.5 68.5q-122 0 -187 -68.5t-65 -197.5z" />
    <glyph glyph-name="uni0436" unicode="&#x436;" 
d="M227 0h-194l241 578l-225 548h191l192 -493h100v493h164v-493h97l200 493h187l-224 -542l240 -584h-195l-202 514h-103v-514h-164v514h-102z" />
    <glyph glyph-name="uni0437" unicode="&#x437;" 
d="M659 -14h-108q-175 0 -288.5 77.5t-135.5 212.5h211q9 -54 66 -84t147 -30h108q94 0 148.5 45.5t54.5 118.5q0 80 -52.5 126t-150.5 46h-270v170h256q88 0 135 40t47 111q0 146 -182 146h-94q-84 0 -139.5 -33t-65.5 -90h-211q20 139 132 219t284 80h94q185 0 289 -81
t104 -226q0 -104 -65 -165t-185 -67v-4q144 -9 215.5 -82t71.5 -201q0 -150 -113.5 -239.5t-302.5 -89.5z" />
    <glyph glyph-name="uni0438" unicode="&#x438;" 
d="M436 0h-256v1126h191v-598q0 -145 -25 -360l447 958h256v-1126h-191v600q0 144 25 354z" />
    <glyph glyph-name="uni0439" unicode="&#x439;" 
d="M614 1309q-150 0 -242.5 82.5t-92.5 216.5h159q0 -76 48 -123t126 -47q80 0 129.5 47t49.5 123h159q0 -134 -92.5 -216.5t-243.5 -82.5zM436 0h-256v1126h191v-598q0 -145 -25 -360l447 958h256v-1126h-191v600q0 144 25 354z" />
    <glyph glyph-name="uni043A" unicode="&#x43a;" 
d="M389 0h-203v1126h203v-458h207l315 458h230l-369 -538l375 -588h-236l-313 494h-209v-494z" />
    <glyph glyph-name="uni043B" unicode="&#x43b;" 
d="M102 -14h-53v188h41q88 0 125.5 69.5t40.5 241.5l12 641h781v-1126h-203v942h-379l-8 -467q-6 -256 -91.5 -372.5t-265.5 -116.5z" />
    <glyph glyph-name="uni043C" unicode="&#x43c;" 
d="M338 0h-193v1126h265l145 -430q24 -70 66 -227q14 81 61 229l137 428h264v-1126h-192v178q0 263 29 840l-203 -682h-199l-207 672q27 -614 27 -830v-178z" />
    <glyph glyph-name="uni043D" unicode="&#x43d;" 
d="M383 0h-203v1126h203v-456h463v456h203v-1126h-203v485h-463v-485z" />
    <glyph glyph-name="uni043E" unicode="&#x43e;" 
d="M614 -16q-207 0 -327.5 116t-120.5 316v295q0 200 120.5 316t327.5 116t328 -116t121 -314v-297q0 -199 -121 -315.5t-328 -116.5zM614 162q117 0 181.5 65.5t64.5 188.5v295q0 123 -64.5 188.5t-181.5 65.5t-181 -65.5t-64 -188.5v-295q0 -123 64 -188.5t181 -65.5z" />
    <glyph glyph-name="uni043F" unicode="&#x43f;" 
d="M383 0h-203v1126h869v-1126h-203v942h-463v-942z" />
    <glyph glyph-name="uni0440" unicode="&#x440;" 
d="M692 1147q170 0 271.5 -114t101.5 -308v-322q0 -195 -101.5 -309t-271.5 -114q-124 0 -205.5 62t-101.5 171h-4l4 -258v-324h-203v1495h201v-211h2q20 109 102 170.5t205 61.5zM862 414v301q0 122 -63 189t-176 67q-110 0 -174 -68.5t-64 -189.5v-299q0 -121 64 -189.5
t174 -68.5q113 0 176 67t63 191z" />
    <glyph glyph-name="uni0441" unicode="&#x441;" 
d="M623 -20q-209 0 -333 116.5t-124 317.5v301q0 200 124.5 316t332.5 116q200 0 320 -106t126 -287h-201q-6 101 -71 158t-174 57q-118 0 -186 -67t-68 -187v-301q0 -122 68 -188t186 -66q109 0 174 56t71 157h201q-6 -181 -126 -287t-320 -106z" />
    <glyph glyph-name="uni0442" unicode="&#x442;" 
d="M717 0h-203v946h-403v180h1009v-180h-403v-946z" />
    <glyph glyph-name="uni0443" unicode="&#x443;" 
d="M571 -369h-211l164 437l-432 1058h221l262 -665q34 -95 52 -178q22 99 53 178l244 665h213z" />
    <glyph glyph-name="uni0444" unicode="&#x444;" 
d="M702 -369h-176v369q-196 0 -309 111t-113 305v299q0 191 113 301t309 110v369h176v-369q196 0 309 -110t113 -301v-299q0 -194 -113 -305t-309 -111v-369zM532 160v807q-114 0 -177.5 -66.5t-63.5 -185.5v-299q0 -120 63.5 -188t177.5 -68zM696 967v-807q114 0 178 68
t64 188v299q0 119 -64 185.5t-178 66.5z" />
    <glyph glyph-name="uni0445" unicode="&#x445;" 
d="M330 0h-236l400 580l-373 546h235l211 -329q31 -53 49 -95q16 45 48 95l213 329h233l-373 -548l398 -578h-238l-229 354q-14 21 -52 101q-30 -62 -55 -101z" />
    <glyph glyph-name="uni0446" unicode="&#x446;" 
d="M1161 -287h-182v287h-799v1126h203v-944h422v944h203v-944h153v-469z" />
    <glyph glyph-name="uni0447" unicode="&#x447;" 
d="M1034 0h-203v395q-70 -16 -235 -16q-227 0 -335.5 88t-108.5 274v385h202v-383q0 -95 60 -137.5t194 -42.5q178 0 223 10v553h203v-1126z" />
    <glyph glyph-name="uni0448" unicode="&#x448;" 
d="M1112 0h-991l-4 1126h184v-962h236v962h157v-962h236v962h182v-1126z" />
    <glyph glyph-name="uni0449" unicode="&#x449;" 
d="M1182 -287h-181v287h-884v1126h176v-960h229v960h152v-960h229v960h176v-960h103v-453z" />
    <glyph glyph-name="uni044A" unicode="&#x44a;" 
d="M707 0h-426v944h-281v182h483v-401h224q193 0 304 -97t111 -266q0 -167 -111.5 -264.5t-303.5 -97.5zM483 541v-359h222q101 0 154.5 46t53.5 134t-53.5 133.5t-154.5 45.5h-222z" />
    <glyph glyph-name="uni044B" unicode="&#x44b;" 
d="M397 0h-272v1126h184v-405h88q183 0 289.5 -97t106.5 -264t-106.5 -263.5t-289.5 -96.5zM1104 0h-184v1126h184v-1126zM309 561v-401h88q103 0 161 52.5t58 147.5q0 94 -58 147.5t-161 53.5h-88z" />
    <glyph glyph-name="uni044C" unicode="&#x44c;" 
d="M707 0h-514v1126h202v-401h312q193 0 304 -97t111 -266q0 -167 -111.5 -264.5t-303.5 -97.5zM395 541v-359h310q101 0 154.5 46t53.5 134t-53.5 133.5t-154.5 45.5h-310z" />
    <glyph glyph-name="uni044D" unicode="&#x44d;" 
d="M610 -20q-199 0 -319.5 105t-128.5 282h205q4 -97 69 -152t174 -55q118 0 185 66t67 186v73h-366v174h366v56q0 121 -67 187.5t-185 66.5q-108 0 -173 -55.5t-70 -151.5h-205q8 176 128.5 280.5t319.5 104.5q208 0 331.5 -116t123.5 -316v-301q0 -201 -123.5 -317.5
t-331.5 -116.5z" />
    <glyph glyph-name="uni044E" unicode="&#x44e;" 
d="M809 -20q-149 0 -234.5 93.5t-85.5 252.5v168h-192v-494h-182v1126h182v-477h192v152q0 159 85.5 252.5t234.5 93.5q156 0 249 -94t93 -252v-475q0 -158 -93 -252t-249 -94zM809 135q73 0 116.5 52t43.5 139v475q0 86 -43.5 138t-116.5 52q-70 0 -112 -52t-42 -138v-475
q0 -87 42 -139t112 -52z" />
    <glyph glyph-name="uni044F" unicode="&#x44f;" 
d="M362 0h-233l279 428q-121 31 -191 122t-70 216q0 166 112.5 263t305.5 97h484v-1126h-203v414h-232zM567 584h279v368h-279q-99 0 -157 -50t-58 -136q0 -84 58 -133t157 -49z" />
    <glyph glyph-name="uni0451" unicode="&#x451;" 
d="M383 1325q-62 0 -98.5 36t-36.5 97q0 64 36.5 100.5t98.5 36.5q63 0 100 -36.5t37 -100.5q0 -61 -37 -97t-100 -36zM846 1325q-63 0 -100 36t-37 97q0 64 37 100.5t100 36.5q62 0 98.5 -36.5t36.5 -100.5q0 -61 -36.5 -97t-98.5 -36zM1063 715v-201h-701v-100
q0 -130 65 -198.5t187 -68.5q102 0 164.5 37t77.5 107h201q-22 -142 -142.5 -226.5t-300.5 -84.5q-203 0 -325.5 119t-122.5 315v301q0 195 123 313.5t325 118.5q204 0 326.5 -118.5t122.5 -313.5zM362 715v-56h504v56q0 129 -64.5 197.5t-187.5 68.5q-122 0 -187 -68.5
t-65 -197.5z" />
    <glyph glyph-name="uni0452" unicode="&#x452;" 
d="M684 1024q168 0 266.5 -106t98.5 -287v-565q0 -199 -123 -317t-330 -118h-84v189h80q122 0 188 64t66 184v540q0 115 -59.5 179.5t-165.5 64.5q-110 0 -172 -68.5t-62 -191.5v-592h-203v1163h-184v158h184v174h203v-174h334v-158h-334v-159l-2 -216h2q14 113 91 174.5
t206 61.5z" />
    <glyph glyph-name="uni0453" unicode="&#x453;" 
d="M754 1321h-205l215 287h219zM465 0h-203v1126h817v-186h-614v-940z" />
    <glyph glyph-name="uni0454" unicode="&#x454;" 
d="M618 -20q-208 0 -331 116.5t-123 317.5v301q0 200 123 316t331 116q199 0 320 -105t129 -280h-203q-6 96 -72 151.5t-174 55.5q-118 0 -184.5 -66.5t-66.5 -187.5v-56h366v-174h-366v-73q0 -121 66.5 -186.5t184.5 -65.5q109 0 174.5 55t71.5 152h203q-8 -177 -129 -282
t-320 -105z" />
    <glyph glyph-name="uni0455" unicode="&#x455;" 
d="M664 -16h-86q-181 0 -293.5 83t-112.5 222h207q0 -62 56 -96.5t147 -34.5h86q103 0 156 40.5t53 112.5q0 133 -189 164l-153 23q-171 28 -253.5 107.5t-82.5 217.5q0 155 102 237.5t293 82.5h78q177 0 283 -78t106 -209h-207q0 52 -50 82.5t-136 30.5h-78
q-94 0 -143.5 -37.5t-49.5 -108.5q0 -118 168 -145l154 -25q184 -28 270 -107.5t86 -226.5q0 -160 -104.5 -247.5t-306.5 -87.5z" />
    <glyph glyph-name="uni0456" unicode="&#x456;" horiz-adv-x="1024" 
d="M539 1325q-70 0 -111 35.5t-41 97.5q0 64 40.5 100.5t111.5 36.5t111 -36.5t40 -100.5q0 -62 -40.5 -97.5t-110.5 -35.5zM938 0h-774v184h297v758h-254v184h457v-942h274v-184z" />
    <glyph glyph-name="uni0457" unicode="&#x457;" 
d="M309 1325q-63 0 -100 36t-37 97q0 64 37 100.5t100 36.5q62 0 98.5 -36.5t36.5 -100.5q0 -61 -36.5 -97t-98.5 -36zM770 1325q-62 0 -98.5 36t-36.5 97q0 64 36.5 100.5t98.5 36.5q63 0 99 -36.5t36 -100.5q0 -62 -36 -97.5t-99 -35.5zM938 0h-774v184h297v758h-254v184
h457v-942h274v-184z" />
    <glyph glyph-name="uni0458" unicode="&#x458;" horiz-adv-x="819" 
d="M500 1325q-70 0 -111 35.5t-41 97.5q0 64 40.5 100.5t111.5 36.5t111 -36.5t40 -100.5q0 -62 -40.5 -97.5t-110.5 -35.5zM186 -369h-141v187h137q120 0 187 65t67 185v874h-334v184h537v-1060q0 -199 -123 -317t-330 -118z" />
    <glyph glyph-name="uni0459" unicode="&#x459;" 
d="M43 -10h-37v184h39q51 0 82.5 61.5t32.5 165.5l8 725h575v-401h115q149 0 240.5 -87t91.5 -230v-95q0 -140 -91 -226.5t-239 -86.5h-291v958h-225l-6 -559q-2 -188 -81 -298.5t-214 -110.5zM743 561v-399h115q69 0 111.5 42t42.5 111v93q0 69 -42.5 111t-111.5 42h-115z
" />
    <glyph glyph-name="uni045A" unicode="&#x45a;" 
d="M303 0h-182v1126h182v-403h277v403h161v-403h117q149 0 240.5 -87.5t91.5 -232.5v-88q0 -141 -91 -228t-239 -87h-280v559h-277v-559zM741 559v-395h117q69 0 109.5 41.5t40.5 109.5v91q0 69 -40.5 111t-109.5 42h-117z" />
    <glyph glyph-name="uni045B" unicode="&#x45b;" 
d="M180 1163h-180v158h180v174h203v-174h338v-158h-338v-159l-2 -216h4q13 112 91.5 174t207.5 62q168 0 268.5 -106t100.5 -287v-631h-203v608q0 115 -61.5 179.5t-167.5 64.5q-111 0 -174.5 -69t-63.5 -191v-592h-203v1163z" />
    <glyph glyph-name="uni045C" unicode="&#x45c;" 
d="M692 1321h-205l215 287h220zM389 0h-203v1126h203v-458h207l315 458h230l-369 -538l375 -588h-236l-313 494h-209v-494z" />
    <glyph glyph-name="uni045E" unicode="&#x45e;" 
d="M614 1309q-150 0 -242.5 82.5t-92.5 216.5h159q0 -76 48 -123t126 -47q80 0 129.5 47t49.5 123h159q0 -134 -92.5 -216.5t-243.5 -82.5zM571 -369h-211l164 437l-432 1058h221l262 -665q34 -95 52 -178q22 99 53 178l244 665h213z" />
    <glyph glyph-name="uni045F" unicode="&#x45f;" 
d="M717 -256h-203v256h-334v1126h203v-940h463v940h203v-1126h-332v-256z" />
    <glyph glyph-name="uni0490" unicode="&#x490;" 
d="M465 0h-203v1495h684v195h193v-381h-674v-1309z" />
    <glyph glyph-name="uni0491" unicode="&#x491;" 
d="M465 0h-203v1126h625v215h192v-401h-614v-940z" />
    <glyph glyph-name="uni0492" unicode="&#x492;" 
d="M1139 1495v-184h-674v-471h317v-178h-317v-662h-203v662h-201v178h201v655h877z" />
    <glyph glyph-name="uni0493" unicode="&#x493;" 
d="M1110 1126v-186h-614v-305h358v-158h-358v-477h-203v477h-182v158h182v491h817z" />
    <glyph glyph-name="uni049A" unicode="&#x49a;" 
d="M748 778l290 -596h164v-469h-180v287h-125l-334 684h-205v-684h-202v1495h202v-633h211l320 633h219z" />
    <glyph glyph-name="uni049B" unicode="&#x49b;" 
d="M754 588l258 -406h162v-469h-179v287h-102l-313 494h-197v-494h-203v1126h203v-458h195l313 458h231z" />
    <glyph glyph-name="uni04A2" unicode="&#x4a2;" 
d="M1036 1495v-1313h103v-469h-178v287h-127v682h-459v-682h-203v1495h203v-629h459v629h202z" />
    <glyph glyph-name="uni04A3" unicode="&#x4a3;" 
d="M1036 1126v-944h103v-469h-181v287h-124v481h-455v-481h-203v1126h203v-460h455v460h202z" />
    <glyph glyph-name="uni04AE" unicode="&#x4ae;" 
d="M717 0h-203v555l-448 940h210l281 -590q47 -102 59 -157q19 65 64 157l274 590h209l-446 -940v-555z" />
    <glyph glyph-name="uni04AF" unicode="&#x4af;" 
d="M717 -369h-203v369l-401 1126h213l245 -731q11 -31 20 -65.5t13.5 -57l10.5 -52.5l8 -40q1 5 6 39t9 54t12.5 55.5t19.5 66.5l239 731h207l-399 -1126v-369z" />
    <glyph glyph-name="uni04B0" unicode="&#x4b0;" 
d="M954 1495h209l-446 -940h258v-158h-258v-397h-203v397h-260v158h260l-448 940h210l281 -590q47 -102 59 -157q19 65 64 157z" />
    <glyph glyph-name="uni04B1" unicode="&#x4b1;" 
d="M909 1126h207l-399 -1126h258v-158h-258v-211h-203v211h-260v158h260l-401 1126h213l245 -731q11 -31 20 -65.5t13.5 -57l10.5 -52.5l8 -40q1 5 6 39t9 54t12.5 55.5t19.5 66.5z" />
    <glyph glyph-name="uni04B6" unicode="&#x4b6;" 
d="M1022 1495v-1313h98v-469h-180v287h-121v584q-38 -12 -118 -21.5t-156 -9.5q-207 0 -313.5 95t-106.5 280v567h203v-563q0 -98 64.5 -148.5t189.5 -50.5q72 0 140.5 8.5t96.5 20.5v733h203z" />
    <glyph glyph-name="uni04B7" unicode="&#x4b7;" 
d="M1022 1126v-944h98v-469h-180v287h-121v395q-70 -16 -235 -16q-226 0 -335.5 88.5t-109.5 273.5v385h203v-383q0 -95 60.5 -137.5t193.5 -42.5q178 0 223 10v553h203z" />
    <glyph glyph-name="uni04BA" unicode="&#x4ba;" 
d="M186 1495h203v-582q39 11 119.5 20t155.5 9q207 0 313 -95t106 -280v-567h-202v563q0 98 -64.5 148.5t-189.5 50.5q-72 0 -141 -8.5t-97 -20.5v-733h-203v1495z" />
    <glyph glyph-name="uni04BB" unicode="&#x4bb;" 
d="M197 1126h202v-395q70 17 234 17q227 0 335.5 -88t108.5 -273v-387h-203v383q0 95 -60 138.5t-193 43.5q-172 0 -222 -12v-553h-202v1126z" />
    <glyph glyph-name="uni04D8" unicode="&#x4d8;" 
d="M608 -20q-205 0 -325.5 117t-120.5 317v432h690v237q0 117 -66 185.5t-178 68.5q-114 0 -178.5 -68t-64.5 -186h-203q0 198 120.5 315.5t325.5 117.5q204 0 325.5 -117.5t121.5 -315.5v-669q0 -199 -121.5 -316.5t-325.5 -117.5zM608 160q113 0 178.5 68t65.5 186v248
h-487v-248q0 -119 64.5 -186.5t178.5 -67.5z" />
    <glyph glyph-name="uni04D9" unicode="&#x4d9;" 
d="M614 1147q203 0 326 -118.5t123 -313.5v-301q0 -196 -123 -315t-326 -119q-204 0 -326 118.5t-122 315.5v198h700v103q0 129 -65 196.5t-187 67.5q-102 0 -164 -36t-77 -105h-201q22 141 142 225t300 84zM866 414v53h-501v-55q0 -130 63.5 -198.5t185.5 -68.5t187 69.5
t65 199.5z" />
    <glyph glyph-name="uni04E8" unicode="&#x4e8;" 
d="M614 -20q-205 0 -321.5 116.5t-116.5 319.5v665q0 203 116.5 319t321.5 116t323 -116t118 -319v-665q0 -200 -119 -318t-322 -118zM373 1079v-225h483v225q0 125 -62 191.5t-180 66.5t-179.5 -66.5t-61.5 -191.5zM614 158q117 0 179.5 67.5t62.5 192.5v258h-483v-258
q0 -125 62 -192.5t179 -67.5z" />
    <glyph glyph-name="uni04E9" unicode="&#x4e9;" 
d="M614 -20q-201 0 -319.5 117.5t-118.5 316.5v301q0 199 118.5 315.5t319.5 116.5q200 0 320.5 -118t120.5 -314v-301q0 -198 -120 -316t-321 -118zM371 715v-66h487v66q0 123 -63.5 189.5t-180.5 66.5t-180 -66.5t-63 -189.5zM614 156q117 0 180.5 67t63.5 191v75h-487
v-75q0 -124 63 -191t180 -67z" />
    <glyph glyph-name="uni0AEA" unicode="&#xaea;" 
d="M1079 1331l-348 -405l191 -224q149 -176 149 -335q0 -167 -125.5 -277t-331.5 -110t-331 110t-125 277q0 87 39.5 168.5t115.5 171.5l187 215l-350 409h233l233 -272l236 272h227zM614 160q115 0 184.5 65t69.5 162q0 105 -92 211l-162 190l-163 -190q-91 -101 -91 -211
q0 -97 69.5 -162t184.5 -65z" />
    <glyph glyph-name="Wgrave" unicode="&#x1e80;" 
d="M750 1659h-211l-238 287h225zM459 0h-246l-166 1495h186l109 -1089q14 -201 16 -263q16 170 27 263l135 1089h197l125 -1089q16 -140 28 -263q7 117 21 263l110 1089h181l-172 -1495h-244l-123 1106q-19 174 -25 252q-2 -21 -11 -111t-15 -141z" />
    <glyph glyph-name="wgrave" unicode="&#x1e81;" 
d="M750 1321h-211l-238 287h225zM461 0h-219l-179 1126h173l108 -770q15 -121 21 -202h8q8 104 26 202l119 770h193l118 -770q20 -114 27 -202h8l25 202l112 770h164l-186 -1126h-217l-117 758q-4 28 -11 74.5t-11.5 81.5t-6.5 57h-8q-8 -100 -26 -213z" />
    <glyph glyph-name="Wacute" unicode="&#x1e82;" 
d="M692 1659h-205l215 287h220zM459 0h-246l-166 1495h186l109 -1089q14 -201 16 -263q16 170 27 263l135 1089h197l125 -1089q16 -140 28 -263q7 117 21 263l110 1089h181l-172 -1495h-244l-123 1106q-19 174 -25 252q-2 -21 -11 -111t-15 -141z" />
    <glyph glyph-name="wacute" unicode="&#x1e83;" 
d="M692 1321h-205l215 287h220zM461 0h-219l-179 1126h173l108 -770q15 -121 21 -202h8q8 104 26 202l119 770h193l118 -770q20 -114 27 -202h8l25 202l112 770h164l-186 -1126h-217l-117 758q-4 28 -11 74.5t-11.5 81.5t-6.5 57h-8q-8 -100 -26 -213z" />
    <glyph glyph-name="Wdieresis" unicode="&#x1e84;" 
d="M383 1669q-62 0 -98.5 36t-36.5 97q0 63 36.5 100t98.5 37q63 0 100 -37t37 -100q0 -61 -37 -97t-100 -36zM846 1669q-63 0 -100 36t-37 97q0 63 37 100t100 37q62 0 98.5 -37t36.5 -100q0 -61 -36.5 -97t-98.5 -36zM459 0h-246l-166 1495h186l109 -1089q14 -201 16 -263
q16 170 27 263l135 1089h197l125 -1089q16 -140 28 -263q7 117 21 263l110 1089h181l-172 -1495h-244l-123 1106q-19 174 -25 252q-2 -21 -11 -111t-15 -141z" />
    <glyph glyph-name="wdieresis" unicode="&#x1e85;" 
d="M383 1325q-62 0 -98.5 36t-36.5 97q0 64 36.5 100.5t98.5 36.5q63 0 100 -36.5t37 -100.5q0 -61 -37 -97t-100 -36zM846 1325q-63 0 -100 36t-37 97q0 64 37 100.5t100 36.5q62 0 98.5 -36.5t36.5 -100.5q0 -61 -36.5 -97t-98.5 -36zM461 0h-219l-179 1126h173l108 -770
q15 -121 21 -202h8q8 104 26 202l119 770h193l118 -770q20 -114 27 -202h8l25 202l112 770h164l-186 -1126h-217l-117 758q-4 28 -11 74.5t-11.5 81.5t-6.5 57h-8q-8 -100 -26 -213z" />
    <glyph glyph-name="uni1E9E" unicode="&#x1e9e;" 
d="M1090 1298l-332 -434q162 -12 258 -126.5t96 -297.5q0 -198 -124 -319t-326 -121h-134v180h115q118 0 187 71t69 193q0 118 -68.5 187t-187.5 69h-94v170l334 445h-267q-110 0 -174.5 -66t-64.5 -180v-1069h-199v1069q0 192 120.5 309t317.5 117h474v-197z" />
    <glyph glyph-name="uni1EA0" unicode="&#x1ea0;" 
d="M301 0h-207l387 1495h269l385 -1495h-207l-94 389h-439zM545 1006l-111 -449h359l-109 447q-58 245 -70 325q-14 -93 -69 -323zM614 -442q-70 0 -110.5 35.5t-40.5 97.5q0 63 40.5 100t110.5 37t111 -37t41 -100q0 -62 -41 -97.5t-111 -35.5z" />
    <glyph glyph-name="uni1EA1" unicode="&#x1ea1;" 
d="M625 1147q197 0 312.5 -101t115.5 -274v-772h-199v209q-15 -107 -107 -168t-237 -61q-178 0 -279.5 90t-101.5 247q0 160 105 251t288 91h328v107q0 98 -60 152.5t-167 54.5q-95 0 -160.5 -42t-79.5 -110h-199q13 146 135.5 236t305.5 90zM565 137q125 0 205 62.5
t80 160.5v154h-324q-91 0 -142.5 -48.5t-51.5 -133.5q0 -92 61.5 -143.5t171.5 -51.5zM625 -172q70 0 110.5 -37t40.5 -100q0 -62 -40.5 -97.5t-110.5 -35.5t-111 35.5t-41 97.5q0 63 41 100t111 37z" />
    <glyph glyph-name="uni1EA2" unicode="&#x1ea2;" 
d="M707 1636h-183l92 129q31 36 31 64q0 41 -65 41h-154v139h170q97 0 156 -43.5t59 -114.5q0 -60 -35 -110zM301 0h-207l387 1495h269l385 -1495h-207l-94 389h-439zM545 1006l-111 -449h359l-109 447q-58 245 -70 325q-14 -93 -69 -323z" />
    <glyph glyph-name="uni1EA3" unicode="&#x1ea3;" 
d="M666 1513q0 39 -64 39h-164v140h215q80 0 130.5 -42t50.5 -112q0 -65 -37 -115l-80 -102h-182l102 127q29 40 29 65zM625 1147q197 0 312.5 -101t115.5 -274v-772h-199v209q-15 -107 -107 -168t-237 -61q-178 0 -279.5 90t-101.5 247q0 160 105 251t288 91h328v107
q0 98 -60 152.5t-167 54.5q-95 0 -160.5 -42t-79.5 -110h-199q13 146 135.5 236t305.5 90zM565 137q125 0 205 62.5t80 160.5v154h-324q-91 0 -142.5 -48.5t-51.5 -133.5q0 -92 61.5 -143.5t171.5 -51.5z" />
    <glyph glyph-name="uni1EA4" unicode="&#x1ea4;" 
d="M1051 1845h-211l215 244h221zM453 1597h-215l282 287h189l284 -287h-219l-160 158zM301 0h-207l387 1495h269l385 -1495h-207l-94 389h-439zM545 1006l-111 -449h359l-109 447q-58 245 -70 325q-14 -93 -69 -323z" />
    <glyph glyph-name="uni1EA5" unicode="&#x1ea5;" 
d="M854 1556l236 287h219l-248 -287h-207zM784 1321l-159 158l-162 -158h-215l282 287h189l285 -287h-220zM625 1147q197 0 312.5 -101t115.5 -274v-772h-199v209q-15 -107 -107 -168t-237 -61q-178 0 -279.5 90t-101.5 247q0 160 105 251t288 91h328v107q0 98 -60 152.5
t-167 54.5q-95 0 -160.5 -42t-79.5 -110h-199q13 146 135.5 236t305.5 90zM565 137q125 0 205 62.5t80 160.5v154h-324q-91 0 -142.5 -48.5t-51.5 -133.5q0 -92 61.5 -143.5t171.5 -51.5z" />
    <glyph glyph-name="uni1EA6" unicode="&#x1ea6;" 
d="M1122 1845h-207l-245 244h219zM453 1597h-215l282 287h189l284 -287h-219l-160 158zM301 0h-207l387 1495h269l385 -1495h-207l-94 389h-439zM545 1006l-111 -449h359l-109 447q-58 245 -70 325q-14 -93 -69 -323z" />
    <glyph glyph-name="uni1EA7" unicode="&#x1ea7;" 
d="M893 1843l254 -287h-207l-266 287h219zM784 1321l-159 158l-162 -158h-215l282 287h189l285 -287h-220zM625 1147q197 0 312.5 -101t115.5 -274v-772h-199v209q-15 -107 -107 -168t-237 -61q-178 0 -279.5 90t-101.5 247q0 160 105 251t288 91h328v107q0 98 -60 152.5
t-167 54.5q-95 0 -160.5 -42t-79.5 -110h-199q13 146 135.5 236t305.5 90zM565 137q125 0 205 62.5t80 160.5v154h-324q-91 0 -142.5 -48.5t-51.5 -133.5q0 -92 61.5 -143.5t171.5 -51.5z" />
    <glyph glyph-name="uni1EA8" unicode="&#x1ea8;" 
d="M1036 1800h-170l95 92q16 16 16 39q0 14 -9 23.5t-24 9.5h-137v125h178q70 0 112 -36.5t42 -96.5q0 -62 -35 -92zM453 1597h-215l282 287h189l284 -287h-219l-160 158zM301 0h-207l387 1495h269l385 -1495h-207l-94 389h-439zM545 1006l-111 -449h359l-109 447
q-58 245 -70 325q-14 -93 -69 -323z" />
    <glyph glyph-name="uni1EA9" unicode="&#x1ea9;" 
d="M815 1911h127q95 0 151 -43t56 -115q0 -48 -37 -96l-72 -101h-163l94 125q20 30 20 50q0 49 -65 49h-111v131zM784 1321l-159 158l-162 -158h-215l282 287h189l285 -287h-220zM625 1147q197 0 312.5 -101t115.5 -274v-772h-199v209q-15 -107 -107 -168t-237 -61
q-178 0 -279.5 90t-101.5 247q0 160 105 251t288 91h328v107q0 98 -60 152.5t-167 54.5q-95 0 -160.5 -42t-79.5 -110h-199q13 146 135.5 236t305.5 90zM565 137q125 0 205 62.5t80 160.5v154h-324q-91 0 -142.5 -48.5t-51.5 -133.5q0 -92 61.5 -143.5t171.5 -51.5z" />
    <glyph glyph-name="uni1EAA" unicode="&#x1eaa;" 
d="M772 1882q-57 0 -105 14.5t-75 31.5t-59.5 31.5t-61.5 14.5q-28 0 -43.5 -16.5t-15.5 -44.5v-12h-140v12q0 82 50.5 129t136.5 47q58 0 106 -14.5t74.5 -31.5t58 -31.5t60.5 -14.5q27 0 43 16t16 43v15h139v-15q0 -80 -49 -127t-135 -47zM453 1597h-215l231 224h291
l231 -224h-217l-160 150zM301 0h-207l387 1495h269l385 -1495h-207l-94 389h-439zM545 1006l-111 -449h359l-109 447q-58 245 -70 325q-14 -93 -69 -323z" />
    <glyph glyph-name="uni1EAB" unicode="&#x1eab;" 
d="M430 1733v-50h-139v41q0 86 54 137.5t142 51.5q48 0 85.5 -13t60 -31.5t41 -37.5t39.5 -32t45 -13q61 0 61 61v51h139v-43q0 -85 -54 -136.5t-142 -51.5q-48 0 -85.5 13.5t-59.5 32.5t-40.5 37.5t-39.5 32t-45 13.5q-62 0 -62 -63zM784 1321l-159 158l-162 -158h-215
l282 287h189l285 -287h-220zM625 1147q197 0 312.5 -101t115.5 -274v-772h-199v209q-15 -107 -107 -168t-237 -61q-178 0 -279.5 90t-101.5 247q0 160 105 251t288 91h328v107q0 98 -60 152.5t-167 54.5q-95 0 -160.5 -42t-79.5 -110h-199q13 146 135.5 236t305.5 90z
M565 137q125 0 205 62.5t80 160.5v154h-324q-91 0 -142.5 -48.5t-51.5 -133.5q0 -92 61.5 -143.5t171.5 -51.5z" />
    <glyph glyph-name="uni1EAC" unicode="&#x1eac;" 
d="M455 1659h-219l284 287h187l286 -287h-215l-164 158zM301 0h-207l387 1495h269l385 -1495h-207l-94 389h-439zM545 1006l-111 -449h359l-109 447q-58 245 -70 325q-14 -93 -69 -323zM614 -442q-70 0 -110.5 35.5t-40.5 97.5q0 63 40.5 100t110.5 37t111 -37t41 -100
q0 -62 -41 -97.5t-111 -35.5z" />
    <glyph glyph-name="uni1EAD" unicode="&#x1ead;" 
d="M788 1321l-163 158l-160 -158h-219l284 287h187l287 -287h-216zM625 1147q197 0 312.5 -101t115.5 -274v-772h-199v209q-15 -107 -107 -168t-237 -61q-178 0 -279.5 90t-101.5 247q0 160 105 251t288 91h328v107q0 98 -60 152.5t-167 54.5q-95 0 -160.5 -42t-79.5 -110
h-199q13 146 135.5 236t305.5 90zM565 137q125 0 205 62.5t80 160.5v154h-324q-91 0 -142.5 -48.5t-51.5 -133.5q0 -92 61.5 -143.5t171.5 -51.5zM625 -172q70 0 110.5 -37t40.5 -100q0 -62 -40.5 -97.5t-110.5 -35.5t-111 35.5t-41 97.5q0 63 41 100t111 37z" />
    <glyph glyph-name="uni1EAE" unicode="&#x1eae;" 
d="M678 1845h-195l215 244h207zM668 1597h-109q-135 0 -214 72.5t-79 196.5h150q0 -65 38.5 -102.5t104.5 -37.5h109q67 0 106 37.5t39 102.5h150q0 -124 -80 -196.5t-215 -72.5zM301 0h-207l387 1495h269l385 -1495h-207l-94 389h-439zM545 1006l-111 -449h359l-109 447
q-58 245 -70 325q-14 -93 -69 -323z" />
    <glyph glyph-name="uni1EAF" unicode="&#x1eaf;" 
d="M731 1835h207l-248 -268h-194zM625 1311q-158 0 -255.5 74.5t-97.5 195.5h156q0 -63 53.5 -100t143.5 -37q89 0 142.5 37t53.5 100h156q0 -121 -97 -195.5t-255 -74.5zM625 1147q197 0 312.5 -101t115.5 -274v-772h-199v209q-15 -107 -107 -168t-237 -61
q-178 0 -279.5 90t-101.5 247q0 160 105 251t288 91h328v107q0 98 -60 152.5t-167 54.5q-95 0 -160.5 -42t-79.5 -110h-199q13 146 135.5 236t305.5 90zM565 137q125 0 205 62.5t80 160.5v154h-324q-91 0 -142.5 -48.5t-51.5 -133.5q0 -92 61.5 -143.5t171.5 -51.5z" />
    <glyph glyph-name="uni1EB0" unicode="&#x1eb0;" 
d="M745 1845h-192l-203 244h203zM668 1597h-109q-135 0 -214 72.5t-79 196.5h150q0 -65 38.5 -102.5t104.5 -37.5h109q67 0 106 37.5t39 102.5h150q0 -124 -80 -196.5t-215 -72.5zM301 0h-207l387 1495h269l385 -1495h-207l-94 389h-439zM545 1006l-111 -449h359l-109 447
q-58 245 -70 325q-14 -93 -69 -323z" />
    <glyph glyph-name="uni1EB1" unicode="&#x1eb1;" 
d="M518 1835l236 -268h-195l-248 268h207zM625 1311q-158 0 -255.5 74.5t-97.5 195.5h156q0 -63 53.5 -100t143.5 -37q89 0 142.5 37t53.5 100h156q0 -121 -97 -195.5t-255 -74.5zM625 1147q197 0 312.5 -101t115.5 -274v-772h-199v209q-15 -107 -107 -168t-237 -61
q-178 0 -279.5 90t-101.5 247q0 160 105 251t288 91h328v107q0 98 -60 152.5t-167 54.5q-95 0 -160.5 -42t-79.5 -110h-199q13 146 135.5 236t305.5 90zM565 137q125 0 205 62.5t80 160.5v154h-324q-91 0 -142.5 -48.5t-51.5 -133.5q0 -92 61.5 -143.5t171.5 -51.5z" />
    <glyph glyph-name="uni1EB2" unicode="&#x1eb2;" 
d="M682 1806h-164l90 107q15 18 15 33q0 16 -21 16h-149v127h200q58 0 89.5 -26.5t31.5 -77.5q0 -63 -35 -107zM668 1597h-109q-135 0 -214 72.5t-79 196.5h150q0 -65 38.5 -102.5t104.5 -37.5h109q67 0 106 37.5t39 102.5h150q0 -124 -80 -196.5t-215 -72.5zM301 0h-207
l387 1495h269l385 -1495h-207l-94 389h-439zM545 1006l-111 -449h359l-109 447q-58 245 -70 325q-14 -93 -69 -323z" />
    <glyph glyph-name="uni1EB3" unicode="&#x1eb3;" 
d="M637 1741q0 22 -14.5 34.5t-40.5 12.5h-119v131h143q89 0 143 -42t54 -108q0 -54 -37 -104l-70 -98h-172l92 121q21 27 21 53zM625 1311q-158 0 -255.5 74.5t-97.5 195.5h156q0 -63 53.5 -100t143.5 -37q89 0 142.5 37t53.5 100h156q0 -121 -97 -195.5t-255 -74.5z
M625 1147q197 0 312.5 -101t115.5 -274v-772h-199v209q-15 -107 -107 -168t-237 -61q-178 0 -279.5 90t-101.5 247q0 160 105 251t288 91h328v107q0 98 -60 152.5t-167 54.5q-95 0 -160.5 -42t-79.5 -110h-199q13 146 135.5 236t305.5 90zM565 137q125 0 205 62.5t80 160.5
v154h-324q-91 0 -142.5 -48.5t-51.5 -133.5q0 -92 61.5 -143.5t171.5 -51.5z" />
    <glyph glyph-name="uni1EB4" unicode="&#x1eb4;" 
d="M772 1882q-57 0 -105 14.5t-75 31.5t-59.5 31.5t-61.5 14.5q-28 0 -43.5 -16.5t-15.5 -44.5v-12h-140v12q0 82 50.5 129t136.5 47q58 0 106 -14.5t74.5 -31.5t58 -31.5t60.5 -14.5q27 0 43 16t16 43v15h139v-15q0 -80 -49 -127t-135 -47zM670 1597h-113q-133 0 -209 62.5
t-76 181.5h152q0 -115 131 -115h117q135 0 135 115h149q0 -119 -75.5 -181.5t-210.5 -62.5zM301 0h-207l387 1495h269l385 -1495h-207l-94 389h-439zM545 1006l-111 -449h359l-109 447q-58 245 -70 325q-14 -93 -69 -323z" />
    <glyph glyph-name="uni1EB5" unicode="&#x1eb5;" 
d="M430 1731v-54h-139v45q0 85 54 137t142 52q48 0 85.5 -13.5t60 -32.5t41 -38.5t39.5 -33t45 -13.5q61 0 61 59v55h139v-45q0 -85 -54 -136.5t-142 -51.5q-48 0 -85.5 13.5t-59.5 32.5t-40.5 38.5t-39.5 33t-45 13.5q-62 0 -62 -61zM625 1319q-151 0 -243.5 74.5
t-92.5 195.5h147q0 -63 51 -101t136 -38q86 0 138 38t52 101h148q0 -121 -92.5 -195.5t-243.5 -74.5zM625 1147q197 0 312.5 -101t115.5 -274v-772h-199v209q-15 -107 -107 -168t-237 -61q-178 0 -279.5 90t-101.5 247q0 160 105 251t288 91h328v107q0 98 -60 152.5
t-167 54.5q-95 0 -160.5 -42t-79.5 -110h-199q13 146 135.5 236t305.5 90zM565 137q125 0 205 62.5t80 160.5v154h-324q-91 0 -142.5 -48.5t-51.5 -133.5q0 -92 61.5 -143.5t171.5 -51.5z" />
    <glyph glyph-name="uni1EB6" unicode="&#x1eb6;" 
d="M614 1647q-150 0 -242.5 82.5t-92.5 216.5h159q0 -76 48 -123t126 -47q80 0 129.5 47t49.5 123h159q0 -134 -92.5 -216.5t-243.5 -82.5zM301 0h-207l387 1495h269l385 -1495h-207l-94 389h-439zM545 1006l-111 -449h359l-109 447q-58 245 -70 325q-14 -93 -69 -323z
M614 -442q-70 0 -110.5 35.5t-40.5 97.5q0 63 40.5 100t110.5 37t111 -37t41 -100q0 -62 -41 -97.5t-111 -35.5z" />
    <glyph glyph-name="uni1EB7" unicode="&#x1eb7;" 
d="M625 1309q-151 0 -243.5 82.5t-92.5 216.5h160q0 -76 48 -123t126 -47q80 0 129 47t49 123h160q0 -134 -92.5 -216.5t-243.5 -82.5zM625 1147q197 0 312.5 -101t115.5 -274v-772h-199v209q-15 -107 -107 -168t-237 -61q-178 0 -279.5 90t-101.5 247q0 160 105 251t288 91
h328v107q0 98 -60 152.5t-167 54.5q-95 0 -160.5 -42t-79.5 -110h-199q13 146 135.5 236t305.5 90zM565 137q125 0 205 62.5t80 160.5v154h-324q-91 0 -142.5 -48.5t-51.5 -133.5q0 -92 61.5 -143.5t171.5 -51.5zM625 -172q70 0 110.5 -37t40.5 -100q0 -62 -40.5 -97.5
t-110.5 -35.5t-111 35.5t-41 97.5q0 63 41 100t111 37z" />
    <glyph glyph-name="uni1EB8" unicode="&#x1eb8;" 
d="M1069 0h-870v1495h870v-182h-670v-445h598v-176h-598v-510h670v-182zM655 -442q-70 0 -110.5 35.5t-40.5 97.5q0 63 40.5 100t110.5 37t111 -37t41 -100q0 -62 -41 -97.5t-111 -35.5z" />
    <glyph glyph-name="uni1EB9" unicode="&#x1eb9;" 
d="M1063 715v-201h-701v-100q0 -130 65 -198.5t187 -68.5q102 0 164.5 37t77.5 107h201q-22 -142 -142.5 -226.5t-300.5 -84.5q-203 0 -325.5 119t-122.5 315v301q0 195 123 313.5t325 118.5q204 0 326.5 -118.5t122.5 -313.5zM362 715v-56h504v56q0 129 -64.5 197.5
t-187.5 68.5q-122 0 -187 -68.5t-65 -197.5zM614 -172q70 0 111 -37t41 -100q0 -62 -41 -97.5t-111 -35.5t-110.5 35.5t-40.5 97.5q0 63 40.5 100t110.5 37z" />
    <glyph glyph-name="uni1EBA" unicode="&#x1eba;" 
d="M748 1636h-183l92 129q31 36 31 64q0 41 -65 41h-154v139h170q97 0 156 -43.5t59 -114.5q0 -60 -35 -110zM1069 0h-870v1495h870v-182h-670v-445h598v-176h-598v-510h670v-182z" />
    <glyph glyph-name="uni1EBB" unicode="&#x1ebb;" 
d="M655 1513q0 21 -15 30t-48 9h-164v140h215q80 0 130 -42t50 -112q0 -65 -37 -115l-79 -102h-183l103 127q28 39 28 65zM1063 715v-201h-701v-100q0 -130 65 -198.5t187 -68.5q102 0 164.5 37t77.5 107h201q-22 -142 -142.5 -226.5t-300.5 -84.5q-203 0 -325.5 119
t-122.5 315v301q0 195 123 313.5t325 118.5q204 0 326.5 -118.5t122.5 -313.5zM362 715v-56h504v56q0 129 -64.5 197.5t-187.5 68.5q-122 0 -187 -68.5t-65 -197.5z" />
    <glyph glyph-name="uni1EBC" unicode="&#x1ebc;" 
d="M799 1665q-46 0 -83 14.5t-61 35t-44 40.5t-42.5 34.5t-46.5 14.5q-61 0 -61 -69v-60h-139v64q0 93 51.5 146.5t138.5 53.5q46 0 83 -14.5t60.5 -35t43.5 -40.5t42.5 -34.5t46.5 -14.5q29 0 45.5 18t16.5 52v59h139v-61q0 -95 -51.5 -149t-138.5 -54zM1069 0h-870v1495
h870v-182h-670v-445h598v-176h-598v-510h670v-182z" />
    <glyph glyph-name="uni1EBD" unicode="&#x1ebd;" 
d="M420 1397v-60h-139v64q0 93 51.5 147t138.5 54q46 0 83 -14.5t61 -35t44 -41t42.5 -35t46.5 -14.5q61 0 61 70v59h139v-61q0 -95 -51.5 -149t-138.5 -54q-46 0 -83 14.5t-61 35t-44 40.5t-42.5 34.5t-46.5 14.5q-61 0 -61 -69zM1063 715v-201h-701v-100q0 -130 65 -198.5
t187 -68.5q102 0 164.5 37t77.5 107h201q-22 -142 -142.5 -226.5t-300.5 -84.5q-203 0 -325.5 119t-122.5 315v301q0 195 123 313.5t325 118.5q204 0 326.5 -118.5t122.5 -313.5zM362 715v-56h504v56q0 129 -64.5 197.5t-187.5 68.5q-122 0 -187 -68.5t-65 -197.5z" />
    <glyph glyph-name="uni1EBE" unicode="&#x1ebe;" 
d="M1092 1845h-211l215 244h221zM494 1597h-215l282 287h189l284 -287h-219l-160 158zM1069 0h-870v1495h870v-182h-670v-445h598v-176h-598v-510h670v-182z" />
    <glyph glyph-name="uni1EBF" unicode="&#x1ebf;" 
d="M1079 1843h219l-247 -287h-207zM774 1321l-160 158l-161 -158h-215l282 287h189l284 -287h-219zM614 1147q204 0 326.5 -118.5t122.5 -313.5v-201h-701v-100q0 -130 65 -198.5t187 -68.5q102 0 164.5 37t77.5 107h201q-22 -142 -142.5 -226.5t-300.5 -84.5
q-203 0 -325.5 119t-122.5 315v301q0 195 123 313.5t325 118.5zM362 715v-56h504v56q0 129 -64.5 197.5t-187.5 68.5q-122 0 -187 -68.5t-65 -197.5z" />
    <glyph glyph-name="uni1EC0" unicode="&#x1ec0;" 
d="M1163 1845h-207l-245 244h219zM494 1597h-215l282 287h189l284 -287h-219l-160 158zM1069 0h-870v1495h870v-182h-670v-445h598v-176h-598v-510h670v-182z" />
    <glyph glyph-name="uni1EC1" unicode="&#x1ec1;" 
d="M883 1843l254 -287h-207l-266 287h219zM774 1321l-160 158l-161 -158h-215l282 287h189l284 -287h-219zM614 1147q204 0 326.5 -118.5t122.5 -313.5v-201h-701v-100q0 -130 65 -198.5t187 -68.5q102 0 164.5 37t77.5 107h201q-22 -142 -142.5 -226.5t-300.5 -84.5
q-203 0 -325.5 119t-122.5 315v301q0 195 123 313.5t325 118.5zM362 715v-56h504v56q0 129 -64.5 197.5t-187.5 68.5q-122 0 -187 -68.5t-65 -197.5z" />
    <glyph glyph-name="uni1EC2" unicode="&#x1ec2;" 
d="M1077 1800h-170l94 92q17 17 17 39q0 14 -9 23.5t-24 9.5h-137v125h178q70 0 112 -36.5t42 -96.5q0 -62 -35 -92zM494 1597h-215l282 287h189l284 -287h-219l-160 158zM1069 0h-870v1495h870v-182h-670v-445h598v-176h-598v-510h670v-182z" />
    <glyph glyph-name="uni1EC3" unicode="&#x1ec3;" 
d="M805 1911h127q95 0 151 -43t56 -115q0 -48 -37 -96l-72 -101h-164l95 125q20 30 20 50q0 49 -66 49h-110v131zM774 1321l-160 158l-161 -158h-215l282 287h189l284 -287h-219zM614 1147q204 0 326.5 -118.5t122.5 -313.5v-201h-701v-100q0 -130 65 -198.5t187 -68.5
q102 0 164.5 37t77.5 107h201q-22 -142 -142.5 -226.5t-300.5 -84.5q-203 0 -325.5 119t-122.5 315v301q0 195 123 313.5t325 118.5zM362 715v-56h504v56q0 129 -64.5 197.5t-187.5 68.5q-122 0 -187 -68.5t-65 -197.5z" />
    <glyph glyph-name="uni1EC4" unicode="&#x1ec4;" 
d="M813 1882q-57 0 -105 14.5t-75 31.5t-59.5 31.5t-61.5 14.5q-28 0 -43.5 -16.5t-15.5 -44.5v-12h-140v12q0 82 50.5 129t136.5 47q58 0 106 -14.5t74.5 -31.5t58 -31.5t60.5 -14.5q27 0 43 16t16 43v15h139v-15q0 -80 -49 -127t-135 -47zM494 1597h-215l231 224h291
l231 -224h-217l-160 150zM1069 0h-870v1495h870v-182h-670v-445h598v-176h-598v-510h670v-182z" />
    <glyph glyph-name="uni1EC5" unicode="&#x1ec5;" 
d="M420 1733v-50h-139v41q0 86 54 137.5t142 51.5q48 0 85.5 -13t60 -31.5t41 -37.5t39.5 -32t45 -13q61 0 61 61v51h139v-43q0 -85 -54 -136.5t-142 -51.5q-48 0 -85.5 13.5t-60 32.5t-41 37.5t-39.5 32t-45 13.5q-61 0 -61 -63zM774 1321l-160 158l-161 -158h-215l282 287
h189l284 -287h-219zM1063 715v-201h-701v-100q0 -130 65 -198.5t187 -68.5q102 0 164.5 37t77.5 107h201q-22 -142 -142.5 -226.5t-300.5 -84.5q-203 0 -325.5 119t-122.5 315v301q0 195 123 313.5t325 118.5q204 0 326.5 -118.5t122.5 -313.5zM362 715v-56h504v56
q0 129 -64.5 197.5t-187.5 68.5q-122 0 -187 -68.5t-65 -197.5z" />
    <glyph glyph-name="uni1EC6" unicode="&#x1ec6;" 
d="M496 1659h-220l285 287h187l286 -287h-215l-164 158zM1069 0h-870v1495h870v-182h-670v-445h598v-176h-598v-510h670v-182zM655 -442q-70 0 -110.5 35.5t-40.5 97.5q0 63 40.5 100t110.5 37t111 -37t41 -100q0 -62 -41 -97.5t-111 -35.5z" />
    </font>
</defs>
</svg>
