<?xml version="1.0" standalone="no"?>
<!DOCTYPE svg PUBLIC "-//W3C//DTD SVG 1.1//EN" "http://www.w3.org/Graphics/SVG/1.1/DTD/svg11.dtd" >
<svg xmlns="http://www.w3.org/2000/svg" xmlns:xlink="http://www.w3.org/1999/xlink" version="1.1">
<metadata>
Created by FontForge 20170731 at Thu Nov 16 19:43:41 2023
 By Aleksey,,,
Copyright 2021 Alessio Laiso, Mario Rullo, Paolo Rosset
</metadata>
<defs>
<font id="TekneLDO-Thin" horiz-adv-x="1228" >
  <font-face 
    font-family="Tekne LDO Thin"
    font-weight="100"
    font-stretch="normal"
    units-per-em="2048"
    panose-1="2 0 0 9 0 0 0 0 0 0"
    ascent="1638"
    descent="-410"
    x-height="1126"
    cap-height="1495"
    bbox="-3553 -819 1413 2294"
    underline-thickness="102"
    underline-position="-419"
    unicode-range="U+000D-1D54A"
  />
<missing-glyph 
d="M1044 0h-860v1495h860v-1495zM287 1393v-1170l614 1170h-614zM942 1272l-614 -1170h614v1170z" />
    <glyph glyph-name=".notdef" 
d="M1044 0h-860v1495h860v-1495zM287 1393v-1170l614 1170h-614zM942 1272l-614 -1170h614v1170z" />
    <glyph glyph-name=".null" horiz-adv-x="0" 
 />
    <glyph glyph-name="nonmarkingreturn" horiz-adv-x="682" 
 />
    <glyph glyph-name="uni2400" unicode="&#x2400;" 
d="M98 502h-32v493h47l180 -456q0 16 -1 45t-1 32v379h33v-493h-48l-180 456q2 -14 2 -77v-379zM602 496q-59 0 -94 37t-35 98v364h33v-364q0 -50 25.5 -77.5t70.5 -27.5q46 0 71 27.5t25 77.5v364h33v-364q0 -62 -34.5 -98.5t-94.5 -36.5zM1200 502h-274v493h35v-463h239
v-30z" />
    <glyph glyph-name="uni2400" 
d="M98 502h-32v493h47l180 -456q0 16 -1 45t-1 32v379h33v-493h-48l-180 456q2 -14 2 -77v-379zM602 496q-59 0 -94 37t-35 98v364h33v-364q0 -50 25.5 -77.5t70.5 -27.5q46 0 71 27.5t25 77.5v364h33v-364q0 -62 -34.5 -98.5t-94.5 -36.5zM1200 502h-274v493h35v-463h239
v-30z" />
    <glyph glyph-name="uni2401" unicode="&#x2401;" 
d="M199 496q-69 0 -109.5 35.5t-40.5 95.5h35q0 -46 31.5 -73.5t83.5 -27.5q51 0 78.5 25t27.5 70q0 40 -22 69t-60 41l-57 17q-49 13 -76 48t-27 83q0 57 36.5 89.5t99.5 32.5q62 0 98.5 -34.5t36.5 -94.5h-35q0 44 -27.5 71.5t-72.5 27.5q-47 0 -75 -23.5t-28 -64.5
q0 -37 21.5 -64.5t56.5 -38.5l57 -18q50 -15 79.5 -52.5t29.5 -86.5q0 -58 -38 -92.5t-103 -34.5zM602 496q-60 0 -95.5 36t-35.5 99v235q0 62 35.5 98.5t95.5 36.5t95.5 -36.5t35.5 -98.5v-235q0 -63 -35.5 -99t-95.5 -36zM940 502h-35v493h35v-221h188v221h35v-493h-35
v239h-188v-239zM602 524q46 0 72 28t26 79v235q0 51 -26 79t-72 28t-72 -28t-26 -79v-235q0 -51 26 -79t72 -28z" />
    <glyph glyph-name="uni2401" 
d="M199 496q-69 0 -109.5 35.5t-40.5 95.5h35q0 -46 31.5 -73.5t83.5 -27.5q51 0 78.5 25t27.5 70q0 40 -22 69t-60 41l-57 17q-49 13 -76 48t-27 83q0 57 36.5 89.5t99.5 32.5q62 0 98.5 -34.5t36.5 -94.5h-35q0 44 -27.5 71.5t-72.5 27.5q-47 0 -75 -23.5t-28 -64.5
q0 -37 21.5 -64.5t56.5 -38.5l57 -18q50 -15 79.5 -52.5t29.5 -86.5q0 -58 -38 -92.5t-103 -34.5zM602 496q-60 0 -95.5 36t-35.5 99v235q0 62 35.5 98.5t95.5 36.5t95.5 -36.5t35.5 -98.5v-235q0 -63 -35.5 -99t-95.5 -36zM940 502h-35v493h35v-221h188v221h35v-493h-35
v239h-188v-239zM602 524q46 0 72 28t26 79v235q0 51 -26 79t-72 28t-72 -28t-26 -79v-235q0 -51 26 -79t72 -28z" />
    <glyph glyph-name="uni2402" unicode="&#x2402;" 
d="M199 496q-69 0 -109.5 35.5t-40.5 95.5h35q0 -46 31.5 -73.5t83.5 -27.5q51 0 78.5 25t27.5 70q0 40 -22 69t-60 41l-57 17q-49 13 -76 48t-27 83q0 57 36.5 89.5t99.5 32.5q62 0 98.5 -34.5t36.5 -94.5h-35q0 44 -27.5 71.5t-72.5 27.5q-47 0 -75 -23.5t-28 -64.5
q0 -37 21.5 -64.5t56.5 -38.5l57 -18q50 -15 79.5 -52.5t29.5 -86.5q0 -58 -38 -92.5t-103 -34.5zM621 502h-35v463h-146v30h324v-30h-143v-463zM905 502h-39l148 256l-137 237h38l82 -149q5 -9 19 -33.5t18 -30.5q4 6 18 30.5t19 33.5l84 149h37l-137 -235l147 -258h-39
l-92 170q-30 52 -37 63l-35 -63z" />
    <glyph glyph-name="uni2402" 
d="M199 496q-69 0 -109.5 35.5t-40.5 95.5h35q0 -46 31.5 -73.5t83.5 -27.5q51 0 78.5 25t27.5 70q0 40 -22 69t-60 41l-57 17q-49 13 -76 48t-27 83q0 57 36.5 89.5t99.5 32.5q62 0 98.5 -34.5t36.5 -94.5h-35q0 44 -27.5 71.5t-72.5 27.5q-47 0 -75 -23.5t-28 -64.5
q0 -37 21.5 -64.5t56.5 -38.5l57 -18q50 -15 79.5 -52.5t29.5 -86.5q0 -58 -38 -92.5t-103 -34.5zM621 502h-35v463h-146v30h324v-30h-143v-463zM905 502h-39l148 256l-137 237h38l82 -149q5 -9 19 -33.5t18 -30.5q4 6 18 30.5t19 33.5l84 149h37l-137 -235l147 -258h-39
l-92 170q-30 52 -37 63l-35 -63z" />
    <glyph glyph-name="uni2403" unicode="&#x2403;" 
d="M336 502h-262v493h262v-30h-230v-191h207v-31h-207v-211h230v-30zM621 502h-35v463h-146v30h324v-30h-143v-463zM905 502h-39l148 256l-137 237h38l82 -149q5 -9 19 -33.5t18 -30.5q4 6 18 30.5t19 33.5l84 149h37l-137 -235l147 -258h-39l-92 170q-30 52 -37 63l-35 -63
z" />
    <glyph glyph-name="uni2403" 
d="M336 502h-262v493h262v-30h-230v-191h207v-31h-207v-211h230v-30zM621 502h-35v463h-146v30h324v-30h-143v-463zM905 502h-39l148 256l-137 237h38l82 -149q5 -9 19 -33.5t18 -30.5q4 6 18 30.5t19 33.5l84 149h37l-137 -235l147 -258h-39l-92 170q-30 52 -37 63l-35 -63
z" />
    <glyph glyph-name="uni2404" unicode="&#x2404;" 
d="M602 496q-60 0 -95.5 36t-35.5 99v235q0 62 35.5 98.5t95.5 36.5t95.5 -36.5t35.5 -98.5v-235q0 -63 -35.5 -99t-95.5 -36zM336 502h-262v493h262v-30h-230v-191h207v-31h-207v-211h230v-30zM1053 502h-35v463h-146v30h324v-30h-143v-463zM602 524q46 0 72 28t26 79v235
q0 51 -26 79t-72 28t-72 -28t-26 -79v-235q0 -51 26 -79t72 -28z" />
    <glyph glyph-name="uni2404" 
d="M602 496q-60 0 -95.5 36t-35.5 99v235q0 62 35.5 98.5t95.5 36.5t95.5 -36.5t35.5 -98.5v-235q0 -63 -35.5 -99t-95.5 -36zM336 502h-262v493h262v-30h-230v-191h207v-31h-207v-211h230v-30zM1053 502h-35v463h-146v30h324v-30h-143v-463zM602 524q46 0 72 28t26 79v235
q0 51 -26 79t-72 28t-72 -28t-26 -79v-235q0 -51 26 -79t72 -28z" />
    <glyph glyph-name="uni2405" unicode="&#x2405;" 
d="M1098 508l78 -127h-41l-72 117q-4 0 -14 -1t-15 -1q-60 0 -95.5 36.5t-35.5 98.5v235q0 62 35.5 98.5t95.5 36.5t95.5 -37.5t35.5 -97.5v-235q0 -92 -67 -123zM336 502h-262v493h262v-30h-230v-191h207v-31h-207v-211h230v-30zM698 616v379h33v-493h-47l-180 456
q2 -14 2 -77v-379h-33v493h47l180 -456q0 16 -1 45t-1 32zM936 866v-235q0 -51 26 -78t72 -27t72.5 27.5t26.5 77.5v235q0 49 -26.5 77t-72.5 28t-72 -27t-26 -78z" />
    <glyph glyph-name="uni2405" 
d="M1098 508l78 -127h-41l-72 117q-4 0 -14 -1t-15 -1q-60 0 -95.5 36.5t-35.5 98.5v235q0 62 35.5 98.5t95.5 36.5t95.5 -37.5t35.5 -97.5v-235q0 -92 -67 -123zM336 502h-262v493h262v-30h-230v-191h207v-31h-207v-211h230v-30zM698 616v379h33v-493h-47l-180 456
q2 -14 2 -77v-379h-33v493h47l180 -456q0 16 -1 45t-1 32zM936 866v-235q0 -51 26 -78t72 -27t72.5 27.5t26.5 77.5v235q0 49 -26.5 77t-72.5 28t-72 -27t-26 -78z" />
    <glyph glyph-name="uni2406" unicode="&#x2406;" 
d="M606 496q-62 0 -98.5 37t-36.5 98v235q0 62 36.5 98.5t98.5 36.5q63 0 100 -38t37 -103h-32q0 52 -28.5 81.5t-76.5 29.5q-47 0 -74.5 -28t-27.5 -77v-235q0 -49 27.5 -77t74.5 -28q50 0 77.5 29.5t27.5 81.5h32q0 -65 -37 -103t-100 -38zM72 502h-35l137 493h41
l137 -493h-37l-36 141h-170zM940 502h-35v493h35v-223h102l111 223h37l-117 -235l123 -258h-39l-115 239h-102v-239zM172 874l-55 -200h153l-53 200q-16 61 -22 93q-3 -13 -23 -93z" />
    <glyph glyph-name="uni2406" 
d="M606 496q-62 0 -98.5 37t-36.5 98v235q0 62 36.5 98.5t98.5 36.5q63 0 100 -38t37 -103h-32q0 52 -28.5 81.5t-76.5 29.5q-47 0 -74.5 -28t-27.5 -77v-235q0 -49 27.5 -77t74.5 -28q50 0 77.5 29.5t27.5 81.5h32q0 -65 -37 -103t-100 -38zM72 502h-35l137 493h41
l137 -493h-37l-36 141h-170zM940 502h-35v493h35v-223h102l111 223h37l-117 -235l123 -258h-39l-115 239h-102v-239zM172 874l-55 -200h153l-53 200q-16 61 -22 93q-3 -13 -23 -93z" />
    <glyph glyph-name="uni2407" unicode="&#x2407;" 
d="M250 756q43 -9 66.5 -40.5t23.5 -78.5q0 -62 -39 -98.5t-106 -36.5h-129v493h127q61 0 98 -35t37 -92q0 -44 -20.5 -73.5t-57.5 -38.5zM756 502h-262v493h262v-30h-230v-191h207v-31h-207v-211h230v-30zM961 995v-463h239v-30h-274v493h35zM193 965h-93v-195h93
q47 0 74.5 26t27.5 72q0 44 -27.5 70.5t-74.5 26.5zM100 532h95q53 0 82.5 28t29.5 77q0 47 -30 74.5t-82 27.5h-95v-207z" />
    <glyph glyph-name="uni2407" 
d="M250 756q43 -9 66.5 -40.5t23.5 -78.5q0 -62 -39 -98.5t-106 -36.5h-129v493h127q61 0 98 -35t37 -92q0 -44 -20.5 -73.5t-57.5 -38.5zM756 502h-262v493h262v-30h-230v-191h207v-31h-207v-211h230v-30zM961 995v-463h239v-30h-274v493h35zM193 965h-93v-195h93
q47 0 74.5 26t27.5 72q0 44 -27.5 70.5t-74.5 26.5zM100 532h95q53 0 82.5 28t29.5 77q0 47 -30 74.5t-82 27.5h-95v-207z" />
    <glyph glyph-name="uni2408" unicode="&#x2408;" 
d="M801 780l57 -18q50 -15 79.5 -52.5t29.5 -86.5q0 -58 -38.5 -92.5t-103.5 -34.5q-69 0 -109 35.5t-40 95.5h35q0 -46 31 -73.5t83 -27.5q51 0 79 25t28 70q0 40 -22 69t-60 41l-57 17q-49 13 -76 48t-27 83q0 57 36 89.5t99 32.5q62 0 99 -34.5t37 -94.5h-35
q0 44 -27.5 71.5t-73.5 27.5q-47 0 -74.5 -23.5t-27.5 -64.5q0 -37 21.5 -64.5t56.5 -38.5zM461 756q43 -9 66.5 -40.5t23.5 -78.5q0 -62 -39 -98.5t-106 -36.5h-130v493h127q61 0 98.5 -35t37.5 -92q0 -44 -20.5 -73.5t-57.5 -38.5zM403 965h-92v-195h92q47 0 75 26t28 72
q0 44 -28 70.5t-75 26.5zM311 532h95q53 0 82.5 28t29.5 77q0 47 -30 74.5t-82 27.5h-95v-207z" />
    <glyph glyph-name="uni2408" 
d="M801 780l57 -18q50 -15 79.5 -52.5t29.5 -86.5q0 -58 -38.5 -92.5t-103.5 -34.5q-69 0 -109 35.5t-40 95.5h35q0 -46 31 -73.5t83 -27.5q51 0 79 25t28 70q0 40 -22 69t-60 41l-57 17q-49 13 -76 48t-27 83q0 57 36 89.5t99 32.5q62 0 99 -34.5t37 -94.5h-35
q0 44 -27.5 71.5t-73.5 27.5q-47 0 -74.5 -23.5t-27.5 -64.5q0 -37 21.5 -64.5t56.5 -38.5zM461 756q43 -9 66.5 -40.5t23.5 -78.5q0 -62 -39 -98.5t-106 -36.5h-130v493h127q61 0 98.5 -35t37.5 -92q0 -44 -20.5 -73.5t-57.5 -38.5zM403 965h-92v-195h92q47 0 75 26t28 72
q0 44 -28 70.5t-75 26.5zM311 532h95q53 0 82.5 28t29.5 77q0 47 -30 74.5t-82 27.5h-95v-207z" />
    <glyph glyph-name="uni240B" unicode="&#x240b;" 
d="M428 502h-45l-135 493h37l100 -372q18 -72 21 -95q15 69 22 95l100 372h35zM840 502h-35v463h-146v30h324v-30h-143v-463z" />
    <glyph glyph-name="uni240B" 
d="M428 502h-45l-135 493h37l100 -372q18 -72 21 -95q15 69 22 95l100 372h35zM840 502h-35v463h-146v30h324v-30h-143v-463z" />
    <glyph glyph-name="uni240C" unicode="&#x240c;" 
d="M313 502h-32v493h276v-30h-244v-199h222v-31h-222v-233zM729 502h-33v493h277v-30h-244v-199h221v-31h-221v-233z" />
    <glyph glyph-name="uni240C" 
d="M313 502h-32v493h276v-30h-244v-199h222v-31h-222v-233zM729 502h-33v493h277v-30h-244v-199h221v-31h-221v-233z" />
    <glyph glyph-name="CR" unicode="&#xd;" horiz-adv-x="819" 
 />
    <glyph glyph-name="uni240E" unicode="&#x240e;" 
d="M410 496q-69 0 -109.5 35.5t-40.5 95.5h35q0 -46 31.5 -73.5t83.5 -27.5q51 0 78.5 25t27.5 70q0 40 -22 69t-60 41l-57 17q-49 13 -76 48t-27 83q0 57 36.5 89.5t99.5 32.5q62 0 98.5 -34.5t36.5 -94.5h-35q0 44 -27 71.5t-73 27.5q-48 0 -75.5 -23.5t-27.5 -64.5
q0 -37 21.5 -64.5t56.5 -38.5l57 -18q50 -15 79.5 -52.5t29.5 -86.5q0 -58 -38 -92.5t-103 -34.5zM821 496q-60 0 -95.5 36t-35.5 99v235q0 62 35.5 98.5t95.5 36.5t95.5 -36.5t35.5 -98.5v-235q0 -63 -35.5 -99t-95.5 -36zM821 524q46 0 72.5 28t26.5 79v235q0 51 -26.5 79
t-72.5 28t-72 -28t-26 -79v-235q0 -51 26 -79t72 -28z" />
    <glyph glyph-name="uni240E" 
d="M410 496q-69 0 -109.5 35.5t-40.5 95.5h35q0 -46 31.5 -73.5t83.5 -27.5q51 0 78.5 25t27.5 70q0 40 -22 69t-60 41l-57 17q-49 13 -76 48t-27 83q0 57 36.5 89.5t99.5 32.5q62 0 98.5 -34.5t36.5 -94.5h-35q0 44 -27 71.5t-73 27.5q-48 0 -75.5 -23.5t-27.5 -64.5
q0 -37 21.5 -64.5t56.5 -38.5l57 -18q50 -15 79.5 -52.5t29.5 -86.5q0 -58 -38 -92.5t-103 -34.5zM821 496q-60 0 -95.5 36t-35.5 99v235q0 62 35.5 98.5t95.5 36.5t95.5 -36.5t35.5 -98.5v-235q0 -63 -35.5 -99t-95.5 -36zM821 524q46 0 72.5 28t26.5 79v235q0 51 -26.5 79
t-72.5 28t-72 -28t-26 -79v-235q0 -51 26 -79t72 -28z" />
    <glyph glyph-name="uni240F" unicode="&#x240f;" 
d="M410 496q-69 0 -109.5 35.5t-40.5 95.5h35q0 -46 31.5 -73.5t83.5 -27.5q51 0 78.5 25t27.5 70q0 40 -22 69t-60 41l-57 17q-49 13 -76 48t-27 83q0 57 36.5 89.5t99.5 32.5q62 0 98.5 -34.5t36.5 -94.5h-35q0 44 -27 71.5t-73 27.5q-48 0 -75.5 -23.5t-27.5 -64.5
q0 -37 21.5 -64.5t56.5 -38.5l57 -18q50 -15 79.5 -52.5t29.5 -86.5q0 -58 -38 -92.5t-103 -34.5zM942 502h-242v30h105v433h-105v30h242v-30h-102v-433h102v-30z" />
    <glyph glyph-name="uni240F" 
d="M410 496q-69 0 -109.5 35.5t-40.5 95.5h35q0 -46 31.5 -73.5t83.5 -27.5q51 0 78.5 25t27.5 70q0 40 -22 69t-60 41l-57 17q-49 13 -76 48t-27 83q0 57 36.5 89.5t99.5 32.5q62 0 98.5 -34.5t36.5 -94.5h-35q0 44 -27 71.5t-73 27.5q-48 0 -75.5 -23.5t-27.5 -64.5
q0 -37 21.5 -64.5t56.5 -38.5l57 -18q50 -15 79.5 -52.5t29.5 -86.5q0 -58 -38 -92.5t-103 -34.5zM942 502h-242v30h105v433h-105v30h242v-30h-102v-433h102v-30z" />
    <glyph glyph-name="uni2410" unicode="&#x2410;" 
d="M174 502h-108v493h108q69 0 110.5 -40.5t41.5 -108.5v-195q0 -68 -41.5 -108.5t-110.5 -40.5zM768 502h-274v493h34v-463h240v-30zM1176 502h-263v493h263v-30h-230v-191h207v-31h-207v-211h230v-30zM100 965v-433h74q54 0 86.5 32.5t32.5 86.5v195q0 54 -33 86.5
t-86 32.5h-74z" />
    <glyph glyph-name="uni2410" 
d="M174 502h-108v493h108q69 0 110.5 -40.5t41.5 -108.5v-195q0 -68 -41.5 -108.5t-110.5 -40.5zM768 502h-274v493h34v-463h240v-30zM1176 502h-263v493h263v-30h-230v-191h207v-31h-207v-211h230v-30zM100 965v-433h74q54 0 86.5 32.5t32.5 86.5v195q0 54 -33 86.5
t-86 32.5h-74z" />
    <glyph glyph-name="uni2411" unicode="&#x2411;" 
d="M606 496q-62 0 -98.5 37t-36.5 98v235q0 62 36.5 98.5t98.5 36.5q63 0 100 -38t37 -103h-32q0 52 -28.5 81.5t-76.5 29.5q-47 0 -74.5 -28t-27.5 -77v-235q0 -49 27.5 -77t74.5 -28q50 0 77.5 29.5t27.5 81.5h32q0 -65 -37 -103t-100 -38zM174 502h-108v493h108
q69 0 110.5 -40.5t41.5 -108.5v-195q0 -68 -41.5 -108.5t-110.5 -40.5zM1190 502h-291v30h139v433l-133 -99v37l123 92h45v-463h117v-30zM100 965v-433h74q54 0 86.5 32.5t32.5 86.5v195q0 54 -33 86.5t-86 32.5h-74z" />
    <glyph glyph-name="uni2411" 
d="M606 496q-62 0 -98.5 37t-36.5 98v235q0 62 36.5 98.5t98.5 36.5q63 0 100 -38t37 -103h-32q0 52 -28.5 81.5t-76.5 29.5q-47 0 -74.5 -28t-27.5 -77v-235q0 -49 27.5 -77t74.5 -28q50 0 77.5 29.5t27.5 81.5h32q0 -65 -37 -103t-100 -38zM174 502h-108v493h108
q69 0 110.5 -40.5t41.5 -108.5v-195q0 -68 -41.5 -108.5t-110.5 -40.5zM1190 502h-291v30h139v433l-133 -99v37l123 92h45v-463h117v-30zM100 965v-433h74q54 0 86.5 32.5t32.5 86.5v195q0 54 -33 86.5t-86 32.5h-74z" />
    <glyph glyph-name="uni2412" unicode="&#x2412;" 
d="M606 496q-62 0 -98.5 37t-36.5 98v235q0 62 36.5 98.5t98.5 36.5q63 0 100 -38t37 -103h-32q0 52 -28.5 81.5t-76.5 29.5q-47 0 -74.5 -28t-27.5 -77v-235q0 -49 27.5 -77t74.5 -28q50 0 77.5 29.5t27.5 81.5h32q0 -65 -37 -103t-100 -38zM1190 502h-293v35l156 159
q90 93 90 168q0 50 -30 79.5t-81 29.5t-80.5 -29.5t-29.5 -79.5h-33q0 63 38.5 100t104.5 37t105 -36.5t39 -98.5q0 -86 -101 -190l-141 -144h256v-30zM174 502h-108v493h108q69 0 110.5 -40.5t41.5 -108.5v-195q0 -68 -41.5 -108.5t-110.5 -40.5zM100 965v-433h74
q54 0 86.5 32.5t32.5 86.5v195q0 54 -33 86.5t-86 32.5h-74z" />
    <glyph glyph-name="uni2412" 
d="M606 496q-62 0 -98.5 37t-36.5 98v235q0 62 36.5 98.5t98.5 36.5q63 0 100 -38t37 -103h-32q0 52 -28.5 81.5t-76.5 29.5q-47 0 -74.5 -28t-27.5 -77v-235q0 -49 27.5 -77t74.5 -28q50 0 77.5 29.5t27.5 81.5h32q0 -65 -37 -103t-100 -38zM1190 502h-293v35l156 159
q90 93 90 168q0 50 -30 79.5t-81 29.5t-80.5 -29.5t-29.5 -79.5h-33q0 63 38.5 100t104.5 37t105 -36.5t39 -98.5q0 -86 -101 -190l-141 -144h256v-30zM174 502h-108v493h108q69 0 110.5 -40.5t41.5 -108.5v-195q0 -68 -41.5 -108.5t-110.5 -40.5zM100 965v-433h74
q54 0 86.5 32.5t32.5 86.5v195q0 54 -33 86.5t-86 32.5h-74z" />
    <glyph glyph-name="uni2413" unicode="&#x2413;" 
d="M606 971q-47 0 -74.5 -28t-27.5 -77v-235q0 -49 27.5 -77t74.5 -28q50 0 77.5 29.5t27.5 81.5h32q0 -65 -37 -103t-100 -38q-62 0 -98.5 37t-36.5 98v235q0 62 36.5 98.5t98.5 36.5q63 0 100 -38t37 -103h-32q0 52 -28.5 81.5t-76.5 29.5zM66 995h108q69 0 110.5 -40.5
t41.5 -108.5v-195q0 -68 -41.5 -108.5t-110.5 -40.5h-108v493zM1155 963l-125 -154q62 -2 97.5 -36.5t35.5 -94.5v-47q0 -63 -36.5 -99t-98.5 -36q-63 0 -99 36t-36 99h33q0 -49 27.5 -77t74.5 -28q46 0 73 28t27 77v47q0 47 -26.5 74.5t-73.5 27.5h-35v29l125 156h-209v30
h246v-32zM293 651v195q0 54 -33 86.5t-86 32.5h-74v-433h74q54 0 86.5 32.5t32.5 86.5z" />
    <glyph glyph-name="uni2413" 
d="M606 971q-47 0 -74.5 -28t-27.5 -77v-235q0 -49 27.5 -77t74.5 -28q50 0 77.5 29.5t27.5 81.5h32q0 -65 -37 -103t-100 -38q-62 0 -98.5 37t-36.5 98v235q0 62 36.5 98.5t98.5 36.5q63 0 100 -38t37 -103h-32q0 52 -28.5 81.5t-76.5 29.5zM66 995h108q69 0 110.5 -40.5
t41.5 -108.5v-195q0 -68 -41.5 -108.5t-110.5 -40.5h-108v493zM1155 963l-125 -154q62 -2 97.5 -36.5t35.5 -94.5v-47q0 -63 -36.5 -99t-98.5 -36q-63 0 -99 36t-36 99h33q0 -49 27.5 -77t74.5 -28q46 0 73 28t27 77v47q0 47 -26.5 74.5t-73.5 27.5h-35v29l125 156h-209v30
h246v-32zM293 651v195q0 54 -33 86.5t-86 32.5h-74v-433h74q54 0 86.5 32.5t32.5 86.5z" />
    <glyph glyph-name="uni2414" unicode="&#x2414;" 
d="M606 496q-62 0 -98.5 37t-36.5 98v235q0 62 36.5 98.5t98.5 36.5q63 0 100 -38t37 -103h-32q0 52 -28.5 81.5t-76.5 29.5q-47 0 -74.5 -28t-27.5 -77v-235q0 -49 27.5 -77t74.5 -28q50 0 77.5 29.5t27.5 81.5h32q0 -65 -37 -103t-100 -38zM174 502h-108v493h108
q69 0 110.5 -40.5t41.5 -108.5v-195q0 -68 -41.5 -108.5t-110.5 -40.5zM1149 502h-33v114h-227v68l192 311h37l-194 -319v-29h192v139h33v-284zM100 965v-433h74q54 0 86.5 32.5t32.5 86.5v195q0 54 -33 86.5t-86 32.5h-74z" />
    <glyph glyph-name="uni2414" 
d="M606 496q-62 0 -98.5 37t-36.5 98v235q0 62 36.5 98.5t98.5 36.5q63 0 100 -38t37 -103h-32q0 52 -28.5 81.5t-76.5 29.5q-47 0 -74.5 -28t-27.5 -77v-235q0 -49 27.5 -77t74.5 -28q50 0 77.5 29.5t27.5 81.5h32q0 -65 -37 -103t-100 -38zM174 502h-108v493h108
q69 0 110.5 -40.5t41.5 -108.5v-195q0 -68 -41.5 -108.5t-110.5 -40.5zM1149 502h-33v114h-227v68l192 311h37l-194 -319v-29h192v139h33v-284zM100 965v-433h74q54 0 86.5 32.5t32.5 86.5v195q0 54 -33 86.5t-86 32.5h-74z" />
    <glyph glyph-name="uni2415" unicode="&#x2415;" 
d="M98 502h-32v493h47l180 -456q0 16 -1 45t-1 32v379h33v-493h-48l-180 456q2 -14 2 -77v-379zM479 502h-35l138 493h41l137 -493h-37l-37 141h-170zM940 502h-35v493h35v-223h102l111 223h37l-117 -235l123 -258h-39l-115 239h-102v-239zM580 874l-56 -200h154l-53 200
q-20 80 -23 93q-6 -32 -22 -93z" />
    <glyph glyph-name="uni2415" 
d="M98 502h-32v493h47l180 -456q0 16 -1 45t-1 32v379h33v-493h-48l-180 456q2 -14 2 -77v-379zM479 502h-35l138 493h41l137 -493h-37l-37 141h-170zM940 502h-35v493h35v-223h102l111 223h37l-117 -235l123 -258h-39l-115 239h-102v-239zM580 874l-56 -200h154l-53 200
q-20 80 -23 93q-6 -32 -22 -93z" />
    <glyph glyph-name="uni2416" unicode="&#x2416;" 
d="M199 496q-69 0 -109.5 35.5t-40.5 95.5h35q0 -46 31.5 -73.5t83.5 -27.5q51 0 78.5 25t27.5 70q0 40 -22 69t-60 41l-57 17q-49 13 -76 48t-27 83q0 57 36.5 89.5t99.5 32.5q62 0 98.5 -34.5t36.5 -94.5h-35q0 44 -27.5 71.5t-72.5 27.5q-47 0 -75 -23.5t-28 -64.5
q0 -37 21.5 -64.5t56.5 -38.5l57 -18q50 -15 79.5 -52.5t29.5 -86.5q0 -58 -38 -92.5t-103 -34.5zM618 502h-32v188l-152 305h35l111 -223l22 -47q1 3 10 19.5l15 27.5l108 223h37l-154 -305v-188zM938 502h-33v493h47l181 -456q0 16 -1.5 45t-1.5 32v379h33v-493h-47
l-180 456q2 -14 2 -77v-379z" />
    <glyph glyph-name="uni2416" 
d="M199 496q-69 0 -109.5 35.5t-40.5 95.5h35q0 -46 31.5 -73.5t83.5 -27.5q51 0 78.5 25t27.5 70q0 40 -22 69t-60 41l-57 17q-49 13 -76 48t-27 83q0 57 36.5 89.5t99.5 32.5q62 0 98.5 -34.5t36.5 -94.5h-35q0 44 -27.5 71.5t-72.5 27.5q-47 0 -75 -23.5t-28 -64.5
q0 -37 21.5 -64.5t56.5 -38.5l57 -18q50 -15 79.5 -52.5t29.5 -86.5q0 -58 -38 -92.5t-103 -34.5zM618 502h-32v188l-152 305h35l111 -223l22 -47q1 3 10 19.5l15 27.5l108 223h37l-154 -305v-188zM938 502h-33v493h47l181 -456q0 16 -1.5 45t-1.5 32v379h33v-493h-47
l-180 456q2 -14 2 -77v-379z" />
    <glyph glyph-name="uni2417" unicode="&#x2417;" 
d="M336 502h-262v493h262v-30h-230v-191h207v-31h-207v-211h230v-30zM586 965h-146v30h324v-30h-143v-463h-35v463zM1090 756q43 -9 66.5 -40.5t23.5 -78.5q0 -62 -39.5 -98.5t-106.5 -36.5h-129v493h127q61 0 98 -35t37 -92q0 -44 -20 -73.5t-57 -38.5zM1032 965h-92v-195
h92q47 0 75 26t28 72q0 44 -28 70.5t-75 26.5zM940 532h94q53 0 83 28t30 77q0 47 -30.5 74.5t-82.5 27.5h-94v-207z" />
    <glyph glyph-name="uni2417" 
d="M336 502h-262v493h262v-30h-230v-191h207v-31h-207v-211h230v-30zM586 965h-146v30h324v-30h-143v-463h-35v463zM1090 756q43 -9 66.5 -40.5t23.5 -78.5q0 -62 -39.5 -98.5t-106.5 -36.5h-129v493h127q61 0 98 -35t37 -92q0 -44 -20 -73.5t-57 -38.5zM1032 965h-92v-195
h92q47 0 75 26t28 72q0 44 -28 70.5t-75 26.5zM940 532h94q53 0 83 28t30 77q0 47 -30.5 74.5t-82.5 27.5h-94v-207z" />
    <glyph glyph-name="uni2418" unicode="&#x2418;" 
d="M199 496q-62 0 -99 37t-37 98v235q0 61 37 98t99 37q63 0 100 -38t37 -103h-33q0 52 -28 81.5t-76 29.5t-75.5 -28t-27.5 -77v-235q0 -49 27.5 -77t75.5 -28q49 0 76.5 29t27.5 82h33q0 -65 -37 -103t-100 -38zM492 502h-35l137 493h41l137 -493h-37l-37 141h-170z
M938 502h-33v493h47l181 -456q0 16 -1.5 45t-1.5 32v379h33v-493h-47l-180 456q2 -14 2 -77v-379zM592 874l-55 -200h153l-53 200q-20 80 -23 93q-6 -32 -22 -93z" />
    <glyph glyph-name="uni2418" 
d="M199 496q-62 0 -99 37t-37 98v235q0 61 37 98t99 37q63 0 100 -38t37 -103h-33q0 52 -28 81.5t-76 29.5t-75.5 -28t-27.5 -77v-235q0 -49 27.5 -77t75.5 -28q49 0 76.5 29t27.5 82h33q0 -65 -37 -103t-100 -38zM492 502h-35l137 493h41l137 -493h-37l-37 141h-170z
M938 502h-33v493h47l181 -456q0 16 -1.5 45t-1.5 32v379h33v-493h-47l-180 456q2 -14 2 -77v-379zM592 874l-55 -200h153l-53 200q-20 80 -23 93q-6 -32 -22 -93z" />
    <glyph glyph-name="uni2419" unicode="&#x2419;" 
d="M547 502h-262v493h262v-30h-230v-191h207v-31h-207v-211h230v-30zM715 502h-35v493h51l70 -188q2 -7 10 -31t10 -33q2 5 10 29t13 35l67 188h52v-493h-35v297q0 106 4 180l-92 -258h-37l-92 258q4 -74 4 -180v-297z" />
    <glyph glyph-name="uni2419" 
d="M547 502h-262v493h262v-30h-230v-191h207v-31h-207v-211h230v-30zM715 502h-35v493h51l70 -188q2 -7 10 -31t10 -33q2 5 10 29t13 35l67 188h52v-493h-35v297q0 106 4 180l-92 -258h-37l-92 258q4 -74 4 -180v-297z" />
    <glyph glyph-name="uni241A" unicode="&#x241a;" 
d="M174 780l57 -18q50 -15 79.5 -52.5t29.5 -86.5q0 -58 -38 -92.5t-103 -34.5q-69 0 -109.5 35.5t-40.5 95.5h35q0 -46 31.5 -73.5t83.5 -27.5q51 0 78.5 25t27.5 70q0 40 -22 69t-60 41l-57 17q-49 13 -76 48t-27 83q0 57 36.5 89.5t99.5 32.5q62 0 98.5 -34.5t36.5 -94.5
h-35q0 44 -27.5 71.5t-72.5 27.5q-47 0 -75 -23.5t-28 -64.5q0 -37 21.5 -64.5t56.5 -38.5zM698 631v364h33v-364q0 -62 -34.5 -98.5t-94.5 -36.5q-59 0 -94 37t-35 98v364h33v-364q0 -50 25.5 -77.5t70.5 -27.5q46 0 71 27.5t25 77.5zM1090 756q43 -9 66.5 -40.5
t23.5 -78.5q0 -62 -39.5 -98.5t-106.5 -36.5h-129v493h127q61 0 98 -35t37 -92q0 -44 -20 -73.5t-57 -38.5zM1032 965h-92v-195h92q47 0 75 26t28 72q0 44 -28 70.5t-75 26.5zM940 532h94q53 0 83 28t30 77q0 47 -30.5 74.5t-82.5 27.5h-94v-207z" />
    <glyph glyph-name="uni241A" 
d="M174 780l57 -18q50 -15 79.5 -52.5t29.5 -86.5q0 -58 -38 -92.5t-103 -34.5q-69 0 -109.5 35.5t-40.5 95.5h35q0 -46 31.5 -73.5t83.5 -27.5q51 0 78.5 25t27.5 70q0 40 -22 69t-60 41l-57 17q-49 13 -76 48t-27 83q0 57 36.5 89.5t99.5 32.5q62 0 98.5 -34.5t36.5 -94.5
h-35q0 44 -27.5 71.5t-72.5 27.5q-47 0 -75 -23.5t-28 -64.5q0 -37 21.5 -64.5t56.5 -38.5zM698 631v364h33v-364q0 -62 -34.5 -98.5t-94.5 -36.5q-59 0 -94 37t-35 98v364h33v-364q0 -50 25.5 -77.5t70.5 -27.5q46 0 71 27.5t25 77.5zM1090 756q43 -9 66.5 -40.5
t23.5 -78.5q0 -62 -39.5 -98.5t-106.5 -36.5h-129v493h127q61 0 98 -35t37 -92q0 -44 -20 -73.5t-57 -38.5zM1032 965h-92v-195h92q47 0 75 26t28 72q0 44 -28 70.5t-75 26.5zM940 532h94q53 0 83 28t30 77q0 47 -30.5 74.5t-82.5 27.5h-94v-207z" />
    <glyph glyph-name="uni241B" unicode="&#x241b;" 
d="M606 496q-69 0 -109 35.5t-40 95.5h35q0 -46 31 -73.5t83 -27.5q51 0 79 25t28 70q0 40 -22 69t-60 41l-58 17q-49 13 -75.5 48t-26.5 83q0 57 36 89.5t99 32.5q62 0 98.5 -34.5t36.5 -94.5h-34q0 44 -27.5 71.5t-73.5 27.5q-47 0 -74.5 -23.5t-27.5 -64.5
q0 -37 21.5 -64.5t56.5 -38.5l57 -18q50 -15 79.5 -52.5t29.5 -86.5q0 -58 -38.5 -92.5t-103.5 -34.5zM1038 496q-62 0 -98.5 37t-36.5 98v235q0 62 36.5 98.5t98.5 36.5q63 0 100.5 -38.5t37.5 -102.5h-33q0 52 -28.5 81.5t-76.5 29.5q-47 0 -74.5 -28t-27.5 -77v-235
q0 -49 27.5 -77t74.5 -28q50 0 77.5 29.5t27.5 81.5h33q0 -64 -37.5 -102.5t-100.5 -38.5zM336 502h-262v493h262v-30h-230v-191h207v-31h-207v-211h230v-30z" />
    <glyph glyph-name="uni241B" 
d="M606 496q-69 0 -109 35.5t-40 95.5h35q0 -46 31 -73.5t83 -27.5q51 0 79 25t28 70q0 40 -22 69t-60 41l-58 17q-49 13 -75.5 48t-26.5 83q0 57 36 89.5t99 32.5q62 0 98.5 -34.5t36.5 -94.5h-34q0 44 -27.5 71.5t-73.5 27.5q-47 0 -74.5 -23.5t-27.5 -64.5
q0 -37 21.5 -64.5t56.5 -38.5l57 -18q50 -15 79.5 -52.5t29.5 -86.5q0 -58 -38.5 -92.5t-103.5 -34.5zM1038 496q-62 0 -98.5 37t-36.5 98v235q0 62 36.5 98.5t98.5 36.5q63 0 100.5 -38.5t37.5 -102.5h-33q0 52 -28.5 81.5t-76.5 29.5q-47 0 -74.5 -28t-27.5 -77v-235
q0 -49 27.5 -77t74.5 -28q50 0 77.5 29.5t27.5 81.5h33q0 -64 -37.5 -102.5t-100.5 -38.5zM336 502h-262v493h262v-30h-230v-191h207v-31h-207v-211h230v-30z" />
    <glyph glyph-name="uni241C" unicode="&#x241c;" 
d="M825 496q-69 0 -109 35.5t-40 95.5h35q0 -46 31 -73.5t83 -27.5q51 0 79 25t28 70q0 40 -22 69t-60 41l-57 17q-49 13 -76 48t-27 83q0 57 36 89.5t99 32.5q62 0 99 -34.5t37 -94.5h-35q0 44 -27.5 71.5t-73.5 27.5q-47 0 -74.5 -23.5t-27.5 -64.5q0 -37 21.5 -64.5
t56.5 -38.5l57 -18q50 -15 79.5 -52.5t29.5 -86.5q0 -58 -38.5 -92.5t-103.5 -34.5zM313 502h-32v493h276v-30h-244v-199h222v-31h-222v-233z" />
    <glyph glyph-name="uni241C" 
d="M825 496q-69 0 -109 35.5t-40 95.5h35q0 -46 31 -73.5t83 -27.5q51 0 79 25t28 70q0 40 -22 69t-60 41l-57 17q-49 13 -76 48t-27 83q0 57 36 89.5t99 32.5q62 0 99 -34.5t37 -94.5h-35q0 44 -27.5 71.5t-73.5 27.5q-47 0 -74.5 -23.5t-27.5 -64.5q0 -37 21.5 -64.5
t56.5 -38.5l57 -18q50 -15 79.5 -52.5t29.5 -86.5q0 -58 -38.5 -92.5t-103.5 -34.5zM313 502h-32v493h276v-30h-244v-199h222v-31h-222v-233z" />
    <glyph glyph-name="uni241D" unicode="&#x241d;" 
d="M410 496q-62 0 -99 37t-37 98v235q0 61 37 98t99 37q63 0 100 -38t37 -103h-33q0 52 -28 81.5t-76 29.5t-75.5 -28t-27.5 -77v-235q0 -49 27.5 -77t75.5 -28q49 0 76.5 29t27.5 82v74h-117v30h150v-104q0 -65 -37 -103t-100 -38zM825 496q-69 0 -109 35.5t-40 95.5h35
q0 -46 31 -73.5t83 -27.5q51 0 79 25t28 70q0 40 -22 69t-60 41l-57 17q-49 13 -76 48t-27 83q0 57 36 89.5t99 32.5q62 0 99 -34.5t37 -94.5h-35q0 44 -27.5 71.5t-73.5 27.5q-47 0 -74.5 -23.5t-27.5 -64.5q0 -37 21.5 -64.5t56.5 -38.5l57 -18q50 -15 79.5 -52.5
t29.5 -86.5q0 -58 -38.5 -92.5t-103.5 -34.5z" />
    <glyph glyph-name="uni241D" 
d="M410 496q-62 0 -99 37t-37 98v235q0 61 37 98t99 37q63 0 100 -38t37 -103h-33q0 52 -28 81.5t-76 29.5t-75.5 -28t-27.5 -77v-235q0 -49 27.5 -77t75.5 -28q49 0 76.5 29t27.5 82v74h-117v30h150v-104q0 -65 -37 -103t-100 -38zM825 496q-69 0 -109 35.5t-40 95.5h35
q0 -46 31 -73.5t83 -27.5q51 0 79 25t28 70q0 40 -22 69t-60 41l-57 17q-49 13 -76 48t-27 83q0 57 36 89.5t99 32.5q62 0 99 -34.5t37 -94.5h-35q0 44 -27.5 71.5t-73.5 27.5q-47 0 -74.5 -23.5t-27.5 -64.5q0 -37 21.5 -64.5t56.5 -38.5l57 -18q50 -15 79.5 -52.5
t29.5 -86.5q0 -58 -38.5 -92.5t-103.5 -34.5z" />
    <glyph glyph-name="uni241E" unicode="&#x241e;" 
d="M825 496q-69 0 -109 35.5t-40 95.5h35q0 -46 31 -73.5t83 -27.5q51 0 79 25t28 70q0 40 -22 69t-60 41l-57 17q-49 13 -76 48t-27 83q0 57 36 89.5t99 32.5q62 0 99 -34.5t37 -94.5h-35q0 44 -27.5 71.5t-73.5 27.5q-47 0 -74.5 -23.5t-27.5 -64.5q0 -37 21.5 -64.5
t56.5 -38.5l57 -18q50 -15 79.5 -52.5t29.5 -86.5q0 -58 -38.5 -92.5t-103.5 -34.5zM311 502h-35v493h140q66 0 103.5 -37t37.5 -100q0 -54 -30 -88.5t-83 -42.5l117 -225h-41l-110 223h-99v-223zM311 965v-209h105q49 0 78.5 28.5t29.5 75.5t-29.5 76t-78.5 29h-105z" />
    <glyph glyph-name="uni241E" 
d="M825 496q-69 0 -109 35.5t-40 95.5h35q0 -46 31 -73.5t83 -27.5q51 0 79 25t28 70q0 40 -22 69t-60 41l-57 17q-49 13 -76 48t-27 83q0 57 36 89.5t99 32.5q62 0 99 -34.5t37 -94.5h-35q0 44 -27.5 71.5t-73.5 27.5q-47 0 -74.5 -23.5t-27.5 -64.5q0 -37 21.5 -64.5
t56.5 -38.5l57 -18q50 -15 79.5 -52.5t29.5 -86.5q0 -58 -38.5 -92.5t-103.5 -34.5zM311 502h-35v493h140q66 0 103.5 -37t37.5 -100q0 -54 -30 -88.5t-83 -42.5l117 -225h-41l-110 223h-99v-223zM311 965v-209h105q49 0 78.5 28.5t29.5 75.5t-29.5 76t-78.5 29h-105z" />
    <glyph glyph-name="uni241F" unicode="&#x241f;" 
d="M825 496q-69 0 -109 35.5t-40 95.5h35q0 -46 31 -73.5t83 -27.5q51 0 79 25t28 70q0 40 -22 69t-60 41l-57 17q-49 13 -76 48t-27 83q0 57 36 89.5t99 32.5q62 0 99 -34.5t37 -94.5h-35q0 44 -27.5 71.5t-73.5 27.5q-47 0 -74.5 -23.5t-27.5 -64.5q0 -37 21.5 -64.5
t56.5 -38.5l57 -18q50 -15 79.5 -52.5t29.5 -86.5q0 -58 -38.5 -92.5t-103.5 -34.5zM406 496q-59 0 -94.5 37t-35.5 98v364h33v-364q0 -50 26 -77.5t71 -27.5q46 0 71 27.5t25 77.5v364h33v-364q0 -62 -34.5 -98.5t-94.5 -36.5z" />
    <glyph glyph-name="uni241F" 
d="M825 496q-69 0 -109 35.5t-40 95.5h35q0 -46 31 -73.5t83 -27.5q51 0 79 25t28 70q0 40 -22 69t-60 41l-57 17q-49 13 -76 48t-27 83q0 57 36 89.5t99 32.5q62 0 99 -34.5t37 -94.5h-35q0 44 -27.5 71.5t-73.5 27.5q-47 0 -74.5 -23.5t-27.5 -64.5q0 -37 21.5 -64.5
t56.5 -38.5l57 -18q50 -15 79.5 -52.5t29.5 -86.5q0 -58 -38.5 -92.5t-103.5 -34.5zM406 496q-59 0 -94.5 37t-35.5 98v364h33v-364q0 -50 26 -77.5t71 -27.5q46 0 71 27.5t25 77.5v364h33v-364q0 -62 -34.5 -98.5t-94.5 -36.5z" />
    <glyph glyph-name="space" unicode=" " horiz-adv-x="819" 
 />
    <glyph glyph-name="exclam" unicode="!" horiz-adv-x="819" 
d="M434 420h-61l-33 747v328h127v-328zM416 -10h-10q-51 0 -82 30.5t-31 81.5t31 82t82 31h10q51 0 81.5 -31t30.5 -82t-30.5 -81.5t-81.5 -30.5z" />
    <glyph glyph-name="quotedbl" unicode="&#x22;" horiz-adv-x="819" 
d="M254 881h-96l-21 430v184h135v-184zM664 881h-97l-20 430v184h135v-184z" />
    <glyph glyph-name="numbersign" unicode="#" 
d="M281 0h-93l91 471h-207v82h223l74 389h-226v82h242l90 471h92l-90 -471h381l90 471h92l-90 -471h207v-82h-223l-74 -389h225v-82h-241l-90 -471h-92l90 471h-381zM461 942l-74 -389h381l74 389h-381z" />
    <glyph glyph-name="dollar" unicode="$" 
d="M666 -287h-82v269q-189 11 -299.5 117.5t-110.5 279.5h102q0 -130 83.5 -212t224.5 -93v653l-56 16q-148 44 -230.5 150t-82.5 252q0 161 99 259t270 109v269h82v-269q171 -11 269.5 -115.5t98.5 -275.5h-102q0 126 -71.5 206.5t-194.5 92.5v-614l59 -19
q154 -47 242 -161t88 -265q0 -165 -105 -267t-284 -113v-269zM553 842l31 -11v590q-124 -11 -195.5 -82t-71.5 -186q0 -110 63.5 -193.5t172.5 -117.5zM666 702v-628q135 9 210.5 85t75.5 203q0 118 -67.5 206.5t-184.5 123.5z" />
    <glyph glyph-name="percent" unicode="%" 
d="M328 819q-119 0 -188.5 71.5t-69.5 194.5v154q0 123 69.5 194.5t188.5 71.5q120 0 189 -71.5t69 -194.5v-154q0 -123 -69 -194.5t-189 -71.5zM133 0h-92l1055 1495h92zM328 905q82 0 125 46t43 134v154q0 88 -43 134t-125 46q-80 0 -124 -46.5t-44 -133.5v-154
q0 -87 44 -133.5t124 -46.5zM901 -10q-120 0 -189 71.5t-69 194.5v154q0 123 69 194.5t189 71.5t189 -71.5t69 -194.5v-154q0 -123 -69 -194.5t-189 -71.5zM901 76q82 0 125 46t43 134v154q0 88 -43 134t-125 46t-125 -46t-43 -134v-154q0 -88 43 -134t125 -46z" />
    <glyph glyph-name="ampersand" unicode="&#x26;" 
d="M1120 737l-217 -407l246 -330h-109l-186 242q-154 -262 -403 -262q-148 0 -233 89.5t-85 247.5v228q0 134 62.5 220t175.5 109q-125 168 -125 314q0 140 94 234t244 94q156 0 252 -98.5t96 -250.5h-103q0 105 -70 180.5t-175 75.5q-101 0 -168.5 -69.5t-67.5 -165.5
q0 -114 125 -281l369 -495l176 325h102zM461 72q94 0 179.5 64t152.5 188l-357 467q-92 -6 -146 -72.5t-54 -173.5v-228q0 -109 62.5 -177t162.5 -68z" />
    <glyph glyph-name="quotesingle" unicode="'" horiz-adv-x="409" 
d="M254 881h-96l-21 266v348h135v-348z" />
    <glyph glyph-name="parenleft" unicode="(" horiz-adv-x="819" 
d="M717 -152v-94q-269 68 -416 271t-147 507v410q0 305 147.5 508.5t415.5 269.5v-94q-220 -55 -340.5 -234.5t-120.5 -449.5v-410q0 -270 120.5 -449.5t340.5 -234.5z" />
    <glyph glyph-name="parenright" unicode=")" horiz-adv-x="819" 
d="M102 -246v94q220 55 340.5 234.5t120.5 449.5v410q0 270 -120.5 449.5t-340.5 234.5v94q269 -66 416.5 -270t147.5 -508v-410q0 -304 -147.5 -507t-416.5 -271z" />
    <glyph glyph-name="asterisk" unicode="*" 
d="M489 424l-147 -211l-92 63l149 211q27 37 53 68t40 45.5t36.5 36t28.5 27.5l-10 30q-1 0 -28 3t-38 5t-37 7.5t-53 13.5t-59 20l-246 91l39 102l244 -88q103 -37 198 -100l19 12q-1 5 -9.5 46.5t-13 82t-4.5 94.5v266h111v-266q0 -34 -1.5 -63.5t-5 -54.5t-6 -39t-8 -37
t-6.5 -29l19 -15q4 3 24 16.5t31.5 20.5t33.5 19.5t48 23t57 21.5l250 88l37 -103l-248 -90q-39 -14 -75.5 -24t-55 -13.5t-48 -8t-36.5 -5.5l-10 -28q7 -7 29 -27.5t36.5 -35.5t40 -45.5t51.5 -66.5l150 -213l-90 -63l-150 213q-33 49 -54 88t-36.5 75t-21.5 48h-23
q-7 -13 -21.5 -47.5t-36 -75t-55.5 -88.5z" />
    <glyph glyph-name="plus" unicode="+" 
d="M666 205h-103v430h-409v92h409v430h103v-430h409v-92h-409v-430z" />
    <glyph glyph-name="comma" unicode="," horiz-adv-x="819" 
d="M291 -328h-82l153 637h185z" />
    <glyph glyph-name="hyphen" unicode="-" 
d="M942 631h-655v92h655v-92z" />
    <glyph glyph-name="period" unicode="." horiz-adv-x="819" 
d="M410 -20q-69 0 -109.5 41.5t-40.5 111.5q0 69 40.5 109.5t109.5 40.5t109 -40.5t40 -109.5q0 -71 -40 -112t-109 -41z" />
    <glyph glyph-name="slash" unicode="/" 
d="M305 -225h-110l729 1925h110z" />
    <glyph glyph-name="zero" unicode="0" 
d="M616 -20q-198 0 -312 118t-114 322v655q0 204 114 322.5t312 118.5q197 0 309.5 -118t112.5 -323v-655q0 -205 -112.5 -322.5t-309.5 -117.5zM616 82q145 0 227.5 90t82.5 248v655q0 157 -82.5 247.5t-227.5 90.5q-146 0 -229.5 -90.5t-83.5 -247.5v-655
q0 -157 83.5 -247.5t229.5 -90.5zM614 651q-46 0 -74 28.5t-28 74.5t28 74t74 28t74.5 -28t28.5 -74t-28.5 -74.5t-74.5 -28.5z" />
    <glyph glyph-name="one" unicode="1" 
d="M1085 0h-880v92h424v1311l-408 -299v115l375 276h135v-1403h354v-92z" />
    <glyph glyph-name="two" unicode="2" 
d="M1085 0h-888v102l475 490q140 144 205 265t65 241q0 151 -90 239t-244 88t-244 -88.5t-90 -240.5h-102q0 192 119 306t317 114q200 0 318 -111.5t118 -300.5q0 -136 -75.5 -276.5t-231.5 -299.5l-428 -436h776v-92z" />
    <glyph glyph-name="three" unicode="3" 
d="M981 1397l-377 -463q185 -5 292.5 -112t107.5 -287v-146q0 -187 -111 -298t-299 -111t-299 111t-111 298h103q0 -149 82 -233t225 -84t225 84.5t82 232.5v146q0 146 -80.5 226.5t-226.5 80.5h-105v88l381 473h-634v92h745v-98z" />
    <glyph glyph-name="four" unicode="4" 
d="M963 0h-103v348h-686v205l586 940h108l-592 -967v-86h584v420h103v-860z" />
    <glyph glyph-name="five" unicode="5" 
d="M655 983q178 0 273.5 -112t95.5 -318v-135q0 -201 -110.5 -319.5t-299.5 -118.5q-180 0 -288.5 96t-120.5 264h102q8 -127 88 -197.5t219 -70.5q146 0 227 91t81 255v135q0 160 -80.5 249t-227.5 89q-107 0 -178.5 -58.5t-97.5 -164.5h-102l10 827h737v-92h-639l-6 -623
q23 93 107.5 148t209.5 55z" />
    <glyph glyph-name="six" unicode="6" 
d="M614 -20q-203 0 -327.5 129.5t-124.5 341.5q0 163 125 380l381 664h114l-420 -702l9 -7q35 42 112 75.5t172 33.5q185 0 298.5 -125.5t113.5 -329.5q0 -205 -125 -331.5t-328 -128.5zM614 72q158 0 254.5 99.5t96.5 268.5q0 162 -97.5 265.5t-253.5 103.5
q-154 0 -251 -103.5t-99 -265.5q-4 -169 92 -268.5t258 -99.5z" />
    <glyph glyph-name="seven" unicode="7" 
d="M539 0h-117l569 1391h-694v-306h-113v410h912v-113z" />
    <glyph glyph-name="eight" unicode="8" 
d="M707 774l16 -8q176 -89 254 -183t78 -223q0 -175 -120.5 -277.5t-320.5 -102.5t-320 102t-120 278q0 130 79.5 226t252.5 180l20 10l-22 10q-293 143 -293 373q0 153 116 255t287 102q114 0 211.5 -47t155 -129.5t57.5 -180.5q0 -113 -80 -208.5t-231 -166.5zM541 858
l75 -39l76 37q126 61 185 133.5t59 163.5q0 119 -91.5 194.5t-230.5 75.5q-135 0 -218 -73.5t-83 -196.5q0 -94 56 -165.5t172 -129.5zM614 72q152 0 245 76.5t93 205.5q0 105 -68.5 191.5t-197.5 150.5l-70 35l-73 -35q-267 -129 -267 -340q0 -130 93 -207t245 -77z" />
    <glyph glyph-name="nine" unicode="9" 
d="M553 0h-115l428 702l-8 7q-36 -44 -113.5 -79.5t-171.5 -35.5q-179 0 -289 124t-110 326q0 211 122 341.5t318 130.5q198 0 319.5 -130t121.5 -342q0 -190 -111 -380zM614 684q151 0 244 99.5t96 263.5q3 170 -90 273t-250 103q-152 0 -245 -103.5t-93 -275.5
q0 -161 93 -260.5t245 -99.5z" />
    <glyph glyph-name="colon" unicode=":" horiz-adv-x="819" 
d="M410 852q-67 0 -108.5 40.5t-41.5 106.5t41.5 107t108.5 41t108 -41t41 -107t-41 -106.5t-108 -40.5zM410 -20q-67 0 -108.5 40.5t-41.5 106.5t41.5 106.5t108.5 40.5t108 -40.5t41 -106.5t-41 -106.5t-108 -40.5z" />
    <glyph glyph-name="semicolon" unicode=";" horiz-adv-x="819" 
d="M420 860h-21q-66 0 -105.5 39.5t-39.5 104.5t39.5 104t105.5 39h21q64 0 103.5 -39.5t39.5 -103.5q0 -65 -39.5 -104.5t-103.5 -39.5zM266 -328h-82l154 637h184z" />
    <glyph glyph-name="less" unicode="&#x3c;" 
d="M1044 272v-108l-860 465v94l860 465v-109l-595 -315q-103 -56 -168 -86q65 -30 168 -86z" />
    <glyph glyph-name="equal" unicode="=" 
d="M1034 862h-839v92h839v-92zM1034 399h-839v93h839v-93z" />
    <glyph glyph-name="greater" unicode="&#x3e;" 
d="M1044 629l-860 -465v108l596 316q103 56 168 86q-65 30 -168 86l-596 319v109l860 -465v-94z" />
    <glyph glyph-name="question" unicode="?" 
d="M596 420h-102v348h102q148 0 231.5 85.5t83.5 231.5q0 145 -89 231.5t-238 86.5h-287v92h287q195 0 312.5 -112t117.5 -298q0 -189 -111.5 -299t-306.5 -110v-256zM545 -10h-10q-51 0 -82 30.5t-31 81.5t31 82t82 31h10q51 0 81.5 -31t30.5 -82t-30.5 -81.5t-81.5 -30.5z
" />
    <glyph glyph-name="at" unicode="@" 
d="M645 1516q216 0 343.5 -141.5t127.5 -381.5v-860h-92v133h-14q-15 -71 -78.5 -112t-157.5 -41q-132 0 -202 81.5t-70 235.5v266q0 145 70 221t202 76q100 0 162 -40t74 -113h14l-10 143v10q0 201 -98.5 316.5t-270.5 115.5q-197 0 -303 -135t-106 -379v-673
q0 -236 114.5 -374t315.5 -138h153v-93h-153q-248 0 -390.5 163.5t-142.5 441.5v673q0 283 135 444t377 161zM1014 430v266q0 98 -53.5 151.5t-151.5 53.5q-205 0 -205 -205v-266q0 -225 205 -225q98 0 151.5 59t53.5 166z" />
    <glyph glyph-name="A" unicode="A" 
d="M242 0h-103l412 1495h127l412 -1495h-107l-115 430h-512zM545 1126l-164 -604h463l-162 604q-49 184 -68 283q-16 -85 -69 -283z" />
    <glyph glyph-name="B" unicode="B" 
d="M788 770q127 -28 198 -122t71 -238q0 -188 -119.5 -299t-321.5 -111h-391v1495h385q186 0 298 -105t112 -280q0 -132 -61.5 -222t-170.5 -118zM610 1401h-282v-586h282q144 0 226 78t82 215q0 136 -82.5 214.5t-225.5 78.5zM328 94h288q157 0 247.5 84t90.5 230
t-90.5 230.5t-247.5 84.5h-288v-629z" />
    <glyph glyph-name="C" unicode="C" 
d="M627 -20q-187 0 -299.5 111.5t-112.5 297.5v717q0 187 112 298.5t300 111.5q190 0 303.5 -117t113.5 -314h-102q0 157 -84.5 247.5t-230.5 90.5q-143 0 -226.5 -85t-83.5 -232v-717q0 -148 82.5 -232.5t227.5 -84.5q147 0 231 90.5t84 247.5h102q0 -196 -113 -313
t-304 -117z" />
    <glyph glyph-name="D" unicode="D" 
d="M553 0h-328v1495h328q207 0 334 -124t127 -327v-593q0 -203 -127 -327t-334 -124zM328 1401v-1307h225q161 0 259.5 98t98.5 259v593q0 160 -99 258.5t-259 98.5h-225z" />
    <glyph glyph-name="E" unicode="E" 
d="M1044 0h-798v1495h798v-94h-696v-576h625v-92h-625v-639h696v-94z" />
    <glyph glyph-name="F" unicode="F" 
d="M338 0h-102v1495h839v-94h-737v-598h666v-94h-666v-709z" />
    <glyph glyph-name="G" unicode="G" 
d="M627 -20q-187 0 -299.5 111.5t-112.5 297.5v717q0 187 112 298.5t300 111.5q190 0 303.5 -117t113.5 -314h-102q0 157 -84.5 247.5t-230.5 90.5q-143 0 -226.5 -85t-83.5 -232v-717q0 -148 82.5 -232.5t227.5 -84.5q147 0 231 90.5t84 247.5v225h-354v94h456v-319
q0 -196 -113 -313t-304 -117z" />
    <glyph glyph-name="H" unicode="H" 
d="M328 0h-103v1495h103v-672h573v672h103v-1495h-103v729h-573v-729z" />
    <glyph glyph-name="I" unicode="I" 
d="M983 0h-737v94h319v1307h-319v94h737v-94h-315v-1307h315v-94z" />
    <glyph glyph-name="J" unicode="J" 
d="M563 -20q-196 0 -308 114.5t-112 315.5h103q0 -158 84.5 -248t232.5 -90t233 90.5t85 245.5v991h-465v96h567v-1087q0 -199 -112.5 -313.5t-307.5 -114.5z" />
    <glyph glyph-name="K" unicode="K" 
d="M328 0h-103v1495h103v-674h313l332 674h112l-352 -715l373 -780h-121l-346 729h-311v-729z" />
    <glyph glyph-name="L" unicode="L" 
d="M1116 0h-829v1495h102v-1401h727v-94z" />
    <glyph glyph-name="M" unicode="M" 
d="M289 0h-101v1495h154l209 -573q34 -87 65 -187q21 68 66 187l207 573h151v-1495h-100v901q0 265 10 543l-278 -778h-113l-283 778q13 -240 13 -543v-901z" />
    <glyph glyph-name="N" unicode="N" 
d="M324 0h-99v1495h140l548 -1382q-8 164 -8 235v1147h99v-1495h-142l-543 1382q5 -98 5 -235v-1147z" />
    <glyph glyph-name="O" unicode="O" 
d="M614 -20q-182 0 -290.5 111t-108.5 298v717q0 186 109 298t290 112t290.5 -112t109.5 -298v-717q0 -187 -108.5 -298t-291.5 -111zM614 70q141 0 219 83.5t78 235.5v717q0 151 -78.5 235t-218.5 84t-218.5 -84t-78.5 -235v-717q0 -152 78 -235.5t219 -83.5z" />
    <glyph glyph-name="P" unicode="P" 
d="M328 0h-103v1495h441q196 0 313 -113.5t117 -302.5t-117.5 -302t-312.5 -113h-338v-664zM328 1401v-643h338q150 0 238.5 87t88.5 234q0 149 -88 235.5t-239 86.5h-338z" />
    <glyph glyph-name="Q" unicode="Q" 
d="M809 20l235 -389h-124l-218 355q-75 -6 -86 -6q-183 0 -292 111.5t-109 297.5v717q0 188 108.5 299t292.5 111q181 0 289.5 -114.5t108.5 -295.5v-717q0 -130 -53.5 -226.5t-151.5 -142.5zM317 1106v-717q0 -150 79 -233.5t220 -83.5q140 0 217.5 83t77.5 234v717
q0 149 -78.5 233t-216.5 84q-141 0 -220 -83.5t-79 -233.5z" />
    <glyph glyph-name="R" unicode="R" 
d="M328 0h-103v1495h420q198 0 314 -111.5t116 -302.5q0 -162 -91.5 -270t-248.5 -131l350 -680h-122l-338 676h-297v-676zM328 1401v-633h317q149 0 238.5 86t89.5 231t-89.5 230.5t-238.5 85.5h-317z" />
    <glyph glyph-name="S" unicode="S" 
d="M625 -20q-207 0 -329 108t-122 291h102q0 -139 95.5 -223t253.5 -84q154 0 240.5 77t86.5 213q0 118 -67.5 206.5t-184.5 123.5l-172 51q-148 44 -230.5 150t-82.5 252q0 170 111.5 270.5t300.5 100.5q187 0 297 -106t110 -288h-102q0 137 -84 219t-223 82
q-143 0 -225.5 -72t-82.5 -198q0 -110 63.5 -193.5t172.5 -117.5l172 -54q153 -47 241.5 -159.5t88.5 -259.5q0 -179 -116 -284t-314 -105z" />
    <glyph glyph-name="T" unicode="T" 
d="M668 0h-103v1403h-442v92h983v-92h-438v-1403z" />
    <glyph glyph-name="U" unicode="U" 
d="M616 -20q-180 0 -287.5 111.5t-107.5 297.5v1106h103v-1106q0 -151 77 -234t215 -83q136 0 212.5 84t76.5 233v1106h103v-1106q0 -186 -107 -297.5t-285 -111.5z" />
    <glyph glyph-name="V" unicode="V" 
d="M680 0h-131l-410 1495h109l303 -1126q34 -122 65 -287q25 131 68 287l305 1126h101z" />
    <glyph glyph-name="W" unicode="W" 
d="M410 0h-144l-184 1495h94l139 -1106l37 -317q7 51 24 169.5t21 147.5l158 1106h131l152 -1106l43 -317q4 29 21 151.5t22 165.5l127 1106h96l-186 -1495h-148l-149 1085q-28 208 -43 328q-33 -215 -48 -328z" />
    <glyph glyph-name="X" unicode="X" 
d="M221 0h-112l444 778l-414 717h115l250 -455q31 -59 110 -190q104 177 111 190l254 455h111l-414 -713l444 -782h-114l-279 516l-111 191q-17 -30 -56.5 -100t-51.5 -91z" />
    <glyph glyph-name="Y" unicode="Y" 
d="M666 0h-103v573l-461 922h107l338 -676l69 -143q45 95 70 143l334 676h106l-460 -922v-573z" />
    <glyph glyph-name="Z" unicode="Z" 
d="M1044 0h-860v102l736 1299h-727v94h825v-117l-729 -1284h755v-94z" />
    <glyph glyph-name="bracketleft" unicode="[" horiz-adv-x="819" 
d="M717 -225h-461v1925h461v-92h-359v-1741h359v-92z" />
    <glyph glyph-name="backslash" unicode="\" 
d="M1034 -225h-110l-729 1925h110z" />
    <glyph glyph-name="bracketright" unicode="]" horiz-adv-x="819" 
d="M563 -225h-461v92h359v1741h-359v92h461v-1925z" />
    <glyph glyph-name="asciicircum" unicode="^" 
d="M324 696h-119l360 799h109l350 -799h-117l-227 533q-40 92 -62 160q-25 -77 -61 -160z" />
    <glyph glyph-name="underscore" unicode="_" 
d="M1106 -143h-983v92h983v-92z" />
    <glyph glyph-name="grave" unicode="`" 
d="M713 1321h-113l-229 287h125z" />
    <glyph glyph-name="a" unicode="a" 
d="M623 1147q173 0 279 -104.5t106 -274.5v-768h-103v180q-32 -93 -126 -146.5t-228 -53.5q-173 0 -278 91.5t-105 243.5q0 145 96 232.5t254 87.5h387v133q0 135 -73.5 210t-208.5 75q-123 0 -203 -60.5t-94 -163.5h-103q20 143 130 230.5t270 87.5zM580 70q146 0 235.5 75
t89.5 197v203h-389q-110 0 -178 -60.5t-68 -160.5q0 -114 85.5 -184t224.5 -70z" />
    <glyph glyph-name="b" unicode="b" 
d="M641 1147q169 0 271 -112.5t102 -297.5v-350q0 -184 -102 -295.5t-271 -111.5q-108 0 -189 46t-118 128h-6v-154h-103v1495h103v-522h6q37 82 118 128t189 46zM911 387v350q0 151 -77 236.5t-213 85.5q-139 0 -216 -85.5t-77 -236.5v-350q0 -151 77.5 -235t215.5 -84
q137 0 213.5 84t76.5 235z" />
    <glyph glyph-name="c" unicode="c" 
d="M618 -20q-186 0 -294.5 110.5t-108.5 298.5v348q0 186 109.5 298t293.5 112q186 0 296 -105.5t110 -283.5h-102q0 138 -81.5 216.5t-222.5 78.5q-140 0 -220.5 -83.5t-80.5 -232.5v-348q0 -147 80.5 -231t220.5 -84q141 0 222.5 78.5t81.5 216.5h102q0 -178 -110 -283.5
t-296 -105.5z" />
    <glyph glyph-name="d" unicode="d" 
d="M901 1495h103v-1495h-103v154h-6q-37 -82 -118 -128t-189 -46q-169 0 -271 111.5t-102 295.5v350q0 185 102 297.5t271 112.5q108 0 189 -46t118 -128h6v522zM608 68q138 0 215.5 84t77.5 235v350q0 151 -77 236.5t-216 85.5q-136 0 -213.5 -85.5t-77.5 -236.5v-350
q0 -150 77 -234.5t214 -84.5z" />
    <glyph glyph-name="e" unicode="e" 
d="M1014 737v-194h-697v-154q0 -149 78.5 -234t220.5 -85q113 0 188 54t105 152h103q-31 -138 -135 -217t-261 -79q-188 0 -294.5 110t-106.5 299v348q0 187 107.5 298.5t293.5 111.5q185 0 291.5 -111.5t106.5 -298.5zM317 737v-106h594v106q0 149 -77.5 234.5t-217.5 85.5
q-143 0 -221 -84.5t-78 -235.5z" />
    <glyph glyph-name="f" unicode="f" horiz-adv-x="1024" 
d="M483 0h-102v920h-264v92h264v227q0 120 70.5 188t195.5 68h252v-92h-252q-78 0 -121 -43t-43 -121v-227h416v-92h-416v-920z" />
    <glyph glyph-name="g" unicode="g" 
d="M901 940v186h103v-1157q0 -167 -89.5 -252.5t-261.5 -85.5h-297v93h297q122 0 185 62t63 183v320q-29 -97 -112 -152t-201 -55q-169 0 -271 111.5t-102 295.5v248q0 185 102 297.5t271 112.5q118 0 201 -55t112 -152zM608 170q138 0 215.5 84t77.5 235v248
q0 151 -77 236.5t-216 85.5q-136 0 -213.5 -85.5t-77.5 -236.5v-248q0 -150 77 -234.5t214 -84.5z" />
    <glyph glyph-name="h" unicode="h" 
d="M641 1147q166 0 266.5 -107t100.5 -288v-752h-103v737q0 152 -75.5 237t-208.5 85q-135 0 -214 -86.5t-79 -235.5v-737h-103v1495h103v-532h8q34 87 113.5 135.5t191.5 48.5z" />
    <glyph glyph-name="i" unicode="i" horiz-adv-x="1024" 
d="M530 1341q-54 0 -86 31t-32 82t32 82t86 31t86.5 -31t32.5 -82t-32.5 -82t-86.5 -31zM897 0h-692v92h307v942h-268v92h370v-1034h283v-92z" />
    <glyph glyph-name="j" unicode="j" horiz-adv-x="819" 
d="M541 1341q-54 0 -86.5 31t-32.5 82t32.5 82t86.5 31t86 -31t32 -82t-32 -82t-86 -31zM205 -369h-137v93h137q145 0 220 75.5t75 220.5v1014h-379v92h481v-1106q0 -183 -105 -286t-292 -103z" />
    <glyph glyph-name="k" unicode="k" 
d="M334 0h-103v1495h103v-862h270l352 493h123l-379 -534l387 -592h-122l-361 541h-270v-541z" />
    <glyph glyph-name="l" unicode="l" horiz-adv-x="819" 
d="M741 0h-155q-138 0 -212.5 71.5t-74.5 204.5v1127h-252v92h354v-1219q0 -91 47 -137.5t138 -46.5h155v-92z" />
    <glyph glyph-name="m" unicode="m" horiz-adv-x="1638" 
d="M1135 1147q136 0 206 -69.5t70 -194.5v-883h-102v870q0 88 -54.5 139.5t-148.5 51.5q-103 0 -169.5 -53t-66.5 -138v-870h-102v870q0 87 -60 139t-155 52q-96 0 -158.5 -52.5t-62.5 -138.5v-870h-103v1126h88v-153h7q11 80 81.5 127t184.5 47q216 0 268 -174
q13 78 90 126t187 48z" />
    <glyph glyph-name="n" unicode="n" 
d="M641 1147q166 0 266.5 -107t100.5 -288v-752h-103v737q0 152 -75.5 237t-208.5 85q-135 0 -214 -86.5t-79 -235.5v-737h-103v1126h103v-192q30 101 111.5 157t201.5 56z" />
    <glyph glyph-name="o" unicode="o" 
d="M614 -20q-182 0 -290.5 111t-108.5 298v348q0 186 109 298t290 112t290.5 -112t109.5 -298v-348q0 -187 -108.5 -298t-291.5 -111zM614 70q141 0 219 83.5t78 235.5v348q0 151 -78.5 235.5t-218.5 84.5t-218.5 -84.5t-78.5 -235.5v-348q0 -152 78 -235.5t219 -83.5z" />
    <glyph glyph-name="p" unicode="p" 
d="M641 1147q169 0 271 -111.5t102 -296.5v-350q0 -184 -103 -296.5t-270 -112.5q-108 0 -189 46t-118 128h-6v-523h-103v1495h103v-153h6q37 82 117 128t190 46zM911 389v350q0 151 -76.5 235.5t-213.5 84.5q-138 0 -215.5 -84.5t-77.5 -235.5v-350q0 -152 77.5 -236.5
t215.5 -84.5q137 0 213.5 84.5t76.5 236.5z" />
    <glyph glyph-name="q" unicode="q" 
d="M901 973v153h103v-1495h-103v523h-6q-37 -82 -118 -128t-189 -46q-169 0 -271 112t-102 297v350q0 185 102 296.5t271 111.5q108 0 189 -46t118 -128h6zM608 68q139 0 216 85t77 236v350q0 151 -77.5 235.5t-215.5 84.5q-137 0 -214 -84.5t-77 -235.5v-350
q0 -151 77 -236t214 -85z" />
    <glyph glyph-name="r" unicode="r" 
d="M672 1147q180 0 284.5 -110.5t104.5 -299.5v-71h-113v71q0 152 -77.5 237t-215.5 85t-215.5 -85t-77.5 -237v-737h-102v1126h102v-182q34 95 115 149t195 54z" />
    <glyph glyph-name="s" unicode="s" 
d="M694 -20h-137q-152 0 -252.5 82t-114.5 214h103q15 -90 87 -147t177 -57h137q112 0 178 58.5t66 156.5q0 88 -53 149.5t-142 73.5l-219 31q-145 20 -224 98t-79 203q0 139 97 222t260 83h86q152 0 249.5 -75.5t112.5 -201.5h-102q-12 81 -83.5 133t-176.5 52h-86
q-116 0 -184 -57t-68 -154q0 -84 55 -136t160 -67l215 -31q129 -19 205.5 -102t76.5 -207q0 -146 -93.5 -233.5t-250.5 -87.5z" />
    <glyph glyph-name="t" unicode="t" horiz-adv-x="1024" 
d="M811 0h-178q-129 0 -197.5 66t-68.5 190v778h-281v92h281v318h102v-318h383v-92h-383v-778q0 -80 42.5 -122t121.5 -42h178v-92z" />
    <glyph glyph-name="u" unicode="u" 
d="M612 -20q-183 0 -287 111t-104 306v729h103v-729q0 -153 76.5 -239t211.5 -86q137 0 215 86t78 239v729h103v-729q0 -194 -106 -305.5t-290 -111.5z" />
    <glyph glyph-name="v" unicode="v" 
d="M678 0h-127l-436 1126h108l328 -839q13 -33 25 -72t24.5 -84.5t15.5 -54.5q27 108 68 211l326 839h104z" />
    <glyph glyph-name="w" unicode="w" 
d="M428 0h-135l-191 1126h97l139 -837q3 -20 24 -217h5q6 88 32 215l164 839h107l164 -839q19 -95 32 -215h4q9 134 23 217l139 837h94l-192 -1126h-135l-142 801q-4 25 -13.5 77t-16 93t-9.5 67h-4q-7 -67 -39 -237z" />
    <glyph glyph-name="x" unicode="x" 
d="M270 0h-116l401 578l-377 548h121l272 -409l45 -72l48 72l270 409h119l-377 -548l399 -578h-119l-288 430l-54 78q-3 -5 -23.5 -34t-29.5 -44z" />
    <glyph glyph-name="y" unicode="y" 
d="M512 -369h-104l165 449l-417 1046h114l279 -716q11 -28 29 -74t30.5 -78.5t18.5 -50.5q8 22 34 96l39 111l261 712h112z" />
    <glyph glyph-name="z" unicode="z" 
d="M1018 0h-807v94l663 940h-645v92h762v-96l-665 -938h692v-92z" />
    <glyph glyph-name="braceleft" unicode="{" 
d="M1004 1608h-113q-98 0 -156.5 -59t-48.5 -156l41 -406q10 -95 -33 -162t-123 -88q79 -19 122.5 -87t33.5 -165l-41 -403q-10 -97 48.5 -156t156.5 -59h113v-92h-113q-151 0 -236.5 82t-70.5 225l41 403q11 112 -32.5 157.5t-172.5 45.5h-236v94h236q126 0 171 45.5
t34 159.5l-41 406q-15 143 70.5 225t236.5 82h113v-92z" />
    <glyph glyph-name="bar" unicode="|" 
d="M666 -225h-103v1925h103v-1925z" />
    <glyph glyph-name="braceright" unicode="}" 
d="M813 782h231v-94h-231q-129 0 -171.5 -45.5t-33.5 -157.5l35 -403q12 -144 -72.5 -225.5t-234.5 -81.5h-111v92h111q97 0 155.5 58.5t49.5 156.5l-35 403q-9 97 34 165t122 87q-78 21 -120.5 88t-35.5 162l35 406q9 98 -49.5 156.5t-155.5 58.5h-111v92h111
q150 0 234.5 -81.5t72.5 -225.5l-35 -406q-9 -115 35.5 -160t169.5 -45z" />
    <glyph glyph-name="asciitilde" unicode="~" 
d="M276 532h-92v154q0 104 57.5 164.5t157.5 60.5q48 0 89 -16t70.5 -42t55.5 -57.5t50.5 -62.5t49.5 -57t57 -42t69 -16q54 0 83 37t29 103v153h92v-153q0 -106 -54 -166t-150 -60q-50 0 -92.5 16t-72.5 42t-56.5 57t-50.5 62.5t-48 57.5t-55 42t-66 16q-58 0 -90.5 -36.5
t-32.5 -102.5v-154z" />
    <glyph glyph-name="uni2421" unicode="&#x2421;" 
d="M174 502h-108v493h108q69 0 110.5 -40.5t41.5 -108.5v-195q0 -68 -41.5 -108.5t-110.5 -40.5zM743 502h-262v493h262v-30h-229v-191h207v-31h-207v-211h229v-30zM1200 502h-274v493h35v-463h239v-30zM100 965v-433h74q54 0 86.5 32.5t32.5 86.5v195q0 54 -33 86.5
t-86 32.5h-74z" />
    <glyph glyph-name="uni2421" 
d="M174 502h-108v493h108q69 0 110.5 -40.5t41.5 -108.5v-195q0 -68 -41.5 -108.5t-110.5 -40.5zM743 502h-262v493h262v-30h-229v-191h207v-31h-207v-211h229v-30zM1200 502h-274v493h35v-463h239v-30zM100 965v-433h74q54 0 86.5 32.5t32.5 86.5v195q0 54 -33 86.5
t-86 32.5h-74z" />
    <glyph glyph-name="uni00A0" unicode="&#xa0;" horiz-adv-x="819" 
 />
    <glyph glyph-name="exclamdown" unicode="&#xa1;" horiz-adv-x="819" 
d="M410 911h-11q-51 0 -81.5 31t-30.5 82t30.5 82t81.5 31h11q51 0 81.5 -31t30.5 -82t-30.5 -82t-81.5 -31zM475 -369h-127v328l33 748h61l33 -748v-328z" />
    <glyph glyph-name="cent" unicode="&#xa2;" 
d="M668 1051v-975q120 14 187 90.5t67 202.5h102q0 -166 -96 -269.5t-260 -117.5v-269h-82v267q-172 11 -271.5 120t-99.5 289v348q0 178 100.5 288.5t270.5 121.5v266h82v-268q164 -14 260 -117.5t96 -269.5h-102q0 126 -67 202.5t-187 90.5zM317 737v-348
q0 -138 71.5 -221t197.5 -92v975q-126 -9 -197.5 -92t-71.5 -222z" />
    <glyph glyph-name="sterling" unicode="&#xa3;" 
d="M266 92h830v-92h-942v102q100 59 182 163t82 216q0 82 -29 174h-235v93h194q-9 17 -42.5 79t-46.5 91t-27.5 86t-14.5 114q0 185 106.5 291.5t290.5 106.5q201 0 320.5 -105t122.5 -285h-103q0 138 -92 217.5t-250 79.5q-135 0 -214 -82.5t-79 -224.5q0 -54 14.5 -109.5
t26.5 -84t46.5 -94t42.5 -80.5h442v-93h-402q31 -88 31 -174q0 -115 -78.5 -222t-175.5 -167z" />
    <glyph glyph-name="currency" unicode="&#xa4;" 
d="M1110 340l-72 -74l-172 172q-111 -78 -250 -78q-142 0 -251 82l-177 -174l-69 70l174 172q-86 114 -86 254q0 142 84 250l-176 176l71 74l179 -179q109 82 251 82t252 -80l174 175l70 -70l-174 -174q88 -109 88 -254q0 -140 -86 -254zM616 459q129 0 216.5 87.5
t87.5 217.5t-87.5 217.5t-216.5 87.5t-216 -87.5t-87 -217.5t87 -217.5t216 -87.5z" />
    <glyph glyph-name="yen" unicode="&#xa5;" 
d="M1020 1495h106l-419 -840h399v-102h-440v-154h440v-102h-440v-297h-103v297h-440v102h440v154h-440v102h399l-420 840h107l338 -676l69 -143q45 95 70 143z" />
    <glyph glyph-name="brokenbar" unicode="&#xa6;" 
d="M666 922h-103v778h103v-778zM666 -225h-103v778h103v-778z" />
    <glyph glyph-name="section" unicode="&#xa7;" 
d="M694 -317h-137q-152 0 -252.5 82.5t-114.5 214.5h103q15 -90 87.5 -147.5t176.5 -57.5h137q112 0 178 58t66 155q0 89 -53.5 157t-141.5 88l-219 52q-142 34 -222.5 121t-80.5 212q0 108 62.5 190.5t165.5 111.5v8q-39 8 -77.5 29t-73 55t-56 85.5t-21.5 112.5
q0 140 97 223t260 83h86q152 0 249.5 -75.5t112.5 -201.5h-102q-12 81 -83 132.5t-177 51.5h-86q-116 0 -184 -57t-68 -154q0 -84 55.5 -141t159.5 -82l215 -51q129 -31 205.5 -119t76.5 -211q0 -111 -60.5 -194t-156.5 -105v-8q83 -22 150 -99.5t67 -197.5
q0 -146 -93.5 -233.5t-250.5 -87.5zM541 385l145 -35q95 -23 173.5 52.5t78.5 189.5q0 90 -54 158t-141 88l-149 34q-97 23 -182.5 -56.5t-85.5 -194.5q0 -86 56.5 -148.5t158.5 -87.5z" />
    <glyph glyph-name="dieresis" unicode="&#xa8;" 
d="M395 1341q-47 0 -76.5 31t-29.5 82t29.5 82t76.5 31t77 -31t30 -82t-30 -82t-77 -31zM836 1341q-49 0 -79 31t-30 82t30 82t79 31q47 0 75.5 -31t28.5 -82t-28.5 -82t-75.5 -31z" />
    <glyph glyph-name="copyright" unicode="&#xa9;" 
d="M614 225q-229 0 -368.5 135t-139.5 357v307q0 222 139.5 357t368.5 135t368.5 -135t139.5 -357v-307q0 -222 -139.5 -357t-368.5 -135zM614 303q188 0 304 114t116 300v307q0 186 -116 300t-304 114t-303.5 -114t-115.5 -300v-307q0 -186 115.5 -300t303.5 -114zM625 502
q-106 0 -171 64.5t-65 170.5v267q0 106 65 170.5t171 64.5q104 0 168.5 -64.5t64.5 -170.5h-92q0 69 -39 111t-102 42q-65 0 -104.5 -42t-39.5 -111v-267q0 -69 39.5 -111t104.5 -42q63 0 102 42t39 111h92q0 -106 -64.5 -170.5t-168.5 -64.5z" />
    <glyph glyph-name="ordfeminine" unicode="&#xaa;" 
d="M625 1516q101 0 163 -51t62 -134v-399h-66v112h-6q-20 -55 -80 -88.5t-137 -33.5q-89 0 -140.5 47t-51.5 127q0 78 53 126t141 48h215v61q0 55 -42 89t-111 34q-60 0 -102.5 -28t-51.5 -74h-72q13 73 75.5 118.5t150.5 45.5zM588 979q86 0 138 43t52 115v71h-215
q-56 0 -89.5 -30.5t-33.5 -81.5q0 -54 40 -85.5t108 -31.5z" />
    <glyph glyph-name="guillemotleft" unicode="&#xab;" 
d="M655 82h-125l-428 491l430 492h123l-426 -487zM1126 82h-125l-428 491l431 492h122l-426 -487z" />
    <glyph glyph-name="logicalnot" unicode="&#xac;" 
d="M1085 440h-102v287h-840v92h942v-379z" />
    <glyph glyph-name="uni00AD" unicode="&#xad;" 
d="M942 631h-655v92h655v-92z" />
    <glyph glyph-name="registered" unicode="&#xae;" 
d="M614 225q-229 0 -368.5 135t-139.5 357v307q0 222 139.5 357t368.5 135t368.5 -135t139.5 -357v-307q0 -222 -139.5 -357t-368.5 -135zM195 1024v-307q0 -186 115.5 -300t303.5 -114t304 114t116 300v307q0 186 -116 300t-304 114t-303.5 -114t-115.5 -300zM502 512h-92
v717h215q99 0 159 -57t60 -152q0 -70 -35.5 -122.5t-97.5 -74.5l139 -311h-98l-129 297h-121v-297zM502 1147v-256h123q63 0 100 34.5t37 92.5q0 60 -37 94.5t-100 34.5h-123z" />
    <glyph glyph-name="macron" unicode="&#xaf;" 
d="M901 1401h-573v88h573v-88z" />
    <glyph glyph-name="degree" unicode="&#xb0;" 
d="M614 922q-134 0 -215.5 82t-81.5 215q0 135 81.5 216t215.5 81t215.5 -82t81.5 -215t-81.5 -215t-215.5 -82zM614 1004q92 0 148.5 59t56.5 156q0 98 -56.5 157.5t-148.5 59.5t-148 -59.5t-56 -157.5q0 -97 56 -156t148 -59z" />
    <glyph glyph-name="plusminus" unicode="&#xb1;" 
d="M1085 0h-942v92h416v553h-416v92h416v430h100v-430h426v-92h-426v-553h426v-92z" />
    <glyph glyph-name="uni00B2" unicode="&#xb2;" 
d="M922 829h-574v105l305 244q68 56 108 125.5t40 132.5q0 94 -51.5 148t-139.5 54t-139 -55.5t-51 -152.5h-92q0 134 76 212t206 78q131 0 207 -74.5t76 -203.5q0 -86 -51.5 -176t-139.5 -158l-251 -197h471v-82z" />
    <glyph glyph-name="uni00B3" unicode="&#xb3;" 
d="M811 1610l-207 -248q120 -7 190 -82t70 -195q0 -126 -76.5 -201t-205.5 -75q-131 0 -209 75t-78 201h92q0 -89 53 -141.5t142 -52.5q87 0 138.5 52.5t51.5 141.5q0 91 -52 145t-138 54h-60v94l203 240h-367v82h453v-90z" />
    <glyph glyph-name="acute" unicode="&#xb4;" 
d="M629 1321h-109l217 287h121z" />
    <glyph glyph-name="uni00B5" unicode="&#xb5;" 
d="M911 389v737h103v-1126h-103v154h-4q-35 -82 -111 -128t-178 -46t-176 46t-110 128h-4v-523h-103v1495h103v-737q0 -152 76 -236.5t214 -84.5t215.5 84.5t77.5 236.5z" />
    <glyph glyph-name="paragraph" unicode="&#xb6;" 
d="M655 -369h-102v1004q-157 0 -252.5 84.5t-95.5 222.5v246q0 138 95.5 222.5t252.5 84.5h102v-1864zM1004 -369h-103v1864h103v-1864z" />
    <glyph glyph-name="periodcentered" unicode="&#xb7;" 
d="M410 543q-69 0 -109.5 41.5t-40.5 111.5q0 69 40.5 109.5t109.5 40.5t109 -40.5t40 -109.5q0 -71 -40 -112t-109 -41z" />
    <glyph glyph-name="cedilla" unicode="&#xb8;" 
d="M594 -399h-164v71h164q48 0 79.5 25.5t31.5 60.5q0 50 -66.5 80.5t-175.5 30.5l72 184h86l-48 -123q39 -2 76.5 -13t72 -31t56 -53t21.5 -75q0 -67 -57 -112t-148 -45z" />
    <glyph glyph-name="uni00B9" unicode="&#xb9;" 
d="M922 829h-574v82h264v717l-247 -194v104l202 162h138v-789h217v-82z" />
    <glyph glyph-name="ordmasculine" unicode="&#xba;" 
d="M614 911q-100 0 -161.5 53.5t-61.5 141.5v215q0 88 61.5 141.5t161.5 53.5t162 -53.5t62 -141.5v-215q0 -88 -62 -141.5t-162 -53.5zM614 973q69 0 111.5 36.5t42.5 96.5v215q0 60 -42.5 96.5t-111.5 36.5t-111 -36.5t-42 -96.5v-215q0 -60 42 -96.5t111 -36.5z" />
    <glyph glyph-name="guillemotright" unicode="&#xbb;" 
d="M225 82h-123l424 489l-424 494h125l428 -492zM696 82h-123l424 489l-424 494h125l428 -492z" />
    <glyph glyph-name="onequarter" unicode="&#xbc;" 
d="M625 866l305 629h94l-725 -1495h-94l401 829h-545v82h244v523q-59 -59 -67 -66l-129 -111v113l145 125h143v-584h228v-45zM1004 225v217h92v-442h-92v143h-369v144l270 379h103l-281 -408v-33h277z" />
    <glyph glyph-name="onehalf" unicode="&#xbd;" 
d="M647 911l283 584h94l-725 -1495h-94l401 829h-528v82h244v523q-52 -52 -68 -66l-129 -111v113l145 125h144v-584h233zM915 82h252v-82h-491v104l235 154q75 50 109.5 98t34.5 103q0 62 -37 98.5t-100 36.5q-67 0 -108.5 -42t-41.5 -110h-92q0 104 66.5 169t175.5 65
q102 0 165.5 -59t63.5 -152q0 -153 -195 -277l-155 -98v-8h118z" />
    <glyph glyph-name="threequarters" unicode="&#xbe;" 
d="M553 1044q0 -101 -65.5 -163t-172.5 -62q-109 0 -175 59t-66 156h92q0 -60 41 -96.5t108 -36.5q66 0 106 39t40 104q0 60 -40 97t-104 37h-61v88l180 147h-319v82h409v-92l-186 -156q95 -8 154 -63t59 -140zM205 0l725 1495h94l-725 -1495h-94zM1004 225v217h92v-442h-92
v143h-369v144l270 379h103l-281 -408v-33h277z" />
    <glyph glyph-name="questiondown" unicode="&#xbf;" 
d="M694 913h-10q-51 0 -82 31t-31 82t31 82t82 31h10q51 0 82 -31t31 -82t-31 -82t-82 -31zM881 -346h-246q-196 0 -313 107t-117 292q0 187 115.5 293.5t312.5 106.5v254h102v-347h-102q-150 0 -238 -81.5t-88 -225.5t88.5 -225.5t239.5 -81.5h246v-92z" />
    <glyph glyph-name="Agrave" unicode="&#xc0;" 
d="M692 1659h-112l-230 287h125zM242 0h-103l412 1495h127l412 -1495h-107l-115 430h-512zM545 1126l-164 -604h463l-162 604q-49 184 -68 283q-16 -85 -69 -283z" />
    <glyph glyph-name="Aacute" unicode="&#xc1;" 
d="M649 1659h-108l217 287h121zM242 0h-103l412 1495h127l412 -1495h-107l-115 430h-512zM545 1126l-164 -604h463l-162 604q-49 184 -68 283q-16 -85 -69 -283z" />
    <glyph glyph-name="Acircumflex" unicode="&#xc2;" 
d="M412 1659h-105l246 287h123l246 -287h-101l-207 223zM242 0h-103l412 1495h127l412 -1495h-107l-115 430h-512zM545 1126l-164 -604h463l-162 604q-49 184 -68 283q-16 -85 -69 -283z" />
    <glyph glyph-name="Atilde" unicode="&#xc3;" 
d="M768 1669q-43 0 -80 19t-63 46.5t-50 55t-50.5 46.5t-53.5 19q-47 0 -74.5 -28.5t-27.5 -75.5v-72h-82v72q0 86 49 135t135 49q43 0 80 -19t63 -46.5t50 -55t50.5 -46.5t53.5 -19q43 0 67.5 28t24.5 76v72h82v-72q0 -86 -46 -135t-128 -49zM242 0h-103l412 1495h127
l412 -1495h-107l-115 430h-512zM545 1126l-164 -604h463l-162 604q-49 184 -68 283q-16 -85 -69 -283z" />
    <glyph glyph-name="Adieresis" unicode="&#xc4;" 
d="M399 1690q-47 0 -76.5 30.5t-29.5 81.5t29.5 82t76.5 31t77 -31t30 -82t-29.5 -81.5t-77.5 -30.5zM840 1690q-50 0 -79.5 30.5t-29.5 81.5t30 82t79 31q47 0 75.5 -31t28.5 -82t-28.5 -81.5t-75.5 -30.5zM242 0h-103l412 1495h127l412 -1495h-107l-115 430h-512z
M545 1126l-164 -604h463l-162 604q-49 184 -68 283q-16 -85 -69 -283z" />
    <glyph glyph-name="Aring" unicode="&#xc5;" 
d="M616 1597q-97 0 -157 56.5t-60 148.5t60 148.5t157 56.5q95 0 154 -56.5t59 -148.5t-59 -148.5t-154 -56.5zM614 1669q60 0 97 36.5t37 96.5t-37 96.5t-97 36.5t-96.5 -36.5t-36.5 -96.5t36.5 -96.5t96.5 -36.5zM242 0h-103l412 1495h127l412 -1495h-107l-115 430h-512z
M545 1126l-164 -604h463l-162 604q-49 184 -68 283q-16 -85 -69 -283z" />
    <glyph glyph-name="AE" unicode="&#xc6;" 
d="M172 0h-102l385 1495h710v-92h-428v-580h355v-92h-355v-639h428v-92h-530v440h-348zM530 1403l-217 -871h322v871h-105z" />
    <glyph glyph-name="Ccedilla" unicode="&#xc7;" 
d="M627 72q147 0 231 90.5t84 247.5h102q0 -189 -105.5 -305t-285.5 -125l-18 -50q53 -3 101.5 -20.5t86 -57t37.5 -94.5q0 -67 -57 -112t-148 -45h-163v71h163q48 0 79.5 25.5t31.5 60.5q0 50 -66.5 80.5t-175.5 30.5l45 113q-163 19 -258.5 128t-95.5 279v717
q0 187 112 298.5t300 111.5q190 0 303.5 -117t113.5 -314h-102q0 157 -84.5 247.5t-230.5 90.5q-143 0 -226.5 -85t-83.5 -232v-717q0 -148 82.5 -232.5t227.5 -84.5z" />
    <glyph glyph-name="Egrave" unicode="&#xc8;" 
d="M733 1659h-112l-230 287h125zM1044 0h-798v1495h798v-94h-696v-576h625v-92h-625v-639h696v-94z" />
    <glyph glyph-name="Eacute" unicode="&#xc9;" 
d="M690 1659h-108l217 287h121zM1044 0h-798v1495h798v-94h-696v-576h625v-92h-625v-639h696v-94z" />
    <glyph glyph-name="Ecircumflex" unicode="&#xca;" 
d="M453 1659h-105l246 287h123l246 -287h-101l-207 223zM1044 0h-798v1495h798v-94h-696v-576h625v-92h-625v-639h696v-94z" />
    <glyph glyph-name="Edieresis" unicode="&#xcb;" 
d="M440 1690q-47 0 -76.5 30.5t-29.5 81.5t29.5 82t76.5 31t77 -31t30 -82t-29.5 -81.5t-77.5 -30.5zM881 1690q-50 0 -79.5 30.5t-29.5 81.5t30 82t79 31q47 0 75.5 -31t28.5 -82t-28.5 -81.5t-75.5 -30.5zM1044 0h-798v1495h798v-94h-696v-576h625v-92h-625v-639h696v-94z
" />
    <glyph glyph-name="Igrave" unicode="&#xcc;" 
d="M692 1659h-112l-230 287h125zM983 0h-737v94h319v1307h-319v94h737v-94h-315v-1307h315v-94z" />
    <glyph glyph-name="Iacute" unicode="&#xcd;" 
d="M649 1659h-108l217 287h121zM983 0h-737v94h319v1307h-319v94h737v-94h-315v-1307h315v-94z" />
    <glyph glyph-name="Icircumflex" unicode="&#xce;" 
d="M412 1659h-105l246 287h123l246 -287h-101l-207 223zM983 0h-737v94h319v1307h-319v94h737v-94h-315v-1307h315v-94z" />
    <glyph glyph-name="Idieresis" unicode="&#xcf;" 
d="M399 1690q-47 0 -76.5 30.5t-29.5 81.5t29.5 82t76.5 31t77 -31t30 -82t-29.5 -81.5t-77.5 -30.5zM840 1690q-50 0 -79.5 30.5t-29.5 81.5t30 82t79 31q47 0 75.5 -31t28.5 -82t-28.5 -81.5t-75.5 -30.5zM983 0h-737v94h319v1307h-319v94h737v-94h-315v-1307h315v-94z
" />
    <glyph glyph-name="Eth" unicode="&#xd0;" 
d="M225 1495h328q207 0 334 -124t127 -327v-593q0 -203 -127 -327t-334 -124h-328v719h-205v90h205v686zM911 451v593q0 160 -99 258.5t-259 98.5h-225v-592h266v-90h-266v-625h225q161 0 259.5 98t98.5 259z" />
    <glyph glyph-name="Ntilde" unicode="&#xd1;" 
d="M768 1669q-43 0 -80 19t-63 46.5t-50 55t-50.5 46.5t-53.5 19q-47 0 -74.5 -28.5t-27.5 -75.5v-72h-82v72q0 86 49 135t135 49q43 0 80 -19t63 -46.5t50 -55t50.5 -46.5t53.5 -19q43 0 67.5 28t24.5 76v72h82v-72q0 -86 -46 -135t-128 -49zM324 0h-99v1495h140l548 -1382
q-8 164 -8 235v1147h99v-1495h-142l-543 1382q5 -98 5 -235v-1147z" />
    <glyph glyph-name="Ograve" unicode="&#xd2;" 
d="M692 1659h-112l-230 287h125zM614 -20q-182 0 -290.5 111t-108.5 298v717q0 186 109 298t290 112t290.5 -112t109.5 -298v-717q0 -187 -108.5 -298t-291.5 -111zM614 70q141 0 219 83.5t78 235.5v717q0 151 -78.5 235t-218.5 84t-218.5 -84t-78.5 -235v-717
q0 -152 78 -235.5t219 -83.5z" />
    <glyph glyph-name="Oacute" unicode="&#xd3;" 
d="M649 1659h-108l217 287h121zM614 -20q-182 0 -290.5 111t-108.5 298v717q0 186 109 298t290 112t290.5 -112t109.5 -298v-717q0 -187 -108.5 -298t-291.5 -111zM614 70q141 0 219 83.5t78 235.5v717q0 151 -78.5 235t-218.5 84t-218.5 -84t-78.5 -235v-717
q0 -152 78 -235.5t219 -83.5z" />
    <glyph glyph-name="Ocircumflex" unicode="&#xd4;" 
d="M412 1659h-105l246 287h123l246 -287h-101l-207 223zM614 -20q-182 0 -290.5 111t-108.5 298v717q0 186 109 298t290 112t290.5 -112t109.5 -298v-717q0 -187 -108.5 -298t-291.5 -111zM614 70q141 0 219 83.5t78 235.5v717q0 151 -78.5 235t-218.5 84t-218.5 -84
t-78.5 -235v-717q0 -152 78 -235.5t219 -83.5z" />
    <glyph glyph-name="Otilde" unicode="&#xd5;" 
d="M768 1669q-43 0 -80 19t-63 46.5t-50 55t-50.5 46.5t-53.5 19q-47 0 -74.5 -28.5t-27.5 -75.5v-72h-82v72q0 86 49 135t135 49q43 0 80 -19t63 -46.5t50 -55t50.5 -46.5t53.5 -19q43 0 67.5 28t24.5 76v72h82v-72q0 -86 -46 -135t-128 -49zM614 -20q-182 0 -290.5 111
t-108.5 298v717q0 186 109 298t290 112t290.5 -112t109.5 -298v-717q0 -187 -108.5 -298t-291.5 -111zM614 70q141 0 219 83.5t78 235.5v717q0 151 -78.5 235t-218.5 84t-218.5 -84t-78.5 -235v-717q0 -152 78 -235.5t219 -83.5z" />
    <glyph glyph-name="Odieresis" unicode="&#xd6;" 
d="M399 1690q-47 0 -76.5 30.5t-29.5 81.5t29.5 82t76.5 31t77 -31t30 -82t-29.5 -81.5t-77.5 -30.5zM840 1690q-50 0 -79.5 30.5t-29.5 81.5t30 82t79 31q47 0 75.5 -31t28.5 -82t-28.5 -81.5t-75.5 -30.5zM614 -20q-182 0 -290.5 111t-108.5 298v717q0 186 109 298
t290 112t290.5 -112t109.5 -298v-717q0 -187 -108.5 -298t-291.5 -111zM614 70q141 0 219 83.5t78 235.5v717q0 151 -78.5 235t-218.5 84t-218.5 -84t-78.5 -235v-717q0 -152 78 -235.5t219 -83.5z" />
    <glyph glyph-name="multiply" unicode="&#xd7;" 
d="M612 604l-311 -311l-72 72l312 311l-312 311l72 72l311 -311l312 311l73 -72l-311 -311l311 -311l-73 -72z" />
    <glyph glyph-name="Oslash" unicode="&#xd8;" 
d="M1028 1536h98l-145 -252q33 -76 33 -178v-717q0 -187 -108.5 -298t-291.5 -111q-195 0 -305 126l-108 -188h-99l154 270q-41 87 -41 201v717q0 186 109 298t290 112q209 0 320 -146zM317 1106v-717q0 -37 7 -84l555 969q-74 151 -265 151q-140 0 -218.5 -84t-78.5 -235z
M911 389v717q0 35 -2 49l-547 -956q72 -129 252 -129q141 0 219 83.5t78 235.5z" />
    <glyph glyph-name="Ugrave" unicode="&#xd9;" 
d="M692 1659h-112l-230 287h125zM616 -20q-180 0 -287.5 111.5t-107.5 297.5v1106h103v-1106q0 -151 77 -234t215 -83q136 0 212.5 84t76.5 233v1106h103v-1106q0 -186 -107 -297.5t-285 -111.5z" />
    <glyph glyph-name="Uacute" unicode="&#xda;" 
d="M649 1659h-108l217 287h121zM616 -20q-180 0 -287.5 111.5t-107.5 297.5v1106h103v-1106q0 -151 77 -234t215 -83q136 0 212.5 84t76.5 233v1106h103v-1106q0 -186 -107 -297.5t-285 -111.5z" />
    <glyph glyph-name="Ucircumflex" unicode="&#xdb;" 
d="M412 1659h-105l246 287h123l246 -287h-101l-207 223zM616 -20q-180 0 -287.5 111.5t-107.5 297.5v1106h103v-1106q0 -151 77 -234t215 -83q136 0 212.5 84t76.5 233v1106h103v-1106q0 -186 -107 -297.5t-285 -111.5z" />
    <glyph glyph-name="Udieresis" unicode="&#xdc;" 
d="M399 1690q-47 0 -76.5 30.5t-29.5 81.5t29.5 82t76.5 31t77 -31t30 -82t-29.5 -81.5t-77.5 -30.5zM840 1690q-50 0 -79.5 30.5t-29.5 81.5t30 82t79 31q47 0 75.5 -31t28.5 -82t-28.5 -81.5t-75.5 -30.5zM616 -20q-180 0 -287.5 111.5t-107.5 297.5v1106h103v-1106
q0 -151 77 -234t215 -83q136 0 212.5 84t76.5 233v1106h103v-1106q0 -186 -107 -297.5t-285 -111.5z" />
    <glyph glyph-name="Yacute" unicode="&#xdd;" 
d="M649 1659h-108l217 287h121zM666 0h-103v573l-461 922h107l338 -676l69 -143q45 95 70 143l334 676h106l-460 -922v-573z" />
    <glyph glyph-name="Thorn" unicode="&#xde;" 
d="M317 0h-102v1495h102v-338h365q186 0 294.5 -102t108.5 -277t-108.5 -277t-294.5 -102h-365v-399zM317 1065v-571h365q140 0 220.5 76t80.5 208q0 133 -80.5 210t-220.5 77h-365z" />
    <glyph glyph-name="germandbls" unicode="&#xdf;" 
d="M786 770q127 -25 198 -115t71 -229q0 -198 -114.5 -312t-315.5 -114h-127v92h127q159 -1 243 82t84 236q0 150 -83.5 230.5t-243.5 80.5h-82v92h82q136 0 216.5 83.5t80.5 219.5q0 142 -78.5 224.5t-218.5 82.5q-135 0 -216 -85t-81 -226v-1112h-103v1112q0 182 110 293
t290 111q186 0 292.5 -105t106.5 -285q0 -134 -65 -230.5t-173 -125.5z" />
    <glyph glyph-name="agrave" unicode="&#xe0;" 
d="M485 1608l217 -287h-112l-230 287h125zM623 1147q173 0 279 -104.5t106 -274.5v-768h-103v180q-32 -93 -126 -146.5t-228 -53.5q-173 0 -278 91.5t-105 243.5q0 145 96 232.5t254 87.5h387v133q0 135 -73.5 210t-208.5 75q-123 0 -203 -60.5t-94 -163.5h-103
q20 143 130 230.5t270 87.5zM580 70q146 0 235.5 75t89.5 197v203h-389q-110 0 -178 -60.5t-68 -160.5q0 -114 85.5 -184t224.5 -70z" />
    <glyph glyph-name="aacute" unicode="&#xe1;" 
d="M788 1608h121l-229 -287h-109zM623 1147q173 0 279 -104.5t106 -274.5v-768h-103v180q-32 -93 -126 -146.5t-228 -53.5q-173 0 -278 91.5t-105 243.5q0 145 96 232.5t254 87.5h387v133q0 135 -73.5 210t-208.5 75q-123 0 -203 -60.5t-94 -163.5h-103q20 143 130 230.5
t270 87.5zM580 70q146 0 235.5 75t89.5 197v203h-389q-110 0 -178 -60.5t-68 -160.5q0 -114 85.5 -184t224.5 -70z" />
    <glyph glyph-name="acircumflex" unicode="&#xe2;" 
d="M831 1321l-206 223l-203 -223h-105l246 287h123l246 -287h-101zM623 1147q173 0 279 -104.5t106 -274.5v-768h-103v180q-32 -93 -126 -146.5t-228 -53.5q-173 0 -278 91.5t-105 243.5q0 145 96 232.5t254 87.5h387v133q0 135 -73.5 210t-208.5 75q-123 0 -203 -60.5
t-94 -163.5h-103q20 143 130 230.5t270 87.5zM580 70q146 0 235.5 75t89.5 197v203h-389q-110 0 -178 -60.5t-68 -160.5q0 -114 85.5 -184t224.5 -70z" />
    <glyph glyph-name="atilde" unicode="&#xe3;" 
d="M379 1413v-72h-82v72q0 86 49 135t135 49q43 0 80 -19t63 -46.5t50 -55t50.5 -46.5t53.5 -19q42 0 67 28.5t25 76.5v71h82v-71q0 -86 -46 -135.5t-128 -49.5q-43 0 -80 19.5t-63 46.5t-50 54.5t-50.5 47t-53.5 19.5q-47 0 -74.5 -28.5t-27.5 -76.5zM623 1147
q173 0 279 -104.5t106 -274.5v-768h-103v180q-32 -93 -126 -146.5t-228 -53.5q-173 0 -278 91.5t-105 243.5q0 145 96 232.5t254 87.5h387v133q0 135 -73.5 210t-208.5 75q-123 0 -203 -60.5t-94 -163.5h-103q20 143 130 230.5t270 87.5zM580 70q146 0 235.5 75t89.5 197
v203h-389q-110 0 -178 -60.5t-68 -160.5q0 -114 85.5 -184t224.5 -70z" />
    <glyph glyph-name="adieresis" unicode="&#xe4;" 
d="M406 1341q-47 0 -77 31t-30 82t30 82t77 31t76.5 -31t29.5 -82t-29.5 -82t-76.5 -31zM846 1341q-49 0 -79 31t-30 82t30 82t79 31q47 0 75.5 -31t28.5 -82t-28.5 -82t-75.5 -31zM623 1147q173 0 279 -104.5t106 -274.5v-768h-103v180q-32 -93 -126 -146.5t-228 -53.5
q-173 0 -278 91.5t-105 243.5q0 145 96 232.5t254 87.5h387v133q0 135 -73.5 210t-208.5 75q-123 0 -203 -60.5t-94 -163.5h-103q20 143 130 230.5t270 87.5zM580 70q146 0 235.5 75t89.5 197v203h-389q-110 0 -178 -60.5t-68 -160.5q0 -114 85.5 -184t224.5 -70z" />
    <glyph glyph-name="aring" unicode="&#xe5;" 
d="M627 1260q-97 0 -157 56t-60 148t60 148.5t157 56.5q95 0 154 -56.5t59 -148.5t-58.5 -148t-154.5 -56zM625 1597q-60 0 -96.5 -36.5t-36.5 -96.5t36.5 -96.5t96.5 -36.5t96.5 36.5t36.5 96.5t-36.5 96.5t-96.5 36.5zM623 1147q173 0 279 -104.5t106 -274.5v-768h-103
v180q-32 -93 -126 -146.5t-228 -53.5q-173 0 -278 91.5t-105 243.5q0 145 96 232.5t254 87.5h387v133q0 135 -73.5 210t-208.5 75q-123 0 -203 -60.5t-94 -163.5h-103q20 143 130 230.5t270 87.5zM580 70q146 0 235.5 75t89.5 197v203h-389q-110 0 -178 -60.5t-68 -160.5
q0 -114 85.5 -184t224.5 -70z" />
    <glyph glyph-name="ae" unicode="&#xe6;" 
d="M356 -20q-126 0 -200 83.5t-74 221.5v94q0 121 71 191.5t195 70.5h221v199q0 94 -54 155.5t-140 61.5q-79 0 -131 -52t-60 -135h-102q11 127 87.5 202t199.5 75q108 0 172.5 -54.5t76.5 -121.5h5q16 67 80 121.5t163 54.5q128 0 204.5 -84t76.5 -223v-291h-475v-262
q0 -95 53.5 -155t140.5 -60q78 0 125.5 50t55.5 134h102q-11 -128 -83 -202t-194 -74q-108 0 -172.5 53.5t-76.5 120.5h-7q-12 -67 -79 -120.5t-181 -53.5zM672 840v-199h372v199q0 94 -51 155.5t-133 61.5t-135 -62t-53 -155zM375 66q84 0 139 62.5t55 158.5v262h-221
q-72 0 -118 -47.5t-46 -122.5v-94q0 -96 52.5 -157.5t138.5 -61.5z" />
    <glyph glyph-name="ccedilla" unicode="&#xe7;" 
d="M618 74q141 0 222.5 78.5t81.5 216.5h102q0 -178 -110 -283.5t-296 -105.5h-22l-18 -50q53 -3 101.5 -20.5t86 -57t37.5 -94.5q0 -67 -57 -112t-148 -45h-164v71h164q48 0 79.5 25.5t31.5 60.5q0 50 -66.5 80.5t-175.5 30.5l47 121q-140 29 -219.5 134.5t-79.5 264.5v348
q0 186 109.5 298t293.5 112q186 0 296 -105.5t110 -283.5h-102q0 138 -81.5 216.5t-222.5 78.5q-140 0 -220.5 -83.5t-80.5 -232.5v-348q0 -147 80.5 -231t220.5 -84z" />
    <glyph glyph-name="egrave" unicode="&#xe8;" 
d="M475 1608l217 -287h-112l-230 287h125zM1014 737v-194h-697v-154q0 -149 78.5 -234t220.5 -85q113 0 188 54t105 152h103q-31 -138 -135 -217t-261 -79q-188 0 -294.5 110t-106.5 299v348q0 187 107.5 298.5t293.5 111.5q185 0 291.5 -111.5t106.5 -298.5zM317 737v-106
h594v106q0 149 -77.5 234.5t-217.5 85.5q-143 0 -221 -84.5t-78 -235.5z" />
    <glyph glyph-name="eacute" unicode="&#xe9;" 
d="M778 1608h121l-229 -287h-109zM1014 737v-194h-697v-154q0 -149 78.5 -234t220.5 -85q113 0 188 54t105 152h103q-31 -138 -135 -217t-261 -79q-188 0 -294.5 110t-106.5 299v348q0 187 107.5 298.5t293.5 111.5q185 0 291.5 -111.5t106.5 -298.5zM317 737v-106h594v106
q0 149 -77.5 234.5t-217.5 85.5q-143 0 -221 -84.5t-78 -235.5z" />
    <glyph glyph-name="ecircumflex" unicode="&#xea;" 
d="M821 1321l-207 223l-202 -223h-105l246 287h123l246 -287h-101zM1014 737v-194h-697v-154q0 -149 78.5 -234t220.5 -85q113 0 188 54t105 152h103q-31 -138 -135 -217t-261 -79q-188 0 -294.5 110t-106.5 299v348q0 187 107.5 298.5t293.5 111.5q185 0 291.5 -111.5
t106.5 -298.5zM317 737v-106h594v106q0 149 -77.5 234.5t-217.5 85.5q-143 0 -221 -84.5t-78 -235.5z" />
    <glyph glyph-name="edieresis" unicode="&#xeb;" 
d="M395 1341q-47 0 -76.5 31t-29.5 82t29.5 82t76.5 31t77 -31t30 -82t-30 -82t-77 -31zM836 1341q-49 0 -79 31t-30 82t30 82t79 31q47 0 75.5 -31t28.5 -82t-28.5 -82t-75.5 -31zM1014 737v-194h-697v-154q0 -149 78.5 -234t220.5 -85q113 0 188 54t105 152h103
q-31 -138 -135 -217t-261 -79q-188 0 -294.5 110t-106.5 299v348q0 187 107.5 298.5t293.5 111.5q185 0 291.5 -111.5t106.5 -298.5zM317 737v-106h594v106q0 149 -77.5 234.5t-217.5 85.5q-143 0 -221 -84.5t-78 -235.5z" />
    <glyph glyph-name="igrave" unicode="&#xec;" horiz-adv-x="1024" 
d="M608 1321h-112l-230 287h125zM897 0h-692v92h307v942h-268v92h370v-1034h283v-92z" />
    <glyph glyph-name="iacute" unicode="&#xed;" horiz-adv-x="1024" 
d="M586 1321h-109l217 287h121zM897 0h-692v92h307v942h-268v92h370v-1034h283v-92z" />
    <glyph glyph-name="icircumflex" unicode="&#xee;" horiz-adv-x="1024" 
d="M328 1321h-105l246 287h123l246 -287h-101l-207 223zM897 0h-692v92h307v942h-268v92h370v-1034h283v-92z" />
    <glyph glyph-name="idieresis" unicode="&#xef;" horiz-adv-x="1024" 
d="M311 1341q-47 0 -76.5 31t-29.5 82t29.5 82t76.5 31t77 -31t30 -82t-30 -82t-77 -31zM752 1341q-49 0 -79 31t-30 82t30 82t79 31q47 0 75.5 -31t28.5 -82t-28.5 -82t-75.5 -31zM897 0h-692v92h307v942h-268v92h370v-1034h283v-92z" />
    <glyph glyph-name="eth" unicode="&#xf0;" 
d="M614 -20q-204 0 -327 125.5t-123 334.5q0 207 116 330t314 123q103 0 187 -56.5t124 -125.5h6q-11 35 -57.5 115t-120.5 180l-151 208l-342 -159v82l297 139l-160 219h135l123 -174l309 143v-82l-264 -122l141 -201q244 -343 244 -623q0 -207 -123 -331.5t-328 -124.5z
M614 82q154 0 246 98t92 262q0 156 -95.5 256.5t-242.5 100.5q-155 0 -246.5 -97.5t-91.5 -261.5t91.5 -261t246.5 -97z" />
    <glyph glyph-name="ntilde" unicode="&#xf1;" 
d="M379 1413v-72h-82v72q0 86 49 135t135 49q43 0 80 -19t63 -46.5t50 -55t50.5 -46.5t53.5 -19q42 0 67 28.5t25 76.5v71h82v-71q0 -86 -46 -135.5t-128 -49.5q-43 0 -80 19.5t-63 46.5t-50 54.5t-50.5 47t-53.5 19.5q-47 0 -74.5 -28.5t-27.5 -76.5zM641 1147
q166 0 266.5 -107t100.5 -288v-752h-103v737q0 152 -75.5 237t-208.5 85q-135 0 -214 -86.5t-79 -235.5v-737h-103v1126h103v-192q30 101 111.5 157t201.5 56z" />
    <glyph glyph-name="ograve" unicode="&#xf2;" 
d="M692 1321h-112l-230 287h125zM614 -20q-182 0 -290.5 111t-108.5 298v348q0 186 109 298t290 112t290.5 -112t109.5 -298v-348q0 -187 -108.5 -298t-291.5 -111zM614 70q141 0 219 83.5t78 235.5v348q0 151 -78.5 235.5t-218.5 84.5t-218.5 -84.5t-78.5 -235.5v-348
q0 -152 78 -235.5t219 -83.5z" />
    <glyph glyph-name="oacute" unicode="&#xf3;" 
d="M670 1321h-109l217 287h121zM614 -20q-182 0 -290.5 111t-108.5 298v348q0 186 109 298t290 112t290.5 -112t109.5 -298v-348q0 -187 -108.5 -298t-291.5 -111zM614 70q141 0 219 83.5t78 235.5v348q0 151 -78.5 235.5t-218.5 84.5t-218.5 -84.5t-78.5 -235.5v-348
q0 -152 78 -235.5t219 -83.5z" />
    <glyph glyph-name="ocircumflex" unicode="&#xf4;" 
d="M412 1321h-105l246 287h123l246 -287h-101l-207 223zM614 -20q-182 0 -290.5 111t-108.5 298v348q0 186 109 298t290 112t290.5 -112t109.5 -298v-348q0 -187 -108.5 -298t-291.5 -111zM614 70q141 0 219 83.5t78 235.5v348q0 151 -78.5 235.5t-218.5 84.5t-218.5 -84.5
t-78.5 -235.5v-348q0 -152 78 -235.5t219 -83.5z" />
    <glyph glyph-name="otilde" unicode="&#xf5;" 
d="M768 1331q-43 0 -80 19.5t-63 46.5t-50 54.5t-50.5 47t-53.5 19.5q-47 0 -74.5 -28.5t-27.5 -76.5v-72h-82v72q0 86 49 135t135 49q43 0 80 -19t63 -46.5t50 -55t50.5 -46.5t53.5 -19q42 0 67 28.5t25 76.5v71h82v-71q0 -86 -46 -135.5t-128 -49.5zM614 -20
q-182 0 -290.5 111t-108.5 298v348q0 186 109 298t290 112t290.5 -112t109.5 -298v-348q0 -187 -108.5 -298t-291.5 -111zM614 70q141 0 219 83.5t78 235.5v348q0 151 -78.5 235.5t-218.5 84.5t-218.5 -84.5t-78.5 -235.5v-348q0 -152 78 -235.5t219 -83.5z" />
    <glyph glyph-name="odieresis" unicode="&#xf6;" 
d="M395 1341q-47 0 -76.5 31t-29.5 82t29.5 82t76.5 31t77 -31t30 -82t-30 -82t-77 -31zM836 1341q-49 0 -79 31t-30 82t30 82t79 31q47 0 75.5 -31t28.5 -82t-28.5 -82t-75.5 -31zM614 -20q-182 0 -290.5 111t-108.5 298v348q0 186 109 298t290 112t290.5 -112t109.5 -298
v-348q0 -187 -108.5 -298t-291.5 -111zM614 70q141 0 219 83.5t78 235.5v348q0 151 -78.5 235.5t-218.5 84.5t-218.5 -84.5t-78.5 -235.5v-348q0 -152 78 -235.5t219 -83.5z" />
    <glyph glyph-name="divide" unicode="&#xf7;" 
d="M614 934q-67 0 -108 40.5t-41 106.5t41 107t108 41t108.5 -41t41.5 -107t-41.5 -106.5t-108.5 -40.5zM1024 633h-819v102h819v-102zM614 135q-67 0 -108 41t-41 107t41 106.5t108 40.5t108.5 -40.5t41.5 -106.5t-41.5 -107t-108.5 -41z" />
    <glyph glyph-name="oslash" unicode="&#xf8;" 
d="M1008 1208h100l-160 -229q66 -97 66 -242v-348q0 -187 -108.5 -298t-291.5 -111q-180 0 -288 108l-105 -149h-100l151 219q-57 97 -57 231v348q0 186 109 298t290 112q171 0 279 -100zM317 737v-348q0 -67 21 -139l500 717q-81 90 -224 90q-140 0 -218.5 -84.5
t-78.5 -235.5zM911 389v348q0 90 -26 152l-502 -721q76 -98 231 -98q141 0 219 83.5t78 235.5z" />
    <glyph glyph-name="ugrave" unicode="&#xf9;" 
d="M692 1321h-112l-230 287h125zM612 -20q-183 0 -287 111t-104 306v729h103v-729q0 -153 76.5 -239t211.5 -86q137 0 215 86t78 239v729h103v-729q0 -194 -106 -305.5t-290 -111.5z" />
    <glyph glyph-name="uacute" unicode="&#xfa;" 
d="M670 1321h-109l217 287h121zM612 -20q-183 0 -287 111t-104 306v729h103v-729q0 -153 76.5 -239t211.5 -86q137 0 215 86t78 239v729h103v-729q0 -194 -106 -305.5t-290 -111.5z" />
    <glyph glyph-name="ucircumflex" unicode="&#xfb;" 
d="M412 1321h-105l246 287h123l246 -287h-101l-207 223zM612 -20q-183 0 -287 111t-104 306v729h103v-729q0 -153 76.5 -239t211.5 -86q137 0 215 86t78 239v729h103v-729q0 -194 -106 -305.5t-290 -111.5z" />
    <glyph glyph-name="udieresis" unicode="&#xfc;" 
d="M395 1341q-47 0 -76.5 31t-29.5 82t29.5 82t76.5 31t77 -31t30 -82t-30 -82t-77 -31zM836 1341q-49 0 -79 31t-30 82t30 82t79 31q47 0 75.5 -31t28.5 -82t-28.5 -82t-75.5 -31zM612 -20q-183 0 -287 111t-104 306v729h103v-729q0 -153 76.5 -239t211.5 -86q137 0 215 86
t78 239v729h103v-729q0 -194 -106 -305.5t-290 -111.5z" />
    <glyph glyph-name="yacute" unicode="&#xfd;" 
d="M670 1321h-109l217 287h121zM512 -369h-104l165 449l-417 1046h114l279 -716q11 -28 29 -74t30.5 -78.5t18.5 -50.5q8 22 34 96l39 111l261 712h112z" />
    <glyph glyph-name="thorn" unicode="&#xfe;" 
d="M641 1147q169 0 271 -112.5t102 -297.5v-350q0 -184 -102 -295.5t-271 -111.5q-108 0 -189 46t-118 128h-6v-523h-103v1864h103v-522h6q37 82 118 128t189 46zM911 387v350q0 151 -77 236.5t-213 85.5q-139 0 -216 -85.5t-77 -236.5v-350q0 -151 77.5 -235t215.5 -84
q137 0 213.5 84t76.5 235z" />
    <glyph glyph-name="ydieresis" unicode="&#xff;" 
d="M395 1341q-47 0 -76.5 31t-29.5 82t29.5 82t76.5 31t77 -31t30 -82t-30 -82t-77 -31zM836 1341q-49 0 -79 31t-30 82t30 82t79 31q47 0 75.5 -31t28.5 -82t-28.5 -82t-75.5 -31zM512 -369h-104l165 449l-417 1046h114l279 -716q11 -28 29 -74t30.5 -78.5t18.5 -50.5
q8 22 34 96l39 111l261 712h112z" />
    <glyph glyph-name="Amacron" unicode="&#x100;" 
d="M901 1749h-573v88h573v-88zM242 0h-103l412 1495h127l412 -1495h-107l-115 430h-512zM545 1126l-164 -604h463l-162 604q-49 184 -68 283q-16 -85 -69 -283z" />
    <glyph glyph-name="amacron" unicode="&#x101;" 
d="M338 1489h573v-88h-573v88zM623 1147q173 0 279 -104.5t106 -274.5v-768h-103v180q-32 -93 -126 -146.5t-228 -53.5q-173 0 -278 91.5t-105 243.5q0 145 96 232.5t254 87.5h387v133q0 135 -73.5 210t-208.5 75q-123 0 -203 -60.5t-94 -163.5h-103q20 143 130 230.5
t270 87.5zM580 70q146 0 235.5 75t89.5 197v203h-389q-110 0 -178 -60.5t-68 -160.5q0 -114 85.5 -184t224.5 -70z" />
    <glyph glyph-name="Abreve" unicode="&#x102;" 
d="M614 1655q-136 0 -216.5 78.5t-80.5 212.5h93q0 -97 54 -153t148 -56q95 0 151 56t56 153h92q0 -134 -80.5 -212.5t-216.5 -78.5zM242 0h-103l412 1495h127l412 -1495h-107l-115 430h-512zM545 1126l-164 -604h463l-162 604q-49 184 -68 283q-16 -85 -69 -283z" />
    <glyph glyph-name="abreve" unicode="&#x103;" 
d="M625 1317q-136 0 -216.5 78.5t-80.5 212.5h92q0 -97 54.5 -153t148.5 -56q95 0 150.5 56t55.5 153h93q0 -134 -80.5 -212.5t-216.5 -78.5zM623 1147q173 0 279 -104.5t106 -274.5v-768h-103v180q-32 -93 -126 -146.5t-228 -53.5q-173 0 -278 91.5t-105 243.5
q0 145 96 232.5t254 87.5h387v133q0 135 -73.5 210t-208.5 75q-123 0 -203 -60.5t-94 -163.5h-103q20 143 130 230.5t270 87.5zM580 70q146 0 235.5 75t89.5 197v203h-389q-110 0 -178 -60.5t-68 -160.5q0 -114 85.5 -184t224.5 -70z" />
    <glyph glyph-name="Aogonek" unicode="&#x104;" 
d="M1040 -313h131v-86h-149q-85 0 -133.5 43.5t-48.5 119.5q0 120 143 238l-115 428h-512l-114 -430h-103l412 1495h127l412 -1495h-29q-58 -55 -91.5 -111.5t-33.5 -99.5q0 -48 27.5 -75t76.5 -27zM545 1126l-164 -604h463l-162 604q-49 184 -68 283q-16 -85 -69 -283z" />
    <glyph glyph-name="aogonek" unicode="&#x105;" 
d="M987 -313h131v-86h-149q-85 0 -134 43.5t-49 119.5q0 57 38 119.5t104 116.5h-23v180q-32 -93 -126 -146.5t-228 -53.5q-173 0 -278 91.5t-105 243.5q0 145 96 232.5t254 87.5h387v133q0 135 -73.5 210t-208.5 75q-123 0 -203 -60.5t-94 -163.5h-103q20 143 130 230.5
t270 87.5q173 0 279 -104.5t106 -274.5v-768q-58 -55 -91.5 -111.5t-33.5 -99.5q0 -48 27.5 -75t76.5 -27zM580 70q146 0 235.5 75t89.5 197v203h-389q-110 0 -178 -60.5t-68 -160.5q0 -114 85.5 -184t224.5 -70z" />
    <glyph glyph-name="Cacute" unicode="&#x106;" 
d="M659 1659h-108l217 287h121zM627 -20q-187 0 -299.5 111.5t-112.5 297.5v717q0 187 112 298.5t300 111.5q190 0 303.5 -117t113.5 -314h-102q0 157 -84.5 247.5t-230.5 90.5q-143 0 -226.5 -85t-83.5 -232v-717q0 -148 82.5 -232.5t227.5 -84.5q147 0 231 90.5t84 247.5
h102q0 -196 -113 -313t-304 -117z" />
    <glyph glyph-name="cacute" unicode="&#x107;" 
d="M674 1321h-109l217 287h121zM618 -20q-186 0 -294.5 110.5t-108.5 298.5v348q0 186 109.5 298t293.5 112q186 0 296 -105.5t110 -283.5h-102q0 138 -81.5 216.5t-222.5 78.5q-140 0 -220.5 -83.5t-80.5 -232.5v-348q0 -147 80.5 -231t220.5 -84q141 0 222.5 78.5
t81.5 216.5h102q0 -178 -110 -283.5t-296 -105.5z" />
    <glyph glyph-name="Ccircumflex" unicode="&#x108;" 
d="M422 1659h-105l246 287h123l246 -287h-101l-206 223zM627 -20q-187 0 -299.5 111.5t-112.5 297.5v717q0 187 112 298.5t300 111.5q190 0 303.5 -117t113.5 -314h-102q0 157 -84.5 247.5t-230.5 90.5q-143 0 -226.5 -85t-83.5 -232v-717q0 -148 82.5 -232.5t227.5 -84.5
q147 0 231 90.5t84 247.5h102q0 -196 -113 -313t-304 -117z" />
    <glyph glyph-name="ccircumflex" unicode="&#x109;" 
d="M416 1321h-105l246 287h123l246 -287h-101l-207 223zM618 -20q-186 0 -294.5 110.5t-108.5 298.5v348q0 186 109.5 298t293.5 112q186 0 296 -105.5t110 -283.5h-102q0 138 -81.5 216.5t-222.5 78.5q-140 0 -220.5 -83.5t-80.5 -232.5v-348q0 -147 80.5 -231t220.5 -84
q141 0 222.5 78.5t81.5 216.5h102q0 -178 -110 -283.5t-296 -105.5z" />
    <glyph glyph-name="Cdotaccent" unicode="&#x10a;" 
d="M625 1690q-54 0 -86.5 30.5t-32.5 81.5t32.5 82t86.5 31t86 -31t32 -82t-32 -81.5t-86 -30.5zM627 -20q-187 0 -299.5 111.5t-112.5 297.5v717q0 187 112 298.5t300 111.5q190 0 303.5 -117t113.5 -314h-102q0 157 -84.5 247.5t-230.5 90.5q-143 0 -226.5 -85t-83.5 -232
v-717q0 -148 82.5 -232.5t227.5 -84.5q147 0 231 90.5t84 247.5h102q0 -196 -113 -313t-304 -117z" />
    <glyph glyph-name="cdotaccent" unicode="&#x10b;" 
d="M618 1341q-54 0 -86 31t-32 82t32 82t86 31t86.5 -31t32.5 -82t-32.5 -82t-86.5 -31zM618 -20q-186 0 -294.5 110.5t-108.5 298.5v348q0 186 109.5 298t293.5 112q186 0 296 -105.5t110 -283.5h-102q0 138 -81.5 216.5t-222.5 78.5q-140 0 -220.5 -83.5t-80.5 -232.5
v-348q0 -147 80.5 -231t220.5 -84q141 0 222.5 78.5t81.5 216.5h102q0 -178 -110 -283.5t-296 -105.5z" />
    <glyph glyph-name="Ccaron" unicode="&#x10c;" 
d="M686 1659h-123l-246 287h105l207 -224l205 224h98zM627 -20q-187 0 -299.5 111.5t-112.5 297.5v717q0 187 112 298.5t300 111.5q190 0 303.5 -117t113.5 -314h-102q0 157 -84.5 247.5t-230.5 90.5q-143 0 -226.5 -85t-83.5 -232v-717q0 -148 82.5 -232.5t227.5 -84.5
q147 0 231 90.5t84 247.5h102q0 -196 -113 -313t-304 -117z" />
    <glyph glyph-name="ccaron" unicode="&#x10d;" 
d="M680 1321h-123l-246 287h105l207 -224l204 224h99zM618 -20q-186 0 -294.5 110.5t-108.5 298.5v348q0 186 109.5 298t293.5 112q186 0 296 -105.5t110 -283.5h-102q0 138 -81.5 216.5t-222.5 78.5q-140 0 -220.5 -83.5t-80.5 -232.5v-348q0 -147 80.5 -231t220.5 -84
q141 0 222.5 78.5t81.5 216.5h102q0 -178 -110 -283.5t-296 -105.5z" />
    <glyph glyph-name="Dcaron" unicode="&#x10e;" 
d="M676 1659h-123l-246 287h105l206 -224l205 224h99zM553 0h-328v1495h328q207 0 334 -124t127 -327v-593q0 -203 -127 -327t-334 -124zM328 1401v-1307h225q161 0 259.5 98t98.5 259v593q0 160 -99 258.5t-259 98.5h-225z" />
    <glyph glyph-name="dcaron" unicode="&#x10f;" 
d="M829 973v522h103v-1495h-103v154h-4q-32 -82 -107.5 -128t-180.5 -46q-162 0 -257.5 110t-95.5 297v350q0 189 95.5 299.5t257.5 110.5q105 0 180.5 -46t107.5 -128h4zM1044 1126l21 369h102l-30 -369h-93zM557 68q126 0 199 85.5t73 233.5v350q0 148 -73 235t-199 87
q-124 0 -197 -87t-73 -235v-350q0 -148 72.5 -233.5t197.5 -85.5z" />
    <glyph glyph-name="Dcroat" unicode="&#x110;" 
d="M225 1495h328q207 0 334 -124t127 -327v-593q0 -203 -127 -327t-334 -124h-328v719h-205v90h205v686zM911 451v593q0 160 -99 258.5t-259 98.5h-225v-592h266v-90h-266v-625h225q161 0 259.5 98t98.5 259z" />
    <glyph glyph-name="dcroat" unicode="&#x111;" 
d="M1004 1292h204v-92h-204v-1200h-103v154h-6q-37 -82 -118 -128t-189 -46q-169 0 -271 111.5t-102 295.5v227q0 185 102 297.5t271 112.5q108 0 189 -46t118 -128h6v350h-369v92h369v203h103v-203zM608 68q138 0 215.5 84t77.5 235v227q0 151 -77 236.5t-216 85.5
q-136 0 -213.5 -85.5t-77.5 -236.5v-227q0 -150 77 -234.5t214 -84.5z" />
    <glyph glyph-name="Emacron" unicode="&#x112;" 
d="M942 1749h-573v88h573v-88zM1044 0h-798v1495h798v-94h-696v-576h625v-92h-625v-639h696v-94z" />
    <glyph glyph-name="emacron" unicode="&#x113;" 
d="M328 1489h573v-88h-573v88zM1014 737v-194h-697v-154q0 -149 78.5 -234t220.5 -85q113 0 188 54t105 152h103q-31 -138 -135 -217t-261 -79q-188 0 -294.5 110t-106.5 299v348q0 187 107.5 298.5t293.5 111.5q185 0 291.5 -111.5t106.5 -298.5zM317 737v-106h594v106
q0 149 -77.5 234.5t-217.5 85.5q-143 0 -221 -84.5t-78 -235.5z" />
    <glyph glyph-name="Ebreve" unicode="&#x114;" 
d="M655 1655q-136 0 -216.5 78.5t-80.5 212.5h93q0 -97 54 -153t148 -56q95 0 151 56t56 153h92q0 -134 -80.5 -212.5t-216.5 -78.5zM1044 0h-798v1495h798v-94h-696v-576h625v-92h-625v-639h696v-94z" />
    <glyph glyph-name="ebreve" unicode="&#x115;" 
d="M614 1317q-136 0 -216.5 78.5t-80.5 212.5h93q0 -97 54 -153t148 -56q95 0 151 56t56 153h92q0 -134 -80.5 -212.5t-216.5 -78.5zM1014 737v-194h-697v-154q0 -149 78.5 -234t220.5 -85q113 0 188 54t105 152h103q-31 -138 -135 -217t-261 -79q-188 0 -294.5 110
t-106.5 299v348q0 187 107.5 298.5t293.5 111.5q185 0 291.5 -111.5t106.5 -298.5zM317 737v-106h594v106q0 149 -77.5 234.5t-217.5 85.5q-143 0 -221 -84.5t-78 -235.5z" />
    <glyph glyph-name="Edotaccent" unicode="&#x116;" 
d="M655 1690q-54 0 -86 30.5t-32 81.5t32 82t86 31t86.5 -31t32.5 -82t-32.5 -81.5t-86.5 -30.5zM1044 0h-798v1495h798v-94h-696v-576h625v-92h-625v-639h696v-94z" />
    <glyph glyph-name="edotaccent" unicode="&#x117;" 
d="M614 1341q-54 0 -86 31t-32 82t32 82t86 31t86.5 -31t32.5 -82t-32.5 -82t-86.5 -31zM1014 737v-194h-697v-154q0 -149 78.5 -234t220.5 -85q113 0 188 54t105 152h103q-31 -138 -135 -217t-261 -79q-188 0 -294.5 110t-106.5 299v348q0 187 107.5 298.5t293.5 111.5
q185 0 291.5 -111.5t106.5 -298.5zM317 737v-106h594v106q0 149 -77.5 234.5t-217.5 85.5q-143 0 -221 -84.5t-78 -235.5z" />
    <glyph glyph-name="Eogonek" unicode="&#x118;" 
d="M924 -313h131v-86h-150q-85 0 -133.5 43.5t-48.5 119.5q0 57 37.5 119.5t103.5 116.5h-618v1495h798v-94h-696v-576h625v-92h-625v-639h696v-94h-100q-58 -55 -91.5 -111.5t-33.5 -99.5q0 -47 28 -74.5t77 -27.5z" />
    <glyph glyph-name="eogonek" unicode="&#x119;" 
d="M1014 737v-194h-697v-154q0 -149 78.5 -234t220.5 -85q113 0 188 54t105 152h103q-36 -149 -148 -227l-55 -49q-58 -55 -91.5 -111.5t-33.5 -99.5q0 -48 27.5 -75t76.5 -27h132v-86h-150q-85 0 -133.5 43.5t-48.5 119.5q0 103 129 226q-52 -10 -101 -10
q-188 0 -294.5 110t-106.5 299v348q0 187 107.5 298.5t293.5 111.5q185 0 291.5 -111.5t106.5 -298.5zM317 737v-106h594v106q0 149 -77.5 234.5t-217.5 85.5q-143 0 -221 -84.5t-78 -235.5z" />
    <glyph glyph-name="Ecaron" unicode="&#x11a;" 
d="M717 1659h-123l-246 287h105l206 -224l205 224h99zM1044 0h-798v1495h798v-94h-696v-576h625v-92h-625v-639h696v-94z" />
    <glyph glyph-name="ecaron" unicode="&#x11b;" 
d="M922 1608l-246 -287h-123l-246 287h105l206 -224l205 224h99zM1014 737v-194h-697v-154q0 -149 78.5 -234t220.5 -85q113 0 188 54t105 152h103q-31 -138 -135 -217t-261 -79q-188 0 -294.5 110t-106.5 299v348q0 187 107.5 298.5t293.5 111.5q185 0 291.5 -111.5
t106.5 -298.5zM317 737v-106h594v106q0 149 -77.5 234.5t-217.5 85.5q-143 0 -221 -84.5t-78 -235.5z" />
    <glyph glyph-name="Gcircumflex" unicode="&#x11c;" 
d="M424 1659h-105l246 287h123l246 -287h-100l-207 223zM627 -20q-187 0 -299.5 111.5t-112.5 297.5v717q0 187 112 298.5t300 111.5q190 0 303.5 -117t113.5 -314h-102q0 157 -84.5 247.5t-230.5 90.5q-143 0 -226.5 -85t-83.5 -232v-717q0 -148 82.5 -232.5t227.5 -84.5
q147 0 231 90.5t84 247.5v225h-354v94h456v-319q0 -196 -113 -313t-304 -117z" />
    <glyph glyph-name="gcircumflex" unicode="&#x11d;" 
d="M815 1321l-207 223l-202 -223h-105l246 287h123l245 -287h-100zM901 940v186h103v-1157q0 -167 -89.5 -252.5t-261.5 -85.5h-297v93h297q122 0 185 62t63 183v320q-29 -97 -112 -152t-201 -55q-169 0 -271 111.5t-102 295.5v248q0 185 102 297.5t271 112.5q118 0 201 -55
t112 -152zM608 170q138 0 215.5 84t77.5 235v248q0 151 -77 236.5t-216 85.5q-136 0 -213.5 -85.5t-77.5 -236.5v-248q0 -150 77 -234.5t214 -84.5z" />
    <glyph glyph-name="Gbreve" unicode="&#x11e;" 
d="M627 1655q-136 0 -216.5 78.5t-80.5 212.5h92q0 -97 54.5 -153t148.5 -56q95 0 150.5 56t55.5 153h93q0 -134 -80.5 -212.5t-216.5 -78.5zM627 -20q-187 0 -299.5 111.5t-112.5 297.5v717q0 187 112 298.5t300 111.5q190 0 303.5 -117t113.5 -314h-102q0 157 -84.5 247.5
t-230.5 90.5q-143 0 -226.5 -85t-83.5 -232v-717q0 -148 82.5 -232.5t227.5 -84.5q147 0 231 90.5t84 247.5v225h-354v94h456v-319q0 -196 -113 -313t-304 -117z" />
    <glyph glyph-name="gbreve" unicode="&#x11f;" 
d="M608 1317q-136 0 -216.5 78.5t-80.5 212.5h92q0 -97 54.5 -153t148.5 -56q95 0 151 56t56 153h92q0 -134 -80.5 -212.5t-216.5 -78.5zM901 940v186h103v-1157q0 -167 -89.5 -252.5t-261.5 -85.5h-297v93h297q122 0 185 62t63 183v320q-29 -97 -112 -152t-201 -55
q-169 0 -271 111.5t-102 295.5v248q0 185 102 297.5t271 112.5q118 0 201 -55t112 -152zM608 170q138 0 215.5 84t77.5 235v248q0 151 -77 236.5t-216 85.5q-136 0 -213.5 -85.5t-77.5 -236.5v-248q0 -150 77 -234.5t214 -84.5z" />
    <glyph glyph-name="Gdotaccent" unicode="&#x120;" 
d="M627 1690q-54 0 -86.5 30.5t-32.5 81.5t32.5 82t86.5 31t86 -31t32 -82t-32 -81.5t-86 -30.5zM627 -20q-187 0 -299.5 111.5t-112.5 297.5v717q0 187 112 298.5t300 111.5q190 0 303.5 -117t113.5 -314h-102q0 157 -84.5 247.5t-230.5 90.5q-143 0 -226.5 -85t-83.5 -232
v-717q0 -148 82.5 -232.5t227.5 -84.5q147 0 231 90.5t84 247.5v225h-354v94h456v-319q0 -196 -113 -313t-304 -117z" />
    <glyph glyph-name="gdotaccent" unicode="&#x121;" 
d="M608 1341q-54 0 -86.5 31t-32.5 82t32.5 82t86.5 31t86.5 -31t32.5 -82t-32.5 -82t-86.5 -31zM901 940v186h103v-1157q0 -167 -89.5 -252.5t-261.5 -85.5h-297v93h297q122 0 185 62t63 183v320q-29 -97 -112 -152t-201 -55q-169 0 -271 111.5t-102 295.5v248
q0 185 102 297.5t271 112.5q118 0 201 -55t112 -152zM608 170q138 0 215.5 84t77.5 235v248q0 151 -77 236.5t-216 85.5q-136 0 -213.5 -85.5t-77.5 -236.5v-248q0 -150 77 -234.5t214 -84.5z" />
    <glyph glyph-name="uni0122" unicode="&#x122;" 
d="M627 -20q-187 0 -299.5 111.5t-112.5 297.5v717q0 187 112 298.5t300 111.5q190 0 303.5 -117t113.5 -314h-102q0 157 -84.5 247.5t-230.5 90.5q-143 0 -226.5 -85t-83.5 -232v-717q0 -148 82.5 -232.5t227.5 -84.5q147 0 231 90.5t84 247.5v225h-354v94h456v-319
q0 -196 -113 -313t-304 -117zM555 -492h-102l184 297h133z" />
    <glyph glyph-name="uni0123" unicode="&#x123;" 
d="M721 1802h92l-195 -481h-133zM901 940v186h103v-1157q0 -167 -89.5 -252.5t-261.5 -85.5h-297v93h297q122 0 185 62t63 183v320q-29 -97 -112 -152t-201 -55q-169 0 -271 111.5t-102 295.5v248q0 185 102 297.5t271 112.5q118 0 201 -55t112 -152zM608 170
q138 0 215.5 84t77.5 235v248q0 151 -77 236.5t-216 85.5q-136 0 -213.5 -85.5t-77.5 -236.5v-248q0 -150 77 -234.5t214 -84.5z" />
    <glyph glyph-name="Hcircumflex" unicode="&#x124;" 
d="M412 1659h-105l246 287h123l246 -287h-101l-207 223zM328 0h-103v1495h103v-672h573v672h103v-1495h-103v729h-573v-729z" />
    <glyph glyph-name="hcircumflex" unicode="&#x125;" 
d="M614 1649h-100l-207 223l-203 -223h-104l246 286h123zM641 1147q166 0 266.5 -107t100.5 -288v-752h-103v737q0 152 -75.5 237t-208.5 85q-135 0 -214 -86.5t-79 -235.5v-737h-103v1495h103v-532h8q34 87 113.5 135.5t191.5 48.5z" />
    <glyph glyph-name="Hbar" unicode="&#x126;" 
d="M1004 1196h204v-90h-204v-1106h-103v729h-573v-729h-103v1106h-205v90h205v299h103v-299h573v299h103v-299zM328 823h573v283h-573v-283z" />
    <glyph glyph-name="hbar" unicode="&#x127;" 
d="M225 1200h-207v92h207v203h103v-203h366v-92h-366v-360h8q34 87 113.5 135.5t191.5 48.5q166 0 266.5 -107t100.5 -288v-629h-103v614q0 152 -75.5 237t-208.5 85q-135 0 -214 -86.5t-79 -235.5v-614h-103v1200z" />
    <glyph glyph-name="Itilde" unicode="&#x128;" 
d="M768 1669q-43 0 -80 19t-63 46.5t-50 55t-50.5 46.5t-53.5 19q-47 0 -74.5 -28.5t-27.5 -75.5v-72h-82v72q0 86 49 135t135 49q43 0 80 -19t63 -46.5t50 -55t50.5 -46.5t53.5 -19q43 0 67.5 28t24.5 76v72h82v-72q0 -86 -46 -135t-128 -49zM983 0h-737v94h319v1307h-319
v94h737v-94h-315v-1307h315v-94z" />
    <glyph glyph-name="itilde" unicode="&#x129;" 
d="M684 1331q-43 0 -80 19.5t-63 46.5t-50 54.5t-50.5 47t-53.5 19.5q-47 0 -74.5 -28.5t-27.5 -76.5v-72h-82v72q0 86 49 135t135 49q43 0 80 -19t63 -46.5t50 -55t50.5 -46.5t53.5 -19q42 0 67 28.5t25 76.5v71h82v-71q0 -86 -46 -135.5t-128 -49.5zM897 0h-692v92h307
v942h-268v92h370v-1034h283v-92z" />
    <glyph glyph-name="Imacron" unicode="&#x12a;" 
d="M901 1749h-573v88h573v-88zM983 0h-737v94h319v1307h-319v94h737v-94h-315v-1307h315v-94z" />
    <glyph glyph-name="imacron" unicode="&#x12b;" horiz-adv-x="1024" 
d="M817 1401h-573v88h573v-88zM897 0h-692v92h307v942h-268v92h370v-1034h283v-92z" />
    <glyph glyph-name="Ibreve" unicode="&#x12c;" 
d="M614 1655q-136 0 -216.5 78.5t-80.5 212.5h93q0 -97 54 -153t148 -56q95 0 151 56t56 153h92q0 -134 -80.5 -212.5t-216.5 -78.5zM983 0h-737v94h319v1307h-319v94h737v-94h-315v-1307h315v-94z" />
    <glyph glyph-name="ibreve" unicode="&#x12d;" 
d="M530 1317q-136 0 -216.5 78.5t-80.5 212.5h93q0 -97 54 -153t148 -56q95 0 151 56t56 153h92q0 -134 -80.5 -212.5t-216.5 -78.5zM897 0h-692v92h307v942h-268v92h370v-1034h283v-92z" />
    <glyph glyph-name="Iogonek" unicode="&#x12e;" 
d="M983 1495v-94h-315v-1307h315v-94h-326q-58 -55 -91.5 -111.5t-33.5 -99.5q0 -47 28 -74.5t77 -27.5h131v-86h-150q-85 0 -133.5 43.5t-48.5 119.5q0 57 38 119.5t104 116.5h-332v94h319v1307h-319v94h737z" />
    <glyph glyph-name="iogonek" unicode="&#x12f;" horiz-adv-x="1024" 
d="M530 1341q-54 0 -86 31t-32 82t32 82t86 31t86.5 -31t32.5 -82t-32.5 -82t-86.5 -31zM897 0h-291q-58 -55 -91.5 -111.5t-33.5 -99.5q0 -47 28 -74.5t77 -27.5h131v-86h-150q-85 0 -133.5 43.5t-48.5 119.5q0 57 37.5 119.5t103.5 116.5h-321v92h307v942h-268v92h370
v-1034h283v-92z" />
    <glyph glyph-name="Idotaccent" unicode="&#x130;" 
d="M614 1690q-54 0 -86 30.5t-32 81.5t32 82t86 31t86.5 -31t32.5 -82t-32.5 -81.5t-86.5 -30.5zM983 0h-737v94h319v1307h-319v94h737v-94h-315v-1307h315v-94z" />
    <glyph glyph-name="dotlessi" unicode="&#x131;" horiz-adv-x="1024" 
d="M897 0h-692v92h307v942h-268v92h370v-1034h283v-92z" />
    <glyph glyph-name="Jcircumflex" unicode="&#x134;" 
d="M535 1659h-105l246 287h123l245 -287h-100l-207 223zM563 -20q-196 0 -308 114.5t-112 315.5h103q0 -158 84.5 -248t232.5 -90t233 90.5t85 245.5v991h-465v96h567v-1087q0 -199 -112.5 -313.5t-307.5 -114.5z" />
    <glyph glyph-name="jcircumflex" unicode="&#x135;" horiz-adv-x="819" 
d="M197 1321h-105l246 287h123l246 -287h-101l-207 223zM205 -369h-137v93h137q145 0 220 75.5t75 220.5v1014h-379v92h481v-1106q0 -183 -105 -286t-292 -103z" />
    <glyph glyph-name="uni0136" unicode="&#x136;" 
d="M328 0h-103v1495h103v-674h313l332 674h112l-352 -715l373 -780h-121l-346 729h-311v-729zM543 -492h-103l185 297h133z" />
    <glyph glyph-name="uni0137" unicode="&#x137;" 
d="M334 0h-103v1495h103v-862h270l352 493h123l-379 -534l387 -592h-122l-361 541h-270v-541zM543 -492h-103l185 297h133z" />
    <glyph glyph-name="kgreenlandic" unicode="&#x138;" 
d="M334 0h-103v1126h103v-493h270l352 493h123l-379 -534l387 -592h-122l-361 541h-270v-541z" />
    <glyph glyph-name="Lacute" unicode="&#x139;" 
d="M375 1659h-109l217 287h121zM1116 0h-829v1495h102v-1401h727v-94z" />
    <glyph glyph-name="lacute" unicode="&#x13a;" horiz-adv-x="819" 
d="M344 1659h-108l217 287h120zM741 0h-155q-138 0 -212.5 71.5t-74.5 204.5v1127h-252v92h354v-1219q0 -91 47 -137.5t138 -46.5h155v-92z" />
    <glyph glyph-name="uni013B" unicode="&#x13b;" 
d="M1116 0h-829v1495h102v-1401h727v-94zM625 -492h-103l185 297h133z" />
    <glyph glyph-name="uni013C" unicode="&#x13c;" horiz-adv-x="819" 
d="M741 0h-155q-138 0 -212.5 71.5t-74.5 204.5v1127h-252v92h354v-1219q0 -91 47 -137.5t138 -46.5h155v-92zM381 -492h-102l184 297h133z" />
    <glyph glyph-name="Lcaron" unicode="&#x13d;" 
d="M1311 1495h-82l20 369h103zM1116 0h-829v1495h102v-1401h727v-94z" />
    <glyph glyph-name="lcaron" unicode="&#x13e;" horiz-adv-x="819" 
d="M645 1495h-82l21 369h102zM741 0h-155q-138 0 -212.5 71.5t-74.5 204.5v1127h-252v92h354v-1219q0 -91 47 -137.5t138 -46.5h155v-92z" />
    <glyph glyph-name="Ldot" unicode="&#x13f;" 
d="M1116 0h-829v1495h102v-1401h727v-94zM696 543q-69 0 -109 41t-40 112q0 69 40 109.5t109 40.5t109.5 -40.5t40.5 -109.5q0 -70 -40.5 -111.5t-109.5 -41.5z" />
    <glyph glyph-name="ldot" unicode="&#x140;" 
d="M700 0h-155q-138 0 -212.5 71.5t-74.5 204.5v1127h-252v92h354v-1219q0 -91 47 -137.5t138 -46.5h155v-92zM926 543q-69 0 -109.5 41.5t-40.5 111.5q0 69 40.5 109.5t109.5 40.5t109 -40.5t40 -109.5q0 -71 -40 -112t-109 -41z" />
    <glyph glyph-name="Lslash" unicode="&#x141;" 
d="M410 745v-651h727v-94h-830v676l-266 -184v112l266 184v707h103v-637l389 268v-112z" />
    <glyph glyph-name="lslash" unicode="&#x142;" horiz-adv-x="819" 
d="M586 92h155v-92h-155q-138 0 -212.5 71.5t-74.5 204.5v392l-260 -176v112l260 176v623h-252v92h354v-645l273 186v-112l-273 -187v-461q0 -91 47 -137.5t138 -46.5z" />
    <glyph glyph-name="Nacute" unicode="&#x143;" 
d="M649 1659h-108l217 287h121zM324 0h-99v1495h140l548 -1382q-8 164 -8 235v1147h99v-1495h-142l-543 1382q5 -98 5 -235v-1147z" />
    <glyph glyph-name="nacute" unicode="&#x144;" 
d="M788 1608h121l-229 -287h-109zM641 1147q166 0 266.5 -107t100.5 -288v-752h-103v737q0 152 -75.5 237t-208.5 85q-135 0 -214 -86.5t-79 -235.5v-737h-103v1126h103v-192q30 101 111.5 157t201.5 56z" />
    <glyph glyph-name="uni0145" unicode="&#x145;" 
d="M324 0h-99v1495h140l548 -1382q-8 164 -8 235v1147h99v-1495h-142l-543 1382q5 -98 5 -235v-1147zM543 -492h-103l185 297h133z" />
    <glyph glyph-name="uni0146" unicode="&#x146;" 
d="M641 1147q166 0 266.5 -107t100.5 -288v-752h-103v737q0 152 -75.5 237t-208.5 85q-135 0 -214 -86.5t-79 -235.5v-737h-103v1126h103v-192q30 101 111.5 157t201.5 56zM543 -492h-103l185 297h133z" />
    <glyph glyph-name="Ncaron" unicode="&#x147;" 
d="M676 1659h-123l-246 287h105l206 -224l205 224h99zM324 0h-99v1495h140l548 -1382q-8 164 -8 235v1147h99v-1495h-142l-543 1382q5 -98 5 -235v-1147z" />
    <glyph glyph-name="ncaron" unicode="&#x148;" 
d="M932 1608l-246 -287h-123l-246 287h105l207 -224l205 224h98zM641 1147q166 0 266.5 -107t100.5 -288v-752h-103v737q0 152 -75.5 237t-208.5 85q-135 0 -214 -86.5t-79 -235.5v-737h-103v1126h103v-192q30 101 111.5 157t201.5 56z" />
    <glyph glyph-name="napostrophe" unicode="&#x149;" 
d="M31 1321l184 297h133l-215 -297h-102zM641 1147q166 0 266.5 -107t100.5 -288v-752h-103v737q0 152 -75.5 237t-208.5 85q-135 0 -214 -86.5t-79 -235.5v-737h-103v1126h103v-192q30 101 111.5 157t201.5 56z" />
    <glyph glyph-name="Eng" unicode="&#x14a;" 
d="M629 -369h-164v93h164q135 0 204.5 70.5t69.5 205.5l-586 1382q5 -98 5 -235v-1147h-99v1495h142l550 -1302q-8 98 -8 256v1046h99v-1495q0 -177 -98 -273t-279 -96z" />
    <glyph glyph-name="eng" unicode="&#x14b;" 
d="M641 1147q166 0 266.5 -107t100.5 -288v-721q0 -183 -115 -291.5t-307 -108.5h-84v93h84q148 0 233.5 82.5t85.5 224.5v706q0 152 -75.5 237t-208.5 85q-135 0 -214 -86.5t-79 -235.5v-737h-103v1126h103v-192q30 101 111.5 157t201.5 56z" />
    <glyph glyph-name="Omacron" unicode="&#x14c;" 
d="M901 1749h-573v88h573v-88zM614 -20q-182 0 -290.5 111t-108.5 298v717q0 186 109 298t290 112t290.5 -112t109.5 -298v-717q0 -187 -108.5 -298t-291.5 -111zM614 70q141 0 219 83.5t78 235.5v717q0 151 -78.5 235t-218.5 84t-218.5 -84t-78.5 -235v-717
q0 -152 78 -235.5t219 -83.5z" />
    <glyph glyph-name="omacron" unicode="&#x14d;" 
d="M901 1401h-573v88h573v-88zM614 -20q-182 0 -290.5 111t-108.5 298v348q0 186 109 298t290 112t290.5 -112t109.5 -298v-348q0 -187 -108.5 -298t-291.5 -111zM614 70q141 0 219 83.5t78 235.5v348q0 151 -78.5 235.5t-218.5 84.5t-218.5 -84.5t-78.5 -235.5v-348
q0 -152 78 -235.5t219 -83.5z" />
    <glyph glyph-name="Obreve" unicode="&#x14e;" 
d="M614 1655q-136 0 -216.5 78.5t-80.5 212.5h93q0 -97 54 -153t148 -56q95 0 151 56t56 153h92q0 -134 -80.5 -212.5t-216.5 -78.5zM614 -20q-182 0 -290.5 111t-108.5 298v717q0 186 109 298t290 112t290.5 -112t109.5 -298v-717q0 -187 -108.5 -298t-291.5 -111zM614 70
q141 0 219 83.5t78 235.5v717q0 151 -78.5 235t-218.5 84t-218.5 -84t-78.5 -235v-717q0 -152 78 -235.5t219 -83.5z" />
    <glyph glyph-name="obreve" unicode="&#x14f;" 
d="M614 1317q-136 0 -216.5 78.5t-80.5 212.5h93q0 -97 54 -153t148 -56q95 0 151 56t56 153h92q0 -134 -80.5 -212.5t-216.5 -78.5zM614 -20q-182 0 -290.5 111t-108.5 298v348q0 186 109 298t290 112t290.5 -112t109.5 -298v-348q0 -187 -108.5 -298t-291.5 -111zM614 70
q141 0 219 83.5t78 235.5v348q0 151 -78.5 235.5t-218.5 84.5t-218.5 -84.5t-78.5 -235.5v-348q0 -152 78 -235.5t219 -83.5z" />
    <glyph glyph-name="Ohungarumlaut" unicode="&#x150;" 
d="M467 1659h-107l218 287h118zM793 1659h-107l217 287h119zM614 -20q-182 0 -290.5 111t-108.5 298v717q0 186 109 298t290 112t290.5 -112t109.5 -298v-717q0 -187 -108.5 -298t-291.5 -111zM614 70q141 0 219 83.5t78 235.5v717q0 151 -78.5 235t-218.5 84t-218.5 -84
t-78.5 -235v-717q0 -152 78 -235.5t219 -83.5z" />
    <glyph glyph-name="ohungarumlaut" unicode="&#x151;" 
d="M467 1321h-107l218 287h118zM793 1321h-107l217 287h119zM614 -20q-182 0 -290.5 111t-108.5 298v348q0 186 109 298t290 112t290.5 -112t109.5 -298v-348q0 -187 -108.5 -298t-291.5 -111zM614 70q141 0 219 83.5t78 235.5v348q0 151 -78.5 235.5t-218.5 84.5
t-218.5 -84.5t-78.5 -235.5v-348q0 -152 78 -235.5t219 -83.5z" />
    <glyph glyph-name="OE" unicode="&#x152;" 
d="M401 -20q-140 0 -229.5 105t-89.5 269v787q0 164 89.5 269.5t229.5 105.5q97 0 161.5 -57.5t82.5 -127.5h10v164h510v-102h-397v-570h324v-102h-324v-619h397v-102h-510v164h-10q-17 -70 -82 -127t-162 -57zM424 82q102 0 166.5 74.5t64.5 197.5v787q0 123 -64.5 197.5
t-166.5 74.5q-103 0 -166 -75t-63 -197v-787q0 -122 63 -197t166 -75z" />
    <glyph glyph-name="oe" unicode="&#x153;" 
d="M356 -20q-130 0 -207 82.5t-77 222.5v551q0 141 81 226t216 85q108 0 172.5 -54.5t76.5 -121.5h5q16 67 80 121.5t163 54.5q133 0 212 -83.5t79 -223.5v-308h-487v-245q0 -97 54 -157t142 -60q83 0 138 51.5t63 134.5h102q-10 -126 -91 -201t-206 -75q-108 0 -172.5 53.5
t-76.5 120.5h-7q-12 -67 -79 -120.5t-181 -53.5zM375 70q87 0 140.5 60t53.5 157v553q0 97 -53.5 157t-140.5 60q-89 0 -144 -60.5t-55 -160.5v-551q0 -97 55 -156t144 -59zM670 840v-205h385v205q0 97 -53.5 157t-141.5 60q-86 0 -138 -60t-52 -157z" />
    <glyph glyph-name="Racute" unicode="&#x154;" 
d="M649 1659h-108l217 287h121zM328 0h-103v1495h420q198 0 314 -111.5t116 -302.5q0 -162 -91.5 -270t-248.5 -131l350 -680h-122l-338 676h-297v-676zM328 1401v-633h317q149 0 238.5 86t89.5 231t-89.5 230.5t-238.5 85.5h-317z" />
    <glyph glyph-name="racute" unicode="&#x155;" 
d="M819 1608h121l-229 -287h-109zM672 1147q180 0 284.5 -110.5t104.5 -299.5v-71h-113v71q0 152 -77.5 237t-215.5 85t-215.5 -85t-77.5 -237v-737h-102v1126h102v-182q34 95 115 149t195 54z" />
    <glyph glyph-name="uni0156" unicode="&#x156;" 
d="M328 0h-103v1495h420q198 0 314 -111.5t116 -302.5q0 -162 -91.5 -270t-248.5 -131l350 -680h-122l-338 676h-297v-676zM328 1401v-633h317q149 0 238.5 86t89.5 231t-89.5 230.5t-238.5 85.5h-317zM543 -492h-103l185 297h133z" />
    <glyph glyph-name="uni0157" unicode="&#x157;" 
d="M672 1147q180 0 284.5 -110.5t104.5 -299.5v-71h-113v71q0 152 -77.5 237t-215.5 85t-215.5 -85t-77.5 -237v-737h-102v1126h102v-182q34 95 115 149t195 54zM205 -492h-103l185 297h133z" />
    <glyph glyph-name="Rcaron" unicode="&#x158;" 
d="M676 1659h-123l-246 287h105l206 -224l205 224h99zM328 0h-103v1495h420q198 0 314 -111.5t116 -302.5q0 -162 -91.5 -270t-248.5 -131l350 -680h-122l-338 676h-297v-676zM328 1401v-633h317q149 0 238.5 86t89.5 231t-89.5 230.5t-238.5 85.5h-317z" />
    <glyph glyph-name="rcaron" unicode="&#x159;" 
d="M963 1608l-246 -287h-123l-246 287h105l206 -224l205 224h99zM672 1147q180 0 284.5 -110.5t104.5 -299.5v-71h-113v71q0 152 -77.5 237t-215.5 85t-215.5 -85t-77.5 -237v-737h-102v1126h102v-182q34 95 115 149t195 54z" />
    <glyph glyph-name="Sacute" unicode="&#x15a;" 
d="M649 1659h-108l217 287h121zM625 -20q-207 0 -329 108t-122 291h102q0 -139 95.5 -223t253.5 -84q154 0 240.5 77t86.5 213q0 118 -67.5 206.5t-184.5 123.5l-172 51q-148 44 -230.5 150t-82.5 252q0 170 111.5 270.5t300.5 100.5q187 0 297 -106t110 -288h-102
q0 137 -84 219t-223 82q-143 0 -225.5 -72t-82.5 -198q0 -110 63.5 -193.5t172.5 -117.5l172 -54q153 -47 241.5 -159.5t88.5 -259.5q0 -179 -116 -284t-314 -105z" />
    <glyph glyph-name="sacute" unicode="&#x15b;" 
d="M670 1321h-109l217 287h121zM694 -20h-137q-152 0 -252.5 82t-114.5 214h103q15 -90 87 -147t177 -57h137q112 0 178 58.5t66 156.5q0 88 -53 149.5t-142 73.5l-219 31q-145 20 -224 98t-79 203q0 139 97 222t260 83h86q152 0 249.5 -75.5t112.5 -201.5h-102
q-12 81 -83.5 133t-176.5 52h-86q-116 0 -184 -57t-68 -154q0 -84 55 -136t160 -67l215 -31q129 -19 205.5 -102t76.5 -207q0 -146 -93.5 -233.5t-250.5 -87.5z" />
    <glyph glyph-name="Scircumflex" unicode="&#x15c;" 
d="M412 1659h-105l246 287h123l246 -287h-101l-207 223zM625 -20q-207 0 -329 108t-122 291h102q0 -139 95.5 -223t253.5 -84q154 0 240.5 77t86.5 213q0 118 -67.5 206.5t-184.5 123.5l-172 51q-148 44 -230.5 150t-82.5 252q0 170 111.5 270.5t300.5 100.5q187 0 297 -106
t110 -288h-102q0 137 -84 219t-223 82q-143 0 -225.5 -72t-82.5 -198q0 -110 63.5 -193.5t172.5 -117.5l172 -54q153 -47 241.5 -159.5t88.5 -259.5q0 -179 -116 -284t-314 -105z" />
    <glyph glyph-name="scircumflex" unicode="&#x15d;" 
d="M412 1321h-105l246 287h123l246 -287h-101l-207 223zM694 -20h-137q-152 0 -252.5 82t-114.5 214h103q15 -90 87 -147t177 -57h137q112 0 178 58.5t66 156.5q0 88 -53 149.5t-142 73.5l-219 31q-145 20 -224 98t-79 203q0 139 97 222t260 83h86q152 0 249.5 -75.5
t112.5 -201.5h-102q-12 81 -83.5 133t-176.5 52h-86q-116 0 -184 -57t-68 -154q0 -84 55 -136t160 -67l215 -31q129 -19 205.5 -102t76.5 -207q0 -146 -93.5 -233.5t-250.5 -87.5z" />
    <glyph glyph-name="Scedilla" unicode="&#x15e;" 
d="M1055 369q0 -173 -111 -278t-301 -111l-18 -50q53 -3 101.5 -20.5t86 -57t37.5 -94.5q0 -67 -57 -112t-148 -45h-164v71h164q48 0 79.5 25.5t31.5 60.5q0 50 -66.5 80.5t-175.5 30.5l45 115q-179 17 -282 122.5t-103 272.5h102q0 -139 95.5 -223t253.5 -84
q154 0 240.5 77t86.5 213q0 118 -67.5 206.5t-184.5 123.5l-172 51q-148 44 -230.5 150t-82.5 252q0 170 111.5 270.5t300.5 100.5q187 0 297 -106t110 -288h-102q0 137 -84 219t-223 82q-143 0 -225.5 -72t-82.5 -198q0 -110 63.5 -193.5t172.5 -117.5l172 -54
q153 -47 241.5 -159.5t88.5 -259.5z" />
    <glyph glyph-name="scedilla" unicode="&#x15f;" 
d="M694 -20h-82l-18 -50q53 -3 101.5 -20.5t86 -57t37.5 -94.5q0 -67 -57 -112t-148 -45h-163v71h163q48 0 79.5 25.5t31.5 60.5q0 50 -66.5 80.5t-175.5 30.5l43 111q-140 9 -231 90t-105 206h103q15 -90 87 -147t177 -57h137q112 0 178 58.5t66 156.5q0 88 -53 149.5
t-142 73.5l-219 31q-145 20 -224 98t-79 203q0 139 97 222t260 83h86q152 0 249.5 -75.5t112.5 -201.5h-102q-12 81 -83.5 133t-176.5 52h-86q-116 0 -184 -57t-68 -154q0 -84 55 -136t160 -67l215 -31q129 -19 205.5 -102t76.5 -207q0 -146 -93.5 -233.5t-250.5 -87.5z" />
    <glyph glyph-name="Scaron" unicode="&#x160;" 
d="M676 1659h-123l-246 287h105l206 -224l205 224h99zM625 -20q-207 0 -329 108t-122 291h102q0 -139 95.5 -223t253.5 -84q154 0 240.5 77t86.5 213q0 118 -67.5 206.5t-184.5 123.5l-172 51q-148 44 -230.5 150t-82.5 252q0 170 111.5 270.5t300.5 100.5q187 0 297 -106
t110 -288h-102q0 137 -84 219t-223 82q-143 0 -225.5 -72t-82.5 -198q0 -110 63.5 -193.5t172.5 -117.5l172 -54q153 -47 241.5 -159.5t88.5 -259.5q0 -179 -116 -284t-314 -105z" />
    <glyph glyph-name="scaron" unicode="&#x161;" 
d="M676 1321h-123l-246 287h105l206 -224l205 224h99zM694 -20h-137q-152 0 -252.5 82t-114.5 214h103q15 -90 87 -147t177 -57h137q112 0 178 58.5t66 156.5q0 88 -53 149.5t-142 73.5l-219 31q-145 20 -224 98t-79 203q0 139 97 222t260 83h86q152 0 249.5 -75.5
t112.5 -201.5h-102q-12 81 -83.5 133t-176.5 52h-86q-116 0 -184 -57t-68 -154q0 -84 55 -136t160 -67l215 -31q129 -19 205.5 -102t76.5 -207q0 -146 -93.5 -233.5t-250.5 -87.5z" />
    <glyph glyph-name="uni0162" unicode="&#x162;" 
d="M1106 1403h-438v-1403l-27 -70q53 -3 101.5 -20.5t86 -57t37.5 -94.5q0 -67 -56.5 -112t-147.5 -45h-164v71h164q48 0 79 25.5t31 60.5q0 50 -66.5 80.5t-175.5 30.5l52 131h-17v1403h-442v92h983v-92z" />
    <glyph glyph-name="uni0163" unicode="&#x163;" horiz-adv-x="1024" 
d="M662 0l-27 -70q53 -3 101.5 -20.5t86 -57t37.5 -94.5q0 -67 -57 -112t-148 -45h-163v71h163q48 0 79.5 25.5t31.5 60.5q0 50 -66.5 80.5t-175.5 30.5l54 135q-103 14 -157 78t-54 174v778h-281v92h281v318h102v-318h383v-92h-383v-778q0 -80 42.5 -122t121.5 -42h178v-92
h-149z" />
    <glyph glyph-name="Tcaron" unicode="&#x164;" 
d="M676 1659h-123l-246 287h105l206 -224l205 224h99zM668 0h-103v1403h-442v92h983v-92h-438v-1403z" />
    <glyph glyph-name="tcaron" unicode="&#x165;" horiz-adv-x="1024" 
d="M891 1270h-92l164 319h133zM811 0h-178q-129 0 -197.5 66t-68.5 190v778h-281v92h281v318h102v-318h383v-92h-383v-778q0 -80 42.5 -122t121.5 -42h178v-92z" />
    <glyph glyph-name="Tbar" unicode="&#x166;" 
d="M1106 1495v-92h-438v-676h315v-92h-315v-635h-103v635h-319v92h319v676h-442v92h983z" />
    <glyph glyph-name="tbar" unicode="&#x167;" horiz-adv-x="1024" 
d="M852 1126v-92h-383v-411h279v-88h-279v-279q0 -80 42.5 -122t121.5 -42h178v-92h-178q-129 0 -197.5 66t-68.5 190v279h-277v88h277v411h-281v92h281v318h102v-318h383z" />
    <glyph glyph-name="Utilde" unicode="&#x168;" 
d="M768 1669q-43 0 -80 19t-63 46.5t-50 55t-50.5 46.5t-53.5 19q-47 0 -74.5 -28.5t-27.5 -75.5v-72h-82v72q0 86 49 135t135 49q43 0 80 -19t63 -46.5t50 -55t50.5 -46.5t53.5 -19q43 0 67.5 28t24.5 76v72h82v-72q0 -86 -46 -135t-128 -49zM616 -20q-180 0 -287.5 111.5
t-107.5 297.5v1106h103v-1106q0 -151 77 -234t215 -83q136 0 212.5 84t76.5 233v1106h103v-1106q0 -186 -107 -297.5t-285 -111.5z" />
    <glyph glyph-name="utilde" unicode="&#x169;" 
d="M768 1331q-43 0 -80 19.5t-63 46.5t-50 54.5t-50.5 47t-53.5 19.5q-47 0 -74.5 -28.5t-27.5 -76.5v-72h-82v72q0 86 49 135t135 49q43 0 80 -19t63 -46.5t50 -55t50.5 -46.5t53.5 -19q42 0 67 28.5t25 76.5v71h82v-71q0 -86 -46 -135.5t-128 -49.5zM612 -20
q-183 0 -287 111t-104 306v729h103v-729q0 -153 76.5 -239t211.5 -86q137 0 215 86t78 239v729h103v-729q0 -194 -106 -305.5t-290 -111.5z" />
    <glyph glyph-name="Umacron" unicode="&#x16a;" 
d="M901 1749h-573v88h573v-88zM616 -20q-180 0 -287.5 111.5t-107.5 297.5v1106h103v-1106q0 -151 77 -234t215 -83q136 0 212.5 84t76.5 233v1106h103v-1106q0 -186 -107 -297.5t-285 -111.5z" />
    <glyph glyph-name="umacron" unicode="&#x16b;" 
d="M901 1401h-573v88h573v-88zM612 -20q-183 0 -287 111t-104 306v729h103v-729q0 -153 76.5 -239t211.5 -86q137 0 215 86t78 239v729h103v-729q0 -194 -106 -305.5t-290 -111.5z" />
    <glyph glyph-name="Ubreve" unicode="&#x16c;" 
d="M614 1655q-136 0 -216.5 78.5t-80.5 212.5h93q0 -97 54 -153t148 -56q95 0 151 56t56 153h92q0 -134 -80.5 -212.5t-216.5 -78.5zM616 -20q-180 0 -287.5 111.5t-107.5 297.5v1106h103v-1106q0 -151 77 -234t215 -83q136 0 212.5 84t76.5 233v1106h103v-1106
q0 -186 -107 -297.5t-285 -111.5z" />
    <glyph glyph-name="ubreve" unicode="&#x16d;" 
d="M614 1317q-136 0 -216.5 78.5t-80.5 212.5h93q0 -97 54 -153t148 -56q95 0 151 56t56 153h92q0 -134 -80.5 -212.5t-216.5 -78.5zM612 -20q-183 0 -287 111t-104 306v729h103v-729q0 -153 76.5 -239t211.5 -86q137 0 215 86t78 239v729h103v-729q0 -194 -106 -305.5
t-290 -111.5z" />
    <glyph glyph-name="Uring" unicode="&#x16e;" 
d="M616 1597q-97 0 -157 56.5t-60 148.5t60 148.5t157 56.5q95 0 154 -56.5t59 -148.5t-59 -148.5t-154 -56.5zM614 1669q60 0 97 36.5t37 96.5t-37 96.5t-97 36.5t-96.5 -36.5t-36.5 -96.5t36.5 -96.5t96.5 -36.5zM616 -20q-180 0 -287.5 111.5t-107.5 297.5v1106h103
v-1106q0 -151 77 -234t215 -83q136 0 212.5 84t76.5 233v1106h103v-1106q0 -186 -107 -297.5t-285 -111.5z" />
    <glyph glyph-name="uring" unicode="&#x16f;" 
d="M616 1260q-97 0 -157 56t-60 148t60 148.5t157 56.5q95 0 154 -56.5t59 -148.5t-58.5 -148t-154.5 -56zM614 1331q60 0 97 36.5t37 96.5t-37 96.5t-97 36.5t-96.5 -36.5t-36.5 -96.5t36.5 -96.5t96.5 -36.5zM612 -20q-183 0 -287 111t-104 306v729h103v-729
q0 -153 76.5 -239t211.5 -86q137 0 215 86t78 239v729h103v-729q0 -194 -106 -305.5t-290 -111.5z" />
    <glyph glyph-name="Uhungarumlaut" unicode="&#x170;" 
d="M467 1659h-107l218 287h118zM793 1659h-107l217 287h119zM616 -20q-180 0 -287.5 111.5t-107.5 297.5v1106h103v-1106q0 -151 77 -234t215 -83q136 0 212.5 84t76.5 233v1106h103v-1106q0 -186 -107 -297.5t-285 -111.5z" />
    <glyph glyph-name="uhungarumlaut" unicode="&#x171;" 
d="M467 1321h-107l218 287h118zM793 1321h-107l217 287h119zM612 -20q-183 0 -287 111t-104 306v729h103v-729q0 -153 76.5 -239t211.5 -86q137 0 215 86t78 239v729h103v-729q0 -194 -106 -305.5t-290 -111.5z" />
    <glyph glyph-name="Uogonek" unicode="&#x172;" 
d="M905 -399h-149q-85 0 -134 43.5t-49 119.5q0 54 32.5 113.5t90.5 110.5q-31 -8 -82 -8q-181 0 -287 110.5t-106 298.5v1106h103v-1106q0 -153 75 -236t215 -83t215.5 83t75.5 236v1106h103v-1106q0 -258 -195 -369l-18 -16q-58 -52 -91.5 -111.5t-33.5 -103.5
q0 -48 27.5 -75t76.5 -27h131v-86z" />
    <glyph glyph-name="uogonek" unicode="&#x173;" 
d="M913 -399h-149q-85 0 -133.5 43.5t-48.5 119.5q0 103 127 224q-39 -8 -95 -8q-181 0 -287 110.5t-106 298.5v737h103v-737q0 -153 75 -236t215 -83t215.5 83t75.5 236v737h103v-737q0 -231 -150 -338l-55 -51q-58 -55 -91.5 -111.5t-33.5 -99.5q0 -48 27.5 -75t76.5 -27
h131v-86z" />
    <glyph glyph-name="Wcircumflex" unicode="&#x174;" 
d="M412 1659h-105l246 287h123l246 -287h-101l-207 223zM410 0h-144l-184 1495h94l139 -1106l37 -317q7 51 24 169.5t21 147.5l158 1106h131l152 -1106l43 -317q4 29 21 151.5t22 165.5l127 1106h96l-186 -1495h-148l-149 1085q-28 208 -43 328q-33 -215 -48 -328z" />
    <glyph glyph-name="wcircumflex" unicode="&#x175;" 
d="M412 1321h-105l246 287h123l246 -287h-101l-207 223zM428 0h-135l-191 1126h97l139 -837q3 -20 24 -217h5q6 88 32 215l164 839h107l164 -839q19 -95 32 -215h4q9 134 23 217l139 837h94l-192 -1126h-135l-142 801q-4 25 -13.5 77t-16 93t-9.5 67h-4q-7 -67 -39 -237z
" />
    <glyph glyph-name="Ycircumflex" unicode="&#x176;" 
d="M412 1659h-105l246 287h123l246 -287h-101l-207 223zM666 0h-103v573l-461 922h107l338 -676l69 -143q45 95 70 143l334 676h106l-460 -922v-573z" />
    <glyph glyph-name="ycircumflex" unicode="&#x177;" 
d="M412 1321h-105l246 287h123l246 -287h-101l-207 223zM512 -369h-104l165 449l-417 1046h114l279 -716q11 -28 29 -74t30.5 -78.5t18.5 -50.5q8 22 34 96l39 111l261 712h112z" />
    <glyph glyph-name="Ydieresis" unicode="&#x178;" 
d="M399 1690q-47 0 -76.5 30.5t-29.5 81.5t29.5 82t76.5 31t77 -31t30 -82t-29.5 -81.5t-77.5 -30.5zM840 1690q-50 0 -79.5 30.5t-29.5 81.5t30 82t79 31q47 0 75.5 -31t28.5 -82t-28.5 -81.5t-75.5 -30.5zM666 0h-103v573l-461 922h107l338 -676l69 -143q45 95 70 143
l334 676h106l-460 -922v-573z" />
    <glyph glyph-name="Zacute" unicode="&#x179;" 
d="M649 1659h-108l217 287h121zM1044 0h-860v102l736 1299h-727v94h825v-117l-729 -1284h755v-94z" />
    <glyph glyph-name="zacute" unicode="&#x17a;" 
d="M670 1321h-109l217 287h121zM1018 0h-807v94l663 940h-645v92h762v-96l-665 -938h692v-92z" />
    <glyph glyph-name="Zdotaccent" unicode="&#x17b;" 
d="M614 1690q-54 0 -86 30.5t-32 81.5t32 82t86 31t86.5 -31t32.5 -82t-32.5 -81.5t-86.5 -30.5zM1044 0h-860v102l736 1299h-727v94h825v-117l-729 -1284h755v-94z" />
    <glyph glyph-name="zdotaccent" unicode="&#x17c;" 
d="M614 1341q-54 0 -86 31t-32 82t32 82t86 31t86.5 -31t32.5 -82t-32.5 -82t-86.5 -31zM1018 0h-807v94l663 940h-645v92h762v-96l-665 -938h692v-92z" />
    <glyph glyph-name="Zcaron" unicode="&#x17d;" 
d="M676 1659h-123l-246 287h105l206 -224l205 224h99zM1044 0h-860v102l736 1299h-727v94h825v-117l-729 -1284h755v-94z" />
    <glyph glyph-name="zcaron" unicode="&#x17e;" 
d="M676 1321h-123l-246 287h105l206 -224l205 224h99zM1018 0h-807v94l663 940h-645v92h762v-96l-665 -938h692v-92z" />
    <glyph glyph-name="longs" unicode="&#x17f;" 
d="M471 0h-102v1219q0 127 75 201.5t203 74.5h367v-92h-369q-77 0 -125.5 -51t-48.5 -133v-1219z" />
    <glyph glyph-name="uni018F" unicode="&#x18f;" 
d="M612 1516q187 0 294.5 -111t107.5 -299v-717q0 -187 -108 -298t-294 -111q-185 0 -291 111t-106 298v385h696v332q0 149 -78.5 233t-220.5 84q-144 0 -219.5 -89.5t-75.5 -248.5h-102q0 199 104.5 315t292.5 116zM911 389v297h-594v-297q0 -149 77.5 -234t217.5 -85
q144 0 221.5 84t77.5 235z" />
    <glyph glyph-name="uni0190" unicode="&#x190;" 
d="M995 395h103q0 -184 -128.5 -299.5t-334.5 -115.5t-334.5 117t-128.5 304q0 142 78.5 241.5t208.5 125.5q-115 29 -182.5 123.5t-67.5 228.5q0 175 121.5 285.5t314.5 110.5t314.5 -110.5t121.5 -285.5h-102q0 135 -92.5 220t-241.5 85t-241.5 -85t-92.5 -220t92.5 -220
t241.5 -85h143v-92h-153q-160 0 -260.5 -91t-100.5 -237q0 -144 100.5 -233.5t260.5 -89.5t260 89.5t100 233.5z" />
    <glyph glyph-name="florin" unicode="&#x192;" 
d="M197 -369h-197v93h197q145 0 220 75.5t75 220.5v660h-349v92h349v467q0 120 70.5 188t195.5 68h313v-92h-313q-78 0 -121 -43t-43 -121v-467h477v-92h-477v-680q0 -172 -107 -270.5t-290 -98.5z" />
    <glyph glyph-name="uni019B" unicode="&#x19b;" 
d="M963 1417l-330 -164l457 -1253h-111l-262 731q-33 89 -86 258q-36 -114 -92 -258l-283 -731h-117l443 1104l-41 102l-357 -178v98l326 162l-82 207h117l57 -160l361 181v-99z" />
    <glyph glyph-name="Ohorn" unicode="&#x1a0;" 
d="M1024 1536v123h82v-123q0 -76 -45.5 -123.5t-120.5 -50.5q74 -107 74 -256v-717q0 -187 -108.5 -298t-291.5 -111q-182 0 -290.5 111t-108.5 298v717q0 186 109 298t290 112q153 0 258 -82h60q41 0 66.5 28t25.5 74zM911 389v717q0 151 -78.5 235t-218.5 84t-218.5 -84
t-78.5 -235v-717q0 -152 78 -235.5t219 -83.5t219 83.5t78 235.5z" />
    <glyph glyph-name="ohorn" unicode="&#x1a1;" 
d="M1044 1311v-123q0 -65 -33.5 -109.5t-90.5 -58.5q94 -115 94 -283v-348q0 -187 -108.5 -298t-291.5 -111q-182 0 -290.5 111t-108.5 298v348q0 186 109 298t290 112q131 0 228 -62h28q41 0 67 28.5t26 74.5v123h81zM911 389v348q0 151 -78.5 235.5t-218.5 84.5
t-218.5 -84.5t-78.5 -235.5v-348q0 -152 78 -235.5t219 -83.5t219 83.5t78 235.5z" />
    <glyph glyph-name="Uhorn" unicode="&#x1af;" 
d="M1171 1597v123h82v-123q0 -78 -48 -126t-126 -48h-71v-1034q0 -186 -107 -297.5t-285 -111.5q-180 0 -287.5 111.5t-107.5 297.5v1106h103v-1106q0 -151 77 -234t215 -83q136 0 212.5 84t76.5 233v1106h174q41 0 66.5 28t25.5 74z" />
    <glyph glyph-name="uhorn" unicode="&#x1b0;" 
d="M221 397v729h103v-729q0 -153 76.5 -239t211.5 -86q137 0 215 86t78 239v729h101q41 0 66.5 28.5t25.5 74.5v123h82v-123q0 -78 -47.5 -126t-124.5 -48v-658q0 -194 -106 -305.5t-290 -111.5q-183 0 -287 111t-104 306z" />
    <glyph glyph-name="uni01CD" unicode="&#x1cd;" 
d="M676 1659h-123l-246 287h105l206 -224l205 224h99zM242 0h-103l412 1495h127l412 -1495h-107l-115 430h-512zM545 1126l-164 -604h463l-162 604q-49 184 -68 283q-16 -85 -69 -283z" />
    <glyph glyph-name="uni01CE" unicode="&#x1ce;" 
d="M932 1608l-246 -287h-123l-246 287h105l207 -224l205 224h98zM623 1147q173 0 279 -104.5t106 -274.5v-768h-103v180q-32 -93 -126 -146.5t-228 -53.5q-173 0 -278 91.5t-105 243.5q0 145 96 232.5t254 87.5h387v133q0 135 -73.5 210t-208.5 75q-123 0 -203 -60.5
t-94 -163.5h-103q20 143 130 230.5t270 87.5zM580 70q146 0 235.5 75t89.5 197v203h-389q-110 0 -178 -60.5t-68 -160.5q0 -114 85.5 -184t224.5 -70z" />
    <glyph glyph-name="uni01D0" unicode="&#x1d0;" horiz-adv-x="1024" 
d="M592 1321h-123l-246 287h105l207 -224l204 224h99zM897 0h-692v92h307v942h-268v92h370v-1034h283v-92z" />
    <glyph glyph-name="uni01D2" unicode="&#x1d2;" 
d="M676 1321h-123l-246 287h105l206 -224l205 224h99zM614 -20q-182 0 -290.5 111t-108.5 298v348q0 186 109 298t290 112t290.5 -112t109.5 -298v-348q0 -187 -108.5 -298t-291.5 -111zM614 70q141 0 219 83.5t78 235.5v348q0 151 -78.5 235.5t-218.5 84.5t-218.5 -84.5
t-78.5 -235.5v-348q0 -152 78 -235.5t219 -83.5z" />
    <glyph glyph-name="uni01D4" unicode="&#x1d4;" 
d="M676 1321h-123l-246 287h105l206 -224l205 224h99zM612 -20q-183 0 -287 111t-104 306v729h103v-729q0 -153 76.5 -239t211.5 -86q137 0 215 86t78 239v729h103v-729q0 -194 -106 -305.5t-290 -111.5z" />
    <glyph glyph-name="uni01D6" unicode="&#x1d6;" 
d="M901 1841h-573v88h573v-88zM395 1341q-47 0 -76.5 31t-29.5 82t29.5 82t76.5 31t77 -31t30 -82t-30 -82t-77 -31zM836 1341q-49 0 -79 31t-30 82t30 82t79 31q47 0 75.5 -31t28.5 -82t-28.5 -82t-75.5 -31zM612 -20q-183 0 -287 111t-104 306v729h103v-729
q0 -153 76.5 -239t211.5 -86q137 0 215 86t78 239v729h103v-729q0 -194 -106 -305.5t-290 -111.5z" />
    <glyph glyph-name="uni01D8" unicode="&#x1d8;" 
d="M670 1761h-109l217 287h121zM395 1341q-47 0 -76.5 31t-29.5 82t29.5 82t76.5 31t77 -31t30 -82t-30 -82t-77 -31zM836 1341q-49 0 -79 31t-30 82t30 82t79 31q47 0 75.5 -31t28.5 -82t-28.5 -82t-75.5 -31zM612 -20q-183 0 -287 111t-104 306v729h103v-729
q0 -153 76.5 -239t211.5 -86q137 0 215 86t78 239v729h103v-729q0 -194 -106 -305.5t-290 -111.5z" />
    <glyph glyph-name="uni01DA" unicode="&#x1da;" 
d="M676 1761h-123l-246 287h105l206 -223l205 223h99zM395 1341q-47 0 -76.5 31t-29.5 82t29.5 82t76.5 31t77 -31t30 -82t-30 -82t-77 -31zM836 1341q-49 0 -79 31t-30 82t30 82t79 31q47 0 75.5 -31t28.5 -82t-28.5 -82t-75.5 -31zM612 -20q-183 0 -287 111t-104 306v729
h103v-729q0 -153 76.5 -239t211.5 -86q137 0 215 86t78 239v729h103v-729q0 -194 -106 -305.5t-290 -111.5z" />
    <glyph glyph-name="uni01DC" unicode="&#x1dc;" 
d="M692 1761h-112l-230 287h125zM395 1341q-47 0 -76.5 31t-29.5 82t29.5 82t76.5 31t77 -31t30 -82t-30 -82t-77 -31zM836 1341q-49 0 -79 31t-30 82t30 82t79 31q47 0 75.5 -31t28.5 -82t-28.5 -82t-75.5 -31zM612 -20q-183 0 -287 111t-104 306v729h103v-729
q0 -153 76.5 -239t211.5 -86q137 0 215 86t78 239v729h103v-729q0 -194 -106 -305.5t-290 -111.5z" />
    <glyph glyph-name="Gcaron" unicode="&#x1e6;" 
d="M688 1659h-123l-246 287h105l207 -224l205 224h98zM627 -20q-187 0 -299.5 111.5t-112.5 297.5v717q0 187 112 298.5t300 111.5q190 0 303.5 -117t113.5 -314h-102q0 157 -84.5 247.5t-230.5 90.5q-143 0 -226.5 -85t-83.5 -232v-717q0 -148 82.5 -232.5t227.5 -84.5
q147 0 231 90.5t84 247.5v225h-354v94h456v-319q0 -196 -113 -313t-304 -117z" />
    <glyph glyph-name="gcaron" unicode="&#x1e7;" 
d="M915 1608l-245 -287h-123l-246 287h105l206 -224l205 224h98zM901 940v186h103v-1157q0 -167 -89.5 -252.5t-261.5 -85.5h-297v93h297q122 0 185 62t63 183v320q-29 -97 -112 -152t-201 -55q-169 0 -271 111.5t-102 295.5v248q0 185 102 297.5t271 112.5q118 0 201 -55
t112 -152zM608 170q138 0 215.5 84t77.5 235v248q0 151 -77 236.5t-216 85.5q-136 0 -213.5 -85.5t-77.5 -236.5v-248q0 -150 77 -234.5t214 -84.5z" />
    <glyph glyph-name="uni01EA" unicode="&#x1ea;" 
d="M905 -399h-149q-85 0 -134 43.5t-49 119.5q0 54 32.5 113.5t90.5 110.5q-31 -8 -82 -8q-182 0 -290.5 111t-108.5 298v717q0 186 109 298t290 112t290.5 -112t109.5 -298v-717q0 -255 -201 -369l-18 -16q-58 -52 -91.5 -111.5t-33.5 -103.5q0 -48 27.5 -75t76.5 -27h131
v-86zM614 70q141 0 219 83.5t78 235.5v717q0 151 -78.5 235t-218.5 84t-218.5 -84t-78.5 -235v-717q0 -152 78 -235.5t219 -83.5z" />
    <glyph glyph-name="uni01EB" unicode="&#x1eb;" 
d="M913 -399h-149q-85 0 -133.5 43.5t-48.5 119.5q0 103 127 224q-39 -8 -95 -8q-182 0 -290.5 111t-108.5 298v348q0 186 109 298t290 112t290.5 -112t109.5 -298v-348q0 -227 -156 -338l-55 -51q-58 -55 -91.5 -111.5t-33.5 -99.5q0 -48 27.5 -75t76.5 -27h131v-86z
M614 70q141 0 219 83.5t78 235.5v348q0 151 -78.5 235.5t-218.5 84.5t-218.5 -84.5t-78.5 -235.5v-348q0 -152 78 -235.5t219 -83.5z" />
    <glyph glyph-name="uni01F4" unicode="&#x1f4;" 
d="M662 1659h-109l217 287h121zM627 -20q-187 0 -299.5 111.5t-112.5 297.5v717q0 187 112 298.5t300 111.5q190 0 303.5 -117t113.5 -314h-102q0 157 -84.5 247.5t-230.5 90.5q-143 0 -226.5 -85t-83.5 -232v-717q0 -148 82.5 -232.5t227.5 -84.5q147 0 231 90.5t84 247.5
v225h-354v94h456v-319q0 -196 -113 -313t-304 -117z" />
    <glyph glyph-name="uni01F5" unicode="&#x1f5;" 
d="M772 1608h121l-229 -287h-109zM901 940v186h103v-1157q0 -167 -89.5 -252.5t-261.5 -85.5h-297v93h297q122 0 185 62t63 183v320q-29 -97 -112 -152t-201 -55q-169 0 -271 111.5t-102 295.5v248q0 185 102 297.5t271 112.5q118 0 201 -55t112 -152zM608 170
q138 0 215.5 84t77.5 235v248q0 151 -77 236.5t-216 85.5q-136 0 -213.5 -85.5t-77.5 -236.5v-248q0 -150 77 -234.5t214 -84.5z" />
    <glyph glyph-name="AEacute" unicode="&#x1fc;" 
d="M649 1659h-108l217 287h121zM172 0h-102l385 1495h710v-92h-428v-580h355v-92h-355v-639h428v-92h-530v440h-348zM530 1403l-217 -871h322v871h-105z" />
    <glyph glyph-name="aeacute" unicode="&#x1fd;" 
d="M670 1321h-109l217 287h121zM356 -20q-126 0 -200 83.5t-74 221.5v94q0 121 71 191.5t195 70.5h221v199q0 94 -54 155.5t-140 61.5q-79 0 -131 -52t-60 -135h-102q11 127 87.5 202t199.5 75q108 0 172.5 -54.5t76.5 -121.5h5q16 67 80 121.5t163 54.5q128 0 204.5 -84
t76.5 -223v-291h-475v-262q0 -95 53.5 -155t140.5 -60q78 0 125.5 50t55.5 134h102q-11 -128 -83 -202t-194 -74q-108 0 -172.5 53.5t-76.5 120.5h-7q-12 -67 -79 -120.5t-181 -53.5zM672 840v-199h372v199q0 94 -51 155.5t-133 61.5t-135 -62t-53 -155zM375 66
q84 0 139 62.5t55 158.5v262h-221q-72 0 -118 -47.5t-46 -122.5v-94q0 -96 52.5 -157.5t138.5 -61.5z" />
    <glyph glyph-name="Oslashacute" unicode="&#x1fe;" 
d="M758 1946h121l-230 -287h-108zM1028 1536h98l-145 -252q33 -76 33 -178v-717q0 -187 -108.5 -298t-291.5 -111q-195 0 -305 126l-108 -188h-99l154 270q-41 87 -41 201v717q0 186 109 298t290 112q209 0 320 -146zM317 1106v-717q0 -37 7 -84l555 969q-74 151 -265 151
q-140 0 -218.5 -84t-78.5 -235zM911 389v717q0 35 -2 49l-547 -956q72 -129 252 -129q141 0 219 83.5t78 235.5z" />
    <glyph glyph-name="oslashacute" unicode="&#x1ff;" 
d="M778 1608h121l-229 -287h-109zM1008 1208h100l-160 -229q66 -97 66 -242v-348q0 -187 -108.5 -298t-291.5 -111q-180 0 -288 108l-105 -149h-100l151 219q-57 97 -57 231v348q0 186 109 298t290 112q171 0 279 -100zM317 737v-348q0 -67 21 -139l500 717q-81 90 -224 90
q-140 0 -218.5 -84.5t-78.5 -235.5zM911 389v348q0 90 -26 152l-502 -721q76 -98 231 -98q141 0 219 83.5t78 235.5z" />
    <glyph glyph-name="uni0218" unicode="&#x218;" 
d="M625 -20q-207 0 -329 108t-122 291h102q0 -139 95.5 -223t253.5 -84q154 0 240.5 77t86.5 213q0 118 -67.5 206.5t-184.5 123.5l-172 51q-148 44 -230.5 150t-82.5 252q0 170 111.5 270.5t300.5 100.5q187 0 297 -106t110 -288h-102q0 137 -84 219t-223 82
q-143 0 -225.5 -72t-82.5 -198q0 -110 63.5 -193.5t172.5 -117.5l172 -54q153 -47 241.5 -159.5t88.5 -259.5q0 -179 -116 -284t-314 -105zM543 -492h-103l185 297h133z" />
    <glyph glyph-name="uni0219" unicode="&#x219;" 
d="M694 -20h-137q-152 0 -252.5 82t-114.5 214h103q15 -90 87 -147t177 -57h137q112 0 178 58.5t66 156.5q0 88 -53 149.5t-142 73.5l-219 31q-145 20 -224 98t-79 203q0 139 97 222t260 83h86q152 0 249.5 -75.5t112.5 -201.5h-102q-12 81 -83.5 133t-176.5 52h-86
q-116 0 -184 -57t-68 -154q0 -84 55 -136t160 -67l215 -31q129 -19 205.5 -102t76.5 -207q0 -146 -93.5 -233.5t-250.5 -87.5zM543 -492h-103l185 297h133z" />
    <glyph glyph-name="uni021A" unicode="&#x21a;" 
d="M668 0h-103v1403h-442v92h983v-92h-438v-1403zM543 -492h-103l185 297h133z" />
    <glyph glyph-name="uni021B" unicode="&#x21b;" 
d="M811 0h-178q-129 0 -197.5 66t-68.5 190v778h-281v92h281v318h102v-318h383v-92h-383v-778q0 -80 42.5 -122t121.5 -42h178v-92zM575 -492h-102l184 297h134z" />
    <glyph glyph-name="uni0232" unicode="&#x232;" 
d="M901 1749h-573v88h573v-88zM666 0h-103v573l-461 922h107l338 -676l69 -143q45 95 70 143l334 676h106l-460 -922v-573z" />
    <glyph glyph-name="uni0233" unicode="&#x233;" 
d="M901 1401h-573v88h573v-88zM512 -369h-104l165 449l-417 1046h114l279 -716q11 -28 29 -74t30.5 -78.5t18.5 -50.5q8 22 34 96l39 111l261 712h112z" />
    <glyph glyph-name="uni0237" unicode="&#x237;" horiz-adv-x="819" 
d="M205 -369h-137v93h137q145 0 220 75.5t75 220.5v1014h-379v92h481v-1106q0 -183 -105 -286t-292 -103z" />
    <glyph glyph-name="uni0259" unicode="&#x259;" 
d="M612 1147q188 0 295 -110.5t107 -299.5v-348q0 -187 -108 -298t-294 -111q-185 0 -291 111t-106 298v195h696v153q0 149 -79 234.5t-220 85.5q-112 0 -187.5 -54.5t-105.5 -152.5h-102q31 138 135 217.5t260 79.5zM911 389v107h-594v-107q0 -149 77.5 -234t217.5 -85
q144 0 221.5 84t77.5 235z" />
    <glyph glyph-name="uni02B9" unicode="&#x2b9;" horiz-adv-x="819" 
d="M338 840h-82l154 637h184z" />
    <glyph glyph-name="uni02BA" unicode="&#x2ba;" 
d="M236 838h-82l153 637h185zM788 838h-81l153 637h184z" />
    <glyph glyph-name="uni02BC" unicode="&#x2bc;" horiz-adv-x="409" 
d="M117 952h-82l153 637h185z" />
    <glyph glyph-name="circumflex" unicode="&#x2c6;" 
d="M412 1321h-105l246 287h123l246 -287h-101l-207 223z" />
    <glyph glyph-name="caron" unicode="&#x2c7;" 
d="M676 1321h-123l-246 287h105l206 -224l205 224h99z" />
    <glyph glyph-name="uni02C9" unicode="&#x2c9;" 
d="M901 1401h-573v88h573v-88z" />
    <glyph glyph-name="breve" unicode="&#x2d8;" 
d="M614 1317q-136 0 -216.5 78.5t-80.5 212.5h93q0 -97 54 -153t148 -56q95 0 151 56t56 153h92q0 -134 -80.5 -212.5t-216.5 -78.5z" />
    <glyph glyph-name="dotaccent" unicode="&#x2d9;" 
d="M614 1341q-54 0 -86 31t-32 82t32 82t86 31t86.5 -31t32.5 -82t-32.5 -82t-86.5 -31z" />
    <glyph glyph-name="ring" unicode="&#x2da;" 
d="M616 1260q-97 0 -157 56t-60 148t60 148.5t157 56.5q95 0 154 -56.5t59 -148.5t-58.5 -148t-154.5 -56zM614 1331q60 0 97 36.5t37 96.5t-37 96.5t-97 36.5t-96.5 -36.5t-36.5 -96.5t36.5 -96.5t96.5 -36.5z" />
    <glyph glyph-name="ogonek" unicode="&#x2db;" 
d="M768 -399h-150q-85 0 -133.5 43.5t-48.5 119.5q0 63 45 131t123 125h76l-23 -20q-58 -55 -91.5 -111.5t-33.5 -99.5q0 -47 28 -74.5t77 -27.5h131v-86z" />
    <glyph glyph-name="tilde" unicode="&#x2dc;" 
d="M768 1331q-43 0 -80 19.5t-63 46.5t-50 54.5t-50.5 47t-53.5 19.5q-47 0 -74.5 -28.5t-27.5 -76.5v-72h-82v72q0 86 49 135t135 49q43 0 80 -19t63 -46.5t50 -55t50.5 -46.5t53.5 -19q42 0 67 28.5t25 76.5v71h82v-71q0 -86 -46 -135.5t-128 -49.5z" />
    <glyph glyph-name="hungarumlaut" unicode="&#x2dd;" 
d="M467 1321h-107l218 287h118zM793 1321h-107l217 287h119z" />
    <glyph glyph-name="uni02F3" unicode="&#x2f3;" 
d="M-614 -502q-97 0 -156 53.5t-59 141.5t59 141t156 53t156 -53t59 -141t-59 -141.5t-156 -53.5zM-616 -430q61 0 98 34.5t37 88.5q0 56 -35.5 90.5t-99.5 34.5q-58 0 -95 -35.5t-37 -89.5t37 -88.5t95 -34.5z" />
    <glyph glyph-name="uni02F7" unicode="&#x2f7;" 
d="M768 -430q-43 0 -80 19t-63 46.5t-50 55t-50.5 46.5t-53.5 19q-47 0 -74.5 -28.5t-27.5 -75.5v-72h-82v72q0 86 49 135t135 49q43 0 80 -19t63 -46.5t50 -55t50.5 -46.5t53.5 -19q43 0 67.5 28t24.5 76v72h82v-72q0 -86 -46 -135t-128 -49z" />
    <glyph glyph-name="gravecomb" unicode="&#x300;" horiz-adv-x="0" 
d="M-1745 1321h-113l-229 287h125z" />
    <glyph glyph-name="acutecomb" unicode="&#x301;" horiz-adv-x="0" 
d="M-1829 1321h-108l217 287h121z" />
    <glyph glyph-name="uni0302" unicode="&#x302;" horiz-adv-x="0" 
d="M-2046 1321h-104l245 287h123l246 -287h-100l-207 223z" />
    <glyph glyph-name="tildecomb" unicode="&#x303;" horiz-adv-x="0" 
d="M-1690 1331q-43 0 -80 19.5t-63 46.5t-50 54.5t-50.5 47t-53.5 19.5q-47 0 -74.5 -28.5t-27.5 -76.5v-72h-82v72q0 86 49 135t135 49q43 0 80 -19t63 -46.5t50 -55t50.5 -46.5t53.5 -19q43 0 68 29t25 76v71h81v-71q0 -86 -46 -135.5t-128 -49.5z" />
    <glyph glyph-name="uni0304" unicode="&#x304;" horiz-adv-x="0" 
d="M-1556 1401h-574v88h574v-88z" />
    <glyph glyph-name="uni0306" unicode="&#x306;" horiz-adv-x="0" 
d="M-1843 1317q-136 0 -216.5 78.5t-80.5 212.5h92q0 -97 54.5 -153t148.5 -56q95 0 151 56t56 153h92q0 -134 -80.5 -212.5t-216.5 -78.5z" />
    <glyph glyph-name="uni0307" unicode="&#x307;" horiz-adv-x="0" 
d="M-1843 1341q-54 0 -86.5 31t-32.5 82t32.5 82t86.5 31t86.5 -31t32.5 -82t-32.5 -82t-86.5 -31z" />
    <glyph glyph-name="uni0308" unicode="&#x308;" horiz-adv-x="0" 
d="M-2062 1341q-47 0 -77 31t-30 82t30 82t77 31t76.5 -31t29.5 -82t-29.5 -82t-76.5 -31zM-1622 1341q-49 0 -79 31t-30 82t30 82t79 31q47 0 75.5 -31t28.5 -82t-28.5 -82t-75.5 -31z" />
    <glyph glyph-name="hookabovecomb" unicode="&#x309;" horiz-adv-x="0" 
d="M-1796 1321h-100l114 156q35 51 35 73q0 26 -20.5 42t-55.5 16h-180v71h180q72 0 115 -32.5t43 -87.5q0 -54 -39 -109z" />
    <glyph glyph-name="uni030A" unicode="&#x30a;" horiz-adv-x="0" 
d="M-1841 1260q-97 0 -157 56t-60 148t60 148.5t157 56.5q95 0 154 -56.5t59 -148.5t-58.5 -148t-154.5 -56zM-1843 1331q60 0 96.5 36.5t36.5 96.5t-36.5 96.5t-96.5 36.5t-96.5 -36.5t-36.5 -96.5t36.5 -96.5t96.5 -36.5z" />
    <glyph glyph-name="uni030B" unicode="&#x30b;" horiz-adv-x="0" 
d="M-1991 1321h-106l217 287h119zM-1665 1321h-107l218 287h118z" />
    <glyph glyph-name="uni030C" unicode="&#x30c;" horiz-adv-x="0" 
d="M-1782 1321h-123l-245 287h104l207 -224l205 224h98z" />
    <glyph glyph-name="uni030F" unicode="&#x30f;" horiz-adv-x="0" 
d="M-2132 1608l217 -287h-106l-230 287h119zM-1806 1608l217 -287h-107l-229 287h119z" />
    <glyph glyph-name="uni0312" unicode="&#x312;" horiz-adv-x="0" 
d="M-1731 1802h93l-195 -481h-133z" />
    <glyph glyph-name="uni031B" unicode="&#x31b;" horiz-adv-x="0" 
d="M-1608 1055h-112v71h112q41 0 66.5 28.5t25.5 74.5v123h82v-123q0 -78 -48 -126t-126 -48z" />
    <glyph glyph-name="dotbelowcomb" unicode="&#x323;" horiz-adv-x="0" 
d="M-1843 -420q-54 0 -86.5 31t-32.5 82t32.5 81.5t86.5 30.5t86.5 -30.5t32.5 -81.5t-32.5 -82t-86.5 -31z" />
    <glyph glyph-name="uni0325" unicode="&#x325;" horiz-adv-x="0" 
d="M-1843 -502q-97 0 -156 53.5t-59 141.5t59 141t156 53t156 -53t59 -141t-59 -141.5t-156 -53.5zM-1845 -430q61 0 98 34.5t37 88.5q0 56 -35.5 90.5t-99.5 34.5q-58 0 -94.5 -35.5t-36.5 -89.5t36.5 -88.5t94.5 -34.5z" />
    <glyph glyph-name="uni0326" unicode="&#x326;" horiz-adv-x="0" 
d="M-1915 -492h-102l184 297h133z" />
    <glyph glyph-name="uni0327" unicode="&#x327;" horiz-adv-x="0" 
d="M-1864 -399h-164v71h164q48 0 79.5 25.5t31.5 60.5q0 50 -66.5 80.5t-175.5 30.5l72 184h86l-47 -123q53 -3 101.5 -20.5t86 -57t37.5 -94.5q0 -67 -57 -112t-148 -45z" />
    <glyph glyph-name="uni0328" unicode="&#x328;" horiz-adv-x="0" 
d="M-1690 -399h-149q-85 0 -133.5 43.5t-48.5 119.5q0 63 45 131t123 125h75l-22 -20q-58 -55 -91.5 -111.5t-33.5 -99.5q0 -48 27.5 -75t76.5 -27h131v-86z" />
    <glyph glyph-name="uni0336" unicode="&#x336;" horiz-adv-x="0" 
d="M-1167 627h-1352v82h1352v-82z" />
    <glyph glyph-name="uni0337" unicode="&#x337;" horiz-adv-x="0" 
d="M-2234 -61h-101l883 1269h100z" />
    <glyph glyph-name="uni0338" unicode="&#x338;" horiz-adv-x="0" 
d="M-2118 -225h-94l643 1577h94z" />
    <glyph glyph-name="uni0374" unicode="&#x374;" 
d="M461 840h-82l153 637h185z" />
    <glyph glyph-name="uni0375" unicode="&#x375;" 
d="M291 -328h-82l153 637h185z" />
    <glyph glyph-name="uni037E" unicode="&#x37e;" 
d="M420 860h-21q-66 0 -105.5 39.5t-39.5 104.5t39.5 104t105.5 39h21q64 0 103.5 -39.5t39.5 -103.5q0 -65 -39.5 -104.5t-103.5 -39.5zM266 -328h-82l154 637h184z" />
    <glyph glyph-name="tonos" unicode="&#x384;" 
d="M588 1321h-109l217 287h121z" />
    <glyph glyph-name="dieresistonos" unicode="&#x385;" 
d="M647 1575h-86l166 268h100zM395 1341q-47 0 -76.5 31t-29.5 82t29.5 82t76.5 31t77 -31t30 -82t-30 -82t-77 -31zM836 1341q-49 0 -79 31t-30 82t30 82t79 31q47 0 75.5 -31t28.5 -82t-28.5 -82t-75.5 -31z" />
    <glyph glyph-name="Alphatonos" unicode="&#x386;" 
d="M242 0h-103l412 1495h127l412 -1495h-107l-115 430h-512zM231 1163h-98l115 328h110zM545 1126l-164 -604h463l-162 604q-49 184 -68 283q-16 -85 -69 -283z" />
    <glyph glyph-name="anoteleia" unicode="&#x387;" 
d="M410 543q-69 0 -109.5 41.5t-40.5 111.5q0 69 40.5 109.5t109.5 40.5t109 -40.5t40 -109.5q0 -71 -40 -112t-109 -41z" />
    <glyph glyph-name="Epsilontonos" unicode="&#x388;" 
d="M1044 0h-798v1495h798v-94h-696v-576h625v-92h-625v-639h696v-94zM-14 1163h-99l115 328h111z" />
    <glyph glyph-name="Etatonos" unicode="&#x389;" 
d="M328 0h-103v1495h103v-672h573v672h103v-1495h-103v729h-573v-729zM-14 1163h-99l115 328h111z" />
    <glyph glyph-name="Iotatonos" unicode="&#x38a;" 
d="M983 0h-737v94h319v1307h-319v94h737v-94h-315v-1307h315v-94zM-14 1163h-99l115 328h111z" />
    <glyph glyph-name="Omicrontonos" unicode="&#x38c;" 
d="M614 -20q-182 0 -290.5 111t-108.5 298v717q0 186 109 298t290 112t290.5 -112t109.5 -298v-717q0 -187 -108.5 -298t-291.5 -111zM47 1163h-98l114 328h111zM614 70q141 0 219 83.5t78 235.5v717q0 151 -78.5 235t-218.5 84t-218.5 -84t-78.5 -235v-717
q0 -152 78 -235.5t219 -83.5z" />
    <glyph glyph-name="Upsilontonos" unicode="&#x38e;" 
d="M666 0h-103v573l-461 922h107l338 -676l69 -143q45 95 70 143l334 676h106l-460 -922v-573zM-55 1163h-99l115 328h111z" />
    <glyph glyph-name="Omegatonos" unicode="&#x38f;" 
d="M532 0h-430v92h338v31q-37 2 -73 20t-68.5 53t-53 96t-20.5 138v672q0 189 105.5 301.5t285.5 112.5q177 0 282.5 -112.5t105.5 -301.5v-672q0 -77 -20.5 -138t-53.5 -96t-69 -53t-73 -20v-31h338v-92h-430v172q95 0 150 69t55 189v672q0 150 -76.5 235.5t-208.5 85.5
q-134 0 -211 -85.5t-77 -235.5v-672q0 -119 54.5 -187.5t149.5 -68.5v-174zM47 1163h-98l114 328h111z" />
    <glyph glyph-name="iotadieresistonos" unicode="&#x390;" 
d="M647 1575h-86l166 268h100zM395 1341q-47 0 -76.5 31t-29.5 82t29.5 82t76.5 31t77 -31t30 -82t-30 -82t-77 -31zM836 1341q-49 0 -79 31t-30 82t30 82t79 31q47 0 75.5 -31t28.5 -82t-28.5 -82t-75.5 -31zM1106 0h-250q-138 0 -212.5 71.5t-74.5 204.5v758h-426v92h529
v-850q0 -184 184 -184h250v-92z" />
    <glyph glyph-name="Alpha" unicode="&#x391;" 
d="M242 0h-103l412 1495h127l412 -1495h-107l-115 430h-512zM545 1126l-164 -604h463l-162 604q-49 184 -68 283q-16 -85 -69 -283z" />
    <glyph glyph-name="Beta" unicode="&#x392;" 
d="M788 770q127 -28 198 -122t71 -238q0 -188 -119.5 -299t-321.5 -111h-391v1495h385q186 0 298 -105t112 -280q0 -132 -61.5 -222t-170.5 -118zM610 1401h-282v-586h282q144 0 226 78t82 215q0 136 -82.5 214.5t-225.5 78.5zM328 94h288q157 0 247.5 84t90.5 230
t-90.5 230.5t-247.5 84.5h-288v-629z" />
    <glyph glyph-name="Gamma" unicode="&#x393;" 
d="M389 0h-102v1495h829v-92h-727v-1403z" />
    <glyph glyph-name="uni0394" unicode="&#x394;" 
d="M551 1495h127l412 -1495h-951zM545 1126l-279 -1034h692l-276 1034q-50 193 -68 287q-38 -169 -69 -287z" />
    <glyph glyph-name="Epsilon" unicode="&#x395;" 
d="M1044 0h-798v1495h798v-94h-696v-576h625v-92h-625v-639h696v-94z" />
    <glyph glyph-name="Zeta" unicode="&#x396;" 
d="M1044 0h-860v102l736 1299h-727v94h825v-117l-729 -1284h755v-94z" />
    <glyph glyph-name="Eta" unicode="&#x397;" 
d="M328 0h-103v1495h103v-672h573v672h103v-1495h-103v729h-573v-729z" />
    <glyph glyph-name="Theta" unicode="&#x398;" 
d="M614 -20q-182 0 -290.5 111t-108.5 298v717q0 186 109 298t290 112t290.5 -112t109.5 -298v-717q0 -187 -108.5 -298t-291.5 -111zM614 70q141 0 219 83.5t78 235.5v717q0 151 -78.5 235t-218.5 84t-218.5 -84t-78.5 -235v-717q0 -152 78 -235.5t219 -83.5zM809 721h-389
v92h389v-92z" />
    <glyph glyph-name="Iota" unicode="&#x399;" 
d="M983 0h-737v94h319v1307h-319v94h737v-94h-315v-1307h315v-94z" />
    <glyph glyph-name="Kappa" unicode="&#x39a;" 
d="M328 0h-103v1495h103v-674h313l332 674h112l-352 -715l373 -780h-121l-346 729h-311v-729z" />
    <glyph glyph-name="Lambda" unicode="&#x39b;" 
d="M242 0h-103l412 1495h127l412 -1495h-107l-301 1126q-19 73 -36 144.5t-24 107.5l-8 35q-26 -123 -69 -287z" />
    <glyph glyph-name="Mu" unicode="&#x39c;" 
d="M289 0h-101v1495h154l209 -573q34 -87 65 -187q21 68 66 187l207 573h151v-1495h-100v901q0 265 10 543l-278 -778h-113l-283 778q13 -240 13 -543v-901z" />
    <glyph glyph-name="Nu" unicode="&#x39d;" 
d="M324 0h-99v1495h140l548 -1382q-8 164 -8 235v1147h99v-1495h-142l-543 1382q5 -98 5 -235v-1147z" />
    <glyph glyph-name="Xi" unicode="&#x39e;" 
d="M1055 1393h-881v102h881v-102zM973 707h-717v102h717v-102zM1055 0h-881v102h881v-102z" />
    <glyph glyph-name="Omicron" unicode="&#x39f;" 
d="M614 -20q-182 0 -290.5 111t-108.5 298v717q0 186 109 298t290 112t290.5 -112t109.5 -298v-717q0 -187 -108.5 -298t-291.5 -111zM614 70q141 0 219 83.5t78 235.5v717q0 151 -78.5 235t-218.5 84t-218.5 -84t-78.5 -235v-717q0 -152 78 -235.5t219 -83.5z" />
    <glyph glyph-name="Pi" unicode="&#x3a0;" 
d="M328 0h-103v1495h779v-1495h-103v1403h-573v-1403z" />
    <glyph glyph-name="Rho" unicode="&#x3a1;" 
d="M328 0h-103v1495h441q196 0 313 -113.5t117 -302.5t-117.5 -302t-312.5 -113h-338v-664zM328 1401v-643h338q150 0 238.5 87t88.5 234q0 149 -88 235.5t-239 86.5h-338z" />
    <glyph glyph-name="Sigma" unicode="&#x3a3;" 
d="M1137 0h-963v98l502 668l-502 631v98h963v-94h-848l510 -637l-510 -670h848v-94z" />
    <glyph glyph-name="Tau" unicode="&#x3a4;" 
d="M668 0h-103v1403h-442v92h983v-92h-438v-1403z" />
    <glyph glyph-name="Upsilon" unicode="&#x3a5;" 
d="M666 0h-103v573l-461 922h107l338 -676l69 -143q45 95 70 143l334 676h106l-460 -922v-573z" />
    <glyph glyph-name="Phi" unicode="&#x3a6;" 
d="M666 -51h-103v143q-198 0 -313 111.5t-115 302.5v518q0 188 114.5 299t313.5 111v143h103v-143q199 0 313.5 -111t114.5 -299v-518q0 -191 -115 -302.5t-313 -111.5v-143zM563 184v1157q-144 0 -234.5 -89.5t-90.5 -227.5v-518q0 -140 91.5 -231t233.5 -91zM666 1341
v-1157q142 0 233.5 91t91.5 231v518q0 138 -90.5 227.5t-234.5 89.5z" />
    <glyph glyph-name="Chi" unicode="&#x3a7;" 
d="M221 0h-112l444 778l-414 717h115l250 -455q31 -59 110 -190q104 177 111 190l254 455h111l-414 -713l444 -782h-114l-279 516l-111 191q-17 -30 -56.5 -100t-51.5 -91z" />
    <glyph glyph-name="Psi" unicode="&#x3a8;" 
d="M666 0h-103v348q-198 0 -313 111.5t-115 302.5v733h103v-733q0 -140 91.5 -231t233.5 -91v1055h103v-1055q142 0 233.5 91t91.5 231v733h103v-733q0 -191 -115 -302.5t-313 -111.5v-348z" />
    <glyph glyph-name="uni03A9" unicode="&#x3a9;" 
d="M532 0h-430v92h338v31q-37 2 -73 20t-68.5 53t-53 96t-20.5 138v672q0 189 105.5 301.5t285.5 112.5q177 0 282.5 -112.5t105.5 -301.5v-672q0 -77 -20.5 -138t-53.5 -96t-69 -53t-73 -20v-31h338v-92h-430v172q95 0 150 69t55 189v672q0 150 -76.5 235.5t-208.5 85.5
q-134 0 -211 -85.5t-77 -235.5v-672q0 -119 54.5 -187.5t149.5 -68.5v-174z" />
    <glyph glyph-name="Iotadieresis" unicode="&#x3aa;" 
d="M399 1690q-47 0 -76.5 30.5t-29.5 81.5t29.5 82t76.5 31t77 -31t30 -82t-29.5 -81.5t-77.5 -30.5zM840 1690q-50 0 -79.5 30.5t-29.5 81.5t30 82t79 31q47 0 75.5 -31t28.5 -82t-28.5 -81.5t-75.5 -30.5zM983 0h-737v94h319v1307h-319v94h737v-94h-315v-1307h315v-94z
" />
    <glyph glyph-name="Upsilondieresis" unicode="&#x3ab;" 
d="M399 1690q-47 0 -76.5 30.5t-29.5 81.5t29.5 82t76.5 31t77 -31t30 -82t-29.5 -81.5t-77.5 -30.5zM840 1690q-50 0 -79.5 30.5t-29.5 81.5t30 82t79 31q47 0 75.5 -31t28.5 -82t-28.5 -81.5t-75.5 -30.5zM666 0h-103v573l-461 922h107l338 -676l69 -143q45 95 70 143
l334 676h106l-460 -922v-573z" />
    <glyph glyph-name="alphatonos" unicode="&#x3ac;" 
d="M743 1608h121l-229 -287h-109zM901 973v153h103v-1126h-103v154h-6q-37 -82 -118 -128t-189 -46q-169 0 -271 112t-102 297v350q0 185 102 296.5t271 111.5q108 0 189 -46t118 -128h6zM608 68q139 0 216 85t77 236v350q0 151 -77.5 235.5t-215.5 84.5q-137 0 -214 -84.5
t-77 -235.5v-350q0 -151 77 -236t214 -85z" />
    <glyph glyph-name="epsilontonos" unicode="&#x3ad;" 
d="M610 1321h-108l217 287h121zM668 -20h-115q-160 0 -259 89.5t-99 229.5q0 112 61 188.5t164 83.5v9q-95 6 -150 77.5t-55 182.5q0 131 98.5 219t249.5 88h115q164 0 251 -71t113 -206h-102q-27 90 -87.5 137.5t-174.5 47.5h-115q-101 0 -173.5 -67t-72.5 -157t62.5 -147
t163.5 -57h262v-92h-262q-108 0 -177 -68t-69 -168q0 -95 73.5 -161t182.5 -66h115q227 0 282 184h103q-25 -132 -121.5 -204t-263.5 -72z" />
    <glyph glyph-name="etatonos" unicode="&#x3ae;" 
d="M788 1608h121l-229 -287h-109zM641 1147q166 0 266.5 -107t100.5 -288v-1121h-103v1106q0 152 -75.5 237t-208.5 85q-135 0 -214 -86.5t-79 -235.5v-737h-103v1126h103v-192q30 101 111.5 157t201.5 56z" />
    <glyph glyph-name="iotatonos" unicode="&#x3af;" 
d="M670 1321h-109l217 287h121zM1106 0h-250q-138 0 -212.5 71.5t-74.5 204.5v758h-426v92h529v-850q0 -184 184 -184h250v-92z" />
    <glyph glyph-name="upsilondieresistonos" unicode="&#x3b0;" 
d="M647 1575h-86l166 268h100zM395 1341q-47 0 -76.5 31t-29.5 82t29.5 82t76.5 31t77 -31t30 -82t-30 -82t-77 -31zM836 1341q-49 0 -79 31t-30 82t30 82t79 31q47 0 75.5 -31t28.5 -82t-28.5 -82t-75.5 -31zM612 -20q-183 0 -287 111t-104 306v729h103v-729
q0 -153 76.5 -239t211.5 -86q137 0 215 86t78 239v729h103v-729q0 -194 -106 -305.5t-290 -111.5z" />
    <glyph glyph-name="alpha" unicode="&#x3b1;" 
d="M901 973v153h103v-1126h-103v154h-6q-37 -82 -118 -128t-189 -46q-169 0 -271 112t-102 297v350q0 185 102 296.5t271 111.5q108 0 189 -46t118 -128h6zM608 68q139 0 216 85t77 236v350q0 151 -77.5 235.5t-215.5 84.5q-137 0 -214 -84.5t-77 -235.5v-350
q0 -151 77 -236t214 -85z" />
    <glyph glyph-name="beta" unicode="&#x3b2;" 
d="M328 -369h-103v1481q0 182 110 293t290 111q186 0 292.5 -105t106.5 -285q0 -134 -65 -230.5t-173 -125.5q127 -25 198 -115t71 -229q0 -198 -114.5 -312t-315.5 -114h-297v-369zM328 1112v-1020h297q160 0 243.5 83t83.5 235q0 150 -83.5 230.5t-243.5 80.5h-82v92h82
q136 0 216.5 83.5t80.5 219.5q0 142 -78.5 224.5t-218.5 82.5q-135 0 -216 -85t-81 -226z" />
    <glyph glyph-name="gamma" unicode="&#x3b3;" 
d="M666 -369h-103v369l-407 1126h108l291 -819q17 -46 61 -201q33 117 64 201l289 819h104l-407 -1126v-369z" />
    <glyph glyph-name="delta" unicode="&#x3b4;" 
d="M616 -20q-192 0 -296.5 112t-104.5 318v188q0 199 89.5 307.5t264.5 108.5q90 0 174 -60l9 7l-496 438v96h707v-92h-594l454 -395q191 -167 191 -410v-188q0 -206 -104 -318t-294 -112zM616 72q141 0 218 88.5t77 249.5v188q0 161 -78 249.5t-219 88.5t-219 -88.5
t-78 -249.5v-188q0 -161 78 -249.5t221 -88.5z" />
    <glyph glyph-name="epsilon" unicode="&#x3b5;" 
d="M668 -20h-115q-160 0 -259 89.5t-99 229.5q0 112 61 188.5t164 83.5v9q-95 6 -150 77.5t-55 182.5q0 131 98.5 219t249.5 88h115q164 0 251 -71t113 -206h-102q-27 90 -87.5 137.5t-174.5 47.5h-115q-101 0 -173.5 -67t-72.5 -157t62.5 -147t163.5 -57h262v-92h-262
q-108 0 -177 -68t-69 -168q0 -95 73.5 -161t182.5 -66h115q227 0 282 184h103q-25 -132 -121.5 -204t-263.5 -72z" />
    <glyph glyph-name="zeta" unicode="&#x3b6;" 
d="M1057 -369h-103v275q0 43 -26 68.5t-70 25.5h-315q-181 0 -276 90t-95 260q0 68 18 130.5t73 158.5t166 231.5t286 323.5l200 209h-720v92h819v-115l-230 -245q-162 -174 -265.5 -301t-156 -216.5t-70.5 -148t-18 -119.5q0 -126 69 -192t200 -66h315q92 0 145.5 -50
t53.5 -136v-275z" />
    <glyph glyph-name="eta" unicode="&#x3b7;" 
d="M641 1147q166 0 266.5 -107t100.5 -288v-1121h-103v1106q0 152 -75.5 237t-208.5 85q-135 0 -214 -86.5t-79 -235.5v-737h-103v1126h103v-192q30 101 111.5 157t201.5 56z" />
    <glyph glyph-name="theta" unicode="&#x3b8;" 
d="M614 -20q-182 0 -290.5 111t-108.5 298v696q0 186 109 298t290 112t290.5 -112t109.5 -298v-696q0 -187 -108.5 -298t-291.5 -111zM317 1085v-272h594v272q0 151 -78.5 235.5t-218.5 84.5t-218.5 -84.5t-78.5 -235.5zM614 70q141 0 219 83.5t78 235.5v332h-594v-332
q0 -152 78 -235.5t219 -83.5z" />
    <glyph glyph-name="iota" unicode="&#x3b9;" 
d="M1106 0h-250q-138 0 -212.5 71.5t-74.5 204.5v758h-426v92h529v-850q0 -184 184 -184h250v-92z" />
    <glyph glyph-name="kappa" unicode="&#x3ba;" 
d="M334 0h-103v1126h103v-493h270l352 493h123l-379 -534l387 -592h-122l-361 541h-270v-541z" />
    <glyph glyph-name="lambda" unicode="&#x3bb;" 
d="M256 0h-117l443 1104l-154 391h117l545 -1495h-111l-262 731q-33 89 -86 258q-36 -114 -92 -258z" />
    <glyph glyph-name="uni03BC" unicode="&#x3bc;" 
d="M911 389v737h103v-1126h-103v154h-4q-35 -82 -111 -128t-178 -46t-176 46t-110 128h-4v-523h-103v1495h103v-737q0 -152 76 -236.5t214 -84.5t215.5 84.5t77.5 236.5z" />
    <glyph glyph-name="nu" unicode="&#x3bd;" 
d="M678 0h-127l-436 1126h108l328 -839q13 -33 25 -72t24.5 -84.5t15.5 -54.5q27 108 68 211l326 839h104z" />
    <glyph glyph-name="xi" unicode="&#x3be;" 
d="M657 92h271q92 0 145 -50t53 -136v-275h-102v275q0 43 -26 68.5t-70 25.5h-271q-204 0 -323 113.5t-119 308.5q0 154 77.5 254t213.5 123q-122 22 -191 107t-69 216q0 172 113.5 272.5t308.5 100.5h360v-92h-360q-148 0 -234 -76t-86 -205t83 -203.5t226 -74.5h306v-92
h-306q-157 0 -248.5 -89t-91.5 -241t91.5 -241t248.5 -89z" />
    <glyph glyph-name="omicron" unicode="&#x3bf;" 
d="M614 -20q-182 0 -290.5 111t-108.5 298v348q0 186 109 298t290 112t290.5 -112t109.5 -298v-348q0 -187 -108.5 -298t-291.5 -111zM614 70q141 0 219 83.5t78 235.5v348q0 151 -78.5 235.5t-218.5 84.5t-218.5 -84.5t-78.5 -235.5v-348q0 -152 78 -235.5t219 -83.5z" />
    <glyph glyph-name="pi" unicode="&#x3c0;" 
d="M1116 -10h-57q-118 0 -187 71.5t-69 194.5v778h-445v-1034h-102v1034h-184v92h1044v-92h-211v-778q0 -80 42 -127t112 -47h57v-92z" />
    <glyph glyph-name="rho" unicode="&#x3c1;" 
d="M621 1147q180 0 286.5 -111t106.5 -297v-350q0 -184 -103 -296.5t-270 -112.5q-108 0 -189 46t-118 128h-6v-523h-103v1108q-1 189 105 298.5t291 109.5zM911 389v350q0 151 -76.5 235.5t-213.5 84.5q-138 0 -216 -85.5t-77 -234.5v-350q0 -152 77.5 -236.5t215.5 -84.5
q137 0 213.5 84.5t76.5 236.5z" />
    <glyph glyph-name="uni03C2" unicode="&#x3c2;" 
d="M1057 -369h-103v275q0 43 -26 68.5t-70 25.5h-240q-186 0 -294.5 111t-108.5 299v327q0 186 109.5 298t293.5 112q186 0 296 -105.5t110 -283.5h-102q0 138 -81.5 216.5t-222.5 78.5q-140 0 -220.5 -83.5t-80.5 -232.5v-327q0 -147 80.5 -231.5t220.5 -84.5h240
q92 0 145.5 -51t53.5 -137v-275z" />
    <glyph glyph-name="sigma" unicode="&#x3c3;" 
d="M614 1126h451v-90h-236q86 -28 135.5 -107t49.5 -192v-348q0 -187 -108.5 -298t-291.5 -111q-182 0 -290.5 111t-108.5 298v348q0 173 110.5 281t288.5 108zM911 389v348q0 156 -66 227.5t-231 71.5q-142 0 -219.5 -75.5t-77.5 -223.5v-348q0 -152 78 -235.5t219 -83.5
t219 83.5t78 235.5z" />
    <glyph glyph-name="tau" unicode="&#x3c4;" 
d="M1014 0h-226q-129 0 -197.5 66t-68.5 190v778h-379v92h891v-92h-409v-778q0 -80 42 -122t121 -42h226v-92z" />
    <glyph glyph-name="upsilon" unicode="&#x3c5;" 
d="M612 -20q-183 0 -287 111t-104 306v729h103v-729q0 -153 76.5 -239t211.5 -86q137 0 215 86t78 239v729h103v-729q0 -194 -106 -305.5t-290 -111.5z" />
    <glyph glyph-name="phi" unicode="&#x3c6;" 
d="M666 -369h-103v369q-200 0 -310 109t-110 305v712h99v-712q0 -153 84.5 -238.5t240.5 -85.5v1036h174q161 0 252.5 -91.5t91.5 -252.5v-368q0 -196 -109.5 -305t-309.5 -109v-369zM662 1036v-946q156 0 240.5 85.5t84.5 238.5v368q0 120 -65 187t-181 67h-79z" />
    <glyph glyph-name="chi" unicode="&#x3c7;" 
d="M221 -369h-112l444 779l-414 716h115l250 -454q36 -68 110 -191q72 122 111 191l254 454h111l-414 -712l444 -783h-114l-279 516l-111 191q-17 -30 -56.5 -100t-51.5 -91z" />
    <glyph glyph-name="psi" unicode="&#x3c8;" 
d="M666 -369h-103v369q-196 0 -303.5 110.5t-107.5 303.5v712h98v-712q0 -154 82 -235t235 -81v1028h95v-1028q153 0 235 81t82 235v712h98v-712q0 -193 -107.5 -303.5t-303.5 -110.5v-369z" />
    <glyph glyph-name="omega" unicode="&#x3c9;" 
d="M803 1053v94q133 -25 207.5 -121t74.5 -244v-495q0 -141 -68 -224t-183 -83q-87 0 -145 49t-75 137q-17 -88 -74.5 -137t-144.5 -49q-116 0 -184 83t-68 224v495q0 148 74.5 244t208.5 121v-94q-86 -26 -135 -98t-49 -173v-495q0 -106 42 -161.5t119 -55.5q78 0 121 55.5
t43 161.5v495h95v-495q0 -106 42 -161.5t119 -55.5q78 0 121 55.5t43 161.5v495q0 101 -49 173t-135 98z" />
    <glyph glyph-name="iotadieresis" unicode="&#x3ca;" 
d="M395 1341q-47 0 -76.5 31t-29.5 82t29.5 82t76.5 31t77 -31t30 -82t-30 -82t-77 -31zM836 1341q-49 0 -79 31t-30 82t30 82t79 31q47 0 75.5 -31t28.5 -82t-28.5 -82t-75.5 -31zM1106 0h-250q-138 0 -212.5 71.5t-74.5 204.5v758h-426v92h529v-850q0 -184 184 -184h250
v-92z" />
    <glyph glyph-name="upsilondieresis" unicode="&#x3cb;" 
d="M395 1341q-47 0 -76.5 31t-29.5 82t29.5 82t76.5 31t77 -31t30 -82t-30 -82t-77 -31zM836 1341q-49 0 -79 31t-30 82t30 82t79 31q47 0 75.5 -31t28.5 -82t-28.5 -82t-75.5 -31zM612 -20q-183 0 -287 111t-104 306v729h103v-729q0 -153 76.5 -239t211.5 -86q137 0 215 86
t78 239v729h103v-729q0 -194 -106 -305.5t-290 -111.5z" />
    <glyph glyph-name="omicrontonos" unicode="&#x3cc;" 
d="M670 1321h-109l217 287h121zM614 -20q-182 0 -290.5 111t-108.5 298v348q0 186 109 298t290 112t290.5 -112t109.5 -298v-348q0 -187 -108.5 -298t-291.5 -111zM614 70q141 0 219 83.5t78 235.5v348q0 151 -78.5 235.5t-218.5 84.5t-218.5 -84.5t-78.5 -235.5v-348
q0 -152 78 -235.5t219 -83.5z" />
    <glyph glyph-name="upsilontonos" unicode="&#x3cd;" 
d="M670 1321h-109l217 287h121zM612 -20q-183 0 -287 111t-104 306v729h103v-729q0 -153 76.5 -239t211.5 -86q137 0 215 86t78 239v729h103v-729q0 -194 -106 -305.5t-290 -111.5z" />
    <glyph glyph-name="omegatonos" unicode="&#x3ce;" 
d="M737 1608h121l-229 -287h-109zM803 1053v94q133 -25 207.5 -121t74.5 -244v-495q0 -141 -68 -224t-183 -83q-87 0 -145 49t-75 137q-17 -88 -74.5 -137t-144.5 -49q-116 0 -184 83t-68 224v495q0 148 74.5 244t208.5 121v-94q-86 -26 -135 -98t-49 -173v-495
q0 -106 42 -161.5t119 -55.5q78 0 121 55.5t43 161.5v495h95v-495q0 -106 42 -161.5t119 -55.5q78 0 121 55.5t43 161.5v495q0 101 -49 173t-135 98z" />
    <glyph glyph-name="uni03CF" unicode="&#x3cf;" 
d="M733 780l324 -676h90v-176q0 -145 -79 -221t-228 -76h-92v93h92q98 0 151 53t53 151v72h-59l-346 729h-311v-729h-103v1495h103v-674h313l332 674h112z" />
    <glyph glyph-name="uni03D5" unicode="&#x3d5;" 
d="M664 -369h-99v369q-197 0 -311.5 111t-114.5 303v303q0 190 114.5 299.5t311.5 109.5v371h99v-371q197 0 311.5 -109.5t114.5 -299.5v-303q0 -192 -114.5 -303t-311.5 -111v-369zM565 88v950q-154 0 -240.5 -84.5t-86.5 -236.5v-303q0 -154 86.5 -240t240.5 -86z
M664 1038v-950q154 0 240.5 86t86.5 240v303q0 152 -86.5 236.5t-240.5 84.5z" />
    <glyph glyph-name="uni03D6" unicode="&#x3d6;" 
d="M41 1126h1147v-92h-221q56 -33 87 -92.5t31 -136.5v-518q0 -141 -68 -224t-183 -83q-87 0 -145 49t-75 137q-17 -88 -74.5 -137t-144.5 -49q-116 0 -184 83t-68 224v518q0 77 31.5 136.5t87.5 92.5h-221v92zM987 287v530q0 106 -43 161.5t-121 55.5h-420
q-77 0 -119 -55.5t-42 -161.5v-530q0 -106 42 -161.5t119 -55.5q78 0 121 55.5t43 161.5v495h95v-495q0 -106 42 -161.5t119 -55.5q78 0 121 55.5t43 161.5z" />
    <glyph glyph-name="uni03D7" unicode="&#x3d7;" 
d="M1004 1126v-1022h61v-176q0 -145 -79 -221t-228 -76h-92v93h92q98 0 151.5 53t53.5 151v72h-62v717q0 165 8 317l-547 -1034h-137v1126h103v-716q0 -147 -9 -318l545 1034h140z" />
    <glyph glyph-name="uni0401" unicode="&#x401;" 
d="M440 1690q-47 0 -76.5 30.5t-29.5 81.5t29.5 82t76.5 31t77 -31t30 -82t-29.5 -81.5t-77.5 -30.5zM881 1690q-50 0 -79.5 30.5t-29.5 81.5t30 82t79 31q47 0 75.5 -31t28.5 -82t-28.5 -81.5t-75.5 -30.5zM1044 0h-798v1495h798v-94h-696v-576h625v-92h-625v-639h696v-94z
" />
    <glyph glyph-name="uni0402" unicode="&#x402;" 
d="M633 -369h-86v93h86q151 0 235 81t84 226v657q0 111 -48 174.5t-132 63.5q-122 0 -250 -131l-153 -160v-635h-103v1403h-266v92h625v-92h-256v-651l96 102q151 160 321 160q123 0 196 -83t73 -222v-678q0 -183 -115 -291.5t-307 -108.5z" />
    <glyph glyph-name="uni0403" unicode="&#x403;" 
d="M690 1659h-108l217 287h121zM389 0h-102v1495h829v-92h-727v-1403z" />
    <glyph glyph-name="uni0404" unicode="&#x404;" 
d="M627 -20q-187 0 -299.5 111.5t-112.5 297.5v717q0 187 112 298.5t300 111.5q190 0 303.5 -117t113.5 -314h-102q0 157 -84.5 247.5t-230.5 90.5q-143 0 -226.5 -85t-83.5 -232v-305h482v-92h-482v-320q0 -148 82.5 -232.5t227.5 -84.5q147 0 231 90.5t84 247.5h102
q0 -196 -113 -313t-304 -117z" />
    <glyph glyph-name="uni0405" unicode="&#x405;" 
d="M625 -20q-207 0 -329 108t-122 291h102q0 -139 95.5 -223t253.5 -84q154 0 240.5 77t86.5 213q0 118 -67.5 206.5t-184.5 123.5l-172 51q-148 44 -230.5 150t-82.5 252q0 170 111.5 270.5t300.5 100.5q187 0 297 -106t110 -288h-102q0 137 -84 219t-223 82
q-143 0 -225.5 -72t-82.5 -198q0 -110 63.5 -193.5t172.5 -117.5l172 -54q153 -47 241.5 -159.5t88.5 -259.5q0 -179 -116 -284t-314 -105z" />
    <glyph glyph-name="uni0406" unicode="&#x406;" 
d="M983 0h-737v94h319v1307h-319v94h737v-94h-315v-1307h315v-94z" />
    <glyph glyph-name="uni0407" unicode="&#x407;" 
d="M399 1690q-47 0 -76.5 30.5t-29.5 81.5t29.5 82t76.5 31t77 -31t30 -82t-29.5 -81.5t-77.5 -30.5zM840 1690q-50 0 -79.5 30.5t-29.5 81.5t30 82t79 31q47 0 75.5 -31t28.5 -82t-28.5 -81.5t-75.5 -30.5zM983 0h-737v94h319v1307h-319v94h737v-94h-315v-1307h315v-94z
" />
    <glyph glyph-name="uni0408" unicode="&#x408;" 
d="M563 -20q-196 0 -308 114.5t-112 315.5h103q0 -158 84.5 -248t232.5 -90t233 90.5t85 245.5v991h-465v96h567v-1087q0 -199 -112.5 -313.5t-307.5 -114.5z" />
    <glyph glyph-name="uni0409" unicode="&#x409;" 
d="M41 -10h-51v102h51q67 0 105 61.5t40 170.5l19 1171h506v-635h139q141 0 224 -83t83 -224v-246q0 -141 -83 -224t-224 -83h-242v1403h-301l-18 -1079q-1 -152 -69 -243t-179 -91zM711 768v-676h139q95 0 150 57.5t55 157.5v246q0 100 -55 157.5t-150 57.5h-139z" />
    <glyph glyph-name="uni040A" unicode="&#x40a;" 
d="M229 0h-102v1495h102v-635h379v635h103v-635h129q146 0 231.5 -83t85.5 -224v-246q0 -141 -85.5 -224t-231.5 -83h-232v768h-379v-768zM711 768v-676h129q100 0 157.5 57.5t57.5 157.5v246q0 100 -57.5 157.5t-157.5 57.5h-129z" />
    <glyph glyph-name="uni040B" unicode="&#x40b;" 
d="M369 0h-103v1403h-266v92h625v-92h-256v-653l96 102q153 162 323 162q122 0 194.5 -83t72.5 -222v-709h-103v688q0 111 -48 174.5t-132 63.5q-122 0 -250 -131l-153 -160v-635z" />
    <glyph glyph-name="uni040C" unicode="&#x40c;" 
d="M649 1659h-108l217 287h121zM328 0h-103v1495h103v-674h313l332 674h112l-352 -715l373 -780h-121l-346 729h-311v-729z" />
    <glyph glyph-name="uni040E" unicode="&#x40e;" 
d="M614 1655q-136 0 -216.5 78.5t-80.5 212.5h93q0 -97 54 -153t148 -56q95 0 151 56t56 153h92q0 -134 -80.5 -212.5t-216.5 -78.5zM545 0h-117l154 391l-443 1104h117l283 -731q56 -144 92 -258q53 169 86 258l262 731h111z" />
    <glyph glyph-name="uni040F" unicode="&#x40f;" 
d="M672 -256h-113v256h-334v1495h113v-1393h553v1393h113v-1495h-332v-256z" />
    <glyph glyph-name="uni0410" unicode="&#x410;" 
d="M242 0h-103l412 1495h127l412 -1495h-107l-115 430h-512zM545 1126l-164 -604h463l-162 604q-49 184 -68 283q-16 -85 -69 -283z" />
    <glyph glyph-name="uni0411" unicode="&#x411;" 
d="M627 0h-402v1495h770v-92h-667v-574h299q197 0 313.5 -111t116.5 -300q0 -191 -117 -304.5t-313 -113.5zM328 737v-645h299q154 0 240.5 86t86.5 238q0 151 -86.5 236t-240.5 85h-299z" />
    <glyph glyph-name="uni0412" unicode="&#x412;" 
d="M788 770q127 -28 198 -122t71 -238q0 -188 -119.5 -299t-321.5 -111h-391v1495h385q186 0 298 -105t112 -280q0 -132 -61.5 -222t-170.5 -118zM610 1401h-282v-586h282q144 0 226 78t82 215q0 136 -82.5 214.5t-225.5 78.5zM328 94h288q157 0 247.5 84t90.5 230
t-90.5 230.5t-247.5 84.5h-288v-629z" />
    <glyph glyph-name="uni0413" unicode="&#x413;" 
d="M389 0h-102v1495h829v-92h-727v-1403z" />
    <glyph glyph-name="uni0414" unicode="&#x414;" 
d="M190 -287h-92v379h70q51 67 94.5 194.5t46.5 278.5l21 930h649v-1403h147v-379h-92v287h-844v-287zM276 92h601v1311h-445l-20 -838q-4 -151 -45.5 -279t-90.5 -194z" />
    <glyph glyph-name="uni0415" unicode="&#x415;" 
d="M1044 0h-798v1495h798v-94h-696v-576h625v-92h-625v-639h696v-94z" />
    <glyph glyph-name="uni0416" unicode="&#x416;" 
d="M166 0h-107l275 776l-256 719h106l238 -684h145v684h90v-684h146l239 684h105l-256 -719l276 -776h-108l-256 725h-146v-725h-90v725h-145z" />
    <glyph glyph-name="uni0417" unicode="&#x417;" 
d="M770 768q130 -26 208.5 -125.5t78.5 -241.5q0 -187 -128.5 -304t-334.5 -117t-334.5 115.5t-128.5 299.5h102q0 -144 100.5 -233.5t260.5 -89.5t260 89.5t100 233.5q0 146 -100 237t-260 91h-154v92h144q149 0 241.5 85t92.5 220t-92.5 220t-241.5 85t-241.5 -85
t-92.5 -220h-103q0 175 122 285.5t315 110.5t314.5 -110.5t121.5 -285.5q0 -134 -67.5 -228.5t-182.5 -123.5z" />
    <glyph glyph-name="uni0418" unicode="&#x418;" 
d="M365 0h-142v1495h99v-1147q0 -137 -5 -235l545 1382h144v-1495h-99v1147q0 71 8 235z" />
    <glyph glyph-name="uni0419" unicode="&#x419;" 
d="M614 1655q-136 0 -216.5 78.5t-80.5 212.5h93q0 -97 54 -153t148 -56q95 0 151 56t56 153h92q0 -134 -80.5 -212.5t-216.5 -78.5zM365 0h-142v1495h99v-1147q0 -137 -5 -235l545 1382h144v-1495h-99v1147q0 71 8 235z" />
    <glyph glyph-name="uni041A" unicode="&#x41a;" 
d="M328 0h-103v1495h103v-674h313l332 674h112l-352 -715l373 -780h-121l-346 729h-311v-729z" />
    <glyph glyph-name="uni041B" unicode="&#x41b;" 
d="M113 -10h-62v102h62q76 0 123 67t49 177l16 1159h703v-1495h-103v1401h-498l-16 -1065q-3 -159 -76.5 -252.5t-197.5 -93.5z" />
    <glyph glyph-name="uni041C" unicode="&#x41c;" 
d="M289 0h-101v1495h154l209 -573q34 -87 65 -187q21 68 66 187l207 573h151v-1495h-100v901q0 265 10 543l-278 -778h-113l-283 778q13 -240 13 -543v-901z" />
    <glyph glyph-name="uni041D" unicode="&#x41d;" 
d="M328 0h-103v1495h103v-672h573v672h103v-1495h-103v729h-573v-729z" />
    <glyph glyph-name="uni041E" unicode="&#x41e;" 
d="M614 -20q-182 0 -290.5 111t-108.5 298v717q0 186 109 298t290 112t290.5 -112t109.5 -298v-717q0 -187 -108.5 -298t-291.5 -111zM614 70q141 0 219 83.5t78 235.5v717q0 151 -78.5 235t-218.5 84t-218.5 -84t-78.5 -235v-717q0 -152 78 -235.5t219 -83.5z" />
    <glyph glyph-name="uni041F" unicode="&#x41f;" 
d="M328 0h-103v1495h779v-1495h-103v1403h-573v-1403z" />
    <glyph glyph-name="uni0420" unicode="&#x420;" 
d="M328 0h-103v1495h441q196 0 313 -113.5t117 -302.5t-117.5 -302t-312.5 -113h-338v-664zM328 1401v-643h338q150 0 238.5 87t88.5 234q0 149 -88 235.5t-239 86.5h-338z" />
    <glyph glyph-name="uni0421" unicode="&#x421;" 
d="M627 -20q-187 0 -299.5 111.5t-112.5 297.5v717q0 187 112 298.5t300 111.5q190 0 303.5 -117t113.5 -314h-102q0 157 -84.5 247.5t-230.5 90.5q-143 0 -226.5 -85t-83.5 -232v-717q0 -148 82.5 -232.5t227.5 -84.5q147 0 231 90.5t84 247.5h102q0 -196 -113 -313
t-304 -117z" />
    <glyph glyph-name="uni0422" unicode="&#x422;" 
d="M668 0h-103v1403h-442v92h983v-92h-438v-1403z" />
    <glyph glyph-name="uni0423" unicode="&#x423;" 
d="M545 0h-117l154 391l-443 1104h117l283 -731q56 -144 92 -258q53 169 86 258l262 731h111z" />
    <glyph glyph-name="uni0424" unicode="&#x424;" 
d="M666 -51h-103v143q-198 0 -313 111.5t-115 302.5v518q0 188 114.5 299t313.5 111v143h103v-143q199 0 313.5 -111t114.5 -299v-518q0 -191 -115 -302.5t-313 -111.5v-143zM563 184v1157q-144 0 -234.5 -89.5t-90.5 -227.5v-518q0 -140 91.5 -231t233.5 -91zM666 1341
v-1157q142 0 233.5 91t91.5 231v518q0 138 -90.5 227.5t-234.5 89.5z" />
    <glyph glyph-name="uni0425" unicode="&#x425;" 
d="M221 0h-112l444 778l-414 717h115l250 -455q31 -59 110 -190q104 177 111 190l254 455h111l-414 -713l444 -782h-114l-279 516l-111 191q-17 -30 -56.5 -100t-51.5 -91z" />
    <glyph glyph-name="uni0426" unicode="&#x426;" 
d="M1126 -287h-102v287h-799v1495h103v-1403h538v1403h103v-1403h157v-379z" />
    <glyph glyph-name="uni0427" unicode="&#x427;" 
d="M1004 0h-103l2 639q-132 -25 -291 -25q-217 0 -322.5 97t-105.5 295v489h103v-489q0 -157 82.5 -228t263.5 -71q155 0 268 22v766h103v-1495z" />
    <glyph glyph-name="uni0428" unicode="&#x428;" 
d="M1073 0h-917v1495h98v-1407h311v1407h99v-1407h311v1407h98v-1495z" />
    <glyph glyph-name="uni0429" unicode="&#x429;" 
d="M1157 -287h-102v287h-899v1495h98v-1407h305v1407h98v-1407h306v1407h98v-1407h96v-375z" />
    <glyph glyph-name="uni042A" unicode="&#x42a;" 
d="M635 0h-348v1393h-267v102h369v-635h246q201 0 320.5 -117t119.5 -313t-119.5 -313t-320.5 -117zM389 768v-676h246q154 0 245 92t91 246t-91 246t-245 92h-246z" />
    <glyph glyph-name="uni042B" unicode="&#x42b;" 
d="M379 0h-215v1495h102v-635h113q183 0 291 -106t108 -283v-82q0 -177 -108 -283t-291 -106zM1065 0h-102v1495h102v-1495zM266 768v-676h113q138 0 217.5 79.5t79.5 217.5v82q0 138 -79.5 217.5t-217.5 79.5h-113z" />
    <glyph glyph-name="uni042C" unicode="&#x42c;" 
d="M635 0h-410v1495h103v-635h307q201 0 320.5 -117t119.5 -313t-119.5 -313t-320.5 -117zM328 768v-676h307q154 0 245 92t91 246t-91 246t-245 92h-307z" />
    <glyph glyph-name="uni042D" unicode="&#x42d;" 
d="M612 -20q-191 0 -304 117t-113 313h102q0 -157 84 -247.5t231 -90.5q145 0 227.5 84.5t82.5 232.5v320h-482v92h482v305q0 147 -83.5 232t-226.5 85q-146 0 -230.5 -90.5t-84.5 -247.5h-102q0 197 113.5 314t303.5 117q188 0 300 -111.5t112 -298.5v-717
q0 -186 -112.5 -297.5t-299.5 -111.5z" />
    <glyph glyph-name="uni042E" unicode="&#x42e;" 
d="M791 -20q-145 0 -228.5 92t-83.5 256v401h-225v-729h-98v1495h98v-684h225v356q0 164 83.5 256.5t228.5 92.5q146 0 228.5 -92.5t82.5 -256.5v-839q0 -164 -82.5 -256t-228.5 -92zM791 72q98 0 155.5 69t57.5 187v839q0 118 -57.5 187t-155.5 69t-155.5 -69t-57.5 -187
v-839q0 -118 57.5 -187t155.5 -69z" />
    <glyph glyph-name="uni042F" unicode="&#x42f;" 
d="M266 0h-119l345 680q-157 23 -247.5 130.5t-90.5 270.5q0 191 116 302.5t314 111.5h420v-1495h-103v676h-299zM584 768h317v635h-317q-149 0 -238.5 -86.5t-89.5 -231.5t89.5 -231t238.5 -86z" />
    <glyph glyph-name="uni0430" unicode="&#x430;" 
d="M623 1147q173 0 279 -104.5t106 -274.5v-768h-103v180q-32 -93 -126 -146.5t-228 -53.5q-173 0 -278 91.5t-105 243.5q0 145 96 232.5t254 87.5h387v133q0 135 -73.5 210t-208.5 75q-123 0 -203 -60.5t-94 -163.5h-103q20 143 130 230.5t270 87.5zM580 70q146 0 235.5 75
t89.5 197v203h-389q-110 0 -178 -60.5t-68 -160.5q0 -114 85.5 -184t224.5 -70z" />
    <glyph glyph-name="uni0431" unicode="&#x431;" 
d="M641 1014q183 0 280 -110.5t97 -319.5v-174q0 -206 -103.5 -318t-293.5 -112q-192 0 -297 112.5t-105 317.5v563q0 253 127 387.5t365 134.5h256v-102h-256q-188 0 -291 -109.5t-103 -310.5v-168h9q22 100 103.5 154.5t211.5 54.5zM915 410v174q0 160 -78 251t-216 91
q-142 0 -220.5 -92.5t-78.5 -249.5v-174q0 -158 79.5 -248t219.5 -90q138 0 216 90t78 248z" />
    <glyph glyph-name="uni0432" unicode="&#x432;" 
d="M692 0h-467v1126h453q156 0 247 -76t91 -206q0 -104 -58.5 -171.5t-158.5 -76.5v-6q114 -5 183 -80t69 -197q0 -144 -97 -228.5t-262 -84.5zM328 1034v-403h350q106 0 170.5 54.5t64.5 145.5t-64.5 147t-170.5 56h-350zM328 539v-447h364q115 0 185.5 61.5t70.5 161.5
t-70.5 162t-185.5 62h-364z" />
    <glyph glyph-name="uni0433" unicode="&#x433;" 
d="M399 0h-102v1126h768v-92h-666v-1034z" />
    <glyph glyph-name="uni0434" unicode="&#x434;" 
d="M184 -287h-92v379h94q40 59 74 158t35 201l12 675h672v-1034h147v-379h-92v287h-850v-287zM299 92h578v942h-467l-13 -583q-1 -118 -31.5 -215t-66.5 -144z" />
    <glyph glyph-name="uni0435" unicode="&#x435;" 
d="M1014 737v-194h-697v-154q0 -149 78.5 -234t220.5 -85q113 0 188 54t105 152h103q-31 -138 -135 -217t-261 -79q-188 0 -294.5 110t-106.5 299v348q0 187 107.5 298.5t293.5 111.5q185 0 291.5 -111.5t106.5 -298.5zM317 737v-106h594v106q0 149 -77.5 234.5t-217.5 85.5
q-143 0 -221 -84.5t-78 -235.5z" />
    <glyph glyph-name="uni0436" unicode="&#x436;" 
d="M176 0h-104l250 578l-234 548h107l215 -512h159v512h90v-512h156l219 512h107l-234 -542l250 -584h-108l-234 532h-156v-532h-90v532h-159z" />
    <glyph glyph-name="uni0437" unicode="&#x437;" 
d="M676 -20h-115q-167 0 -263.5 72t-121.5 204h103q55 -184 282 -184h115q109 0 182.5 66t73.5 161q0 100 -69 168t-177 68h-262v92h262q101 0 163 57t62 147t-72.5 157t-172.5 67h-115q-114 0 -174.5 -47.5t-87.5 -137.5h-103q26 135 113.5 206t251.5 71h115
q151 0 249.5 -88t98.5 -219q0 -111 -55 -182.5t-150 -77.5v-9q103 -7 164 -83.5t61 -188.5q0 -140 -99 -229.5t-259 -89.5z" />
    <glyph glyph-name="uni0438" unicode="&#x438;" 
d="M362 0h-137v1126h103v-716q0 -147 -9 -318l545 1034h140v-1126h-103v717q0 165 8 317z" />
    <glyph glyph-name="uni0439" unicode="&#x439;" 
d="M614 1317q-136 0 -216.5 78.5t-80.5 212.5h93q0 -97 54 -153t148 -56q95 0 151 56t56 153h92q0 -134 -80.5 -212.5t-216.5 -78.5zM362 0h-137v1126h103v-716q0 -147 -9 -318l545 1034h140v-1126h-103v717q0 165 8 317z" />
    <glyph glyph-name="uni043A" unicode="&#x43a;" 
d="M334 0h-103v1126h103v-493h270l352 493h123l-379 -534l387 -592h-122l-361 541h-270v-541z" />
    <glyph glyph-name="uni043B" unicode="&#x43b;" 
d="M123 -14h-51v102h51q77 0 126 70.5t52 183.5l16 784h687v-1126h-103v1034h-481l-19 -692q-5 -163 -78.5 -259.5t-199.5 -96.5z" />
    <glyph glyph-name="uni043C" unicode="&#x43c;" 
d="M289 0h-101v1126h154l209 -532q27 -63 65 -186q32 104 66 186l207 532h151v-1126h-100v532q0 266 10 543l-280 -737h-109l-285 737q13 -240 13 -543v-532z" />
    <glyph glyph-name="uni043D" unicode="&#x43d;" 
d="M328 0h-103v1126h103v-499h571v499h105v-1126h-105v535h-571v-535z" />
    <glyph glyph-name="uni043E" unicode="&#x43e;" 
d="M614 -20q-182 0 -290.5 111t-108.5 298v348q0 186 109 298t290 112t290.5 -112t109.5 -298v-348q0 -187 -108.5 -298t-291.5 -111zM614 70q141 0 219 83.5t78 235.5v348q0 151 -78.5 235.5t-218.5 84.5t-218.5 -84.5t-78.5 -235.5v-348q0 -152 78 -235.5t219 -83.5z" />
    <glyph glyph-name="uni043F" unicode="&#x43f;" 
d="M328 0h-103v1126h779v-1126h-103v1034h-573v-1034z" />
    <glyph glyph-name="uni0440" unicode="&#x440;" 
d="M641 1147q169 0 271 -111.5t102 -296.5v-350q0 -184 -103 -296.5t-270 -112.5q-108 0 -189 46t-118 128h-6v-523h-103v1495h103v-153h6q37 82 117 128t190 46zM911 389v350q0 151 -76.5 235.5t-213.5 84.5q-138 0 -215.5 -84.5t-77.5 -235.5v-350q0 -152 77.5 -236.5
t215.5 -84.5q137 0 213.5 84.5t76.5 236.5z" />
    <glyph glyph-name="uni0441" unicode="&#x441;" 
d="M618 -20q-186 0 -294.5 110.5t-108.5 298.5v348q0 186 109.5 298t293.5 112q186 0 296 -105.5t110 -283.5h-102q0 138 -81.5 216.5t-222.5 78.5q-140 0 -220.5 -83.5t-80.5 -232.5v-348q0 -147 80.5 -231t220.5 -84q141 0 222.5 78.5t81.5 216.5h102q0 -178 -110 -283.5
t-296 -105.5z" />
    <glyph glyph-name="uni0442" unicode="&#x442;" 
d="M666 0h-103v1024h-409v102h921v-102h-409v-1024z" />
    <glyph glyph-name="uni0443" unicode="&#x443;" 
d="M512 -369h-104l165 449l-417 1046h114l279 -716q11 -28 29 -74t30.5 -78.5t18.5 -50.5q8 22 34 96l39 111l261 712h112z" />
    <glyph glyph-name="uni0444" unicode="&#x444;" 
d="M664 -369h-99v369q-197 0 -311.5 111t-114.5 303v303q0 190 114.5 299.5t311.5 109.5v371h99v-371q197 0 311.5 -109.5t114.5 -299.5v-303q0 -192 -114.5 -303t-311.5 -111v-369zM565 88v950q-154 0 -240.5 -84.5t-86.5 -236.5v-303q0 -154 86.5 -240t240.5 -86z
M664 1038v-950q154 0 240.5 86t86.5 240v303q0 152 -86.5 236.5t-240.5 84.5z" />
    <glyph glyph-name="uni0445" unicode="&#x445;" 
d="M270 0h-116l401 578l-377 548h121l272 -409l45 -72l48 72l270 409h119l-377 -548l399 -578h-119l-288 430l-54 78q-3 -5 -23.5 -34t-29.5 -44z" />
    <glyph glyph-name="uni0446" unicode="&#x446;" 
d="M1126 -287h-102v287h-799v1126h103v-1034h538v1034h103v-1034h157v-379z" />
    <glyph glyph-name="uni0447" unicode="&#x447;" 
d="M995 0h-102l2 430q-102 -20 -270 -20q-226 0 -328 90.5t-102 290.5v335h102v-335q0 -150 79 -218.5t253 -68.5q162 0 264 20v602h102v-1126z" />
    <glyph glyph-name="uni0448" unicode="&#x448;" 
d="M1073 0h-917v1126h98v-1038h311v1038h99v-1038h311v1038h98v-1126z" />
    <glyph glyph-name="uni0449" unicode="&#x449;" 
d="M1157 -287h-102v287h-899v1126h98v-1038h305v1038h98v-1038h306v1038h98v-1038h96v-375z" />
    <glyph glyph-name="uni044A" unicode="&#x44a;" 
d="M696 0h-420v1024h-256v102h369v-413h307q184 0 292 -96.5t108 -260.5q0 -162 -109 -259t-291 -97zM389 610v-508h307q132 0 209.5 68.5t77.5 185.5q0 118 -77.5 186t-209.5 68h-307z" />
    <glyph glyph-name="uni044B" unicode="&#x44b;" 
d="M389 0h-225v1126h102v-430h123q179 0 284 -94t105 -254t-104.5 -254t-284.5 -94zM1065 0h-102v1126h102v-1126zM266 604v-512h123q135 0 211 67.5t76 188.5t-76 188.5t-211 67.5h-123z" />
    <glyph glyph-name="uni044C" unicode="&#x44c;" 
d="M696 0h-460v1126h102v-413h358q182 0 291 -97t109 -260q0 -162 -109 -259t-291 -97zM338 621v-529h358q138 0 217.5 70.5t79.5 193.5t-79.5 194t-217.5 71h-358z" />
    <glyph glyph-name="uni044D" unicode="&#x44d;" 
d="M610 -20q-186 0 -295.5 105t-109.5 284h102q0 -138 81 -218.5t222 -80.5q139 0 220 85.5t81 233.5v123h-430v102h430v123q0 149 -80.5 234.5t-220.5 85.5q-141 0 -222 -80.5t-81 -218.5h-102q0 179 109.5 284t295.5 105q184 0 294 -112t110 -298v-348q0 -188 -109 -298.5
t-295 -110.5z" />
    <glyph glyph-name="uni044E" unicode="&#x44e;" 
d="M791 -20q-145 0 -227.5 92t-82.5 256v202h-227v-530h-98v1126h98v-514h227v187q0 164 82.5 256t227.5 92q146 0 228.5 -92t82.5 -256v-471q0 -164 -82.5 -256t-228.5 -92zM791 72q98 0 155.5 69t57.5 187v471q0 118 -57.5 187t-155.5 69t-155.5 -69t-57.5 -187v-471
q0 -118 57.5 -187t155.5 -69z" />
    <glyph glyph-name="uni044F" unicode="&#x44f;" 
d="M295 0h-117l279 438q-134 26 -208.5 114.5t-74.5 223.5q0 161 108 255.5t291 94.5h431v-1126h-103v426h-344zM573 520h328v514h-328q-133 0 -215 -71t-82 -187q0 -117 81 -186.5t216 -69.5z" />
    <glyph glyph-name="uni0451" unicode="&#x451;" 
d="M395 1341q-47 0 -76.5 31t-29.5 82t29.5 82t76.5 31t77 -31t30 -82t-30 -82t-77 -31zM836 1341q-49 0 -79 31t-30 82t30 82t79 31q47 0 75.5 -31t28.5 -82t-28.5 -82t-75.5 -31zM1014 737v-194h-697v-154q0 -149 78.5 -234t220.5 -85q113 0 188 54t105 152h103
q-31 -138 -135 -217t-261 -79q-188 0 -294.5 110t-106.5 299v348q0 187 107.5 298.5t293.5 111.5q185 0 291.5 -111.5t106.5 -298.5zM317 737v-106h594v106q0 149 -77.5 234.5t-217.5 85.5q-143 0 -221 -84.5t-78 -235.5z" />
    <glyph glyph-name="uni0452" unicode="&#x452;" 
d="M641 1024q166 0 266.5 -107t100.5 -288v-609q0 -183 -105.5 -286t-292.5 -103h-139v93h139q145 0 220 75.5t75 220.5v594q0 152 -75.5 237t-208.5 85q-135 0 -214 -86.5t-79 -235.5v-614h-103v1200h-207v92h207v203h103v-203h366v-92h-366v-360h8q34 87 113.5 135.5
t191.5 48.5z" />
    <glyph glyph-name="uni0453" unicode="&#x453;" 
d="M731 1321h-108l217 287h121zM399 0h-102v1126h768v-92h-666v-1034z" />
    <glyph glyph-name="uni0454" unicode="&#x454;" 
d="M618 -20q-186 0 -294.5 110.5t-108.5 298.5v348q0 186 109.5 298t293.5 112q186 0 296 -105.5t110 -283.5h-102q0 138 -81.5 218.5t-222.5 80.5q-140 0 -220.5 -85.5t-80.5 -234.5v-123h431v-102h-431v-123q0 -148 81 -233.5t220 -85.5q141 0 222.5 80.5t81.5 218.5h102
q0 -178 -110 -283.5t-296 -105.5z" />
    <glyph glyph-name="uni0455" unicode="&#x455;" 
d="M694 -20h-137q-152 0 -252.5 82t-114.5 214h103q15 -90 87 -147t177 -57h137q112 0 178 58.5t66 156.5q0 88 -53 149.5t-142 73.5l-219 31q-145 20 -224 98t-79 203q0 139 97 222t260 83h86q152 0 249.5 -75.5t112.5 -201.5h-102q-12 81 -83.5 133t-176.5 52h-86
q-116 0 -184 -57t-68 -154q0 -84 55 -136t160 -67l215 -31q129 -19 205.5 -102t76.5 -207q0 -146 -93.5 -233.5t-250.5 -87.5z" />
    <glyph glyph-name="uni0456" unicode="&#x456;" horiz-adv-x="1024" 
d="M530 1341q-54 0 -86 31t-32 82t32 82t86 31t86.5 -31t32.5 -82t-32.5 -82t-86.5 -31zM897 0h-692v92h307v942h-268v92h370v-1034h283v-92z" />
    <glyph glyph-name="uni0457" unicode="&#x457;" 
d="M311 1341q-47 0 -76.5 31t-29.5 82t29.5 82t76.5 31t77 -31t30 -82t-30 -82t-77 -31zM752 1341q-49 0 -79 31t-30 82t30 82t79 31q47 0 75.5 -31t28.5 -82t-28.5 -82t-75.5 -31zM897 0h-692v92h307v942h-268v92h370v-1034h283v-92z" />
    <glyph glyph-name="uni0458" unicode="&#x458;" horiz-adv-x="819" 
d="M541 1341q-54 0 -86.5 31t-32.5 82t32.5 82t86.5 31t86 -31t32 -82t-32 -82t-86 -31zM205 -369h-137v93h137q145 0 220 75.5t75 220.5v1014h-379v92h481v-1106q0 -183 -105 -286t-292 -103z" />
    <glyph glyph-name="uni0459" unicode="&#x459;" 
d="M51 -10h-41v102h41q68 0 106.5 66.5t41.5 187.5l12 780h508v-430h121q148 0 232.5 -82t84.5 -225v-82q0 -143 -84.5 -225t-232.5 -82h-219v1034h-312l-14 -688q-3 -169 -67 -262.5t-177 -93.5zM719 604v-512h121q103 0 161 57t58 158v82q0 101 -58 158t-161 57h-121z" />
    <glyph glyph-name="uni045A" unicode="&#x45a;" 
d="M252 0h-98v1126h98v-430h369v430h98v-430h121q146 0 231.5 -82.5t85.5 -224.5v-82q0 -143 -84.5 -225t-232.5 -82h-219v608h-369v-608zM719 608v-518h121q103 0 161 57t58 160v82q0 103 -58 161t-161 58h-121z" />
    <glyph glyph-name="uni045B" unicode="&#x45b;" 
d="M225 1200h-207v92h207v203h103v-203h366v-92h-366v-360h8q34 87 113.5 135.5t191.5 48.5q166 0 266.5 -107t100.5 -288v-629h-103v614q0 152 -75.5 237t-208.5 85q-135 0 -214 -86.5t-79 -235.5v-614h-103v1200z" />
    <glyph glyph-name="uni045C" unicode="&#x45c;" 
d="M670 1321h-109l217 287h121zM334 0h-103v1126h103v-493h270l352 493h123l-379 -534l387 -592h-122l-361 541h-270v-541z" />
    <glyph glyph-name="uni045E" unicode="&#x45e;" 
d="M614 1317q-136 0 -216.5 78.5t-80.5 212.5h93q0 -97 54 -153t148 -56q95 0 151 56t56 153h92q0 -134 -80.5 -212.5t-216.5 -78.5zM512 -369h-104l165 449l-417 1046h114l279 -716q11 -28 29 -74t30.5 -78.5t18.5 -50.5q8 22 34 96l39 111l261 712h112z" />
    <glyph glyph-name="uni045F" unicode="&#x45f;" 
d="M672 -256h-113v256h-334v1126h113v-1024h553v1024h113v-1126h-332v-256z" />
    <glyph glyph-name="uni0490" unicode="&#x490;" 
d="M389 0h-102v1495h727v195h102v-287h-727v-1403z" />
    <glyph glyph-name="uni0491" unicode="&#x491;" 
d="M399 0h-102v1126h666v215h102v-307h-666v-1034z" />
    <glyph glyph-name="uni0492" unicode="&#x492;" 
d="M1137 1495v-92h-727v-600h348v-92h-348v-711h-103v711h-225v92h225v692h830z" />
    <glyph glyph-name="uni0493" unicode="&#x493;" 
d="M1096 1126v-92h-666v-399h389v-92h-389v-543h-102v543h-205v92h205v491h768z" />
    <glyph glyph-name="uni049A" unicode="&#x49a;" 
d="M723 780l330 -688h94v-379h-103v287h-69l-346 729h-312v-729h-102v1495h102v-674h314l332 674h112z" />
    <glyph glyph-name="uni049B" unicode="&#x49b;" 
d="M694 592l328 -500h94v-379h-102v287h-56l-360 541h-270v-541h-103v1126h103v-493h270l352 493h123z" />
    <glyph glyph-name="uni04A2" unicode="&#x4a2;" 
d="M999 1495v-1403h97v-379h-103v287h-96v729h-573v-729h-103v1495h103v-672h573v672h102z" />
    <glyph glyph-name="uni04A3" unicode="&#x4a3;" 
d="M999 1126v-1034h97v-379h-103v287h-98v530h-571v-530h-103v1126h103v-503h571v503h104z" />
    <glyph glyph-name="uni04AE" unicode="&#x4ae;" 
d="M666 0h-103v573l-461 922h107l338 -676l69 -143q45 95 70 143l334 676h106l-460 -922v-573z" />
    <glyph glyph-name="uni04AF" unicode="&#x4af;" 
d="M666 -369h-103v369l-407 1126h108l291 -819q17 -46 61 -201q33 117 64 201l289 819h104l-407 -1126v-369z" />
    <glyph glyph-name="uni04B0" unicode="&#x4b0;" 
d="M1020 1495h106l-460 -922h286v-92h-286v-481h-103v481h-287v92h287l-461 922h107l338 -676l69 -143q45 95 70 143z" />
    <glyph glyph-name="uni04B1" unicode="&#x4b1;" 
d="M969 1126h104l-407 -1126h286v-92h-286v-277h-103v277h-287v92h287l-407 1126h108l291 -819q17 -46 61 -201q33 117 64 201z" />
    <glyph glyph-name="uni04B6" unicode="&#x4b6;" 
d="M983 1495v-1403h96v-379h-102v287h-96l2 639q-132 -25 -291 -25q-217 0 -322.5 97t-105.5 295v489h102v-489q0 -157 82.5 -228t263.5 -71q156 0 269 22v766h102z" />
    <glyph glyph-name="uni04B7" unicode="&#x4b7;" 
d="M989 1126v-1034h96v-379h-102v287h-96l2 430q-102 -20 -271 -20q-226 0 -328 90.5t-102 290.5v335h103v-335q0 -150 79 -218.5t253 -68.5q162 0 264 20v602h102z" />
    <glyph glyph-name="uni04BA" unicode="&#x4ba;" 
d="M225 1495h103l-2 -639q132 25 290 25q217 0 322.5 -97t105.5 -295v-489h-102v489q0 157 -82.5 228t-263.5 71q-155 0 -268 -22v-766h-103v1495z" />
    <glyph glyph-name="uni04BB" unicode="&#x4bb;" 
d="M233 1126h103l-2 -430q107 21 270 21q226 0 328 -90.5t102 -290.5v-336h-102v336q0 150 -79 218.5t-253 68.5q-157 0 -264 -21v-602h-103v1126z" />
    <glyph glyph-name="uni04D8" unicode="&#x4d8;" 
d="M610 -20q-192 0 -303.5 116t-111.5 314v391h727v305q0 146 -83.5 231.5t-228.5 85.5t-229 -90.5t-84 -247.5h-102q0 198 111.5 314.5t303.5 116.5q191 0 302.5 -110.5t111.5 -299.5v-717q0 -189 -111.5 -299t-302.5 -110zM610 72q145 0 228.5 85.5t83.5 231.5v320h-625
v-299q0 -157 84 -247.5t229 -90.5z" />
    <glyph glyph-name="uni04D9" unicode="&#x4d9;" 
d="M612 1147q188 0 295 -110.5t107 -299.5v-348q0 -187 -108 -298t-294 -111q-185 0 -291 111t-106 298v195h696v153q0 149 -79 234.5t-220 85.5q-112 0 -187.5 -54.5t-105.5 -152.5h-102q31 138 135 217.5t260 79.5zM911 389v107h-594v-107q0 -149 77.5 -234t217.5 -85
q144 0 221.5 84t77.5 235z" />
    <glyph glyph-name="uni04E8" unicode="&#x4e8;" 
d="M614 -20q-182 0 -290.5 111t-108.5 298v717q0 186 109 298t290 112t290.5 -112t109.5 -298v-717q0 -187 -108.5 -298t-291.5 -111zM317 1106v-297h594v297q0 151 -78.5 235t-218.5 84t-218.5 -84t-78.5 -235zM614 70q141 0 219 83.5t78 235.5v328h-594v-328
q0 -152 78 -235.5t219 -83.5z" />
    <glyph glyph-name="uni04E9" unicode="&#x4e9;" 
d="M614 -20q-182 0 -290.5 111t-108.5 298v348q0 186 109 298t290 112t290.5 -112t109.5 -298v-348q0 -187 -108.5 -298t-291.5 -111zM317 737v-119h594v119q0 151 -78.5 235.5t-218.5 84.5t-218.5 -84.5t-78.5 -235.5zM614 70q141 0 219 83.5t78 235.5v137h-594v-137
q0 -152 78 -235.5t219 -83.5z" />
    <glyph glyph-name="uni0AEA" unicode="&#xaea;" 
d="M1032 1331l-356 -413l207 -238q141 -162 141 -324q0 -165 -114 -270.5t-296 -105.5t-295.5 105.5t-113.5 270.5q0 156 145 324l205 235l-358 416h120l299 -344l299 344h117zM614 70q135 0 221.5 83t86.5 209q0 129 -117 263l-191 221l-194 -225q-59 -68 -86 -128.5
t-27 -130.5q0 -126 86 -209t221 -83z" />
    <glyph glyph-name="Wgrave" unicode="&#x1e80;" 
d="M692 1659h-112l-230 287h125zM410 0h-144l-184 1495h94l139 -1106l37 -317q7 51 24 169.5t21 147.5l158 1106h131l152 -1106l43 -317q4 29 21 151.5t22 165.5l127 1106h96l-186 -1495h-148l-149 1085q-28 208 -43 328q-33 -215 -48 -328z" />
    <glyph glyph-name="wgrave" unicode="&#x1e81;" 
d="M692 1321h-112l-230 287h125zM428 0h-135l-191 1126h97l139 -837q3 -20 24 -217h5q6 88 32 215l164 839h107l164 -839q19 -95 32 -215h4q9 134 23 217l139 837h94l-192 -1126h-135l-142 801q-4 25 -13.5 77t-16 93t-9.5 67h-4q-7 -67 -39 -237z" />
    <glyph glyph-name="Wacute" unicode="&#x1e82;" 
d="M649 1659h-108l217 287h121zM410 0h-144l-184 1495h94l139 -1106l37 -317q7 51 24 169.5t21 147.5l158 1106h131l152 -1106l43 -317q4 29 21 151.5t22 165.5l127 1106h96l-186 -1495h-148l-149 1085q-28 208 -43 328q-33 -215 -48 -328z" />
    <glyph glyph-name="wacute" unicode="&#x1e83;" 
d="M670 1321h-109l217 287h121zM428 0h-135l-191 1126h97l139 -837q3 -20 24 -217h5q6 88 32 215l164 839h107l164 -839q19 -95 32 -215h4q9 134 23 217l139 837h94l-192 -1126h-135l-142 801q-4 25 -13.5 77t-16 93t-9.5 67h-4q-7 -67 -39 -237z" />
    <glyph glyph-name="Wdieresis" unicode="&#x1e84;" 
d="M399 1690q-47 0 -76.5 30.5t-29.5 81.5t29.5 82t76.5 31t77 -31t30 -82t-29.5 -81.5t-77.5 -30.5zM840 1690q-50 0 -79.5 30.5t-29.5 81.5t30 82t79 31q47 0 75.5 -31t28.5 -82t-28.5 -81.5t-75.5 -30.5zM410 0h-144l-184 1495h94l139 -1106l37 -317q7 51 24 169.5
t21 147.5l158 1106h131l152 -1106l43 -317q4 29 21 151.5t22 165.5l127 1106h96l-186 -1495h-148l-149 1085q-28 208 -43 328q-33 -215 -48 -328z" />
    <glyph glyph-name="wdieresis" unicode="&#x1e85;" 
d="M395 1341q-47 0 -76.5 31t-29.5 82t29.5 82t76.5 31t77 -31t30 -82t-30 -82t-77 -31zM836 1341q-49 0 -79 31t-30 82t30 82t79 31q47 0 75.5 -31t28.5 -82t-28.5 -82t-75.5 -31zM428 0h-135l-191 1126h97l139 -837q3 -20 24 -217h5q6 88 32 215l164 839h107l164 -839
q19 -95 32 -215h4q9 134 23 217l139 837h94l-192 -1126h-135l-142 801q-4 25 -13.5 77t-16 93t-9.5 67h-4q-7 -67 -39 -237z" />
    <glyph glyph-name="uni1E9E" unicode="&#x1e9e;" 
d="M1059 1401l-412 -567q192 -5 305 -114t113 -290q0 -196 -116.5 -313t-313.5 -117h-127v92h127q149 0 238.5 91t89.5 243q0 149 -89.5 238.5t-238.5 89.5h-82v88l401 561h-329q-135 0 -216 -79.5t-81 -211.5v-1112h-103v1112q0 175 109 279t291 104h434v-94z" />
    <glyph glyph-name="uni1EA0" unicode="&#x1ea0;" 
d="M242 0h-103l412 1495h127l412 -1495h-107l-115 430h-512zM545 1126l-164 -604h463l-162 604q-49 184 -68 283q-16 -85 -69 -283zM614 -420q-54 0 -86 31t-32 82t32 81.5t86 30.5t86.5 -30.5t32.5 -81.5t-32.5 -82t-86.5 -31z" />
    <glyph glyph-name="uni1EA1" unicode="&#x1ea1;" 
d="M623 1147q173 0 279 -104.5t106 -274.5v-768h-103v180q-32 -93 -126 -146.5t-228 -53.5q-173 0 -278 91.5t-105 243.5q0 145 96 232.5t254 87.5h387v133q0 135 -73.5 210t-208.5 75q-123 0 -203 -60.5t-94 -163.5h-103q20 143 130 230.5t270 87.5zM580 70q146 0 235.5 75
t89.5 197v203h-389q-110 0 -178 -60.5t-68 -160.5q0 -114 85.5 -184t224.5 -70zM625 -195q54 0 86 -30.5t32 -81.5t-32 -82t-86 -31t-86.5 31t-32.5 82t32.5 81.5t86.5 30.5z" />
    <glyph glyph-name="uni1EA2" unicode="&#x1ea2;" 
d="M662 1638h-101l115 156q35 51 35 74q0 26 -20.5 41.5t-55.5 15.5h-180v72h180q72 0 115 -33t43 -88q0 -54 -39 -109zM242 0h-103l412 1495h127l412 -1495h-107l-115 430h-512zM545 1126l-164 -604h463l-162 604q-49 184 -68 283q-16 -85 -69 -283z" />
    <glyph glyph-name="uni1EA3" unicode="&#x1ea3;" 
d="M721 1550q0 26 -20.5 42t-55.5 16h-180v71h180q72 0 115 -32.5t43 -87.5q0 -54 -39 -109l-92 -129h-101l115 156q35 51 35 73zM623 1147q173 0 279 -104.5t106 -274.5v-768h-103v180q-32 -93 -126 -146.5t-228 -53.5q-173 0 -278 91.5t-105 243.5q0 145 96 232.5
t254 87.5h387v133q0 135 -73.5 210t-208.5 75q-123 0 -203 -60.5t-94 -163.5h-103q20 143 130 230.5t270 87.5zM580 70q146 0 235.5 75t89.5 197v203h-389q-110 0 -178 -60.5t-68 -160.5q0 -114 85.5 -184t224.5 -70z" />
    <glyph glyph-name="uni1EA4" unicode="&#x1ea4;" 
d="M932 1833h-103l215 256h123zM412 1597h-105l246 287h123l246 -287h-101l-207 224zM242 0h-103l412 1495h127l412 -1495h-107l-115 430h-512zM545 1126l-164 -604h463l-162 604q-49 184 -68 283q-16 -85 -69 -283z" />
    <glyph glyph-name="uni1EA5" unicode="&#x1ea5;" 
d="M1075 1843h123l-256 -287h-102zM831 1321l-206 223l-203 -223h-105l246 287h123l246 -287h-101zM623 1147q173 0 279 -104.5t106 -274.5v-768h-103v180q-32 -93 -126 -146.5t-228 -53.5q-173 0 -278 91.5t-105 243.5q0 145 96 232.5t254 87.5h387v133q0 135 -73.5 210
t-208.5 75q-123 0 -203 -60.5t-94 -163.5h-103q20 143 130 230.5t270 87.5zM580 70q146 0 235.5 75t89.5 197v203h-389q-110 0 -178 -60.5t-68 -160.5q0 -114 85.5 -184t224.5 -70z" />
    <glyph glyph-name="uni1EA6" unicode="&#x1ea6;" 
d="M1014 1833h-103l-243 256h123zM412 1597h-105l246 287h123l246 -287h-101l-207 224zM242 0h-103l412 1495h127l412 -1495h-107l-115 430h-512zM545 1126l-164 -604h463l-162 604q-49 184 -68 283q-16 -85 -69 -283z" />
    <glyph glyph-name="uni1EA7" unicode="&#x1ea7;" 
d="M801 1843l243 -287h-102l-264 287h123zM831 1321l-206 223l-203 -223h-105l246 287h123l246 -287h-101zM623 1147q173 0 279 -104.5t106 -274.5v-768h-103v180q-32 -93 -126 -146.5t-228 -53.5q-173 0 -278 91.5t-105 243.5q0 145 96 232.5t254 87.5h387v133
q0 135 -73.5 210t-208.5 75q-123 0 -203 -60.5t-94 -163.5h-103q20 143 130 230.5t270 87.5zM580 70q146 0 235.5 75t89.5 197v203h-389q-110 0 -178 -60.5t-68 -160.5q0 -114 85.5 -184t224.5 -70z" />
    <glyph glyph-name="uni1EA8" unicode="&#x1ea8;" 
d="M985 1802h-94l94 109q37 43 37 67q0 39 -53 39h-152v72h146q65 0 102 -27t37 -73q0 -55 -53 -115zM412 1597h-105l246 287h123l246 -287h-101l-207 224zM242 0h-103l412 1495h127l412 -1495h-107l-115 430h-512zM545 1126l-164 -604h463l-162 604q-49 184 -68 283
q-16 -85 -69 -283z" />
    <glyph glyph-name="uni1EA9" unicode="&#x1ea9;" 
d="M791 1896h151q70 0 112 -32t42 -84q0 -56 -54 -127l-73 -97h-95l103 134q39 48 39 82q0 23 -20.5 38t-53.5 15h-151v71zM831 1321l-206 223l-203 -223h-105l246 287h123l246 -287h-101zM623 1147q173 0 279 -104.5t106 -274.5v-768h-103v180q-32 -93 -126 -146.5
t-228 -53.5q-173 0 -278 91.5t-105 243.5q0 145 96 232.5t254 87.5h387v133q0 135 -73.5 210t-208.5 75q-123 0 -203 -60.5t-94 -163.5h-103q20 143 130 230.5t270 87.5zM580 70q146 0 235.5 75t89.5 197v203h-389q-110 0 -178 -60.5t-68 -160.5q0 -114 85.5 -184t224.5 -70
z" />
    <glyph glyph-name="uni1EAA" unicode="&#x1eaa;" 
d="M768 1884q-52 0 -97 20t-71.5 43.5t-61 43.5t-67.5 20q-38 0 -60 -20.5t-22 -55.5v-30h-82v30q0 70 44.5 112t119.5 42q52 0 97 -20t71.5 -43.5t61 -43.5t67.5 -20t52.5 20.5t19.5 55.5v30h82v-30q0 -70 -42 -112t-112 -42zM412 1597h-105l246 248h123l246 -248h-101
l-207 189zM242 0h-103l412 1495h127l412 -1495h-107l-115 430h-512zM545 1126l-164 -604h463l-162 604q-49 184 -68 283q-16 -85 -69 -283z" />
    <glyph glyph-name="uni1EAB" unicode="&#x1eab;" 
d="M410 1731v-52h-82v52q0 79 42 121t122 42q43 0 77.5 -14.5t57.5 -36t43.5 -42.5t45 -35.5t52.5 -14.5q72 0 72 82v51h82v-51q0 -80 -39.5 -122t-114.5 -42q-43 0 -77.5 14.5t-57.5 35.5t-43.5 42.5t-45 36t-52.5 14.5q-82 0 -82 -81zM831 1321l-206 223l-203 -223h-105
l246 287h123l246 -287h-101zM623 1147q173 0 279 -104.5t106 -274.5v-768h-103v180q-32 -93 -126 -146.5t-228 -53.5q-173 0 -278 91.5t-105 243.5q0 145 96 232.5t254 87.5h387v133q0 135 -73.5 210t-208.5 75q-123 0 -203 -60.5t-94 -163.5h-103q20 143 130 230.5
t270 87.5zM580 70q146 0 235.5 75t89.5 197v203h-389q-110 0 -178 -60.5t-68 -160.5q0 -114 85.5 -184t224.5 -70z" />
    <glyph glyph-name="uni1EAC" unicode="&#x1eac;" 
d="M412 1659h-105l246 287h123l246 -287h-101l-207 223zM242 0h-103l412 1495h127l412 -1495h-107l-115 430h-512zM545 1126l-164 -604h463l-162 604q-49 184 -68 283q-16 -85 -69 -283zM614 -420q-54 0 -86 31t-32 82t32 81.5t86 30.5t86.5 -30.5t32.5 -81.5t-32.5 -82
t-86.5 -31z" />
    <glyph glyph-name="uni1EAD" unicode="&#x1ead;" 
d="M831 1321l-206 223l-203 -223h-105l246 287h123l246 -287h-101zM623 1147q173 0 279 -104.5t106 -274.5v-768h-103v180q-32 -93 -126 -146.5t-228 -53.5q-173 0 -278 91.5t-105 243.5q0 145 96 232.5t254 87.5h387v133q0 135 -73.5 210t-208.5 75q-123 0 -203 -60.5
t-94 -163.5h-103q20 143 130 230.5t270 87.5zM580 70q146 0 235.5 75t89.5 197v203h-389q-110 0 -178 -60.5t-68 -160.5q0 -114 85.5 -184t224.5 -70zM625 -195q54 0 86 -30.5t32 -81.5t-32 -82t-86 -31t-86.5 31t-32.5 82t32.5 81.5t86.5 30.5z" />
    <glyph glyph-name="uni1EAE" unicode="&#x1eae;" 
d="M631 1833h-103l205 256h123zM655 1597h-82q-120 0 -193 70.5t-73 185.5h92q0 -78 48 -126t126 -48h82q78 0 126 48t48 126h93q0 -115 -73.5 -185.5t-193.5 -70.5zM242 0h-103l412 1495h127l412 -1495h-107l-115 430h-512zM545 1126l-164 -604h463l-162 604
q-49 184 -68 283q-16 -85 -69 -283z" />
    <glyph glyph-name="uni1EAF" unicode="&#x1eaf;" 
d="M764 1823h123l-246 -267h-102zM625 1321q-138 0 -223 70.5t-85 185.5h93q0 -78 59 -126t156 -48t156 48t59 126h92q0 -115 -84.5 -185.5t-222.5 -70.5zM623 1147q173 0 279 -104.5t106 -274.5v-768h-103v180q-32 -93 -126 -146.5t-228 -53.5q-173 0 -278 91.5t-105 243.5
q0 145 96 232.5t254 87.5h387v133q0 135 -73.5 210t-208.5 75q-123 0 -203 -60.5t-94 -163.5h-103q20 143 130 230.5t270 87.5zM580 70q146 0 235.5 75t89.5 197v203h-389q-110 0 -178 -60.5t-68 -160.5q0 -114 85.5 -184t224.5 -70z" />
    <glyph glyph-name="uni1EB0" unicode="&#x1eb0;" 
d="M707 1833h-99l-211 256h119zM655 1597h-82q-120 0 -193 70.5t-73 185.5h92q0 -78 48 -126t126 -48h82q78 0 126 48t48 126h93q0 -115 -73.5 -185.5t-193.5 -70.5zM242 0h-103l412 1495h127l412 -1495h-107l-115 430h-512zM545 1126l-164 -604h463l-162 604
q-49 184 -68 283q-16 -85 -69 -283z" />
    <glyph glyph-name="uni1EB1" unicode="&#x1eb1;" 
d="M487 1823l226 -267h-103l-245 267h122zM625 1321q-138 0 -223 70.5t-85 185.5h93q0 -78 59 -126t156 -48t156 48t59 126h92q0 -115 -84.5 -185.5t-222.5 -70.5zM623 1147q173 0 279 -104.5t106 -274.5v-768h-103v180q-32 -93 -126 -146.5t-228 -53.5q-173 0 -278 91.5
t-105 243.5q0 145 96 232.5t254 87.5h387v133q0 135 -73.5 210t-208.5 75q-123 0 -203 -60.5t-94 -163.5h-103q20 143 130 230.5t270 87.5zM580 70q146 0 235.5 75t89.5 197v203h-389q-110 0 -178 -60.5t-68 -160.5q0 -114 85.5 -184t224.5 -70z" />
    <glyph glyph-name="uni1EB2" unicode="&#x1eb2;" 
d="M645 1802h-94l94 109q37 43 37 67q0 39 -53 39h-152v72h146q65 0 102 -27t37 -73q0 -55 -53 -115zM655 1597h-82q-120 0 -193 70.5t-73 185.5h92q0 -78 48 -126t126 -48h82q78 0 126 48t48 126h93q0 -115 -73.5 -185.5t-193.5 -70.5zM242 0h-103l412 1495h127l412 -1495
h-107l-115 430h-512zM545 1126l-164 -604h463l-162 604q-49 184 -68 283q-16 -85 -69 -283z" />
    <glyph glyph-name="uni1EB3" unicode="&#x1eb3;" 
d="M702 1772q0 24 -20 38.5t-53 14.5h-152v71h152q70 0 111.5 -32t41.5 -84q0 -57 -53 -127l-74 -97h-94l103 134q38 47 38 82zM625 1321q-138 0 -223 70.5t-85 185.5h93q0 -78 59 -126t156 -48t156 48t59 126h92q0 -115 -84.5 -185.5t-222.5 -70.5zM623 1147
q173 0 279 -104.5t106 -274.5v-768h-103v180q-32 -93 -126 -146.5t-228 -53.5q-173 0 -278 91.5t-105 243.5q0 145 96 232.5t254 87.5h387v133q0 135 -73.5 210t-208.5 75q-123 0 -203 -60.5t-94 -163.5h-103q20 143 130 230.5t270 87.5zM580 70q146 0 235.5 75t89.5 197
v203h-389q-110 0 -178 -60.5t-68 -160.5q0 -114 85.5 -184t224.5 -70z" />
    <glyph glyph-name="uni1EB4" unicode="&#x1eb4;" 
d="M768 1884q-52 0 -97 20t-71.5 43.5t-61 43.5t-67.5 20q-38 0 -60 -20.5t-22 -55.5v-30h-82v30q0 70 44.5 112t119.5 42q52 0 97 -20t71.5 -43.5t61 -43.5t67.5 -20t52.5 20.5t19.5 55.5v30h82v-30q0 -70 -42 -112t-112 -42zM655 1597h-82q-120 0 -193 68t-73 178h92
q0 -74 48 -119t126 -45h82q78 0 126 45t48 119h93q0 -110 -73.5 -178t-193.5 -68zM242 0h-103l412 1495h127l412 -1495h-107l-115 430h-512zM545 1126l-164 -604h463l-162 604q-49 184 -68 283q-16 -85 -69 -283z" />
    <glyph glyph-name="uni1EB5" unicode="&#x1eb5;" 
d="M410 1731v-52h-82v52q0 79 42 121t122 42q43 0 77.5 -14.5t57.5 -36t43.5 -42.5t45 -35.5t52.5 -14.5q72 0 72 82v51h82v-51q0 -80 -39.5 -122t-114.5 -42q-43 0 -77.5 14.5t-57.5 35.5t-43.5 42.5t-45 36t-52.5 14.5q-82 0 -82 -81zM625 1321q-138 0 -223 70.5
t-85 185.5h93q0 -78 59 -126t156 -48t156 48t59 126h92q0 -115 -84.5 -185.5t-222.5 -70.5zM623 1147q173 0 279 -104.5t106 -274.5v-768h-103v180q-32 -93 -126 -146.5t-228 -53.5q-173 0 -278 91.5t-105 243.5q0 145 96 232.5t254 87.5h387v133q0 135 -73.5 210t-208.5 75
q-123 0 -203 -60.5t-94 -163.5h-103q20 143 130 230.5t270 87.5zM580 70q146 0 235.5 75t89.5 197v203h-389q-110 0 -178 -60.5t-68 -160.5q0 -114 85.5 -184t224.5 -70z" />
    <glyph glyph-name="uni1EB6" unicode="&#x1eb6;" 
d="M614 1655q-136 0 -216.5 78.5t-80.5 212.5h93q0 -97 54 -153t148 -56q95 0 151 56t56 153h92q0 -134 -80.5 -212.5t-216.5 -78.5zM242 0h-103l412 1495h127l412 -1495h-107l-115 430h-512zM545 1126l-164 -604h463l-162 604q-49 184 -68 283q-16 -85 -69 -283zM614 -420
q-54 0 -86 31t-32 82t32 81.5t86 30.5t86.5 -30.5t32.5 -81.5t-32.5 -82t-86.5 -31z" />
    <glyph glyph-name="uni1EB7" unicode="&#x1eb7;" 
d="M625 1317q-136 0 -216.5 78.5t-80.5 212.5h92q0 -97 54.5 -153t148.5 -56q95 0 150.5 56t55.5 153h93q0 -134 -80.5 -212.5t-216.5 -78.5zM623 1147q173 0 279 -104.5t106 -274.5v-768h-103v180q-32 -93 -126 -146.5t-228 -53.5q-173 0 -278 91.5t-105 243.5
q0 145 96 232.5t254 87.5h387v133q0 135 -73.5 210t-208.5 75q-123 0 -203 -60.5t-94 -163.5h-103q20 143 130 230.5t270 87.5zM580 70q146 0 235.5 75t89.5 197v203h-389q-110 0 -178 -60.5t-68 -160.5q0 -114 85.5 -184t224.5 -70zM625 -195q54 0 86 -30.5t32 -81.5
t-32 -82t-86 -31t-86.5 31t-32.5 82t32.5 81.5t86.5 30.5z" />
    <glyph glyph-name="uni1EB8" unicode="&#x1eb8;" 
d="M1044 0h-798v1495h798v-94h-696v-576h625v-92h-625v-639h696v-94zM655 -420q-54 0 -86 31t-32 82t32 81.5t86 30.5t86.5 -30.5t32.5 -81.5t-32.5 -82t-86.5 -31z" />
    <glyph glyph-name="uni1EB9" unicode="&#x1eb9;" 
d="M1014 737v-194h-697v-154q0 -149 78.5 -234t220.5 -85q113 0 188 54t105 152h103q-31 -138 -135 -217t-261 -79q-188 0 -294.5 110t-106.5 299v348q0 187 107.5 298.5t293.5 111.5q185 0 291.5 -111.5t106.5 -298.5zM317 737v-106h594v106q0 149 -77.5 234.5t-217.5 85.5
q-143 0 -221 -84.5t-78 -235.5zM614 -195q54 0 86.5 -30.5t32.5 -81.5t-32.5 -82t-86.5 -31t-86 31t-32 82t32 81.5t86 30.5z" />
    <glyph glyph-name="uni1EBA" unicode="&#x1eba;" 
d="M702 1638h-100l115 156q35 51 35 74q0 26 -20.5 41.5t-55.5 15.5h-180v72h180q72 0 115 -33t43 -88q0 -54 -39 -109zM1044 0h-798v1495h798v-94h-696v-576h625v-92h-625v-639h696v-94z" />
    <glyph glyph-name="uni1EBB" unicode="&#x1ebb;" 
d="M711 1550q0 26 -20.5 42t-55.5 16h-180v71h180q72 0 115 -32.5t43 -87.5q0 -54 -39 -109l-92 -129h-101l115 156q35 51 35 73zM1014 737v-194h-697v-154q0 -149 78.5 -234t220.5 -85q113 0 188 54t105 152h103q-31 -138 -135 -217t-261 -79q-188 0 -294.5 110t-106.5 299
v348q0 187 107.5 298.5t293.5 111.5q185 0 291.5 -111.5t106.5 -298.5zM317 737v-106h594v106q0 149 -77.5 234.5t-217.5 85.5q-143 0 -221 -84.5t-78 -235.5z" />
    <glyph glyph-name="uni1EBC" unicode="&#x1ebc;" 
d="M809 1669q-43 0 -80 19t-63 46.5t-50 55t-50.5 46.5t-53.5 19q-47 0 -74.5 -28.5t-27.5 -75.5v-72h-82v72q0 86 49 135t135 49q43 0 80 -19t63 -46.5t50 -55t50.5 -46.5t53.5 -19q43 0 67.5 28t24.5 76v72h82v-72q0 -86 -46 -135t-128 -49zM1044 0h-798v1495h798v-94
h-696v-576h625v-92h-625v-639h696v-94z" />
    <glyph glyph-name="uni1EBD" unicode="&#x1ebd;" 
d="M369 1413v-72h-82v72q0 86 49 135t135 49q43 0 80 -19t63 -46.5t50 -55t50.5 -46.5t53.5 -19q42 0 67 28.5t25 76.5v71h82v-71q0 -86 -46 -135.5t-128 -49.5q-43 0 -80 19.5t-63 46.5t-50 54.5t-50.5 47t-53.5 19.5q-47 0 -74.5 -28.5t-27.5 -76.5zM1014 737v-194h-697
v-154q0 -149 78.5 -234t220.5 -85q113 0 188 54t105 152h103q-31 -138 -135 -217t-261 -79q-188 0 -294.5 110t-106.5 299v348q0 187 107.5 298.5t293.5 111.5q185 0 291.5 -111.5t106.5 -298.5zM317 737v-106h594v106q0 149 -77.5 234.5t-217.5 85.5q-143 0 -221 -84.5
t-78 -235.5z" />
    <glyph glyph-name="uni1EBE" unicode="&#x1ebe;" 
d="M973 1833h-103l215 256h123zM453 1597h-105l246 287h123l246 -287h-101l-207 224zM1044 0h-798v1495h798v-94h-696v-576h625v-92h-625v-639h696v-94z" />
    <glyph glyph-name="uni1EBF" unicode="&#x1ebf;" 
d="M1065 1843h123l-256 -287h-103zM821 1321l-207 223l-202 -223h-105l246 287h123l246 -287h-101zM616 1147q185 0 291.5 -111.5t106.5 -298.5v-194h-697v-154q0 -149 78.5 -234t220.5 -85q113 0 188 54t105 152h103q-31 -138 -135 -217t-261 -79q-188 0 -294.5 110
t-106.5 299v348q0 187 107.5 298.5t293.5 111.5zM317 631h594v106q0 149 -77.5 234.5t-217.5 85.5q-143 0 -221 -84.5t-78 -235.5v-106z" />
    <glyph glyph-name="uni1EC0" unicode="&#x1ec0;" 
d="M1055 1833h-103l-243 256h122zM453 1597h-105l246 287h123l246 -287h-101l-207 224zM1044 0h-798v1495h798v-94h-696v-576h625v-92h-625v-639h696v-94z" />
    <glyph glyph-name="uni1EC1" unicode="&#x1ec1;" 
d="M791 1843l243 -287h-102l-264 287h123zM821 1321l-207 223l-202 -223h-105l246 287h123l246 -287h-101zM616 1147q185 0 291.5 -111.5t106.5 -298.5v-194h-697v-154q0 -149 78.5 -234t220.5 -85q113 0 188 54t105 152h103q-31 -138 -135 -217t-261 -79q-188 0 -294.5 110
t-106.5 299v348q0 187 107.5 298.5t293.5 111.5zM317 631h594v106q0 149 -77.5 234.5t-217.5 85.5q-143 0 -221 -84.5t-78 -235.5v-106z" />
    <glyph glyph-name="uni1EC2" unicode="&#x1ec2;" 
d="M1026 1802h-94l94 109q37 43 37 67q0 39 -53 39h-152v72h146q65 0 102 -27t37 -73q0 -55 -53 -115zM453 1597h-105l246 287h123l246 -287h-101l-207 224zM1044 0h-798v1495h798v-94h-696v-576h625v-92h-625v-639h696v-94z" />
    <glyph glyph-name="uni1EC3" unicode="&#x1ec3;" 
d="M780 1896h152q70 0 111.5 -32t41.5 -84q0 -57 -53 -127l-74 -97h-94l103 134q39 48 39 82q0 23 -20.5 38t-53.5 15h-152v71zM821 1321l-207 223l-202 -223h-105l246 287h123l246 -287h-101zM616 1147q185 0 291.5 -111.5t106.5 -298.5v-194h-697v-154q0 -149 78.5 -234
t220.5 -85q113 0 188 54t105 152h103q-31 -138 -135 -217t-261 -79q-188 0 -294.5 110t-106.5 299v348q0 187 107.5 298.5t293.5 111.5zM317 631h594v106q0 149 -77.5 234.5t-217.5 85.5q-143 0 -221 -84.5t-78 -235.5v-106z" />
    <glyph glyph-name="uni1EC4" unicode="&#x1ec4;" 
d="M809 1884q-52 0 -97 20t-71.5 43.5t-61 43.5t-67.5 20q-38 0 -60 -20.5t-22 -55.5v-30h-82v30q0 70 44.5 112t119.5 42q52 0 97 -20t71.5 -43.5t61 -43.5t67.5 -20t52.5 20.5t19.5 55.5v30h82v-30q0 -70 -41.5 -112t-112.5 -42zM453 1597h-105l246 248h123l246 -248h-101
l-207 189zM1044 0h-798v1495h798v-94h-696v-576h625v-92h-625v-639h696v-94z" />
    <glyph glyph-name="uni1EC5" unicode="&#x1ec5;" 
d="M399 1731v-52h-82v52q0 79 42 121t122 42q43 0 77.5 -14.5t57.5 -36t44 -42.5t45.5 -35.5t52.5 -14.5q71 0 71 82v51h82v-51q0 -80 -39 -122t-114 -42q-43 0 -77.5 14.5t-57.5 35.5t-44 42.5t-45.5 36t-52.5 14.5q-82 0 -82 -81zM821 1321l-207 223l-202 -223h-105
l246 287h123l246 -287h-101zM1014 737v-194h-697v-154q0 -149 78.5 -234t220.5 -85q113 0 188 54t105 152h103q-31 -138 -135 -217t-261 -79q-188 0 -294.5 110t-106.5 299v348q0 187 107.5 298.5t293.5 111.5q185 0 291.5 -111.5t106.5 -298.5zM317 737v-106h594v106
q0 149 -77.5 234.5t-217.5 85.5q-143 0 -221 -84.5t-78 -235.5z" />
    <glyph glyph-name="uni1EC6" unicode="&#x1ec6;" 
d="M453 1659h-105l246 287h123l246 -287h-101l-207 223zM1044 0h-798v1495h798v-94h-696v-576h625v-92h-625v-639h696v-94zM655 -420q-54 0 -86 31t-32 82t32 81.5t86 30.5t86.5 -30.5t32.5 -81.5t-32.5 -82t-86.5 -31z" />
    <glyph glyph-name="uni1EC7" unicode="&#x1ec7;" 
d="M821 1321l-207 223l-202 -223h-105l246 287h123l246 -287h-101zM1014 737v-194h-697v-154q0 -149 78.5 -234t220.5 -85q113 0 188 54t105 152h103q-31 -138 -135 -217t-261 -79q-188 0 -294.5 110t-106.5 299v348q0 187 107.5 298.5t293.5 111.5q185 0 291.5 -111.5
t106.5 -298.5zM317 737v-106h594v106q0 149 -77.5 234.5t-217.5 85.5q-143 0 -221 -84.5t-78 -235.5zM614 -195q54 0 86.5 -30.5t32.5 -81.5t-32.5 -82t-86.5 -31t-86 31t-32 82t32 81.5t86 30.5z" />
    <glyph glyph-name="uni1EC8" unicode="&#x1ec8;" 
d="M662 1638h-101l115 156q35 51 35 74q0 26 -20.5 41.5t-55.5 15.5h-180v72h180q72 0 115 -33t43 -88q0 -54 -39 -109zM983 0h-737v94h319v1307h-319v94h737v-94h-315v-1307h315v-94z" />
    <glyph glyph-name="uni1EC9" unicode="&#x1ec9;" horiz-adv-x="1024" 
d="M578 1321h-101l115 156q35 51 35 73q0 26 -20.5 42t-55.5 16h-180v71h180q72 0 115 -32.5t43 -87.5q0 -54 -39 -109zM897 0h-692v92h307v942h-268v92h370v-1034h283v-92z" />
    <glyph glyph-name="uni1ECA" unicode="&#x1eca;" 
d="M983 0h-737v94h319v1307h-319v94h737v-94h-315v-1307h315v-94zM614 -420q-54 0 -86 31t-32 82t32 81.5t86 30.5t86.5 -30.5t32.5 -81.5t-32.5 -82t-86.5 -31z" />
    </font>
</defs>
</svg>
