<?xml version="1.0" standalone="no"?>
<!DOCTYPE svg PUBLIC "-//W3C//DTD SVG 1.1//EN" "http://www.w3.org/Graphics/SVG/1.1/DTD/svg11.dtd" >
<svg xmlns="http://www.w3.org/2000/svg" xmlns:xlink="http://www.w3.org/1999/xlink" version="1.1">
<metadata>
Created by FontForge 20170731 at Thu Nov 16 19:43:47 2023
 By Aleksey,,,
Copyright 2021 Alessio Laiso, Mario Rullo, Paolo Rosset
</metadata>
<defs>
<font id="TekneLDO-Regular" horiz-adv-x="1228" >
  <font-face 
    font-family="Tekne LDO"
    font-weight="400"
    font-stretch="normal"
    units-per-em="2048"
    panose-1="2 0 0 9 0 0 0 0 0 0"
    ascent="1638"
    descent="-410"
    x-height="1126"
    cap-height="1495"
    bbox="-3553 -819 1452 2294"
    underline-thickness="102"
    underline-position="-419"
    unicode-range="U+000D-1D54A"
  />
<missing-glyph 
d="M1044 0h-860v1495h860v-1495zM287 1393v-1170l614 1170h-614zM942 1272l-614 -1170h614v1170z" />
    <glyph glyph-name=".notdef" 
d="M1044 0h-860v1495h860v-1495zM287 1393v-1170l614 1170h-614zM942 1272l-614 -1170h614v1170z" />
    <glyph glyph-name=".null" horiz-adv-x="0" 
 />
    <glyph glyph-name="nonmarkingreturn" horiz-adv-x="682" 
 />
    <glyph glyph-name="uni2400" unicode="&#x2400;" 
d="M111 502h-58v493h80l152 -422q-6 99 -6 146v276h57v-493h-80l-152 422q7 -58 7 -146v-276zM602 496q-68 0 -104.5 37t-36.5 104v358h59v-358q0 -41 21 -64.5t61 -23.5q39 0 60.5 24t21.5 64v358h59v-358q0 -67 -36.5 -104t-104.5 -37zM1204 502h-284v493h61v-438h223v-55
z" />
    <glyph glyph-name="uni2400" 
d="M111 502h-58v493h80l152 -422q-6 99 -6 146v276h57v-493h-80l-152 422q7 -58 7 -146v-276zM602 496q-68 0 -104.5 37t-36.5 104v358h59v-358q0 -41 21 -64.5t61 -23.5q39 0 60.5 24t21.5 64v358h59v-358q0 -67 -36.5 -104t-104.5 -37zM1204 502h-284v493h61v-438h223v-55
z" />
    <glyph glyph-name="uni2401" unicode="&#x2401;" 
d="M197 496q-71 0 -113.5 37t-42.5 98h59q0 -37 27 -59.5t70 -22.5q42 0 67 22.5t25 59.5q0 30 -15.5 52.5t-42.5 29.5l-71 22q-49 15 -78 51.5t-29 83.5q0 60 40 95.5t106 35.5t104.5 -35.5t38.5 -95.5h-59q0 35 -23 56.5t-61 21.5t-62 -21t-24 -55q0 -59 59 -75l76 -25
q46 -15 73 -52.5t27 -88.5q0 -62 -41 -98.5t-110 -36.5zM602 496q-66 0 -104.5 37.5t-38.5 103.5v223q0 66 38.5 103.5t104.5 37.5t104.5 -37.5t38.5 -103.5v-223q0 -66 -38.5 -103.5t-104.5 -37.5zM954 502h-59v493h59v-211h160v211h60v-493h-60v227h-160v-227zM602 549
q39 0 60.5 23t21.5 65v223q0 41 -21 63.5t-61 22.5t-61 -22.5t-21 -63.5v-223q0 -42 21.5 -65t60.5 -23z" />
    <glyph glyph-name="uni2401" 
d="M197 496q-71 0 -113.5 37t-42.5 98h59q0 -37 27 -59.5t70 -22.5q42 0 67 22.5t25 59.5q0 30 -15.5 52.5t-42.5 29.5l-71 22q-49 15 -78 51.5t-29 83.5q0 60 40 95.5t106 35.5t104.5 -35.5t38.5 -95.5h-59q0 35 -23 56.5t-61 21.5t-62 -21t-24 -55q0 -59 59 -75l76 -25
q46 -15 73 -52.5t27 -88.5q0 -62 -41 -98.5t-110 -36.5zM602 496q-66 0 -104.5 37.5t-38.5 103.5v223q0 66 38.5 103.5t104.5 37.5t104.5 -37.5t38.5 -103.5v-223q0 -66 -38.5 -103.5t-104.5 -37.5zM954 502h-59v493h59v-211h160v211h60v-493h-60v227h-160v-227zM602 549
q39 0 60.5 23t21.5 65v223q0 41 -21 63.5t-61 22.5t-61 -22.5t-21 -63.5v-223q0 -42 21.5 -65t60.5 -23z" />
    <glyph glyph-name="uni2402" unicode="&#x2402;" 
d="M197 496q-71 0 -113.5 37t-42.5 98h59q0 -37 27 -59.5t70 -22.5q42 0 67 22.5t25 59.5q0 30 -15.5 52.5t-42.5 29.5l-71 22q-49 15 -78 51.5t-29 83.5q0 60 40 95.5t106 35.5t104.5 -35.5t38.5 -95.5h-59q0 35 -23 56.5t-61 21.5t-62 -21t-24 -55q0 -59 59 -75l76 -25
q46 -15 73 -52.5t27 -88.5q0 -62 -41 -98.5t-110 -36.5zM633 502h-62v438h-135v55h332v-55h-135v-438zM926 502h-68l143 250l-135 243h70l76 -145q20 -39 24 -45l23 45l78 145h65l-133 -239l141 -254h-69l-84 157q-15 27 -23 46q-3 -5 -10.5 -22t-11.5 -24z" />
    <glyph glyph-name="uni2402" 
d="M197 496q-71 0 -113.5 37t-42.5 98h59q0 -37 27 -59.5t70 -22.5q42 0 67 22.5t25 59.5q0 30 -15.5 52.5t-42.5 29.5l-71 22q-49 15 -78 51.5t-29 83.5q0 60 40 95.5t106 35.5t104.5 -35.5t38.5 -95.5h-59q0 35 -23 56.5t-61 21.5t-62 -21t-24 -55q0 -59 59 -75l76 -25
q46 -15 73 -52.5t27 -88.5q0 -62 -41 -98.5t-110 -36.5zM633 502h-62v438h-135v55h332v-55h-135v-438zM926 502h-68l143 250l-135 243h70l76 -145q20 -39 24 -45l23 45l78 145h65l-133 -239l141 -254h-69l-84 157q-15 27 -23 46q-3 -5 -10.5 -22t-11.5 -24z" />
    <glyph glyph-name="uni2403" unicode="&#x2403;" 
d="M344 502h-285v493h285v-55h-225v-154h200v-53h-200v-176h225v-55zM633 502h-62v438h-135v55h332v-55h-135v-438zM926 502h-68l143 250l-135 243h70l76 -145q20 -39 24 -45l23 45l78 145h65l-133 -239l141 -254h-69l-84 157q-15 27 -23 46q-3 -5 -10.5 -22t-11.5 -24z" />
    <glyph glyph-name="uni2403" 
d="M344 502h-285v493h285v-55h-225v-154h200v-53h-200v-176h225v-55zM633 502h-62v438h-135v55h332v-55h-135v-438zM926 502h-68l143 250l-135 243h70l76 -145q20 -39 24 -45l23 45l78 145h65l-133 -239l141 -254h-69l-84 157q-15 27 -23 46q-3 -5 -10.5 -22t-11.5 -24z" />
    <glyph glyph-name="uni2404" unicode="&#x2404;" 
d="M602 496q-66 0 -104.5 37.5t-38.5 103.5v223q0 66 38.5 103.5t104.5 37.5t104.5 -37.5t38.5 -103.5v-223q0 -66 -38.5 -103.5t-104.5 -37.5zM344 502h-285v493h285v-55h-225v-154h200v-53h-200v-176h225v-55zM1065 502h-61v438h-136v55h332v-55h-135v-438zM602 549
q39 0 60.5 23t21.5 65v223q0 41 -21 63.5t-61 22.5t-61 -22.5t-21 -63.5v-223q0 -42 21.5 -65t60.5 -23z" />
    <glyph glyph-name="uni2404" 
d="M602 496q-66 0 -104.5 37.5t-38.5 103.5v223q0 66 38.5 103.5t104.5 37.5t104.5 -37.5t38.5 -103.5v-223q0 -66 -38.5 -103.5t-104.5 -37.5zM344 502h-285v493h285v-55h-225v-154h200v-53h-200v-176h225v-55zM1065 502h-61v438h-136v55h332v-55h-135v-438zM602 549
q39 0 60.5 23t21.5 65v223q0 41 -21 63.5t-61 22.5t-61 -22.5t-21 -63.5v-223q0 -42 21.5 -65t60.5 -23z" />
    <glyph glyph-name="uni2405" unicode="&#x2405;" 
d="M1108 510l80 -129h-72l-69 115h-13q-69 0 -109 39t-40 106v215q0 66 40 105.5t109 39.5t109.5 -39.5t40.5 -105.5v-215q0 -94 -76 -131zM344 502h-285v493h285v-55h-225v-154h200v-53h-200v-176h225v-55zM686 719v276h57v-493h-79l-152 422q6 -50 6 -146v-276h-57v493h80
l151 -422q-6 99 -6 146zM1034 549q40 0 64 25.5t24 66.5v215q0 41 -24 66.5t-64 25.5t-64 -25.5t-24 -66.5v-215q0 -41 24 -66.5t64 -25.5z" />
    <glyph glyph-name="uni2405" 
d="M1108 510l80 -129h-72l-69 115h-13q-69 0 -109 39t-40 106v215q0 66 40 105.5t109 39.5t109.5 -39.5t40.5 -105.5v-215q0 -94 -76 -131zM344 502h-285v493h285v-55h-225v-154h200v-53h-200v-176h225v-55zM686 719v276h57v-493h-79l-152 422q6 -50 6 -146v-276h-57v493h80
l151 -422q-6 99 -6 146zM1034 549q40 0 64 25.5t24 66.5v215q0 41 -24 66.5t-64 25.5t-64 -25.5t-24 -66.5v-215q0 -41 24 -66.5t64 -25.5z" />
    <glyph glyph-name="uni2406" unicode="&#x2406;" 
d="M604 496q-68 0 -106.5 37.5t-38.5 103.5v223q0 66 38.5 103.5t106.5 37.5q67 0 106.5 -38t39.5 -103h-62q0 41 -22 63.5t-62 22.5t-62 -22.5t-22 -63.5v-223q0 -41 22 -64.5t62 -23.5t62 23.5t22 64.5h62q0 -66 -39 -103.5t-107 -37.5zM88 502h-61l127 493h82l129 -493
h-64l-31 131h-149zM954 502h-61v493h61v-211h74l109 211h67l-123 -237l129 -256h-69l-115 229h-72v-229zM170 838l-37 -154h123l-37 152q-18 72 -24 110q-5 -28 -25 -108z" />
    <glyph glyph-name="uni2406" 
d="M604 496q-68 0 -106.5 37.5t-38.5 103.5v223q0 66 38.5 103.5t106.5 37.5q67 0 106.5 -38t39.5 -103h-62q0 41 -22 63.5t-62 22.5t-62 -22.5t-22 -63.5v-223q0 -41 22 -64.5t62 -23.5t62 23.5t22 64.5h62q0 -66 -39 -103.5t-107 -37.5zM88 502h-61l127 493h82l129 -493
h-64l-31 131h-149zM954 502h-61v493h61v-211h74l109 211h67l-123 -237l129 -256h-69l-115 229h-72v-229zM170 838l-37 -154h123l-37 152q-18 72 -24 110q-5 -28 -25 -108z" />
    <glyph glyph-name="uni2407" unicode="&#x2407;" 
d="M264 762q40 -11 63 -43.5t23 -79.5q0 -63 -39 -100t-106 -37h-150v493h140q67 0 105 -34t38 -93q0 -84 -74 -106zM764 502h-285v493h285v-55h-225v-154h200v-53h-200v-176h225v-55zM981 995v-438h223v-55h-284v493h61zM195 940h-80v-156h80q38 0 61 21.5t23 56.5
q0 36 -22.5 57t-61.5 21zM115 557h84q41 0 66.5 23t25.5 61q0 40 -25.5 66t-66.5 26h-84v-176z" />
    <glyph glyph-name="uni2407" 
d="M264 762q40 -11 63 -43.5t23 -79.5q0 -63 -39 -100t-106 -37h-150v493h140q67 0 105 -34t38 -93q0 -84 -74 -106zM764 502h-285v493h285v-55h-225v-154h200v-53h-200v-176h225v-55zM981 995v-438h223v-55h-284v493h61zM195 940h-80v-156h80q38 0 61 21.5t23 56.5
q0 36 -22.5 57t-61.5 21zM115 557h84q41 0 66.5 23t25.5 61q0 40 -25.5 66t-66.5 26h-84v-176z" />
    <glyph glyph-name="uni2408" unicode="&#x2408;" 
d="M799 797l75 -25q46 -15 73.5 -53t27.5 -88q0 -61 -41.5 -98t-110.5 -37q-71 0 -113 37t-42 98h59q0 -37 26.5 -59.5t69.5 -22.5q42 0 67 22.5t25 59.5q0 30 -15 52.5t-42 29.5l-72 22q-49 15 -77.5 51.5t-28.5 83.5q0 60 39.5 95.5t105.5 35.5t105 -35.5t39 -95.5h-60
q0 35 -23 56.5t-61 21.5t-62 -21t-24 -55q0 -28 16 -47.5t44 -27.5zM475 762q40 -11 63 -43.5t23 -79.5q0 -63 -39 -100t-106 -37h-150v493h140q67 0 105 -34t38 -93q0 -84 -74 -106zM406 940h-80v-156h80q38 0 60.5 21.5t22.5 56.5q0 37 -22.5 57.5t-60.5 20.5zM326 557h84
q41 0 66.5 23t25.5 61q0 40 -25.5 66t-66.5 26h-84v-176z" />
    <glyph glyph-name="uni2408" 
d="M799 797l75 -25q46 -15 73.5 -53t27.5 -88q0 -61 -41.5 -98t-110.5 -37q-71 0 -113 37t-42 98h59q0 -37 26.5 -59.5t69.5 -22.5q42 0 67 22.5t25 59.5q0 30 -15 52.5t-42 29.5l-72 22q-49 15 -77.5 51.5t-28.5 83.5q0 60 39.5 95.5t105.5 35.5t105 -35.5t39 -95.5h-60
q0 35 -23 56.5t-61 21.5t-62 -21t-24 -55q0 -28 16 -47.5t44 -27.5zM475 762q40 -11 63 -43.5t23 -79.5q0 -63 -39 -100t-106 -37h-150v493h140q67 0 105 -34t38 -93q0 -84 -74 -106zM406 940h-80v-156h80q38 0 60.5 21.5t22.5 56.5q0 37 -22.5 57.5t-60.5 20.5zM326 557h84
q41 0 66.5 23t25.5 61q0 40 -25.5 66t-66.5 26h-84v-176z" />
    <glyph glyph-name="uni240B" unicode="&#x240b;" 
d="M446 502h-81l-127 493h61l84 -336q20 -77 23 -110l24 110l82 336h63zM852 502h-61v438h-136v55h332v-55h-135v-438z" />
    <glyph glyph-name="uni240B" 
d="M446 502h-81l-127 493h61l84 -336q20 -77 23 -110l24 110l82 336h63zM852 502h-61v438h-136v55h332v-55h-135v-438z" />
    <glyph glyph-name="uni240C" unicode="&#x240c;" 
d="M328 502h-62v493h291v-55h-231v-164h215v-55h-213v-219zM743 502h-61v493h291v-55h-232v-164h215v-55h-213v-219z" />
    <glyph glyph-name="uni240C" 
d="M328 502h-62v493h291v-55h-231v-164h215v-55h-213v-219zM743 502h-61v493h291v-55h-232v-164h215v-55h-213v-219z" />
    <glyph glyph-name="CR" unicode="&#xd;" horiz-adv-x="819" 
 />
    <glyph glyph-name="uni240E" unicode="&#x240e;" 
d="M408 496q-71 0 -113.5 37t-42.5 98h59q0 -37 27 -59.5t70 -22.5q42 0 67 22.5t25 59.5q0 30 -15.5 52.5t-42.5 29.5l-71 22q-49 15 -78 51.5t-29 83.5q0 60 40 95.5t106 35.5t104.5 -35.5t38.5 -95.5h-59q0 35 -23 56.5t-61 21.5t-62 -21t-24 -55q0 -59 59 -75l76 -25
q46 -15 73 -52.5t27 -88.5q0 -62 -41 -98.5t-110 -36.5zM821 496q-66 0 -104.5 37.5t-38.5 103.5v223q0 66 38.5 103.5t104.5 37.5t105 -37.5t39 -103.5v-223q0 -66 -39 -103.5t-105 -37.5zM821 549q39 0 60.5 23t21.5 65v223q0 41 -21 63.5t-61 22.5t-61 -22.5t-21 -63.5
v-223q0 -42 21.5 -65t60.5 -23z" />
    <glyph glyph-name="uni240E" 
d="M408 496q-71 0 -113.5 37t-42.5 98h59q0 -37 27 -59.5t70 -22.5q42 0 67 22.5t25 59.5q0 30 -15.5 52.5t-42.5 29.5l-71 22q-49 15 -78 51.5t-29 83.5q0 60 40 95.5t106 35.5t104.5 -35.5t38.5 -95.5h-59q0 35 -23 56.5t-61 21.5t-62 -21t-24 -55q0 -59 59 -75l76 -25
q46 -15 73 -52.5t27 -88.5q0 -62 -41 -98.5t-110 -36.5zM821 496q-66 0 -104.5 37.5t-38.5 103.5v223q0 66 38.5 103.5t104.5 37.5t105 -37.5t39 -103.5v-223q0 -66 -39 -103.5t-105 -37.5zM821 549q39 0 60.5 23t21.5 65v223q0 41 -21 63.5t-61 22.5t-61 -22.5t-21 -63.5
v-223q0 -42 21.5 -65t60.5 -23z" />
    <glyph glyph-name="uni240F" unicode="&#x240f;" 
d="M408 496q-71 0 -113.5 37t-42.5 98h59q0 -37 27 -59.5t70 -22.5q42 0 67 22.5t25 59.5q0 30 -15.5 52.5t-42.5 29.5l-71 22q-49 15 -78 51.5t-29 83.5q0 60 40 95.5t106 35.5t104.5 -35.5t38.5 -95.5h-59q0 35 -23 56.5t-61 21.5t-62 -21t-24 -55q0 -59 59 -75l76 -25
q46 -15 73 -52.5t27 -88.5q0 -62 -41 -98.5t-110 -36.5zM952 502h-262v55h101v383h-101v55h262v-55h-100v-383h100v-55z" />
    <glyph glyph-name="uni240F" 
d="M408 496q-71 0 -113.5 37t-42.5 98h59q0 -37 27 -59.5t70 -22.5q42 0 67 22.5t25 59.5q0 30 -15.5 52.5t-42.5 29.5l-71 22q-49 15 -78 51.5t-29 83.5q0 60 40 95.5t106 35.5t104.5 -35.5t38.5 -95.5h-59q0 35 -23 56.5t-61 21.5t-62 -21t-24 -55q0 -59 59 -75l76 -25
q46 -15 73 -52.5t27 -88.5q0 -62 -41 -98.5t-110 -36.5zM952 502h-262v55h101v383h-101v55h262v-55h-100v-383h100v-55z" />
    <glyph glyph-name="uni2410" unicode="&#x2410;" 
d="M182 502h-129v493h129q71 0 113.5 -40t42.5 -107v-197q0 -69 -42.5 -109t-113.5 -40zM772 502h-285v493h62v-438h223v-55zM1184 502h-285v493h285v-55h-226v-154h201v-53h-201v-176h226v-55zM115 942v-387h67q44 0 69 26t25 70v197q0 43 -25 68.5t-69 25.5h-67z" />
    <glyph glyph-name="uni2410" 
d="M182 502h-129v493h129q71 0 113.5 -40t42.5 -107v-197q0 -69 -42.5 -109t-113.5 -40zM772 502h-285v493h62v-438h223v-55zM1184 502h-285v493h285v-55h-226v-154h201v-53h-201v-176h226v-55zM115 942v-387h67q44 0 69 26t25 70v197q0 43 -25 68.5t-69 25.5h-67z" />
    <glyph glyph-name="uni2411" unicode="&#x2411;" 
d="M604 496q-68 0 -106.5 37.5t-38.5 103.5v223q0 66 38.5 103.5t106.5 37.5q67 0 106.5 -38t39.5 -103h-62q0 41 -22 63.5t-62 22.5t-62 -22.5t-22 -63.5v-223q0 -41 22 -64.5t62 -23.5t62 23.5t22 64.5h62q0 -66 -39 -103.5t-107 -37.5zM182 502h-129v493h129
q71 0 113.5 -40t42.5 -107v-197q0 -69 -42.5 -109t-113.5 -40zM1196 502h-303v55h133v387l-133 -100v67l111 84h83v-438h109v-55zM115 942v-387h67q44 0 69 26t25 70v197q0 43 -25 68.5t-69 25.5h-67z" />
    <glyph glyph-name="uni2411" 
d="M604 496q-68 0 -106.5 37.5t-38.5 103.5v223q0 66 38.5 103.5t106.5 37.5q67 0 106.5 -38t39.5 -103h-62q0 41 -22 63.5t-62 22.5t-62 -22.5t-22 -63.5v-223q0 -41 22 -64.5t62 -23.5t62 23.5t22 64.5h62q0 -66 -39 -103.5t-107 -37.5zM182 502h-129v493h129
q71 0 113.5 -40t42.5 -107v-197q0 -69 -42.5 -109t-113.5 -40zM1196 502h-303v55h133v387l-133 -100v67l111 84h83v-438h109v-55zM115 942v-387h67q44 0 69 26t25 70v197q0 43 -25 68.5t-69 25.5h-67z" />
    <glyph glyph-name="uni2412" unicode="&#x2412;" 
d="M604 496q-68 0 -106.5 37.5t-38.5 103.5v223q0 66 38.5 103.5t106.5 37.5q67 0 106.5 -38t39.5 -103h-62q0 41 -22 63.5t-62 22.5t-62 -22.5t-22 -63.5v-223q0 -41 22 -64.5t62 -23.5t62 23.5t22 64.5h62q0 -66 -39 -103.5t-107 -37.5zM1188 502h-295v59l158 172
q67 73 67 127q0 40 -24 64t-64 24q-41 0 -65.5 -24.5t-24.5 -67.5h-59q1 67 41 106t108 39q69 0 109.5 -38.5t40.5 -104.5q0 -67 -88 -162l-129 -139h225v-55zM182 502h-129v493h129q71 0 113.5 -40t42.5 -107v-197q0 -69 -42.5 -109t-113.5 -40zM115 942v-387h67
q44 0 69 26t25 70v197q0 43 -25 68.5t-69 25.5h-67z" />
    <glyph glyph-name="uni2412" 
d="M604 496q-68 0 -106.5 37.5t-38.5 103.5v223q0 66 38.5 103.5t106.5 37.5q67 0 106.5 -38t39.5 -103h-62q0 41 -22 63.5t-62 22.5t-62 -22.5t-22 -63.5v-223q0 -41 22 -64.5t62 -23.5t62 23.5t22 64.5h62q0 -66 -39 -103.5t-107 -37.5zM1188 502h-295v59l158 172
q67 73 67 127q0 40 -24 64t-64 24q-41 0 -65.5 -24.5t-24.5 -67.5h-59q1 67 41 106t108 39q69 0 109.5 -38.5t40.5 -104.5q0 -67 -88 -162l-129 -139h225v-55zM182 502h-129v493h129q71 0 113.5 -40t42.5 -107v-197q0 -69 -42.5 -109t-113.5 -40zM115 942v-387h67
q44 0 69 26t25 70v197q0 43 -25 68.5t-69 25.5h-67z" />
    <glyph glyph-name="uni2413" unicode="&#x2413;" 
d="M604 946q-40 0 -62 -22.5t-22 -63.5v-223q0 -41 22 -64.5t62 -23.5t62 23.5t22 64.5h62q0 -66 -39 -103.5t-107 -37.5t-106.5 37.5t-38.5 103.5v223q0 66 38.5 103.5t106.5 37.5q67 0 106.5 -38t39.5 -103h-62q0 41 -22 63.5t-62 22.5zM53 995h129q71 0 113.5 -40
t42.5 -107v-197q0 -69 -42.5 -109t-113.5 -40h-129v493zM1161 938l-117 -125q60 -5 96 -43t36 -98v-35q0 -64 -41 -102.5t-109 -38.5q-66 0 -106.5 38.5t-40.5 102.5h61q0 -41 23.5 -64.5t64.5 -23.5t64.5 24t23.5 64v35q0 41 -23.5 63.5t-64.5 22.5h-53v53l117 129h-193v55
h262v-57zM276 651v197q0 43 -25 68.5t-69 25.5h-67v-387h67q44 0 69 26t25 70z" />
    <glyph glyph-name="uni2413" 
d="M604 946q-40 0 -62 -22.5t-22 -63.5v-223q0 -41 22 -64.5t62 -23.5t62 23.5t22 64.5h62q0 -66 -39 -103.5t-107 -37.5t-106.5 37.5t-38.5 103.5v223q0 66 38.5 103.5t106.5 37.5q67 0 106.5 -38t39.5 -103h-62q0 41 -22 63.5t-62 22.5zM53 995h129q71 0 113.5 -40
t42.5 -107v-197q0 -69 -42.5 -109t-113.5 -40h-129v493zM1161 938l-117 -125q60 -5 96 -43t36 -98v-35q0 -64 -41 -102.5t-109 -38.5q-66 0 -106.5 38.5t-40.5 102.5h61q0 -41 23.5 -64.5t64.5 -23.5t64.5 24t23.5 64v35q0 41 -23.5 63.5t-64.5 22.5h-53v53l117 129h-193v55
h262v-57zM276 651v197q0 43 -25 68.5t-69 25.5h-67v-387h67q44 0 69 26t25 70z" />
    <glyph glyph-name="uni2414" unicode="&#x2414;" 
d="M604 496q-68 0 -106.5 37.5t-38.5 103.5v223q0 66 38.5 103.5t106.5 37.5q67 0 106.5 -38t39.5 -103h-62q0 41 -22 63.5t-62 22.5t-62 -22.5t-22 -63.5v-223q0 -41 22 -64.5t62 -23.5t62 23.5t22 64.5h62q0 -66 -39 -103.5t-107 -37.5zM182 502h-129v493h129
q71 0 113.5 -40t42.5 -107v-197q0 -69 -42.5 -109t-113.5 -40zM1163 502h-61v108h-223v95l180 290h67l-186 -303v-26h162v120h61v-284zM115 942v-387h67q44 0 69 26t25 70v197q0 43 -25 68.5t-69 25.5h-67z" />
    <glyph glyph-name="uni2414" 
d="M604 496q-68 0 -106.5 37.5t-38.5 103.5v223q0 66 38.5 103.5t106.5 37.5q67 0 106.5 -38t39.5 -103h-62q0 41 -22 63.5t-62 22.5t-62 -22.5t-22 -63.5v-223q0 -41 22 -64.5t62 -23.5t62 23.5t22 64.5h62q0 -66 -39 -103.5t-107 -37.5zM182 502h-129v493h129
q71 0 113.5 -40t42.5 -107v-197q0 -69 -42.5 -109t-113.5 -40zM1163 502h-61v108h-223v95l180 290h67l-186 -303v-26h162v120h61v-284zM115 942v-387h67q44 0 69 26t25 70v197q0 43 -25 68.5t-69 25.5h-67z" />
    <glyph glyph-name="uni2415" unicode="&#x2415;" 
d="M111 502h-58v493h80l152 -422q-6 99 -6 146v276h57v-493h-80l-152 422q7 -58 7 -146v-276zM496 502h-62l127 493h82l129 -493h-63l-31 131h-150zM954 502h-61v493h61v-211h74l109 211h67l-123 -237l129 -256h-69l-115 229h-72v-229zM578 838l-37 -154h123l-37 152
q-21 84 -25 110q-7 -40 -24 -108z" />
    <glyph glyph-name="uni2415" 
d="M111 502h-58v493h80l152 -422q-6 99 -6 146v276h57v-493h-80l-152 422q7 -58 7 -146v-276zM496 502h-62l127 493h82l129 -493h-63l-31 131h-150zM954 502h-61v493h61v-211h74l109 211h67l-123 -237l129 -256h-69l-115 229h-72v-229zM578 838l-37 -154h123l-37 152
q-21 84 -25 110q-7 -40 -24 -108z" />
    <glyph glyph-name="uni2416" unicode="&#x2416;" 
d="M197 496q-71 0 -113.5 37t-42.5 98h59q0 -37 27 -59.5t70 -22.5q42 0 67 22.5t25 59.5q0 30 -15.5 52.5t-42.5 29.5l-71 22q-49 15 -78 51.5t-29 83.5q0 60 40 95.5t106 35.5t104.5 -35.5t38.5 -95.5h-59q0 35 -23 56.5t-61 21.5t-62 -21t-24 -55q0 -59 59 -75l76 -25
q46 -15 73 -52.5t27 -88.5q0 -62 -41 -98.5t-110 -36.5zM633 502h-62v184l-147 309h61l99 -202q14 -32 18 -48q1 4 4 10.5t8 17.5t9 20l96 202h61l-147 -309v-184zM950 502h-57v493h80l151 -422q-6 99 -6 146v276h58v-493h-80l-152 422q6 -50 6 -146v-276z" />
    <glyph glyph-name="uni2416" 
d="M197 496q-71 0 -113.5 37t-42.5 98h59q0 -37 27 -59.5t70 -22.5q42 0 67 22.5t25 59.5q0 30 -15.5 52.5t-42.5 29.5l-71 22q-49 15 -78 51.5t-29 83.5q0 60 40 95.5t106 35.5t104.5 -35.5t38.5 -95.5h-59q0 35 -23 56.5t-61 21.5t-62 -21t-24 -55q0 -59 59 -75l76 -25
q46 -15 73 -52.5t27 -88.5q0 -62 -41 -98.5t-110 -36.5zM633 502h-62v184l-147 309h61l99 -202q14 -32 18 -48q1 4 4 10.5t8 17.5t9 20l96 202h61l-147 -309v-184zM950 502h-57v493h80l151 -422q-6 99 -6 146v276h58v-493h-80l-152 422q6 -50 6 -146v-276z" />
    <glyph glyph-name="uni2417" unicode="&#x2417;" 
d="M344 502h-285v493h285v-55h-225v-154h200v-53h-200v-176h225v-55zM571 940h-135v55h332v-55h-135v-438h-62v438zM1104 762q40 -11 63 -43.5t23 -79.5q0 -63 -39.5 -100t-106.5 -37h-149v493h139q67 0 105.5 -34t38.5 -93q0 -84 -74 -106zM1034 940h-80v-156h80
q38 0 61 21.5t23 56.5q0 36 -22.5 57t-61.5 21zM954 557h84q41 0 66.5 23t25.5 61q0 40 -25.5 66t-66.5 26h-84v-176z" />
    <glyph glyph-name="uni2417" 
d="M344 502h-285v493h285v-55h-225v-154h200v-53h-200v-176h225v-55zM571 940h-135v55h332v-55h-135v-438h-62v438zM1104 762q40 -11 63 -43.5t23 -79.5q0 -63 -39.5 -100t-106.5 -37h-149v493h139q67 0 105.5 -34t38.5 -93q0 -84 -74 -106zM1034 940h-80v-156h80
q38 0 61 21.5t23 56.5q0 36 -22.5 57t-61.5 21zM954 557h84q41 0 66.5 23t25.5 61q0 40 -25.5 66t-66.5 26h-84v-176z" />
    <glyph glyph-name="uni2418" unicode="&#x2418;" 
d="M197 496q-68 0 -107 37.5t-39 103.5v223q0 66 39 103.5t107 37.5q67 0 106 -38t39 -103h-61q0 41 -22 63.5t-62 22.5t-62 -22.5t-22 -63.5v-223q0 -41 22 -64.5t62 -23.5t62 23.5t22 64.5h61q0 -66 -38.5 -103.5t-106.5 -37.5zM496 502h-62l127 493h82l129 -493h-63
l-31 131h-150zM950 502h-57v493h80l151 -422q-6 99 -6 146v276h58v-493h-80l-152 422q6 -50 6 -146v-276zM578 838l-37 -154h123l-37 152q-21 84 -25 110q-7 -40 -24 -108z" />
    <glyph glyph-name="uni2418" 
d="M197 496q-68 0 -107 37.5t-39 103.5v223q0 66 39 103.5t107 37.5q67 0 106 -38t39 -103h-61q0 41 -22 63.5t-62 22.5t-62 -22.5t-22 -63.5v-223q0 -41 22 -64.5t62 -23.5t62 23.5t22 64.5h61q0 -66 -38.5 -103.5t-106.5 -37.5zM496 502h-62l127 493h82l129 -493h-63
l-31 131h-150zM950 502h-57v493h80l151 -422q-6 99 -6 146v276h58v-493h-80l-152 422q6 -50 6 -146v-276zM578 838l-37 -154h123l-37 152q-21 84 -25 110q-7 -40 -24 -108z" />
    <glyph glyph-name="uni2419" unicode="&#x2419;" 
d="M555 502h-285v493h285v-55h-225v-154h200v-53h-200v-176h225v-55zM729 502h-59v493h80l53 -159l20 -76q3 24 21 76l49 159h80v-493h-60v233q0 77 17 230l-80 -246h-57l-82 246q18 -122 18 -230v-233z" />
    <glyph glyph-name="uni2419" 
d="M555 502h-285v493h285v-55h-225v-154h200v-53h-200v-176h225v-55zM729 502h-59v493h80l53 -159l20 -76q3 24 21 76l49 159h80v-493h-60v233q0 77 17 230l-80 -246h-57l-82 246q18 -122 18 -230v-233z" />
    <glyph glyph-name="uni241A" unicode="&#x241a;" 
d="M172 797l76 -25q46 -15 73 -52.5t27 -88.5q0 -62 -41 -98.5t-110 -36.5q-71 0 -113.5 37t-42.5 98h59q0 -37 27 -59.5t70 -22.5q42 0 67 22.5t25 59.5q0 30 -15.5 52.5t-42.5 29.5l-71 22q-49 15 -78 51.5t-29 83.5q0 60 40 95.5t106 35.5t104.5 -35.5t38.5 -95.5h-59
q0 35 -23 56.5t-61 21.5t-62 -21t-24 -55q0 -59 59 -75zM684 637v358h59v-358q0 -67 -36.5 -104t-104.5 -37t-104.5 37t-36.5 104v358h59v-358q0 -41 21 -64.5t61 -23.5q39 0 60.5 24t21.5 64zM1104 762q40 -11 63 -43.5t23 -79.5q0 -63 -39.5 -100t-106.5 -37h-149v493h139
q67 0 105.5 -34t38.5 -93q0 -84 -74 -106zM1034 940h-80v-156h80q38 0 61 21.5t23 56.5q0 36 -22.5 57t-61.5 21zM954 557h84q41 0 66.5 23t25.5 61q0 40 -25.5 66t-66.5 26h-84v-176z" />
    <glyph glyph-name="uni241A" 
d="M172 797l76 -25q46 -15 73 -52.5t27 -88.5q0 -62 -41 -98.5t-110 -36.5q-71 0 -113.5 37t-42.5 98h59q0 -37 27 -59.5t70 -22.5q42 0 67 22.5t25 59.5q0 30 -15.5 52.5t-42.5 29.5l-71 22q-49 15 -78 51.5t-29 83.5q0 60 40 95.5t106 35.5t104.5 -35.5t38.5 -95.5h-59
q0 35 -23 56.5t-61 21.5t-62 -21t-24 -55q0 -59 59 -75zM684 637v358h59v-358q0 -67 -36.5 -104t-104.5 -37t-104.5 37t-36.5 104v358h59v-358q0 -41 21 -64.5t61 -23.5q39 0 60.5 24t21.5 64zM1104 762q40 -11 63 -43.5t23 -79.5q0 -63 -39.5 -100t-106.5 -37h-149v493h139
q67 0 105.5 -34t38.5 -93q0 -84 -74 -106zM1034 940h-80v-156h80q38 0 61 21.5t23 56.5q0 36 -22.5 57t-61.5 21zM954 557h84q41 0 66.5 23t25.5 61q0 40 -25.5 66t-66.5 26h-84v-176z" />
    <glyph glyph-name="uni241B" unicode="&#x241b;" 
d="M604 496q-71 0 -113 37t-42 98h59q0 -37 26.5 -59.5t69.5 -22.5q42 0 67 22.5t25 59.5q0 30 -15 52.5t-42 29.5l-72 22q-49 15 -77.5 51.5t-28.5 83.5q0 60 39.5 95.5t105.5 35.5t105 -35.5t39 -95.5h-60q0 35 -23 56.5t-61 21.5t-62 -21t-24 -55q0 -28 16 -47.5
t44 -27.5l75 -25q46 -15 73.5 -53t27.5 -88q0 -61 -41.5 -98t-110.5 -37zM1036 496q-68 0 -106.5 37.5t-38.5 103.5v223q0 66 38.5 103.5t106.5 37.5q67 0 106.5 -38t39.5 -103h-62q0 41 -22 63.5t-62 22.5t-62 -22.5t-22 -63.5v-223q0 -41 22 -64.5t62 -23.5t62 23.5
t22 64.5h62q0 -66 -39 -103.5t-107 -37.5zM344 502h-285v493h285v-55h-225v-154h200v-53h-200v-176h225v-55z" />
    <glyph glyph-name="uni241B" 
d="M604 496q-71 0 -113 37t-42 98h59q0 -37 26.5 -59.5t69.5 -22.5q42 0 67 22.5t25 59.5q0 30 -15 52.5t-42 29.5l-72 22q-49 15 -77.5 51.5t-28.5 83.5q0 60 39.5 95.5t105.5 35.5t105 -35.5t39 -95.5h-60q0 35 -23 56.5t-61 21.5t-62 -21t-24 -55q0 -28 16 -47.5
t44 -27.5l75 -25q46 -15 73.5 -53t27.5 -88q0 -61 -41.5 -98t-110.5 -37zM1036 496q-68 0 -106.5 37.5t-38.5 103.5v223q0 66 38.5 103.5t106.5 37.5q67 0 106.5 -38t39.5 -103h-62q0 41 -22 63.5t-62 22.5t-62 -22.5t-22 -63.5v-223q0 -41 22 -64.5t62 -23.5t62 23.5
t22 64.5h62q0 -66 -39 -103.5t-107 -37.5zM344 502h-285v493h285v-55h-225v-154h200v-53h-200v-176h225v-55z" />
    <glyph glyph-name="uni241C" unicode="&#x241c;" 
d="M823 496q-71 0 -113 37t-42 98h59q0 -37 26.5 -59.5t69.5 -22.5q42 0 67 22.5t25 59.5q0 30 -15 52.5t-42 29.5l-72 22q-49 15 -77.5 51.5t-28.5 83.5q0 60 39.5 95.5t105.5 35.5t105 -35.5t39 -95.5h-60q0 35 -23 56.5t-61 21.5t-62 -21t-24 -55q0 -28 16 -47.5
t44 -27.5l75 -25q46 -15 73.5 -53t27.5 -88q0 -61 -41.5 -98t-110.5 -37zM328 502h-62v493h291v-55h-231v-164h215v-55h-213v-219z" />
    <glyph glyph-name="uni241C" 
d="M823 496q-71 0 -113 37t-42 98h59q0 -37 26.5 -59.5t69.5 -22.5q42 0 67 22.5t25 59.5q0 30 -15 52.5t-42 29.5l-72 22q-49 15 -77.5 51.5t-28.5 83.5q0 60 39.5 95.5t105.5 35.5t105 -35.5t39 -95.5h-60q0 35 -23 56.5t-61 21.5t-62 -21t-24 -55q0 -28 16 -47.5
t44 -27.5l75 -25q46 -15 73.5 -53t27.5 -88q0 -61 -41.5 -98t-110.5 -37zM328 502h-62v493h291v-55h-231v-164h215v-55h-213v-219z" />
    <glyph glyph-name="uni241D" unicode="&#x241d;" 
d="M408 496q-68 0 -107 37.5t-39 103.5v223q0 66 39 103.5t107 37.5q67 0 106 -38t39 -103h-61q0 41 -22 63.5t-62 22.5t-62 -22.5t-22 -63.5v-223q0 -41 22 -64.5t62 -23.5t62 23.5t22 64.5v61h-101v56h162v-117q0 -66 -38.5 -103.5t-106.5 -37.5zM823 496q-71 0 -113 37
t-42 98h59q0 -37 26.5 -59.5t69.5 -22.5q42 0 67 22.5t25 59.5q0 30 -15 52.5t-42 29.5l-72 22q-49 15 -77.5 51.5t-28.5 83.5q0 60 39.5 95.5t105.5 35.5t105 -35.5t39 -95.5h-60q0 35 -23 56.5t-61 21.5t-62 -21t-24 -55q0 -28 16 -47.5t44 -27.5l75 -25q46 -15 73.5 -53
t27.5 -88q0 -61 -41.5 -98t-110.5 -37z" />
    <glyph glyph-name="uni241D" 
d="M408 496q-68 0 -107 37.5t-39 103.5v223q0 66 39 103.5t107 37.5q67 0 106 -38t39 -103h-61q0 41 -22 63.5t-62 22.5t-62 -22.5t-22 -63.5v-223q0 -41 22 -64.5t62 -23.5t62 23.5t22 64.5v61h-101v56h162v-117q0 -66 -38.5 -103.5t-106.5 -37.5zM823 496q-71 0 -113 37
t-42 98h59q0 -37 26.5 -59.5t69.5 -22.5q42 0 67 22.5t25 59.5q0 30 -15 52.5t-42 29.5l-72 22q-49 15 -77.5 51.5t-28.5 83.5q0 60 39.5 95.5t105.5 35.5t105 -35.5t39 -95.5h-60q0 35 -23 56.5t-61 21.5t-62 -21t-24 -55q0 -28 16 -47.5t44 -27.5l75 -25q46 -15 73.5 -53
t27.5 -88q0 -61 -41.5 -98t-110.5 -37z" />
    <glyph glyph-name="uni241E" unicode="&#x241e;" 
d="M823 496q-71 0 -113 37t-42 98h59q0 -37 26.5 -59.5t69.5 -22.5q42 0 67 22.5t25 59.5q0 30 -15 52.5t-42 29.5l-72 22q-49 15 -77.5 51.5t-28.5 83.5q0 60 39.5 95.5t105.5 35.5t105 -35.5t39 -95.5h-60q0 35 -23 56.5t-61 21.5t-62 -21t-24 -55q0 -28 16 -47.5
t44 -27.5l75 -25q46 -15 73.5 -53t27.5 -88q0 -61 -41.5 -98t-110.5 -37zM326 502h-62v493h154q66 0 106.5 -39t40.5 -102q0 -50 -26.5 -85.5t-71.5 -49.5l104 -217h-71l-94 209h-80v-209zM326 940v-174h92q38 0 61 24t23 64q0 38 -23.5 62t-60.5 24h-92z" />
    <glyph glyph-name="uni241E" 
d="M823 496q-71 0 -113 37t-42 98h59q0 -37 26.5 -59.5t69.5 -22.5q42 0 67 22.5t25 59.5q0 30 -15 52.5t-42 29.5l-72 22q-49 15 -77.5 51.5t-28.5 83.5q0 60 39.5 95.5t105.5 35.5t105 -35.5t39 -95.5h-60q0 35 -23 56.5t-61 21.5t-62 -21t-24 -55q0 -28 16 -47.5
t44 -27.5l75 -25q46 -15 73.5 -53t27.5 -88q0 -61 -41.5 -98t-110.5 -37zM326 502h-62v493h154q66 0 106.5 -39t40.5 -102q0 -50 -26.5 -85.5t-71.5 -49.5l104 -217h-71l-94 209h-80v-209zM326 940v-174h92q38 0 61 24t23 64q0 38 -23.5 62t-60.5 24h-92z" />
    <glyph glyph-name="uni241F" unicode="&#x241f;" 
d="M823 496q-71 0 -113 37t-42 98h59q0 -37 26.5 -59.5t69.5 -22.5q42 0 67 22.5t25 59.5q0 30 -15 52.5t-42 29.5l-72 22q-49 15 -77.5 51.5t-28.5 83.5q0 60 39.5 95.5t105.5 35.5t105 -35.5t39 -95.5h-60q0 35 -23 56.5t-61 21.5t-62 -21t-24 -55q0 -28 16 -47.5
t44 -27.5l75 -25q46 -15 73.5 -53t27.5 -88q0 -61 -41.5 -98t-110.5 -37zM406 496q-68 0 -105 37t-37 104v358h60v-358q0 -41 21 -64.5t61 -23.5q39 0 60 23.5t21 64.5v358h60v-358q0 -67 -36.5 -104t-104.5 -37z" />
    <glyph glyph-name="uni241F" 
d="M823 496q-71 0 -113 37t-42 98h59q0 -37 26.5 -59.5t69.5 -22.5q42 0 67 22.5t25 59.5q0 30 -15 52.5t-42 29.5l-72 22q-49 15 -77.5 51.5t-28.5 83.5q0 60 39.5 95.5t105.5 35.5t105 -35.5t39 -95.5h-60q0 35 -23 56.5t-61 21.5t-62 -21t-24 -55q0 -28 16 -47.5
t44 -27.5l75 -25q46 -15 73.5 -53t27.5 -88q0 -61 -41.5 -98t-110.5 -37zM406 496q-68 0 -105 37t-37 104v358h60v-358q0 -41 21 -64.5t61 -23.5q39 0 60 23.5t21 64.5v358h60v-358q0 -67 -36.5 -104t-104.5 -37z" />
    <glyph glyph-name="space" unicode=" " horiz-adv-x="819" 
 />
    <glyph glyph-name="exclam" unicode="!" horiz-adv-x="819" 
d="M475 440h-131l-43 809v246h217v-246zM440 -10h-61q-54 0 -88.5 34.5t-34.5 88.5t34.5 88.5t88.5 34.5h61q57 0 90 -33.5t33 -87.5t-34.5 -89.5t-88.5 -35.5z" />
    <glyph glyph-name="quotedbl" unicode="&#x22;" horiz-adv-x="819" 
d="M279 881h-152l-25 430v184h199v-184zM694 881h-151l-25 430v184h199v-184z" />
    <glyph glyph-name="numbersign" unicode="#" 
d="M313 0h-143l80 430h-178v133h200l70 369h-199v133h222l79 430h144l-80 -430h328l79 430h144l-80 -430h178v-133h-201l-69 -369h198v-133h-221l-80 -430h-143l80 430h-328zM485 932l-69 -369h327l70 369h-328z" />
    <glyph glyph-name="dollar" unicode="$" 
d="M686 840l82 -27q149 -47 231 -159t82 -265q0 -168 -107 -278t-288 -129v-269h-123v269q-193 15 -303 122.5t-113 284.5h185q0 -101 60.5 -165t170.5 -77v537l-55 16q-153 47 -236.5 157t-83.5 261q0 164 101.5 270t273.5 123v271h123v-269q171 -17 272.5 -123.5
t104.5 -273.5h-184q0 95 -50.5 156t-142.5 76v-508zM373 1135q0 -93 49 -160t141 -96v469q-91 -13 -140.5 -69t-49.5 -144zM686 645v-498q100 15 155.5 77.5t55.5 160.5q0 90 -49 157.5t-137 94.5z" />
    <glyph glyph-name="percent" unicode="%" 
d="M317 819q-130 0 -207 74.5t-77 202.5v133q0 128 77 202t207 74t207.5 -74t77.5 -202v-133q0 -128 -77.5 -202.5t-207.5 -74.5zM180 0h-151l1020 1495h151zM317 958q134 0 134 138v133q0 137 -134 137q-133 0 -133 -137v-133q0 -138 133 -138zM911 -10q-130 0 -207 74
t-77 202v133q0 128 77 202.5t207 74.5t207.5 -74.5t77.5 -202.5v-133q0 -128 -77.5 -202t-207.5 -74zM911 131q133 0 133 135v133q0 138 -133 138t-133 -138v-133q0 -135 133 -135z" />
    <glyph glyph-name="ampersand" unicode="&#x26;" 
d="M471 -20q-167 0 -262.5 89.5t-95.5 247.5v256q0 107 56.5 182.5t160.5 106.5l-15 21q-120 164 -120 307q0 148 101 237t267 89q178 0 282.5 -95t104.5 -256h-184q0 89 -54.5 140t-148.5 51q-85 0 -134.5 -46t-49.5 -124q0 -110 82 -223l352 -486l145 260h193l-231 -407
l239 -330h-203l-129 178q-73 -97 -164.5 -147.5t-191.5 -50.5zM481 143q69 0 134.5 46.5t109.5 127.5l-301 416q-127 -21 -127 -160v-256q0 -83 48 -128.5t136 -45.5z" />
    <glyph glyph-name="quotesingle" unicode="'" horiz-adv-x="409" 
d="M281 881h-152l-25 307v307h199v-307z" />
    <glyph glyph-name="parenleft" unicode="(" horiz-adv-x="819" 
d="M727 -63v-183q-290 72 -452 282.5t-162 516.5v369q0 299 165 513t449 285v-174q-197 -46 -313.5 -214.5t-116.5 -409.5v-369q0 -238 116 -404t314 -212z" />
    <glyph glyph-name="parenright" unicode=")" horiz-adv-x="819" 
d="M92 -246v183q198 46 314 212t116 404v369q0 241 -116.5 409.5t-313.5 214.5v174q284 -71 449.5 -285t165.5 -513v-369q0 -306 -162.5 -516.5t-452.5 -282.5z" />
    <glyph glyph-name="asterisk" unicode="*" 
d="M481 352l-110 -159l-148 102l111 160q61 87 205 207l-7 14q-179 14 -280 51l-180 66l61 170l180 -66q112 -40 252 -145l10 8q-51 194 -51 295v194h181v-194q0 -117 -54 -295l11 -8q141 105 251 145l183 66l61 -170l-182 -66q-101 -37 -279 -51l-8 -17q140 -112 203 -204
l113 -160l-148 -102l-113 159q-66 95 -122 262h-15q-65 -178 -125 -262z" />
    <glyph glyph-name="plus" unicode="+" 
d="M705 195h-181v399h-391v164h391v399h181v-399h391v-164h-391v-399z" />
    <glyph glyph-name="comma" unicode="," horiz-adv-x="819" 
d="M324 -328h-164l164 637h266z" />
    <glyph glyph-name="hyphen" unicode="-" 
d="M942 594h-655v164h655v-164z" />
    <glyph glyph-name="period" unicode="." horiz-adv-x="819" 
d="M410 -20q-78 0 -124 44.5t-46 120.5q0 80 46 127t124 47t124 -47t46 -127q0 -76 -46 -120.5t-124 -44.5z" />
    <glyph glyph-name="slash" unicode="/" 
d="M348 -225h-194l727 1925h194z" />
    <glyph glyph-name="zero" unicode="0" 
d="M614 -20q-207 0 -328.5 119.5t-121.5 320.5v655q0 201 121.5 321t328.5 120t329 -120t122 -321v-655q0 -200 -123 -320t-328 -120zM614 137q122 0 197.5 79t75.5 204v655q0 125 -75.5 204t-197.5 79t-197 -79t-75 -204v-655q0 -125 75 -204t197 -79zM614 627
q-55 0 -88.5 35t-33.5 92q0 56 33.5 89.5t88.5 33.5q56 0 89.5 -33.5t33.5 -89.5q0 -57 -34 -92t-89 -35z" />
    <glyph glyph-name="one" unicode="1" 
d="M1106 0h-922v168h406v1173l-406 -303v205l338 252h252v-1327h332v-168z" />
    <glyph glyph-name="two" unicode="2" 
d="M1077 0h-889v182l478 520q106 116 154 205.5t48 175.5q0 123 -71.5 196t-194.5 73q-124 0 -197 -74.5t-73 -202.5h-185q6 202 129 321.5t326 119.5q207 0 329 -117.5t122 -317.5q0 -107 -63 -223t-202 -268l-389 -422h678v-168z" />
    <glyph glyph-name="three" unicode="3" 
d="M997 1323l-350 -383q183 -14 290 -129t107 -299v-102q0 -193 -124.5 -311.5t-327.5 -118.5q-202 0 -325.5 118t-123.5 312h185q0 -125 71 -196t195 -71t195 72.5t71 194.5v102q0 126 -70 196t-196 70h-162v160l356 389h-583v168h792v-172z" />
    <glyph glyph-name="four" unicode="4" 
d="M1004 0h-185v328h-676v288l545 879h203l-563 -915v-84h491v364h185v-860z" />
    <glyph glyph-name="five" unicode="5" 
d="M670 983q181 1 283 -112t102 -316v-145q0 -199 -118 -314.5t-327 -115.5q-182 0 -299 94t-137 254h184q11 -89 76 -137t178 -48q128 0 193 69t65 198v145q0 129 -65 197.5t-191 68.5q-78 0 -138 -41.5t-87 -111.5h-184l10 827h786v-168h-608l-6 -498h6q22 72 94.5 113
t182.5 41z" />
    <glyph glyph-name="six" unicode="6" 
d="M616 -20q-218 0 -351.5 131.5t-133.5 345.5q0 182 135 417l352 621h201l-405 -690l8 -6q37 56 107 88.5t157 32.5q185 0 298.5 -125.5t113.5 -329.5q0 -218 -132.5 -351.5t-349.5 -133.5zM614 143q134 0 216.5 88t82.5 230t-82.5 229.5t-216.5 87.5t-216.5 -87.5
t-82.5 -229.5t82.5 -230t216.5 -88z" />
    <glyph glyph-name="seven" unicode="7" 
d="M594 0h-203l535 1327h-578v-242h-184v410h952v-172z" />
    <glyph glyph-name="eight" unicode="8" 
d="M797 782q136 -62 216.5 -171t80.5 -236q0 -176 -132 -285.5t-348 -109.5t-347.5 109.5t-131.5 285.5q0 127 80.5 236t216.5 171q-130 63 -197 155t-67 198q0 167 126 275t320 108t320.5 -108t126.5 -275q0 -104 -67 -195t-197 -158zM348 1128q0 -83 56.5 -151.5
t150.5 -102.5l59 -22l52 20q97 37 156 106t59 150q0 100 -74.5 163t-192.5 63t-192 -63.5t-74 -162.5zM614 143q135 0 217 70t82 186q0 91 -56 164t-155 111l-88 35l-94 -37q-97 -38 -151 -111t-54 -162q0 -116 82 -186t217 -70z" />
    <glyph glyph-name="nine" unicode="9" 
d="M614 0h-204l401 690l-8 6q-37 -56 -105.5 -88.5t-154.5 -32.5q-185 0 -298.5 125.5t-113.5 329.5q0 218 132 352t349 134q218 0 352 -132t134 -346q0 -172 -137 -417zM614 717q134 0 216.5 87.5t82.5 229.5t-82.5 230t-216.5 88t-216.5 -88t-82.5 -230t82.5 -229.5
t216.5 -87.5z" />
    <glyph glyph-name="colon" unicode=":" horiz-adv-x="819" 
d="M410 840q-77 0 -123.5 42t-46.5 111t47 111.5t123 42.5t123 -42.5t47 -111.5t-46.5 -111t-123.5 -42zM410 -20q-77 0 -123.5 42t-46.5 111t47 111.5t123 42.5t123 -42.5t47 -111.5t-46.5 -111t-123.5 -42z" />
    <glyph glyph-name="semicolon" unicode=";" horiz-adv-x="819" 
d="M430 840h-41q-67 0 -110 43t-43 110q0 66 43.5 110t109.5 44h41q66 0 110 -44t44 -110q0 -67 -43 -110t-111 -43zM307 -328h-164l164 637h266z" />
    <glyph glyph-name="less" unicode="&#x3c;" 
d="M1055 317v-184l-881 440v205l881 441v-179l-635 -311q-74 -36 -123 -49q56 -14 123 -49z" />
    <glyph glyph-name="equal" unicode="=" 
d="M1055 840h-881v164h881v-164zM1055 348h-881v164h881v-164z" />
    <glyph glyph-name="greater" unicode="&#x3e;" 
d="M1055 573l-881 -440v178l635 312q74 36 123 49q-56 14 -123 49l-635 313v185l881 -441v-205z" />
    <glyph glyph-name="question" unicode="?" 
d="M606 420h-184v368h102q130 0 207.5 72.5t77.5 194.5t-77.5 194t-209.5 72h-256v174h256q215 0 343 -119.5t128 -320.5q0 -177 -107.5 -294t-279.5 -126v-215zM543 -10h-62q-54 0 -88.5 34.5t-34.5 88.5t34.5 88.5t88.5 34.5h62q57 0 90 -33.5t33 -87.5t-34.5 -89.5
t-88.5 -35.5z" />
    <glyph glyph-name="at" unicode="@" 
d="M645 1516q233 0 367.5 -134.5t134.5 -367.5v-881h-160v133h-6q-8 -70 -65.5 -111.5t-149.5 -41.5q-134 0 -204 81t-70 236v246q0 155 70 236t204 81q91 0 149.5 -41.5t65.5 -111.5h8l-6 164v10q0 173 -87 265.5t-251 92.5q-185 0 -287 -118t-102 -332v-697
q0 -204 110 -322t300 -118h143v-154h-143q-262 0 -418 161t-156 433v697q0 277 147.5 435.5t405.5 158.5zM983 451v227q0 97 -39.5 141.5t-124.5 44.5q-84 0 -124 -46t-40 -142v-246q0 -96 40 -142t124 -46t124 51.5t40 157.5z" />
    <glyph glyph-name="A" unicode="A" 
d="M291 0h-189l390 1495h247l387 -1495h-186l-98 397h-453zM541 1016l-115 -463h377l-115 461q-58 233 -74 334q-18 -114 -73 -332z" />
    <glyph glyph-name="B" unicode="B" 
d="M825 791q122 -34 191 -132.5t69 -242.5q0 -192 -118 -304t-322 -112h-455v1495h424q204 0 320.5 -103t116.5 -284q0 -121 -60 -204.5t-166 -112.5zM614 1329h-243v-471h241q118 0 187 63.5t69 172.5t-68 172t-186 63zM371 166h254q129 0 203.5 68.5t74.5 187.5
q0 124 -75 200t-203 76h-254v-532z" />
    <glyph glyph-name="C" unicode="C" 
d="M623 -20q-205 0 -324 115t-119 315v675q0 200 119 315.5t324 115.5q201 0 319.5 -116.5t118.5 -314.5h-184q0 127 -66.5 196t-187.5 69q-122 0 -190 -69t-68 -194v-677q0 -127 68 -196t190 -69q121 0 187.5 69t66.5 196h184q0 -198 -118.5 -314t-319.5 -116z" />
    <glyph glyph-name="D" unicode="D" 
d="M575 0h-387v1495h387q217 0 345.5 -122t128.5 -326v-596q0 -206 -128.5 -328.5t-345.5 -122.5zM373 1331v-1167h202q135 0 212 76t77 211v596q0 133 -77 208.5t-212 75.5h-202z" />
    <glyph glyph-name="E" unicode="E" 
d="M1065 0h-860v1495h860v-168h-678v-463h606v-164h-606v-532h678v-168z" />
    <glyph glyph-name="F" unicode="F" 
d="M379 0h-184v1495h880v-168h-700v-496h647v-167h-643v-664z" />
    <glyph glyph-name="G" unicode="G" 
d="M623 -20q-205 0 -324 115t-119 315v675q0 200 119 315.5t324 115.5q201 0 319.5 -116.5t118.5 -314.5h-184q0 127 -66.5 196t-187.5 69q-122 0 -190 -69t-68 -194v-677q0 -127 68 -197t190 -70q120 0 187 70t67 197v184h-304v168h488v-352q0 -198 -118.5 -314
t-319.5 -116z" />
    <glyph glyph-name="H" unicode="H" 
d="M375 0h-185v1495h185v-639h479v639h184v-1495h-184v688h-479v-688z" />
    <glyph glyph-name="I" unicode="I" 
d="M1014 0h-799v168h305v1159h-305v168h799v-168h-305v-1159h305v-168z" />
    <glyph glyph-name="J" unicode="J" 
d="M553 -20q-215 0 -338 120.5t-123 329.5h184q0 -136 73 -211.5t204 -75.5t203.5 75.5t72.5 211.5v897h-419v168h604v-1065q0 -209 -123.5 -329.5t-337.5 -120.5z" />
    <glyph glyph-name="K" unicode="K" 
d="M373 0h-185v1495h185v-641h221l332 641h200l-370 -719l391 -776h-211l-348 692h-215v-692z" />
    <glyph glyph-name="L" unicode="L" 
d="M1126 0h-860v1495h185v-1327h675v-168z" />
    <glyph glyph-name="M" unicode="M" 
d="M336 0h-180v1495h241l160 -483q34 -103 61 -230q25 117 62 232l151 481h242v-1495h-180v707q0 303 53 696l-244 -748h-176l-245 748q55 -393 55 -696v-707z" />
    <glyph glyph-name="N" unicode="N" 
d="M362 0h-178v1495h246l457 -1280q-21 263 -21 440v840h178v-1495h-245l-455 1280q18 -225 18 -440v-840z" />
    <glyph glyph-name="O" unicode="O" 
d="M614 -20q-201 0 -317.5 114.5t-116.5 315.5v675q0 201 116.5 316t317.5 115t318 -115t117 -314v-677q0 -200 -116.5 -315t-318.5 -115zM614 145q120 0 185 69t65 196v675q0 127 -65 196t-185 69t-184.5 -68.5t-64.5 -196.5v-675q0 -128 64.5 -196.5t184.5 -68.5z" />
    <glyph glyph-name="P" unicode="P" 
d="M373 0h-185v1495h482q209 0 332.5 -119.5t123.5 -320.5t-123.5 -321t-332.5 -120h-297v-614zM373 1329v-549h297q122 0 194 74.5t72 200.5t-72 200t-194 74h-297z" />
    <glyph glyph-name="Q" unicode="Q" 
d="M838 27l239 -396h-213l-211 351q-10 -2 -39 -2q-207 0 -328.5 119.5t-121.5 320.5v655q0 201 121.5 321t328.5 120t329 -120t122 -321v-655q0 -137 -59.5 -239.5t-167.5 -153.5zM614 143q121 0 194 75.5t73 201.5v655q0 126 -73 201.5t-194 75.5t-193.5 -75.5
t-72.5 -201.5v-655q0 -126 72.5 -201.5t193.5 -75.5z" />
    <glyph glyph-name="R" unicode="R" 
d="M373 0h-185v1495h463q199 0 322 -119t123 -311q0 -151 -78.5 -259.5t-214.5 -150.5l313 -655h-217l-287 635h-239v-635zM373 1329v-528h278q115 0 184.5 72t69.5 192t-70 192t-184 72h-278z" />
    <glyph glyph-name="S" unicode="S" 
d="M623 -20q-217 0 -346.5 112t-129.5 301h185q0 -113 79.5 -181.5t211.5 -68.5q127 0 202.5 68.5t75.5 181.5q0 88 -46.5 154.5t-125.5 91.5l-221 70q-151 47 -235.5 154.5t-84.5 252.5q0 183 119.5 291.5t319.5 108.5q198 0 317 -108.5t119 -291.5h-184q0 107 -68.5 171.5
t-183.5 64.5q-117 0 -187.5 -64t-70.5 -168q0 -83 46 -142t130 -85l229 -74q142 -46 224.5 -160t82.5 -266q0 -189 -124.5 -301t-333.5 -112z" />
    <glyph glyph-name="T" unicode="T" 
d="M707 0h-185v1327h-409v168h1003v-168h-409v-1327z" />
    <glyph glyph-name="U" unicode="U" 
d="M614 -20q-207 0 -318.5 114t-111.5 316v1085h185v-1085q0 -126 61.5 -196.5t183.5 -70.5q121 0 183.5 70.5t62.5 196.5v1085h184v-1085q0 -203 -111 -316.5t-319 -113.5z" />
    <glyph glyph-name="V" unicode="V" 
d="M739 0h-252l-385 1495h189l256 -1018q42 -169 69 -334q18 112 74 336l246 1016h190z" />
    <glyph glyph-name="W" unicode="W" 
d="M455 0h-232l-172 1495h176l113 -1106q15 -168 18 -256q27 254 27 256l139 1106h191l127 -1106l28 -256q9 133 23 256l117 1106h168l-177 -1495h-231l-127 1126q-22 200 -25 240q-3 -22 -7 -59.5t-9.5 -92.5t-9.5 -88z" />
    <glyph glyph-name="X" unicode="X" 
d="M287 0h-205l430 758l-408 737h213l232 -442q14 -27 39 -77.5t30 -60.5q30 67 68 138l236 442h202l-407 -725l430 -770h-211l-256 475q-45 84 -68 139q-29 -69 -67 -137z" />
    <glyph glyph-name="Y" unicode="Y" 
d="M707 0h-185v559l-450 936h190l297 -614q39 -81 57 -140q13 43 60 140l291 614h190l-450 -936v-559z" />
    <glyph glyph-name="Z" unicode="Z" 
d="M1055 0h-881v184l674 1143h-664v168h850v-184l-674 -1143h695v-168z" />
    <glyph glyph-name="bracketleft" unicode="[" horiz-adv-x="819" 
d="M727 -225h-502v1925h502v-164h-317v-1597h317v-164z" />
    <glyph glyph-name="backslash" unicode="\" 
d="M1075 -225h-194l-727 1925h194z" />
    <glyph glyph-name="bracketright" unicode="]" horiz-adv-x="819" 
d="M594 -225h-502v164h318v1597h-318v164h502v-1925z" />
    <glyph glyph-name="asciicircum" unicode="^" 
d="M330 696h-166l366 799h172l363 -799h-166l-229 529q-31 71 -49 137q-23 -68 -56 -137z" />
    <glyph glyph-name="underscore" unicode="_" 
d="M1106 -205h-983v154h983v-154z" />
    <glyph glyph-name="grave" unicode="`" 
d="M762 1321h-195l-235 287h205z" />
    <glyph glyph-name="a" unicode="a" 
d="M625 1147q193 0 306 -100.5t113 -272.5v-774h-180v215h-2q-12 -109 -105 -172t-241 -63q-178 0 -280.5 90t-102.5 247q0 156 102.5 247t276.5 91h348v113q0 103 -62.5 160t-172.5 57q-98 0 -166.5 -43.5t-83.5 -112.5h-185q15 141 136.5 229.5t298.5 88.5zM561 125
q131 0 215 65t84 168v160h-344q-92 0 -145.5 -51t-53.5 -139q0 -95 64.5 -149t179.5 -54z" />
    <glyph glyph-name="b" unicode="b" 
d="M680 1147q171 0 273 -113t102 -307v-330q0 -192 -102.5 -304.5t-272.5 -112.5q-128 0 -210 62.5t-95 172.5h-2v-215h-185v1495h185v-328l-4 -256h6q15 109 97 172.5t208 63.5zM870 410v307q0 129 -67 199.5t-185 70.5q-114 0 -179.5 -71.5t-65.5 -198.5v-307
q0 -127 65.5 -199t179.5 -72q118 0 185 71t67 200z" />
    <glyph glyph-name="c" unicode="c" 
d="M623 -20q-205 0 -327 115t-122 315v307q0 200 122 315t327 115q195 0 313.5 -104.5t124.5 -284.5h-184q-6 107 -73 166t-181 59q-123 0 -194 -69.5t-71 -194.5v-309q0 -126 71 -196.5t194 -70.5q114 0 181 59.5t73 166.5h184q-6 -180 -124.5 -284.5t-313.5 -104.5z" />
    <glyph glyph-name="d" unicode="d" 
d="M856 1167v328h184v-1495h-184v215h-2q-13 -110 -95 -172.5t-210 -62.5q-170 0 -272.5 112.5t-102.5 304.5v330q0 194 102 307t273 113q126 0 208 -63.5t97 -172.5h6zM856 410v307q0 127 -65.5 198.5t-180.5 71.5q-118 0 -185 -70.5t-67 -199.5v-307q0 -129 67 -200
t185 -71q114 0 180 72t66 199z" />
    <glyph glyph-name="e" unicode="e" 
d="M1055 717v-199h-701v-108q0 -133 67 -204t193 -71q107 0 172 39t80 113h185q-19 -140 -138.5 -223.5t-298.5 -83.5q-200 0 -320 117.5t-120 312.5v307q0 195 120 312.5t320 117.5t320.5 -117.5t120.5 -312.5zM354 717v-60h520v60q0 134 -67 205t-193 71t-193 -71
t-67 -205z" />
    <glyph glyph-name="f" unicode="f" horiz-adv-x="1024" 
d="M524 0h-184v846h-246v168h246v194q0 134 84 210.5t231 76.5h269v-168h-269q-63 0 -97 -30.5t-34 -88.5v-194h400v-168h-400v-846z" />
    <glyph glyph-name="g" unicode="g" 
d="M856 911v215h182v-1167q0 -153 -93.5 -240.5t-258.5 -87.5h-356v168h358q86 0 126 39t40 121v143l4 205h-4q-10 -109 -90.5 -172t-208.5 -63q-173 0 -274 113t-101 307v237q0 192 101 305t274 113q127 0 207.5 -63.5t91.5 -172.5h2zM856 502v215q0 127 -65.5 198.5
t-180.5 71.5q-117 0 -181 -70t-64 -200v-215q0 -130 64 -200.5t181 -70.5q114 0 180 72t66 199z" />
    <glyph glyph-name="h" unicode="h" 
d="M674 1147q169 0 269.5 -105t100.5 -284v-758h-184v737q0 119 -64 186.5t-175 67.5q-116 0 -182 -72t-66 -202v-717h-185v1495h185v-584h2q13 112 91.5 174t207.5 62z" />
    <glyph glyph-name="i" unicode="i" horiz-adv-x="1024" 
d="M543 1329q-68 0 -107 34.5t-39 94.5q0 61 39 97t107 36q67 0 106 -35.5t39 -97.5q0 -60 -39 -94.5t-106 -34.5zM932 0h-758v168h297v790h-256v168h440v-958h277v-168z" />
    <glyph glyph-name="j" unicode="j" horiz-adv-x="819" 
d="M494 1329q-68 0 -107 34.5t-39 94.5q0 61 39 97t107 36q67 0 106 -35.5t39 -97.5q0 -60 -39 -94.5t-106 -34.5zM178 -369h-131v170h131q128 0 198 68t70 194v895h-337v168h522v-1063q0 -198 -123 -315t-330 -117z" />
    <glyph glyph-name="k" unicode="k" 
d="M379 0h-184v1495h184v-833h217l328 464h211l-379 -536l385 -590h-215l-328 502h-219v-502z" />
    <glyph glyph-name="l" unicode="l" horiz-adv-x="819" 
d="M762 0h-174q-149 0 -238.5 86t-89.5 231v1010h-235v168h419v-1178q0 -69 39 -109t105 -40h174v-168z" />
    <glyph glyph-name="m" unicode="m" horiz-adv-x="1638" 
d="M1157 1147q140 0 217.5 -79.5t77.5 -211.5v-856h-184v858q0 70 -47.5 109t-128.5 39q-83 0 -134 -39t-51 -107v-860h-172v858q0 70 -48.5 109t-131.5 39q-80 0 -130 -39t-50 -107v-860h-185v1126h175v-135h12q20 71 90 113.5t166 42.5q93 0 157.5 -41t94.5 -115h10
q22 71 93.5 113.5t168.5 42.5z" />
    <glyph glyph-name="n" unicode="n" 
d="M674 1147q169 0 269.5 -105t100.5 -284v-758h-184v737q0 119 -64 184.5t-175 65.5q-117 0 -182.5 -70.5t-65.5 -199.5v-717h-185v1126h185v-215h2q13 112 91.5 174t207.5 62z" />
    <glyph glyph-name="o" unicode="o" 
d="M614 -16q-204 0 -322 115.5t-118 314.5v299q0 199 118 314.5t322 115.5t322.5 -115t118.5 -313v-301q0 -199 -118.5 -314.5t-322.5 -115.5zM614 147q121 0 188.5 69t67.5 198v299q0 129 -67.5 197.5t-188.5 68.5t-188.5 -68.5t-67.5 -197.5v-299q0 -129 67.5 -198
t188.5 -69z" />
    <glyph glyph-name="p" unicode="p" 
d="M684 1147q170 0 271.5 -113t101.5 -305v-330q0 -194 -101 -306.5t-272 -112.5q-126 0 -209 63t-98 172h-6l4 -256v-328h-185v1495h185v-215h2q15 110 97 173t210 63zM872 410v307q0 130 -65.5 200t-183.5 70q-115 0 -181.5 -71.5t-66.5 -198.5v-307q0 -127 66.5 -199
t181.5 -72q118 0 183.5 70.5t65.5 200.5z" />
    <glyph glyph-name="q" unicode="q" 
d="M856 911v215h184v-1495h-184v328l4 256h-6q-15 -109 -97 -172t-208 -63q-171 0 -270 112t-99 307v330q0 193 100 305.5t269 112.5q128 0 210 -63t95 -173h2zM856 410v307q0 127 -65.5 198.5t-180.5 71.5q-117 0 -181 -70t-64 -200v-307q0 -130 64 -200.5t181 -70.5
q114 0 180 72t66 199z" />
    <glyph glyph-name="r" unicode="r" 
d="M709 1147q175 0 280 -112t105 -302v-78h-185v62q0 130 -66 200t-190 70q-120 0 -182.5 -68.5t-62.5 -201.5v-717h-185v1126h185v-215h2q13 112 91.5 174t207.5 62z" />
    <glyph glyph-name="s" unicode="s" 
d="M666 -16h-86q-176 0 -286 81t-110 218h189q0 -63 59 -99.5t152 -36.5h86q106 0 160.5 43t54.5 119q0 139 -195 170l-151 25q-167 28 -247.5 106.5t-80.5 214.5q0 154 99.5 236t285.5 82h78q172 0 275.5 -77t103.5 -204h-189q0 54 -52.5 85.5t-141.5 31.5h-78
q-97 0 -149 -40t-52 -114q0 -124 174 -151l152 -25q183 -29 265.5 -107t82.5 -225q0 -159 -101 -246t-298 -87z" />
    <glyph glyph-name="t" unicode="t" horiz-adv-x="1024" 
d="M852 0h-225q-140 0 -224 81t-84 216v661h-256v168h256v318h185v-318h368v-168h-368v-661q0 -58 33.5 -93.5t89.5 -35.5h225v-168z" />
    <glyph glyph-name="u" unicode="u" 
d="M612 -20q-196 0 -312 116t-116 314v716h185v-716q0 -127 64.5 -198t178.5 -71q116 0 182 71t66 198v716h184v-716q0 -197 -118 -313.5t-314 -116.5z" />
    <glyph glyph-name="v" unicode="v" 
d="M735 0h-241l-412 1126h190l283 -757q15 -39 27 -83t23 -90t13 -55q3 10 13 54.5t22 89t27 84.5l274 757h193z" />
    <glyph glyph-name="w" unicode="w" 
d="M455 0h-203l-180 1126h159l113 -798q13 -98 21 -185h8q8 91 24 185l125 798h185l124 -798q19 -117 25 -185h8l25 185l117 798h151l-188 -1126h-203l-121 778q-25 156 -29 205h-8q-8 -92 -26 -205z" />
    <glyph glyph-name="x" unicode="x" 
d="M317 0h-215l400 580l-375 546h217l223 -348q36 -62 49 -92q13 38 48 92l225 348h215l-375 -548l397 -578h-217l-241 369q-16 24 -52 100q-28 -58 -55 -100z" />
    <glyph glyph-name="y" unicode="y" 
d="M559 -369h-192l165 439l-430 1056h201l275 -696q28 -72 49 -164q18 79 51 164l256 696h192z" />
    <glyph glyph-name="z" unicode="z" 
d="M1044 0h-860v184l631 774h-614v168h821v-184l-643 -774h665v-168z" />
    <glyph glyph-name="braceleft" unicode="{" 
d="M1034 1536h-92q-99 0 -150 -45t-44 -131l30 -336q10 -115 -45 -188t-160 -91q102 -19 158.5 -99t46.5 -195l-30 -336q-7 -86 44 -131t150 -45h92v-164h-92q-185 0 -289.5 90.5t-89.5 249.5l31 336q9 112 -34 158t-171 46h-235v164h235q129 0 171.5 46t33.5 159l-31 336
q-15 159 89.5 249.5t289.5 90.5h92v-164z" />
    <glyph glyph-name="bar" unicode="|" 
d="M707 -225h-185v1925h185v-1925z" />
    <glyph glyph-name="braceright" unicode="}" 
d="M840 819h235v-164h-235q-128 0 -171 -46t-34 -158l31 -336q15 -159 -89.5 -249.5t-289.5 -90.5h-92v164h92q99 0 150 45t44 131l-30 336q-10 115 46 196t158 101q-105 18 -159.5 89.5t-44.5 186.5l30 336q7 86 -44 131t-150 45h-92v164h92q185 0 289.5 -90.5t89.5 -249.5
l-31 -336q-9 -113 33.5 -159t171.5 -46z" />
    <glyph glyph-name="asciitilde" unicode="~" 
d="M317 522h-174v144q0 120 73.5 193t193.5 73q71 0 126 -27.5t88 -66.5t61 -78t60 -66.5t70 -27.5q46 0 71 28.5t25 83.5v144h174v-144q0 -119 -73 -192.5t-193 -73.5q-71 0 -126 27.5t-88 66.5t-61 78t-60 66.5t-70 27.5q-46 0 -71.5 -28.5t-25.5 -83.5v-144z" />
    <glyph glyph-name="uni2421" unicode="&#x2421;" 
d="M182 502h-129v493h129q71 0 113.5 -40t42.5 -107v-197q0 -69 -42.5 -109t-113.5 -40zM752 502h-285v493h285v-55h-226v-154h201v-53h-201v-176h226v-55zM1204 502h-284v493h61v-438h223v-55zM115 942v-387h67q44 0 69 26t25 70v197q0 43 -25 68.5t-69 25.5h-67z" />
    <glyph glyph-name="uni2421" 
d="M182 502h-129v493h129q71 0 113.5 -40t42.5 -107v-197q0 -69 -42.5 -109t-113.5 -40zM752 502h-285v493h285v-55h-226v-154h201v-53h-201v-176h226v-55zM1204 502h-284v493h61v-438h223v-55zM115 942v-387h67q44 0 69 26t25 70v197q0 43 -25 68.5t-69 25.5h-67z" />
    <glyph glyph-name="uni00A0" unicode="&#xa0;" horiz-adv-x="819" 
 />
    <glyph glyph-name="exclamdown" unicode="&#xa1;" horiz-adv-x="819" 
d="M430 893h-41q-60 0 -96.5 34.5t-36.5 90.5q0 55 36.5 88t96.5 33h41q60 0 96.5 -32t36.5 -87q0 -57 -36.5 -92t-96.5 -35zM518 -369h-217v256l43 801h131l43 -801v-256z" />
    <glyph glyph-name="cent" unicode="&#xa2;" 
d="M682 979v-832q88 15 139.5 72.5t55.5 149.5h184q-6 -165 -107 -267.5t-272 -119.5v-269h-123v271q-179 17 -282 129.5t-103 296.5v307q0 184 103 296.5t282 129.5v270h123v-268q171 -17 272 -119.5t107 -267.5h-184q-4 92 -55.5 149t-139.5 72zM358 719v-309
q0 -109 53 -175.5t148 -84.5v827q-95 -17 -148 -84t-53 -174z" />
    <glyph glyph-name="sterling" unicode="&#xa3;" 
d="M338 164h758v-164h-942v205q86 68 154.5 156.5t68.5 158.5q0 53 -10 105h-213v163h153q-11 22 -42.5 76t-46 83.5t-28.5 82t-14 107.5q0 173 118.5 276t319.5 103q203 0 320.5 -103.5t120.5 -286.5h-195q0 103 -67.5 164.5t-180.5 61.5q-120 0 -185 -59t-65 -167
q0 -63 23 -115.5t65 -116.5t62 -106h379v-163h-334q6 -40 6 -86q0 -63 -21 -124.5t-55.5 -109t-72.5 -83t-76 -58.5z" />
    <glyph glyph-name="currency" unicode="&#xa4;" 
d="M1143 360l-129 -129l-178 179q-94 -60 -220 -60t-223 60l-174 -174l-127 126l170 173q-67 98 -67 229q0 130 69 231l-176 176l129 129l180 -180q99 58 219 58q130 0 228 -64l172 172l125 -125l-170 -170q63 -101 63 -227q0 -124 -65 -229zM616 492q114 0 190.5 77.5
t76.5 194.5t-76.5 194.5t-190.5 77.5q-116 0 -193 -77.5t-77 -194.5t77 -194.5t193 -77.5z" />
    <glyph glyph-name="yen" unicode="&#xa5;" 
d="M967 1495h190l-379 -788h328v-154h-399v-154h399v-153h-399v-246h-185v246h-399v153h399v154h-399v154h328l-379 788h190l297 -614q39 -81 57 -140q13 43 60 140z" />
    <glyph glyph-name="brokenbar" unicode="&#xa6;" 
d="M707 922h-185v778h185v-778zM707 -225h-185v778h185v-778z" />
    <glyph glyph-name="section" unicode="&#xa7;" 
d="M645 -315h-61q-167 0 -285 87t-141 228h194q19 -68 82.5 -110t149.5 -42h61q115 0 177.5 48t62.5 129q0 146 -207 190l-189 39q-141 28 -227 119t-86 211q0 117 75 200.5t189 94.5v14q-44 -1 -87 15t-82 49t-63 92.5t-24 136.5q0 152 108.5 241t299.5 89h61
q161 0 272.5 -81.5t133.5 -215.5h-195q-15 60 -73 96.5t-138 36.5h-61q-103 0 -162 -45.5t-59 -122.5q0 -66 52 -114.5t146 -68.5l185 -38q146 -31 229.5 -119.5t83.5 -212.5q0 -121 -75.5 -202t-196.5 -81v-14q47 -2 93.5 -21t88.5 -54t68 -94t26 -134q0 -161 -113 -253.5
t-313 -92.5zM520 410l156 -31q89 -18 147 51.5t58 181.5q0 72 -45 126t-117 69l-152 31q-88 18 -146.5 -49.5t-58.5 -174.5q0 -78 43.5 -134t114.5 -70z" />
    <glyph glyph-name="dieresis" unicode="&#xa8;" 
d="M387 1329q-60 0 -95.5 34.5t-35.5 94.5q0 61 35.5 97t95.5 36t95.5 -36t35.5 -97q0 -60 -35.5 -94.5t-95.5 -34.5zM842 1329q-60 0 -95.5 34.5t-35.5 94.5q0 61 35.5 97t95.5 36t95.5 -36t35.5 -97q0 -60 -35.5 -94.5t-95.5 -34.5z" />
    <glyph glyph-name="copyright" unicode="&#xa9;" 
d="M614 225q-235 0 -378.5 135.5t-143.5 356.5v307q0 221 143.5 356.5t378.5 135.5t379 -135.5t144 -356.5v-307q0 -221 -144 -356.5t-379 -135.5zM614 328q184 0 297 107t113 282v307q0 175 -113 282t-297 107q-183 0 -296 -107t-113 -282v-307q0 -175 113 -282t296 -107z
M625 502q-115 0 -185.5 64.5t-70.5 170.5v267q0 106 70.5 170.5t185.5 64.5q114 0 184 -64.5t70 -170.5h-134q0 55 -33 88.5t-87 33.5q-56 0 -89.5 -33.5t-33.5 -88.5v-267q0 -55 34 -89t89 -34q54 0 87 34t33 89h134q0 -106 -70 -170.5t-184 -64.5z" />
    <glyph glyph-name="ordfeminine" unicode="&#xaa;" 
d="M625 1516q109 0 172 -49.5t63 -135.5v-399h-96v112h-6q-22 -57 -74.5 -89.5t-122.5 -32.5q-92 0 -147.5 48t-55.5 128t58 127t157 47h185v59q0 47 -36 75t-97 28q-54 0 -90.5 -22.5t-42.5 -59.5h-103q10 78 72.5 121t163.5 43zM588 999q79 0 124.5 36.5t45.5 101.5v53
h-185q-54 0 -83 -24.5t-29 -67.5q0 -46 34 -72.5t93 -26.5z" />
    <glyph glyph-name="guillemotleft" unicode="&#xab;" 
d="M690 82h-215l-414 491l412 492h217l-422 -487zM1167 82h-215l-413 491l411 492h217l-422 -487z" />
    <glyph glyph-name="logicalnot" unicode="&#xac;" 
d="M1085 420h-174v266h-768v164h942v-430z" />
    <glyph glyph-name="uni00AD" unicode="&#xad;" 
d="M942 594h-655v164h655v-164z" />
    <glyph glyph-name="registered" unicode="&#xae;" 
d="M614 225q-235 0 -378.5 135.5t-143.5 356.5v307q0 221 143.5 356.5t378.5 135.5t379 -135.5t144 -356.5v-307q0 -221 -144 -356.5t-379 -135.5zM205 1024v-307q0 -175 113 -282t296 -107q184 0 297 107t113 282v307q0 175 -113 282t-297 107q-183 0 -296 -107t-113 -282z
M512 512h-123v717h234q110 0 174.5 -58.5t64.5 -156.5q0 -140 -123 -195l135 -307h-131l-120 287h-111v-287zM512 1126v-225h111q54 0 84 29.5t30 83.5t-30 83t-84 29h-111z" />
    <glyph glyph-name="macron" unicode="&#xaf;" 
d="M942 1372h-655v154h655v-154z" />
    <glyph glyph-name="degree" unicode="&#xb0;" 
d="M614 922q-138 0 -222.5 81.5t-84.5 215.5t84.5 215.5t222.5 81.5t223 -82t85 -215t-85 -215t-223 -82zM612 1026q84 0 135.5 53t51.5 140q0 88 -51 141t-136 53q-82 0 -132 -53t-50 -141q0 -86 50 -139.5t132 -53.5z" />
    <glyph glyph-name="plusminus" unicode="&#xb1;" 
d="M1085 0h-942v143h381v461h-391v164h391v399h181v-399h391v-164h-391v-461h380v-143z" />
    <glyph glyph-name="uni00B2" unicode="&#xb2;" 
d="M932 829h-592v179l332 247q44 32 70 78t26 92q0 76 -43 121t-115 45t-114.5 -45t-42.5 -121h-144q6 135 87.5 215t213.5 80q138 0 218.5 -78t80.5 -212q0 -72 -43 -146t-118 -129l-263 -194h447v-132z" />
    <glyph glyph-name="uni00B3" unicode="&#xb3;" 
d="M829 1540l-182 -174q111 -15 174.5 -86.5t63.5 -183.5q0 -132 -82 -209.5t-221 -77.5t-221 77.5t-82 209.5h141q0 -72 43.5 -115t118.5 -43q72 0 113.5 43t41.5 115t-41 113.5t-112 41.5h-62v138l191 182h-375v131h491v-162z" />
    <glyph glyph-name="acute" unicode="&#xb4;" 
d="M664 1321h-189l217 287h199z" />
    <glyph glyph-name="uni00B5" unicode="&#xb5;" 
d="M854 410v716h184v-1126h-180v215h-6q-8 -114 -65.5 -174.5t-178.5 -60.5q-120 0 -172.5 59.5t-58.5 175.5h-6l4 -256v-328h-185v1495h185v-716q0 -128 61 -199.5t174 -71.5q114 0 179 72t65 199z" />
    <glyph glyph-name="paragraph" unicode="&#xb6;" 
d="M686 -369h-164v1004q-175 0 -282 95.5t-107 252.5v164q0 157 107 252.5t282 95.5h164v-1864zM1034 -369h-164v1864h164v-1864z" />
    <glyph glyph-name="periodcentered" unicode="&#xb7;" 
d="M410 532q-78 0 -124 45t-46 121q0 80 46 127t124 47t124 -47t46 -127q0 -76 -46 -121t-124 -45z" />
    <glyph glyph-name="cedilla" unicode="&#xb8;" 
d="M594 -416h-174v113h143q43 0 72 22.5t29 51.5q0 37 -58 62.5t-157 25.5l71 194h117l-43 -125q58 -7 111.5 -26.5t94 -58.5t40.5 -89q0 -72 -69 -121t-177 -49z" />
    <glyph glyph-name="uni00B9" unicode="&#xb9;" 
d="M942 829h-625v132h269v610l-250 -178v161l199 146h194v-739h213v-132z" />
    <glyph glyph-name="ordmasculine" unicode="&#xba;" 
d="M614 911q-106 0 -170.5 59t-64.5 156v164q0 97 64.5 156t170.5 59t171 -59t65 -156v-164q0 -97 -65 -156t-171 -59zM614 993q60 0 97 36.5t37 96.5v164q0 60 -37 96.5t-97 36.5t-96.5 -36.5t-36.5 -96.5v-164q0 -60 36.5 -96.5t96.5 -36.5z" />
    <glyph glyph-name="guillemotright" unicode="&#xbb;" 
d="M279 82h-216l414 493l-416 490h215l414 -492zM756 82h-215l413 493l-415 490h215l413 -492z" />
    <glyph glyph-name="onequarter" unicode="&#xbc;" 
d="M625 901l290 594h129l-731 -1495h-129l406 829h-529v103h242v483q-31 -47 -67 -78l-127 -110v143l143 125h174v-563h199v-31zM983 246v182h123v-428h-123v143h-358v164l258 359h141l-276 -387v-33h235z" />
    <glyph glyph-name="onehalf" unicode="&#xbd;" 
d="M641 932l274 563h129l-731 -1495h-129l406 829h-529v103h242v483q-31 -47 -67 -78l-127 -110v143l143 125h174v-563h215zM944 102h223v-102h-522v131l246 141q143 82 143 170q0 60 -36.5 95.5t-96.5 35.5t-96.5 -35.5t-36.5 -95.5h-123q4 106 75 170t181 64
q115 0 185.5 -63.5t70.5 -166.5q0 -63 -46 -124.5t-130 -108.5l-190 -107v-20q83 16 153 16z" />
    <glyph glyph-name="threequarters" unicode="&#xbe;" 
d="M575 1034q0 -97 -71.5 -156t-188.5 -59q-118 0 -190 59t-72 156h123q0 -51 38 -81.5t101 -30.5q62 0 100 30.5t38 81.5t-38 82t-98 31h-61v117l166 129h-320v102h441v-113l-174 -135q95 -12 150.5 -69t55.5 -144zM184 0l731 1495h129l-731 -1495h-129zM983 246v182h123
v-428h-123v143h-358v164l258 359h141l-276 -387v-33h235z" />
    <glyph glyph-name="questiondown" unicode="&#xbf;" 
d="M727 891h-41q-60 0 -96.5 34.5t-36.5 90.5q0 55 36.5 88t96.5 33h41q60 0 96.5 -32t36.5 -87q0 -57 -36.5 -92t-96.5 -35zM952 -348h-256q-218 0 -344.5 116t-126.5 314q0 175 107 288t280 122v215h185v-369h-103q-132 0 -208 -68t-76 -188t76 -188t210 -68h256v-174z
" />
    <glyph glyph-name="Agrave" unicode="&#xc0;" 
d="M741 1659h-194l-236 287h205zM291 0h-189l390 1495h247l387 -1495h-186l-98 397h-453zM541 1016l-115 -463h377l-115 461q-58 233 -74 334q-18 -114 -73 -332z" />
    <glyph glyph-name="Aacute" unicode="&#xc1;" 
d="M684 1659h-188l217 287h198zM291 0h-189l390 1495h247l387 -1495h-186l-98 397h-453zM541 1016l-115 -463h377l-115 461q-58 233 -74 334q-18 -114 -73 -332z" />
    <glyph glyph-name="Acircumflex" unicode="&#xc2;" 
d="M451 1659h-207l284 287h170l287 -287h-203l-168 160zM291 0h-189l390 1495h247l387 -1495h-186l-98 397h-453zM541 1016l-115 -463h377l-115 461q-58 233 -74 334q-18 -114 -73 -332z" />
    <glyph glyph-name="Atilde" unicode="&#xc3;" 
d="M758 1669q-45 0 -82 14.5t-60.5 35.5t-44 42.5t-43 36t-47.5 14.5q-61 0 -61 -71v-62h-133v62q0 91 50 142.5t134 51.5q45 0 82 -14.5t60.5 -35.5t44 -42.5t43 -36t47.5 -14.5q61 0 61 72v61h133v-61q0 -91 -50 -143t-134 -52zM291 0h-189l390 1495h247l387 -1495h-186
l-98 397h-453zM541 1016l-115 -463h377l-115 461q-58 233 -74 334q-18 -114 -73 -332z" />
    <glyph glyph-name="Adieresis" unicode="&#xc4;" 
d="M387 1673q-60 0 -95.5 34.5t-35.5 94.5q0 61 35.5 97t95.5 36t95.5 -36t35.5 -97q0 -60 -35.5 -94.5t-95.5 -34.5zM842 1673q-60 0 -95.5 34.5t-35.5 94.5q0 61 35.5 97t95.5 36t95.5 -36t35.5 -97q0 -60 -35.5 -94.5t-95.5 -34.5zM291 0h-189l390 1495h247l387 -1495
h-186l-98 397h-453zM541 1016l-115 -463h377l-115 461q-58 233 -74 334q-18 -114 -73 -332z" />
    <glyph glyph-name="Aring" unicode="&#xc5;" 
d="M614 1569q-110 0 -177.5 64.5t-67.5 168.5t67.5 169t177.5 65t178 -65t68 -169t-68 -168.5t-178 -64.5zM614 1677q56 0 89.5 34t33.5 91t-34 92t-89 35t-88.5 -35t-33.5 -92t33 -91t89 -34zM291 0h-189l390 1495h247l387 -1495h-186l-98 397h-453zM541 1016l-115 -463
h377l-115 461q-58 233 -74 334q-18 -114 -73 -332z" />
    <glyph glyph-name="AE" unicode="&#xc6;" 
d="M248 0h-187l297 1495h809v-168h-372v-467h321v-168h-321v-524h372v-168h-549v416h-288zM504 1327l-146 -758h260v758h-114z" />
    <glyph glyph-name="Ccedilla" unicode="&#xc7;" 
d="M623 145q121 0 187.5 69t66.5 196h184q0 -198 -118.5 -314t-319.5 -116l-19 -52q58 -7 111.5 -26.5t94 -58.5t40.5 -89q0 -72 -69 -121t-177 -49h-174v113h143q43 0 72 22.5t29 51.5q0 37 -58 62.5t-157 25.5l49 131q-155 31 -241.5 141t-86.5 279v675q0 200 119 315.5
t324 115.5q201 0 319.5 -116.5t118.5 -314.5h-184q0 127 -66.5 196t-187.5 69q-122 0 -190 -69t-68 -194v-677q0 -127 68 -196t190 -69z" />
    <glyph glyph-name="Egrave" unicode="&#xc8;" 
d="M782 1659h-194l-236 287h205zM1065 0h-860v1495h860v-168h-678v-463h606v-164h-606v-532h678v-168z" />
    <glyph glyph-name="Eacute" unicode="&#xc9;" 
d="M725 1659h-188l217 287h198zM1065 0h-860v1495h860v-168h-678v-463h606v-164h-606v-532h678v-168z" />
    <glyph glyph-name="Ecircumflex" unicode="&#xca;" 
d="M492 1659h-207l284 287h170l287 -287h-203l-168 160zM1065 0h-860v1495h860v-168h-678v-463h606v-164h-606v-532h678v-168z" />
    <glyph glyph-name="Edieresis" unicode="&#xcb;" 
d="M428 1673q-60 0 -95.5 34.5t-35.5 94.5q0 61 35.5 97t95.5 36t95.5 -36t35.5 -97q0 -60 -35.5 -94.5t-95.5 -34.5zM883 1673q-60 0 -95.5 34.5t-35.5 94.5q0 61 35.5 97t95.5 36t95.5 -36t35.5 -97q0 -60 -35.5 -94.5t-95.5 -34.5zM1065 0h-860v1495h860v-168h-678v-463
h606v-164h-606v-532h678v-168z" />
    <glyph glyph-name="Igrave" unicode="&#xcc;" 
d="M741 1659h-194l-236 287h205zM1014 0h-799v168h305v1159h-305v168h799v-168h-305v-1159h305v-168z" />
    <glyph glyph-name="Iacute" unicode="&#xcd;" 
d="M684 1659h-188l217 287h198zM1014 0h-799v168h305v1159h-305v168h799v-168h-305v-1159h305v-168z" />
    <glyph glyph-name="Icircumflex" unicode="&#xce;" 
d="M451 1659h-207l284 287h170l287 -287h-203l-168 160zM1014 0h-799v168h305v1159h-305v168h799v-168h-305v-1159h305v-168z" />
    <glyph glyph-name="Idieresis" unicode="&#xcf;" 
d="M387 1673q-60 0 -95.5 34.5t-35.5 94.5q0 61 35.5 97t95.5 36t95.5 -36t35.5 -97q0 -60 -35.5 -94.5t-95.5 -34.5zM842 1673q-60 0 -95.5 34.5t-35.5 94.5q0 61 35.5 97t95.5 36t95.5 -36t35.5 -97q0 -60 -35.5 -94.5t-95.5 -34.5zM1014 0h-799v168h305v1159h-305v168
h799v-168h-305v-1159h305v-168z" />
    <glyph glyph-name="Eth" unicode="&#xd0;" 
d="M188 1495h387q217 0 345.5 -122t128.5 -326v-596q0 -206 -128.5 -328.5t-345.5 -122.5h-387v686h-168v154h168v655zM864 451v596q0 133 -77 208.5t-212 75.5h-202v-491h221v-154h-221v-522h202q135 0 212 76t77 211z" />
    <glyph glyph-name="Ntilde" unicode="&#xd1;" 
d="M758 1669q-45 0 -82 14.5t-60.5 35.5t-44 42.5t-43 36t-47.5 14.5q-61 0 -61 -71v-62h-133v62q0 91 50 142.5t134 51.5q45 0 82 -14.5t60.5 -35.5t44 -42.5t43 -36t47.5 -14.5q61 0 61 72v61h133v-61q0 -91 -50 -143t-134 -52zM362 0h-178v1495h246l457 -1280
q-21 263 -21 440v840h178v-1495h-245l-455 1280q18 -225 18 -440v-840z" />
    <glyph glyph-name="Ograve" unicode="&#xd2;" 
d="M741 1659h-194l-236 287h205zM614 -20q-201 0 -317.5 114.5t-116.5 315.5v675q0 201 116.5 316t317.5 115t318 -115t117 -314v-677q0 -200 -116.5 -315t-318.5 -115zM614 145q120 0 185 69t65 196v675q0 127 -65 196t-185 69t-184.5 -68.5t-64.5 -196.5v-675
q0 -128 64.5 -196.5t184.5 -68.5z" />
    <glyph glyph-name="Oacute" unicode="&#xd3;" 
d="M684 1659h-188l217 287h198zM614 -20q-201 0 -317.5 114.5t-116.5 315.5v675q0 201 116.5 316t317.5 115t318 -115t117 -314v-677q0 -200 -116.5 -315t-318.5 -115zM614 145q120 0 185 69t65 196v675q0 127 -65 196t-185 69t-184.5 -68.5t-64.5 -196.5v-675
q0 -128 64.5 -196.5t184.5 -68.5z" />
    <glyph glyph-name="Ocircumflex" unicode="&#xd4;" 
d="M451 1659h-207l284 287h170l287 -287h-203l-168 160zM614 -20q-201 0 -317.5 114.5t-116.5 315.5v675q0 201 116.5 316t317.5 115t318 -115t117 -314v-677q0 -200 -116.5 -315t-318.5 -115zM614 145q120 0 185 69t65 196v675q0 127 -65 196t-185 69t-184.5 -68.5
t-64.5 -196.5v-675q0 -128 64.5 -196.5t184.5 -68.5z" />
    <glyph glyph-name="Otilde" unicode="&#xd5;" 
d="M758 1669q-45 0 -82 14.5t-60.5 35.5t-44 42.5t-43 36t-47.5 14.5q-61 0 -61 -71v-62h-133v62q0 91 50 142.5t134 51.5q45 0 82 -14.5t60.5 -35.5t44 -42.5t43 -36t47.5 -14.5q61 0 61 72v61h133v-61q0 -91 -50 -143t-134 -52zM614 -20q-201 0 -317.5 114.5t-116.5 315.5
v675q0 201 116.5 316t317.5 115t318 -115t117 -314v-677q0 -200 -116.5 -315t-318.5 -115zM614 145q120 0 185 69t65 196v675q0 127 -65 196t-185 69t-184.5 -68.5t-64.5 -196.5v-675q0 -128 64.5 -196.5t184.5 -68.5z" />
    <glyph glyph-name="Odieresis" unicode="&#xd6;" 
d="M387 1673q-60 0 -95.5 34.5t-35.5 94.5q0 61 35.5 97t95.5 36t95.5 -36t35.5 -97q0 -60 -35.5 -94.5t-95.5 -34.5zM842 1673q-60 0 -95.5 34.5t-35.5 94.5q0 61 35.5 97t95.5 36t95.5 -36t35.5 -97q0 -60 -35.5 -94.5t-95.5 -34.5zM614 -20q-201 0 -317.5 114.5
t-116.5 315.5v675q0 201 116.5 316t317.5 115t318 -115t117 -314v-677q0 -200 -116.5 -315t-318.5 -115zM614 145q120 0 185 69t65 196v675q0 127 -65 196t-185 69t-184.5 -68.5t-64.5 -196.5v-675q0 -128 64.5 -196.5t184.5 -68.5z" />
    <glyph glyph-name="multiply" unicode="&#xd7;" 
d="M610 569l-291 -290l-104 106l289 289l-289 291l104 104l291 -289l297 297l105 -106l-297 -297l291 -289l-107 -106z" />
    <glyph glyph-name="Oslash" unicode="&#xd8;" 
d="M985 1536h172l-143 -256q35 -84 35 -193v-677q0 -200 -116.5 -315t-318.5 -115q-172 0 -286 88l-84 -150h-172l155 275q-47 92 -47 217v675q0 201 116.5 316t317.5 115q191 0 304 -101zM365 1085v-649l458 813q-63 101 -209 101q-120 0 -184.5 -68.5t-64.5 -196.5z
M864 410v608l-446 -791q67 -82 196 -82q120 0 185 69t65 196z" />
    <glyph glyph-name="Ugrave" unicode="&#xd9;" 
d="M741 1659h-194l-236 287h205zM614 -20q-207 0 -318.5 114t-111.5 316v1085h185v-1085q0 -126 61.5 -196.5t183.5 -70.5q121 0 183.5 70.5t62.5 196.5v1085h184v-1085q0 -203 -111 -316.5t-319 -113.5z" />
    <glyph glyph-name="Uacute" unicode="&#xda;" 
d="M684 1659h-188l217 287h198zM614 -20q-207 0 -318.5 114t-111.5 316v1085h185v-1085q0 -126 61.5 -196.5t183.5 -70.5q121 0 183.5 70.5t62.5 196.5v1085h184v-1085q0 -203 -111 -316.5t-319 -113.5z" />
    <glyph glyph-name="Ucircumflex" unicode="&#xdb;" 
d="M451 1659h-207l284 287h170l287 -287h-203l-168 160zM614 -20q-207 0 -318.5 114t-111.5 316v1085h185v-1085q0 -126 61.5 -196.5t183.5 -70.5q121 0 183.5 70.5t62.5 196.5v1085h184v-1085q0 -203 -111 -316.5t-319 -113.5z" />
    <glyph glyph-name="Udieresis" unicode="&#xdc;" 
d="M387 1673q-60 0 -95.5 34.5t-35.5 94.5q0 61 35.5 97t95.5 36t95.5 -36t35.5 -97q0 -60 -35.5 -94.5t-95.5 -34.5zM842 1673q-60 0 -95.5 34.5t-35.5 94.5q0 61 35.5 97t95.5 36t95.5 -36t35.5 -97q0 -60 -35.5 -94.5t-95.5 -34.5zM614 -20q-207 0 -318.5 114t-111.5 316
v1085h185v-1085q0 -126 61.5 -196.5t183.5 -70.5q121 0 183.5 70.5t62.5 196.5v1085h184v-1085q0 -203 -111 -316.5t-319 -113.5z" />
    <glyph glyph-name="Yacute" unicode="&#xdd;" 
d="M684 1659h-188l217 287h198zM707 0h-185v559l-450 936h190l297 -614q39 -81 57 -140q13 43 60 140l291 614h190l-450 -936v-559z" />
    <glyph glyph-name="Thorn" unicode="&#xde;" 
d="M369 0h-185v1495h185v-307h313q201 0 322.5 -112.5t121.5 -297.5q0 -187 -120.5 -298t-323.5 -111h-313v-369zM369 1024v-492h313q118 0 186 66t68 180t-68.5 180t-185.5 66h-313z" />
    <glyph glyph-name="germandbls" unicode="&#xdf;" 
d="M821 801q124 -32 194 -131t70 -244q0 -189 -121.5 -307.5t-318.5 -118.5h-135v168h115q122 0 194 72.5t72 191.5t-71 186.5t-195 67.5h-90v160h86q112 0 177.5 70.5t65.5 181.5q0 118 -65 184t-178 66q-114 0 -181 -68t-67 -186v-1094h-185v1094q0 191 118.5 306.5
t314.5 115.5q200 0 318 -100t118 -281q0 -123 -63 -212.5t-173 -121.5z" />
    <glyph glyph-name="agrave" unicode="&#xe0;" 
d="M526 1608l226 -287h-195l-235 287h204zM625 1147q193 0 306 -100.5t113 -272.5v-774h-180v215h-2q-12 -109 -105 -172t-241 -63q-178 0 -280.5 90t-102.5 247q0 156 102.5 247t276.5 91h348v113q0 103 -62.5 160t-172.5 57q-98 0 -166.5 -43.5t-83.5 -112.5h-185
q15 141 136.5 229.5t298.5 88.5zM561 125q131 0 215 65t84 168v160h-344q-92 0 -145.5 -51t-53.5 -139q0 -95 64.5 -149t179.5 -54z" />
    <glyph glyph-name="aacute" unicode="&#xe1;" 
d="M723 1608h199l-228 -287h-188zM625 1147q193 0 306 -100.5t113 -272.5v-774h-180v215h-2q-12 -109 -105 -172t-241 -63q-178 0 -280.5 90t-102.5 247q0 156 102.5 247t276.5 91h348v113q0 103 -62.5 160t-172.5 57q-98 0 -166.5 -43.5t-83.5 -112.5h-185
q15 141 136.5 229.5t298.5 88.5zM561 125q131 0 215 65t84 168v160h-344q-92 0 -145.5 -51t-53.5 -139q0 -95 64.5 -149t179.5 -54z" />
    <glyph glyph-name="acircumflex" unicode="&#xe2;" 
d="M793 1321l-168 160l-164 -160h-207l285 287h170l286 -287h-202zM625 1147q193 0 306 -100.5t113 -272.5v-774h-180v215h-2q-12 -109 -105 -172t-241 -63q-178 0 -280.5 90t-102.5 247q0 156 102.5 247t276.5 91h348v113q0 103 -62.5 160t-172.5 57q-98 0 -166.5 -43.5
t-83.5 -112.5h-185q15 141 136.5 229.5t298.5 88.5zM561 125q131 0 215 65t84 168v160h-344q-92 0 -145.5 -51t-53.5 -139q0 -95 64.5 -149t179.5 -54z" />
    <glyph glyph-name="atilde" unicode="&#xe3;" 
d="M430 1403v-62h-133v62q0 91 50 142.5t134 51.5q45 0 82 -14.5t60.5 -35.5t44 -42.5t43 -36t47.5 -14.5q61 0 61 72v61h133v-61q0 -91 -50 -143t-134 -52q-45 0 -82 15t-60.5 36t-43.5 42t-42.5 36t-47.5 15q-29 0 -45.5 -18t-16.5 -54zM625 1147q193 0 306 -100.5
t113 -272.5v-774h-180v215h-2q-12 -109 -105 -172t-241 -63q-178 0 -280.5 90t-102.5 247q0 156 102.5 247t276.5 91h348v113q0 103 -62.5 160t-172.5 57q-98 0 -166.5 -43.5t-83.5 -112.5h-185q15 141 136.5 229.5t298.5 88.5zM561 125q131 0 215 65t84 168v160h-344
q-92 0 -145.5 -51t-53.5 -139q0 -95 64.5 -149t179.5 -54z" />
    <glyph glyph-name="adieresis" unicode="&#xe4;" 
d="M397 1329q-60 0 -95.5 34.5t-35.5 94.5q0 61 35.5 97t95.5 36t95.5 -36t35.5 -97q0 -60 -35.5 -94.5t-95.5 -34.5zM852 1329q-60 0 -95.5 34.5t-35.5 94.5q0 61 35.5 97t95.5 36t95.5 -36t35.5 -97q0 -60 -35.5 -94.5t-95.5 -34.5zM625 1147q193 0 306 -100.5t113 -272.5
v-774h-180v215h-2q-12 -109 -105 -172t-241 -63q-178 0 -280.5 90t-102.5 247q0 156 102.5 247t276.5 91h348v113q0 103 -62.5 160t-172.5 57q-98 0 -166.5 -43.5t-83.5 -112.5h-185q15 141 136.5 229.5t298.5 88.5zM561 125q131 0 215 65t84 168v160h-344q-92 0 -145.5 -51
t-53.5 -139q0 -95 64.5 -149t179.5 -54z" />
    <glyph glyph-name="aring" unicode="&#xe5;" 
d="M625 1245q-110 0 -178 65t-68 169t68 168.5t178 64.5t177.5 -64.5t67.5 -168.5q0 -105 -67.5 -169.5t-177.5 -64.5zM625 1606q-55 0 -89 -35t-34 -92t33.5 -91t89.5 -34t89.5 34t33.5 91t-34 92t-89 35zM625 1147q193 0 306 -100.5t113 -272.5v-774h-180v215h-2
q-12 -109 -105 -172t-241 -63q-178 0 -280.5 90t-102.5 247q0 156 102.5 247t276.5 91h348v113q0 103 -62.5 160t-172.5 57q-98 0 -166.5 -43.5t-83.5 -112.5h-185q15 141 136.5 229.5t298.5 88.5zM561 125q131 0 215 65t84 168v160h-344q-92 0 -145.5 -51t-53.5 -139
q0 -95 64.5 -149t179.5 -54z" />
    <glyph glyph-name="ae" unicode="&#xe6;" 
d="M348 -20q-127 0 -201.5 77t-74.5 209v123q0 126 85.5 201.5t227.5 75.5h152v151q0 89 -33.5 130.5t-104.5 41.5q-59 0 -94 -35.5t-35 -93.5h-174q0 129 75 208t198 79q109 0 172.5 -51t74.5 -113h9q11 62 71 113t164 51q138 0 217.5 -88t79.5 -240v-297h-455v-215
q0 -76 38 -123t100 -47q66 0 104.5 34.5t38.5 94.5h174q0 -129 -81.5 -207.5t-215.5 -78.5q-105 0 -165.5 50.5t-69.5 112.5h-9q-11 -62 -80 -112.5t-188 -50.5zM702 819v-153h281v153q0 77 -38 123.5t-105 46.5q-64 0 -101 -46.5t-37 -123.5zM389 137q66 0 107 47t41 123
v215h-148q-63 0 -98 -35.5t-35 -97.5v-123q0 -60 35.5 -94.5t97.5 -34.5z" />
    <glyph glyph-name="ccedilla" unicode="&#xe7;" 
d="M623 143q114 0 181 59.5t73 166.5h184q-6 -180 -124.5 -284.5t-313.5 -104.5h-2l-19 -52q58 -7 111.5 -26.5t94 -58.5t40.5 -89q0 -72 -69 -121t-177 -49h-174v113h143q43 0 72 22.5t29 51.5q0 37 -58 62.5t-157 25.5l49 131q-155 31 -243.5 141t-88.5 279v307
q0 200 122 315t327 115q195 0 313.5 -104.5t124.5 -284.5h-184q-6 107 -73 166t-181 59q-123 0 -194 -69.5t-71 -194.5v-309q0 -126 71 -196.5t194 -70.5z" />
    <glyph glyph-name="egrave" unicode="&#xe8;" 
d="M516 1608l225 -287h-194l-236 287h205zM1055 717v-199h-701v-108q0 -133 67 -204t193 -71q107 0 172 39t80 113h185q-19 -140 -138.5 -223.5t-298.5 -83.5q-200 0 -320 117.5t-120 312.5v307q0 195 120 312.5t320 117.5t320.5 -117.5t120.5 -312.5zM354 717v-60h520v60
q0 134 -67 205t-193 71t-193 -71t-67 -205z" />
    <glyph glyph-name="eacute" unicode="&#xe9;" 
d="M713 1608h198l-227 -287h-188zM1055 717v-199h-701v-108q0 -133 67 -204t193 -71q107 0 172 39t80 113h185q-19 -140 -138.5 -223.5t-298.5 -83.5q-200 0 -320 117.5t-120 312.5v307q0 195 120 312.5t320 117.5t320.5 -117.5t120.5 -312.5zM354 717v-60h520v60
q0 134 -67 205t-193 71t-193 -71t-67 -205z" />
    <glyph glyph-name="ecircumflex" unicode="&#xea;" 
d="M782 1321l-168 160l-163 -160h-207l284 287h170l287 -287h-203zM1055 717v-199h-701v-108q0 -133 67 -204t193 -71q107 0 172 39t80 113h185q-19 -140 -138.5 -223.5t-298.5 -83.5q-200 0 -320 117.5t-120 312.5v307q0 195 120 312.5t320 117.5t320.5 -117.5
t120.5 -312.5zM354 717v-60h520v60q0 134 -67 205t-193 71t-193 -71t-67 -205z" />
    <glyph glyph-name="edieresis" unicode="&#xeb;" 
d="M387 1329q-60 0 -95.5 34.5t-35.5 94.5q0 61 35.5 97t95.5 36t95.5 -36t35.5 -97q0 -60 -35.5 -94.5t-95.5 -34.5zM842 1329q-60 0 -95.5 34.5t-35.5 94.5q0 61 35.5 97t95.5 36t95.5 -36t35.5 -97q0 -60 -35.5 -94.5t-95.5 -34.5zM1055 717v-199h-701v-108
q0 -133 67 -204t193 -71q107 0 172 39t80 113h185q-19 -140 -138.5 -223.5t-298.5 -83.5q-200 0 -320 117.5t-120 312.5v307q0 195 120 312.5t320 117.5t320.5 -117.5t120.5 -312.5zM354 717v-60h520v60q0 134 -67 205t-193 71t-193 -71t-67 -205z" />
    <glyph glyph-name="igrave" unicode="&#xec;" horiz-adv-x="1024" 
d="M670 1321h-195l-235 287h204zM932 0h-758v168h297v790h-256v168h440v-958h277v-168z" />
    <glyph glyph-name="iacute" unicode="&#xed;" horiz-adv-x="1024" 
d="M612 1321h-188l217 287h199zM932 0h-758v168h297v790h-256v168h440v-958h277v-168z" />
    <glyph glyph-name="icircumflex" unicode="&#xee;" horiz-adv-x="1024" 
d="M379 1321h-207l285 287h170l286 -287h-202l-168 160zM932 0h-758v168h297v790h-256v168h440v-958h277v-168z" />
    <glyph glyph-name="idieresis" unicode="&#xef;" horiz-adv-x="1024" 
d="M315 1329q-60 0 -95.5 34.5t-35.5 94.5q0 61 35.5 97t95.5 36t95.5 -36t35.5 -97q0 -60 -35.5 -94.5t-95.5 -34.5zM770 1329q-60 0 -95.5 34.5t-35.5 94.5q0 61 35.5 97t95.5 36t95.5 -36t35.5 -97q0 -60 -35.5 -94.5t-95.5 -34.5zM932 0h-758v168h297v790h-256v168h440
v-958h277v-168z" />
    <glyph glyph-name="eth" unicode="&#xf0;" 
d="M612 -20q-211 0 -340 126.5t-129 333.5q0 204 118.5 328.5t313.5 124.5q81 0 143.5 -35.5t90.5 -79.5h29q-32 72 -131 205l-134 186l-333 -155v164l245 114l-147 203h213l90 -131l303 141v-164l-217 -100l160 -231q92 -132 145 -278t53 -275q0 -215 -129.5 -346
t-343.5 -131zM612 143q130 0 209.5 81.5t79.5 215.5t-79.5 215.5t-209.5 81.5q-128 0 -206 -82t-78 -215t78 -215t206 -82z" />
    <glyph glyph-name="ntilde" unicode="&#xf1;" 
d="M430 1403v-62h-133v62q0 91 50 142.5t134 51.5q45 0 82 -14.5t60.5 -35.5t44 -42.5t43 -36t47.5 -14.5q61 0 61 72v61h133v-61q0 -91 -50 -143t-134 -52q-45 0 -82 15t-60.5 36t-43.5 42t-42.5 36t-47.5 15q-29 0 -45.5 -18t-16.5 -54zM674 1147q169 0 269.5 -105
t100.5 -284v-758h-184v737q0 119 -64 184.5t-175 65.5q-117 0 -182.5 -70.5t-65.5 -199.5v-717h-185v1126h185v-215h2q13 112 91.5 174t207.5 62z" />
    <glyph glyph-name="ograve" unicode="&#xf2;" 
d="M741 1321h-194l-236 287h205zM614 -16q-204 0 -322 115.5t-118 314.5v299q0 199 118 314.5t322 115.5t322.5 -115t118.5 -313v-301q0 -199 -118.5 -314.5t-322.5 -115.5zM614 147q121 0 188.5 69t67.5 198v299q0 129 -67.5 197.5t-188.5 68.5t-188.5 -68.5t-67.5 -197.5
v-299q0 -129 67.5 -198t188.5 -69z" />
    <glyph glyph-name="oacute" unicode="&#xf3;" 
d="M684 1321h-188l217 287h198zM614 -16q-204 0 -322 115.5t-118 314.5v299q0 199 118 314.5t322 115.5t322.5 -115t118.5 -313v-301q0 -199 -118.5 -314.5t-322.5 -115.5zM614 147q121 0 188.5 69t67.5 198v299q0 129 -67.5 197.5t-188.5 68.5t-188.5 -68.5t-67.5 -197.5
v-299q0 -129 67.5 -198t188.5 -69z" />
    <glyph glyph-name="ocircumflex" unicode="&#xf4;" 
d="M451 1321h-207l284 287h170l287 -287h-203l-168 160zM614 -16q-204 0 -322 115.5t-118 314.5v299q0 199 118 314.5t322 115.5t322.5 -115t118.5 -313v-301q0 -199 -118.5 -314.5t-322.5 -115.5zM614 147q121 0 188.5 69t67.5 198v299q0 129 -67.5 197.5t-188.5 68.5
t-188.5 -68.5t-67.5 -197.5v-299q0 -129 67.5 -198t188.5 -69z" />
    <glyph glyph-name="otilde" unicode="&#xf5;" 
d="M758 1331q-45 0 -82 15t-60.5 36t-44 42t-43 36t-47.5 15q-61 0 -61 -72v-62h-133v62q0 91 50 142.5t134 51.5q45 0 82 -14.5t60.5 -35.5t44 -42.5t43 -36t47.5 -14.5q61 0 61 72v61h133v-61q0 -91 -50 -143t-134 -52zM614 -16q-204 0 -322 115.5t-118 314.5v299
q0 199 118 314.5t322 115.5t322.5 -115t118.5 -313v-301q0 -199 -118.5 -314.5t-322.5 -115.5zM614 147q121 0 188.5 69t67.5 198v299q0 129 -67.5 197.5t-188.5 68.5t-188.5 -68.5t-67.5 -197.5v-299q0 -129 67.5 -198t188.5 -69z" />
    <glyph glyph-name="odieresis" unicode="&#xf6;" 
d="M387 1329q-60 0 -95.5 34.5t-35.5 94.5q0 61 35.5 97t95.5 36t95.5 -36t35.5 -97q0 -60 -35.5 -94.5t-95.5 -34.5zM842 1329q-60 0 -95.5 34.5t-35.5 94.5q0 61 35.5 97t95.5 36t95.5 -36t35.5 -97q0 -60 -35.5 -94.5t-95.5 -34.5zM614 -16q-204 0 -322 115.5t-118 314.5
v299q0 199 118 314.5t322 115.5t322.5 -115t118.5 -313v-301q0 -199 -118.5 -314.5t-322.5 -115.5zM614 147q121 0 188.5 69t67.5 198v299q0 129 -67.5 197.5t-188.5 68.5t-188.5 -68.5t-67.5 -197.5v-299q0 -129 67.5 -198t188.5 -69z" />
    <glyph glyph-name="divide" unicode="&#xf7;" 
d="M614 942q-76 0 -123 42.5t-47 111.5t46.5 111t123.5 42t123.5 -42t46.5 -111t-47 -111.5t-123 -42.5zM1024 604h-819v154h819v-154zM614 113q-77 0 -123.5 42t-46.5 111t47 111.5t123 42.5t123 -42.5t47 -111.5t-46.5 -111t-123.5 -42z" />
    <glyph glyph-name="oslash" unicode="&#xf8;" 
d="M971 1208h186l-172 -241q64 -106 64 -248v-309q0 -200 -116.5 -315t-318.5 -115q-165 0 -274 77l-84 -118h-184l166 233q-58 103 -58 238v307q0 201 116.5 315.5t317.5 114.5q154 0 263 -70zM354 717v-307q0 -37 6 -64l418 590q-65 47 -164 47q-123 0 -191.5 -70
t-68.5 -196zM874 410v307q0 49 -8 82l-426 -600q65 -56 174 -56q123 0 191.5 70.5t68.5 196.5z" />
    <glyph glyph-name="ugrave" unicode="&#xf9;" 
d="M741 1321h-194l-236 287h205zM612 -20q-196 0 -312 116t-116 314v716h185v-716q0 -127 64.5 -198t178.5 -71q116 0 182 71t66 198v716h184v-716q0 -197 -118 -313.5t-314 -116.5z" />
    <glyph glyph-name="uacute" unicode="&#xfa;" 
d="M684 1321h-188l217 287h198zM612 -20q-196 0 -312 116t-116 314v716h185v-716q0 -127 64.5 -198t178.5 -71q116 0 182 71t66 198v716h184v-716q0 -197 -118 -313.5t-314 -116.5z" />
    <glyph glyph-name="ucircumflex" unicode="&#xfb;" 
d="M451 1321h-207l284 287h170l287 -287h-203l-168 160zM612 -20q-196 0 -312 116t-116 314v716h185v-716q0 -127 64.5 -198t178.5 -71q116 0 182 71t66 198v716h184v-716q0 -197 -118 -313.5t-314 -116.5z" />
    <glyph glyph-name="udieresis" unicode="&#xfc;" 
d="M387 1329q-60 0 -95.5 34.5t-35.5 94.5q0 61 35.5 97t95.5 36t95.5 -36t35.5 -97q0 -60 -35.5 -94.5t-95.5 -34.5zM842 1329q-60 0 -95.5 34.5t-35.5 94.5q0 61 35.5 97t95.5 36t95.5 -36t35.5 -97q0 -60 -35.5 -94.5t-95.5 -34.5zM612 -20q-196 0 -312 116t-116 314v716
h185v-716q0 -127 64.5 -198t178.5 -71q116 0 182 71t66 198v716h184v-716q0 -197 -118 -313.5t-314 -116.5z" />
    <glyph glyph-name="yacute" unicode="&#xfd;" 
d="M684 1321h-188l217 287h198zM559 -369h-192l165 439l-430 1056h201l275 -696q28 -72 49 -164q18 79 51 164l256 696h192z" />
    <glyph glyph-name="thorn" unicode="&#xfe;" 
d="M670 1147q171 0 272.5 -113t101.5 -307v-330q0 -192 -102 -304.5t-272 -112.5q-128 0 -210 62.5t-95 172.5h-3v-563h-184v1843h184v-328l-4 -256h7q15 109 97 172.5t208 63.5zM860 410v307q0 129 -67 199.5t-185 70.5q-115 0 -180.5 -71.5t-65.5 -198.5v-307
q0 -127 66 -199t180 -72q118 0 185 71t67 200z" />
    <glyph glyph-name="ydieresis" unicode="&#xff;" 
d="M387 1329q-60 0 -95.5 34.5t-35.5 94.5q0 61 35.5 97t95.5 36t95.5 -36t35.5 -97q0 -60 -35.5 -94.5t-95.5 -34.5zM842 1329q-60 0 -95.5 34.5t-35.5 94.5q0 61 35.5 97t95.5 36t95.5 -36t35.5 -97q0 -60 -35.5 -94.5t-95.5 -34.5zM559 -369h-192l165 439l-430 1056h201
l275 -696q28 -72 49 -164q18 79 51 164l256 696h192z" />
    <glyph glyph-name="Amacron" unicode="&#x100;" 
d="M942 1720h-655v154h655v-154zM291 0h-189l390 1495h247l387 -1495h-186l-98 397h-453zM541 1016l-115 -463h377l-115 461q-58 233 -74 334q-18 -114 -73 -332z" />
    <glyph glyph-name="amacron" unicode="&#x101;" 
d="M297 1526h655v-154h-655v154zM625 1147q193 0 306 -100.5t113 -272.5v-774h-180v215h-2q-12 -109 -105 -172t-241 -63q-178 0 -280.5 90t-102.5 247q0 156 102.5 247t276.5 91h348v113q0 103 -62.5 160t-172.5 57q-98 0 -166.5 -43.5t-83.5 -112.5h-185
q15 141 136.5 229.5t298.5 88.5zM561 125q131 0 215 65t84 168v160h-344q-92 0 -145.5 -51t-53.5 -139q0 -95 64.5 -149t179.5 -54z" />
    <glyph glyph-name="Abreve" unicode="&#x102;" 
d="M614 1649q-148 0 -237.5 81.5t-89.5 215.5h145q0 -80 49.5 -129.5t130.5 -49.5q83 0 134 49.5t51 129.5h145q0 -134 -90 -215.5t-238 -81.5zM291 0h-189l390 1495h247l387 -1495h-186l-98 397h-453zM541 1016l-115 -463h377l-115 461q-58 233 -74 334q-18 -114 -73 -332z
" />
    <glyph glyph-name="abreve" unicode="&#x103;" 
d="M625 1311q-148 0 -238 81.5t-90 215.5h145q0 -80 49.5 -129t131.5 -49q83 0 133.5 49t50.5 129h145q0 -134 -89.5 -215.5t-237.5 -81.5zM625 1147q193 0 306 -100.5t113 -272.5v-774h-180v215h-2q-12 -109 -105 -172t-241 -63q-178 0 -280.5 90t-102.5 247
q0 156 102.5 247t276.5 91h348v113q0 103 -62.5 160t-172.5 57q-98 0 -166.5 -43.5t-83.5 -112.5h-185q15 141 136.5 229.5t298.5 88.5zM561 125q131 0 215 65t84 168v160h-344q-92 0 -145.5 -51t-53.5 -139q0 -95 64.5 -149t179.5 -54z" />
    <glyph glyph-name="Aogonek" unicode="&#x104;" 
d="M1075 -293h123v-123h-160q-113 0 -181.5 53.5t-68.5 137.5q0 116 152 229l-98 393h-453l-98 -397h-189l390 1495h247l387 -1495h-34q-129 -109 -129 -190q0 -45 30.5 -74t81.5 -29zM541 1016l-115 -463h377l-115 461q-58 233 -74 334q-18 -114 -73 -332z" />
    <glyph glyph-name="aogonek" unicode="&#x105;" 
d="M1026 -293h123v-123h-160q-113 0 -181.5 53.5t-68.5 137.5q0 112 146 225h-21v215h-2q-12 -109 -105 -172t-241 -63q-178 0 -280.5 90t-102.5 247q0 156 102.5 247t276.5 91h348v113q0 103 -62.5 160t-172.5 57q-98 0 -166.5 -43.5t-83.5 -112.5h-185q15 141 136.5 229.5
t298.5 88.5q193 0 306 -100.5t113 -272.5v-774q-131 -108 -131 -190q0 -45 30.5 -74t82.5 -29zM561 125q131 0 215 65t84 168v160h-344q-92 0 -145.5 -51t-53.5 -139q0 -95 64.5 -149t179.5 -54z" />
    <glyph glyph-name="Cacute" unicode="&#x106;" 
d="M694 1659h-188l217 287h199zM623 -20q-205 0 -324 115t-119 315v675q0 200 119 315.5t324 115.5q201 0 319.5 -116.5t118.5 -314.5h-184q0 127 -66.5 196t-187.5 69q-122 0 -190 -69t-68 -194v-677q0 -127 68 -196t190 -69q121 0 187.5 69t66.5 196h184
q0 -198 -118.5 -314t-319.5 -116z" />
    <glyph glyph-name="cacute" unicode="&#x107;" 
d="M692 1321h-188l217 287h199zM623 -20q-205 0 -327 115t-122 315v307q0 200 122 315t327 115q195 0 313.5 -104.5t124.5 -284.5h-184q-6 107 -73 166t-181 59q-123 0 -194 -69.5t-71 -194.5v-309q0 -126 71 -196.5t194 -70.5q114 0 181 59.5t73 166.5h184
q-6 -180 -124.5 -284.5t-313.5 -104.5z" />
    <glyph glyph-name="Ccircumflex" unicode="&#x108;" 
d="M461 1659h-207l285 287h170l286 -287h-202l-168 160zM623 -20q-205 0 -324 115t-119 315v675q0 200 119 315.5t324 115.5q201 0 319.5 -116.5t118.5 -314.5h-184q0 127 -66.5 196t-187.5 69q-122 0 -190 -69t-68 -194v-677q0 -127 68 -196t190 -69q121 0 187.5 69
t66.5 196h184q0 -198 -118.5 -314t-319.5 -116z" />
    <glyph glyph-name="ccircumflex" unicode="&#x109;" 
d="M459 1321h-207l285 287h170l286 -287h-202l-168 160zM623 -20q-205 0 -327 115t-122 315v307q0 200 122 315t327 115q195 0 313.5 -104.5t124.5 -284.5h-184q-6 107 -73 166t-181 59q-123 0 -194 -69.5t-71 -194.5v-309q0 -126 71 -196.5t194 -70.5q114 0 181 59.5
t73 166.5h184q-6 -180 -124.5 -284.5t-313.5 -104.5z" />
    <glyph glyph-name="Cdotaccent" unicode="&#x10a;" 
d="M625 1671q-67 0 -106.5 35.5t-39.5 95.5t39.5 95.5t106.5 35.5t106 -35.5t39 -95.5t-39 -95.5t-106 -35.5zM623 -20q-205 0 -324 115t-119 315v675q0 200 119 315.5t324 115.5q201 0 319.5 -116.5t118.5 -314.5h-184q0 127 -66.5 196t-187.5 69q-122 0 -190 -69t-68 -194
v-677q0 -127 68 -196t190 -69q121 0 187.5 69t66.5 196h184q0 -198 -118.5 -314t-319.5 -116z" />
    <glyph glyph-name="cdotaccent" unicode="&#x10b;" 
d="M623 1329q-68 0 -107 34.5t-39 94.5q0 61 39 97t107 36q67 0 106 -35.5t39 -97.5q0 -60 -39 -94.5t-106 -34.5zM623 -20q-205 0 -327 115t-122 315v307q0 200 122 315t327 115q195 0 313.5 -104.5t124.5 -284.5h-184q-6 107 -73 166t-181 59q-123 0 -194 -69.5
t-71 -194.5v-309q0 -126 71 -196.5t194 -70.5q114 0 181 59.5t73 166.5h184q-6 -180 -124.5 -284.5t-313.5 -104.5z" />
    <glyph glyph-name="Ccaron" unicode="&#x10c;" 
d="M711 1659h-170l-287 287h203l168 -160l163 160h207zM623 -20q-205 0 -324 115t-119 315v675q0 200 119 315.5t324 115.5q201 0 319.5 -116.5t118.5 -314.5h-184q0 127 -66.5 196t-187.5 69q-122 0 -190 -69t-68 -194v-677q0 -127 68 -196t190 -69q121 0 187.5 69
t66.5 196h184q0 -198 -118.5 -314t-319.5 -116z" />
    <glyph glyph-name="ccaron" unicode="&#x10d;" 
d="M709 1321h-170l-287 287h203l168 -160l163 160h207zM623 -20q-205 0 -327 115t-122 315v307q0 200 122 315t327 115q195 0 313.5 -104.5t124.5 -284.5h-184q-6 107 -73 166t-181 59q-123 0 -194 -69.5t-71 -194.5v-309q0 -126 71 -196.5t194 -70.5q114 0 181 59.5
t73 166.5h184q-6 -180 -124.5 -284.5t-313.5 -104.5z" />
    <glyph glyph-name="Dcaron" unicode="&#x10e;" 
d="M700 1659h-170l-286 287h202l168 -160l164 160h207zM575 0h-387v1495h387q217 0 345.5 -122t128.5 -326v-596q0 -206 -128.5 -328.5t-345.5 -122.5zM373 1331v-1167h202q135 0 212 76t77 211v596q0 133 -77 208.5t-212 75.5h-202z" />
    <glyph glyph-name="dcaron" unicode="&#x10f;" 
d="M748 911l-5 256v328h185v-1495h-185v215h-2q-12 -109 -85 -172t-189 -63q-155 0 -246.5 110t-91.5 297v350q0 189 91.5 299.5t246.5 110.5q116 0 189 -63.5t85 -172.5h7zM1044 1126v369h185l-21 -369h-164zM743 399v328q0 123 -57 191.5t-158 68.5t-158 -68.5t-57 -191.5
v-328q0 -123 57 -191.5t158 -68.5t158 68.5t57 191.5z" />
    <glyph glyph-name="Dcroat" unicode="&#x110;" 
d="M188 1495h387q217 0 345.5 -122t128.5 -326v-596q0 -206 -128.5 -328.5t-345.5 -122.5h-387v686h-168v154h168v655zM864 451v596q0 133 -77 208.5t-212 75.5h-202v-491h221v-154h-221v-522h202q135 0 212 76t77 211z" />
    <glyph glyph-name="dcroat" unicode="&#x111;" 
d="M1036 1321h193v-154h-193v-1167h-184v215h-2q-13 -110 -93 -172.5t-208 -62.5q-169 0 -267 112t-98 305v207q0 195 97.5 307.5t267.5 112.5q126 0 206.5 -63.5t94.5 -172.5h6l-4 256v123h-340v154h340v174h184v-174zM852 410v184q0 127 -64 198.5t-178 71.5
q-117 0 -179 -69.5t-62 -200.5v-184q0 -131 62 -201t179 -70q114 0 178 71.5t64 199.5z" />
    <glyph glyph-name="Emacron" unicode="&#x112;" 
d="M983 1720h-655v154h655v-154zM1065 0h-860v1495h860v-168h-678v-463h606v-164h-606v-532h678v-168z" />
    <glyph glyph-name="emacron" unicode="&#x113;" 
d="M287 1526h655v-154h-655v154zM1055 717v-199h-701v-108q0 -133 67 -204t193 -71q107 0 172 39t80 113h185q-19 -140 -138.5 -223.5t-298.5 -83.5q-200 0 -320 117.5t-120 312.5v307q0 195 120 312.5t320 117.5t320.5 -117.5t120.5 -312.5zM354 717v-60h520v60
q0 134 -67 205t-193 71t-193 -71t-67 -205z" />
    <glyph glyph-name="Ebreve" unicode="&#x114;" 
d="M655 1649q-148 0 -237.5 81.5t-89.5 215.5h145q0 -80 49.5 -129.5t130.5 -49.5q83 0 134 49.5t51 129.5h145q0 -134 -90 -215.5t-238 -81.5zM1065 0h-860v1495h860v-168h-678v-463h606v-164h-606v-532h678v-168z" />
    <glyph glyph-name="ebreve" unicode="&#x115;" 
d="M614 1311q-148 0 -237.5 81.5t-89.5 215.5h145q0 -80 49.5 -129t130.5 -49q83 0 134 49t51 129h145q0 -134 -90 -215.5t-238 -81.5zM1055 717v-199h-701v-108q0 -133 67 -204t193 -71q107 0 172 39t80 113h185q-19 -140 -138.5 -223.5t-298.5 -83.5q-200 0 -320 117.5
t-120 312.5v307q0 195 120 312.5t320 117.5t320.5 -117.5t120.5 -312.5zM354 717v-60h520v60q0 134 -67 205t-193 71t-193 -71t-67 -205z" />
    <glyph glyph-name="Edotaccent" unicode="&#x116;" 
d="M655 1671q-67 0 -106 35.5t-39 95.5t39 95.5t106 35.5t106.5 -35.5t39.5 -95.5t-39.5 -95.5t-106.5 -35.5zM1065 0h-860v1495h860v-168h-678v-463h606v-164h-606v-532h678v-168z" />
    <glyph glyph-name="edotaccent" unicode="&#x117;" 
d="M614 1329q-67 0 -106 34.5t-39 94.5q0 62 39 97.5t106 35.5q68 0 107 -36t39 -97q0 -60 -39 -94.5t-107 -34.5zM1055 717v-199h-701v-108q0 -133 67 -204t193 -71q107 0 172 39t80 113h185q-19 -140 -138.5 -223.5t-298.5 -83.5q-200 0 -320 117.5t-120 312.5v307
q0 195 120 312.5t320 117.5t320.5 -117.5t120.5 -312.5zM354 717v-60h520v60q0 134 -67 205t-193 71t-193 -71t-67 -205z" />
    <glyph glyph-name="Eogonek" unicode="&#x118;" 
d="M952 -293h123v-123h-160q-113 0 -181 53.5t-68 137.5q0 113 145 225h-606v1495h860v-168h-678v-463h606v-164h-606v-532h678v-168h-96q-129 -109 -129 -190q0 -45 30.5 -74t81.5 -29z" />
    <glyph glyph-name="eogonek" unicode="&#x119;" 
d="M1049 717v-199h-689v-108q0 -134 64.5 -204.5t189.5 -70.5q216 0 246 152h184q-10 -86 -60.5 -152.5t-131.5 -105.5l-33 -27q-131 -108 -131 -192q0 -45 30.5 -74t82.5 -29h123v-123h-160q-113 0 -181.5 53.5t-68.5 137.5q0 96 121 205h-21q-199 0 -316.5 117t-117.5 313
v307q0 196 117.5 313t316.5 117t317 -117t118 -313zM360 717v-60h508v60q0 134 -64.5 205t-189.5 71t-189.5 -71t-64.5 -205z" />
    <glyph glyph-name="Ecaron" unicode="&#x11a;" 
d="M741 1659h-170l-286 287h202l168 -160l164 160h207zM1065 0h-860v1495h860v-168h-678v-463h606v-164h-606v-532h678v-168z" />
    <glyph glyph-name="ecaron" unicode="&#x11b;" 
d="M985 1608l-285 -287h-170l-286 287h202l168 -160l164 160h207zM1055 717v-199h-701v-108q0 -133 67 -204t193 -71q107 0 172 39t80 113h185q-19 -140 -138.5 -223.5t-298.5 -83.5q-200 0 -320 117.5t-120 312.5v307q0 195 120 312.5t320 117.5t320.5 -117.5t120.5 -312.5
zM354 717v-60h520v60q0 134 -67 205t-193 71t-193 -71t-67 -205z" />
    <glyph glyph-name="Gcircumflex" unicode="&#x11c;" 
d="M451 1659h-207l284 287h170l287 -287h-203l-168 160zM623 -20q-205 0 -324 115t-119 315v675q0 200 119 315.5t324 115.5q201 0 319.5 -116.5t118.5 -314.5h-184q0 127 -66.5 196t-187.5 69q-122 0 -190 -69t-68 -194v-677q0 -127 68 -197t190 -70q120 0 187 70t67 197
v184h-304v168h488v-352q0 -198 -118.5 -314t-319.5 -116z" />
    <glyph glyph-name="gcircumflex" unicode="&#x11d;" 
d="M776 1321l-168 160l-164 -160h-206l284 287h170l287 -287h-203zM856 911v215h182v-1167q0 -153 -93.5 -240.5t-258.5 -87.5h-356v168h358q86 0 126 39t40 121v143l4 205h-4q-10 -109 -90.5 -172t-208.5 -63q-173 0 -274 113t-101 307v237q0 192 101 305t274 113
q127 0 207.5 -63.5t91.5 -172.5h2zM856 502v215q0 127 -65.5 198.5t-180.5 71.5q-117 0 -181 -70t-64 -200v-215q0 -130 64 -200.5t181 -70.5q114 0 180 72t66 199z" />
    <glyph glyph-name="Gbreve" unicode="&#x11e;" 
d="M614 1649q-148 0 -237.5 81.5t-89.5 215.5h145q0 -80 49.5 -129.5t130.5 -49.5q83 0 134 49.5t51 129.5h145q0 -134 -90 -215.5t-238 -81.5zM623 -20q-205 0 -324 115t-119 315v675q0 200 119 315.5t324 115.5q201 0 319.5 -116.5t118.5 -314.5h-184q0 127 -66.5 196
t-187.5 69q-122 0 -190 -69t-68 -194v-677q0 -127 68 -197t190 -70q120 0 187 70t67 197v184h-304v168h488v-352q0 -198 -118.5 -314t-319.5 -116z" />
    <glyph glyph-name="gbreve" unicode="&#x11f;" 
d="M608 1311q-148 0 -237.5 81.5t-89.5 215.5h145q0 -80 49.5 -129t130.5 -49q83 0 134 49t51 129h145q0 -134 -90 -215.5t-238 -81.5zM856 911v215h182v-1167q0 -153 -93.5 -240.5t-258.5 -87.5h-356v168h358q86 0 126 39t40 121v143l4 205h-4q-10 -109 -90.5 -172
t-208.5 -63q-173 0 -274 113t-101 307v237q0 192 101 305t274 113q127 0 207.5 -63.5t91.5 -172.5h2zM856 502v215q0 127 -65.5 198.5t-180.5 71.5q-117 0 -181 -70t-64 -200v-215q0 -130 64 -200.5t181 -70.5q114 0 180 72t66 199z" />
    <glyph glyph-name="Gdotaccent" unicode="&#x120;" 
d="M614 1671q-67 0 -106 35.5t-39 95.5t39 95.5t106 35.5t106.5 -35.5t39.5 -95.5t-39.5 -95.5t-106.5 -35.5zM623 -20q-205 0 -324 115t-119 315v675q0 200 119 315.5t324 115.5q201 0 319.5 -116.5t118.5 -314.5h-184q0 127 -66.5 196t-187.5 69q-122 0 -190 -69t-68 -194
v-677q0 -127 68 -197t190 -70q120 0 187 70t67 197v184h-304v168h488v-352q0 -198 -118.5 -314t-319.5 -116z" />
    <glyph glyph-name="gdotaccent" unicode="&#x121;" 
d="M608 1329q-67 0 -106 34.5t-39 94.5q0 62 39 97.5t106 35.5q68 0 107 -36t39 -97q0 -60 -39 -94.5t-107 -34.5zM856 911v215h182v-1167q0 -153 -93.5 -240.5t-258.5 -87.5h-356v168h358q86 0 126 39t40 121v143l4 205h-4q-10 -109 -90.5 -172t-208.5 -63q-173 0 -274 113
t-101 307v237q0 192 101 305t274 113q127 0 207.5 -63.5t91.5 -172.5h2zM856 502v215q0 127 -65.5 198.5t-180.5 71.5q-117 0 -181 -70t-64 -200v-215q0 -130 64 -200.5t181 -70.5q114 0 180 72t66 199z" />
    <glyph glyph-name="uni0122" unicode="&#x122;" 
d="M623 -20q-205 0 -324 115t-119 315v675q0 200 119 315.5t324 115.5q201 0 319.5 -116.5t118.5 -314.5h-184q0 127 -66.5 196t-187.5 69q-122 0 -190 -69t-68 -194v-677q0 -127 68 -197t190 -70q120 0 187 70t67 197v184h-304v168h488v-352q0 -198 -118.5 -314
t-319.5 -116zM592 -492h-195l195 297h215z" />
    <glyph glyph-name="uni0123" unicode="&#x123;" 
d="M690 1802h154l-164 -481h-256zM856 911v215h182v-1167q0 -153 -93.5 -240.5t-258.5 -87.5h-356v168h358q86 0 126 39t40 121v143l4 205h-4q-10 -109 -90.5 -172t-208.5 -63q-173 0 -274 113t-101 307v237q0 192 101 305t274 113q127 0 207.5 -63.5t91.5 -172.5h2z
M856 502v215q0 127 -65.5 198.5t-180.5 71.5q-117 0 -181 -70t-64 -200v-215q0 -130 64 -200.5t181 -70.5q114 0 180 72t66 199z" />
    <glyph glyph-name="Hcircumflex" unicode="&#x124;" 
d="M451 1659h-207l284 287h170l287 -287h-203l-168 160zM375 0h-185v1495h185v-639h479v639h184v-1495h-184v688h-479v-688z" />
    <glyph glyph-name="hcircumflex" unicode="&#x125;" 
d="M678 1649h-203l-168 159l-164 -159h-206l284 286h170zM674 1147q169 0 269.5 -105t100.5 -284v-758h-184v737q0 119 -64 186.5t-175 67.5q-116 0 -182 -72t-66 -202v-717h-185v1495h185v-584h2q13 112 91.5 174t207.5 62z" />
    <glyph glyph-name="Hbar" unicode="&#x126;" 
d="M1038 1229h170v-154h-170v-1075h-184v688h-479v-688h-185v1075h-170v154h170v266h185v-266h479v266h184v-266zM375 856h479v219h-479v-219z" />
    <glyph glyph-name="hbar" unicode="&#x127;" 
d="M188 1167h-188v154h188v174h185v-174h344v-154h-344v-379h2q13 112 91.5 174t207.5 62q169 0 269.5 -105t100.5 -284v-635h-184v614q0 119 -64 186.5t-175 67.5q-116 0 -182 -72t-66 -202v-594h-185v1167z" />
    <glyph glyph-name="Itilde" unicode="&#x128;" 
d="M758 1669q-45 0 -82 14.5t-60.5 35.5t-44 42.5t-43 36t-47.5 14.5q-61 0 -61 -71v-62h-133v62q0 91 50 142.5t134 51.5q45 0 82 -14.5t60.5 -35.5t44 -42.5t43 -36t47.5 -14.5q61 0 61 72v61h133v-61q0 -91 -50 -143t-134 -52zM1014 0h-799v168h305v1159h-305v168h799
v-168h-305v-1159h305v-168z" />
    <glyph glyph-name="itilde" unicode="&#x129;" 
d="M686 1331q-45 0 -82 15t-60.5 36t-43.5 42t-42.5 36t-47.5 15q-29 0 -45.5 -18t-16.5 -54v-62h-133v62q0 91 50 142.5t134 51.5q45 0 82 -14.5t60.5 -35.5t44 -42.5t43 -36t47.5 -14.5q61 0 61 72v61h133v-61q0 -91 -50 -143t-134 -52zM932 0h-758v168h297v790h-256v168
h440v-958h277v-168z" />
    <glyph glyph-name="Imacron" unicode="&#x12a;" 
d="M942 1720h-655v154h655v-154zM1014 0h-799v168h305v1159h-305v168h799v-168h-305v-1159h305v-168z" />
    <glyph glyph-name="imacron" unicode="&#x12b;" horiz-adv-x="1024" 
d="M870 1372h-655v154h655v-154zM932 0h-758v168h297v790h-256v168h440v-958h277v-168z" />
    <glyph glyph-name="Ibreve" unicode="&#x12c;" 
d="M614 1649q-148 0 -237.5 81.5t-89.5 215.5h145q0 -80 49.5 -129.5t130.5 -49.5q83 0 134 49.5t51 129.5h145q0 -134 -90 -215.5t-238 -81.5zM1014 0h-799v168h305v1159h-305v168h799v-168h-305v-1159h305v-168z" />
    <glyph glyph-name="ibreve" unicode="&#x12d;" 
d="M543 1311q-148 0 -238 81.5t-90 215.5h145q0 -80 49.5 -129t131.5 -49q83 0 133.5 49t50.5 129h145q0 -134 -89.5 -215.5t-237.5 -81.5zM932 0h-758v168h297v790h-256v168h440v-958h277v-168z" />
    <glyph glyph-name="Iogonek" unicode="&#x12e;" 
d="M1014 1495v-168h-305v-1159h305v-168h-332q-129 -109 -129 -190q0 -45 30.5 -74t82.5 -29h122v-123h-159q-113 0 -181.5 53.5t-68.5 137.5q0 113 145 225h-309v168h305v1159h-305v168h799z" />
    <glyph glyph-name="iogonek" unicode="&#x12f;" horiz-adv-x="1024" 
d="M543 1329q-68 0 -107 34.5t-39 94.5q0 61 39 97t107 36q67 0 106 -35.5t39 -97.5q0 -60 -39 -94.5t-106 -34.5zM932 0h-301q-129 -109 -129 -190q0 -45 30.5 -74t81.5 -29h123v-123h-159q-113 0 -181.5 53.5t-68.5 137.5q0 113 145 225h-299v168h297v790h-256v168h440
v-958h277v-168z" />
    <glyph glyph-name="Idotaccent" unicode="&#x130;" 
d="M614 1671q-67 0 -106 35.5t-39 95.5t39 95.5t106 35.5t106.5 -35.5t39.5 -95.5t-39.5 -95.5t-106.5 -35.5zM1014 0h-799v168h305v1159h-305v168h799v-168h-305v-1159h305v-168z" />
    <glyph glyph-name="dotlessi" unicode="&#x131;" horiz-adv-x="1024" 
d="M932 0h-758v168h297v790h-256v168h440v-958h277v-168z" />
    <glyph glyph-name="Jcircumflex" unicode="&#x134;" 
d="M573 1659h-206l284 287h170l287 -287h-203l-168 160zM553 -20q-215 0 -338 120.5t-123 329.5h184q0 -136 73 -211.5t204 -75.5t203.5 75.5t72.5 211.5v897h-419v168h604v-1065q0 -209 -123.5 -329.5t-337.5 -120.5z" />
    <glyph glyph-name="jcircumflex" unicode="&#x135;" horiz-adv-x="819" 
d="M227 1321h-207l285 287h170l287 -287h-203l-168 160zM178 -369h-131v170h131q128 0 198 68t70 194v895h-337v168h522v-1063q0 -198 -123 -315t-330 -117z" />
    <glyph glyph-name="uni0136" unicode="&#x136;" 
d="M373 0h-185v1495h185v-641h221l332 641h200l-370 -719l391 -776h-211l-348 692h-215v-692zM584 -492h-195l195 297h215z" />
    <glyph glyph-name="uni0137" unicode="&#x137;" 
d="M379 0h-184v1495h184v-833h217l328 464h211l-379 -536l385 -590h-215l-328 502h-219v-502zM584 -492h-195l195 297h215z" />
    <glyph glyph-name="kgreenlandic" unicode="&#x138;" 
d="M379 0h-184v1126h184v-464h217l328 464h211l-379 -536l385 -590h-215l-328 502h-219v-502z" />
    <glyph glyph-name="Lacute" unicode="&#x139;" 
d="M428 1659h-188l217 287h198zM1126 0h-860v1495h185v-1327h675v-168z" />
    <glyph glyph-name="lacute" unicode="&#x13a;" horiz-adv-x="819" 
d="M397 1659h-188l217 287h199zM762 0h-174q-149 0 -238.5 86t-89.5 231v1010h-235v168h419v-1178q0 -69 39 -109t105 -40h174v-168z" />
    <glyph glyph-name="uni013B" unicode="&#x13b;" 
d="M1126 0h-860v1495h185v-1327h675v-168zM666 -492h-195l195 297h215z" />
    <glyph glyph-name="uni013C" unicode="&#x13c;" horiz-adv-x="819" 
d="M762 0h-174q-149 0 -238.5 86t-89.5 231v1010h-235v168h419v-1178q0 -69 39 -109t105 -40h174v-168zM420 -492h-195l195 297h215z" />
    <glyph glyph-name="Lcaron" unicode="&#x13d;" 
d="M1382 1495h-153l20 369h174zM1126 0h-860v1495h185v-1327h675v-168z" />
    <glyph glyph-name="lcaron" unicode="&#x13e;" horiz-adv-x="819" 
d="M721 1495h-154l21 369h174zM762 0h-174q-149 0 -238.5 86t-89.5 231v1010h-235v168h419v-1178q0 -69 39 -109t105 -40h174v-168z" />
    <glyph glyph-name="Ldot" unicode="&#x13f;" 
d="M1126 0h-860v1495h185v-1327h675v-168zM707 543q-78 0 -124 45t-46 121q0 80 46 127t124 47t124 -47t46 -127q0 -76 -46 -121t-124 -45z" />
    <glyph glyph-name="ldot" unicode="&#x140;" 
d="M721 0h-174q-149 0 -238.5 86t-89.5 231v1010h-235v168h419v-1178q0 -69 39 -109t105 -40h174v-168zM915 543q-78 0 -124 45t-46 121q0 80 46 127t124 47t124 -47t46 -127q0 -76 -46 -121t-124 -45z" />
    <glyph glyph-name="Lslash" unicode="&#x141;" 
d="M451 748v-580h675v-168h-860v623l-225 -152v164l225 151v709h185v-584l348 236v-164z" />
    <glyph glyph-name="lslash" unicode="&#x142;" horiz-adv-x="819" 
d="M588 168h174v-168h-174q-149 0 -238.5 86t-89.5 231v304l-221 -150v164l221 149v543h-235v168h419v-586l230 156v-164l-230 -156v-428q0 -69 39 -109t105 -40z" />
    <glyph glyph-name="Nacute" unicode="&#x143;" 
d="M684 1659h-188l217 287h198zM362 0h-178v1495h246l457 -1280q-21 263 -21 440v840h178v-1495h-245l-455 1280q18 -225 18 -440v-840z" />
    <glyph glyph-name="nacute" unicode="&#x144;" 
d="M723 1608h199l-228 -287h-188zM674 1147q169 0 269.5 -105t100.5 -284v-758h-184v737q0 119 -64 184.5t-175 65.5q-117 0 -182.5 -70.5t-65.5 -199.5v-717h-185v1126h185v-215h2q13 112 91.5 174t207.5 62z" />
    <glyph glyph-name="uni0145" unicode="&#x145;" 
d="M362 0h-178v1495h246l457 -1280q-21 263 -21 440v840h178v-1495h-245l-455 1280q18 -225 18 -440v-840zM584 -492h-195l195 297h215z" />
    <glyph glyph-name="uni0146" unicode="&#x146;" 
d="M674 1147q169 0 269.5 -105t100.5 -284v-758h-184v737q0 119 -64 184.5t-175 65.5q-117 0 -182.5 -70.5t-65.5 -199.5v-717h-185v1126h185v-215h2q13 112 91.5 174t207.5 62zM584 -492h-195l195 297h215z" />
    <glyph glyph-name="Ncaron" unicode="&#x147;" 
d="M700 1659h-170l-286 287h202l168 -160l164 160h207zM362 0h-178v1495h246l457 -1280q-21 263 -21 440v840h178v-1495h-245l-455 1280q18 -225 18 -440v-840z" />
    <glyph glyph-name="ncaron" unicode="&#x148;" 
d="M995 1608l-284 -287h-170l-287 287h203l168 -160l163 160h207zM674 1147q169 0 269.5 -105t100.5 -284v-758h-184v737q0 119 -64 184.5t-175 65.5q-117 0 -182.5 -70.5t-65.5 -199.5v-717h-185v1126h185v-215h2q13 112 91.5 174t207.5 62z" />
    <glyph glyph-name="napostrophe" unicode="&#x149;" 
d="M-20 1321l194 297h215l-215 -297h-194zM674 1147q169 0 269.5 -105t100.5 -284v-758h-184v737q0 119 -64 184.5t-175 65.5q-117 0 -182.5 -70.5t-65.5 -199.5v-717h-185v1126h185v-215h2q13 112 91.5 174t207.5 62z" />
    <glyph glyph-name="Eng" unicode="&#x14a;" 
d="M625 -369h-133v168h133q109 0 172 62.5t63 169.5l-516 1249q18 -225 18 -440v-840h-178v1495h246l457 -1124q-21 268 -21 442v682h178v-1464q0 -182 -114.5 -291t-304.5 -109z" />
    <glyph glyph-name="eng" unicode="&#x14b;" 
d="M674 1147q169 0 267.5 -104.5t98.5 -284.5v-727q0 -182 -114.5 -291t-304.5 -109h-129v168h129q109 0 172 62.5t63 169.5v706q0 120 -62.5 187t-172.5 67q-116 0 -180 -72t-64 -202v-717h-184v1126h184v-215h2q12 113 89 174.5t206 61.5z" />
    <glyph glyph-name="Omacron" unicode="&#x14c;" 
d="M942 1720h-655v154h655v-154zM614 -20q-201 0 -317.5 114.5t-116.5 315.5v675q0 201 116.5 316t317.5 115t318 -115t117 -314v-677q0 -200 -116.5 -315t-318.5 -115zM614 145q120 0 185 69t65 196v675q0 127 -65 196t-185 69t-184.5 -68.5t-64.5 -196.5v-675
q0 -128 64.5 -196.5t184.5 -68.5z" />
    <glyph glyph-name="omacron" unicode="&#x14d;" 
d="M942 1372h-655v154h655v-154zM614 -16q-204 0 -322 115.5t-118 314.5v299q0 199 118 314.5t322 115.5t322.5 -115t118.5 -313v-301q0 -199 -118.5 -314.5t-322.5 -115.5zM614 147q121 0 188.5 69t67.5 198v299q0 129 -67.5 197.5t-188.5 68.5t-188.5 -68.5t-67.5 -197.5
v-299q0 -129 67.5 -198t188.5 -69z" />
    <glyph glyph-name="Obreve" unicode="&#x14e;" 
d="M614 1649q-148 0 -237.5 81.5t-89.5 215.5h145q0 -80 49.5 -129.5t130.5 -49.5q83 0 134 49.5t51 129.5h145q0 -134 -90 -215.5t-238 -81.5zM614 -20q-201 0 -317.5 114.5t-116.5 315.5v675q0 201 116.5 316t317.5 115t318 -115t117 -314v-677q0 -200 -116.5 -315
t-318.5 -115zM614 145q120 0 185 69t65 196v675q0 127 -65 196t-185 69t-184.5 -68.5t-64.5 -196.5v-675q0 -128 64.5 -196.5t184.5 -68.5z" />
    <glyph glyph-name="obreve" unicode="&#x14f;" 
d="M614 1311q-148 0 -237.5 81.5t-89.5 215.5h145q0 -80 49.5 -129t130.5 -49q83 0 134 49t51 129h145q0 -134 -90 -215.5t-238 -81.5zM614 -16q-204 0 -322 115.5t-118 314.5v299q0 199 118 314.5t322 115.5t322.5 -115t118.5 -313v-301q0 -199 -118.5 -314.5
t-322.5 -115.5zM614 147q121 0 188.5 69t67.5 198v299q0 129 -67.5 197.5t-188.5 68.5t-188.5 -68.5t-67.5 -197.5v-299q0 -129 67.5 -198t188.5 -69z" />
    <glyph glyph-name="Ohungarumlaut" unicode="&#x150;" 
d="M479 1659h-178l225 287h189zM846 1659h-178l225 287h188zM614 -20q-201 0 -317.5 114.5t-116.5 315.5v675q0 201 116.5 316t317.5 115t318 -115t117 -314v-677q0 -200 -116.5 -315t-318.5 -115zM614 145q120 0 185 69t65 196v675q0 127 -65 196t-185 69t-184.5 -68.5
t-64.5 -196.5v-675q0 -128 64.5 -196.5t184.5 -68.5z" />
    <glyph glyph-name="ohungarumlaut" unicode="&#x151;" 
d="M479 1321h-178l225 287h189zM846 1321h-178l225 287h188zM614 -16q-204 0 -322 115.5t-118 314.5v299q0 199 118 314.5t322 115.5t322.5 -115t118.5 -313v-301q0 -199 -118.5 -314.5t-322.5 -115.5zM614 147q121 0 188.5 69t67.5 198v299q0 129 -67.5 197.5t-188.5 68.5
t-188.5 -68.5t-67.5 -197.5v-299q0 -129 67.5 -198t188.5 -69z" />
    <glyph glyph-name="OE" unicode="&#x152;" 
d="M399 -20q-147 0 -232 104.5t-85 284.5v757q0 180 85 285t232 105q97 0 156 -57.5t70 -127.5h10v164h543v-168h-363v-471h311v-168h-311v-520h363v-168h-543v164h-10q-10 -70 -69.5 -127t-156.5 -57zM451 143q86 0 135 60.5t49 165.5v757q0 105 -49 165.5t-135 60.5
t-135.5 -60.5t-49.5 -165.5v-757q0 -105 49.5 -165.5t135.5 -60.5z" />
    <glyph glyph-name="oe" unicode="&#x153;" 
d="M369 -20q-137 0 -217 88t-80 239v512q0 151 80 239.5t217 88.5q112 0 174 -51t67 -113h8q5 62 67.5 113t174.5 51q137 0 217 -88.5t80 -239.5v-307h-455v-205q0 -78 37.5 -124t100.5 -46q53 0 90.5 32.5t46.5 86.5h174q-20 -127 -98.5 -201.5t-192.5 -74.5
q-112 0 -174.5 50.5t-67.5 112.5h-8q-5 -62 -67 -112.5t-174 -50.5zM389 137q63 0 100 46t37 124v512q0 78 -37 124t-100 46q-66 0 -104.5 -46t-38.5 -124v-512q0 -78 38.5 -124t104.5 -46zM702 819v-157h281v157q0 78 -38.5 124t-104.5 46q-63 0 -100.5 -46t-37.5 -124z
" />
    <glyph glyph-name="Racute" unicode="&#x154;" 
d="M684 1659h-188l217 287h198zM373 0h-185v1495h463q199 0 322 -119t123 -311q0 -151 -78.5 -259.5t-214.5 -150.5l313 -655h-217l-287 635h-239v-635zM373 1329v-528h278q115 0 184.5 72t69.5 192t-70 192t-184 72h-278z" />
    <glyph glyph-name="racute" unicode="&#x155;" 
d="M754 1608h198l-227 -287h-188zM709 1147q175 0 280 -112t105 -302v-78h-185v62q0 130 -66 200t-190 70q-120 0 -182.5 -68.5t-62.5 -201.5v-717h-185v1126h185v-215h2q13 112 91.5 174t207.5 62z" />
    <glyph glyph-name="uni0156" unicode="&#x156;" 
d="M373 0h-185v1495h463q199 0 322 -119t123 -311q0 -151 -78.5 -259.5t-214.5 -150.5l313 -655h-217l-287 635h-239v-635zM373 1329v-528h278q115 0 184.5 72t69.5 192t-70 192t-184 72h-278zM584 -492h-195l195 297h215z" />
    <glyph glyph-name="uni0157" unicode="&#x157;" 
d="M709 1147q175 0 280 -112t105 -302v-78h-185v62q0 130 -66 200t-190 70q-120 0 -182.5 -68.5t-62.5 -201.5v-717h-185v1126h185v-215h2q13 112 91.5 174t207.5 62zM266 -492h-194l194 297h215z" />
    <glyph glyph-name="Rcaron" unicode="&#x158;" 
d="M700 1659h-170l-286 287h202l168 -160l164 160h207zM373 0h-185v1495h463q199 0 322 -119t123 -311q0 -151 -78.5 -259.5t-214.5 -150.5l313 -655h-217l-287 635h-239v-635zM373 1329v-528h278q115 0 184.5 72t69.5 192t-70 192t-184 72h-278z" />
    <glyph glyph-name="rcaron" unicode="&#x159;" 
d="M1026 1608l-285 -287h-170l-286 287h202l168 -160l164 160h207zM709 1147q175 0 280 -112t105 -302v-78h-185v62q0 130 -66 200t-190 70q-120 0 -182.5 -68.5t-62.5 -201.5v-717h-185v1126h185v-215h2q13 112 91.5 174t207.5 62z" />
    <glyph glyph-name="Sacute" unicode="&#x15a;" 
d="M684 1659h-188l217 287h198zM623 -20q-217 0 -346.5 112t-129.5 301h185q0 -113 79.5 -181.5t211.5 -68.5q127 0 202.5 68.5t75.5 181.5q0 88 -46.5 154.5t-125.5 91.5l-221 70q-151 47 -235.5 154.5t-84.5 252.5q0 183 119.5 291.5t319.5 108.5q198 0 317 -108.5
t119 -291.5h-184q0 107 -68.5 171.5t-183.5 64.5q-117 0 -187.5 -64t-70.5 -168q0 -83 46 -142t130 -85l229 -74q142 -46 224.5 -160t82.5 -266q0 -189 -124.5 -301t-333.5 -112z" />
    <glyph glyph-name="sacute" unicode="&#x15b;" 
d="M684 1321h-188l217 287h198zM666 -16h-86q-176 0 -286 81t-110 218h189q0 -63 59 -99.5t152 -36.5h86q106 0 160.5 43t54.5 119q0 139 -195 170l-151 25q-167 28 -247.5 106.5t-80.5 214.5q0 154 99.5 236t285.5 82h78q172 0 275.5 -77t103.5 -204h-189q0 54 -52.5 85.5
t-141.5 31.5h-78q-97 0 -149 -40t-52 -114q0 -124 174 -151l152 -25q183 -29 265.5 -107t82.5 -225q0 -159 -101 -246t-298 -87z" />
    <glyph glyph-name="Scircumflex" unicode="&#x15c;" 
d="M451 1659h-207l284 287h170l287 -287h-203l-168 160zM623 -20q-217 0 -346.5 112t-129.5 301h185q0 -113 79.5 -181.5t211.5 -68.5q127 0 202.5 68.5t75.5 181.5q0 88 -46.5 154.5t-125.5 91.5l-221 70q-151 47 -235.5 154.5t-84.5 252.5q0 183 119.5 291.5t319.5 108.5
q198 0 317 -108.5t119 -291.5h-184q0 107 -68.5 171.5t-183.5 64.5q-117 0 -187.5 -64t-70.5 -168q0 -83 46 -142t130 -85l229 -74q142 -46 224.5 -160t82.5 -266q0 -189 -124.5 -301t-333.5 -112z" />
    <glyph glyph-name="scircumflex" unicode="&#x15d;" 
d="M451 1321h-207l284 287h170l287 -287h-203l-168 160zM666 -16h-86q-176 0 -286 81t-110 218h189q0 -63 59 -99.5t152 -36.5h86q106 0 160.5 43t54.5 119q0 139 -195 170l-151 25q-167 28 -247.5 106.5t-80.5 214.5q0 154 99.5 236t285.5 82h78q172 0 275.5 -77
t103.5 -204h-189q0 54 -52.5 85.5t-141.5 31.5h-78q-97 0 -149 -40t-52 -114q0 -124 174 -151l152 -25q183 -29 265.5 -107t82.5 -225q0 -159 -101 -246t-298 -87z" />
    <glyph glyph-name="Scedilla" unicode="&#x15e;" 
d="M623 -20h-11l-18 -52q58 -7 111.5 -26.5t94 -58.5t40.5 -89q0 -72 -69 -121t-177 -49h-174v113h143q43 0 72 22.5t29 51.5q0 37 -58 62.5t-157 25.5l49 131q-164 31 -257.5 137.5t-93.5 265.5h185q0 -113 79.5 -181.5t211.5 -68.5q127 0 202.5 68.5t75.5 181.5
q0 88 -46.5 154.5t-125.5 91.5l-221 70q-151 47 -235.5 154.5t-84.5 252.5q0 183 119.5 291.5t319.5 108.5q198 0 317 -108.5t119 -291.5h-184q0 107 -68.5 171.5t-183.5 64.5q-117 0 -187.5 -64t-70.5 -168q0 -83 46 -142t130 -85l229 -74q142 -46 224.5 -160t82.5 -266
q0 -189 -124.5 -301t-333.5 -112z" />
    <glyph glyph-name="scedilla" unicode="&#x15f;" 
d="M666 -16h-33l-19 -56q58 -7 111.5 -26.5t94 -58.5t40.5 -89q0 -72 -69 -121t-177 -49h-174v113h144q43 0 71.5 22.5t28.5 51.5q0 37 -58 62.5t-157 25.5l47 127q-150 15 -241 94t-91 203h189q0 -63 59 -99.5t152 -36.5h86q106 0 160.5 43t54.5 119q0 139 -195 170
l-151 25q-167 28 -247.5 106.5t-80.5 214.5q0 154 99.5 236t285.5 82h78q172 0 275.5 -77t103.5 -204h-189q0 54 -52.5 85.5t-141.5 31.5h-78q-97 0 -149 -40t-52 -114q0 -124 174 -151l152 -25q183 -29 265.5 -107t82.5 -225q0 -159 -101 -246t-298 -87z" />
    <glyph glyph-name="Scaron" unicode="&#x160;" 
d="M700 1659h-170l-286 287h202l168 -160l164 160h207zM623 -20q-217 0 -346.5 112t-129.5 301h185q0 -113 79.5 -181.5t211.5 -68.5q127 0 202.5 68.5t75.5 181.5q0 88 -46.5 154.5t-125.5 91.5l-221 70q-151 47 -235.5 154.5t-84.5 252.5q0 183 119.5 291.5t319.5 108.5
q198 0 317 -108.5t119 -291.5h-184q0 107 -68.5 171.5t-183.5 64.5q-117 0 -187.5 -64t-70.5 -168q0 -83 46 -142t130 -85l229 -74q142 -46 224.5 -160t82.5 -266q0 -189 -124.5 -301t-333.5 -112z" />
    <glyph glyph-name="scaron" unicode="&#x161;" 
d="M700 1321h-170l-286 287h202l168 -160l164 160h207zM666 -16h-86q-176 0 -286 81t-110 218h189q0 -63 59 -99.5t152 -36.5h86q106 0 160.5 43t54.5 119q0 139 -195 170l-151 25q-167 28 -247.5 106.5t-80.5 214.5q0 154 99.5 236t285.5 82h78q172 0 275.5 -77t103.5 -204
h-189q0 54 -52.5 85.5t-141.5 31.5h-78q-97 0 -149 -40t-52 -114q0 -124 174 -151l152 -25q183 -29 265.5 -107t82.5 -225q0 -159 -101 -246t-298 -87z" />
    <glyph glyph-name="uni0162" unicode="&#x162;" 
d="M1116 1327h-409v-1327l-25 -72q58 -7 111.5 -26.5t94 -58.5t40.5 -89q0 -72 -69 -121t-177 -49h-174v113h143q43 0 72 22.5t29 51.5q0 37 -58 62.5t-157 25.5l51 141h-66v1327h-409v168h1003v-168z" />
    <glyph glyph-name="uni0163" unicode="&#x163;" horiz-adv-x="1024" 
d="M684 0l-25 -72q58 -7 111.5 -26.5t94 -58.5t40.5 -89q0 -72 -69 -121t-177 -49h-174v113h144q43 0 71.5 22.5t28.5 51.5q0 37 -58 62.5t-157 25.5l53 145q-115 17 -181.5 95.5t-66.5 197.5v661h-256v168h256v318h185v-318h368v-168h-368v-661q0 -58 33.5 -93.5
t89.5 -35.5h225v-168h-168z" />
    <glyph glyph-name="Tcaron" unicode="&#x164;" 
d="M700 1659h-170l-286 287h202l168 -160l164 160h207zM707 0h-185v1327h-409v168h1003v-168h-409v-1327z" />
    <glyph glyph-name="tcaron" unicode="&#x165;" horiz-adv-x="1024" 
d="M926 1270h-164l184 319h184zM852 0h-225q-140 0 -224 81t-84 216v661h-256v168h256v318h185v-318h368v-168h-368v-661q0 -58 33.5 -93.5t89.5 -35.5h225v-168z" />
    <glyph glyph-name="Tbar" unicode="&#x166;" 
d="M1116 1495v-168h-409v-569h297v-154h-297v-604h-185v604h-297v154h297v569h-409v168h1003z" />
    <glyph glyph-name="tbar" unicode="&#x167;" horiz-adv-x="1024" 
d="M872 1126v-168h-368v-315h264v-154h-264v-192q0 -58 33.5 -93.5t89.5 -35.5h225v-168h-225q-140 0 -224 81t-84 216v192h-247v154h247v315h-256v168h256v318h185v-318h368z" />
    <glyph glyph-name="Utilde" unicode="&#x168;" 
d="M758 1669q-45 0 -82 14.5t-60.5 35.5t-44 42.5t-43 36t-47.5 14.5q-61 0 -61 -71v-62h-133v62q0 91 50 142.5t134 51.5q45 0 82 -14.5t60.5 -35.5t44 -42.5t43 -36t47.5 -14.5q61 0 61 72v61h133v-61q0 -91 -50 -143t-134 -52zM614 -20q-207 0 -318.5 114t-111.5 316
v1085h185v-1085q0 -126 61.5 -196.5t183.5 -70.5q121 0 183.5 70.5t62.5 196.5v1085h184v-1085q0 -203 -111 -316.5t-319 -113.5z" />
    <glyph glyph-name="utilde" unicode="&#x169;" 
d="M758 1331q-45 0 -82 15t-60.5 36t-44 42t-43 36t-47.5 15q-61 0 -61 -72v-62h-133v62q0 91 50 142.5t134 51.5q45 0 82 -14.5t60.5 -35.5t44 -42.5t43 -36t47.5 -14.5q61 0 61 72v61h133v-61q0 -91 -50 -143t-134 -52zM612 -20q-196 0 -312 116t-116 314v716h185v-716
q0 -127 64.5 -198t178.5 -71q116 0 182 71t66 198v716h184v-716q0 -197 -118 -313.5t-314 -116.5z" />
    <glyph glyph-name="Umacron" unicode="&#x16a;" 
d="M942 1720h-655v154h655v-154zM614 -20q-207 0 -318.5 114t-111.5 316v1085h185v-1085q0 -126 61.5 -196.5t183.5 -70.5q121 0 183.5 70.5t62.5 196.5v1085h184v-1085q0 -203 -111 -316.5t-319 -113.5z" />
    <glyph glyph-name="umacron" unicode="&#x16b;" 
d="M942 1372h-655v154h655v-154zM612 -20q-196 0 -312 116t-116 314v716h185v-716q0 -127 64.5 -198t178.5 -71q116 0 182 71t66 198v716h184v-716q0 -197 -118 -313.5t-314 -116.5z" />
    <glyph glyph-name="Ubreve" unicode="&#x16c;" 
d="M614 1649q-148 0 -237.5 81.5t-89.5 215.5h145q0 -80 49.5 -129.5t130.5 -49.5q83 0 134 49.5t51 129.5h145q0 -134 -90 -215.5t-238 -81.5zM614 -20q-207 0 -318.5 114t-111.5 316v1085h185v-1085q0 -126 61.5 -196.5t183.5 -70.5q121 0 183.5 70.5t62.5 196.5v1085h184
v-1085q0 -203 -111 -316.5t-319 -113.5z" />
    <glyph glyph-name="ubreve" unicode="&#x16d;" 
d="M614 1311q-148 0 -237.5 81.5t-89.5 215.5h145q0 -80 49.5 -129t130.5 -49q83 0 134 49t51 129h145q0 -134 -90 -215.5t-238 -81.5zM612 -20q-196 0 -312 116t-116 314v716h185v-716q0 -127 64.5 -198t178.5 -71q116 0 182 71t66 198v716h184v-716q0 -197 -118 -313.5
t-314 -116.5z" />
    <glyph glyph-name="Uring" unicode="&#x16e;" 
d="M614 1569q-110 0 -177.5 64.5t-67.5 168.5t67.5 169t177.5 65t178 -65t68 -169t-68 -168.5t-178 -64.5zM614 1677q56 0 89.5 34t33.5 91t-34 92t-89 35t-88.5 -35t-33.5 -92t33 -91t89 -34zM614 -20q-207 0 -318.5 114t-111.5 316v1085h185v-1085q0 -126 61.5 -196.5
t183.5 -70.5q121 0 183.5 70.5t62.5 196.5v1085h184v-1085q0 -203 -111 -316.5t-319 -113.5z" />
    <glyph glyph-name="uring" unicode="&#x16f;" 
d="M614 1245q-110 0 -177.5 64.5t-67.5 169.5q0 104 67.5 168.5t177.5 64.5t178 -64.5t68 -168.5t-68 -169t-178 -65zM614 1354q56 0 89.5 34t33.5 91t-34 92t-89 35t-88.5 -35t-33.5 -92t33 -91t89 -34zM612 -20q-196 0 -312 116t-116 314v716h185v-716q0 -127 64.5 -198
t178.5 -71q116 0 182 71t66 198v716h184v-716q0 -197 -118 -313.5t-314 -116.5z" />
    <glyph glyph-name="Uhungarumlaut" unicode="&#x170;" 
d="M479 1659h-178l225 287h189zM846 1659h-178l225 287h188zM614 -20q-207 0 -318.5 114t-111.5 316v1085h185v-1085q0 -126 61.5 -196.5t183.5 -70.5q121 0 183.5 70.5t62.5 196.5v1085h184v-1085q0 -203 -111 -316.5t-319 -113.5z" />
    <glyph glyph-name="uhungarumlaut" unicode="&#x171;" 
d="M479 1321h-178l225 287h189zM846 1321h-178l225 287h188zM612 -20q-196 0 -312 116t-116 314v716h185v-716q0 -127 64.5 -198t178.5 -71q116 0 182 71t66 198v716h184v-716q0 -197 -118 -313.5t-314 -116.5z" />
    <glyph glyph-name="Uogonek" unicode="&#x172;" 
d="M936 -416h-160q-113 0 -181.5 53.5t-68.5 137.5q0 93 115 205h-27q-201 0 -315.5 114.5t-114.5 315.5v1085h185v-1085q0 -128 63 -196.5t182 -68.5q120 0 183 68.5t63 196.5v1085h184v-1085q0 -248 -163 -359l-60 -49q-121 -102 -121 -192q0 -45 30.5 -74t82.5 -29h123
v-123z" />
    <glyph glyph-name="uogonek" unicode="&#x173;" 
d="M922 -416h-160q-113 0 -181.5 53.5t-68.5 137.5q0 97 121 205h-19q-201 0 -315.5 114.5t-114.5 315.5v716h185v-716q0 -131 62.5 -199t182.5 -68t183 68.5t63 198.5v716h184v-716q0 -261 -178 -367l-49 -41q-131 -108 -131 -192q0 -45 30.5 -74t82.5 -29h123v-123z" />
    <glyph glyph-name="Wcircumflex" unicode="&#x174;" 
d="M451 1659h-207l284 287h170l287 -287h-203l-168 160zM455 0h-232l-172 1495h176l113 -1106q15 -168 18 -256q27 254 27 256l139 1106h191l127 -1106l28 -256q9 133 23 256l117 1106h168l-177 -1495h-231l-127 1126q-22 200 -25 240q-3 -22 -7 -59.5t-9.5 -92.5t-9.5 -88z
" />
    <glyph glyph-name="wcircumflex" unicode="&#x175;" 
d="M451 1321h-207l284 287h170l287 -287h-203l-168 160zM455 0h-203l-180 1126h159l113 -798q13 -98 21 -185h8q8 91 24 185l125 798h185l124 -798q19 -117 25 -185h8l25 185l117 798h151l-188 -1126h-203l-121 778q-25 156 -29 205h-8q-8 -92 -26 -205z" />
    <glyph glyph-name="Ycircumflex" unicode="&#x176;" 
d="M451 1659h-207l284 287h170l287 -287h-203l-168 160zM707 0h-185v559l-450 936h190l297 -614q39 -81 57 -140q13 43 60 140l291 614h190l-450 -936v-559z" />
    <glyph glyph-name="ycircumflex" unicode="&#x177;" 
d="M451 1321h-207l284 287h170l287 -287h-203l-168 160zM559 -369h-192l165 439l-430 1056h201l275 -696q28 -72 49 -164q18 79 51 164l256 696h192z" />
    <glyph glyph-name="Ydieresis" unicode="&#x178;" 
d="M387 1673q-60 0 -95.5 34.5t-35.5 94.5q0 61 35.5 97t95.5 36t95.5 -36t35.5 -97q0 -60 -35.5 -94.5t-95.5 -34.5zM842 1673q-60 0 -95.5 34.5t-35.5 94.5q0 61 35.5 97t95.5 36t95.5 -36t35.5 -97q0 -60 -35.5 -94.5t-95.5 -34.5zM707 0h-185v559l-450 936h190l297 -614
q39 -81 57 -140q13 43 60 140l291 614h190l-450 -936v-559z" />
    <glyph glyph-name="Zacute" unicode="&#x179;" 
d="M684 1659h-188l217 287h198zM1055 0h-881v184l674 1143h-664v168h850v-184l-674 -1143h695v-168z" />
    <glyph glyph-name="zacute" unicode="&#x17a;" 
d="M684 1321h-188l217 287h198zM1044 0h-860v184l631 774h-614v168h821v-184l-643 -774h665v-168z" />
    <glyph glyph-name="Zdotaccent" unicode="&#x17b;" 
d="M614 1671q-67 0 -106 35.5t-39 95.5t39 95.5t106 35.5t106.5 -35.5t39.5 -95.5t-39.5 -95.5t-106.5 -35.5zM1055 0h-881v184l674 1143h-664v168h850v-184l-674 -1143h695v-168z" />
    <glyph glyph-name="zdotaccent" unicode="&#x17c;" 
d="M614 1329q-67 0 -106 34.5t-39 94.5q0 62 39 97.5t106 35.5q68 0 107 -36t39 -97q0 -60 -39 -94.5t-107 -34.5zM1044 0h-860v184l631 774h-614v168h821v-184l-643 -774h665v-168z" />
    <glyph glyph-name="Zcaron" unicode="&#x17d;" 
d="M700 1659h-170l-286 287h202l168 -160l164 160h207zM1055 0h-881v184l674 1143h-664v168h850v-184l-674 -1143h695v-168z" />
    <glyph glyph-name="zcaron" unicode="&#x17e;" 
d="M700 1321h-170l-286 287h202l168 -160l164 160h207zM1044 0h-860v184l631 774h-614v168h821v-184l-643 -774h665v-168z" />
    <glyph glyph-name="longs" unicode="&#x17f;" 
d="M522 0h-184v1169q0 146 95.5 236t250.5 90h360v-164h-360q-72 0 -117 -45.5t-45 -118.5v-1167z" />
    <glyph glyph-name="uni018F" unicode="&#x18f;" 
d="M614 1516q203 0 316.5 -114.5t113.5 -316.5v-675q0 -196 -116 -313t-314 -117t-314 117t-116 313v409h676v268q0 127 -63 196t-183 69q-119 0 -182 -69.5t-63 -197.5h-185q0 199 115 315t315 116zM860 410v266h-491v-266q0 -277 245 -277q246 0 246 277z" />
    <glyph glyph-name="uni0190" unicode="&#x190;" 
d="M934 393h184q-3 -186 -135 -299.5t-346 -113.5q-223 0 -358.5 121t-135.5 319q0 148 75.5 246.5t207.5 126.5q-116 26 -182 111.5t-66 213.5q0 180 124.5 289t330.5 109q212 0 340.5 -115.5t128.5 -304.5h-184q0 116 -76.5 186t-202.5 70q-124 0 -200.5 -68t-76.5 -178
t76.5 -178t200.5 -68h184v-164h-186q-138 0 -222.5 -76t-84.5 -200q0 -125 84.5 -201t222.5 -76q131 0 212.5 69t84.5 181z" />
    <glyph glyph-name="florin" unicode="&#x192;" 
d="M215 -369h-215v168h215q109 0 172.5 62.5t63.5 169.5v610h-328v168h328v401q0 135 83 210t232 75h330v-164h-330q-131 0 -131 -123v-399h461v-168h-461v-610q0 -181 -114.5 -290.5t-305.5 -109.5z" />
    <glyph glyph-name="uni019B" unicode="&#x19b;" 
d="M963 1352l-289 -146l452 -1206h-196l-268 731q-16 42 -28 84t-21.5 80t-12.5 49q0 -96 -41 -213l-258 -731h-199l418 1108l-8 18l-328 -163v163l275 138l-90 231h196l56 -149l342 170v-164z" />
    <glyph glyph-name="Ohorn" unicode="&#x1a0;" 
d="M1085 1659v-164q0 -116 -96 -168q60 -102 60 -240v-677q0 -200 -116.5 -315t-318.5 -115q-201 0 -317.5 114.5t-116.5 315.5v675q0 201 116.5 316t317.5 115q165 0 275 -78q43 16 43 67v154h153zM864 410v675q0 127 -65 196t-185 69t-184.5 -68.5t-64.5 -196.5v-675
q0 -128 64.5 -196.5t184.5 -68.5t185 69t65 196z" />
    <glyph glyph-name="ohorn" unicode="&#x1a1;" 
d="M1106 1311v-164q0 -64 -31.5 -110t-89.5 -68q70 -106 70 -254v-301q0 -199 -118.5 -314.5t-322.5 -115.5t-322 115.5t-118 314.5v299q0 199 118 314.5t322 115.5q141 0 244 -58h23q71 0 71 72v154h154zM870 414v299q0 129 -67.5 197.5t-188.5 68.5t-188.5 -68.5
t-67.5 -197.5v-299q0 -129 67.5 -198t188.5 -69t188.5 69t67.5 198z" />
    <glyph glyph-name="Uhorn" unicode="&#x1af;" 
d="M1065 1567v153h154v-164q0 -79 -47.5 -130t-127.5 -62v-954q0 -203 -111 -316.5t-319 -113.5q-207 0 -318.5 114t-111.5 316v1085h185v-1085q0 -126 61.5 -196.5t183.5 -70.5q121 0 183.5 70.5t62.5 196.5v1085h133q32 0 52 20t20 52z" />
    <glyph glyph-name="uhorn" unicode="&#x1b0;" 
d="M184 410v716h185v-716q0 -127 64.5 -198t178.5 -71q116 0 182 71t66 198v716h144q71 0 71 72v154h154v-164q0 -91 -45.5 -143t-139.5 -52v-583q0 -197 -118 -313.5t-314 -116.5t-312 116t-116 314z" />
    <glyph glyph-name="uni01CD" unicode="&#x1cd;" 
d="M700 1659h-170l-286 287h202l168 -160l164 160h207zM291 0h-189l390 1495h247l387 -1495h-186l-98 397h-453zM541 1016l-115 -463h377l-115 461q-58 233 -74 334q-18 -114 -73 -332z" />
    <glyph glyph-name="uni01CE" unicode="&#x1ce;" 
d="M995 1608l-284 -287h-170l-287 287h203l168 -160l163 160h207zM625 1147q193 0 306 -100.5t113 -272.5v-774h-180v215h-2q-12 -109 -105 -172t-241 -63q-178 0 -280.5 90t-102.5 247q0 156 102.5 247t276.5 91h348v113q0 103 -62.5 160t-172.5 57q-98 0 -166.5 -43.5
t-83.5 -112.5h-185q15 141 136.5 229.5t298.5 88.5zM561 125q131 0 215 65t84 168v160h-344q-92 0 -145.5 -51t-53.5 -139q0 -95 64.5 -149t179.5 -54z" />
    <glyph glyph-name="uni01D0" unicode="&#x1d0;" horiz-adv-x="1024" 
d="M629 1321h-170l-287 287h203l168 -160l164 160h206zM932 0h-758v168h297v790h-256v168h440v-958h277v-168z" />
    <glyph glyph-name="uni01D2" unicode="&#x1d2;" 
d="M700 1321h-170l-286 287h202l168 -160l164 160h207zM614 -16q-204 0 -322 115.5t-118 314.5v299q0 199 118 314.5t322 115.5t322.5 -115t118.5 -313v-301q0 -199 -118.5 -314.5t-322.5 -115.5zM614 147q121 0 188.5 69t67.5 198v299q0 129 -67.5 197.5t-188.5 68.5
t-188.5 -68.5t-67.5 -197.5v-299q0 -129 67.5 -198t188.5 -69z" />
    <glyph glyph-name="uni01D4" unicode="&#x1d4;" 
d="M700 1321h-170l-286 287h202l168 -160l164 160h207zM612 -20q-196 0 -312 116t-116 314v716h185v-716q0 -127 64.5 -198t178.5 -71q116 0 182 71t66 198v716h184v-716q0 -197 -118 -313.5t-314 -116.5z" />
    <glyph glyph-name="uni01D6" unicode="&#x1d6;" 
d="M942 1837h-655v154h655v-154zM387 1329q-60 0 -95.5 34.5t-35.5 94.5q0 61 35.5 97t95.5 36t95.5 -36t35.5 -97q0 -60 -35.5 -94.5t-95.5 -34.5zM842 1329q-60 0 -95.5 34.5t-35.5 94.5q0 61 35.5 97t95.5 36t95.5 -36t35.5 -97q0 -60 -35.5 -94.5t-95.5 -34.5zM612 -20
q-196 0 -312 116t-116 314v716h185v-716q0 -127 64.5 -198t178.5 -71q116 0 182 71t66 198v716h184v-716q0 -197 -118 -313.5t-314 -116.5z" />
    <glyph glyph-name="uni01D8" unicode="&#x1d8;" 
d="M684 1786h-188l217 287h198zM387 1329q-60 0 -95.5 34.5t-35.5 94.5q0 61 35.5 97t95.5 36t95.5 -36t35.5 -97q0 -60 -35.5 -94.5t-95.5 -34.5zM842 1329q-60 0 -95.5 34.5t-35.5 94.5q0 61 35.5 97t95.5 36t95.5 -36t35.5 -97q0 -60 -35.5 -94.5t-95.5 -34.5zM612 -20
q-196 0 -312 116t-116 314v716h185v-716q0 -127 64.5 -198t178.5 -71q116 0 182 71t66 198v716h184v-716q0 -197 -118 -313.5t-314 -116.5z" />
    <glyph glyph-name="uni01DA" unicode="&#x1da;" 
d="M700 1786h-170l-286 287h202l168 -160l164 160h207zM387 1329q-60 0 -95.5 34.5t-35.5 94.5q0 61 35.5 97t95.5 36t95.5 -36t35.5 -97q0 -60 -35.5 -94.5t-95.5 -34.5zM842 1329q-60 0 -95.5 34.5t-35.5 94.5q0 61 35.5 97t95.5 36t95.5 -36t35.5 -97q0 -60 -35.5 -94.5
t-95.5 -34.5zM612 -20q-196 0 -312 116t-116 314v716h185v-716q0 -127 64.5 -198t178.5 -71q116 0 182 71t66 198v716h184v-716q0 -197 -118 -313.5t-314 -116.5z" />
    <glyph glyph-name="uni01DC" unicode="&#x1dc;" 
d="M741 1786h-194l-236 287h205zM387 1329q-60 0 -95.5 34.5t-35.5 94.5q0 61 35.5 97t95.5 36t95.5 -36t35.5 -97q0 -60 -35.5 -94.5t-95.5 -34.5zM842 1329q-60 0 -95.5 34.5t-35.5 94.5q0 61 35.5 97t95.5 36t95.5 -36t35.5 -97q0 -60 -35.5 -94.5t-95.5 -34.5zM612 -20
q-196 0 -312 116t-116 314v716h185v-716q0 -127 64.5 -198t178.5 -71q116 0 182 71t66 198v716h184v-716q0 -197 -118 -313.5t-314 -116.5z" />
    <glyph glyph-name="Gcaron" unicode="&#x1e6;" 
d="M700 1659h-170l-286 287h202l168 -160l164 160h207zM623 -20q-205 0 -324 115t-119 315v675q0 200 119 315.5t324 115.5q201 0 319.5 -116.5t118.5 -314.5h-184q0 127 -66.5 196t-187.5 69q-122 0 -190 -69t-68 -194v-677q0 -127 68 -197t190 -70q120 0 187 70t67 197
v184h-304v168h488v-352q0 -198 -118.5 -314t-319.5 -116z" />
    <glyph glyph-name="gcaron" unicode="&#x1e7;" 
d="M979 1608l-285 -287h-170l-286 287h202l168 -160l164 160h207zM856 911v215h182v-1167q0 -153 -93.5 -240.5t-258.5 -87.5h-356v168h358q86 0 126 39t40 121v143l4 205h-4q-10 -109 -90.5 -172t-208.5 -63q-173 0 -274 113t-101 307v237q0 192 101 305t274 113
q127 0 207.5 -63.5t91.5 -172.5h2zM856 502v215q0 127 -65.5 198.5t-180.5 71.5q-117 0 -181 -70t-64 -200v-215q0 -130 64 -200.5t181 -70.5q114 0 180 72t66 199z" />
    <glyph glyph-name="uni01EA" unicode="&#x1ea;" 
d="M936 -416h-160q-113 0 -181.5 53.5t-68.5 137.5q0 93 115 205h-27q-201 0 -317.5 114.5t-116.5 315.5v675q0 201 116.5 316t317.5 115t318 -115t117 -314v-677q0 -120 -44 -212t-124 -147l-60 -49q-121 -102 -121 -192q0 -45 30.5 -74t82.5 -29h123v-123zM614 145
q120 0 185 69t65 196v675q0 127 -65 196t-185 69t-184.5 -68.5t-64.5 -196.5v-675q0 -128 64.5 -196.5t184.5 -68.5z" />
    <glyph glyph-name="uni01EB" unicode="&#x1eb;" 
d="M922 -416h-160q-113 0 -181.5 53.5t-68.5 137.5q0 97 121 205h-19q-201 0 -317.5 114.5t-116.5 315.5v307q0 201 116.5 315.5t317.5 114.5t318 -114.5t117 -313.5v-309q0 -127 -47.5 -220.5t-135.5 -146.5l-49 -41q-131 -108 -131 -192q0 -45 30.5 -74t82.5 -29h123v-123
zM614 143q121 0 185.5 68.5t64.5 198.5v307q0 130 -64.5 198t-185.5 68t-185 -68t-64 -198v-307q0 -130 64.5 -198.5t184.5 -68.5z" />
    <glyph glyph-name="uni01F4" unicode="&#x1f4;" 
d="M684 1659h-188l217 287h198zM623 -20q-205 0 -324 115t-119 315v675q0 200 119 315.5t324 115.5q201 0 319.5 -116.5t118.5 -314.5h-184q0 127 -66.5 196t-187.5 69q-122 0 -190 -69t-68 -194v-677q0 -127 68 -197t190 -70q120 0 187 70t67 197v184h-304v168h488v-352
q0 -198 -118.5 -314t-319.5 -116z" />
    <glyph glyph-name="uni01F5" unicode="&#x1f5;" 
d="M707 1608h198l-227 -287h-189zM856 911v215h182v-1167q0 -153 -93.5 -240.5t-258.5 -87.5h-356v168h358q86 0 126 39t40 121v143l4 205h-4q-10 -109 -90.5 -172t-208.5 -63q-173 0 -274 113t-101 307v237q0 192 101 305t274 113q127 0 207.5 -63.5t91.5 -172.5h2z
M856 502v215q0 127 -65.5 198.5t-180.5 71.5q-117 0 -181 -70t-64 -200v-215q0 -130 64 -200.5t181 -70.5q114 0 180 72t66 199z" />
    <glyph glyph-name="AEacute" unicode="&#x1fc;" 
d="M684 1659h-188l217 287h198zM248 0h-187l297 1495h809v-168h-372v-467h321v-168h-321v-524h372v-168h-549v416h-288zM504 1327l-146 -758h260v758h-114z" />
    <glyph glyph-name="aeacute" unicode="&#x1fd;" 
d="M684 1321h-188l217 287h198zM348 -20q-127 0 -201.5 77t-74.5 209v123q0 126 85.5 201.5t227.5 75.5h152v151q0 89 -33.5 130.5t-104.5 41.5q-59 0 -94 -35.5t-35 -93.5h-174q0 129 75 208t198 79q109 0 172.5 -51t74.5 -113h9q11 62 71 113t164 51q138 0 217.5 -88
t79.5 -240v-297h-455v-215q0 -76 38 -123t100 -47q66 0 104.5 34.5t38.5 94.5h174q0 -129 -81.5 -207.5t-215.5 -78.5q-105 0 -165.5 50.5t-69.5 112.5h-9q-11 -62 -80 -112.5t-188 -50.5zM702 819v-153h281v153q0 77 -38 123.5t-105 46.5q-64 0 -101 -46.5t-37 -123.5z
M389 137q66 0 107 47t41 123v215h-148q-63 0 -98 -35.5t-35 -97.5v-123q0 -60 35.5 -94.5t97.5 -34.5z" />
    <glyph glyph-name="Oslashacute" unicode="&#x1fe;" 
d="M713 1946h198l-227 -287h-188zM985 1536h172l-143 -256q35 -84 35 -193v-677q0 -200 -116.5 -315t-318.5 -115q-172 0 -286 88l-84 -150h-172l155 275q-47 92 -47 217v675q0 201 116.5 316t317.5 115q191 0 304 -101zM365 1085v-649l458 813q-63 101 -209 101
q-120 0 -184.5 -68.5t-64.5 -196.5zM864 410v608l-446 -791q67 -82 196 -82q120 0 185 69t65 196z" />
    <glyph glyph-name="oslashacute" unicode="&#x1ff;" 
d="M713 1608h198l-227 -287h-188zM971 1208h186l-172 -241q64 -106 64 -248v-309q0 -200 -116.5 -315t-318.5 -115q-165 0 -274 77l-84 -118h-184l166 233q-58 103 -58 238v307q0 201 116.5 315.5t317.5 114.5q154 0 263 -70zM354 717v-307q0 -37 6 -64l418 590
q-65 47 -164 47q-123 0 -191.5 -70t-68.5 -196zM874 410v307q0 49 -8 82l-426 -600q65 -56 174 -56q123 0 191.5 70.5t68.5 196.5z" />
    <glyph glyph-name="uni0218" unicode="&#x218;" 
d="M623 -20q-217 0 -346.5 112t-129.5 301h185q0 -113 79.5 -181.5t211.5 -68.5q127 0 202.5 68.5t75.5 181.5q0 88 -46.5 154.5t-125.5 91.5l-221 70q-151 47 -235.5 154.5t-84.5 252.5q0 183 119.5 291.5t319.5 108.5q198 0 317 -108.5t119 -291.5h-184q0 107 -68.5 171.5
t-183.5 64.5q-117 0 -187.5 -64t-70.5 -168q0 -83 46 -142t130 -85l229 -74q142 -46 224.5 -160t82.5 -266q0 -189 -124.5 -301t-333.5 -112zM584 -492h-195l195 297h215z" />
    <glyph glyph-name="uni0219" unicode="&#x219;" 
d="M666 -16h-86q-176 0 -286 81t-110 218h189q0 -63 59 -99.5t152 -36.5h86q106 0 160.5 43t54.5 119q0 139 -195 170l-151 25q-167 28 -247.5 106.5t-80.5 214.5q0 154 99.5 236t285.5 82h78q172 0 275.5 -77t103.5 -204h-189q0 54 -52.5 85.5t-141.5 31.5h-78
q-97 0 -149 -40t-52 -114q0 -124 174 -151l152 -25q183 -29 265.5 -107t82.5 -225q0 -159 -101 -246t-298 -87zM584 -492h-195l195 297h215z" />
    <glyph glyph-name="uni021A" unicode="&#x21a;" 
d="M707 0h-185v1327h-409v168h1003v-168h-409v-1327zM584 -492h-195l195 297h215z" />
    <glyph glyph-name="uni021B" unicode="&#x21b;" 
d="M852 0h-225q-140 0 -224 81t-84 216v661h-256v168h256v318h185v-318h368v-168h-368v-661q0 -58 33.5 -93.5t89.5 -35.5h225v-168zM698 -492h-194l194 297h215z" />
    <glyph glyph-name="uni0232" unicode="&#x232;" 
d="M942 1720h-655v154h655v-154zM707 0h-185v559l-450 936h190l297 -614q39 -81 57 -140q13 43 60 140l291 614h190l-450 -936v-559z" />
    <glyph glyph-name="uni0233" unicode="&#x233;" 
d="M942 1372h-655v154h655v-154zM559 -369h-192l165 439l-430 1056h201l275 -696q28 -72 49 -164q18 79 51 164l256 696h192z" />
    <glyph glyph-name="uni0237" unicode="&#x237;" horiz-adv-x="819" 
d="M178 -369h-131v170h131q128 0 198 68t70 194v895h-337v168h522v-1063q0 -198 -123 -315t-330 -117z" />
    <glyph glyph-name="uni0259" unicode="&#x259;" 
d="M614 1147q198 0 314 -117t116 -313v-307q0 -196 -116 -313t-314 -117t-314 117t-116 313v198h680v109q0 274 -250 274q-211 0 -241 -151h-185q19 141 133.5 224t292.5 83zM864 410v59h-499v-59q0 -135 62 -206t187 -71t187.5 71t62.5 206z" />
    <glyph glyph-name="uni02B9" unicode="&#x2b9;" horiz-adv-x="819" 
d="M365 840h-164l164 637h266z" />
    <glyph glyph-name="uni02BA" unicode="&#x2ba;" 
d="M276 838h-163l163 637h267zM840 838h-164l164 637h266z" />
    <glyph glyph-name="uni02BC" unicode="&#x2bc;" horiz-adv-x="409" 
d="M154 952h-164l164 637h266z" />
    <glyph glyph-name="circumflex" unicode="&#x2c6;" 
d="M451 1321h-207l284 287h170l287 -287h-203l-168 160z" />
    <glyph glyph-name="caron" unicode="&#x2c7;" 
d="M700 1321h-170l-286 287h202l168 -160l164 160h207z" />
    <glyph glyph-name="uni02C9" unicode="&#x2c9;" 
d="M942 1372h-655v154h655v-154z" />
    <glyph glyph-name="breve" unicode="&#x2d8;" 
d="M614 1311q-148 0 -237.5 81.5t-89.5 215.5h145q0 -80 49.5 -129t130.5 -49q83 0 134 49t51 129h145q0 -134 -90 -215.5t-238 -81.5z" />
    <glyph glyph-name="dotaccent" unicode="&#x2d9;" 
d="M614 1329q-67 0 -106 34.5t-39 94.5q0 62 39 97.5t106 35.5q68 0 107 -36t39 -97q0 -60 -39 -94.5t-107 -34.5z" />
    <glyph glyph-name="ring" unicode="&#x2da;" 
d="M614 1245q-110 0 -177.5 64.5t-67.5 169.5q0 104 67.5 168.5t177.5 64.5t178 -64.5t68 -168.5t-68 -169t-178 -65zM614 1354q56 0 89.5 34t33.5 91t-34 92t-89 35t-88.5 -35t-33.5 -92t33 -91t89 -34z" />
    <glyph glyph-name="ogonek" unicode="&#x2db;" 
d="M788 -416h-159q-113 0 -181.5 53.5t-68.5 137.5q0 124 174 245h154l-23 -18q-131 -108 -131 -192q0 -45 30.5 -74t82.5 -29h122v-123z" />
    <glyph glyph-name="tilde" unicode="&#x2dc;" 
d="M758 1331q-45 0 -82 15t-60.5 36t-44 42t-43 36t-47.5 15q-61 0 -61 -72v-62h-133v62q0 91 50 142.5t134 51.5q45 0 82 -14.5t60.5 -35.5t44 -42.5t43 -36t47.5 -14.5q61 0 61 72v61h133v-61q0 -91 -50 -143t-134 -52z" />
    <glyph glyph-name="hungarumlaut" unicode="&#x2dd;" 
d="M479 1321h-178l225 287h189zM846 1321h-178l225 287h188z" />
    <glyph glyph-name="uni02F3" unicode="&#x2f3;" 
d="M-614 -512q-110 0 -178 56.5t-68 148.5t68 148.5t178 56.5t177.5 -56.5t67.5 -148.5t-67.5 -148.5t-177.5 -56.5zM-616 -408q56 0 90 28t34 73q0 102 -124 102q-54 0 -87.5 -28t-33.5 -74q0 -44 33.5 -72.5t87.5 -28.5z" />
    <glyph glyph-name="uni02F7" unicode="&#x2f7;" 
d="M758 -430q-45 0 -82 14.5t-60.5 35.5t-44 42.5t-43 36t-47.5 14.5q-61 0 -61 -71v-62h-133v62q0 91 50 142.5t134 51.5q45 0 82 -14.5t60.5 -35.5t44 -42.5t43 -36t47.5 -14.5q61 0 61 71v62h133v-62q0 -91 -50 -142.5t-134 -51.5z" />
    <glyph glyph-name="gravecomb" unicode="&#x300;" horiz-adv-x="0" 
d="M-1696 1321h-194l-236 287h205z" />
    <glyph glyph-name="acutecomb" unicode="&#x301;" horiz-adv-x="0" 
d="M-1794 1321h-188l217 287h198z" />
    <glyph glyph-name="uni0302" unicode="&#x302;" horiz-adv-x="0" 
d="M-2007 1321h-207l285 287h170l286 -287h-202l-168 160z" />
    <glyph glyph-name="tildecomb" unicode="&#x303;" horiz-adv-x="0" 
d="M-1700 1331q-45 0 -82 15t-60.5 36t-43.5 42t-42.5 36t-47.5 15q-29 0 -45.5 -18t-16.5 -54v-62h-133v62q0 91 50 142.5t134 51.5q45 0 82 -14.5t60.5 -35.5t44 -42.5t43 -36t47.5 -14.5q61 0 61 72v61h133v-61q0 -91 -50 -143t-134 -52z" />
    <glyph glyph-name="uni0304" unicode="&#x304;" horiz-adv-x="0" 
d="M-1516 1372h-655v154h655v-154z" />
    <glyph glyph-name="uni0306" unicode="&#x306;" horiz-adv-x="0" 
d="M-1843 1311q-148 0 -238 81.5t-90 215.5h146q0 -80 49.5 -129t130.5 -49q83 0 133.5 49t50.5 129h145q0 -134 -89.5 -215.5t-237.5 -81.5z" />
    <glyph glyph-name="uni0307" unicode="&#x307;" horiz-adv-x="0" 
d="M-1843 1329q-68 0 -107 34.5t-39 94.5q0 61 39 97t107 36q67 0 106 -35.5t39 -97.5q0 -60 -39 -94.5t-106 -34.5z" />
    <glyph glyph-name="uni0308" unicode="&#x308;" horiz-adv-x="0" 
d="M-2071 1329q-60 0 -95.5 34.5t-35.5 94.5q0 61 35.5 97t95.5 36t96 -36t36 -97q0 -60 -36 -94.5t-96 -34.5zM-1616 1329q-60 0 -95.5 34.5t-35.5 94.5q0 61 35.5 97t95.5 36t95.5 -36t35.5 -97q0 -60 -35.5 -94.5t-95.5 -34.5z" />
    <glyph glyph-name="hookabovecomb" unicode="&#x309;" horiz-adv-x="0" 
d="M-1755 1321h-174l102 129q29 40 29 66q0 40 -66 40h-164v134h216q79 0 126.5 -41t47.5 -111q0 -67 -35 -111z" />
    <glyph glyph-name="uni030A" unicode="&#x30a;" horiz-adv-x="0" 
d="M-1843 1245q-110 0 -178 65t-68 169t68 168.5t178 64.5t178 -64.5t68 -168.5t-68 -169t-178 -65zM-1843 1354q56 0 89.5 34t33.5 91t-34 92t-89 35t-89 -35t-34 -92t33.5 -91t89.5 -34z" />
    <glyph glyph-name="uni030B" unicode="&#x30b;" horiz-adv-x="0" 
d="M-1978 1321h-179l226 287h188zM-1612 1321h-178l225 287h189z" />
    <glyph glyph-name="uni030C" unicode="&#x30c;" horiz-adv-x="0" 
d="M-1757 1321h-170l-287 287h203l168 -160l164 160h206z" />
    <glyph glyph-name="uni030F" unicode="&#x30f;" horiz-adv-x="0" 
d="M-2122 1608l226 -287h-179l-235 287h188zM-1755 1608l225 -287h-178l-236 287h189z" />
    <glyph glyph-name="uni0312" unicode="&#x312;" horiz-adv-x="0" 
d="M-1761 1802h153l-164 -481h-256z" />
    <glyph glyph-name="uni031B" unicode="&#x31b;" horiz-adv-x="0" 
d="M-1640 993h-64v133h53q72 0 72 72v154h154v-164q0 -88 -59 -141.5t-156 -53.5z" />
    <glyph glyph-name="dotbelowcomb" unicode="&#x323;" horiz-adv-x="0" 
d="M-1843 -436q-68 0 -107 34.5t-39 94.5q0 61 39 97t107 36q67 0 106 -35.5t39 -97.5q0 -60 -39 -94.5t-106 -34.5z" />
    <glyph glyph-name="uni0325" unicode="&#x325;" horiz-adv-x="0" 
d="M-1843 -512q-110 0 -178 56.5t-68 148.5t68 148.5t178 56.5t178 -56.5t68 -148.5t-68 -148.5t-178 -56.5zM-1845 -408q56 0 90.5 28t34.5 73q0 102 -125 102q-54 0 -87.5 -28t-33.5 -74q0 -44 33.5 -72.5t87.5 -28.5z" />
    <glyph glyph-name="uni0326" unicode="&#x326;" horiz-adv-x="0" 
d="M-1874 -492h-194l194 297h215z" />
    <glyph glyph-name="uni0327" unicode="&#x327;" horiz-adv-x="0" 
d="M-1864 -416h-174v113h144q43 0 71.5 22.5t28.5 51.5q0 37 -58 62.5t-157 25.5l72 194h116l-43 -125q58 -7 111.5 -26.5t94 -58.5t40.5 -89q0 -72 -69 -121t-177 -49z" />
    <glyph glyph-name="uni0328" unicode="&#x328;" horiz-adv-x="0" 
d="M-1669 -416h-160q-113 0 -181.5 53.5t-68.5 137.5q0 124 174 245h154l-23 -18q-131 -108 -131 -192q0 -45 30.5 -74t82.5 -29h123v-123z" />
    <glyph glyph-name="uni0336" unicode="&#x336;" horiz-adv-x="0" 
d="M-1167 594h-1352v143h1352v-143z" />
    <glyph glyph-name="uni0337" unicode="&#x337;" horiz-adv-x="0" 
d="M-2202 -61h-184l899 1269h187z" />
    <glyph glyph-name="uni0338" unicode="&#x338;" horiz-adv-x="0" 
d="M-2103 -225h-129l649 1577h129z" />
    <glyph glyph-name="uni0374" unicode="&#x374;" 
d="M502 840h-164l164 637h266z" />
    <glyph glyph-name="uni0375" unicode="&#x375;" 
d="M324 -328h-164l164 637h266z" />
    <glyph glyph-name="uni037E" unicode="&#x37e;" 
d="M430 840h-41q-67 0 -110 43t-43 110q0 66 43.5 110t109.5 44h41q66 0 110 -44t44 -110q0 -67 -43 -110t-111 -43zM307 -328h-164l164 637h266z" />
    <glyph glyph-name="tonos" unicode="&#x384;" 
d="M623 1321h-189l217 287h199z" />
    <glyph glyph-name="dieresistonos" unicode="&#x385;" 
d="M674 1575h-144l160 268h164zM387 1329q-60 0 -95.5 34.5t-35.5 94.5q0 61 35.5 97t95.5 36t95.5 -36t35.5 -97q0 -60 -35.5 -94.5t-95.5 -34.5zM842 1329q-60 0 -95.5 34.5t-35.5 94.5q0 61 35.5 97t95.5 36t95.5 -36t35.5 -97q0 -60 -35.5 -94.5t-95.5 -34.5z" />
    <glyph glyph-name="Alphatonos" unicode="&#x386;" 
d="M197 1167h-177l115 328h193zM291 0h-189l390 1495h247l387 -1495h-186l-98 397h-453zM541 1016l-115 -463h377l-115 461q-58 233 -74 334q-18 -114 -73 -332z" />
    <glyph glyph-name="anoteleia" unicode="&#x387;" 
d="M410 543q-78 0 -124 45t-46 121q0 80 46 127t124 47t124 -47t46 -127q0 -76 -46 -121t-124 -45z" />
    <glyph glyph-name="Epsilontonos" unicode="&#x388;" 
d="M-59 1167h-177l115 328h193zM1065 0h-860v1495h860v-168h-678v-463h606v-164h-606v-532h678v-168z" />
    <glyph glyph-name="Etatonos" unicode="&#x389;" 
d="M-59 1167h-177l115 328h193zM375 0h-185v1495h185v-639h479v639h184v-1495h-184v688h-479v-688z" />
    <glyph glyph-name="Iotatonos" unicode="&#x38a;" 
d="M-59 1167h-177l115 328h193zM1014 0h-799v168h305v1159h-305v168h799v-168h-305v-1159h305v-168z" />
    <glyph glyph-name="Omicrontonos" unicode="&#x38c;" 
d="M614 -20q-201 0 -317.5 114.5t-116.5 315.5v675q0 201 116.5 316t317.5 115t318 -115t117 -314v-677q0 -200 -116.5 -315t-318.5 -115zM12 1167h-176l115 328h192zM614 145q120 0 185 69t65 196v675q0 127 -65 196t-185 69t-184.5 -68.5t-64.5 -196.5v-675
q0 -128 64.5 -196.5t184.5 -68.5z" />
    <glyph glyph-name="Upsilontonos" unicode="&#x38e;" 
d="M-80 1167h-176l115 328h192zM707 0h-185v559l-450 936h190l297 -614q39 -81 57 -140q13 43 60 140l291 614h190l-450 -936v-559z" />
    <glyph glyph-name="Omegatonos" unicode="&#x38f;" 
d="M532 0h-430v164h297v10q-40 5 -79.5 26.5t-75 60t-58 101.5t-22.5 140v573q0 201 121.5 321t328.5 120t329 -120t122 -321v-573q0 -77 -22.5 -140t-58.5 -100.5t-75.5 -59t-79.5 -26.5v-12h299v-164h-432v225q82 0 133.5 75t51.5 192v583q0 126 -73 201.5t-194 75.5
t-193.5 -75.5t-72.5 -201.5v-583q0 -117 51.5 -192t132.5 -75v-225zM12 1167h-176l115 328h192z" />
    <glyph glyph-name="iotadieresistonos" unicode="&#x390;" 
d="M674 1575h-144l160 268h164zM387 1329q-60 0 -95.5 34.5t-35.5 94.5q0 61 35.5 97t95.5 36t95.5 -36t35.5 -97q0 -60 -35.5 -94.5t-95.5 -34.5zM842 1329q-60 0 -95.5 34.5t-35.5 94.5q0 61 35.5 97t95.5 36t95.5 -36t35.5 -97q0 -60 -35.5 -94.5t-95.5 -34.5zM1126 0
h-276q-149 0 -238.5 86t-89.5 231v641h-409v168h594v-809q0 -69 38.5 -109t104.5 -40h276v-168z" />
    <glyph glyph-name="Alpha" unicode="&#x391;" 
d="M291 0h-189l390 1495h247l387 -1495h-186l-98 397h-453zM541 1016l-115 -463h377l-115 461q-58 233 -74 334q-18 -114 -73 -332z" />
    <glyph glyph-name="Beta" unicode="&#x392;" 
d="M825 791q122 -34 191 -132.5t69 -242.5q0 -192 -118 -304t-322 -112h-455v1495h424q204 0 320.5 -103t116.5 -284q0 -121 -60 -204.5t-166 -112.5zM614 1329h-243v-471h241q118 0 187 63.5t69 172.5t-68 172t-186 63zM371 166h254q129 0 203.5 68.5t74.5 187.5
q0 124 -75 200t-203 76h-254v-532z" />
    <glyph glyph-name="Gamma" unicode="&#x393;" 
d="M451 0h-185v1495h871v-168h-686v-1327z" />
    <glyph glyph-name="uni0394" unicode="&#x394;" 
d="M492 1495h247l387 -1495h-1024zM541 1016l-209 -852h567l-211 850q-36 146 -74 338q-40 -202 -73 -336z" />
    <glyph glyph-name="Epsilon" unicode="&#x395;" 
d="M1065 0h-860v1495h860v-168h-678v-463h606v-164h-606v-532h678v-168z" />
    <glyph glyph-name="Zeta" unicode="&#x396;" 
d="M1055 0h-881v184l674 1143h-664v168h850v-184l-674 -1143h695v-168z" />
    <glyph glyph-name="Eta" unicode="&#x397;" 
d="M375 0h-185v1495h185v-639h479v639h184v-1495h-184v688h-479v-688z" />
    <glyph glyph-name="Theta" unicode="&#x398;" 
d="M614 -20q-201 0 -317.5 114.5t-116.5 315.5v675q0 201 116.5 316t317.5 115t318 -115t117 -314v-677q0 -200 -116.5 -315t-318.5 -115zM614 145q120 0 185 69t65 196v675q0 127 -65 196t-185 69t-184.5 -68.5t-64.5 -196.5v-675q0 -128 64.5 -196.5t184.5 -68.5zM799 666
h-369v168h369v-168z" />
    <glyph glyph-name="Iota" unicode="&#x399;" 
d="M1014 0h-799v168h305v1159h-305v168h799v-168h-305v-1159h305v-168z" />
    <glyph glyph-name="Kappa" unicode="&#x39a;" 
d="M373 0h-185v1495h185v-641h221l332 641h200l-370 -719l391 -776h-211l-348 692h-215v-692z" />
    <glyph glyph-name="Lambda" unicode="&#x39b;" 
d="M291 0h-189l390 1495h247l387 -1495h-186l-252 1014q-21 87 -39.5 171.5t-26.5 125.5l-8 41q-26 -143 -73 -336z" />
    <glyph glyph-name="Mu" unicode="&#x39c;" 
d="M336 0h-180v1495h241l160 -483q34 -103 61 -230q25 117 62 232l151 481h242v-1495h-180v707q0 303 53 696l-244 -748h-176l-245 748q55 -393 55 -696v-707z" />
    <glyph glyph-name="Nu" unicode="&#x39d;" 
d="M362 0h-178v1495h246l457 -1280q-21 263 -21 440v840h178v-1495h-245l-455 1280q18 -225 18 -440v-840z" />
    <glyph glyph-name="Xi" unicode="&#x39e;" 
d="M1065 1327h-901v168h901v-168zM1004 674h-779v168h779v-168zM1065 0h-901v168h901v-168z" />
    <glyph glyph-name="Omicron" unicode="&#x39f;" 
d="M614 -20q-201 0 -317.5 114.5t-116.5 315.5v675q0 201 116.5 316t317.5 115t318 -115t117 -314v-677q0 -200 -116.5 -315t-318.5 -115zM614 145q120 0 185 69t65 196v675q0 127 -65 196t-185 69t-184.5 -68.5t-64.5 -196.5v-675q0 -128 64.5 -196.5t184.5 -68.5z" />
    <glyph glyph-name="Pi" unicode="&#x3a0;" 
d="M377 0h-184v1495h843v-1495h-184v1327h-475v-1327z" />
    <glyph glyph-name="Rho" unicode="&#x3a1;" 
d="M373 0h-185v1495h482q209 0 332.5 -119.5t123.5 -320.5t-123.5 -321t-332.5 -120h-297v-614zM373 1329v-549h297q122 0 194 74.5t72 200.5t-72 200t-194 74h-297z" />
    <glyph glyph-name="Sigma" unicode="&#x3a3;" 
d="M1126 0h-972v164l475 596l-475 571v164h972v-164h-755l481 -563l-483 -604h757v-164z" />
    <glyph glyph-name="Tau" unicode="&#x3a4;" 
d="M707 0h-185v1327h-409v168h1003v-168h-409v-1327z" />
    <glyph glyph-name="Upsilon" unicode="&#x3a5;" 
d="M707 0h-185v559l-450 936h190l297 -614q39 -81 57 -140q13 43 60 140l291 614h190l-450 -936v-559z" />
    <glyph glyph-name="Phi" unicode="&#x3a6;" 
d="M700 -51h-172v143q-189 0 -303 116.5t-114 309.5v479q0 198 113.5 317.5t303.5 119.5v143h172v-143q190 0 304 -119.5t114 -317.5v-479q0 -193 -114.5 -309.5t-303.5 -116.5v-143zM528 248v1030q-115 0 -180 -75t-65 -206v-479q0 -126 65 -198t180 -72zM700 1278v-1030
q115 0 180.5 72t65.5 198v479q0 131 -65.5 206t-180.5 75z" />
    <glyph glyph-name="Chi" unicode="&#x3a7;" 
d="M287 0h-205l430 758l-408 737h213l232 -442q14 -27 39 -77.5t30 -60.5q30 67 68 138l236 442h202l-407 -725l430 -770h-211l-256 475q-45 84 -68 139q-29 -69 -67 -137z" />
    <glyph glyph-name="Psi" unicode="&#x3a8;" 
d="M700 0h-172v348q-189 0 -303 116.5t-114 309.5v721h172v-721q0 -126 65 -198t180 -72v991h172v-991q115 0 180.5 72t65.5 198v721h172v-721q0 -193 -114.5 -309.5t-303.5 -116.5v-348z" />
    <glyph glyph-name="uni03A9" unicode="&#x3a9;" 
d="M532 0h-430v164h297v10q-40 5 -79.5 26.5t-75 60t-58 101.5t-22.5 140v573q0 201 121.5 321t328.5 120t329 -120t122 -321v-573q0 -77 -22.5 -140t-58.5 -100.5t-75.5 -59t-79.5 -26.5v-12h299v-164h-432v225q82 0 133.5 75t51.5 192v583q0 126 -73 201.5t-194 75.5
t-193.5 -75.5t-72.5 -201.5v-583q0 -117 51.5 -192t132.5 -75v-225z" />
    <glyph glyph-name="Iotadieresis" unicode="&#x3aa;" 
d="M387 1673q-60 0 -95.5 34.5t-35.5 94.5q0 61 35.5 97t95.5 36t95.5 -36t35.5 -97q0 -60 -35.5 -94.5t-95.5 -34.5zM842 1673q-60 0 -95.5 34.5t-35.5 94.5q0 61 35.5 97t95.5 36t95.5 -36t35.5 -97q0 -60 -35.5 -94.5t-95.5 -34.5zM1014 0h-799v168h305v1159h-305v168
h799v-168h-305v-1159h305v-168z" />
    <glyph glyph-name="Upsilondieresis" unicode="&#x3ab;" 
d="M387 1673q-60 0 -95.5 34.5t-35.5 94.5q0 61 35.5 97t95.5 36t95.5 -36t35.5 -97q0 -60 -35.5 -94.5t-95.5 -34.5zM842 1673q-60 0 -95.5 34.5t-35.5 94.5q0 61 35.5 97t95.5 36t95.5 -36t35.5 -97q0 -60 -35.5 -94.5t-95.5 -34.5zM707 0h-185v559l-450 936h190l297 -614
q39 -81 57 -140q13 43 60 140l291 614h190l-450 -936v-559z" />
    <glyph glyph-name="alphatonos" unicode="&#x3ac;" 
d="M700 1608h199l-227 -287h-189zM852 911v215h184v-1126h-184v215h-2q-14 -109 -94.5 -172t-206.5 -63q-170 0 -267.5 112t-97.5 307v330q0 193 98 305.5t267 112.5q127 0 207 -63t94 -173h2zM852 410v307q0 127 -64 198.5t-178 71.5q-117 0 -179 -69.5t-62 -200.5v-307
q0 -131 62 -201t179 -70q114 0 178 71.5t64 199.5z" />
    <glyph glyph-name="epsilontonos" unicode="&#x3ad;" 
d="M651 1321h-188l217 287h199zM668 -14h-97q-189 0 -298 87t-109 238q0 122 73.5 197t202.5 84v8q-122 8 -191 73t-69 173q0 134 105.5 214.5t285.5 80.5h103q166 0 271.5 -77.5t125.5 -213.5h-194q-11 59 -64.5 93t-138.5 34h-103q-91 0 -143.5 -42t-52.5 -114
t51.5 -114.5t140.5 -42.5h232v-160h-228q-98 0 -155.5 -48t-57.5 -130q0 -83 57 -129.5t156 -46.5h97q94 0 156.5 31.5t76.5 84.5h195q-22 -130 -136 -205t-292 -75z" />
    <glyph glyph-name="etatonos" unicode="&#x3ae;" 
d="M723 1608h199l-228 -287h-188zM674 1147q169 0 269.5 -105t100.5 -284v-1127h-184v1106q0 119 -64 186.5t-175 67.5q-116 0 -182 -72t-66 -202v-717h-185v1126h185v-215h2q13 112 91.5 174t207.5 62z" />
    <glyph glyph-name="iotatonos" unicode="&#x3af;" 
d="M684 1321h-188l217 287h198zM1126 0h-276q-149 0 -238.5 86t-89.5 231v641h-409v168h594v-809q0 -69 38.5 -109t104.5 -40h276v-168z" />
    <glyph glyph-name="upsilondieresistonos" unicode="&#x3b0;" 
d="M674 1575h-144l160 268h164zM387 1329q-60 0 -95.5 34.5t-35.5 94.5q0 61 35.5 97t95.5 36t95.5 -36t35.5 -97q0 -60 -35.5 -94.5t-95.5 -34.5zM842 1329q-60 0 -95.5 34.5t-35.5 94.5q0 61 35.5 97t95.5 36t95.5 -36t35.5 -97q0 -60 -35.5 -94.5t-95.5 -34.5zM612 -20
q-196 0 -312 116t-116 314v716h185v-716q0 -127 64.5 -198t178.5 -71q116 0 182 71t66 198v716h184v-716q0 -197 -118 -313.5t-314 -116.5z" />
    <glyph glyph-name="alpha" unicode="&#x3b1;" 
d="M852 911v215h184v-1126h-184v215h-2q-14 -109 -94.5 -172t-206.5 -63q-170 0 -267.5 112t-97.5 307v330q0 193 98 305.5t267 112.5q127 0 207 -63t94 -173h2zM852 410v307q0 127 -64 198.5t-178 71.5q-117 0 -179 -69.5t-62 -200.5v-307q0 -131 62 -201t179 -70
q114 0 178 71.5t64 199.5z" />
    <glyph glyph-name="beta" unicode="&#x3b2;" 
d="M373 -369h-185v1463q0 190 120.5 306t318.5 116q194 0 312 -103.5t118 -273.5q0 -127 -63.5 -216.5t-176.5 -121.5q126 -33 197 -131t71 -244q0 -189 -121.5 -307.5t-318.5 -118.5h-272v-369zM373 1094v-926h252q122 0 194 72.5t72 191.5t-71 186.5t-195 67.5h-90v160h83
q114 0 180 71t66 185q0 113 -65.5 179.5t-180.5 66.5q-114 0 -179.5 -68t-65.5 -186z" />
    <glyph glyph-name="gamma" unicode="&#x3b3;" 
d="M707 -369h-185v369l-399 1126h194l254 -747q29 -82 52 -213q1 6 6 37.5t9 52t12.5 55.5t19.5 68l248 747h188l-399 -1126v-369z" />
    <glyph glyph-name="delta" unicode="&#x3b4;" 
d="M614 -20q-199 0 -314.5 118t-115.5 322v170q0 183 81 294t214 111q102 0 183 -65l8 8l-449 403v154h762v-154h-534l403 -356q192 -168 192 -389v-176q0 -206 -114.5 -323t-315.5 -117zM614 143q117 0 181.5 72.5t64.5 204.5v176q0 137 -65 212t-183 75q-117 0 -180 -75
t-63 -212v-176q0 -132 64 -204.5t181 -72.5z" />
    <glyph glyph-name="epsilon" unicode="&#x3b5;" 
d="M668 -14h-97q-189 0 -298 87t-109 238q0 122 73.5 197t202.5 84v8q-122 8 -191 73t-69 173q0 134 105.5 214.5t285.5 80.5h103q166 0 271.5 -77.5t125.5 -213.5h-194q-11 59 -64.5 93t-138.5 34h-103q-91 0 -143.5 -42t-52.5 -114t51.5 -114.5t140.5 -42.5h232v-160h-228
q-98 0 -155.5 -48t-57.5 -130q0 -83 57 -129.5t156 -46.5h97q94 0 156.5 31.5t76.5 84.5h195q-22 -130 -136 -205t-292 -75z" />
    <glyph glyph-name="zeta" unicode="&#x3b6;" 
d="M1096 -369h-185v271q0 98 -98 98h-262q-194 0 -303 94t-109 250q0 149 104 325t296 361l305 297h-660v168h850v-184l-379 -385q-156 -159 -243.5 -308t-87.5 -262q0 -90 60.5 -141t168.5 -51h260q152 0 217.5 -60t65.5 -202v-271z" />
    <glyph glyph-name="eta" unicode="&#x3b7;" 
d="M674 1147q169 0 269.5 -105t100.5 -284v-1127h-184v1106q0 119 -64 186.5t-175 67.5q-116 0 -182 -72t-66 -202v-717h-185v1126h185v-215h2q13 112 91.5 174t207.5 62z" />
    <glyph glyph-name="theta" unicode="&#x3b8;" 
d="M614 -20q-201 0 -317.5 114.5t-116.5 315.5v655q0 201 116.5 315.5t317.5 114.5t318 -114.5t117 -313.5v-657q0 -200 -116.5 -315t-318.5 -115zM365 1065v-240h499v240q0 130 -64.5 198t-185.5 68t-185 -68t-64 -198zM614 143q121 0 185.5 68.5t64.5 198.5v256h-499v-256
q0 -130 64.5 -198.5t184.5 -68.5z" />
    <glyph glyph-name="iota" unicode="&#x3b9;" 
d="M1126 0h-276q-149 0 -238.5 86t-89.5 231v641h-409v168h594v-809q0 -69 38.5 -109t104.5 -40h276v-168z" />
    <glyph glyph-name="kappa" unicode="&#x3ba;" 
d="M379 0h-184v1126h184v-464h217l328 464h211l-379 -536l385 -590h-215l-328 502h-219v-502z" />
    <glyph glyph-name="lambda" unicode="&#x3bb;" 
d="M301 0h-199l418 1108l-151 387h196l561 -1495h-196l-268 731q-16 42 -28 84t-21.5 80t-12.5 49q0 -96 -41 -213z" />
    <glyph glyph-name="uni03BC" unicode="&#x3bc;" 
d="M854 410v716h184v-1126h-180v215h-6q-8 -114 -65.5 -174.5t-178.5 -60.5q-120 0 -172.5 59.5t-58.5 175.5h-6l4 -256v-328h-185v1495h185v-716q0 -128 61 -199.5t174 -71.5q114 0 179 72t65 199z" />
    <glyph glyph-name="nu" unicode="&#x3bd;" 
d="M735 0h-241l-412 1126h190l283 -757q15 -39 27 -83t23 -90t13 -55q3 10 13 54.5t22 89t27 84.5l274 757h193z" />
    <glyph glyph-name="xi" unicode="&#x3be;" 
d="M678 168h196q131 0 207 -71.5t76 -194.5v-267h-184v267q0 44 -27.5 71t-71.5 27h-196q-232 0 -368 118.5t-136 319.5q0 148 76.5 245.5t212.5 125.5q-120 27 -187 108.5t-67 206.5q0 170 120 270.5t324 100.5h379v-168h-379q-117 0 -184.5 -60.5t-67.5 -164.5
q0 -105 67.5 -166.5t184.5 -61.5h314v-163h-305q-135 0 -214 -73.5t-79 -199.5q0 -125 83.5 -197.5t225.5 -72.5z" />
    <glyph glyph-name="omicron" unicode="&#x3bf;" 
d="M614 -16q-204 0 -322 115.5t-118 314.5v299q0 199 118 314.5t322 115.5t322.5 -115t118.5 -313v-301q0 -199 -118.5 -314.5t-322.5 -115.5zM614 147q121 0 188.5 69t67.5 198v299q0 129 -67.5 197.5t-188.5 68.5t-188.5 -68.5t-67.5 -197.5v-299q0 -129 67.5 -198
t188.5 -69z" />
    <glyph glyph-name="pi" unicode="&#x3c0;" 
d="M1137 -10h-39q-155 0 -248.5 97.5t-93.5 260.5v615h-355v-963h-178v963h-172v163h1084v-163h-203v-627q0 -84 41 -129t114 -45h50v-172z" />
    <glyph glyph-name="rho" unicode="&#x3c1;" 
d="M621 1147q198 0 310.5 -111.5t112.5 -306.5v-330q0 -195 -97 -307t-267 -112q-126 0 -206.5 63t-94.5 172h-6l4 -256v-328h-184v1098q0 193 115 305.5t313 112.5zM860 410v307q0 131 -62.5 200.5t-179.5 69.5t-179 -69.5t-62 -200.5v-307q0 -128 63.5 -199.5t177.5 -71.5
q117 0 179.5 70t62.5 201z" />
    <glyph glyph-name="uni03C2" unicode="&#x3c2;" 
d="M1106 -369h-184v271q0 47 -26 72.5t-73 25.5h-200q-208 0 -328.5 106.5t-120.5 303.5v307q0 200 122 315t327 115q195 0 313.5 -104.5t124.5 -284.5h-184q-6 107 -73 166t-181 59q-123 0 -194 -69.5t-71 -194.5v-309q0 -124 69.5 -185t195.5 -61h200q135 0 209 -68.5
t74 -193.5v-271z" />
    <glyph glyph-name="sigma" unicode="&#x3c3;" 
d="M1167 1126v-168h-346v-6q103 -9 162 -77.5t59 -178.5v-286q0 -194 -119 -312t-315 -118t-315 118t-119 312v286q0 194 119 312t315 118h559zM858 410v286q0 123 -66.5 195t-183.5 72t-183.5 -72t-66.5 -195v-286q0 -123 66.5 -195t183.5 -72t183.5 72t66.5 195z" />
    <glyph glyph-name="tau" unicode="&#x3c4;" 
d="M1044 0h-256q-146 0 -226.5 78t-80.5 219v661h-358v168h952v-168h-409v-661q0 -66 29.5 -97.5t92.5 -31.5h256v-168z" />
    <glyph glyph-name="upsilon" unicode="&#x3c5;" 
d="M612 -20q-196 0 -312 116t-116 314v716h185v-716q0 -127 64.5 -198t178.5 -71q116 0 182 71t66 198v716h184v-716q0 -197 -118 -313.5t-314 -116.5z" />
    <glyph glyph-name="phi" unicode="&#x3c6;" 
d="M698 -369h-168v369q-195 0 -306 111t-111 303v712h170v-712q0 -127 68 -198t190 -71v981h221q163 0 258.5 -88t95.5 -239v-385q0 -192 -111 -303t-307 -111v-369zM688 983v-838q121 0 189.5 71.5t68.5 197.5v385q0 86 -49 135t-135 49h-74z" />
    <glyph glyph-name="chi" unicode="&#x3c7;" 
d="M287 -369h-205l430 758l-408 737h213l232 -442q14 -27 39 -77.5t30 -59.5q27 61 68 137l236 442h202l-407 -725l430 -770h-211l-256 475q-43 80 -68 140q-29 -69 -67 -137z" />
    <glyph glyph-name="psi" unicode="&#x3c8;" 
d="M698 -369h-168v369q-195 0 -307 111t-112 303v712h170v-712q0 -126 68 -195t192 -69v976h147v-976q124 0 192 69t68 195v712h170v-712q0 -192 -112.5 -303t-307.5 -111v-369z" />
    <glyph glyph-name="omega" unicode="&#x3c9;" 
d="M819 942v195q138 -22 217.5 -130t79.5 -274v-424q0 -154 -69 -241.5t-189 -87.5q-101 0 -165 58t-79 161q-15 -103 -78.5 -161t-164.5 -58q-120 0 -189 87.5t-69 241.5v424q0 171 76.5 281.5t209.5 132.5v-195q-53 -10 -82.5 -68.5t-29.5 -150.5v-426q0 -83 32.5 -127.5
t92.5 -44.5t93.5 44.5t33.5 127.5v400h151v-400q0 -83 33.5 -127.5t93.5 -44.5t92.5 44.5t32.5 127.5v426q0 85 -32.5 141t-90.5 68z" />
    <glyph glyph-name="iotadieresis" unicode="&#x3ca;" 
d="M387 1329q-60 0 -95.5 34.5t-35.5 94.5q0 61 35.5 97t95.5 36t95.5 -36t35.5 -97q0 -60 -35.5 -94.5t-95.5 -34.5zM842 1329q-60 0 -95.5 34.5t-35.5 94.5q0 61 35.5 97t95.5 36t95.5 -36t35.5 -97q0 -60 -35.5 -94.5t-95.5 -34.5zM1126 0h-276q-149 0 -238.5 86
t-89.5 231v641h-409v168h594v-809q0 -69 38.5 -109t104.5 -40h276v-168z" />
    <glyph glyph-name="upsilondieresis" unicode="&#x3cb;" 
d="M387 1329q-60 0 -95.5 34.5t-35.5 94.5q0 61 35.5 97t95.5 36t95.5 -36t35.5 -97q0 -60 -35.5 -94.5t-95.5 -34.5zM842 1329q-60 0 -95.5 34.5t-35.5 94.5q0 61 35.5 97t95.5 36t95.5 -36t35.5 -97q0 -60 -35.5 -94.5t-95.5 -34.5zM612 -20q-196 0 -312 116t-116 314v716
h185v-716q0 -127 64.5 -198t178.5 -71q116 0 182 71t66 198v716h184v-716q0 -197 -118 -313.5t-314 -116.5z" />
    <glyph glyph-name="omicrontonos" unicode="&#x3cc;" 
d="M684 1321h-188l217 287h198zM614 -16q-204 0 -322 115.5t-118 314.5v299q0 199 118 314.5t322 115.5t322.5 -115t118.5 -313v-301q0 -199 -118.5 -314.5t-322.5 -115.5zM614 147q121 0 188.5 69t67.5 198v299q0 129 -67.5 197.5t-188.5 68.5t-188.5 -68.5t-67.5 -197.5
v-299q0 -129 67.5 -198t188.5 -69z" />
    <glyph glyph-name="upsilontonos" unicode="&#x3cd;" 
d="M684 1321h-188l217 287h198zM612 -20q-196 0 -312 116t-116 314v716h185v-716q0 -127 64.5 -198t178.5 -71q116 0 182 71t66 198v716h184v-716q0 -197 -118 -313.5t-314 -116.5z" />
    <glyph glyph-name="omegatonos" unicode="&#x3ce;" 
d="M692 1608h199l-227 -287h-189zM819 942v195q138 -22 217.5 -130t79.5 -274v-424q0 -154 -69 -241.5t-189 -87.5q-101 0 -165 58t-79 161q-15 -103 -78.5 -161t-164.5 -58q-120 0 -189 87.5t-69 241.5v424q0 171 76.5 281.5t209.5 132.5v-195q-53 -10 -82.5 -68.5
t-29.5 -150.5v-426q0 -83 32.5 -127.5t92.5 -44.5t93.5 44.5t33.5 127.5v400h151v-400q0 -83 33.5 -127.5t93.5 -44.5t92.5 44.5t32.5 127.5v426q0 85 -32.5 141t-90.5 68z" />
    <glyph glyph-name="uni03CF" unicode="&#x3cf;" 
d="M756 776l317 -631h115v-145q0 -180 -98 -274.5t-285 -94.5h-60v162h60q93 0 150 56t57 151h-76l-348 692h-215v-692h-185v1495h185v-641h221l332 641h200z" />
    <glyph glyph-name="uni03D5" unicode="&#x3d5;" 
d="M696 -369h-164v369q-196 0 -308.5 111t-112.5 303v303q0 190 113 299.5t308 109.5v369h164v-369q197 0 309.5 -109.5t112.5 -299.5v-303q0 -192 -113 -303t-309 -111v-369zM537 145v836q-120 0 -187 -69.5t-67 -194.5v-303q0 -126 67 -197.5t187 -71.5zM692 981v-836
q120 0 187 71.5t67 197.5v303q0 125 -67 194.5t-187 69.5z" />
    <glyph glyph-name="uni03D6" unicode="&#x3d6;" 
d="M31 1126h1167v-168h-235q74 -34 113.5 -102t39.5 -162v-385q0 -154 -69 -241.5t-189 -87.5q-101 0 -165 58t-79 161q-15 -103 -78.5 -161t-164.5 -58q-120 0 -189 87.5t-69 241.5v385q0 94 39.5 162t113.5 102h-235v168zM942 307v479q0 83 -32.5 127.5t-92.5 44.5h-405
q-60 0 -92.5 -44.5t-32.5 -127.5v-479q0 -83 32.5 -127.5t92.5 -44.5t93.5 44.5t33.5 127.5v400h151v-400q0 -83 33.5 -127.5t93.5 -44.5t92.5 44.5t32.5 127.5z" />
    <glyph glyph-name="uni03D7" unicode="&#x3d7;" 
d="M1040 1126v-981h86v-145q0 -180 -98 -274.5t-285 -94.5h-59v162h59q93 0 150 56t57 151h-86v614q0 167 23 351l-463 -965h-236v1126h177v-614q0 -164 -23 -348l463 962h235z" />
    <glyph glyph-name="uni0401" unicode="&#x401;" 
d="M428 1673q-60 0 -95.5 34.5t-35.5 94.5q0 61 35.5 97t95.5 36t95.5 -36t35.5 -97q0 -60 -35.5 -94.5t-95.5 -34.5zM883 1673q-60 0 -95.5 34.5t-35.5 94.5q0 61 35.5 97t95.5 36t95.5 -36t35.5 -97q0 -60 -35.5 -94.5t-95.5 -34.5zM1065 0h-860v1495h860v-168h-678v-463
h606v-164h-606v-532h678v-168z" />
    <glyph glyph-name="uni0402" unicode="&#x402;" 
d="M676 -369h-144v168h144q109 0 172 62.5t63 169.5v575q0 124 -45.5 188t-132.5 64q-115 0 -233 -127l-90 -96v-635h-185v1333h-225v162h655v-162h-245v-522l32 35q155 168 334 168q145 0 232.5 -100t87.5 -267v-616q0 -181 -114.5 -290.5t-305.5 -109.5z" />
    <glyph glyph-name="uni0403" unicode="&#x403;" 
d="M725 1659h-188l217 287h198zM451 0h-185v1495h871v-168h-686v-1327z" />
    <glyph glyph-name="uni0404" unicode="&#x404;" 
d="M623 -20q-204 0 -321.5 114.5t-117.5 315.5v675q0 201 117.5 316t321.5 115q201 0 317.5 -116.5t116.5 -314.5h-185q0 128 -64.5 197.5t-184.5 69.5q-121 0 -187.5 -69.5t-66.5 -195.5v-249h460v-168h-460v-260q0 -128 66.5 -197.5t187.5 -69.5q120 0 184.5 69.5
t64.5 197.5h185q0 -198 -116.5 -314t-317.5 -116z" />
    <glyph glyph-name="uni0405" unicode="&#x405;" 
d="M623 -20q-217 0 -346.5 112t-129.5 301h185q0 -113 79.5 -181.5t211.5 -68.5q127 0 202.5 68.5t75.5 181.5q0 88 -46.5 154.5t-125.5 91.5l-221 70q-151 47 -235.5 154.5t-84.5 252.5q0 183 119.5 291.5t319.5 108.5q198 0 317 -108.5t119 -291.5h-184q0 107 -68.5 171.5
t-183.5 64.5q-117 0 -187.5 -64t-70.5 -168q0 -83 46 -142t130 -85l229 -74q142 -46 224.5 -160t82.5 -266q0 -189 -124.5 -301t-333.5 -112z" />
    <glyph glyph-name="uni0406" unicode="&#x406;" 
d="M1014 0h-799v168h305v1159h-305v168h799v-168h-305v-1159h305v-168z" />
    <glyph glyph-name="uni0407" unicode="&#x407;" 
d="M387 1673q-60 0 -95.5 34.5t-35.5 94.5q0 61 35.5 97t95.5 36t95.5 -36t35.5 -97q0 -60 -35.5 -94.5t-95.5 -34.5zM842 1673q-60 0 -95.5 34.5t-35.5 94.5q0 61 35.5 97t95.5 36t95.5 -36t35.5 -97q0 -60 -35.5 -94.5t-95.5 -34.5zM1014 0h-799v168h305v1159h-305v168
h799v-168h-305v-1159h305v-168z" />
    <glyph glyph-name="uni0408" unicode="&#x408;" 
d="M553 -20q-215 0 -338 120.5t-123 329.5h184q0 -136 73 -211.5t204 -75.5t203.5 75.5t72.5 211.5v897h-419v168h604v-1065q0 -209 -123.5 -329.5t-337.5 -120.5z" />
    <glyph glyph-name="uni0409" unicode="&#x409;" 
d="M20 -10h-30v164h37q52 0 82 64.5t32 178.5l11 1098h585v-614h123q148 0 238 -87.5t90 -230.5v-246q0 -143 -90 -230t-238 -87h-287v1341h-260l-10 -944q-1 -189 -77.5 -298t-205.5 -109zM737 727v-573h123q74 0 119 45t45 118v246q0 73 -45 118.5t-119 45.5h-123z" />
    <glyph glyph-name="uni040A" unicode="&#x40a;" 
d="M272 0h-163v1495h163v-614h301v614h164v-614h123q151 0 239.5 -86t88.5 -232v-246q0 -146 -88.5 -231.5t-239.5 -85.5h-287v727h-301v-727zM737 727v-573h123q77 0 120.5 43.5t43.5 119.5v246q0 77 -44 120.5t-120 43.5h-123z" />
    <glyph glyph-name="uni040B" unicode="&#x40b;" 
d="M410 0h-185v1333h-225v162h655v-162h-245v-522l32 35q155 168 334 168q145 0 232.5 -100t87.5 -267v-647h-185v606q0 124 -45.5 188t-132.5 64q-115 0 -233 -127l-90 -96v-635z" />
    <glyph glyph-name="uni040C" unicode="&#x40c;" 
d="M684 1659h-188l217 287h198zM373 0h-185v1495h185v-641h221l332 641h200l-370 -719l391 -776h-211l-348 692h-215v-692z" />
    <glyph glyph-name="uni040E" unicode="&#x40e;" 
d="M614 1649q-148 0 -237.5 81.5t-89.5 215.5h145q0 -80 49.5 -129.5t130.5 -49.5q83 0 134 49.5t51 129.5h145q0 -134 -90 -215.5t-238 -81.5zM588 0h-197l152 387l-441 1108h201l268 -731q51 -137 64 -225q15 105 55 225l236 731h200z" />
    <glyph glyph-name="uni040F" unicode="&#x40f;" 
d="M707 -256h-185v256h-329v1495h184v-1327h475v1327h184v-1495h-329v-256z" />
    <glyph glyph-name="uni0410" unicode="&#x410;" 
d="M291 0h-189l390 1495h247l387 -1495h-186l-98 397h-453zM541 1016l-115 -463h377l-115 461q-58 233 -74 334q-18 -114 -73 -332z" />
    <glyph glyph-name="uni0411" unicode="&#x411;" 
d="M625 0h-432v1495h831v-168h-647v-450h248q213 0 336.5 -119t123.5 -320q0 -200 -123.5 -319t-336.5 -119zM377 709v-541h248q126 0 198 72t72 198t-72 198.5t-198 72.5h-248z" />
    <glyph glyph-name="uni0412" unicode="&#x412;" 
d="M825 791q122 -34 191 -132.5t69 -242.5q0 -192 -118 -304t-322 -112h-455v1495h424q204 0 320.5 -103t116.5 -284q0 -121 -60 -204.5t-166 -112.5zM614 1329h-243v-471h241q118 0 187 63.5t69 172.5t-68 172t-186 63zM371 166h254q129 0 203.5 68.5t74.5 187.5
q0 124 -75 200t-203 76h-254v-532z" />
    <glyph glyph-name="uni0413" unicode="&#x413;" 
d="M451 0h-185v1495h871v-168h-686v-1327z" />
    <glyph glyph-name="uni0414" unicode="&#x414;" 
d="M215 -287h-164v445h92q40 74 74 197t37 255l14 885h766v-1337h144v-445h-164v287h-799v-287zM336 158h514v1173h-406l-10 -721q-1 -144 -31.5 -267t-66.5 -185z" />
    <glyph glyph-name="uni0415" unicode="&#x415;" 
d="M1065 0h-860v1495h860v-168h-678v-463h606v-164h-606v-532h678v-168z" />
    <glyph glyph-name="uni0416" unicode="&#x416;" 
d="M213 0h-188l270 770l-250 725h193l213 -664h86v664h155v-664h88l211 664h193l-246 -727l266 -768h-190l-230 700h-92v-700h-155v700h-93z" />
    <glyph glyph-name="uni0417" unicode="&#x417;" 
d="M803 793q131 -28 206.5 -126.5t75.5 -246.5q0 -198 -135 -319t-358 -121q-214 0 -346 113.5t-135 299.5h184q3 -112 84.5 -181t212.5 -69q138 0 222.5 76t84.5 201q0 124 -84.5 200t-222.5 76h-186v164h184q124 0 200 68t76 178t-76 178t-200 68q-126 0 -202.5 -70
t-76.5 -186h-184q0 189 128.5 304.5t340.5 115.5q206 0 330.5 -109t124.5 -289q0 -128 -66 -213.5t-182 -111.5z" />
    <glyph glyph-name="uni0418" unicode="&#x418;" 
d="M430 0h-246v1495h178v-840q0 -215 -18 -440l455 1280h245v-1495h-178v840q0 178 21 440z" />
    <glyph glyph-name="uni0419" unicode="&#x419;" 
d="M614 1649q-148 0 -237.5 81.5t-89.5 215.5h145q0 -80 49.5 -129.5t130.5 -49.5q83 0 134 49.5t51 129.5h145q0 -134 -90 -215.5t-238 -81.5zM430 0h-246v1495h178v-840q0 -215 -18 -440l455 1280h245v-1495h-178v840q0 178 21 440z" />
    <glyph glyph-name="uni041A" unicode="&#x41a;" 
d="M373 0h-185v1495h185v-641h221l332 641h200l-370 -719l391 -776h-211l-348 692h-215v-692z" />
    <glyph glyph-name="uni041B" unicode="&#x41b;" 
d="M88 -10h-47v172h37q91 0 130 81t42 277l16 975h770v-1495h-184v1327h-403l-15 -807q-5 -276 -87 -403t-259 -127z" />
    <glyph glyph-name="uni041C" unicode="&#x41c;" 
d="M336 0h-180v1495h241l160 -483q34 -103 61 -230q25 117 62 232l151 481h242v-1495h-180v707q0 303 53 696l-244 -748h-176l-245 748q55 -393 55 -696v-707z" />
    <glyph glyph-name="uni041D" unicode="&#x41d;" 
d="M375 0h-185v1495h185v-639h479v639h184v-1495h-184v688h-479v-688z" />
    <glyph glyph-name="uni041E" unicode="&#x41e;" 
d="M614 -20q-201 0 -317.5 114.5t-116.5 315.5v675q0 201 116.5 316t317.5 115t318 -115t117 -314v-677q0 -200 -116.5 -315t-318.5 -115zM614 145q120 0 185 69t65 196v675q0 127 -65 196t-185 69t-184.5 -68.5t-64.5 -196.5v-675q0 -128 64.5 -196.5t184.5 -68.5z" />
    <glyph glyph-name="uni041F" unicode="&#x41f;" 
d="M377 0h-184v1495h843v-1495h-184v1327h-475v-1327z" />
    <glyph glyph-name="uni0420" unicode="&#x420;" 
d="M373 0h-185v1495h482q209 0 332.5 -119.5t123.5 -320.5t-123.5 -321t-332.5 -120h-297v-614zM373 1329v-549h297q122 0 194 74.5t72 200.5t-72 200t-194 74h-297z" />
    <glyph glyph-name="uni0421" unicode="&#x421;" 
d="M623 -20q-205 0 -324 115t-119 315v675q0 200 119 315.5t324 115.5q201 0 319.5 -116.5t118.5 -314.5h-184q0 127 -66.5 196t-187.5 69q-122 0 -190 -69t-68 -194v-677q0 -127 68 -196t190 -69q121 0 187.5 69t66.5 196h184q0 -198 -118.5 -314t-319.5 -116z" />
    <glyph glyph-name="uni0422" unicode="&#x422;" 
d="M707 0h-185v1327h-409v168h1003v-168h-409v-1327z" />
    <glyph glyph-name="uni0423" unicode="&#x423;" 
d="M588 0h-197l152 387l-441 1108h201l268 -731q51 -137 64 -225q15 105 55 225l236 731h200z" />
    <glyph glyph-name="uni0424" unicode="&#x424;" 
d="M700 -51h-172v143q-189 0 -303 116.5t-114 309.5v479q0 198 113.5 317.5t303.5 119.5v143h172v-143q190 0 304 -119.5t114 -317.5v-479q0 -193 -114.5 -309.5t-303.5 -116.5v-143zM528 248v1030q-115 0 -180 -75t-65 -206v-479q0 -126 65 -198t180 -72zM700 1278v-1030
q115 0 180.5 72t65.5 198v479q0 131 -65.5 206t-180.5 75z" />
    <glyph glyph-name="uni0425" unicode="&#x425;" 
d="M287 0h-205l430 758l-408 737h213l232 -442q14 -27 39 -77.5t30 -60.5q30 67 68 138l236 442h202l-407 -725l430 -770h-211l-256 475q-45 84 -68 139q-29 -69 -67 -137z" />
    <glyph glyph-name="uni0426" unicode="&#x426;" 
d="M1157 -287h-164v287h-800v1495h184v-1331h442v1331h185v-1331h153v-451z" />
    <glyph glyph-name="uni0427" unicode="&#x427;" 
d="M1034 0h-184v586q-38 -12 -121.5 -21.5t-161.5 -9.5q-204 0 -308.5 93.5t-104.5 275.5v571h184v-571q0 -101 66 -153t194 -52q77 0 150.5 8.5t101.5 20.5v747h184v-1495z" />
    <glyph glyph-name="uni0428" unicode="&#x428;" 
d="M1098 0h-963l-4 1495h172v-1356h240v1356h147v-1356h238v1356h170v-1495z" />
    <glyph glyph-name="uni0429" unicode="&#x429;" 
d="M1178 -287h-164v287h-883v1495h166v-1339h238v1339h143v-1339h237v1339h166v-1339h97v-443z" />
    <glyph glyph-name="uni042A" unicode="&#x42a;" 
d="M676 0h-400v1327h-286v168h471v-614h215q201 0 325.5 -121.5t124.5 -319.5q0 -197 -124.5 -318.5t-325.5 -121.5zM461 713v-545h205q122 0 196 74.5t74 197.5t-74 198t-196 75h-205z" />
    <glyph glyph-name="uni042B" unicode="&#x42b;" 
d="M389 0h-256v1495h172v-614h84q186 0 294 -104.5t108 -284.5v-105q0 -181 -107 -284t-295 -103zM1096 0h-172v1495h172v-1495zM305 719v-557h84q107 0 166 60t59 167v103q0 107 -59 167t-166 60h-84z" />
    <glyph glyph-name="uni042C" unicode="&#x42c;" 
d="M676 0h-483v1495h184v-614h299q201 0 325.5 -121.5t124.5 -319.5q0 -197 -124.5 -318.5t-325.5 -121.5zM377 713v-545h289q122 0 196 74.5t74 197.5t-74 198t-196 75h-289z" />
    <glyph glyph-name="uni042D" unicode="&#x42d;" 
d="M606 -20q-201 0 -317.5 116t-116.5 314h184q0 -128 65 -197.5t185 -69.5q121 0 187.5 69.5t66.5 197.5v260h-461v168h461v249q0 126 -66.5 195.5t-187.5 69.5q-120 0 -185 -69.5t-65 -197.5h-184q0 198 116.5 314.5t317.5 116.5q204 0 321 -115t117 -316v-675
q0 -201 -117 -315.5t-321 -114.5z" />
    <glyph glyph-name="uni042E" unicode="&#x42e;" 
d="M797 -20q-158 0 -250 104.5t-92 284.5v317h-162v-686h-170v1495h170v-645h162v276q0 182 91 286t251 104q162 0 256 -105t94 -285v-757q0 -180 -93.5 -284.5t-256.5 -104.5zM797 139q87 0 133.5 59.5t46.5 170.5v757q0 111 -46.5 170.5t-133.5 59.5q-88 0 -134.5 -59.5
t-46.5 -170.5v-757q0 -111 46.5 -170.5t134.5 -59.5z" />
    <glyph glyph-name="uni042F" unicode="&#x42f;" 
d="M328 0h-213l307 655q-136 41 -213.5 150t-77.5 260q0 192 122.5 311t321.5 119h459v-1495h-184v635h-238zM575 799h275v532h-275q-114 0 -183.5 -73t-69.5 -193t69 -193t184 -73z" />
    <glyph glyph-name="uni0430" unicode="&#x430;" 
d="M625 1147q193 0 306 -100.5t113 -272.5v-774h-180v215h-2q-12 -109 -105 -172t-241 -63q-178 0 -280.5 90t-102.5 247q0 156 102.5 247t276.5 91h348v113q0 103 -62.5 160t-172.5 57q-98 0 -166.5 -43.5t-83.5 -112.5h-185q15 141 136.5 229.5t298.5 88.5zM561 125
q131 0 215 65t84 168v160h-344q-92 0 -145.5 -51t-53.5 -139q0 -95 64.5 -149t179.5 -54z" />
    <glyph glyph-name="uni0431" unicode="&#x431;" 
d="M672 1034q178 0 282.5 -116t104.5 -314v-184q0 -202 -119 -321t-322 -119q-202 0 -321 119t-119 321v512q0 260 143.5 411.5t389.5 151.5h286v-182h-286q-160 0 -256.5 -103.5t-96.5 -277.5v-113h4q15 101 98.5 158t211.5 57zM874 420v184q0 128 -69 202.5t-187 74.5
t-187 -74.5t-69 -202.5v-184q0 -128 69 -202.5t187 -74.5t187 74.5t69 202.5z" />
    <glyph glyph-name="uni0432" unicode="&#x432;" 
d="M688 0h-500v1126h484q169 0 267.5 -76.5t98.5 -207.5q0 -104 -65.5 -168t-177.5 -68v-8q127 -3 203.5 -79.5t76.5 -201.5q0 -146 -104 -231.5t-283 -85.5zM369 965v-310h303q86 0 135 41.5t49 114.5q0 72 -49 113t-135 41h-303zM369 504v-342h319q97 0 151 45t54 127
q0 80 -54 125t-151 45h-319z" />
    <glyph glyph-name="uni0433" unicode="&#x433;" 
d="M451 0h-185v1126h809v-168h-624v-958z" />
    <glyph glyph-name="uni0434" unicode="&#x434;" 
d="M225 -287h-164v445h93q40 42 74.5 147.5t37.5 249.5l13 571h735v-968h143v-445h-164v287h-768v-287zM348 158h481v805h-376l-9 -412q-3 -149 -32 -253t-64 -140z" />
    <glyph glyph-name="uni0435" unicode="&#x435;" 
d="M1055 717v-199h-701v-108q0 -133 67 -204t193 -71q107 0 172 39t80 113h185q-19 -140 -138.5 -223.5t-298.5 -83.5q-200 0 -320 117.5t-120 312.5v307q0 195 120 312.5t320 117.5t320.5 -117.5t120.5 -312.5zM354 717v-60h520v60q0 134 -67 205t-193 71t-193 -71
t-67 -205z" />
    <glyph glyph-name="uni0436" unicode="&#x436;" 
d="M219 0h-182l246 578l-230 548h178l197 -491h109v491h155v-491h105l202 491h177l-230 -542l246 -584h-184l-205 512h-111v-512h-155v512h-111z" />
    <glyph glyph-name="uni0437" unicode="&#x437;" 
d="M657 -14h-106q-174 0 -286 75t-132 205h195q9 -54 69 -85t154 -31h106q98 0 155.5 48.5t57.5 125.5q0 83 -55.5 131.5t-157.5 48.5h-268v160h252q93 0 143 42.5t50 116.5q0 75 -49.5 114.5t-141.5 39.5h-94q-88 0 -145 -34t-68 -93h-195q19 135 128.5 213t279.5 78h94
q182 0 283.5 -81t101.5 -226q0 -102 -61.5 -161.5t-178.5 -66.5v-8q277 -20 277 -283q0 -151 -111 -240t-297 -89z" />
    <glyph glyph-name="uni0438" unicode="&#x438;" 
d="M424 0h-236v1126h177v-614q0 -164 -23 -348l463 962h235v-1126h-176v614q0 167 23 351z" />
    <glyph glyph-name="uni0439" unicode="&#x439;" 
d="M614 1311q-148 0 -237.5 81.5t-89.5 215.5h145q0 -80 49.5 -129t130.5 -49q83 0 134 49t51 129h145q0 -134 -90 -215.5t-238 -81.5zM424 0h-236v1126h177v-614q0 -164 -23 -348l463 962h235v-1126h-176v614q0 167 23 351z" />
    <glyph glyph-name="uni043A" unicode="&#x43a;" 
d="M379 0h-184v1126h184v-464h217l328 464h211l-379 -536l385 -590h-215l-328 502h-219v-502z" />
    <glyph glyph-name="uni043B" unicode="&#x43b;" 
d="M98 -14h-47v172h37q94 0 131.5 74t40.5 264l12 630h768v-1126h-184v958h-401l-11 -471q-6 -269 -86 -385t-260 -116z" />
    <glyph glyph-name="uni043C" unicode="&#x43c;" 
d="M332 0h-176v1126h250l147 -432q35 -98 68 -229q22 104 63 231l139 430h250v-1126h-176v174q0 192 27 870l-213 -706h-187l-215 696q23 -713 23 -860v-174z" />
    <glyph glyph-name="uni043D" unicode="&#x43d;" 
d="M373 0h-185v1126h185v-464h483v464h184v-1126h-184v494h-483v-494z" />
    <glyph glyph-name="uni043E" unicode="&#x43e;" 
d="M614 -16q-204 0 -322 115.5t-118 314.5v299q0 199 118 314.5t322 115.5t322.5 -115t118.5 -313v-301q0 -199 -118.5 -314.5t-322.5 -115.5zM614 147q121 0 188.5 69t67.5 198v299q0 129 -67.5 197.5t-188.5 68.5t-188.5 -68.5t-67.5 -197.5v-299q0 -129 67.5 -198
t188.5 -69z" />
    <glyph glyph-name="uni043F" unicode="&#x43f;" 
d="M373 0h-185v1126h852v-1126h-184v958h-483v-958z" />
    <glyph glyph-name="uni0440" unicode="&#x440;" 
d="M684 1147q170 0 271.5 -113t101.5 -305v-330q0 -194 -101 -306.5t-272 -112.5q-126 0 -209 63t-98 172h-6l4 -256v-328h-185v1495h185v-215h2q15 110 97 173t210 63zM872 410v307q0 130 -65.5 200t-183.5 70q-115 0 -181.5 -71.5t-66.5 -198.5v-307q0 -127 66.5 -199
t181.5 -72q118 0 183.5 70.5t65.5 200.5z" />
    <glyph glyph-name="uni0441" unicode="&#x441;" 
d="M623 -20q-205 0 -327 115t-122 315v307q0 200 122 315t327 115q195 0 313.5 -104.5t124.5 -284.5h-184q-6 107 -73 166t-181 59q-123 0 -194 -69.5t-71 -194.5v-309q0 -126 71 -196.5t194 -70.5q114 0 181 59.5t73 166.5h184q-6 -180 -124.5 -284.5t-313.5 -104.5z" />
    <glyph glyph-name="uni0442" unicode="&#x442;" 
d="M707 0h-185v963h-409v163h1003v-163h-409v-963z" />
    <glyph glyph-name="uni0443" unicode="&#x443;" 
d="M559 -369h-192l165 439l-430 1056h201l275 -696q28 -72 49 -164q18 79 51 164l256 696h192z" />
    <glyph glyph-name="uni0444" unicode="&#x444;" 
d="M696 -369h-164v369q-196 0 -308.5 111t-112.5 303v303q0 190 113 299.5t308 109.5v369h164v-369q197 0 309.5 -109.5t112.5 -299.5v-303q0 -192 -113 -303t-309 -111v-369zM537 145v836q-120 0 -187 -69.5t-67 -194.5v-303q0 -126 67 -197.5t187 -71.5zM692 981v-836
q120 0 187 71.5t67 197.5v303q0 125 -67 194.5t-187 69.5z" />
    <glyph glyph-name="uni0445" unicode="&#x445;" 
d="M317 0h-215l400 580l-375 546h217l223 -348q36 -62 49 -92q13 38 48 92l225 348h215l-375 -548l397 -578h-217l-241 369q-16 24 -52 100q-28 -58 -55 -100z" />
    <glyph glyph-name="uni0446" unicode="&#x446;" 
d="M1157 -287h-164v287h-805v1126h185v-962h446v962h185v-962h153v-451z" />
    <glyph glyph-name="uni0447" unicode="&#x447;" 
d="M1024 0h-184v401q-72 -14 -240 -14q-224 -2 -332 84t-108 266v389h184v-389q0 -97 62.5 -140.5t199.5 -43.5q192 0 234 10v563h184v-1126z" />
    <glyph glyph-name="uni0448" unicode="&#x448;" 
d="M1106 0h-979l-4 1126h172v-970h248v970h147v-970h246v970h170v-1126z" />
    <glyph glyph-name="uni0449" unicode="&#x449;" 
d="M1178 -287h-164v287h-891v1126h166v-970h241v970h144v-970h241v970h166v-970h97v-443z" />
    <glyph glyph-name="uni044A" unicode="&#x44a;" 
d="M707 0h-420v963h-287v163h471v-413h236q190 0 299.5 -95.5t109.5 -261.5q0 -164 -110 -260t-299 -96zM471 545v-377h236q106 0 162.5 48t56.5 140t-56.5 140.5t-162.5 48.5h-236z" />
    <glyph glyph-name="uni044B" unicode="&#x44b;" 
d="M397 0h-264v1126h172v-413h92q183 0 288.5 -95.5t105.5 -261.5t-105.5 -261t-288.5 -95zM1096 0h-172v1126h172v-1126zM305 565v-418h92q107 0 168.5 55.5t61.5 153.5t-61.5 153.5t-168.5 55.5h-92z" />
    <glyph glyph-name="uni044C" unicode="&#x44c;" 
d="M707 0h-506v1126h184v-413h322q190 0 299.5 -95.5t109.5 -261.5q0 -164 -110 -260t-299 -96zM385 545v-377h322q106 0 162.5 48t56.5 140t-56.5 140.5t-162.5 48.5h-322z" />
    <glyph glyph-name="uni044D" unicode="&#x44d;" 
d="M610 -20q-195 0 -313.5 103t-124.5 277h184q6 -102 73 -159.5t181 -57.5q122 0 193 70t71 195v84h-374v163h374v62q0 126 -70.5 196t-193.5 70q-113 0 -180.5 -57.5t-73.5 -157.5h-184q6 172 125 275.5t313 103.5q205 0 327 -115t122 -315v-307q0 -200 -122 -315
t-327 -115z" />
    <glyph glyph-name="uni044E" unicode="&#x44e;" 
d="M809 -20q-146 0 -230.5 94t-84.5 254v170h-201v-498h-170v1126h170v-481h201v154q0 160 84.5 254t230.5 94q155 0 246.5 -94t91.5 -254v-471q0 -160 -91.5 -254t-246.5 -94zM811 123q76 0 121 55.5t45 149.5v471q0 94 -45 149.5t-121 55.5q-75 0 -118.5 -55.5
t-43.5 -149.5v-471q0 -94 43.5 -149.5t118.5 -55.5z" />
    <glyph glyph-name="uni044F" unicode="&#x44f;" 
d="M346 0h-213l285 434q-123 29 -194.5 120.5t-71.5 217.5q0 163 110 258.5t299 95.5h479v-1126h-184v422h-248zM561 582h295v383h-295q-101 0 -161 -52t-60 -141q0 -88 60 -139t161 -51z" />
    <glyph glyph-name="uni0451" unicode="&#x451;" 
d="M387 1329q-60 0 -95.5 34.5t-35.5 94.5q0 61 35.5 97t95.5 36t95.5 -36t35.5 -97q0 -60 -35.5 -94.5t-95.5 -34.5zM842 1329q-60 0 -95.5 34.5t-35.5 94.5q0 61 35.5 97t95.5 36t95.5 -36t35.5 -97q0 -60 -35.5 -94.5t-95.5 -34.5zM1055 717v-199h-701v-108
q0 -133 67 -204t193 -71q107 0 172 39t80 113h185q-19 -140 -138.5 -223.5t-298.5 -83.5q-200 0 -320 117.5t-120 312.5v307q0 195 120 312.5t320 117.5t320.5 -117.5t120.5 -312.5zM354 717v-60h520v60q0 134 -67 205t-193 71t-193 -71t-67 -205z" />
    <glyph glyph-name="uni0452" unicode="&#x452;" 
d="M674 1024q169 0 267.5 -104.5t98.5 -284.5v-572q0 -198 -122.5 -315t-329.5 -117h-76v170h76q128 0 198 68t70 194v551q0 120 -62.5 187t-172.5 67q-116 0 -180 -72t-64 -202v-594h-184v1167h-193v154h193v174h184v-174h340v-154h-340v-379h2q12 113 89 174.5t206 61.5z
" />
    <glyph glyph-name="uni0453" unicode="&#x453;" 
d="M745 1321h-188l217 287h199zM451 0h-185v1126h809v-168h-624v-958z" />
    <glyph glyph-name="uni0454" unicode="&#x454;" 
d="M618 -20q-205 0 -326.5 115t-121.5 315v307q0 200 121.5 315t326.5 115q195 0 314 -103.5t125 -275.5h-185q-6 100 -73.5 157.5t-180.5 57.5q-123 0 -193.5 -70t-70.5 -196v-62h375v-163h-375v-84q0 -125 71 -195t193 -70q114 0 181 57.5t73 159.5h185
q-6 -173 -125 -276.5t-314 -103.5z" />
    <glyph glyph-name="uni0455" unicode="&#x455;" 
d="M666 -16h-86q-176 0 -286 81t-110 218h189q0 -63 59 -99.5t152 -36.5h86q106 0 160.5 43t54.5 119q0 139 -195 170l-151 25q-167 28 -247.5 106.5t-80.5 214.5q0 154 99.5 236t285.5 82h78q172 0 275.5 -77t103.5 -204h-189q0 54 -52.5 85.5t-141.5 31.5h-78
q-97 0 -149 -40t-52 -114q0 -124 174 -151l152 -25q183 -29 265.5 -107t82.5 -225q0 -159 -101 -246t-298 -87z" />
    <glyph glyph-name="uni0456" unicode="&#x456;" horiz-adv-x="1024" 
d="M543 1329q-68 0 -107 34.5t-39 94.5q0 61 39 97t107 36q67 0 106 -35.5t39 -97.5q0 -60 -39 -94.5t-106 -34.5zM932 0h-758v168h297v790h-256v168h440v-958h277v-168z" />
    <glyph glyph-name="uni0457" unicode="&#x457;" 
d="M315 1329q-60 0 -95.5 34.5t-35.5 94.5q0 61 35.5 97t95.5 36t95.5 -36t35.5 -97q0 -60 -35.5 -94.5t-95.5 -34.5zM770 1329q-60 0 -95.5 34.5t-35.5 94.5q0 61 35.5 97t95.5 36t95.5 -36t35.5 -97q0 -60 -35.5 -94.5t-95.5 -34.5zM932 0h-758v168h297v790h-256v168h440
v-958h277v-168z" />
    <glyph glyph-name="uni0458" unicode="&#x458;" horiz-adv-x="819" 
d="M494 1329q-68 0 -107 34.5t-39 94.5q0 61 39 97t107 36q67 0 106 -35.5t39 -97.5q0 -60 -39 -94.5t-106 -34.5zM178 -369h-131v170h131q128 0 198 68t70 194v895h-337v168h522v-1063q0 -198 -123 -315t-330 -117z" />
    <glyph glyph-name="uni0459" unicode="&#x459;" 
d="M41 -10h-31v174h37q51 0 82 63.5t33 169.5l8 729h563v-409h123q147 0 237.5 -87.5t90.5 -228.5v-86q0 -141 -90 -228t-238 -87h-287v969h-237l-6 -572q-2 -187 -78 -297t-207 -110zM733 565v-413h123q74 0 119 45t45 118v86q0 73 -45 118.5t-119 45.5h-123z" />
    <glyph glyph-name="uni045A" unicode="&#x45a;" 
d="M297 0h-170v1126h170v-409h285v409h149v-409h125q148 0 238 -87.5t90 -230.5v-82q0 -143 -90 -230t-238 -87h-274v563h-285v-563zM731 563v-409h125q73 0 115.5 44.5t42.5 118.5v82q0 74 -42.5 119t-115.5 45h-125z" />
    <glyph glyph-name="uni045B" unicode="&#x45b;" 
d="M188 1167h-188v154h188v174h185v-174h344v-154h-344v-379h2q13 112 91.5 174t207.5 62q169 0 269.5 -105t100.5 -284v-635h-184v614q0 119 -64 186.5t-175 67.5q-116 0 -182 -72t-66 -202v-594h-185v1167z" />
    <glyph glyph-name="uni045C" unicode="&#x45c;" 
d="M684 1321h-188l217 287h198zM379 0h-184v1126h184v-464h217l328 464h211l-379 -536l385 -590h-215l-328 502h-219v-502z" />
    <glyph glyph-name="uni045E" unicode="&#x45e;" 
d="M614 1311q-148 0 -237.5 81.5t-89.5 215.5h145q0 -80 49.5 -129t130.5 -49q83 0 134 49t51 129h145q0 -134 -90 -215.5t-238 -81.5zM559 -369h-192l165 439l-430 1056h201l275 -696q28 -72 49 -164q18 79 51 164l256 696h192z" />
    <glyph glyph-name="uni045F" unicode="&#x45f;" 
d="M707 -256h-185v256h-334v1126h185v-958h483v958h184v-1126h-333v-256z" />
    <glyph glyph-name="uni0490" unicode="&#x490;" 
d="M451 0h-185v1495h697v195h174v-363h-686v-1327z" />
    <glyph glyph-name="uni0491" unicode="&#x491;" 
d="M451 0h-185v1126h635v215h174v-383h-624v-958z" />
    <glyph glyph-name="uni0492" unicode="&#x492;" 
d="M1137 1495v-168h-686v-496h327v-163h-327v-668h-185v668h-205v163h205v664h871z" />
    <glyph glyph-name="uni0493" unicode="&#x493;" 
d="M1106 1126v-168h-625v-323h369v-139h-369v-496h-184v496h-184v139h184v491h809z" />
    <glyph glyph-name="uni049A" unicode="&#x49a;" 
d="M733 776l309 -612h156v-451h-164v287h-121l-348 692h-215v-692h-184v1495h184v-641h221l332 641h201z" />
    <glyph glyph-name="uni049B" unicode="&#x49b;" 
d="M733 590l279 -426h155v-451h-163v287h-101l-328 502h-202v-502h-185v1126h185v-464h200l328 464h211z" />
    <glyph glyph-name="uni04A2" unicode="&#x4a2;" 
d="M1030 1495v-1331h96v-451h-163v287h-117v688h-479v-688h-185v1495h185v-639h479v639h184z" />
    <glyph glyph-name="uni04A3" unicode="&#x4a3;" 
d="M1030 1126v-962h96v-451h-163v287h-117v489h-475v-489h-185v1126h185v-469h475v469h184z" />
    <glyph glyph-name="uni04AE" unicode="&#x4ae;" 
d="M707 0h-185v559l-450 936h190l297 -614q39 -81 57 -140q13 43 60 140l291 614h190l-450 -936v-559z" />
    <glyph glyph-name="uni04AF" unicode="&#x4af;" 
d="M707 -369h-185v369l-399 1126h194l254 -747q29 -82 52 -213q1 6 6 37.5t9 52t12.5 55.5t19.5 68l248 747h188l-399 -1126v-369z" />
    <glyph glyph-name="uni04B0" unicode="&#x4b0;" 
d="M967 1495h190l-450 -936h266v-153h-266v-406h-185v406h-266v153h266l-450 936h190l297 -614q39 -81 57 -140q13 43 60 140z" />
    <glyph glyph-name="uni04B1" unicode="&#x4b1;" 
d="M918 1126h188l-399 -1126h266v-154h-266v-215h-185v215h-266v154h266l-399 1126h194l254 -747q29 -82 52 -213q1 6 6 37.5t9 52t12.5 55.5t19.5 68z" />
    <glyph glyph-name="uni04B6" unicode="&#x4b6;" 
d="M1014 1495v-1331h96v-451h-164v287h-117v586q-38 -12 -121 -21.5t-161 -9.5q-204 0 -309 93.5t-105 275.5v571h184v-571q0 -101 66.5 -153t194.5 -52q76 0 149.5 8.5t101.5 20.5v747h185z" />
    <glyph glyph-name="uni04B7" unicode="&#x4b7;" 
d="M1014 1126v-962h92v-451h-164v287h-113v401q-72 -14 -239 -14q-224 -2 -332 84t-108 266v389h184v-389q0 -97 62.5 -140.5t199.5 -43.5q191 0 233 10v563h185z" />
    <glyph glyph-name="uni04BA" unicode="&#x4ba;" 
d="M195 1495h184v-586q38 12 121.5 21.5t161.5 9.5q204 0 308.5 -93.5t104.5 -275.5v-571h-184v571q0 101 -66 153t-194 52q-77 0 -151 -8t-101 -20v-748h-184v1495z" />
    <glyph glyph-name="uni04BB" unicode="&#x4bb;" 
d="M205 1126h184v-401q72 14 240 14q224 2 332 -84t108 -266v-389h-184v389q0 97 -62.5 140.5t-199.5 43.5q-192 0 -234 -10v-563h-184v1126z" />
    <glyph glyph-name="uni04D8" unicode="&#x4d8;" 
d="M608 -20q-201 0 -318.5 116t-117.5 314v428h688v249q0 122 -67.5 193.5t-184.5 71.5t-184.5 -72t-67.5 -195h-184q0 198 117.5 314.5t318.5 116.5t318.5 -116.5t117.5 -314.5v-675q0 -198 -117.5 -314t-318.5 -116zM608 143q117 0 184.5 72t67.5 195v260h-504v-260
q0 -123 67.5 -195t184.5 -72z" />
    <glyph glyph-name="uni04D9" unicode="&#x4d9;" 
d="M614 1147q200 0 320.5 -117.5t120.5 -312.5v-307q0 -195 -120.5 -312.5t-320.5 -117.5t-320 117.5t-120 312.5v198h700v109q0 133 -67 203.5t-193 70.5q-107 0 -172 -38.5t-80 -112.5h-184q19 140 138 223.5t298 83.5zM874 410v59h-520v-59q0 -134 67 -205.5t193 -71.5
t193 71.5t67 205.5z" />
    <glyph glyph-name="uni04E8" unicode="&#x4e8;" 
d="M614 -20q-201 0 -315.5 115.5t-114.5 316.5v673q0 201 114.5 316t315.5 115t315.5 -115t114.5 -316v-673q0 -200 -115.5 -316t-314.5 -116zM367 1085v-237h495v237q0 131 -63.5 200t-184.5 69t-184 -69t-63 -200zM614 141q120 0 184 70t64 201v272h-495v-272
q0 -131 63.5 -201t183.5 -70z" />
    <glyph glyph-name="uni04E9" unicode="&#x4e9;" 
d="M614 -20q-198 0 -314 116.5t-116 315.5v305q0 199 116 314.5t314 115.5q196 0 313 -116.5t117 -311.5v-307q0 -198 -116.5 -315t-313.5 -117zM365 717v-72h499v72q0 129 -65 198.5t-185 69.5t-184.5 -69.5t-64.5 -198.5zM614 141q120 0 185 70.5t65 200.5v80h-499v-80
q0 -131 64.5 -201t184.5 -70z" />
    <glyph glyph-name="uni0AEA" unicode="&#xaea;" 
d="M1073 1331l-352 -407l190 -219q154 -181 154 -340q0 -165 -124 -275t-327 -110t-326.5 110t-123.5 275q0 159 158 342l186 215l-352 409h213l247 -284l248 284h209zM614 143q120 0 193.5 68.5t73.5 169.5q0 110 -99 223l-168 197l-170 -197q-96 -111 -96 -223
q0 -101 73 -169.5t193 -68.5z" />
    <glyph glyph-name="Wgrave" unicode="&#x1e80;" 
d="M741 1659h-194l-236 287h205zM455 0h-232l-172 1495h176l113 -1106q15 -168 18 -256q27 254 27 256l139 1106h191l127 -1106l28 -256q9 133 23 256l117 1106h168l-177 -1495h-231l-127 1126q-22 200 -25 240q-3 -22 -7 -59.5t-9.5 -92.5t-9.5 -88z" />
    <glyph glyph-name="wgrave" unicode="&#x1e81;" 
d="M741 1321h-194l-236 287h205zM455 0h-203l-180 1126h159l113 -798q13 -98 21 -185h8q8 91 24 185l125 798h185l124 -798q19 -117 25 -185h8l25 185l117 798h151l-188 -1126h-203l-121 778q-25 156 -29 205h-8q-8 -92 -26 -205z" />
    <glyph glyph-name="Wacute" unicode="&#x1e82;" 
d="M684 1659h-188l217 287h198zM455 0h-232l-172 1495h176l113 -1106q15 -168 18 -256q27 254 27 256l139 1106h191l127 -1106l28 -256q9 133 23 256l117 1106h168l-177 -1495h-231l-127 1126q-22 200 -25 240q-3 -22 -7 -59.5t-9.5 -92.5t-9.5 -88z" />
    <glyph glyph-name="wacute" unicode="&#x1e83;" 
d="M684 1321h-188l217 287h198zM455 0h-203l-180 1126h159l113 -798q13 -98 21 -185h8q8 91 24 185l125 798h185l124 -798q19 -117 25 -185h8l25 185l117 798h151l-188 -1126h-203l-121 778q-25 156 -29 205h-8q-8 -92 -26 -205z" />
    <glyph glyph-name="Wdieresis" unicode="&#x1e84;" 
d="M387 1673q-60 0 -95.5 34.5t-35.5 94.5q0 61 35.5 97t95.5 36t95.5 -36t35.5 -97q0 -60 -35.5 -94.5t-95.5 -34.5zM842 1673q-60 0 -95.5 34.5t-35.5 94.5q0 61 35.5 97t95.5 36t95.5 -36t35.5 -97q0 -60 -35.5 -94.5t-95.5 -34.5zM455 0h-232l-172 1495h176l113 -1106
q15 -168 18 -256q27 254 27 256l139 1106h191l127 -1106l28 -256q9 133 23 256l117 1106h168l-177 -1495h-231l-127 1126q-22 200 -25 240q-3 -22 -7 -59.5t-9.5 -92.5t-9.5 -88z" />
    <glyph glyph-name="wdieresis" unicode="&#x1e85;" 
d="M387 1329q-60 0 -95.5 34.5t-35.5 94.5q0 61 35.5 97t95.5 36t95.5 -36t35.5 -97q0 -60 -35.5 -94.5t-95.5 -34.5zM842 1329q-60 0 -95.5 34.5t-35.5 94.5q0 61 35.5 97t95.5 36t95.5 -36t35.5 -97q0 -60 -35.5 -94.5t-95.5 -34.5zM455 0h-203l-180 1126h159l113 -798
q13 -98 21 -185h8q8 91 24 185l125 798h185l124 -798q19 -117 25 -185h8l25 185l117 798h151l-188 -1126h-203l-121 778q-25 156 -29 205h-8q-8 -92 -26 -205z" />
    <glyph glyph-name="uni1E9E" unicode="&#x1e9e;" 
d="M1083 1315l-331 -449q160 -9 257 -125t97 -301q0 -198 -121 -319t-319 -121h-138v168h117q123 0 194.5 73t71.5 199q0 123 -71.5 195t-194.5 72h-92v159l336 461h-271q-114 0 -179.5 -68t-65.5 -186v-1073h-185v1073q0 190 118 306t312 116h465v-180z" />
    <glyph glyph-name="uni1EA0" unicode="&#x1ea0;" 
d="M291 0h-189l390 1495h247l387 -1495h-186l-98 397h-453zM541 1016l-115 -463h377l-115 461q-58 233 -74 334q-18 -114 -73 -332zM614 -436q-67 0 -106 34.5t-39 94.5q0 62 39 97.5t106 35.5q68 0 107 -36t39 -97q0 -60 -39 -94.5t-107 -34.5z" />
    <glyph glyph-name="uni1EA1" unicode="&#x1ea1;" 
d="M625 1147q193 0 306 -100.5t113 -272.5v-774h-180v215h-2q-12 -109 -105 -172t-241 -63q-178 0 -280.5 90t-102.5 247q0 156 102.5 247t276.5 91h348v113q0 103 -62.5 160t-172.5 57q-98 0 -166.5 -43.5t-83.5 -112.5h-185q15 141 136.5 229.5t298.5 88.5zM561 125
q131 0 215 65t84 168v160h-344q-92 0 -145.5 -51t-53.5 -139q0 -95 64.5 -149t179.5 -54zM625 -174q67 0 106 -35.5t39 -97.5q0 -60 -39 -94.5t-106 -34.5q-68 0 -107 34.5t-39 94.5q0 61 39 97t107 36z" />
    <glyph glyph-name="uni1EA2" unicode="&#x1ea2;" 
d="M702 1638h-174l93 129q28 41 28 66q0 41 -65 41h-154v133h164q97 0 156 -42.5t59 -111.5q0 -58 -35 -108zM291 0h-189l390 1495h247l387 -1495h-186l-98 397h-453zM541 1016l-115 -463h377l-115 461q-58 233 -74 334q-18 -114 -73 -332z" />
    <glyph glyph-name="uni1EA3" unicode="&#x1ea3;" 
d="M670 1516q0 40 -66 40h-164v134h215q79 0 126.5 -41t47.5 -111q0 -68 -34 -111l-82 -106h-174l102 129q29 40 29 66zM625 1147q193 0 306 -100.5t113 -272.5v-774h-180v215h-2q-12 -109 -105 -172t-241 -63q-178 0 -280.5 90t-102.5 247q0 156 102.5 247t276.5 91h348
v113q0 103 -62.5 160t-172.5 57q-98 0 -166.5 -43.5t-83.5 -112.5h-185q15 141 136.5 229.5t298.5 88.5zM561 125q131 0 215 65t84 168v160h-344q-92 0 -145.5 -51t-53.5 -139q0 -95 64.5 -149t179.5 -54z" />
    <glyph glyph-name="uni1EA4" unicode="&#x1ea4;" 
d="M1034 1843h-198l215 246h209zM449 1597h-203l282 287h172l285 -287h-207l-164 160zM291 0h-189l390 1495h247l387 -1495h-186l-98 397h-453zM541 1016l-115 -463h377l-115 461q-58 233 -74 334q-18 -114 -73 -332z" />
    <glyph glyph-name="uni1EA5" unicode="&#x1ea5;" 
d="M850 1556l235 287h205l-246 -287h-194zM788 1321l-163 160l-166 -160h-203l283 287h172l284 -287h-207zM625 1147q193 0 306 -100.5t113 -272.5v-774h-180v215h-2q-12 -109 -105 -172t-241 -63q-178 0 -280.5 90t-102.5 247q0 156 102.5 247t276.5 91h348v113
q0 103 -62.5 160t-172.5 57q-98 0 -166.5 -43.5t-83.5 -112.5h-185q15 141 136.5 229.5t298.5 88.5zM561 125q131 0 215 65t84 168v160h-344q-92 0 -145.5 -51t-53.5 -139q0 -95 64.5 -149t179.5 -54z" />
    <glyph glyph-name="uni1EA6" unicode="&#x1ea6;" 
d="M1106 1843h-195l-245 246h204zM449 1597h-203l282 287h172l285 -287h-207l-164 160zM291 0h-189l390 1495h247l387 -1495h-186l-98 397h-453zM541 1016l-115 -463h377l-115 461q-58 233 -74 334q-18 -114 -73 -332z" />
    <glyph glyph-name="uni1EA7" unicode="&#x1ea7;" 
d="M870 1843l256 -287h-194l-266 287h204zM788 1321l-163 160l-166 -160h-203l283 287h172l284 -287h-207zM625 1147q193 0 306 -100.5t113 -272.5v-774h-180v215h-2q-12 -109 -105 -172t-241 -63q-178 0 -280.5 90t-102.5 247q0 156 102.5 247t276.5 91h348v113
q0 103 -62.5 160t-172.5 57q-98 0 -166.5 -43.5t-83.5 -112.5h-185q15 141 136.5 229.5t298.5 88.5zM561 125q131 0 215 65t84 168v160h-344q-92 0 -145.5 -51t-53.5 -139q0 -95 64.5 -149t179.5 -54z" />
    <glyph glyph-name="uni1EA8" unicode="&#x1ea8;" 
d="M1020 1802h-160l98 96q17 17 17 39q0 14 -9 23.5t-22 9.5h-135v119h174q66 0 104.5 -35t38.5 -92q0 -58 -32 -90zM449 1597h-203l282 287h172l285 -287h-207l-164 160zM291 0h-189l390 1495h247l387 -1495h-186l-98 397h-453zM541 1016l-115 -463h377l-115 461
q-58 233 -74 334q-18 -114 -73 -332z" />
    <glyph glyph-name="uni1EA9" unicode="&#x1ea9;" 
d="M819 1905h113q94 0 149.5 -42t55.5 -112q0 -43 -35 -92l-72 -103h-153l92 125q18 27 18 50q0 51 -65 51h-103v123zM788 1321l-163 160l-166 -160h-203l283 287h172l284 -287h-207zM625 1147q193 0 306 -100.5t113 -272.5v-774h-180v215h-2q-12 -109 -105 -172t-241 -63
q-178 0 -280.5 90t-102.5 247q0 156 102.5 247t276.5 91h348v113q0 103 -62.5 160t-172.5 57q-98 0 -166.5 -43.5t-83.5 -112.5h-185q15 141 136.5 229.5t298.5 88.5zM561 125q131 0 215 65t84 168v160h-344q-92 0 -145.5 -51t-53.5 -139q0 -95 64.5 -149t179.5 -54z" />
    <glyph glyph-name="uni1EAA" unicode="&#x1eaa;" 
d="M772 1884q-58 0 -106.5 15t-74.5 33t-58 33t-62 15q-28 0 -44.5 -16.5t-16.5 -44.5v-14h-134v14q0 78 50 124t135 46q59 0 106.5 -15t73 -33t56.5 -33t61 -15q28 0 44.5 16.5t16.5 44.5v14h133v-14q0 -78 -48.5 -124t-131.5 -46zM449 1597h-203l237 226h262l238 -226
h-207l-162 150zM291 0h-189l390 1495h247l387 -1495h-186l-98 397h-453zM541 1016l-115 -463h377l-115 461q-58 233 -74 334q-18 -114 -73 -332z" />
    <glyph glyph-name="uni1EAB" unicode="&#x1eab;" 
d="M430 1731v-52h-133v41q0 82 53 131.5t139 49.5q48 0 85 -13.5t59 -32.5t40 -37.5t39 -32t46 -13.5q61 0 61 61v51h133v-41q0 -82 -53 -131t-139 -49q-48 0 -84.5 13.5t-58.5 32.5t-40 37.5t-39 32t-46 13.5q-62 0 -62 -61zM788 1321l-163 160l-166 -160h-203l283 287h172
l284 -287h-207zM625 1147q193 0 306 -100.5t113 -272.5v-774h-180v215h-2q-12 -109 -105 -172t-241 -63q-178 0 -280.5 90t-102.5 247q0 156 102.5 247t276.5 91h348v113q0 103 -62.5 160t-172.5 57q-98 0 -166.5 -43.5t-83.5 -112.5h-185q15 141 136.5 229.5t298.5 88.5z
M561 125q131 0 215 65t84 168v160h-344q-92 0 -145.5 -51t-53.5 -139q0 -95 64.5 -149t179.5 -54z" />
    <glyph glyph-name="uni1EAC" unicode="&#x1eac;" 
d="M451 1659h-207l284 287h170l287 -287h-203l-168 160zM291 0h-189l390 1495h247l387 -1495h-186l-98 397h-453zM541 1016l-115 -463h377l-115 461q-58 233 -74 334q-18 -114 -73 -332zM614 -436q-67 0 -106 34.5t-39 94.5q0 62 39 97.5t106 35.5q68 0 107 -36t39 -97
q0 -60 -39 -94.5t-107 -34.5z" />
    <glyph glyph-name="uni1EAD" unicode="&#x1ead;" 
d="M793 1321l-168 160l-164 -160h-207l285 287h170l286 -287h-202zM625 1147q193 0 306 -100.5t113 -272.5v-774h-180v215h-2q-12 -109 -105 -172t-241 -63q-178 0 -280.5 90t-102.5 247q0 156 102.5 247t276.5 91h348v113q0 103 -62.5 160t-172.5 57q-98 0 -166.5 -43.5
t-83.5 -112.5h-185q15 141 136.5 229.5t298.5 88.5zM561 125q131 0 215 65t84 168v160h-344q-92 0 -145.5 -51t-53.5 -139q0 -95 64.5 -149t179.5 -54zM625 -174q67 0 106 -35.5t39 -97.5q0 -60 -39 -94.5t-106 -34.5q-68 0 -107 34.5t-39 94.5q0 61 39 97t107 36z" />
    <glyph glyph-name="uni1EAE" unicode="&#x1eae;" 
d="M672 1843h-187l215 246h197zM664 1597h-101q-132 0 -209.5 72t-77.5 195h144q0 -66 38.5 -105t104.5 -39h101q67 0 106 39t39 105h143q0 -123 -78 -195t-210 -72zM291 0h-189l390 1495h247l387 -1495h-186l-98 397h-453zM541 1016l-115 -463h377l-115 461
q-58 233 -74 334q-18 -114 -73 -332z" />
    <glyph glyph-name="uni1EAF" unicode="&#x1eaf;" 
d="M731 1823h197l-246 -267h-186zM625 1311q-157 0 -253 73t-96 193h144q0 -64 56.5 -103.5t148.5 -39.5t148 39t56 104h144q0 -120 -95.5 -193t-252.5 -73zM625 1147q193 0 306 -100.5t113 -272.5v-774h-180v215h-2q-12 -109 -105 -172t-241 -63q-178 0 -280.5 90
t-102.5 247q0 156 102.5 247t276.5 91h348v113q0 103 -62.5 160t-172.5 57q-98 0 -166.5 -43.5t-83.5 -112.5h-185q15 141 136.5 229.5t298.5 88.5zM561 125q131 0 215 65t84 168v160h-344q-92 0 -145.5 -51t-53.5 -139q0 -95 64.5 -149t179.5 -54z" />
    <glyph glyph-name="uni1EB0" unicode="&#x1eb0;" 
d="M743 1843h-186l-205 246h197zM664 1597h-101q-132 0 -209.5 72t-77.5 195h144q0 -66 38.5 -105t104.5 -39h101q67 0 106 39t39 105h143q0 -123 -78 -195t-210 -72zM291 0h-189l390 1495h247l387 -1495h-186l-98 397h-453zM541 1016l-115 -463h377l-115 461
q-58 233 -74 334q-18 -114 -73 -332z" />
    <glyph glyph-name="uni1EB1" unicode="&#x1eb1;" 
d="M518 1823l236 -267h-187l-245 267h196zM625 1311q-157 0 -253 73t-96 193h144q0 -64 56.5 -103.5t148.5 -39.5t148 39t56 104h144q0 -120 -95.5 -193t-252.5 -73zM625 1147q193 0 306 -100.5t113 -272.5v-774h-180v215h-2q-12 -109 -105 -172t-241 -63q-178 0 -280.5 90
t-102.5 247q0 156 102.5 247t276.5 91h348v113q0 103 -62.5 160t-172.5 57q-98 0 -166.5 -43.5t-83.5 -112.5h-185q15 141 136.5 229.5t298.5 88.5zM561 125q131 0 215 65t84 168v160h-344q-92 0 -145.5 -51t-53.5 -139q0 -95 64.5 -149t179.5 -54z" />
    <glyph glyph-name="uni1EB2" unicode="&#x1eb2;" 
d="M674 1802h-154l96 115q15 18 15 33q0 16 -21 16h-149v123h198q53 0 83 -25.5t30 -72.5q0 -65 -33 -107zM664 1597h-101q-132 0 -209.5 72t-77.5 195h144q0 -66 38.5 -105t104.5 -39h101q67 0 106 39t39 105h143q0 -123 -78 -195t-210 -72zM291 0h-189l390 1495h247
l387 -1495h-186l-98 397h-453zM541 1016l-115 -463h377l-115 461q-58 233 -74 334q-18 -114 -73 -332z" />
    <glyph glyph-name="uni1EB3" unicode="&#x1eb3;" 
d="M639 1733q0 49 -55 49h-113v123h133q87 0 140 -40.5t53 -105.5q0 -46 -35 -100l-72 -103h-162l93 125q18 24 18 52zM625 1311q-157 0 -253 73t-96 193h144q0 -64 56.5 -103.5t148.5 -39.5t148 39t56 104h144q0 -120 -95.5 -193t-252.5 -73zM625 1147q193 0 306 -100.5
t113 -272.5v-774h-180v215h-2q-12 -109 -105 -172t-241 -63q-178 0 -280.5 90t-102.5 247q0 156 102.5 247t276.5 91h348v113q0 103 -62.5 160t-172.5 57q-98 0 -166.5 -43.5t-83.5 -112.5h-185q15 141 136.5 229.5t298.5 88.5zM561 125q131 0 215 65t84 168v160h-344
q-92 0 -145.5 -51t-53.5 -139q0 -95 64.5 -149t179.5 -54z" />
    <glyph glyph-name="uni1EB4" unicode="&#x1eb4;" 
d="M772 1884q-58 0 -106.5 15t-74.5 33t-58 33t-62 15q-28 0 -44.5 -16.5t-16.5 -44.5v-14h-134v14q0 78 50 124t135 46q59 0 106.5 -15t73 -33t56.5 -33t61 -15q28 0 44.5 16.5t16.5 44.5v14h133v-14q0 -78 -48.5 -124t-131.5 -46zM664 1597h-101q-135 0 -211 62.5
t-76 183.5h144q0 -123 143 -123h101q145 0 145 123h143q0 -121 -76.5 -183.5t-211.5 -62.5zM291 0h-189l390 1495h247l387 -1495h-186l-98 397h-453zM541 1016l-115 -463h377l-115 461q-58 233 -74 334q-18 -114 -73 -332z" />
    <glyph glyph-name="uni1EB5" unicode="&#x1eb5;" 
d="M430 1731v-52h-133v41q0 82 53 131.5t139 49.5q48 0 85 -13.5t59 -32.5t40 -37.5t39 -32t46 -13.5q61 0 61 61v51h133v-41q0 -82 -53 -131t-139 -49q-48 0 -84.5 13.5t-58.5 32.5t-40 37.5t-39 32t-46 13.5q-62 0 -62 -61zM625 1321q-148 0 -238 73t-90 193h133
q0 -65 53.5 -105t139.5 -40q88 0 142 40t54 105h133q0 -120 -89.5 -193t-237.5 -73zM625 1147q193 0 306 -100.5t113 -272.5v-774h-180v215h-2q-12 -109 -105 -172t-241 -63q-178 0 -280.5 90t-102.5 247q0 156 102.5 247t276.5 91h348v113q0 103 -62.5 160t-172.5 57
q-98 0 -166.5 -43.5t-83.5 -112.5h-185q15 141 136.5 229.5t298.5 88.5zM561 125q131 0 215 65t84 168v160h-344q-92 0 -145.5 -51t-53.5 -139q0 -95 64.5 -149t179.5 -54z" />
    <glyph glyph-name="uni1EB6" unicode="&#x1eb6;" 
d="M614 1649q-148 0 -237.5 81.5t-89.5 215.5h145q0 -80 49.5 -129.5t130.5 -49.5q83 0 134 49.5t51 129.5h145q0 -134 -90 -215.5t-238 -81.5zM291 0h-189l390 1495h247l387 -1495h-186l-98 397h-453zM541 1016l-115 -463h377l-115 461q-58 233 -74 334q-18 -114 -73 -332z
M614 -436q-67 0 -106 34.5t-39 94.5q0 62 39 97.5t106 35.5q68 0 107 -36t39 -97q0 -60 -39 -94.5t-107 -34.5z" />
    <glyph glyph-name="uni1EB7" unicode="&#x1eb7;" 
d="M625 1311q-148 0 -238 81.5t-90 215.5h145q0 -80 49.5 -129t131.5 -49q83 0 133.5 49t50.5 129h145q0 -134 -89.5 -215.5t-237.5 -81.5zM625 1147q193 0 306 -100.5t113 -272.5v-774h-180v215h-2q-12 -109 -105 -172t-241 -63q-178 0 -280.5 90t-102.5 247
q0 156 102.5 247t276.5 91h348v113q0 103 -62.5 160t-172.5 57q-98 0 -166.5 -43.5t-83.5 -112.5h-185q15 141 136.5 229.5t298.5 88.5zM561 125q131 0 215 65t84 168v160h-344q-92 0 -145.5 -51t-53.5 -139q0 -95 64.5 -149t179.5 -54zM625 -174q67 0 106 -35.5t39 -97.5
q0 -60 -39 -94.5t-106 -34.5q-68 0 -107 34.5t-39 94.5q0 61 39 97t107 36z" />
    <glyph glyph-name="uni1EB8" unicode="&#x1eb8;" 
d="M1065 0h-860v1495h860v-168h-678v-463h606v-164h-606v-532h678v-168zM655 -436q-67 0 -106 34.5t-39 94.5q0 62 39 97.5t106 35.5q68 0 107 -36t39 -97q0 -60 -39 -94.5t-107 -34.5z" />
    <glyph glyph-name="uni1EB9" unicode="&#x1eb9;" 
d="M1055 717v-199h-701v-108q0 -133 67 -204t193 -71q107 0 172 39t80 113h185q-19 -140 -138.5 -223.5t-298.5 -83.5q-200 0 -320 117.5t-120 312.5v307q0 195 120 312.5t320 117.5t320.5 -117.5t120.5 -312.5zM354 717v-60h520v60q0 134 -67 205t-193 71t-193 -71
t-67 -205zM614 -174q68 0 107 -36t39 -97q0 -60 -39 -94.5t-107 -34.5q-67 0 -106 34.5t-39 94.5q0 62 39 97.5t106 35.5z" />
    <glyph glyph-name="uni1EBA" unicode="&#x1eba;" 
d="M743 1638h-174l93 129q28 41 28 66q0 41 -65 41h-154v133h164q97 0 156 -42.5t59 -111.5q0 -58 -35 -108zM1065 0h-860v1495h860v-168h-678v-463h606v-164h-606v-532h678v-168z" />
    <glyph glyph-name="uni1EBB" unicode="&#x1ebb;" 
d="M659 1516q0 22 -15.5 31t-49.5 9h-164v134h215q79 0 126.5 -41t47.5 -111q0 -67 -35 -111l-82 -106h-174l103 129q28 39 28 66zM1055 717v-199h-701v-108q0 -133 67 -204t193 -71q107 0 172 39t80 113h185q-19 -140 -138.5 -223.5t-298.5 -83.5q-200 0 -320 117.5
t-120 312.5v307q0 195 120 312.5t320 117.5t320.5 -117.5t120.5 -312.5zM354 717v-60h520v60q0 134 -67 205t-193 71t-193 -71t-67 -205z" />
    <glyph glyph-name="uni1EBC" unicode="&#x1ebc;" 
d="M799 1669q-45 0 -82 14.5t-60.5 35.5t-44 42.5t-43 36t-47.5 14.5q-61 0 -61 -71v-62h-133v62q0 91 50 142.5t134 51.5q45 0 82 -14.5t60.5 -35.5t43.5 -42.5t42.5 -36t47.5 -14.5q29 0 45.5 18t16.5 54v61h133v-61q0 -91 -50 -143t-134 -52zM1065 0h-860v1495h860v-168
h-678v-463h606v-164h-606v-532h678v-168z" />
    <glyph glyph-name="uni1EBD" unicode="&#x1ebd;" 
d="M420 1403v-62h-133v62q0 91 50 142.5t134 51.5q45 0 82 -14.5t60.5 -35.5t44 -42.5t43 -36t47.5 -14.5q61 0 61 72v61h133v-61q0 -91 -50 -143t-134 -52q-45 0 -82 15t-60.5 36t-44 42t-43 36t-47.5 15q-61 0 -61 -72zM1055 717v-199h-701v-108q0 -133 67 -204t193 -71
q107 0 172 39t80 113h185q-19 -140 -138.5 -223.5t-298.5 -83.5q-200 0 -320 117.5t-120 312.5v307q0 195 120 312.5t320 117.5t320.5 -117.5t120.5 -312.5zM354 717v-60h520v60q0 134 -67 205t-193 71t-193 -71t-67 -205z" />
    <glyph glyph-name="uni1EBE" unicode="&#x1ebe;" 
d="M1075 1843h-198l215 246h208zM489 1597h-202l282 287h172l285 -287h-207l-164 160zM1065 0h-860v1495h860v-168h-678v-463h606v-164h-606v-532h678v-168z" />
    <glyph glyph-name="uni1EBF" unicode="&#x1ebf;" 
d="M1075 1843h205l-246 -287h-194zM778 1321l-164 160l-165 -160h-203l282 287h172l285 -287h-207zM614 1147q200 0 320.5 -117.5t120.5 -312.5v-199h-701v-108q0 -133 67 -204t193 -71q107 0 172 39t80 113h185q-19 -140 -138.5 -223.5t-298.5 -83.5q-200 0 -320 117.5
t-120 312.5v307q0 195 120 312.5t320 117.5zM354 717v-60h520v60q0 134 -67 205t-193 71t-193 -71t-67 -205z" />
    <glyph glyph-name="uni1EC0" unicode="&#x1ec0;" 
d="M1147 1843h-195l-245 246h204zM489 1597h-202l282 287h172l285 -287h-207l-164 160zM1065 0h-860v1495h860v-168h-678v-463h606v-164h-606v-532h678v-168z" />
    <glyph glyph-name="uni1EC1" unicode="&#x1ec1;" 
d="M860 1843l256 -287h-194l-267 287h205zM778 1321l-164 160l-165 -160h-203l282 287h172l285 -287h-207zM614 1147q200 0 320.5 -117.5t120.5 -312.5v-199h-701v-108q0 -133 67 -204t193 -71q107 0 172 39t80 113h185q-19 -140 -138.5 -223.5t-298.5 -83.5
q-200 0 -320 117.5t-120 312.5v307q0 195 120 312.5t320 117.5zM354 717v-60h520v60q0 134 -67 205t-193 71t-193 -71t-67 -205z" />
    <glyph glyph-name="uni1EC2" unicode="&#x1ec2;" 
d="M1061 1802h-160l98 96q17 17 17 39q0 14 -9 23.5t-22 9.5h-135v119h174q66 0 104.5 -35t38.5 -92q0 -58 -32 -90zM489 1597h-202l282 287h172l285 -287h-207l-164 160zM1065 0h-860v1495h860v-168h-678v-463h606v-164h-606v-532h678v-168z" />
    <glyph glyph-name="uni1EC3" unicode="&#x1ec3;" 
d="M809 1905h113q94 0 149 -41.5t55 -112.5q0 -44 -34 -92l-72 -103h-154l92 125q19 28 19 50q0 51 -66 51h-102v123zM778 1321l-164 160l-165 -160h-203l282 287h172l285 -287h-207zM614 1147q200 0 320.5 -117.5t120.5 -312.5v-199h-701v-108q0 -133 67 -204t193 -71
q107 0 172 39t80 113h185q-19 -140 -138.5 -223.5t-298.5 -83.5q-200 0 -320 117.5t-120 312.5v307q0 195 120 312.5t320 117.5zM354 717v-60h520v60q0 134 -67 205t-193 71t-193 -71t-67 -205z" />
    <glyph glyph-name="uni1EC4" unicode="&#x1ec4;" 
d="M813 1884q-58 0 -106.5 15t-74.5 33t-58 33t-62 15q-28 0 -44.5 -16.5t-16.5 -44.5v-14h-134v14q0 78 50 124t135 46q59 0 106.5 -15t73 -33t56.5 -33t61 -15q28 0 44.5 16.5t16.5 44.5v14h133v-14q0 -78 -48.5 -124t-131.5 -46zM489 1597h-202l237 226h262l238 -226
h-207l-162 150zM1065 0h-860v1495h860v-168h-678v-463h606v-164h-606v-532h678v-168z" />
    <glyph glyph-name="uni1EC5" unicode="&#x1ec5;" 
d="M420 1731v-52h-133v41q0 82 53 131.5t139 49.5q48 0 85 -13.5t59 -32.5t40 -37.5t39 -32t46 -13.5q61 0 61 61v51h133v-41q0 -82 -53 -131t-139 -49q-48 0 -84.5 13.5t-58.5 32.5t-40.5 37.5t-39.5 32t-46 13.5q-61 0 -61 -61zM778 1321l-164 160l-165 -160h-203l282 287
h172l285 -287h-207zM1055 717v-199h-701v-108q0 -133 67 -204t193 -71q107 0 172 39t80 113h185q-19 -140 -138.5 -223.5t-298.5 -83.5q-200 0 -320 117.5t-120 312.5v307q0 195 120 312.5t320 117.5t320.5 -117.5t120.5 -312.5zM354 717v-60h520v60q0 134 -67 205t-193 71
t-193 -71t-67 -205z" />
    <glyph glyph-name="uni1EC6" unicode="&#x1ec6;" 
d="M492 1659h-207l284 287h170l287 -287h-203l-168 160zM1065 0h-860v1495h860v-168h-678v-463h606v-164h-606v-532h678v-168zM655 -436q-67 0 -106 34.5t-39 94.5q0 62 39 97.5t106 35.5q68 0 107 -36t39 -97q0 -60 -39 -94.5t-107 -34.5z" />
    <glyph glyph-name="uni1EC7" unicode="&#x1ec7;" 
d="M782 1321l-168 160l-163 -160h-207l284 287h170l287 -287h-203zM1055 717v-199h-701v-108q0 -133 67 -204t193 -71q107 0 172 39t80 113h185q-19 -140 -138.5 -223.5t-298.5 -83.5q-200 0 -320 117.5t-120 312.5v307q0 195 120 312.5t320 117.5t320.5 -117.5
t120.5 -312.5zM354 717v-60h520v60q0 134 -67 205t-193 71t-193 -71t-67 -205zM614 -174q68 0 107 -36t39 -97q0 -60 -39 -94.5t-107 -34.5q-67 0 -106 34.5t-39 94.5q0 62 39 97.5t106 35.5z" />
    <glyph glyph-name="uni1EC8" unicode="&#x1ec8;" 
d="M702 1638h-174l93 129q28 41 28 66q0 41 -65 41h-154v133h164q97 0 156 -42.5t59 -111.5q0 -58 -35 -108zM1014 0h-799v168h305v1159h-305v168h799v-168h-305v-1159h305v-168z" />
    <glyph glyph-name="uni1EC9" unicode="&#x1ec9;" horiz-adv-x="1024" 
d="M631 1321h-174l102 129q29 40 29 66q0 40 -66 40h-164v134h215q79 0 127 -41t48 -111q0 -67 -35 -111zM932 0h-758v168h297v790h-256v168h440v-958h277v-168z" />
    <glyph glyph-name="uni1ECA" unicode="&#x1eca;" 
d="M1014 0h-799v168h305v1159h-305v168h799v-168h-305v-1159h305v-168zM614 -436q-67 0 -106 34.5t-39 94.5q0 62 39 97.5t106 35.5q68 0 107 -36t39 -97q0 -60 -39 -94.5t-107 -34.5z" />
    </font>
</defs>
</svg>
