<?xml version="1.0" standalone="no"?>
<!DOCTYPE svg PUBLIC "-//W3C//DTD SVG 1.1//EN" "http://www.w3.org/Graphics/SVG/1.1/DTD/svg11.dtd" >
<svg xmlns="http://www.w3.org/2000/svg" xmlns:xlink="http://www.w3.org/1999/xlink" version="1.1">
<metadata>
Created by FontForge 20170731 at Thu Nov 16 19:43:54 2023
 By Aleksey,,,
Copyright 2021 Alessio Laiso, Mario Rullo, Paolo Rosset
</metadata>
<defs>
<font id="TekneLDO-Bold" horiz-adv-x="1228" >
  <font-face 
    font-family="Tekne LDO"
    font-weight="700"
    font-stretch="normal"
    units-per-em="2048"
    panose-1="2 0 0 9 0 0 0 0 0 0"
    ascent="1638"
    descent="-410"
    x-height="1126"
    cap-height="1495"
    bbox="-3539 -819 1493 2294"
    underline-thickness="102"
    underline-position="-419"
    unicode-range="U+000D-1D54A"
  />
<missing-glyph 
d="M1044 0h-860v1495h860v-1495zM287 1393v-1170l614 1170h-614zM942 1272l-614 -1170h614v1170z" />
    <glyph glyph-name=".notdef" 
d="M1044 0h-860v1495h860v-1495zM287 1393v-1170l614 1170h-614zM942 1272l-614 -1170h614v1170z" />
    <glyph glyph-name=".null" horiz-adv-x="0" 
 />
    <glyph glyph-name="nonmarkingreturn" horiz-adv-x="682" 
 />
    <glyph glyph-name="uni2400" unicode="&#x2400;" 
d="M117 502h-76v493h102l138 -399q-9 97 -9 166v233h76v-493h-102l-137 399q8 -78 8 -158v-241zM602 496q-72 0 -112.5 39t-40.5 108v352h83v-352q0 -35 18 -54.5t52 -19.5t52 19.5t18 54.5v352h84v-352q0 -69 -41 -108t-113 -39zM1206 502h-293v493h84v-417h209v-76z" />
    <glyph glyph-name="uni2400" 
d="M117 502h-76v493h102l138 -399q-9 97 -9 166v233h76v-493h-102l-137 399q8 -78 8 -158v-241zM602 496q-72 0 -112.5 39t-40.5 108v352h83v-352q0 -35 18 -54.5t52 -19.5t52 19.5t18 54.5v352h84v-352q0 -69 -41 -108t-113 -39zM1206 502h-293v493h84v-417h209v-76z" />
    <glyph glyph-name="uni2401" unicode="&#x2401;" 
d="M197 496q-75 0 -120.5 37.5t-45.5 101.5h84q0 -30 22.5 -48t59.5 -18t57 17.5t20 48.5q0 51 -53 67l-59 17q-58 15 -89.5 53t-31.5 92q0 63 41.5 100t112.5 37q72 0 114.5 -36.5t42.5 -98.5h-86q0 28 -19 45t-52 17t-51.5 -17t-18.5 -47q0 -48 53 -63l60 -17
q58 -15 89 -53t31 -94q0 -64 -43.5 -102.5t-117.5 -38.5zM602 496q-70 0 -111.5 39.5t-41.5 105.5v215q0 66 41.5 105.5t111.5 39.5t112 -39.5t42 -105.5v-215q0 -66 -42 -105.5t-112 -39.5zM969 502h-86v493h86v-198h131v198h86v-493h-86v219h-131v-219zM602 569
q70 0 70 72v215q0 72 -70 72t-70 -72v-215q0 -72 70 -72z" />
    <glyph glyph-name="uni2401" 
d="M197 496q-75 0 -120.5 37.5t-45.5 101.5h84q0 -30 22.5 -48t59.5 -18t57 17.5t20 48.5q0 51 -53 67l-59 17q-58 15 -89.5 53t-31.5 92q0 63 41.5 100t112.5 37q72 0 114.5 -36.5t42.5 -98.5h-86q0 28 -19 45t-52 17t-51.5 -17t-18.5 -47q0 -48 53 -63l60 -17
q58 -15 89 -53t31 -94q0 -64 -43.5 -102.5t-117.5 -38.5zM602 496q-70 0 -111.5 39.5t-41.5 105.5v215q0 66 41.5 105.5t111.5 39.5t112 -39.5t42 -105.5v-215q0 -66 -42 -105.5t-112 -39.5zM969 502h-86v493h86v-198h131v198h86v-493h-86v219h-131v-219zM602 569
q70 0 70 72v215q0 72 -70 72t-70 -72v-215q0 -72 70 -72z" />
    <glyph glyph-name="uni2402" unicode="&#x2402;" 
d="M197 496q-75 0 -120.5 37.5t-45.5 101.5h84q0 -30 22.5 -48t59.5 -18t57 17.5t20 48.5q0 51 -53 67l-59 17q-58 15 -89.5 53t-31.5 92q0 63 41.5 100t112.5 37q72 0 114.5 -36.5t42.5 -98.5h-86q0 28 -19 45t-52 17t-51.5 -17t-18.5 -47q0 -48 53 -63l60 -17
q58 -15 89 -53t31 -94q0 -64 -43.5 -102.5t-117.5 -38.5zM645 502h-86v418h-129v75h344v-75h-129v-418zM942 502h-92l137 252l-129 241h94l64 -125l20 -43q2 10 19 43l63 125h92l-129 -239l138 -254h-95l-69 137q-2 4 -23 45q-5 -22 -20 -45z" />
    <glyph glyph-name="uni2402" 
d="M197 496q-75 0 -120.5 37.5t-45.5 101.5h84q0 -30 22.5 -48t59.5 -18t57 17.5t20 48.5q0 51 -53 67l-59 17q-58 15 -89.5 53t-31.5 92q0 63 41.5 100t112.5 37q72 0 114.5 -36.5t42.5 -98.5h-86q0 28 -19 45t-52 17t-51.5 -17t-18.5 -47q0 -48 53 -63l60 -17
q58 -15 89 -53t31 -94q0 -64 -43.5 -102.5t-117.5 -38.5zM645 502h-86v418h-129v75h344v-75h-129v-418zM942 502h-92l137 252l-129 241h94l64 -125l20 -43q2 10 19 43l63 125h92l-129 -239l138 -254h-95l-69 137q-2 4 -23 45q-5 -22 -20 -45z" />
    <glyph glyph-name="uni2403" unicode="&#x2403;" 
d="M348 502h-297v493h297v-73h-213v-129h189v-72h-189v-146h213v-73zM645 502h-86v418h-129v75h344v-75h-129v-418zM942 502h-92l137 252l-129 241h94l64 -125l20 -43q2 10 19 43l63 125h92l-129 -239l138 -254h-95l-69 137q-2 4 -23 45q-5 -22 -20 -45z" />
    <glyph glyph-name="uni2403" 
d="M348 502h-297v493h297v-73h-213v-129h189v-72h-189v-146h213v-73zM645 502h-86v418h-129v75h344v-75h-129v-418zM942 502h-92l137 252l-129 241h94l64 -125l20 -43q2 10 19 43l63 125h92l-129 -239l138 -254h-95l-69 137q-2 4 -23 45q-5 -22 -20 -45z" />
    <glyph glyph-name="uni2404" unicode="&#x2404;" 
d="M602 496q-70 0 -111.5 39.5t-41.5 105.5v215q0 66 41.5 105.5t111.5 39.5t112 -39.5t42 -105.5v-215q0 -66 -42 -105.5t-112 -39.5zM348 502h-297v493h297v-73h-213v-129h189v-72h-189v-146h213v-73zM1077 502h-86v418h-129v75h344v-75h-129v-418zM602 569q70 0 70 72
v215q0 72 -70 72t-70 -72v-215q0 -72 70 -72z" />
    <glyph glyph-name="uni2404" 
d="M602 496q-70 0 -111.5 39.5t-41.5 105.5v215q0 66 41.5 105.5t111.5 39.5t112 -39.5t42 -105.5v-215q0 -66 -42 -105.5t-112 -39.5zM348 502h-297v493h297v-73h-213v-129h189v-72h-189v-146h213v-73zM1077 502h-86v418h-129v75h344v-75h-129v-418zM602 569q70 0 70 72
v215q0 72 -70 72t-70 -72v-215q0 -72 70 -72z" />
    <glyph glyph-name="uni2405" unicode="&#x2405;" 
d="M1118 514l80 -133h-90l-70 115h-4q-71 0 -113 40t-42 107v211q0 67 42 107t113 40t113.5 -40t42.5 -107v-211q0 -94 -72 -129zM348 502h-297v493h297v-73h-213v-129h189v-72h-189v-146h213v-73zM680 762v233h76v-493h-103l-137 399q8 -78 8 -158v-241h-75v493h102
l137 -399q-8 86 -8 166zM1106 643v211q0 35 -19 54.5t-53 19.5t-52.5 -19.5t-18.5 -54.5v-211q0 -74 71 -74q72 0 72 74z" />
    <glyph glyph-name="uni2405" 
d="M1118 514l80 -133h-90l-70 115h-4q-71 0 -113 40t-42 107v211q0 67 42 107t113 40t113.5 -40t42.5 -107v-211q0 -94 -72 -129zM348 502h-297v493h297v-73h-213v-129h189v-72h-189v-146h213v-73zM680 762v233h76v-493h-103l-137 399q8 -78 8 -158v-241h-75v493h102
l137 -399q-8 86 -8 166zM1106 643v211q0 35 -19 54.5t-53 19.5t-52.5 -19.5t-18.5 -54.5v-211q0 -74 71 -74q72 0 72 74z" />
    <glyph glyph-name="uni2406" unicode="&#x2406;" 
d="M604 496q-71 0 -113 39.5t-42 105.5v215q0 67 42 106t113 39q72 0 115 -39.5t43 -105.5h-86q0 72 -72 72q-34 0 -53 -18.5t-19 -53.5v-215q0 -35 19 -53.5t53 -18.5q72 0 72 72h86q0 -66 -43 -105.5t-115 -39.5zM102 502h-86l123 493h111l123 -493h-86l-27 119h-131z
M967 502h-84v493h84v-200h59l92 200h92l-110 -235l117 -258h-95l-96 219h-59v-219zM174 823l-31 -133h101l-29 133q-16 71 -20 99q-2 -19 -21 -99z" />
    <glyph glyph-name="uni2406" 
d="M604 496q-71 0 -113 39.5t-42 105.5v215q0 67 42 106t113 39q72 0 115 -39.5t43 -105.5h-86q0 72 -72 72q-34 0 -53 -18.5t-19 -53.5v-215q0 -35 19 -53.5t53 -18.5q72 0 72 72h86q0 -66 -43 -105.5t-115 -39.5zM102 502h-86l123 493h111l123 -493h-86l-27 119h-131z
M967 502h-84v493h84v-200h59l92 200h92l-110 -235l117 -258h-95l-96 219h-59v-219zM174 823l-31 -133h101l-29 133q-16 71 -20 99q-2 -19 -21 -99z" />
    <glyph glyph-name="uni2407" unicode="&#x2407;" 
d="M272 764q41 -9 65.5 -41.5t24.5 -79.5q0 -64 -43.5 -102.5t-115.5 -38.5h-160v493h152q72 0 113.5 -34t41.5 -93q0 -40 -21 -68.5t-57 -35.5zM768 502h-297v493h297v-73h-213v-129h188v-72h-188v-146h213v-73zM997 995v-417h209v-76h-293v493h84zM195 924h-68v-131h68
q33 0 52 17.5t19 47.5q0 31 -18.5 48.5t-52.5 17.5zM127 571h70q38 0 58.5 20t20.5 54q0 36 -20.5 57t-58.5 21h-70v-152z" />
    <glyph glyph-name="uni2407" 
d="M272 764q41 -9 65.5 -41.5t24.5 -79.5q0 -64 -43.5 -102.5t-115.5 -38.5h-160v493h152q72 0 113.5 -34t41.5 -93q0 -40 -21 -68.5t-57 -35.5zM768 502h-297v493h297v-73h-213v-129h188v-72h-188v-146h213v-73zM997 995v-417h209v-76h-293v493h84zM195 924h-68v-131h68
q33 0 52 17.5t19 47.5q0 31 -18.5 48.5t-52.5 17.5zM127 571h70q38 0 58.5 20t20.5 54q0 36 -20.5 57t-58.5 21h-70v-152z" />
    <glyph glyph-name="uni2408" unicode="&#x2408;" 
d="M805 801l59 -17q58 -15 89.5 -53t31.5 -94q0 -64 -44 -102.5t-118 -38.5q-75 0 -120.5 37.5t-45.5 101.5h84q0 -30 22.5 -48t59.5 -18t57.5 17.5t20.5 48.5q0 51 -53 67l-60 17q-58 15 -89 53t-31 92q0 63 41.5 100t111.5 37q72 0 115 -36.5t43 -98.5h-86q0 28 -19.5 45
t-52.5 17q-32 0 -50.5 -16.5t-18.5 -47.5q0 -48 53 -63zM483 764q41 -9 65.5 -41.5t24.5 -79.5q0 -64 -43.5 -102.5t-115.5 -38.5h-160v493h152q72 0 113.5 -34t41.5 -93q0 -40 -21 -68.5t-57 -35.5zM406 924h-68v-131h68q33 0 52 17.5t19 47.5q0 31 -18.5 48.5t-52.5 17.5z
M338 571h70q38 0 58.5 20t20.5 54q0 36 -20.5 57t-58.5 21h-70v-152z" />
    <glyph glyph-name="uni2408" 
d="M805 801l59 -17q58 -15 89.5 -53t31.5 -94q0 -64 -44 -102.5t-118 -38.5q-75 0 -120.5 37.5t-45.5 101.5h84q0 -30 22.5 -48t59.5 -18t57.5 17.5t20.5 48.5q0 51 -53 67l-60 17q-58 15 -89 53t-31 92q0 63 41.5 100t111.5 37q72 0 115 -36.5t43 -98.5h-86q0 28 -19.5 45
t-52.5 17q-32 0 -50.5 -16.5t-18.5 -47.5q0 -48 53 -63zM483 764q41 -9 65.5 -41.5t24.5 -79.5q0 -64 -43.5 -102.5t-115.5 -38.5h-160v493h152q72 0 113.5 -34t41.5 -93q0 -40 -21 -68.5t-57 -35.5zM406 924h-68v-131h68q33 0 52 17.5t19 47.5q0 31 -18.5 48.5t-52.5 17.5z
M338 571h70q38 0 58.5 20t20.5 54q0 36 -20.5 57t-58.5 21h-70v-152z" />
    <glyph glyph-name="uni240B" unicode="&#x240b;" 
d="M461 502h-111l-123 493h86l76 -321l19 -94l6 37q7 37 12 57l72 321h86zM864 502h-86v418h-129v75h344v-75h-129v-418z" />
    <glyph glyph-name="uni240B" 
d="M461 502h-111l-123 493h86l76 -321l19 -94l6 37q7 37 12 57l72 321h86zM864 502h-86v418h-129v75h344v-75h-129v-418z" />
    <glyph glyph-name="uni240C" unicode="&#x240c;" 
d="M342 502h-84v493h305v-77h-223v-134h207v-77h-205v-205zM758 502h-84v493h305v-77h-223v-134h207v-77h-205v-205z" />
    <glyph glyph-name="uni240C" 
d="M342 502h-84v493h305v-77h-223v-134h207v-77h-205v-205zM758 502h-84v493h305v-77h-223v-134h207v-77h-205v-205z" />
    <glyph glyph-name="CR" unicode="&#xd;" horiz-adv-x="819" 
 />
    <glyph glyph-name="uni240E" unicode="&#x240e;" 
d="M408 496q-75 0 -120.5 37.5t-45.5 101.5h84q0 -30 22.5 -48t59.5 -18t57 17.5t20 48.5q0 51 -53 67l-59 17q-58 15 -89.5 53t-31.5 92q0 63 41.5 100t112.5 37q72 0 114.5 -36.5t42.5 -98.5h-86q0 28 -19 45t-52 17t-51.5 -17t-18.5 -47q0 -48 53 -63l60 -17
q58 -15 89 -53t31 -94q0 -64 -43.5 -102.5t-117.5 -38.5zM821 496q-70 0 -111.5 39.5t-41.5 105.5v215q0 66 41.5 105.5t111.5 39.5t112 -39.5t42 -105.5v-215q0 -66 -42 -105.5t-112 -39.5zM821 569q70 0 70 72v215q0 72 -70 72q-69 0 -69 -72v-215q0 -72 69 -72z" />
    <glyph glyph-name="uni240E" 
d="M408 496q-75 0 -120.5 37.5t-45.5 101.5h84q0 -30 22.5 -48t59.5 -18t57 17.5t20 48.5q0 51 -53 67l-59 17q-58 15 -89.5 53t-31.5 92q0 63 41.5 100t112.5 37q72 0 114.5 -36.5t42.5 -98.5h-86q0 28 -19 45t-52 17t-51.5 -17t-18.5 -47q0 -48 53 -63l60 -17
q58 -15 89 -53t31 -94q0 -64 -43.5 -102.5t-117.5 -38.5zM821 496q-70 0 -111.5 39.5t-41.5 105.5v215q0 66 41.5 105.5t111.5 39.5t112 -39.5t42 -105.5v-215q0 -66 -42 -105.5t-112 -39.5zM821 569q70 0 70 72v215q0 72 -70 72q-69 0 -69 -72v-215q0 -72 69 -72z" />
    <glyph glyph-name="uni240F" unicode="&#x240f;" 
d="M408 496q-75 0 -120.5 37.5t-45.5 101.5h84q0 -30 22.5 -48t59.5 -18t57 17.5t20 48.5q0 51 -53 67l-59 17q-58 15 -89.5 53t-31.5 92q0 63 41.5 100t112.5 37q72 0 114.5 -36.5t42.5 -98.5h-86q0 28 -19 45t-52 17t-51.5 -17t-18.5 -47q0 -48 53 -63l60 -17
q58 -15 89 -53t31 -94q0 -64 -43.5 -102.5t-117.5 -38.5zM963 502h-283v76h98v342h-98v75h283v-75h-99v-342h99v-76z" />
    <glyph glyph-name="uni240F" 
d="M408 496q-75 0 -120.5 37.5t-45.5 101.5h84q0 -30 22.5 -48t59.5 -18t57 17.5t20 48.5q0 51 -53 67l-59 17q-58 15 -89.5 53t-31.5 92q0 63 41.5 100t112.5 37q72 0 114.5 -36.5t42.5 -98.5h-86q0 28 -19 45t-52 17t-51.5 -17t-18.5 -47q0 -48 53 -63l60 -17
q58 -15 89 -53t31 -94q0 -64 -43.5 -102.5t-117.5 -38.5zM963 502h-283v76h98v342h-98v75h283v-75h-99v-342h99v-76z" />
    <glyph glyph-name="uni2410" unicode="&#x2410;" 
d="M188 502h-145v493h145q75 0 120.5 -42t45.5 -111v-187q0 -69 -45.5 -111t-120.5 -42zM774 502h-293v493h84v-417h209v-76zM1188 502h-297v493h297v-73h-213v-129h188v-72h-188v-146h213v-73zM127 920v-342h61q37 0 58.5 21t21.5 56v187q0 35 -21.5 56.5t-58.5 21.5h-61z
" />
    <glyph glyph-name="uni2410" 
d="M188 502h-145v493h145q75 0 120.5 -42t45.5 -111v-187q0 -69 -45.5 -111t-120.5 -42zM774 502h-293v493h84v-417h209v-76zM1188 502h-297v493h297v-73h-213v-129h188v-72h-188v-146h213v-73zM127 920v-342h61q37 0 58.5 21t21.5 56v187q0 35 -21.5 56.5t-58.5 21.5h-61z
" />
    <glyph glyph-name="uni2411" unicode="&#x2411;" 
d="M604 496q-71 0 -113 39.5t-42 105.5v215q0 67 42 106t113 39q72 0 115 -39.5t43 -105.5h-86q0 72 -72 72q-34 0 -53 -18.5t-19 -53.5v-215q0 -35 19 -53.5t53 -18.5q72 0 72 72h86q0 -66 -43 -105.5t-115 -39.5zM188 502h-145v493h145q75 0 120.5 -42t45.5 -111v-187
q0 -69 -45.5 -111t-120.5 -42zM1204 502h-315v76h127v342l-129 -97v90l114 82h101v-417h102v-76zM127 920v-342h61q37 0 58.5 21t21.5 56v187q0 35 -21.5 56.5t-58.5 21.5h-61z" />
    <glyph glyph-name="uni2411" 
d="M604 496q-71 0 -113 39.5t-42 105.5v215q0 67 42 106t113 39q72 0 115 -39.5t43 -105.5h-86q0 72 -72 72q-34 0 -53 -18.5t-19 -53.5v-215q0 -35 19 -53.5t53 -18.5q72 0 72 72h86q0 -66 -43 -105.5t-115 -39.5zM188 502h-145v493h145q75 0 120.5 -42t45.5 -111v-187
q0 -69 -45.5 -111t-120.5 -42zM1204 502h-315v76h127v342l-129 -97v90l114 82h101v-417h102v-76zM127 920v-342h61q37 0 58.5 21t21.5 56v187q0 35 -21.5 56.5t-58.5 21.5h-61z" />
    <glyph glyph-name="uni2412" unicode="&#x2412;" 
d="M604 496q-71 0 -113 39.5t-42 105.5v215q0 67 42 106t113 39q72 0 115 -39.5t43 -105.5h-86q0 72 -72 72q-34 0 -53 -18.5t-19 -53.5v-215q0 -35 19 -53.5t53 -18.5q72 0 72 72h86q0 -66 -43 -105.5t-115 -39.5zM1194 502h-309v78l168 172q49 55 49 98q0 35 -19 55.5
t-53 20.5t-54 -21t-20 -57h-84q0 70 44 111.5t116 41.5q71 0 112.5 -39t41.5 -106q0 -75 -82 -160l-115 -118h205v-76zM188 502h-145v493h145q75 0 120.5 -42t45.5 -111v-187q0 -69 -45.5 -111t-120.5 -42zM127 920v-342h61q37 0 58.5 21t21.5 56v187q0 35 -21.5 56.5
t-58.5 21.5h-61z" />
    <glyph glyph-name="uni2412" 
d="M604 496q-71 0 -113 39.5t-42 105.5v215q0 67 42 106t113 39q72 0 115 -39.5t43 -105.5h-86q0 72 -72 72q-34 0 -53 -18.5t-19 -53.5v-215q0 -35 19 -53.5t53 -18.5q72 0 72 72h86q0 -66 -43 -105.5t-115 -39.5zM1194 502h-309v78l168 172q49 55 49 98q0 35 -19 55.5
t-53 20.5t-54 -21t-20 -57h-84q0 70 44 111.5t116 41.5q71 0 112.5 -39t41.5 -106q0 -75 -82 -160l-115 -118h205v-76zM188 502h-145v493h145q75 0 120.5 -42t45.5 -111v-187q0 -69 -45.5 -111t-120.5 -42zM127 920v-342h61q37 0 58.5 21t21.5 56v187q0 35 -21.5 56.5
t-58.5 21.5h-61z" />
    <glyph glyph-name="uni2413" unicode="&#x2413;" 
d="M604 928q-34 0 -53 -18.5t-19 -53.5v-215q0 -35 19 -53.5t53 -18.5q72 0 72 72h86q0 -66 -43 -105.5t-115 -39.5q-71 0 -113 39.5t-42 105.5v215q0 67 42 106t113 39q72 0 115 -39.5t43 -105.5h-86q0 72 -72 72zM43 995h145q75 0 120.5 -42t45.5 -111v-187
q0 -69 -45.5 -111t-120.5 -42h-145v493zM1171 926l-108 -111q59 -8 92 -45.5t33 -95.5v-37q0 -64 -43 -102.5t-115 -38.5t-115 38.5t-43 102.5h84q0 -34 19.5 -52t54.5 -18t54.5 18.5t19.5 51.5v37q0 69 -74 69h-57v70l106 111h-186v71h278v-69zM268 655v187
q0 35 -21.5 56.5t-58.5 21.5h-61v-342h61q37 0 58.5 21t21.5 56z" />
    <glyph glyph-name="uni2413" 
d="M604 928q-34 0 -53 -18.5t-19 -53.5v-215q0 -35 19 -53.5t53 -18.5q72 0 72 72h86q0 -66 -43 -105.5t-115 -39.5q-71 0 -113 39.5t-42 105.5v215q0 67 42 106t113 39q72 0 115 -39.5t43 -105.5h-86q0 72 -72 72zM43 995h145q75 0 120.5 -42t45.5 -111v-187
q0 -69 -45.5 -111t-120.5 -42h-145v493zM1171 926l-108 -111q59 -8 92 -45.5t33 -95.5v-37q0 -64 -43 -102.5t-115 -38.5t-115 38.5t-43 102.5h84q0 -34 19.5 -52t54.5 -18t54.5 18.5t19.5 51.5v37q0 69 -74 69h-57v70l106 111h-186v71h278v-69zM268 655v187
q0 35 -21.5 56.5t-58.5 21.5h-61v-342h61q37 0 58.5 21t21.5 56z" />
    <glyph glyph-name="uni2414" unicode="&#x2414;" 
d="M604 496q-71 0 -113 39.5t-42 105.5v215q0 67 42 106t113 39q72 0 115 -39.5t43 -105.5h-86q0 72 -72 72q-34 0 -53 -18.5t-19 -53.5v-215q0 -35 19 -53.5t53 -18.5q72 0 72 72h86q0 -66 -43 -105.5t-115 -39.5zM188 502h-145v493h145q75 0 120.5 -42t45.5 -111v-187
q0 -69 -45.5 -111t-120.5 -42zM1174 502h-84v98h-220v121l185 274h92l-195 -295v-26h138v112h84v-284zM127 920v-342h61q37 0 58.5 21t21.5 56v187q0 35 -21.5 56.5t-58.5 21.5h-61z" />
    <glyph glyph-name="uni2414" 
d="M604 496q-71 0 -113 39.5t-42 105.5v215q0 67 42 106t113 39q72 0 115 -39.5t43 -105.5h-86q0 72 -72 72q-34 0 -53 -18.5t-19 -53.5v-215q0 -35 19 -53.5t53 -18.5q72 0 72 72h86q0 -66 -43 -105.5t-115 -39.5zM188 502h-145v493h145q75 0 120.5 -42t45.5 -111v-187
q0 -69 -45.5 -111t-120.5 -42zM1174 502h-84v98h-220v121l185 274h92l-195 -295v-26h138v112h84v-284zM127 920v-342h61q37 0 58.5 21t21.5 56v187q0 35 -21.5 56.5t-58.5 21.5h-61z" />
    <glyph glyph-name="uni2415" unicode="&#x2415;" 
d="M117 502h-76v493h102l138 -399q-9 97 -9 166v233h76v-493h-102l-137 399q8 -78 8 -158v-241zM510 502h-86l123 493h110l123 -493h-86l-26 119h-131zM967 502h-84v493h84v-200h59l92 200h92l-110 -235l117 -258h-95l-96 219h-59v-219zM582 823l-31 -133h100l-28 133
q-19 80 -21 99q-4 -28 -20 -99z" />
    <glyph glyph-name="uni2415" 
d="M117 502h-76v493h102l138 -399q-9 97 -9 166v233h76v-493h-102l-137 399q8 -78 8 -158v-241zM510 502h-86l123 493h110l123 -493h-86l-26 119h-131zM967 502h-84v493h84v-200h59l92 200h92l-110 -235l117 -258h-95l-96 219h-59v-219zM582 823l-31 -133h100l-28 133
q-19 80 -21 99q-4 -28 -20 -99z" />
    <glyph glyph-name="uni2416" unicode="&#x2416;" 
d="M197 496q-75 0 -120.5 37.5t-45.5 101.5h84q0 -30 22.5 -48t59.5 -18t57 17.5t20 48.5q0 51 -53 67l-59 17q-58 15 -89.5 53t-31.5 92q0 63 41.5 100t112.5 37q72 0 114.5 -36.5t42.5 -98.5h-86q0 28 -19 45t-52 17t-51.5 -17t-18.5 -47q0 -48 53 -63l60 -17
q58 -15 89 -53t31 -94q0 -64 -43.5 -102.5t-117.5 -38.5zM645 502h-86v180l-143 313h88l76 -172q12 -27 24 -69q4 25 23 69l73 172h88l-143 -313v-180zM956 502h-75v493h102l137 -399q-8 86 -8 166v233h76v-493h-103l-137 399q8 -78 8 -158v-241z" />
    <glyph glyph-name="uni2416" 
d="M197 496q-75 0 -120.5 37.5t-45.5 101.5h84q0 -30 22.5 -48t59.5 -18t57 17.5t20 48.5q0 51 -53 67l-59 17q-58 15 -89.5 53t-31.5 92q0 63 41.5 100t112.5 37q72 0 114.5 -36.5t42.5 -98.5h-86q0 28 -19 45t-52 17t-51.5 -17t-18.5 -47q0 -48 53 -63l60 -17
q58 -15 89 -53t31 -94q0 -64 -43.5 -102.5t-117.5 -38.5zM645 502h-86v180l-143 313h88l76 -172q12 -27 24 -69q4 25 23 69l73 172h88l-143 -313v-180zM956 502h-75v493h102l137 -399q-8 86 -8 166v233h76v-493h-103l-137 399q8 -78 8 -158v-241z" />
    <glyph glyph-name="uni2417" unicode="&#x2417;" 
d="M348 502h-297v493h297v-73h-213v-129h189v-72h-189v-146h213v-73zM559 920h-129v75h344v-75h-129v-418h-86v418zM1112 764q41 -9 65.5 -41.5t24.5 -79.5q0 -64 -44 -102.5t-116 -38.5h-159v493h151q72 0 114 -34t42 -93q0 -40 -21 -68.5t-57 -35.5zM1034 924h-67v-131h67
q33 0 52.5 17.5t19.5 47.5q0 31 -19 48.5t-53 17.5zM967 571h69q38 0 59 20t21 54q0 36 -21 57t-59 21h-69v-152z" />
    <glyph glyph-name="uni2417" 
d="M348 502h-297v493h297v-73h-213v-129h189v-72h-189v-146h213v-73zM559 920h-129v75h344v-75h-129v-418h-86v418zM1112 764q41 -9 65.5 -41.5t24.5 -79.5q0 -64 -44 -102.5t-116 -38.5h-159v493h151q72 0 114 -34t42 -93q0 -40 -21 -68.5t-57 -35.5zM1034 924h-67v-131h67
q33 0 52.5 17.5t19.5 47.5q0 31 -19 48.5t-53 17.5zM967 571h69q38 0 59 20t21 54q0 36 -21 57t-59 21h-69v-152z" />
    <glyph glyph-name="uni2418" unicode="&#x2418;" 
d="M197 496q-71 0 -113.5 39.5t-42.5 105.5v215q0 67 42.5 106t113.5 39q72 0 114.5 -39.5t42.5 -105.5h-86q0 72 -71 72q-34 0 -53 -18.5t-19 -53.5v-215q0 -35 19 -53.5t53 -18.5q71 0 71 72h86q0 -66 -42.5 -105.5t-114.5 -39.5zM510 502h-86l123 493h110l123 -493h-86
l-26 119h-131zM956 502h-75v493h102l137 -399q-8 86 -8 166v233h76v-493h-103l-137 399q8 -78 8 -158v-241zM582 823l-31 -133h100l-28 133q-19 80 -21 99q-4 -28 -20 -99z" />
    <glyph glyph-name="uni2418" 
d="M197 496q-71 0 -113.5 39.5t-42.5 105.5v215q0 67 42.5 106t113.5 39q72 0 114.5 -39.5t42.5 -105.5h-86q0 72 -71 72q-34 0 -53 -18.5t-19 -53.5v-215q0 -35 19 -53.5t53 -18.5q71 0 71 72h86q0 -66 -42.5 -105.5t-114.5 -39.5zM510 502h-86l123 493h110l123 -493h-86
l-26 119h-131zM956 502h-75v493h102l137 -399q-8 86 -8 166v233h76v-493h-103l-137 399q8 -78 8 -158v-241zM582 823l-31 -133h100l-28 133q-19 80 -21 99q-4 -28 -20 -99z" />
    <glyph glyph-name="uni2419" unicode="&#x2419;" 
d="M559 502h-297v493h297v-73h-213v-129h189v-72h-189v-146h213v-73zM735 502h-78v493h99l49 -157q11 -44 16 -72q3 17 17 72l49 157h98v-493h-78v207q0 88 17 237l-66 -231h-74l-67 227q18 -142 18 -233v-207z" />
    <glyph glyph-name="uni2419" 
d="M559 502h-297v493h297v-73h-213v-129h189v-72h-189v-146h213v-73zM735 502h-78v493h99l49 -157q11 -44 16 -72q3 17 17 72l49 157h98v-493h-78v207q0 88 17 237l-66 -231h-74l-67 227q18 -142 18 -233v-207z" />
    <glyph glyph-name="uni241A" unicode="&#x241a;" 
d="M178 801l60 -17q58 -15 89 -53t31 -94q0 -64 -43.5 -102.5t-117.5 -38.5q-75 0 -120.5 37.5t-45.5 101.5h84q0 -30 22.5 -48t59.5 -18t57 17.5t20 48.5q0 51 -53 67l-59 17q-58 15 -89.5 53t-31.5 92q0 63 41.5 100t112.5 37q72 0 114.5 -36.5t42.5 -98.5h-86
q0 28 -19 45t-52 17t-51.5 -17t-18.5 -47q0 -48 53 -63zM672 643v352h84v-352q0 -69 -41 -108t-113 -39t-112.5 39t-40.5 108v352h83v-352q0 -35 18 -54.5t52 -19.5t52 19.5t18 54.5zM1112 764q41 -9 65.5 -41.5t24.5 -79.5q0 -64 -44 -102.5t-116 -38.5h-159v493h151
q72 0 114 -34t42 -93q0 -40 -21 -68.5t-57 -35.5zM1034 924h-67v-131h67q33 0 52.5 17.5t19.5 47.5q0 31 -19 48.5t-53 17.5zM967 571h69q38 0 59 20t21 54q0 36 -21 57t-59 21h-69v-152z" />
    <glyph glyph-name="uni241A" 
d="M178 801l60 -17q58 -15 89 -53t31 -94q0 -64 -43.5 -102.5t-117.5 -38.5q-75 0 -120.5 37.5t-45.5 101.5h84q0 -30 22.5 -48t59.5 -18t57 17.5t20 48.5q0 51 -53 67l-59 17q-58 15 -89.5 53t-31.5 92q0 63 41.5 100t112.5 37q72 0 114.5 -36.5t42.5 -98.5h-86
q0 28 -19 45t-52 17t-51.5 -17t-18.5 -47q0 -48 53 -63zM672 643v352h84v-352q0 -69 -41 -108t-113 -39t-112.5 39t-40.5 108v352h83v-352q0 -35 18 -54.5t52 -19.5t52 19.5t18 54.5zM1112 764q41 -9 65.5 -41.5t24.5 -79.5q0 -64 -44 -102.5t-116 -38.5h-159v493h151
q72 0 114 -34t42 -93q0 -40 -21 -68.5t-57 -35.5zM1034 924h-67v-131h67q33 0 52.5 17.5t19.5 47.5q0 31 -19 48.5t-53 17.5zM967 571h69q38 0 59 20t21 54q0 36 -21 57t-59 21h-69v-152z" />
    <glyph glyph-name="uni241B" unicode="&#x241b;" 
d="M604 496q-75 0 -120.5 37.5t-45.5 101.5h84q0 -30 22.5 -48t59.5 -18t57.5 17.5t20.5 48.5q0 51 -53 67l-60 17q-58 15 -89 53t-31 92q0 63 41.5 100t111.5 37q72 0 115 -36.5t43 -98.5h-86q0 28 -19.5 45t-52.5 17t-51.5 -17t-18.5 -47q0 -48 54 -63l59 -17
q58 -15 89.5 -53t31.5 -94q0 -64 -44 -102.5t-118 -38.5zM1036 496q-71 0 -113 39.5t-42 105.5v215q0 67 42 106t113 39q72 0 115 -39.5t43 -105.5h-86q0 72 -72 72q-71 0 -71 -72v-215q0 -72 71 -72q72 0 72 72h86q0 -66 -43 -105.5t-115 -39.5zM348 502h-297v493h297v-73
h-213v-129h189v-72h-189v-146h213v-73z" />
    <glyph glyph-name="uni241B" 
d="M604 496q-75 0 -120.5 37.5t-45.5 101.5h84q0 -30 22.5 -48t59.5 -18t57.5 17.5t20.5 48.5q0 51 -53 67l-60 17q-58 15 -89 53t-31 92q0 63 41.5 100t111.5 37q72 0 115 -36.5t43 -98.5h-86q0 28 -19.5 45t-52.5 17t-51.5 -17t-18.5 -47q0 -48 54 -63l59 -17
q58 -15 89.5 -53t31.5 -94q0 -64 -44 -102.5t-118 -38.5zM1036 496q-71 0 -113 39.5t-42 105.5v215q0 67 42 106t113 39q72 0 115 -39.5t43 -105.5h-86q0 72 -72 72q-71 0 -71 -72v-215q0 -72 71 -72q72 0 72 72h86q0 -66 -43 -105.5t-115 -39.5zM348 502h-297v493h297v-73
h-213v-129h189v-72h-189v-146h213v-73z" />
    <glyph glyph-name="uni241C" unicode="&#x241c;" 
d="M823 496q-75 0 -120.5 37.5t-45.5 101.5h84q0 -30 22.5 -48t59.5 -18t57.5 17.5t20.5 48.5q0 51 -53 67l-60 17q-58 15 -89 53t-31 92q0 63 41.5 100t111.5 37q72 0 115 -36.5t43 -98.5h-86q0 28 -19.5 45t-52.5 17q-32 0 -50.5 -16.5t-18.5 -47.5q0 -48 53 -63l59 -17
q58 -15 89.5 -53t31.5 -94q0 -64 -44 -102.5t-118 -38.5zM342 502h-84v493h305v-77h-223v-134h207v-77h-205v-205z" />
    <glyph glyph-name="uni241C" 
d="M823 496q-75 0 -120.5 37.5t-45.5 101.5h84q0 -30 22.5 -48t59.5 -18t57.5 17.5t20.5 48.5q0 51 -53 67l-60 17q-58 15 -89 53t-31 92q0 63 41.5 100t111.5 37q72 0 115 -36.5t43 -98.5h-86q0 28 -19.5 45t-52.5 17q-32 0 -50.5 -16.5t-18.5 -47.5q0 -48 53 -63l59 -17
q58 -15 89.5 -53t31.5 -94q0 -64 -44 -102.5t-118 -38.5zM342 502h-84v493h305v-77h-223v-134h207v-77h-205v-205z" />
    <glyph glyph-name="uni241D" unicode="&#x241d;" 
d="M408 496q-71 0 -113.5 39.5t-42.5 105.5v215q0 67 42.5 106t113.5 39q72 0 114.5 -39.5t42.5 -105.5h-86q0 72 -71 72q-34 0 -53 -18.5t-19 -53.5v-215q0 -35 19 -53.5t53 -18.5q71 0 71 72v49h-84v74h170v-123q0 -66 -42.5 -105.5t-114.5 -39.5zM823 496
q-75 0 -120.5 37.5t-45.5 101.5h84q0 -30 22.5 -48t59.5 -18t57.5 17.5t20.5 48.5q0 51 -53 67l-60 17q-58 15 -89 53t-31 92q0 63 41.5 100t111.5 37q72 0 115 -36.5t43 -98.5h-86q0 28 -19.5 45t-52.5 17q-32 0 -50.5 -16.5t-18.5 -47.5q0 -48 53 -63l59 -17
q58 -15 89.5 -53t31.5 -94q0 -64 -44 -102.5t-118 -38.5z" />
    <glyph glyph-name="uni241D" 
d="M408 496q-71 0 -113.5 39.5t-42.5 105.5v215q0 67 42.5 106t113.5 39q72 0 114.5 -39.5t42.5 -105.5h-86q0 72 -71 72q-34 0 -53 -18.5t-19 -53.5v-215q0 -35 19 -53.5t53 -18.5q71 0 71 72v49h-84v74h170v-123q0 -66 -42.5 -105.5t-114.5 -39.5zM823 496
q-75 0 -120.5 37.5t-45.5 101.5h84q0 -30 22.5 -48t59.5 -18t57.5 17.5t20.5 48.5q0 51 -53 67l-60 17q-58 15 -89 53t-31 92q0 63 41.5 100t111.5 37q72 0 115 -36.5t43 -98.5h-86q0 28 -19.5 45t-52.5 17q-32 0 -50.5 -16.5t-18.5 -47.5q0 -48 53 -63l59 -17
q58 -15 89.5 -53t31.5 -94q0 -64 -44 -102.5t-118 -38.5z" />
    <glyph glyph-name="uni241E" unicode="&#x241e;" 
d="M823 496q-75 0 -120.5 37.5t-45.5 101.5h84q0 -30 22.5 -48t59.5 -18t57.5 17.5t20.5 48.5q0 51 -53 67l-60 17q-58 15 -89 53t-31 92q0 63 41.5 100t111.5 37q72 0 115 -36.5t43 -98.5h-86q0 28 -19.5 45t-52.5 17q-32 0 -50.5 -16.5t-18.5 -47.5q0 -48 53 -63l59 -17
q58 -15 89.5 -53t31.5 -94q0 -64 -44 -102.5t-118 -38.5zM338 502h-84v493h156q74 0 117.5 -40t43.5 -107q0 -49 -24 -85.5t-66 -51.5l99 -209h-95l-86 196h-61v-196zM338 922v-150h72q35 0 56 20t21 54q0 35 -21 55.5t-56 20.5h-72z" />
    <glyph glyph-name="uni241E" 
d="M823 496q-75 0 -120.5 37.5t-45.5 101.5h84q0 -30 22.5 -48t59.5 -18t57.5 17.5t20.5 48.5q0 51 -53 67l-60 17q-58 15 -89 53t-31 92q0 63 41.5 100t111.5 37q72 0 115 -36.5t43 -98.5h-86q0 28 -19.5 45t-52.5 17q-32 0 -50.5 -16.5t-18.5 -47.5q0 -48 53 -63l59 -17
q58 -15 89.5 -53t31.5 -94q0 -64 -44 -102.5t-118 -38.5zM338 502h-84v493h156q74 0 117.5 -40t43.5 -107q0 -49 -24 -85.5t-66 -51.5l99 -209h-95l-86 196h-61v-196zM338 922v-150h72q35 0 56 20t21 54q0 35 -21 55.5t-56 20.5h-72z" />
    <glyph glyph-name="uni241F" unicode="&#x241f;" 
d="M823 496q-75 0 -120.5 37.5t-45.5 101.5h84q0 -30 22.5 -48t59.5 -18t57.5 17.5t20.5 48.5q0 51 -53 67l-60 17q-58 15 -89 53t-31 92q0 63 41.5 100t111.5 37q72 0 115 -36.5t43 -98.5h-86q0 28 -19.5 45t-52.5 17q-32 0 -50.5 -16.5t-18.5 -47.5q0 -48 53 -63l59 -17
q58 -15 89.5 -53t31.5 -94q0 -64 -44 -102.5t-118 -38.5zM406 496q-72 0 -113 39t-41 108v352h84v-352q0 -35 18 -54.5t52 -19.5q69 0 69 74v352h84v-352q0 -69 -40.5 -108t-112.5 -39z" />
    <glyph glyph-name="uni241F" 
d="M823 496q-75 0 -120.5 37.5t-45.5 101.5h84q0 -30 22.5 -48t59.5 -18t57.5 17.5t20.5 48.5q0 51 -53 67l-60 17q-58 15 -89 53t-31 92q0 63 41.5 100t111.5 37q72 0 115 -36.5t43 -98.5h-86q0 28 -19.5 45t-52.5 17q-32 0 -50.5 -16.5t-18.5 -47.5q0 -48 53 -63l59 -17
q58 -15 89.5 -53t31.5 -94q0 -64 -44 -102.5t-118 -38.5zM406 496q-72 0 -113 39t-41 108v352h84v-352q0 -35 18 -54.5t52 -19.5q69 0 69 74v352h84v-352q0 -69 -40.5 -108t-112.5 -39z" />
    <glyph glyph-name="space" unicode=" " horiz-adv-x="819" 
 />
    <glyph glyph-name="exclam" unicode="!" horiz-adv-x="819" 
d="M504 477h-189l-45 735v283h279v-283zM438 -10h-59q-63 0 -102 37.5t-39 97.5t39 97.5t102 37.5h61q64 0 103 -37.5t39 -97.5t-40 -97.5t-104 -37.5z" />
    <glyph glyph-name="quotedbl" unicode="&#x22;" horiz-adv-x="819" 
d="M289 881h-207l-27 346v268h258v-268zM739 881h-207l-26 346v268h258v-268z" />
    <glyph glyph-name="numbersign" unicode="#" 
d="M338 0h-180l69 389h-155v174h184l63 369h-176v174h207l70 389h180l-70 -389h291l70 389h180l-70 -389h156v-174h-186l-64 -369h178v-174h-208l-68 -389h-180l69 389h-292zM500 932l-64 -369h291l64 369h-291z" />
    <glyph glyph-name="dollar" unicode="$" 
d="M678 872l67 -18q178 -46 272.5 -161.5t94.5 -284.5q0 -178 -118 -293.5t-316 -132.5v-269h-127v271q-201 15 -317 126t-117 291h256q0 -76 46.5 -126.5t131.5 -65.5v434l-37 10q-174 44 -270.5 161.5t-96.5 283.5q0 174 108.5 285t295.5 128v271h127v-269
q189 -17 300 -126.5t112 -282.5h-256q0 74 -40.5 121.5t-115.5 60.5v-414zM403 1112q0 -72 39 -126t109 -77v377q-72 -13 -110 -58t-38 -116zM678 604v-397q85 12 131.5 62t46.5 128q0 77 -47 132t-131 75z" />
    <glyph glyph-name="percent" unicode="%" 
d="M324 819q-131 0 -215 75t-84 202v133q0 127 83.5 201.5t215.5 74.5q131 0 214 -74.5t83 -201.5v-133q0 -127 -83 -202t-214 -75zM178 0h-184l1057 1495h184zM324 977q116 0 116 119v133q0 119 -116 119q-117 0 -117 -119v-133q0 -119 117 -119zM905 -10q-133 0 -215 75.5
t-82 200.5v133q0 125 82 201t215 76t216 -76t83 -201v-133q0 -125 -83 -200.5t-216 -75.5zM905 150q59 0 88 27.5t29 88.5v133q0 119 -117 119t-117 -119v-133q0 -116 117 -116z" />
    <glyph glyph-name="ampersand" unicode="&#x26;" 
d="M1165 737l-219 -415l230 -322h-256l-97 135q-140 -155 -346 -155q-184 0 -286.5 101.5t-102.5 283.5v190q0 122 54 204.5t155 114.5q-102 156 -102 297q0 154 108 249.5t285 95.5q184 0 294.5 -102t110.5 -271h-237q0 75 -45.5 118.5t-122.5 43.5q-74 0 -118 -42
t-44 -112q0 -96 96 -229l283 -400l113 215h247zM498 190q58 0 109.5 32t88.5 91l-280 394q-84 -38 -84 -152v-190q0 -83 44.5 -129t121.5 -46z" />
    <glyph glyph-name="quotesingle" unicode="'" horiz-adv-x="409" 
d="M309 881h-207l-28 295v319h260v-319z" />
    <glyph glyph-name="parenleft" unicode="(" horiz-adv-x="819" 
d="M731 12v-258q-312 82 -481.5 290t-169.5 507v371q0 295 173 506.5t478 291.5v-252q-183 -44 -289 -190t-106 -356v-371q0 -206 106 -351t289 -188z" />
    <glyph glyph-name="parenright" unicode=")" horiz-adv-x="819" 
d="M72 -246v258q183 43 289 188t106 351v371q0 210 -106 356t-289 190v252q305 -80 478 -291.5t173 -506.5v-371q0 -299 -169.5 -507t-481.5 -290z" />
    <glyph glyph-name="asterisk" unicode="*" 
d="M473 299l-84 -121l-188 131l84 121q71 102 247 229l-4 13q-214 5 -329 47l-138 49l80 217l135 -49q117 -44 285 -180l10 8q-71 216 -71 338v147h229v-147q0 -129 -74 -338l11 -6q176 137 284 178l137 49l80 -217l-139 -49q-115 -42 -328 -47l-4 -13q179 -134 246 -229
l84 -121l-188 -131l-84 121q-72 102 -133 313h-13q-70 -224 -135 -313z" />
    <glyph glyph-name="plus" unicode="+" 
d="M741 188h-254v369h-366v238h366v368h254v-368h367v-238h-367v-369z" />
    <glyph glyph-name="comma" unicode="," horiz-adv-x="819" 
d="M362 -328h-225l164 637h328z" />
    <glyph glyph-name="hyphen" unicode="-" 
d="M942 557h-655v238h655v-238z" />
    <glyph glyph-name="period" unicode="." horiz-adv-x="819" 
d="M410 -20q-88 0 -140.5 51.5t-52.5 138.5q0 89 52.5 140.5t140.5 51.5t140 -51.5t52 -140.5q0 -88 -52 -139t-140 -51z" />
    <glyph glyph-name="slash" unicode="/" 
d="M389 -225h-266l717 1925h266z" />
    <glyph glyph-name="zero" unicode="0" 
d="M614 -20q-218 0 -346.5 121.5t-128.5 324.5v643q0 203 128.5 325t346.5 122t347 -122t129 -325v-643q0 -202 -129.5 -324t-346.5 -122zM614 201q106 0 170 62t64 163v643q0 102 -63.5 163.5t-170.5 61.5t-170 -61.5t-63 -163.5v-643q0 -101 63.5 -163t169.5 -62zM614 614
q-61 0 -98 38.5t-37 101.5q0 62 36.5 98.5t98.5 36.5t99 -37t37 -98q0 -63 -37.5 -101.5t-98.5 -38.5z" />
    <glyph glyph-name="one" unicode="1" 
d="M1130 0h-958v231h389v1037l-391 -291v270l344 248h303v-1264h313v-231z" />
    <glyph glyph-name="two" unicode="2" 
d="M1096 0h-934v233l506 525q153 163 153 299q0 107 -58.5 168t-160.5 61q-105 0 -165 -62.5t-60 -172.5h-256q3 214 134 339.5t351 125.5q215 0 343 -120t128 -323q0 -119 -60.5 -234t-193.5 -251l-348 -357h621v-231z" />
    <glyph glyph-name="three" unicode="3" 
d="M1028 1284l-330 -336q179 -25 281 -138t102 -288v-112q0 -196 -130.5 -313t-350.5 -117q-218 0 -348.5 117t-130.5 313h258q0 -100 59 -156.5t164 -56.5t163 56.5t58 156.5v112q0 101 -57.5 157t-163.5 56h-176v205l326 336h-564v219h840v-211z" />
    <glyph glyph-name="four" unicode="4" 
d="M1040 0h-258v297h-663v371l555 827h282l-591 -893v-80h417v338h258v-860z" />
    <glyph glyph-name="five" unicode="5" 
d="M700 981q182 1 283.5 -110t101.5 -310v-145q0 -203 -125.5 -319.5t-347.5 -116.5q-207 0 -332 103t-137 282h256q8 -77 62.5 -119.5t150.5 -42.5q105 0 161 55.5t56 157.5v145q0 102 -55.5 156.5t-161.5 54.5q-132 0 -184 -100h-250l10 823h842v-231h-600l-4 -435h4
q20 71 91 111.5t179 40.5z" />
    <glyph glyph-name="six" unicode="6" 
d="M614 -20q-227 0 -366 137.5t-139 361.5q0 187 141 430l336 586h278l-413 -702l12 -9q88 131 258 131q179 0 289 -124t110 -328q0 -217 -139.5 -350t-366.5 -133zM614 197q114 0 184 72.5t70 189.5q0 119 -70 192.5t-184 73.5t-184 -73.5t-70 -192.5q0 -117 70 -189.5
t184 -72.5z" />
    <glyph glyph-name="seven" unicode="7" 
d="M606 0h-280l546 1270h-483v-244h-256v469h1008v-225z" />
    <glyph glyph-name="eight" unicode="8" 
d="M838 772q136 -66 208 -165.5t72 -221.5q0 -184 -138.5 -294.5t-365.5 -110.5q-226 0 -364.5 111.5t-138.5 293.5q0 125 75 224.5t207 162.5q-122 60 -186 149t-64 201q0 171 130.5 282.5t340.5 111.5q208 0 338.5 -111.5t130.5 -282.5q0 -226 -245 -350zM614 1300
q-98 0 -159.5 -53.5t-61.5 -138.5q0 -71 47 -129.5t125 -91.5l51 -21l46 19q77 33 124.5 93t47.5 130q0 85 -61 138.5t-159 53.5zM614 197q111 0 182.5 60t71.5 153q0 72 -51.5 137.5t-132.5 99.5l-68 29l-73 -31q-80 -33 -131.5 -97.5t-51.5 -135.5q0 -95 71.5 -155
t182.5 -60z" />
    <glyph glyph-name="nine" unicode="9" 
d="M655 0h-284l409 696l-12 9q-88 -134 -260 -134q-177 0 -288 128t-111 329q0 217 140.5 352.5t364.5 135.5t365 -138t141 -358q0 -178 -141 -432zM614 764q114 0 184 74t70 194q0 118 -70.5 192t-183.5 74t-183.5 -74t-70.5 -192q0 -120 70 -194t184 -74z" />
    <glyph glyph-name="colon" unicode=":" horiz-adv-x="819" 
d="M410 803q-86 0 -138.5 47.5t-52.5 124.5t52.5 124.5t138.5 47.5t138 -47.5t52 -124.5t-52 -124.5t-138 -47.5zM410 -20q-86 0 -138.5 47.5t-52.5 124.5t52.5 124.5t138.5 47.5t138 -47.5t52 -124.5t-52 -124.5t-138 -47.5z" />
    <glyph glyph-name="semicolon" unicode=";" horiz-adv-x="819" 
d="M428 803h-41q-73 0 -121.5 49t-48.5 123t48.5 123t121.5 49h41q75 0 123.5 -49t48.5 -123t-48.5 -123t-123.5 -49zM336 -328h-223l163 637h326z" />
    <glyph glyph-name="less" unicode="&#x3c;" 
d="M1073 354v-239l-917 432v256l917 432v-236l-594 -274q-78 -36 -143 -49q74 -14 143 -47z" />
    <glyph glyph-name="equal" unicode="=" 
d="M1061 809h-893v235h893v-235zM1061 307h-893v236h893v-236z" />
    <glyph glyph-name="greater" unicode="&#x3e;" 
d="M1073 547l-917 -432v235l594 275q78 36 143 49q-81 16 -143 45l-594 276v240l917 -432v-256z" />
    <glyph glyph-name="question" unicode="?" 
d="M612 444h-227l-4 410h162q102 0 163.5 55t61.5 146q0 92 -61.5 146t-165.5 54h-305v240h292q227 0 361.5 -119.5t134.5 -320.5q0 -186 -114 -304t-298 -122v-185zM528 -10h-59q-63 0 -102 37.5t-39 97.5t39 97.5t102 37.5h61q64 0 102 -37t38 -98q0 -60 -39.5 -97.5
t-102.5 -37.5z" />
    <glyph glyph-name="at" unicode="@" 
d="M645 1516q243 0 384.5 -136t141.5 -360v-887h-206v146h-9q-8 -75 -67 -120.5t-152 -45.5q-129 0 -196.5 85t-67.5 244v234q0 159 68 244.5t196 85.5q93 0 153 -45.5t68 -120.5h7l-7 159v21q0 150 -82.5 230.5t-238.5 80.5q-168 0 -262 -107.5t-94 -301.5v-695
q0 -189 101 -294t284 -105h143v-195h-143q-277 0 -437.5 159.5t-160.5 434.5v695q0 277 154 435.5t423 158.5zM958 451v225q0 174 -139 174t-139 -174v-234q0 -91 34.5 -132.5t104.5 -41.5q72 0 105.5 43.5t33.5 139.5z" />
    <glyph glyph-name="A" unicode="A" 
d="M334 0h-262l377 1495h329l379 -1495h-262l-82 362h-397zM553 975l-90 -404h303l-90 402q-52 241 -62 299q-21 -127 -61 -297z" />
    <glyph glyph-name="B" unicode="B" 
d="M848 791q127 -26 200.5 -123.5t73.5 -241.5q0 -194 -131.5 -310t-351.5 -116h-481v1495h458q216 0 343.5 -104t127.5 -281q0 -124 -63 -208.5t-176 -110.5zM612 1282h-204v-403h204q101 0 160 54t59 148t-59 147.5t-160 53.5zM408 213h215q112 0 176.5 60.5t64.5 164.5
q0 105 -65 169.5t-176 64.5h-215v-459z" />
    <glyph glyph-name="C" unicode="C" 
d="M623 -20q-217 0 -346.5 120t-129.5 322v651q0 202 129.5 322.5t346.5 120.5q215 0 345 -121t130 -322h-258q0 105 -57 161t-160 56q-105 0 -162.5 -55.5t-57.5 -159.5v-653q0 -105 57.5 -161t162.5 -56q103 0 160 56t57 161h258q0 -201 -130 -321.5t-345 -120.5z" />
    <glyph glyph-name="D" unicode="D" 
d="M598 0h-444v1495h444q226 0 362 -127.5t136 -339.5v-559q0 -212 -136 -340.5t-362 -128.5zM410 1266v-1037h188q110 0 176 65.5t66 174.5v559q0 109 -66 173.5t-176 64.5h-188z" />
    <glyph glyph-name="E" unicode="E" 
d="M1077 0h-897v1495h897v-225h-645v-389h574v-217h-574v-439h645v-225z" />
    <glyph glyph-name="F" unicode="F" 
d="M420 0h-256v1495h930v-238h-678v-399h624v-237h-620v-621z" />
    <glyph glyph-name="G" unicode="G" 
d="M623 -20q-217 0 -346.5 120t-129.5 322v651q0 202 129.5 322.5t346.5 120.5q215 0 345 -121t130 -322h-258q0 105 -57 161t-160 56q-105 0 -162.5 -55.5t-57.5 -159.5v-653q0 -105 57.5 -162t162.5 -57q103 0 160 57t57 162v151h-254v222h512v-373q0 -201 -130 -321.5
t-345 -120.5z" />
    <glyph glyph-name="H" unicode="H" 
d="M414 0h-256v1495h256v-600h401v600h256v-1495h-256v664h-401v-664z" />
    <glyph glyph-name="I" unicode="I" 
d="M1044 0h-860v231h301v1033h-301v231h860v-231h-301v-1033h301v-231z" />
    <glyph glyph-name="J" unicode="J" 
d="M553 -20q-227 0 -359.5 124t-132.5 338h256q0 -112 63 -175.5t173 -63.5q109 0 172 63.5t63 173.5v824h-419v231h675v-1055q0 -214 -132 -337t-359 -123z" />
    <glyph glyph-name="K" unicode="K" 
d="M412 0h-256v1495h256v-610h176l284 610h277l-336 -713l352 -782h-284l-295 662h-174v-662z" />
    <glyph glyph-name="L" unicode="L" 
d="M1139 0h-891v1495h256v-1264h635v-231z" />
    <glyph glyph-name="M" unicode="M" 
d="M354 0h-239v1495h303l143 -475q38 -122 53 -217q14 88 54 217l141 475h305v-1495h-240v629q0 295 54 721l-203 -707h-223l-205 692q57 -401 57 -706v-629z" />
    <glyph glyph-name="N" unicode="N" 
d="M381 0h-234v1495h314l416 -1208q-29 312 -29 499v709h233v-1495h-313l-412 1208q25 -297 25 -477v-731z" />
    <glyph glyph-name="O" unicode="O" 
d="M614 -20q-215 0 -341 119.5t-126 322.5v651q0 203 126 323t341 120t341 -119.5t126 -321.5v-653q0 -203 -126 -322.5t-341 -119.5zM614 205q103 0 157 55.5t54 161.5v651q0 106 -53.5 161.5t-157.5 55.5t-157.5 -55.5t-53.5 -161.5v-651q0 -106 54 -161.5t157 -55.5z" />
    <glyph glyph-name="P" unicode="P" 
d="M414 0h-256v1495h497q226 0 361 -126t135 -335t-136 -335t-360 -126h-241v-573zM414 1270v-471h241q107 0 171.5 65t64.5 170q0 106 -64.5 171t-171.5 65h-241z" />
    <glyph glyph-name="Q" unicode="Q" 
d="M866 35l248 -404h-276l-211 349h-13q-215 0 -345 122.5t-130 323.5v643q0 203 129.5 325t345.5 122q215 0 345.5 -122.5t130.5 -324.5v-643q0 -134 -59 -236t-165 -155zM834 426v643q0 104 -58.5 163.5t-161.5 59.5t-161 -59.5t-58 -163.5v-643q0 -104 57 -162.5
t162 -58.5t162.5 58.5t57.5 162.5z" />
    <glyph glyph-name="R" unicode="R" 
d="M412 0h-256v1495h473q223 0 357 -121.5t134 -322.5q0 -149 -74 -261t-202 -159l297 -631h-287l-260 594h-182v-594zM412 1270v-451h217q107 0 169 59.5t62 163.5q0 106 -62 167t-169 61h-217z" />
    <glyph glyph-name="S" unicode="S" 
d="M618 -20q-229 0 -365 115t-136 308h256q0 -91 67.5 -145.5t180.5 -54.5q110 0 172.5 53.5t62.5 144.5q0 75 -43 130t-119 75l-180 49q-173 46 -270 162.5t-97 280.5q0 191 127 304.5t342 113.5q217 0 345.5 -111.5t128.5 -300.5h-256q0 87 -59 137.5t-161 50.5
q-100 0 -156.5 -50.5t-56.5 -139.5q0 -71 42.5 -122t121.5 -71l183 -51q175 -46 269.5 -162.5t94.5 -285.5q0 -194 -135 -312t-359 -118z" />
    <glyph glyph-name="T" unicode="T" 
d="M743 0h-258v1264h-391v231h1041v-231h-392v-1264z" />
    <glyph glyph-name="U" unicode="U" 
d="M614 -20q-219 0 -343 119t-124 327v1069h259v-1067q0 -107 53 -166t155 -59q101 0 155 59t54 166v1067h258v-1069q0 -208 -124 -327t-343 -119z" />
    <glyph glyph-name="V" unicode="V" 
d="M780 0h-331l-377 1495h264l227 -975q39 -165 58 -287q24 161 57 289l219 973h260z" />
    <glyph glyph-name="W" unicode="W" 
d="M471 0h-285l-153 1495h221l90 -1044q13 -154 16 -277q8 111 27 277l123 1044h215l115 -1044q23 -205 32 -277q4 161 17 277l88 1044h219l-162 -1495h-282l-111 1049q-17 139 -25 284q-17 -209 -24 -284z" />
    <glyph glyph-name="X" unicode="X" 
d="M336 0h-279l414 766l-389 729h287l188 -375q42 -85 61 -137q22 60 60 137l190 375h279l-389 -723l413 -772h-286l-211 414q-30 59 -64 141q-23 -66 -61 -141z" />
    <glyph glyph-name="Y" unicode="Y" 
d="M743 0h-258v543l-438 952h268l234 -518q43 -100 69 -213q25 108 70 213l227 518h267l-439 -952v-543z" />
    <glyph glyph-name="Z" unicode="Z" 
d="M1067 0h-905v238l600 1026h-586v231h868v-238l-602 -1026h625v-231z" />
    <glyph glyph-name="bracketleft" unicode="[" horiz-adv-x="819" 
d="M748 -225h-574v1925h574v-236h-318v-1454h318v-235z" />
    <glyph glyph-name="backslash" unicode="\" 
d="M1104 -225h-266l-715 1925h266z" />
    <glyph glyph-name="bracketright" unicode="]" horiz-adv-x="819" 
d="M645 -225h-573v235h317v1454h-317v236h573v-1925z" />
    <glyph glyph-name="asciicircum" unicode="^" 
d="M377 696h-238l355 799h245l351 -799h-240l-188 471q-29 72 -44 144q-12 -56 -47 -144z" />
    <glyph glyph-name="underscore" unicode="_" 
d="M1106 -283h-983v232h983v-232z" />
    <glyph glyph-name="grave" unicode="`" 
d="M795 1321h-265l-237 287h282z" />
    <glyph glyph-name="a" unicode="a" 
d="M625 1147q208 0 329 -102.5t121 -280.5v-764h-248v190h-4q-22 -98 -110.5 -154t-223.5 -56q-174 0 -274 91t-100 248q0 166 114 257.5t320 91.5h270v94q0 83 -53 127.5t-150 44.5q-88 0 -144 -37t-62 -98h-244q9 158 134 253t325 95zM573 170q108 0 177 55t69 144v135
h-264q-86 0 -135 -43.5t-49 -120.5q0 -80 53.5 -125t148.5 -45z" />
    <glyph glyph-name="b" unicode="b" 
d="M711 1147q171 0 272.5 -117t101.5 -315v-305q0 -197 -102 -313.5t-272 -116.5q-122 0 -202.5 60t-100.5 167v-207h-250v1495h256v-315l-8 -269q19 110 100 173t205 63zM829 422v283q0 105 -54.5 163t-153.5 58q-97 0 -152 -58.5t-55 -162.5v-283q0 -105 55 -163t152 -58
q99 0 153.5 58t54.5 163z" />
    <glyph glyph-name="c" unicode="c" 
d="M621 -20q-217 0 -347.5 120t-130.5 322v283q0 202 130.5 322t347.5 120q212 0 339.5 -109.5t133.5 -298.5h-250q-6 87 -66 136t-157 49q-104 0 -163 -57t-59 -160v-285q0 -105 59 -162t163 -57q98 0 157.5 48.5t65.5 135.5h250q-6 -189 -133 -298t-340 -109z" />
    <glyph glyph-name="d" unicode="d" 
d="M815 1180v315h256v-1495h-250v203h-2q-31 -107 -110 -165t-197 -58q-165 0 -267 117.5t-102 312.5v305q0 197 101 314.5t268 117.5q116 0 196 -58.5t111 -164.5h4zM608 201q98 0 152.5 60t54.5 167v270q0 107 -54.5 167.5t-152.5 60.5q-99 0 -154 -58t-55 -163v-283
q0 -105 55 -163t154 -58z" />
    <glyph glyph-name="e" unicode="e" 
d="M1085 705v-203h-694v-80q0 -240 227 -240q176 0 207 117h252q-29 -145 -155 -232t-306 -87q-215 0 -344 121t-129 321v283q0 200 129 321t344 121q213 0 341 -121t128 -321zM391 705v-43l447 4v41q0 118 -56 179.5t-166 61.5q-111 0 -168 -62.5t-57 -180.5z" />
    <glyph glyph-name="f" unicode="f" horiz-adv-x="1024" 
d="M551 0h-256v770h-225v231h225v170q0 148 97.5 236t260.5 88h281v-225h-275q-50 0 -79 -28t-29 -75v-166h383v-231h-383v-770z" />
    <glyph glyph-name="g" unicode="g" 
d="M821 911l-6 215h256v-1126q0 -171 -113 -270t-309 -99h-338v213h334q85 0 128.5 41.5t43.5 120.5v84l4 211h-4q-15 -112 -93 -173.5t-202 -61.5q-172 0 -273.5 116.5t-101.5 315.5v219q0 197 101.5 313.5t273.5 116.5q124 0 202 -62t93 -174h4zM608 287q97 0 152 58.5
t55 162.5v197q0 104 -55 162.5t-152 58.5q-98 0 -151.5 -57.5t-53.5 -163.5v-197q0 -106 53.5 -163.5t151.5 -57.5z" />
    <glyph glyph-name="h" unicode="h" 
d="M711 1147q166 0 265 -111t99 -297v-739h-256v713q0 101 -53.5 157t-147.5 56q-96 0 -150 -58t-54 -163v-705h-256v1495h256v-369l-6 -215h4q17 111 95.5 173.5t203.5 62.5z" />
    <glyph glyph-name="i" unicode="i" horiz-adv-x="1024" 
d="M530 1315q-77 0 -122.5 39t-45.5 108q0 67 45.5 107.5t122.5 40.5t122.5 -40.5t45.5 -107.5q0 -69 -45.5 -108t-122.5 -39zM952 0h-817v231h293v664h-244v231h500v-895h268v-231z" />
    <glyph glyph-name="j" unicode="j" horiz-adv-x="819" 
d="M518 1315q-77 0 -122.5 39t-45.5 108q0 67 45.5 107.5t122.5 40.5t122.5 -40.5t45.5 -107.5q0 -69 -45.5 -108t-122.5 -39zM209 -369h-170v232h156q98 0 155.5 58.5t57.5 158.5v815h-320v231h576v-1052q0 -204 -123 -323.5t-332 -119.5z" />
    <glyph glyph-name="k" unicode="k" 
d="M420 0h-256v1495h256v-811h180l274 442h285l-340 -544l346 -582h-291l-274 467h-180v-467z" />
    <glyph glyph-name="l" unicode="l" horiz-adv-x="819" 
d="M778 0h-192q-167 0 -269 100.5t-102 264.5v899h-201v231h457v-1124q0 -63 36.5 -101.5t96.5 -38.5h174v-231z" />
    <glyph glyph-name="m" unicode="m" horiz-adv-x="1638" 
d="M1188 1147q137 0 221 -80.5t84 -208.5v-858h-256v840q0 55 -40 85.5t-110 30.5t-111.5 -30.5t-41.5 -85.5v-840h-225v840q0 55 -41 85.5t-111 30.5t-110.5 -30.5t-40.5 -85.5v-840h-256v1126h239v-151h12q14 77 84 124.5t170 47.5q98 0 167 -46.5t96 -125.5h6
q15 76 88.5 124t175.5 48z" />
    <glyph glyph-name="n" unicode="n" 
d="M711 1147q166 0 265 -111t99 -297v-739h-256v713q0 101 -53.5 157t-147.5 56q-96 0 -150 -58t-54 -163v-705h-256v1126h250v-215h4q17 111 95.5 173.5t203.5 62.5z" />
    <glyph glyph-name="o" unicode="o" 
d="M614 -18q-216 0 -343.5 120t-127.5 322v278q0 202 127.5 322.5t343.5 120.5t343.5 -120t127.5 -320v-281q0 -202 -127.5 -322t-343.5 -120zM614 205q102 0 158.5 56.5t56.5 162.5v278q0 106 -56.5 163t-158.5 57t-158.5 -57t-56.5 -163v-278q0 -106 56.5 -162.5
t158.5 -56.5z" />
    <glyph glyph-name="p" unicode="p" 
d="M717 1147q166 0 267 -117t101 -313v-305q0 -197 -101 -314.5t-267 -117.5q-116 0 -196 58.5t-111 164.5h-2l6 -256v-316h-256v1495h250v-202h2q31 106 111 164.5t196 58.5zM829 422v283q0 106 -54 163.5t-152 57.5t-153.5 -60.5t-55.5 -167.5v-270q0 -107 55.5 -167
t153.5 -60t152 57.5t54 163.5z" />
    <glyph glyph-name="q" unicode="q" 
d="M821 924v202h250v-1495h-256v316l8 256h-4q-31 -106 -111 -164.5t-196 -58.5q-166 0 -265.5 117t-99.5 315v305q0 196 100 313t265 117q118 0 197 -58t110 -165h2zM608 201q98 0 152.5 60t54.5 167v270q0 107 -54.5 167.5t-152.5 60.5t-151.5 -57.5t-53.5 -163.5v-283
q0 -106 53.5 -163.5t151.5 -57.5z" />
    <glyph glyph-name="r" unicode="r" 
d="M754 1147q174 0 278.5 -115t104.5 -309v-92h-269v74q0 105 -54.5 163t-156.5 58q-103 0 -157 -60.5t-54 -175.5v-690h-256v1126h250v-215h4q19 111 101 173.5t209 62.5z" />
    <glyph glyph-name="s" unicode="s" 
d="M662 -18h-91q-195 0 -314.5 88.5t-119.5 238.5h258q0 -59 47 -91t131 -32h89q94 0 142 34t48 97q0 116 -174 144l-158 20q-354 53 -354 338q0 160 107 243t313 83h78q192 0 306.5 -84.5t114.5 -224.5h-258q0 51 -43 77.5t-122 26.5h-78q-83 0 -125.5 -31t-42.5 -90
q0 -106 149 -127l160 -24q190 -26 283.5 -110t93.5 -234q0 -164 -112.5 -253t-327.5 -89z" />
    <glyph glyph-name="t" unicode="t" horiz-adv-x="1024" 
d="M879 0h-248q-158 0 -250 90.5t-92 247.5v557h-242v231h242v318h256v-318h354v-231h-354v-551q0 -51 27.5 -82t76.5 -31h230v-231z" />
    <glyph glyph-name="u" unicode="u" 
d="M614 -20q-215 0 -337.5 119.5t-122.5 326.5v700h256v-698q0 -109 53 -167t151 -58q97 0 151 58.5t54 166.5v698h256v-700q0 -207 -124 -326.5t-337 -119.5z" />
    <glyph glyph-name="v" unicode="v" 
d="M778 0h-325l-408 1126h266l248 -684q14 -37 25 -79t21.5 -93.5t12.5 -58.5q44 189 58 229l244 686h264z" />
    <glyph glyph-name="w" unicode="w" 
d="M477 0h-264l-172 1126h205l94 -690q6 -46 13.5 -141t8.5 -109h11q16 168 28 250l109 690h213l104 -690q14 -91 29 -252h10q21 218 25 252l98 690h199l-176 -1126h-264l-99 694q-19 118 -31 244h-8q-2 -14 -12.5 -106.5t-17.5 -137.5z" />
    <glyph glyph-name="x" unicode="x" 
d="M362 0h-288l393 582l-367 544h289l174 -276q30 -52 51 -105q19 47 52 105l176 276h288l-366 -544l391 -582h-291l-194 309q-17 26 -56 107q-27 -67 -53 -107z" />
    <glyph glyph-name="y" unicode="y" 
d="M608 -369h-268l160 430l-434 1065h278l221 -575q31 -84 60 -223q42 171 61 223l211 575h266z" />
    <glyph glyph-name="z" unicode="z" 
d="M1069 0h-909v231l588 670h-570v225h869v-231l-594 -670h616v-225z" />
    <glyph glyph-name="braceleft" unicode="{" 
d="M1047 1464h-105q-76 0 -117 -38.5t-37 -106.5l31 -320q10 -103 -49 -171t-170 -87q110 -20 169.5 -92.5t49.5 -175.5l-31 -319q-6 -67 35.5 -105.5t118.5 -38.5h105v-237h-142q-183 0 -286.5 99.5t-86.5 264.5l31 312q8 85 -29 127t-126 42h-267v236h267q89 0 126 41.5
t29 126.5l-31 321q-15 162 88 259.5t285 97.5h142v-236z" />
    <glyph glyph-name="bar" unicode="|" 
d="M743 -225h-258v1925h258v-1925z" />
    <glyph glyph-name="braceright" unicode="}" 
d="M821 854h266v-236h-266q-89 0 -126 -42t-29 -127l30 -312q17 -165 -86 -264.5t-286 -99.5h-142v237h105q77 0 118 38.5t35 105.5l-30 319q-10 102 48.5 175t164.5 93q-108 21 -165.5 89t-47.5 169l30 320q4 69 -36.5 107t-116.5 38h-105v236h142q181 0 284 -97.5
t88 -259.5l-30 -321q-8 -85 29 -126.5t126 -41.5z" />
    <glyph glyph-name="asciitilde" unicode="~" 
d="M324 522h-218v162q0 126 81.5 202.5t215.5 76.5q57 0 104 -15.5t78.5 -40t58 -54t47 -59.5t40.5 -54.5t44 -40t52 -15.5q78 0 78 88v150h217v-162q0 -125 -81.5 -202t-215.5 -77q-57 0 -104 15.5t-78.5 40t-58 54t-47 59.5t-40.5 54.5t-44 40t-52 15.5q-77 0 -77 -88
v-150z" />
    <glyph glyph-name="uni2421" unicode="&#x2421;" 
d="M188 502h-145v493h145q75 0 120.5 -42t45.5 -111v-187q0 -69 -45.5 -111t-120.5 -42zM756 502h-297v493h297v-73h-213v-129h188v-72h-188v-146h213v-73zM1206 502h-293v493h84v-417h209v-76zM127 920v-342h61q37 0 58.5 21t21.5 56v187q0 35 -21.5 56.5t-58.5 21.5h-61z
" />
    <glyph glyph-name="uni2421" 
d="M188 502h-145v493h145q75 0 120.5 -42t45.5 -111v-187q0 -69 -45.5 -111t-120.5 -42zM756 502h-297v493h297v-73h-213v-129h188v-72h-188v-146h213v-73zM1206 502h-293v493h84v-417h209v-76zM127 920v-342h61q37 0 58.5 21t21.5 56v187q0 35 -21.5 56.5t-58.5 21.5h-61z
" />
    <glyph glyph-name="uni00A0" unicode="&#xa0;" horiz-adv-x="819" 
 />
    <glyph glyph-name="exclamdown" unicode="&#xa1;" horiz-adv-x="819" 
d="M436 868h-53q-65 0 -105 37.5t-40 100.5q0 60 40.5 95.5t106.5 35.5h51q65 0 105.5 -36t40.5 -97t-40.5 -98.5t-105.5 -37.5zM549 -369h-279v297l45 723h189l45 -723v-297z" />
    <glyph glyph-name="cent" unicode="&#xa2;" 
d="M690 915v-704q68 15 109 60.5t45 115.5h250q-6 -172 -114 -279t-290 -124v-271h-129v269q-192 17 -305 134.5t-113 305.5v283q0 188 113 305.5t305 134.5v268h129v-270q182 -17 290 -124t114 -280h-250q-4 70 -45 115.5t-109 60.5zM399 707v-285q0 -89 42.5 -144
t119.5 -69v709q-77 -14 -119.5 -68.5t-42.5 -142.5z" />
    <glyph glyph-name="sterling" unicode="&#xa3;" 
d="M338 236h758v-236h-942v276q85 49 154 124t69 145q0 23 -4 55h-232v213h138q-6 8 -32 41t-35 45t-28 43t-26 53t-14 55t-7 68q0 176 130 287t347 111q211 0 337.5 -112.5t135.5 -301.5h-260q-5 84 -64 137t-155 53q-100 0 -157.5 -51t-57.5 -137q0 -55 23 -99t68 -98.5
t67 -93.5h340v-213h-281v-37q0 -64 -25.5 -120.5t-66.5 -96.5t-87 -67.5t-93 -42.5z" />
    <glyph glyph-name="currency" unicode="&#xa4;" 
d="M1151 365l-139 -138l-181 179q-92 -56 -215 -56q-125 0 -217 56l-176 -177l-137 138l172 172q-63 97 -63 225q0 124 63 221l-176 178l137 140l180 -181q101 56 217 56q127 0 224 -60l172 172l135 -135l-172 -172q59 -95 59 -219q0 -122 -61 -221zM616 522q100 0 168 69.5
t68 172.5t-68 172.5t-168 69.5q-101 0 -170 -69.5t-69 -172.5t69 -172.5t170 -69.5z" />
    <glyph glyph-name="yen" unicode="&#xa5;" 
d="M915 1495h267l-353 -764h277v-190h-363v-129h363v-191h-363v-221h-258v221h-362v191h362v129h-362v190h276l-352 764h268l234 -518q43 -100 69 -213q25 108 70 213z" />
    <glyph glyph-name="brokenbar" unicode="&#xa6;" 
d="M743 922h-258v778h258v-778zM743 -225h-258v778h258v-778z" />
    <glyph glyph-name="section" unicode="&#xa7;" 
d="M643 -317h-61q-195 0 -318 85t-145 234h260q15 -52 71.5 -84.5t131.5 -32.5h61q101 0 158 41.5t57 110.5q0 119 -182 158l-189 41q-161 32 -254.5 121t-93.5 210q0 118 75 193.5t204 87.5v14q-47 6 -93.5 27t-88 56.5t-67.5 94t-26 129.5q0 161 117.5 254t325.5 93h61
q189 0 308 -81.5t139 -224.5h-260q-11 44 -62.5 73.5t-124.5 29.5h-61q-93 0 -143 -37t-50 -102q0 -115 164 -150l201 -43q165 -35 257.5 -126t92.5 -216q0 -120 -76 -195.5t-207 -81.5v-14q48 -5 96 -25.5t91.5 -57t70.5 -96.5t27 -134q0 -163 -124 -257.5t-343 -94.5z
M526 432l131 -26q88 -19 143.5 37t55.5 157q0 68 -41 118.5t-108 65.5l-129 27q-83 18 -136 -37.5t-53 -155.5q0 -72 38 -124t99 -62z" />
    <glyph glyph-name="dieresis" unicode="&#xa8;" 
d="M375 1315q-70 0 -111 39.5t-41 107.5q0 67 41.5 107.5t110.5 40.5q68 0 108.5 -40.5t40.5 -107.5q0 -68 -40.5 -107.5t-108.5 -39.5zM854 1315q-68 0 -108.5 39.5t-40.5 107.5q0 67 40.5 107.5t108.5 40.5q69 0 110.5 -40.5t41.5 -107.5q0 -68 -41 -107.5t-111 -39.5z
" />
    <glyph glyph-name="copyright" unicode="&#xa9;" 
d="M614 225q-235 0 -378.5 135.5t-143.5 356.5v307q0 221 143.5 356.5t378.5 135.5t379 -135.5t144 -356.5v-307q0 -221 -144 -356.5t-379 -135.5zM614 328q184 0 297 107t113 282v307q0 175 -113 282t-297 107q-183 0 -296 -107t-113 -282v-307q0 -175 113 -282t296 -107z
M625 502q-122 0 -195.5 68t-73.5 180v241q0 112 73.5 180t195.5 68q120 0 193 -68t73 -180h-158q0 50 -30 80.5t-78 30.5q-50 0 -80.5 -30t-30.5 -81v-241q0 -51 30.5 -81t80.5 -30q48 0 78 30.5t30 80.5h158q0 -112 -73 -180t-193 -68z" />
    <glyph glyph-name="ordfeminine" unicode="&#xaa;" 
d="M625 1516q113 0 180 -50t67 -135v-399h-133v112h-6q-22 -58 -70.5 -90t-113.5 -32q-91 0 -147 49t-56 129t62 128t165 48h160v55q0 35 -29.5 56.5t-78.5 21.5q-45 0 -75 -17t-34 -46h-139q13 78 80.5 124t167.5 46zM588 1020q66 0 105.5 31.5t39.5 85.5v45h-160
q-41 0 -64.5 -21t-23.5 -59q0 -37 28.5 -59.5t74.5 -22.5z" />
    <glyph glyph-name="guillemotleft" unicode="&#xab;" 
d="M688 82h-278l-367 491l369 492h276l-377 -487zM1186 82h-279l-366 491l368 492h277l-377 -487z" />
    <glyph glyph-name="logicalnot" unicode="&#xac;" 
d="M1085 383h-251v272h-691v236h942v-508z" />
    <glyph glyph-name="uni00AD" unicode="&#xad;" 
d="M942 557h-655v238h655v-238z" />
    <glyph glyph-name="registered" unicode="&#xae;" 
d="M614 225q-235 0 -378.5 135.5t-143.5 356.5v307q0 221 143.5 356.5t378.5 135.5t379 -135.5t144 -356.5v-307q0 -221 -144 -356.5t-379 -135.5zM205 1024v-307q0 -175 113 -282t296 -107q184 0 297 107t113 282v307q0 175 -113 282t-297 107q-183 0 -296 -107t-113 -282z
M524 512h-147v717h246q114 0 182.5 -60.5t68.5 -160.5q0 -133 -118 -189l131 -307h-156l-113 281h-94v-281zM524 1114v-201h99q47 0 74.5 27.5t27.5 73.5t-27.5 73t-74.5 27h-99z" />
    <glyph glyph-name="macron" unicode="&#xaf;" 
d="M967 1354h-705v196h705v-196z" />
    <glyph glyph-name="degree" unicode="&#xb0;" 
d="M614 922q-138 0 -222.5 81.5t-84.5 215.5t84.5 215.5t222.5 81.5t223 -82t85 -215t-85 -215t-223 -82zM614 1042q75 0 120.5 49.5t45.5 127.5q0 80 -45.5 128t-120.5 48t-120 -48t-45 -128q0 -79 45.5 -128t119.5 -49z" />
    <glyph glyph-name="plusminus" unicode="&#xb1;" 
d="M1092 0h-955v193h357v370h-367v236h367v368h254v-368h366v-236h-366v-370h344v-193z" />
    <glyph glyph-name="uni00B2" unicode="&#xb2;" 
d="M948 829h-624v191l346 244q40 28 64 71t24 88q0 66 -39 106t-105 40q-65 0 -104 -40t-39 -106h-172q1 135 87.5 216t227.5 81q145 0 231.5 -80t86.5 -215q0 -75 -47 -150.5t-127 -129.5l-240 -162h430v-154z" />
    <glyph glyph-name="uni00B3" unicode="&#xb3;" 
d="M844 1528l-168 -158q103 -17 164 -88t61 -178q0 -136 -87 -215.5t-232 -79.5q-147 0 -234.5 79t-87.5 214h172q0 -67 40 -104t110 -37q67 0 105 37.5t38 105.5q0 67 -38 106t-103 39h-62v135l174 162h-372v154h520v-172z" />
    <glyph glyph-name="acute" unicode="&#xb4;" 
d="M696 1321h-258l217 287h275z" />
    <glyph glyph-name="uni00B5" unicode="&#xb5;" 
d="M821 422v704h256v-1126h-254l6 215h-4q-11 -113 -63.5 -174t-145.5 -61q-184 0 -206 235h-2l6 -268v-316h-256v1495h256v-704q0 -105 53 -163t149 -58q97 0 151 58.5t54 162.5z" />
    <glyph glyph-name="paragraph" unicode="&#xb6;" 
d="M705 -369h-201v1004q-175 0 -282 95.5t-107 252.5v164q0 157 107 252.5t282 95.5h201v-1864zM1065 -369h-201v1864h201v-1864z" />
    <glyph glyph-name="periodcentered" unicode="&#xb7;" 
d="M410 522q-88 0 -140.5 51.5t-52.5 139.5q0 89 52.5 140.5t140.5 51.5t140 -51.5t52 -140.5q0 -88 -52 -139.5t-140 -51.5z" />
    <glyph glyph-name="cedilla" unicode="&#xb8;" 
d="M606 -442h-205v131h156q45 0 77 22.5t32 50.5q0 44 -61.5 70.5t-168.5 26.5l72 182h137l-41 -117q64 -5 123 -25t104.5 -62.5t45.5 -98.5q0 -74 -76 -127t-195 -53z" />
    <glyph glyph-name="uni00B9" unicode="&#xb9;" 
d="M961 829h-656v156h270v561l-251 -180v184l200 150h226v-715h211v-156z" />
    <glyph glyph-name="ordmasculine" unicode="&#xba;" 
d="M614 918q-116 0 -188 65.5t-72 167.5v127q0 104 71.5 168.5t188.5 64.5t188.5 -64.5t71.5 -168.5v-127q0 -102 -72 -167.5t-188 -65.5zM614 1034q54 0 87.5 32.5t33.5 84.5v127q0 52 -33.5 83.5t-87.5 31.5t-87 -31.5t-33 -83.5v-127q0 -53 33 -85t87 -32z" />
    <glyph glyph-name="guillemotright" unicode="&#xbb;" 
d="M319 82h-274l371 491l-373 492h279l366 -492zM817 82h-274l370 491l-372 492h278l367 -492z" />
    <glyph glyph-name="onequarter" unicode="&#xbc;" 
d="M647 961l271 534h151l-758 -1495h-151l420 827h-510v134h237v425q-26 -43 -76 -83l-125 -103v178l150 115h209v-532h182zM958 258v166h158v-424h-158v131h-346v188l258 347h177l-277 -375v-33h188z" />
    <glyph glyph-name="onehalf" unicode="&#xbd;" 
d="M647 963l271 532h151l-758 -1495h-151l420 829h-510v134h237v426q-27 -45 -76 -84l-125 -103v176l150 117h209v-532h182zM973 133h213v-133h-547v162l274 153q103 60 103 131q0 47 -29.5 75t-75.5 28q-51 0 -81.5 -29.5t-30.5 -77.5h-160q2 104 77 169t195 65
q119 0 192 -60.5t73 -158.5q0 -134 -191 -236l-147 -82v-20q72 14 135 14z" />
    <glyph glyph-name="threequarters" unicode="&#xbe;" 
d="M588 1040q0 -100 -74.5 -160.5t-196.5 -60.5q-124 0 -199 59t-75 156h158q0 -40 32 -64t84 -24q51 0 81 25.5t30 68.5t-30 69t-79 26h-61v127l141 112h-307v121h463v-121l-164 -127q90 -12 143.5 -68t53.5 -139zM160 0l758 1495h151l-758 -1495h-151zM958 258v166h158
v-424h-158v131h-346v188l258 347h177l-277 -375v-33h188z" />
    <glyph glyph-name="questiondown" unicode="&#xbf;" 
d="M745 866h-51q-66 0 -105.5 38t-39.5 100q0 61 39.5 97t105.5 36h51q66 0 106 -36.5t40 -96.5q0 -62 -40 -100t-106 -38zM977 -348h-293q-226 0 -361 117.5t-135 312.5q0 183 113.5 297t298.5 119v184h227l7 -410h-164q-104 0 -164 -50.5t-60 -139.5t60 -140t166 -51h305
v-239z" />
    <glyph glyph-name="Agrave" unicode="&#xc0;" 
d="M774 1659h-264l-238 287h283zM334 0h-262l377 1495h329l379 -1495h-262l-82 362h-397zM553 975l-90 -404h303l-90 402q-52 241 -62 299q-21 -127 -61 -297z" />
    <glyph glyph-name="Aacute" unicode="&#xc1;" 
d="M717 1659h-258l217 287h274zM334 0h-262l377 1495h329l379 -1495h-262l-82 362h-397zM553 975l-90 -404h303l-90 402q-52 241 -62 299q-21 -127 -61 -297z" />
    <glyph glyph-name="Acircumflex" unicode="&#xc2;" 
d="M463 1659h-248l281 287h237l281 -287h-246l-156 149zM334 0h-262l377 1495h329l379 -1495h-262l-82 362h-397zM553 975l-90 -404h303l-90 402q-52 241 -62 299q-21 -127 -61 -297z" />
    <glyph glyph-name="Atilde" unicode="&#xc3;" 
d="M758 1651q-47 0 -85 13.5t-62 32.5t-44 38.5t-41.5 33t-44.5 13.5q-28 0 -44.5 -18t-16.5 -50v-53h-158v68q0 100 58 162.5t151 62.5q47 0 85 -13.5t62 -33t44 -38.5t41.5 -32.5t44.5 -13.5q28 0 44.5 16.5t16.5 46.5v58h158v-68q0 -100 -58 -162.5t-151 -62.5zM334 0
h-262l377 1495h329l379 -1495h-262l-82 362h-397zM553 975l-90 -404h303l-90 402q-52 241 -62 299q-21 -127 -61 -297z" />
    <glyph glyph-name="Adieresis" unicode="&#xc4;" 
d="M375 1655q-69 0 -110.5 40t-41.5 107q0 69 41.5 109.5t110.5 40.5q68 0 108.5 -40.5t40.5 -109.5q0 -67 -40.5 -107t-108.5 -40zM854 1655q-68 0 -108.5 40t-40.5 107q0 69 40.5 109.5t108.5 40.5q69 0 110.5 -40.5t41.5 -109.5q0 -67 -41.5 -107t-110.5 -40zM334 0h-262
l377 1495h329l379 -1495h-262l-82 362h-397zM553 975l-90 -404h303l-90 402q-52 241 -62 299q-21 -127 -61 -297z" />
    <glyph glyph-name="Aring" unicode="&#xc5;" 
d="M614 1552q-122 0 -196 69t-74 181q0 113 74 181.5t196 68.5t196.5 -69t74.5 -181t-74.5 -181t-196.5 -69zM614 1681q55 0 89 33.5t34 87.5t-34 87.5t-89 33.5t-88.5 -33.5t-33.5 -87.5t33.5 -87.5t88.5 -33.5zM334 0h-262l377 1495h329l379 -1495h-262l-82 362h-397z
M553 975l-90 -404h303l-90 402q-52 241 -62 299q-21 -127 -61 -297z" />
    <glyph glyph-name="AE" unicode="&#xc6;" 
d="M274 0h-249l288 1495h867v-219h-353v-397h301v-226h-301v-432h353v-221h-574v371h-266zM500 1276l-129 -717h235v717h-106z" />
    <glyph glyph-name="Ccedilla" unicode="&#xc7;" 
d="M623 205q103 0 160 56t57 161h258q0 -197 -125 -317.5t-334 -124.5l-18 -56q47 -4 92 -17t86 -35t66.5 -57t25.5 -77q0 -74 -75 -127t-193 -53h-205v131h155q45 0 77 22.5t32 50.5q0 44 -61 70.5t-168 26.5l51 131q-165 31 -261 145.5t-96 286.5v651q0 202 129.5 322.5
t346.5 120.5q215 0 345 -121t130 -322h-258q0 105 -57 161t-160 56q-105 0 -162.5 -55.5t-57.5 -159.5v-653q0 -105 57.5 -161t162.5 -56z" />
    <glyph glyph-name="Egrave" unicode="&#xc8;" 
d="M815 1659h-264l-238 287h283zM1077 0h-897v1495h897v-225h-645v-389h574v-217h-574v-439h645v-225z" />
    <glyph glyph-name="Eacute" unicode="&#xc9;" 
d="M758 1659h-258l217 287h274zM1077 0h-897v1495h897v-225h-645v-389h574v-217h-574v-439h645v-225z" />
    <glyph glyph-name="Ecircumflex" unicode="&#xca;" 
d="M504 1659h-248l281 287h237l281 -287h-246l-156 149zM1077 0h-897v1495h897v-225h-645v-389h574v-217h-574v-439h645v-225z" />
    <glyph glyph-name="Edieresis" unicode="&#xcb;" 
d="M416 1655q-69 0 -110.5 40t-41.5 107q0 69 41.5 109.5t110.5 40.5q68 0 108.5 -40.5t40.5 -109.5q0 -67 -40.5 -107t-108.5 -40zM895 1655q-68 0 -109 40t-41 107q0 69 41 109.5t109 40.5q69 0 110.5 -40.5t41.5 -109.5q0 -67 -41.5 -107t-110.5 -40zM1077 0h-897v1495
h897v-225h-645v-389h574v-217h-574v-439h645v-225z" />
    <glyph glyph-name="Igrave" unicode="&#xcc;" 
d="M774 1659h-264l-238 287h283zM1044 0h-860v231h301v1033h-301v231h860v-231h-301v-1033h301v-231z" />
    <glyph glyph-name="Iacute" unicode="&#xcd;" 
d="M717 1659h-258l217 287h274zM1044 0h-860v231h301v1033h-301v231h860v-231h-301v-1033h301v-231z" />
    <glyph glyph-name="Icircumflex" unicode="&#xce;" 
d="M463 1659h-248l281 287h237l281 -287h-246l-156 149zM1044 0h-860v231h301v1033h-301v231h860v-231h-301v-1033h301v-231z" />
    <glyph glyph-name="Idieresis" unicode="&#xcf;" 
d="M375 1655q-69 0 -110.5 40t-41.5 107q0 69 41.5 109.5t110.5 40.5q68 0 108.5 -40.5t40.5 -109.5q0 -67 -40.5 -107t-108.5 -40zM854 1655q-68 0 -108.5 40t-40.5 107q0 69 40.5 109.5t108.5 40.5q69 0 110.5 -40.5t41.5 -109.5q0 -67 -41.5 -107t-110.5 -40zM1044 0
h-860v231h301v1033h-301v231h860v-231h-301v-1033h301v-231z" />
    <glyph glyph-name="Eth" unicode="&#xd0;" 
d="M154 1495h444q226 0 362 -127.5t136 -339.5v-559q0 -212 -136 -340.5t-362 -128.5h-444v674h-134v178h134v643zM840 469v559q0 109 -66 173.5t-176 64.5h-188v-414h184v-178h-184v-445h188q110 0 176 65.5t66 174.5z" />
    <glyph glyph-name="Ntilde" unicode="&#xd1;" 
d="M758 1651q-47 0 -85 13.5t-62 32.5t-44 38.5t-41.5 33t-44.5 13.5q-28 0 -44.5 -18t-16.5 -50v-53h-158v68q0 100 58 162.5t151 62.5q47 0 85 -13.5t62 -33t44 -38.5t41.5 -32.5t44.5 -13.5q28 0 44.5 16.5t16.5 46.5v58h158v-68q0 -100 -58 -162.5t-151 -62.5zM381 0
h-234v1495h314l416 -1208q-29 312 -29 499v709h233v-1495h-313l-412 1208q25 -297 25 -477v-731z" />
    <glyph glyph-name="Ograve" unicode="&#xd2;" 
d="M774 1659h-264l-238 287h283zM614 -20q-215 0 -341 119.5t-126 322.5v651q0 203 126 323t341 120t341 -119.5t126 -321.5v-653q0 -203 -126 -322.5t-341 -119.5zM614 205q103 0 157 55.5t54 161.5v651q0 106 -53.5 161.5t-157.5 55.5t-157.5 -55.5t-53.5 -161.5v-651
q0 -106 54 -161.5t157 -55.5z" />
    <glyph glyph-name="Oacute" unicode="&#xd3;" 
d="M717 1659h-258l217 287h274zM614 -20q-215 0 -341 119.5t-126 322.5v651q0 203 126 323t341 120t341 -119.5t126 -321.5v-653q0 -203 -126 -322.5t-341 -119.5zM614 205q103 0 157 55.5t54 161.5v651q0 106 -53.5 161.5t-157.5 55.5t-157.5 -55.5t-53.5 -161.5v-651
q0 -106 54 -161.5t157 -55.5z" />
    <glyph glyph-name="Ocircumflex" unicode="&#xd4;" 
d="M463 1659h-248l281 287h237l281 -287h-246l-156 149zM614 -20q-215 0 -341 119.5t-126 322.5v651q0 203 126 323t341 120t341 -119.5t126 -321.5v-653q0 -203 -126 -322.5t-341 -119.5zM614 205q103 0 157 55.5t54 161.5v651q0 106 -53.5 161.5t-157.5 55.5t-157.5 -55.5
t-53.5 -161.5v-651q0 -106 54 -161.5t157 -55.5z" />
    <glyph glyph-name="Otilde" unicode="&#xd5;" 
d="M758 1651q-47 0 -85 13.5t-62 32.5t-44 38.5t-41.5 33t-44.5 13.5q-28 0 -44.5 -18t-16.5 -50v-53h-158v68q0 100 58 162.5t151 62.5q47 0 85 -13.5t62 -33t44 -38.5t41.5 -32.5t44.5 -13.5q28 0 44.5 16.5t16.5 46.5v58h158v-68q0 -100 -58 -162.5t-151 -62.5zM614 -20
q-215 0 -341 119.5t-126 322.5v651q0 203 126 323t341 120t341 -119.5t126 -321.5v-653q0 -203 -126 -322.5t-341 -119.5zM614 205q103 0 157 55.5t54 161.5v651q0 106 -53.5 161.5t-157.5 55.5t-157.5 -55.5t-53.5 -161.5v-651q0 -106 54 -161.5t157 -55.5z" />
    <glyph glyph-name="Odieresis" unicode="&#xd6;" 
d="M375 1655q-69 0 -110.5 40t-41.5 107q0 69 41.5 109.5t110.5 40.5q68 0 108.5 -40.5t40.5 -109.5q0 -67 -40.5 -107t-108.5 -40zM854 1655q-68 0 -108.5 40t-40.5 107q0 69 40.5 109.5t108.5 40.5q69 0 110.5 -40.5t41.5 -109.5q0 -67 -41.5 -107t-110.5 -40zM614 -20
q-215 0 -341 119.5t-126 322.5v651q0 203 126 323t341 120t341 -119.5t126 -321.5v-653q0 -203 -126 -322.5t-341 -119.5zM614 205q103 0 157 55.5t54 161.5v651q0 106 -53.5 161.5t-157.5 55.5t-157.5 -55.5t-53.5 -161.5v-651q0 -106 54 -161.5t157 -55.5z" />
    <glyph glyph-name="multiply" unicode="&#xd7;" 
d="M612 502l-264 -266l-166 167l262 263l-262 266l166 166l264 -264l269 268l166 -168l-269 -268l266 -263l-167 -167z" />
    <glyph glyph-name="Oslash" unicode="&#xd8;" 
d="M969 1536h213l-144 -254q43 -87 43 -207v-653q0 -203 -126 -322.5t-341 -119.5q-166 0 -278 71l-76 -133h-213l156 272q-56 100 -56 232v651q0 203 126 323t341 120q177 0 295 -82zM397 1073v-541l391 689q-57 69 -174 69q-105 0 -161 -56t-56 -161zM831 422v500
l-376 -662q55 -55 159 -55q105 0 161 56t56 161z" />
    <glyph glyph-name="Ugrave" unicode="&#xd9;" 
d="M774 1659h-264l-238 287h283zM614 -20q-219 0 -343 119t-124 327v1069h259v-1067q0 -107 53 -166t155 -59q101 0 155 59t54 166v1067h258v-1069q0 -208 -124 -327t-343 -119z" />
    <glyph glyph-name="Uacute" unicode="&#xda;" 
d="M717 1659h-258l217 287h274zM614 -20q-219 0 -343 119t-124 327v1069h259v-1067q0 -107 53 -166t155 -59q101 0 155 59t54 166v1067h258v-1069q0 -208 -124 -327t-343 -119z" />
    <glyph glyph-name="Ucircumflex" unicode="&#xdb;" 
d="M463 1659h-248l281 287h237l281 -287h-246l-156 149zM614 -20q-219 0 -343 119t-124 327v1069h259v-1067q0 -107 53 -166t155 -59q101 0 155 59t54 166v1067h258v-1069q0 -208 -124 -327t-343 -119z" />
    <glyph glyph-name="Udieresis" unicode="&#xdc;" 
d="M375 1655q-69 0 -110.5 40t-41.5 107q0 69 41.5 109.5t110.5 40.5q68 0 108.5 -40.5t40.5 -109.5q0 -67 -40.5 -107t-108.5 -40zM854 1655q-68 0 -108.5 40t-40.5 107q0 69 40.5 109.5t108.5 40.5q69 0 110.5 -40.5t41.5 -109.5q0 -67 -41.5 -107t-110.5 -40zM614 -20
q-219 0 -343 119t-124 327v1069h259v-1067q0 -107 53 -166t155 -59q101 0 155 59t54 166v1067h258v-1069q0 -208 -124 -327t-343 -119z" />
    <glyph glyph-name="Yacute" unicode="&#xdd;" 
d="M717 1659h-258l217 287h274zM743 0h-258v543l-438 952h268l234 -518q43 -100 69 -213q25 108 70 213l227 518h267l-439 -952v-543z" />
    <glyph glyph-name="Thorn" unicode="&#xde;" 
d="M416 0h-256v1495h256v-289h274q214 0 337.5 -115t123.5 -313t-123.5 -313t-337.5 -115h-274v-350zM416 987v-418h243q110 0 171 54.5t61 154.5t-61 154.5t-171 54.5h-243z" />
    <glyph glyph-name="germandbls" unicode="&#xdf;" 
d="M844 797q130 -34 204 -131.5t74 -237.5q0 -191 -132.5 -309.5t-348.5 -118.5h-119v219h105q108 0 170.5 61t62.5 164t-62 162.5t-171 59.5h-95v198h91q98 0 154.5 57.5t56.5 153.5q0 102 -60.5 161.5t-163.5 59.5q-102 0 -161.5 -60.5t-59.5 -164.5v-1071h-239v1071
q0 200 126.5 322.5t335.5 122.5q218 0 350 -106t132 -286q0 -127 -65.5 -212.5t-184.5 -114.5z" />
    <glyph glyph-name="agrave" unicode="&#xe0;" 
d="M565 1608l219 -287h-264l-237 287h282zM625 1147q208 0 329 -102.5t121 -280.5v-764h-248v190h-4q-22 -98 -110.5 -154t-223.5 -56q-174 0 -274 91t-100 248q0 166 114 257.5t320 91.5h270v94q0 83 -53 127.5t-150 44.5q-88 0 -144 -37t-62 -98h-244q9 158 134 253
t325 95zM573 170q108 0 177 55t69 144v135h-264q-86 0 -135 -43.5t-49 -120.5q0 -80 53.5 -125t148.5 -45z" />
    <glyph glyph-name="aacute" unicode="&#xe1;" 
d="M686 1608h275l-234 -287h-258zM625 1147q208 0 329 -102.5t121 -280.5v-764h-248v190h-4q-22 -98 -110.5 -154t-223.5 -56q-174 0 -274 91t-100 248q0 166 114 257.5t320 91.5h270v94q0 83 -53 127.5t-150 44.5q-88 0 -144 -37t-62 -98h-244q9 158 134 253t325 95z
M573 170q108 0 177 55t69 144v135h-264q-86 0 -135 -43.5t-49 -120.5q0 -80 53.5 -125t148.5 -45z" />
    <glyph glyph-name="acircumflex" unicode="&#xe2;" 
d="M778 1321l-155 149l-150 -149h-248l281 287h237l281 -287h-246zM625 1147q208 0 329 -102.5t121 -280.5v-764h-248v190h-4q-22 -98 -110.5 -154t-223.5 -56q-174 0 -274 91t-100 248q0 166 114 257.5t320 91.5h270v94q0 83 -53 127.5t-150 44.5q-88 0 -144 -37t-62 -98
h-244q9 158 134 253t325 95zM573 170q108 0 177 55t69 144v135h-264q-86 0 -135 -43.5t-49 -120.5q0 -80 53.5 -125t148.5 -45z" />
    <glyph glyph-name="atilde" unicode="&#xe3;" 
d="M430 1376v-53h-158v68q0 100 58 162.5t151 62.5q47 0 85 -13.5t62 -33t44 -38.5t41.5 -32.5t44.5 -13.5q28 0 44.5 16.5t16.5 46.5v58h158v-68q0 -100 -58 -162.5t-151 -62.5q-47 0 -85 13.5t-61.5 32.5t-43.5 38.5t-41.5 33t-44.5 13.5q-28 0 -45 -18t-17 -50zM625 1147
q208 0 329 -102.5t121 -280.5v-764h-248v190h-4q-22 -98 -110.5 -154t-223.5 -56q-174 0 -274 91t-100 248q0 166 114 257.5t320 91.5h270v94q0 83 -53 127.5t-150 44.5q-88 0 -144 -37t-62 -98h-244q9 158 134 253t325 95zM573 170q108 0 177 55t69 144v135h-264
q-86 0 -135 -43.5t-49 -120.5q0 -80 53.5 -125t148.5 -45z" />
    <glyph glyph-name="adieresis" unicode="&#xe4;" 
d="M385 1315q-70 0 -111 39.5t-41 107.5q0 67 41.5 107.5t110.5 40.5q68 0 109 -40.5t41 -107.5q0 -68 -41 -107.5t-109 -39.5zM864 1315q-68 0 -108.5 39.5t-40.5 107.5q0 67 40.5 107.5t108.5 40.5q69 0 110.5 -40.5t41.5 -107.5q0 -68 -41 -107.5t-111 -39.5zM625 1147
q208 0 329 -102.5t121 -280.5v-764h-248v190h-4q-22 -98 -110.5 -154t-223.5 -56q-174 0 -274 91t-100 248q0 166 114 257.5t320 91.5h270v94q0 83 -53 127.5t-150 44.5q-88 0 -144 -37t-62 -98h-244q9 158 134 253t325 95zM573 170q108 0 177 55t69 144v135h-264
q-86 0 -135 -43.5t-49 -120.5q0 -80 53.5 -125t148.5 -45z" />
    <glyph glyph-name="aring" unicode="&#xe5;" 
d="M625 1235q-121 0 -196 69t-75 179q0 112 74.5 181t196.5 69q121 0 195.5 -68.5t74.5 -181.5q0 -111 -74.5 -179.5t-195.5 -68.5zM625 1604q-56 0 -89.5 -33t-33.5 -88q0 -54 33.5 -86.5t89.5 -32.5t89.5 32.5t33.5 86.5q0 55 -33.5 88t-89.5 33zM625 1147
q208 0 329 -102.5t121 -280.5v-764h-248v190h-4q-22 -98 -110.5 -154t-223.5 -56q-174 0 -274 91t-100 248q0 166 114 257.5t320 91.5h270v94q0 83 -53 127.5t-150 44.5q-88 0 -144 -37t-62 -98h-244q9 158 134 253t325 95zM573 170q108 0 177 55t69 144v135h-264
q-86 0 -135 -43.5t-49 -120.5q0 -80 53.5 -125t148.5 -45z" />
    <glyph glyph-name="ae" unicode="&#xe6;" 
d="M350 -20q-126 0 -202 82t-76 217v110q0 128 89.5 205.5t237.5 77.5h115v157q0 136 -111 136q-52 0 -81 -34.5t-29 -94.5h-211q0 140 79.5 225.5t209.5 85.5q107 0 168.5 -49t70.5 -109h13q11 61 71 109.5t166 48.5q135 0 216 -86t81 -230v-315h-438v-221q0 -61 30.5 -97
t81.5 -36q54 0 84.5 31t30.5 86h211q0 -135 -81.5 -217t-215.5 -82q-107 0 -167.5 48.5t-69.5 108.5h-13q-11 -60 -77.5 -108.5t-182.5 -48.5zM719 831v-159h227v159q0 62 -30 98t-85 36q-52 0 -82 -36t-30 -98zM399 162q53 0 84 36t31 97v221h-113q-54 0 -84 -33.5
t-30 -93.5v-110q0 -55 29.5 -86t82.5 -31z" />
    <glyph glyph-name="ccedilla" unicode="&#xe7;" 
d="M621 203q98 0 157.5 48.5t65.5 135.5h250q-6 -187 -130.5 -295.5t-334.5 -111.5l-19 -56q64 -5 123 -25t104.5 -62.5t45.5 -98.5q0 -74 -76 -127t-195 -53h-202v131h153q47 0 78 22.5t31 50.5q0 43 -61 70t-167 27l52 133q-164 33 -258.5 146.5t-94.5 283.5v283
q0 202 130.5 322t347.5 120q212 0 339.5 -109.5t133.5 -298.5h-250q-6 87 -66 136t-157 49q-104 0 -163 -57t-59 -160v-285q0 -105 59 -162t163 -57z" />
    <glyph glyph-name="egrave" unicode="&#xe8;" 
d="M555 1608l219 -287h-264l-238 287h283zM1085 705v-203h-694v-80q0 -240 227 -240q176 0 207 117h252q-29 -145 -155 -232t-306 -87q-215 0 -344 121t-129 321v283q0 200 129 321t344 121q213 0 341 -121t128 -321zM391 705v-43l447 4v41q0 118 -56 179.5t-166 61.5
q-111 0 -168 -62.5t-57 -180.5z" />
    <glyph glyph-name="eacute" unicode="&#xe9;" 
d="M676 1608h274l-233 -287h-258zM1085 705v-203h-694v-80q0 -240 227 -240q176 0 207 117h252q-29 -145 -155 -232t-306 -87q-215 0 -344 121t-129 321v283q0 200 129 321t344 121q213 0 341 -121t128 -321zM391 705v-43l447 4v41q0 118 -56 179.5t-166 61.5
q-111 0 -168 -62.5t-57 -180.5z" />
    <glyph glyph-name="ecircumflex" unicode="&#xea;" 
d="M768 1321l-156 149l-149 -149h-248l281 287h237l281 -287h-246zM1085 705v-203h-694v-80q0 -240 227 -240q176 0 207 117h252q-29 -145 -155 -232t-306 -87q-215 0 -344 121t-129 321v283q0 200 129 321t344 121q213 0 341 -121t128 -321zM391 705v-43l447 4v41
q0 118 -56 179.5t-166 61.5q-111 0 -168 -62.5t-57 -180.5z" />
    <glyph glyph-name="edieresis" unicode="&#xeb;" 
d="M375 1315q-70 0 -111 39.5t-41 107.5q0 67 41.5 107.5t110.5 40.5q68 0 108.5 -40.5t40.5 -107.5q0 -68 -40.5 -107.5t-108.5 -39.5zM854 1315q-68 0 -108.5 39.5t-40.5 107.5q0 67 40.5 107.5t108.5 40.5q69 0 110.5 -40.5t41.5 -107.5q0 -68 -41 -107.5t-111 -39.5z
M1085 705v-203h-694v-80q0 -240 227 -240q176 0 207 117h252q-29 -145 -155 -232t-306 -87q-215 0 -344 121t-129 321v283q0 200 129 321t344 121q213 0 341 -121t128 -321zM391 705v-43l447 4v41q0 118 -56 179.5t-166 61.5q-111 0 -168 -62.5t-57 -180.5z" />
    <glyph glyph-name="igrave" unicode="&#xec;" horiz-adv-x="1024" 
d="M690 1321h-264l-238 287h283zM952 0h-817v231h293v664h-244v231h500v-895h268v-231z" />
    <glyph glyph-name="iacute" unicode="&#xed;" horiz-adv-x="1024" 
d="M633 1321h-258l217 287h274zM952 0h-817v231h293v664h-244v231h500v-895h268v-231z" />
    <glyph glyph-name="icircumflex" unicode="&#xee;" horiz-adv-x="1024" 
d="M379 1321h-248l281 287h237l281 -287h-246l-156 149zM952 0h-817v231h293v664h-244v231h500v-895h268v-231z" />
    <glyph glyph-name="idieresis" unicode="&#xef;" horiz-adv-x="1024" 
d="M291 1315q-70 0 -111 39.5t-41 107.5q0 67 41.5 107.5t110.5 40.5q68 0 108.5 -40.5t40.5 -107.5q0 -68 -40.5 -107.5t-108.5 -39.5zM770 1315q-68 0 -108.5 39.5t-40.5 107.5q0 67 40.5 107.5t108.5 40.5q69 0 110.5 -40.5t41.5 -107.5q0 -68 -41 -107.5t-111 -39.5z
M952 0h-817v231h293v664h-244v231h500v-895h268v-231z" />
    <glyph glyph-name="eth" unicode="&#xf0;" 
d="M614 -8q-229 0 -368.5 129.5t-139.5 343.5q0 204 116.5 328.5t307.5 124.5q90 0 162 -45t105 -101h18q-5 37 -145 221l-119 160l-324 -131v195l211 86l-143 192h289l75 -104l324 129v-195l-211 -84l131 -178q219 -293 219 -574q0 -227 -138.5 -362t-369.5 -135zM614 209
q114 0 182 69.5t68 186.5q0 114 -69 184t-181 70q-114 0 -181.5 -69t-67.5 -185q0 -117 67.5 -186.5t181.5 -69.5z" />
    <glyph glyph-name="ntilde" unicode="&#xf1;" 
d="M430 1376v-53h-158v68q0 100 58 162.5t151 62.5q47 0 85 -13.5t62 -33t44 -38.5t41.5 -32.5t44.5 -13.5q28 0 44.5 16.5t16.5 46.5v58h158v-68q0 -100 -58 -162.5t-151 -62.5q-47 0 -85 13.5t-61.5 32.5t-43.5 38.5t-41.5 33t-44.5 13.5q-28 0 -45 -18t-17 -50zM711 1147
q166 0 265 -111t99 -297v-739h-256v713q0 101 -53.5 157t-147.5 56q-96 0 -150 -58t-54 -163v-705h-256v1126h250v-215h4q17 111 95.5 173.5t203.5 62.5z" />
    <glyph glyph-name="ograve" unicode="&#xf2;" 
d="M774 1321h-264l-238 287h283zM614 -18q-216 0 -343.5 120t-127.5 322v278q0 202 127.5 322.5t343.5 120.5t343.5 -120t127.5 -320v-281q0 -202 -127.5 -322t-343.5 -120zM614 205q102 0 158.5 56.5t56.5 162.5v278q0 106 -56.5 163t-158.5 57t-158.5 -57t-56.5 -163v-278
q0 -106 56.5 -162.5t158.5 -56.5z" />
    <glyph glyph-name="oacute" unicode="&#xf3;" 
d="M717 1321h-258l217 287h274zM614 -18q-216 0 -343.5 120t-127.5 322v278q0 202 127.5 322.5t343.5 120.5t343.5 -120t127.5 -320v-281q0 -202 -127.5 -322t-343.5 -120zM614 205q102 0 158.5 56.5t56.5 162.5v278q0 106 -56.5 163t-158.5 57t-158.5 -57t-56.5 -163v-278
q0 -106 56.5 -162.5t158.5 -56.5z" />
    <glyph glyph-name="ocircumflex" unicode="&#xf4;" 
d="M463 1321h-248l281 287h237l281 -287h-246l-156 149zM614 -18q-216 0 -343.5 120t-127.5 322v278q0 202 127.5 322.5t343.5 120.5t343.5 -120t127.5 -320v-281q0 -202 -127.5 -322t-343.5 -120zM614 205q102 0 158.5 56.5t56.5 162.5v278q0 106 -56.5 163t-158.5 57
t-158.5 -57t-56.5 -163v-278q0 -106 56.5 -162.5t158.5 -56.5z" />
    <glyph glyph-name="otilde" unicode="&#xf5;" 
d="M758 1313q-47 0 -85 13.5t-62 32.5t-44 38.5t-41.5 33t-44.5 13.5q-28 0 -44.5 -18t-16.5 -50v-53h-158v68q0 100 58 162.5t151 62.5q47 0 85 -13.5t62 -33t44 -38.5t41.5 -32.5t44.5 -13.5q28 0 44.5 16.5t16.5 46.5v58h158v-68q0 -100 -58 -162.5t-151 -62.5zM614 -18
q-216 0 -343.5 120t-127.5 322v278q0 202 127.5 322.5t343.5 120.5t343.5 -120t127.5 -320v-281q0 -202 -127.5 -322t-343.5 -120zM614 205q102 0 158.5 56.5t56.5 162.5v278q0 106 -56.5 163t-158.5 57t-158.5 -57t-56.5 -163v-278q0 -106 56.5 -162.5t158.5 -56.5z" />
    <glyph glyph-name="odieresis" unicode="&#xf6;" 
d="M375 1315q-70 0 -111 39.5t-41 107.5q0 67 41.5 107.5t110.5 40.5q68 0 108.5 -40.5t40.5 -107.5q0 -68 -40.5 -107.5t-108.5 -39.5zM854 1315q-68 0 -108.5 39.5t-40.5 107.5q0 67 40.5 107.5t108.5 40.5q69 0 110.5 -40.5t41.5 -107.5q0 -68 -41 -107.5t-111 -39.5z
M614 -18q-216 0 -343.5 120t-127.5 322v278q0 202 127.5 322.5t343.5 120.5t343.5 -120t127.5 -320v-281q0 -202 -127.5 -322t-343.5 -120zM614 205q102 0 158.5 56.5t56.5 162.5v278q0 106 -56.5 163t-158.5 57t-158.5 -57t-56.5 -163v-278q0 -106 56.5 -162.5t158.5 -56.5
z" />
    <glyph glyph-name="divide" unicode="&#xf7;" 
d="M614 942q-86 0 -138 47.5t-52 124.5t52 124.5t138 47.5t138.5 -47.5t52.5 -124.5t-52.5 -124.5t-138.5 -47.5zM1024 563h-819v232h819v-232zM614 72q-86 0 -138 46.5t-52 123.5q0 78 52 125t138 47t138.5 -47t52.5 -125q0 -77 -52.5 -123.5t-138.5 -46.5z" />
    <glyph glyph-name="oslash" unicode="&#xf8;" 
d="M954 1208h215l-165 -235q77 -109 77 -266v-285q0 -203 -126 -322.5t-341 -119.5q-155 0 -266 63l-74 -104h-215l160 225q-72 107 -72 258v283q0 203 126 322.5t341 119.5q145 0 256 -57zM387 705v-283v-19l348 494q-49 27 -121 27q-107 0 -167 -58t-60 -161zM842 422v283
q0 24 -2 36l-357 -508q53 -30 131 -30q107 0 167.5 58t60.5 161z" />
    <glyph glyph-name="ugrave" unicode="&#xf9;" 
d="M774 1321h-264l-238 287h283zM614 -20q-215 0 -337.5 119.5t-122.5 326.5v700h256v-698q0 -109 53 -167t151 -58q97 0 151 58.5t54 166.5v698h256v-700q0 -207 -124 -326.5t-337 -119.5z" />
    <glyph glyph-name="uacute" unicode="&#xfa;" 
d="M717 1321h-258l217 287h274zM614 -20q-215 0 -337.5 119.5t-122.5 326.5v700h256v-698q0 -109 53 -167t151 -58q97 0 151 58.5t54 166.5v698h256v-700q0 -207 -124 -326.5t-337 -119.5z" />
    <glyph glyph-name="ucircumflex" unicode="&#xfb;" 
d="M463 1321h-248l281 287h237l281 -287h-246l-156 149zM614 -20q-215 0 -337.5 119.5t-122.5 326.5v700h256v-698q0 -109 53 -167t151 -58q97 0 151 58.5t54 166.5v698h256v-700q0 -207 -124 -326.5t-337 -119.5z" />
    <glyph glyph-name="udieresis" unicode="&#xfc;" 
d="M375 1315q-70 0 -111 39.5t-41 107.5q0 67 41.5 107.5t110.5 40.5q68 0 108.5 -40.5t40.5 -107.5q0 -68 -40.5 -107.5t-108.5 -39.5zM854 1315q-68 0 -108.5 39.5t-40.5 107.5q0 67 40.5 107.5t108.5 40.5q69 0 110.5 -40.5t41.5 -107.5q0 -68 -41 -107.5t-111 -39.5z
M614 -20q-215 0 -337.5 119.5t-122.5 326.5v700h256v-698q0 -109 53 -167t151 -58q97 0 151 58.5t54 166.5v698h256v-700q0 -207 -124 -326.5t-337 -119.5z" />
    <glyph glyph-name="yacute" unicode="&#xfd;" 
d="M717 1321h-258l217 287h274zM608 -369h-268l160 430l-434 1065h278l221 -575q31 -84 60 -223q42 171 61 223l211 575h266z" />
    <glyph glyph-name="thorn" unicode="&#xfe;" 
d="M707 1147q171 0 272.5 -117t101.5 -315v-305q0 -197 -102 -313.5t-272 -116.5q-122 0 -203 60t-101 167v-555h-249v1843h256v-315l-9 -269q19 110 100.5 173t205.5 63zM823 422v283q0 106 -54.5 163.5t-152.5 57.5q-97 0 -151.5 -58.5t-54.5 -162.5v-283
q0 -105 54.5 -163t151.5 -58q98 0 152.5 57.5t54.5 163.5z" />
    <glyph glyph-name="ydieresis" unicode="&#xff;" 
d="M375 1315q-70 0 -111 39.5t-41 107.5q0 67 41.5 107.5t110.5 40.5q68 0 108.5 -40.5t40.5 -107.5q0 -68 -40.5 -107.5t-108.5 -39.5zM854 1315q-68 0 -108.5 39.5t-40.5 107.5q0 67 40.5 107.5t108.5 40.5q69 0 110.5 -40.5t41.5 -107.5q0 -68 -41 -107.5t-111 -39.5z
M608 -369h-268l160 430l-434 1065h278l221 -575q31 -84 60 -223q42 171 61 223l211 575h266z" />
    <glyph glyph-name="Amacron" unicode="&#x100;" 
d="M967 1696h-705v196h705v-196zM334 0h-262l377 1495h329l379 -1495h-262l-82 362h-397zM553 975l-90 -404h303l-90 402q-52 241 -62 299q-21 -127 -61 -297z" />
    <glyph glyph-name="amacron" unicode="&#x101;" 
d="M272 1550h705v-196h-705v196zM625 1147q208 0 329 -102.5t121 -280.5v-764h-248v190h-4q-22 -98 -110.5 -154t-223.5 -56q-174 0 -274 91t-100 248q0 166 114 257.5t320 91.5h270v94q0 83 -53 127.5t-150 44.5q-88 0 -144 -37t-62 -98h-244q9 158 134 253t325 95z
M573 170q108 0 177 55t69 144v135h-264q-86 0 -135 -43.5t-49 -120.5q0 -80 53.5 -125t148.5 -45z" />
    <glyph glyph-name="Abreve" unicode="&#x102;" 
d="M614 1642q-160 0 -258 84t-98 220h199q0 -67 43 -108.5t114 -41.5q72 0 116 41t44 109h199q0 -137 -99 -220.5t-260 -83.5zM334 0h-262l377 1495h329l379 -1495h-262l-82 362h-397zM553 975l-90 -404h303l-90 402q-52 241 -62 299q-21 -127 -61 -297z" />
    <glyph glyph-name="abreve" unicode="&#x103;" 
d="M625 1305q-160 0 -259.5 83.5t-99.5 219.5h199q0 -67 44.5 -108.5t115.5 -41.5q72 0 115.5 41t43.5 109h199q0 -136 -98.5 -219.5t-259.5 -83.5zM625 1147q208 0 329 -102.5t121 -280.5v-764h-248v190h-4q-22 -98 -110.5 -154t-223.5 -56q-174 0 -274 91t-100 248
q0 166 114 257.5t320 91.5h270v94q0 83 -53 127.5t-150 44.5q-88 0 -144 -37t-62 -98h-244q9 158 134 253t325 95zM573 170q108 0 177 55t69 144v135h-264q-86 0 -135 -43.5t-49 -120.5q0 -80 53.5 -125t148.5 -45z" />
    <glyph glyph-name="Aogonek" unicode="&#x104;" 
d="M1049 -266h133v-176h-195q-119 0 -189.5 59t-70.5 152q0 125 168 231l-82 362h-397l-82 -362h-262l377 1495h329l379 -1495h-84l-22 -20q-105 -91 -105 -158q0 -38 28.5 -63t74.5 -25zM553 975l-90 -404h303l-90 402q-52 241 -62 299q-21 -127 -61 -297z" />
    <glyph glyph-name="aogonek" unicode="&#x105;" 
d="M1051 -266h133v-176h-197q-119 0 -189.5 59t-70.5 152q0 124 166 231h-66v190h-4q-22 -98 -110.5 -154t-223.5 -56q-174 0 -274 91t-100 248q0 166 114 257.5t320 91.5h270v94q0 83 -53 127.5t-150 44.5q-88 0 -144 -37t-62 -98h-244q9 158 134 253t325 95
q208 0 329 -102.5t121 -280.5v-764q-127 -113 -127 -178q0 -38 28.5 -63t74.5 -25zM573 170q108 0 177 55t69 144v135h-264q-86 0 -135 -43.5t-49 -120.5q0 -80 53.5 -125t148.5 -45z" />
    <glyph glyph-name="Cacute" unicode="&#x106;" 
d="M727 1659h-258l217 287h275zM623 -20q-217 0 -346.5 120t-129.5 322v651q0 202 129.5 322.5t346.5 120.5q215 0 345 -121t130 -322h-258q0 105 -57 161t-160 56q-105 0 -162.5 -55.5t-57.5 -159.5v-653q0 -105 57.5 -161t162.5 -56q103 0 160 56t57 161h258
q0 -201 -130 -321.5t-345 -120.5z" />
    <glyph glyph-name="cacute" unicode="&#x107;" 
d="M723 1321h-258l217 287h274zM621 -20q-217 0 -347.5 120t-130.5 322v283q0 202 130.5 322t347.5 120q212 0 339.5 -109.5t133.5 -298.5h-250q-6 87 -66 136t-157 49q-104 0 -163 -57t-59 -160v-285q0 -105 59 -162t163 -57q98 0 157.5 48.5t65.5 135.5h250
q-6 -189 -133 -298t-340 -109z" />
    <glyph glyph-name="Ccircumflex" unicode="&#x108;" 
d="M473 1659h-248l281 287h237l281 -287h-246l-155 149zM623 -20q-217 0 -346.5 120t-129.5 322v651q0 202 129.5 322.5t346.5 120.5q215 0 345 -121t130 -322h-258q0 105 -57 161t-160 56q-105 0 -162.5 -55.5t-57.5 -159.5v-653q0 -105 57.5 -161t162.5 -56q103 0 160 56
t57 161h258q0 -201 -130 -321.5t-345 -120.5z" />
    <glyph glyph-name="ccircumflex" unicode="&#x109;" 
d="M471 1321h-250l281 287h237l281 -287h-246l-156 149zM621 -20q-217 0 -347.5 120t-130.5 322v283q0 202 130.5 322t347.5 120q212 0 339.5 -109.5t133.5 -298.5h-250q-6 87 -66 136t-157 49q-104 0 -163 -57t-59 -160v-285q0 -105 59 -162t163 -57q98 0 157.5 48.5
t65.5 135.5h250q-6 -189 -133 -298t-340 -109z" />
    <glyph glyph-name="Cdotaccent" unicode="&#x10a;" 
d="M625 1655q-77 0 -122.5 40t-45.5 107t45.5 107.5t122.5 40.5t122.5 -40.5t45.5 -107.5t-45.5 -107t-122.5 -40zM623 -20q-217 0 -346.5 120t-129.5 322v651q0 202 129.5 322.5t346.5 120.5q215 0 345 -121t130 -322h-258q0 105 -57 161t-160 56q-105 0 -162.5 -55.5
t-57.5 -159.5v-653q0 -105 57.5 -161t162.5 -56q103 0 160 56t57 161h258q0 -201 -130 -321.5t-345 -120.5z" />
    <glyph glyph-name="cdotaccent" unicode="&#x10b;" 
d="M621 1315q-77 0 -122.5 39t-45.5 108q0 67 45.5 107.5t122.5 40.5q78 0 124 -40t46 -108q0 -69 -46 -108t-124 -39zM621 -20q-217 0 -347.5 120t-130.5 322v283q0 202 130.5 322t347.5 120q212 0 339.5 -109.5t133.5 -298.5h-250q-6 87 -66 136t-157 49q-104 0 -163 -57
t-59 -160v-285q0 -105 59 -162t163 -57q98 0 157.5 48.5t65.5 135.5h250q-6 -189 -133 -298t-340 -109z" />
    <glyph glyph-name="Ccaron" unicode="&#x10c;" 
d="M743 1659h-237l-281 287h246l156 -150l149 150h248zM623 -20q-217 0 -346.5 120t-129.5 322v651q0 202 129.5 322.5t346.5 120.5q215 0 345 -121t130 -322h-258q0 105 -57 161t-160 56q-105 0 -162.5 -55.5t-57.5 -159.5v-653q0 -105 57.5 -161t162.5 -56q103 0 160 56
t57 161h258q0 -201 -130 -321.5t-345 -120.5z" />
    <glyph glyph-name="ccaron" unicode="&#x10d;" 
d="M739 1321h-237l-281 287h246l156 -150l149 150h248zM621 -20q-217 0 -347.5 120t-130.5 322v283q0 202 130.5 322t347.5 120q212 0 339.5 -109.5t133.5 -298.5h-250q-6 87 -66 136t-157 49q-104 0 -163 -57t-59 -160v-285q0 -105 59 -162t163 -57q98 0 157.5 48.5
t65.5 135.5h250q-6 -189 -133 -298t-340 -109z" />
    <glyph glyph-name="Dcaron" unicode="&#x10e;" 
d="M733 1659h-237l-281 287h246l155 -150l150 150h248zM598 0h-444v1495h444q226 0 362 -127.5t136 -339.5v-559q0 -212 -136 -340.5t-362 -128.5zM410 1266v-1037h188q110 0 176 65.5t66 174.5v559q0 109 -66 173.5t-176 64.5h-188z" />
    <glyph glyph-name="dcaron" unicode="&#x10f;" 
d="M705 911l-9 269v315h244v-1495h-238v215h-4q-15 -109 -84.5 -172t-177.5 -63q-154 0 -244 113t-90 306v328q0 193 90 306.5t244 113.5q108 0 177.5 -63t84.5 -173h7zM1038 1126v369h209l-20 -369h-189zM526 190q80 0 125 59t45 163v305q0 103 -45 161t-125 58
q-85 0 -132.5 -58t-47.5 -161v-305q0 -104 47.5 -163t132.5 -59z" />
    <glyph glyph-name="Dcroat" unicode="&#x110;" 
d="M154 1495h444q226 0 362 -127.5t136 -339.5v-559q0 -212 -136 -340.5t-362 -128.5h-444v674h-134v178h134v643zM840 469v559q0 109 -66 173.5t-176 64.5h-188v-414h184v-178h-184v-445h188q110 0 176 65.5t66 174.5z" />
    <glyph glyph-name="dcroat" unicode="&#x111;" 
d="M1069 1321h160v-172h-160v-1149h-250v215h-4q-17 -111 -95 -173t-202 -62q-169 0 -270 116.5t-101 313.5v182q0 198 100.5 315t270.5 117q124 0 202 -62.5t95 -173.5h6l-8 269v92h-313v172h313v174h256v-174zM608 201q97 0 151 58t54 163v160q0 104 -54 162.5t-151 58.5
q-98 0 -150 -57.5t-52 -163.5v-160q0 -106 52 -163.5t150 -57.5z" />
    <glyph glyph-name="Emacron" unicode="&#x112;" 
d="M1008 1696h-705v196h705v-196zM1077 0h-897v1495h897v-225h-645v-389h574v-217h-574v-439h645v-225z" />
    <glyph glyph-name="emacron" unicode="&#x113;" 
d="M262 1550h705v-196h-705v196zM1085 705v-203h-694v-80q0 -240 227 -240q176 0 207 117h252q-29 -145 -155 -232t-306 -87q-215 0 -344 121t-129 321v283q0 200 129 321t344 121q213 0 341 -121t128 -321zM391 705v-43l447 4v41q0 118 -56 179.5t-166 61.5
q-111 0 -168 -62.5t-57 -180.5z" />
    <glyph glyph-name="Ebreve" unicode="&#x114;" 
d="M655 1642q-160 0 -258 84t-98 220h199q0 -67 43 -108.5t114 -41.5q72 0 116 41t44 109h199q0 -137 -99 -220.5t-260 -83.5zM1077 0h-897v1495h897v-225h-645v-389h574v-217h-574v-439h645v-225z" />
    <glyph glyph-name="ebreve" unicode="&#x115;" 
d="M614 1305q-160 0 -259 83.5t-99 219.5h199q0 -67 44 -108.5t115 -41.5q72 0 116 41t44 109h199q0 -136 -99 -219.5t-260 -83.5zM1085 705v-203h-694v-80q0 -240 227 -240q176 0 207 117h252q-29 -145 -155 -232t-306 -87q-215 0 -344 121t-129 321v283q0 200 129 321
t344 121q213 0 341 -121t128 -321zM391 705v-43l447 4v41q0 118 -56 179.5t-166 61.5q-111 0 -168 -62.5t-57 -180.5z" />
    <glyph glyph-name="Edotaccent" unicode="&#x116;" 
d="M655 1655q-77 0 -122.5 40t-45.5 107t45.5 107.5t122.5 40.5t122.5 -40.5t45.5 -107.5t-45.5 -107t-122.5 -40zM1077 0h-897v1495h897v-225h-645v-389h574v-217h-574v-439h645v-225z" />
    <glyph glyph-name="edotaccent" unicode="&#x117;" 
d="M614 1315q-77 0 -122.5 39t-45.5 108q0 67 45.5 107.5t122.5 40.5t122.5 -40.5t45.5 -107.5q0 -69 -45.5 -108t-122.5 -39zM1085 705v-203h-694v-80q0 -240 227 -240q176 0 207 117h252q-29 -145 -155 -232t-306 -87q-215 0 -344 121t-129 321v283q0 200 129 321t344 121
q213 0 341 -121t128 -321zM391 705v-43l447 4v41q0 118 -56 179.5t-166 61.5q-111 0 -168 -62.5t-57 -180.5z" />
    <glyph glyph-name="Eogonek" unicode="&#x118;" 
d="M952 -266h133v-176h-194q-119 0 -190.5 59t-71.5 152q0 125 168 231h-617v1495h897v-225h-645v-389h574v-217h-574v-439h645v-225h-100l-23 -20q-104 -91 -104 -158q0 -38 28 -63t74 -25z" />
    <glyph glyph-name="eogonek" unicode="&#x119;" 
d="M1081 705v-203h-688v-80q0 -240 225 -240q175 0 203 117h254q-34 -164 -188 -252l-76 -67q-102 -92 -102 -158q0 -38 28 -63t74 -25h133v-176h-196q-119 0 -190 59t-71 152q0 102 142 211h-13q-214 0 -341.5 121t-127.5 321v283q0 200 127.5 321t341.5 121
q213 0 339 -121t126 -321zM393 705v-43l443 4v41q0 118 -55.5 179.5t-164.5 61.5q-111 0 -167 -62.5t-56 -180.5z" />
    <glyph glyph-name="Ecaron" unicode="&#x11a;" 
d="M774 1659h-237l-281 287h246l155 -150l150 150h248zM1077 0h-897v1495h897v-225h-645v-389h574v-217h-574v-439h645v-225z" />
    <glyph glyph-name="ecaron" unicode="&#x11b;" 
d="M1014 1608l-281 -287h-237l-281 287h246l155 -150l150 150h248zM1085 705v-203h-694v-80q0 -240 227 -240q176 0 207 117h252q-29 -145 -155 -232t-306 -87q-215 0 -344 121t-129 321v283q0 200 129 321t344 121q213 0 341 -121t128 -321zM391 705v-43l447 4v41
q0 118 -56 179.5t-166 61.5q-111 0 -168 -62.5t-57 -180.5z" />
    <glyph glyph-name="Gcircumflex" unicode="&#x11c;" 
d="M463 1659h-248l281 287h237l281 -287h-246l-156 149zM623 -20q-217 0 -346.5 120t-129.5 322v651q0 202 129.5 322.5t346.5 120.5q215 0 345 -121t130 -322h-258q0 105 -57 161t-160 56q-105 0 -162.5 -55.5t-57.5 -159.5v-653q0 -105 57.5 -162t162.5 -57q103 0 160 57
t57 162v151h-254v222h512v-373q0 -201 -130 -321.5t-345 -120.5z" />
    <glyph glyph-name="gcircumflex" unicode="&#x11d;" 
d="M762 1321l-156 149l-149 -149h-248l280 287h238l281 -287h-246zM821 911l-6 215h256v-1126q0 -171 -113 -270t-309 -99h-338v213h334q85 0 128.5 41.5t43.5 120.5v84l4 211h-4q-15 -112 -93 -173.5t-202 -61.5q-172 0 -273.5 116.5t-101.5 315.5v219q0 197 101.5 313.5
t273.5 116.5q124 0 202 -62t93 -174h4zM608 287q97 0 152 58.5t55 162.5v197q0 104 -55 162.5t-152 58.5q-98 0 -151.5 -57.5t-53.5 -163.5v-197q0 -106 53.5 -163.5t151.5 -57.5z" />
    <glyph glyph-name="Gbreve" unicode="&#x11e;" 
d="M614 1642q-160 0 -258 84t-98 220h199q0 -67 43 -108.5t114 -41.5q72 0 116 41t44 109h199q0 -137 -99 -220.5t-260 -83.5zM623 -20q-217 0 -346.5 120t-129.5 322v651q0 202 129.5 322.5t346.5 120.5q215 0 345 -121t130 -322h-258q0 105 -57 161t-160 56
q-105 0 -162.5 -55.5t-57.5 -159.5v-653q0 -105 57.5 -162t162.5 -57q103 0 160 57t57 162v151h-254v222h512v-373q0 -201 -130 -321.5t-345 -120.5z" />
    <glyph glyph-name="gbreve" unicode="&#x11f;" 
d="M608 1305q-160 0 -259 83.5t-99 219.5h199q0 -67 44 -108.5t115 -41.5q72 0 116 41t44 109h199q0 -136 -99 -219.5t-260 -83.5zM821 911l-6 215h256v-1126q0 -171 -113 -270t-309 -99h-338v213h334q85 0 128.5 41.5t43.5 120.5v84l4 211h-4q-15 -112 -93 -173.5
t-202 -61.5q-172 0 -273.5 116.5t-101.5 315.5v219q0 197 101.5 313.5t273.5 116.5q124 0 202 -62t93 -174h4zM608 287q97 0 152 58.5t55 162.5v197q0 104 -55 162.5t-152 58.5q-98 0 -151.5 -57.5t-53.5 -163.5v-197q0 -106 53.5 -163.5t151.5 -57.5z" />
    <glyph glyph-name="Gdotaccent" unicode="&#x120;" 
d="M614 1655q-77 0 -122.5 40t-45.5 107t45.5 107.5t122.5 40.5t122.5 -40.5t45.5 -107.5t-45.5 -107t-122.5 -40zM623 -20q-217 0 -346.5 120t-129.5 322v651q0 202 129.5 322.5t346.5 120.5q215 0 345 -121t130 -322h-258q0 105 -57 161t-160 56q-105 0 -162.5 -55.5
t-57.5 -159.5v-653q0 -105 57.5 -162t162.5 -57q103 0 160 57t57 162v151h-254v222h512v-373q0 -201 -130 -321.5t-345 -120.5z" />
    <glyph glyph-name="gdotaccent" unicode="&#x121;" 
d="M608 1315q-77 0 -122.5 39t-45.5 108q0 67 45.5 107.5t122.5 40.5t122.5 -40.5t45.5 -107.5q0 -69 -45.5 -108t-122.5 -39zM821 911l-6 215h256v-1126q0 -171 -113 -270t-309 -99h-338v213h334q85 0 128.5 41.5t43.5 120.5v84l4 211h-4q-15 -112 -93 -173.5t-202 -61.5
q-172 0 -273.5 116.5t-101.5 315.5v219q0 197 101.5 313.5t273.5 116.5q124 0 202 -62t93 -174h4zM608 287q97 0 152 58.5t55 162.5v197q0 104 -55 162.5t-152 58.5q-98 0 -151.5 -57.5t-53.5 -163.5v-197q0 -106 53.5 -163.5t151.5 -57.5z" />
    <glyph glyph-name="uni0122" unicode="&#x122;" 
d="M623 -20q-217 0 -346.5 120t-129.5 322v651q0 202 129.5 322.5t346.5 120.5q215 0 345 -121t130 -322h-258q0 105 -57 161t-160 56q-105 0 -162.5 -55.5t-57.5 -159.5v-653q0 -105 57.5 -162t162.5 -57q103 0 160 57t57 162v151h-254v222h512v-373q0 -201 -130 -321.5
t-345 -120.5zM616 -492h-237l194 297h271z" />
    <glyph glyph-name="uni0123" unicode="&#x123;" 
d="M666 1802h208l-163 -481h-312zM821 911l-6 215h256v-1126q0 -171 -113 -270t-309 -99h-338v213h334q85 0 128.5 41.5t43.5 120.5v84l4 211h-4q-15 -112 -93 -173.5t-202 -61.5q-172 0 -273.5 116.5t-101.5 315.5v219q0 197 101.5 313.5t273.5 116.5q124 0 202 -62
t93 -174h4zM608 287q97 0 152 58.5t55 162.5v197q0 104 -55 162.5t-152 58.5q-98 0 -151.5 -57.5t-53.5 -163.5v-197q0 -106 53.5 -163.5t151.5 -57.5z" />
    <glyph glyph-name="Hcircumflex" unicode="&#x124;" 
d="M463 1659h-248l281 287h237l281 -287h-246l-156 149zM414 0h-256v1495h256v-600h401v600h256v-1495h-256v664h-401v-664z" />
    <glyph glyph-name="hcircumflex" unicode="&#x125;" 
d="M641 1673l-156 150l-149 -150h-248l279 287h239l281 -287h-246zM711 1147q166 0 265 -111t99 -297v-739h-256v713q0 101 -53.5 157t-147.5 56q-96 0 -150 -58t-54 -163v-705h-256v1495h256v-369l-6 -215h4q17 111 95.5 173.5t203.5 62.5z" />
    <glyph glyph-name="Hbar" unicode="&#x126;" 
d="M1071 1253h137v-178h-137v-1075h-256v664h-401v-664h-256v1075h-138v178h138v242h256v-242h401v242h256v-242zM414 895h401v180h-401v-180z" />
    <glyph glyph-name="hbar" unicode="&#x127;" 
d="M158 1149h-158v172h158v174h256v-174h315v-172h-315v-145l-6 -216h4q17 111 95.5 173.5t203.5 62.5q166 0 265 -111t99 -297v-616h-256v590q0 101 -53.5 157t-149.5 56t-149 -58t-53 -163v-582h-256v1149z" />
    <glyph glyph-name="Itilde" unicode="&#x128;" 
d="M758 1651q-47 0 -85 13.5t-62 32.5t-44 38.5t-41.5 33t-44.5 13.5q-28 0 -44.5 -18t-16.5 -50v-53h-158v68q0 100 58 162.5t151 62.5q47 0 85 -13.5t62 -33t44 -38.5t41.5 -32.5t44.5 -13.5q28 0 44.5 16.5t16.5 46.5v58h158v-68q0 -100 -58 -162.5t-151 -62.5zM1044 0
h-860v231h301v1033h-301v231h860v-231h-301v-1033h301v-231z" />
    <glyph glyph-name="itilde" unicode="&#x129;" 
d="M674 1313q-47 0 -85 13.5t-62 32.5t-44 38.5t-41.5 33t-44.5 13.5q-28 0 -44.5 -18t-16.5 -50v-53h-158v68q0 100 58 162.5t151 62.5q47 0 84.5 -13.5t61 -33t43.5 -38.5t42 -32.5t46 -13.5q28 0 44.5 16.5t16.5 46.5v58h156v-68q0 -100 -57 -162.5t-150 -62.5zM952 0
h-817v231h293v664h-244v231h500v-895h268v-231z" />
    <glyph glyph-name="Imacron" unicode="&#x12a;" 
d="M967 1696h-705v196h705v-196zM1044 0h-860v231h301v1033h-301v231h860v-231h-301v-1033h301v-231z" />
    <glyph glyph-name="imacron" unicode="&#x12b;" horiz-adv-x="1024" 
d="M883 1354h-705v196h705v-196zM952 0h-817v231h293v664h-244v231h500v-895h268v-231z" />
    <glyph glyph-name="Ibreve" unicode="&#x12c;" 
d="M614 1642q-160 0 -258 84t-98 220h199q0 -67 43 -108.5t114 -41.5q72 0 116 41t44 109h199q0 -137 -99 -220.5t-260 -83.5zM1044 0h-860v231h301v1033h-301v231h860v-231h-301v-1033h301v-231z" />
    <glyph glyph-name="ibreve" unicode="&#x12d;" 
d="M530 1305q-161 0 -259.5 83.5t-98.5 219.5h199q0 -67 43 -108.5t114 -41.5q72 0 116 41t44 109h199q0 -136 -98.5 -219.5t-258.5 -83.5zM952 0h-817v231h293v664h-244v231h500v-895h268v-231z" />
    <glyph glyph-name="Iogonek" unicode="&#x12e;" 
d="M1044 1495v-231h-301v-1033h301v-231h-342l-22 -20q-105 -92 -105 -158q0 -38 28.5 -63t74.5 -25h133v-176h-195q-120 0 -191 58.5t-71 152.5q0 125 168 231h-338v231h301v1033h-301v231h860z" />
    <glyph glyph-name="iogonek" unicode="&#x12f;" horiz-adv-x="1024" 
d="M530 1315q-77 0 -122.5 39t-45.5 108q0 67 45.5 107.5t122.5 40.5t122.5 -40.5t45.5 -107.5q0 -69 -45.5 -108t-122.5 -39zM645 0l-22 -20q-105 -92 -105 -158q0 -38 28.5 -63t74.5 -25h133v-176h-195q-119 0 -190.5 59t-71.5 152q0 125 168 231h-330v231h293v664h-244
v231h500v-895h268v-231h-307z" />
    <glyph glyph-name="Idotaccent" unicode="&#x130;" 
d="M614 1655q-77 0 -122.5 40t-45.5 107t45.5 107.5t122.5 40.5t122.5 -40.5t45.5 -107.5t-45.5 -107t-122.5 -40zM1044 0h-860v231h301v1033h-301v231h860v-231h-301v-1033h301v-231z" />
    <glyph glyph-name="dotlessi" unicode="&#x131;" horiz-adv-x="1024" 
d="M952 0h-817v231h293v664h-244v231h500v-895h268v-231z" />
    <glyph glyph-name="Jcircumflex" unicode="&#x134;" 
d="M586 1659h-248l280 287h238l281 -287h-246l-156 149zM553 -20q-227 0 -359.5 124t-132.5 338h256q0 -112 63 -175.5t173 -63.5q109 0 172 63.5t63 173.5v824h-419v231h675v-1055q0 -214 -132 -337t-359 -123z" />
    <glyph glyph-name="jcircumflex" unicode="&#x135;" horiz-adv-x="819" 
d="M264 1321h-248l279 287h240l280 -287h-246l-155 149zM209 -369h-170v232h156q98 0 155.5 58.5t57.5 158.5v815h-320v231h576v-1052q0 -204 -123 -323.5t-332 -119.5z" />
    <glyph glyph-name="uni0136" unicode="&#x136;" 
d="M412 0h-256v1495h256v-610h176l284 610h277l-336 -713l352 -782h-284l-295 662h-174v-662zM608 -492h-237l194 297h271z" />
    <glyph glyph-name="uni0137" unicode="&#x137;" 
d="M420 0h-256v1495h256v-811h180l274 442h285l-340 -544l346 -582h-291l-274 467h-180v-467zM608 -492h-237l194 297h271z" />
    <glyph glyph-name="kgreenlandic" unicode="&#x138;" 
d="M420 0h-256v1126h256v-442h178l274 442h287l-340 -544l346 -582h-293l-274 467h-178v-467z" />
    <glyph glyph-name="Lacute" unicode="&#x139;" 
d="M479 1659h-258l217 287h275zM1139 0h-891v1495h256v-1264h635v-231z" />
    <glyph glyph-name="lacute" unicode="&#x13a;" horiz-adv-x="819" 
d="M428 1659h-258l217 287h275zM778 0h-192q-167 0 -269 100.5t-102 264.5v899h-201v231h457v-1124q0 -63 36.5 -101.5t96.5 -38.5h174v-231z" />
    <glyph glyph-name="uni013B" unicode="&#x13b;" 
d="M1139 0h-891v1495h256v-1264h635v-231zM690 -492h-237l194 297h271z" />
    <glyph glyph-name="uni013C" unicode="&#x13c;" horiz-adv-x="819" 
d="M778 0h-192q-167 0 -269 100.5t-102 264.5v899h-201v231h457v-1124q0 -63 36.5 -101.5t96.5 -38.5h174v-231zM432 -492h-237l194 297h270z" />
    <glyph glyph-name="Lcaron" unicode="&#x13d;" 
d="M1448 1495h-219l20 369h240zM1139 0h-891v1495h256v-1264h635v-231z" />
    <glyph glyph-name="lcaron" unicode="&#x13e;" horiz-adv-x="819" 
d="M829 1495h-219l21 369h239zM778 0h-192q-167 0 -269 100.5t-102 264.5v899h-201v231h457v-1124q0 -63 36.5 -101.5t96.5 -38.5h174v-231z" />
    <glyph glyph-name="Ldot" unicode="&#x13f;" 
d="M1139 0h-891v1495h256v-1264h635v-231zM735 543q-88 0 -139 51t-51 139q0 89 51 141t139 52t140.5 -52t52.5 -141q0 -87 -52.5 -138.5t-140.5 -51.5z" />
    <glyph glyph-name="ldot" unicode="&#x140;" 
d="M737 0h-192q-167 0 -269 100.5t-102 264.5v899h-201v231h457v-1124q0 -63 36.5 -101.5t96.5 -38.5h174v-231zM942 543q-89 0 -140.5 51t-51.5 139q0 89 51.5 141t140.5 52q88 0 139.5 -52t51.5 -141q0 -88 -51.5 -139t-139.5 -51z" />
    <glyph glyph-name="Lslash" unicode="&#x141;" 
d="M516 743v-512h635v-231h-891v596l-219 -125v236l219 124v664h256v-516l295 168v-236z" />
    <glyph glyph-name="lslash" unicode="&#x142;" horiz-adv-x="819" 
d="M604 231h174v-231h-192q-167 0 -269 100.5t-102 264.5v206l-176 -100v236l176 100v457h-201v231h457v-541l203 117v-235l-203 -117v-348q0 -63 36.5 -101.5t96.5 -38.5z" />
    <glyph glyph-name="Nacute" unicode="&#x143;" 
d="M717 1659h-258l217 287h274zM381 0h-234v1495h314l416 -1208q-29 312 -29 499v709h233v-1495h-313l-412 1208q25 -297 25 -477v-731z" />
    <glyph glyph-name="nacute" unicode="&#x144;" 
d="M686 1608h275l-234 -287h-258zM711 1147q166 0 265 -111t99 -297v-739h-256v713q0 101 -53.5 157t-147.5 56q-96 0 -150 -58t-54 -163v-705h-256v1126h250v-215h4q17 111 95.5 173.5t203.5 62.5z" />
    <glyph glyph-name="uni0145" unicode="&#x145;" 
d="M381 0h-234v1495h314l416 -1208q-29 312 -29 499v709h233v-1495h-313l-412 1208q25 -297 25 -477v-731zM608 -492h-237l194 297h271z" />
    <glyph glyph-name="uni0146" unicode="&#x146;" 
d="M711 1147q166 0 265 -111t99 -297v-739h-256v713q0 101 -53.5 157t-147.5 56q-96 0 -150 -58t-54 -163v-705h-256v1126h250v-215h4q17 111 95.5 173.5t203.5 62.5zM608 -492h-237l194 297h271z" />
    <glyph glyph-name="Ncaron" unicode="&#x147;" 
d="M733 1659h-237l-281 287h246l155 -150l150 150h248zM381 0h-234v1495h314l416 -1208q-29 312 -29 499v709h233v-1495h-313l-412 1208q25 -297 25 -477v-731z" />
    <glyph glyph-name="ncaron" unicode="&#x148;" 
d="M1024 1608l-281 -287h-237l-281 287h246l156 -150l149 150h248zM711 1147q166 0 265 -111t99 -297v-739h-256v713q0 101 -53.5 157t-147.5 56q-96 0 -150 -58t-54 -163v-705h-256v1126h250v-215h4q17 111 95.5 173.5t203.5 62.5z" />
    <glyph glyph-name="napostrophe" unicode="&#x149;" 
d="M156 1618h270l-227 -297h-238zM711 1147q166 0 265 -111t99 -297v-739h-256v713q0 101 -53.5 157t-147.5 56q-96 0 -150 -58t-54 -163v-705h-256v1126h250v-215h4q17 111 95.5 173.5t203.5 62.5z" />
    <glyph glyph-name="Eng" unicode="&#x14a;" 
d="M618 -369h-114v244h127q91 0 141.5 49t50.5 137l-467 1147q25 -297 25 -477v-731h-234v1495h314l416 -1028q-29 312 -29 500v528h233v-1452q0 -184 -128.5 -298t-334.5 -114z" />
    <glyph glyph-name="eng" unicode="&#x14b;" 
d="M711 1147q166 0 264 -111t98 -297v-696q0 -184 -127.5 -298t-333.5 -114h-112v244h125q91 0 141.5 49t50.5 137v652q0 101 -53 157t-148 56t-147.5 -57.5t-52.5 -163.5v-705h-256v1126h250v-215h4q17 111 94.5 173.5t202.5 62.5z" />
    <glyph glyph-name="Omacron" unicode="&#x14c;" 
d="M967 1696h-705v196h705v-196zM614 -20q-215 0 -341 119.5t-126 322.5v651q0 203 126 323t341 120t341 -119.5t126 -321.5v-653q0 -203 -126 -322.5t-341 -119.5zM614 205q103 0 157 55.5t54 161.5v651q0 106 -53.5 161.5t-157.5 55.5t-157.5 -55.5t-53.5 -161.5v-651
q0 -106 54 -161.5t157 -55.5z" />
    <glyph glyph-name="omacron" unicode="&#x14d;" 
d="M967 1354h-705v196h705v-196zM614 -18q-216 0 -343.5 120t-127.5 322v278q0 202 127.5 322.5t343.5 120.5t343.5 -120t127.5 -320v-281q0 -202 -127.5 -322t-343.5 -120zM614 205q102 0 158.5 56.5t56.5 162.5v278q0 106 -56.5 163t-158.5 57t-158.5 -57t-56.5 -163v-278
q0 -106 56.5 -162.5t158.5 -56.5z" />
    <glyph glyph-name="Obreve" unicode="&#x14e;" 
d="M614 1642q-160 0 -258 84t-98 220h199q0 -67 43 -108.5t114 -41.5q72 0 116 41t44 109h199q0 -137 -99 -220.5t-260 -83.5zM614 -20q-215 0 -341 119.5t-126 322.5v651q0 203 126 323t341 120t341 -119.5t126 -321.5v-653q0 -203 -126 -322.5t-341 -119.5zM614 205
q103 0 157 55.5t54 161.5v651q0 106 -53.5 161.5t-157.5 55.5t-157.5 -55.5t-53.5 -161.5v-651q0 -106 54 -161.5t157 -55.5z" />
    <glyph glyph-name="obreve" unicode="&#x14f;" 
d="M614 1305q-160 0 -259 83.5t-99 219.5h199q0 -67 44 -108.5t115 -41.5q72 0 116 41t44 109h199q0 -136 -99 -219.5t-260 -83.5zM614 -18q-216 0 -343.5 120t-127.5 322v278q0 202 127.5 322.5t343.5 120.5t343.5 -120t127.5 -320v-281q0 -202 -127.5 -322t-343.5 -120z
M614 205q102 0 158.5 56.5t56.5 162.5v278q0 106 -56.5 163t-158.5 57t-158.5 -57t-56.5 -163v-278q0 -106 56.5 -162.5t158.5 -56.5z" />
    <glyph glyph-name="Ohungarumlaut" unicode="&#x150;" 
d="M483 1659h-233l221 287h248zM897 1659h-233l219 287h250zM614 -20q-215 0 -341 119.5t-126 322.5v651q0 203 126 323t341 120t341 -119.5t126 -321.5v-653q0 -203 -126 -322.5t-341 -119.5zM614 205q103 0 157 55.5t54 161.5v651q0 106 -53.5 161.5t-157.5 55.5
t-157.5 -55.5t-53.5 -161.5v-651q0 -106 54 -161.5t157 -55.5z" />
    <glyph glyph-name="ohungarumlaut" unicode="&#x151;" 
d="M483 1321h-233l221 287h248zM897 1321h-233l219 287h250zM614 -18q-216 0 -343.5 120t-127.5 322v278q0 202 127.5 322.5t343.5 120.5t343.5 -120t127.5 -320v-281q0 -202 -127.5 -322t-343.5 -120zM614 205q102 0 158.5 56.5t56.5 162.5v278q0 106 -56.5 163t-158.5 57
t-158.5 -57t-56.5 -163v-278q0 -106 56.5 -162.5t158.5 -56.5z" />
    <glyph glyph-name="OE" unicode="&#x152;" 
d="M375 -12q-143 0 -224 106t-81 293v729q0 186 81.5 293t223.5 107q100 0 158 -57.5t67 -127.5h10v164h574v-219h-344v-397h293v-222h-293v-436h344v-221h-574v172h-10q-9 -70 -67 -127t-158 -57zM459 205q68 0 106.5 48t38.5 134v729q0 85 -38.5 133.5t-106.5 48.5
t-107 -48.5t-39 -133.5v-729q0 -85 39 -133.5t107 -48.5z" />
    <glyph glyph-name="oe" unicode="&#x153;" 
d="M369 -20q-135 0 -216 86t-81 229v536q0 143 81 229.5t216 86.5q107 0 168.5 -49t70.5 -109h13q7 60 68 109t171 49q135 0 216 -86.5t81 -229.5v-319h-438v-217q0 -61 30.5 -97t81.5 -36q50 0 80 29.5t33 82.5h211q-9 -134 -89 -214t-206 -80q-110 0 -171 48.5t-68 108.5
h-13q-9 -60 -70.5 -108.5t-168.5 -48.5zM397 162q53 0 83 35t30 98v536q0 63 -30 98.5t-83 35.5q-54 0 -84 -36t-30 -98v-536q0 -62 30 -97.5t84 -35.5zM719 831v-161h227v161q0 63 -30.5 98.5t-84.5 35.5q-52 0 -82 -36t-30 -98z" />
    <glyph glyph-name="Racute" unicode="&#x154;" 
d="M717 1659h-258l217 287h274zM412 0h-256v1495h473q223 0 357 -121.5t134 -322.5q0 -149 -74 -261t-202 -159l297 -631h-287l-260 594h-182v-594zM412 1270v-451h217q107 0 169 59.5t62 163.5q0 106 -62 167t-169 61h-217z" />
    <glyph glyph-name="racute" unicode="&#x155;" 
d="M717 1608h274l-233 -287h-258zM754 1147q174 0 278.5 -115t104.5 -309v-92h-269v74q0 105 -54.5 163t-156.5 58q-103 0 -157 -60.5t-54 -175.5v-690h-256v1126h250v-215h4q19 111 101 173.5t209 62.5z" />
    <glyph glyph-name="uni0156" unicode="&#x156;" 
d="M412 0h-256v1495h473q223 0 357 -121.5t134 -322.5q0 -149 -74 -261t-202 -159l297 -631h-287l-260 594h-182v-594zM412 1270v-451h217q107 0 169 59.5t62 163.5q0 106 -62 167t-169 61h-217zM608 -492h-237l194 297h271z" />
    <glyph glyph-name="uni0157" unicode="&#x157;" 
d="M754 1147q174 0 278.5 -115t104.5 -309v-92h-269v74q0 105 -54.5 163t-156.5 58q-103 0 -157 -60.5t-54 -175.5v-690h-256v1126h250v-215h4q19 111 101 173.5t209 62.5zM291 -492h-238l195 297h270z" />
    <glyph glyph-name="Rcaron" unicode="&#x158;" 
d="M733 1659h-237l-281 287h246l155 -150l150 150h248zM412 0h-256v1495h473q223 0 357 -121.5t134 -322.5q0 -149 -74 -261t-202 -159l297 -631h-287l-260 594h-182v-594zM412 1270v-451h217q107 0 169 59.5t62 163.5q0 106 -62 167t-169 61h-217z" />
    <glyph glyph-name="rcaron" unicode="&#x159;" 
d="M1055 1608l-281 -287h-237l-281 287h246l155 -150l150 150h248zM754 1147q174 0 278.5 -115t104.5 -309v-92h-269v74q0 105 -54.5 163t-156.5 58q-103 0 -157 -60.5t-54 -175.5v-690h-256v1126h250v-215h4q19 111 101 173.5t209 62.5z" />
    <glyph glyph-name="Sacute" unicode="&#x15a;" 
d="M717 1659h-258l217 287h274zM618 -20q-229 0 -365 115t-136 308h256q0 -91 67.5 -145.5t180.5 -54.5q110 0 172.5 53.5t62.5 144.5q0 75 -43 130t-119 75l-180 49q-173 46 -270 162.5t-97 280.5q0 191 127 304.5t342 113.5q217 0 345.5 -111.5t128.5 -300.5h-256
q0 87 -59 137.5t-161 50.5q-100 0 -156.5 -50.5t-56.5 -139.5q0 -71 42.5 -122t121.5 -71l183 -51q175 -46 269.5 -162.5t94.5 -285.5q0 -194 -135 -312t-359 -118z" />
    <glyph glyph-name="sacute" unicode="&#x15b;" 
d="M717 1321h-258l217 287h274zM662 -18h-91q-195 0 -314.5 88.5t-119.5 238.5h258q0 -59 47 -91t131 -32h89q94 0 142 34t48 97q0 116 -174 144l-158 20q-354 53 -354 338q0 160 107 243t313 83h78q192 0 306.5 -84.5t114.5 -224.5h-258q0 51 -43 77.5t-122 26.5h-78
q-83 0 -125.5 -31t-42.5 -90q0 -106 149 -127l160 -24q190 -26 283.5 -110t93.5 -234q0 -164 -112.5 -253t-327.5 -89z" />
    <glyph glyph-name="Scircumflex" unicode="&#x15c;" 
d="M463 1659h-248l281 287h237l281 -287h-246l-156 149zM618 -20q-229 0 -365 115t-136 308h256q0 -91 67.5 -145.5t180.5 -54.5q110 0 172.5 53.5t62.5 144.5q0 75 -43 130t-119 75l-180 49q-173 46 -270 162.5t-97 280.5q0 191 127 304.5t342 113.5q217 0 345.5 -111.5
t128.5 -300.5h-256q0 87 -59 137.5t-161 50.5q-100 0 -156.5 -50.5t-56.5 -139.5q0 -71 42.5 -122t121.5 -71l183 -51q175 -46 269.5 -162.5t94.5 -285.5q0 -194 -135 -312t-359 -118z" />
    <glyph glyph-name="scircumflex" unicode="&#x15d;" 
d="M463 1321h-248l281 287h237l281 -287h-246l-156 149zM662 -18h-91q-195 0 -314.5 88.5t-119.5 238.5h258q0 -59 47 -91t131 -32h89q94 0 142 34t48 97q0 116 -174 144l-158 20q-354 53 -354 338q0 160 107 243t313 83h78q192 0 306.5 -84.5t114.5 -224.5h-258
q0 51 -43 77.5t-122 26.5h-78q-83 0 -125.5 -31t-42.5 -90q0 -106 149 -127l160 -24q190 -26 283.5 -110t93.5 -234q0 -164 -112.5 -253t-327.5 -89z" />
    <glyph glyph-name="Scedilla" unicode="&#x15e;" 
d="M1112 410q0 -192 -131.5 -309.5t-351.5 -120.5l-19 -56q64 -5 122.5 -25t103.5 -62.5t45 -98.5q0 -74 -75.5 -127t-193.5 -53h-204v131h155q45 0 77 22.5t32 50.5q0 44 -61.5 70.5t-168.5 26.5l52 131q-176 29 -276.5 138.5t-100.5 274.5h256q0 -91 67.5 -145.5
t180.5 -54.5q110 0 172.5 53.5t62.5 144.5q0 75 -43 130t-119 75l-180 49q-173 46 -270 162.5t-97 280.5q0 191 127 304.5t342 113.5q217 0 345.5 -111.5t128.5 -300.5h-256q0 87 -59 137.5t-161 50.5q-100 0 -156.5 -50.5t-56.5 -139.5q0 -71 42.5 -122t121.5 -71l183 -51
q175 -46 269.5 -162.5t94.5 -285.5z" />
    <glyph glyph-name="scedilla" unicode="&#x15f;" 
d="M662 -18h-17l-20 -58q47 -4 92.5 -17t87 -35t67 -57t25.5 -77q0 -74 -76 -127t-194 -53h-205v131h156q45 0 76.5 22.5t31.5 50.5q0 44 -61 70.5t-168 26.5l49 125q-167 15 -268 102.5t-101 222.5h258q0 -59 47 -91t131 -32h89q94 0 142 34t48 97q0 116 -174 144l-158 20
q-354 53 -354 338q0 160 107 243t313 83h78q192 0 306.5 -84.5t114.5 -224.5h-258q0 51 -43 77.5t-122 26.5h-78q-83 0 -125.5 -31t-42.5 -90q0 -106 149 -127l160 -24q190 -26 283.5 -110t93.5 -234q0 -164 -112.5 -253t-327.5 -89z" />
    <glyph glyph-name="Scaron" unicode="&#x160;" 
d="M733 1659h-237l-281 287h246l155 -150l150 150h248zM618 -20q-229 0 -365 115t-136 308h256q0 -91 67.5 -145.5t180.5 -54.5q110 0 172.5 53.5t62.5 144.5q0 75 -43 130t-119 75l-180 49q-173 46 -270 162.5t-97 280.5q0 191 127 304.5t342 113.5q217 0 345.5 -111.5
t128.5 -300.5h-256q0 87 -59 137.5t-161 50.5q-100 0 -156.5 -50.5t-56.5 -139.5q0 -71 42.5 -122t121.5 -71l183 -51q175 -46 269.5 -162.5t94.5 -285.5q0 -194 -135 -312t-359 -118z" />
    <glyph glyph-name="scaron" unicode="&#x161;" 
d="M733 1321h-237l-281 287h246l155 -150l150 150h248zM662 -18h-91q-195 0 -314.5 88.5t-119.5 238.5h258q0 -59 47 -91t131 -32h89q94 0 142 34t48 97q0 116 -174 144l-158 20q-354 53 -354 338q0 160 107 243t313 83h78q192 0 306.5 -84.5t114.5 -224.5h-258
q0 51 -43 77.5t-122 26.5h-78q-83 0 -125.5 -31t-42.5 -90q0 -106 149 -127l160 -24q190 -26 283.5 -110t93.5 -234q0 -164 -112.5 -253t-327.5 -89z" />
    <glyph glyph-name="uni0162" unicode="&#x162;" 
d="M1135 1264h-392v-1264l-26 -76q47 -4 92.5 -17t87 -35t67 -57t25.5 -77q0 -74 -76 -127t-194 -53h-203v131h154q47 0 77.5 22.5t30.5 50.5q0 44 -61 70.5t-168 26.5l55 141h-119v1264h-391v231h1041v-231z" />
    <glyph glyph-name="uni0163" unicode="&#x163;" horiz-adv-x="1024" 
d="M698 0l-26 -76q47 -4 92.5 -17t87 -35t67 -57t25.5 -77q0 -74 -76 -127t-194 -53h-205v131h156q47 0 77.5 22.5t30.5 50.5q0 44 -61 70.5t-168 26.5l57 145q-128 20 -200 108t-72 226v557h-242v231h242v318h256v-318h354v-231h-354v-551q0 -51 27.5 -82t76.5 -31h230
v-231h-181z" />
    <glyph glyph-name="Tcaron" unicode="&#x164;" 
d="M733 1659h-237l-281 287h246l155 -150l150 150h248zM743 0h-258v1264h-391v231h1041v-231h-392v-1264z" />
    <glyph glyph-name="tcaron" unicode="&#x165;" horiz-adv-x="1024" 
d="M971 1270h-199l172 317h219zM879 0h-248q-158 0 -250 90.5t-92 247.5v557h-242v231h242v318h256v-318h354v-231h-354v-551q0 -51 27.5 -82t76.5 -31h230v-231z" />
    <glyph glyph-name="Tbar" unicode="&#x166;" 
d="M1135 1495v-231h-392v-482h273v-215h-273v-567h-258v567h-272v215h272v482h-391v231h1041z" />
    <glyph glyph-name="tbar" unicode="&#x167;" horiz-adv-x="1024" 
d="M899 1126v-231h-354v-227h241v-201h-241v-123q0 -51 27.5 -82t76.5 -31h230v-231h-248q-158 0 -250 90.5t-92 247.5v129h-236v201h236v227h-242v231h242v318h256v-318h354z" />
    <glyph glyph-name="Utilde" unicode="&#x168;" 
d="M758 1651q-47 0 -85 13.5t-62 32.5t-44 38.5t-41.5 33t-44.5 13.5q-28 0 -44.5 -18t-16.5 -50v-53h-158v68q0 100 58 162.5t151 62.5q47 0 85 -13.5t62 -33t44 -38.5t41.5 -32.5t44.5 -13.5q28 0 44.5 16.5t16.5 46.5v58h158v-68q0 -100 -58 -162.5t-151 -62.5zM614 -20
q-219 0 -343 119t-124 327v1069h259v-1067q0 -107 53 -166t155 -59q101 0 155 59t54 166v1067h258v-1069q0 -208 -124 -327t-343 -119z" />
    <glyph glyph-name="utilde" unicode="&#x169;" 
d="M758 1313q-47 0 -85 13.5t-62 32.5t-44 38.5t-41.5 33t-44.5 13.5q-28 0 -44.5 -18t-16.5 -50v-53h-158v68q0 100 58 162.5t151 62.5q47 0 85 -13.5t62 -33t44 -38.5t41.5 -32.5t44.5 -13.5q28 0 44.5 16.5t16.5 46.5v58h158v-68q0 -100 -58 -162.5t-151 -62.5zM614 -20
q-215 0 -337.5 119.5t-122.5 326.5v700h256v-698q0 -109 53 -167t151 -58q97 0 151 58.5t54 166.5v698h256v-700q0 -207 -124 -326.5t-337 -119.5z" />
    <glyph glyph-name="Umacron" unicode="&#x16a;" 
d="M967 1696h-705v196h705v-196zM614 -20q-219 0 -343 119t-124 327v1069h259v-1067q0 -107 53 -166t155 -59q101 0 155 59t54 166v1067h258v-1069q0 -208 -124 -327t-343 -119z" />
    <glyph glyph-name="umacron" unicode="&#x16b;" 
d="M967 1354h-705v196h705v-196zM614 -20q-215 0 -337.5 119.5t-122.5 326.5v700h256v-698q0 -109 53 -167t151 -58q97 0 151 58.5t54 166.5v698h256v-700q0 -207 -124 -326.5t-337 -119.5z" />
    <glyph glyph-name="Ubreve" unicode="&#x16c;" 
d="M614 1642q-160 0 -258 84t-98 220h199q0 -67 43 -108.5t114 -41.5q72 0 116 41t44 109h199q0 -137 -99 -220.5t-260 -83.5zM614 -20q-219 0 -343 119t-124 327v1069h259v-1067q0 -107 53 -166t155 -59q101 0 155 59t54 166v1067h258v-1069q0 -208 -124 -327t-343 -119z
" />
    <glyph glyph-name="ubreve" unicode="&#x16d;" 
d="M614 1305q-160 0 -259 83.5t-99 219.5h199q0 -67 44 -108.5t115 -41.5q72 0 116 41t44 109h199q0 -136 -99 -219.5t-260 -83.5zM614 -20q-215 0 -337.5 119.5t-122.5 326.5v700h256v-698q0 -109 53 -167t151 -58q97 0 151 58.5t54 166.5v698h256v-700q0 -207 -124 -326.5
t-337 -119.5z" />
    <glyph glyph-name="Uring" unicode="&#x16e;" 
d="M614 1552q-122 0 -196 69t-74 181q0 113 74 181.5t196 68.5t196.5 -69t74.5 -181t-74.5 -181t-196.5 -69zM614 1681q55 0 89 33.5t34 87.5t-34 87.5t-89 33.5t-88.5 -33.5t-33.5 -87.5t33.5 -87.5t88.5 -33.5zM614 -20q-219 0 -343 119t-124 327v1069h259v-1067
q0 -107 53 -166t155 -59q101 0 155 59t54 166v1067h258v-1069q0 -208 -124 -327t-343 -119z" />
    <glyph glyph-name="uring" unicode="&#x16f;" 
d="M614 1235q-121 0 -195.5 68.5t-74.5 179.5q0 113 74 181.5t196 68.5t196.5 -69t74.5 -181q0 -110 -75 -179t-196 -69zM614 1364q56 0 89.5 32.5t33.5 86.5q0 55 -33.5 88t-89.5 33t-89 -33t-33 -88q0 -54 33.5 -86.5t88.5 -32.5zM614 -20q-215 0 -337.5 119.5
t-122.5 326.5v700h256v-698q0 -109 53 -167t151 -58q97 0 151 58.5t54 166.5v698h256v-700q0 -207 -124 -326.5t-337 -119.5z" />
    <glyph glyph-name="Uhungarumlaut" unicode="&#x170;" 
d="M483 1659h-233l221 287h248zM897 1659h-233l219 287h250zM614 -20q-219 0 -343 119t-124 327v1069h259v-1067q0 -107 53 -166t155 -59q101 0 155 59t54 166v1067h258v-1069q0 -208 -124 -327t-343 -119z" />
    <glyph glyph-name="uhungarumlaut" unicode="&#x171;" 
d="M483 1321h-233l221 287h248zM897 1321h-233l219 287h250zM614 -20q-215 0 -337.5 119.5t-122.5 326.5v700h256v-698q0 -109 53 -167t151 -58q97 0 151 58.5t54 166.5v698h256v-700q0 -207 -124 -326.5t-337 -119.5z" />
    <glyph glyph-name="Uogonek" unicode="&#x172;" 
d="M823 422v1073h258v-1073q0 -123 -52 -221t-144 -154l-82 -67q-96 -75 -96 -158q0 -38 28 -63t74 -25h133v-176h-197q-119 0 -189.5 59t-70.5 152q0 48 39.5 105.5t104.5 105.5h-15q-215 0 -341 119.5t-126 322.5v1073h259v-1073q0 -106 53 -161.5t155 -55.5
q103 0 156 55.5t53 161.5z" />
    <glyph glyph-name="uogonek" unicode="&#x173;" 
d="M819 422v704h256v-704q0 -119 -46.5 -214.5t-131.5 -152.5l-88 -75q-102 -86 -102 -158q0 -38 28 -63t74 -25h133v-176h-197q-119 0 -189.5 59t-70.5 152q0 104 144 213q-4 -2 -15 -2q-214 0 -337 119t-123 323v704h256v-704q0 -106 51.5 -162.5t152.5 -56.5t153 56.5
t52 162.5z" />
    <glyph glyph-name="Wcircumflex" unicode="&#x174;" 
d="M463 1659h-248l281 287h237l281 -287h-246l-156 149zM471 0h-285l-153 1495h221l90 -1044q13 -154 16 -277q8 111 27 277l123 1044h215l115 -1044q23 -205 32 -277q4 161 17 277l88 1044h219l-162 -1495h-282l-111 1049q-17 139 -25 284q-17 -209 -24 -284z" />
    <glyph glyph-name="wcircumflex" unicode="&#x175;" 
d="M463 1321h-248l281 287h237l281 -287h-246l-156 149zM477 0h-264l-172 1126h205l94 -690q6 -46 13.5 -141t8.5 -109h11q16 168 28 250l109 690h213l104 -690q14 -91 29 -252h10q21 218 25 252l98 690h199l-176 -1126h-264l-99 694q-19 118 -31 244h-8
q-2 -14 -12.5 -106.5t-17.5 -137.5z" />
    <glyph glyph-name="Ycircumflex" unicode="&#x176;" 
d="M463 1659h-248l281 287h237l281 -287h-246l-156 149zM743 0h-258v543l-438 952h268l234 -518q43 -100 69 -213q25 108 70 213l227 518h267l-439 -952v-543z" />
    <glyph glyph-name="ycircumflex" unicode="&#x177;" 
d="M463 1321h-248l281 287h237l281 -287h-246l-156 149zM608 -369h-268l160 430l-434 1065h278l221 -575q31 -84 60 -223q42 171 61 223l211 575h266z" />
    <glyph glyph-name="Ydieresis" unicode="&#x178;" 
d="M375 1655q-69 0 -110.5 40t-41.5 107q0 69 41.5 109.5t110.5 40.5q68 0 108.5 -40.5t40.5 -109.5q0 -67 -40.5 -107t-108.5 -40zM854 1655q-68 0 -108.5 40t-40.5 107q0 69 40.5 109.5t108.5 40.5q69 0 110.5 -40.5t41.5 -109.5q0 -67 -41.5 -107t-110.5 -40zM743 0h-258
v543l-438 952h268l234 -518q43 -100 69 -213q25 108 70 213l227 518h267l-439 -952v-543z" />
    <glyph glyph-name="Zacute" unicode="&#x179;" 
d="M717 1659h-258l217 287h274zM1067 0h-905v238l600 1026h-586v231h868v-238l-602 -1026h625v-231z" />
    <glyph glyph-name="zacute" unicode="&#x17a;" 
d="M717 1321h-258l217 287h274zM1069 0h-909v231l588 670h-570v225h869v-231l-594 -670h616v-225z" />
    <glyph glyph-name="Zdotaccent" unicode="&#x17b;" 
d="M614 1655q-77 0 -122.5 40t-45.5 107t45.5 107.5t122.5 40.5t122.5 -40.5t45.5 -107.5t-45.5 -107t-122.5 -40zM1067 0h-905v238l600 1026h-586v231h868v-238l-602 -1026h625v-231z" />
    <glyph glyph-name="zdotaccent" unicode="&#x17c;" 
d="M614 1315q-77 0 -122.5 39t-45.5 108q0 67 45.5 107.5t122.5 40.5t122.5 -40.5t45.5 -107.5q0 -69 -45.5 -108t-122.5 -39zM1069 0h-909v231l588 670h-570v225h869v-231l-594 -670h616v-225z" />
    <glyph glyph-name="Zcaron" unicode="&#x17d;" 
d="M733 1659h-237l-281 287h246l155 -150l150 150h248zM1067 0h-905v238l600 1026h-586v231h868v-238l-602 -1026h625v-231z" />
    <glyph glyph-name="zcaron" unicode="&#x17e;" 
d="M733 1321h-237l-281 287h246l155 -150l150 150h248zM1069 0h-909v231l588 670h-570v225h869v-231l-594 -670h616v-225z" />
    <glyph glyph-name="longs" unicode="&#x17f;" 
d="M559 0h-258v1114q0 173 109.5 277t291.5 104h373v-223h-360q-70 0 -113 -43.5t-43 -114.5v-1114z" />
    <glyph glyph-name="uni018F" unicode="&#x18f;" 
d="M616 1516q216 0 340.5 -120t124.5 -323v-651q0 -201 -125.5 -321.5t-339.5 -120.5t-341.5 121t-127.5 321v416h676v237q0 105 -52.5 161t-154.5 56q-103 0 -155.5 -56t-52.5 -163h-256q0 203 125 323t339 120zM823 422v225h-417v-225q0 -121 51 -181.5t159 -60.5
t157.5 61t49.5 181z" />
    <glyph glyph-name="uni0190" unicode="&#x190;" 
d="M885 410h256q-4 -193 -145 -311.5t-367 -118.5q-232 0 -374 124.5t-142 329.5q0 145 70 239.5t194 119.5q-111 25 -174.5 108.5t-63.5 208.5q0 183 132.5 294.5t349.5 111.5q227 0 365 -119t138 -316h-256q0 95 -64.5 153t-170.5 58q-105 0 -169.5 -57t-64.5 -150
q0 -92 64 -148t170 -56h201v-211h-199q-118 0 -189 -64.5t-71 -169.5q0 -106 70.5 -169.5t187.5 -63.5q109 0 178.5 56.5t73.5 150.5z" />
    <glyph glyph-name="florin" unicode="&#x192;" 
d="M227 -369h-227v244h240q91 0 141.5 49t50.5 137v547h-321v226h321v333q0 151 92 239.5t250 88.5h346v-223h-323q-51 0 -80 -27t-29 -78v-333h438v-226h-438v-565q0 -184 -127.5 -298t-333.5 -114z" />
    <glyph glyph-name="uni019B" unicode="&#x19b;" 
d="M963 1321l-240 -121l434 -1200h-270l-221 659q-30 90 -50 215q-8 -100 -45 -215l-223 -659h-276l415 1083l-303 -151v194l256 129l-94 240h270l48 -129l299 150v-195z" />
    <glyph glyph-name="Ohorn" unicode="&#x1a0;" 
d="M944 1505v154h209v-158q0 -71 -31.5 -125t-89.5 -84q49 -91 49 -217v-653q0 -203 -126 -322.5t-341 -119.5t-341 119.5t-126 322.5v651q0 203 126 323t341 120q171 0 287 -78q43 15 43 67zM825 422v651q0 106 -53.5 161.5t-157.5 55.5t-157.5 -55.5t-53.5 -161.5v-651
q0 -106 54 -161.5t157 -55.5t157 55.5t54 161.5z" />
    <glyph glyph-name="ohorn" unicode="&#x1a1;" 
d="M946 1157v154h207v-158q0 -73 -33.5 -128.5t-93.5 -84.5q59 -100 59 -235v-281q0 -202 -127.5 -322t-343.5 -120t-343.5 120t-127.5 322v278q0 202 127.5 322.5t343.5 120.5q150 0 258 -60h2q34 0 53 19t19 53zM829 424v278q0 106 -56.5 163t-158.5 57t-158.5 -57
t-56.5 -163v-278q0 -106 56.5 -162.5t158.5 -56.5t158.5 56.5t56.5 162.5z" />
    <glyph glyph-name="Uhorn" unicode="&#x1af;" 
d="M1077 1567v153h209v-157q0 -96 -55.5 -159.5t-149.5 -78.5v-899q0 -208 -124 -327t-343 -119t-343 119t-124 327v1069h259v-1067q0 -107 53 -166t155 -59q101 0 155 59t54 166v1067h183q34 0 52.5 19t18.5 53z" />
    <glyph glyph-name="uhorn" unicode="&#x1b0;" 
d="M154 420v706h256v-708q0 -104 46.5 -159.5t133.5 -55.5t134.5 55.5t47.5 159.5v708h219q35 0 53.5 19t18.5 53v154h207v-158q0 -111 -63 -176.5t-179 -65.5v-532q0 -204 -117.5 -322t-320.5 -118q-202 0 -319 118t-117 322z" />
    <glyph glyph-name="uni01CD" unicode="&#x1cd;" 
d="M733 1659h-237l-281 287h246l155 -150l150 150h248zM334 0h-262l377 1495h329l379 -1495h-262l-82 362h-397zM553 975l-90 -404h303l-90 402q-52 241 -62 299q-21 -127 -61 -297z" />
    <glyph glyph-name="uni01CE" unicode="&#x1ce;" 
d="M1024 1608l-281 -287h-237l-281 287h246l156 -150l149 150h248zM625 1147q208 0 329 -102.5t121 -280.5v-764h-248v190h-4q-22 -98 -110.5 -154t-223.5 -56q-174 0 -274 91t-100 248q0 166 114 257.5t320 91.5h270v94q0 83 -53 127.5t-150 44.5q-88 0 -144 -37t-62 -98
h-244q9 158 134 253t325 95zM573 170q108 0 177 55t69 144v135h-264q-86 0 -135 -43.5t-49 -120.5q0 -80 53.5 -125t148.5 -45z" />
    <glyph glyph-name="uni01D0" unicode="&#x1d0;" horiz-adv-x="1024" 
d="M649 1321h-237l-281 287h246l155 -150l150 150h248zM952 0h-817v231h293v664h-244v231h500v-895h268v-231z" />
    <glyph glyph-name="uni01D2" unicode="&#x1d2;" 
d="M733 1321h-237l-281 287h246l155 -150l150 150h248zM614 -18q-216 0 -343.5 120t-127.5 322v278q0 202 127.5 322.5t343.5 120.5t343.5 -120t127.5 -320v-281q0 -202 -127.5 -322t-343.5 -120zM614 205q102 0 158.5 56.5t56.5 162.5v278q0 106 -56.5 163t-158.5 57
t-158.5 -57t-56.5 -163v-278q0 -106 56.5 -162.5t158.5 -56.5z" />
    <glyph glyph-name="uni01D4" unicode="&#x1d4;" 
d="M733 1321h-237l-281 287h246l155 -150l150 150h248zM614 -20q-215 0 -337.5 119.5t-122.5 326.5v700h256v-698q0 -109 53 -167t151 -58q97 0 151 58.5t54 166.5v698h256v-700q0 -207 -124 -326.5t-337 -119.5z" />
    <glyph glyph-name="uni01D6" unicode="&#x1d6;" 
d="M967 1837h-705v197h705v-197zM375 1315q-70 0 -111 39.5t-41 107.5q0 67 41.5 107.5t110.5 40.5q68 0 108.5 -40.5t40.5 -107.5q0 -68 -40.5 -107.5t-108.5 -39.5zM854 1315q-68 0 -108.5 39.5t-40.5 107.5q0 67 40.5 107.5t108.5 40.5q69 0 110.5 -40.5t41.5 -107.5
q0 -68 -41 -107.5t-111 -39.5zM614 -20q-215 0 -337.5 119.5t-122.5 326.5v700h256v-698q0 -109 53 -167t151 -58q97 0 151 58.5t54 166.5v698h256v-700q0 -207 -124 -326.5t-337 -119.5z" />
    <glyph glyph-name="uni01D8" unicode="&#x1d8;" 
d="M717 1804h-258l217 287h274zM375 1315q-70 0 -111 39.5t-41 107.5q0 67 41.5 107.5t110.5 40.5q68 0 108.5 -40.5t40.5 -107.5q0 -68 -40.5 -107.5t-108.5 -39.5zM854 1315q-68 0 -108.5 39.5t-40.5 107.5q0 67 40.5 107.5t108.5 40.5q69 0 110.5 -40.5t41.5 -107.5
q0 -68 -41 -107.5t-111 -39.5zM614 -20q-215 0 -337.5 119.5t-122.5 326.5v700h256v-698q0 -109 53 -167t151 -58q97 0 151 58.5t54 166.5v698h256v-700q0 -207 -124 -326.5t-337 -119.5z" />
    <glyph glyph-name="uni01DA" unicode="&#x1da;" 
d="M733 1804h-237l-281 287h246l155 -149l150 149h248zM375 1315q-70 0 -111 39.5t-41 107.5q0 67 41.5 107.5t110.5 40.5q68 0 108.5 -40.5t40.5 -107.5q0 -68 -40.5 -107.5t-108.5 -39.5zM854 1315q-68 0 -108.5 39.5t-40.5 107.5q0 67 40.5 107.5t108.5 40.5
q69 0 110.5 -40.5t41.5 -107.5q0 -68 -41 -107.5t-111 -39.5zM614 -20q-215 0 -337.5 119.5t-122.5 326.5v700h256v-698q0 -109 53 -167t151 -58q97 0 151 58.5t54 166.5v698h256v-700q0 -207 -124 -326.5t-337 -119.5z" />
    <glyph glyph-name="uni01DC" unicode="&#x1dc;" 
d="M774 1804h-264l-238 287h283zM375 1315q-70 0 -111 39.5t-41 107.5q0 67 41.5 107.5t110.5 40.5q68 0 108.5 -40.5t40.5 -107.5q0 -68 -40.5 -107.5t-108.5 -39.5zM854 1315q-68 0 -108.5 39.5t-40.5 107.5q0 67 40.5 107.5t108.5 40.5q69 0 110.5 -40.5t41.5 -107.5
q0 -68 -41 -107.5t-111 -39.5zM614 -20q-215 0 -337.5 119.5t-122.5 326.5v700h256v-698q0 -109 53 -167t151 -58q97 0 151 58.5t54 166.5v698h256v-700q0 -207 -124 -326.5t-337 -119.5z" />
    <glyph glyph-name="Gcaron" unicode="&#x1e6;" 
d="M733 1659h-237l-281 287h246l155 -150l150 150h248zM623 -20q-217 0 -346.5 120t-129.5 322v651q0 202 129.5 322.5t346.5 120.5q215 0 345 -121t130 -322h-258q0 105 -57 161t-160 56q-105 0 -162.5 -55.5t-57.5 -159.5v-653q0 -105 57.5 -162t162.5 -57q103 0 160 57
t57 162v151h-254v222h512v-373q0 -201 -130 -321.5t-345 -120.5z" />
    <glyph glyph-name="gcaron" unicode="&#x1e7;" 
d="M1008 1608l-281 -287h-238l-280 287h246l155 -150l150 150h248zM821 911l-6 215h256v-1126q0 -171 -113 -270t-309 -99h-338v213h334q85 0 128.5 41.5t43.5 120.5v84l4 211h-4q-15 -112 -93 -173.5t-202 -61.5q-172 0 -273.5 116.5t-101.5 315.5v219q0 197 101.5 313.5
t273.5 116.5q124 0 202 -62t93 -174h4zM608 287q97 0 152 58.5t55 162.5v197q0 104 -55 162.5t-152 58.5q-98 0 -151.5 -57.5t-53.5 -163.5v-197q0 -106 53.5 -163.5t151.5 -57.5z" />
    <glyph glyph-name="uni01EA" unicode="&#x1ea;" 
d="M614 1516q215 0 341 -119.5t126 -321.5v-653q0 -123 -52 -221t-144 -154l-82 -67q-96 -75 -96 -158q0 -38 28 -63t74 -25h133v-176h-197q-119 0 -189.5 59t-70.5 152q0 48 39.5 105.5t104.5 105.5h-15q-215 0 -341 119.5t-126 322.5v651q0 203 126 323t341 120zM825 422
v651q0 106 -53.5 161.5t-157.5 55.5t-157.5 -55.5t-53.5 -161.5v-651q0 -106 54 -161.5t157 -55.5t157 55.5t54 161.5z" />
    <glyph glyph-name="uni01EB" unicode="&#x1eb;" 
d="M614 1147q215 0 341 -119.5t126 -320.5v-285q0 -118 -49 -213.5t-135 -153.5l-88 -75q-102 -86 -102 -158q0 -38 28 -63t74 -25h133v-176h-197q-119 0 -189.5 59t-70.5 152q0 104 144 213q-4 -2 -15 -2q-215 0 -341 119.5t-126 322.5v283q0 203 126 322.5t341 119.5z
M825 422v283q0 106 -55 162.5t-156 56.5t-156 -56.5t-55 -162.5v-283q0 -106 55 -162.5t156 -56.5t156 56.5t55 162.5z" />
    <glyph glyph-name="uni01F4" unicode="&#x1f4;" 
d="M717 1659h-258l217 287h274zM623 -20q-217 0 -346.5 120t-129.5 322v651q0 202 129.5 322.5t346.5 120.5q215 0 345 -121t130 -322h-258q0 105 -57 161t-160 56q-105 0 -162.5 -55.5t-57.5 -159.5v-653q0 -105 57.5 -162t162.5 -57q103 0 160 57t57 162v151h-254v222h512
v-373q0 -201 -130 -321.5t-345 -120.5z" />
    <glyph glyph-name="uni01F5" unicode="&#x1f5;" 
d="M670 1608h274l-233 -287h-258zM821 911l-6 215h256v-1126q0 -171 -113 -270t-309 -99h-338v213h334q85 0 128.5 41.5t43.5 120.5v84l4 211h-4q-15 -112 -93 -173.5t-202 -61.5q-172 0 -273.5 116.5t-101.5 315.5v219q0 197 101.5 313.5t273.5 116.5q124 0 202 -62
t93 -174h4zM608 287q97 0 152 58.5t55 162.5v197q0 104 -55 162.5t-152 58.5q-98 0 -151.5 -57.5t-53.5 -163.5v-197q0 -106 53.5 -163.5t151.5 -57.5z" />
    <glyph glyph-name="AEacute" unicode="&#x1fc;" 
d="M717 1659h-258l217 287h274zM274 0h-249l288 1495h867v-219h-353v-397h301v-226h-301v-432h353v-221h-574v371h-266zM500 1276l-129 -717h235v717h-106z" />
    <glyph glyph-name="aeacute" unicode="&#x1fd;" 
d="M717 1321h-258l217 287h274zM350 -20q-126 0 -202 82t-76 217v110q0 128 89.5 205.5t237.5 77.5h115v157q0 136 -111 136q-52 0 -81 -34.5t-29 -94.5h-211q0 140 79.5 225.5t209.5 85.5q107 0 168.5 -49t70.5 -109h13q11 61 71 109.5t166 48.5q135 0 216 -86t81 -230
v-315h-438v-221q0 -61 30.5 -97t81.5 -36q54 0 84.5 31t30.5 86h211q0 -135 -81.5 -217t-215.5 -82q-107 0 -167.5 48.5t-69.5 108.5h-13q-11 -60 -77.5 -108.5t-182.5 -48.5zM719 831v-159h227v159q0 62 -30 98t-85 36q-52 0 -82 -36t-30 -98zM399 162q53 0 84 36t31 97
v221h-113q-54 0 -84 -33.5t-30 -93.5v-110q0 -55 29.5 -86t82.5 -31z" />
    <glyph glyph-name="Oslashacute" unicode="&#x1fe;" 
d="M676 1946h274l-233 -287h-258zM969 1536h213l-144 -254q43 -87 43 -207v-653q0 -203 -126 -322.5t-341 -119.5q-166 0 -278 71l-76 -133h-213l156 272q-56 100 -56 232v651q0 203 126 323t341 120q177 0 295 -82zM397 1073v-541l391 689q-57 69 -174 69q-105 0 -161 -56
t-56 -161zM831 422v500l-376 -662q55 -55 159 -55q105 0 161 56t56 161z" />
    <glyph glyph-name="oslashacute" unicode="&#x1ff;" 
d="M676 1608h274l-233 -287h-258zM954 1208h215l-165 -235q77 -109 77 -266v-285q0 -203 -126 -322.5t-341 -119.5q-155 0 -266 63l-74 -104h-215l160 225q-72 107 -72 258v283q0 203 126 322.5t341 119.5q145 0 256 -57zM387 705v-283v-19l348 494q-49 27 -121 27
q-107 0 -167 -58t-60 -161zM842 422v283q0 24 -2 36l-357 -508q53 -30 131 -30q107 0 167.5 58t60.5 161z" />
    <glyph glyph-name="uni0218" unicode="&#x218;" 
d="M618 -20q-229 0 -365 115t-136 308h256q0 -91 67.5 -145.5t180.5 -54.5q110 0 172.5 53.5t62.5 144.5q0 75 -43 130t-119 75l-180 49q-173 46 -270 162.5t-97 280.5q0 191 127 304.5t342 113.5q217 0 345.5 -111.5t128.5 -300.5h-256q0 87 -59 137.5t-161 50.5
q-100 0 -156.5 -50.5t-56.5 -139.5q0 -71 42.5 -122t121.5 -71l183 -51q175 -46 269.5 -162.5t94.5 -285.5q0 -194 -135 -312t-359 -118zM608 -492h-237l194 297h271z" />
    <glyph glyph-name="uni0219" unicode="&#x219;" 
d="M662 -18h-91q-195 0 -314.5 88.5t-119.5 238.5h258q0 -59 47 -91t131 -32h89q94 0 142 34t48 97q0 116 -174 144l-158 20q-354 53 -354 338q0 160 107 243t313 83h78q192 0 306.5 -84.5t114.5 -224.5h-258q0 51 -43 77.5t-122 26.5h-78q-83 0 -125.5 -31t-42.5 -90
q0 -106 149 -127l160 -24q190 -26 283.5 -110t93.5 -234q0 -164 -112.5 -253t-327.5 -89zM608 -492h-237l194 297h271z" />
    <glyph glyph-name="uni021A" unicode="&#x21a;" 
d="M743 0h-258v1264h-391v231h1041v-231h-392v-1264zM608 -492h-237l194 297h271z" />
    <glyph glyph-name="uni021B" unicode="&#x21b;" 
d="M879 0h-248q-158 0 -250 90.5t-92 247.5v557h-242v231h242v318h256v-318h354v-231h-354v-551q0 -51 27.5 -82t76.5 -31h230v-231zM696 -492h-237l194 297h271z" />
    <glyph glyph-name="uni0232" unicode="&#x232;" 
d="M967 1696h-705v196h705v-196zM743 0h-258v543l-438 952h268l234 -518q43 -100 69 -213q25 108 70 213l227 518h267l-439 -952v-543z" />
    <glyph glyph-name="uni0233" unicode="&#x233;" 
d="M967 1354h-705v196h705v-196zM608 -369h-268l160 430l-434 1065h278l221 -575q31 -84 60 -223q42 171 61 223l211 575h266z" />
    <glyph glyph-name="uni0237" unicode="&#x237;" horiz-adv-x="819" 
d="M209 -369h-170v232h156q98 0 155.5 58.5t57.5 158.5v815h-320v231h576v-1052q0 -204 -123 -323.5t-332 -119.5z" />
    <glyph glyph-name="uni0259" unicode="&#x259;" 
d="M612 1147q214 0 341.5 -121t127.5 -321v-283q0 -200 -127.5 -321t-341.5 -121q-213 0 -339 121t-126 321v203h687v80q0 239 -224 239q-172 0 -200 -117h-254q29 145 153 232.5t303 87.5zM834 422v43h-439v-43q0 -242 217 -242q222 0 222 242z" />
    <glyph glyph-name="uni02B9" unicode="&#x2b9;" horiz-adv-x="819" 
d="M403 838h-225l164 637h328z" />
    <glyph glyph-name="uni02BA" unicode="&#x2ba;" 
d="M317 838h-223l164 637h326zM881 838h-224l164 637h326z" />
    <glyph glyph-name="uni02BC" unicode="&#x2bc;" horiz-adv-x="409" 
d="M219 952h-223l164 637h325z" />
    <glyph glyph-name="circumflex" unicode="&#x2c6;" 
d="M463 1321h-248l281 287h237l281 -287h-246l-156 149z" />
    <glyph glyph-name="caron" unicode="&#x2c7;" 
d="M733 1321h-237l-281 287h246l155 -150l150 150h248z" />
    <glyph glyph-name="uni02C9" unicode="&#x2c9;" 
d="M967 1354h-705v196h705v-196z" />
    <glyph glyph-name="breve" unicode="&#x2d8;" 
d="M614 1305q-160 0 -259 83.5t-99 219.5h199q0 -67 44 -108.5t115 -41.5q72 0 116 41t44 109h199q0 -136 -99 -219.5t-260 -83.5z" />
    <glyph glyph-name="dotaccent" unicode="&#x2d9;" 
d="M614 1315q-77 0 -122.5 39t-45.5 108q0 67 45.5 107.5t122.5 40.5t122.5 -40.5t45.5 -107.5q0 -69 -45.5 -108t-122.5 -39z" />
    <glyph glyph-name="ring" unicode="&#x2da;" 
d="M614 1235q-121 0 -195.5 68.5t-74.5 179.5q0 113 74 181.5t196 68.5t196.5 -69t74.5 -181q0 -110 -75 -179t-196 -69zM614 1364q56 0 89.5 32.5t33.5 86.5q0 55 -33.5 88t-89.5 33t-89 -33t-33 -88q0 -54 33.5 -86.5t88.5 -32.5z" />
    <glyph glyph-name="ogonek" unicode="&#x2db;" 
d="M811 -442h-195q-120 0 -191 58.5t-71 152.5q0 67 53.5 133t153.5 121h166l-47 -43q-105 -92 -105 -158q0 -38 28.5 -63t74.5 -25h133v-176z" />
    <glyph glyph-name="tilde" unicode="&#x2dc;" 
d="M758 1313q-47 0 -85 13.5t-62 32.5t-44 38.5t-41.5 33t-44.5 13.5q-28 0 -44.5 -18t-16.5 -50v-53h-158v68q0 100 58 162.5t151 62.5q47 0 85 -13.5t62 -33t44 -38.5t41.5 -32.5t44.5 -13.5q28 0 44.5 16.5t16.5 46.5v58h158v-68q0 -100 -58 -162.5t-151 -62.5z" />
    <glyph glyph-name="hungarumlaut" unicode="&#x2dd;" 
d="M483 1321h-233l221 287h248zM897 1321h-233l219 287h250z" />
    <glyph glyph-name="uni02F3" unicode="&#x2f3;" 
d="M-614 -524q-117 0 -187.5 58t-70.5 153t70.5 153t187.5 58t187.5 -58t70.5 -153t-70.5 -153t-187.5 -58zM-616 -416q57 0 90.5 28.5t33.5 74.5q0 49 -33.5 76.5t-90.5 27.5q-55 0 -88 -28.5t-33 -75.5q0 -46 33 -74.5t88 -28.5z" />
    <glyph glyph-name="uni02F7" unicode="&#x2f7;" 
d="M758 -467q-47 0 -85 13.5t-62 33.5t-44 39.5t-41.5 33t-44.5 13.5q-28 0 -44.5 -18.5t-16.5 -50.5v-54h-158v68q0 101 57.5 163t151.5 62q47 0 85 -13.5t62 -33t44 -38.5t41.5 -32.5t44.5 -13.5q28 0 44.5 17t16.5 47v57h158v-68q0 -100 -58 -162.5t-151 -62.5z" />
    <glyph glyph-name="gravecomb" unicode="&#x300;" horiz-adv-x="0" 
d="M-1663 1321h-264l-238 287h283z" />
    <glyph glyph-name="acutecomb" unicode="&#x301;" horiz-adv-x="0" 
d="M-1761 1321h-258l217 287h274z" />
    <glyph glyph-name="uni0302" unicode="&#x302;" horiz-adv-x="0" 
d="M-1995 1321h-248l281 287h238l280 -287h-246l-155 149z" />
    <glyph glyph-name="tildecomb" unicode="&#x303;" horiz-adv-x="0" 
d="M-1700 1313q-47 0 -85 13.5t-61.5 32.5t-43.5 38.5t-41.5 33t-44.5 13.5q-28 0 -45 -18t-17 -50v-53h-157v68q0 100 57.5 162.5t150.5 62.5q47 0 85 -13.5t62 -33t44 -38.5t41.5 -32.5t44.5 -13.5q28 0 44.5 16.5t16.5 46.5v58h158v-68q0 -100 -58 -162.5t-151 -62.5z
" />
    <glyph glyph-name="uni0304" unicode="&#x304;" horiz-adv-x="0" 
d="M-1491 1354h-704v196h704v-196z" />
    <glyph glyph-name="uni0306" unicode="&#x306;" horiz-adv-x="0" 
d="M-1843 1305q-160 0 -259.5 83.5t-99.5 219.5h199q0 -67 44.5 -108.5t115.5 -41.5q72 0 116 41t44 109h198q0 -136 -98.5 -219.5t-259.5 -83.5z" />
    <glyph glyph-name="uni0307" unicode="&#x307;" horiz-adv-x="0" 
d="M-1843 1315q-77 0 -122.5 39t-45.5 108q0 67 45.5 107.5t122.5 40.5t122.5 -40.5t45.5 -107.5q0 -69 -45.5 -108t-122.5 -39z" />
    <glyph glyph-name="uni0308" unicode="&#x308;" horiz-adv-x="0" 
d="M-2083 1315q-69 0 -110 39t-41 108q0 68 41 108t110 40q68 0 109 -40.5t41 -107.5q0 -68 -41 -107.5t-109 -39.5zM-1604 1315q-68 0 -108.5 39.5t-40.5 107.5q0 67 40.5 107.5t108.5 40.5q69 0 110.5 -40.5t41.5 -107.5q0 -68 -41 -107.5t-111 -39.5z" />
    <glyph glyph-name="hookabovecomb" unicode="&#x309;" horiz-adv-x="0" 
d="M-1743 1321h-205l103 123q28 38 28 61q0 21 -14 30t-45 9h-164v156h215q90 0 144.5 -45t54.5 -121q0 -69 -41 -119z" />
    <glyph glyph-name="uni030A" unicode="&#x30a;" horiz-adv-x="0" 
d="M-1843 1235q-121 0 -196 69t-75 179q0 112 74.5 181t196.5 69q121 0 195.5 -68.5t74.5 -181.5q0 -111 -74.5 -179.5t-195.5 -68.5zM-1843 1364q56 0 89.5 32.5t33.5 86.5q0 55 -33.5 88t-89.5 33t-89.5 -33t-33.5 -88q0 -54 33.5 -86.5t89.5 -32.5z" />
    <glyph glyph-name="uni030B" unicode="&#x30b;" horiz-adv-x="0" 
d="M-1974 1321h-234l221 287h248zM-1561 1321h-233l219 287h250z" />
    <glyph glyph-name="uni030C" unicode="&#x30c;" horiz-adv-x="0" 
d="M-1724 1321h-238l-281 287h246l156 -150l149 150h248z" />
    <glyph glyph-name="uni030F" unicode="&#x30f;" horiz-adv-x="0" 
d="M-2111 1608l219 -287h-234l-235 287h250zM-1700 1608l221 -287h-233l-236 287h248z" />
    <glyph glyph-name="uni0312" unicode="&#x312;" horiz-adv-x="0" 
d="M-1786 1802h209l-164 -481h-311z" />
    <glyph glyph-name="uni031B" unicode="&#x31b;" horiz-adv-x="0" 
d="M-1628 952h-98v174h84q34 0 52.5 19t18.5 53v154h207v-158q0 -109 -72.5 -175.5t-191.5 -66.5z" />
    <glyph glyph-name="dotbelowcomb" unicode="&#x323;" horiz-adv-x="0" 
d="M-1843 -461q-77 0 -122.5 40.5t-45.5 107.5q0 69 45.5 109t122.5 40t122.5 -40t45.5 -109q0 -67 -45.5 -107.5t-122.5 -40.5z" />
    <glyph glyph-name="uni0325" unicode="&#x325;" horiz-adv-x="0" 
d="M-1843 -524q-117 0 -187.5 58t-70.5 153t70.5 153t187.5 58t187.5 -58t70.5 -153t-70.5 -153t-187.5 -58zM-1845 -416q57 0 91 28.5t34 74.5q0 49 -33.5 76.5t-91.5 27.5q-55 0 -88 -28.5t-33 -75.5q0 -46 33 -74.5t88 -28.5z" />
    <glyph glyph-name="uni0326" unicode="&#x326;" horiz-adv-x="0" 
d="M-1849 -492h-238l195 297h270z" />
    <glyph glyph-name="uni0327" unicode="&#x327;" horiz-adv-x="0" 
d="M-1851 -442h-205v131h155q45 0 77 22.5t32 50.5q0 44 -61 70.5t-168 26.5l71 182h138l-41 -117q47 -4 92.5 -17t87 -35t67 -57t25.5 -77q0 -74 -76 -127t-194 -53z" />
    <glyph glyph-name="uni0328" unicode="&#x328;" horiz-adv-x="0" 
d="M-1647 -442h-194q-120 0 -191 58.5t-71 152.5q0 67 53.5 133t153.5 121h165l-47 -43q-104 -91 -104 -158q0 -38 28 -63t74 -25h133v-176z" />
    <glyph glyph-name="uni0336" unicode="&#x336;" horiz-adv-x="0" 
d="M-1167 557h-1352v193h1352v-193z" />
    <glyph glyph-name="uni0337" unicode="&#x337;" horiz-adv-x="0" 
d="M-2183 -61h-215l895 1269h215z" />
    <glyph glyph-name="uni0338" unicode="&#x338;" horiz-adv-x="0" 
d="M-2077 -225h-161l628 1577h162z" />
    <glyph glyph-name="uni0374" unicode="&#x374;" 
d="M532 838h-225l164 637h328z" />
    <glyph glyph-name="uni0375" unicode="&#x375;" 
d="M362 -328h-225l164 637h328z" />
    <glyph glyph-name="uni037E" unicode="&#x37e;" 
d="M428 803h-41q-73 0 -121.5 49t-48.5 123t48.5 123t121.5 49h41q75 0 123.5 -49t48.5 -123t-48.5 -123t-123.5 -49zM336 -328h-223l163 637h326z" />
    <glyph glyph-name="tonos" unicode="&#x384;" 
d="M655 1321h-258l217 287h275z" />
    <glyph glyph-name="dieresistonos" unicode="&#x385;" 
d="M705 1608h-205l157 266h224zM375 1315q-70 0 -111 39.5t-41 107.5q0 67 41.5 107.5t110.5 40.5q68 0 108.5 -40.5t40.5 -107.5q0 -68 -40.5 -107.5t-108.5 -39.5zM854 1315q-68 0 -108.5 39.5t-40.5 107.5q0 67 40.5 107.5t108.5 40.5q69 0 110.5 -40.5t41.5 -107.5
q0 -68 -41 -107.5t-111 -39.5z" />
    <glyph glyph-name="Alphatonos" unicode="&#x386;" 
d="M188 1167h-221l117 328h238zM334 0h-262l377 1495h329l379 -1495h-262l-82 362h-397zM553 975l-90 -404h303l-90 402q-52 241 -62 299q-21 -127 -61 -297z" />
    <glyph glyph-name="anoteleia" unicode="&#x387;" 
d="M410 543q-88 0 -140.5 51.5t-52.5 138.5q0 89 52.5 141t140.5 52t140 -52t52 -141q0 -88 -52 -139t-140 -51z" />
    <glyph glyph-name="Epsilontonos" unicode="&#x388;" 
d="M-49 1167h-223l118 328h238zM1077 0h-897v1495h897v-225h-645v-389h574v-217h-574v-439h645v-225z" />
    <glyph glyph-name="Etatonos" unicode="&#x389;" 
d="M-49 1167h-223l118 328h238zM414 0h-256v1495h256v-600h401v600h256v-1495h-256v664h-401v-664z" />
    <glyph glyph-name="Iotatonos" unicode="&#x38a;" 
d="M-49 1167h-223l118 328h238zM1044 0h-860v231h301v1033h-301v231h860v-231h-301v-1033h301v-231z" />
    <glyph glyph-name="Omicrontonos" unicode="&#x38c;" 
d="M614 -20q-215 0 -341 119.5t-126 322.5v651q0 203 126 323t341 120t341 -119.5t126 -321.5v-653q0 -203 -126 -322.5t-341 -119.5zM16 1167h-221l117 328h238zM614 205q103 0 157 55.5t54 161.5v651q0 106 -53.5 161.5t-157.5 55.5t-157.5 -55.5t-53.5 -161.5v-651
q0 -106 54 -161.5t157 -55.5z" />
    <glyph glyph-name="Upsilontonos" unicode="&#x38e;" 
d="M-106 1167h-222l117 328h238zM743 0h-258v543l-438 952h268l234 -518q43 -100 69 -213q25 108 70 213l227 518h267l-439 -952v-543z" />
    <glyph glyph-name="Omegatonos" unicode="&#x38f;" 
d="M532 0h-430v236h297v10q-47 5 -93 26.5t-87.5 59.5t-67.5 101t-26 140v492q0 204 133.5 327.5t355.5 123.5t356 -123.5t134 -327.5v-492q0 -77 -26 -139.5t-68 -100.5t-88 -59t-93 -26v-12h299v-236h-432v369q68 0 110 54t42 140v502q0 103 -64 165t-170 62t-169.5 -62
t-63.5 -165v-502q0 -86 42 -140t109 -54v-369zM16 1167h-221l117 328h238z" />
    <glyph glyph-name="iotadieresistonos" unicode="&#x390;" 
d="M705 1608h-205l157 266h224zM375 1315q-70 0 -111 39.5t-41 107.5q0 67 41.5 107.5t110.5 40.5q68 0 108.5 -40.5t40.5 -107.5q0 -68 -40.5 -107.5t-108.5 -39.5zM854 1315q-68 0 -108.5 39.5t-40.5 107.5q0 67 40.5 107.5t108.5 40.5q69 0 110.5 -40.5t41.5 -107.5
q0 -68 -41 -107.5t-111 -39.5zM1139 0h-285q-166 0 -267.5 100.5t-101.5 264.5v530h-391v231h647v-761q0 -60 35.5 -97t95.5 -37h267v-231z" />
    <glyph glyph-name="Alpha" unicode="&#x391;" 
d="M334 0h-262l377 1495h329l379 -1495h-262l-82 362h-397zM553 975l-90 -404h303l-90 402q-52 241 -62 299q-21 -127 -61 -297z" />
    <glyph glyph-name="Beta" unicode="&#x392;" 
d="M848 791q127 -26 200.5 -123.5t73.5 -241.5q0 -194 -131.5 -310t-351.5 -116h-481v1495h458q216 0 343.5 -104t127.5 -281q0 -124 -63 -208.5t-176 -110.5zM612 1282h-204v-403h204q101 0 160 54t59 148t-59 147.5t-160 53.5zM408 213h215q112 0 176.5 60.5t64.5 164.5
q0 105 -65 169.5t-176 64.5h-215v-459z" />
    <glyph glyph-name="Gamma" unicode="&#x393;" 
d="M504 0h-256v1495h895v-231h-639v-1264z" />
    <glyph glyph-name="uni0394" unicode="&#x394;" 
d="M449 1495h329l379 -1495h-1085zM553 975l-170 -752h461l-172 750q-20 84 -60 295q-42 -223 -59 -293z" />
    <glyph glyph-name="Epsilon" unicode="&#x395;" 
d="M1077 0h-897v1495h897v-225h-645v-389h574v-217h-574v-439h645v-225z" />
    <glyph glyph-name="Zeta" unicode="&#x396;" 
d="M1067 0h-905v238l600 1026h-586v231h868v-238l-602 -1026h625v-231z" />
    <glyph glyph-name="Eta" unicode="&#x397;" 
d="M414 0h-256v1495h256v-600h401v600h256v-1495h-256v664h-401v-664z" />
    <glyph glyph-name="Theta" unicode="&#x398;" 
d="M614 -20q-215 0 -341 119.5t-126 322.5v651q0 203 126 323t341 120t341 -119.5t126 -321.5v-653q0 -203 -126 -322.5t-341 -119.5zM614 205q103 0 157 55.5t54 161.5v651q0 106 -53.5 161.5t-157.5 55.5t-157.5 -55.5t-53.5 -161.5v-651q0 -106 54 -161.5t157 -55.5z
M762 641h-297v238h297v-238z" />
    <glyph glyph-name="Iota" unicode="&#x399;" 
d="M1044 0h-860v231h301v1033h-301v231h860v-231h-301v-1033h301v-231z" />
    <glyph glyph-name="Kappa" unicode="&#x39a;" 
d="M412 0h-256v1495h256v-610h176l284 610h277l-336 -713l352 -782h-284l-295 662h-174v-662z" />
    <glyph glyph-name="Lambda" unicode="&#x39b;" 
d="M332 0h-260l377 1495h329l379 -1495h-262l-223 973l-60 295q-26 -148 -59 -293z" />
    <glyph glyph-name="Mu" unicode="&#x39c;" 
d="M354 0h-239v1495h303l143 -475q38 -122 53 -217q14 88 54 217l141 475h305v-1495h-240v629q0 295 54 721l-203 -707h-223l-205 692q57 -401 57 -706v-629z" />
    <glyph glyph-name="Nu" unicode="&#x39d;" 
d="M381 0h-234v1495h314l416 -1208q-29 312 -29 499v709h233v-1495h-313l-412 1208q25 -297 25 -477v-731z" />
    <glyph glyph-name="Xi" unicode="&#x39e;" 
d="M1083 1257h-938v238h938v-238zM1022 639h-815v238h815v-238zM1083 0h-938v238h938v-238z" />
    <glyph glyph-name="Omicron" unicode="&#x39f;" 
d="M614 -20q-215 0 -341 119.5t-126 322.5v651q0 203 126 323t341 120t341 -119.5t126 -321.5v-653q0 -203 -126 -322.5t-341 -119.5zM614 205q103 0 157 55.5t54 161.5v651q0 106 -53.5 161.5t-157.5 55.5t-157.5 -55.5t-53.5 -161.5v-651q0 -106 54 -161.5t157 -55.5z" />
    <glyph glyph-name="Pi" unicode="&#x3a0;" 
d="M416 0h-256v1495h909v-1495h-256v1264h-397v-1264z" />
    <glyph glyph-name="Rho" unicode="&#x3a1;" 
d="M414 0h-256v1495h497q226 0 361 -126t135 -335t-136 -335t-360 -126h-241v-573zM414 1270v-471h241q107 0 171.5 65t64.5 170q0 106 -64.5 171t-171.5 65h-241z" />
    <glyph glyph-name="Sigma" unicode="&#x3a3;" 
d="M1126 0h-985v223l420 539l-420 510v223h985v-229h-675l417 -498l-417 -539h675v-229z" />
    <glyph glyph-name="Tau" unicode="&#x3a4;" 
d="M743 0h-258v1264h-391v231h1041v-231h-392v-1264z" />
    <glyph glyph-name="Upsilon" unicode="&#x3a5;" 
d="M743 0h-258v543l-438 952h268l234 -518q43 -100 69 -213q25 108 70 213l227 518h267l-439 -952v-543z" />
    <glyph glyph-name="Phi" unicode="&#x3a6;" 
d="M723 -51h-217v143q-190 0 -307 120.5t-117 317.5v459q0 201 116.5 323t307.5 122v143h217v-143q191 0 307.5 -122t116.5 -323v-459q0 -197 -117 -317.5t-307 -120.5v-143zM514 295v936q-95 0 -152 -66t-57 -176v-459q0 -107 57 -171t152 -64zM715 1231v-936q95 0 152 64
t57 171v459q0 110 -57 176t-152 66z" />
    <glyph glyph-name="Chi" unicode="&#x3a7;" 
d="M336 0h-279l414 766l-389 729h287l188 -375q42 -85 61 -137q22 60 60 137l190 375h279l-389 -723l413 -772h-286l-211 414q-30 59 -64 141q-23 -66 -61 -141z" />
    <glyph glyph-name="Psi" unicode="&#x3a8;" 
d="M723 0h-217v348q-192 3 -308 123t-116 315v709h223v-709q0 -107 57 -171t152 -64v944h201v-944q95 0 152 64t57 171v709h223v-709q0 -195 -116 -315t-308 -123v-348z" />
    <glyph glyph-name="uni03A9" unicode="&#x3a9;" 
d="M532 0h-430v236h297v10q-47 5 -93 26.5t-87.5 59.5t-67.5 101t-26 140v492q0 204 133.5 327.5t355.5 123.5t356 -123.5t134 -327.5v-492q0 -77 -26 -139.5t-68 -100.5t-88 -59t-93 -26v-12h299v-236h-432v369q68 0 110 54t42 140v502q0 103 -64 165t-170 62t-169.5 -62
t-63.5 -165v-502q0 -86 42 -140t109 -54v-369z" />
    <glyph glyph-name="Iotadieresis" unicode="&#x3aa;" 
d="M375 1655q-69 0 -110.5 40t-41.5 107q0 69 41.5 109.5t110.5 40.5q68 0 108.5 -40.5t40.5 -109.5q0 -67 -40.5 -107t-108.5 -40zM854 1655q-68 0 -108.5 40t-40.5 107q0 69 40.5 109.5t108.5 40.5q69 0 110.5 -40.5t41.5 -109.5q0 -67 -41.5 -107t-110.5 -40zM1044 0
h-860v231h301v1033h-301v231h860v-231h-301v-1033h301v-231z" />
    <glyph glyph-name="Upsilondieresis" unicode="&#x3ab;" 
d="M375 1655q-69 0 -110.5 40t-41.5 107q0 69 41.5 109.5t110.5 40.5q68 0 108.5 -40.5t40.5 -109.5q0 -67 -40.5 -107t-108.5 -40zM854 1655q-68 0 -108.5 40t-40.5 107q0 69 40.5 109.5t108.5 40.5q69 0 110.5 -40.5t41.5 -109.5q0 -67 -41.5 -107t-110.5 -40zM743 0h-258
v543l-438 952h268l234 -518q43 -100 69 -213q25 108 70 213l227 518h267l-439 -952v-543z" />
    <glyph glyph-name="alphatonos" unicode="&#x3ac;" 
d="M659 1608h277l-236 -287h-256zM819 911v215h250v-1126h-250v215h-6q-17 -111 -94 -173t-201 -62q-170 0 -270.5 117t-100.5 315v305q0 196 101 313t270 117q124 0 201 -62.5t94 -173.5h6zM608 201q97 0 151 58.5t54 162.5v283q0 104 -54 162.5t-151 58.5
q-98 0 -150 -57.5t-52 -163.5v-283q0 -106 52 -163.5t150 -57.5z" />
    <glyph glyph-name="epsilontonos" unicode="&#x3ad;" 
d="M641 1608h277l-236 -287h-256zM864 303h256q-25 -148 -145 -232.5t-305 -84.5h-109q-200 0 -317 89.5t-117 241.5q0 113 69.5 186.5t190.5 90.5q-110 15 -173.5 80t-63.5 164q0 138 113 220.5t306 82.5h97q180 0 295.5 -86t140.5 -236h-256q-12 53 -59.5 83t-120.5 30
h-97q-75 0 -117 -32.5t-42 -92.5q0 -59 42 -93t115 -34h244v-203h-250q-80 0 -126 -37.5t-46 -103.5t46 -103.5t126 -37.5h109q77 0 129 28.5t65 79.5z" />
    <glyph glyph-name="etatonos" unicode="&#x3ae;" 
d="M686 1608h275l-234 -287h-258zM711 1147q166 0 265 -111t99 -297v-1108h-256v1082q0 101 -53.5 157t-149.5 56t-149 -58t-53 -163v-705h-256v1126h250v-215h4q17 111 95.5 173.5t203.5 62.5z" />
    <glyph glyph-name="iotatonos" unicode="&#x3af;" 
d="M717 1321h-258l217 287h274zM1139 0h-285q-166 0 -267.5 100.5t-101.5 264.5v530h-391v231h647v-761q0 -60 35.5 -97t95.5 -37h267v-231z" />
    <glyph glyph-name="upsilondieresistonos" unicode="&#x3b0;" 
d="M705 1608h-205l157 266h224zM375 1315q-70 0 -111 39.5t-41 107.5q0 67 41.5 107.5t110.5 40.5q68 0 108.5 -40.5t40.5 -107.5q0 -68 -40.5 -107.5t-108.5 -39.5zM854 1315q-68 0 -108.5 39.5t-40.5 107.5q0 67 40.5 107.5t108.5 40.5q69 0 110.5 -40.5t41.5 -107.5
q0 -68 -41 -107.5t-111 -39.5zM614 -20q-215 0 -337.5 119.5t-122.5 326.5v700h256v-698q0 -109 53 -167t151 -58q97 0 151 58.5t54 166.5v698h256v-700q0 -207 -124 -326.5t-337 -119.5z" />
    <glyph glyph-name="alpha" unicode="&#x3b1;" 
d="M819 911v215h250v-1126h-250v215h-6q-17 -111 -94 -173t-201 -62q-170 0 -270.5 117t-100.5 315v305q0 196 101 313t270 117q124 0 201 -62.5t94 -173.5h6zM608 201q97 0 151 58.5t54 162.5v283q0 104 -54 162.5t-151 58.5q-98 0 -150 -57.5t-52 -163.5v-283
q0 -106 52 -163.5t150 -57.5z" />
    <glyph glyph-name="beta" unicode="&#x3b2;" 
d="M389 -369h-239v1440q0 200 127.5 322.5t336.5 122.5q216 0 348 -107.5t132 -282.5q0 -129 -66 -214.5t-188 -114.5q132 -34 207 -131t75 -238q0 -191 -132.5 -309.5t-348.5 -118.5h-252v-369zM389 1071v-852h238q108 0 170.5 61t62.5 164t-62 162.5t-171 59.5h-95v198h91
q98 0 154.5 58t56.5 155q0 100 -60.5 159.5t-163.5 59.5q-102 0 -161.5 -60.5t-59.5 -164.5z" />
    <glyph glyph-name="gamma" unicode="&#x3b3;" 
d="M743 -369h-256v369l-403 1126h266l221 -680q13 -38 22.5 -78t18 -91.5t9.5 -55.5q22 142 47 223l217 682h260l-402 -1126v-369z" />
    <glyph glyph-name="delta" unicode="&#x3b4;" 
d="M614 -20q-216 3 -341.5 122t-125.5 324v190q0 178 82.5 280.5t219.5 102.5q97 0 194 -79l8 10l-446 370v195h796v-207h-473l365 -291q96 -73 142 -162t46 -208v-201q0 -207 -126 -328t-341 -118zM614 203q100 0 154.5 58.5t54.5 164.5v201q0 107 -54.5 166t-154.5 59
t-154 -59t-54 -166v-201q0 -106 54.5 -164.5t153.5 -58.5z" />
    <glyph glyph-name="epsilon" unicode="&#x3b5;" 
d="M864 303h256q-25 -148 -145 -232.5t-305 -84.5h-109q-200 0 -317 89.5t-117 241.5q0 113 69.5 186.5t190.5 90.5q-110 15 -173.5 80t-63.5 164q0 138 113 220.5t306 82.5h97q180 0 295.5 -86t140.5 -236h-256q-12 53 -59.5 83t-120.5 30h-97q-75 0 -117 -32.5t-42 -92.5
q0 -59 42 -93t115 -34h244v-203h-250q-80 0 -126 -37.5t-46 -103.5t46 -103.5t126 -37.5h109q77 0 129 28.5t65 79.5z" />
    <glyph glyph-name="zeta" unicode="&#x3b6;" 
d="M1124 -369h-256v263q0 106 -106 106h-195q-222 0 -341.5 100.5t-119.5 282.5q0 155 101.5 307.5t327.5 360.5l221 206h-586v238h874v-240l-354 -346q-176 -171 -252 -290.5t-76 -217.5q0 -85 54 -131.5t153 -46.5h240q315 0 315 -305v-287z" />
    <glyph glyph-name="eta" unicode="&#x3b7;" 
d="M711 1147q166 0 265 -111t99 -297v-1108h-256v1082q0 101 -53.5 157t-149.5 56t-149 -58t-53 -163v-705h-256v1126h250v-215h4q17 111 95.5 173.5t203.5 62.5z" />
    <glyph glyph-name="theta" unicode="&#x3b8;" 
d="M614 -20q-215 0 -341 119.5t-126 322.5v631q0 203 126 322.5t341 119.5t341 -119.5t126 -320.5v-633q0 -203 -126 -322.5t-341 -119.5zM403 1053v-197h422v197q0 106 -55 162.5t-156 56.5t-156 -56.5t-55 -162.5zM614 203q101 0 156 56.5t55 162.5v219h-422v-219
q0 -106 55 -162.5t156 -56.5z" />
    <glyph glyph-name="iota" unicode="&#x3b9;" 
d="M1139 0h-285q-166 0 -267.5 100.5t-101.5 264.5v530h-391v231h647v-761q0 -60 35.5 -97t95.5 -37h267v-231z" />
    <glyph glyph-name="kappa" unicode="&#x3ba;" 
d="M420 0h-256v1126h256v-442h178l274 442h287l-340 -544l346 -582h-293l-274 467h-178v-467z" />
    <glyph glyph-name="lambda" unicode="&#x3bb;" 
d="M348 0h-276l426 1112l-152 383h270l541 -1495h-270l-221 659q-30 90 -50 215q-8 -100 -45 -215z" />
    <glyph glyph-name="uni03BC" unicode="&#x3bc;" 
d="M821 422v704h256v-1126h-254l6 215h-4q-11 -113 -63.5 -174t-145.5 -61q-184 0 -206 235h-2l6 -268v-316h-256v1495h256v-704q0 -105 53 -163t149 -58q97 0 151 58.5t54 162.5z" />
    <glyph glyph-name="nu" unicode="&#x3bd;" 
d="M778 0h-325l-408 1126h266l248 -684q14 -37 25 -79t21.5 -93.5t12.5 -58.5q44 189 58 229l244 686h264z" />
    <glyph glyph-name="xi" unicode="&#x3be;" 
d="M662 231h180q146 0 230.5 -84t84.5 -229v-285h-256v261q0 50 -28.5 78t-77.5 28h-140q-232 0 -368.5 119t-136.5 321q0 146 75 243t209 128q-121 28 -187.5 110.5t-66.5 206.5q0 169 123.5 268t335.5 99h405v-231h-413q-94 0 -148.5 -49t-54.5 -132t54.5 -132.5
t148.5 -49.5h346v-223h-322q-113 0 -179 -59.5t-66 -163.5q0 -103 68 -163.5t184 -60.5z" />
    <glyph glyph-name="omicron" unicode="&#x3bf;" 
d="M614 -18q-216 0 -343.5 120t-127.5 322v278q0 202 127.5 322.5t343.5 120.5t343.5 -120t127.5 -320v-281q0 -202 -127.5 -322t-343.5 -120zM614 205q102 0 158.5 56.5t56.5 162.5v278q0 106 -56.5 163t-158.5 57t-158.5 -57t-56.5 -163v-278q0 -106 56.5 -162.5
t158.5 -56.5z" />
    <glyph glyph-name="pi" unicode="&#x3c0;" 
d="M1161 -10h-61q-173 0 -275 104t-102 279v532h-283v-905h-247v905h-160v221h1126v-221h-188v-532q0 -70 37.5 -110t103.5 -40h49v-233z" />
    <glyph glyph-name="rho" unicode="&#x3c1;" 
d="M621 1147q211 0 335.5 -116.5t124.5 -313.5v-305q0 -198 -100 -315t-270 -117q-124 0 -202 62t-95 173h-6l8 -268v-316h-256v1086q0 197 125 313.5t336 116.5zM823 422v283q0 106 -52 163.5t-150 57.5q-99 0 -152 -57.5t-53 -163.5v-283q0 -104 54 -162.5t151 -58.5
q98 0 150 57.5t52 163.5z" />
    <glyph glyph-name="uni03C2" unicode="&#x3c2;" 
d="M1155 -369h-256v263q0 51 -27.5 78.5t-78.5 27.5h-172q-218 0 -348 116.5t-130 317.5v271q0 202 130.5 322t347.5 120q212 0 339.5 -109.5t133.5 -298.5h-256q-6 88 -63 136.5t-154 48.5q-104 0 -163 -57t-59 -160v-273q0 -104 58.5 -157.5t163.5 -53.5h219
q151 0 233 -79.5t82 -225.5v-287z" />
    <glyph glyph-name="sigma" unicode="&#x3c3;" 
d="M1149 1126v-219h-301v-6q109 -19 170 -95.5t61 -193.5v-190q0 -200 -127 -321t-340 -121t-341 121t-128 321v262q0 200 128 321t341 121h537zM823 422v262q0 219 -211 219q-101 0 -157 -58t-56 -161v-262q0 -103 56 -161t157 -58q100 0 155.5 58t55.5 161z" />
    <glyph glyph-name="tau" unicode="&#x3c4;" 
d="M1069 0h-281q-161 0 -252.5 90t-91.5 248v557h-346v231h996v-231h-392v-557q0 -107 105 -107h262v-231z" />
    <glyph glyph-name="upsilon" unicode="&#x3c5;" 
d="M614 -20q-215 0 -337.5 119.5t-122.5 326.5v700h256v-698q0 -109 53 -167t151 -58q97 0 151 58.5t54 166.5v698h256v-700q0 -207 -124 -326.5t-337 -119.5z" />
    <glyph glyph-name="phi" unicode="&#x3c6;" 
d="M723 -369h-217v369q-190 0 -301 113t-111 307v706h219v-706q0 -103 55.5 -162t153.5 -59v927h242q170 0 270.5 -97t100.5 -261v-348q0 -194 -111 -307t-301 -113v-369zM707 930v-731q98 0 153 58.5t55 162.5v348q0 75 -42 118.5t-115 43.5h-51z" />
    <glyph glyph-name="chi" unicode="&#x3c7;" 
d="M336 -369h-279l414 766l-389 729h287l188 -374q40 -82 61 -138q24 64 60 138l190 374h279l-389 -723l413 -772h-286l-211 414q-30 59 -64 141q-23 -66 -61 -141z" />
    <glyph glyph-name="psi" unicode="&#x3c8;" 
d="M723 -369h-217v369q-196 0 -308 112.5t-112 307.5v706h219v-706q0 -101 58.5 -159t158.5 -58v923h185v-923q100 0 158.5 58t58.5 159v706h219v-706q0 -195 -112 -307.5t-308 -112.5v-369z" />
    <glyph glyph-name="omega" unicode="&#x3c9;" 
d="M803 895v248q152 -25 242 -142t90 -294v-381q0 -158 -74 -252t-199 -94q-103 0 -170.5 64.5t-77.5 174.5q-12 -110 -79 -174.5t-170 -64.5q-123 0 -197 94t-74 252v381q0 180 89 297.5t239 142.5v-248q-51 -12 -80 -64t-29 -128v-398q0 -63 26.5 -97t76.5 -34t77 34
t27 97v385h189v-385q0 -63 27 -97t77 -34q49 0 75.5 34t26.5 97v398q0 73 -30 124t-82 64z" />
    <glyph glyph-name="iotadieresis" unicode="&#x3ca;" 
d="M375 1315q-70 0 -111 39.5t-41 107.5q0 67 41.5 107.5t110.5 40.5q68 0 108.5 -40.5t40.5 -107.5q0 -68 -40.5 -107.5t-108.5 -39.5zM854 1315q-68 0 -108.5 39.5t-40.5 107.5q0 67 40.5 107.5t108.5 40.5q69 0 110.5 -40.5t41.5 -107.5q0 -68 -41 -107.5t-111 -39.5z
M1139 0h-285q-166 0 -267.5 100.5t-101.5 264.5v530h-391v231h647v-761q0 -60 35.5 -97t95.5 -37h267v-231z" />
    <glyph glyph-name="upsilondieresis" unicode="&#x3cb;" 
d="M375 1315q-70 0 -111 39.5t-41 107.5q0 67 41.5 107.5t110.5 40.5q68 0 108.5 -40.5t40.5 -107.5q0 -68 -40.5 -107.5t-108.5 -39.5zM854 1315q-68 0 -108.5 39.5t-40.5 107.5q0 67 40.5 107.5t108.5 40.5q69 0 110.5 -40.5t41.5 -107.5q0 -68 -41 -107.5t-111 -39.5z
M614 -20q-215 0 -337.5 119.5t-122.5 326.5v700h256v-698q0 -109 53 -167t151 -58q97 0 151 58.5t54 166.5v698h256v-700q0 -207 -124 -326.5t-337 -119.5z" />
    <glyph glyph-name="omicrontonos" unicode="&#x3cc;" 
d="M717 1321h-258l217 287h274zM614 -18q-216 0 -343.5 120t-127.5 322v278q0 202 127.5 322.5t343.5 120.5t343.5 -120t127.5 -320v-281q0 -202 -127.5 -322t-343.5 -120zM614 205q102 0 158.5 56.5t56.5 162.5v278q0 106 -56.5 163t-158.5 57t-158.5 -57t-56.5 -163v-278
q0 -106 56.5 -162.5t158.5 -56.5z" />
    <glyph glyph-name="upsilontonos" unicode="&#x3cd;" 
d="M717 1321h-258l217 287h274zM614 -20q-215 0 -337.5 119.5t-122.5 326.5v700h256v-698q0 -109 53 -167t151 -58q97 0 151 58.5t54 166.5v698h256v-700q0 -207 -124 -326.5t-337 -119.5z" />
    <glyph glyph-name="omegatonos" unicode="&#x3ce;" 
d="M651 1608h277l-236 -287h-256zM803 895v248q152 -25 242 -142t90 -294v-381q0 -158 -74 -252t-199 -94q-103 0 -170.5 64.5t-77.5 174.5q-12 -110 -79 -174.5t-170 -64.5q-123 0 -197 94t-74 252v381q0 180 89 297.5t239 142.5v-248q-51 -12 -80 -64t-29 -128v-398
q0 -63 26.5 -97t76.5 -34t77 34t27 97v385h189v-385q0 -63 27 -97t77 -34q49 0 75.5 34t26.5 97v398q0 73 -30 124t-82 64z" />
    <glyph glyph-name="uni03CF" unicode="&#x3cf;" 
d="M813 782l270 -602h105v-192q0 -174 -95 -265.5t-276 -91.5h-104v217h92q72 0 111.5 40t39.5 112h-75l-295 662h-174v-662h-256v1495h256v-610h176l284 610h277z" />
    <glyph glyph-name="uni03D5" unicode="&#x3d5;" 
d="M721 -369h-213v369q-196 0 -308 112.5t-112 307.5v289q0 194 112.5 305.5t307.5 111.5v369h213v-369q196 0 308 -111.5t112 -305.5v-289q0 -195 -112.5 -307.5t-307.5 -112.5v-369zM518 201v725q-97 0 -152 -57.5t-55 -159.5v-289q0 -103 55 -161t152 -58zM711 926v-725
q97 0 152 58t55 161v289q0 102 -55 159.5t-152 57.5z" />
    <glyph glyph-name="uni03D6" unicode="&#x3d6;" 
d="M25 1126h1179v-223h-221q73 -37 112.5 -110.5t39.5 -174.5v-292q0 -158 -74 -252t-199 -94q-103 0 -169.5 63t-78.5 170q-14 -108 -80.5 -170.5t-168.5 -62.5q-123 0 -197 94t-74 252v292q0 101 39.5 174.5t112.5 110.5h-221v223zM915 309v463q0 63 -26.5 97t-75.5 34
h-397q-50 0 -76.5 -34t-26.5 -97v-463q0 -63 26.5 -97t76.5 -34t77 34t27 97v373h189v-373q0 -63 27 -97t77 -34q49 0 75.5 34t26.5 97z" />
    <glyph glyph-name="uni03D7" unicode="&#x3d7;" 
d="M1071 1126v-946h92v-192q0 -173 -95.5 -265t-276.5 -92h-105v217h94q71 0 111.5 40t40.5 112h-92v555q0 137 30 367l-397 -922h-315v1126h231v-555q0 -166 -35 -389l402 944h315z" />
    <glyph glyph-name="uni0401" unicode="&#x401;" 
d="M416 1655q-69 0 -110.5 40t-41.5 107q0 69 41.5 109.5t110.5 40.5q68 0 108.5 -40.5t40.5 -109.5q0 -67 -40.5 -107t-108.5 -40zM895 1655q-68 0 -109 40t-41 107q0 69 41 109.5t109 40.5q69 0 110.5 -40.5t41.5 -109.5q0 -67 -41.5 -107t-110.5 -40zM1077 0h-897v1495
h897v-225h-645v-389h574v-217h-574v-439h645v-225z" />
    <glyph glyph-name="uni0402" unicode="&#x402;" 
d="M682 -369h-119v244h131q91 0 142 49t51 137v533q0 98 -38 148.5t-110 50.5q-95 0 -192 -103l-78 -80v-610h-256v1260h-213v235h702v-235h-233v-420l31 30q138 144 303 144q154 0 247 -108.5t93 -289.5v-573q0 -184 -127.5 -298t-333.5 -114z" />
    <glyph glyph-name="uni0403" unicode="&#x403;" 
d="M758 1659h-258l217 287h274zM504 0h-256v1495h895v-231h-639v-1264z" />
    <glyph glyph-name="uni0404" unicode="&#x404;" 
d="M623 -20q-217 0 -346.5 120t-129.5 322v651q0 202 129.5 322.5t346.5 120.5q215 0 344 -121t129 -322h-256q0 105 -57 162t-160 57q-104 0 -160.5 -56.5t-56.5 -160.5v-207h436v-231h-436v-215q0 -106 56.5 -162.5t160.5 -56.5q103 0 160 57t57 162h256
q0 -201 -129 -321.5t-344 -120.5z" />
    <glyph glyph-name="uni0405" unicode="&#x405;" 
d="M618 -20q-229 0 -365 115t-136 308h256q0 -91 67.5 -145.5t180.5 -54.5q110 0 172.5 53.5t62.5 144.5q0 75 -43 130t-119 75l-180 49q-173 46 -270 162.5t-97 280.5q0 191 127 304.5t342 113.5q217 0 345.5 -111.5t128.5 -300.5h-256q0 87 -59 137.5t-161 50.5
q-100 0 -156.5 -50.5t-56.5 -139.5q0 -71 42.5 -122t121.5 -71l183 -51q175 -46 269.5 -162.5t94.5 -285.5q0 -194 -135 -312t-359 -118z" />
    <glyph glyph-name="uni0406" unicode="&#x406;" 
d="M1044 0h-860v231h301v1033h-301v231h860v-231h-301v-1033h301v-231z" />
    <glyph glyph-name="uni0407" unicode="&#x407;" 
d="M375 1655q-69 0 -110.5 40t-41.5 107q0 69 41.5 109.5t110.5 40.5q68 0 108.5 -40.5t40.5 -109.5q0 -67 -40.5 -107t-108.5 -40zM854 1655q-68 0 -108.5 40t-40.5 107q0 69 40.5 109.5t108.5 40.5q69 0 110.5 -40.5t41.5 -109.5q0 -67 -41.5 -107t-110.5 -40zM1044 0
h-860v231h301v1033h-301v231h860v-231h-301v-1033h301v-231z" />
    <glyph glyph-name="uni0408" unicode="&#x408;" 
d="M553 -20q-227 0 -359.5 124t-132.5 338h256q0 -112 63 -175.5t173 -63.5q109 0 172 63.5t63 173.5v824h-419v231h675v-1055q0 -214 -132 -337t-359 -123z" />
    <glyph glyph-name="uni0409" unicode="&#x409;" 
d="M33 -10h-49v205h39q54 0 86 58t34 157l13 1085h622v-596h58q168 0 266 -95t98 -259v-191q0 -164 -98 -259t-266 -95h-269v1300h-202l-11 -890q-3 -191 -90 -305.5t-231 -114.5zM778 702v-507h58q70 0 110.5 42.5t40.5 116.5v187q0 76 -40 118.5t-111 42.5h-58z" />
    <glyph glyph-name="uni040A" unicode="&#x40a;" 
d="M305 0h-213v1495h213v-584h262v584h211v-584h58q169 0 266.5 -95t97.5 -261v-201q0 -164 -97.5 -259t-266.5 -95h-269v715h-262v-715zM778 715v-520h58q72 0 111.5 42t39.5 117v199q0 77 -39.5 119.5t-111.5 42.5h-58z" />
    <glyph glyph-name="uni040B" unicode="&#x40b;" 
d="M469 0h-256v1260h-213v235h702v-235h-233v-420l31 30q138 144 303 144q154 0 247 -108.5t93 -289.5v-616h-256v594q0 98 -38 148.5t-110 50.5q-95 0 -192 -103l-78 -80v-610z" />
    <glyph glyph-name="uni040C" unicode="&#x40c;" 
d="M717 1659h-258l217 287h274zM412 0h-256v1495h256v-610h176l284 610h277l-336 -713l352 -782h-284l-295 662h-174v-662z" />
    <glyph glyph-name="uni040E" unicode="&#x40e;" 
d="M614 1642q-160 0 -258 84t-98 220h199q0 -67 43 -108.5t114 -41.5q72 0 116 41t44 109h199q0 -137 -99 -220.5t-260 -83.5zM625 0h-271l154 383l-436 1112h278l225 -659q45 -131 56 -222q13 109 47 222l207 659h272z" />
    <glyph glyph-name="uni040F" unicode="&#x40f;" 
d="M743 -256h-258v256h-325v1495h256v-1257h397v1257h256v-1495h-326v-256z" />
    <glyph glyph-name="uni0410" unicode="&#x410;" 
d="M334 0h-262l377 1495h329l379 -1495h-262l-82 362h-397zM553 975l-90 -404h303l-90 402q-52 241 -62 299q-21 -127 -61 -297z" />
    <glyph glyph-name="uni0411" unicode="&#x411;" 
d="M631 0h-471v1495h897v-231h-647v-369h219q224 0 358.5 -121.5t134.5 -324.5t-134.5 -326t-356.5 -123zM410 676v-457h221q107 0 169 61t62 166q0 106 -62 168t-169 62h-221z" />
    <glyph glyph-name="uni0412" unicode="&#x412;" 
d="M848 791q127 -26 200.5 -123.5t73.5 -241.5q0 -194 -131.5 -310t-351.5 -116h-481v1495h458q216 0 343.5 -104t127.5 -281q0 -124 -63 -208.5t-176 -110.5zM612 1282h-204v-403h204q101 0 160 54t59 148t-59 147.5t-160 53.5zM408 213h215q112 0 176.5 60.5t64.5 164.5
q0 105 -65 169.5t-176 64.5h-215v-459z" />
    <glyph glyph-name="uni0413" unicode="&#x413;" 
d="M504 0h-256v1495h895v-231h-639v-1264z" />
    <glyph glyph-name="uni0414" unicode="&#x414;" 
d="M283 -287h-236v502h76q41 69 75 191t35 256l13 833h805v-1280h131v-502h-236v287h-663v-287zM379 215h426v1063h-320l-10 -616q-1 -136 -31 -258t-65 -189z" />
    <glyph glyph-name="uni0415" unicode="&#x415;" 
d="M1077 0h-897v1495h897v-225h-645v-389h574v-217h-574v-439h645v-225z" />
    <glyph glyph-name="uni0416" unicode="&#x416;" 
d="M246 0h-223l225 762l-211 733h225l182 -674h74v674h187v-674h77l183 674h221l-207 -731l227 -764h-223l-197 702h-81l6 -702h-187l-6 702h-78z" />
    <glyph glyph-name="uni0417" unicode="&#x417;" 
d="M852 793q124 -25 194 -119.5t70 -239.5q0 -205 -142 -329.5t-374 -124.5q-226 0 -367 118.5t-145 311.5h256q4 -94 73.5 -150.5t178.5 -56.5q117 0 187.5 63.5t70.5 169.5q0 105 -71 169.5t-189 64.5h-199v211h201q106 0 169.5 56t63.5 148q0 93 -64 150t-169 57
q-106 0 -171 -58t-65 -153h-256q0 196 138.5 315.5t365.5 119.5q217 0 349.5 -111.5t132.5 -294.5q0 -125 -63.5 -208.5t-174.5 -108.5z" />
    <glyph glyph-name="uni0418" unicode="&#x418;" 
d="M461 0h-314v1495h234v-731q0 -180 -25 -477l412 1208h313v-1495h-233v709q0 187 29 499z" />
    <glyph glyph-name="uni0419" unicode="&#x419;" 
d="M614 1642q-160 0 -258 84t-98 220h199q0 -67 43 -108.5t114 -41.5q72 0 116 41t44 109h199q0 -137 -99 -220.5t-260 -83.5zM461 0h-314v1495h234v-731q0 -180 -25 -477l412 1208h313v-1495h-233v709q0 187 29 499z" />
    <glyph glyph-name="uni041A" unicode="&#x41a;" 
d="M412 0h-256v1495h256v-610h176l284 610h277l-336 -713l352 -782h-284l-295 662h-174v-662z" />
    <glyph glyph-name="uni041B" unicode="&#x41b;" 
d="M102 -10h-67v233h51q139 0 145 269l17 1003h821v-1495h-256v1264h-313l-15 -772q-3 -244 -102 -373t-281 -129z" />
    <glyph glyph-name="uni041C" unicode="&#x41c;" 
d="M354 0h-239v1495h303l143 -475q38 -122 53 -217q14 88 54 217l141 475h305v-1495h-240v629q0 295 54 721l-203 -707h-223l-205 692q57 -401 57 -706v-629z" />
    <glyph glyph-name="uni041D" unicode="&#x41d;" 
d="M414 0h-256v1495h256v-600h401v600h256v-1495h-256v664h-401v-664z" />
    <glyph glyph-name="uni041E" unicode="&#x41e;" 
d="M614 -20q-215 0 -341 119.5t-126 322.5v651q0 203 126 323t341 120t341 -119.5t126 -321.5v-653q0 -203 -126 -322.5t-341 -119.5zM614 205q103 0 157 55.5t54 161.5v651q0 106 -53.5 161.5t-157.5 55.5t-157.5 -55.5t-53.5 -161.5v-651q0 -106 54 -161.5t157 -55.5z" />
    <glyph glyph-name="uni041F" unicode="&#x41f;" 
d="M416 0h-256v1495h909v-1495h-256v1264h-397v-1264z" />
    <glyph glyph-name="uni0420" unicode="&#x420;" 
d="M414 0h-256v1495h497q226 0 361 -126t135 -335t-136 -335t-360 -126h-241v-573zM414 1270v-471h241q107 0 171.5 65t64.5 170q0 106 -64.5 171t-171.5 65h-241z" />
    <glyph glyph-name="uni0421" unicode="&#x421;" 
d="M623 -20q-217 0 -346.5 120t-129.5 322v651q0 202 129.5 322.5t346.5 120.5q215 0 345 -121t130 -322h-258q0 105 -57 161t-160 56q-105 0 -162.5 -55.5t-57.5 -159.5v-653q0 -105 57.5 -161t162.5 -56q103 0 160 56t57 161h258q0 -201 -130 -321.5t-345 -120.5z" />
    <glyph glyph-name="uni0422" unicode="&#x422;" 
d="M743 0h-258v1264h-391v231h1041v-231h-392v-1264z" />
    <glyph glyph-name="uni0423" unicode="&#x423;" 
d="M625 0h-271l154 383l-436 1112h278l225 -659q45 -131 56 -222q13 109 47 222l207 659h272z" />
    <glyph glyph-name="uni0424" unicode="&#x424;" 
d="M723 -51h-217v143q-190 0 -307 120.5t-117 317.5v459q0 201 116.5 323t307.5 122v143h217v-143q191 0 307.5 -122t116.5 -323v-459q0 -197 -117 -317.5t-307 -120.5v-143zM514 295v936q-95 0 -152 -66t-57 -176v-459q0 -107 57 -171t152 -64zM715 1231v-936q95 0 152 64
t57 171v459q0 110 -57 176t-152 66z" />
    <glyph glyph-name="uni0425" unicode="&#x425;" 
d="M336 0h-279l414 766l-389 729h287l188 -375q42 -85 61 -137q22 60 60 137l190 375h279l-389 -723l413 -772h-286l-211 414q-30 59 -64 141q-23 -66 -61 -141z" />
    <glyph glyph-name="uni0426" unicode="&#x426;" 
d="M1174 -287h-236v287h-778v1495h256v-1266h348v1266h256v-1266h154v-516z" />
    <glyph glyph-name="uni0427" unicode="&#x427;" 
d="M1065 0h-256v573q-84 -26 -250 -26q-215 0 -325.5 100.5t-110.5 294.5v553h256v-543q0 -174 235 -174q141 0 195 23v694h256v-1495z" />
    <glyph glyph-name="uni0428" unicode="&#x428;" 
d="M1126 0h-1022l-2 1495h220v-1317h200v1317h187v-1317h200v1317h217v-1495z" />
    <glyph glyph-name="uni0429" unicode="&#x429;" 
d="M1192 -287h-223v287h-869v1495h205v-1311h193v1311h178v-1311h194v1311h203v-1311h119v-471z" />
    <glyph glyph-name="uni042A" unicode="&#x42a;" 
d="M651 0h-405v1282h-256v213h512v-596h149q226 0 363 -123t137 -325q0 -203 -137.5 -327t-362.5 -124zM502 674v-449h145q110 0 177 61.5t67 162.5q0 102 -66.5 163.5t-177.5 61.5h-145z" />
    <glyph glyph-name="uni042B" unicode="&#x42b;" 
d="M389 0h-287v1495h222v-596h65q183 0 288 -104.5t105 -286.5v-119q0 -182 -104.5 -285.5t-288.5 -103.5zM1126 0h-221v1495h221v-1495zM324 694v-489h65q85 0 131.5 48.5t46.5 137.5v115q0 89 -46.5 138.5t-131.5 49.5h-65z" />
    <glyph glyph-name="uni042C" unicode="&#x42c;" 
d="M651 0h-491v1495h256v-596h235q226 0 363 -123t137 -325q0 -203 -137.5 -327t-362.5 -124zM416 674v-449h231q110 0 177 61.5t67 162.5q0 102 -66.5 163.5t-177.5 61.5h-231z" />
    <glyph glyph-name="uni042D" unicode="&#x42d;" 
d="M606 -20q-215 0 -344 120.5t-129 321.5h256q0 -105 57 -162t160 -57q104 0 160.5 56.5t56.5 162.5v215h-436v231h436v207q0 104 -56.5 160.5t-160.5 56.5q-103 0 -160 -57t-57 -162h-256q0 201 129 322t344 121q217 0 346 -120.5t129 -322.5v-651q0 -202 -129 -322
t-346 -120z" />
    <glyph glyph-name="uni042E" unicode="&#x42e;" 
d="M801 -20q-152 0 -242 101.5t-90 274.5v314h-152v-670h-219v1495h219v-631h152v275q0 174 89.5 275.5t242.5 101.5q165 0 261.5 -101.5t96.5 -275.5v-783q0 -173 -96 -274.5t-262 -101.5zM801 178q66 0 102.5 44t36.5 122v807q0 78 -36.5 122t-102.5 44t-102.5 -44
t-36.5 -122v-807q0 -78 36.5 -122t102.5 -44z" />
    <glyph glyph-name="uni042F" unicode="&#x42f;" 
d="M373 0h-281l289 631q-126 46 -199 158.5t-73 261.5q0 201 133.5 322.5t355.5 121.5h471v-1495h-256v594h-182zM598 817h215v455h-215q-106 0 -168.5 -62t-62.5 -168q0 -104 62 -164.5t169 -60.5z" />
    <glyph glyph-name="uni0430" unicode="&#x430;" 
d="M625 1147q208 0 329 -102.5t121 -280.5v-764h-248v190h-4q-22 -98 -110.5 -154t-223.5 -56q-174 0 -274 91t-100 248q0 166 114 257.5t320 91.5h270v94q0 83 -53 127.5t-150 44.5q-88 0 -144 -37t-62 -98h-244q9 158 134 253t325 95zM573 170q108 0 177 55t69 144v135
h-264q-86 0 -135 -43.5t-49 -120.5q0 -80 53.5 -125t148.5 -45z" />
    <glyph glyph-name="uni0431" unicode="&#x431;" 
d="M709 1022q178 0 279.5 -116.5t101.5 -319.5v-160q0 -206 -128 -327.5t-344 -118.5q-218 3 -344.5 122t-126.5 324v506q0 265 149 414t415 149h317v-248h-317q-147 0 -230.5 -83t-83.5 -232v-131h4q12 103 94 162t214 59zM834 426v160q0 104 -57.5 162.5t-158.5 58.5
t-158 -58.5t-57 -162.5v-160q0 -104 57 -163.5t158 -59.5t158.5 59.5t57.5 163.5z" />
    <glyph glyph-name="uni0432" unicode="&#x432;" 
d="M690 0h-532v1126h504q186 0 294.5 -78t108.5 -210q0 -103 -66 -165t-180 -65v-12q130 -3 207.5 -77t77.5 -197q0 -148 -112 -235t-302 -87zM408 934v-270h247q75 0 118.5 36t43.5 99t-43.5 99t-118.5 36h-247zM408 496v-303h268q83 0 130.5 40t47.5 111t-47.5 111.5
t-130.5 40.5h-268z" />
    <glyph glyph-name="uni0433" unicode="&#x433;" 
d="M504 0h-256v1126h839v-237h-583v-889z" />
    <glyph glyph-name="uni0434" unicode="&#x434;" 
d="M287 -287h-236v504h76q42 42 77 138.5t36 222.5l12 548h788v-909h134v-504h-236v287h-651v-287zM387 217h410v686h-308l-8 -325q-1 -126 -30 -222.5t-64 -138.5z" />
    <glyph glyph-name="uni0435" unicode="&#x435;" 
d="M1085 705v-203h-694v-80q0 -240 227 -240q176 0 207 117h252q-29 -145 -155 -232t-306 -87q-215 0 -344 121t-129 321v283q0 200 129 321t344 121q213 0 341 -121t128 -321zM391 705v-43l447 4v41q0 118 -56 179.5t-166 61.5q-111 0 -168 -62.5t-57 -180.5z" />
    <glyph glyph-name="uni0436" unicode="&#x436;" 
d="M254 0h-236l228 578l-211 548h229l180 -497h76v497h189v-497h75l191 497h219l-211 -542l227 -584h-227l-197 518h-77v-518h-189v518h-80z" />
    <glyph glyph-name="uni0437" unicode="&#x437;" 
d="M842 596q125 -17 192.5 -89.5t67.5 -187.5q0 -152 -118 -242.5t-316 -90.5h-113q-183 0 -302 84.5t-144 232.5h256q10 -51 61.5 -79.5t128.5 -28.5h113q79 0 125.5 38t46.5 103t-45 103t-127 38h-279v203h264q74 0 116 34t42 93q0 61 -40.5 93t-117.5 32h-94
q-72 0 -122 -30.5t-62 -82.5h-254q23 150 140 236t298 86h94q193 0 304.5 -82t111.5 -225q0 -98 -60 -160.5t-167 -77.5z" />
    <glyph glyph-name="uni0438" unicode="&#x438;" 
d="M473 0h-315v1126h231v-555q0 -166 -35 -389l402 944h315v-1126h-231v555q0 137 30 367z" />
    <glyph glyph-name="uni0439" unicode="&#x439;" 
d="M614 1305q-160 0 -259 83.5t-99 219.5h199q0 -67 44 -108.5t115 -41.5q72 0 116 41t44 109h199q0 -136 -99 -219.5t-260 -83.5zM473 0h-315v1126h231v-555q0 -166 -35 -389l402 944h315v-1126h-231v555q0 137 30 367z" />
    <glyph glyph-name="uni043A" unicode="&#x43a;" 
d="M420 0h-256v1126h256v-442h178l274 442h287l-340 -544l346 -582h-293l-274 467h-178v-467z" />
    <glyph glyph-name="uni043B" unicode="&#x43b;" 
d="M115 -14h-68v233h51q141 0 144 236l12 671h817v-1126h-256v893h-309l-8 -453q-4 -222 -103 -338t-280 -116z" />
    <glyph glyph-name="uni043C" unicode="&#x43c;" 
d="M352 0h-237v1126h307l139 -424q33 -100 57 -223q14 96 56 223l133 424h307v-1126h-237v193q0 278 30 743l-176 -610h-229l-183 606q33 -478 33 -739v-193z" />
    <glyph glyph-name="uni043D" unicode="&#x43d;" 
d="M414 0h-256v1126h256v-434h401v434h256v-1126h-256v461h-401v-461z" />
    <glyph glyph-name="uni043E" unicode="&#x43e;" 
d="M614 -18q-216 0 -343.5 120t-127.5 322v278q0 202 127.5 322.5t343.5 120.5t343.5 -120t127.5 -320v-281q0 -202 -127.5 -322t-343.5 -120zM614 205q102 0 158.5 56.5t56.5 162.5v278q0 106 -56.5 163t-158.5 57t-158.5 -57t-56.5 -163v-278q0 -106 56.5 -162.5
t158.5 -56.5z" />
    <glyph glyph-name="uni043F" unicode="&#x43f;" 
d="M414 0h-256v1126h913v-1126h-256v893h-401v-893z" />
    <glyph glyph-name="uni0440" unicode="&#x440;" 
d="M717 1147q166 0 267 -117t101 -313v-305q0 -197 -101 -314.5t-267 -117.5q-116 0 -196 58.5t-111 164.5h-2l6 -256v-316h-256v1495h250v-202h2q31 106 111 164.5t196 58.5zM829 422v283q0 106 -54 163.5t-152 57.5t-153.5 -60.5t-55.5 -167.5v-270q0 -107 55.5 -167
t153.5 -60t152 57.5t54 163.5z" />
    <glyph glyph-name="uni0441" unicode="&#x441;" 
d="M621 -20q-217 0 -347.5 120t-130.5 322v283q0 202 130.5 322t347.5 120q212 0 339.5 -109.5t133.5 -298.5h-250q-6 87 -66 136t-157 49q-104 0 -163 -57t-59 -160v-285q0 -105 59 -162t163 -57q98 0 157.5 48.5t65.5 135.5h250q-6 -189 -133 -298t-340 -109z" />
    <glyph glyph-name="uni0442" unicode="&#x442;" 
d="M743 0h-258v897h-385v229h1028v-229h-385v-897z" />
    <glyph glyph-name="uni0443" unicode="&#x443;" 
d="M608 -369h-268l160 430l-434 1065h278l221 -575q31 -84 60 -223q42 171 61 223l211 575h266z" />
    <glyph glyph-name="uni0444" unicode="&#x444;" 
d="M721 -369h-213v369q-196 0 -308 112.5t-112 307.5v289q0 194 112.5 305.5t307.5 111.5v369h213v-369q196 0 308 -111.5t112 -305.5v-289q0 -195 -112.5 -307.5t-307.5 -112.5v-369zM518 201v725q-97 0 -152 -57.5t-55 -159.5v-289q0 -103 55 -161t152 -58zM711 926v-725
q97 0 152 58t55 161v289q0 102 -55 159.5t-152 57.5z" />
    <glyph glyph-name="uni0445" unicode="&#x445;" 
d="M362 0h-288l393 582l-367 544h289l174 -276q30 -52 51 -105q19 47 52 105l176 276h288l-366 -544l391 -582h-291l-194 309q-17 26 -56 107q-27 -67 -53 -107z" />
    <glyph glyph-name="uni0446" unicode="&#x446;" 
d="M1174 -287h-236v287h-780v1126h256v-890h350v890h256v-890h154v-523z" />
    <glyph glyph-name="uni0447" unicode="&#x447;" 
d="M1061 0h-258v377q-78 -19 -221 -19q-232 0 -343.5 96t-111.5 296v376h256v-364q0 -91 53.5 -131.5t173.5 -40.5q139 0 193 14v522h258v-1126z" />
    <glyph glyph-name="uni0448" unicode="&#x448;" 
d="M1130 0h-1030l-2 1126h219v-942h205v942h187v-942h202v942h219v-1126z" />
    <glyph glyph-name="uni0449" unicode="&#x449;" 
d="M1192 -287h-223v287h-871v1126h203v-929h197v929h178v-929h194v929h203v-929h119v-484z" />
    <glyph glyph-name="uni044A" unicode="&#x44a;" 
d="M707 0h-445v891h-262v235h518v-368h187q204 0 320 -101.5t116 -279.5q0 -173 -117.5 -275t-316.5 -102zM518 532v-307h176q89 0 138 40.5t49 113.5t-49 113t-138 40h-176z" />
    <glyph glyph-name="uni044B" unicode="&#x44b;" 
d="M399 0h-297v1126h222v-381h75q182 0 289 -101.5t107 -274.5q0 -169 -108 -269t-288 -100zM1126 0h-221v1126h221v-1126zM324 553v-360h75q86 0 135.5 47t49.5 129q0 86 -49.5 135t-135.5 49h-75z" />
    <glyph glyph-name="uni044C" unicode="&#x44c;" 
d="M707 0h-539v1126h256v-368h281q204 0 320 -101.5t116 -279.5q0 -173 -117.5 -275t-316.5 -102zM424 532v-307h270q89 0 138 40.5t49 113.5t-49 113t-138 40h-270z" />
    <glyph glyph-name="uni044D" unicode="&#x44d;" 
d="M608 -20q-211 0 -338.5 108.5t-134.5 294.5h258q6 -85 63 -132.5t152 -47.5q105 0 163 56.5t58 160.5v47h-342v205h342v33q0 105 -58 162t-163 57q-95 0 -152 -48t-63 -133h-258q8 186 135 295t338 109q218 0 347.5 -120t129.5 -322v-283q0 -202 -129.5 -322t-347.5 -120
z" />
    <glyph glyph-name="uni044E" unicode="&#x44e;" 
d="M805 -20q-154 0 -241 93t-87 251v157h-172v-481h-219v1126h219v-469h172v148q0 157 87 249.5t241 92.5q160 0 257 -93t97 -249v-481q0 -156 -97 -250t-257 -94zM807 170q60 0 96.5 42.5t36.5 111.5v481q0 68 -36.5 109.5t-96.5 41.5t-96.5 -41.5t-36.5 -109.5v-481
q0 -69 36.5 -111.5t96.5 -42.5z" />
    <glyph glyph-name="uni044F" unicode="&#x44f;" 
d="M408 0h-291l258 412q-113 35 -177.5 125t-64.5 211q0 177 119 277.5t326 100.5h493v-1126h-256v389h-182zM588 586h227v332h-227q-92 0 -145.5 -45t-53.5 -123q0 -76 53.5 -120t145.5 -44z" />
    <glyph glyph-name="uni0451" unicode="&#x451;" 
d="M375 1315q-70 0 -111 39.5t-41 107.5q0 67 41.5 107.5t110.5 40.5q68 0 108.5 -40.5t40.5 -107.5q0 -68 -40.5 -107.5t-108.5 -39.5zM854 1315q-68 0 -108.5 39.5t-40.5 107.5q0 67 40.5 107.5t108.5 40.5q69 0 110.5 -40.5t41.5 -107.5q0 -68 -41 -107.5t-111 -39.5z
M1085 705v-203h-694v-80q0 -240 227 -240q176 0 207 117h252q-29 -145 -155 -232t-306 -87q-215 0 -344 121t-129 321v283q0 200 129 321t344 121q213 0 341 -121t128 -321zM391 705v-43l447 4v41q0 118 -56 179.5t-166 61.5q-111 0 -168 -62.5t-57 -180.5z" />
    <glyph glyph-name="uni0452" unicode="&#x452;" 
d="M711 1024q166 0 264 -111t98 -297v-542q0 -204 -123 -323.5t-332 -119.5h-106v238h92q101 0 157 55.5t56 155.5v510q0 101 -53 157t-148 56t-147.5 -57.5t-52.5 -163.5v-582h-256v1149h-160v172h160v174h256v-174h313v-172h-313v-145l-6 -216h4q17 111 94.5 173.5
t202.5 62.5z" />
    <glyph glyph-name="uni0453" unicode="&#x453;" 
d="M778 1321h-258l217 287h275zM504 0h-256v1126h839v-237h-583v-889z" />
    <glyph glyph-name="uni0454" unicode="&#x454;" 
d="M621 -20q-218 0 -348 120t-130 322v283q0 202 130 322t348 120q211 0 338 -109t135 -295h-258q-6 85 -63 133t-152 48q-105 0 -163.5 -57t-58.5 -162v-33h342v-205h-342v-47q0 -104 58.5 -160.5t163.5 -56.5q95 0 152 47.5t63 132.5h258q-7 -186 -134.5 -294.5
t-338.5 -108.5z" />
    <glyph glyph-name="uni0455" unicode="&#x455;" 
d="M662 -18h-91q-195 0 -314.5 88.5t-119.5 238.5h258q0 -59 47 -91t131 -32h89q94 0 142 34t48 97q0 116 -174 144l-158 20q-354 53 -354 338q0 160 107 243t313 83h78q192 0 306.5 -84.5t114.5 -224.5h-258q0 51 -43 77.5t-122 26.5h-78q-83 0 -125.5 -31t-42.5 -90
q0 -106 149 -127l160 -24q190 -26 283.5 -110t93.5 -234q0 -164 -112.5 -253t-327.5 -89z" />
    <glyph glyph-name="uni0456" unicode="&#x456;" horiz-adv-x="1024" 
d="M530 1315q-77 0 -122.5 39t-45.5 108q0 67 45.5 107.5t122.5 40.5t122.5 -40.5t45.5 -107.5q0 -69 -45.5 -108t-122.5 -39zM952 0h-817v231h293v664h-244v231h500v-895h268v-231z" />
    <glyph glyph-name="uni0457" unicode="&#x457;" 
d="M289 1315q-69 0 -109.5 39t-40.5 108q0 68 40.5 108t109.5 40t109 -40t40 -108q0 -69 -40 -108t-109 -39zM770 1315q-69 0 -109 39t-40 108q0 68 40 108t109 40t109.5 -40t40.5 -108q0 -69 -40.5 -108t-109.5 -39zM952 0h-817v231h293v664h-244v231h500v-895h268v-231z
" />
    <glyph glyph-name="uni0458" unicode="&#x458;" horiz-adv-x="819" 
d="M518 1315q-77 0 -122.5 39t-45.5 108q0 67 45.5 107.5t122.5 40.5t122.5 -40.5t45.5 -107.5q0 -69 -45.5 -108t-122.5 -39zM209 -369h-170v232h156q98 0 155.5 58.5t57.5 158.5v815h-320v231h576v-1052q0 -204 -123 -323.5t-332 -119.5z" />
    <glyph glyph-name="uni0459" unicode="&#x459;" 
d="M45 -10h-47v211h39q54 0 85.5 56t33.5 153l10 716h608v-378h92q153 0 245.5 -88t92.5 -234v-115q0 -141 -92.5 -226t-243.5 -85h-299v930h-192l-6 -524q-2 -191 -89.5 -303.5t-236.5 -112.5zM774 551v-356h92q56 0 89.5 32t33.5 84v115q0 57 -33.5 91t-89.5 34h-92z" />
    <glyph glyph-name="uni045A" unicode="&#x45a;" 
d="M319 0h-219v1126h219v-385h254v385h199v-385h94q153 0 245.5 -88t92.5 -235v-107q0 -139 -93 -225t-243 -86h-295v545h-254v-545zM772 545v-350h94q55 0 88 32t33 86v109q0 56 -33 89.5t-88 33.5h-94z" />
    <glyph glyph-name="uni045B" unicode="&#x45b;" 
d="M158 1149h-158v172h158v174h256v-174h315v-172h-315v-145l-6 -216h4q17 111 95.5 173.5t203.5 62.5q166 0 265 -111t99 -297v-616h-256v590q0 101 -53.5 157t-149.5 56t-149 -58t-53 -163v-582h-256v1149z" />
    <glyph glyph-name="uni045C" unicode="&#x45c;" 
d="M717 1321h-258l217 287h274zM420 0h-256v1126h256v-442h178l274 442h287l-340 -544l346 -582h-293l-274 467h-178v-467z" />
    <glyph glyph-name="uni045E" unicode="&#x45e;" 
d="M614 1305q-160 0 -259 83.5t-99 219.5h199q0 -67 44 -108.5t115 -41.5q72 0 116 41t44 109h199q0 -136 -99 -219.5t-260 -83.5zM608 -369h-268l160 430l-434 1065h278l221 -575q31 -84 60 -223q42 171 61 223l211 575h266z" />
    <glyph glyph-name="uni045F" unicode="&#x45f;" 
d="M743 -256h-258v256h-327v1126h256v-888h401v888h256v-1126h-328v-256z" />
    <glyph glyph-name="uni0490" unicode="&#x490;" 
d="M504 0h-256v1495h649v195h246v-433h-639v-1257z" />
    <glyph glyph-name="uni0491" unicode="&#x491;" 
d="M504 0h-256v1126h594v215h245v-452h-583v-889z" />
    <glyph glyph-name="uni0492" unicode="&#x492;" 
d="M1143 1495v-231h-639v-404h287v-217h-287v-643h-256v643h-187v217h187v635h895z" />
    <glyph glyph-name="uni0493" unicode="&#x493;" 
d="M1118 1126v-237h-583v-254h327v-207h-327v-428h-256v428h-179v207h179v491h839z" />
    <glyph glyph-name="uni049A" unicode="&#x49a;" 
d="M786 782l246 -546h178v-523h-223v287h-133l-295 662h-174v-662h-256v1495h256v-610h176l283 610h278z" />
    <glyph glyph-name="uni049B" unicode="&#x49b;" 
d="M809 582l207 -346h176v-523h-225v287h-103l-276 467h-174v-467h-256v1126h256v-442h176l272 442h289z" />
    <glyph glyph-name="uni04A2" unicode="&#x4a2;" 
d="M1055 1495v-1259h119v-523h-224v287h-151v664h-400v-664h-256v1495h256v-600h400v600h256z" />
    <glyph glyph-name="uni04A3" unicode="&#x4a3;" 
d="M1055 1126v-890h119v-523h-224v287h-151v453h-398v-453h-256v1126h256v-436h398v436h256z" />
    <glyph glyph-name="uni04AE" unicode="&#x4ae;" 
d="M743 0h-258v543l-438 952h268l234 -518q43 -100 69 -213q25 108 70 213l227 518h267l-439 -952v-543z" />
    <glyph glyph-name="uni04AF" unicode="&#x4af;" 
d="M743 -369h-256v369l-403 1126h266l221 -680q13 -38 22.5 -78t18 -91.5t9.5 -55.5q22 142 47 223l217 682h260l-402 -1126v-369z" />
    <glyph glyph-name="uni04B0" unicode="&#x4b0;" 
d="M915 1495h267l-439 -952h236v-170h-236v-373h-258v373h-235v170h235l-438 952h268l234 -518q43 -100 69 -213q25 108 70 213z" />
    <glyph glyph-name="uni04B1" unicode="&#x4b1;" 
d="M885 1126h260l-402 -1126h236v-172h-236v-197h-256v197h-237v172h237l-403 1126h266l221 -680q13 -38 22.5 -78t18 -91.5t9.5 -55.5q22 142 47 223z" />
    <glyph glyph-name="uni04B6" unicode="&#x4b6;" 
d="M1044 1495v-1259h105v-523h-223v287h-138v573q-84 -26 -249 -26q-215 0 -326 100.5t-111 294.5v553h256v-543q0 -174 236 -174q140 0 194 23v694h256z" />
    <glyph glyph-name="uni04B7" unicode="&#x4b7;" 
d="M1044 1126v-890h115v-523h-223v287h-148v377q-82 -19 -223 -19q-232 0 -343 96t-111 296v376h256v-364q0 -91 54 -131.5t173 -40.5q136 0 194 14v522h256z" />
    <glyph glyph-name="uni04BA" unicode="&#x4ba;" 
d="M164 1495h256v-573q84 26 250 26q215 0 325.5 -100.5t110.5 -294.5v-553h-256v543q0 174 -236 174q-140 0 -194 -23v-694h-256v1495z" />
    <glyph glyph-name="uni04BB" unicode="&#x4bb;" 
d="M168 1126h258v-376q74 18 221 18q232 0 343.5 -96t111.5 -295v-377h-256v365q0 91 -54 131.5t-174 40.5q-134 0 -192 -15v-522h-258v1126z" />
    <glyph glyph-name="uni04D8" unicode="&#x4d8;" 
d="M606 -20q-215 0 -344 120.5t-129 321.5v446h690v207q0 102 -57.5 159.5t-159.5 57.5q-101 0 -159 -58t-58 -161h-256q0 201 129 322t344 121q216 0 345.5 -121t129.5 -322v-651q0 -201 -129 -321.5t-346 -120.5zM606 203q103 0 160 58t57 161v215h-434v-215
q0 -103 58 -161t159 -58z" />
    <glyph glyph-name="uni04D9" unicode="&#x4d9;" 
d="M612 1147q215 0 344 -121t129 -321v-283q0 -200 -129 -321t-344 -121q-213 0 -341 121t-128 321v203h695v80q0 239 -228 239q-176 0 -207 -117h-251q29 145 154.5 232.5t305.5 87.5zM838 422v43l-447 -4v-41q0 -118 56 -180t165 -62q111 0 168.5 63t57.5 181z" />
    <glyph glyph-name="uni04E8" unicode="&#x4e8;" 
d="M614 -20q-218 0 -342.5 120.5t-124.5 327.5v641q0 206 124.5 326.5t342.5 120.5t342.5 -120.5t124.5 -326.5v-641q0 -204 -125 -326t-342 -122zM391 1061v-189h447v189q0 110 -57.5 170.5t-166.5 60.5t-166 -60.5t-57 -170.5zM614 203q109 0 166.5 61t57.5 170v221h-447
v-221q0 -109 57 -170t166 -61z" />
    <glyph glyph-name="uni04E9" unicode="&#x4e9;" 
d="M614 -20q-212 0 -339.5 120.5t-127.5 321.5v285q0 200 127.5 320t339.5 120q211 0 339 -121t128 -319v-285q0 -201 -127.5 -321.5t-339.5 -120.5zM385 707v-50h459v50q0 107 -60 166t-170 59t-169.5 -58.5t-59.5 -166.5zM614 195q110 0 170 59t60 168v57h-459v-57
q0 -109 59.5 -168t169.5 -59z" />
    <glyph glyph-name="uni0AEA" unicode="&#xaea;" 
d="M1098 1331l-338 -403l194 -234q136 -164 136 -325q0 -171 -132 -280t-344 -109t-343.5 109t-131.5 280q0 157 146 333l186 222l-340 407h291l196 -233l197 233h283zM614 203q98 0 159 57.5t61 145.5q0 86 -76 178l-144 172l-145 -174q-74 -86 -74 -176q0 -89 61 -146
t158 -57z" />
    <glyph glyph-name="Wgrave" unicode="&#x1e80;" 
d="M774 1659h-264l-238 287h283zM471 0h-285l-153 1495h221l90 -1044q13 -154 16 -277q8 111 27 277l123 1044h215l115 -1044q23 -205 32 -277q4 161 17 277l88 1044h219l-162 -1495h-282l-111 1049q-17 139 -25 284q-17 -209 -24 -284z" />
    <glyph glyph-name="wgrave" unicode="&#x1e81;" 
d="M774 1321h-264l-238 287h283zM477 0h-264l-172 1126h205l94 -690q6 -46 13.5 -141t8.5 -109h11q16 168 28 250l109 690h213l104 -690q14 -91 29 -252h10q21 218 25 252l98 690h199l-176 -1126h-264l-99 694q-19 118 -31 244h-8q-2 -14 -12.5 -106.5t-17.5 -137.5z" />
    <glyph glyph-name="Wacute" unicode="&#x1e82;" 
d="M717 1659h-258l217 287h274zM471 0h-285l-153 1495h221l90 -1044q13 -154 16 -277q8 111 27 277l123 1044h215l115 -1044q23 -205 32 -277q4 161 17 277l88 1044h219l-162 -1495h-282l-111 1049q-17 139 -25 284q-17 -209 -24 -284z" />
    <glyph glyph-name="wacute" unicode="&#x1e83;" 
d="M717 1321h-258l217 287h274zM477 0h-264l-172 1126h205l94 -690q6 -46 13.5 -141t8.5 -109h11q16 168 28 250l109 690h213l104 -690q14 -91 29 -252h10q21 218 25 252l98 690h199l-176 -1126h-264l-99 694q-19 118 -31 244h-8q-2 -14 -12.5 -106.5t-17.5 -137.5z" />
    <glyph glyph-name="Wdieresis" unicode="&#x1e84;" 
d="M375 1655q-69 0 -110.5 40t-41.5 107q0 69 41.5 109.5t110.5 40.5q68 0 108.5 -40.5t40.5 -109.5q0 -67 -40.5 -107t-108.5 -40zM854 1655q-68 0 -108.5 40t-40.5 107q0 69 40.5 109.5t108.5 40.5q69 0 110.5 -40.5t41.5 -109.5q0 -67 -41.5 -107t-110.5 -40zM471 0h-285
l-153 1495h221l90 -1044q13 -154 16 -277q8 111 27 277l123 1044h215l115 -1044q23 -205 32 -277q4 161 17 277l88 1044h219l-162 -1495h-282l-111 1049q-17 139 -25 284q-17 -209 -24 -284z" />
    <glyph glyph-name="wdieresis" unicode="&#x1e85;" 
d="M375 1315q-70 0 -111 39.5t-41 107.5q0 67 41.5 107.5t110.5 40.5q68 0 108.5 -40.5t40.5 -107.5q0 -68 -40.5 -107.5t-108.5 -39.5zM854 1315q-68 0 -108.5 39.5t-40.5 107.5q0 67 40.5 107.5t108.5 40.5q69 0 110.5 -40.5t41.5 -107.5q0 -68 -41 -107.5t-111 -39.5z
M477 0h-264l-172 1126h205l94 -690q6 -46 13.5 -141t8.5 -109h11q16 168 28 250l109 690h213l104 -690q14 -91 29 -252h10q21 218 25 252l98 690h199l-176 -1126h-264l-99 694q-19 118 -31 244h-8q-2 -14 -12.5 -106.5t-17.5 -137.5z" />
    <glyph glyph-name="uni1E9E" unicode="&#x1e9e;" 
d="M1104 1251l-326 -387q161 -22 255.5 -135t94.5 -289q0 -200 -130.5 -320t-348.5 -120h-119v219h105q106 0 168.5 64.5t62.5 171.5q0 105 -62 168t-169 63h-94v199l321 391h-252q-101 0 -161 -59t-60 -160v-1057h-239v1057q0 199 126 318.5t334 119.5h494v-244z" />
    <glyph glyph-name="uni1EA0" unicode="&#x1ea0;" 
d="M334 0h-262l377 1495h329l379 -1495h-262l-82 362h-397zM553 975l-90 -404h303l-90 402q-52 241 -62 299q-21 -127 -61 -297zM614 -461q-77 0 -122.5 40.5t-45.5 107.5q0 69 45.5 109t122.5 40t122.5 -40t45.5 -109q0 -67 -45.5 -107.5t-122.5 -40.5z" />
    <glyph glyph-name="uni1EA1" unicode="&#x1ea1;" 
d="M625 1147q208 0 329 -102.5t121 -280.5v-764h-248v190h-4q-22 -98 -110.5 -154t-223.5 -56q-174 0 -274 91t-100 248q0 166 114 257.5t320 91.5h270v94q0 83 -53 127.5t-150 44.5q-88 0 -144 -37t-62 -98h-244q9 158 134 253t325 95zM573 170q108 0 177 55t69 144v135
h-264q-86 0 -135 -43.5t-49 -120.5q0 -80 53.5 -125t148.5 -45zM625 -164q77 0 122.5 -40t45.5 -109q0 -67 -45.5 -107.5t-122.5 -40.5t-122.5 40.5t-45.5 107.5q0 69 45.5 109t122.5 40z" />
    <glyph glyph-name="uni1EA2" unicode="&#x1ea2;" 
d="M715 1634h-205l98 123q29 39 29 62q0 20 -14 28t-45 8h-160v158h194q97 0 156 -46t59 -122q0 -66 -41 -116zM334 0h-262l377 1495h329l379 -1495h-262l-82 362h-397zM553 975l-90 -404h303l-90 402q-52 241 -62 299q-21 -127 -61 -297z" />
    <glyph glyph-name="uni1EA3" unicode="&#x1ea3;" 
d="M651 1505q0 21 -14 30t-45 9h-164v156h215q90 0 144.5 -45t54.5 -121q0 -69 -41 -119l-76 -94h-205l103 123q28 38 28 61zM625 1147q208 0 329 -102.5t121 -280.5v-764h-248v190h-4q-22 -98 -110.5 -154t-223.5 -56q-174 0 -274 91t-100 248q0 166 114 257.5t320 91.5
h270v94q0 83 -53 127.5t-150 44.5q-88 0 -144 -37t-62 -98h-244q9 158 134 253t325 95zM573 170q108 0 177 55t69 144v135h-264q-86 0 -135 -43.5t-49 -120.5q0 -80 53.5 -125t148.5 -45z" />
    <glyph glyph-name="uni1EA4" unicode="&#x1ea4;" 
d="M1094 1849h-244l215 240h260zM463 1597h-248l281 287h237l281 -287h-248l-152 150zM334 0h-262l377 1495h329l379 -1495h-262l-82 362h-397zM553 975l-90 -404h303l-90 402q-52 241 -62 299q-21 -127 -61 -297z" />
    <glyph glyph-name="uni1EA5" unicode="&#x1ea5;" 
d="M862 1556l242 287h258l-258 -287h-242zM776 1321l-151 149l-152 -149h-248l281 287h237l281 -287h-248zM625 1147q208 0 329 -102.5t121 -280.5v-764h-248v190h-4q-22 -98 -110.5 -154t-223.5 -56q-174 0 -274 91t-100 248q0 166 114 257.5t320 91.5h270v94
q0 83 -53 127.5t-150 44.5q-88 0 -144 -37t-62 -98h-244q9 158 134 253t325 95zM573 170q108 0 177 55t69 144v135h-264q-86 0 -135 -43.5t-49 -120.5q0 -80 53.5 -125t148.5 -45z" />
    <glyph glyph-name="uni1EA6" unicode="&#x1ea6;" 
d="M1165 1849h-241l-240 240h258zM463 1597h-248l281 287h237l281 -287h-248l-152 150zM334 0h-262l377 1495h329l379 -1495h-262l-82 362h-397zM553 975l-90 -404h303l-90 402q-52 241 -62 299q-21 -127 -61 -297z" />
    <glyph glyph-name="uni1EA7" unicode="&#x1ea7;" 
d="M954 1843l250 -287h-241l-267 287h258zM776 1321l-151 149l-152 -149h-248l281 287h237l281 -287h-248zM625 1147q208 0 329 -102.5t121 -280.5v-764h-248v190h-4q-22 -98 -110.5 -154t-223.5 -56q-174 0 -274 91t-100 248q0 166 114 257.5t320 91.5h270v94
q0 83 -53 127.5t-150 44.5q-88 0 -144 -37t-62 -98h-244q9 158 134 253t325 95zM573 170q108 0 177 55t69 144v135h-264q-86 0 -135 -43.5t-49 -120.5q0 -80 53.5 -125t148.5 -45z" />
    <glyph glyph-name="uni1EA8" unicode="&#x1ea8;" 
d="M1079 1790h-196l80 82q22 19 22 43q0 33 -43 33h-139v141h186q86 0 136.5 -40.5t50.5 -111.5q0 -61 -43 -98zM463 1597h-248l281 287h237l281 -287h-248l-152 150zM334 0h-262l377 1495h329l379 -1495h-262l-82 362h-397zM553 975l-90 -404h303l-90 402q-52 241 -62 299
q-21 -127 -61 -297z" />
    <glyph glyph-name="uni1EA9" unicode="&#x1ea9;" 
d="M801 1927h172q96 0 153.5 -45.5t57.5 -120.5q0 -63 -41 -112l-72 -93h-194l96 121q26 36 26 56q0 41 -59 41h-139v153zM776 1321l-151 149l-152 -149h-248l281 287h237l281 -287h-248zM625 1147q208 0 329 -102.5t121 -280.5v-764h-248v190h-4q-22 -98 -110.5 -154
t-223.5 -56q-174 0 -274 91t-100 248q0 166 114 257.5t320 91.5h270v94q0 83 -53 127.5t-150 44.5q-88 0 -144 -37t-62 -98h-244q9 158 134 253t325 95zM573 170q108 0 177 55t69 144v135h-264q-86 0 -135 -43.5t-49 -120.5q0 -80 53.5 -125t148.5 -45z" />
    <glyph glyph-name="uni1EAA" unicode="&#x1eaa;" 
d="M776 1872q-70 0 -127.5 20.5t-100.5 41t-77 20.5q-25 0 -40 -15.5t-15 -40.5v-12h-158v12q0 87 53.5 139t143.5 52q70 0 127 -20.5t99.5 -41t76.5 -20.5q25 0 40 15t15 40v13h158v-13q0 -88 -53 -139t-142 -51zM463 1597h-248l213 218h373l213 -218h-250l-150 152zM334 0
h-262l377 1495h329l379 -1495h-262l-82 362h-397zM553 975l-90 -404h303l-90 402q-52 241 -62 299q-21 -127 -61 -297z" />
    <glyph glyph-name="uni1EAB" unicode="&#x1eab;" 
d="M430 1739v-47h-158v47q0 95 59 154t154 59q48 0 86 -13t61 -31t42 -36.5t40 -31.5t44 -13q29 0 45 15.5t16 43.5v51h158v-45q0 -95 -59 -154t-154 -59q-48 0 -85.5 13t-60.5 31.5t-42 36.5t-40 31t-44 13q-28 0 -45 -17.5t-17 -47.5zM776 1321l-151 149l-152 -149h-248
l281 287h237l281 -287h-248zM625 1147q208 0 329 -102.5t121 -280.5v-764h-248v190h-4q-22 -98 -110.5 -154t-223.5 -56q-174 0 -274 91t-100 248q0 166 114 257.5t320 91.5h270v94q0 83 -53 127.5t-150 44.5q-88 0 -144 -37t-62 -98h-244q9 158 134 253t325 95zM573 170
q108 0 177 55t69 144v135h-264q-86 0 -135 -43.5t-49 -120.5q0 -80 53.5 -125t148.5 -45z" />
    <glyph glyph-name="uni1EAC" unicode="&#x1eac;" 
d="M463 1659h-248l281 287h237l281 -287h-246l-156 149zM334 0h-262l377 1495h329l379 -1495h-262l-82 362h-397zM553 975l-90 -404h303l-90 402q-52 241 -62 299q-21 -127 -61 -297zM614 -461q-77 0 -122.5 40.5t-45.5 107.5q0 69 45.5 109t122.5 40t122.5 -40t45.5 -109
q0 -67 -45.5 -107.5t-122.5 -40.5z" />
    <glyph glyph-name="uni1EAD" unicode="&#x1ead;" 
d="M778 1321l-155 149l-150 -149h-248l281 287h237l281 -287h-246zM625 1147q208 0 329 -102.5t121 -280.5v-764h-248v190h-4q-22 -98 -110.5 -154t-223.5 -56q-174 0 -274 91t-100 248q0 166 114 257.5t320 91.5h270v94q0 83 -53 127.5t-150 44.5q-88 0 -144 -37t-62 -98
h-244q9 158 134 253t325 95zM573 170q108 0 177 55t69 144v135h-264q-86 0 -135 -43.5t-49 -120.5q0 -80 53.5 -125t148.5 -45zM625 -164q77 0 122.5 -40t45.5 -109q0 -67 -45.5 -107.5t-122.5 -40.5t-122.5 40.5t-45.5 107.5q0 69 45.5 109t122.5 40z" />
    <glyph glyph-name="uni1EAE" unicode="&#x1eae;" 
d="M698 1849h-221l213 240h238zM676 1597h-125q-146 0 -232 73.5t-86 199.5h175q0 -59 37.5 -92t105.5 -33h125q68 0 106.5 33.5t38.5 91.5h172q0 -126 -85.5 -199.5t-231.5 -73.5zM334 0h-262l377 1495h329l379 -1495h-262l-82 362h-397zM553 975l-90 -404h303l-90 402
q-52 241 -62 299q-21 -127 -61 -297z" />
    <glyph glyph-name="uni1EAF" unicode="&#x1eaf;" 
d="M729 1870h238l-252 -277h-221zM625 1311q-164 0 -265.5 76.5t-101.5 201.5h193q0 -55 46 -87t126 -32q83 0 129.5 31.5t46.5 87.5h192q0 -125 -101.5 -201.5t-264.5 -76.5zM625 1147q208 0 329 -102.5t121 -280.5v-764h-248v190h-4q-22 -98 -110.5 -154t-223.5 -56
q-174 0 -274 91t-100 248q0 166 114 257.5t320 91.5h270v94q0 83 -53 127.5t-150 44.5q-88 0 -144 -37t-62 -98h-244q9 158 134 253t325 95zM573 170q108 0 177 55t69 144v135h-264q-86 0 -135 -43.5t-49 -120.5q0 -80 53.5 -125t148.5 -45z" />
    <glyph glyph-name="uni1EB0" unicode="&#x1eb0;" 
d="M748 1849h-209l-199 240h225zM676 1597h-125q-146 0 -232 73.5t-86 199.5h175q0 -59 37.5 -92t105.5 -33h125q68 0 106.5 33.5t38.5 91.5h172q0 -126 -85.5 -199.5t-231.5 -73.5zM334 0h-262l377 1495h329l379 -1495h-262l-82 362h-397zM553 975l-90 -404h303l-90 402
q-52 241 -62 299q-21 -127 -61 -297z" />
    <glyph glyph-name="uni1EB1" unicode="&#x1eb1;" 
d="M520 1870l236 -277h-221l-252 277h237zM625 1311q-164 0 -265.5 76.5t-101.5 201.5h193q0 -55 46 -87t126 -32q83 0 129.5 31.5t46.5 87.5h192q0 -125 -101.5 -201.5t-264.5 -76.5zM625 1147q208 0 329 -102.5t121 -280.5v-764h-248v190h-4q-22 -98 -110.5 -154
t-223.5 -56q-174 0 -274 91t-100 248q0 166 114 257.5t320 91.5h270v94q0 83 -53 127.5t-150 44.5q-88 0 -144 -37t-62 -98h-244q9 158 134 253t325 95zM573 170q108 0 177 55t69 144v135h-264q-86 0 -135 -43.5t-49 -120.5q0 -80 53.5 -125t148.5 -45z" />
    <glyph glyph-name="uni1EB2" unicode="&#x1eb2;" 
d="M705 1815h-191l70 83q16 16 16 35q0 21 -25 21h-145v135h203q70 0 109.5 -32t39.5 -89q0 -54 -41 -106zM676 1597h-125q-146 0 -232 73.5t-86 199.5h175q0 -59 37.5 -92t105.5 -33h125q68 0 106.5 33.5t38.5 91.5h172q0 -126 -85.5 -199.5t-231.5 -73.5zM334 0h-262
l377 1495h329l379 -1495h-262l-82 362h-397zM553 975l-90 -404h303l-90 402q-52 241 -62 299q-21 -127 -61 -297z" />
    <glyph glyph-name="uni1EB3" unicode="&#x1eb3;" 
d="M631 1763q0 43 -56 43h-135v152h174q92 0 149.5 -45t57.5 -117q0 -64 -43 -117l-67 -86h-199l92 115q27 34 27 55zM625 1311q-164 0 -265.5 76.5t-101.5 201.5h193q0 -55 46 -87t126 -32q83 0 129.5 31.5t46.5 87.5h192q0 -125 -101.5 -201.5t-264.5 -76.5zM625 1147
q208 0 329 -102.5t121 -280.5v-764h-248v190h-4q-22 -98 -110.5 -154t-223.5 -56q-174 0 -274 91t-100 248q0 166 114 257.5t320 91.5h270v94q0 83 -53 127.5t-150 44.5q-88 0 -144 -37t-62 -98h-244q9 158 134 253t325 95zM573 170q108 0 177 55t69 144v135h-264
q-86 0 -135 -43.5t-49 -120.5q0 -80 53.5 -125t148.5 -45z" />
    <glyph glyph-name="uni1EB4" unicode="&#x1eb4;" 
d="M776 1872q-70 0 -127.5 20.5t-100.5 41t-77 20.5q-25 0 -40 -15.5t-15 -40.5v-12h-158v12q0 87 53.5 139t143.5 52q70 0 127 -20.5t99.5 -41t76.5 -20.5q25 0 40 15t15 40v13h158v-13q0 -88 -53 -139t-142 -51zM688 1597h-147q-131 0 -207 61t-76 173h174q0 -42 27.5 -64
t75.5 -22h159q48 0 75.5 22t27.5 64h174q0 -113 -75.5 -173.5t-207.5 -60.5zM334 0h-262l377 1495h329l379 -1495h-262l-82 362h-397zM553 975l-90 -404h303l-90 402q-52 241 -62 299q-21 -127 -61 -297z" />
    <glyph glyph-name="uni1EB5" unicode="&#x1eb5;" 
d="M430 1726v-59h-158v59q0 95 59 154t154 59q48 0 86 -14t61 -34.5t42 -40.5t40 -34t44 -14q29 0 45 15.5t16 42.5v65h158v-57q0 -96 -58.5 -154.5t-154.5 -58.5q-48 0 -85.5 14t-60.5 34.5t-42 40.5t-40 34t-44 14q-28 0 -45 -18t-17 -48zM625 1315q-159 0 -259 76.5
t-100 201.5h189q0 -56 45 -88t123 -32q80 0 126 32.5t46 87.5h188q0 -125 -99.5 -201.5t-258.5 -76.5zM625 1147q208 0 329 -102.5t121 -280.5v-764h-248v190h-4q-22 -98 -110.5 -154t-223.5 -56q-174 0 -274 91t-100 248q0 166 114 257.5t320 91.5h270v94q0 83 -53 127.5
t-150 44.5q-88 0 -144 -37t-62 -98h-244q9 158 134 253t325 95zM573 170q108 0 177 55t69 144v135h-264q-86 0 -135 -43.5t-49 -120.5q0 -80 53.5 -125t148.5 -45z" />
    <glyph glyph-name="uni1EB6" unicode="&#x1eb6;" 
d="M614 1642q-160 0 -258 84t-98 220h199q0 -67 43 -108.5t114 -41.5q72 0 116 41t44 109h199q0 -137 -99 -220.5t-260 -83.5zM334 0h-262l377 1495h329l379 -1495h-262l-82 362h-397zM553 975l-90 -404h303l-90 402q-52 241 -62 299q-21 -127 -61 -297zM614 -461
q-77 0 -122.5 40.5t-45.5 107.5q0 69 45.5 109t122.5 40t122.5 -40t45.5 -109q0 -67 -45.5 -107.5t-122.5 -40.5z" />
    <glyph glyph-name="uni1EB7" unicode="&#x1eb7;" 
d="M625 1305q-160 0 -259.5 83.5t-99.5 219.5h199q0 -67 44.5 -108.5t115.5 -41.5q72 0 115.5 41t43.5 109h199q0 -136 -98.5 -219.5t-259.5 -83.5zM625 1147q208 0 329 -102.5t121 -280.5v-764h-248v190h-4q-22 -98 -110.5 -154t-223.5 -56q-174 0 -274 91t-100 248
q0 166 114 257.5t320 91.5h270v94q0 83 -53 127.5t-150 44.5q-88 0 -144 -37t-62 -98h-244q9 158 134 253t325 95zM573 170q108 0 177 55t69 144v135h-264q-86 0 -135 -43.5t-49 -120.5q0 -80 53.5 -125t148.5 -45zM625 -164q77 0 122.5 -40t45.5 -109q0 -67 -45.5 -107.5
t-122.5 -40.5t-122.5 40.5t-45.5 107.5q0 69 45.5 109t122.5 40z" />
    <glyph glyph-name="uni1EB8" unicode="&#x1eb8;" 
d="M1077 0h-897v1495h897v-225h-645v-389h574v-217h-574v-439h645v-225zM655 -461q-77 0 -122.5 40.5t-45.5 107.5q0 69 45.5 109t122.5 40t122.5 -40t45.5 -109q0 -67 -45.5 -107.5t-122.5 -40.5z" />
    <glyph glyph-name="uni1EB9" unicode="&#x1eb9;" 
d="M1085 705v-203h-694v-80q0 -240 227 -240q176 0 207 117h252q-29 -145 -155 -232t-306 -87q-215 0 -344 121t-129 321v283q0 200 129 321t344 121q213 0 341 -121t128 -321zM391 705v-43l447 4v41q0 118 -56 179.5t-166 61.5q-111 0 -168 -62.5t-57 -180.5zM614 -164
q77 0 122.5 -40t45.5 -109q0 -67 -45.5 -107.5t-122.5 -40.5t-122.5 40.5t-45.5 107.5q0 69 45.5 109t122.5 40z" />
    <glyph glyph-name="uni1EBA" unicode="&#x1eba;" 
d="M756 1634h-205l98 123q29 39 29 62q0 20 -14 28t-46 8h-159v158h194q97 0 156 -46t59 -122q0 -66 -41 -116zM1077 0h-897v1495h897v-225h-645v-389h574v-217h-574v-439h645v-225z" />
    <glyph glyph-name="uni1EBB" unicode="&#x1ebb;" 
d="M641 1505q0 21 -14 30t-45 9h-164v156h215q90 0 144 -45t54 -121q0 -70 -40 -119l-76 -94h-205l102 123q29 39 29 61zM1085 705v-203h-694v-80q0 -240 227 -240q176 0 207 117h252q-29 -145 -155 -232t-306 -87q-215 0 -344 121t-129 321v283q0 200 129 321t344 121
q213 0 341 -121t128 -321zM391 705v-43l447 4v41q0 118 -56 179.5t-166 61.5q-111 0 -168 -62.5t-57 -180.5z" />
    <glyph glyph-name="uni1EBC" unicode="&#x1ebc;" 
d="M799 1651q-47 0 -85 13.5t-62 32.5t-44 38.5t-41.5 33t-44.5 13.5q-28 0 -44.5 -18t-16.5 -50v-53h-158v68q0 100 58 162.5t151 62.5q47 0 85 -13.5t61.5 -33t43.5 -38.5t41.5 -32.5t44.5 -13.5q28 0 45 16.5t17 46.5v58h158v-68q0 -100 -58 -162.5t-151 -62.5zM1077 0
h-897v1495h897v-225h-645v-389h574v-217h-574v-439h645v-225z" />
    <glyph glyph-name="uni1EBD" unicode="&#x1ebd;" 
d="M420 1376v-53h-158v68q0 100 58 162.5t151 62.5q47 0 85 -13.5t62 -33t44 -38.5t41.5 -32.5t44.5 -13.5q28 0 44.5 16.5t16.5 46.5v58h158v-68q0 -100 -58 -162.5t-151 -62.5q-47 0 -85 13.5t-62 32.5t-44 38.5t-41.5 33t-44.5 13.5q-28 0 -44.5 -18t-16.5 -50zM1085 705
v-203h-694v-80q0 -240 227 -240q176 0 207 117h252q-29 -145 -155 -232t-306 -87q-215 0 -344 121t-129 321v283q0 200 129 321t344 121q213 0 341 -121t128 -321zM391 705v-43l447 4v41q0 118 -56 179.5t-166 61.5q-111 0 -168 -62.5t-57 -180.5z" />
    <glyph glyph-name="uni1EBE" unicode="&#x1ebe;" 
d="M1135 1849h-244l215 240h260zM504 1597h-248l281 287h237l281 -287h-248l-152 150zM1077 0h-897v1495h897v-225h-645v-389h574v-217h-574v-439h645v-225z" />
    <glyph glyph-name="uni1EBF" unicode="&#x1ebf;" 
d="M852 1556l242 287h258l-258 -287h-242zM766 1321l-152 149l-151 -149h-248l281 287h237l281 -287h-248zM616 1147q213 0 341 -121t128 -321v-203h-694v-80q0 -240 227 -240q176 0 207 117h252q-29 -145 -155 -232t-306 -87q-215 0 -344 121t-129 321v283q0 200 129 321
t344 121zM391 705v-43l447 4v41q0 118 -56 179.5t-166 61.5q-111 0 -168 -62.5t-57 -180.5z" />
    <glyph glyph-name="uni1EC0" unicode="&#x1ec0;" 
d="M1206 1849h-241l-240 240h258zM504 1597h-248l281 287h237l281 -287h-248l-152 150zM1077 0h-897v1495h897v-225h-645v-389h574v-217h-574v-439h645v-225z" />
    <glyph glyph-name="uni1EC1" unicode="&#x1ec1;" 
d="M944 1843l250 -287h-242l-266 287h258zM766 1321l-152 149l-151 -149h-248l281 287h237l281 -287h-248zM616 1147q213 0 341 -121t128 -321v-203h-694v-80q0 -240 227 -240q176 0 207 117h252q-29 -145 -155 -232t-306 -87q-215 0 -344 121t-129 321v283q0 200 129 321
t344 121zM391 705v-43l447 4v41q0 118 -56 179.5t-166 61.5q-111 0 -168 -62.5t-57 -180.5z" />
    <glyph glyph-name="uni1EC2" unicode="&#x1ec2;" 
d="M1120 1790h-196l80 82q22 19 22 43q0 33 -43 33h-139v141h186q86 0 136.5 -40.5t50.5 -111.5q0 -61 -43 -98zM504 1597h-248l281 287h237l281 -287h-248l-152 150zM1077 0h-897v1495h897v-225h-645v-389h574v-217h-574v-439h645v-225z" />
    <glyph glyph-name="uni1EC3" unicode="&#x1ec3;" 
d="M791 1927h172q96 0 153.5 -45.5t57.5 -120.5q0 -63 -41 -112l-72 -93h-195l97 121q26 36 26 56q0 41 -59 41h-139v153zM766 1321l-152 149l-151 -149h-248l281 287h237l281 -287h-248zM616 1147q213 0 341 -121t128 -321v-203h-694v-80q0 -240 227 -240q176 0 207 117
h252q-29 -145 -155 -232t-306 -87q-215 0 -344 121t-129 321v283q0 200 129 321t344 121zM391 705v-43l447 4v41q0 118 -56 179.5t-166 61.5q-111 0 -168 -62.5t-57 -180.5z" />
    <glyph glyph-name="uni1EC4" unicode="&#x1ec4;" 
d="M817 1872q-70 0 -127.5 20.5t-100.5 41t-77 20.5q-25 0 -40 -15.5t-15 -40.5v-12h-158v12q0 87 53.5 139t143.5 52q70 0 127 -20.5t99.5 -41t76.5 -20.5q25 0 40 15t15 40v13h158v-13q0 -88 -53 -139t-142 -51zM504 1597h-248l213 218h373l213 -218h-250l-150 152z
M1077 0h-897v1495h897v-225h-645v-389h574v-217h-574v-439h645v-225z" />
    <glyph glyph-name="uni1EC5" unicode="&#x1ec5;" 
d="M420 1739v-47h-158v47q0 95 59 154t154 59q48 0 86 -13t61 -31t42 -36.5t40 -31.5t44 -13q29 0 45 15.5t16 43.5v51h158v-45q0 -95 -59 -154t-154 -59q-58 0 -102.5 19.5t-66.5 43t-49 43t-55 19.5t-44.5 -17.5t-16.5 -47.5zM766 1321l-152 149l-151 -149h-248l281 287
h237l281 -287h-248zM1085 705v-203h-694v-80q0 -240 227 -240q176 0 207 117h252q-29 -145 -155 -232t-306 -87q-215 0 -344 121t-129 321v283q0 200 129 321t344 121q213 0 341 -121t128 -321zM391 705v-43l447 4v41q0 118 -56 179.5t-166 61.5q-111 0 -168 -62.5
t-57 -180.5z" />
    <glyph glyph-name="uni1EC6" unicode="&#x1ec6;" 
d="M504 1659h-248l281 287h237l281 -287h-246l-156 149zM1077 0h-897v1495h897v-225h-645v-389h574v-217h-574v-439h645v-225zM655 -461q-77 0 -122.5 40.5t-45.5 107.5q0 69 45.5 109t122.5 40t122.5 -40t45.5 -109q0 -67 -45.5 -107.5t-122.5 -40.5z" />
    <glyph glyph-name="uni1EC7" unicode="&#x1ec7;" 
d="M768 1321l-156 149l-149 -149h-248l281 287h237l281 -287h-246zM1085 705v-203h-694v-80q0 -240 227 -240q176 0 207 117h252q-29 -145 -155 -232t-306 -87q-215 0 -344 121t-129 321v283q0 200 129 321t344 121q213 0 341 -121t128 -321zM391 705v-43l447 4v41
q0 118 -56 179.5t-166 61.5q-111 0 -168 -62.5t-57 -180.5zM614 -164q77 0 122.5 -40t45.5 -109q0 -67 -45.5 -107.5t-122.5 -40.5t-122.5 40.5t-45.5 107.5q0 69 45.5 109t122.5 40z" />
    <glyph glyph-name="uni1EC8" unicode="&#x1ec8;" 
d="M715 1634h-205l98 123q29 39 29 62q0 20 -14 28t-45 8h-160v158h194q97 0 156 -46t59 -122q0 -66 -41 -116zM1044 0h-860v231h301v1033h-301v231h860v-231h-301v-1033h301v-231z" />
    <glyph glyph-name="uni1EC9" unicode="&#x1ec9;" horiz-adv-x="1024" 
d="M631 1321h-205l102 123q29 39 29 61q0 21 -14 30t-45 9h-164v156h215q90 0 144.5 -45t54.5 -121q0 -69 -41 -119zM952 0h-817v231h293v664h-244v231h500v-895h268v-231z" />
    <glyph glyph-name="uni1ECA" unicode="&#x1eca;" 
d="M1044 0h-860v231h301v1033h-301v231h860v-231h-301v-1033h301v-231zM614 -461q-77 0 -122.5 40.5t-45.5 107.5q0 69 45.5 109t122.5 40t122.5 -40t45.5 -109q0 -67 -45.5 -107.5t-122.5 -40.5z" />
    <glyph glyph-name="uni1ECB" unicode="&#x1ecb;" horiz-adv-x="1024" 
d="M530 1315q-77 0 -122.5 39t-45.5 108q0 67 45.5 107.5t122.5 40.5t122.5 -40.5t45.5 -107.5q0 -69 -45.5 -108t-122.5 -39zM952 0h-817v231h293v664h-244v231h500v-895h268v-231zM539 -461q-77 0 -122.5 40.5t-45.5 107.5q0 69 45.5 109t122.5 40t122.5 -40t45.5 -109
q0 -67 -45.5 -107.5t-122.5 -40.5z" />
    </font>
</defs>
</svg>
