<?xml version="1.0" standalone="no"?>
<!DOCTYPE svg PUBLIC "-//W3C//DTD SVG 1.1//EN" "http://www.w3.org/Graphics/SVG/1.1/DTD/svg11.dtd" >
<svg xmlns="http://www.w3.org/2000/svg" xmlns:xlink="http://www.w3.org/1999/xlink" version="1.1">
<metadata>
Created by FontForge 20170731 at Thu Nov 16 19:43:53 2023
 By Aleksey,,,
Copyright 2021 Alessio Laiso, Mario Rullo, Paolo Rosset
</metadata>
<defs>
<font id="TekneLDO-SemiBold" horiz-adv-x="1228" >
  <font-face 
    font-family="Tekne LDO SemiBold"
    font-weight="600"
    font-stretch="normal"
    units-per-em="2048"
    panose-1="2 0 0 9 0 0 0 0 0 0"
    ascent="1638"
    descent="-410"
    x-height="1126"
    cap-height="1495"
    bbox="-3541 -819 1473 2294"
    underline-thickness="102"
    underline-position="-419"
    unicode-range="U+000D-1D54A"
  />
<missing-glyph 
d="M1044 0h-860v1495h860v-1495zM287 1393v-1170l614 1170h-614zM942 1272l-614 -1170h614v1170z" />
    <glyph glyph-name=".notdef" 
d="M1044 0h-860v1495h860v-1495zM287 1393v-1170l614 1170h-614zM942 1272l-614 -1170h614v1170z" />
    <glyph glyph-name=".null" horiz-adv-x="0" 
 />
    <glyph glyph-name="nonmarkingreturn" horiz-adv-x="682" 
 />
    <glyph glyph-name="uni2400" unicode="&#x2400;" 
d="M115 502h-68v493h92l144 -409q-9 83 -9 153v256h68v-493h-92l-144 409q9 -79 9 -151v-258zM602 496q-70 0 -108.5 38t-38.5 105v356h71v-356q0 -37 20 -58.5t56 -21.5t56 21.5t20 58.5v356h72v-356q0 -68 -39 -105.5t-109 -37.5zM1204 502h-289v493h74v-428h215v-65z" />
    <glyph glyph-name="uni2400" 
d="M115 502h-68v493h92l144 -409q-9 83 -9 153v256h68v-493h-92l-144 409q9 -79 9 -151v-258zM602 496q-70 0 -108.5 38t-38.5 105v356h71v-356q0 -37 20 -58.5t56 -21.5t56 21.5t20 58.5v356h72v-356q0 -68 -39 -105.5t-109 -37.5zM1204 502h-289v493h74v-428h215v-65z" />
    <glyph glyph-name="uni2401" unicode="&#x2401;" 
d="M197 496q-74 0 -118 37t-44 100h74q0 -34 24 -54t64 -20t63 20t23 54q0 26 -15.5 47t-40.5 27l-67 20q-54 15 -83.5 51.5t-29.5 87.5q0 61 41 98t109 37q69 0 109 -35.5t40 -97.5h-72q0 32 -21 51t-56 19t-56.5 -19t-21.5 -51q0 -53 55 -69l70 -21q52 -15 81 -52.5
t29 -90.5q0 -63 -43 -101t-114 -38zM602 496q-69 0 -109 38.5t-40 104.5v219q0 66 40 104.5t109 38.5t109.5 -38.5t40.5 -104.5v-219q0 -66 -40.5 -104.5t-109.5 -38.5zM963 502h-74v493h74v-204h143v204h74v-493h-74v223h-143v-223zM602 559q37 0 56.5 21t19.5 59v219
q0 38 -19.5 59t-56.5 21t-56.5 -21t-19.5 -59v-219q0 -38 19.5 -59t56.5 -21z" />
    <glyph glyph-name="uni2401" 
d="M197 496q-74 0 -118 37t-44 100h74q0 -34 24 -54t64 -20t63 20t23 54q0 26 -15.5 47t-40.5 27l-67 20q-54 15 -83.5 51.5t-29.5 87.5q0 61 41 98t109 37q69 0 109 -35.5t40 -97.5h-72q0 32 -21 51t-56 19t-56.5 -19t-21.5 -51q0 -53 55 -69l70 -21q52 -15 81 -52.5
t29 -90.5q0 -63 -43 -101t-114 -38zM602 496q-69 0 -109 38.5t-40 104.5v219q0 66 40 104.5t109 38.5t109.5 -38.5t40.5 -104.5v-219q0 -66 -40.5 -104.5t-109.5 -38.5zM963 502h-74v493h74v-204h143v204h74v-493h-74v223h-143v-223zM602 559q37 0 56.5 21t19.5 59v219
q0 38 -19.5 59t-56.5 21t-56.5 -21t-19.5 -59v-219q0 -38 19.5 -59t56.5 -21z" />
    <glyph glyph-name="uni2402" unicode="&#x2402;" 
d="M197 496q-74 0 -118 37t-44 100h74q0 -34 24 -54t64 -20t63 20t23 54q0 26 -15.5 47t-40.5 27l-67 20q-54 15 -83.5 51.5t-29.5 87.5q0 61 41 98t109 37q69 0 109 -35.5t40 -97.5h-72q0 32 -21 51t-56 19t-56.5 -19t-21.5 -51q0 -53 55 -69l70 -21q52 -15 81 -52.5
t29 -90.5q0 -63 -43 -101t-114 -38zM639 502h-74v428h-131v65h336v-65h-131v-428zM934 502h-80l139 252l-131 241h82l70 -135q20 -40 22 -45q6 15 21 45l69 135h80l-131 -239l139 -254h-81l-78 145q-15 33 -23 47q-10 -25 -20 -45z" />
    <glyph glyph-name="uni2402" 
d="M197 496q-74 0 -118 37t-44 100h74q0 -34 24 -54t64 -20t63 20t23 54q0 26 -15.5 47t-40.5 27l-67 20q-54 15 -83.5 51.5t-29.5 87.5q0 61 41 98t109 37q69 0 109 -35.5t40 -97.5h-72q0 32 -21 51t-56 19t-56.5 -19t-21.5 -51q0 -53 55 -69l70 -21q52 -15 81 -52.5
t29 -90.5q0 -63 -43 -101t-114 -38zM639 502h-74v428h-131v65h336v-65h-131v-428zM934 502h-80l139 252l-131 241h82l70 -135q20 -40 22 -45q6 15 21 45l69 135h80l-131 -239l139 -254h-81l-78 145q-15 33 -23 47q-10 -25 -20 -45z" />
    <glyph glyph-name="uni2403" unicode="&#x2403;" 
d="M346 502h-291v493h291v-65h-219v-139h195v-64h-195v-160h219v-65zM639 502h-74v428h-131v65h336v-65h-131v-428zM934 502h-80l139 252l-131 241h82l70 -135q20 -40 22 -45q6 15 21 45l69 135h80l-131 -239l139 -254h-81l-78 145q-15 33 -23 47q-10 -25 -20 -45z" />
    <glyph glyph-name="uni2403" 
d="M346 502h-291v493h291v-65h-219v-139h195v-64h-195v-160h219v-65zM639 502h-74v428h-131v65h336v-65h-131v-428zM934 502h-80l139 252l-131 241h82l70 -135q20 -40 22 -45q6 15 21 45l69 135h80l-131 -239l139 -254h-81l-78 145q-15 33 -23 47q-10 -25 -20 -45z" />
    <glyph glyph-name="uni2404" unicode="&#x2404;" 
d="M602 496q-69 0 -109 38.5t-40 104.5v219q0 66 40 104.5t109 38.5t109.5 -38.5t40.5 -104.5v-219q0 -66 -40.5 -104.5t-109.5 -38.5zM346 502h-291v493h291v-65h-219v-139h195v-64h-195v-160h219v-65zM1071 502h-74v428h-131v65h336v-65h-131v-428zM602 559q37 0 56.5 21
t19.5 59v219q0 38 -19.5 59t-56.5 21t-56.5 -21t-19.5 -59v-219q0 -38 19.5 -59t56.5 -21z" />
    <glyph glyph-name="uni2404" 
d="M602 496q-69 0 -109 38.5t-40 104.5v219q0 66 40 104.5t109 38.5t109.5 -38.5t40.5 -104.5v-219q0 -66 -40.5 -104.5t-109.5 -38.5zM346 502h-291v493h291v-65h-219v-139h195v-64h-195v-160h219v-65zM1071 502h-74v428h-131v65h336v-65h-131v-428zM602 559q37 0 56.5 21
t19.5 59v219q0 38 -19.5 59t-56.5 21t-56.5 -21t-19.5 -59v-219q0 -38 19.5 -59t56.5 -21z" />
    <glyph glyph-name="uni2405" unicode="&#x2405;" 
d="M1112 512l82 -131h-82l-70 115h-8q-69 0 -111 39.5t-42 105.5v215q0 66 41.5 105.5t111.5 39.5q69 0 111.5 -39.5t42.5 -105.5v-215q0 -44 -20 -78t-56 -51zM346 502h-291v493h291v-65h-219v-139h195v-64h-195v-160h219v-65zM682 739v256h68v-493h-93l-143 409
q8 -70 8 -151v-258h-67v493h92l143 -409q-8 74 -8 153zM1034 559q37 0 58.5 22.5t21.5 59.5v215q0 37 -21.5 59.5t-58.5 22.5t-58.5 -22.5t-21.5 -59.5v-215q0 -37 21.5 -59.5t58.5 -22.5z" />
    <glyph glyph-name="uni2405" 
d="M1112 512l82 -131h-82l-70 115h-8q-69 0 -111 39.5t-42 105.5v215q0 66 41.5 105.5t111.5 39.5q69 0 111.5 -39.5t42.5 -105.5v-215q0 -44 -20 -78t-56 -51zM346 502h-291v493h291v-65h-219v-139h195v-64h-195v-160h219v-65zM682 739v256h68v-493h-93l-143 409
q8 -70 8 -151v-258h-67v493h92l143 -409q-8 74 -8 153zM1034 559q37 0 58.5 22.5t21.5 59.5v215q0 37 -21.5 59.5t-58.5 22.5t-58.5 -22.5t-21.5 -59.5v-215q0 -37 21.5 -59.5t58.5 -22.5z" />
    <glyph glyph-name="uni2406" unicode="&#x2406;" 
d="M604 496q-69 0 -110 38.5t-41 104.5v219q0 66 41 104.5t110 38.5t110.5 -38.5t41.5 -104.5h-74q0 38 -20.5 59t-57.5 21t-57.5 -21t-20.5 -59v-219q0 -38 20.5 -59t57.5 -21t57.5 21t20.5 59h74q0 -66 -41.5 -104.5t-110.5 -38.5zM94 502h-74l127 493h95l127 -493h-74
l-31 125h-139zM961 502h-72v493h72v-207h65l102 207h78l-114 -235l120 -258h-82l-104 223h-65v-223zM172 829l-33 -141h111l-33 141q-18 76 -22 105q-3 -18 -23 -105z" />
    <glyph glyph-name="uni2406" 
d="M604 496q-69 0 -110 38.5t-41 104.5v219q0 66 41 104.5t110 38.5t110.5 -38.5t41.5 -104.5h-74q0 38 -20.5 59t-57.5 21t-57.5 -21t-20.5 -59v-219q0 -38 20.5 -59t57.5 -21t57.5 21t20.5 59h74q0 -66 -41.5 -104.5t-110.5 -38.5zM94 502h-74l127 493h95l127 -493h-74
l-31 125h-139zM961 502h-72v493h72v-207h65l102 207h78l-114 -235l120 -258h-82l-104 223h-65v-223zM172 829l-33 -141h111l-33 141q-18 76 -22 105q-3 -18 -23 -105z" />
    <glyph glyph-name="uni2407" unicode="&#x2407;" 
d="M266 762q41 -9 65.5 -41.5t24.5 -79.5q0 -64 -41 -101.5t-112 -37.5h-154v493h146q69 0 109 -34t40 -93q0 -41 -20.5 -69t-57.5 -37zM766 502h-291v493h291v-65h-219v-139h194v-64h-194v-160h219v-65zM989 995v-428h215v-65h-289v493h74zM195 932h-74v-144h74q35 0 56 19
t21 53t-21 53t-56 19zM121 565h78q39 0 61.5 21t22.5 57q0 38 -23 61t-61 23h-78v-162z" />
    <glyph glyph-name="uni2407" 
d="M266 762q41 -9 65.5 -41.5t24.5 -79.5q0 -64 -41 -101.5t-112 -37.5h-154v493h146q69 0 109 -34t40 -93q0 -41 -20.5 -69t-57.5 -37zM766 502h-291v493h291v-65h-219v-139h194v-64h-194v-160h219v-65zM989 995v-428h215v-65h-289v493h74zM195 932h-74v-144h74q35 0 56 19
t21 53t-21 53t-56 19zM121 565h78q39 0 61.5 21t22.5 57q0 38 -23 61t-61 23h-78v-162z" />
    <glyph glyph-name="uni2408" unicode="&#x2408;" 
d="M801 799l69 -21q52 -15 81.5 -52.5t29.5 -90.5q0 -63 -43.5 -101t-114.5 -38q-74 0 -117.5 37t-43.5 100h73q0 -34 24 -54t64 -20t63 20t23 54q0 27 -15 47.5t-40 26.5l-68 20q-54 15 -83 51.5t-29 87.5q0 61 40.5 98t108.5 37q69 0 109.5 -36t40.5 -97h-72
q0 32 -21.5 51t-56.5 19t-56.5 -19t-21.5 -51q0 -53 56 -69zM477 762q41 -9 65.5 -41.5t24.5 -79.5q0 -64 -41 -101.5t-112 -37.5h-154v493h146q69 0 109 -34t40 -93q0 -41 -20.5 -69t-57.5 -37zM406 932h-74v-144h74q35 0 56 19t21 53t-21 53t-56 19zM332 565h78
q39 0 61.5 21t22.5 57q0 38 -23 61t-61 23h-78v-162z" />
    <glyph glyph-name="uni2408" 
d="M801 799l69 -21q52 -15 81.5 -52.5t29.5 -90.5q0 -63 -43.5 -101t-114.5 -38q-74 0 -117.5 37t-43.5 100h73q0 -34 24 -54t64 -20t63 20t23 54q0 27 -15 47.5t-40 26.5l-68 20q-54 15 -83 51.5t-29 87.5q0 61 40.5 98t108.5 37q69 0 109.5 -36t40.5 -97h-72
q0 32 -21.5 51t-56.5 19t-56.5 -19t-21.5 -51q0 -53 56 -69zM477 762q41 -9 65.5 -41.5t24.5 -79.5q0 -64 -41 -101.5t-112 -37.5h-154v493h146q69 0 109 -34t40 -93q0 -41 -20.5 -69t-57.5 -37zM406 932h-74v-144h74q35 0 56 19t21 53t-21 53t-56 19zM332 565h78
q39 0 61.5 21t22.5 57q0 38 -23 61t-61 23h-78v-162z" />
    <glyph glyph-name="uni240B" unicode="&#x240b;" 
d="M455 502h-99l-125 493h76l78 -329q13 -50 23 -101q1 11 20 103l78 327h74zM858 502h-74v428h-131v65h336v-65h-131v-428z" />
    <glyph glyph-name="uni240B" 
d="M455 502h-99l-125 493h76l78 -329q13 -50 23 -101q1 11 20 103l78 327h74zM858 502h-74v428h-131v65h336v-65h-131v-428z" />
    <glyph glyph-name="uni240C" unicode="&#x240c;" 
d="M336 502h-74v493h299v-67h-227v-148h209v-67h-207v-211zM752 502h-74v493h299v-67h-227v-148h208v-67h-206v-211z" />
    <glyph glyph-name="uni240C" 
d="M336 502h-74v493h299v-67h-227v-148h209v-67h-207v-211zM752 502h-74v493h299v-67h-227v-148h208v-67h-206v-211z" />
    <glyph glyph-name="CR" unicode="&#xd;" horiz-adv-x="819" 
 />
    <glyph glyph-name="uni240E" unicode="&#x240e;" 
d="M408 496q-74 0 -118 37t-44 100h73q0 -34 24.5 -54t64.5 -20t63 20t23 54q0 26 -15.5 47t-40.5 27l-67 20q-54 15 -83.5 51.5t-29.5 87.5q0 61 41 98t109 37q69 0 109 -35.5t40 -97.5h-72q0 32 -21 51t-56 19t-56.5 -19t-21.5 -51q0 -53 55 -69l70 -21q52 -15 81 -52.5
t29 -90.5q0 -63 -43 -101t-114 -38zM821 496q-69 0 -109 38.5t-40 104.5v219q0 66 40 104.5t109 38.5t109.5 -38.5t40.5 -104.5v-219q0 -66 -40.5 -104.5t-109.5 -38.5zM821 559q37 0 56.5 21t19.5 59v219q0 38 -19.5 59t-56.5 21t-56.5 -21t-19.5 -59v-219q0 -38 19.5 -59
t56.5 -21z" />
    <glyph glyph-name="uni240E" 
d="M408 496q-74 0 -118 37t-44 100h73q0 -34 24.5 -54t64.5 -20t63 20t23 54q0 26 -15.5 47t-40.5 27l-67 20q-54 15 -83.5 51.5t-29.5 87.5q0 61 41 98t109 37q69 0 109 -35.5t40 -97.5h-72q0 32 -21 51t-56 19t-56.5 -19t-21.5 -51q0 -53 55 -69l70 -21q52 -15 81 -52.5
t29 -90.5q0 -63 -43 -101t-114 -38zM821 496q-69 0 -109 38.5t-40 104.5v219q0 66 40 104.5t109 38.5t109.5 -38.5t40.5 -104.5v-219q0 -66 -40.5 -104.5t-109.5 -38.5zM821 559q37 0 56.5 21t19.5 59v219q0 38 -19.5 59t-56.5 21t-56.5 -21t-19.5 -59v-219q0 -38 19.5 -59
t56.5 -21z" />
    <glyph glyph-name="uni240F" unicode="&#x240f;" 
d="M408 496q-74 0 -118 37t-44 100h73q0 -34 24.5 -54t64.5 -20t63 20t23 54q0 26 -15.5 47t-40.5 27l-67 20q-54 15 -83.5 51.5t-29.5 87.5q0 61 41 98t109 37q69 0 109 -35.5t40 -97.5h-72q0 32 -21 51t-56 19t-56.5 -19t-21.5 -51q0 -53 55 -69l70 -21q52 -15 81 -52.5
t29 -90.5q0 -63 -43 -101t-114 -38zM958 502h-274v65h100v363h-100v65h274v-65h-100v-363h100v-65z" />
    <glyph glyph-name="uni240F" 
d="M408 496q-74 0 -118 37t-44 100h73q0 -34 24.5 -54t64.5 -20t63 20t23 54q0 26 -15.5 47t-40.5 27l-67 20q-54 15 -83.5 51.5t-29.5 87.5q0 61 41 98t109 37q69 0 109 -35.5t40 -97.5h-72q0 32 -21 51t-56 19t-56.5 -19t-21.5 -51q0 -53 55 -69l70 -21q52 -15 81 -52.5
t29 -90.5q0 -63 -43 -101t-114 -38zM958 502h-274v65h100v363h-100v65h274v-65h-100v-363h100v-65z" />
    <glyph glyph-name="uni2410" unicode="&#x2410;" 
d="M186 502h-139v493h139q72 0 116 -41t44 -110v-191q0 -69 -44 -110t-116 -41zM772 502h-289v493h74v-428h215v-65zM1186 502h-291v493h291v-65h-219v-139h194v-64h-194v-160h219v-65zM121 930v-363h65q40 0 63 23t23 63v191q0 40 -23 63t-63 23h-65z" />
    <glyph glyph-name="uni2410" 
d="M186 502h-139v493h139q72 0 116 -41t44 -110v-191q0 -69 -44 -110t-116 -41zM772 502h-289v493h74v-428h215v-65zM1186 502h-291v493h291v-65h-219v-139h194v-64h-194v-160h219v-65zM121 930v-363h65q40 0 63 23t23 63v191q0 40 -23 63t-63 23h-65z" />
    <glyph glyph-name="uni2411" unicode="&#x2411;" 
d="M604 496q-69 0 -110 38.5t-41 104.5v219q0 66 41 104.5t110 38.5t110.5 -38.5t41.5 -104.5h-74q0 38 -20.5 59t-57.5 21t-57.5 -21t-20.5 -59v-219q0 -38 20.5 -59t57.5 -21t57.5 21t20.5 59h74q0 -66 -41.5 -104.5t-110.5 -38.5zM186 502h-139v493h139q72 0 116 -41
t44 -110v-191q0 -69 -44 -110t-116 -41zM1200 502h-309v65h131v365l-131 -98v79l113 82h90v-428h106v-65zM121 930v-363h65q40 0 63 23t23 63v191q0 40 -23 63t-63 23h-65z" />
    <glyph glyph-name="uni2411" 
d="M604 496q-69 0 -110 38.5t-41 104.5v219q0 66 41 104.5t110 38.5t110.5 -38.5t41.5 -104.5h-74q0 38 -20.5 59t-57.5 21t-57.5 -21t-20.5 -59v-219q0 -38 20.5 -59t57.5 -21t57.5 21t20.5 59h74q0 -66 -41.5 -104.5t-110.5 -38.5zM186 502h-139v493h139q72 0 116 -41
t44 -110v-191q0 -69 -44 -110t-116 -41zM1200 502h-309v65h131v365l-131 -98v79l113 82h90v-428h106v-65zM121 930v-363h65q40 0 63 23t23 63v191q0 40 -23 63t-63 23h-65z" />
    <glyph glyph-name="uni2412" unicode="&#x2412;" 
d="M604 496q-69 0 -110 38.5t-41 104.5v219q0 66 41 104.5t110 38.5t110.5 -38.5t41.5 -104.5h-74q0 38 -20.5 59t-57.5 21t-57.5 -21t-20.5 -59v-219q0 -38 20.5 -59t57.5 -21t57.5 21t20.5 59h74q0 -66 -41.5 -104.5t-110.5 -38.5zM1190 502h-301v69l162 172q59 62 59 111
q0 38 -21.5 60t-58.5 22t-59.5 -22.5t-22.5 -61.5h-71q1 69 42.5 109t110.5 40q71 0 112.5 -38.5t41.5 -104.5q0 -73 -86 -162l-121 -129h213v-65zM186 502h-139v493h139q72 0 116 -41t44 -110v-191q0 -69 -44 -110t-116 -41zM121 930v-363h65q40 0 63 23t23 63v191
q0 40 -23 63t-63 23h-65z" />
    <glyph glyph-name="uni2412" 
d="M604 496q-69 0 -110 38.5t-41 104.5v219q0 66 41 104.5t110 38.5t110.5 -38.5t41.5 -104.5h-74q0 38 -20.5 59t-57.5 21t-57.5 -21t-20.5 -59v-219q0 -38 20.5 -59t57.5 -21t57.5 21t20.5 59h74q0 -66 -41.5 -104.5t-110.5 -38.5zM1190 502h-301v69l162 172q59 62 59 111
q0 38 -21.5 60t-58.5 22t-59.5 -22.5t-22.5 -61.5h-71q1 69 42.5 109t110.5 40q71 0 112.5 -38.5t41.5 -104.5q0 -73 -86 -162l-121 -129h213v-65zM186 502h-139v493h139q72 0 116 -41t44 -110v-191q0 -69 -44 -110t-116 -41zM121 930v-363h65q40 0 63 23t23 63v191
q0 40 -23 63t-63 23h-65z" />
    <glyph glyph-name="uni2413" unicode="&#x2413;" 
d="M604 938q-37 0 -57.5 -21t-20.5 -59v-219q0 -38 20.5 -59t57.5 -21t57.5 21t20.5 59h74q0 -66 -41.5 -104.5t-110.5 -38.5t-110 38.5t-41 104.5v219q0 66 41 104.5t110 38.5t110.5 -38.5t41.5 -104.5h-74q0 38 -20.5 59t-57.5 21zM47 995h139q72 0 116 -41t44 -110v-191
q0 -69 -44 -110t-116 -41h-139v493zM1165 932l-110 -119q59 -6 93 -43.5t34 -97.5v-35q0 -64 -42.5 -102.5t-111.5 -38.5t-111.5 38.5t-42.5 102.5h74q0 -37 21.5 -57.5t58.5 -20.5q38 0 60 21t22 57v35q0 38 -22 59t-60 21h-55v59l112 121h-188v63h268v-63zM272 653v191
q0 40 -23 63t-63 23h-65v-363h65q40 0 63 23t23 63z" />
    <glyph glyph-name="uni2413" 
d="M604 938q-37 0 -57.5 -21t-20.5 -59v-219q0 -38 20.5 -59t57.5 -21t57.5 21t20.5 59h74q0 -66 -41.5 -104.5t-110.5 -38.5t-110 38.5t-41 104.5v219q0 66 41 104.5t110 38.5t110.5 -38.5t41.5 -104.5h-74q0 38 -20.5 59t-57.5 21zM47 995h139q72 0 116 -41t44 -110v-191
q0 -69 -44 -110t-116 -41h-139v493zM1165 932l-110 -119q59 -6 93 -43.5t34 -97.5v-35q0 -64 -42.5 -102.5t-111.5 -38.5t-111.5 38.5t-42.5 102.5h74q0 -37 21.5 -57.5t58.5 -20.5q38 0 60 21t22 57v35q0 38 -22 59t-60 21h-55v59l112 121h-188v63h268v-63zM272 653v191
q0 40 -23 63t-63 23h-65v-363h65q40 0 63 23t23 63z" />
    <glyph glyph-name="uni2414" unicode="&#x2414;" 
d="M604 496q-69 0 -110 38.5t-41 104.5v219q0 66 41 104.5t110 38.5t110.5 -38.5t41.5 -104.5h-74q0 38 -20.5 59t-57.5 21t-57.5 -21t-20.5 -59v-219q0 -38 20.5 -59t57.5 -21t57.5 21t20.5 59h74q0 -66 -41.5 -104.5t-110.5 -38.5zM186 502h-139v493h139q72 0 116 -41
t44 -110v-191q0 -69 -44 -110t-116 -41zM1169 502h-73v102h-222v109l183 282h80l-191 -299v-26h150v116h73v-284zM121 930v-363h65q40 0 63 23t23 63v191q0 40 -23 63t-63 23h-65z" />
    <glyph glyph-name="uni2414" 
d="M604 496q-69 0 -110 38.5t-41 104.5v219q0 66 41 104.5t110 38.5t110.5 -38.5t41.5 -104.5h-74q0 38 -20.5 59t-57.5 21t-57.5 -21t-20.5 -59v-219q0 -38 20.5 -59t57.5 -21t57.5 21t20.5 59h74q0 -66 -41.5 -104.5t-110.5 -38.5zM186 502h-139v493h139q72 0 116 -41
t44 -110v-191q0 -69 -44 -110t-116 -41zM1169 502h-73v102h-222v109l183 282h80l-191 -299v-26h150v116h73v-284zM121 930v-363h65q40 0 63 23t23 63v191q0 40 -23 63t-63 23h-65z" />
    <glyph glyph-name="uni2415" unicode="&#x2415;" 
d="M115 502h-68v493h92l144 -409q-9 83 -9 153v256h68v-493h-92l-144 409q9 -79 9 -151v-258zM502 502h-74l127 493h94l127 -493h-74l-30 125h-140zM961 502h-72v493h72v-207h65l102 207h78l-114 -235l120 -258h-82l-104 223h-65v-223zM580 829l-33 -141h110l-32 141
q-20 87 -23 105q-4 -29 -22 -105z" />
    <glyph glyph-name="uni2415" 
d="M115 502h-68v493h92l144 -409q-9 83 -9 153v256h68v-493h-92l-144 409q9 -79 9 -151v-258zM502 502h-74l127 493h94l127 -493h-74l-30 125h-140zM961 502h-72v493h72v-207h65l102 207h78l-114 -235l120 -258h-82l-104 223h-65v-223zM580 829l-33 -141h110l-32 141
q-20 87 -23 105q-4 -29 -22 -105z" />
    <glyph glyph-name="uni2416" unicode="&#x2416;" 
d="M197 496q-74 0 -118 37t-44 100h74q0 -34 24 -54t64 -20t63 20t23 54q0 26 -15.5 47t-40.5 27l-67 20q-54 15 -83.5 51.5t-29.5 87.5q0 61 41 98t109 37q69 0 109 -35.5t40 -97.5h-72q0 32 -21 51t-56 19t-56.5 -19t-21.5 -51q0 -53 55 -69l70 -21q52 -15 81 -52.5
t29 -90.5q0 -63 -43 -101t-114 -38zM639 502h-74v182l-145 311h76l86 -186q8 -16 22 -59q4 23 21 59l86 186h73l-145 -311v-182zM954 502h-67v493h92l143 -409q-8 74 -8 153v256h68v-493h-92l-144 409q8 -70 8 -151v-258z" />
    <glyph glyph-name="uni2416" 
d="M197 496q-74 0 -118 37t-44 100h74q0 -34 24 -54t64 -20t63 20t23 54q0 26 -15.5 47t-40.5 27l-67 20q-54 15 -83.5 51.5t-29.5 87.5q0 61 41 98t109 37q69 0 109 -35.5t40 -97.5h-72q0 32 -21 51t-56 19t-56.5 -19t-21.5 -51q0 -53 55 -69l70 -21q52 -15 81 -52.5
t29 -90.5q0 -63 -43 -101t-114 -38zM639 502h-74v182l-145 311h76l86 -186q8 -16 22 -59q4 23 21 59l86 186h73l-145 -311v-182zM954 502h-67v493h92l143 -409q-8 74 -8 153v256h68v-493h-92l-144 409q8 -70 8 -151v-258z" />
    <glyph glyph-name="uni2417" unicode="&#x2417;" 
d="M346 502h-291v493h291v-65h-219v-139h195v-64h-195v-160h219v-65zM565 930h-131v65h336v-65h-131v-428h-74v428zM1106 762q41 -9 65.5 -41.5t24.5 -79.5q0 -64 -41.5 -101.5t-112.5 -37.5h-153v493h145q69 0 109.5 -34.5t40.5 -92.5q0 -41 -20.5 -69t-57.5 -37zM1034 932
h-73v-144h73q36 0 57 19.5t21 52.5t-21 52.5t-57 19.5zM961 565h77q39 0 61.5 21t22.5 57q0 38 -23 61t-61 23h-77v-162z" />
    <glyph glyph-name="uni2417" 
d="M346 502h-291v493h291v-65h-219v-139h195v-64h-195v-160h219v-65zM565 930h-131v65h336v-65h-131v-428h-74v428zM1106 762q41 -9 65.5 -41.5t24.5 -79.5q0 -64 -41.5 -101.5t-112.5 -37.5h-153v493h145q69 0 109.5 -34.5t40.5 -92.5q0 -41 -20.5 -69t-57.5 -37zM1034 932
h-73v-144h73q36 0 57 19.5t21 52.5t-21 52.5t-57 19.5zM961 565h77q39 0 61.5 21t22.5 57q0 38 -23 61t-61 23h-77v-162z" />
    <glyph glyph-name="uni2418" unicode="&#x2418;" 
d="M197 496q-69 0 -110.5 38.5t-41.5 104.5v219q0 66 41.5 104.5t110.5 38.5t110 -38.5t41 -104.5h-74q0 38 -20 59t-57 21t-57.5 -21t-20.5 -59v-219q0 -38 20.5 -59t57.5 -21t57 21t20 59h74q0 -66 -41 -104.5t-110 -38.5zM502 502h-74l127 493h94l127 -493h-74l-30 125
h-140zM954 502h-67v493h92l143 -409q-8 74 -8 153v256h68v-493h-92l-144 409q8 -70 8 -151v-258zM580 829l-33 -141h110l-32 141q-20 87 -23 105q-4 -29 -22 -105z" />
    <glyph glyph-name="uni2418" 
d="M197 496q-69 0 -110.5 38.5t-41.5 104.5v219q0 66 41.5 104.5t110.5 38.5t110 -38.5t41 -104.5h-74q0 38 -20 59t-57 21t-57.5 -21t-20.5 -59v-219q0 -38 20.5 -59t57.5 -21t57 21t20 59h74q0 -66 -41 -104.5t-110 -38.5zM502 502h-74l127 493h94l127 -493h-74l-30 125
h-140zM954 502h-67v493h92l143 -409q-8 74 -8 153v256h68v-493h-92l-144 409q8 -70 8 -151v-258zM580 829l-33 -141h110l-32 141q-20 87 -23 105q-4 -29 -22 -105z" />
    <glyph glyph-name="uni2419" unicode="&#x2419;" 
d="M557 502h-291v493h291v-65h-219v-139h194v-64h-194v-160h219v-65zM733 502h-69v493h90l49 -157q13 -41 18 -74l19 74l49 157h90v-493h-70v219q0 64 19 235l-74 -239h-66l-73 235q18 -149 18 -231v-219z" />
    <glyph glyph-name="uni2419" 
d="M557 502h-291v493h291v-65h-219v-139h194v-64h-194v-160h219v-65zM733 502h-69v493h90l49 -157q13 -41 18 -74l19 74l49 157h90v-493h-70v219q0 64 19 235l-74 -239h-66l-73 235q18 -149 18 -231v-219z" />
    <glyph glyph-name="uni241A" unicode="&#x241a;" 
d="M174 799l70 -21q52 -15 81 -52.5t29 -90.5q0 -63 -43 -101t-114 -38q-74 0 -118 37t-44 100h74q0 -34 24 -54t64 -20t63 20t23 54q0 26 -15.5 47t-40.5 27l-67 20q-54 15 -83.5 51.5t-29.5 87.5q0 61 41 98t109 37q69 0 109 -35.5t40 -97.5h-72q0 32 -21 51t-56 19
t-56.5 -19t-21.5 -51q0 -53 55 -69zM678 639v356h72v-356q0 -68 -39 -105.5t-109 -37.5t-108.5 38t-38.5 105v356h71v-356q0 -37 20 -58.5t56 -21.5t56 21.5t20 58.5zM1106 762q41 -9 65.5 -41.5t24.5 -79.5q0 -64 -41.5 -101.5t-112.5 -37.5h-153v493h145q69 0 109.5 -34.5
t40.5 -92.5q0 -41 -20.5 -69t-57.5 -37zM1034 932h-73v-144h73q36 0 57 19.5t21 52.5t-21 52.5t-57 19.5zM961 565h77q39 0 61.5 21t22.5 57q0 38 -23 61t-61 23h-77v-162z" />
    <glyph glyph-name="uni241A" 
d="M174 799l70 -21q52 -15 81 -52.5t29 -90.5q0 -63 -43 -101t-114 -38q-74 0 -118 37t-44 100h74q0 -34 24 -54t64 -20t63 20t23 54q0 26 -15.5 47t-40.5 27l-67 20q-54 15 -83.5 51.5t-29.5 87.5q0 61 41 98t109 37q69 0 109 -35.5t40 -97.5h-72q0 32 -21 51t-56 19
t-56.5 -19t-21.5 -51q0 -53 55 -69zM678 639v356h72v-356q0 -68 -39 -105.5t-109 -37.5t-108.5 38t-38.5 105v356h71v-356q0 -37 20 -58.5t56 -21.5t56 21.5t20 58.5zM1106 762q41 -9 65.5 -41.5t24.5 -79.5q0 -64 -41.5 -101.5t-112.5 -37.5h-153v493h145q69 0 109.5 -34.5
t40.5 -92.5q0 -41 -20.5 -69t-57.5 -37zM1034 932h-73v-144h73q36 0 57 19.5t21 52.5t-21 52.5t-57 19.5zM961 565h77q39 0 61.5 21t22.5 57q0 38 -23 61t-61 23h-77v-162z" />
    <glyph glyph-name="uni241B" unicode="&#x241b;" 
d="M604 496q-74 0 -118 37t-44 100h74q0 -34 24 -54t64 -20t63 20t23 54q0 27 -15 47.5t-40 26.5l-68 20q-54 15 -83 51.5t-29 87.5q0 61 40.5 98t108.5 37q69 0 109.5 -36t40.5 -97h-72q0 32 -21.5 51t-56.5 19t-56.5 -19t-21.5 -51q0 -53 56 -69l69 -21q52 -15 81.5 -52.5
t29.5 -90.5q0 -63 -43.5 -101t-114.5 -38zM1036 496q-69 0 -110 38.5t-41 104.5v219q0 66 41 104.5t110 38.5t110.5 -38.5t41.5 -104.5h-74q0 38 -20.5 59t-57.5 21t-57.5 -21t-20.5 -59v-219q0 -38 20.5 -59t57.5 -21t57.5 21t20.5 59h74q0 -66 -41.5 -104.5t-110.5 -38.5z
M346 502h-291v493h291v-65h-219v-139h195v-64h-195v-160h219v-65z" />
    <glyph glyph-name="uni241B" 
d="M604 496q-74 0 -118 37t-44 100h74q0 -34 24 -54t64 -20t63 20t23 54q0 27 -15 47.5t-40 26.5l-68 20q-54 15 -83 51.5t-29 87.5q0 61 40.5 98t108.5 37q69 0 109.5 -36t40.5 -97h-72q0 32 -21.5 51t-56.5 19t-56.5 -19t-21.5 -51q0 -53 56 -69l69 -21q52 -15 81.5 -52.5
t29.5 -90.5q0 -63 -43.5 -101t-114.5 -38zM1036 496q-69 0 -110 38.5t-41 104.5v219q0 66 41 104.5t110 38.5t110.5 -38.5t41.5 -104.5h-74q0 38 -20.5 59t-57.5 21t-57.5 -21t-20.5 -59v-219q0 -38 20.5 -59t57.5 -21t57.5 21t20.5 59h74q0 -66 -41.5 -104.5t-110.5 -38.5z
M346 502h-291v493h291v-65h-219v-139h195v-64h-195v-160h219v-65z" />
    <glyph glyph-name="uni241C" unicode="&#x241c;" 
d="M823 496q-74 0 -117.5 37t-43.5 100h73q0 -34 24 -54t64 -20t63 20t23 54q0 27 -15 47.5t-40 26.5l-68 20q-54 15 -83 51.5t-29 87.5q0 61 40.5 98t108.5 37q69 0 109.5 -36t40.5 -97h-72q0 32 -21.5 51t-56.5 19t-56.5 -19t-21.5 -51q0 -53 56 -69l69 -21
q52 -15 81.5 -52.5t29.5 -90.5q0 -63 -43.5 -101t-114.5 -38zM336 502h-74v493h299v-67h-227v-148h209v-67h-207v-211z" />
    <glyph glyph-name="uni241C" 
d="M823 496q-74 0 -117.5 37t-43.5 100h73q0 -34 24 -54t64 -20t63 20t23 54q0 27 -15 47.5t-40 26.5l-68 20q-54 15 -83 51.5t-29 87.5q0 61 40.5 98t108.5 37q69 0 109.5 -36t40.5 -97h-72q0 32 -21.5 51t-56.5 19t-56.5 -19t-21.5 -51q0 -53 56 -69l69 -21
q52 -15 81.5 -52.5t29.5 -90.5q0 -63 -43.5 -101t-114.5 -38zM336 502h-74v493h299v-67h-227v-148h209v-67h-207v-211z" />
    <glyph glyph-name="uni241D" unicode="&#x241d;" 
d="M408 496q-69 0 -110.5 38.5t-41.5 104.5v219q0 66 41.5 104.5t110.5 38.5t110 -38.5t41 -104.5h-74q0 38 -20 59t-57 21t-57.5 -21t-20.5 -59v-219q0 -38 20.5 -59t57.5 -21t57 21t20 59v55h-92v66h166v-121q0 -66 -41 -104.5t-110 -38.5zM823 496q-74 0 -117.5 37
t-43.5 100h73q0 -34 24 -54t64 -20t63 20t23 54q0 27 -15 47.5t-40 26.5l-68 20q-54 15 -83 51.5t-29 87.5q0 61 40.5 98t108.5 37q69 0 109.5 -36t40.5 -97h-72q0 32 -21.5 51t-56.5 19t-56.5 -19t-21.5 -51q0 -53 56 -69l69 -21q52 -15 81.5 -52.5t29.5 -90.5
q0 -63 -43.5 -101t-114.5 -38z" />
    <glyph glyph-name="uni241D" 
d="M408 496q-69 0 -110.5 38.5t-41.5 104.5v219q0 66 41.5 104.5t110.5 38.5t110 -38.5t41 -104.5h-74q0 38 -20 59t-57 21t-57.5 -21t-20.5 -59v-219q0 -38 20.5 -59t57.5 -21t57 21t20 59v55h-92v66h166v-121q0 -66 -41 -104.5t-110 -38.5zM823 496q-74 0 -117.5 37
t-43.5 100h73q0 -34 24 -54t64 -20t63 20t23 54q0 27 -15 47.5t-40 26.5l-68 20q-54 15 -83 51.5t-29 87.5q0 61 40.5 98t108.5 37q69 0 109.5 -36t40.5 -97h-72q0 32 -21.5 51t-56.5 19t-56.5 -19t-21.5 -51q0 -53 56 -69l69 -21q52 -15 81.5 -52.5t29.5 -90.5
q0 -63 -43.5 -101t-114.5 -38z" />
    <glyph glyph-name="uni241E" unicode="&#x241e;" 
d="M823 496q-74 0 -117.5 37t-43.5 100h73q0 -34 24 -54t64 -20t63 20t23 54q0 27 -15 47.5t-40 26.5l-68 20q-54 15 -83 51.5t-29 87.5q0 61 40.5 98t108.5 37q69 0 109.5 -36t40.5 -97h-72q0 32 -21.5 51t-56.5 19t-56.5 -19t-21.5 -51q0 -53 56 -69l69 -21
q52 -15 81.5 -52.5t29.5 -90.5q0 -63 -43.5 -101t-114.5 -38zM332 502h-72v493h154q71 0 113 -39.5t42 -105.5q0 -49 -25.5 -85t-68.5 -50l100 -213h-83l-91 203h-69v-203zM332 930v-160h82q37 0 58.5 21.5t21.5 58.5t-21.5 58.5t-58.5 21.5h-82z" />
    <glyph glyph-name="uni241E" 
d="M823 496q-74 0 -117.5 37t-43.5 100h73q0 -34 24 -54t64 -20t63 20t23 54q0 27 -15 47.5t-40 26.5l-68 20q-54 15 -83 51.5t-29 87.5q0 61 40.5 98t108.5 37q69 0 109.5 -36t40.5 -97h-72q0 32 -21.5 51t-56.5 19t-56.5 -19t-21.5 -51q0 -53 56 -69l69 -21
q52 -15 81.5 -52.5t29.5 -90.5q0 -63 -43.5 -101t-114.5 -38zM332 502h-72v493h154q71 0 113 -39.5t42 -105.5q0 -49 -25.5 -85t-68.5 -50l100 -213h-83l-91 203h-69v-203zM332 930v-160h82q37 0 58.5 21.5t21.5 58.5t-21.5 58.5t-58.5 21.5h-82z" />
    <glyph glyph-name="uni241F" unicode="&#x241f;" 
d="M823 496q-74 0 -117.5 37t-43.5 100h73q0 -34 24 -54t64 -20t63 20t23 54q0 27 -15 47.5t-40 26.5l-68 20q-54 15 -83 51.5t-29 87.5q0 61 40.5 98t108.5 37q69 0 109.5 -36t40.5 -97h-72q0 32 -21.5 51t-56.5 19t-56.5 -19t-21.5 -51q0 -53 56 -69l69 -21
q52 -15 81.5 -52.5t29.5 -90.5q0 -63 -43.5 -101t-114.5 -38zM406 496q-70 0 -109 38t-39 105v356h72v-356q0 -37 20 -58.5t56 -21.5t55.5 21.5t19.5 58.5v356h72v-356q0 -68 -38.5 -105.5t-108.5 -37.5z" />
    <glyph glyph-name="uni241F" 
d="M823 496q-74 0 -117.5 37t-43.5 100h73q0 -34 24 -54t64 -20t63 20t23 54q0 27 -15 47.5t-40 26.5l-68 20q-54 15 -83 51.5t-29 87.5q0 61 40.5 98t108.5 37q69 0 109.5 -36t40.5 -97h-72q0 32 -21.5 51t-56.5 19t-56.5 -19t-21.5 -51q0 -53 56 -69l69 -21
q52 -15 81.5 -52.5t29.5 -90.5q0 -63 -43.5 -101t-114.5 -38zM406 496q-70 0 -109 38t-39 105v356h72v-356q0 -37 20 -58.5t56 -21.5t55.5 21.5t19.5 58.5v356h72v-356q0 -68 -38.5 -105.5t-108.5 -37.5z" />
    <glyph glyph-name="space" unicode=" " horiz-adv-x="819" 
 />
    <glyph glyph-name="exclam" unicode="!" horiz-adv-x="819" 
d="M489 459h-159l-45 772v264h250v-264zM440 -10h-61q-58 0 -94.5 36t-36.5 93t36.5 93t94.5 36h61q61 0 97 -35.5t36 -91.5q0 -58 -37 -94.5t-96 -36.5z" />
    <glyph glyph-name="quotedbl" unicode="&#x22;" horiz-adv-x="819" 
d="M285 881h-181l-26 387v227h229v-227zM717 881h-180l-25 387v227h229v-227z" />
    <glyph glyph-name="numbersign" unicode="#" 
d="M326 0h-162l74 410h-166v153h192l68 369h-189v155h213l76 408h162l-76 -408h309l76 408h162l-76 -408h168v-155h-192l-68 -369h188v-153h-215l-73 -410h-162l74 410h-310zM494 932l-68 -369h309l68 369h-309z" />
    <glyph glyph-name="dollar" unicode="$" 
d="M682 856l74 -20q164 -47 253 -161t89 -276q0 -173 -113.5 -286.5t-302.5 -130.5v-269h-125v269q-197 17 -310 126t-114 287h221q0 -89 53 -145t150 -70v484l-45 12q-165 46 -255.5 159.5t-90.5 272.5q0 169 105.5 277.5t285.5 125.5v271h125v-269q180 -17 286 -125
t109 -278h-221q0 85 -45.5 138.5t-128.5 68.5v-461zM389 1122q0 -82 43.5 -141.5t124.5 -85.5v422q-81 -13 -124.5 -64t-43.5 -131zM682 621v-443q92 13 142 69t50 144q0 86 -51 148t-141 82z" />
    <glyph glyph-name="percent" unicode="%" 
d="M322 819q-131 0 -212 75t-81 202v133q0 127 81 201.5t212 74.5t210.5 -74t79.5 -202v-133q0 -128 -80 -202.5t-210 -74.5zM180 0h-170l1039 1495h170zM322 969q122 0 122 127v133q0 129 -122 129q-125 0 -125 -129v-133q0 -127 125 -127zM909 -10q-132 0 -212.5 75
t-80.5 201v133q0 127 80.5 202t212.5 75q130 0 210.5 -75.5t80.5 -201.5v-133q0 -126 -80.5 -201t-210.5 -75zM909 141q123 0 123 125v133q0 129 -123 129q-125 0 -125 -129v-133q0 -64 31 -94.5t94 -30.5z" />
    <glyph glyph-name="ampersand" unicode="&#x26;" 
d="M1159 737l-225 -411l233 -326h-229l-113 156q-147 -176 -350 -176q-177 0 -276 96t-99 266v223q0 114 55 193t156 110q-116 168 -116 312q0 151 104.5 243.5t275.5 92.5q182 0 290 -98.5t108 -264.5h-213q0 83 -50 129.5t-135 46.5q-78 0 -125 -43.5t-47 -118.5
q0 -97 89 -225l317 -442l129 237h221zM489 168q64 0 123 39t99 108l-291 404q-105 -27 -105 -154v-223q0 -83 46 -128.5t128 -45.5z" />
    <glyph glyph-name="quotesingle" unicode="'" horiz-adv-x="409" 
d="M295 881h-180l-27 301v313h231v-313z" />
    <glyph glyph-name="parenleft" unicode="(" horiz-adv-x="819" 
d="M729 -25v-221q-301 76 -467 286.5t-166 512.5v369q0 297 169 510t464 288v-213q-191 -46 -301.5 -202.5t-110.5 -382.5v-369q0 -223 111 -378.5t301 -199.5z" />
    <glyph glyph-name="parenright" unicode=")" horiz-adv-x="819" 
d="M82 -246v221q190 44 301 199.5t111 378.5v369q0 225 -111 382t-301 203v213q295 -75 464 -288t169 -510v-369q0 -302 -166 -512.5t-467 -286.5z" />
    <glyph glyph-name="asterisk" unicode="*" 
d="M477 326l-96 -142l-168 119l96 139q66 95 228 220l-7 12q-198 10 -305 49l-157 57l69 195l158 -57q110 -42 268 -164l10 8q-61 207 -61 317v170h205v-170q0 -117 -64 -317l11 -6q166 123 268 162l160 57l69 -195l-157 -57q-110 -39 -306 -49l-6 -15q157 -116 226 -217
l98 -139l-170 -119l-98 142q-65 95 -127 288h-15q-62 -194 -129 -288z" />
    <glyph glyph-name="plus" unicode="+" 
d="M723 193h-217v382h-379v201h379v385h217v-385h379v-201h-379v-382z" />
    <glyph glyph-name="comma" unicode="," horiz-adv-x="819" 
d="M344 -328h-194l163 637h297z" />
    <glyph glyph-name="hyphen" unicode="-" 
d="M942 575h-655v201h655v-201z" />
    <glyph glyph-name="period" unicode="." horiz-adv-x="819" 
d="M410 -20q-84 0 -132.5 47.5t-48.5 130.5q0 85 49 134.5t132 49.5t131.5 -49.5t48.5 -134.5q0 -83 -48.5 -130.5t-131.5 -47.5z" />
    <glyph glyph-name="slash" unicode="/" 
d="M371 -225h-232l721 1925h232z" />
    <glyph glyph-name="zero" unicode="0" 
d="M614 -20q-213 0 -337.5 120.5t-124.5 323.5v649q0 202 124.5 322.5t337.5 120.5t338 -120.5t125 -322.5v-649q0 -202 -125.5 -323t-337.5 -121zM614 170q115 0 183.5 69.5t68.5 184.5v649q0 113 -68.5 182.5t-183.5 69.5t-183.5 -69.5t-68.5 -182.5v-649
q0 -115 68.5 -184.5t183.5 -69.5zM614 621q-58 0 -93.5 36.5t-35.5 96.5q0 58 35.5 93.5t93.5 35.5t93.5 -35.5t35.5 -93.5q0 -60 -35.5 -96.5t-93.5 -36.5z" />
    <glyph glyph-name="one" unicode="1" 
d="M1118 0h-940v201h397v1102l-399 -297v239l342 250h279v-1294h321v-201z" />
    <glyph glyph-name="two" unicode="2" 
d="M1087 0h-913v209l494 522q91 99 133.5 180t42.5 158q0 116 -65 183t-177 67q-114 0 -181 -69t-67 -187h-221q5 207 132.5 330t338.5 123t336 -119t125 -320q0 -114 -61.5 -230t-196.5 -259l-369 -387h649v-201z" />
    <glyph glyph-name="three" unicode="3" 
d="M1014 1303l-342 -359q182 -20 286.5 -133.5t104.5 -292.5v-108q0 -195 -127.5 -312.5t-339.5 -117.5q-211 0 -337 117.5t-126 312.5h221q0 -113 64.5 -175.5t179.5 -62.5q116 0 180 64t64 174v106q0 114 -64 177t-180 63h-168v184l340 360h-573v195h817v-192z" />
    <glyph glyph-name="four" unicode="4" 
d="M1022 0h-221v311h-670v332l549 852h244l-578 -905v-80h455v350h221v-860z" />
    <glyph glyph-name="five" unicode="5" 
d="M686 983q181 0 283 -112t102 -312v-145q0 -202 -122 -318t-339 -116q-193 0 -314 98.5t-136 267.5h221q8 -82 67.5 -127t163.5 -45q116 0 177 62t61 178v145q0 115 -60 176.5t-176 61.5q-71 0 -125 -34t-79 -93h-220l11 825h815v-201h-604l-4 -465h4q20 72 92 113t182 41
z" />
    <glyph glyph-name="six" unicode="6" 
d="M616 -20q-224 0 -360.5 134.5t-136.5 354.5q0 180 139 424l344 602h240l-410 -696l10 -8q40 61 108 94t155 33q181 0 293 -125t112 -328q0 -218 -136 -351.5t-358 -133.5zM614 172q123 0 200 79.5t77 209.5q0 129 -77 210t-200 81t-199.5 -81t-76.5 -210
q0 -130 76.5 -209.5t199.5 -79.5z" />
    <glyph glyph-name="seven" unicode="7" 
d="M600 0h-242l541 1298h-528v-243h-221v440h978v-199z" />
    <glyph glyph-name="eight" unicode="8" 
d="M817 778q136 -65 212.5 -169t76.5 -228q0 -180 -135.5 -290.5t-356.5 -110.5t-356 111t-135 290q0 125 78 229.5t211 165.5q-125 63 -190.5 153.5t-65.5 198.5q0 168 128.5 279t329.5 111t330 -111t129 -279q0 -109 -65.5 -199t-190.5 -151zM614 1327q-107 0 -175 -59
t-68 -150q0 -77 51.5 -140.5t136.5 -96.5l55 -23l50 21q88 36 140 100t52 139q0 92 -67.5 150.5t-174.5 58.5zM614 170q123 0 200 66t77 170q0 81 -53.5 149t-143.5 104l-80 33l-84 -35q-88 -35 -140 -103.5t-52 -147.5q0 -104 76.5 -170t199.5 -66z" />
    <glyph glyph-name="nine" unicode="9" 
d="M635 0h-246l406 694l-11 6q-39 -60 -106.5 -93.5t-153.5 -33.5q-180 0 -292.5 126.5t-112.5 328.5q0 218 136.5 353t356.5 135q221 0 359.5 -135.5t138.5 -350.5q0 -176 -141 -426zM614 741q123 0 200 80.5t77 210.5t-77 211.5t-200 81.5t-199.5 -81t-76.5 -212
q0 -130 76.5 -210.5t199.5 -80.5z" />
    <glyph glyph-name="colon" unicode=":" horiz-adv-x="819" 
d="M410 821q-82 0 -131.5 45t-49.5 119q0 72 50 117t131 45t130.5 -45t49.5 -117q0 -74 -49.5 -119t-130.5 -45zM410 -20q-82 0 -131.5 44.5t-49.5 118.5q0 72 50 117t131 45t130.5 -45t49.5 -117q0 -74 -49 -118.5t-131 -44.5z" />
    <glyph glyph-name="semicolon" unicode=";" horiz-adv-x="819" 
d="M430 821h-41q-72 0 -118 46t-46 118q0 69 47 115.5t117 46.5h41q69 0 115.5 -46.5t46.5 -115.5q0 -72 -45.5 -118t-116.5 -46zM322 -328h-195l164 637h297z" />
    <glyph glyph-name="less" unicode="&#x3c;" 
d="M1065 336v-213l-899 436v232l899 436v-207l-614 -293q-73 -34 -134 -49q74 -16 134 -47z" />
    <glyph glyph-name="equal" unicode="=" 
d="M1059 825h-887v201h887v-201zM1059 328h-887v200h887v-200z" />
    <glyph glyph-name="greater" unicode="&#x3e;" 
d="M1065 559l-899 -436v209l612 293q65 31 133 47q-65 15 -133 49l-612 293v213l899 -436v-232z" />
    <glyph glyph-name="question" unicode="?" 
d="M610 432h-207l-2 391h134q115 0 184 63t69 169t-69.5 169.5t-186.5 63.5h-280v207h274q220 0 352 -119.5t132 -320.5q0 -182 -111 -299t-289 -123v-201zM535 -10h-60q-59 0 -96 36t-37 93t37 93t96 36h62q61 0 96 -35t35 -92q0 -59 -36.5 -95t-96.5 -36z" />
    <glyph glyph-name="at" unicode="@" 
d="M645 1516q238 0 376 -135.5t138 -362.5v-885h-184v139h-6q-8 -72 -66.5 -115.5t-150.5 -43.5q-132 0 -200.5 83t-68.5 240v240q0 157 68.5 240t200.5 83q92 0 151 -43t66 -116h8l-6 161v17q0 161 -85 247.5t-245 86.5q-175 0 -274 -113.5t-99 -316.5v-697
q0 -197 105.5 -307.5t292.5 -110.5h143v-176h-143q-269 0 -427.5 160.5t-158.5 433.5v697q0 277 150.5 435.5t414.5 158.5zM971 451v227q0 178 -152 178q-151 0 -151 -180v-240q0 -93 37.5 -136.5t113.5 -43.5q78 0 115 47t37 148z" />
    <glyph glyph-name="A" unicode="A" 
d="M313 0h-225l381 1495h291l383 -1495h-225l-91 379h-424zM547 995l-103 -432h340l-102 430q-41 170 -68 316q-31 -164 -67 -314z" />
    <glyph glyph-name="B" unicode="B" 
d="M838 791q124 -31 195 -129t71 -242q0 -192 -124.5 -306t-336.5 -114h-469v1495h440q211 0 333 -103.5t122 -281.5q0 -122 -61 -206t-170 -113zM614 1305h-225v-437h223q109 0 173.5 59t64.5 160t-63.5 159.5t-172.5 58.5zM389 190h236q120 0 189 64.5t69 175.5
q0 115 -69.5 184.5t-188.5 69.5h-236v-494z" />
    <glyph glyph-name="C" unicode="C" 
d="M623 -20q-211 0 -335 117.5t-124 318.5v663q0 202 124 319.5t335 117.5q209 0 332.5 -118.5t123.5 -318.5h-221q0 116 -61 178t-174 62t-175.5 -61.5t-62.5 -176.5v-665q0 -115 62.5 -177.5t175.5 -62.5t174 62.5t61 177.5h221q0 -200 -123.5 -318t-332.5 -118z" />
    <glyph glyph-name="D" unicode="D" 
d="M588 0h-418v1495h418q221 0 353 -125t132 -332v-577q0 -211 -132 -336t-353 -125zM391 1298v-1099h197q122 0 193 70t71 192v577q0 120 -71 190t-193 70h-197z" />
    <glyph glyph-name="E" unicode="E" 
d="M1071 0h-878v1495h878v-197h-661v-426h589v-190h-589v-485h661v-197z" />
    <glyph glyph-name="F" unicode="F" 
d="M401 0h-221v1495h905v-203h-688v-446h633v-205h-629v-641z" />
    <glyph glyph-name="G" unicode="G" 
d="M623 -20q-211 0 -335 117.5t-124 318.5v663q0 202 124 319.5t335 117.5q209 0 332.5 -118.5t123.5 -318.5h-221q0 116 -61 178t-174 62t-175.5 -61.5t-62.5 -176.5v-665q0 -115 62.5 -178.5t175.5 -63.5q112 0 173.5 63t61.5 179v168h-278v194h499v-362
q0 -200 -123.5 -318t-332.5 -118z" />
    <glyph glyph-name="H" unicode="H" 
d="M395 0h-221v1495h221v-618h439v618h221v-1495h-221v676h-439v-676z" />
    <glyph glyph-name="I" unicode="I" 
d="M1030 0h-829v201h301v1093h-301v201h829v-201h-303v-1093h303v-201z" />
    <glyph glyph-name="J" unicode="J" 
d="M553 -20q-221 0 -348 122.5t-127 333.5h221q0 -124 67 -193t187 -69t188 69t68 193v858h-420v201h641v-1059q0 -212 -128.5 -334t-348.5 -122z" />
    <glyph glyph-name="K" unicode="K" 
d="M393 0h-221v1495h221v-625h199l307 625h240l-355 -715l373 -780h-250l-319 678h-195v-678z" />
    <glyph glyph-name="L" unicode="L" 
d="M1133 0h-875v1495h221v-1294h654v-201z" />
    <glyph glyph-name="M" unicode="M" 
d="M346 0h-211v1495h273l151 -479q38 -120 57 -223q17 93 58 225l147 477h273v-1495h-209v668q0 302 51 708l-223 -727h-199l-225 719q57 -391 57 -700v-668z" />
    <glyph glyph-name="N" unicode="N" 
d="M373 0h-207v1495h280l435 -1243q-25 288 -25 471v772h207v-1495h-279l-434 1243q23 -251 23 -459v-784z" />
    <glyph glyph-name="O" unicode="O" 
d="M614 -20q-209 0 -329.5 117.5t-120.5 318.5v663q0 202 120.5 319.5t329.5 117.5t330 -117.5t121 -317.5v-665q0 -201 -121 -318.5t-330 -117.5zM614 176q112 0 171 62t59 178v663q0 117 -59 178.5t-171 61.5t-170.5 -61.5t-58.5 -178.5v-663q0 -116 58.5 -178t170.5 -62z
" />
    <glyph glyph-name="P" unicode="P" 
d="M393 0h-221v1495h490q218 0 347.5 -122.5t129.5 -328.5t-129.5 -328t-347.5 -122h-269v-594zM393 1298v-507h269q115 0 183 68.5t68 184.5t-68 185t-183 69h-269z" />
    <glyph glyph-name="Q" unicode="Q" 
d="M852 31l244 -400h-246l-211 349h-25q-212 0 -337 121t-125 323v649q0 202 125 322.5t337 120.5t337.5 -121t125.5 -322v-649q0 -137 -58.5 -238.5t-166.5 -154.5zM614 174q113 0 177.5 67t64.5 183v649q0 114 -65 181t-177 67t-176.5 -67t-64.5 -181v-649q0 -116 64 -183
t177 -67z" />
    <glyph glyph-name="R" unicode="R" 
d="M393 0h-221v1495h469q211 0 339 -120t128 -318q0 -149 -76 -259.5t-207 -154.5l303 -643h-251l-273 614h-211v-614zM393 1298v-487h248q110 0 176 66t66 176q0 113 -66 179t-176 66h-248z" />
    <glyph glyph-name="S" unicode="S" 
d="M621 -20q-223 0 -355.5 113.5t-132.5 303.5h221q0 -100 73.5 -161.5t195.5 -61.5q118 0 187 60.5t69 162.5q0 82 -45 142.5t-123 83.5l-199 59q-163 46 -254.5 158t-91.5 266q0 188 124 299t333 111q207 0 330.5 -110t123.5 -296h-221q0 97 -63 154t-172 57
q-107 0 -171.5 -57t-64.5 -154q0 -76 44.5 -131t125.5 -78l205 -61q160 -46 249 -162t89 -277q0 -192 -130 -306.5t-347 -114.5z" />
    <glyph glyph-name="T" unicode="T" 
d="M725 0h-221v1294h-400v201h1022v-201h-401v-1294z" />
    <glyph glyph-name="U" unicode="U" 
d="M614 -20q-213 0 -330.5 117t-117.5 321v1077h221v-1075q0 -118 57.5 -182t169.5 -64q111 0 169.5 64.5t58.5 181.5v1075h221v-1077q0 -205 -117.5 -321.5t-331.5 -116.5z" />
    <glyph glyph-name="V" unicode="V" 
d="M762 0h-295l-379 1495h225l242 -995q40 -162 63 -310q19 118 66 312l231 993h228z" />
    <glyph glyph-name="W" unicode="W" 
d="M463 0h-258l-162 1495h199l100 -1073q12 -118 16 -266q4 31 14 127t15 139l129 1073h205l121 -1073q4 -38 14.5 -134.5t13.5 -131.5q8 134 21 266l102 1073h195l-170 -1495h-256l-121 1087l-25 263q-1 -6 -9.5 -109.5t-14.5 -153.5z" />
    <glyph glyph-name="X" unicode="X" 
d="M311 0h-241l422 762l-398 733h250l209 -408q38 -72 65 -137q31 74 64 137l213 408h240l-398 -725l422 -770h-250l-231 442q-26 50 -68 142q-33 -86 -63 -140z" />
    <glyph glyph-name="Y" unicode="Y" 
d="M725 0h-221v551l-445 944h230l264 -565q45 -95 65 -178q21 88 64 178l258 565h229l-444 -944v-551z" />
    <glyph glyph-name="Z" unicode="Z" 
d="M1061 0h-893v213l637 1081h-625v201h860v-211l-637 -1083h658v-201z" />
    <glyph glyph-name="bracketleft" unicode="[" horiz-adv-x="819" 
d="M737 -225h-538v1925h538v-201h-317v-1524h317v-200z" />
    <glyph glyph-name="backslash" unicode="\" 
d="M1090 -225h-232l-721 1925h232z" />
    <glyph glyph-name="bracketright" unicode="]" horiz-adv-x="819" 
d="M621 -225h-539v200h317v1524h-317v201h539v-1925z" />
    <glyph glyph-name="asciicircum" unicode="^" 
d="M354 696h-202l360 799h209l356 -799h-203l-208 500q-28 68 -48 139q-18 -64 -49 -139z" />
    <glyph glyph-name="underscore" unicode="_" 
d="M1106 -246h-983v195h983v-195z" />
    <glyph glyph-name="grave" unicode="`" 
d="M778 1321h-229l-238 287h246z" />
    <glyph glyph-name="a" unicode="a" 
d="M625 1147q201 0 318.5 -102t117.5 -275v-770h-215v203h-4q-17 -104 -107.5 -163.5t-232.5 -59.5q-175 0 -277 90.5t-102 248.5q0 161 108.5 252t298.5 91h310v104q0 92 -58 142t-161 50q-92 0 -155 -39.5t-73 -103.5h-215q12 149 135.5 240.5t311.5 91.5zM567 147
q120 0 196.5 60t76.5 155v148h-303q-89 0 -141 -47t-52 -129q0 -88 59.5 -137.5t163.5 -49.5z" />
    <glyph glyph-name="b" unicode="b" 
d="M696 1147q171 0 273 -115t102 -311v-318q0 -194 -102.5 -308.5t-272.5 -114.5q-125 0 -206.5 61.5t-98.5 169.5v-211h-219v1495h221v-321l-6 -263h4q15 109 97 172.5t208 63.5zM850 416v295q0 117 -61.5 180t-170.5 63q-105 0 -165 -64t-60 -179v-295q0 -115 60 -179.5
t165 -64.5q109 0 170.5 63.5t61.5 180.5z" />
    <glyph glyph-name="c" unicode="c" 
d="M623 -20q-212 0 -337.5 117t-125.5 319v295q0 202 125.5 319t337.5 117q203 0 325.5 -106.5t128.5 -290.5h-217q-6 96 -69 149t-168 53q-114 0 -178 -62.5t-64 -176.5v-297q0 -115 64 -178.5t178 -63.5q105 0 168 53.5t69 151.5h217q-6 -184 -128.5 -291.5t-325.5 -107.5
z" />
    <glyph glyph-name="d" unicode="d" 
d="M836 1174v321h221v-1495h-219v209q-25 -108 -106 -168.5t-202 -60.5q-168 0 -269 114.5t-101 308.5v318q0 196 101 311t269 115q121 0 202 -60.5t104 -168.5h6zM608 172q107 0 167.5 65t60.5 183v289q0 116 -60.5 180.5t-167.5 64.5t-167 -63t-60 -180v-295
q0 -117 60 -180.5t167 -63.5z" />
    <glyph glyph-name="e" unicode="e" 
d="M1071 711v-201h-698v-94q0 -126 61.5 -191t181.5 -65q96 0 155.5 34t72.5 99h221q-25 -142 -148 -227.5t-303 -85.5q-206 0 -330 119.5t-124 316.5v295q0 198 123.5 317t330.5 119t332 -119t125 -317zM373 711v-52l483 3v51q0 125 -62 191.5t-180 66.5t-179.5 -67.5
t-61.5 -192.5z" />
    <glyph glyph-name="f" unicode="f" horiz-adv-x="1024" 
d="M539 0h-222v807h-235v201h235v182q0 141 90.5 223t247.5 82h275v-197h-273q-57 0 -87.5 -28.5t-30.5 -81.5v-180h391v-201h-391v-807z" />
    <glyph glyph-name="g" unicode="g" 
d="M838 911l-2 215h219v-1146q0 -162 -103 -255.5t-284 -93.5h-349v191h347q170 0 170 162v112l4 209h-4q-13 -110 -92.5 -172.5t-204.5 -62.5q-173 0 -274 114.5t-101 311.5v227q0 195 101 309.5t274 114.5q125 0 204.5 -63t92.5 -173h2zM610 260q105 0 165.5 65t60.5 181
v205q0 115 -60.5 179t-165.5 64q-108 0 -166.5 -62.5t-58.5 -180.5v-205q0 -118 58.5 -182t166.5 -64z" />
    <glyph glyph-name="h" unicode="h" 
d="M692 1147q168 0 268.5 -107.5t100.5 -289.5v-750h-221v725q0 110 -59.5 171.5t-162.5 61.5q-105 0 -165 -64.5t-60 -182.5v-711h-221v1495h221v-369l-2 -215h4q14 111 92 173.5t205 62.5z" />
    <glyph glyph-name="i" unicode="i" horiz-adv-x="1024" 
d="M537 1321q-72 0 -115 37.5t-43 101.5q0 65 43 103.5t115 38.5t114.5 -38.5t42.5 -103.5q0 -64 -42.5 -101.5t-114.5 -37.5zM942 0h-788v201h295v725h-250v200h471v-925h272v-201z" />
    <glyph glyph-name="j" unicode="j" horiz-adv-x="819" 
d="M506 1321q-72 0 -115 37.5t-43 101.5q0 65 43 103.5t115 38.5t115 -38.5t43 -103.5q0 -64 -43 -101.5t-115 -37.5zM195 -369h-152v203h143q114 0 177 62.5t63 175.5v854h-328v200h549v-1056q0 -201 -122.5 -320t-329.5 -119z" />
    <glyph glyph-name="k" unicode="k" 
d="M399 0h-221v1495h221v-821h199l301 452h248l-359 -540l365 -586h-254l-299 483h-201v-483z" />
    <glyph glyph-name="l" unicode="l" horiz-adv-x="819" 
d="M770 0h-184q-158 0 -253 93.5t-95 248.5v952h-218v201h439v-1149q0 -67 37 -106t100 -39h174v-201z" />
    <glyph glyph-name="m" unicode="m" horiz-adv-x="1638" 
d="M1174 1147q138 0 218.5 -80t80.5 -209v-858h-222v848q0 63 -43 98t-118 35q-76 0 -122 -35t-46 -96v-850h-201v848q0 62 -45 97.5t-121 35.5q-73 0 -118.5 -35t-45.5 -96v-850h-221v1126h207v-143h12q19 74 88.5 119t167.5 45q95 0 161.5 -43.5t94.5 -120.5h8
q19 73 92 118.5t173 45.5z" />
    <glyph glyph-name="n" unicode="n" 
d="M692 1147q168 0 268.5 -107.5t100.5 -289.5v-750h-221v725q0 109 -59 169t-163 60q-106 0 -165.5 -63t-59.5 -180v-711h-221v1126h219v-215h4q14 111 92 173.5t205 62.5z" />
    <glyph glyph-name="o" unicode="o" 
d="M614 -18q-210 0 -332 118t-122 318v291q0 200 122 318t332 118t333.5 -118t123.5 -318v-291q0 -200 -123.5 -318t-333.5 -118zM614 176q111 0 173.5 63t62.5 179v291q0 116 -62.5 178.5t-173.5 62.5t-172 -62.5t-61 -178.5v-291q0 -116 61 -179t172 -63z" />
    <glyph glyph-name="p" unicode="p" 
d="M700 1147q168 0 269.5 -115t101.5 -309v-317q0 -196 -101 -311t-270 -115q-120 0 -201 61t-104 168h-6l6 -256v-322h-221v1495h217v-208h2q25 108 105.5 168.5t201.5 60.5zM850 416v295q0 118 -59.5 180.5t-167.5 62.5q-107 0 -167.5 -64.5t-60.5 -180.5v-289
q0 -118 60.5 -183t167.5 -65q108 0 167.5 63t59.5 181z" />
    <glyph glyph-name="q" unicode="q" 
d="M838 918v208h219v-1495h-221v322l6 256h-6q-23 -108 -104 -168.5t-202 -60.5q-168 0 -267 115t-99 311v317q0 195 99 309.5t267 114.5q121 0 202 -60.5t106 -168.5zM608 172q107 0 167.5 65t60.5 183v289q0 116 -60.5 180.5t-167.5 64.5q-106 0 -164.5 -62.5
t-58.5 -180.5v-295q0 -118 58.5 -181t164.5 -63z" />
    <glyph glyph-name="r" unicode="r" 
d="M731 1147q175 0 280 -113.5t105 -304.5v-86h-227v68q0 117 -60 180t-174 63q-111 0 -169 -64t-58 -188v-702h-221v1126h217v-215h4q15 112 94.5 174t208.5 62z" />
    <glyph glyph-name="s" unicode="s" 
d="M664 -18h-89q-186 0 -300.5 85t-114.5 230h223q0 -62 53.5 -95.5t143.5 -33.5h86q100 0 151 38t51 107q0 128 -184 156l-154 25q-173 26 -257.5 107t-84.5 220q0 157 103.5 240.5t298.5 83.5h78q183 0 292 -81t109 -216h-223q0 52 -47.5 81t-132.5 29h-78
q-89 0 -137 -35.5t-48 -101.5q0 -113 162 -137l156 -25q187 -28 274.5 -109t87.5 -228q0 -162 -106.5 -251t-312.5 -89z" />
    <glyph glyph-name="t" unicode="t" horiz-adv-x="1024" 
d="M866 0h-237q-150 0 -238 86t-88 233v607h-248v200h248v318h221v-318h363v-200h-363v-604q0 -54 31.5 -87.5t83.5 -33.5h227v-201z" />
    <glyph glyph-name="u" unicode="u" 
d="M612 -20q-204 0 -324 118t-120 320v708h221v-706q0 -118 59 -183t164 -65q107 0 167.5 65t60.5 183v706h221v-708q0 -202 -122 -320t-327 -118z" />
    <glyph glyph-name="v" unicode="v" 
d="M758 0h-285l-410 1126h230l264 -720q14 -38 25.5 -80t23 -94t12.5 -56q2 7 12.5 56.5t22 92.5t25.5 81l258 720h229z" />
    <glyph glyph-name="w" unicode="w" 
d="M467 0h-236l-174 1126h183l102 -743q7 -51 20 -217h11q19 169 26 217l117 743h199l114 -743q12 -82 27 -217h10q23 202 25 217l106 743h177l-183 -1126h-233l-111 735q-23 145 -29 226h-10q-5 -67 -26 -226z" />
    <glyph glyph-name="x" unicode="x" 
d="M340 0h-252l395 582l-370 544h254l198 -311q35 -57 51 -98q11 33 50 98l198 311h254l-370 -546l393 -580h-254l-219 338q-35 57 -52 104q-22 -50 -55 -104z" />
    <glyph glyph-name="y" unicode="y" 
d="M584 -369h-232l164 435l-432 1060h240l247 -634q27 -74 56 -193q19 95 55 193l233 634h230z" />
    <glyph glyph-name="z" unicode="z" 
d="M1057 0h-885v209l608 721h-590v196h844v-208l-616 -721h639v-197z" />
    <glyph glyph-name="braceleft" unicode="{" 
d="M1040 1499h-98q-88 0 -133.5 -41.5t-38.5 -118.5l31 -327q9 -111 -49.5 -181t-167.5 -88q108 -19 167 -94.5t50 -185.5l-31 -328q-7 -77 38.5 -118.5t133.5 -41.5h98v-200h-116q-184 0 -288 94.5t-87 255.5l31 326q8 98 -32.5 142t-148.5 44h-252v201h252
q108 0 148.5 43.5t32.5 142.5l-31 328q-17 159 87 253.5t288 94.5h116v-201z" />
    <glyph glyph-name="bar" unicode="|" 
d="M725 -225h-221v1925h221v-1925z" />
    <glyph glyph-name="braceright" unicode="}" 
d="M831 838h250v-201h-250q-110 0 -149.5 -44t-30.5 -142l31 -326q15 -161 -89 -255.5t-288 -94.5h-117v200h99q87 0 133.5 41.5t40.5 118.5l-31 328q-10 108 48 184t163 98q-107 18 -164 88t-47 179l31 327q6 77 -40.5 118.5t-133.5 41.5h-99v201h117q183 0 287.5 -94
t89.5 -254l-31 -328q-9 -99 30.5 -142.5t149.5 -43.5z" />
    <glyph glyph-name="asciitilde" unicode="~" 
d="M322 522h-197v154q0 123 77.5 197.5t205.5 74.5q63 0 114 -20t81.5 -50.5t59 -65.5t49 -65.5t49 -50.5t60.5 -20q42 0 65 25.5t23 74.5v146h195v-152q0 -123 -77 -197.5t-204 -74.5q-54 0 -99.5 15t-76 39t-56 53t-46.5 58t-40.5 53t-44 39t-52.5 15q-41 0 -63.5 -26.5
t-22.5 -73.5v-148z" />
    <glyph glyph-name="uni2421" unicode="&#x2421;" 
d="M186 502h-139v493h139q72 0 116 -41t44 -110v-191q0 -69 -44 -110t-116 -41zM754 502h-291v493h291v-65h-219v-139h194v-64h-194v-160h219v-65zM1204 502h-289v493h74v-428h215v-65zM121 930v-363h65q40 0 63 23t23 63v191q0 40 -23 63t-63 23h-65z" />
    <glyph glyph-name="uni2421" 
d="M186 502h-139v493h139q72 0 116 -41t44 -110v-191q0 -69 -44 -110t-116 -41zM754 502h-291v493h291v-65h-219v-139h194v-64h-194v-160h219v-65zM1204 502h-289v493h74v-428h215v-65zM121 930v-363h65q40 0 63 23t23 63v191q0 40 -23 63t-63 23h-65z" />
    <glyph glyph-name="uni00A0" unicode="&#xa0;" horiz-adv-x="819" 
 />
    <glyph glyph-name="exclamdown" unicode="&#xa1;" horiz-adv-x="819" 
d="M434 881h-47q-63 0 -101 36t-38 95q0 58 38 92.5t101 34.5h47q62 0 100.5 -34.5t38.5 -92.5t-38.5 -94.5t-100.5 -36.5zM535 -369h-250v277l45 762h159l46 -762v-277z" />
    <glyph glyph-name="cent" unicode="&#xa2;" 
d="M686 946v-766q78 14 124 65.5t50 133.5h217q-6 -168 -111 -274t-280 -123v-269h-125v269q-186 17 -293.5 132.5t-107.5 301.5v295q0 186 107.5 301.5t293.5 132.5v268h125v-268q176 -17 280.5 -122t110.5 -273h-217q-4 81 -50 131.5t-124 64.5zM381 713v-297
q0 -98 47 -159.5t133 -76.5v766q-86 -15 -133 -75.5t-47 -157.5z" />
    <glyph glyph-name="sterling" unicode="&#xa3;" 
d="M338 201h758v-201h-942v242q86 59 154.5 139.5t68.5 150.5q0 42 -6 80h-224v189h146q-10 16 -36.5 54.5t-39 60t-29.5 57.5t-24.5 73.5t-7.5 81.5q0 173 124.5 280.5t333.5 107.5q207 0 329 -108t128 -294h-227q-3 93 -66.5 150t-167.5 57q-110 0 -170.5 -54.5
t-60.5 -150.5q0 -46 16 -89t37 -72t51.5 -73t48.5 -81h359v-189h-305q2 -18 2 -61q0 -121 -77.5 -214.5t-172.5 -135.5z" />
    <glyph glyph-name="currency" unicode="&#xa4;" 
d="M1147 362l-135 -133l-178 179q-96 -58 -218 -58t-221 58l-174 -175l-131 132l170 172q-65 100 -65 227q0 129 67 227l-176 176l133 133l180 -180q96 58 217 58q126 0 226 -62l172 172l131 -129l-172 -172q61 -99 61 -223t-63 -225zM616 508q107 0 178.5 73.5t71.5 182.5
t-71.5 182.5t-178.5 73.5t-180.5 -73.5t-73.5 -182.5t73.5 -182.5t180.5 -73.5z" />
    <glyph glyph-name="yen" unicode="&#xa5;" 
d="M940 1495h229l-364 -776h301v-172h-381v-141h381v-173h-381v-233h-221v233h-381v173h381v141h-381v172h301l-365 776h230l264 -565q45 -95 65 -178q21 88 64 178z" />
    <glyph glyph-name="brokenbar" unicode="&#xa6;" 
d="M725 922h-221v778h221v-778zM725 -225h-221v778h221v-778z" />
    <glyph glyph-name="section" unicode="&#xa7;" 
d="M645 -315h-61q-183 0 -303.5 85.5t-143.5 231.5h230q17 -60 76.5 -97.5t140.5 -37.5h61q107 0 166 44.5t59 119.5q0 134 -192 174l-191 39q-151 31 -240 120.5t-89 210.5q0 117 74.5 197t195.5 90v15q-46 2 -90.5 21t-84.5 53.5t-64.5 93.5t-24.5 133q0 156 113 247
t313 91h61q174 0 289 -82t137 -220h-229q-12 53 -66.5 85t-130.5 32h-61q-99 0 -153 -40.5t-54 -110.5q0 -62 46 -105t134 -63l193 -39q156 -34 243.5 -123.5t87.5 -214.5q0 -120 -75.5 -198t-202.5 -81v-14q48 -4 95.5 -24t91 -56t70 -95.5t26.5 -133.5q0 -162 -118.5 -255
t-328.5 -93zM524 420l142 -27q89 -18 145.5 44t56.5 169q0 71 -43 123.5t-112 65.5l-142 28q-85 18 -139.5 -42.5t-54.5 -164.5q0 -75 40.5 -128.5t106.5 -67.5z" />
    <glyph glyph-name="dieresis" unicode="&#xa8;" 
d="M381 1321q-65 0 -103 37.5t-38 101.5q0 65 38.5 103.5t102.5 38.5t102.5 -38.5t38.5 -103.5q0 -64 -38 -101.5t-103 -37.5zM848 1321q-64 0 -101.5 37.5t-37.5 101.5q0 65 37.5 103.5t101.5 38.5t102.5 -38.5t38.5 -103.5q0 -64 -38 -101.5t-103 -37.5z" />
    <glyph glyph-name="copyright" unicode="&#xa9;" 
d="M614 225q-235 0 -378.5 135.5t-143.5 356.5v307q0 221 143.5 356.5t378.5 135.5t379 -135.5t144 -356.5v-307q0 -221 -144 -356.5t-379 -135.5zM614 328q184 0 297 107t113 282v307q0 175 -113 282t-297 107q-183 0 -296 -107t-113 -282v-307q0 -175 113 -282t296 -107z
M625 502q-119 0 -191 66t-72 175v254q0 109 72.5 175.5t190.5 66.5q117 0 188.5 -66.5t71.5 -175.5h-146q0 52 -31.5 84.5t-82.5 32.5q-53 0 -85 -32t-32 -85v-254q0 -52 32 -84t85 -32q51 0 82.5 32t31.5 84h146q0 -109 -71.5 -175t-188.5 -66z" />
    <glyph glyph-name="ordfeminine" unicode="&#xaa;" 
d="M625 1516q110 0 175.5 -50t65.5 -135v-399h-114v112h-7q-22 -57 -72.5 -89.5t-117.5 -32.5q-92 0 -147.5 48t-55.5 130q0 80 60 127t161 47h172v57q0 41 -32.5 65.5t-87.5 24.5q-50 0 -83.5 -19.5t-37.5 -51.5h-121q12 78 76.5 122t165.5 44zM588 1010q73 0 115 34t42 93
v49h-172q-47 0 -73.5 -23t-26.5 -63q0 -41 31 -65.5t84 -24.5z" />
    <glyph glyph-name="guillemotleft" unicode="&#xab;" 
d="M688 82h-246l-389 491l389 492h246l-397 -487zM1178 82h-248l-389 491l389 492h248l-400 -487z" />
    <glyph glyph-name="logicalnot" unicode="&#xac;" 
d="M1085 401h-213v271h-729v200h942v-471z" />
    <glyph glyph-name="uni00AD" unicode="&#xad;" 
d="M942 575h-655v201h655v-201z" />
    <glyph glyph-name="registered" unicode="&#xae;" 
d="M614 225q-235 0 -378.5 135.5t-143.5 356.5v307q0 221 143.5 356.5t378.5 135.5t379 -135.5t144 -356.5v-307q0 -221 -144 -356.5t-379 -135.5zM205 1024v-307q0 -175 113 -282t296 -107q184 0 297 107t113 282v307q0 175 -113 282t-297 107q-183 0 -296 -107t-113 -282z
M518 512h-135v717h240q112 0 178.5 -59t66.5 -158q0 -138 -120 -193l133 -307h-144l-116 285h-103v-285zM518 1120v-213h105q51 0 79.5 28t28.5 79t-28.5 78.5t-79.5 27.5h-105z" />
    <glyph glyph-name="macron" unicode="&#xaf;" 
d="M954 1364h-680v174h680v-174z" />
    <glyph glyph-name="degree" unicode="&#xb0;" 
d="M614 922q-138 0 -222.5 81.5t-84.5 215.5t84.5 215.5t222.5 81.5t223 -82t85 -215t-85 -215t-223 -82zM612 1034q80 0 129.5 51t49.5 134t-49.5 134.5t-129.5 51.5q-77 0 -124.5 -51.5t-47.5 -134.5t47.5 -134t124.5 -51z" />
    <glyph glyph-name="plusminus" unicode="&#xb1;" 
d="M1090 0h-949v168h367v416h-377v200h377v383h219v-383h379v-200h-379v-416h363v-168z" />
    <glyph glyph-name="uni00B2" unicode="&#xb2;" 
d="M940 829h-608v185l340 246q41 29 66.5 74t25.5 89q0 72 -41.5 114t-110.5 42q-68 0 -108.5 -42t-40.5 -114h-160q4 136 88 216.5t221 80.5q141 0 224.5 -79.5t83.5 -213.5q0 -73 -44.5 -147.5t-121.5 -128.5l-252 -178h438v-144z" />
    <glyph glyph-name="uni00B3" unicode="&#xb3;" 
d="M838 1534l-174 -164q106 -17 167.5 -88.5t61.5 -181.5q0 -133 -84 -212t-227 -79t-228.5 79t-85.5 212h158q0 -70 42 -110t114 -40q69 0 109 40t40 110t-39.5 109.5t-107.5 39.5h-62v137l183 173h-375v143h508v-168z" />
    <glyph glyph-name="acute" unicode="&#xb4;" 
d="M680 1321h-223l217 287h237z" />
    <glyph glyph-name="uni00B5" unicode="&#xb5;" 
d="M838 416v710h221v-1126h-219l4 215h-6q-19 -235 -226 -235q-203 0 -219 235h-4l6 -262v-322h-221v1495h221v-710q0 -116 57 -180t162 -64t164.5 64.5t59.5 179.5z" />
    <glyph glyph-name="paragraph" unicode="&#xb6;" 
d="M696 -369h-182v1004q-175 0 -282 95.5t-107 252.5v164q0 157 107 252.5t282 95.5h182v-1864zM1051 -369h-183v1864h183v-1864z" />
    <glyph glyph-name="periodcentered" unicode="&#xb7;" 
d="M410 528q-83 0 -132 48t-49 131q0 85 48.5 133.5t132.5 48.5q83 0 131.5 -48.5t48.5 -133.5q0 -83 -48.5 -131t-131.5 -48z" />
    <glyph glyph-name="cedilla" unicode="&#xb8;" 
d="M600 -430h-188v123h149q44 0 73.5 22.5t29.5 51.5q0 40 -59.5 66t-162.5 26l72 188h127l-43 -121q62 -7 118 -26.5t99 -60t43 -93.5q0 -74 -72 -125t-186 -51z" />
    <glyph glyph-name="uni00B9" unicode="&#xb9;" 
d="M952 829h-641v144h271v586l-252 -181v174l200 148h209v-727h213v-144z" />
    <glyph glyph-name="ordmasculine" unicode="&#xba;" 
d="M614 915q-112 0 -179.5 62.5t-67.5 161.5v145q0 102 67.5 163.5t179.5 61.5t180 -62t68 -163v-145q0 -99 -68 -161.5t-180 -62.5zM614 1016q57 0 92 34t35 89v145q0 56 -35 90.5t-92 34.5t-92 -34.5t-35 -90.5v-145q0 -55 35 -89t92 -34z" />
    <glyph glyph-name="guillemotright" unicode="&#xbb;" 
d="M299 82h-246l393 493l-393 490h246l389 -492zM786 82h-245l393 493l-393 490h245l392 -492z" />
    <glyph glyph-name="onequarter" unicode="&#xbc;" 
d="M641 940l277 555h139l-746 -1495h-139l414 829h-520v117h239v455q-35 -49 -72 -82l-127 -107v162l148 121h192v-549h195v-6zM971 252v174h141v-426h-141v137h-353v176l259 353h159l-276 -381v-33h211z" />
    <glyph glyph-name="onehalf" unicode="&#xbd;" 
d="M645 948l273 547h139l-746 -1495h-139l414 829h-520v119h239v453q-35 -50 -72 -80l-127 -107v160l148 121h192v-547h199zM958 119h220v-119h-535v147l258 148q125 70 125 149q0 54 -33.5 85.5t-87.5 31.5q-55 0 -88 -32.5t-33 -86.5h-141q3 104 75.5 169t186.5 65
q118 0 190 -61.5t72 -161.5q0 -136 -184 -236l-168 -94v-21q88 17 143 17z" />
    <glyph glyph-name="threequarters" unicode="&#xbe;" 
d="M582 1038q0 -98 -73.5 -158.5t-193.5 -60.5t-194 59t-74 156h141q0 -44 35 -72t92 -28t91 28.5t34 75.5q0 46 -34 74.5t-89 28.5h-61v123l156 120h-316v111h453v-117l-168 -131q91 -12 146 -68.5t55 -140.5zM172 0l746 1495h139l-746 -1495h-139zM971 252v174h141v-426
h-141v137h-353v176l259 353h159l-276 -381v-33h211z" />
    <glyph glyph-name="questiondown" unicode="&#xbf;" 
d="M737 879h-47q-63 0 -101 36t-38 95q0 58 38 92.5t101 34.5h47q63 0 101.5 -34.5t38.5 -92.5q0 -59 -38.5 -95t-101.5 -36zM965 -348h-275q-221 0 -352 116.5t-131 313.5q0 180 109.5 293t289.5 121v198h205l4 -389h-133q-119 0 -186.5 -59.5t-67.5 -163.5t68 -163.5
t188 -59.5h281v-207z" />
    <glyph glyph-name="Agrave" unicode="&#xc0;" 
d="M758 1659h-230l-237 287h246zM313 0h-225l381 1495h291l383 -1495h-225l-91 379h-424zM547 995l-103 -432h340l-102 430q-41 170 -68 316q-31 -164 -67 -314z" />
    <glyph glyph-name="Aacute" unicode="&#xc1;" 
d="M700 1659h-223l217 287h238zM313 0h-225l381 1495h291l383 -1495h-225l-91 379h-424zM547 995l-103 -432h340l-102 430q-41 170 -68 316q-31 -164 -67 -314z" />
    <glyph glyph-name="Acircumflex" unicode="&#xc2;" 
d="M457 1659h-228l283 287h205l282 -287h-225l-162 156zM313 0h-225l381 1495h291l383 -1495h-225l-91 379h-424zM547 995l-103 -432h340l-102 430q-41 170 -68 316q-31 -164 -67 -314z" />
    <glyph glyph-name="Atilde" unicode="&#xc3;" 
d="M758 1661q-46 0 -83 14t-61 34.5t-44 40.5t-42.5 34t-46.5 14q-28 0 -44.5 -18.5t-16.5 -53.5v-55h-146v64q0 96 53.5 153.5t143.5 57.5q47 0 84.5 -14t61 -34.5t43.5 -41t42 -34.5t46 -14q28 0 44.5 17t16.5 49v61h145v-65q0 -96 -53 -152.5t-143 -56.5zM313 0h-225
l381 1495h291l383 -1495h-225l-91 379h-424zM547 995l-103 -432h340l-102 430q-41 170 -68 316q-31 -164 -67 -314z" />
    <glyph glyph-name="Adieresis" unicode="&#xc4;" 
d="M381 1665q-65 0 -103 36.5t-38 100.5q0 65 38.5 103.5t102.5 38.5t102.5 -38.5t38.5 -103.5q0 -64 -38 -100.5t-103 -36.5zM848 1665q-65 0 -102 36.5t-37 100.5q0 65 37.5 103.5t101.5 38.5t102.5 -38.5t38.5 -103.5q0 -64 -38 -100.5t-103 -36.5zM313 0h-225l381 1495
h291l383 -1495h-225l-91 379h-424zM547 995l-103 -432h340l-102 430q-41 170 -68 316q-31 -164 -67 -314z" />
    <glyph glyph-name="Aring" unicode="&#xc5;" 
d="M614 1561q-116 0 -187 66.5t-71 174.5t71 175t187 67t187 -67t71 -175t-71 -174.5t-187 -66.5zM614 1679q56 0 89.5 33.5t33.5 89.5t-34 90.5t-89 34.5t-88.5 -34.5t-33.5 -90.5t33.5 -89.5t88.5 -33.5zM313 0h-225l381 1495h291l383 -1495h-225l-91 379h-424zM547 995
l-103 -432h340l-102 430q-41 170 -68 316q-31 -164 -67 -314z" />
    <glyph glyph-name="AE" unicode="&#xc6;" 
d="M262 0h-219l293 1495h838v-195h-363v-430h311v-198h-311v-477h363v-195h-562v393h-278zM502 1300l-137 -735h247v735h-110z" />
    <glyph glyph-name="Ccedilla" unicode="&#xc7;" 
d="M623 176q113 0 174 62.5t61 177.5h221q0 -198 -121 -315.5t-327 -120.5l-19 -54q62 -7 118 -26.5t99 -60t43 -93.5q0 -74 -72.5 -125t-185.5 -51h-190v123h149q44 0 74.5 22.5t30.5 51.5q0 40 -60 66t-161 26l49 131q-161 31 -251.5 143t-90.5 283v663q0 202 124 319.5
t335 117.5q209 0 332.5 -118.5t123.5 -318.5h-221q0 116 -61 178t-174 62t-175.5 -61.5t-62.5 -176.5v-665q0 -115 62.5 -177.5t175.5 -62.5z" />
    <glyph glyph-name="Egrave" unicode="&#xc8;" 
d="M799 1659h-230l-237 287h246zM1071 0h-878v1495h878v-197h-661v-426h589v-190h-589v-485h661v-197z" />
    <glyph glyph-name="Eacute" unicode="&#xc9;" 
d="M741 1659h-223l217 287h238zM1071 0h-878v1495h878v-197h-661v-426h589v-190h-589v-485h661v-197z" />
    <glyph glyph-name="Ecircumflex" unicode="&#xca;" 
d="M498 1659h-228l283 287h205l282 -287h-225l-162 156zM1071 0h-878v1495h878v-197h-661v-426h589v-190h-589v-485h661v-197z" />
    <glyph glyph-name="Edieresis" unicode="&#xcb;" 
d="M422 1665q-65 0 -103 36.5t-38 100.5q0 65 38.5 103.5t102.5 38.5t102.5 -38.5t38.5 -103.5q0 -64 -38 -100.5t-103 -36.5zM889 1665q-65 0 -102 36.5t-37 100.5q0 65 37.5 103.5t101.5 38.5t102.5 -38.5t38.5 -103.5q0 -64 -38 -100.5t-103 -36.5zM1071 0h-878v1495h878
v-197h-661v-426h589v-190h-589v-485h661v-197z" />
    <glyph glyph-name="Igrave" unicode="&#xcc;" 
d="M758 1659h-230l-237 287h246zM1030 0h-829v201h301v1093h-301v201h829v-201h-303v-1093h303v-201z" />
    <glyph glyph-name="Iacute" unicode="&#xcd;" 
d="M700 1659h-223l217 287h238zM1030 0h-829v201h301v1093h-301v201h829v-201h-303v-1093h303v-201z" />
    <glyph glyph-name="Icircumflex" unicode="&#xce;" 
d="M457 1659h-228l283 287h205l282 -287h-225l-162 156zM1030 0h-829v201h301v1093h-301v201h829v-201h-303v-1093h303v-201z" />
    <glyph glyph-name="Idieresis" unicode="&#xcf;" 
d="M381 1665q-65 0 -103 36.5t-38 100.5q0 65 38.5 103.5t102.5 38.5t102.5 -38.5t38.5 -103.5q0 -64 -38 -100.5t-103 -36.5zM848 1665q-65 0 -102 36.5t-37 100.5q0 65 37.5 103.5t101.5 38.5t102.5 -38.5t38.5 -103.5q0 -64 -38 -100.5t-103 -36.5zM1030 0h-829v201h301
v1093h-301v201h829v-201h-303v-1093h303v-201z" />
    <glyph glyph-name="Eth" unicode="&#xd0;" 
d="M170 1495h418q221 0 353 -125t132 -332v-577q0 -211 -132 -336t-353 -125h-418v680h-150v166h150v649zM852 461v577q0 120 -71 190t-193 70h-197v-452h203v-166h-203v-481h197q122 0 193 70t71 192z" />
    <glyph glyph-name="Ntilde" unicode="&#xd1;" 
d="M758 1661q-46 0 -83 14t-61 34.5t-44 40.5t-42.5 34t-46.5 14q-28 0 -44.5 -18.5t-16.5 -53.5v-55h-146v64q0 96 53.5 153.5t143.5 57.5q47 0 84.5 -14t61 -34.5t43.5 -41t42 -34.5t46 -14q28 0 44.5 17t16.5 49v61h145v-65q0 -96 -53 -152.5t-143 -56.5zM373 0h-207
v1495h280l435 -1243q-25 288 -25 471v772h207v-1495h-279l-434 1243q23 -251 23 -459v-784z" />
    <glyph glyph-name="Ograve" unicode="&#xd2;" 
d="M758 1659h-230l-237 287h246zM614 -20q-209 0 -329.5 117.5t-120.5 318.5v663q0 202 120.5 319.5t329.5 117.5t330 -117.5t121 -317.5v-665q0 -201 -121 -318.5t-330 -117.5zM614 176q112 0 171 62t59 178v663q0 117 -59 178.5t-171 61.5t-170.5 -61.5t-58.5 -178.5v-663
q0 -116 58.5 -178t170.5 -62z" />
    <glyph glyph-name="Oacute" unicode="&#xd3;" 
d="M700 1659h-223l217 287h238zM614 -20q-209 0 -329.5 117.5t-120.5 318.5v663q0 202 120.5 319.5t329.5 117.5t330 -117.5t121 -317.5v-665q0 -201 -121 -318.5t-330 -117.5zM614 176q112 0 171 62t59 178v663q0 117 -59 178.5t-171 61.5t-170.5 -61.5t-58.5 -178.5v-663
q0 -116 58.5 -178t170.5 -62z" />
    <glyph glyph-name="Ocircumflex" unicode="&#xd4;" 
d="M457 1659h-228l283 287h205l282 -287h-225l-162 156zM614 -20q-209 0 -329.5 117.5t-120.5 318.5v663q0 202 120.5 319.5t329.5 117.5t330 -117.5t121 -317.5v-665q0 -201 -121 -318.5t-330 -117.5zM614 176q112 0 171 62t59 178v663q0 117 -59 178.5t-171 61.5
t-170.5 -61.5t-58.5 -178.5v-663q0 -116 58.5 -178t170.5 -62z" />
    <glyph glyph-name="Otilde" unicode="&#xd5;" 
d="M758 1661q-46 0 -83 14t-61 34.5t-44 40.5t-42.5 34t-46.5 14q-28 0 -44.5 -18.5t-16.5 -53.5v-55h-146v64q0 96 53.5 153.5t143.5 57.5q47 0 84.5 -14t61 -34.5t43.5 -41t42 -34.5t46 -14q28 0 44.5 17t16.5 49v61h145v-65q0 -96 -53 -152.5t-143 -56.5zM614 -20
q-209 0 -329.5 117.5t-120.5 318.5v663q0 202 120.5 319.5t329.5 117.5t330 -117.5t121 -317.5v-665q0 -201 -121 -318.5t-330 -117.5zM614 176q112 0 171 62t59 178v663q0 117 -59 178.5t-171 61.5t-170.5 -61.5t-58.5 -178.5v-663q0 -116 58.5 -178t170.5 -62z" />
    <glyph glyph-name="Odieresis" unicode="&#xd6;" 
d="M381 1665q-65 0 -103 36.5t-38 100.5q0 65 38.5 103.5t102.5 38.5t102.5 -38.5t38.5 -103.5q0 -64 -38 -100.5t-103 -36.5zM848 1665q-65 0 -102 36.5t-37 100.5q0 65 37.5 103.5t101.5 38.5t102.5 -38.5t38.5 -103.5q0 -64 -38 -100.5t-103 -36.5zM614 -20
q-209 0 -329.5 117.5t-120.5 318.5v663q0 202 120.5 319.5t329.5 117.5t330 -117.5t121 -317.5v-665q0 -201 -121 -318.5t-330 -117.5zM614 176q112 0 171 62t59 178v663q0 117 -59 178.5t-171 61.5t-170.5 -61.5t-58.5 -178.5v-663q0 -116 58.5 -178t170.5 -62z" />
    <glyph glyph-name="multiply" unicode="&#xd7;" 
d="M612 535l-278 -279l-135 139l274 275l-274 278l135 135l278 -274l281 281l137 -138l-282 -282l278 -275l-139 -139z" />
    <glyph glyph-name="Oslash" unicode="&#xd8;" 
d="M977 1536h192l-143 -254q39 -89 39 -201v-665q0 -201 -121 -318.5t-330 -117.5q-167 0 -282 79l-80 -141h-193l156 272q-51 97 -51 226v663q0 202 120.5 319.5t329.5 117.5q178 0 299 -91zM381 1079v-594l426 750q-60 84 -193 84q-113 0 -173 -61.5t-60 -178.5zM848 416
v553l-412 -725q62 -68 178 -68q113 0 173.5 62.5t60.5 177.5z" />
    <glyph glyph-name="Ugrave" unicode="&#xd9;" 
d="M758 1659h-230l-237 287h246zM614 -20q-213 0 -330.5 117t-117.5 321v1077h221v-1075q0 -118 57.5 -182t169.5 -64q111 0 169.5 64.5t58.5 181.5v1075h221v-1077q0 -205 -117.5 -321.5t-331.5 -116.5z" />
    <glyph glyph-name="Uacute" unicode="&#xda;" 
d="M700 1659h-223l217 287h238zM614 -20q-213 0 -330.5 117t-117.5 321v1077h221v-1075q0 -118 57.5 -182t169.5 -64q111 0 169.5 64.5t58.5 181.5v1075h221v-1077q0 -205 -117.5 -321.5t-331.5 -116.5z" />
    <glyph glyph-name="Ucircumflex" unicode="&#xdb;" 
d="M457 1659h-228l283 287h205l282 -287h-225l-162 156zM614 -20q-213 0 -330.5 117t-117.5 321v1077h221v-1075q0 -118 57.5 -182t169.5 -64q111 0 169.5 64.5t58.5 181.5v1075h221v-1077q0 -205 -117.5 -321.5t-331.5 -116.5z" />
    <glyph glyph-name="Udieresis" unicode="&#xdc;" 
d="M381 1665q-65 0 -103 36.5t-38 100.5q0 65 38.5 103.5t102.5 38.5t102.5 -38.5t38.5 -103.5q0 -64 -38 -100.5t-103 -36.5zM848 1665q-65 0 -102 36.5t-37 100.5q0 65 37.5 103.5t101.5 38.5t102.5 -38.5t38.5 -103.5q0 -64 -38 -100.5t-103 -36.5zM614 -20
q-213 0 -330.5 117t-117.5 321v1077h221v-1075q0 -118 57.5 -182t169.5 -64q111 0 169.5 64.5t58.5 181.5v1075h221v-1077q0 -205 -117.5 -321.5t-331.5 -116.5z" />
    <glyph glyph-name="Yacute" unicode="&#xdd;" 
d="M700 1659h-223l217 287h238zM725 0h-221v551l-445 944h230l264 -565q45 -95 65 -178q21 88 64 178l258 565h229l-444 -944v-551z" />
    <glyph glyph-name="Thorn" unicode="&#xde;" 
d="M393 0h-221v1495h221v-297h293q207 0 330 -114t123 -306q0 -193 -122.5 -305.5t-330.5 -112.5h-293v-360zM393 1006v-455h279q114 0 177.5 60.5t63.5 166.5t-64.5 167t-176.5 61h-279z" />
    <glyph glyph-name="germandbls" unicode="&#xdf;" 
d="M834 799q126 -33 198 -131t72 -242q0 -190 -127.5 -308t-333.5 -118h-127v195h111q115 0 181 66t66 177t-66 174.5t-181 63.5h-92v180h88q103 0 164 63.5t61 165.5q0 110 -63 173t-169 63q-108 0 -171.5 -64t-63.5 -174v-1083h-213v1083q0 195 123 314t325 119
q209 0 334 -103.5t125 -284.5q0 -125 -63.5 -211.5t-177.5 -117.5z" />
    <glyph glyph-name="agrave" unicode="&#xe0;" 
d="M547 1608l221 -287h-229l-238 287h246zM625 1147q201 0 318.5 -102t117.5 -275v-770h-215v203h-4q-17 -104 -107.5 -163.5t-232.5 -59.5q-175 0 -277 90.5t-102 248.5q0 161 108.5 252t298.5 91h310v104q0 92 -58 142t-161 50q-92 0 -155 -39.5t-73 -103.5h-215
q12 149 135.5 240.5t311.5 91.5zM567 147q120 0 196.5 60t76.5 155v148h-303q-89 0 -141 -47t-52 -129q0 -88 59.5 -137.5t163.5 -49.5z" />
    <glyph glyph-name="aacute" unicode="&#xe1;" 
d="M705 1608h237l-231 -287h-224zM625 1147q201 0 318.5 -102t117.5 -275v-770h-215v203h-4q-17 -104 -107.5 -163.5t-232.5 -59.5q-175 0 -277 90.5t-102 248.5q0 161 108.5 252t298.5 91h310v104q0 92 -58 142t-161 50q-92 0 -155 -39.5t-73 -103.5h-215
q12 149 135.5 240.5t311.5 91.5zM567 147q120 0 196.5 60t76.5 155v148h-303q-89 0 -141 -47t-52 -129q0 -88 59.5 -137.5t163.5 -49.5z" />
    <glyph glyph-name="acircumflex" unicode="&#xe2;" 
d="M784 1321l-161 156l-156 -156h-227l282 287h205l283 -287h-226zM625 1147q201 0 318.5 -102t117.5 -275v-770h-215v203h-4q-17 -104 -107.5 -163.5t-232.5 -59.5q-175 0 -277 90.5t-102 248.5q0 161 108.5 252t298.5 91h310v104q0 92 -58 142t-161 50q-92 0 -155 -39.5
t-73 -103.5h-215q12 149 135.5 240.5t311.5 91.5zM567 147q120 0 196.5 60t76.5 155v148h-303q-89 0 -141 -47t-52 -129q0 -88 59.5 -137.5t163.5 -49.5z" />
    <glyph glyph-name="atilde" unicode="&#xe3;" 
d="M430 1389v-56h-145v64q0 97 53.5 154t142.5 57q47 0 84.5 -14t61 -34.5t43.5 -41t42 -34.5t46 -14q28 0 44.5 17t16.5 49v61h146v-65q0 -96 -53.5 -152.5t-143.5 -56.5q-46 0 -83 14t-60.5 34.5t-43.5 40.5t-42.5 34t-46.5 14q-29 0 -45.5 -18.5t-16.5 -52.5zM625 1147
q201 0 318.5 -102t117.5 -275v-770h-215v203h-4q-17 -104 -107.5 -163.5t-232.5 -59.5q-175 0 -277 90.5t-102 248.5q0 161 108.5 252t298.5 91h310v104q0 92 -58 142t-161 50q-92 0 -155 -39.5t-73 -103.5h-215q12 149 135.5 240.5t311.5 91.5zM567 147q120 0 196.5 60
t76.5 155v148h-303q-89 0 -141 -47t-52 -129q0 -88 59.5 -137.5t163.5 -49.5z" />
    <glyph glyph-name="adieresis" unicode="&#xe4;" 
d="M391 1321q-65 0 -103 37.5t-38 101.5q0 65 38.5 103.5t102.5 38.5t102.5 -38.5t38.5 -103.5q0 -64 -38 -101.5t-103 -37.5zM858 1321q-64 0 -101.5 37.5t-37.5 101.5q0 65 37.5 103.5t101.5 38.5t102.5 -38.5t38.5 -103.5q0 -64 -38 -101.5t-103 -37.5zM625 1147
q201 0 318.5 -102t117.5 -275v-770h-215v203h-4q-17 -104 -107.5 -163.5t-232.5 -59.5q-175 0 -277 90.5t-102 248.5q0 161 108.5 252t298.5 91h310v104q0 92 -58 142t-161 50q-92 0 -155 -39.5t-73 -103.5h-215q12 149 135.5 240.5t311.5 91.5zM567 147q120 0 196.5 60
t76.5 155v148h-303q-89 0 -141 -47t-52 -129q0 -88 59.5 -137.5t163.5 -49.5z" />
    <glyph glyph-name="aring" unicode="&#xe5;" 
d="M625 1239q-116 0 -187 67t-71 175q0 109 70.5 175t187.5 66t187.5 -66t70.5 -175q0 -108 -71 -175t-187 -67zM625 1606q-55 0 -89 -34.5t-34 -90.5q0 -55 34 -89t89 -34t89 34t34 89q0 56 -34 90.5t-89 34.5zM625 1147q201 0 318.5 -102t117.5 -275v-770h-215v203h-4
q-17 -104 -107.5 -163.5t-232.5 -59.5q-175 0 -277 90.5t-102 248.5q0 161 108.5 252t298.5 91h310v104q0 92 -58 142t-161 50q-92 0 -155 -39.5t-73 -103.5h-215q12 149 135.5 240.5t311.5 91.5zM567 147q120 0 196.5 60t76.5 155v148h-303q-89 0 -141 -47t-52 -129
q0 -88 59.5 -137.5t163.5 -49.5z" />
    <glyph glyph-name="ae" unicode="&#xe6;" 
d="M350 -20q-127 0 -202.5 79t-75.5 213v117q0 128 87.5 204.5t233.5 76.5h131v153q0 154 -123 154q-56 0 -88 -34.5t-32 -94.5h-193q0 135 77.5 217t203.5 82q109 0 171.5 -49.5t73.5 -110.5h11q9 61 69.5 110.5t165.5 49.5q136 0 216.5 -87t80.5 -235v-305h-446v-219
q0 -69 34.5 -110t90.5 -41q60 0 94.5 32.5t34.5 89.5h192q0 -132 -81.5 -212t-215.5 -80q-107 0 -166.5 49.5t-68.5 111.5h-11q-11 -61 -79 -111t-185 -50zM711 825v-155h254v155q0 70 -34 111t-95 41q-58 0 -91.5 -41t-33.5 -111zM395 150q59 0 94 41t35 110v219h-129
q-58 0 -90.5 -35t-32.5 -96v-117q0 -57 32.5 -89.5t90.5 -32.5z" />
    <glyph glyph-name="ccedilla" unicode="&#xe7;" 
d="M623 174q105 0 168 53.5t69 151.5h217q-6 -184 -127.5 -291.5t-324.5 -107.5l-19 -54q62 -7 118 -26.5t99 -60t43 -93.5q0 -74 -72.5 -125t-185.5 -51h-190v123h149q44 0 74.5 22.5t30.5 51.5q0 40 -59 66t-162 26l51 133q-160 31 -251 142.5t-91 281.5v295
q0 202 125.5 319t337.5 117q203 0 325.5 -106.5t128.5 -290.5h-217q-6 96 -69 149t-168 53q-114 0 -178 -62.5t-64 -176.5v-297q0 -115 64 -178.5t178 -63.5z" />
    <glyph glyph-name="egrave" unicode="&#xe8;" 
d="M537 1608l221 -287h-230l-237 287h246zM1071 711v-201h-698v-94q0 -126 61.5 -191t181.5 -65q96 0 155.5 34t72.5 99h221q-25 -142 -148 -227.5t-303 -85.5q-206 0 -330 119.5t-124 316.5v295q0 198 123.5 317t330.5 119t332 -119t125 -317zM373 711v-52l483 3v51
q0 125 -62 191.5t-180 66.5t-179.5 -67.5t-61.5 -192.5z" />
    <glyph glyph-name="eacute" unicode="&#xe9;" 
d="M694 1608h238l-232 -287h-223zM1071 711v-201h-698v-94q0 -126 61.5 -191t181.5 -65q96 0 155.5 34t72.5 99h221q-25 -142 -148 -227.5t-303 -85.5q-206 0 -330 119.5t-124 316.5v295q0 198 123.5 317t330.5 119t332 -119t125 -317zM373 711v-52l483 3v51
q0 125 -62 191.5t-180 66.5t-179.5 -67.5t-61.5 -192.5z" />
    <glyph glyph-name="ecircumflex" unicode="&#xea;" 
d="M774 1321l-162 156l-155 -156h-228l283 287h205l282 -287h-225zM1071 711v-201h-698v-94q0 -126 61.5 -191t181.5 -65q96 0 155.5 34t72.5 99h221q-25 -142 -148 -227.5t-303 -85.5q-206 0 -330 119.5t-124 316.5v295q0 198 123.5 317t330.5 119t332 -119t125 -317z
M373 711v-52l483 3v51q0 125 -62 191.5t-180 66.5t-179.5 -67.5t-61.5 -192.5z" />
    <glyph glyph-name="edieresis" unicode="&#xeb;" 
d="M381 1321q-65 0 -103 37.5t-38 101.5q0 65 38.5 103.5t102.5 38.5t102.5 -38.5t38.5 -103.5q0 -64 -38 -101.5t-103 -37.5zM848 1321q-64 0 -101.5 37.5t-37.5 101.5q0 65 37.5 103.5t101.5 38.5t102.5 -38.5t38.5 -103.5q0 -64 -38 -101.5t-103 -37.5zM1071 711v-201
h-698v-94q0 -126 61.5 -191t181.5 -65q96 0 155.5 34t72.5 99h221q-25 -142 -148 -227.5t-303 -85.5q-206 0 -330 119.5t-124 316.5v295q0 198 123.5 317t330.5 119t332 -119t125 -317zM373 711v-52l483 3v51q0 125 -62 191.5t-180 66.5t-179.5 -67.5t-61.5 -192.5z" />
    <glyph glyph-name="igrave" unicode="&#xec;" horiz-adv-x="1024" 
d="M680 1321h-229l-238 287h246zM942 0h-788v201h295v725h-250v200h471v-925h272v-201z" />
    <glyph glyph-name="iacute" unicode="&#xed;" horiz-adv-x="1024" 
d="M623 1321h-224l217 287h238zM942 0h-788v201h295v725h-250v200h471v-925h272v-201z" />
    <glyph glyph-name="icircumflex" unicode="&#xee;" horiz-adv-x="1024" 
d="M379 1321h-227l282 287h205l283 -287h-226l-161 156zM942 0h-788v201h295v725h-250v200h471v-925h272v-201z" />
    <glyph glyph-name="idieresis" unicode="&#xef;" horiz-adv-x="1024" 
d="M303 1321q-65 0 -103 37.5t-38 101.5q0 65 38.5 103.5t102.5 38.5t102.5 -38.5t38.5 -103.5q0 -64 -38 -101.5t-103 -37.5zM770 1321q-64 0 -101.5 37.5t-37.5 101.5q0 65 37.5 103.5t101.5 38.5t102.5 -38.5t38.5 -103.5q0 -64 -38 -101.5t-103 -37.5zM942 0h-788v201
h295v725h-250v200h471v-925h272v-201z" />
    <glyph glyph-name="eth" unicode="&#xf0;" 
d="M612 -14q-220 0 -353.5 128t-133.5 339q0 204 117.5 328t310.5 124q86 0 153.5 -40t96.5 -89h24q-22 55 -139 213l-127 172l-328 -143v180l228 100l-146 197h252l84 -117l314 135v-180l-215 -92l145 -205q101 -139 155 -285t54 -278q0 -221 -134.5 -354t-357.5 -133z
M612 178q123 0 197 75t74 200t-74 200.5t-197 75.5q-120 0 -193 -75.5t-73 -200.5q0 -124 73 -199.5t193 -75.5z" />
    <glyph glyph-name="ntilde" unicode="&#xf1;" 
d="M430 1389v-56h-145v64q0 97 53.5 154t142.5 57q47 0 84.5 -14t61 -34.5t43.5 -41t42 -34.5t46 -14q28 0 44.5 17t16.5 49v61h146v-65q0 -96 -53.5 -152.5t-143.5 -56.5q-46 0 -83 14t-60.5 34.5t-43.5 40.5t-42.5 34t-46.5 14q-29 0 -45.5 -18.5t-16.5 -52.5zM692 1147
q168 0 268.5 -107.5t100.5 -289.5v-750h-221v725q0 109 -59 169t-163 60q-106 0 -165.5 -63t-59.5 -180v-711h-221v1126h219v-215h4q14 111 92 173.5t205 62.5z" />
    <glyph glyph-name="ograve" unicode="&#xf2;" 
d="M758 1321h-230l-237 287h246zM614 -18q-210 0 -332 118t-122 318v291q0 200 122 318t332 118t333.5 -118t123.5 -318v-291q0 -200 -123.5 -318t-333.5 -118zM614 176q111 0 173.5 63t62.5 179v291q0 116 -62.5 178.5t-173.5 62.5t-172 -62.5t-61 -178.5v-291
q0 -116 61 -179t172 -63z" />
    <glyph glyph-name="oacute" unicode="&#xf3;" 
d="M700 1321h-223l217 287h238zM614 -18q-210 0 -332 118t-122 318v291q0 200 122 318t332 118t333.5 -118t123.5 -318v-291q0 -200 -123.5 -318t-333.5 -118zM614 176q111 0 173.5 63t62.5 179v291q0 116 -62.5 178.5t-173.5 62.5t-172 -62.5t-61 -178.5v-291
q0 -116 61 -179t172 -63z" />
    <glyph glyph-name="ocircumflex" unicode="&#xf4;" 
d="M457 1321h-228l283 287h205l282 -287h-225l-162 156zM614 -18q-210 0 -332 118t-122 318v291q0 200 122 318t332 118t333.5 -118t123.5 -318v-291q0 -200 -123.5 -318t-333.5 -118zM614 176q111 0 173.5 63t62.5 179v291q0 116 -62.5 178.5t-173.5 62.5t-172 -62.5
t-61 -178.5v-291q0 -116 61 -179t172 -63z" />
    <glyph glyph-name="otilde" unicode="&#xf5;" 
d="M758 1323q-46 0 -83 14t-61 34.5t-44 40.5t-42.5 34t-46.5 14q-28 0 -44.5 -18t-16.5 -53v-56h-146v64q0 96 53.5 153.5t143.5 57.5q47 0 84.5 -14t61 -34.5t43.5 -41t42 -34.5t46 -14q28 0 44.5 17t16.5 49v61h145v-65q0 -96 -53 -152.5t-143 -56.5zM614 -18
q-210 0 -332 118t-122 318v291q0 200 122 318t332 118t333.5 -118t123.5 -318v-291q0 -200 -123.5 -318t-333.5 -118zM614 176q111 0 173.5 63t62.5 179v291q0 116 -62.5 178.5t-173.5 62.5t-172 -62.5t-61 -178.5v-291q0 -116 61 -179t172 -63z" />
    <glyph glyph-name="odieresis" unicode="&#xf6;" 
d="M381 1321q-65 0 -103 37.5t-38 101.5q0 65 38.5 103.5t102.5 38.5t102.5 -38.5t38.5 -103.5q0 -64 -38 -101.5t-103 -37.5zM848 1321q-64 0 -101.5 37.5t-37.5 101.5q0 65 37.5 103.5t101.5 38.5t102.5 -38.5t38.5 -103.5q0 -64 -38 -101.5t-103 -37.5zM614 -18
q-210 0 -332 118t-122 318v291q0 200 122 318t332 118t333.5 -118t123.5 -318v-291q0 -200 -123.5 -318t-333.5 -118zM614 176q111 0 173.5 63t62.5 179v291q0 116 -62.5 178.5t-173.5 62.5t-172 -62.5t-61 -178.5v-291q0 -116 61 -179t172 -63z" />
    <glyph glyph-name="divide" unicode="&#xf7;" 
d="M614 942q-81 0 -130.5 45t-49.5 119q0 72 49.5 117t130.5 45t131 -45t50 -117q0 -74 -49.5 -119t-131.5 -45zM1024 584h-819v192h819v-192zM614 92q-82 0 -131 44t-49 118t49.5 119t130.5 45q82 0 131.5 -45t49.5 -119q0 -73 -49.5 -117.5t-131.5 -44.5z" />
    <glyph glyph-name="oslash" unicode="&#xf8;" 
d="M963 1208h200l-168 -239q70 -106 70 -256v-297q0 -201 -121 -318.5t-330 -117.5q-160 0 -270 69l-78 -110h-200l161 229q-63 104 -63 248v295q0 201 120.5 318.5t329.5 117.5q148 0 260 -64zM371 711v-295q0 -29 2 -41l385 543q-58 34 -144 34q-115 0 -179 -63.5
t-64 -177.5zM858 416v295q0 23 -4 59l-391 -555q59 -41 151 -41q115 0 179.5 64t64.5 178z" />
    <glyph glyph-name="ugrave" unicode="&#xf9;" 
d="M758 1321h-230l-237 287h246zM612 -20q-204 0 -324 118t-120 320v708h221v-706q0 -118 59 -183t164 -65q107 0 167.5 65t60.5 183v706h221v-708q0 -202 -122 -320t-327 -118z" />
    <glyph glyph-name="uacute" unicode="&#xfa;" 
d="M700 1321h-223l217 287h238zM612 -20q-204 0 -324 118t-120 320v708h221v-706q0 -118 59 -183t164 -65q107 0 167.5 65t60.5 183v706h221v-708q0 -202 -122 -320t-327 -118z" />
    <glyph glyph-name="ucircumflex" unicode="&#xfb;" 
d="M457 1321h-228l283 287h205l282 -287h-225l-162 156zM612 -20q-204 0 -324 118t-120 320v708h221v-706q0 -118 59 -183t164 -65q107 0 167.5 65t60.5 183v706h221v-708q0 -202 -122 -320t-327 -118z" />
    <glyph glyph-name="udieresis" unicode="&#xfc;" 
d="M381 1321q-65 0 -103 37.5t-38 101.5q0 65 38.5 103.5t102.5 38.5t102.5 -38.5t38.5 -103.5q0 -64 -38 -101.5t-103 -37.5zM848 1321q-64 0 -101.5 37.5t-37.5 101.5q0 65 37.5 103.5t101.5 38.5t102.5 -38.5t38.5 -103.5q0 -64 -38 -101.5t-103 -37.5zM612 -20
q-204 0 -324 118t-120 320v708h221v-706q0 -118 59 -183t164 -65q107 0 167.5 65t60.5 183v706h221v-708q0 -202 -122 -320t-327 -118z" />
    <glyph glyph-name="yacute" unicode="&#xfd;" 
d="M700 1321h-223l217 287h238zM584 -369h-232l164 435l-432 1060h240l247 -634q27 -74 56 -193q19 95 55 193l233 634h230z" />
    <glyph glyph-name="thorn" unicode="&#xfe;" 
d="M688 1147q171 0 273 -115t102 -311v-318q0 -194 -102.5 -308.5t-272.5 -114.5q-126 0 -207 62.5t-96 172.5h-2v-563h-217v1843h221v-321l-6 -263h4q15 109 96.5 172.5t206.5 63.5zM842 416v295q0 117 -61 180t-169 63q-105 0 -165 -64t-60 -179v-295q0 -115 60 -179.5
t165 -64.5q108 0 169 63.5t61 180.5z" />
    <glyph glyph-name="ydieresis" unicode="&#xff;" 
d="M381 1321q-65 0 -103 37.5t-38 101.5q0 65 38.5 103.5t102.5 38.5t102.5 -38.5t38.5 -103.5q0 -64 -38 -101.5t-103 -37.5zM848 1321q-64 0 -101.5 37.5t-37.5 101.5q0 65 37.5 103.5t101.5 38.5t102.5 -38.5t38.5 -103.5q0 -64 -38 -101.5t-103 -37.5zM584 -369h-232
l164 435l-432 1060h240l247 -634q27 -74 56 -193q19 95 55 193l233 634h230z" />
    <glyph glyph-name="Amacron" unicode="&#x100;" 
d="M954 1708h-680v176h680v-176zM313 0h-225l381 1495h291l383 -1495h-225l-91 379h-424zM547 995l-103 -432h340l-102 430q-41 170 -68 316q-31 -164 -67 -314z" />
    <glyph glyph-name="amacron" unicode="&#x101;" 
d="M285 1538h680v-174h-680v174zM625 1147q201 0 318.5 -102t117.5 -275v-770h-215v203h-4q-17 -104 -107.5 -163.5t-232.5 -59.5q-175 0 -277 90.5t-102 248.5q0 161 108.5 252t298.5 91h310v104q0 92 -58 142t-161 50q-92 0 -155 -39.5t-73 -103.5h-215
q12 149 135.5 240.5t311.5 91.5zM567 147q120 0 196.5 60t76.5 155v148h-303q-89 0 -141 -47t-52 -129q0 -88 59.5 -137.5t163.5 -49.5z" />
    <glyph glyph-name="Abreve" unicode="&#x102;" 
d="M614 1647q-154 0 -248 82t-94 217h172q0 -73 46.5 -118.5t121.5 -45.5q78 0 125 45t47 119h174q0 -135 -94.5 -217t-249.5 -82zM313 0h-225l381 1495h291l383 -1495h-225l-91 379h-424zM547 995l-103 -432h340l-102 430q-41 170 -68 316q-31 -164 -67 -314z" />
    <glyph glyph-name="abreve" unicode="&#x103;" 
d="M625 1309q-154 0 -248 82t-94 217h172q0 -73 46.5 -118.5t121.5 -45.5q78 0 125 45t47 119h174q0 -135 -94.5 -217t-249.5 -82zM625 1147q201 0 318.5 -102t117.5 -275v-770h-215v203h-4q-17 -104 -107.5 -163.5t-232.5 -59.5q-175 0 -277 90.5t-102 248.5
q0 161 108.5 252t298.5 91h310v104q0 92 -58 142t-161 50q-92 0 -155 -39.5t-73 -103.5h-215q12 149 135.5 240.5t311.5 91.5zM567 147q120 0 196.5 60t76.5 155v148h-303q-89 0 -141 -47t-52 -129q0 -88 59.5 -137.5t163.5 -49.5z" />
    <glyph glyph-name="Aogonek" unicode="&#x104;" 
d="M1061 -279h129v-151h-178q-116 0 -186 56t-70 145q0 123 162 231l-91 377h-424l-90 -379h-225l381 1495h291l383 -1495h-60l-12 -10q-117 -99 -117 -174q0 -41 29.5 -68t77.5 -27zM547 995l-103 -432h340l-102 430q-41 170 -68 316q-31 -164 -67 -314z" />
    <glyph glyph-name="aogonek" unicode="&#x105;" 
d="M1038 -279h129v-151h-178q-116 0 -186 56t-70 145q0 124 158 229h-45v203h-4q-17 -104 -107.5 -163.5t-232.5 -59.5q-175 0 -277 90.5t-102 248.5q0 161 108.5 252t298.5 91h310v104q0 92 -58 142t-161 50q-92 0 -155 -39.5t-73 -103.5h-215q12 149 135.5 240.5
t311.5 91.5q201 0 318.5 -102t117.5 -275v-770q-69 -60 -99 -103t-30 -81q0 -41 29 -68t77 -27zM567 147q120 0 196.5 60t76.5 155v148h-303q-89 0 -141 -47t-52 -129q0 -88 59.5 -137.5t163.5 -49.5z" />
    <glyph glyph-name="Cacute" unicode="&#x106;" 
d="M711 1659h-224l218 287h237zM623 -20q-211 0 -335 117.5t-124 318.5v663q0 202 124 319.5t335 117.5q209 0 332.5 -118.5t123.5 -318.5h-221q0 116 -61 178t-174 62t-175.5 -61.5t-62.5 -176.5v-665q0 -115 62.5 -177.5t175.5 -62.5t174 62.5t61 177.5h221
q0 -200 -123.5 -318t-332.5 -118z" />
    <glyph glyph-name="cacute" unicode="&#x107;" 
d="M709 1321h-224l217 287h238zM623 -20q-212 0 -337.5 117t-125.5 319v295q0 202 125.5 319t337.5 117q203 0 325.5 -106.5t128.5 -290.5h-217q-6 96 -69 149t-168 53q-114 0 -178 -62.5t-64 -176.5v-297q0 -115 64 -178.5t178 -63.5q105 0 168 53.5t69 151.5h217
q-6 -184 -128.5 -291.5t-325.5 -107.5z" />
    <glyph glyph-name="Ccircumflex" unicode="&#x108;" 
d="M467 1659h-227l282 287h205l283 -287h-226l-161 156zM623 -20q-211 0 -335 117.5t-124 318.5v663q0 202 124 319.5t335 117.5q209 0 332.5 -118.5t123.5 -318.5h-221q0 116 -61 178t-174 62t-175.5 -61.5t-62.5 -176.5v-665q0 -115 62.5 -177.5t175.5 -62.5t174 62.5
t61 177.5h221q0 -200 -123.5 -318t-332.5 -118z" />
    <glyph glyph-name="ccircumflex" unicode="&#x109;" 
d="M465 1321h-229l282 287h205l285 -287h-226l-161 156zM623 -20q-212 0 -337.5 117t-125.5 319v295q0 202 125.5 319t337.5 117q203 0 325.5 -106.5t128.5 -290.5h-217q-6 96 -69 149t-168 53q-114 0 -178 -62.5t-64 -176.5v-297q0 -115 64 -178.5t178 -63.5
q105 0 168 53.5t69 151.5h217q-6 -184 -128.5 -291.5t-325.5 -107.5z" />
    <glyph glyph-name="Cdotaccent" unicode="&#x10a;" 
d="M625 1663q-72 0 -115 37.5t-43 101.5t43 102t115 38t114.5 -38t42.5 -102t-42.5 -101.5t-114.5 -37.5zM623 -20q-211 0 -335 117.5t-124 318.5v663q0 202 124 319.5t335 117.5q209 0 332.5 -118.5t123.5 -318.5h-221q0 116 -61 178t-174 62t-175.5 -61.5t-62.5 -176.5
v-665q0 -115 62.5 -177.5t175.5 -62.5t174 62.5t61 177.5h221q0 -200 -123.5 -318t-332.5 -118z" />
    <glyph glyph-name="cdotaccent" unicode="&#x10b;" 
d="M623 1321q-73 0 -115.5 37t-42.5 102t42.5 103.5t115.5 38.5q72 0 113.5 -38.5t41.5 -103.5t-41.5 -102t-113.5 -37zM623 -20q-212 0 -337.5 117t-125.5 319v295q0 202 125.5 319t337.5 117q203 0 325.5 -106.5t128.5 -290.5h-217q-6 96 -69 149t-168 53
q-114 0 -178 -62.5t-64 -176.5v-297q0 -115 64 -178.5t178 -63.5q105 0 168 53.5t69 151.5h217q-6 -184 -128.5 -291.5t-325.5 -107.5z" />
    <glyph glyph-name="Ccaron" unicode="&#x10c;" 
d="M727 1659h-205l-282 287h225l162 -156l155 156h228zM623 -20q-211 0 -335 117.5t-124 318.5v663q0 202 124 319.5t335 117.5q209 0 332.5 -118.5t123.5 -318.5h-221q0 116 -61 178t-174 62t-175.5 -61.5t-62.5 -176.5v-665q0 -115 62.5 -177.5t175.5 -62.5t174 62.5
t61 177.5h221q0 -200 -123.5 -318t-332.5 -118z" />
    <glyph glyph-name="ccaron" unicode="&#x10d;" 
d="M725 1321h-205l-282 287h225l162 -156l155 156h228zM623 -20q-212 0 -337.5 117t-125.5 319v295q0 202 125.5 319t337.5 117q203 0 325.5 -106.5t128.5 -290.5h-217q-6 96 -69 149t-168 53q-114 0 -178 -62.5t-64 -176.5v-297q0 -115 64 -178.5t178 -63.5q105 0 168 53.5
t69 151.5h217q-6 -184 -128.5 -291.5t-325.5 -107.5z" />
    <glyph glyph-name="Dcaron" unicode="&#x10e;" 
d="M717 1659h-205l-283 287h226l161 -156l156 156h227zM588 0h-418v1495h418q221 0 353 -125t132 -332v-577q0 -211 -132 -336t-353 -125zM391 1298v-1099h197q122 0 193 70t71 192v577q0 120 -71 190t-193 70h-197z" />
    <glyph glyph-name="dcaron" unicode="&#x10f;" 
d="M725 911l-6 263v321h215v-1495h-211v215h-4q-14 -109 -84 -172t-182 -63q-155 0 -246.5 111.5t-91.5 301.5v338q0 192 91.5 304t246.5 112q112 0 182 -63t84 -173h6zM1042 1126v369h197l-20 -369h-177zM528 166q91 0 141 63t50 177v315q0 114 -50 177t-141 63
q-94 0 -146 -63t-52 -177v-315q0 -114 52 -177t146 -63z" />
    <glyph glyph-name="Dcroat" unicode="&#x110;" 
d="M170 1495h418q221 0 353 -125t132 -332v-577q0 -211 -132 -336t-353 -125h-418v680h-150v166h150v649zM852 461v577q0 120 -71 190t-193 70h-197v-452h203v-166h-203v-481h197q122 0 193 70t71 192z" />
    <glyph glyph-name="dcroat" unicode="&#x111;" 
d="M1053 1321h176v-162h-176v-1159h-217v215h-5q-15 -111 -93 -173t-203 -62q-170 0 -269.5 114t-99.5 309v195q0 197 99.5 311.5t269.5 114.5q124 0 202.5 -63.5t93.5 -172.5h7l-7 263v108h-325v162h325v174h222v-174zM610 172q104 0 162.5 64.5t58.5 179.5v172
q0 115 -58.5 179t-162.5 64q-108 0 -165.5 -62.5t-57.5 -180.5v-172q0 -118 57.5 -181t165.5 -63z" />
    <glyph glyph-name="Emacron" unicode="&#x112;" 
d="M995 1708h-680v176h680v-176zM1071 0h-878v1495h878v-197h-661v-426h589v-190h-589v-485h661v-197z" />
    <glyph glyph-name="emacron" unicode="&#x113;" 
d="M274 1538h680v-174h-680v174zM1071 711v-201h-698v-94q0 -126 61.5 -191t181.5 -65q96 0 155.5 34t72.5 99h221q-25 -142 -148 -227.5t-303 -85.5q-206 0 -330 119.5t-124 316.5v295q0 198 123.5 317t330.5 119t332 -119t125 -317zM373 711v-52l483 3v51q0 125 -62 191.5
t-180 66.5t-179.5 -67.5t-61.5 -192.5z" />
    <glyph glyph-name="Ebreve" unicode="&#x114;" 
d="M655 1647q-154 0 -248 82t-94 217h172q0 -73 46.5 -118.5t121.5 -45.5q78 0 125 45t47 119h174q0 -135 -94.5 -217t-249.5 -82zM1071 0h-878v1495h878v-197h-661v-426h589v-190h-589v-485h661v-197z" />
    <glyph glyph-name="ebreve" unicode="&#x115;" 
d="M614 1309q-154 0 -248 82t-94 217h172q0 -73 46.5 -118.5t121.5 -45.5q78 0 125 45t47 119h174q0 -135 -94.5 -217t-249.5 -82zM1071 711v-201h-698v-94q0 -126 61.5 -191t181.5 -65q96 0 155.5 34t72.5 99h221q-25 -142 -148 -227.5t-303 -85.5q-206 0 -330 119.5
t-124 316.5v295q0 198 123.5 317t330.5 119t332 -119t125 -317zM373 711v-52l483 3v51q0 125 -62 191.5t-180 66.5t-179.5 -67.5t-61.5 -192.5z" />
    <glyph glyph-name="Edotaccent" unicode="&#x116;" 
d="M655 1663q-72 0 -114.5 37.5t-42.5 101.5t42.5 102t114.5 38t115 -38t43 -102t-43 -101.5t-115 -37.5zM1071 0h-878v1495h878v-197h-661v-426h589v-190h-589v-485h661v-197z" />
    <glyph glyph-name="edotaccent" unicode="&#x117;" 
d="M614 1321q-72 0 -114.5 37.5t-42.5 101.5q0 65 42.5 103.5t114.5 38.5t115 -38.5t43 -103.5q0 -64 -43 -101.5t-115 -37.5zM1071 711v-201h-698v-94q0 -126 61.5 -191t181.5 -65q96 0 155.5 34t72.5 99h221q-25 -142 -148 -227.5t-303 -85.5q-206 0 -330 119.5
t-124 316.5v295q0 198 123.5 317t330.5 119t332 -119t125 -317zM373 711v-52l483 3v51q0 125 -62 191.5t-180 66.5t-179.5 -67.5t-61.5 -192.5z" />
    <glyph glyph-name="Eogonek" unicode="&#x118;" 
d="M952 -279h129v-151h-178q-116 0 -186 56t-70 145q0 124 158 229h-612v1495h878v-197h-661v-426h589v-190h-589v-485h661v-197h-96l-12 -10q-117 -97 -117 -174q0 -41 29 -68t77 -27z" />
    <glyph glyph-name="eogonek" unicode="&#x119;" 
d="M1065 711v-201h-688v-94q0 -256 239 -256q197 0 224 133h221q-13 -83 -63.5 -148t-127.5 -106l-55 -49q-117 -99 -117 -174q0 -41 29.5 -68t77.5 -27h129v-151h-178q-116 0 -186 56t-70 145q0 103 137 213q-12 -4 -23 -4q-206 0 -328 119.5t-122 316.5v295
q0 199 122 317.5t328 118.5t328.5 -118.5t122.5 -317.5zM377 711v-52l475 3v51q0 125 -60 191.5t-178 66.5q-117 0 -177 -67t-60 -193z" />
    <glyph glyph-name="Ecaron" unicode="&#x11a;" 
d="M758 1659h-205l-283 287h226l161 -156l156 156h227zM1071 0h-878v1495h878v-197h-661v-426h589v-190h-589v-485h661v-197z" />
    <glyph glyph-name="ecaron" unicode="&#x11b;" 
d="M999 1608l-282 -287h-205l-283 287h226l161 -156l156 156h227zM1071 711v-201h-698v-94q0 -126 61.5 -191t181.5 -65q96 0 155.5 34t72.5 99h221q-25 -142 -148 -227.5t-303 -85.5q-206 0 -330 119.5t-124 316.5v295q0 198 123.5 317t330.5 119t332 -119t125 -317z
M373 711v-52l483 3v51q0 125 -62 191.5t-180 66.5t-179.5 -67.5t-61.5 -192.5z" />
    <glyph glyph-name="Gcircumflex" unicode="&#x11c;" 
d="M457 1659h-228l283 287h205l282 -287h-225l-162 156zM623 -20q-211 0 -335 117.5t-124 318.5v663q0 202 124 319.5t335 117.5q209 0 332.5 -118.5t123.5 -318.5h-221q0 116 -61 178t-174 62t-175.5 -61.5t-62.5 -176.5v-665q0 -115 62.5 -178.5t175.5 -63.5
q112 0 173.5 63t61.5 179v168h-278v194h499v-362q0 -200 -123.5 -318t-332.5 -118z" />
    <glyph glyph-name="gcircumflex" unicode="&#x11d;" 
d="M768 1321l-162 156l-155 -156h-228l283 287h205l282 -287h-225zM838 911l-2 215h219v-1146q0 -162 -103 -255.5t-284 -93.5h-349v191h347q170 0 170 162v112l4 209h-4q-13 -110 -92.5 -172.5t-204.5 -62.5q-173 0 -274 114.5t-101 311.5v227q0 195 101 309.5t274 114.5
q125 0 204.5 -63t92.5 -173h2zM610 260q105 0 165.5 65t60.5 181v205q0 115 -60.5 179t-165.5 64q-108 0 -166.5 -62.5t-58.5 -180.5v-205q0 -118 58.5 -182t166.5 -64z" />
    <glyph glyph-name="Gbreve" unicode="&#x11e;" 
d="M614 1647q-154 0 -248 82t-94 217h172q0 -73 46.5 -118.5t121.5 -45.5q78 0 125 45t47 119h174q0 -135 -94.5 -217t-249.5 -82zM623 -20q-211 0 -335 117.5t-124 318.5v663q0 202 124 319.5t335 117.5q209 0 332.5 -118.5t123.5 -318.5h-221q0 116 -61 178t-174 62
t-175.5 -61.5t-62.5 -176.5v-665q0 -115 62.5 -178.5t175.5 -63.5q112 0 173.5 63t61.5 179v168h-278v194h499v-362q0 -200 -123.5 -318t-332.5 -118z" />
    <glyph glyph-name="gbreve" unicode="&#x11f;" 
d="M608 1309q-154 0 -248 82t-94 217h172q0 -73 46.5 -118.5t121.5 -45.5q78 0 125 45t47 119h174q0 -135 -94.5 -217t-249.5 -82zM838 911l-2 215h219v-1146q0 -162 -103 -255.5t-284 -93.5h-349v191h347q170 0 170 162v112l4 209h-4q-13 -110 -92.5 -172.5t-204.5 -62.5
q-173 0 -274 114.5t-101 311.5v227q0 195 101 309.5t274 114.5q125 0 204.5 -63t92.5 -173h2zM610 260q105 0 165.5 65t60.5 181v205q0 115 -60.5 179t-165.5 64q-108 0 -166.5 -62.5t-58.5 -180.5v-205q0 -118 58.5 -182t166.5 -64z" />
    <glyph glyph-name="Gdotaccent" unicode="&#x120;" 
d="M614 1663q-72 0 -114.5 37.5t-42.5 101.5t42.5 102t114.5 38t115 -38t43 -102t-43 -101.5t-115 -37.5zM623 -20q-211 0 -335 117.5t-124 318.5v663q0 202 124 319.5t335 117.5q209 0 332.5 -118.5t123.5 -318.5h-221q0 116 -61 178t-174 62t-175.5 -61.5t-62.5 -176.5
v-665q0 -115 62.5 -178.5t175.5 -63.5q112 0 173.5 63t61.5 179v168h-278v194h499v-362q0 -200 -123.5 -318t-332.5 -118z" />
    <glyph glyph-name="gdotaccent" unicode="&#x121;" 
d="M608 1321q-72 0 -114.5 37.5t-42.5 101.5q0 65 42.5 103.5t114.5 38.5t115 -38.5t43 -103.5q0 -64 -43 -101.5t-115 -37.5zM838 911l-2 215h219v-1146q0 -162 -103 -255.5t-284 -93.5h-349v191h347q170 0 170 162v112l4 209h-4q-13 -110 -92.5 -172.5t-204.5 -62.5
q-173 0 -274 114.5t-101 311.5v227q0 195 101 309.5t274 114.5q125 0 204.5 -63t92.5 -173h2zM610 260q105 0 165.5 65t60.5 181v205q0 115 -60.5 179t-165.5 64q-108 0 -166.5 -62.5t-58.5 -180.5v-205q0 -118 58.5 -182t166.5 -64z" />
    <glyph glyph-name="uni0122" unicode="&#x122;" 
d="M623 -20q-211 0 -335 117.5t-124 318.5v663q0 202 124 319.5t335 117.5q209 0 332.5 -118.5t123.5 -318.5h-221q0 116 -61 178t-174 62t-175.5 -61.5t-62.5 -176.5v-665q0 -115 62.5 -178.5t175.5 -63.5q112 0 173.5 63t61.5 179v168h-278v194h499v-362
q0 -200 -123.5 -318t-332.5 -118zM604 -492h-215l195 297h241z" />
    <glyph glyph-name="uni0123" unicode="&#x123;" 
d="M678 1802h182l-164 -481h-284zM838 911l-2 215h219v-1146q0 -162 -103 -255.5t-284 -93.5h-349v191h347q170 0 170 162v112l4 209h-4q-13 -110 -92.5 -172.5t-204.5 -62.5q-173 0 -274 114.5t-101 311.5v227q0 195 101 309.5t274 114.5q125 0 204.5 -63t92.5 -173h2z
M610 260q105 0 165.5 65t60.5 181v205q0 115 -60.5 179t-165.5 64q-108 0 -166.5 -62.5t-58.5 -180.5v-205q0 -118 58.5 -182t166.5 -64z" />
    <glyph glyph-name="Hcircumflex" unicode="&#x124;" 
d="M457 1659h-228l283 287h205l282 -287h-225l-162 156zM395 0h-221v1495h221v-618h439v618h221v-1495h-221v676h-439v-676z" />
    <glyph glyph-name="hcircumflex" unicode="&#x125;" 
d="M559 1661l-162 156l-155 -156h-228l283 287h205l282 -287h-225zM692 1147q168 0 268.5 -107.5t100.5 -289.5v-750h-221v725q0 110 -59.5 171.5t-162.5 61.5q-105 0 -165 -64.5t-60 -182.5v-711h-221v1495h221v-369l-2 -215h4q14 111 92 173.5t205 62.5z" />
    <glyph glyph-name="Hbar" unicode="&#x126;" 
d="M1055 1241h153v-166h-153v-1075h-221v676h-439v-676h-221v1075h-154v166h154v254h221v-254h439v254h221v-254zM395 877h439v198h-439v-198z" />
    <glyph glyph-name="hbar" unicode="&#x127;" 
d="M172 1159h-172v162h172v174h221v-174h330v-162h-330v-155l-2 -216h2q15 112 94 174t205 62q168 0 268.5 -107.5t100.5 -289.5v-627h-221v602q0 110 -59.5 172t-162.5 62q-105 0 -165 -65t-60 -183v-588h-221v1159z" />
    <glyph glyph-name="Itilde" unicode="&#x128;" 
d="M758 1661q-46 0 -83 14t-61 34.5t-44 40.5t-42.5 34t-46.5 14q-28 0 -44.5 -18.5t-16.5 -53.5v-55h-146v64q0 96 53.5 153.5t143.5 57.5q47 0 84.5 -14t61 -34.5t43.5 -41t42 -34.5t46 -14q28 0 44.5 17t16.5 49v61h145v-65q0 -96 -53 -152.5t-143 -56.5zM1030 0h-829
v201h301v1093h-301v201h829v-201h-303v-1093h303v-201z" />
    <glyph glyph-name="itilde" unicode="&#x129;" 
d="M680 1323q-47 0 -84.5 14t-61 34.5t-43.5 40.5t-42 34t-46 14q-28 0 -44.5 -18t-16.5 -53v-56h-145v64q0 97 53.5 154t142.5 57q46 0 83 -14t61 -34.5t44 -41t42.5 -34.5t46.5 -14q28 0 44.5 17t16.5 49v61h146v-65q0 -96 -54 -152.5t-143 -56.5zM942 0h-788v201h295v725
h-250v200h471v-925h272v-201z" />
    <glyph glyph-name="Imacron" unicode="&#x12a;" 
d="M954 1708h-680v176h680v-176zM1030 0h-829v201h301v1093h-301v201h829v-201h-303v-1093h303v-201z" />
    <glyph glyph-name="imacron" unicode="&#x12b;" horiz-adv-x="1024" 
d="M877 1364h-680v174h680v-174zM942 0h-788v201h295v725h-250v200h471v-925h272v-201z" />
    <glyph glyph-name="Ibreve" unicode="&#x12c;" 
d="M614 1647q-154 0 -248 82t-94 217h172q0 -73 46.5 -118.5t121.5 -45.5q78 0 125 45t47 119h174q0 -135 -94.5 -217t-249.5 -82zM1030 0h-829v201h301v1093h-301v201h829v-201h-303v-1093h303v-201z" />
    <glyph glyph-name="ibreve" unicode="&#x12d;" 
d="M537 1309q-154 0 -249 82t-95 217h172q0 -73 47.5 -118.5t122.5 -45.5q77 0 124.5 45.5t47.5 118.5h172q0 -135 -94 -217t-248 -82zM942 0h-788v201h295v725h-250v200h471v-925h272v-201z" />
    <glyph glyph-name="Iogonek" unicode="&#x12e;" 
d="M1030 1495v-201h-303v-1093h303v-201h-336l-12 -10q-117 -99 -117 -174q0 -41 29.5 -68t77.5 -27h129v-151h-178q-116 0 -186 56t-70 145q0 124 157 229h-323v201h301v1093h-301v201h829z" />
    <glyph glyph-name="iogonek" unicode="&#x12f;" horiz-adv-x="1024" 
d="M537 1321q-72 0 -115 37.5t-43 101.5q0 65 43 103.5t115 38.5t114.5 -38.5t42.5 -103.5q0 -64 -42.5 -101.5t-114.5 -37.5zM639 0l-12 -10q-117 -99 -117 -174q0 -41 29 -68t79 -27h127v-151h-178q-116 0 -185 56t-69 145q0 123 156 229h-315v201h295v725h-250v200h471
v-925h272v-201h-303z" />
    <glyph glyph-name="Idotaccent" unicode="&#x130;" 
d="M614 1663q-72 0 -114.5 37.5t-42.5 101.5t42.5 102t114.5 38t115 -38t43 -102t-43 -101.5t-115 -37.5zM1030 0h-829v201h301v1093h-301v201h829v-201h-303v-1093h303v-201z" />
    <glyph glyph-name="dotlessi" unicode="&#x131;" horiz-adv-x="1024" 
d="M942 0h-788v201h295v725h-250v200h471v-925h272v-201z" />
    <glyph glyph-name="Jcircumflex" unicode="&#x134;" 
d="M580 1659h-228l283 287h205l282 -287h-225l-162 156zM553 -20q-221 0 -348 122.5t-127 333.5h221q0 -124 67 -193t187 -69t188 69t68 193v858h-420v201h641v-1059q0 -212 -128.5 -334t-348.5 -122z" />
    <glyph glyph-name="jcircumflex" unicode="&#x135;" horiz-adv-x="819" 
d="M246 1321h-228l283 287h205l282 -287h-225l-162 156zM195 -369h-152v203h143q114 0 177 62.5t63 175.5v854h-328v200h549v-1056q0 -201 -122.5 -320t-329.5 -119z" />
    <glyph glyph-name="uni0136" unicode="&#x136;" 
d="M393 0h-221v1495h221v-625h199l307 625h240l-355 -715l373 -780h-250l-319 678h-195v-678zM596 -492h-215l194 297h242z" />
    <glyph glyph-name="uni0137" unicode="&#x137;" 
d="M399 0h-221v1495h221v-821h199l301 452h248l-359 -540l365 -586h-254l-299 483h-201v-483zM596 -492h-215l194 297h242z" />
    <glyph glyph-name="kgreenlandic" unicode="&#x138;" 
d="M399 0h-221v1126h221v-452h199l299 452h250l-359 -540l365 -586h-254l-301 483h-199v-483z" />
    <glyph glyph-name="Lacute" unicode="&#x139;" 
d="M455 1659h-224l218 287h237zM1133 0h-875v1495h221v-1294h654v-201z" />
    <glyph glyph-name="lacute" unicode="&#x13a;" horiz-adv-x="819" 
d="M414 1659h-224l218 287h237zM770 0h-184q-158 0 -253 93.5t-95 248.5v952h-218v201h439v-1149q0 -67 37 -106t100 -39h174v-201z" />
    <glyph glyph-name="uni013B" unicode="&#x13b;" 
d="M1133 0h-875v1495h221v-1294h654v-201zM678 -492h-215l194 297h242z" />
    <glyph glyph-name="uni013C" unicode="&#x13c;" horiz-adv-x="819" 
d="M770 0h-184q-158 0 -253 93.5t-95 248.5v952h-218v201h439v-1149q0 -67 37 -106t100 -39h174v-201zM426 -492h-215l195 297h241z" />
    <glyph glyph-name="Lcaron" unicode="&#x13d;" 
d="M1417 1495h-188l20 369h209zM1133 0h-875v1495h221v-1294h654v-201z" />
    <glyph glyph-name="lcaron" unicode="&#x13e;" horiz-adv-x="819" 
d="M778 1495h-188l20 369h209zM770 0h-184q-158 0 -253 93.5t-95 248.5v952h-218v201h439v-1149q0 -67 37 -106t100 -39h174v-201z" />
    <glyph glyph-name="Ldot" unicode="&#x13f;" 
d="M1133 0h-875v1495h221v-1294h654v-201zM721 543q-83 0 -131.5 47.5t-48.5 130.5q0 85 48.5 134.5t131.5 49.5q85 0 133.5 -49.5t48.5 -134.5q0 -83 -48.5 -130.5t-133.5 -47.5z" />
    <glyph glyph-name="ldot" unicode="&#x140;" 
d="M729 0h-184q-158 0 -253 93.5t-95 248.5v952h-217v201h438v-1149q0 -67 37 -106t100 -39h174v-201zM930 543q-85 0 -133.5 47.5t-48.5 130.5q0 85 48.5 134.5t133.5 49.5q83 0 131.5 -49.5t48.5 -134.5q0 -83 -48.5 -130.5t-131.5 -47.5z" />
    <glyph glyph-name="Lslash" unicode="&#x141;" 
d="M485 748v-547h654v-201h-875v610l-223 -139v201l223 139v684h221v-547l320 199v-201z" />
    <glyph glyph-name="lslash" unicode="&#x142;" horiz-adv-x="819" 
d="M596 201h174v-201h-184q-158 0 -253 93.5t-95 248.5v254l-199 -125v201l199 125v497h-218v201h439v-561l215 135v-201l-215 -135v-387q0 -67 37 -106t100 -39z" />
    <glyph glyph-name="Nacute" unicode="&#x143;" 
d="M700 1659h-223l217 287h238zM373 0h-207v1495h280l435 -1243q-25 288 -25 471v772h207v-1495h-279l-434 1243q23 -251 23 -459v-784z" />
    <glyph glyph-name="nacute" unicode="&#x144;" 
d="M705 1608h237l-231 -287h-224zM692 1147q168 0 268.5 -107.5t100.5 -289.5v-750h-221v725q0 109 -59 169t-163 60q-106 0 -165.5 -63t-59.5 -180v-711h-221v1126h219v-215h4q14 111 92 173.5t205 62.5z" />
    <glyph glyph-name="uni0145" unicode="&#x145;" 
d="M373 0h-207v1495h280l435 -1243q-25 288 -25 471v772h207v-1495h-279l-434 1243q23 -251 23 -459v-784zM596 -492h-215l194 297h242z" />
    <glyph glyph-name="uni0146" unicode="&#x146;" 
d="M692 1147q168 0 268.5 -107.5t100.5 -289.5v-750h-221v725q0 109 -59 169t-163 60q-106 0 -165.5 -63t-59.5 -180v-711h-221v1126h219v-215h4q14 111 92 173.5t205 62.5zM596 -492h-215l194 297h242z" />
    <glyph glyph-name="Ncaron" unicode="&#x147;" 
d="M717 1659h-205l-283 287h226l161 -156l156 156h227zM373 0h-207v1495h280l435 -1243q-25 288 -25 471v772h207v-1495h-279l-434 1243q23 -251 23 -459v-784z" />
    <glyph glyph-name="ncaron" unicode="&#x148;" 
d="M1010 1608l-283 -287h-205l-282 287h225l162 -156l155 156h228zM692 1147q168 0 268.5 -107.5t100.5 -289.5v-750h-221v725q0 109 -59 169t-163 60q-106 0 -165.5 -63t-59.5 -180v-711h-221v1126h219v-215h4q14 111 92 173.5t205 62.5z" />
    <glyph glyph-name="napostrophe" unicode="&#x149;" 
d="M166 1618h242l-222 -297h-217zM692 1147q168 0 268.5 -107.5t100.5 -289.5v-750h-221v725q0 109 -59 169t-163 60q-106 0 -165.5 -63t-59.5 -180v-711h-221v1126h219v-215h4q14 111 92 173.5t205 62.5z" />
    <glyph glyph-name="Eng" unicode="&#x14a;" 
d="M623 -369h-125v207h131q100 0 156.5 55.5t56.5 153.5l-492 1196q23 -251 23 -459v-784h-207v1495h280l435 -1075q-25 293 -25 473v602h207v-1458q0 -183 -121 -294.5t-319 -111.5z" />
    <glyph glyph-name="eng" unicode="&#x14b;" 
d="M692 1147q167 0 266 -107t99 -290v-713q0 -183 -121.5 -294.5t-319.5 -111.5h-120v207h127q100 0 156.5 55.5t56.5 153.5v678q0 110 -57.5 171.5t-160.5 61.5q-105 0 -163 -64.5t-58 -182.5v-711h-221v1126h217v-215h4q14 113 91 174.5t204 61.5z" />
    <glyph glyph-name="Omacron" unicode="&#x14c;" 
d="M954 1708h-680v176h680v-176zM614 -20q-209 0 -329.5 117.5t-120.5 318.5v663q0 202 120.5 319.5t329.5 117.5t330 -117.5t121 -317.5v-665q0 -201 -121 -318.5t-330 -117.5zM614 176q112 0 171 62t59 178v663q0 117 -59 178.5t-171 61.5t-170.5 -61.5t-58.5 -178.5v-663
q0 -116 58.5 -178t170.5 -62z" />
    <glyph glyph-name="omacron" unicode="&#x14d;" 
d="M954 1364h-680v174h680v-174zM614 -18q-210 0 -332 118t-122 318v291q0 200 122 318t332 118t333.5 -118t123.5 -318v-291q0 -200 -123.5 -318t-333.5 -118zM614 176q111 0 173.5 63t62.5 179v291q0 116 -62.5 178.5t-173.5 62.5t-172 -62.5t-61 -178.5v-291
q0 -116 61 -179t172 -63z" />
    <glyph glyph-name="Obreve" unicode="&#x14e;" 
d="M614 1647q-154 0 -248 82t-94 217h172q0 -73 46.5 -118.5t121.5 -45.5q78 0 125 45t47 119h174q0 -135 -94.5 -217t-249.5 -82zM614 -20q-209 0 -329.5 117.5t-120.5 318.5v663q0 202 120.5 319.5t329.5 117.5t330 -117.5t121 -317.5v-665q0 -201 -121 -318.5
t-330 -117.5zM614 176q112 0 171 62t59 178v663q0 117 -59 178.5t-171 61.5t-170.5 -61.5t-58.5 -178.5v-663q0 -116 58.5 -178t170.5 -62z" />
    <glyph glyph-name="obreve" unicode="&#x14f;" 
d="M614 1309q-154 0 -248 82t-94 217h172q0 -73 46.5 -118.5t121.5 -45.5q78 0 125 45t47 119h174q0 -135 -94.5 -217t-249.5 -82zM614 -18q-210 0 -332 118t-122 318v291q0 200 122 318t332 118t333.5 -118t123.5 -318v-291q0 -200 -123.5 -318t-333.5 -118zM614 176
q111 0 173.5 63t62.5 179v291q0 116 -62.5 178.5t-173.5 62.5t-172 -62.5t-61 -178.5v-291q0 -116 61 -179t172 -63z" />
    <glyph glyph-name="Ohungarumlaut" unicode="&#x150;" 
d="M481 1659h-207l224 287h219zM872 1659h-206l221 287h221zM614 -20q-209 0 -329.5 117.5t-120.5 318.5v663q0 202 120.5 319.5t329.5 117.5t330 -117.5t121 -317.5v-665q0 -201 -121 -318.5t-330 -117.5zM614 176q112 0 171 62t59 178v663q0 117 -59 178.5t-171 61.5
t-170.5 -61.5t-58.5 -178.5v-663q0 -116 58.5 -178t170.5 -62z" />
    <glyph glyph-name="ohungarumlaut" unicode="&#x151;" 
d="M481 1321h-207l224 287h219zM872 1321h-206l221 287h221zM614 -18q-210 0 -332 118t-122 318v291q0 200 122 318t332 118t333.5 -118t123.5 -318v-291q0 -200 -123.5 -318t-333.5 -118zM614 176q111 0 173.5 63t62.5 179v291q0 116 -62.5 178.5t-173.5 62.5t-172 -62.5
t-61 -178.5v-291q0 -116 61 -179t172 -63z" />
    <glyph glyph-name="OE" unicode="&#x152;" 
d="M387 -16q-145 0 -228 105.5t-83 289.5v741q0 184 83 290t228 106q98 0 156 -57t69 -128h11v164h559v-195h-355v-432h303v-194h-303v-479h355v-195h-559v168h-11q-11 -70 -69 -127t-156 -57zM455 174q76 0 119.5 55t43.5 150v741q0 95 -43.5 150t-119.5 55t-120 -55
t-44 -150v-741q0 -95 44 -150t120 -55z" />
    <glyph glyph-name="oe" unicode="&#x153;" 
d="M369 -20q-135 0 -216 87t-81 234v524q0 147 81 234.5t216 87.5q110 0 172 -50t67 -110h13q5 60 66.5 110t172.5 50q135 0 216 -87.5t81 -234.5v-313h-446v-211q0 -70 34 -110.5t91 -40.5q51 0 85 31t40 85h192q-13 -132 -93 -209t-200 -77q-111 0 -172.5 50t-66.5 111
h-13q-5 -61 -67 -111t-172 -50zM393 150q58 0 91.5 40t33.5 111v524q0 71 -33.5 111.5t-91.5 40.5q-60 0 -94.5 -40.5t-34.5 -111.5v-524q0 -70 34.5 -110.5t94.5 -40.5zM711 825v-159h254v159q0 71 -34.5 111.5t-94.5 40.5q-57 0 -91 -41t-34 -111z" />
    <glyph glyph-name="Racute" unicode="&#x154;" 
d="M700 1659h-223l217 287h238zM393 0h-221v1495h469q211 0 339 -120t128 -318q0 -149 -76 -259.5t-207 -154.5l303 -643h-251l-273 614h-211v-614zM393 1298v-487h248q110 0 176 66t66 176q0 113 -66 179t-176 66h-248z" />
    <glyph glyph-name="racute" unicode="&#x155;" 
d="M735 1608h238l-232 -287h-223zM731 1147q175 0 280 -113.5t105 -304.5v-86h-227v68q0 117 -60 180t-174 63q-111 0 -169 -64t-58 -188v-702h-221v1126h217v-215h4q15 112 94.5 174t208.5 62z" />
    <glyph glyph-name="uni0156" unicode="&#x156;" 
d="M393 0h-221v1495h469q211 0 339 -120t128 -318q0 -149 -76 -259.5t-207 -154.5l303 -643h-251l-273 614h-211v-614zM393 1298v-487h248q110 0 176 66t66 176q0 113 -66 179t-176 66h-248zM596 -492h-215l194 297h242z" />
    <glyph glyph-name="uni0157" unicode="&#x157;" 
d="M731 1147q175 0 280 -113.5t105 -304.5v-86h-227v68q0 117 -60 180t-174 63q-111 0 -169 -64t-58 -188v-702h-221v1126h217v-215h4q15 112 94.5 174t208.5 62zM279 -492h-216l195 297h242z" />
    <glyph glyph-name="Rcaron" unicode="&#x158;" 
d="M717 1659h-205l-283 287h226l161 -156l156 156h227zM393 0h-221v1495h469q211 0 339 -120t128 -318q0 -149 -76 -259.5t-207 -154.5l303 -643h-251l-273 614h-211v-614zM393 1298v-487h248q110 0 176 66t66 176q0 113 -66 179t-176 66h-248z" />
    <glyph glyph-name="rcaron" unicode="&#x159;" 
d="M1040 1608l-282 -287h-205l-283 287h226l161 -156l156 156h227zM731 1147q175 0 280 -113.5t105 -304.5v-86h-227v68q0 117 -60 180t-174 63q-111 0 -169 -64t-58 -188v-702h-221v1126h217v-215h4q15 112 94.5 174t208.5 62z" />
    <glyph glyph-name="Sacute" unicode="&#x15a;" 
d="M700 1659h-223l217 287h238zM621 -20q-223 0 -355.5 113.5t-132.5 303.5h221q0 -100 73.5 -161.5t195.5 -61.5q118 0 187 60.5t69 162.5q0 82 -45 142.5t-123 83.5l-199 59q-163 46 -254.5 158t-91.5 266q0 188 124 299t333 111q207 0 330.5 -110t123.5 -296h-221
q0 97 -63 154t-172 57q-107 0 -171.5 -57t-64.5 -154q0 -76 44.5 -131t125.5 -78l205 -61q160 -46 249 -162t89 -277q0 -192 -130 -306.5t-347 -114.5z" />
    <glyph glyph-name="sacute" unicode="&#x15b;" 
d="M700 1321h-223l217 287h238zM664 -18h-89q-186 0 -300.5 85t-114.5 230h223q0 -62 53.5 -95.5t143.5 -33.5h86q100 0 151 38t51 107q0 128 -184 156l-154 25q-173 26 -257.5 107t-84.5 220q0 157 103.5 240.5t298.5 83.5h78q183 0 292 -81t109 -216h-223q0 52 -47.5 81
t-132.5 29h-78q-89 0 -137 -35.5t-48 -101.5q0 -113 162 -137l156 -25q187 -28 274.5 -109t87.5 -228q0 -162 -106.5 -251t-312.5 -89z" />
    <glyph glyph-name="Scircumflex" unicode="&#x15c;" 
d="M457 1659h-228l283 287h205l282 -287h-225l-162 156zM621 -20q-223 0 -355.5 113.5t-132.5 303.5h221q0 -100 73.5 -161.5t195.5 -61.5q118 0 187 60.5t69 162.5q0 82 -45 142.5t-123 83.5l-199 59q-163 46 -254.5 158t-91.5 266q0 188 124 299t333 111q207 0 330.5 -110
t123.5 -296h-221q0 97 -63 154t-172 57q-107 0 -171.5 -57t-64.5 -154q0 -76 44.5 -131t125.5 -78l205 -61q160 -46 249 -162t89 -277q0 -192 -130 -306.5t-347 -114.5z" />
    <glyph glyph-name="scircumflex" unicode="&#x15d;" 
d="M457 1321h-228l283 287h205l282 -287h-225l-162 156zM664 -18h-89q-186 0 -300.5 85t-114.5 230h223q0 -62 53.5 -95.5t143.5 -33.5h86q100 0 151 38t51 107q0 128 -184 156l-154 25q-173 26 -257.5 107t-84.5 220q0 157 103.5 240.5t298.5 83.5h78q183 0 292 -81
t109 -216h-223q0 52 -47.5 81t-132.5 29h-78q-89 0 -137 -35.5t-48 -101.5q0 -113 162 -137l156 -25q187 -28 274.5 -109t87.5 -228q0 -162 -106.5 -251t-312.5 -89z" />
    <glyph glyph-name="Scedilla" unicode="&#x15e;" 
d="M621 -20l-19 -54q62 -7 118 -26.5t99 -60t43 -93.5q0 -74 -72.5 -125t-185.5 -51h-190v123h149q44 0 74.5 22.5t30.5 51.5q0 39 -60.5 65.5t-161.5 26.5l50 131q-169 31 -266 138.5t-97 268.5h221q0 -100 73.5 -161.5t195.5 -61.5q118 0 187 60.5t69 162.5
q0 82 -45 142.5t-123 83.5l-199 59q-163 46 -254.5 158t-91.5 266q0 188 124 299t333 111q207 0 330.5 -110t123.5 -296h-221q0 97 -63 154t-172 57q-107 0 -171.5 -57t-64.5 -154q0 -76 44.5 -131t125.5 -78l205 -61q160 -46 249 -162t89 -277q0 -192 -130 -306.5
t-347 -114.5z" />
    <glyph glyph-name="scedilla" unicode="&#x15f;" 
d="M664 -18h-25l-21 -56q62 -7 118.5 -26.5t99.5 -60t43 -93.5q0 -74 -72 -125t-186 -51h-189v123h150q44 0 73 22.5t29 51.5q0 40 -59 66t-162 26l47 125q-159 15 -254.5 99t-95.5 214h223q0 -62 53.5 -95.5t143.5 -33.5h86q100 0 151 38t51 107q0 128 -184 156l-154 25
q-173 26 -257.5 107t-84.5 220q0 157 103.5 240.5t298.5 83.5h78q183 0 292 -81t109 -216h-223q0 52 -47.5 81t-132.5 29h-78q-89 0 -137 -35.5t-48 -101.5q0 -113 162 -137l156 -25q187 -28 274.5 -109t87.5 -228q0 -162 -106.5 -251t-312.5 -89z" />
    <glyph glyph-name="Scaron" unicode="&#x160;" 
d="M717 1659h-205l-283 287h226l161 -156l156 156h227zM621 -20q-223 0 -355.5 113.5t-132.5 303.5h221q0 -100 73.5 -161.5t195.5 -61.5q118 0 187 60.5t69 162.5q0 82 -45 142.5t-123 83.5l-199 59q-163 46 -254.5 158t-91.5 266q0 188 124 299t333 111q207 0 330.5 -110
t123.5 -296h-221q0 97 -63 154t-172 57q-107 0 -171.5 -57t-64.5 -154q0 -76 44.5 -131t125.5 -78l205 -61q160 -46 249 -162t89 -277q0 -192 -130 -306.5t-347 -114.5z" />
    <glyph glyph-name="scaron" unicode="&#x161;" 
d="M717 1321h-205l-283 287h226l161 -156l156 156h227zM664 -18h-89q-186 0 -300.5 85t-114.5 230h223q0 -62 53.5 -95.5t143.5 -33.5h86q100 0 151 38t51 107q0 128 -184 156l-154 25q-173 26 -257.5 107t-84.5 220q0 157 103.5 240.5t298.5 83.5h78q183 0 292 -81
t109 -216h-223q0 52 -47.5 81t-132.5 29h-78q-89 0 -137 -35.5t-48 -101.5q0 -113 162 -137l156 -25q187 -28 274.5 -109t87.5 -228q0 -162 -106.5 -251t-312.5 -89z" />
    <glyph glyph-name="uni0162" unicode="&#x162;" 
d="M1126 1294h-401v-1294l-25 -74q45 -5 88 -18t82.5 -34t63.5 -54.5t24 -73.5q0 -74 -72 -125t-186 -51h-188v123h150q44 0 74 22.5t30 51.5q0 40 -60 66t-163 26l53 141h-92v1294h-400v201h1022v-201z" />
    <glyph glyph-name="uni0163" unicode="&#x163;" horiz-adv-x="1024" 
d="M690 0l-24 -74q62 -7 118 -26.5t99 -60t43 -93.5q0 -74 -72.5 -125t-185.5 -51h-191v123h150q44 0 74 22.5t30 51.5q0 40 -60 66t-161 26l55 145q-122 19 -192 102t-70 213v607h-248v200h248v318h221v-318h363v-200h-363v-604q0 -54 31.5 -87.5t83.5 -33.5h227v-201h-176
z" />
    <glyph glyph-name="Tcaron" unicode="&#x164;" 
d="M717 1659h-205l-283 287h226l161 -156l156 156h227zM725 0h-221v1294h-400v201h1022v-201h-401v-1294z" />
    <glyph glyph-name="tcaron" unicode="&#x165;" horiz-adv-x="1024" 
d="M948 1270h-182l178 319h203zM866 0h-237q-150 0 -238 86t-88 233v607h-248v200h248v318h221v-318h363v-200h-363v-604q0 -54 31.5 -87.5t83.5 -33.5h227v-201z" />
    <glyph glyph-name="Tbar" unicode="&#x166;" 
d="M1126 1495v-201h-401v-524h285v-184h-285v-586h-221v586h-285v184h285v524h-400v201h1022z" />
    <glyph glyph-name="tbar" unicode="&#x167;" horiz-adv-x="1024" 
d="M887 1126v-200h-363v-271h254v-178h-254v-155q0 -54 31.5 -87.5t83.5 -33.5h227v-201h-237q-150 0 -238 86t-88 233v158h-240v178h240v271h-248v200h248v318h221v-318h363z" />
    <glyph glyph-name="Utilde" unicode="&#x168;" 
d="M758 1661q-46 0 -83 14t-61 34.5t-44 40.5t-42.5 34t-46.5 14q-28 0 -44.5 -18.5t-16.5 -53.5v-55h-146v64q0 96 53.5 153.5t143.5 57.5q47 0 84.5 -14t61 -34.5t43.5 -41t42 -34.5t46 -14q28 0 44.5 17t16.5 49v61h145v-65q0 -96 -53 -152.5t-143 -56.5zM614 -20
q-213 0 -330.5 117t-117.5 321v1077h221v-1075q0 -118 57.5 -182t169.5 -64q111 0 169.5 64.5t58.5 181.5v1075h221v-1077q0 -205 -117.5 -321.5t-331.5 -116.5z" />
    <glyph glyph-name="utilde" unicode="&#x169;" 
d="M758 1323q-46 0 -83 14t-61 34.5t-44 40.5t-42.5 34t-46.5 14q-28 0 -44.5 -18t-16.5 -53v-56h-146v64q0 96 53.5 153.5t143.5 57.5q47 0 84.5 -14t61 -34.5t43.5 -41t42 -34.5t46 -14q28 0 44.5 17t16.5 49v61h145v-65q0 -96 -53 -152.5t-143 -56.5zM612 -20
q-204 0 -324 118t-120 320v708h221v-706q0 -118 59 -183t164 -65q107 0 167.5 65t60.5 183v706h221v-708q0 -202 -122 -320t-327 -118z" />
    <glyph glyph-name="Umacron" unicode="&#x16a;" 
d="M954 1708h-680v176h680v-176zM614 -20q-213 0 -330.5 117t-117.5 321v1077h221v-1075q0 -118 57.5 -182t169.5 -64q111 0 169.5 64.5t58.5 181.5v1075h221v-1077q0 -205 -117.5 -321.5t-331.5 -116.5z" />
    <glyph glyph-name="umacron" unicode="&#x16b;" 
d="M954 1364h-680v174h680v-174zM612 -20q-204 0 -324 118t-120 320v708h221v-706q0 -118 59 -183t164 -65q107 0 167.5 65t60.5 183v706h221v-708q0 -202 -122 -320t-327 -118z" />
    <glyph glyph-name="Ubreve" unicode="&#x16c;" 
d="M614 1647q-154 0 -248 82t-94 217h172q0 -73 46.5 -118.5t121.5 -45.5q78 0 125 45t47 119h174q0 -135 -94.5 -217t-249.5 -82zM614 -20q-213 0 -330.5 117t-117.5 321v1077h221v-1075q0 -118 57.5 -182t169.5 -64q111 0 169.5 64.5t58.5 181.5v1075h221v-1077
q0 -205 -117.5 -321.5t-331.5 -116.5z" />
    <glyph glyph-name="ubreve" unicode="&#x16d;" 
d="M614 1309q-154 0 -248 82t-94 217h172q0 -73 46.5 -118.5t121.5 -45.5q78 0 125 45t47 119h174q0 -135 -94.5 -217t-249.5 -82zM612 -20q-204 0 -324 118t-120 320v708h221v-706q0 -118 59 -183t164 -65q107 0 167.5 65t60.5 183v706h221v-708q0 -202 -122 -320
t-327 -118z" />
    <glyph glyph-name="Uring" unicode="&#x16e;" 
d="M614 1561q-116 0 -187 66.5t-71 174.5t71 175t187 67t187 -67t71 -175t-71 -174.5t-187 -66.5zM614 1679q56 0 89.5 33.5t33.5 89.5t-34 90.5t-89 34.5t-88.5 -34.5t-33.5 -90.5t33.5 -89.5t88.5 -33.5zM614 -20q-213 0 -330.5 117t-117.5 321v1077h221v-1075
q0 -118 57.5 -182t169.5 -64q111 0 169.5 64.5t58.5 181.5v1075h221v-1077q0 -205 -117.5 -321.5t-331.5 -116.5z" />
    <glyph glyph-name="uring" unicode="&#x16f;" 
d="M614 1239q-116 0 -187 67t-71 175q0 109 70.5 175t187.5 66t187.5 -66t70.5 -175q0 -108 -71 -175t-187 -67zM614 1358q56 0 89.5 34t33.5 89q0 56 -34 90.5t-89 34.5t-88.5 -34.5t-33.5 -90.5t33.5 -89.5t88.5 -33.5zM612 -20q-204 0 -324 118t-120 320v708h221v-706
q0 -118 59 -183t164 -65q107 0 167.5 65t60.5 183v706h221v-708q0 -202 -122 -320t-327 -118z" />
    <glyph glyph-name="Uhungarumlaut" unicode="&#x170;" 
d="M481 1659h-207l224 287h219zM872 1659h-206l221 287h221zM614 -20q-213 0 -330.5 117t-117.5 321v1077h221v-1075q0 -118 57.5 -182t169.5 -64q111 0 169.5 64.5t58.5 181.5v1075h221v-1077q0 -205 -117.5 -321.5t-331.5 -116.5z" />
    <glyph glyph-name="uhungarumlaut" unicode="&#x171;" 
d="M481 1321h-207l224 287h219zM872 1321h-206l221 287h221zM612 -20q-204 0 -324 118t-120 320v708h221v-706q0 -118 59 -183t164 -65q107 0 167.5 65t60.5 183v706h221v-708q0 -202 -122 -320t-327 -118z" />
    <glyph glyph-name="Uogonek" unicode="&#x172;" 
d="M842 416v1079h221v-1079q0 -123 -47 -218t-133 -149l-70 -57q-108 -92 -108 -176q0 -41 28.5 -68t77.5 -27h129v-151h-178q-117 0 -186.5 56t-69.5 145q0 49 39.5 108t105.5 109q-16 -8 -37 -8q-209 0 -328.5 117t-119.5 319v1079h221v-1079q0 -116 57.5 -178t169.5 -62
t170 62t58 178z" />
    <glyph glyph-name="uogonek" unicode="&#x173;" 
d="M840 416v710h221v-710q0 -252 -178 -367l-70 -59q-117 -99 -117 -174q0 -41 29.5 -68t77.5 -27h129v-151h-178q-116 0 -186 56t-70 145q0 105 145 217q-20 -8 -29 -8q-208 0 -327 117t-119 319v710h221v-710q0 -119 57.5 -180.5t167.5 -61.5t168 62t58 180z" />
    <glyph glyph-name="Wcircumflex" unicode="&#x174;" 
d="M457 1659h-228l283 287h205l282 -287h-225l-162 156zM463 0h-258l-162 1495h199l100 -1073q12 -118 16 -266q4 31 14 127t15 139l129 1073h205l121 -1073q4 -38 14.5 -134.5t13.5 -131.5q8 134 21 266l102 1073h195l-170 -1495h-256l-121 1087l-25 263q-1 -6 -9.5 -109.5
t-14.5 -153.5z" />
    <glyph glyph-name="wcircumflex" unicode="&#x175;" 
d="M457 1321h-228l283 287h205l282 -287h-225l-162 156zM467 0h-236l-174 1126h183l102 -743q7 -51 20 -217h11q19 169 26 217l117 743h199l114 -743q12 -82 27 -217h10q23 202 25 217l106 743h177l-183 -1126h-233l-111 735q-23 145 -29 226h-10q-5 -67 -26 -226z" />
    <glyph glyph-name="Ycircumflex" unicode="&#x176;" 
d="M457 1659h-228l283 287h205l282 -287h-225l-162 156zM725 0h-221v551l-445 944h230l264 -565q45 -95 65 -178q21 88 64 178l258 565h229l-444 -944v-551z" />
    <glyph glyph-name="ycircumflex" unicode="&#x177;" 
d="M457 1321h-228l283 287h205l282 -287h-225l-162 156zM584 -369h-232l164 435l-432 1060h240l247 -634q27 -74 56 -193q19 95 55 193l233 634h230z" />
    <glyph glyph-name="Ydieresis" unicode="&#x178;" 
d="M381 1665q-65 0 -103 36.5t-38 100.5q0 65 38.5 103.5t102.5 38.5t102.5 -38.5t38.5 -103.5q0 -64 -38 -100.5t-103 -36.5zM848 1665q-65 0 -102 36.5t-37 100.5q0 65 37.5 103.5t101.5 38.5t102.5 -38.5t38.5 -103.5q0 -64 -38 -100.5t-103 -36.5zM725 0h-221v551
l-445 944h230l264 -565q45 -95 65 -178q21 88 64 178l258 565h229l-444 -944v-551z" />
    <glyph glyph-name="Zacute" unicode="&#x179;" 
d="M700 1659h-223l217 287h238zM1061 0h-893v213l637 1081h-625v201h860v-211l-637 -1083h658v-201z" />
    <glyph glyph-name="zacute" unicode="&#x17a;" 
d="M700 1321h-223l217 287h238zM1057 0h-885v209l608 721h-590v196h844v-208l-616 -721h639v-197z" />
    <glyph glyph-name="Zdotaccent" unicode="&#x17b;" 
d="M614 1663q-72 0 -114.5 37.5t-42.5 101.5t42.5 102t114.5 38t115 -38t43 -102t-43 -101.5t-115 -37.5zM1061 0h-893v213l637 1081h-625v201h860v-211l-637 -1083h658v-201z" />
    <glyph glyph-name="zdotaccent" unicode="&#x17c;" 
d="M614 1321q-72 0 -114.5 37.5t-42.5 101.5q0 65 42.5 103.5t114.5 38.5t115 -38.5t43 -103.5q0 -64 -43 -101.5t-115 -37.5zM1057 0h-885v209l608 721h-590v196h844v-208l-616 -721h639v-197z" />
    <glyph glyph-name="Zcaron" unicode="&#x17d;" 
d="M717 1659h-205l-283 287h226l161 -156l156 156h227zM1061 0h-893v213l637 1081h-625v201h860v-211l-637 -1083h658v-201z" />
    <glyph glyph-name="zcaron" unicode="&#x17e;" 
d="M717 1321h-205l-283 287h226l161 -156l156 156h227zM1057 0h-885v209l608 721h-590v196h844v-208l-616 -721h639v-197z" />
    <glyph glyph-name="longs" unicode="&#x17f;" 
d="M541 0h-222v1141q0 160 103 257t272 97h367v-195h-361q-72 0 -115.5 -43.5t-43.5 -115.5v-1141z" />
    <glyph glyph-name="uni018F" unicode="&#x18f;" 
d="M614 1516q211 0 330 -117t119 -320v-663q0 -198 -121.5 -317t-327.5 -119q-205 0 -326.5 119.5t-121.5 316.5v413h676v252q0 117 -57.5 178.5t-170.5 61.5q-110 0 -167.5 -62.5t-57.5 -179.5h-221q0 201 119.5 319t326.5 118zM842 416v246h-455v-246q0 -258 227 -258
q228 0 228 258z" />
    <glyph glyph-name="uni0190" unicode="&#x190;" 
d="M909 401h221q-5 -189 -141.5 -305t-355.5 -116q-227 0 -365.5 123t-138.5 325q0 145 72.5 242t199.5 123q-114 25 -178.5 109.5t-64.5 211.5q0 182 128.5 292t340.5 110q220 0 353.5 -117.5t133.5 -311.5h-221q0 106 -70 170t-186 64q-115 0 -185.5 -62t-70.5 -163
t70.5 -163.5t185.5 -62.5h190v-188h-192q-128 0 -205.5 -69.5t-77.5 -184.5q0 -114 78 -184t205 -70q119 0 194 62.5t80 164.5z" />
    <glyph glyph-name="florin" unicode="&#x192;" 
d="M221 -369h-221v207h227q100 0 157.5 55.5t57.5 153.5v578h-325v196h325v367q0 145 87 226t241 81h338v-195h-326q-118 0 -118 -112v-367h448v-196h-448v-588q0 -183 -122.5 -294.5t-320.5 -111.5z" />
    <glyph glyph-name="uni019B" unicode="&#x19b;" 
d="M963 1337l-265 -131l445 -1206h-236l-243 694q-23 67 -56 215q-4 -101 -43 -215l-239 -694h-238l422 1110l-326 -162v178l267 134l-95 235h236l51 -139l320 160v-179z" />
    <glyph glyph-name="Ohorn" unicode="&#x1a0;" 
d="M1120 1659v-160q0 -131 -108 -190q53 -95 53 -228v-665q0 -201 -121 -318.5t-330 -117.5t-329.5 117.5t-120.5 318.5v663q0 202 120.5 319.5t329.5 117.5q168 0 281 -78q43 16 43 67v154h182zM844 416v663q0 117 -59 178.5t-171 61.5t-170.5 -61.5t-58.5 -178.5v-663
q0 -116 58.5 -178t170.5 -62t171 62t59 178z" />
    <glyph glyph-name="ohorn" unicode="&#x1a1;" 
d="M950 1157v154h180v-160q0 -69 -32.5 -120.5t-91.5 -76.5q65 -103 65 -245v-291q0 -200 -123.5 -318t-333.5 -118t-332 118t-122 318v291q0 200 122 318t332 118q146 0 254 -60h11q71 0 71 72zM850 418v291q0 116 -62.5 178.5t-173.5 62.5t-172 -62.5t-61 -178.5v-291
q0 -116 61 -179t172 -63t173.5 63t62.5 179z" />
    <glyph glyph-name="Uhorn" unicode="&#x1af;" 
d="M1071 1567v153h182v-159q0 -88 -51 -145.5t-139 -69.5v-928q0 -205 -117.5 -321.5t-331.5 -116.5q-213 0 -330.5 117t-117.5 321v1077h221v-1075q0 -118 57.5 -182t169.5 -64q111 0 169.5 64.5t58.5 181.5v1075h157q33 0 52.5 19.5t19.5 52.5z" />
    <glyph glyph-name="uhorn" unicode="&#x1b0;" 
d="M168 416v710h221v-712q0 -115 56 -178.5t155 -63.5q102 0 158.5 63.5t56.5 178.5v712h182q72 0 72 72v154h182v-160q0 -102 -55 -160.5t-160 -58.5v-557q0 -202 -118 -319t-318 -117q-199 0 -315.5 117t-116.5 319z" />
    <glyph glyph-name="uni01CD" unicode="&#x1cd;" 
d="M717 1659h-205l-283 287h226l161 -156l156 156h227zM313 0h-225l381 1495h291l383 -1495h-225l-91 379h-424zM547 995l-103 -432h340l-102 430q-41 170 -68 316q-31 -164 -67 -314z" />
    <glyph glyph-name="uni01CE" unicode="&#x1ce;" 
d="M1010 1608l-283 -287h-205l-282 287h225l162 -156l155 156h228zM625 1147q201 0 318.5 -102t117.5 -275v-770h-215v203h-4q-17 -104 -107.5 -163.5t-232.5 -59.5q-175 0 -277 90.5t-102 248.5q0 161 108.5 252t298.5 91h310v104q0 92 -58 142t-161 50q-92 0 -155 -39.5
t-73 -103.5h-215q12 149 135.5 240.5t311.5 91.5zM567 147q120 0 196.5 60t76.5 155v148h-303q-89 0 -141 -47t-52 -129q0 -88 59.5 -137.5t163.5 -49.5z" />
    <glyph glyph-name="uni01D0" unicode="&#x1d0;" horiz-adv-x="1024" 
d="M639 1321h-205l-282 287h225l162 -156l155 156h228zM942 0h-788v201h295v725h-250v200h471v-925h272v-201z" />
    <glyph glyph-name="uni01D2" unicode="&#x1d2;" 
d="M717 1321h-205l-283 287h226l161 -156l156 156h227zM614 -18q-210 0 -332 118t-122 318v291q0 200 122 318t332 118t333.5 -118t123.5 -318v-291q0 -200 -123.5 -318t-333.5 -118zM614 176q111 0 173.5 63t62.5 179v291q0 116 -62.5 178.5t-173.5 62.5t-172 -62.5
t-61 -178.5v-291q0 -116 61 -179t172 -63z" />
    <glyph glyph-name="uni01D4" unicode="&#x1d4;" 
d="M717 1321h-205l-283 287h226l161 -156l156 156h227zM612 -20q-204 0 -324 118t-120 320v708h221v-706q0 -118 59 -183t164 -65q107 0 167.5 65t60.5 183v706h221v-708q0 -202 -122 -320t-327 -118z" />
    <glyph glyph-name="uni01D6" unicode="&#x1d6;" 
d="M954 1839h-680v174h680v-174zM381 1321q-65 0 -103 37.5t-38 101.5q0 65 38.5 103.5t102.5 38.5t102.5 -38.5t38.5 -103.5q0 -64 -38 -101.5t-103 -37.5zM848 1321q-64 0 -101.5 37.5t-37.5 101.5q0 65 37.5 103.5t101.5 38.5t102.5 -38.5t38.5 -103.5q0 -64 -38 -101.5
t-103 -37.5zM612 -20q-204 0 -324 118t-120 320v708h221v-706q0 -118 59 -183t164 -65q107 0 167.5 65t60.5 183v706h221v-708q0 -202 -122 -320t-327 -118z" />
    <glyph glyph-name="uni01D8" unicode="&#x1d8;" 
d="M700 1796h-223l217 287h238zM381 1321q-65 0 -103 37.5t-38 101.5q0 65 38.5 103.5t102.5 38.5t102.5 -38.5t38.5 -103.5q0 -64 -38 -101.5t-103 -37.5zM848 1321q-64 0 -101.5 37.5t-37.5 101.5q0 65 37.5 103.5t101.5 38.5t102.5 -38.5t38.5 -103.5q0 -64 -38 -101.5
t-103 -37.5zM612 -20q-204 0 -324 118t-120 320v708h221v-706q0 -118 59 -183t164 -65q107 0 167.5 65t60.5 183v706h221v-708q0 -202 -122 -320t-327 -118z" />
    <glyph glyph-name="uni01DA" unicode="&#x1da;" 
d="M717 1796h-205l-283 287h226l161 -156l156 156h227zM381 1321q-65 0 -103 37.5t-38 101.5q0 65 38.5 103.5t102.5 38.5t102.5 -38.5t38.5 -103.5q0 -64 -38 -101.5t-103 -37.5zM848 1321q-64 0 -101.5 37.5t-37.5 101.5q0 65 37.5 103.5t101.5 38.5t102.5 -38.5
t38.5 -103.5q0 -64 -38 -101.5t-103 -37.5zM612 -20q-204 0 -324 118t-120 320v708h221v-706q0 -118 59 -183t164 -65q107 0 167.5 65t60.5 183v706h221v-708q0 -202 -122 -320t-327 -118z" />
    <glyph glyph-name="uni01DC" unicode="&#x1dc;" 
d="M758 1796h-230l-237 287h246zM381 1321q-65 0 -103 37.5t-38 101.5q0 65 38.5 103.5t102.5 38.5t102.5 -38.5t38.5 -103.5q0 -64 -38 -101.5t-103 -37.5zM848 1321q-64 0 -101.5 37.5t-37.5 101.5q0 65 37.5 103.5t101.5 38.5t102.5 -38.5t38.5 -103.5q0 -64 -38 -101.5
t-103 -37.5zM612 -20q-204 0 -324 118t-120 320v708h221v-706q0 -118 59 -183t164 -65q107 0 167.5 65t60.5 183v706h221v-708q0 -202 -122 -320t-327 -118z" />
    <glyph glyph-name="Gcaron" unicode="&#x1e6;" 
d="M717 1659h-205l-283 287h226l161 -156l156 156h227zM623 -20q-211 0 -335 117.5t-124 318.5v663q0 202 124 319.5t335 117.5q209 0 332.5 -118.5t123.5 -318.5h-221q0 116 -61 178t-174 62t-175.5 -61.5t-62.5 -176.5v-665q0 -115 62.5 -178.5t175.5 -63.5
q112 0 173.5 63t61.5 179v168h-278v194h499v-362q0 -200 -123.5 -318t-332.5 -118z" />
    <glyph glyph-name="gcaron" unicode="&#x1e7;" 
d="M993 1608l-282 -287h-205l-283 287h226l161 -156l156 156h227zM838 911l-2 215h219v-1146q0 -162 -103 -255.5t-284 -93.5h-349v191h347q170 0 170 162v112l4 209h-4q-13 -110 -92.5 -172.5t-204.5 -62.5q-173 0 -274 114.5t-101 311.5v227q0 195 101 309.5t274 114.5
q125 0 204.5 -63t92.5 -173h2zM610 260q105 0 165.5 65t60.5 181v205q0 115 -60.5 179t-165.5 64q-108 0 -166.5 -62.5t-58.5 -180.5v-205q0 -118 58.5 -182t166.5 -64z" />
    <glyph glyph-name="uni01EA" unicode="&#x1ea;" 
d="M614 1516q209 0 330 -117.5t121 -317.5v-665q0 -122 -47.5 -217.5t-134.5 -149.5l-70 -57q-108 -92 -108 -176q0 -41 28.5 -68t77.5 -27h129v-151h-178q-117 0 -186.5 56t-69.5 145q0 49 39.5 108t105.5 109q-16 -8 -37 -8q-209 0 -329.5 117.5t-120.5 318.5v663
q0 202 120.5 319.5t329.5 117.5zM844 416v663q0 117 -59 178.5t-171 61.5t-170.5 -61.5t-58.5 -178.5v-663q0 -116 58.5 -178t170.5 -62t171 62t59 178z" />
    <glyph glyph-name="uni01EB" unicode="&#x1eb;" 
d="M614 1147q209 0 330 -117t121 -317v-297q0 -123 -47.5 -217t-134.5 -150l-70 -59q-117 -99 -117 -174q0 -41 29.5 -68t77.5 -27h129v-151h-178q-116 0 -186 56t-70 145q0 105 145 217q-20 -8 -29 -8q-209 0 -329.5 117.5t-120.5 318.5v295q0 201 120.5 318.5t329.5 117.5
zM844 416v295q0 118 -59.5 179.5t-170.5 61.5t-170 -61.5t-59 -179.5v-295q0 -118 59 -180t170 -62t170.5 62t59.5 180z" />
    <glyph glyph-name="uni01F4" unicode="&#x1f4;" 
d="M700 1659h-223l217 287h238zM623 -20q-211 0 -335 117.5t-124 318.5v663q0 202 124 319.5t335 117.5q209 0 332.5 -118.5t123.5 -318.5h-221q0 116 -61 178t-174 62t-175.5 -61.5t-62.5 -176.5v-665q0 -115 62.5 -178.5t175.5 -63.5q112 0 173.5 63t61.5 179v168h-278
v194h499v-362q0 -200 -123.5 -318t-332.5 -118z" />
    <glyph glyph-name="uni01F5" unicode="&#x1f5;" 
d="M688 1608h238l-232 -287h-223zM838 911l-2 215h219v-1146q0 -162 -103 -255.5t-284 -93.5h-349v191h347q170 0 170 162v112l4 209h-4q-13 -110 -92.5 -172.5t-204.5 -62.5q-173 0 -274 114.5t-101 311.5v227q0 195 101 309.5t274 114.5q125 0 204.5 -63t92.5 -173h2z
M610 260q105 0 165.5 65t60.5 181v205q0 115 -60.5 179t-165.5 64q-108 0 -166.5 -62.5t-58.5 -180.5v-205q0 -118 58.5 -182t166.5 -64z" />
    <glyph glyph-name="AEacute" unicode="&#x1fc;" 
d="M700 1659h-223l217 287h238zM262 0h-219l293 1495h838v-195h-363v-430h311v-198h-311v-477h363v-195h-562v393h-278zM502 1300l-137 -735h247v735h-110z" />
    <glyph glyph-name="aeacute" unicode="&#x1fd;" 
d="M700 1321h-223l217 287h238zM350 -20q-127 0 -202.5 79t-75.5 213v117q0 128 87.5 204.5t233.5 76.5h131v153q0 154 -123 154q-56 0 -88 -34.5t-32 -94.5h-193q0 135 77.5 217t203.5 82q109 0 171.5 -49.5t73.5 -110.5h11q9 61 69.5 110.5t165.5 49.5q136 0 216.5 -87
t80.5 -235v-305h-446v-219q0 -69 34.5 -110t90.5 -41q60 0 94.5 32.5t34.5 89.5h192q0 -132 -81.5 -212t-215.5 -80q-107 0 -166.5 49.5t-68.5 111.5h-11q-11 -61 -79 -111t-185 -50zM711 825v-155h254v155q0 70 -34 111t-95 41q-58 0 -91.5 -41t-33.5 -111zM395 150
q59 0 94 41t35 110v219h-129q-58 0 -90.5 -35t-32.5 -96v-117q0 -57 32.5 -89.5t90.5 -32.5z" />
    <glyph glyph-name="Oslashacute" unicode="&#x1fe;" 
d="M694 1946h238l-232 -287h-223zM977 1536h192l-143 -254q39 -89 39 -201v-665q0 -201 -121 -318.5t-330 -117.5q-167 0 -282 79l-80 -141h-193l156 272q-51 97 -51 226v663q0 202 120.5 319.5t329.5 117.5q178 0 299 -91zM381 1079v-594l426 750q-60 84 -193 84
q-113 0 -173 -61.5t-60 -178.5zM848 416v553l-412 -725q62 -68 178 -68q113 0 173.5 62.5t60.5 177.5z" />
    <glyph glyph-name="oslashacute" unicode="&#x1ff;" 
d="M694 1608h238l-232 -287h-223zM963 1208h200l-168 -239q70 -106 70 -256v-297q0 -201 -121 -318.5t-330 -117.5q-160 0 -270 69l-78 -110h-200l161 229q-63 104 -63 248v295q0 201 120.5 318.5t329.5 117.5q148 0 260 -64zM371 711v-295q0 -29 2 -41l385 543
q-58 34 -144 34q-115 0 -179 -63.5t-64 -177.5zM858 416v295q0 23 -4 59l-391 -555q59 -41 151 -41q115 0 179.5 64t64.5 178z" />
    <glyph glyph-name="uni0218" unicode="&#x218;" 
d="M621 -20q-223 0 -355.5 113.5t-132.5 303.5h221q0 -100 73.5 -161.5t195.5 -61.5q118 0 187 60.5t69 162.5q0 82 -45 142.5t-123 83.5l-199 59q-163 46 -254.5 158t-91.5 266q0 188 124 299t333 111q207 0 330.5 -110t123.5 -296h-221q0 97 -63 154t-172 57
q-107 0 -171.5 -57t-64.5 -154q0 -76 44.5 -131t125.5 -78l205 -61q160 -46 249 -162t89 -277q0 -192 -130 -306.5t-347 -114.5zM596 -492h-215l194 297h242z" />
    <glyph glyph-name="uni0219" unicode="&#x219;" 
d="M664 -18h-89q-186 0 -300.5 85t-114.5 230h223q0 -62 53.5 -95.5t143.5 -33.5h86q100 0 151 38t51 107q0 128 -184 156l-154 25q-173 26 -257.5 107t-84.5 220q0 157 103.5 240.5t298.5 83.5h78q183 0 292 -81t109 -216h-223q0 52 -47.5 81t-132.5 29h-78
q-89 0 -137 -35.5t-48 -101.5q0 -113 162 -137l156 -25q187 -28 274.5 -109t87.5 -228q0 -162 -106.5 -251t-312.5 -89zM596 -492h-215l194 297h242z" />
    <glyph glyph-name="uni021A" unicode="&#x21a;" 
d="M725 0h-221v1294h-400v201h1022v-201h-401v-1294zM596 -492h-215l194 297h242z" />
    <glyph glyph-name="uni021B" unicode="&#x21b;" 
d="M866 0h-237q-150 0 -238 86t-88 233v607h-248v200h248v318h221v-318h363v-200h-363v-604q0 -54 31.5 -87.5t83.5 -33.5h227v-201zM696 -492h-215l195 297h242z" />
    <glyph glyph-name="uni0232" unicode="&#x232;" 
d="M954 1708h-680v176h680v-176zM725 0h-221v551l-445 944h230l264 -565q45 -95 65 -178q21 88 64 178l258 565h229l-444 -944v-551z" />
    <glyph glyph-name="uni0233" unicode="&#x233;" 
d="M954 1364h-680v174h680v-174zM584 -369h-232l164 435l-432 1060h240l247 -634q27 -74 56 -193q19 95 55 193l233 634h230z" />
    <glyph glyph-name="uni0237" unicode="&#x237;" horiz-adv-x="819" 
d="M195 -369h-152v203h143q114 0 177 62.5t63 175.5v854h-328v200h549v-1056q0 -201 -122.5 -320t-329.5 -119z" />
    <glyph glyph-name="uni0259" unicode="&#x259;" 
d="M614 1147q206 0 327.5 -118.5t121.5 -317.5v-295q0 -198 -121.5 -317t-327.5 -119t-327 119t-121 317v200h684v95q0 256 -238 256q-191 0 -221 -133h-219q25 143 144 228t298 85zM850 416v51h-469v-51q0 -258 233 -258q117 0 176.5 66t59.5 192z" />
    <glyph glyph-name="uni02B9" unicode="&#x2b9;" horiz-adv-x="819" 
d="M385 840h-195l164 637h297z" />
    <glyph glyph-name="uni02BA" unicode="&#x2ba;" 
d="M299 838h-195l164 637h297zM862 838h-194l163 637h297z" />
    <glyph glyph-name="uni02BC" unicode="&#x2bc;" horiz-adv-x="409" 
d="M188 952h-196l166 637h297z" />
    <glyph glyph-name="circumflex" unicode="&#x2c6;" 
d="M457 1321h-228l283 287h205l282 -287h-225l-162 156z" />
    <glyph glyph-name="caron" unicode="&#x2c7;" 
d="M717 1321h-205l-283 287h226l161 -156l156 156h227z" />
    <glyph glyph-name="uni02C9" unicode="&#x2c9;" 
d="M954 1364h-680v174h680v-174z" />
    <glyph glyph-name="breve" unicode="&#x2d8;" 
d="M614 1309q-154 0 -248 82t-94 217h172q0 -73 46.5 -118.5t121.5 -45.5q78 0 125 45t47 119h174q0 -135 -94.5 -217t-249.5 -82z" />
    <glyph glyph-name="dotaccent" unicode="&#x2d9;" 
d="M614 1321q-72 0 -114.5 37.5t-42.5 101.5q0 65 42.5 103.5t114.5 38.5t115 -38.5t43 -103.5q0 -64 -43 -101.5t-115 -37.5z" />
    <glyph glyph-name="ring" unicode="&#x2da;" 
d="M614 1239q-116 0 -187 67t-71 175q0 109 70.5 175t187.5 66t187.5 -66t70.5 -175q0 -108 -71 -175t-187 -67zM614 1358q56 0 89.5 34t33.5 89q0 56 -34 90.5t-89 34.5t-88.5 -34.5t-33.5 -90.5t33.5 -89.5t88.5 -33.5z" />
    <glyph glyph-name="ogonek" unicode="&#x2db;" 
d="M801 -430h-178q-116 0 -186 56t-70 145q0 135 190 249h160l-35 -30q-117 -99 -117 -174q0 -41 29.5 -68t77.5 -27h129v-151z" />
    <glyph glyph-name="tilde" unicode="&#x2dc;" 
d="M758 1323q-46 0 -83 14t-61 34.5t-44 40.5t-42.5 34t-46.5 14q-28 0 -44.5 -18t-16.5 -53v-56h-146v64q0 96 53.5 153.5t143.5 57.5q47 0 84.5 -14t61 -34.5t43.5 -41t42 -34.5t46 -14q28 0 44.5 17t16.5 49v61h145v-65q0 -96 -53 -152.5t-143 -56.5z" />
    <glyph glyph-name="hungarumlaut" unicode="&#x2dd;" 
d="M481 1321h-207l224 287h219zM872 1321h-206l221 287h221z" />
    <glyph glyph-name="uni02F3" unicode="&#x2f3;" 
d="M-614 -518q-114 0 -183 57t-69 150q0 94 69 151.5t183 57.5t183 -57.5t69 -151.5q0 -93 -69 -150t-183 -57zM-616 -412q56 0 90 28t34 73q0 104 -124 104q-54 0 -87.5 -28.5t-33.5 -75.5q0 -44 33.5 -72.5t87.5 -28.5z" />
    <glyph glyph-name="uni02F7" unicode="&#x2f7;" 
d="M758 -449q-46 0 -83 14t-61 34.5t-44 41t-42.5 34.5t-46.5 14q-28 0 -44.5 -18.5t-16.5 -51.5v-57h-146v63q0 96 53.5 153.5t143.5 57.5q47 0 84.5 -14t61 -34t43.5 -40.5t42 -34.5t46 -14q28 0 44.5 17.5t16.5 50.5v59h145v-66q0 -95 -53.5 -152t-142.5 -57z" />
    <glyph glyph-name="gravecomb" unicode="&#x300;" horiz-adv-x="0" 
d="M-1679 1321h-230l-237 287h245z" />
    <glyph glyph-name="acutecomb" unicode="&#x301;" horiz-adv-x="0" 
d="M-1778 1321h-223l217 287h238z" />
    <glyph glyph-name="uni0302" unicode="&#x302;" horiz-adv-x="0" 
d="M-2001 1321h-227l282 287h205l283 -287h-225l-162 156z" />
    <glyph glyph-name="tildecomb" unicode="&#x303;" horiz-adv-x="0" 
d="M-1700 1323q-47 0 -84.5 14t-61 34.5t-43 40.5t-41.5 34t-46 14q-29 0 -45.5 -18.5t-16.5 -52.5v-56h-145v64q0 97 53.5 154t142.5 57q46 0 83 -14t61 -34.5t44 -41t42.5 -34.5t46.5 -14q28 0 44.5 17t16.5 49v61h146v-65q0 -96 -53.5 -152.5t-143.5 -56.5z" />
    <glyph glyph-name="uni0304" unicode="&#x304;" horiz-adv-x="0" 
d="M-1503 1364h-680v174h680v-174z" />
    <glyph glyph-name="uni0306" unicode="&#x306;" horiz-adv-x="0" 
d="M-1843 1309q-154 0 -249 82t-95 217h174q0 -73 46.5 -118.5t121.5 -45.5q78 0 125 45t47 119h172q0 -135 -93.5 -217t-248.5 -82z" />
    <glyph glyph-name="uni0307" unicode="&#x307;" horiz-adv-x="0" 
d="M-1843 1321q-72 0 -115 37.5t-43 101.5q0 65 43 103.5t115 38.5t114.5 -38.5t42.5 -103.5q0 -64 -42.5 -101.5t-114.5 -37.5z" />
    <glyph glyph-name="uni0308" unicode="&#x308;" horiz-adv-x="0" 
d="M-2077 1321q-65 0 -103 37.5t-38 101.5q0 65 38.5 103.5t102.5 38.5t102 -38.5t38 -103.5q0 -64 -37.5 -101.5t-102.5 -37.5zM-1610 1321q-65 0 -103 37.5t-38 101.5q0 65 38.5 103.5t102.5 38.5t103 -39t39 -103t-38.5 -101.5t-103.5 -37.5z" />
    <glyph glyph-name="hookabovecomb" unicode="&#x309;" horiz-adv-x="0" 
d="M-1749 1321h-190l102 127q29 36 29 63q0 39 -62 39h-164v146h215q85 0 136 -43.5t51 -116.5q0 -65 -37 -115z" />
    <glyph glyph-name="uni030A" unicode="&#x30a;" horiz-adv-x="0" 
d="M-1843 1239q-116 0 -187 67t-71 175q0 109 70.5 175t187.5 66t187.5 -66t70.5 -175q0 -108 -71 -175t-187 -67zM-1843 1358q55 0 89 34t34 89q0 56 -34 90.5t-89 34.5t-89 -34.5t-34 -90.5q0 -55 34 -89t89 -34z" />
    <glyph glyph-name="uni030B" unicode="&#x30b;" horiz-adv-x="0" 
d="M-1976 1321h-207l223 287h219zM-1585 1321h-207l221 287h221z" />
    <glyph glyph-name="uni030C" unicode="&#x30c;" horiz-adv-x="0" 
d="M-1741 1321h-205l-282 287h225l162 -156l155 156h228z" />
    <glyph glyph-name="uni030F" unicode="&#x30f;" horiz-adv-x="0" 
d="M-2116 1608l222 -287h-207l-236 287h221zM-1726 1608l223 -287h-207l-236 287h220z" />
    <glyph glyph-name="uni0312" unicode="&#x312;" horiz-adv-x="0" 
d="M-1774 1802h181l-164 -481h-283z" />
    <glyph glyph-name="uni031B" unicode="&#x31b;" horiz-adv-x="0" 
d="M-1634 973h-80v153h67q34 0 53 18.5t19 53.5v154h180v-160q0 -99 -65.5 -159t-173.5 -60z" />
    <glyph glyph-name="dotbelowcomb" unicode="&#x323;" horiz-adv-x="0" 
d="M-1843 -449q-72 0 -115 37.5t-43 100.5q0 66 43 103.5t115 37.5t114.5 -37.5t42.5 -103.5q0 -63 -42.5 -100.5t-114.5 -37.5z" />
    <glyph glyph-name="uni0325" unicode="&#x325;" horiz-adv-x="0" 
d="M-1843 -518q-114 0 -183 57t-69 150q0 94 69 151.5t183 57.5t183 -57.5t69 -151.5q0 -93 -69 -150t-183 -57zM-1845 -412q56 0 90.5 28t34.5 73q0 52 -32.5 78t-92.5 26q-54 0 -87.5 -28.5t-33.5 -75.5q0 -44 33.5 -72.5t87.5 -28.5z" />
    <glyph glyph-name="uni0326" unicode="&#x326;" horiz-adv-x="0" 
d="M-1862 -492h-217l195 297h244z" />
    <glyph glyph-name="uni0327" unicode="&#x327;" horiz-adv-x="0" 
d="M-1858 -430h-190v123h150q45 0 74.5 22.5t29.5 51.5q0 40 -59 66t-162 26l71 188h127l-43 -121q62 -7 118.5 -26.5t99.5 -60t43 -93.5q0 -74 -72.5 -125t-186.5 -51z" />
    <glyph glyph-name="uni0328" unicode="&#x328;" horiz-adv-x="0" 
d="M-1657 -430h-178q-116 0 -186 56t-70 145q0 135 190 249h160l-35 -30q-116 -96 -116 -174q0 -41 28.5 -68t77.5 -27h129v-151z" />
    <glyph glyph-name="uni0336" unicode="&#x336;" horiz-adv-x="0" 
d="M-1167 575h-1352v168h1352v-168z" />
    <glyph glyph-name="uni0337" unicode="&#x337;" horiz-adv-x="0" 
d="M-2193 -61h-199l897 1269h201z" />
    <glyph glyph-name="uni0338" unicode="&#x338;" horiz-adv-x="0" 
d="M-2089 -225h-147l639 1577h145z" />
    <glyph glyph-name="uni0374" unicode="&#x374;" 
d="M518 840h-194l163 637h297z" />
    <glyph glyph-name="uni0375" unicode="&#x375;" 
d="M344 -328h-194l163 637h297z" />
    <glyph glyph-name="uni037E" unicode="&#x37e;" 
d="M430 821h-41q-72 0 -118 46t-46 118q0 69 47 115.5t117 46.5h41q69 0 115.5 -46.5t46.5 -115.5q0 -72 -45.5 -118t-116.5 -46zM322 -328h-195l164 637h297z" />
    <glyph glyph-name="tonos" unicode="&#x384;" 
d="M639 1321h-223l217 287h237z" />
    <glyph glyph-name="dieresistonos" unicode="&#x385;" 
d="M690 1591h-174l158 269h194zM381 1321q-65 0 -103 37.5t-38 101.5q0 65 38.5 103.5t102.5 38.5t102.5 -38.5t38.5 -103.5q0 -64 -38 -101.5t-103 -37.5zM848 1321q-64 0 -101.5 37.5t-37.5 101.5q0 65 37.5 103.5t101.5 38.5t102.5 -38.5t38.5 -103.5q0 -64 -38 -101.5
t-103 -37.5z" />
    <glyph glyph-name="Alphatonos" unicode="&#x386;" 
d="M193 1167h-201l117 328h217zM313 0h-225l381 1495h291l383 -1495h-225l-91 379h-424zM547 995l-103 -432h340l-102 430q-41 170 -68 316q-31 -164 -67 -314z" />
    <glyph glyph-name="anoteleia" unicode="&#x387;" 
d="M410 543q-84 0 -132.5 47.5t-48.5 130.5q0 85 49 134.5t132 49.5t131.5 -49.5t48.5 -134.5q0 -83 -48.5 -130.5t-131.5 -47.5z" />
    <glyph glyph-name="Epsilontonos" unicode="&#x388;" 
d="M-55 1167h-199l117 328h215zM1071 0h-878v1495h878v-197h-661v-426h589v-190h-589v-485h661v-197z" />
    <glyph glyph-name="Etatonos" unicode="&#x389;" 
d="M-55 1167h-199l117 328h215zM395 0h-221v1495h221v-618h439v618h221v-1495h-221v676h-439v-676z" />
    <glyph glyph-name="Iotatonos" unicode="&#x38a;" 
d="M-55 1167h-199l117 328h215zM1030 0h-829v201h301v1093h-301v201h829v-201h-303v-1093h303v-201z" />
    <glyph glyph-name="Omicrontonos" unicode="&#x38c;" 
d="M614 -20q-209 0 -329.5 117.5t-120.5 318.5v663q0 202 120.5 319.5t329.5 117.5t330 -117.5t121 -317.5v-665q0 -201 -121 -318.5t-330 -117.5zM14 1167h-200l116 328h217zM614 176q112 0 171 62t59 178v663q0 117 -59 178.5t-171 61.5t-170.5 -61.5t-58.5 -178.5v-663
q0 -116 58.5 -178t170.5 -62z" />
    <glyph glyph-name="Upsilontonos" unicode="&#x38e;" 
d="M-94 1167h-199l117 328h215zM725 0h-221v551l-445 944h230l264 -565q45 -95 65 -178q21 88 64 178l258 565h229l-444 -944v-551z" />
    <glyph glyph-name="Omegatonos" unicode="&#x38f;" 
d="M532 0h-430v201h297v10q-43 5 -86 26.5t-82 60t-63.5 101.5t-24.5 140v530q0 204 128 325.5t343 121.5t343 -121.5t128 -325.5v-530q0 -77 -24 -140t-63.5 -100.5t-82.5 -59t-86 -26.5v-12h299v-201h-432v299q74 0 121 64t47 165v541q0 115 -68 183.5t-182 68.5
t-181.5 -68.5t-67.5 -183.5v-541q0 -101 46.5 -165t120.5 -64v-299zM14 1167h-200l116 328h217z" />
    <glyph glyph-name="iotadieresistonos" unicode="&#x390;" 
d="M690 1591h-174l158 269h194zM381 1321q-65 0 -103 37.5t-38 101.5q0 65 38.5 103.5t102.5 38.5t102.5 -38.5t38.5 -103.5q0 -64 -38 -101.5t-103 -37.5zM848 1321q-64 0 -101.5 37.5t-37.5 101.5q0 65 37.5 103.5t101.5 38.5t102.5 -38.5t38.5 -103.5q0 -64 -38 -101.5
t-103 -37.5zM1133 0h-281q-158 0 -253 93.5t-95 248.5v584h-400v200h621v-784q0 -65 37 -103t100 -38h271v-201z" />
    <glyph glyph-name="Alpha" unicode="&#x391;" 
d="M313 0h-225l381 1495h291l383 -1495h-225l-91 379h-424zM547 995l-103 -432h340l-102 430q-41 170 -68 316q-31 -164 -67 -314z" />
    <glyph glyph-name="Beta" unicode="&#x392;" 
d="M838 791q124 -31 195 -129t71 -242q0 -192 -124.5 -306t-336.5 -114h-469v1495h440q211 0 333 -103.5t122 -281.5q0 -122 -61 -206t-170 -113zM614 1305h-225v-437h223q109 0 173.5 59t64.5 160t-63.5 159.5t-172.5 58.5zM389 190h236q120 0 189 64.5t69 175.5
q0 115 -69.5 184.5t-188.5 69.5h-236v-494z" />
    <glyph glyph-name="Gamma" unicode="&#x393;" 
d="M479 0h-221v1495h883v-201h-662v-1294z" />
    <glyph glyph-name="uni0394" unicode="&#x394;" 
d="M469 1495h291l383 -1495h-1055zM547 995l-189 -800h512l-190 798q-41 172 -68 316q-24 -152 -65 -314z" />
    <glyph glyph-name="Epsilon" unicode="&#x395;" 
d="M1071 0h-878v1495h878v-197h-661v-426h589v-190h-589v-485h661v-197z" />
    <glyph glyph-name="Zeta" unicode="&#x396;" 
d="M1061 0h-893v213l637 1081h-625v201h860v-211l-637 -1083h658v-201z" />
    <glyph glyph-name="Eta" unicode="&#x397;" 
d="M395 0h-221v1495h221v-618h439v618h221v-1495h-221v676h-439v-676z" />
    <glyph glyph-name="Theta" unicode="&#x398;" 
d="M614 -20q-209 0 -329.5 117.5t-120.5 318.5v663q0 202 120.5 319.5t329.5 117.5t330 -117.5t121 -317.5v-665q0 -201 -121 -318.5t-330 -117.5zM614 176q112 0 171 62t59 178v663q0 117 -59 178.5t-171 61.5t-170.5 -61.5t-58.5 -178.5v-663q0 -116 58.5 -178t170.5 -62z
M780 653h-331v203h331v-203z" />
    <glyph glyph-name="Iota" unicode="&#x399;" 
d="M1030 0h-829v201h301v1093h-301v201h829v-201h-303v-1093h303v-201z" />
    <glyph glyph-name="Kappa" unicode="&#x39a;" 
d="M393 0h-221v1495h221v-625h199l307 625h240l-355 -715l373 -780h-250l-319 678h-195v-678z" />
    <glyph glyph-name="Lambda" unicode="&#x39b;" 
d="M313 0h-225l381 1495h291l383 -1495h-225l-238 993q-18 76 -35 155t-25 120l-8 41q-24 -146 -65 -314z" />
    <glyph glyph-name="Mu" unicode="&#x39c;" 
d="M346 0h-211v1495h273l151 -479q38 -120 57 -223q17 93 58 225l147 477h273v-1495h-209v668q0 302 51 708l-223 -727h-199l-225 719q57 -391 57 -700v-668z" />
    <glyph glyph-name="Nu" unicode="&#x39d;" 
d="M373 0h-207v1495h280l435 -1243q-25 288 -25 471v772h207v-1495h-279l-434 1243q23 -251 23 -459v-784z" />
    <glyph glyph-name="Xi" unicode="&#x39e;" 
d="M1075 1292h-919v203h919v-203zM1014 655h-797v205h797v-205zM1075 0h-919v203h919v-203z" />
    <glyph glyph-name="Omicron" unicode="&#x39f;" 
d="M614 -20q-209 0 -329.5 117.5t-120.5 318.5v663q0 202 120.5 319.5t329.5 117.5t330 -117.5t121 -317.5v-665q0 -201 -121 -318.5t-330 -117.5zM614 176q112 0 171 62t59 178v663q0 117 -59 178.5t-171 61.5t-170.5 -61.5t-58.5 -178.5v-663q0 -116 58.5 -178t170.5 -62z
" />
    <glyph glyph-name="Pi" unicode="&#x3a0;" 
d="M397 0h-221v1495h877v-1495h-222v1294h-434v-1294z" />
    <glyph glyph-name="Rho" unicode="&#x3a1;" 
d="M393 0h-221v1495h490q218 0 347.5 -122.5t129.5 -328.5t-129.5 -328t-347.5 -122h-269v-594zM393 1298v-507h269q115 0 183 68.5t68 184.5t-68 185t-183 69h-269z" />
    <glyph glyph-name="Sigma" unicode="&#x3a3;" 
d="M1126 0h-979v195l447 567l-447 538v195h979v-197h-714l448 -530l-450 -569h716v-199z" />
    <glyph glyph-name="Tau" unicode="&#x3a4;" 
d="M725 0h-221v1294h-400v201h1022v-201h-401v-1294z" />
    <glyph glyph-name="Upsilon" unicode="&#x3a5;" 
d="M725 0h-221v551l-445 944h230l264 -565q45 -95 65 -178q21 88 64 178l258 565h229l-444 -944v-551z" />
    <glyph glyph-name="Phi" unicode="&#x3a6;" 
d="M711 -51h-193v143q-190 0 -306 118.5t-116 313.5v469q0 200 115 320.5t307 120.5v143h193v-143q192 0 307 -120.5t115 -320.5v-469q0 -195 -116 -313.5t-306 -118.5v-143zM520 272v981q-104 0 -164.5 -70t-60.5 -190v-469q0 -117 60.5 -184.5t164.5 -67.5zM709 1253v-981
q104 0 164.5 67.5t60.5 184.5v469q0 120 -60.5 190t-164.5 70z" />
    <glyph glyph-name="Chi" unicode="&#x3a7;" 
d="M311 0h-241l422 762l-398 733h250l209 -408q38 -72 65 -137q31 74 64 137l213 408h240l-398 -725l422 -770h-250l-231 442q-26 50 -68 142q-33 -86 -63 -140z" />
    <glyph glyph-name="Psi" unicode="&#x3a8;" 
d="M711 0h-193v348q-192 1 -307 119t-115 313v715h199v-715q0 -117 60.5 -184.5t164.5 -67.5v967h189v-967q104 0 164.5 67.5t60.5 184.5v715h199v-715q0 -195 -115 -313t-307 -119v-348z" />
    <glyph glyph-name="uni03A9" unicode="&#x3a9;" 
d="M532 0h-430v201h297v10q-43 5 -86 26.5t-82 60t-63.5 101.5t-24.5 140v530q0 204 128 325.5t343 121.5t343 -121.5t128 -325.5v-530q0 -77 -24 -140t-63.5 -100.5t-82.5 -59t-86 -26.5v-12h299v-201h-432v299q74 0 121 64t47 165v541q0 115 -68 183.5t-182 68.5
t-181.5 -68.5t-67.5 -183.5v-541q0 -101 46.5 -165t120.5 -64v-299z" />
    <glyph glyph-name="Iotadieresis" unicode="&#x3aa;" 
d="M381 1665q-65 0 -103 36.5t-38 100.5q0 65 38.5 103.5t102.5 38.5t102.5 -38.5t38.5 -103.5q0 -64 -38 -100.5t-103 -36.5zM848 1665q-65 0 -102 36.5t-37 100.5q0 65 37.5 103.5t101.5 38.5t102.5 -38.5t38.5 -103.5q0 -64 -38 -100.5t-103 -36.5zM1030 0h-829v201h301
v1093h-301v201h829v-201h-303v-1093h303v-201z" />
    <glyph glyph-name="Upsilondieresis" unicode="&#x3ab;" 
d="M381 1665q-65 0 -103 36.5t-38 100.5q0 65 38.5 103.5t102.5 38.5t102.5 -38.5t38.5 -103.5q0 -64 -38 -100.5t-103 -36.5zM848 1665q-65 0 -102 36.5t-37 100.5q0 65 37.5 103.5t101.5 38.5t102.5 -38.5t38.5 -103.5q0 -64 -38 -100.5t-103 -36.5zM725 0h-221v551
l-445 944h230l264 -565q45 -95 65 -178q21 88 64 178l258 565h229l-444 -944v-551z" />
    <glyph glyph-name="alphatonos" unicode="&#x3ac;" 
d="M680 1608h238l-232 -287h-223zM836 911v215h217v-1126h-217v215h-7q-15 -110 -92.5 -172.5t-201.5 -62.5q-170 0 -269.5 114.5t-99.5 311.5v317q0 195 99.5 309.5t269.5 114.5q125 0 202.5 -62.5t91.5 -173.5h7zM610 172q104 0 162.5 64.5t58.5 179.5v295
q0 115 -58.5 179t-162.5 64q-108 0 -165.5 -62.5t-57.5 -180.5v-295q0 -118 57.5 -181t165.5 -63z" />
    <glyph glyph-name="epsilontonos" unicode="&#x3ad;" 
d="M659 1608h240l-231 -287h-224zM883 285h225q-23 -138 -140 -218.5t-298 -80.5h-103q-195 0 -308.5 88.5t-113.5 240.5q0 119 75.5 194t205.5 85q-122 11 -191 76t-69 172q0 137 108.5 218t294.5 81h101q172 0 283 -81.5t134 -223.5h-227q-11 55 -61 86.5t-129 31.5h-101
q-82 0 -129 -37.5t-47 -103.5q0 -65 46.5 -103t127.5 -38h238v-183h-238q-89 0 -140.5 -42.5t-51.5 -114.5q0 -75 51.5 -117.5t140.5 -42.5h103q84 0 141.5 31t71.5 82z" />
    <glyph glyph-name="etatonos" unicode="&#x3ae;" 
d="M705 1608h237l-231 -287h-224zM692 1147q168 0 268.5 -107.5t100.5 -289.5v-1119h-221v1094q0 110 -59.5 171.5t-162.5 61.5q-105 0 -165 -64.5t-60 -182.5v-711h-221v1126h219v-215h4q13 112 91 174t206 62z" />
    <glyph glyph-name="iotatonos" unicode="&#x3af;" 
d="M700 1321h-223l217 287h238zM1133 0h-281q-158 0 -253 93.5t-95 248.5v584h-400v200h621v-784q0 -65 37 -103t100 -38h271v-201z" />
    <glyph glyph-name="upsilondieresistonos" unicode="&#x3b0;" 
d="M690 1591h-174l158 269h194zM381 1321q-65 0 -103 37.5t-38 101.5q0 65 38.5 103.5t102.5 38.5t102.5 -38.5t38.5 -103.5q0 -64 -38 -101.5t-103 -37.5zM848 1321q-64 0 -101.5 37.5t-37.5 101.5q0 65 37.5 103.5t101.5 38.5t102.5 -38.5t38.5 -103.5q0 -64 -38 -101.5
t-103 -37.5zM612 -20q-204 0 -324 118t-120 320v708h221v-706q0 -118 59 -183t164 -65q107 0 167.5 65t60.5 183v706h221v-708q0 -202 -122 -320t-327 -118z" />
    <glyph glyph-name="alpha" unicode="&#x3b1;" 
d="M836 911v215h217v-1126h-217v215h-7q-15 -110 -92.5 -172.5t-201.5 -62.5q-170 0 -269.5 114.5t-99.5 311.5v317q0 195 99.5 309.5t269.5 114.5q125 0 202.5 -62.5t91.5 -173.5h7zM610 172q104 0 162.5 64.5t58.5 179.5v295q0 115 -58.5 179t-162.5 64
q-108 0 -165.5 -62.5t-57.5 -180.5v-295q0 -118 57.5 -181t165.5 -63z" />
    <glyph glyph-name="beta" unicode="&#x3b2;" 
d="M381 -369h-213v1452q0 195 124.5 314t328.5 119q205 0 329.5 -105t124.5 -278q0 -129 -64.5 -216t-181.5 -118q129 -33 202 -130.5t73 -242.5q0 -190 -127.5 -308t-333.5 -118h-262v-369zM381 1083v-888h246q115 0 181 66t66 177t-66 174.5t-181 63.5h-92v180h86
q105 0 166 64.5t61 169.5q0 106 -63 168.5t-171 62.5q-107 0 -170 -64t-63 -174z" />
    <glyph glyph-name="gamma" unicode="&#x3b3;" 
d="M725 -369h-221v369l-402 1126h232l237 -712q25 -70 50 -219q2 10 9.5 53.5t17 85t22.5 80.5l231 712h225l-401 -1126v-369z" />
    <glyph glyph-name="delta" unicode="&#x3b4;" 
d="M614 -20q-207 2 -327.5 120.5t-120.5 323.5v180q0 180 81.5 286.5t215.5 106.5q103 0 188 -73l11 10l-449 387v174h780v-180h-504l383 -324q191 -153 191 -379v-188q0 -207 -120 -326t-329 -118zM614 174q108 0 168 65.5t60 184.5v188q0 121 -60.5 188.5t-169.5 67.5
q-107 0 -166 -67t-59 -189v-188q0 -120 59.5 -185t167.5 -65z" />
    <glyph glyph-name="epsilon" unicode="&#x3b5;" 
d="M883 285h225q-23 -138 -140 -218.5t-298 -80.5h-103q-195 0 -308.5 88.5t-113.5 240.5q0 119 75.5 194t205.5 85q-122 11 -191 76t-69 172q0 137 108.5 218t294.5 81h101q172 0 283 -81.5t134 -223.5h-227q-11 55 -61 86.5t-129 31.5h-101q-82 0 -129 -37.5t-47 -103.5
q0 -65 46.5 -103t127.5 -38h238v-183h-238q-89 0 -140.5 -42.5t-51.5 -114.5q0 -75 51.5 -117.5t140.5 -42.5h103q84 0 141.5 31t71.5 82z" />
    <glyph glyph-name="zeta" unicode="&#x3b6;" 
d="M1110 -369h-221v267q0 102 -103 102h-227q-208 0 -322 97.5t-114 267.5q0 152 103 316t311 359l262 252h-623v203h864v-213l-366 -364q-330 -327 -330 -539q0 -87 56.5 -135.5t160.5 -48.5h250q154 0 226.5 -68t72.5 -217v-279z" />
    <glyph glyph-name="eta" unicode="&#x3b7;" 
d="M692 1147q168 0 268.5 -107.5t100.5 -289.5v-1119h-221v1094q0 110 -59.5 171.5t-162.5 61.5q-105 0 -165 -64.5t-60 -182.5v-711h-221v1126h219v-215h4q13 112 91 174t206 62z" />
    <glyph glyph-name="theta" unicode="&#x3b8;" 
d="M614 -20q-209 0 -329.5 117.5t-120.5 318.5v643q0 201 120.5 318.5t329.5 117.5t330 -117t121 -317v-645q0 -201 -121 -318.5t-330 -117.5zM385 1059v-217h459v217q0 118 -59.5 179.5t-170.5 61.5t-170 -61.5t-59 -179.5zM614 174q111 0 170.5 62t59.5 180v237h-459v-237
q0 -118 59 -180t170 -62z" />
    <glyph glyph-name="iota" unicode="&#x3b9;" 
d="M1133 0h-281q-158 0 -253 93.5t-95 248.5v584h-400v200h621v-784q0 -65 37 -103t100 -38h271v-201z" />
    <glyph glyph-name="kappa" unicode="&#x3ba;" 
d="M399 0h-221v1126h221v-452h199l299 452h250l-359 -540l365 -586h-254l-301 483h-199v-483z" />
    <glyph glyph-name="lambda" unicode="&#x3bb;" 
d="M326 0h-238l422 1110l-154 385h236l551 -1495h-236l-243 694q-23 67 -56 215q-4 -101 -43 -215z" />
    <glyph glyph-name="uni03BC" unicode="&#x3bc;" 
d="M838 416v710h221v-1126h-219l4 215h-6q-19 -235 -226 -235q-203 0 -219 235h-4l6 -262v-322h-221v1495h221v-710q0 -116 57 -180t162 -64t164.5 64.5t59.5 179.5z" />
    <glyph glyph-name="nu" unicode="&#x3bd;" 
d="M758 0h-285l-410 1126h230l264 -720q14 -38 25.5 -80t23 -94t12.5 -56q2 7 12.5 56.5t22 92.5t25.5 81l258 720h229z" />
    <glyph glyph-name="xi" unicode="&#x3be;" 
d="M670 201h188q138 0 218.5 -78.5t80.5 -212.5v-277h-221v265q0 46 -28 74t-74 28h-166q-233 0 -369.5 118.5t-136.5 319.5q0 147 75.5 244.5t211.5 126.5q-121 28 -187.5 110.5t-66.5 206.5q0 169 121.5 269t328.5 100h393v-201h-397q-104 0 -164.5 -54t-60.5 -148
t60.5 -148.5t164.5 -54.5h330v-195h-312q-125 0 -196.5 -66.5t-71.5 -181.5q0 -114 75 -179.5t204 -65.5z" />
    <glyph glyph-name="omicron" unicode="&#x3bf;" 
d="M614 -18q-210 0 -332 118t-122 318v291q0 200 122 318t332 118t333.5 -118t123.5 -318v-291q0 -200 -123.5 -318t-333.5 -118zM614 176q111 0 173.5 63t62.5 179v291q0 116 -62.5 178.5t-173.5 62.5t-172 -62.5t-61 -178.5v-291q0 -116 61 -179t172 -63z" />
    <glyph glyph-name="pi" unicode="&#x3c0;" 
d="M1149 -10h-51q-163 0 -261 100.5t-98 269.5v574h-317v-934h-215v934h-164v192h1104v-192h-195v-580q0 -76 39.5 -118.5t108.5 -42.5h49v-203z" />
    <glyph glyph-name="rho" unicode="&#x3c1;" 
d="M621 1147q204 0 323 -114t119 -310v-317q0 -197 -98.5 -311.5t-268.5 -114.5q-125 0 -204.5 63t-94.5 172h-6l6 -262v-322h-221v1092q0 195 120.5 309.5t324.5 114.5zM842 416v295q0 118 -58 180.5t-166 62.5q-107 0 -164 -62.5t-57 -180.5v-295q0 -115 58.5 -179.5
t162.5 -64.5q108 0 166 63t58 181z" />
    <glyph glyph-name="uni03C2" unicode="&#x3c2;" 
d="M1130 -369h-221v267q0 49 -26 75.5t-74 26.5h-186q-214 0 -338.5 111t-124.5 311v289q0 202 125.5 319t337.5 117q203 0 325.5 -106.5t128.5 -290.5h-221q-6 96 -67 149t-166 53q-114 0 -178 -62.5t-64 -176.5v-291q0 -113 63 -170t179 -57h208q142 0 220.5 -75
t78.5 -210v-279z" />
    <glyph glyph-name="sigma" unicode="&#x3c3;" 
d="M1159 1126v-194h-323v-6q106 -13 165.5 -86t59.5 -187v-237q0 -197 -123 -316.5t-328 -119.5t-327.5 119.5t-122.5 316.5v274q0 197 122.5 316.5t327.5 119.5h549zM840 416v274q0 118 -60.5 180t-169.5 62q-108 0 -168.5 -64.5t-60.5 -177.5v-274q0 -113 60.5 -177.5
t168.5 -64.5q107 0 168.5 64.5t61.5 177.5z" />
    <glyph glyph-name="tau" unicode="&#x3c4;" 
d="M1057 0h-269q-154 0 -239.5 83.5t-85.5 235.5v607h-352v200h974v-200h-401v-607q0 -118 115 -118h258v-201z" />
    <glyph glyph-name="upsilon" unicode="&#x3c5;" 
d="M612 -20q-204 0 -324 118t-120 320v708h221v-706q0 -118 59 -183t164 -65q107 0 167.5 65t60.5 183v706h221v-708q0 -202 -122 -320t-327 -118z" />
    <glyph glyph-name="phi" unicode="&#x3c6;" 
d="M711 -369h-193v369q-193 0 -303.5 112.5t-110.5 303.5v710h195v-710q0 -114 61 -179t170 -65v954h234q166 0 264 -93t98 -251v-366q0 -191 -111 -303.5t-304 -112.5v-369zM698 956v-784q109 0 171.5 65t62.5 179v366q0 81 -46 127.5t-126 46.5h-62z" />
    <glyph glyph-name="chi" unicode="&#x3c7;" 
d="M311 -369h-241l422 762l-398 733h250l209 -407q38 -72 65 -137q31 74 64 137l213 407h240l-398 -725l422 -770h-250l-231 443q-29 56 -68 141q-32 -83 -63 -139z" />
    <glyph glyph-name="psi" unicode="&#x3c8;" 
d="M711 -369h-193v369q-196 0 -308 111t-112 305v710h195v-710q0 -112 63 -175t174 -63v948h168v-948q111 0 174.5 63t63.5 175v710h194v-710q0 -193 -111.5 -304.5t-307.5 -111.5v-369z" />
    <glyph glyph-name="omega" unicode="&#x3c9;" 
d="M811 918v223q145 -23 230 -136t85 -286v-402q0 -155 -71.5 -246t-194.5 -91q-100 0 -165.5 59t-80.5 162q-15 -103 -80 -162t-165 -59q-123 0 -194 90.5t-71 246.5v402q0 176 82.5 290.5t223.5 137.5v-221q-51 -12 -80 -67.5t-29 -139.5v-410q0 -73 29.5 -112t83.5 -39
q56 0 86 39t30 112v391h170v-391q0 -73 29.5 -112t85.5 -39q54 0 83.5 39t29.5 112v410q0 79 -31 133t-86 66z" />
    <glyph glyph-name="iotadieresis" unicode="&#x3ca;" 
d="M381 1321q-65 0 -103 37.5t-38 101.5q0 65 38.5 103.5t102.5 38.5t102.5 -38.5t38.5 -103.5q0 -64 -38 -101.5t-103 -37.5zM848 1321q-64 0 -101.5 37.5t-37.5 101.5q0 65 37.5 103.5t101.5 38.5t102.5 -38.5t38.5 -103.5q0 -64 -38 -101.5t-103 -37.5zM1133 0h-281
q-158 0 -253 93.5t-95 248.5v584h-400v200h621v-784q0 -65 37 -103t100 -38h271v-201z" />
    <glyph glyph-name="upsilondieresis" unicode="&#x3cb;" 
d="M381 1321q-65 0 -103 37.5t-38 101.5q0 65 38.5 103.5t102.5 38.5t102.5 -38.5t38.5 -103.5q0 -64 -38 -101.5t-103 -37.5zM848 1321q-64 0 -101.5 37.5t-37.5 101.5q0 65 37.5 103.5t101.5 38.5t102.5 -38.5t38.5 -103.5q0 -64 -38 -101.5t-103 -37.5zM612 -20
q-204 0 -324 118t-120 320v708h221v-706q0 -118 59 -183t164 -65q107 0 167.5 65t60.5 183v706h221v-708q0 -202 -122 -320t-327 -118z" />
    <glyph glyph-name="omicrontonos" unicode="&#x3cc;" 
d="M700 1321h-223l217 287h238zM614 -18q-210 0 -332 118t-122 318v291q0 200 122 318t332 118t333.5 -118t123.5 -318v-291q0 -200 -123.5 -318t-333.5 -118zM614 176q111 0 173.5 63t62.5 179v291q0 116 -62.5 178.5t-173.5 62.5t-172 -62.5t-61 -178.5v-291
q0 -116 61 -179t172 -63z" />
    <glyph glyph-name="upsilontonos" unicode="&#x3cd;" 
d="M700 1321h-223l217 287h238zM612 -20q-204 0 -324 118t-120 320v708h221v-706q0 -118 59 -183t164 -65q107 0 167.5 65t60.5 183v706h221v-708q0 -202 -122 -320t-327 -118z" />
    <glyph glyph-name="omegatonos" unicode="&#x3ce;" 
d="M672 1608h237l-231 -287h-223zM811 918v223q145 -23 230 -136t85 -286v-402q0 -155 -71.5 -246t-194.5 -91q-100 0 -165.5 59t-80.5 162q-15 -103 -80 -162t-165 -59q-123 0 -194 90.5t-71 246.5v402q0 176 82.5 290.5t223.5 137.5v-221q-51 -12 -80 -67.5t-29 -139.5
v-410q0 -73 29.5 -112t83.5 -39q56 0 86 39t30 112v391h170v-391q0 -73 29.5 -112t85.5 -39q54 0 83.5 39t29.5 112v410q0 79 -31 133t-86 66z" />
    <glyph glyph-name="uni03CF" unicode="&#x3cf;" 
d="M784 780l295 -616h109v-170q0 -177 -96.5 -270t-280.5 -93h-82v191h76q82 0 130 47t48 131h-76l-319 678h-195v-678h-221v1495h221v-625h199l307 625h240z" />
    <glyph glyph-name="uni03D5" unicode="&#x3d5;" 
d="M709 -369h-189v369q-196 0 -309 112t-113 304v297q0 192 113.5 302.5t308.5 110.5v369h189v-369q196 0 308.5 -110.5t112.5 -302.5v-297q0 -193 -112.5 -304.5t-308.5 -111.5v-369zM526 174v778q-108 0 -168.5 -63t-60.5 -176v-297q0 -114 61 -178t168 -64zM702 952v-778
q108 0 169 64t61 178v297q0 113 -61 176t-169 63z" />
    <glyph glyph-name="uni03D6" unicode="&#x3d6;" 
d="M29 1126h1173v-196h-227q72 -37 111.5 -108t39.5 -167v-338q0 -155 -71.5 -246t-194.5 -91q-101 0 -166.5 60.5t-79.5 166.5q-14 -106 -79 -166.5t-166 -60.5q-123 0 -194 90.5t-71 246.5v338q0 96 39.5 167t112.5 108h-227v196zM928 309v469q0 73 -29.5 112.5
t-83.5 39.5h-401q-54 0 -83.5 -39.5t-29.5 -112.5v-469q0 -73 29.5 -112t83.5 -39q56 0 86 39t30 112v385h170v-385q0 -73 29.5 -112t85.5 -39q54 0 83.5 39t29.5 112z" />
    <glyph glyph-name="uni03D7" unicode="&#x3d7;" 
d="M1057 1126v-962h88v-170q0 -177 -96.5 -270t-280.5 -93h-82v191h76q82 0 130 47t48 131h-88v584q0 164 27 358l-430 -942h-277v1126h205v-583q0 -183 -29 -369l432 952h277z" />
    <glyph glyph-name="uni0401" unicode="&#x401;" 
d="M422 1665q-65 0 -103 36.5t-38 100.5q0 65 38.5 103.5t102.5 38.5t102.5 -38.5t38.5 -103.5q0 -64 -38 -100.5t-103 -36.5zM889 1665q-65 0 -102 36.5t-37 100.5q0 65 37.5 103.5t101.5 38.5t102.5 -38.5t38.5 -103.5q0 -64 -38 -100.5t-103 -36.5zM1071 0h-878v1495h878
v-197h-661v-426h589v-190h-589v-485h661v-197z" />
    <glyph glyph-name="uni0402" unicode="&#x402;" 
d="M680 -369h-131v207h137q100 0 156.5 55.5t56.5 153.5v553q0 110 -42 167.5t-120 57.5q-105 0 -213 -114l-84 -88v-623h-221v1296h-219v199h680v-199h-240v-471l31 33q147 156 320 156q149 0 239 -104t90 -279v-594q0 -183 -121 -294.5t-319 -111.5z" />
    <glyph glyph-name="uni0403" unicode="&#x403;" 
d="M741 1659h-223l217 287h238zM479 0h-221v1495h883v-201h-662v-1294z" />
    <glyph glyph-name="uni0404" unicode="&#x404;" 
d="M623 -20q-211 0 -334 117.5t-123 318.5v663q0 202 123 319.5t334 117.5q209 0 331.5 -118.5t122.5 -318.5h-221q0 117 -60 179.5t-173 62.5t-174.5 -62.5t-61.5 -177.5v-227h449v-201h-449v-237q0 -115 61.5 -178.5t174.5 -63.5q112 0 172.5 63t60.5 179h221
q0 -200 -122.5 -318t-331.5 -118z" />
    <glyph glyph-name="uni0405" unicode="&#x405;" 
d="M621 -20q-223 0 -355.5 113.5t-132.5 303.5h221q0 -100 73.5 -161.5t195.5 -61.5q118 0 187 60.5t69 162.5q0 82 -45 142.5t-123 83.5l-199 59q-163 46 -254.5 158t-91.5 266q0 188 124 299t333 111q207 0 330.5 -110t123.5 -296h-221q0 97 -63 154t-172 57
q-107 0 -171.5 -57t-64.5 -154q0 -76 44.5 -131t125.5 -78l205 -61q160 -46 249 -162t89 -277q0 -192 -130 -306.5t-347 -114.5z" />
    <glyph glyph-name="uni0406" unicode="&#x406;" 
d="M1030 0h-829v201h301v1093h-301v201h829v-201h-303v-1093h303v-201z" />
    <glyph glyph-name="uni0407" unicode="&#x407;" 
d="M381 1665q-65 0 -103 36.5t-38 100.5q0 65 38.5 103.5t102.5 38.5t102.5 -38.5t38.5 -103.5q0 -64 -38 -100.5t-103 -36.5zM848 1665q-65 0 -102 36.5t-37 100.5q0 65 37.5 103.5t101.5 38.5t102.5 -38.5t38.5 -103.5q0 -64 -38 -100.5t-103 -36.5zM1030 0h-829v201h301
v1093h-301v201h829v-201h-303v-1093h303v-201z" />
    <glyph glyph-name="uni0408" unicode="&#x408;" 
d="M553 -20q-221 0 -348 122.5t-127 333.5h221q0 -124 67 -193t187 -69t188 69t68 193v858h-420v201h641v-1059q0 -212 -128.5 -334t-348.5 -122z" />
    <glyph glyph-name="uni0409" unicode="&#x409;" 
d="M27 -10h-41v186h39q54 0 84 60.5t32 166.5l13 1092h606v-604h88q157 0 251.5 -92t94.5 -246v-217q0 -153 -94.5 -244.5t-251.5 -91.5h-277v1321h-231l-10 -918q-3 -190 -84.5 -301.5t-218.5 -111.5zM760 715v-539h88q72 0 115 43.5t43 116.5v217q0 74 -43 118t-115 44
h-88z" />
    <glyph glyph-name="uni040A" unicode="&#x40a;" 
d="M289 0h-189v1495h189v-598h282v598h189v-598h88q160 0 253 -90.5t93 -247.5v-223q0 -155 -93 -245.5t-253 -90.5h-277v721h-282v-721zM760 721v-545h88q75 0 116.5 42.5t41.5 117.5v223q0 76 -42 119t-116 43h-88z" />
    <glyph glyph-name="uni040B" unicode="&#x40b;" 
d="M440 0h-221v1296h-219v199h680v-199h-240v-471l31 33q147 156 320 156q149 0 239 -104t90 -279v-631h-221v600q0 110 -42 167.5t-120 57.5q-105 0 -213 -114l-84 -88v-623z" />
    <glyph glyph-name="uni040C" unicode="&#x40c;" 
d="M700 1659h-223l217 287h238zM393 0h-221v1495h221v-625h199l307 625h240l-355 -715l373 -780h-250l-319 678h-195v-678z" />
    <glyph glyph-name="uni040E" unicode="&#x40e;" 
d="M614 1647q-154 0 -248 82t-94 217h172q0 -73 46.5 -118.5t121.5 -45.5q78 0 125 45t47 119h174q0 -135 -94.5 -217t-249.5 -82zM606 0h-233l151 385l-436 1110h240l245 -694q48 -133 60 -223q15 110 51 223l221 694h238z" />
    <glyph glyph-name="uni040F" unicode="&#x40f;" 
d="M725 -256h-221v256h-328v1495h221v-1292h434v1292h222v-1495h-328v-256z" />
    <glyph glyph-name="uni0410" unicode="&#x410;" 
d="M313 0h-225l381 1495h291l383 -1495h-225l-91 379h-424zM547 995l-103 -432h340l-102 430q-41 170 -68 316q-31 -164 -67 -314z" />
    <glyph glyph-name="uni0411" unicode="&#x411;" 
d="M629 0h-453v1495h864v-201h-647v-407h234q219 0 348 -120.5t129 -322.5t-129 -323t-346 -121zM393 692v-497h236q116 0 183 66t67 181q0 117 -67 183.5t-183 66.5h-236z" />
    <glyph glyph-name="uni0412" unicode="&#x412;" 
d="M838 791q124 -31 195 -129t71 -242q0 -192 -124.5 -306t-336.5 -114h-469v1495h440q211 0 333 -103.5t122 -281.5q0 -122 -61 -206t-170 -113zM614 1305h-225v-437h223q109 0 173.5 59t64.5 160t-63.5 159.5t-172.5 58.5zM389 190h236q120 0 189 64.5t69 175.5
q0 115 -69.5 184.5t-188.5 69.5h-236v-494z" />
    <glyph glyph-name="uni0413" unicode="&#x413;" 
d="M479 0h-221v1495h883v-201h-662v-1294z" />
    <glyph glyph-name="uni0414" unicode="&#x414;" 
d="M250 -287h-201v473h84q40 72 74 195t37 256l14 858h784v-1309h138v-473h-201v287h-729v-287zM358 186h469v1119h-362l-10 -668q0 -140 -30 -263.5t-67 -187.5z" />
    <glyph glyph-name="uni0415" unicode="&#x415;" 
d="M1071 0h-878v1495h878v-197h-661v-426h589v-190h-589v-485h661v-197z" />
    <glyph glyph-name="uni0416" unicode="&#x416;" 
d="M229 0h-206l247 766l-229 729h209l199 -670h79v670h170v-670h82l197 670h209l-228 -729l248 -766h-207l-215 700h-86l4 -700h-172l-2 700h-86z" />
    <glyph glyph-name="uni0417" unicode="&#x417;" 
d="M827 793q129 -26 202 -122t73 -243q0 -202 -139 -325t-367 -123q-220 0 -356.5 116t-141.5 305h221q5 -102 80 -164.5t195 -62.5q127 0 205 70t78 184q0 115 -77.5 184.5t-205.5 69.5h-193v188h193q114 0 184 62.5t70 163.5t-70 163t-184 62q-117 0 -187.5 -64
t-70.5 -170h-221q0 194 133.5 311.5t353.5 117.5q212 0 340.5 -110t128.5 -292q0 -127 -64.5 -211.5t-179.5 -109.5z" />
    <glyph glyph-name="uni0418" unicode="&#x418;" 
d="M446 0h-280v1495h207v-784q0 -204 -23 -459l434 1243h279v-1495h-207v772q0 184 25 471z" />
    <glyph glyph-name="uni0419" unicode="&#x419;" 
d="M614 1647q-154 0 -248 82t-94 217h172q0 -73 46.5 -118.5t121.5 -45.5q78 0 125 45t47 119h174q0 -135 -94.5 -217t-249.5 -82zM446 0h-280v1495h207v-784q0 -204 -23 -459l434 1243h279v-1495h-207v772q0 184 25 471z" />
    <glyph glyph-name="uni041A" unicode="&#x41a;" 
d="M393 0h-221v1495h221v-625h199l307 625h240l-355 -715l373 -780h-250l-319 678h-195v-678z" />
    <glyph glyph-name="uni041B" unicode="&#x41b;" 
d="M96 -10h-57v203h43q80 0 118.5 75t39.5 238l16 989h797v-1495h-222v1294h-356l-14 -788q-9 -516 -365 -516z" />
    <glyph glyph-name="uni041C" unicode="&#x41c;" 
d="M346 0h-211v1495h273l151 -479q38 -120 57 -223q17 93 58 225l147 477h273v-1495h-209v668q0 302 51 708l-223 -727h-199l-225 719q57 -391 57 -700v-668z" />
    <glyph glyph-name="uni041D" unicode="&#x41d;" 
d="M395 0h-221v1495h221v-618h439v618h221v-1495h-221v676h-439v-676z" />
    <glyph glyph-name="uni041E" unicode="&#x41e;" 
d="M614 -20q-209 0 -329.5 117.5t-120.5 318.5v663q0 202 120.5 319.5t329.5 117.5t330 -117.5t121 -317.5v-665q0 -201 -121 -318.5t-330 -117.5zM614 176q112 0 171 62t59 178v663q0 117 -59 178.5t-171 61.5t-170.5 -61.5t-58.5 -178.5v-663q0 -116 58.5 -178t170.5 -62z
" />
    <glyph glyph-name="uni041F" unicode="&#x41f;" 
d="M397 0h-221v1495h877v-1495h-222v1294h-434v-1294z" />
    <glyph glyph-name="uni0420" unicode="&#x420;" 
d="M393 0h-221v1495h490q218 0 347.5 -122.5t129.5 -328.5t-129.5 -328t-347.5 -122h-269v-594zM393 1298v-507h269q115 0 183 68.5t68 184.5t-68 185t-183 69h-269z" />
    <glyph glyph-name="uni0421" unicode="&#x421;" 
d="M623 -20q-211 0 -335 117.5t-124 318.5v663q0 202 124 319.5t335 117.5q209 0 332.5 -118.5t123.5 -318.5h-221q0 116 -61 178t-174 62t-175.5 -61.5t-62.5 -176.5v-665q0 -115 62.5 -177.5t175.5 -62.5t174 62.5t61 177.5h221q0 -200 -123.5 -318t-332.5 -118z" />
    <glyph glyph-name="uni0422" unicode="&#x422;" 
d="M725 0h-221v1294h-400v201h1022v-201h-401v-1294z" />
    <glyph glyph-name="uni0423" unicode="&#x423;" 
d="M606 0h-233l151 385l-436 1110h240l245 -694q48 -133 60 -223q15 110 51 223l221 694h238z" />
    <glyph glyph-name="uni0424" unicode="&#x424;" 
d="M711 -51h-193v143q-190 0 -306 118.5t-116 313.5v469q0 200 115 320.5t307 120.5v143h193v-143q192 0 307 -120.5t115 -320.5v-469q0 -195 -116 -313.5t-306 -118.5v-143zM520 272v981q-104 0 -164.5 -70t-60.5 -190v-469q0 -117 60.5 -184.5t164.5 -67.5zM709 1253v-981
q104 0 164.5 67.5t60.5 184.5v469q0 120 -60.5 190t-164.5 70z" />
    <glyph glyph-name="uni0425" unicode="&#x425;" 
d="M311 0h-241l422 762l-398 733h250l209 -408q38 -72 65 -137q31 74 64 137l213 408h240l-398 -725l422 -770h-250l-231 442q-26 50 -68 142q-33 -86 -63 -140z" />
    <glyph glyph-name="uni0426" unicode="&#x426;" 
d="M1165 -287h-200v287h-789v1495h221v-1296h394v1296h221v-1296h153v-486z" />
    <glyph glyph-name="uni0427" unicode="&#x427;" 
d="M1051 0h-222v580q-37 -11 -115 -20t-151 -9q-210 0 -317 97t-107 286v561h221v-557q0 -188 246 -188q166 0 223 26v719h222v-1495z" />
    <glyph glyph-name="uni0428" unicode="&#x428;" 
d="M1112 0h-993l-2 1495h196v-1335h219v1335h168v-1335h218v1335h194v-1495z" />
    <glyph glyph-name="uni0429" unicode="&#x429;" 
d="M1186 -287h-195v287h-874v1495h184v-1325h215v1325h162v-1325h215v1325h184v-1325h109v-457z" />
    <glyph glyph-name="uni042A" unicode="&#x42a;" 
d="M664 0h-402v1305h-272v190h493v-604h181q214 0 344.5 -123t130.5 -324q0 -200 -130.5 -322t-344.5 -122zM483 692v-495h174q116 0 186 67.5t70 179.5t-70 180t-186 68h-174z" />
    <glyph glyph-name="uni042B" unicode="&#x42b;" 
d="M389 0h-270v1495h196v-604h74q184 0 290.5 -104.5t106.5 -286.5v-113q0 -181 -105.5 -284t-291.5 -103zM1112 0h-199v1495h199v-1495zM315 707v-523h74q95 0 148 54t53 151v111q0 98 -53 152.5t-148 54.5h-74z" />
    <glyph glyph-name="uni042C" unicode="&#x42c;" 
d="M664 0h-488v1495h221v-604h267q214 0 344.5 -123t130.5 -324q0 -200 -130.5 -322t-344.5 -122zM397 692v-495h260q116 0 186 67.5t70 179.5t-70 180t-186 68h-260z" />
    <glyph glyph-name="uni042D" unicode="&#x42d;" 
d="M606 -20q-209 0 -331.5 118t-122.5 318h221q0 -116 60.5 -179t172.5 -63q113 0 174.5 63.5t61.5 178.5v237h-449v201h449v227q0 115 -61.5 177.5t-174.5 62.5t-173 -62.5t-60 -179.5h-221q0 200 122.5 318.5t331.5 118.5q211 0 334 -117.5t123 -319.5v-663
q0 -201 -123 -318.5t-334 -117.5z" />
    <glyph glyph-name="uni042E" unicode="&#x42e;" 
d="M799 -20q-155 0 -245.5 102.5t-90.5 279.5v316h-158v-678h-194v1495h194v-637h158v275q0 179 89.5 281t246.5 102q164 0 259 -103t95 -280v-771q0 -177 -95 -279.5t-259 -102.5zM799 160q76 0 117.5 51t41.5 145v783q0 95 -41 145.5t-118 50.5t-118.5 -50.5t-41.5 -145.5
v-783q0 -94 41.5 -145t118.5 -51z" />
    <glyph glyph-name="uni042F" unicode="&#x42f;" 
d="M350 0h-248l299 643q-131 44 -206.5 154.5t-75.5 259.5q0 198 128.5 318t340.5 120h465v-1495h-222v614h-208zM588 809h243v491h-243q-111 0 -177.5 -67t-66.5 -180q0 -111 66 -177.5t178 -66.5z" />
    <glyph glyph-name="uni0430" unicode="&#x430;" 
d="M625 1147q201 0 318.5 -102t117.5 -275v-770h-215v203h-4q-17 -104 -107.5 -163.5t-232.5 -59.5q-175 0 -277 90.5t-102 248.5q0 161 108.5 252t298.5 91h310v104q0 92 -58 142t-161 50q-92 0 -155 -39.5t-73 -103.5h-215q12 149 135.5 240.5t311.5 91.5zM567 147
q120 0 196.5 60t76.5 155v148h-303q-89 0 -141 -47t-52 -129q0 -88 59.5 -137.5t163.5 -49.5z" />
    <glyph glyph-name="uni0431" unicode="&#x431;" 
d="M690 1028q178 0 281.5 -116.5t103.5 -317.5v-170q0 -204 -124 -324.5t-333 -119.5q-209 2 -331.5 121t-122.5 323v508q0 263 145.5 413t401.5 150h303v-215h-303q-153 0 -242.5 -93.5t-89.5 -254.5v-121h2q15 102 98 159.5t211 57.5zM854 424v170q0 117 -63.5 183.5
t-172.5 66.5t-171 -66.5t-62 -183.5v-170q0 -117 62 -183.5t171 -66.5t172.5 66.5t63.5 183.5z" />
    <glyph glyph-name="uni0432" unicode="&#x432;" 
d="M690 0h-518v1126h496q177 0 281 -77.5t104 -208.5q0 -104 -66 -166.5t-180 -67.5v-10q129 -3 206 -78.5t77 -198.5q0 -146 -108 -232.5t-292 -86.5zM389 948v-289h275q80 0 126 38.5t46 107.5q0 67 -46 105t-126 38h-275zM389 500v-322h293q89 0 139.5 43t50.5 119
q0 75 -50.5 117.5t-139.5 42.5h-293z" />
    <glyph glyph-name="uni0433" unicode="&#x433;" 
d="M479 0h-221v1126h823v-202h-602v-924z" />
    <glyph glyph-name="uni0434" unicode="&#x434;" 
d="M258 -287h-201v475h82q42 42 77 142.5t36 236.5l12 559h764v-938h137v-475h-200v287h-707v-287zM369 188h444v744h-342l-8 -367q-1 -137 -30 -237t-64 -140z" />
    <glyph glyph-name="uni0435" unicode="&#x435;" 
d="M1071 711v-201h-698v-94q0 -126 61.5 -191t181.5 -65q96 0 155.5 34t72.5 99h221q-25 -142 -148 -227.5t-303 -85.5q-206 0 -330 119.5t-124 316.5v295q0 198 123.5 317t330.5 119t332 -119t125 -317zM373 711v-52l483 3v51q0 125 -62 191.5t-180 66.5t-179.5 -67.5
t-61.5 -192.5z" />
    <glyph glyph-name="uni0436" unicode="&#x436;" 
d="M238 0h-209l235 578l-219 548h203l188 -493h92v493h172v-493h91l196 493h199l-221 -542l237 -584h-207l-200 516h-95v-516h-172v516h-94z" />
    <glyph glyph-name="uni0437" unicode="&#x437;" 
d="M805 598q136 -10 207 -83.5t71 -197.5q0 -152 -113.5 -241.5t-307.5 -89.5h-109q-178 0 -294 80.5t-138 218.5h225q10 -52 66 -82.5t141 -30.5h109q89 0 141.5 44t52.5 114q0 74 -50.5 116.5t-143.5 42.5h-273v183h258q84 0 129 38t45 105t-44.5 103t-127.5 36h-94
q-79 0 -133 -32t-66 -86h-225q20 141 133.5 223t290.5 82h94q187 0 294.5 -82t107.5 -225q0 -102 -64 -164t-182 -72z" />
    <glyph glyph-name="uni0438" unicode="&#x438;" 
d="M449 0h-277v1126h205v-583q0 -183 -29 -369l432 952h277v-1126h-205v584q0 164 27 358z" />
    <glyph glyph-name="uni0439" unicode="&#x439;" 
d="M614 1309q-154 0 -248 82t-94 217h172q0 -73 46.5 -118.5t121.5 -45.5q78 0 125 45t47 119h174q0 -135 -94.5 -217t-249.5 -82zM449 0h-277v1126h205v-583q0 -183 -29 -369l432 952h277v-1126h-205v584q0 164 27 358z" />
    <glyph glyph-name="uni043A" unicode="&#x43a;" 
d="M399 0h-221v1126h221v-452h199l299 452h250l-359 -540l365 -586h-254l-301 483h-199v-483z" />
    <glyph glyph-name="uni043B" unicode="&#x43b;" 
d="M106 -14h-57v202h43q83 0 120 66t40 221l12 651h793v-1126h-221v926h-355l-10 -463q-4 -244 -94 -360.5t-271 -116.5z" />
    <glyph glyph-name="uni043C" unicode="&#x43c;" 
d="M342 0h-207v1126h279l143 -428q42 -121 61 -225q33 140 60 227l137 426h279v-1126h-207v184q0 265 28 805l-194 -657h-209l-197 651q27 -614 27 -799v-184z" />
    <glyph glyph-name="uni043D" unicode="&#x43d;" 
d="M393 0h-221v1126h221v-448h443v448h221v-1126h-221v477h-443v-477z" />
    <glyph glyph-name="uni043E" unicode="&#x43e;" 
d="M614 -18q-210 0 -332 118t-122 318v291q0 200 122 318t332 118t333.5 -118t123.5 -318v-291q0 -200 -123.5 -318t-333.5 -118zM614 176q111 0 173.5 63t62.5 179v291q0 116 -62.5 178.5t-173.5 62.5t-172 -62.5t-61 -178.5v-291q0 -116 61 -179t172 -63z" />
    <glyph glyph-name="uni043F" unicode="&#x43f;" 
d="M393 0h-221v1126h885v-1126h-221v926h-443v-926z" />
    <glyph glyph-name="uni0440" unicode="&#x440;" 
d="M700 1147q168 0 269.5 -115t101.5 -309v-317q0 -196 -101 -311t-270 -115q-120 0 -201 61t-104 168h-6l6 -256v-322h-221v1495h217v-208h2q25 108 105.5 168.5t201.5 60.5zM850 416v295q0 118 -59.5 180.5t-167.5 62.5q-107 0 -167.5 -64.5t-60.5 -180.5v-289
q0 -118 60.5 -183t167.5 -65q108 0 167.5 63t59.5 181z" />
    <glyph glyph-name="uni0441" unicode="&#x441;" 
d="M623 -20q-212 0 -337.5 117t-125.5 319v295q0 202 125.5 319t337.5 117q203 0 325.5 -106.5t128.5 -290.5h-217q-6 96 -69 149t-168 53q-114 0 -178 -62.5t-64 -176.5v-297q0 -115 64 -178.5t178 -63.5q105 0 168 53.5t69 151.5h217q-6 -184 -128.5 -291.5t-325.5 -107.5
z" />
    <glyph glyph-name="uni0442" unicode="&#x442;" 
d="M725 0h-221v930h-398v196h1016v-196h-397v-930z" />
    <glyph glyph-name="uni0443" unicode="&#x443;" 
d="M584 -369h-232l164 435l-432 1060h240l247 -634q27 -74 56 -193q19 95 55 193l233 634h230z" />
    <glyph glyph-name="uni0444" unicode="&#x444;" 
d="M709 -369h-189v369q-196 0 -309 112t-113 304v297q0 192 113.5 302.5t308.5 110.5v369h189v-369q196 0 308.5 -110.5t112.5 -302.5v-297q0 -193 -112.5 -304.5t-308.5 -111.5v-369zM526 174v778q-108 0 -168.5 -63t-60.5 -176v-297q0 -114 61 -178t168 -64zM702 952v-778
q108 0 169 64t61 178v297q0 113 -61 176t-169 63z" />
    <glyph glyph-name="uni0445" unicode="&#x445;" 
d="M340 0h-252l395 582l-370 544h254l198 -311q35 -57 51 -98q11 33 50 98l198 311h254l-370 -546l393 -580h-254l-219 338q-35 57 -52 104q-22 -50 -55 -104z" />
    <glyph glyph-name="uni0446" unicode="&#x446;" 
d="M1165 -287h-200v287h-793v1126h221v-925h398v925h221v-925h153v-488z" />
    <glyph glyph-name="uni0447" unicode="&#x447;" 
d="M1042 0h-221v389q-74 -16 -229 -16q-229 -2 -339 89t-110 281v383h222v-376q0 -94 58 -136.5t185 -42.5q159 0 213 15v540h221v-1126z" />
    <glyph glyph-name="uni0448" unicode="&#x448;" 
d="M1118 0h-1005l-2 1126h196v-956h225v956h168v-956h224v956h194v-1126z" />
    <glyph glyph-name="uni0449" unicode="&#x449;" 
d="M1186 -287h-195v287h-880v1126h184v-950h219v950h160v-950h219v950h184v-950h109v-463z" />
    <glyph glyph-name="uni044A" unicode="&#x44a;" 
d="M707 0h-433v926h-274v200h496v-391h211q196 0 308.5 -98t112.5 -270q0 -169 -113 -268t-308 -99zM496 539v-342h204q97 0 150 44.5t53 127.5q0 82 -53 126t-150 44h-204z" />
    <glyph glyph-name="uni044B" unicode="&#x44b;" 
d="M397 0h-278v1126h196v-397h82q183 0 289.5 -99t106.5 -268q0 -167 -106.5 -264.5t-289.5 -97.5zM1112 0h-199v1126h199v-1126zM315 559v-389h82q97 0 152 51.5t55 140.5q0 92 -55 144.5t-152 52.5h-82z" />
    <glyph glyph-name="uni044C" unicode="&#x44c;" 
d="M707 0h-523v1126h222v-391h301q196 0 308.5 -98t112.5 -270q0 -169 -113 -268t-308 -99zM406 539v-342h294q97 0 150 44.5t53 127.5q0 82 -53 126t-150 44h-294z" />
    <glyph glyph-name="uni044D" unicode="&#x44d;" 
d="M610 -20q-204 0 -327 106.5t-129 286.5h221q6 -94 68 -146.5t167 -52.5q113 0 177.5 63.5t64.5 176.5v65h-358v185h358v47q0 115 -64.5 178t-177.5 63q-104 0 -166.5 -52t-68.5 -144h-221q6 180 129 285.5t327 105.5q212 0 337.5 -117t125.5 -319v-295
q0 -202 -125.5 -319t-337.5 -117z" />
    <glyph glyph-name="uni044E" unicode="&#x44e;" 
d="M807 -20q-150 0 -236 93.5t-86 252.5v163h-186v-489h-195v1126h195v-475h186v152q0 158 86 251t236 93q158 0 252 -93.5t94 -250.5v-477q0 -158 -94.5 -252t-251.5 -94zM809 147q68 0 108.5 48.5t40.5 130.5v477q0 80 -41 128t-108 48t-107 -48t-40 -128v-477
q0 -82 40 -130.5t107 -48.5z" />
    <glyph glyph-name="uni044F" unicode="&#x44f;" 
d="M377 0h-252l270 422q-117 32 -185.5 123t-68.5 215q0 170 115 268t313 98h488v-1126h-221v406h-215zM575 584h261v356h-261q-97 0 -153.5 -47.5t-56.5 -130.5t56.5 -130.5t153.5 -47.5z" />
    <glyph glyph-name="uni0451" unicode="&#x451;" 
d="M381 1321q-65 0 -103 37.5t-38 101.5q0 65 38.5 103.5t102.5 38.5t102.5 -38.5t38.5 -103.5q0 -64 -38 -101.5t-103 -37.5zM848 1321q-64 0 -101.5 37.5t-37.5 101.5q0 65 37.5 103.5t101.5 38.5t102.5 -38.5t38.5 -103.5q0 -64 -38 -101.5t-103 -37.5zM1071 711v-201
h-698v-94q0 -126 61.5 -191t181.5 -65q96 0 155.5 34t72.5 99h221q-25 -142 -148 -227.5t-303 -85.5q-206 0 -330 119.5t-124 316.5v295q0 198 123.5 317t330.5 119t332 -119t125 -317zM373 711v-52l483 3v51q0 125 -62 191.5t-180 66.5t-179.5 -67.5t-61.5 -192.5z" />
    <glyph glyph-name="uni0452" unicode="&#x452;" 
d="M692 1024q167 0 266 -107t99 -290v-557q0 -201 -123 -320t-330 -119h-92v205h84q115 0 177.5 61.5t62.5 174.5v530q0 110 -57.5 172t-160.5 62q-105 0 -163 -65t-58 -183v-588h-221v1159h-176v162h176v174h221v-174h326v-162h-326v-155l-4 -216h4q14 113 91 174.5
t204 61.5z" />
    <glyph glyph-name="uni0453" unicode="&#x453;" 
d="M762 1321h-223l217 287h237zM479 0h-221v1126h823v-202h-602v-924z" />
    <glyph glyph-name="uni0454" unicode="&#x454;" 
d="M618 -20q-212 0 -337 117t-125 319v295q0 202 125 319t337 117q204 0 327.5 -105.5t129.5 -285.5h-221q-6 92 -69 144t-167 52q-113 0 -177 -63t-64 -178v-47h358v-185h-358v-65q0 -114 64 -177t177 -63q106 0 168 52.5t68 146.5h221q-6 -180 -129.5 -286.5
t-327.5 -106.5z" />
    <glyph glyph-name="uni0455" unicode="&#x455;" 
d="M664 -18h-89q-186 0 -300.5 85t-114.5 230h223q0 -62 53.5 -95.5t143.5 -33.5h86q100 0 151 38t51 107q0 128 -184 156l-154 25q-173 26 -257.5 107t-84.5 220q0 157 103.5 240.5t298.5 83.5h78q183 0 292 -81t109 -216h-223q0 52 -47.5 81t-132.5 29h-78
q-89 0 -137 -35.5t-48 -101.5q0 -113 162 -137l156 -25q187 -28 274.5 -109t87.5 -228q0 -162 -106.5 -251t-312.5 -89z" />
    <glyph glyph-name="uni0456" unicode="&#x456;" horiz-adv-x="1024" 
d="M537 1321q-72 0 -115 37.5t-43 101.5q0 65 43 103.5t115 38.5t114.5 -38.5t42.5 -103.5q0 -64 -42.5 -101.5t-114.5 -37.5zM942 0h-788v201h295v725h-250v200h471v-925h272v-201z" />
    <glyph glyph-name="uni0457" unicode="&#x457;" 
d="M301 1321q-65 0 -102 37.5t-37 101.5q0 65 37.5 103.5t101.5 38.5t102.5 -38.5t38.5 -103.5q0 -64 -38 -101.5t-103 -37.5zM770 1321q-65 0 -103 37.5t-38 101.5q0 65 38.5 103.5t102.5 38.5t102.5 -38.5t38.5 -103.5q0 -64 -38 -101.5t-103 -37.5zM942 0h-788v201h295
v725h-250v200h471v-925h272v-201z" />
    <glyph glyph-name="uni0458" unicode="&#x458;" horiz-adv-x="819" 
d="M506 1321q-72 0 -115 37.5t-43 101.5q0 65 43 103.5t115 38.5t115 -38.5t43 -103.5q0 -64 -43 -101.5t-115 -37.5zM195 -369h-152v203h143q114 0 177 62.5t63 175.5v854h-328v200h549v-1056q0 -201 -122.5 -320t-329.5 -119z" />
    <glyph glyph-name="uni0459" unicode="&#x459;" 
d="M43 -10h-39v192h37q53 0 85.5 60t33.5 161l8 723h586v-393h108q150 0 241 -87.5t91 -231.5v-101q0 -141 -91.5 -227t-240.5 -86h-293v948h-215l-6 -547q-2 -189 -83.5 -300t-221.5 -111zM754 557v-383h108q63 0 102.5 38t39.5 101v101q0 64 -39.5 103.5t-102.5 39.5h-108
z" />
    <glyph glyph-name="uni045A" unicode="&#x45a;" 
d="M307 0h-194v1126h194v-397h271v397h176v-397h108q150 0 241 -87.5t91 -231.5v-95q0 -142 -91.5 -228.5t-240.5 -86.5h-284v555h-271v-555zM754 555v-379h108q63 0 100 38t37 101v95q0 65 -37 105t-100 40h-108z" />
    <glyph glyph-name="uni045B" unicode="&#x45b;" 
d="M172 1159h-172v162h172v174h221v-174h330v-162h-330v-155l-2 -216h2q15 112 94 174t205 62q168 0 268.5 -107.5t100.5 -289.5v-627h-221v602q0 110 -59.5 172t-162.5 62q-105 0 -165 -65t-60 -183v-588h-221v1159z" />
    <glyph glyph-name="uni045C" unicode="&#x45c;" 
d="M700 1321h-223l217 287h238zM399 0h-221v1126h221v-452h199l299 452h250l-359 -540l365 -586h-254l-301 483h-199v-483z" />
    <glyph glyph-name="uni045E" unicode="&#x45e;" 
d="M614 1309q-154 0 -248 82t-94 217h172q0 -73 46.5 -118.5t121.5 -45.5q78 0 125 45t47 119h174q0 -135 -94.5 -217t-249.5 -82zM584 -369h-232l164 435l-432 1060h240l247 -634q27 -74 56 -193q19 95 55 193l233 634h230z" />
    <glyph glyph-name="uni045F" unicode="&#x45f;" 
d="M725 -256h-221v256h-332v1126h221v-923h443v923h221v-1126h-332v-256z" />
    <glyph glyph-name="uni0490" unicode="&#x490;" 
d="M479 0h-221v1495h672v195h211v-398h-662v-1292z" />
    <glyph glyph-name="uni0491" unicode="&#x491;" 
d="M479 0h-221v1126h612v215h211v-417h-602v-924z" />
    <glyph glyph-name="uni0492" unicode="&#x492;" 
d="M1141 1495v-201h-662v-448h305v-191h-305v-655h-221v655h-197v191h197v649h883z" />
    <glyph glyph-name="uni0493" unicode="&#x493;" 
d="M1112 1126v-202h-602v-289h346v-174h-346v-461h-221v461h-183v174h183v491h823z" />
    <glyph glyph-name="uni049A" unicode="&#x49a;" 
d="M760 780l274 -579h170v-488h-194v287h-127l-320 678h-194v-678h-222v1495h222v-625h196l307 625h242z" />
    <glyph glyph-name="uni049B" unicode="&#x49b;" 
d="M772 586l242 -385h166v-488h-195v287h-102l-301 483h-189v-483h-221v1126h221v-452h189l299 452h252z" />
    <glyph glyph-name="uni04A2" unicode="&#x4a2;" 
d="M1042 1495v-1294h109v-488h-195v287h-135v676h-438v-676h-221v1495h221v-618h438v618h221z" />
    <glyph glyph-name="uni04A3" unicode="&#x4a3;" 
d="M1042 1126v-925h109v-488h-195v287h-135v471h-434v-471h-221v1126h221v-452h434v452h221z" />
    <glyph glyph-name="uni04AE" unicode="&#x4ae;" 
d="M725 0h-221v551l-445 944h230l264 -565q45 -95 65 -178q21 88 64 178l258 565h229l-444 -944v-551z" />
    <glyph glyph-name="uni04AF" unicode="&#x4af;" 
d="M725 -369h-221v369l-402 1126h232l237 -712q25 -70 50 -219q2 10 9.5 53.5t17 85t22.5 80.5l231 712h225l-401 -1126v-369z" />
    <glyph glyph-name="uni04B0" unicode="&#x4b0;" 
d="M940 1495h229l-444 -944h252v-162h-252v-389h-221v389h-250v162h250l-445 944h230l264 -565q45 -95 65 -178q21 88 64 178z" />
    <glyph glyph-name="uni04B1" unicode="&#x4b1;" 
d="M901 1126h225l-401 -1126h252v-164h-252v-205h-221v205h-250v164h250l-402 1126h232l237 -712q25 -70 50 -219q2 10 9.5 53.5t17 85t22.5 80.5z" />
    <glyph glyph-name="uni04B6" unicode="&#x4b6;" 
d="M1030 1495v-1294h100v-488h-194v287h-127v580q-37 -11 -115 -20t-151 -9q-210 0 -317 97t-107 286v561h221v-557q0 -188 246 -188q166 0 223 26v719h221z" />
    <glyph glyph-name="uni04B7" unicode="&#x4b7;" 
d="M1030 1126v-925h105v-488h-195v287h-131v389q-74 -16 -231 -16q-229 -2 -339 89t-110 281v383h221v-376q0 -94 58.5 -136.5t187.5 -42.5q159 0 213 15v540h221z" />
    <glyph glyph-name="uni04BA" unicode="&#x4ba;" 
d="M180 1495h221v-580q36 11 114 20t151 9q210 0 318 -96.5t108 -284.5v-563h-222v557q0 188 -247 188q-165 0 -222 -24v-721h-221v1495z" />
    <glyph glyph-name="uni04BB" unicode="&#x4bb;" 
d="M186 1126h222v-389q79 17 231 17q227 1 336.5 -89.5t109.5 -281.5v-383h-221v377q0 94 -57.5 136t-185.5 42q-155 0 -213 -12v-543h-222v1126z" />
    <glyph glyph-name="uni04D8" unicode="&#x4d8;" 
d="M608 -20q-209 0 -332.5 118t-123.5 318v438h690v227q0 111 -63 175.5t-171 64.5q-109 0 -172 -65t-63 -177h-221q0 200 123.5 318.5t332.5 118.5t332 -118.5t123 -318.5v-663q0 -200 -123 -318t-332 -118zM608 174q109 0 171.5 65t62.5 177v237h-469v-237q0 -112 63 -177
t172 -65z" />
    <glyph glyph-name="uni04D9" unicode="&#x4d9;" 
d="M614 1147q207 0 332 -119t125 -317v-295q0 -197 -125 -316.5t-332 -119.5q-206 0 -330 119.5t-124 316.5v200h696v95q0 126 -62 191t-182 65q-96 0 -155 -34t-72 -99h-221q25 142 147.5 227.5t302.5 85.5zM856 416v51l-483 -2v-51q0 -125 61.5 -191.5t179.5 -66.5
t180 67.5t62 192.5z" />
    <glyph glyph-name="uni04E8" unicode="&#x4e8;" 
d="M614 -20q-210 0 -329 118t-119 322v657q0 203 119 321t329 118t329.5 -118t119.5 -321v-657q0 -202 -120.5 -321t-328.5 -119zM379 1073v-213h471v213q0 121 -60.5 185.5t-175.5 64.5t-175 -64.5t-60 -185.5zM614 172q114 0 175 66t61 186v246h-471v-246
q0 -120 60.5 -186t174.5 -66z" />
    <glyph glyph-name="uni04E9" unicode="&#x4e9;" 
d="M614 -20q-206 0 -327 118.5t-121 319.5v293q0 200 121.5 318t326.5 118q204 0 326.5 -118.5t122.5 -315.5v-295q0 -199 -122.5 -318.5t-326.5 -119.5zM375 711v-60h479v60q0 119 -62.5 183t-177.5 64t-177 -64t-62 -183zM614 168q115 0 177.5 65t62.5 185v67h-479v-67
q0 -120 62 -185t177 -65z" />
    <glyph glyph-name="uni0AEA" unicode="&#xaea;" 
d="M1085 1331l-346 -405l195 -228q143 -168 143 -331q0 -168 -127.5 -277.5t-335.5 -109.5t-335 109.5t-127 277.5q0 163 151 338l186 219l-346 407h252l221 -260l224 260h245zM614 174q108 0 175 62.5t67 156.5q0 98 -86 201l-156 184l-157 -184q-84 -100 -84 -201
q0 -94 66.5 -156.5t174.5 -62.5z" />
    <glyph glyph-name="Wgrave" unicode="&#x1e80;" 
d="M758 1659h-230l-237 287h246zM463 0h-258l-162 1495h199l100 -1073q12 -118 16 -266q4 31 14 127t15 139l129 1073h205l121 -1073q4 -38 14.5 -134.5t13.5 -131.5q8 134 21 266l102 1073h195l-170 -1495h-256l-121 1087l-25 263q-1 -6 -9.5 -109.5t-14.5 -153.5z" />
    <glyph glyph-name="wgrave" unicode="&#x1e81;" 
d="M758 1321h-230l-237 287h246zM467 0h-236l-174 1126h183l102 -743q7 -51 20 -217h11q19 169 26 217l117 743h199l114 -743q12 -82 27 -217h10q23 202 25 217l106 743h177l-183 -1126h-233l-111 735q-23 145 -29 226h-10q-5 -67 -26 -226z" />
    <glyph glyph-name="Wacute" unicode="&#x1e82;" 
d="M700 1659h-223l217 287h238zM463 0h-258l-162 1495h199l100 -1073q12 -118 16 -266q4 31 14 127t15 139l129 1073h205l121 -1073q4 -38 14.5 -134.5t13.5 -131.5q8 134 21 266l102 1073h195l-170 -1495h-256l-121 1087l-25 263q-1 -6 -9.5 -109.5t-14.5 -153.5z" />
    <glyph glyph-name="wacute" unicode="&#x1e83;" 
d="M700 1321h-223l217 287h238zM467 0h-236l-174 1126h183l102 -743q7 -51 20 -217h11q19 169 26 217l117 743h199l114 -743q12 -82 27 -217h10q23 202 25 217l106 743h177l-183 -1126h-233l-111 735q-23 145 -29 226h-10q-5 -67 -26 -226z" />
    <glyph glyph-name="Wdieresis" unicode="&#x1e84;" 
d="M381 1665q-65 0 -103 36.5t-38 100.5q0 65 38.5 103.5t102.5 38.5t102.5 -38.5t38.5 -103.5q0 -64 -38 -100.5t-103 -36.5zM848 1665q-65 0 -102 36.5t-37 100.5q0 65 37.5 103.5t101.5 38.5t102.5 -38.5t38.5 -103.5q0 -64 -38 -100.5t-103 -36.5zM463 0h-258l-162 1495
h199l100 -1073q12 -118 16 -266q4 31 14 127t15 139l129 1073h205l121 -1073q4 -38 14.5 -134.5t13.5 -131.5q8 134 21 266l102 1073h195l-170 -1495h-256l-121 1087l-25 263q-1 -6 -9.5 -109.5t-14.5 -153.5z" />
    <glyph glyph-name="wdieresis" unicode="&#x1e85;" 
d="M381 1321q-65 0 -103 37.5t-38 101.5q0 65 38.5 103.5t102.5 38.5t102.5 -38.5t38.5 -103.5q0 -64 -38 -101.5t-103 -37.5zM848 1321q-64 0 -101.5 37.5t-37.5 101.5q0 65 37.5 103.5t101.5 38.5t102.5 -38.5t38.5 -103.5q0 -64 -38 -101.5t-103 -37.5zM467 0h-236
l-174 1126h183l102 -743q7 -51 20 -217h11q19 169 26 217l117 743h199l114 -743q12 -82 27 -217h10q23 202 25 217l106 743h177l-183 -1126h-233l-111 735q-23 145 -29 226h-10q-5 -67 -26 -226z" />
    <glyph glyph-name="uni1E9E" unicode="&#x1e9e;" 
d="M1094 1282l-328 -416q160 -15 256 -130t96 -296q0 -199 -127 -319.5t-334 -120.5h-129v195h111q117 0 183.5 68.5t66.5 185.5q0 114 -67.5 180.5t-182.5 66.5h-92v181l327 423h-260q-107 0 -170 -63t-63 -172v-1065h-213v1065q0 195 122.5 312.5t323.5 117.5h480v-213z
" />
    <glyph glyph-name="uni1EA0" unicode="&#x1ea0;" 
d="M313 0h-225l381 1495h291l383 -1495h-225l-91 379h-424zM547 995l-103 -432h340l-102 430q-41 170 -68 316q-31 -164 -67 -314zM614 -449q-72 0 -114.5 37.5t-42.5 100.5q0 66 42.5 103.5t114.5 37.5t115 -37.5t43 -103.5q0 -63 -43 -100.5t-115 -37.5z" />
    <glyph glyph-name="uni1EA1" unicode="&#x1ea1;" 
d="M625 1147q201 0 318.5 -102t117.5 -275v-770h-215v203h-4q-17 -104 -107.5 -163.5t-232.5 -59.5q-175 0 -277 90.5t-102 248.5q0 161 108.5 252t298.5 91h310v104q0 92 -58 142t-161 50q-92 0 -155 -39.5t-73 -103.5h-215q12 149 135.5 240.5t311.5 91.5zM567 147
q120 0 196.5 60t76.5 155v148h-303q-89 0 -141 -47t-52 -129q0 -88 59.5 -137.5t163.5 -49.5zM625 -170q72 0 114.5 -37.5t42.5 -103.5q0 -63 -42.5 -100.5t-114.5 -37.5t-115 37.5t-43 100.5q0 66 43 103.5t115 37.5z" />
    <glyph glyph-name="uni1EA2" unicode="&#x1ea2;" 
d="M709 1636h-189l94 125q29 42 29 64q0 41 -61 41h-158v145h180q96 0 155.5 -45t59.5 -117q0 -61 -39 -112zM313 0h-225l381 1495h291l383 -1495h-225l-91 379h-424zM547 995l-103 -432h340l-102 430q-41 170 -68 316q-31 -164 -67 -314z" />
    <glyph glyph-name="uni1EA3" unicode="&#x1ea3;" 
d="M662 1511q0 39 -64 39h-164v146h215q85 0 136 -43.5t51 -116.5q0 -65 -37 -115l-80 -100h-189l101 127q31 39 31 63zM625 1147q201 0 318.5 -102t117.5 -275v-770h-215v203h-4q-17 -104 -107.5 -163.5t-232.5 -59.5q-175 0 -277 90.5t-102 248.5q0 161 108.5 252
t298.5 91h310v104q0 92 -58 142t-161 50q-92 0 -155 -39.5t-73 -103.5h-215q12 149 135.5 240.5t311.5 91.5zM567 147q120 0 196.5 60t76.5 155v148h-303q-89 0 -141 -47t-52 -129q0 -88 59.5 -137.5t163.5 -49.5z" />
    <glyph glyph-name="uni1EA4" unicode="&#x1ea4;" 
d="M1065 1847h-221l215 242h235zM457 1597h-226l281 287h205l282 -287h-227l-158 156zM313 0h-225l381 1495h291l383 -1495h-225l-91 379h-424zM547 995l-103 -432h340l-102 430q-41 170 -68 316q-31 -164 -67 -314z" />
    <glyph glyph-name="uni1EA5" unicode="&#x1ea5;" 
d="M856 1556l240 287h231l-252 -287h-219zM782 1321l-157 156l-158 -156h-225l280 287h205l283 -287h-228zM625 1147q201 0 318.5 -102t117.5 -275v-770h-215v203h-4q-17 -104 -107.5 -163.5t-232.5 -59.5q-175 0 -277 90.5t-102 248.5q0 161 108.5 252t298.5 91h310v104
q0 92 -58 142t-161 50q-92 0 -155 -39.5t-73 -103.5h-215q12 149 135.5 240.5t311.5 91.5zM567 147q120 0 196.5 60t76.5 155v148h-303q-89 0 -141 -47t-52 -129q0 -88 59.5 -137.5t163.5 -49.5z" />
    <glyph glyph-name="uni1EA6" unicode="&#x1ea6;" 
d="M1137 1847h-219l-242 242h231zM457 1597h-226l281 287h205l282 -287h-227l-158 156zM313 0h-225l381 1495h291l383 -1495h-225l-91 379h-424zM547 995l-103 -432h340l-102 430q-41 170 -68 316q-31 -164 -67 -314z" />
    <glyph glyph-name="uni1EA7" unicode="&#x1ea7;" 
d="M913 1843l254 -287h-219l-266 287h231zM782 1321l-157 156l-158 -156h-225l280 287h205l283 -287h-228zM625 1147q201 0 318.5 -102t117.5 -275v-770h-215v203h-4q-17 -104 -107.5 -163.5t-232.5 -59.5q-175 0 -277 90.5t-102 248.5q0 161 108.5 252t298.5 91h310v104
q0 92 -58 142t-161 50q-92 0 -155 -39.5t-73 -103.5h-215q12 149 135.5 240.5t311.5 91.5zM567 147q120 0 196.5 60t76.5 155v148h-303q-89 0 -141 -47t-52 -129q0 -88 59.5 -137.5t163.5 -49.5z" />
    <glyph glyph-name="uni1EA8" unicode="&#x1ea8;" 
d="M1051 1796h-181l91 88q20 20 20 41q0 15 -10 25t-27 10h-137v129h180q75 0 119.5 -37.5t44.5 -101.5q0 -63 -37 -95zM457 1597h-226l281 287h205l282 -287h-227l-158 156zM313 0h-225l381 1495h291l383 -1495h-225l-91 379h-424zM547 995l-103 -432h340l-102 430
q-41 170 -68 316q-31 -164 -67 -314z" />
    <glyph glyph-name="uni1EA9" unicode="&#x1ea9;" 
d="M811 1917h143q94 0 150.5 -44.5t56.5 -117.5q0 -48 -37 -100l-71 -99h-176l94 123q22 27 22 54q0 45 -61 45h-121v139zM782 1321l-157 156l-158 -156h-225l280 287h205l283 -287h-228zM625 1147q201 0 318.5 -102t117.5 -275v-770h-215v203h-4q-17 -104 -107.5 -163.5
t-232.5 -59.5q-175 0 -277 90.5t-102 248.5q0 161 108.5 252t298.5 91h310v104q0 92 -58 142t-161 50q-92 0 -155 -39.5t-73 -103.5h-215q12 149 135.5 240.5t311.5 91.5zM567 147q120 0 196.5 60t76.5 155v148h-303q-89 0 -141 -47t-52 -129q0 -88 59.5 -137.5t163.5 -49.5
z" />
    <glyph glyph-name="uni1EAA" unicode="&#x1eaa;" 
d="M774 1878q-56 0 -104.5 14t-76 30t-60.5 30t-62 14q-26 0 -41.5 -15.5t-15.5 -41.5v-13h-146v13q0 83 51.5 131.5t139.5 48.5q57 0 105 -13.5t75 -30.5t59 -30.5t60 -13.5q26 0 42.5 15.5t16.5 41.5v15h146v-15q0 -83 -51 -131.5t-138 -48.5zM457 1597h-226l224 222h319
l225 -222h-229l-156 152zM313 0h-225l381 1495h291l383 -1495h-225l-91 379h-424zM547 995l-103 -432h340l-102 430q-41 170 -68 316q-31 -164 -67 -314z" />
    <glyph glyph-name="uni1EAB" unicode="&#x1eab;" 
d="M430 1735v-49h-145v45q0 88 55.5 142t146.5 54q59 0 103 -20t65 -43.5t48 -43.5t55 -20q29 0 45 16t16 44v51h146v-43q0 -88 -56 -142.5t-147 -54.5q-58 0 -101.5 20t-64.5 43.5t-48 43.5t-56 20q-62 0 -62 -63zM782 1321l-157 156l-158 -156h-225l280 287h205l283 -287
h-228zM625 1147q201 0 318.5 -102t117.5 -275v-770h-215v203h-4q-17 -104 -107.5 -163.5t-232.5 -59.5q-175 0 -277 90.5t-102 248.5q0 161 108.5 252t298.5 91h310v104q0 92 -58 142t-161 50q-92 0 -155 -39.5t-73 -103.5h-215q12 149 135.5 240.5t311.5 91.5zM567 147
q120 0 196.5 60t76.5 155v148h-303q-89 0 -141 -47t-52 -129q0 -88 59.5 -137.5t163.5 -49.5z" />
    <glyph glyph-name="uni1EAC" unicode="&#x1eac;" 
d="M457 1659h-228l283 287h205l282 -287h-225l-162 156zM313 0h-225l381 1495h291l383 -1495h-225l-91 379h-424zM547 995l-103 -432h340l-102 430q-41 170 -68 316q-31 -164 -67 -314zM614 -449q-72 0 -114.5 37.5t-42.5 100.5q0 66 42.5 103.5t114.5 37.5t115 -37.5
t43 -103.5q0 -63 -43 -100.5t-115 -37.5z" />
    <glyph glyph-name="uni1EAD" unicode="&#x1ead;" 
d="M784 1321l-161 156l-156 -156h-227l282 287h205l283 -287h-226zM625 1147q201 0 318.5 -102t117.5 -275v-770h-215v203h-4q-17 -104 -107.5 -163.5t-232.5 -59.5q-175 0 -277 90.5t-102 248.5q0 161 108.5 252t298.5 91h310v104q0 92 -58 142t-161 50q-92 0 -155 -39.5
t-73 -103.5h-215q12 149 135.5 240.5t311.5 91.5zM567 147q120 0 196.5 60t76.5 155v148h-303q-89 0 -141 -47t-52 -129q0 -88 59.5 -137.5t163.5 -49.5zM625 -170q72 0 114.5 -37.5t42.5 -103.5q0 -63 -42.5 -100.5t-114.5 -37.5t-115 37.5t-43 100.5q0 66 43 103.5
t115 37.5z" />
    <glyph glyph-name="uni1EAE" unicode="&#x1eae;" 
d="M686 1847h-205l215 242h217zM670 1597h-113q-139 0 -221 73t-82 198h160q0 -63 38 -99t105 -36h113q68 0 106.5 36t38.5 99h160q0 -124 -82.5 -197.5t-222.5 -73.5zM313 0h-225l381 1495h291l383 -1495h-225l-91 379h-424zM547 995l-103 -432h340l-102 430
q-41 170 -68 316q-31 -164 -67 -314z" />
    <glyph glyph-name="uni1EAF" unicode="&#x1eaf;" 
d="M729 1847h219l-250 -272h-204zM625 1311q-160 0 -258.5 74.5t-98.5 197.5h168q0 -60 51.5 -95.5t137.5 -35.5t138 35.5t52 95.5h168q0 -123 -99 -197.5t-259 -74.5zM625 1147q201 0 318.5 -102t117.5 -275v-770h-215v203h-4q-17 -104 -107.5 -163.5t-232.5 -59.5
q-175 0 -277 90.5t-102 248.5q0 161 108.5 252t298.5 91h310v104q0 92 -58 142t-161 50q-92 0 -155 -39.5t-73 -103.5h-215q12 149 135.5 240.5t311.5 91.5zM567 147q120 0 196.5 60t76.5 155v148h-303q-89 0 -141 -47t-52 -129q0 -88 59.5 -137.5t163.5 -49.5z" />
    <glyph glyph-name="uni1EB0" unicode="&#x1eb0;" 
d="M745 1847h-196l-203 242h211zM670 1597h-113q-139 0 -221 73t-82 198h160q0 -63 38 -99t105 -36h113q68 0 106.5 36t38.5 99h160q0 -124 -82.5 -197.5t-222.5 -73.5zM313 0h-225l381 1495h291l383 -1495h-225l-91 379h-424zM547 995l-103 -432h340l-102 430
q-41 170 -68 316q-31 -164 -67 -314z" />
    <glyph glyph-name="uni1EB1" unicode="&#x1eb1;" 
d="M520 1847l236 -272h-205l-250 272h219zM625 1311q-160 0 -258.5 74.5t-98.5 197.5h168q0 -60 51.5 -95.5t137.5 -35.5t138 35.5t52 95.5h168q0 -123 -99 -197.5t-259 -74.5zM625 1147q201 0 318.5 -102t117.5 -275v-770h-215v203h-4q-17 -104 -107.5 -163.5t-232.5 -59.5
q-175 0 -277 90.5t-102 248.5q0 161 108.5 252t298.5 91h310v104q0 92 -58 142t-161 50q-92 0 -155 -39.5t-73 -103.5h-215q12 149 135.5 240.5t311.5 91.5zM567 147q120 0 196.5 60t76.5 155v148h-303q-89 0 -141 -47t-52 -129q0 -88 59.5 -137.5t163.5 -49.5z" />
    <glyph glyph-name="uni1EB2" unicode="&#x1eb2;" 
d="M690 1808h-172l82 99q16 22 16 35q0 8 -7 13t-17 5h-146v129h199q63 0 97 -28.5t34 -80.5q0 -61 -35 -108zM670 1597h-113q-139 0 -221 73t-82 198h160q0 -63 38 -99t105 -36h113q68 0 106.5 36t38.5 99h160q0 -124 -82.5 -197.5t-222.5 -73.5zM313 0h-225l381 1495h291
l383 -1495h-225l-91 379h-424zM547 995l-103 -432h340l-102 430q-41 170 -68 316q-31 -164 -67 -314z" />
    <glyph glyph-name="uni1EB3" unicode="&#x1eb3;" 
d="M635 1749q0 45 -55 45h-123v139h151q90 0 145.5 -43t55.5 -112q0 -58 -39 -109l-70 -94h-180l92 121q23 26 23 53zM625 1311q-160 0 -258.5 74.5t-98.5 197.5h168q0 -60 51.5 -95.5t137.5 -35.5t138 35.5t52 95.5h168q0 -123 -99 -197.5t-259 -74.5zM625 1147
q201 0 318.5 -102t117.5 -275v-770h-215v203h-4q-17 -104 -107.5 -163.5t-232.5 -59.5q-175 0 -277 90.5t-102 248.5q0 161 108.5 252t298.5 91h310v104q0 92 -58 142t-161 50q-92 0 -155 -39.5t-73 -103.5h-215q12 149 135.5 240.5t311.5 91.5zM567 147q120 0 196.5 60
t76.5 155v148h-303q-89 0 -141 -47t-52 -129q0 -88 59.5 -137.5t163.5 -49.5z" />
    <glyph glyph-name="uni1EB4" unicode="&#x1eb4;" 
d="M774 1878q-56 0 -104.5 14t-76 30t-60.5 30t-62 14q-26 0 -41.5 -15.5t-15.5 -41.5v-13h-146v13q0 83 51.5 131.5t139.5 48.5q57 0 105 -13.5t75 -30.5t59 -30.5t60 -13.5q26 0 42.5 15.5t16.5 41.5v15h146v-15q0 -83 -51 -131.5t-138 -48.5zM676 1597h-123
q-134 0 -209.5 61.5t-75.5 178.5h158q0 -104 123 -104h131q123 0 123 104h160q0 -116 -77 -178t-210 -62zM313 0h-225l381 1495h291l383 -1495h-225l-91 379h-424zM547 995l-103 -432h340l-102 430q-41 170 -68 316q-31 -164 -67 -314z" />
    <glyph glyph-name="uni1EB5" unicode="&#x1eb5;" 
d="M430 1729v-56h-145v51q0 88 55.5 142.5t146.5 54.5q59 0 103 -21t65 -45.5t48 -45.5t55 -21q29 0 45 15.5t16 43.5v60h146v-52q0 -89 -56 -142.5t-147 -53.5q-58 0 -101.5 21t-64.5 45.5t-48 45.5t-56 21q-62 0 -62 -63zM625 1319q-154 0 -248 74.5t-94 197.5h159
q0 -60 49.5 -96.5t131.5 -36.5q84 0 134 36.5t50 96.5h162q0 -123 -95 -197.5t-249 -74.5zM625 1147q201 0 318.5 -102t117.5 -275v-770h-215v203h-4q-17 -104 -107.5 -163.5t-232.5 -59.5q-175 0 -277 90.5t-102 248.5q0 161 108.5 252t298.5 91h310v104q0 92 -58 142
t-161 50q-92 0 -155 -39.5t-73 -103.5h-215q12 149 135.5 240.5t311.5 91.5zM567 147q120 0 196.5 60t76.5 155v148h-303q-89 0 -141 -47t-52 -129q0 -88 59.5 -137.5t163.5 -49.5z" />
    <glyph glyph-name="uni1EB6" unicode="&#x1eb6;" 
d="M614 1647q-154 0 -248 82t-94 217h172q0 -73 46.5 -118.5t121.5 -45.5q78 0 125 45t47 119h174q0 -135 -94.5 -217t-249.5 -82zM313 0h-225l381 1495h291l383 -1495h-225l-91 379h-424zM547 995l-103 -432h340l-102 430q-41 170 -68 316q-31 -164 -67 -314zM614 -449
q-72 0 -114.5 37.5t-42.5 100.5q0 66 42.5 103.5t114.5 37.5t115 -37.5t43 -103.5q0 -63 -43 -100.5t-115 -37.5z" />
    <glyph glyph-name="uni1EB7" unicode="&#x1eb7;" 
d="M625 1309q-154 0 -248 82t-94 217h172q0 -73 46.5 -118.5t121.5 -45.5q78 0 125 45t47 119h174q0 -135 -94.5 -217t-249.5 -82zM625 1147q201 0 318.5 -102t117.5 -275v-770h-215v203h-4q-17 -104 -107.5 -163.5t-232.5 -59.5q-175 0 -277 90.5t-102 248.5
q0 161 108.5 252t298.5 91h310v104q0 92 -58 142t-161 50q-92 0 -155 -39.5t-73 -103.5h-215q12 149 135.5 240.5t311.5 91.5zM567 147q120 0 196.5 60t76.5 155v148h-303q-89 0 -141 -47t-52 -129q0 -88 59.5 -137.5t163.5 -49.5zM625 -170q72 0 114.5 -37.5t42.5 -103.5
q0 -63 -42.5 -100.5t-114.5 -37.5t-115 37.5t-43 100.5q0 66 43 103.5t115 37.5z" />
    <glyph glyph-name="uni1EB8" unicode="&#x1eb8;" 
d="M1071 0h-878v1495h878v-197h-661v-426h589v-190h-589v-485h661v-197zM655 -449q-72 0 -114.5 37.5t-42.5 100.5q0 66 42.5 103.5t114.5 37.5t115 -37.5t43 -103.5q0 -63 -43 -100.5t-115 -37.5z" />
    <glyph glyph-name="uni1EB9" unicode="&#x1eb9;" 
d="M1071 711v-201h-698v-94q0 -126 61.5 -191t181.5 -65q96 0 155.5 34t72.5 99h221q-25 -142 -148 -227.5t-303 -85.5q-206 0 -330 119.5t-124 316.5v295q0 198 123.5 317t330.5 119t332 -119t125 -317zM373 711v-52l483 3v51q0 125 -62 191.5t-180 66.5t-179.5 -67.5
t-61.5 -192.5zM614 -170q72 0 115 -37.5t43 -103.5q0 -63 -43 -100.5t-115 -37.5t-114.5 37.5t-42.5 100.5q0 66 42.5 103.5t114.5 37.5z" />
    <glyph glyph-name="uni1EBA" unicode="&#x1eba;" 
d="M750 1636h-189l94 125q29 42 29 64q0 41 -61 41h-158v145h180q96 0 155.5 -45t59.5 -117q0 -61 -39 -112zM1071 0h-878v1495h878v-197h-661v-426h589v-190h-589v-485h661v-197z" />
    <glyph glyph-name="uni1EBB" unicode="&#x1ebb;" 
d="M651 1511q0 39 -63 39h-164v146h215q85 0 135.5 -43.5t50.5 -116.5q0 -65 -37 -115l-79 -100h-189l101 127q30 38 30 63zM1071 711v-201h-698v-94q0 -126 61.5 -191t181.5 -65q96 0 155.5 34t72.5 99h221q-25 -142 -148 -227.5t-303 -85.5q-206 0 -330 119.5t-124 316.5
v295q0 198 123.5 317t330.5 119t332 -119t125 -317zM373 711v-52l483 3v51q0 125 -62 191.5t-180 66.5t-179.5 -67.5t-61.5 -192.5z" />
    <glyph glyph-name="uni1EBC" unicode="&#x1ebc;" 
d="M799 1661q-46 0 -83 14t-61 34.5t-44 40.5t-42.5 34t-46.5 14q-28 0 -44.5 -18.5t-16.5 -53.5v-55h-146v64q0 96 53.5 153.5t143.5 57.5q47 0 84.5 -14t61 -34.5t43 -41t41.5 -34.5t46 -14q28 0 45 17t17 49v61h145v-65q0 -96 -53 -152.5t-143 -56.5zM1071 0h-878v1495
h878v-197h-661v-426h589v-190h-589v-485h661v-197z" />
    <glyph glyph-name="uni1EBD" unicode="&#x1ebd;" 
d="M420 1389v-56h-146v64q0 96 53.5 153.5t143.5 57.5q47 0 84.5 -14t61 -34.5t43.5 -41t42 -34.5t46 -14q28 0 44.5 17t16.5 49v61h145v-65q0 -96 -53 -152.5t-143 -56.5q-46 0 -83 14t-61 34.5t-44 40.5t-42.5 34t-46.5 14q-28 0 -44.5 -18t-16.5 -53zM1071 711v-201h-698
v-94q0 -126 61.5 -191t181.5 -65q96 0 155.5 34t72.5 99h221q-25 -142 -148 -227.5t-303 -85.5q-206 0 -330 119.5t-124 316.5v295q0 198 123.5 317t330.5 119t332 -119t125 -317zM373 711v-52l483 3v51q0 125 -62 191.5t-180 66.5t-179.5 -67.5t-61.5 -192.5z" />
    <glyph glyph-name="uni1EBE" unicode="&#x1ebe;" 
d="M1106 1847h-221l215 242h235zM498 1597h-226l281 287h205l282 -287h-227l-158 156zM1071 0h-878v1495h878v-197h-661v-426h589v-190h-589v-485h661v-197z" />
    <glyph glyph-name="uni1EBF" unicode="&#x1ebf;" 
d="M1085 1843h232l-252 -287h-219zM772 1321l-158 156l-157 -156h-226l281 287h205l282 -287h-227zM614 1147q207 0 332 -119t125 -317v-201h-698v-94q0 -126 61.5 -191t181.5 -65q96 0 155.5 34t72.5 99h221q-25 -142 -148 -227.5t-303 -85.5q-206 0 -330 119.5t-124 316.5
v295q0 198 123.5 317t330.5 119zM373 711v-52l483 3v51q0 125 -62 191.5t-180 66.5t-179.5 -67.5t-61.5 -192.5z" />
    <glyph glyph-name="uni1EC0" unicode="&#x1ec0;" 
d="M1178 1847h-220l-241 242h231zM498 1597h-226l281 287h205l282 -287h-227l-158 156zM1071 0h-878v1495h878v-197h-661v-426h589v-190h-589v-485h661v-197z" />
    <glyph glyph-name="uni1EC1" unicode="&#x1ec1;" 
d="M903 1843l254 -287h-219l-266 287h231zM772 1321l-158 156l-157 -156h-226l281 287h205l282 -287h-227zM614 1147q207 0 332 -119t125 -317v-201h-698v-94q0 -126 61.5 -191t181.5 -65q96 0 155.5 34t72.5 99h221q-25 -142 -148 -227.5t-303 -85.5q-206 0 -330 119.5
t-124 316.5v295q0 198 123.5 317t330.5 119zM373 711v-52l483 3v51q0 125 -62 191.5t-180 66.5t-179.5 -67.5t-61.5 -192.5z" />
    <glyph glyph-name="uni1EC2" unicode="&#x1ec2;" 
d="M1092 1796h-181l90 88q21 21 21 41q0 15 -10 25t-27 10h-137v129h180q75 0 119.5 -37.5t44.5 -101.5q0 -63 -37 -95zM498 1597h-226l281 287h205l282 -287h-227l-158 156zM1071 0h-878v1495h878v-197h-661v-426h589v-190h-589v-485h661v-197z" />
    <glyph glyph-name="uni1EC3" unicode="&#x1ec3;" 
d="M801 1917h143q94 0 150.5 -44.5t56.5 -117.5q0 -48 -37 -100l-72 -99h-176l95 123q22 27 22 54q0 45 -61 45h-121v139zM772 1321l-158 156l-157 -156h-226l281 287h205l282 -287h-227zM614 1147q207 0 332 -119t125 -317v-201h-698v-94q0 -126 61.5 -191t181.5 -65
q96 0 155.5 34t72.5 99h221q-25 -142 -148 -227.5t-303 -85.5q-206 0 -330 119.5t-124 316.5v295q0 198 123.5 317t330.5 119zM373 711v-52l483 3v51q0 125 -62 191.5t-180 66.5t-179.5 -67.5t-61.5 -192.5z" />
    <glyph glyph-name="uni1EC4" unicode="&#x1ec4;" 
d="M815 1878q-56 0 -104.5 14t-76 30t-60.5 30t-62 14q-26 0 -41.5 -15.5t-15.5 -41.5v-13h-146v13q0 83 51.5 131.5t139.5 48.5q57 0 105 -13.5t75 -30.5t58.5 -30.5t60.5 -13.5q26 0 42.5 15.5t16.5 41.5v15h146v-15q0 -83 -51 -131.5t-138 -48.5zM498 1597h-226l224 222
h319l225 -222h-229l-156 152zM1071 0h-878v1495h878v-197h-661v-426h589v-190h-589v-485h661v-197z" />
    <glyph glyph-name="uni1EC5" unicode="&#x1ec5;" 
d="M420 1735v-49h-146v45q0 88 56 142t147 54q59 0 103 -20t65 -43.5t48 -43.5t55 -20q29 0 45 16t16 44v51h145v-43q0 -88 -55.5 -142.5t-146.5 -54.5q-48 0 -85 13t-59.5 31.5t-41 37.5t-40 32t-45.5 13q-61 0 -61 -63zM772 1321l-158 156l-157 -156h-226l281 287h205
l282 -287h-227zM1071 711v-201h-698v-94q0 -126 61.5 -191t181.5 -65q96 0 155.5 34t72.5 99h221q-25 -142 -148 -227.5t-303 -85.5q-206 0 -330 119.5t-124 316.5v295q0 198 123.5 317t330.5 119t332 -119t125 -317zM373 711v-52l483 3v51q0 125 -62 191.5t-180 66.5
t-179.5 -67.5t-61.5 -192.5z" />
    <glyph glyph-name="uni1EC6" unicode="&#x1ec6;" 
d="M498 1659h-228l283 287h205l282 -287h-225l-162 156zM1071 0h-878v1495h878v-197h-661v-426h589v-190h-589v-485h661v-197zM655 -449q-72 0 -114.5 37.5t-42.5 100.5q0 66 42.5 103.5t114.5 37.5t115 -37.5t43 -103.5q0 -63 -43 -100.5t-115 -37.5z" />
    <glyph glyph-name="uni1EC7" unicode="&#x1ec7;" 
d="M774 1321l-162 156l-155 -156h-228l283 287h205l282 -287h-225zM1071 711v-201h-698v-94q0 -126 61.5 -191t181.5 -65q96 0 155.5 34t72.5 99h221q-25 -142 -148 -227.5t-303 -85.5q-206 0 -330 119.5t-124 316.5v295q0 198 123.5 317t330.5 119t332 -119t125 -317z
M373 711v-52l483 3v51q0 125 -62 191.5t-180 66.5t-179.5 -67.5t-61.5 -192.5zM614 -170q72 0 115 -37.5t43 -103.5q0 -63 -43 -100.5t-115 -37.5t-114.5 37.5t-42.5 100.5q0 66 42.5 103.5t114.5 37.5z" />
    <glyph glyph-name="uni1EC8" unicode="&#x1ec8;" 
d="M709 1636h-189l94 125q29 42 29 64q0 41 -61 41h-158v145h180q96 0 155.5 -45t59.5 -117q0 -61 -39 -112zM1030 0h-829v201h301v1093h-301v201h829v-201h-303v-1093h303v-201z" />
    </font>
</defs>
</svg>
