<?xml version="1.0" standalone="no"?>
<!DOCTYPE svg PUBLIC "-//W3C//DTD SVG 1.1//EN" "http://www.w3.org/Graphics/SVG/1.1/DTD/svg11.dtd" >
<svg xmlns="http://www.w3.org/2000/svg" xmlns:xlink="http://www.w3.org/1999/xlink" version="1.1">
<metadata>
Created by FontForge 20170731 at Thu Nov 16 19:44:06 2023
 By Aleksey,,,
Copyright 2021 Alessio Laiso, Mario Rullo, Paolo Rosset
</metadata>
<defs>
<font id="TekneLDO-ThinItalic" horiz-adv-x="1228" >
  <font-face 
    font-family="Tekne LDO Thin"
    font-weight="100"
    font-style="italic"
    font-stretch="normal"
    units-per-em="2048"
    panose-1="2 0 0 9 0 0 0 0 0 0"
    ascent="1638"
    descent="-410"
    x-height="1126"
    cap-height="1495"
    bbox="-3570 -819 1559 2294"
    underline-thickness="102"
    underline-position="-419"
    slope="-9"
    unicode-range="U+000D-1D54A"
  />
<missing-glyph 
d="M1044 0h-860v1495h860v-1495zM287 1393v-1170l614 1170h-614zM942 1272l-614 -1170h614v1170z" />
    <glyph glyph-name="hyphen_hyphen.liga" unicode="&#x2d;&#x2d;" 
d="M-82 635h-850l14 92h850zM952 635h-850l15 92h850z" />
    <glyph glyph-name="hyphen_hyphen_hyphen.liga" unicode="&#x2d;&#x2d;&#x2d;" 
d="M-1249 635h-912l15 92h911zM-154 635h-901l15 92h901zM952 635h-911l14 92h912z" />
    <glyph glyph-name="hyphen_hyphen_greater.liga" unicode="&#x2d;&#x2d;&#x3e;" 
d="M928 723l-379 557h119l403 -602l-596 -606h-127l557 559h-3158l15 92h3166z" />
    <glyph glyph-name="hyphen_bar.liga" unicode="&#x2d;&#x7c;" 
d="M549 -174h-103l127 809h-1423l14 92h1424l129 809h102z" />
    <glyph glyph-name="hyphen_greater.liga" unicode="&#x2d;&#x3e;" 
d="M924 723l-373 557h117l403 -602l-596 -606h-127l553 559h-1925l14 92h1934z" />
    <glyph glyph-name="hyphen_greater_greater.liga" unicode="&#x2d;&#x3e;&#x3e;" 
d="M-98 72h-127l553 559h-2581l15 92h2588l-373 557h117l404 -602zM475 72h-127l600 614l-397 594h117l403 -602z" />
    <glyph glyph-name="hyphen_less.liga" unicode="&#x2d;&#x3c;" 
d="M932 72h-119l-375 559h-1462l14 92h1465l551 557h122l-600 -608z" />
    <glyph glyph-name="hyphen_less_less.liga" unicode="&#x2d;&#x3c;&#x3c;" 
d="M354 72h-114l-375 559h-2118l15 92h2119l551 557h127l-610 -610zM928 72h-115l-405 604l598 604h129l-607 -610z" />
    <glyph glyph-name="hyphen_asciitilde.liga" unicode="&#x2d;&#x7e;" 
d="M195 502q-86 0 -144.5 35.5t-75.5 97.5h-979l15 92h1055l-3 -10q-9 -58 32 -93.5t112 -35.5q56 0 117 31t116.5 76t112.5 89.5t124 75.5t132 31q100 0 147.5 -60.5t30.5 -164.5l-22 -154h-93l23 154q11 66 -15.5 102.5t-84.5 36.5q-47 0 -102 -31t-109 -76t-112 -89.5
t-130.5 -75.5t-146.5 -31z" />
    <glyph glyph-name="braceleft_bar.liga" unicode="&#x7b;&#x7c;" 
d="M-385 987l37 406q12 144 108 225.5t246 81.5h234l-15 -92h-233q-97 0 -164 -58.5t-74 -156.5l-37 -406q-9 -96 -61 -163t-131 -87q74 -19 105.5 -86.5t9.5 -165.5l-95 -403q-23 -98 26 -156.5t146 -58.5h234l-14 -92h-234q-150 0 -221.5 81.5t-38.5 225.5l94 403
q26 112 -10 157.5t-164 45.5h-225l16 94h225q125 0 176 45t60 160zM397 -225l303 1925h103l-303 -1925h-103z" />
    <glyph glyph-name="bracketleft_bar.liga" unicode="[&#x7c;" 
d="M-23 -225h-727l304 1925h727l-15 -92h-624l-275 -1741h625zM500 -225h-103l303 1925h103z" />
    <glyph glyph-name="bracketleft_less.liga" unicode="[&#x3c;" 
d="M-662 -225h-460l303 1925h461l-15 -92h-358l-275 -1741h359zM793 299l-17 -104l-786 464l14 95l934 465l-18 -113l-646 -315q-110 -56 -182 -86q43 -21 156 -87z" />
    <glyph glyph-name="bracketright_numbersign.liga" unicode="]&#x23;" 
d="M-784 -225h-461l14 92h359l274 1741h-358l14 92h461zM281 0h-93l91 471h-822v82h838l74 389h-912v82h928l90 471h92l-90 -471h381l90 471h92l-90 -471h207v-82h-223l-74 -389h225v-82h-241l-90 -471h-92l90 471h-381zM461 942l-74 -389h381l74 389h-381z" />
    <glyph glyph-name="period_period.liga" unicode="&#x2e;&#x2e;" 
d="M-748 -20q-69 0 -102 41t-22 112q10 69 57.5 109.5t116.5 40.5t102.5 -40.5t22.5 -109.5q-10 -70 -58 -111.5t-117 -41.5zM154 -20q-69 0 -102.5 41t-22.5 112q10 69 57.5 109.5t116.5 40.5t102.5 -40.5t22.5 -109.5q-10 -70 -57.5 -111.5t-116.5 -41.5z" />
    <glyph glyph-name="period_period_period.liga" unicode="&#x2e;&#x2e;&#x2e;" 
d="M-1853 -20q-69 0 -102.5 41t-22.5 112q10 69 57.5 109.5t116.5 40.5t102.5 -40.5t22.5 -109.5q-10 -70 -57.5 -111.5t-116.5 -41.5zM-911 -20q-69 0 -102.5 41t-22.5 112q10 69 57.5 109.5t116.5 40.5t102.5 -40.5t22.5 -109.5q-10 -70 -57.5 -111.5t-116.5 -41.5z
M31 -20q-69 0 -102.5 41t-22.5 112q10 69 57.5 109.5t116.5 40.5t102.5 -40.5t22.5 -109.5q-10 -70 -57.5 -111.5t-116.5 -41.5z" />
    <glyph glyph-name="period_period_less.liga" unicode="&#x2e;&#x2e;&#x3c;" 
d="M608 268l-16 -104l-787 465l15 94l934 465l-19 -113l-645 -315q-110 -56 -182 -86q47 -23 155 -86zM-1995 -20q-69 0 -102.5 41t-22.5 112q10 69 57.5 109.5t116.5 40.5t102.5 -40.5t22.5 -109.5q-10 -70 -57.5 -111.5t-116.5 -41.5zM-1098 -20q-69 0 -102.5 41
t-22.5 112q10 69 57.5 109.5t116.5 40.5t102.5 -40.5t22.5 -109.5q-10 -70 -57.5 -111.5t-116.5 -41.5z" />
    <glyph glyph-name="period_question.liga" unicode="&#x2e;&#x3f;" 
d="M367 420h-103l55 348h103q149 0 251.5 86t125.5 231t-53.5 231.5t-225.5 86.5h-246l17 92h246q195 0 294 -112t70 -298q-29 -187 -162.5 -298t-330.5 -111zM-911 -20q-69 0 -102.5 41t-22.5 112q10 69 57.5 109.5t116.5 40.5t102.5 -40.5t22.5 -109.5
q-10 -70 -57.5 -111.5t-116.5 -41.5zM248 -10h-10q-51 0 -77 30.5t-18 81.5q7 51 43.5 82t87.5 31h11q51 0 76.5 -31t17.5 -82q-7 -51 -43.5 -81.5t-87.5 -30.5z" />
    <glyph glyph-name="period_equal.liga" unicode="&#x2e;&#x3d;" 
d="M1081 862h-839l14 92h840zM-616 481q-88 0 -133 53.5t-31 141.5q13 88 75 141t150 53t133 -53t31 -141t-75.5 -141.5t-149.5 -53.5zM1008 399h-840l14 93h840z" />
    <glyph glyph-name="colon_colon.liga" unicode="&#x3a;&#x3a;" 
d="M-610 852q-68 0 -102.5 40.5t-24.5 106.5q11 66 59 107t115 41t101.5 -41t23.5 -107t-58 -106.5t-114 -40.5zM291 852q-68 0 -102.5 40.5t-24.5 106.5q11 66 59 107t115 41t101.5 -41t23.5 -107t-58 -106.5t-114 -40.5zM-750 -20q-67 0 -101 40.5t-23 106.5t58 106.5
t114 40.5q68 0 102.5 -40.5t24.5 -106.5t-58.5 -106.5t-116.5 -40.5zM152 -20q-67 0 -101.5 40.5t-23.5 106.5t58 106.5t114 40.5q68 0 102.5 -40.5t24.5 -106.5t-58 -106.5t-116 -40.5z" />
    <glyph glyph-name="colon_colon_colon.liga" unicode="&#x3a;&#x3a;&#x3a;" 
d="M-1675 852q-68 0 -102.5 40.5t-24.5 106.5q11 66 59 107t115 41t101.5 -41t23.5 -107t-58 -106.5t-114 -40.5zM-774 852q-68 0 -102.5 40.5t-24.5 106.5q11 66 59 107t115 41t101.5 -41t23.5 -107t-58 -106.5t-114 -40.5zM127 852q-68 0 -102.5 40.5t-24.5 106.5
q11 66 59 107t115 41t101.5 -41t23.5 -107t-58 -106.5t-114 -40.5zM-1815 -20q-67 0 -101 40.5t-23 106.5t58 106.5t114 40.5q68 0 102.5 -40.5t24.5 -106.5t-58.5 -106.5t-116.5 -40.5zM-913 -20q-67 0 -101.5 40.5t-23.5 106.5t58 106.5t114 40.5q68 0 102.5 -40.5
t24.5 -106.5t-58 -106.5t-116 -40.5zM-12 -20q-67 0 -101.5 40.5t-23.5 106.5t58 106.5t114 40.5q68 0 102.5 -40.5t24.5 -106.5t-58 -106.5t-116 -40.5z" />
    <glyph glyph-name="colon_colon_equal.liga" unicode="&#x3a;&#x3a;&#x3d;" 
d="M-1948 965q-68 0 -102.5 40.5t-24.5 106.5q11 66 59 107t115 41t101.5 -41t23.5 -107t-58 -106.5t-114 -40.5zM-1022 965q-68 0 -102.5 40.5t-24.5 106.5q11 66 59 107t115 41t101.5 -41t23.5 -107t-58 -106.5t-114 -40.5zM815 862h-840l15 92h839zM741 399h-839l14 93
h840zM-2087 92q-67 0 -101.5 41t-23.5 107t58 106.5t114 40.5q68 0 102.5 -40.5t24.5 -106.5q-11 -66 -59 -107t-115 -41zM-1161 92q-67 0 -101.5 41t-23.5 107t58 106.5t114 40.5q68 0 102.5 -40.5t24.5 -106.5q-11 -66 -59 -107t-115 -41z" />
    <glyph glyph-name="colon_question.liga" unicode="&#x3a;&#x3f;" 
d="M346 420h-102l55 348h102q149 0 251.5 86t125.5 231t-53 231.5t-225 86.5h-246l16 92h246q195 0 294.5 -112t70.5 -298q-29 -187 -163 -298t-331 -111zM-672 852q-68 0 -102.5 40.5t-24.5 106.5q11 66 59 107t115 41t101.5 -41t23.5 -107t-58 -106.5t-114 -40.5z
M-811 -20q-67 0 -101.5 40.5t-23.5 106.5t58 106.5t114 40.5q68 0 102.5 -40.5t24.5 -106.5t-58 -106.5t-116 -40.5zM227 -10h-10q-51 0 -76.5 30.5t-17.5 81.5q7 51 43.5 82t87.5 31h10q51 0 76.5 -31t17.5 -82q-7 -51 -43.5 -81.5t-87.5 -30.5z" />
    <glyph glyph-name="colon_question_greater.liga" unicode="&#x3a;&#x3f;&#x3e;" 
d="M-881 420h-102l55 348h103q149 0 251 86t125 231t-53 231.5t-225 86.5h-246l17 92h245q195 0 294.5 -112t70.5 -298q-29 -187 -163 -298t-331 -111zM881 629l-934 -465l16 112l645 316q107 52 183 86q-81 42 -154 86l-547 319l19 105l786 -465zM-1993 852
q-68 0 -102.5 40.5t-24.5 106.5q11 66 59 107t115 41t101.5 -41t23.5 -107t-58 -106.5t-114 -40.5zM-2132 -20q-67 0 -101.5 40.5t-23.5 106.5t58 106.5t114 40.5q68 0 102.5 -40.5t24.5 -106.5t-58 -106.5t-116 -40.5zM-999 -10h-11q-51 0 -76.5 30.5t-17.5 81.5
q7 51 43.5 82t87.5 31h10q51 0 77 -31t18 -82q-7 -51 -43.5 -81.5t-87.5 -30.5z" />
    <glyph glyph-name="colon_equal.liga" unicode="&#x3a;&#x3d;" 
d="M-674 840q-68 0 -105 40t-28 103q10 63 60 103t118 40q67 0 104 -40t27 -103q-9 -63 -58.5 -103t-117.5 -40zM1010 860h-1127l15 92h1126zM-772 225q-68 0 -104.5 40.5t-26.5 103.5q9 63 59.5 103t118.5 40q66 0 103 -40t28 -103q-11 -63 -61 -103.5t-117 -40.5zM936 399
h-1126l14 93h1126z" />
    <glyph glyph-name="colon_greater.liga" unicode="&#x3a;&#x3e;" 
d="M-774 965q-68 0 -102.5 40.5t-24.5 106.5q11 66 59 107t115 41t101.5 -41t23.5 -107t-58 -106.5t-114 -40.5zM850 629l-934 -465l16 112l646 316q115 57 182 86q-81 42 -154 86l-547 319l19 105l786 -465zM-913 92q-67 0 -101.5 41t-23.5 107t58 106.5t114 40.5
q68 0 102.5 -40.5t24.5 -106.5q-11 -66 -59 -107t-115 -41z" />
    <glyph glyph-name="colon_less.liga" unicode="&#x3a;&#x3c;" 
d="M-774 965q-68 0 -102.5 40.5t-24.5 106.5q11 66 59 107t115 41t101.5 -41t23.5 -107t-58 -106.5t-114 -40.5zM711 268l-17 -104l-786 465l14 94l934 465l-18 -113l-645 -315q-105 -53 -183 -86q53 -26 156 -86zM-913 92q-67 0 -101.5 41t-23.5 107t58 106.5t114 40.5
q68 0 102.5 -40.5t24.5 -106.5q-11 -66 -59 -107t-115 -41z" />
    <glyph glyph-name="semicolon_semicolon.liga" unicode="&#x3b;&#x3b;" 
d="M-598 860h-20q-66 0 -100 39.5t-23 104.5q9 64 55.5 103.5t112.5 39.5h20q64 0 97 -39t24 -104q-11 -65 -56.5 -104.5t-109.5 -39.5zM303 860h-20q-66 0 -100 39.5t-23 104.5q9 64 55.5 103.5t112.5 39.5h20q64 0 97 -39t24 -104q-11 -65 -56.5 -104.5t-109.5 -39.5z
M-934 -328h-88l254 637h190zM-33 -328h-88l254 637h191z" />
    <glyph glyph-name="semicolon_semicolon_semicolon.liga" unicode="&#x3b;&#x3b;&#x3b;" 
d="M-1663 860h-20q-66 0 -100 39.5t-23 104.5q9 64 55.5 103.5t112.5 39.5h20q64 0 97 -39t24 -104q-11 -65 -56.5 -104.5t-109.5 -39.5zM-762 860h-20q-66 0 -100 39.5t-23 104.5q9 64 55.5 103.5t112.5 39.5h20q64 0 97 -39t24 -104q-11 -65 -56.5 -104.5t-109.5 -39.5z
M139 860h-20q-66 0 -100 39.5t-23 104.5q9 64 55.5 103.5t112.5 39.5h20q64 0 97 -39t24 -104q-11 -65 -56.5 -104.5t-109.5 -39.5zM-1999 -328h-88l254 637h191zM-1098 -328h-88l254 637h191zM-197 -328h-88l254 637h191z" />
    <glyph glyph-name="exclam_exclam.liga" unicode="&#x21;&#x21;" 
d="M-702 420h-62l86 747l53 328h127l-53 -328zM285 420h-62l86 747l53 328h127l-53 -328zM-788 -10h-11q-51 0 -76.5 30.5t-17.5 81.5q7 51 43.5 82t87.5 31h10q51 0 77 -31t18 -82q-7 -51 -43.5 -81.5t-87.5 -30.5zM199 -10h-11q-51 0 -76.5 30.5t-17.5 81.5q7 51 43.5 82
t87.5 31h11q51 0 76.5 -31t17.5 -82q-7 -51 -43.5 -81.5t-87.5 -30.5z" />
    <glyph glyph-name="exclam_equal.liga" unicode="&#x21;&#x3d;" 
d="M-477 0h-107l322 399h-830l15 93h887l299 370h-1127l14 92h1186l326 408h106l-325 -408h837l-14 -92h-897l-299 -370h1137l-15 -93h-1194z" />
    <glyph glyph-name="exclam_equal_equal.liga" unicode="&#x21;&#x3d;&#x3d;" 
d="M1120 1118l-12 -90h-1382l-238 -307h1571l-15 -90h-1626l-237 -307h1814l-14 -91h-1870l-258 -335h-106l258 335h-1321l14 91h1376l238 307h-1565l15 90h1620l237 307h-1808l12 90h1866l258 336h106l-258 -336h1325z" />
    <glyph glyph-name="question_period.liga" unicode="&#x3f;&#x2e;" 
d="M-469 420h-102l55 348h102q149 0 251.5 86t125.5 231t-53 231.5t-225 86.5h-246l16 92h246q195 0 294.5 -112t70.5 -298q-29 -187 -163 -298t-331 -111zM154 -20q-69 0 -102.5 41t-22.5 112q10 69 57.5 109.5t116.5 40.5t102.5 -40.5t22.5 -109.5q-10 -70 -57.5 -111.5
t-116.5 -41.5zM-588 -10h-10q-51 0 -76.5 30.5t-17.5 81.5q7 51 43.5 82t87.5 31h10q51 0 76.5 -31t17.5 -82q-7 -51 -43.5 -81.5t-87.5 -30.5z" />
    <glyph glyph-name="question_colon.liga" unicode="&#x3f;&#x3a;" 
d="M-465 420h-102l55 348h102q149 0 251.5 86t125.5 231t-53 231.5t-225 86.5h-246l16 92h246q195 0 294.5 -112t70.5 -298q-29 -187 -163 -298t-331 -111zM352 852q-68 0 -102.5 40.5t-24.5 106.5q11 66 59 107t115 41t101.5 -41t23.5 -107t-58 -106.5t-114 -40.5zM213 -20
q-67 0 -101.5 40.5t-23.5 106.5t58 106.5t114 40.5q68 0 102.5 -40.5t24.5 -106.5t-58 -106.5t-116 -40.5zM-584 -10h-10q-51 0 -76.5 30.5t-17.5 81.5q7 51 43.5 82t87.5 31h10q51 0 76.5 -31t17.5 -82q-7 -51 -43.5 -81.5t-87.5 -30.5z" />
    <glyph glyph-name="question_question.liga" unicode="&#x3f;&#x3f;" 
d="M-575 420h-103l55 348h103q149 0 251.5 86t125.5 231t-53.5 231.5t-225.5 86.5h-246l17 92h245q195 0 294.5 -112t70.5 -298q-29 -187 -163 -298t-331 -111zM459 420h-103l56 348h102q149 0 251.5 86t125.5 231t-53.5 231.5t-225.5 86.5h-245l16 92h246q195 0 294 -112
t70 -298q-29 -187 -162.5 -298t-330.5 -111zM-694 -10h-11q-51 0 -76.5 30.5t-17.5 81.5q7 51 43.5 82t87.5 31h11q51 0 76.5 -31t17.5 -82q-7 -51 -43.5 -81.5t-87.5 -30.5zM340 -10h-10q-51 0 -76.5 30.5t-17.5 81.5q7 51 43.5 82t87.5 31h10q51 0 76.5 -31t17.5 -82
q-7 -51 -43.5 -81.5t-87.5 -30.5z" />
    <glyph glyph-name="question_question_question.liga" unicode="&#x3f;&#x3f;&#x3f;" 
d="M-1804 420h-103l56 348h102q149 0 251.5 86t125.5 231t-53.5 231.5t-225.5 86.5h-245l16 92h246q195 0 294 -112t70 -298q-29 -187 -162.5 -298t-330.5 -111zM-657 420h-103l55 348h103q149 0 251.5 86t125.5 231t-53.5 231.5t-225.5 86.5h-246l17 92h246q195 0 294 -112
t70 -298q-29 -187 -162.5 -298t-330.5 -111zM489 420h-102l55 348h103q149 0 251.5 86t125.5 231t-53.5 231.5t-225.5 86.5h-246l17 92h245q195 0 294.5 -112t70.5 -298q-29 -187 -163 -298t-331 -111zM-1923 -10h-10q-51 0 -77 30.5t-18 81.5q7 51 44 82t88 31h10
q51 0 76.5 -31t17.5 -82q-7 -51 -43.5 -81.5t-87.5 -30.5zM-776 -10h-10q-51 0 -77 30.5t-18 81.5q7 51 43.5 82t87.5 31h11q51 0 76.5 -31t17.5 -82q-7 -51 -43.5 -81.5t-87.5 -30.5zM371 -10h-11q-51 0 -76.5 30.5t-17.5 81.5q7 51 43.5 82t87.5 31h11q51 0 76.5 -31
t17.5 -82q-7 -51 -43.5 -81.5t-87.5 -30.5z" />
    <glyph glyph-name="question_equal.liga" unicode="&#x3f;&#x3d;" 
d="M-575 420h-103l55 348h103q149 0 251.5 86t125.5 231t-53.5 231.5t-225.5 86.5h-246l17 92h245q195 0 294.5 -112t70.5 -298q-29 -187 -163 -298t-331 -111zM926 850h-840l16 102h840zM856 420h-1167l6 33q38 1 67.5 20.5t40.5 48.5h1069zM-694 -10h-11q-51 0 -76.5 30.5
t-17.5 81.5q7 51 43.5 82t87.5 31h11q51 0 76.5 -31t17.5 -82q-7 -51 -43.5 -81.5t-87.5 -30.5z" />
    <glyph glyph-name="asterisk_asterisk_asterisk.liga" unicode="&#x2a;&#x2a;&#x2a;" 
d="M-762 752l-182 -211l-84 65l184 211q41 48 74.5 79.5t71 61.5t41.5 33l-5 31l-28 3q-27 3 -37.5 5t-36 7.5t-51 13.5t-55.5 20l-232 90l55 103l232 -88q22 -8 40.5 -16t35 -16.5t27.5 -14.5t25 -15.5t19.5 -13t19 -13.5t15.5 -12l21 12q0 8 -2.5 47.5t-0.5 81t11 95.5
l43 266h110l-43 -266q-17 -105 -61 -224l16 -14q6 3 27 16.5t34 21t36 19.5t50.5 22.5t59.5 21.5l264 88l23 -107l-262 -90q-53 -18 -93 -27.5t-83 -14t-47 -5.5l-15 -29q3 -3 31.5 -33.5t51 -62t48.5 -78.5l115 -213l-100 -63l-115 213q-26 49 -40.5 86t-26.5 79.5
t-13 45.5h-22q-10 -14 -29.5 -47.5t-47.5 -74.5t-69 -89zM-1909 424l-182 -211l-84 66l184 210q41 48 73.5 79t72 62.5t41.5 33.5l-4 30q-1 0 -28 3t-37.5 5t-36.5 7.5t-51.5 13.5t-55.5 20l-232 91l56 102l231 -88q19 -7 36.5 -14.5t30 -13.5t27 -14t22 -12t20.5 -13
t16.5 -11.5t16 -11.5t13.5 -10l21 12q0 8 -2.5 47.5t-0.5 80.5t11 95l43 266h111l-43 -266q-5 -29 -10.5 -55.5t-10 -44.5t-11.5 -39t-10 -30.5t-10.5 -29t-9.5 -24.5l16 -15q6 3 27 16.5t34 21t36 19.5t50.5 22.5t59.5 21.5l265 88l22 -107l-262 -90q-53 -18 -93 -27.5
t-83 -14t-47 -5.5l-15 -28q2 -2 31 -33.5t51.5 -63t48.5 -78.5l115 -213l-100 -63l-115 213q-26 49 -40.5 86t-26.5 79.5t-13 45.5h-22q-10 -14 -29.5 -47.5t-47.5 -74.5t-69 -89zM385 424l-182 -211l-84 66l184 210q32 37 62.5 67.5t48 45.5t42 34.5t33.5 27.5l-4 30
q-1 0 -28 3t-37.5 5t-36.5 7.5t-51.5 13.5t-55.5 20l-231 91l55 102l232 -88q19 -7 36.5 -14.5t30 -13.5t27 -14t22 -12t20.5 -13t16.5 -11.5t16 -11.5t13.5 -10l21 12q0 8 -2.5 47.5t-0.5 80.5t11 95l43 266h110l-43 -266q-17 -104 -61 -223l16 -15q6 3 27 16.5t34 21
t36 19.5t50.5 22.5t59.5 21.5l264 88l23 -107l-262 -90q-53 -18 -93 -27.5t-83 -14t-48 -5.5l-14 -28q2 -2 31 -33.5t51.5 -63t48.5 -78.5l115 -213l-100 -63l-115 213q-26 49 -40.5 86t-26.5 79.5t-13 45.5h-23q-10 -14 -29.5 -47.5t-47 -74.5t-68.5 -89z" />
    <glyph glyph-name="asterisk_greater.liga" unicode="&#x2a;&#x3e;" 
d="M-711 424l-204 -231l-82 63l206 231q27 30 50 54t44.5 43.5t33 30t32 28t25.5 21.5l-4 28q-5 1 -28.5 3.5t-37 4.5t-37.5 7t-50 14t-56 22l-250 111l55 102l250 -108q36 -16 67.5 -32.5t46 -25.5t39 -25.5t29.5 -19.5l21 15q0 6 -2 46.5t0 81.5t10 95l49 307h111
l-49 -307q-5 -34 -11 -63.5t-13.5 -54.5t-12.5 -39t-14 -37t-11 -29l17 -15q10 5 36 19.5t44.5 24.5t53.5 26t74 31l289 108l21 -102l-287 -111q-28 -11 -55 -19.5t-43 -13t-40 -8.5t-31 -5.5t-31 -4t-25 -2.5l-13 -26q2 -2 31 -33.5t51.5 -63t49.5 -78.5l133 -233l-101 -64
l-133 234q-21 37 -36.5 72t-21 53.5t-13 48t-9.5 37.5h-22q-10 -14 -29 -48.5t-47 -75t-70 -87.5zM1075 629l-934 -465l17 112l645 316q115 57 182 86q-81 42 -154 86l-546 319l18 105l787 -465z" />
    <glyph glyph-name="asterisk_slash.liga" unicode="&#x2a;&#x2f;" 
d="M184 -225h-114l1028 1925h114zM-762 260l-182 -211l-84 66l184 211q41 48 74.5 79.5t71 61.5t41.5 33l-5 30q-1 0 -23.5 3t-29 4t-29 5t-38 8.5t-39.5 12t-49 17.5l-232 90l55 102l232 -88q19 -7 36.5 -14.5t30 -13.5t27 -14t22 -12t20.5 -13t16.5 -11.5t16 -11.5
t13.5 -10l21 12q0 8 -2.5 47.5t-0.5 80.5t11 95l43 266h110l-43 -266q-17 -104 -61 -223l16 -14q3 2 26.5 16.5t35 20.5t35.5 18.5t51 23t59 21.5l264 88l23 -106l-262 -91q-53 -18 -93 -27.5t-83 -14t-47 -5.5l-15 -28q3 -3 31.5 -33.5t51 -62t48.5 -78.5l115 -213
l-100 -64l-115 213q-26 49 -40.5 86t-26.5 79.5t-13 45.5h-22q-10 -14 -29.5 -47.5t-47.5 -74.5t-69 -89z" />
    <glyph glyph-name="numbersign_parenleft.liga" unicode="&#x23;&#x28;" 
d="M918 1720l-15 -98q-211 -51 -354 -206.5t-199 -391.5h142v-82h-158l-62 -389h220v-82h-232q-25 -247 69 -411t292 -216l-15 -90q-245 65 -362 251.5t-86 465.5h-543l-90 -471h-92l90 471h-381l-90 -471h-92l90 471h-207v82h223l74 389h-225v82h241l90 471h92l-90 -471
h381l90 471h93l-91 -471h527q63 272 237 453.5t433 242.5zM-842 553h381l74 389h-381zM-369 553h539l61 389h-526z" />
    <glyph glyph-name="numbersign_braceleft.liga" unicode="&#x23;&#x7b;" 
d="M1110 1700h102l-14 -92h-102q-96 0 -162 -58t-76 -157l-43 -394q-10 -110 -73.5 -174t-157.5 -69v-6q91 -5 133 -72t18 -180l-86 -416q-20 -99 28 -157t144 -58h103l-15 -92h-102q-149 0 -219.5 81t-40.5 226l80 389h-1028l-164 -471h-92l163 471h-380l-164 -471h-92
l163 471h-207l15 82h223l135 389h-225l12 82h242l166 471h92l-166 -471h381l166 471h92l-166 -471h922l41 369q15 145 110 226t244 81zM-844 553h381l135 389h-381zM311 795h164q109 0 160 32.5t70 114.5h-941l-135 -389h1012q9 80 -29.5 113.5t-150.5 33.5h-164z" />
    <glyph glyph-name="numbersign_bracketleft.liga" unicode="&#x23;[" 
d="M819 1700l-14 -92h-359l-92 -584h217l-12 -82h-217l-61 -389h217l-15 -82h-215l-96 -604h358l-14 -92h-461l111 696h-559l-164 -471h-92l164 471h-381l-164 -471h-92l164 471h-207l14 82h223l135 389h-225l12 82h242l166 471h92l-166 -471h381l166 471h92l-166 -471h451
l106 676h461zM-836 553h381l136 389h-381zM-362 553h540l62 389h-467z" />
    <glyph glyph-name="numbersign_colon.liga" unicode="&#x23;&#x3a;" 
d="M-1032 0h-105l150 430h-193l15 90h211l157 455h-225l14 90h244l152 430h104l-151 -430h368l152 430h110l-157 -430h192l-14 -90h-211l-158 -455h225l-14 -90h-244l-149 -430h-105l150 430h-369zM668 901q-68 0 -105.5 40t-27.5 103q9 63 59.5 103.5t118.5 40.5
q66 0 103 -40.5t28 -103.5q-11 -63 -60 -103t-116 -40zM-692 975l-158 -455h369l157 455h-368zM569 287q-68 0 -105 40t-28 103q10 63 60 103t118 40q67 0 104 -40t27 -103q-9 -63 -58.5 -103t-117.5 -40z" />
    <glyph glyph-name="numbersign_exclam.liga" unicode="&#x23;&#x21;" 
d="M-1032 0h-105l150 430h-193l15 90h211l157 455h-225l14 90h244l152 430h104l-151 -430h368l152 430h110l-157 -430h192l-14 -90h-211l-158 -455h225l-14 -90h-244l-149 -430h-105l150 430h-369zM487 420h-61l231 747l117 328h127l-117 -328zM-692 975l-158 -455h369
l157 455h-368zM317 -10h-10q-51 0 -70.5 30.5t-0.5 81.5q17 51 58.5 82t92.5 31h10q51 0 71 -31t3 -82q-19 -51 -61 -81.5t-93 -30.5z" />
    <glyph glyph-name="numbersign_question.liga" unicode="&#x23;&#x3f;" 
d="M-1038 0h-92l163 471h-207l15 82h223l135 389h-225l12 82h242l166 471h92l-166 -471h381l166 471h92l-166 -471h402l10 61q31 198 171 314.5t347 116.5t310.5 -116.5t72.5 -314.5q-29 -187 -163 -298t-331 -111l-41 -256h-102l55 348h82q162 0 268.5 84t129.5 233
q25 158 -53.5 248t-241.5 90t-270 -90t-132 -248l-22 -143h-521l-135 -389h226l-15 -82h-241l-164 -471h-92l163 471h-380zM-709 942l-135 -389h381l135 389h-381zM453 -10h-11q-51 0 -76.5 30.5t-17.5 81.5q7 51 43.5 82t87.5 31h10q51 0 77 -31t18 -82q-7 -51 -43.5 -81.5
t-87.5 -30.5z" />
    <glyph glyph-name="numbersign_numbersign.liga" unicode="&#x23;&#x23;" 
d="M-977 0h-92l164 471h-207l14 82h224l135 389h-226l13 82h241l166 471h92l-165 -471h380l166 471h92l-165 -471h540l166 471h92l-166 -471h381l166 471h92l-165 -471h206l-12 -82h-223l-135 -389h225l-14 -82h-242l-164 -471h-92l164 471h-381l-164 -471h-92l164 471h-541
l-164 -471h-92l164 471h-381zM-647 942l-135 -389h381l135 389h-381zM-174 942l-135 -389h540l136 389h-541zM459 942l-135 -389h381l135 389h-381z" />
    <glyph glyph-name="numbersign_numbersign_numbersign.liga" unicode="&#x23;&#x23;&#x23;" 
d="M-2206 0h-92l164 471h-207l14 82h224l135 389h-225l12 82h242l165 471h93l-166 -471h381l166 471h92l-166 -471h602l166 471h92l-166 -471h381l166 471h92l-166 -471h602l166 471h92l-166 -471h381l166 471h92l-165 -471h206l-12 -82h-223l-135 -389h225l-14 -82h-242
l-164 -471h-92l164 471h-381l-164 -471h-92l164 471h-602l-164 -471h-92l163 471h-380l-164 -471h-92l163 471h-602l-164 -471h-92l164 471h-381zM-1876 942l-135 -389h381l135 389h-381zM-1403 942l-135 -389h602l135 389h-602zM-709 942l-135 -389h381l135 389h-381z
M-236 942l-135 -389h602l136 389h-603zM459 942l-135 -389h381l135 389h-381z" />
    <glyph glyph-name="numbersign_numbersign_numbersign_numbersign.liga" unicode="&#x23;&#x23;&#x23;&#x23;" 
d="M-3434 0h-93l164 471h-207l15 82h223l135 389h-225l12 82h242l166 471h92l-166 -471h381l166 471h92l-166 -471h623l165 471h93l-166 -471h381l166 471h92l-166 -471h622l166 471h92l-165 -471h381l165 471h93l-166 -471h622l166 471h92l-166 -471h381l166 471h92
l-165 -471h206l-12 -82h-223l-135 -389h225l-14 -82h-242l-164 -471h-92l164 471h-381l-164 -471h-92l164 471h-623l-164 -471h-92l164 471h-381l-164 -471h-92l164 471h-623l-164 -471h-92l164 471h-381l-164 -471h-92l164 471h-623l-163 -471h-93l164 471h-381zM-3105 942
l-135 -389h381l135 389h-381zM-2632 942l-135 -389h623l135 389h-623zM-1917 942l-135 -389h381l135 389h-381zM-1444 942l-135 -389h623l135 389h-623zM-729 942l-135 -389h381l135 389h-381zM-256 942l-135 -389h622l136 389h-623zM459 942l-135 -389h381l135 389h-381z
" />
    <glyph glyph-name="numbersign_equal.liga" unicode="&#x23;&#x3d;" 
d="M-1032 0h-105l150 430h-193l15 90h211l157 455h-225l14 90h244l152 430h104l-151 -430h368l152 430h110l-157 -430h192l-14 -90h-211l-158 -455h225l-14 -90h-244l-149 -430h-105l150 430h-369zM1128 973h-901l15 92h901zM-692 975l-158 -455h369l157 455h-368zM1042 430
h-901l15 92h901z" />
    <glyph glyph-name="numbersign_underscore.liga" unicode="&#x23;_" 
d="M973 -143h-1680l213 614h-380l-164 -471h-92l163 471h-207l15 82h223l135 389h-225l12 82h242l166 471h92l-166 -471h381l166 471h92l-166 -471h207l-12 -82h-224l-135 -389h226l-15 -82h-241l-183 -522h1571zM-709 942l-135 -389h381l135 389h-381z" />
    <glyph glyph-name="numbersign_underscore_parenleft.liga" unicode="&#x23;_&#x28;" 
d="M881 -143h-2816l213 614h-381l-164 -471h-92l164 471h-207l14 82h223l135 389h-225l12 82h242l166 471h92l-166 -471h381l166 471h92l-166 -471h207l-12 -82h-223l-135 -389h225l-15 -82h-241l-182 -522h2482q-156 84 -217.5 259.5t-24.5 416.5l53 327q49 313 226 510.5
t471 268.5l-17 -103q-230 -56 -378 -232t-189 -444l-53 -327q-41 -264 52 -442.5t302 -233.5zM-1937 942l-136 -389h381l136 389h-381z" />
    <glyph glyph-name="slash_asterisk.liga" unicode="&#x2f;&#x2a;" 
d="M-1044 -225h-115l1028 1925h115zM508 690l-182 -211l-84 66l184 211q41 48 73.5 79t71.5 62t41 33l-4 31q-1 0 -28 3t-37.5 5t-36.5 7.5t-51.5 13.5t-55.5 20l-231 90l55 102l232 -88q19 -7 36.5 -14.5t30 -13.5t27 -14t22 -12t20.5 -13t16.5 -11.5t16 -11.5t13.5 -10
l20 12q0 6 -2 47t0 81.5t11 94.5l43 267h110l-43 -267q-17 -104 -61 -223l16 -14q3 2 26.5 16.5t35 20.5t35.5 18.5t51 23t59 21.5l264 88l23 -106l-262 -90q-53 -18 -92.5 -27.5t-84.5 -15t-47 -5.5l-14 -28q3 -3 31.5 -33.5t51 -62t48.5 -78.5l115 -213l-101 -64l-114 213
q-26 49 -40.5 86t-26.5 79.5t-13 45.5h-23q-10 -14 -29.5 -47.5t-47 -74.5t-68.5 -89z" />
    <glyph glyph-name="slash_asterisk_asterisk.liga" unicode="&#x2f;&#x2a;&#x2a;" 
d="M-2273 -225h-115l1028 1925h115zM-760 690l-182 -211l-84 66l184 211q41 48 74.5 79.5t71 61.5t41.5 33l-4 31q-1 0 -28 3t-37.5 5t-36.5 7.5t-51.5 13.5t-55.5 20l-232 90l56 102l231 -88q19 -7 36.5 -14.5t30 -13.5t27 -14t22 -12t20.5 -13t16.5 -11.5t16 -11.5
t13.5 -10l21 12q0 8 -2.5 47.5t-0.5 80.5t11 95l43 267h110l-43 -267q-17 -104 -61 -223l16 -14q3 2 26.5 16.5t35 20.5t35.5 18.5t51 23t59 21.5l264 88l23 -106l-262 -90q-53 -18 -92 -27.5t-84 -15t-47 -5.5l-15 -28q3 -3 31.5 -33.5t51 -62t48.5 -78.5l115 -213
l-100 -64l-115 213q-26 49 -40.5 86t-26.5 79.5t-13 45.5h-22q-10 -14 -29.5 -47.5t-47.5 -74.5t-69 -89zM467 690l-182 -211l-84 66l184 211q41 48 73.5 79t71.5 62t41 33l-4 31q-1 0 -28 3t-37.5 5t-36.5 7.5t-51.5 13.5t-55.5 20l-231 90l55 102l232 -88
q19 -7 36.5 -14.5t30 -13.5t27 -14t22 -12t20.5 -13t16.5 -11.5t16 -11.5t13.5 -10l20 12q0 6 -2 47t0 81.5t11 94.5l43 267h110l-43 -267q-17 -104 -61 -223l16 -14q3 2 26.5 16.5t35 20.5t35.5 18.5t51 23t59 21.5l264 88l23 -106l-262 -90q-53 -18 -92.5 -27.5t-84.5 -15
t-47 -5.5l-14 -28q3 -3 31.5 -33.5t51 -62t48.5 -78.5l115 -213l-101 -64l-114 213q-26 49 -40.5 86t-26.5 79.5t-13 45.5h-23q-10 -14 -29.5 -47.5t-47 -74.5t-68.5 -89z" />
    <glyph glyph-name="slash_equal.liga" unicode="&#x2f;&#x3d;" 
d="M1065 954l-14 -92h-1452l-199 -370h1591l-14 -93h-1626l-334 -624h-115l1028 1925h115l-397 -746h1417z" />
    <glyph glyph-name="slash_equal_equal.liga" unicode="&#x2f;&#x3d;&#x3d;" 
d="M1065 954l-14 -92h-2687l-256 -370h2883l-14 -93h-2933l-432 -624h-115l791 1145l6 34h18l517 746h114l-516 -746h2638z" />
    <glyph glyph-name="slash_greater.liga" unicode="&#x2f;&#x3e;" 
d="M-989 -225h-103l1029 1925h102l-168 -318l1116 -659l-14 -94l-934 -465l18 117l645 315q107 52 183 86q-81 42 -154 86l-907 532z" />
    <glyph glyph-name="slash_slash.liga" unicode="&#x2f;&#x2f;" 
d="M-889 -225h-115l1029 1925h114zM29 -225h-115l1028 1925h115z" />
    <glyph glyph-name="slash_slash_equal.liga" unicode="&#x2f;&#x2f;&#x3d;" 
d="M-2193 -225l1028 1925h114l-1028 -1925h-114zM1024 954l-14 -92h-1583l-199 -370h1722l-14 -93h-1757l-334 -624h-115l1028 1925h115l-397 -746h1548z" />
    <glyph glyph-name="slash_slash_slash.liga" unicode="&#x2f;&#x2f;&#x2f;" 
d="M-2028 -225h-114l1028 1925h115zM-1044 -225h-115l1028 1925h115zM-61 -225h-115l1028 1925h115z" />
    <glyph glyph-name="underscore_bar_underscore.liga" unicode="_&#x7c;_" 
d="M686 -143h-2826l14 92h1362l252 1587h102l-252 -1587h1362z" />
    <glyph glyph-name="underscore_underscore.liga" unicode="__" 
d="M991 -154h-2212l17 103h2212z" />
    <glyph glyph-name="at_underscore.liga" unicode="&#x40;_" 
d="M-662 -51h1670l-15 -92h-1669q-248 0 -364 163t-72 441l70 450q44 283 205 444t403 161q472 0 401 -441l-135 -860h-92l20 133h-14q-26 -71 -96 -112t-164 -41q-132 0 -189 81.5t-32 235.5l41 266q23 145 105 221t214 76q100 0 156 -40t57 -113h12l13 143l2 10
q15 80 6 139.5t-32 99.5t-66.5 65t-97 35.5t-124.5 10.5q-197 0 -324 -134.5t-167 -379.5l-70 -450q-38 -236 54.5 -374t293.5 -138zM-223 512l41 266q15 98 -29.5 151.5t-142.5 53.5q-203 0 -238 -205l-41 -266q-37 -225 168 -225q98 0 161.5 59t80.5 166z" />
    <glyph glyph-name="ampersand_ampersand.liga" unicode="&#x26;&#x26;" 
d="M-721 1188q-19 -113 80 -281l532 -907h-108l-148 242q-197 -262 -446 -262q-148 0 -218 89.5t-44 247.5l35 228q22 135 97.5 220.5t192.5 108.5q-98 164 -75 314q22 140 130.5 234t258.5 94q156 0 237 -99t56 -250h-103q18 105 -41 180.5t-164 75.5q-101 0 -179 -69.5
t-93 -165.5zM981 737h102l-282 -407l194 -330h-108l-148 242q-197 -262 -446 -262q-148 0 -218 89.5t-44 247.5l35 228q22 135 97.5 220.5t192.5 108.5q-98 164 -75 314q22 140 130.5 234t258.5 94q156 0 237 -99t56 -250h-103q18 105 -41 180.5t-164 75.5
q-101 0 -179 -69.5t-93 -165.5q-19 -113 80 -281l291 -495zM-784 72q192 0 370 252l-282 467q-93 -6 -158 -72.5t-82 -173.5l-35 -228q-19 -109 33.5 -177t153.5 -68zM319 72q193 0 371 252l-282 467q-93 -6 -158 -72.5t-82 -173.5l-35 -228q-19 -108 33.5 -176.5
t152.5 -68.5z" />
    <glyph glyph-name="ampersand_ampersand_ampersand.liga" unicode="&#x26;&#x26;&#x26;" 
d="M-1888 1188q-19 -113 80 -281l532 -907h-108l-148 242q-197 -262 -446 -262q-148 0 -218.5 89.5t-44.5 247.5l35 228q22 135 98 220.5t193 108.5q-99 166 -76 314q22 140 130.5 234t258.5 94q156 0 237 -99t56 -250h-102q18 105 -41 180.5t-164 75.5q-101 0 -179 -69.5
t-93 -165.5zM-782 1188q-19 -113 80 -281l532 -907h-109l-147 242q-197 -262 -446 -262q-148 0 -218.5 89.5t-44.5 247.5l35 228q22 135 98 220.5t193 108.5q-99 166 -76 314q22 140 130.5 234t258.5 94q156 0 237 -99t56 -250h-102q18 105 -41 180.5t-164 75.5
q-101 0 -179 -69.5t-93 -165.5zM940 737h102l-282 -407l194 -330h-108l-148 242q-197 -262 -446 -262q-148 0 -218 89.5t-44 247.5l35 228q22 135 97.5 220.5t192.5 108.5q-98 164 -75 314q22 140 130.5 234t258.5 94q156 0 237 -99t56 -250h-103q18 105 -41 180.5
t-164 75.5q-101 0 -179 -69.5t-93 -165.5q-19 -113 80 -281l291 -495zM-1952 72q193 0 371 252l-283 467q-92 -6 -157 -72.5t-82 -173.5l-35 -228q-19 -109 33 -177t153 -68zM-846 72q193 0 371 252l-283 467q-92 -6 -157 -72.5t-82 -173.5l-35 -228q-19 -109 33 -177
t153 -68zM279 72q192 0 370 252l-282 467q-93 -6 -158 -72.5t-82 -173.5l-35 -228q-19 -108 34 -176.5t153 -68.5z" />
    <glyph glyph-name="ampersand_equal.liga" unicode="&#x26;&#x3d;" 
d="M-279 412l375 542h1030l-14 -92h-973l-370 -532l194 -330h-108l-148 242q-197 -262 -446 -262q-148 0 -218 89.5t-44 247.5l34 228q22 135 98.5 221t192.5 108q-98 168 -76 314q22 140 131 234t259 94q156 0 236.5 -99t55.5 -250h-102q18 105 -41 180.5t-164 75.5
q-101 0 -179 -69.5t-93 -165.5q-19 -113 80 -281zM-344 317l4 5l-285 469q-92 -6 -156 -72t-83 -174l-35 -228q-19 -109 33 -177t153 -68q94 0 190 63.5t179 181.5zM1038 399h-972l14 93h973z" />
    <glyph glyph-name="bar_hyphen.liga" unicode="&#x7c;&#x2d;" 
d="M-680 -174h-102l270 1710h102l-129 -809h1424l-15 -92h-1423z" />
    <glyph glyph-name="bar_hyphen_greater.liga" unicode="&#x7c;&#x2d;&#x3e;" 
d="M-2146 72h-103l191 1208h102l-88 -553h2964l-369 553h117l403 -602l-596 -606h-129l545 553h-2951z" />
    <glyph glyph-name="bar_braceright.liga" unicode="&#x7c;&#x7d;" 
d="M-647 -225h-103l304 1925h102zM690 782h225l-14 -94h-225q-128 0 -178.5 -45.5t-59.5 -157.5l-35 -403q-12 -144 -109 -225.5t-247 -81.5h-233l14 92h233q97 0 164 58.5t76 156.5l35 403q9 98 61.5 165.5t132.5 86.5q-74 20 -105 87t-9 163l92 406q23 98 -25 156.5
t-145 58.5h-234l15 92h233q150 0 220.5 -81.5t37.5 -225.5l-92 -406q-26 -115 10.5 -160t161.5 -45z" />
    <glyph glyph-name="bar_bracketright.liga" unicode="&#x7c;]" 
d="M-647 -225h-103l304 1925h102zM500 -225h-727l14 92h625l274 1741h-625l15 92h727z" />
    <glyph glyph-name="bar_bar.liga" unicode="&#x7c;&#x7c;" 
d="M-555 -225h-102l303 1925h102zM408 -225h-103l303 1925h103z" />
    <glyph glyph-name="bar_bar_hyphen.liga" unicode="&#x7c;&#x7c;&#x2d;" 
d="M-1724 -174h-103l271 1710h102zM-852 -174h-102l270 1710h102l-129 -809h1493l-14 -92h-1493z" />
    <glyph glyph-name="bar_bar_bar.liga" unicode="&#x7c;&#x7c;&#x7c;" 
d="M-1671 -225h-103l304 1925h102zM-688 -225h-103l304 1925h102zM295 -225h-102l303 1925h102z" />
    <glyph glyph-name="bar_bar_bar_greater.liga" unicode="&#x7c;&#x7c;&#x7c;&#x3e;" 
d="M-2707 -174h-103l270 1710h103zM-1827 -174h-102l270 1710h103zM-946 -174h-103l271 1710h102l1090 -807l-17 -111zM-692 1421l-232 -1468l1006 594q130 77 244 135q-98 66 -201 141z" />
    <glyph glyph-name="bar_bar_equal.liga" unicode="&#x7c;&#x7c;&#x3d;" 
d="M-1724 -174h-103l271 1710h102zM-852 -174h-102l270 1710h102l-92 -582h1424l-15 -92h-1423l-60 -370h1424l-14 -93h-1424z" />
    <glyph glyph-name="bar_bar_greater.liga" unicode="&#x7c;&#x7c;&#x3e;" 
d="M-1632 -174h-103l271 1710h102zM-752 -174h-102l270 1710h103l1089 -807l-16 -111zM-498 1421l-231 -1468l1005 594q130 77 244 135q-98 66 -201 141z" />
    <glyph glyph-name="bar_equal.liga" unicode="&#x7c;&#x3d;" 
d="M-680 -174h-102l270 1710h102l-92 -582h1424l-15 -92h-1423l-59 -370h1423l-14 -93h-1424z" />
    <glyph glyph-name="bar_equal_greater.liga" unicode="&#x7c;&#x3d;&#x3e;" 
d="M-2146 72h-103l191 1208h102l-51 -326h2775l-217 326h117l403 -602l-596 -606h-127l322 327h-2765zM-2021 862l-60 -370h2843l190 190l-123 180h-2850z" />
    <glyph glyph-name="bar_greater.liga" unicode="&#x7c;&#x3e;" 
d="M-639 -174h-102l270 1710h102l1090 -807l-16 -111zM-385 1421l-231 -1468l1005 594q130 77 244 135q-98 66 -201 141z" />
    <glyph glyph-name="dollar_greater.liga" unicode="&#x24;&#x3e;" 
d="M-606 -287h-82l43 269q-188 11 -282 117.5t-66 279.5h102q-20 -130 50 -212t210 -93l107 659l-54 17q-141 43 -207.5 147.5t-43.5 247.5q25 161 139.5 259t286.5 109l43 269h81l-43 -269q134 -9 250 -81l1131 -709l-15 -94l-923 -465l16 115l635 315q115 57 182 86
q-91 47 -153 86l-932 590q-81 53 -205 63l-98 -620l57 -19q148 -47 217.5 -158t44.5 -260q-26 -165 -147 -267t-301 -113zM-541 831l29 -8l94 596q-125 -11 -207.5 -81t-101.5 -185q-19 -120 30.5 -205.5t155.5 -116.5zM-446 709l-103 -635q137 9 224.5 85t107.5 203
q20 125 -32 214.5t-163 121.5z" />
    <glyph glyph-name="plus_plus.liga" unicode="&#x2b;&#x2b;" 
d="M-498 205h-102l68 430h-410l14 92h410l67 430h103l-68 -430h881l67 430h103l-68 -430h410l-14 -92h-410l-68 -430h-102l68 430h-881z" />
    <glyph glyph-name="plus_plus_plus.liga" unicode="&#x2b;&#x2b;&#x2b;" 
d="M-1624 205h-102l67 430h-409l14 92h409l68 430h102l-67 -430h901l68 430h102l-68 -430h901l68 430h102l-67 -430h409l-14 -92h-409l-68 -430h-102l67 430h-901l-68 -430h-102l68 430h-901z" />
    <glyph glyph-name="plus_greater.liga" unicode="&#x2b;&#x3e;" 
d="M-541 123h-102l80 512h-492l15 92h491l82 512h102l-81 -512h491l-14 -92h-492zM1075 629l-934 -465l17 112l645 316q115 57 182 86q-81 42 -154 86l-546 319l18 105l787 -465z" />
    <glyph glyph-name="equal_colon.liga" unicode="&#x3d;&#x3a;" 
d="M815 1126q68 0 104.5 -40t26.5 -103q-9 -63 -59.5 -103t-118.5 -40q-66 0 -103 40t-28 103q10 63 60 103t118 40zM-893 952h1126l-14 -92h-1126zM717 512q68 0 105 -40t28 -103q-11 -63 -61 -103.5t-117 -40.5q-66 0 -103.5 40.5t-27.5 103.5q9 63 58.5 103t117.5 40z
M-967 492h1127l-15 -93h-1126z" />
    <glyph glyph-name="equal_colon_equal.liga" unicode="&#x3d;&#x3a;&#x3d;" 
d="M-571 840q-68 0 -105.5 40t-28.5 103q10 63 60.5 103t118.5 40q67 0 104 -40t27 -103q-9 -63 -58.5 -103t-117.5 -40zM-1147 829h-1106l17 103h1106zM1106 829h-1106l16 103h1106zM-1210 430h-1106l16 102h1106zM1042 430h-1105l16 102h1106zM-670 225q-68 0 -104.5 40.5
t-26.5 103.5q9 63 59.5 103t118.5 40q66 0 103 -40t28 -103q-11 -63 -61 -103.5t-117 -40.5z" />
    <glyph glyph-name="equal_exclam_equal.liga" unicode="&#x3d;&#x21;&#x3d;" 
d="M-821 420h-62l86 747l54 328h127l-54 -328zM-1130 860h-1117l15 92h1116zM1112 860h-1116l14 92h1116zM-1204 399h-1116l14 93h1116zM1038 399h-1116l15 93h1116zM-907 -10h-11q-51 0 -76.5 30.5t-17.5 81.5q7 51 43.5 82t87.5 31h11q51 0 76.5 -31t17.5 -82
q-7 -51 -43.5 -81.5t-87.5 -30.5z" />
    <glyph glyph-name="equal_equal.liga" unicode="&#x3d;&#x3d;" 
d="M1112 862h-2130l14 92h2130zM1038 399h-2130l15 93h2130z" />
    <glyph glyph-name="equal_equal_equal.liga" unicode="&#x3d;&#x3d;&#x3d;" 
d="M1108 1028h-3297l12 90h3297zM1044 631h-3297l15 90h3297zM981 233h-3297l14 91h3297z" />
    <glyph glyph-name="equal_equal_greater.liga" unicode="&#x3d;&#x3d;&#x3e;" 
d="M475 72h-127l322 327h-2960l15 93h3037l190 192l-123 178h-3045l14 92h2970l-217 326h117l403 -602z" />
    <glyph glyph-name="equal_greater.liga" unicode="&#x3d;&#x3e;" 
d="M475 72h-127l324 327h-1733l14 93h1811l188 190l-123 180h-1816l14 92h1741l-217 326h117l403 -602z" />
    <glyph glyph-name="equal_greater_greater.liga" unicode="&#x3d;&#x3e;&#x3e;" 
d="M-98 72h-127l321 327h-2386l15 93h2463l191 190l-123 180h-2472l14 92h2397l-218 326h117l404 -602zM475 72h-127l602 612l-399 596h117l403 -602z" />
    <glyph glyph-name="equal_less_less.liga" unicode="&#x3d;&#x3c;&#x3c;" 
d="M354 72h-114l-220 327h-2310l15 93h2232l-123 184l186 186h-2236l14 92h2313l321 326h129l-612 -610zM928 72h-115l-405 604l598 604h129l-613 -610z" />
    <glyph glyph-name="equal_slash_equal.liga" unicode="&#x3d;&#x2f;&#x3d;" 
d="M-1124 0h-123l313 389h-1429l16 103h1495l299 368h-1735l15 103h1800l321 399h123l-321 -399h1435l-14 -103h-1501l-299 -368h1741l-17 -103h-1806z" />
    <glyph glyph-name="greater_hyphen.liga" unicode="&#x3e;&#x2d;" 
d="M-971 72h-127l602 612l-399 596h117l375 -557h1462l-15 -92h-1464z" />
    <glyph glyph-name="greater_hyphen_greater.liga" unicode="&#x3e;&#x2d;&#x3e;" 
d="M-2198 72h-126l600 614l-398 594h117l375 -557h2554l-373 557h117l403 -602l-596 -606h-127l553 559h-2548z" />
    <glyph glyph-name="greater_bracketright.liga" unicode="&#x3e;]" 
d="M414 -225h-461l14 92h359l274 1741h-358l14 92h461zM31 659l-934 -464l16 112l645 316q107 52 183 86q-81 42 -154 86l-547 319l19 105l786 -465z" />
    <glyph glyph-name="greater_colon.liga" unicode="&#x3e;&#x3a;" 
d="M455 965q-68 0 -102.5 40.5t-24.5 106.5q11 66 59 107t115 41t101.5 -41t23.5 -107t-58 -106.5t-114 -40.5zM113 629l-934 -465l16 112l645 316q107 52 183 86q-81 42 -154 86l-547 319l19 105l786 -465zM315 92q-67 0 -101.5 41t-23.5 107t58 106.5t114 40.5
q68 0 102.5 -40.5t24.5 -106.5q-11 -66 -59 -107t-115 -41z" />
    <glyph glyph-name="greater_equal.liga" unicode="&#x3e;&#x3d;" 
d="M623 815l-1219 -459l16 117l938 344q95 36 170 55l2 11q-90 26 -153 53l-830 338l19 110l1075 -456zM555 383l-1219 -451l17 109l1218 451z" />
    <glyph glyph-name="greater_equal_greater.liga" unicode="&#x3e;&#x3d;&#x3e;" 
d="M-2198 72h-126l595 612l-393 596h117l219 -326h2554l-217 326h117l403 -602l-596 -606h-127l322 327h-2546zM-1602 678l-182 -186h2546l188 190l-121 180h-2553z" />
    <glyph glyph-name="greater_greater.liga" unicode="&#x3e;&#x3e;" 
d="M-82 629l-934 -465l17 112l645 316q115 57 182 86q-81 42 -154 86l-546 319l18 105l786 -465zM965 629l-934 -465l16 112l645 316q115 57 182 86q-75 38 -153 86l-547 319l19 105l786 -465z" />
    <glyph glyph-name="greater_greater_hyphen.liga" unicode="&#x3e;&#x3e;&#x2d;" 
d="M-2187 72h-127l596 612l-393 596h116l404 -602zM-1614 72h-127l596 612l-393 596h117l374 -557h2106l-15 -92h-2107z" />
    <glyph glyph-name="greater_greater_equal.liga" unicode="&#x3e;&#x3e;&#x3d;" 
d="M-2187 72h-127l594 610l-391 598h116l404 -602zM-1614 72h-127l594 610l-391 598h117l219 -326h2300l-15 -92h-2224l123 -184l-182 -186h2224l-14 -93h-2302z" />
    <glyph glyph-name="greater_greater_greater.liga" unicode="&#x3e;&#x3e;&#x3e;" 
d="M-993 629l-934 -465l16 112l645 316q107 52 183 86q-81 42 -154 86l-547 319l19 105l786 -465zM31 629l-934 -465l16 112l645 316q107 52 183 86q-81 42 -154 86l-547 319l19 105l786 -465zM1055 629l-934 -465l16 112l645 316q107 52 183 86q-81 42 -154 86l-547 319
l19 105l786 -465z" />
    <glyph glyph-name="less_hyphen.liga" unicode="&#x3c;&#x2d;" 
d="M-518 72h-115l-405 604l598 604h127l-555 -559h1927l-15 -92h-1939z" />
    <glyph glyph-name="less_hyphen_hyphen.liga" unicode="&#x3c;&#x2d;&#x2d;" 
d="M-1741 72h-121l-405 604l598 604h121l-484 -487q-13 -14 -69 -70h3160l-15 -92h-3164q39 -58 52 -76z" />
    <glyph glyph-name="less_hyphen_bar.liga" unicode="&#x3c;&#x2d;&#x7c;" 
d="M-2101 723h2965l88 557h103l-191 -1208h-102l88 559h-2970l379 -559h-121l-405 604l598 604h121z" />
    <glyph glyph-name="less_hyphen_greater.liga" unicode="&#x3c;&#x2d;&#x3e;" 
d="M-1747 72h-115l-405 604l598 604h127l-553 -557h3019l-373 557h117l403 -602l-596 -606h-127l553 559h-3027z" />
    <glyph glyph-name="less_hyphen_less.liga" unicode="&#x3c;&#x2d;&#x3c;" 
d="M-1747 72h-115l-405 604l598 604h127l-553 -557h2550l551 557h127l-603 -612l398 -596h-115l-375 559h-2564z" />
    <glyph glyph-name="less_colon.liga" unicode="&#x3c;&#x3a;" 
d="M455 965q-68 0 -102.5 40.5t-24.5 106.5q11 66 59 107t115 41t101.5 -41t23.5 -107t-58 -106.5t-114 -40.5zM55 268l-16 -104l-787 465l15 94l934 465l-19 -113l-645 -315q-110 -56 -182 -86q53 -26 156 -86zM315 92q-67 0 -101.5 41t-23.5 107t58 106.5t114 40.5
q68 0 102.5 -40.5t24.5 -106.5q-11 -66 -59 -107t-115 -41z" />
    <glyph glyph-name="less_colon_less.liga" unicode="&#x3c;&#x3a;&#x3c;" 
d="M-774 965q-68 0 -102.5 40.5t-24.5 106.5q11 66 59 107t115 41t101.5 -41t23.5 -107t-58 -106.5t-114 -40.5zM-1378 268l-17 -104l-786 465l14 94l934 465l-18 -113l-645 -315q-105 -53 -183 -86q53 -26 156 -86zM813 268l-16 -104l-787 465l15 94l933 465l-18 -113
l-645 -315q-110 -56 -182 -86q47 -23 155 -86zM-913 92q-67 0 -101.5 41t-23.5 107t58 106.5t114 40.5q68 0 102.5 -40.5t24.5 -106.5q-11 -66 -59 -107t-115 -41z" />
    <glyph glyph-name="less_exclam_hyphen_hyphen.liga" unicode="&#x3c;&#x21;&#x2d;&#x2d;" 
d="M-2136 420l205 747l106 328h127l-106 -328l-271 -747h-61zM-2243 631h-1087q23 -30 53 -76l328 -483h-121l-405 604l598 604h120l-483 -487q-52 -52 -72 -70h1084zM-1423 631l14 92h2468l-15 -92h-2467zM-2165 215h11q50 0 70 -30.5t5 -82.5q-15 -51 -56.5 -81.5
t-92.5 -30.5h-10q-51 0 -71 30.5t-5 81.5t56.5 82t92.5 31z" />
    <glyph glyph-name="less_asterisk.liga" unicode="&#x3c;&#x2a;" 
d="M426 424l-205 -231l-82 63l207 231q27 30 49.5 53.5t45 44.5t31.5 29t33 28.5t25 21.5l-4 28q-5 1 -28.5 3.5t-37 4.5t-37.5 7t-50 14t-56 22l-249 111l55 102l250 -108q36 -16 67.5 -32.5t46 -25.5t39 -25.5t29.5 -19.5l20 15q0 4 -1.5 46.5t0.5 82.5t10 94l49 307h110
l-49 -307q-5 -35 -11 -63.5t-13.5 -54.5t-11.5 -38.5t-14 -38t-11 -28.5l16 -15q9 5 35.5 20t45 24.5t54 25.5t74.5 31l289 108l20 -102l-286 -111q-28 -11 -55 -19.5t-43.5 -13t-40 -8.5t-31 -5.5t-31 -4t-25.5 -2.5l-12 -26q6 -8 24.5 -28t31 -35t33.5 -45.5t42 -66.5
l133 -233l-100 -64l-133 234q-21 37 -36.5 72t-21 53.5t-13 48t-9.5 37.5h-23q-10 -14 -29 -48.5t-46.5 -75t-69.5 -87.5zM-252 268l-16 -104l-787 465l15 94l934 465l-19 -113l-645 -315q-110 -56 -182 -86q47 -23 155 -86z" />
    <glyph glyph-name="less_asterisk_greater.liga" unicode="&#x3c;&#x2a;&#x3e;" 
d="M-762 424l-205 -231l-82 63l207 231q27 30 50 54t44.5 43.5t33 30t32 28t25.5 21.5l-5 28q-5 1 -28.5 3.5t-36.5 4.5t-37 7t-50 14t-56 22l-250 111l55 102l250 -108q36 -16 67.5 -32.5t46 -25.5t39 -25.5t29.5 -19.5l21 15q0 6 -2 46.5t0 81.5t10 95l49 307h111
l-50 -307q-5 -35 -11 -63.5t-13.5 -54.5t-11.5 -38.5t-14 -38t-11 -28.5l16 -15q9 5 35.5 20t45 24.5t54 25.5t74.5 31l289 108l21 -102l-287 -111q-28 -11 -55 -19.5t-43 -13t-40 -8.5t-31 -5.5t-31 -4t-25 -2.5l-13 -26q6 -8 24.5 -28t31 -35t33.5 -45.5t42 -66.5
l133 -233l-100 -64l-133 234q-21 37 -36.5 72t-21 53.5t-13 48t-9.5 37.5h-22q-10 -14 -29 -48.5t-47 -75t-70 -87.5zM-1403 268l-16 -104l-787 465l15 94l934 465l-19 -113l-645 -315q-110 -56 -182 -86q47 -23 155 -86zM1051 629l-934 -465l16 112l645 316q107 52 183 86
q-81 42 -154 86l-547 319l19 105l786 -465z" />
    <glyph glyph-name="less_bar.liga" unicode="&#x3c;&#x7c;" 
d="M508 -174h-102l-1094 792l16 111l1348 807h102zM-594 672l1018 -731l231 1470z" />
    <glyph glyph-name="less_bar_bar.liga" unicode="&#x3c;&#x7c;&#x7c;" 
d="M-608 -174h-103l-1093 792l16 111l1348 807h102zM272 -174h-102l270 1710h103zM-1710 672l1018 -731l231 1470z" />
    <glyph glyph-name="less_bar_bar_bar.liga" unicode="&#x3c;&#x7c;&#x7c;&#x7c;" 
d="M-1642 -174h-103l-1094 792l17 111l1347 807h103zM-762 -174h-102l270 1710h102zM119 -174h-103l271 1710h102zM-2744 672l1018 -731l231 1470z" />
    <glyph glyph-name="less_bar_greater.liga" unicode="&#x3c;&#x7c;&#x3e;" 
d="M-688 -225h-103l289 1822h103zM-1008 -55l-22 -121l-1092 799l19 108l1345 805l-20 -129l-1227 -735zM909 627l-1345 -803l20 129l1227 735l-995 727l20 121l1092 -799z" />
    <glyph glyph-name="less_dollar.liga" unicode="&#x3c;&#x24;" 
d="M489 -287h-81l41 267q-210 7 -375 90l-1098 559l14 94l934 465l-18 -113l-826 -399l1039 -522q149 -75 346 -82l104 661l-53 17q-137 41 -205 149t-45 246q25 161 139.5 259t286.5 109l43 269h82l-43 -269q166 -11 250.5 -117t56.5 -274h-102q20 129 -37.5 208t-181.5 91
l-98 -620l57 -19q148 -47 217.5 -159t44.5 -261q-26 -164 -145.5 -264.5t-303.5 -115.5zM555 836l29 -11l94 596q-127 -11 -208.5 -81.5t-100.5 -186.5q-17 -115 30.5 -196t155.5 -121zM647 709l-100 -633q133 15 223 92.5t109 193.5q20 126 -32 215t-165 121z" />
    <glyph glyph-name="less_dollar_greater.liga" unicode="&#x3c;&#x24;&#x3e;" 
d="M-709 -287h-82l41 267q-199 7 -364 90l-1098 559l14 94l934 465l-18 -115l-827 -401l1040 -520q144 -73 336 -80l104 663l-43 15q-141 46 -207 150.5t-43 244.5q25 158 137.5 257t278.5 111l43 269h82l-43 -269q129 -9 252 -81l1190 -709l-14 -94l-934 -465l16 115
l827 401l-1146 676q-90 53 -205 63l-97 -614l66 -23q146 -53 215.5 -164t46.5 -256q-26 -167 -148.5 -267.5t-310.5 -112.5zM-633 836l21 -7l92 590q-120 -11 -200 -81.5t-99 -184.5q-19 -118 30.5 -202t155.5 -115zM-549 713l-102 -639q137 14 230 91.5t112 196.5
q19 121 -33.5 210t-163.5 126z" />
    <glyph glyph-name="less_numbersign_hyphen_hyphen.liga" unicode="&#x3c;&#x23;&#x2d;&#x2d;" 
d="M-2261 0h-104l149 430h-192l14 90h211l158 455h-226l15 90h243l152 430h104l-151 -430h368l152 430h111l-158 -430h192l-14 -90h-211l-158 -455h226l-15 -90h-243l-150 -430h-104l149 430h-368zM-2955 72h-115l-405 604l598 604h127l-553 -557h809l-15 -92h-825z
M-1921 975l-158 -455h369l158 455h-369zM1044 631h-2181l15 92h2181z" />
    <glyph glyph-name="less_plus.liga" unicode="&#x3c;&#x2b;" 
d="M483 123h-102l80 512h-492l15 92h491l82 512h102l-81 -512h491l-14 -92h-492zM-252 268l-16 -104l-787 465l15 94l934 465l-19 -113l-645 -315q-110 -56 -182 -86q47 -23 155 -86z" />
    <glyph glyph-name="less_plus_greater.liga" unicode="&#x3c;&#x2b;&#x3e;" 
d="M-633 123h-102l80 512h-492l14 92h492l82 512h102l-82 -512h492l-14 -92h-492zM-1430 268l-16 -104l-786 465l14 94l934 465l-19 -113l-645 -315q-110 -56 -182 -86q53 -26 156 -86zM1024 629l-934 -465l16 112l646 316q115 57 182 86q-81 42 -154 86l-547 319l19 105
l786 -465z" />
    <glyph glyph-name="less_equal.liga" unicode="&#x3c;&#x3d;" 
d="M567 463l-16 -107l-1075 459l18 113l1219 456l-19 -120l-936 -338q-86 -33 -170 -54l-2 -10q80 -23 154 -55zM500 39l-17 -107l-1075 451l17 106z" />
    <glyph glyph-name="less_equal_bar.liga" unicode="&#x3c;&#x3d;&#x7c;" 
d="M-1747 72h-115l-405 604l598 604h127l-322 -326h2765l51 326h103l-191 -1208h-102l51 327h-2783zM-2148 672l116 -180h2859l60 370h-2843z" />
    <glyph glyph-name="less_equal_equal.liga" unicode="&#x3c;&#x3d;&#x3d;" 
d="M-1747 72h-115l-405 604l598 604h127l-324 -326h2962l-15 -92h-3039l-192 -192l120 -178h3052l-14 -93h-2976z" />
    <glyph glyph-name="less_equal_equal_greater.liga" unicode="&#x3c;&#x3d;&#x3d;&#x3e;" 
d="M-2955 72h-115l-405 604l598 604h127l-324 -326h3842l-217 326h117l403 -602l-596 -606h-127l324 327h-3848zM-3355 670l117 -178h4002l182 190l-117 180h-3995z" />
    <glyph glyph-name="less_equal_greater.liga" unicode="&#x3c;&#x3d;&#x3e;" 
d="M-1747 72h-115l-405 604l598 604h129l-324 -326h2630l-215 326h117l403 -602l-596 -606h-129l324 327h-2636zM-2146 668l118 -176h2788l182 190l-115 180h-2783z" />
    <glyph glyph-name="less_equal_less.liga" unicode="&#x3c;&#x3d;&#x3c;" 
d="M-1747 72h-115l-405 604l598 604h127l-324 -326h2550l322 326h127l-603 -612l398 -596h-115l-219 327h-2562zM-2148 668l118 -176h2560l-122 184l186 186h-2552z" />
    <glyph glyph-name="less_greater.liga" unicode="&#x3c;&#x3e;" 
d="M930 614l-1008 -532l-835 532l18 123l1006 533l837 -533zM-725 618l664 -419l800 415l127 64q-42 23 -102 61l-664 416l-807 -426q-76 -40 -118 -57q30 -10 100 -54z" />
    <glyph glyph-name="less_less.liga" unicode="&#x3c;&#x3c;" 
d="M-80 268l-16 -104l-787 465l15 94l934 465l-19 -113l-645 -315q-110 -56 -182 -86q47 -23 155 -86zM905 268l-16 -104l-787 465l15 94l934 465l-19 -113l-645 -315q-110 -56 -182 -86q47 -23 155 -86z" />
    <glyph glyph-name="less_less_hyphen.liga" unicode="&#x3c;&#x3c;&#x2d;" 
d="M-1747 72h-115l-405 604l598 604h127l-606 -610zM-1174 72h-114l-406 604l598 604h127l-553 -557h2581l-15 -92h-2596z" />
    <glyph glyph-name="less_less_equal.liga" unicode="&#x3c;&#x3c;&#x3d;" 
d="M-1747 72h-115l-405 604l598 604h129l-606 -612zM-1176 72h-112l-406 604l604 604h121l-323 -326h2388l-15 -92h-2465l-191 -194l117 -176h2480l-14 -93h-2405z" />
    <glyph glyph-name="less_less_less.liga" unicode="&#x3c;&#x3c;&#x3c;" 
d="M-1296 268l-17 -104l-786 465l14 94l934 465l-18 -113l-646 -315q-110 -56 -182 -86q53 -26 156 -86zM-221 268l-17 -104l-786 465l14 94l934 465l-18 -113l-645 -315q-105 -53 -183 -86q53 -26 156 -86zM854 268l-16 -104l-787 465l15 94l933 465l-18 -113l-645 -315
q-110 -56 -182 -86q47 -23 155 -86z" />
    <glyph glyph-name="less_less_asciitilde.liga" unicode="&#x3c;&#x3c;&#x7e;" 
d="M-1745 72h-117l-403 604l598 604h125l-604 -608zM-1171 72h-117l-404 604l598 604h125l-407 -410h94q58 0 102.5 -21.5t70 -54t51 -70.5t45 -70.5t52 -54t72.5 -21.5t80 21.5t71.5 54t69.5 70.5t74 70.5t87 54t106 21.5q58 0 102.5 -21.5t70 -54t51 -70.5t45 -70.5
t52 -54t72.5 -21.5t80 21.5t71 54t69 70.5t74.5 70.5t87 54t105.5 21.5q48 0 86 -16t63.5 -42t46.5 -57t40.5 -62t40 -57t50 -42t66.5 -16q54 0 90 36.5t46 102.5l16 102h92l-16 -102q-17 -106 -80.5 -165.5t-159.5 -59.5q-58 0 -102.5 21.5t-70.5 54t-51.5 70.5t-45.5 70.5
t-52.5 54t-72.5 21.5q-48 0 -93.5 -30t-85.5 -73t-82.5 -86t-100.5 -73t-123 -30q-48 0 -86.5 16t-63.5 42t-46.5 57t-41 62t-40.5 57t-51 42t-67 16q-48 0 -93.5 -30t-85.5 -73t-82.5 -86t-100.5 -73t-123 -30q-48 0 -86 16t-63.5 42t-47 57t-40.5 62t-40 57t-51 42t-67 16
h-166l-113 -112z" />
    <glyph glyph-name="less_asciitilde.liga" unicode="&#x3c;&#x7e;" 
d="M-518 72h-115l-405 604l598 604h127l-611 -610l29 -39h53q28 0 56 13t51.5 34.5t49 46.5t53.5 50.5t59 47t72 34.5t87 13q50 0 89.5 -16t64.5 -42t45.5 -57t38.5 -62t37 -57t47 -42t63 -16q48 0 92.5 30t83 73t79.5 86t98 73t122 30q55 0 97.5 -21.5t66.5 -54t48.5 -70.5
t44.5 -70.5t53 -54t75 -21.5q121 0 144 139l16 102h103l-17 -102q-17 -103 -87.5 -164t-172.5 -61q-50 0 -89 16t-64 42t-45.5 57t-38.5 62t-37 57t-46.5 42t-62.5 16q-40 0 -79 -21.5t-69.5 -54t-67 -70.5t-71.5 -70.5t-85 -54t-105 -21.5q-65 0 -111.5 30t-73 73t-51 86
t-61 73t-86.5 30q-49 0 -90.5 -23t-73.5 -56t-65 -67t-81 -59.5t-106 -29.5z" />
    <glyph glyph-name="less_asciitilde_greater.liga" unicode="&#x3c;&#x7e;&#x3e;" 
d="M-1430 268l-16 -104l-786 465l14 94l934 465l-19 -113l-645 -315q-110 -56 -182 -86q53 -26 156 -86zM1024 629l-934 -465l16 112l646 316q115 57 182 86q-81 42 -154 86l-547 319l19 105l786 -465zM-842 492q-65 0 -111.5 30t-73 73t-51 86t-61 73t-86.5 30
q-63 0 -103.5 -37t-51.5 -102l-17 -102h-92l16 102q17 103 87.5 164t173.5 61q50 0 89.5 -16t64.5 -42t45.5 -57t38.5 -62t37 -57t47 -42t63 -16q48 0 92.5 30t83 73t79.5 86t98 73t122 30q55 0 97.5 -21.5t66.5 -54t48.5 -70.5t44.5 -70.5t53 -54t75 -21.5q63 0 103.5 37
t49.5 102l17 102h92l-16 -102q-15 -102 -86.5 -163.5t-174.5 -61.5q-50 0 -89 16t-64 42t-45.5 57t-38.5 62t-37 57t-46.5 42t-62.5 16q-40 0 -79 -21.5t-69.5 -54t-67 -70.5t-71.5 -70.5t-85 -54t-105 -21.5z" />
    <glyph glyph-name="less_asciitilde_asciitilde.liga" unicode="&#x3c;&#x7e;&#x7e;" 
d="M1006 717l16 102h92l-16 -102q-17 -106 -80.5 -165.5t-159.5 -59.5q-58 0 -102.5 21.5t-70 54t-51 70.5t-45 70.5t-52 54t-72.5 21.5t-80 -21.5t-71.5 -54t-69.5 -70.5t-74 -70.5t-87 -54t-106 -21.5q-48 0 -86 16t-63 42t-46.5 57t-40.5 62t-39.5 57t-50.5 42t-67 16
q-40 0 -80 -21.5t-71 -54t-69 -70.5t-74.5 -70.5t-87 -54t-105.5 -21.5q-48 0 -86 16t-63 42t-46.5 57t-40.5 62t-39.5 57t-50.5 42t-67 16t-71 -16t-61 -42t-54 -57t-56 -62t-61 -57t-74 -42t-90 -16q-51 0 -89.5 16.5t-59.5 42t-41 55.5t-35.5 56t-41 45.5t-59.5 23.5
l-61 -63l403 -596h-115l-405 604l598 604h127l-473 -477q42 -12 70.5 -39.5t44 -58.5t31.5 -60t45.5 -48t74.5 -19q40 0 77.5 21.5t65.5 54t62.5 70.5t68 70.5t83.5 54t108 21.5t102.5 -21.5t70.5 -54t51.5 -70.5t45.5 -70.5t52.5 -54t72.5 -21.5t80 21.5t71 54t69 70.5
t74 70.5t86.5 54t105.5 21.5q58 0 102.5 -21.5t70.5 -54t51.5 -70.5t45.5 -70.5t52.5 -54t72.5 -21.5q48 0 93.5 30t85.5 73t82.5 86t100.5 73t123 30q48 0 86.5 -16t63.5 -42t46.5 -57t41 -62t40.5 -57t50.5 -42t66.5 -16q54 0 88.5 36.5t45.5 102.5z" />
    <glyph glyph-name="less_slash.liga" unicode="&#x3c;&#x2f;" 
d="M113 -225h-119l123 231l-1069 623l14 94l934 465l-19 -115l-825 -401l1010 -584l864 1612h119z" />
    <glyph glyph-name="less_slash_greater.liga" unicode="&#x3c;&#x2f;&#x3e;" 
d="M-1044 -225h-119l123 231l-1059 623l14 94l934 465l-18 -115l-826 -401l1000 -584l864 1612h119l-176 -332l1093 -645l-14 -94l-934 -465l16 115l826 401l-1035 606z" />
    <glyph glyph-name="asciitilde_hyphen.liga" unicode="&#x7e;&#x2d;" 
d="M-205 502q-62 0 -117.5 22.5t-93.5 56t-76.5 73t-69 73t-70 56t-79.5 22.5q-58 0 -96 -36.5t-49 -102.5l-23 -154h-92l23 154q17 104 84.5 164.5t167.5 60.5q55 0 105 -22.5t85 -56t73 -73t71 -73t77 -56t92 -22.5q72 0 124 35.5t61 93.5l2 10h1055l-15 -92h-979
q-35 -62 -104.5 -97.5t-155.5 -35.5z" />
    <glyph glyph-name="asciitilde_at.liga" unicode="&#x7e;&#x40;" 
d="M795 1516q217 0 322 -142t67 -381l-137 -860h-93l23 133h-14q-26 -70 -96.5 -111.5t-164.5 -41.5q-132 0 -190 82t-33 235l43 266q23 145 105.5 221t214.5 76q100 0 155 -40t56 -113h14l12 143l2 10q32 201 -48.5 316.5t-252.5 115.5q-197 0 -324 -134.5t-167 -379.5
l-107 -673q-37 -236 56 -374t294 -138h154l-14 -93h-154q-248 0 -364.5 163.5t-73.5 441.5l70 442q-122 -148 -310 -148q-67 0 -122.5 16t-92 42t-68.5 57t-59.5 62.5t-56 57.5t-67 42t-85.5 16q-89 0 -153.5 -52.5t-77.5 -137.5l-16 -103h-93l17 103q20 123 113 199.5
t223 76.5q60 0 108.5 -16t81.5 -42t62.5 -57.5t58.5 -62.5t61 -57t78 -42t103 -16q113 0 199 66t124 172l8 55q44 282 205.5 443.5t403.5 161.5zM991 430l43 266q15 98 -29.5 151.5t-142.5 53.5q-101 0 -161.5 -52t-75.5 -153l-43 -266q-34 -225 170 -225q98 0 160 58.5
t79 166.5z" />
    <glyph glyph-name="asciitilde_greater.liga" unicode="&#x7e;&#x3e;" 
d="M475 72h-127l477 479q-52 5 -88 31.5t-56.5 59.5t-40 65.5t-53 54.5t-81.5 22q-43 0 -83 -21.5t-70 -54t-66 -70.5t-70 -70.5t-83.5 -54t-104.5 -21.5q-48 0 -86 16t-63 42t-45.5 57t-39 62t-38.5 57t-48 42t-63 16q-40 0 -78.5 -21.5t-67.5 -54t-65.5 -70.5t-71 -70.5
t-85.5 -54t-109 -21.5q-103 0 -155.5 61.5t-35.5 163.5l16 102h93l-17 -102q-11 -65 19.5 -102t93.5 -37q42 0 82 21.5t69.5 54t65.5 70.5t70 70.5t83.5 54t104.5 21.5t98 -21.5t68 -54t50 -70.5t44.5 -70.5t52 -54t72.5 -21.5t78.5 21.5t67.5 54t64.5 70.5t70.5 70.5
t85.5 54t108.5 21.5q46 0 82.5 -13t61 -34.5t44 -47t36.5 -50.5t34 -46.5t40.5 -34.5t51.5 -13h37l45 49l-399 600h117l403 -602z" />
    <glyph glyph-name="asciitilde_asciitilde.liga" unicode="&#x7e;&#x7e;" 
d="M-227 492q-65 0 -111.5 30t-73 73t-51 86t-61 73t-86.5 30q-63 0 -104 -37t-52 -102l-16 -102h-92l16 102q17 103 87.5 164t172.5 61q50 0 89.5 -16t64.5 -42t45.5 -57t38.5 -62t37 -57t47 -42t63 -16q48 0 92.5 30t83 73t79.5 86t98 73t122 30q55 0 97.5 -21.5t66.5 -54
t48.5 -70.5t44.5 -70.5t53 -54t75 -21.5q63 0 104 37t50 102l16 102h92l-16 -102q-15 -103 -86 -164t-174 -61q-50 0 -89 16t-64 42t-45.5 57t-38.5 62t-37 57t-46.5 42t-62.5 16q-40 0 -79 -21.5t-69.5 -54t-67 -70.5t-71.5 -70.5t-85 -54t-105 -21.5z" />
    <glyph glyph-name="asciitilde_asciitilde_greater.liga" unicode="&#x7e;&#x7e;&#x3e;" 
d="M475 72h-127l600 608l-35 51q-41 -4 -78 -30.5t-67.5 -61t-64.5 -68t-83.5 -56.5t-109.5 -23q-65 0 -110.5 30t-70.5 73t-48 86t-58.5 73t-85.5 30q-37 0 -72 -16t-64 -42t-58 -57t-60.5 -62t-64.5 -57t-76.5 -42t-91.5 -16t-86.5 16t-64.5 42t-47.5 57t-41 62t-40 57
t-49.5 42t-64 16q-43 0 -84 -21.5t-72 -54t-68.5 -70.5t-73 -70.5t-85.5 -54t-105 -21.5q-48 0 -86.5 16t-64.5 42t-47.5 57t-41 62t-40 57t-49.5 42t-64 16q-47 0 -92.5 -30t-84.5 -73t-81.5 -86t-101.5 -73t-127 -30q-97 0 -142 59.5t-28 165.5l16 102h92l-16 -102
q-10 -66 14 -102.5t78 -36.5q42 0 82.5 21.5t71.5 54t68.5 70.5t72.5 70.5t85 54t105 21.5q48 0 87 -16t64.5 -42t47.5 -57t42 -62t40.5 -57t49.5 -42t64 -16q47 0 92.5 30t84 73t81 86t101.5 73t127 30q48 0 87 -16t64.5 -42t47.5 -57t42 -62t40.5 -57t49.5 -42t64 -16
q47 0 92.5 30t84 73t81 86t101.5 73t127 30q58 0 101 -21.5t66.5 -54t46.5 -70.5t40.5 -70.5t48.5 -54t71 -21.5q45 0 80.5 19t61.5 48t51 60t62.5 58.5t82.5 39.5l-311 477h117l403 -602z" />
    <glyph glyph-name="asciicircum_equal.liga" unicode="^&#x3d;" 
d="M-649 860h-117l471 696h96l207 -604h903l-14 -92h-963l-192 596zM823 399h-962l14 93h963z" />
    <glyph glyph-name=".notdef" 
d="M1044 0h-860v1495h860v-1495zM287 1393v-1170l614 1170h-614zM942 1272l-614 -1170h614v1170z" />
    <glyph glyph-name=".null" horiz-adv-x="0" 
 />
    <glyph glyph-name="nonmarkingreturn" horiz-adv-x="682" 
 />
    <glyph glyph-name="uni2400" unicode="&#x2400;" 
d="M70 502h-33l78 493h45l110 -456q1 14 5 43t4 34l61 379h31l-78 -493h-45l-109 456q0 -19 -10 -77zM571 496q-58 0 -87.5 36.5t-20.5 98.5l57 364h35l-57 -364q-7 -51 13.5 -78t66.5 -27q44 0 73.5 28t36.5 77l60 364h32l-57 -364q-10 -61 -51.5 -98t-100.5 -37zM1169 502
h-272l78 493h33l-74 -463h242z" />
    <glyph glyph-name="uni2400" 
d="M70 502h-33l78 493h45l110 -456q1 14 5 43t4 34l61 379h31l-78 -493h-45l-109 456q0 -19 -10 -77zM571 496q-58 0 -87.5 36.5t-20.5 98.5l57 364h35l-57 -364q-7 -51 13.5 -78t66.5 -27q44 0 73.5 28t36.5 77l60 364h32l-57 -364q-10 -61 -51.5 -98t-100.5 -37zM1169 502
h-272l78 493h33l-74 -463h242z" />
    <glyph glyph-name="uni2401" unicode="&#x2401;" 
d="M166 496q-67 0 -101.5 35.5t-25.5 95.5h35q-8 -46 19 -73.5t79 -27.5q51 0 84 25.5t39 69.5q12 85 -66 110l-55 17q-45 13 -66.5 49t-13.5 82q7 57 49 89.5t105 32.5q62 0 92.5 -34.5t21.5 -94.5h-34q7 44 -16.5 71.5t-69.5 27.5t-77.5 -23.5t-37.5 -64.5
q-6 -38 10.5 -66t50.5 -39l54 -16q47 -15 71.5 -53.5t16.5 -85.5q-9 -58 -53.5 -92.5t-110.5 -34.5zM571 496q-60 0 -89.5 36t-20.5 99l39 235q9 62 50 98.5t101 36.5t90 -36.5t21 -98.5l-37 -235q-10 -63 -52 -99t-102 -36zM909 502h-32l77 493h35l-37 -221h191l35 221h32
l-77 -493h-33l37 239h-189zM575 524q46 0 77 28t38 79l39 235q7 51 -14.5 79t-67.5 28t-77 -28t-38 -79l-36 -235q-9 -51 12 -79t67 -28z" />
    <glyph glyph-name="uni2401" 
d="M166 496q-67 0 -101.5 35.5t-25.5 95.5h35q-8 -46 19 -73.5t79 -27.5q51 0 84 25.5t39 69.5q12 85 -66 110l-55 17q-45 13 -66.5 49t-13.5 82q7 57 49 89.5t105 32.5q62 0 92.5 -34.5t21.5 -94.5h-34q7 44 -16.5 71.5t-69.5 27.5t-77.5 -23.5t-37.5 -64.5
q-6 -38 10.5 -66t50.5 -39l54 -16q47 -15 71.5 -53.5t16.5 -85.5q-9 -58 -53.5 -92.5t-110.5 -34.5zM571 496q-60 0 -89.5 36t-20.5 99l39 235q9 62 50 98.5t101 36.5t90 -36.5t21 -98.5l-37 -235q-10 -63 -52 -99t-102 -36zM909 502h-32l77 493h35l-37 -221h191l35 221h32
l-77 -493h-33l37 239h-189zM575 524q46 0 77 28t38 79l39 235q7 51 -14.5 79t-67.5 28t-77 -28t-38 -79l-36 -235q-9 -51 12 -79t67 -28z" />
    <glyph glyph-name="uni2402" unicode="&#x2402;" 
d="M166 496q-67 0 -101.5 35.5t-25.5 95.5h35q-8 -46 19 -73.5t79 -27.5q51 0 84 25.5t39 69.5q12 85 -66 110l-55 17q-45 13 -66.5 49t-13.5 82q7 57 49 89.5t105 32.5q62 0 92.5 -34.5t21.5 -94.5h-34q7 44 -16.5 71.5t-69.5 27.5t-77.5 -23.5t-37.5 -64.5
q-6 -38 10.5 -66t50.5 -39l54 -16q47 -15 71.5 -53.5t16.5 -85.5q-9 -58 -53.5 -92.5t-110.5 -34.5zM590 502h-33l72 463h-146l6 30h324l-6 -30h-143zM877 502h-39l188 258l-100 235h37l57 -149q4 -9 15.5 -35t13.5 -29q5 8 22.5 31.5t22.5 32.5l108 149h37l-174 -235
l106 -258h-36l-66 170q-2 8 -13 32t-14 31l-45 -63z" />
    <glyph glyph-name="uni2402" 
d="M166 496q-67 0 -101.5 35.5t-25.5 95.5h35q-8 -46 19 -73.5t79 -27.5q51 0 84 25.5t39 69.5q12 85 -66 110l-55 17q-45 13 -66.5 49t-13.5 82q7 57 49 89.5t105 32.5q62 0 92.5 -34.5t21.5 -94.5h-34q7 44 -16.5 71.5t-69.5 27.5t-77.5 -23.5t-37.5 -64.5
q-6 -38 10.5 -66t50.5 -39l54 -16q47 -15 71.5 -53.5t16.5 -85.5q-9 -58 -53.5 -92.5t-110.5 -34.5zM590 502h-33l72 463h-146l6 30h324l-6 -30h-143zM877 502h-39l188 258l-100 235h37l57 -149q4 -9 15.5 -35t13.5 -29q5 8 22.5 31.5t22.5 32.5l108 149h37l-174 -235
l106 -258h-36l-66 170q-2 8 -13 32t-14 31l-45 -63z" />
    <glyph glyph-name="uni2403" unicode="&#x2403;" 
d="M307 502h-264l78 493h264l-6 -30h-229l-29 -191h205l-4 -31h-207l-33 -211h229zM590 502h-33l72 463h-146l6 30h324l-6 -30h-143zM877 502h-39l188 258l-100 235h37l57 -149q4 -9 15.5 -35t13.5 -29q5 8 22.5 31.5t22.5 32.5l108 149h37l-174 -235l106 -258h-36l-66 170
q-2 8 -13 32t-14 31l-45 -63z" />
    <glyph glyph-name="uni2403" 
d="M307 502h-264l78 493h264l-6 -30h-229l-29 -191h205l-4 -31h-207l-33 -211h229zM590 502h-33l72 463h-146l6 30h324l-6 -30h-143zM877 502h-39l188 258l-100 235h37l57 -149q4 -9 15.5 -35t13.5 -29q5 8 22.5 31.5t22.5 32.5l108 149h37l-174 -235l106 -258h-36l-66 170
q-2 8 -13 32t-14 31l-45 -63z" />
    <glyph glyph-name="uni2404" unicode="&#x2404;" 
d="M571 496q-60 0 -89.5 36t-20.5 99l39 235q9 62 50 98.5t101 36.5t90 -36.5t21 -98.5l-37 -235q-10 -63 -52 -99t-102 -36zM307 502h-264l78 493h264l-6 -30h-229l-29 -191h205l-4 -31h-207l-33 -211h229zM1022 502h-33l72 463h-146l7 30h323l-6 -30h-143zM575 524
q46 0 77 28t38 79l39 235q7 51 -14.5 79t-67.5 28t-77 -28t-38 -79l-36 -235q-9 -51 12 -79t67 -28z" />
    <glyph glyph-name="uni2404" 
d="M571 496q-60 0 -89.5 36t-20.5 99l39 235q9 62 50 98.5t101 36.5t90 -36.5t21 -98.5l-37 -235q-10 -63 -52 -99t-102 -36zM307 502h-264l78 493h264l-6 -30h-229l-29 -191h205l-4 -31h-207l-33 -211h229zM1022 502h-33l72 463h-146l7 30h323l-6 -30h-143zM575 524
q46 0 77 28t38 79l39 235q7 51 -14.5 79t-67.5 28t-77 -28t-38 -79l-36 -235q-9 -51 12 -79t67 -28z" />
    <glyph glyph-name="uni2405" unicode="&#x2405;" 
d="M1083 1001q60 0 90 -37.5t21 -97.5l-37 -235q-8 -44 -31.5 -77t-58.5 -46l57 -127h-34l-54 117q-4 0 -15 -1t-17 -1q-60 0 -90 36.5t-21 98.5l39 235q9 62 50 98.5t101 36.5zM307 502h-264l78 493h264l-6 -30h-229l-29 -191h205l-4 -31h-207l-33 -211h229zM686 616
l62 379h30l-78 -493h-45l-108 456q0 -19 -10 -77l-60 -379h-33l78 493h45l111 -456q1 14 4.5 43t3.5 34zM1122 631l39 235q7 49 -14.5 77t-67.5 28t-76.5 -27.5t-37.5 -77.5l-37 -235q-9 -51 12.5 -78t69.5 -27q46 0 75.5 27t36.5 78z" />
    <glyph glyph-name="uni2405" 
d="M1083 1001q60 0 90 -37.5t21 -97.5l-37 -235q-8 -44 -31.5 -77t-58.5 -46l57 -127h-34l-54 117q-4 0 -15 -1t-17 -1q-60 0 -90 36.5t-21 98.5l39 235q9 62 50 98.5t101 36.5zM307 502h-264l78 493h264l-6 -30h-229l-29 -191h205l-4 -31h-207l-33 -211h229zM686 616
l62 379h30l-78 -493h-45l-108 456q0 -19 -10 -77l-60 -379h-33l78 493h45l111 -456q1 14 4.5 43t3.5 34zM1122 631l39 235q7 49 -14.5 77t-67.5 28t-76.5 -27.5t-37.5 -77.5l-37 -235q-9 -51 12.5 -78t69.5 -27q46 0 75.5 27t36.5 78z" />
    <glyph glyph-name="uni2406" unicode="&#x2406;" 
d="M575 496q-61 0 -92 36.5t-22 98.5l39 235q9 61 51 98t104 37q63 0 94.5 -38t22.5 -103h-35q7 52 -16 81.5t-70 29.5q-48 0 -80 -28t-39 -77l-36 -235q-8 -50 14.5 -77.5t69.5 -27.5q50 0 82.5 29.5t39.5 81.5h33q-11 -65 -54 -103t-106 -38zM43 502h-35l215 493h41
l58 -493h-33l-17 141h-170zM909 502h-32l77 493h35l-37 -223h105l143 223h39l-154 -239l82 -254h-39l-75 239h-105zM203 874l-86 -200h151l-20 200q-8 63 -8 93q-1 -1 -6.5 -16.5t-13.5 -35.5t-17 -41z" />
    <glyph glyph-name="uni2406" 
d="M575 496q-61 0 -92 36.5t-22 98.5l39 235q9 61 51 98t104 37q63 0 94.5 -38t22.5 -103h-35q7 52 -16 81.5t-70 29.5q-48 0 -80 -28t-39 -77l-36 -235q-8 -50 14.5 -77.5t69.5 -27.5q50 0 82.5 29.5t39.5 81.5h33q-11 -65 -54 -103t-106 -38zM43 502h-35l215 493h41
l58 -493h-33l-17 141h-170zM909 502h-32l77 493h35l-37 -223h105l143 223h39l-154 -239l82 -254h-39l-75 239h-105zM203 874l-86 -200h151l-20 200q-8 63 -8 93q-1 -1 -6.5 -16.5t-13.5 -35.5t-17 -41z" />
    <glyph glyph-name="uni2407" unicode="&#x2407;" 
d="M115 995h127q61 0 92 -35t22 -92q-6 -44 -32 -74t-64 -38q41 -9 60 -40.5t12 -78.5q-9 -61 -54.5 -98t-111.5 -37h-129zM727 502h-264l78 493h264l-6 -30h-230l-28 -191h204l-4 -31h-206l-33 -211h229zM1008 995l-74 -463h242l-7 -30h-272l78 493h33zM324 868
q6 45 -17.5 71t-70.5 26h-93l-30 -195h94q47 0 78 26t39 72zM299 637q8 47 -18 74.5t-78 27.5h-94l-33 -207h94q53 0 87.5 28t41.5 77z" />
    <glyph glyph-name="uni2407" 
d="M115 995h127q61 0 92 -35t22 -92q-6 -44 -32 -74t-64 -38q41 -9 60 -40.5t12 -78.5q-9 -61 -54.5 -98t-111.5 -37h-129zM727 502h-264l78 493h264l-6 -30h-230l-28 -191h204l-4 -31h-206l-33 -211h229zM1008 995l-74 -463h242l-7 -30h-272l78 493h33zM324 868
q6 45 -17.5 71t-70.5 26h-93l-30 -195h94q47 0 78 26t39 72zM299 637q8 47 -18 74.5t-78 27.5h-94l-33 -207h94q53 0 87.5 28t41.5 77z" />
    <glyph glyph-name="uni2408" unicode="&#x2408;" 
d="M989 872h-35q7 44 -16.5 71.5t-69.5 27.5t-77 -23.5t-37 -64.5q-6 -38 10.5 -66t50.5 -39l53 -16q47 -15 71.5 -53.5t16.5 -85.5q-9 -58 -53 -92.5t-110 -34.5q-67 0 -101.5 35.5t-25.5 95.5h34q-8 -46 19.5 -73.5t79.5 -27.5q51 0 84 25.5t39 69.5q12 85 -66 110l-55 17
q-45 13 -66.5 49t-13.5 82q7 57 48.5 89.5t104.5 32.5q62 0 93 -34.5t22 -94.5zM326 995h127q61 0 92 -35t22 -92q-6 -44 -32 -74t-64 -38q41 -9 60 -40.5t12 -78.5q-9 -61 -54.5 -98t-111.5 -37h-129zM535 868q6 44 -18 70.5t-71 26.5h-92l-30 -195h94q47 0 78 26t39 72z
M510 637q8 47 -18 74.5t-78 27.5h-95l-32 -207h94q53 0 87.5 28t41.5 77z" />
    <glyph glyph-name="uni2408" 
d="M989 872h-35q7 44 -16.5 71.5t-69.5 27.5t-77 -23.5t-37 -64.5q-6 -38 10.5 -66t50.5 -39l53 -16q47 -15 71.5 -53.5t16.5 -85.5q-9 -58 -53 -92.5t-110 -34.5q-67 0 -101.5 35.5t-25.5 95.5h34q-8 -46 19.5 -73.5t79.5 -27.5q51 0 84 25.5t39 69.5q12 85 -66 110l-55 17
q-45 13 -66.5 49t-13.5 82q7 57 48.5 89.5t104.5 32.5q62 0 93 -34.5t22 -94.5zM326 995h127q61 0 92 -35t22 -92q-6 -44 -32 -74t-64 -38q41 -9 60 -40.5t12 -78.5q-9 -61 -54.5 -98t-111.5 -37h-129zM535 868q6 44 -18 70.5t-71 26.5h-92l-30 -195h94q47 0 78 26t39 72z
M510 637q8 47 -18 74.5t-78 27.5h-95l-32 -207h94q53 0 87.5 28t41.5 77z" />
    <glyph glyph-name="uni240B" unicode="&#x240b;" 
d="M397 502h-43l-57 493h35l41 -372q6 -58 6 -95q9 26 37 95l159 372h35zM809 502h-33l72 463h-146l7 30h323l-6 -30h-143z" />
    <glyph glyph-name="uni240B" 
d="M397 502h-43l-57 493h35l41 -372q6 -58 6 -95q9 26 37 95l159 372h35zM809 502h-33l72 463h-146l7 30h323l-6 -30h-143z" />
    <glyph glyph-name="uni240C" unicode="&#x240c;" 
d="M285 502h-35l80 493h276l-6 -30h-242l-32 -199h221l-6 -31h-219zM700 502h-34l79 493h277l-6 -30h-242l-33 -199h222l-7 -31h-219z" />
    <glyph glyph-name="uni240C" 
d="M285 502h-35l80 493h276l-6 -30h-242l-32 -199h221l-6 -31h-219zM700 502h-34l79 493h277l-6 -30h-242l-33 -199h222l-7 -31h-219z" />
    <glyph glyph-name="CR" unicode="&#xd;" horiz-adv-x="819" 
 />
    <glyph glyph-name="uni240E" unicode="&#x240e;" 
d="M377 496q-67 0 -101.5 35.5t-25.5 95.5h35q-8 -46 19 -73.5t79 -27.5q51 0 84 25.5t39 69.5q12 85 -66 110l-55 17q-45 13 -66.5 49t-13.5 82q7 57 49 89.5t105 32.5q62 0 92.5 -34.5t21.5 -94.5h-34q7 44 -16.5 71.5t-69.5 27.5t-77.5 -23.5t-37.5 -64.5
q-6 -38 10.5 -66t50.5 -39l54 -16q47 -15 71.5 -53.5t16.5 -85.5q-9 -58 -53.5 -92.5t-110.5 -34.5zM791 496q-60 0 -90 36t-21 99l39 235q9 62 50 98.5t101 36.5t90 -36.5t21 -98.5l-37 -235q-10 -63 -51.5 -99t-101.5 -36zM795 524q46 0 76.5 28t37.5 79l39 235
q7 51 -14.5 79t-67.5 28t-76.5 -28t-37.5 -79l-37 -235q-9 -51 12.5 -79t67.5 -28z" />
    <glyph glyph-name="uni240E" 
d="M377 496q-67 0 -101.5 35.5t-25.5 95.5h35q-8 -46 19 -73.5t79 -27.5q51 0 84 25.5t39 69.5q12 85 -66 110l-55 17q-45 13 -66.5 49t-13.5 82q7 57 49 89.5t105 32.5q62 0 92.5 -34.5t21.5 -94.5h-34q7 44 -16.5 71.5t-69.5 27.5t-77.5 -23.5t-37.5 -64.5
q-6 -38 10.5 -66t50.5 -39l54 -16q47 -15 71.5 -53.5t16.5 -85.5q-9 -58 -53.5 -92.5t-110.5 -34.5zM791 496q-60 0 -90 36t-21 99l39 235q9 62 50 98.5t101 36.5t90 -36.5t21 -98.5l-37 -235q-10 -63 -51.5 -99t-101.5 -36zM795 524q46 0 76.5 28t37.5 79l39 235
q7 51 -14.5 79t-67.5 28t-76.5 -28t-37.5 -79l-37 -235q-9 -51 12.5 -79t67.5 -28z" />
    <glyph glyph-name="uni240F" unicode="&#x240f;" 
d="M377 496q-67 0 -101.5 35.5t-25.5 95.5h35q-8 -46 19 -73.5t79 -27.5q51 0 84 25.5t39 69.5q12 85 -66 110l-55 17q-45 13 -66.5 49t-13.5 82q7 57 49 89.5t105 32.5q62 0 92.5 -34.5t21.5 -94.5h-34q7 44 -16.5 71.5t-69.5 27.5t-77.5 -23.5t-37.5 -64.5
q-6 -38 10.5 -66t50.5 -39l54 -16q47 -15 71.5 -53.5t16.5 -85.5q-9 -58 -53.5 -92.5t-110.5 -34.5zM913 502h-243l4 30h106l68 433h-105l5 30h243l-4 -30h-104l-70 -433h105z" />
    <glyph glyph-name="uni240F" 
d="M377 496q-67 0 -101.5 35.5t-25.5 95.5h35q-8 -46 19 -73.5t79 -27.5q51 0 84 25.5t39 69.5q12 85 -66 110l-55 17q-45 13 -66.5 49t-13.5 82q7 57 49 89.5t105 32.5q62 0 92.5 -34.5t21.5 -94.5h-34q7 44 -16.5 71.5t-69.5 27.5t-77.5 -23.5t-37.5 -64.5
q-6 -38 10.5 -66t50.5 -39l54 -16q47 -15 71.5 -53.5t16.5 -85.5q-9 -58 -53.5 -92.5t-110.5 -34.5zM913 502h-243l4 30h106l68 433h-105l5 30h243l-4 -30h-104l-70 -433h105z" />
    <glyph glyph-name="uni2410" unicode="&#x2410;" 
d="M145 502h-108l78 493h108q67 0 102.5 -40.5t26.5 -108.5l-33 -195q-10 -67 -58 -108t-116 -41zM737 502h-272l78 493h32l-73 -463h241zM1147 502h-264l78 493h264l-6 -30h-230l-28 -191h204l-4 -31h-207l-32 -211h229zM143 965l-67 -433h74q54 0 91 32.5t46 86.5l30 195
q8 54 -19 86.5t-81 32.5h-74z" />
    <glyph glyph-name="uni2410" 
d="M145 502h-108l78 493h108q67 0 102.5 -40.5t26.5 -108.5l-33 -195q-10 -67 -58 -108t-116 -41zM737 502h-272l78 493h32l-73 -463h241zM1147 502h-264l78 493h264l-6 -30h-230l-28 -191h204l-4 -31h-207l-32 -211h229zM143 965l-67 -433h74q54 0 91 32.5t46 86.5l30 195
q8 54 -19 86.5t-81 32.5h-74z" />
    <glyph glyph-name="uni2411" unicode="&#x2411;" 
d="M575 496q-61 0 -92 36.5t-22 98.5l39 235q9 61 51 98t104 37q63 0 94.5 -38t22.5 -103h-35q7 52 -16 81.5t-70 29.5q-48 0 -80 -28t-39 -77l-36 -235q-8 -50 14.5 -77.5t69.5 -27.5q50 0 82.5 29.5t39.5 81.5h33q-11 -65 -54 -103t-106 -38zM145 502h-108l78 493h108
q67 0 102.5 -40.5t26.5 -108.5l-33 -195q-10 -67 -58 -108t-116 -41zM1159 502h-291l6 30h140l67 433l-149 -99l6 37l139 92h45l-73 -463h116zM143 965l-67 -433h74q54 0 91 32.5t46 86.5l30 195q8 54 -19 86.5t-81 32.5h-74z" />
    <glyph glyph-name="uni2411" 
d="M575 496q-61 0 -92 36.5t-22 98.5l39 235q9 61 51 98t104 37q63 0 94.5 -38t22.5 -103h-35q7 52 -16 81.5t-70 29.5q-48 0 -80 -28t-39 -77l-36 -235q-8 -50 14.5 -77.5t69.5 -27.5q50 0 82.5 29.5t39.5 81.5h33q-11 -65 -54 -103t-106 -38zM145 502h-108l78 493h108
q67 0 102.5 -40.5t26.5 -108.5l-33 -195q-10 -67 -58 -108t-116 -41zM1159 502h-291l6 30h140l67 433l-149 -99l6 37l139 92h45l-73 -463h116zM143 965l-67 -433h74q54 0 91 32.5t46 86.5l30 195q8 54 -19 86.5t-81 32.5h-74z" />
    <glyph glyph-name="uni2412" unicode="&#x2412;" 
d="M575 496q-61 0 -92 36.5t-22 98.5l39 235q9 61 51 98t104 37q63 0 94.5 -38t22.5 -103h-35q7 52 -16 81.5t-70 29.5q-48 0 -80 -28t-39 -77l-36 -235q-8 -50 14.5 -77.5t69.5 -27.5q50 0 82.5 29.5t39.5 81.5h33q-11 -65 -54 -103t-106 -38zM1159 502h-293l6 35l183 159
q102 89 114 168q8 50 -16.5 79.5t-75.5 29.5t-85 -29.5t-42 -79.5h-35q10 63 55.5 100t110.5 37q66 0 99 -36.5t24 -98.5q-14 -87 -129 -190l-164 -144h254zM145 502h-108l78 493h108q67 0 102.5 -40.5t26.5 -108.5l-33 -195q-10 -67 -58 -108t-116 -41zM143 965l-67 -433
h74q54 0 91 32.5t46 86.5l30 195q8 54 -19 86.5t-81 32.5h-74z" />
    <glyph glyph-name="uni2412" 
d="M575 496q-61 0 -92 36.5t-22 98.5l39 235q9 61 51 98t104 37q63 0 94.5 -38t22.5 -103h-35q7 52 -16 81.5t-70 29.5q-48 0 -80 -28t-39 -77l-36 -235q-8 -50 14.5 -77.5t69.5 -27.5q50 0 82.5 29.5t39.5 81.5h33q-11 -65 -54 -103t-106 -38zM1159 502h-293l6 35l183 159
q102 89 114 168q8 50 -16.5 79.5t-75.5 29.5t-85 -29.5t-42 -79.5h-35q10 63 55.5 100t110.5 37q66 0 99 -36.5t24 -98.5q-14 -87 -129 -190l-164 -144h254zM145 502h-108l78 493h108q67 0 102.5 -40.5t26.5 -108.5l-33 -195q-10 -67 -58 -108t-116 -41zM143 965l-67 -433
h74q54 0 91 32.5t46 86.5l30 195q8 54 -19 86.5t-81 32.5h-74z" />
    <glyph glyph-name="uni2413" unicode="&#x2413;" 
d="M655 1001q63 0 94.5 -38t22.5 -103h-35q7 52 -16 81.5t-70 29.5q-48 0 -80 -28t-39 -77l-36 -235q-8 -50 14.5 -77.5t69.5 -27.5q50 0 82.5 29.5t39.5 81.5h33q-11 -65 -54 -103t-106 -38q-61 0 -92 36.5t-22 98.5l39 235q9 61 51 98t104 37zM115 995h108
q67 0 102.5 -40.5t26.5 -108.5l-33 -195q-10 -67 -58 -108t-116 -41h-108zM958 995h246l-4 -32l-149 -154q61 -1 90 -36t20 -95l-8 -47q-9 -62 -51.5 -98.5t-104.5 -36.5t-92.5 36t-21.5 99h35q-7 -49 15 -77t68 -28q48 0 80 28t39 77l8 47q6 48 -16.5 75t-69.5 27h-34l4 29
l151 156h-211zM287 651l30 195q8 54 -19 86.5t-81 32.5h-74l-67 -433h74q54 0 91 32.5t46 86.5z" />
    <glyph glyph-name="uni2413" 
d="M655 1001q63 0 94.5 -38t22.5 -103h-35q7 52 -16 81.5t-70 29.5q-48 0 -80 -28t-39 -77l-36 -235q-8 -50 14.5 -77.5t69.5 -27.5q50 0 82.5 29.5t39.5 81.5h33q-11 -65 -54 -103t-106 -38q-61 0 -92 36.5t-22 98.5l39 235q9 61 51 98t104 37zM115 995h108
q67 0 102.5 -40.5t26.5 -108.5l-33 -195q-10 -67 -58 -108t-116 -41h-108zM958 995h246l-4 -32l-149 -154q61 -1 90 -36t20 -95l-8 -47q-9 -62 -51.5 -98.5t-104.5 -36.5t-92.5 36t-21.5 99h35q-7 -49 15 -77t68 -28q48 0 80 28t39 77l8 47q6 48 -16.5 75t-69.5 27h-34l4 29
l151 156h-211zM287 651l30 195q8 54 -19 86.5t-81 32.5h-74l-67 -433h74q54 0 91 32.5t46 86.5z" />
    <glyph glyph-name="uni2414" unicode="&#x2414;" 
d="M575 496q-61 0 -92 36.5t-22 98.5l39 235q9 61 51 98t104 37q63 0 94.5 -38t22.5 -103h-35q7 52 -16 81.5t-70 29.5q-48 0 -80 -28t-39 -77l-36 -235q-8 -50 14.5 -77.5t69.5 -27.5q50 0 82.5 29.5t39.5 81.5h33q-11 -65 -54 -103t-106 -38zM145 502h-108l78 493h108
q67 0 102.5 -40.5t26.5 -108.5l-33 -195q-10 -67 -58 -108t-116 -41zM1120 502h-35l19 114h-227l12 68l241 311h39l-247 -321l-7 -27h193l22 139h35zM143 965l-67 -433h74q54 0 91 32.5t46 86.5l30 195q8 54 -19 86.5t-81 32.5h-74z" />
    <glyph glyph-name="uni2414" 
d="M575 496q-61 0 -92 36.5t-22 98.5l39 235q9 61 51 98t104 37q63 0 94.5 -38t22.5 -103h-35q7 52 -16 81.5t-70 29.5q-48 0 -80 -28t-39 -77l-36 -235q-8 -50 14.5 -77.5t69.5 -27.5q50 0 82.5 29.5t39.5 81.5h33q-11 -65 -54 -103t-106 -38zM145 502h-108l78 493h108
q67 0 102.5 -40.5t26.5 -108.5l-33 -195q-10 -67 -58 -108t-116 -41zM1120 502h-35l19 114h-227l12 68l241 311h39l-247 -321l-7 -27h193l22 139h35zM143 965l-67 -433h74q54 0 91 32.5t46 86.5l30 195q8 54 -19 86.5t-81 32.5h-74z" />
    <glyph glyph-name="uni2415" unicode="&#x2415;" 
d="M70 502h-33l78 493h45l110 -456q1 14 5 43t4 34l61 379h31l-78 -493h-45l-109 456q0 -19 -10 -77zM451 502h-35l215 493h41l57 -493h-33l-16 141h-170zM909 502h-32l77 493h35l-37 -223h105l143 223h39l-154 -239l82 -254h-39l-75 239h-105zM610 874l-86 -200h152
l-21 200q-8 63 -8 93q-1 -1 -6.5 -16.5t-13.5 -35.5t-17 -41z" />
    <glyph glyph-name="uni2415" 
d="M70 502h-33l78 493h45l110 -456q1 14 5 43t4 34l61 379h31l-78 -493h-45l-109 456q0 -19 -10 -77zM451 502h-35l215 493h41l57 -493h-33l-16 141h-170zM909 502h-32l77 493h35l-37 -223h105l143 223h39l-154 -239l82 -254h-39l-75 239h-105zM610 874l-86 -200h152
l-21 200q-8 63 -8 93q-1 -1 -6.5 -16.5t-13.5 -35.5t-17 -41z" />
    <glyph glyph-name="uni2416" unicode="&#x2416;" 
d="M166 496q-67 0 -101.5 35.5t-25.5 95.5h35q-8 -46 19 -73.5t79 -27.5q51 0 84 25.5t39 69.5q12 85 -66 110l-55 17q-45 13 -66.5 49t-13.5 82q7 57 49 89.5t105 32.5q62 0 92.5 -34.5t21.5 -94.5h-34q7 44 -16.5 71.5t-69.5 27.5t-77.5 -23.5t-37.5 -64.5
q-6 -38 10.5 -66t50.5 -39l54 -16q47 -15 71.5 -53.5t16.5 -85.5q-9 -58 -53.5 -92.5t-110.5 -34.5zM590 502h-35l31 188l-105 305h35l76 -223l14 -47q3 4 13.5 20t17.5 27l145 223h37l-201 -305zM909 502h-32l77 493h45l111 -456q1 14 4.5 43t3.5 34l62 379h30l-77 -493
h-46l-108 456q0 -19 -10 -77z" />
    <glyph glyph-name="uni2416" 
d="M166 496q-67 0 -101.5 35.5t-25.5 95.5h35q-8 -46 19 -73.5t79 -27.5q51 0 84 25.5t39 69.5q12 85 -66 110l-55 17q-45 13 -66.5 49t-13.5 82q7 57 49 89.5t105 32.5q62 0 92.5 -34.5t21.5 -94.5h-34q7 44 -16.5 71.5t-69.5 27.5t-77.5 -23.5t-37.5 -64.5
q-6 -38 10.5 -66t50.5 -39l54 -16q47 -15 71.5 -53.5t16.5 -85.5q-9 -58 -53.5 -92.5t-110.5 -34.5zM590 502h-35l31 188l-105 305h35l76 -223l14 -47q3 4 13.5 20t17.5 27l145 223h37l-201 -305zM909 502h-32l77 493h45l111 -456q1 14 4.5 43t3.5 34l62 379h30l-77 -493
h-46l-108 456q0 -19 -10 -77z" />
    <glyph glyph-name="uni2417" unicode="&#x2417;" 
d="M307 502h-264l78 493h264l-6 -30h-229l-29 -191h205l-4 -31h-207l-33 -211h229zM629 965h-146l6 30h324l-6 -30h-143l-74 -463h-33zM1196 868q-6 -44 -32 -74t-64 -38q41 -9 60 -40.5t11 -78.5q-9 -61 -54 -98t-111 -37h-129l77 493h127q61 0 92.5 -35t22.5 -92zM952 770
h95q47 0 77.5 26t38.5 72q6 45 -17.5 71t-70.5 26h-92zM1139 637q8 47 -18.5 74.5t-78.5 27.5h-94l-33 -207h95q53 0 87.5 28t41.5 77z" />
    <glyph glyph-name="uni2417" 
d="M307 502h-264l78 493h264l-6 -30h-229l-29 -191h205l-4 -31h-207l-33 -211h229zM629 965h-146l6 30h324l-6 -30h-143l-74 -463h-33zM1196 868q-6 -44 -32 -74t-64 -38q41 -9 60 -40.5t11 -78.5q-9 -61 -54 -98t-111 -37h-129l77 493h127q61 0 92.5 -35t22.5 -92zM952 770
h95q47 0 77.5 26t38.5 72q6 45 -17.5 71t-70.5 26h-92zM1139 637q8 47 -18.5 74.5t-78.5 27.5h-94l-33 -207h95q53 0 87.5 28t41.5 77z" />
    <glyph glyph-name="uni2418" unicode="&#x2418;" 
d="M168 496q-61 0 -92.5 36.5t-22.5 98.5l39 235q9 61 51.5 98t104.5 37q63 0 94.5 -38t22.5 -103h-35q7 52 -16 81.5t-70 29.5q-48 0 -80 -28t-39 -77l-37 -235q-8 -50 14.5 -77.5t69.5 -27.5q50 0 83 29.5t40 81.5h33q-11 -65 -54 -103t-106 -38zM463 502h-35l215 493h41
l57 -493h-32l-17 141h-170zM909 502h-32l77 493h45l111 -456q1 14 4.5 43t3.5 34l62 379h30l-77 -493h-46l-108 456q0 -19 -10 -77zM623 874l-86 -200h151l-20 200q-9 70 -9 93q-1 -2 -6 -16.5t-13 -35t-17 -41.5z" />
    <glyph glyph-name="uni2418" 
d="M168 496q-61 0 -92.5 36.5t-22.5 98.5l39 235q9 61 51.5 98t104.5 37q63 0 94.5 -38t22.5 -103h-35q7 52 -16 81.5t-70 29.5q-48 0 -80 -28t-39 -77l-37 -235q-8 -50 14.5 -77.5t69.5 -27.5q50 0 83 29.5t40 81.5h33q-11 -65 -54 -103t-106 -38zM463 502h-35l215 493h41
l57 -493h-32l-17 141h-170zM909 502h-32l77 493h45l111 -456q1 14 4.5 43t3.5 34l62 379h30l-77 -493h-46l-108 456q0 -19 -10 -77zM623 874l-86 -200h151l-20 200q-9 70 -9 93q-1 -2 -6 -16.5t-13 -35t-17 -41.5z" />
    <glyph glyph-name="uni2419" unicode="&#x2419;" 
d="M518 502h-264l78 493h264l-6 -30h-230l-28 -191h205l-5 -31h-206l-33 -211h229zM684 502h-33l78 493h49l39 -188q11 -53 12 -64q3 8 31 64l98 188h52l-78 -493h-33l47 297q12 81 33 180l-135 -258h-35l-53 258q-2 -21 -25 -180z" />
    <glyph glyph-name="uni2419" 
d="M518 502h-264l78 493h264l-6 -30h-230l-28 -191h205l-5 -31h-206l-33 -211h229zM684 502h-33l78 493h49l39 -188q11 -53 12 -64q3 8 31 64l98 188h52l-78 -493h-33l47 297q12 81 33 180l-135 -258h-35l-53 258q-2 -21 -25 -180z" />
    <glyph glyph-name="uni241A" unicode="&#x241a;" 
d="M248 1001q62 0 92.5 -34.5t21.5 -94.5h-34q7 44 -16.5 71.5t-69.5 27.5t-77.5 -23.5t-37.5 -64.5q-6 -38 10.5 -66t50.5 -39l54 -16q47 -15 71.5 -53.5t16.5 -85.5q-9 -58 -53.5 -92.5t-110.5 -34.5q-67 0 -101.5 35.5t-25.5 95.5h35q-8 -46 19 -73.5t79 -27.5
q51 0 84 25.5t39 69.5q12 85 -66 110l-55 17q-45 13 -66.5 49t-13.5 82q7 57 49 89.5t105 32.5zM688 631l60 364h32l-57 -364q-10 -61 -51.5 -98t-100.5 -37q-58 0 -87.5 36.5t-20.5 98.5l57 364h35l-57 -364q-7 -51 13.5 -78t66.5 -27q44 0 73.5 28t36.5 77zM1196 868
q-6 -44 -32 -74t-64 -38q41 -9 60 -40.5t11 -78.5q-9 -61 -54 -98t-111 -37h-129l77 493h127q61 0 92.5 -35t22.5 -92zM952 770h95q47 0 77.5 26t38.5 72q6 45 -17.5 71t-70.5 26h-92zM1139 637q8 47 -18.5 74.5t-78.5 27.5h-94l-33 -207h95q53 0 87.5 28t41.5 77z" />
    <glyph glyph-name="uni241A" 
d="M248 1001q62 0 92.5 -34.5t21.5 -94.5h-34q7 44 -16.5 71.5t-69.5 27.5t-77.5 -23.5t-37.5 -64.5q-6 -38 10.5 -66t50.5 -39l54 -16q47 -15 71.5 -53.5t16.5 -85.5q-9 -58 -53.5 -92.5t-110.5 -34.5q-67 0 -101.5 35.5t-25.5 95.5h35q-8 -46 19 -73.5t79 -27.5
q51 0 84 25.5t39 69.5q12 85 -66 110l-55 17q-45 13 -66.5 49t-13.5 82q7 57 49 89.5t105 32.5zM688 631l60 364h32l-57 -364q-10 -61 -51.5 -98t-100.5 -37q-58 0 -87.5 36.5t-20.5 98.5l57 364h35l-57 -364q-7 -51 13.5 -78t66.5 -27q44 0 73.5 28t36.5 77zM1196 868
q-6 -44 -32 -74t-64 -38q41 -9 60 -40.5t11 -78.5q-9 -61 -54 -98t-111 -37h-129l77 493h127q61 0 92.5 -35t22.5 -92zM952 770h95q47 0 77.5 26t38.5 72q6 45 -17.5 71t-70.5 26h-92zM1139 637q8 47 -18.5 74.5t-78.5 27.5h-94l-33 -207h95q53 0 87.5 28t41.5 77z" />
    <glyph glyph-name="uni241B" unicode="&#x241b;" 
d="M573 496q-67 0 -101.5 35.5t-25.5 95.5h35q-8 -46 19.5 -73.5t79.5 -27.5q51 0 83.5 25.5t38.5 69.5q12 86 -65 110l-55 17q-45 13 -66.5 49t-13.5 82q7 57 48.5 89.5t104.5 32.5q62 0 93 -34.5t22 -94.5h-35q7 44 -16.5 71.5t-69.5 27.5t-77 -23.5t-37 -64.5
q-6 -38 10.5 -66t50.5 -39l53 -16q47 -15 71.5 -53.5t16.5 -85.5q-9 -58 -53.5 -92.5t-110.5 -34.5zM1008 496q-61 0 -92.5 36.5t-22.5 98.5l39 235q9 61 51 98t104 37q63 0 94.5 -38t22.5 -103h-35q7 52 -16 81.5t-70 29.5t-79 -28t-39 -77l-37 -235q-8 -50 14.5 -77.5
t69.5 -27.5q50 0 83 29.5t40 81.5h32q-11 -65 -53.5 -103t-105.5 -38zM307 502h-264l78 493h264l-6 -30h-229l-29 -191h205l-4 -31h-207l-33 -211h229z" />
    <glyph glyph-name="uni241B" 
d="M573 496q-67 0 -101.5 35.5t-25.5 95.5h35q-8 -46 19.5 -73.5t79.5 -27.5q51 0 83.5 25.5t38.5 69.5q12 86 -65 110l-55 17q-45 13 -66.5 49t-13.5 82q7 57 48.5 89.5t104.5 32.5q62 0 93 -34.5t22 -94.5h-35q7 44 -16.5 71.5t-69.5 27.5t-77 -23.5t-37 -64.5
q-6 -38 10.5 -66t50.5 -39l53 -16q47 -15 71.5 -53.5t16.5 -85.5q-9 -58 -53.5 -92.5t-110.5 -34.5zM1008 496q-61 0 -92.5 36.5t-22.5 98.5l39 235q9 61 51 98t104 37q63 0 94.5 -38t22.5 -103h-35q7 52 -16 81.5t-70 29.5t-79 -28t-39 -77l-37 -235q-8 -50 14.5 -77.5
t69.5 -27.5q50 0 83 29.5t40 81.5h32q-11 -65 -53.5 -103t-105.5 -38zM307 502h-264l78 493h264l-6 -30h-229l-29 -191h205l-4 -31h-207l-33 -211h229z" />
    <glyph glyph-name="uni241C" unicode="&#x241c;" 
d="M793 496q-67 0 -101.5 35.5t-25.5 95.5h34q-8 -46 19.5 -73.5t79.5 -27.5q51 0 84 25.5t39 69.5q12 85 -66 110l-55 17q-45 13 -66.5 49t-13.5 82q7 57 48.5 89.5t104.5 32.5q62 0 93 -34.5t22 -94.5h-35q7 44 -16.5 71.5t-69.5 27.5t-77 -23.5t-37 -64.5
q-6 -38 10.5 -66t50.5 -39l53 -16q47 -15 71.5 -53.5t16.5 -85.5q-9 -58 -53 -92.5t-110 -34.5zM285 502h-35l80 493h276l-6 -30h-242l-32 -199h221l-6 -31h-219z" />
    <glyph glyph-name="uni241C" 
d="M793 496q-67 0 -101.5 35.5t-25.5 95.5h34q-8 -46 19.5 -73.5t79.5 -27.5q51 0 84 25.5t39 69.5q12 85 -66 110l-55 17q-45 13 -66.5 49t-13.5 82q7 57 48.5 89.5t104.5 32.5q62 0 93 -34.5t22 -94.5h-35q7 44 -16.5 71.5t-69.5 27.5t-77 -23.5t-37 -64.5
q-6 -38 10.5 -66t50.5 -39l53 -16q47 -15 71.5 -53.5t16.5 -85.5q-9 -58 -53 -92.5t-110 -34.5zM285 502h-35l80 493h276l-6 -30h-242l-32 -199h221l-6 -31h-219z" />
    <glyph glyph-name="uni241D" unicode="&#x241d;" 
d="M379 496q-61 0 -92.5 36.5t-22.5 98.5l39 235q9 61 51.5 98t104.5 37q63 0 94 -38t22 -103h-34q7 52 -16 81.5t-70 29.5q-48 0 -80 -28t-39 -77l-37 -235q-8 -50 14.5 -77.5t69.5 -27.5q50 0 83 29.5t40 81.5l10 74h-117l7 30h149l-16 -104q-11 -65 -54 -103t-106 -38z
M793 496q-67 0 -101.5 35.5t-25.5 95.5h34q-8 -46 19.5 -73.5t79.5 -27.5q51 0 84 25.5t39 69.5q12 85 -66 110l-55 17q-45 13 -66.5 49t-13.5 82q7 57 48.5 89.5t104.5 32.5q62 0 93 -34.5t22 -94.5h-35q7 44 -16.5 71.5t-69.5 27.5t-77 -23.5t-37 -64.5q-6 -38 10.5 -66
t50.5 -39l53 -16q47 -15 71.5 -53.5t16.5 -85.5q-9 -58 -53 -92.5t-110 -34.5z" />
    <glyph glyph-name="uni241D" 
d="M379 496q-61 0 -92.5 36.5t-22.5 98.5l39 235q9 61 51.5 98t104.5 37q63 0 94 -38t22 -103h-34q7 52 -16 81.5t-70 29.5q-48 0 -80 -28t-39 -77l-37 -235q-8 -50 14.5 -77.5t69.5 -27.5q50 0 83 29.5t40 81.5l10 74h-117l7 30h149l-16 -104q-11 -65 -54 -103t-106 -38z
M793 496q-67 0 -101.5 35.5t-25.5 95.5h34q-8 -46 19.5 -73.5t79.5 -27.5q51 0 84 25.5t39 69.5q12 85 -66 110l-55 17q-45 13 -66.5 49t-13.5 82q7 57 48.5 89.5t104.5 32.5q62 0 93 -34.5t22 -94.5h-35q7 44 -16.5 71.5t-69.5 27.5t-77 -23.5t-37 -64.5q-6 -38 10.5 -66
t50.5 -39l53 -16q47 -15 71.5 -53.5t16.5 -85.5q-9 -58 -53 -92.5t-110 -34.5z" />
    <glyph glyph-name="uni241E" unicode="&#x241e;" 
d="M989 872h-35q7 44 -16.5 71.5t-69.5 27.5t-77 -23.5t-37 -64.5q-6 -38 10.5 -66t50.5 -39l53 -16q47 -15 71.5 -53.5t16.5 -85.5q-9 -58 -53 -92.5t-110 -34.5q-67 0 -101.5 35.5t-25.5 95.5h34q-8 -46 19.5 -73.5t79.5 -27.5q51 0 84 25.5t39 69.5q12 85 -66 110l-55 17
q-45 13 -66.5 49t-13.5 82q7 57 48.5 89.5t104.5 32.5q62 0 93 -34.5t22 -94.5zM326 995h139q65 0 97 -37t22 -100q-7 -54 -44.5 -89.5t-93.5 -43.5l82 -223h-36l-76 223h-101l-34 -223h-33zM551 860q8 47 -17.5 76t-74.5 29h-105l-32 -209h104q49 0 83 28.5t42 75.5z" />
    <glyph glyph-name="uni241E" 
d="M989 872h-35q7 44 -16.5 71.5t-69.5 27.5t-77 -23.5t-37 -64.5q-6 -38 10.5 -66t50.5 -39l53 -16q47 -15 71.5 -53.5t16.5 -85.5q-9 -58 -53 -92.5t-110 -34.5q-67 0 -101.5 35.5t-25.5 95.5h34q-8 -46 19.5 -73.5t79.5 -27.5q51 0 84 25.5t39 69.5q12 85 -66 110l-55 17
q-45 13 -66.5 49t-13.5 82q7 57 48.5 89.5t104.5 32.5q62 0 93 -34.5t22 -94.5zM326 995h139q65 0 97 -37t22 -100q-7 -54 -44.5 -89.5t-93.5 -43.5l82 -223h-36l-76 223h-101l-34 -223h-33zM551 860q8 47 -17.5 76t-74.5 29h-105l-32 -209h104q49 0 83 28.5t42 75.5z" />
    <glyph glyph-name="uni241F" unicode="&#x241f;" 
d="M793 496q-67 0 -101.5 35.5t-25.5 95.5h34q-8 -46 19.5 -73.5t79.5 -27.5q51 0 84 25.5t39 69.5q12 85 -66 110l-55 17q-45 13 -66.5 49t-13.5 82q7 57 48.5 89.5t104.5 32.5q62 0 93 -34.5t22 -94.5h-35q7 44 -16.5 71.5t-69.5 27.5t-77 -23.5t-37 -64.5
q-6 -38 10.5 -66t50.5 -39l53 -16q47 -15 71.5 -53.5t16.5 -85.5q-9 -58 -53 -92.5t-110 -34.5zM375 496q-59 0 -88.5 37t-20.5 98l58 364h34l-57 -364q-7 -51 13.5 -78t66.5 -27q44 0 74 28t37 77l59 364h33l-58 -364q-11 -62 -52 -98.5t-99 -36.5z" />
    <glyph glyph-name="uni241F" 
d="M793 496q-67 0 -101.5 35.5t-25.5 95.5h34q-8 -46 19.5 -73.5t79.5 -27.5q51 0 84 25.5t39 69.5q12 85 -66 110l-55 17q-45 13 -66.5 49t-13.5 82q7 57 48.5 89.5t104.5 32.5q62 0 93 -34.5t22 -94.5h-35q7 44 -16.5 71.5t-69.5 27.5t-77 -23.5t-37 -64.5
q-6 -38 10.5 -66t50.5 -39l53 -16q47 -15 71.5 -53.5t16.5 -85.5q-9 -58 -53 -92.5t-110 -34.5zM375 496q-59 0 -88.5 37t-20.5 98l58 364h34l-57 -364q-7 -51 13.5 -78t66.5 -27q44 0 74 28t37 77l59 364h33l-58 -364q-11 -62 -52 -98.5t-99 -36.5z" />
    <glyph glyph-name="space" unicode=" " horiz-adv-x="819" 
 />
    <glyph glyph-name="exclam" unicode="!" horiz-adv-x="819" 
d="M408 420h-62l86 747l53 328h127l-53 -328zM322 -10h-11q-51 0 -76.5 30.5t-17.5 81.5q7 51 43.5 82t87.5 31h10q51 0 77 -31t18 -82q-7 -51 -43.5 -81.5t-87.5 -30.5z" />
    <glyph glyph-name="quotedbl" unicode="&#x22;" horiz-adv-x="819" 
d="M303 881h-96l47 430l31 184h135l-31 -184zM713 881h-97l48 430l30 184h135l-30 -184z" />
    <glyph glyph-name="numbersign" unicode="#" 
d="M197 0h-105l150 430h-193l14 90h211l158 455h-225l14 90h244l151 430h105l-152 -430h369l152 430h110l-158 -430h193l-14 -90h-211l-158 -455h225l-14 -90h-244l-149 -430h-105l150 430h-369zM537 975l-158 -455h369l157 455h-368z" />
    <glyph glyph-name="dollar" unicode="$" 
d="M530 -287h-81l43 269q-188 11 -282.5 117.5t-66.5 279.5h103q-20 -130 50 -212t210 -93l102 653l-53 16q-140 45 -206.5 151t-41.5 251q25 161 139.5 259t286.5 109l43 269h82l-43 -269q169 -11 252 -115.5t55 -275.5h-102q20 126 -39 206.5t-180 92.5l-99 -614l58 -19
q146 -47 216.5 -161t45.5 -265q-26 -165 -147 -267t-302 -113zM596 842l29 -11l94 590q-125 -11 -207.5 -82t-101.5 -186q-17 -110 33 -193.5t153 -117.5zM686 702l-98 -628q137 9 224.5 85t107.5 203q19 118 -34.5 206.5t-164.5 123.5z" />
    <glyph glyph-name="percent" unicode="%" 
d="M367 819q-119 0 -177 71.5t-38 194.5l24 154q20 123 100.5 194.5t198.5 71.5q120 0 178.5 -71.5t38.5 -194.5l-24 -154q-20 -123 -100.5 -194.5t-200.5 -71.5zM51 0h-100l1284 1495h100zM381 905q82 0 133 46t64 134l24 154q14 88 -21.5 134t-117.5 46q-80 0 -132 -46.5
t-65 -133.5l-24 -154q-13 -87 23 -133.5t116 -46.5zM809 -10q-120 0 -177.5 71.5t-37.5 194.5l24 154q20 123 100 194.5t200 71.5t178.5 -71.5t38.5 -194.5l-25 -154q-20 -123 -100.5 -194.5t-200.5 -71.5zM823 76q82 0 133 46t64 134l24 154q14 88 -21.5 134t-117.5 46
t-132.5 -46t-63.5 -134l-25 -154q-14 -88 21.5 -134t117.5 -46z" />
    <glyph glyph-name="ampersand" unicode="&#x26;" 
d="M1044 737h103l-283 -407l195 -330h-109l-147 242q-197 -262 -447 -262q-148 0 -218 89.5t-44 247.5l35 228q22 135 98 220.5t193 108.5q-99 166 -76 314q22 140 130.5 234t258.5 94q156 0 237 -99t56 -250h-102q18 105 -41 180.5t-164 75.5q-101 0 -179.5 -69.5
t-93.5 -165.5q-19 -113 80 -281l291 -495zM383 72q193 0 371 252l-283 467q-93 -6 -158 -72.5t-82 -173.5l-34 -228q-19 -108 33.5 -176.5t152.5 -68.5z" />
    <glyph glyph-name="quotesingle" unicode="'" horiz-adv-x="409" 
d="M303 881h-96l22 266l56 348h135l-55 -348z" />
    <glyph glyph-name="parenleft" unicode="(" horiz-adv-x="819" 
d="M621 -156l-15 -90q-259 68 -374 271t-66 507l65 410q50 305 229 508.5t458 269.5l-15 -98q-229 -56 -377.5 -233t-191.5 -447l-66 -410q-43 -270 50 -451.5t303 -236.5z" />
    <glyph glyph-name="parenright" unicode=")" horiz-adv-x="819" 
d="M-41 -246l14 99q229 56 378 233t192 446l65 410q43 271 -49.5 452t-302.5 236l14 90q258 -66 374 -270t67 -508l-66 -410q-50 -305 -228.5 -508t-457.5 -270z" />
    <glyph glyph-name="asterisk" unicode="*" 
d="M467 424l-182 -211l-84 66l184 210q32 37 62.5 67.5t48 45.5t42 34.5t33.5 27.5l-4 30q-1 0 -28 3t-37.5 5t-36.5 7.5t-51.5 13.5t-55.5 20l-231 91l55 102l232 -88q19 -7 36.5 -14.5t30 -13.5t27 -14t22 -12t20.5 -13t16.5 -11.5t16 -11.5t13.5 -10l20 12q0 6 -2 47
t0 81.5t11 94.5l43 266h110l-43 -266q-17 -104 -61 -223l16 -15q6 3 27 16.5t34 21t36 19.5t50.5 22.5t59.5 21.5l264 88l23 -107l-262 -90q-53 -18 -93 -27.5t-83 -14t-48 -5.5l-14 -28q2 -2 31 -33.5t51.5 -63t48.5 -78.5l115 -213l-101 -63l-114 213q-26 49 -40.5 86
t-26.5 79.5t-13 45.5h-23q-10 -14 -29.5 -47.5t-47 -74.5t-68.5 -89z" />
    <glyph glyph-name="plus" unicode="+" 
d="M608 205h-102l67 430h-409l14 92h410l67 430h103l-68 -430h410l-15 -92h-409z" />
    <glyph glyph-name="comma" unicode="," horiz-adv-x="819" 
d="M201 -328h-88l254 637h190z" />
    <glyph glyph-name="hyphen" unicode="-" 
d="M952 631h-655l14 92h656z" />
    <glyph glyph-name="period" unicode="." horiz-adv-x="819" 
d="M317 -20q-69 0 -102 41t-22 112q10 69 57.5 109.5t116.5 40.5t102.5 -40.5t22.5 -109.5q-10 -70 -58 -111.5t-117 -41.5z" />
    <glyph glyph-name="slash" unicode="/" 
d="M184 -225h-114l1028 1925h114z" />
    <glyph glyph-name="zero" unicode="0" 
d="M522 -20q-198 0 -293 118t-63 322l104 655q32 204 165 322.5t331 118.5q196 0 290 -117.5t62 -323.5l-104 -655q-32 -205 -163.5 -322.5t-328.5 -117.5zM539 82q145 0 241 90t121 248l105 655q25 157 -43.5 247.5t-212.5 90.5q-146 0 -244 -90.5t-123 -247.5l-104 -655
q-25 -157 44.5 -247.5t215.5 -90.5zM649 651q-46 0 -74 28.5t-28 74.5t28 74t74 28t74.5 -28t28.5 -74t-28.5 -74.5t-74.5 -28.5z" />
    <glyph glyph-name="one" unicode="1" 
d="M995 0h-880l14 92h424l207 1311l-455 -299l19 115l419 276h136l-224 -1403h355z" />
    <glyph glyph-name="two" unicode="2" 
d="M995 0h-889l17 102l553 490q162 143 246 264t104 242q23 151 -53 239t-230 88t-258 -88.5t-127 -240.5h-102q31 192 167.5 306t334.5 114q200 0 300.5 -111.5t69.5 -300.5q-22 -139 -116.5 -279.5t-272.5 -296.5l-495 -436h766z" />
    <glyph glyph-name="three" unicode="3" 
d="M385 1495h745l-16 -98l-448 -463q183 -5 272.5 -112t60.5 -287l-22 -146q-29 -187 -158 -298t-317 -111q-187 0 -280 110.5t-64 298.5h102q-23 -149 46 -233t212 -84t238 84.5t118 232.5l23 146q23 146 -44.5 226.5t-213.5 80.5h-104l14 88l455 473h-635z" />
    <glyph glyph-name="four" unicode="4" 
d="M872 0h-102l55 348h-686l33 205l735 940h115l-752 -971l-14 -82h584l67 420h103z" />
    <glyph glyph-name="five" unicode="5" 
d="M1114 1403h-639l-104 -625q39 95 132 150t218 55q178 0 255.5 -112t45.5 -318l-23 -135q-31 -201 -160.5 -319.5t-318.5 -118.5q-179 0 -272.5 96t-79.5 264h102q-12 -126 58 -197t209 -71q146 0 240 90.5t120 255.5l23 135q25 161 -41 249.5t-213 88.5
q-107 0 -188 -58.5t-124 -164.5h-102l141 827h737z" />
    <glyph glyph-name="six" unicode="6" 
d="M520 -20q-203 0 -307 129.5t-72 341.5q25 160 187 380l485 664h115l-531 -702l6 -7q42 42 125.5 75.5t178.5 33.5q185 0 278.5 -125.5t61.5 -329.5q-34 -205 -179 -331.5t-348 -128.5zM535 72q158 0 269.5 99.5t139.5 268.5q25 162 -56 265.5t-237 103.5
q-154 0 -267.5 -103.5t-139.5 -265.5q-32 -169 48 -268.5t243 -99.5z" />
    <glyph glyph-name="seven" unicode="7" 
d="M473 0h-121l766 1391h-690l-49 -306h-113l66 410h911l-18 -113z" />
    <glyph glyph-name="eight" unicode="8" 
d="M1133 1159q-17 -113 -112.5 -208.5t-258.5 -166.5l-23 -10l17 -8q162 -89 224.5 -183t41.5 -223q-28 -176 -164 -278t-336 -102t-304.5 102t-76.5 278q22 130 116.5 226t281.5 180l20 10l-20 10q-271 145 -234 373q25 153 157.5 255t303.5 102q114 0 204 -47
t134.5 -129.5t28.5 -180.5zM588 858l69 -39l82 37q135 61 205.5 133.5t85.5 163.5q19 119 -60 194.5t-218 75.5q-135 0 -229.5 -73.5t-114.5 -196.5q-15 -94 29.5 -165.5t150.5 -129.5zM707 696l-66 35l-78 -35q-285 -128 -319 -340q-20 -130 60.5 -207t232.5 -77
t257.5 76.5t125.5 205.5q17 105 -38 191.5t-175 150.5z" />
    <glyph glyph-name="nine" unicode="9" 
d="M463 0h-115l539 702l-6 7q-42 -42 -125 -74.5t-178 -32.5q-169 0 -264.5 124.5t-63.5 317.5q34 211 176 341.5t338 130.5q198 0 299 -130t67 -342q-30 -188 -172 -380zM633 684q151 0 259.5 99.5t137.5 263.5q31 170 -46 273t-234 103q-152 0 -261 -103.5t-137 -275.5
q-26 -161 51.5 -260.5t229.5 -99.5z" />
    <glyph glyph-name="colon" unicode=":" horiz-adv-x="819" 
d="M455 852q-68 0 -102.5 40.5t-24.5 106.5q11 66 59 107t115 41t101.5 -41t23.5 -107t-58 -106.5t-114 -40.5zM315 -20q-67 0 -101.5 40.5t-23.5 106.5t58 106.5t114 40.5q68 0 102.5 -40.5t24.5 -106.5t-58 -106.5t-116 -40.5z" />
    <glyph glyph-name="semicolon" unicode=";" horiz-adv-x="819" 
d="M467 860h-21q-66 0 -99.5 39.5t-22.5 104.5q9 64 55.5 103.5t112.5 39.5h20q64 0 97 -39t24 -104q-11 -65 -56.5 -104.5t-109.5 -39.5zM131 -328h-88l254 637h190z" />
    <glyph glyph-name="less" unicode="&#x3c;" 
d="M997 268l-16 -104l-786 465l14 94l934 465l-19 -113l-645 -315q-110 -56 -182 -86q53 -26 156 -86z" />
    <glyph glyph-name="equal" unicode="=" 
d="M1081 862h-839l14 92h840zM1008 399h-840l14 93h840z" />
    <glyph glyph-name="greater" unicode="&#x3e;" 
d="M1055 629l-934 -465l16 112l645 316q107 52 183 86q-81 42 -154 86l-547 319l19 105l786 -465z" />
    <glyph glyph-name="question" unicode="?" 
d="M571 420h-102l55 348h103q149 0 251.5 86t125.5 231t-53.5 231.5t-225.5 86.5h-246l17 92h245q195 0 294.5 -112t70.5 -298q-29 -187 -163 -298t-331 -111zM453 -10h-11q-51 0 -76.5 30.5t-17.5 81.5q7 51 43.5 82t87.5 31h10q51 0 77 -31t18 -82q-7 -51 -43.5 -81.5
t-87.5 -30.5z" />
    <glyph glyph-name="at" unicode="@" 
d="M795 1516q217 0 322 -142t67 -381l-137 -860h-93l23 133h-14q-26 -70 -96.5 -111.5t-164.5 -41.5q-132 0 -190 82t-33 235l43 266q23 145 105.5 221t214.5 76q100 0 155 -40t56 -113h14l12 143l2 10q32 201 -48.5 316.5t-252.5 115.5q-197 0 -324 -134.5t-167 -379.5
l-107 -673q-37 -236 56 -374t294 -138h154l-14 -93h-154q-248 0 -364.5 163.5t-73.5 441.5l106 673q44 282 205.5 443.5t403.5 161.5zM991 430l43 266q15 98 -29.5 151.5t-142.5 53.5q-101 0 -161.5 -52t-75.5 -153l-43 -266q-34 -225 170 -225q98 0 160 58.5t79 166.5z" />
    <glyph glyph-name="A" unicode="A" 
d="M156 0h-107l649 1495h127l174 -1495h-102l-47 430h-512zM637 1126l-260 -604h463l-66 604q-9 84 -22 283q-19 -59 -115 -283z" />
    <glyph glyph-name="B" unicode="B" 
d="M1106 1110q-20 -131 -96 -222t-189 -120q121 -26 177 -120t34 -238q-31 -188 -167.5 -299t-338.5 -111h-391l238 1495h385q186 0 281 -105t67 -280zM367 815h282q144 0 238.5 78t116.5 215q22 136 -49 214.5t-214 78.5h-282zM930 408q23 146 -54.5 230.5t-234.5 84.5
h-289l-100 -629h289q157 0 260.5 84t128.5 230z" />
    <glyph glyph-name="C" unicode="C" 
d="M532 -20q-187 0 -281 111.5t-65 297.5l115 717q29 187 158 298.5t317 111.5q190 0 285.5 -117t64.5 -314h-102q25 157 -45.5 247.5t-216.5 90.5q-143 0 -239.5 -85t-119.5 -232l-114 -717q-23 -148 46 -232.5t214 -84.5q147 0 245.5 90.5t123.5 247.5h102
q-32 -196 -164.5 -313t-323.5 -117z" />
    <glyph glyph-name="D" unicode="D" 
d="M463 0h-328l238 1495h327q207 0 314.5 -124.5t75.5 -326.5l-95 -593q-32 -203 -178.5 -327t-353.5 -124zM459 1401l-207 -1307h225q161 0 275.5 98t140.5 259l94 593q25 160 -59 258.5t-244 98.5h-225z" />
    <glyph glyph-name="E" unicode="E" 
d="M954 0h-798l237 1495h799l-16 -94h-697l-90 -576h625l-15 -92h-624l-103 -639h697z" />
    <glyph glyph-name="F" unicode="F" 
d="M248 0h-103l238 1495h840l-17 -94h-737l-94 -598h665l-14 -94h-666z" />
    <glyph glyph-name="G" unicode="G" 
d="M532 -20q-187 0 -281 111.5t-65 297.5l115 717q29 187 158 298.5t317 111.5q190 0 285.5 -117t64.5 -314h-102q25 157 -45.5 247.5t-216.5 90.5q-143 0 -239.5 -85t-119.5 -232l-114 -717q-23 -148 46 -232.5t214 -84.5q147 0 245.5 90.5t123.5 247.5l34 225h-354l14 94
h457l-49 -319q-32 -196 -164.5 -313t-323.5 -117z" />
    <glyph glyph-name="H" unicode="H" 
d="M238 0h-103l238 1495h102l-106 -672h573l107 672h102l-238 -1495h-102l115 729h-574z" />
    <glyph glyph-name="I" unicode="I" 
d="M893 0h-737l14 94h319l207 1307h-319l16 94h737l-16 -94h-315l-207 -1307h315z" />
    <glyph glyph-name="J" unicode="J" 
d="M469 -20q-196 0 -289 114.5t-61 315.5h102q-26 -158 45 -248t219 -90q147 0 246.5 90t124.5 246l156 991h-465l16 96h567l-172 -1087q-34 -204 -162 -316t-327 -112z" />
    <glyph glyph-name="K" unicode="K" 
d="M238 0h-103l238 1495h102l-106 -674h311l434 674h119l-465 -723l248 -772h-115l-231 729h-318z" />
    <glyph glyph-name="L" unicode="L" 
d="M1026 0h-829l237 1495h103l-224 -1401h727z" />
    <glyph glyph-name="M" unicode="M" 
d="M199 0h-101l238 1495h149l117 -573q15 -63 37 -187q7 16 94 187l299 573h156l-238 -1495h-100l143 901q50 315 97 543l-406 -778h-109l-159 778q-25 -236 -74 -543z" />
    <glyph glyph-name="N" unicode="N" 
d="M233 0h-98l238 1495h137l332 -1382q7 74 28 235l183 1147h98l-238 -1495h-139l-325 1382q-6 -61 -33 -235z" />
    <glyph glyph-name="O" unicode="O" 
d="M520 -20q-182 0 -272.5 111t-61.5 298l115 717q29 186 155.5 298t307.5 112q182 0 273.5 -112t62.5 -298l-115 -717q-29 -187 -155.5 -298t-309.5 -111zM535 70q141 0 232 83.5t116 235.5l114 717q23 151 -42 235t-205 84t-232 -84.5t-115 -234.5l-114 -717
q-25 -152 40 -235.5t206 -83.5z" />
    <glyph glyph-name="P" unicode="P" 
d="M238 0h-103l238 1495h440q196 0 295 -113.5t68 -302.5q-29 -189 -165 -302t-331 -113h-338zM459 1401l-101 -643h338q149 0 251.5 86.5t125.5 234.5q25 149 -50 235.5t-226 86.5h-338z" />
    <glyph glyph-name="Q" unicode="Q" 
d="M766 1516q181 0 272.5 -114.5t61.5 -295.5l-115 -717q-20 -131 -90.5 -229t-177.5 -142l170 -387h-105l-159 357q-50 -8 -101 -8q-183 0 -274 111.5t-62 297.5l115 717q31 188 156 299t309 111zM883 389l114 717q25 149 -40.5 233t-204.5 84q-141 0 -232.5 -83
t-116.5 -234l-114 -717q-25 -150 41.5 -233.5t208.5 -83.5q139 0 229 83t115 234z" />
    <glyph glyph-name="R" unicode="R" 
d="M373 1495h420q198 0 295.5 -111.5t68.5 -302.5q-26 -164 -137.5 -272.5t-274.5 -130.5l242 -678h-110l-234 676h-299l-106 -676h-103zM1055 1085q23 144 -53 230t-226 86h-317l-101 -633h318q149 0 252.5 86t126.5 231z" />
    <glyph glyph-name="S" unicode="S" 
d="M530 -20q-207 0 -311.5 108t-75.5 291h103q-22 -139 60.5 -223t240.5 -84q154 0 252.5 77t120.5 213q19 125 -32.5 211t-166.5 121l-166 51q-139 43 -205 150t-43 250q26 170 153 270.5t316 100.5q187 0 280.5 -106t65.5 -288h-102q22 136 -49 218.5t-211 82.5
q-143 0 -237 -72t-113 -198q-17 -115 32 -199t152 -116l166 -52q144 -44 215.5 -159t48.5 -258q-29 -179 -162.5 -284t-331.5 -105z" />
    <glyph glyph-name="T" unicode="T" 
d="M578 0h-103l221 1401h-442l16 94h983l-16 -94h-438z" />
    <glyph glyph-name="U" unicode="U" 
d="M522 -20q-180 0 -269 111.5t-60 297.5l176 1106h102l-176 -1106q-23 -150 41.5 -233.5t202.5 -83.5q136 0 225.5 84t112.5 233l176 1106h102l-176 -1106q-29 -186 -153.5 -297.5t-303.5 -111.5z" />
    <glyph glyph-name="V" unicode="V" 
d="M590 0h-131l-172 1495h102l127 -1126q15 -127 21 -287q50 146 110 287l483 1126h107z" />
    <glyph glyph-name="W" unicode="W" 
d="M319 0h-143l53 1495h90l-36 -1106q-1 -48 -13 -317q60 203 95 317l333 1106h131l-24 -1106q-1 -41 -3 -160t-3 -157q80 273 92 317l303 1106h100l-424 -1495h-147l22 1085l9 328q-13 -41 -48 -159.5t-51 -168.5z" />
    <glyph glyph-name="X" unicode="X" 
d="M135 0h-117l570 780l-301 715h110l176 -455q8 -20 84 -188q131 178 138 188l327 455h115l-528 -715l321 -780h-110l-197 516q-8 23 -39.5 92.5t-42.5 96.5q-17 -22 -137 -189z" />
    <glyph glyph-name="Y" unicode="Y" 
d="M575 0h-102l90 573l-313 922h102l230 -676q37 -108 47 -143q5 8 20 32.5t33.5 54t36.5 56.5l444 676h111l-608 -922z" />
    <glyph glyph-name="Z" unicode="Z" 
d="M950 0h-854l17 102l927 1299h-714l16 94h819l-18 -117l-922 -1284h744z" />
    <glyph glyph-name="bracketleft" unicode="[" horiz-adv-x="819" 
d="M516 -225h-461l303 1925h461l-14 -92h-359l-274 -1741h358z" />
    <glyph glyph-name="backslash" unicode="\" 
d="M909 -225h-106l-430 1925h106z" />
    <glyph glyph-name="bracketright" unicode="]" horiz-adv-x="819" 
d="M516 -225h-461l15 92h358l274 1741h-358l14 92h461z" />
    <glyph glyph-name="asciicircum" unicode="^" 
d="M348 696h-123l488 799h108l223 -799h-112l-144 533q-8 29 -36 160q-22 -50 -86 -160z" />
    <glyph glyph-name="underscore" unicode="_" 
d="M993 -143h-983l15 92h983z" />
    <glyph glyph-name="grave" unicode="`" 
d="M834 1321h-107l-184 287h119z" />
    <glyph glyph-name="a" unicode="a" 
d="M965 973l24 153h103l-179 -1126h-102l25 154h-9q-50 -82 -137.5 -128t-195.5 -46q-169 0 -253 111.5t-55 295.5l56 350q29 185 149 297.5t289 112.5q108 0 180.5 -46t97.5 -128h7zM872 387l56 350q23 152 -40 237t-202 85q-137 0 -228 -85.5t-114 -236.5l-55 -350
q-23 -151 40 -235t199 -84q138 0 229.5 84.5t114.5 234.5z" />
    <glyph glyph-name="b" unicode="b" 
d="M733 1147q168 0 252 -112.5t55 -297.5l-55 -350q-29 -184 -149 -295.5t-289 -111.5q-108 0 -181 46t-98 128h-6l-24 -154h-103l238 1495h102l-49 -307l-35 -215h8q50 82 138 128t196 46zM883 387l55 350q25 151 -39 236.5t-201 85.5q-139 0 -229 -85t-115 -237l-55 -350
q-25 -150 39.5 -234.5t202.5 -84.5q137 0 227 84t115 235z" />
    <glyph glyph-name="c" unicode="c" 
d="M524 -20q-186 0 -276.5 110.5t-61.5 298.5l56 348q29 186 157 298t312 112q186 0 279 -105t65 -284h-103q22 138 -47.5 216.5t-210.5 78.5q-140 0 -233.5 -83.5t-116.5 -232.5l-55 -348q-23 -147 44.5 -231t207.5 -84q141 0 234 78.5t116 216.5h102q-29 -179 -156 -284
t-313 -105z" />
    <glyph glyph-name="d" unicode="d" 
d="M999 1188l50 307h102l-238 -1495h-102l25 154h-9q-50 -82 -137.5 -128t-195.5 -46q-169 0 -253 111.5t-55 295.5l56 350q29 185 149 297.5t289 112.5q108 0 180.5 -46t97.5 -128h7zM872 387l56 350q25 151 -39 236.5t-203 85.5q-136 0 -226.5 -85.5t-115.5 -236.5
l-55 -350q-25 -150 38.5 -234.5t200.5 -84.5q138 0 228.5 84t115.5 235z" />
    <glyph glyph-name="e" unicode="e" 
d="M709 1147q184 0 272.5 -111t58.5 -299l-30 -194h-697l-24 -154q-23 -149 42 -234t206 -85q113 0 196.5 54t128.5 152h103q-53 -138 -169.5 -217t-273.5 -79q-188 0 -276.5 110t-59.5 299l56 348q29 187 155 298.5t312 111.5zM920 631l18 106q25 149 -39.5 234.5
t-204.5 85.5q-144 0 -235.5 -85t-114.5 -235l-16 -106h592z" />
    <glyph glyph-name="f" unicode="f" horiz-adv-x="1024" 
d="M66 -369h-89l17 93h88q78 0 127 42.5t61 120.5l170 1033h-264l14 92h265l37 227q20 120 101.5 188t205.5 68h252l-17 -92h-252q-78 0 -127 -43t-61 -121l-37 -227h416l-15 -92h-415l-170 -1033q-20 -120 -101.5 -188t-205.5 -68z" />
    <glyph glyph-name="g" unicode="g" 
d="M961 940l28 186h103l-183 -1157q-26 -167 -129.5 -252.5t-275.5 -85.5h-297l16 93h297q122 0 195 62t92 183l14 92l35 228q-44 -97 -136 -152t-210 -55q-169 0 -252.5 111t-54.5 296l39 248q29 185 149 297.5t289 112.5q118 0 192 -55t89 -152zM889 489l39 248
q23 152 -40 237t-202 85q-137 0 -228 -85.5t-114 -236.5l-39 -248q-23 -151 40 -235t200 -84q138 0 229.5 84.5t114.5 234.5z" />
    <glyph glyph-name="h" unicode="h" 
d="M733 1147q166 0 249 -107t54 -288l-118 -752h-103l117 737q25 151 -38 236.5t-196 85.5q-135 0 -228 -86.5t-116 -235.5l-116 -737h-103l238 1495h102l-49 -307l-37 -225h8q47 87 135.5 135.5t200.5 48.5z" />
    <glyph glyph-name="i" unicode="i" horiz-adv-x="1024" 
d="M676 1341q-54 0 -81.5 31t-19.5 82q7 51 45.5 82t92.5 31t81 -31t19 -82q-7 -51 -45 -82t-92 -31zM811 0h-694l14 92h309l150 942h-271l15 92h373l-164 -1034h282z" />
    <glyph glyph-name="j" unicode="j" horiz-adv-x="819" 
d="M662 1341q-54 0 -81.5 31t-19.5 82q7 51 45 82t92 31t81.5 -31t19.5 -82q-7 -51 -45 -82t-92 -31zM55 -369h-137l16 93h138q145 0 232 75.5t110 220.5l159 1014h-378l14 92h481l-174 -1106q-29 -183 -151 -286t-310 -103z" />
    <glyph glyph-name="k" unicode="k" 
d="M244 0h-103l238 1495h102l-137 -862h268l430 493h125l-473 -546l303 -580h-118l-277 541h-272z" />
    <glyph glyph-name="l" unicode="l" horiz-adv-x="819" 
d="M653 0h-155q-138 0 -202 71.5t-42 204.5l178 1127h-252l17 92h354l-195 -1219q-27 -184 156 -184h156z" />
    <glyph glyph-name="m" unicode="m" horiz-adv-x="1638" 
d="M1227 1147q136 0 195 -69.5t40 -194.5l-141 -883h-102l139 870q14 88 -33 139.5t-141 51.5q-102 0 -176.5 -53t-87.5 -138l-140 -870h-102l139 870q13 87 -39 139t-147 52q-96 0 -166.5 -52.5t-83.5 -138.5l-139 -870h-103l180 1126h89l-25 -153h4q25 80 103 127t192 47
q218 0 240 -174q26 78 110.5 126t194.5 48z" />
    <glyph glyph-name="n" unicode="n" 
d="M733 1147q166 0 249 -107t54 -288l-118 -752h-103l117 737q25 151 -38 236.5t-196 85.5q-135 0 -228 -86.5t-116 -235.5l-116 -737h-103l178 1126h103l-31 -192q45 100 136 156.5t212 56.5z" />
    <glyph glyph-name="o" unicode="o" 
d="M520 -20q-182 0 -272.5 111t-61.5 298l56 348q29 186 156 298t309 112q181 0 271.5 -112t61.5 -298l-55 -348q-29 -187 -155.5 -298t-309.5 -111zM535 70q141 0 232 83.5t116 235.5l55 348q25 150 -40.5 235t-205.5 85q-139 0 -231 -84.5t-117 -235.5l-55 -348
q-25 -152 40 -235.5t206 -83.5z" />
    <glyph glyph-name="p" unicode="p" 
d="M733 1147q169 0 252.5 -111.5t54.5 -296.5l-55 -350q-29 -184 -149.5 -296.5t-288.5 -112.5q-108 0 -181 46t-98 128h-6l-24 -154l-60 -369h-102l237 1495h103l-25 -153h6q51 82 139 128t197 46zM883 389l55 350q25 150 -39 235t-201 85q-138 0 -228.5 -84.5
t-115.5 -235.5l-55 -350q-25 -152 39.5 -236.5t202.5 -84.5q137 0 227 84.5t115 236.5z" />
    <glyph glyph-name="q" unicode="q" 
d="M965 973l24 153h103l-238 -1495h-102l49 308l35 215h-9q-50 -82 -137.5 -128t-195.5 -46q-169 0 -253 112t-55 297l56 350q29 184 149 296t289 112q108 0 180.5 -46t97.5 -128h7zM872 389l56 350q25 151 -39.5 235.5t-202.5 84.5q-136 0 -226.5 -84.5t-115.5 -235.5
l-55 -350q-23 -151 40 -236t199 -85q139 0 230 85t114 236z" />
    <glyph glyph-name="r" unicode="r" 
d="M764 1147q180 0 266 -110.5t57 -299.5l-10 -61h-112l10 61q25 152 -39.5 237t-202.5 85t-228.5 -85t-115.5 -237l-117 -737h-102l178 1126h103l-25 -153h10q46 83 131 128.5t197 45.5z" />
    <glyph glyph-name="s" unicode="s" 
d="M600 -20h-137q-152 0 -239 82t-81 214h103q2 -90 65 -147t168 -57h137q112 0 187 58.5t90 156.5q14 89 -29.5 151t-130.5 74l-213 31q-141 20 -208.5 98t-47.5 201q23 140 133 222.5t273 82.5h86q152 0 237 -75.5t80 -201.5h-102q2 81 -61 133t-169 52h-86
q-116 0 -194.5 -57.5t-91.5 -153.5q-24 -175 184 -205l209 -31q129 -19 192 -105.5t43 -215.5q-23 -141 -130 -224t-267 -83z" />
    <glyph glyph-name="t" unicode="t" horiz-adv-x="1024" 
d="M723 0h-178q-129 0 -187.5 66t-38.5 190l123 778h-280l14 92h281l49 308h102l-49 -308h383l-14 -92h-383l-123 -778q-12 -80 23 -122t114 -42h178z" />
    <glyph glyph-name="u" unicode="u" 
d="M518 -20q-183 0 -268.5 111t-54.5 306l114 729h103l-115 -729q-25 -153 38.5 -239t199.5 -86q137 0 228 86t116 239l114 729h103l-115 -729q-31 -194 -155 -305.5t-308 -111.5z" />
    <glyph glyph-name="v" unicode="v" 
d="M590 0h-127l-279 1126h101l215 -839q17 -70 35 -211q56 132 100 211l479 839h111z" />
    <glyph glyph-name="w" unicode="w" 
d="M338 0h-135l-13 1126h95l6 -837q0 -103 -4 -217q21 84 65 215l297 839h105l30 -839q4 -109 0 -215q33 136 60 217l272 837h98l-370 -1126h-135l-15 801q-1 36 -2 121.5t-2 115.5q-19 -63 -78 -237z" />
    <glyph glyph-name="x" unicode="x" 
d="M186 0h-123l496 580l-293 546h115l209 -409l17.5 -35t19.5 -37l55 72l334 409h125l-465 -551l309 -575h-113l-223 430q-2 4 -43 78l-63 -78z" />
    <glyph glyph-name="y" unicode="y" 
d="M874 492l101 634h102l-182 -1157q-28 -167 -131 -252.5t-275 -85.5h-296l16 93h297q246 0 287 245l20 133l31 193q-45 -100 -136 -156.5t-212 -56.5q-166 0 -249 107t-54 288l102 649h102l-100 -634q-25 -151 37.5 -236.5t195.5 -85.5q135 0 228 86.5t116 235.5z" />
    <glyph glyph-name="z" unicode="z" 
d="M928 0h-807l14 94l809 940h-641l14 92h762l-14 -96l-811 -938h688z" />
    <glyph glyph-name="braceleft" unicode="{" 
d="M1090 1700h112l-14 -92h-113q-97 0 -163.5 -58.5t-73.5 -156.5l-35 -406q-7 -96 -59.5 -162.5t-133.5 -87.5q74 -19 106 -87t9 -165l-96 -403q-23 -98 26 -156.5t146 -58.5h112l-14 -92h-113q-150 0 -221.5 81.5t-38.5 225.5l97 403q26 112 -10 157.5t-164 45.5h-226
l17 94h225q125 0 176 45t59 160l35 406q12 144 108.5 225.5t246.5 81.5z" />
    <glyph glyph-name="bar" unicode="|" 
d="M541 -225h-103l303 1925h103z" />
    <glyph glyph-name="braceright" unicode="}" 
d="M834 782h225l-17 -94h-225q-128 0 -177 -45t-58 -158l-37 -403q-12 -144 -108.5 -225.5t-246.5 -81.5h-110l14 92h111q97 0 163.5 58.5t73.5 156.5l37 403q9 98 62 165.5t133 86.5q-74 20 -106.5 87t-10.5 163l94 406q23 98 -26 156.5t-146 58.5h-110l14 92h111
q150 0 221.5 -81.5t38.5 -225.5l-95 -406q-25 -115 12.5 -160t162.5 -45z" />
    <glyph glyph-name="asciitilde" unicode="~" 
d="M270 532h-92l25 154q17 105 84 165t166 60q48 0 86.5 -16t63.5 -42t46.5 -57.5t41 -62.5t40.5 -57t50.5 -42t66.5 -16q54 0 89 37t46 103l23 153h92l-23 -153q-17 -106 -81 -166t-160 -60q-58 0 -102.5 21.5t-70.5 54.5t-51 70.5t-45 70.5t-52.5 54.5t-72.5 21.5
q-58 0 -96 -36.5t-49 -102.5z" />
    <glyph glyph-name="uni2421" unicode="&#x2421;" 
d="M145 502h-108l78 493h108q67 0 102.5 -40.5t26.5 -108.5l-33 -195q-10 -67 -58 -108t-116 -41zM715 502h-264l77 493h265l-7 -30h-229l-29 -191h205l-4 -31h-207l-33 -211h230zM1169 502h-272l78 493h33l-74 -463h242zM143 965l-67 -433h74q54 0 91 32.5t46 86.5l30 195
q8 54 -19 86.5t-81 32.5h-74z" />
    <glyph glyph-name="uni2421" 
d="M145 502h-108l78 493h108q67 0 102.5 -40.5t26.5 -108.5l-33 -195q-10 -67 -58 -108t-116 -41zM715 502h-264l77 493h265l-7 -30h-229l-29 -191h205l-4 -31h-207l-33 -211h230zM1169 502h-272l78 493h33l-74 -463h242zM143 965l-67 -433h74q54 0 91 32.5t46 86.5l30 195
q8 54 -19 86.5t-81 32.5h-74z" />
    <glyph glyph-name="uni00A0" unicode="&#xa0;" horiz-adv-x="819" 
 />
    <glyph glyph-name="exclamdown" unicode="&#xa1;" horiz-adv-x="819" 
d="M469 911h-10q-51 0 -76.5 31t-17.5 82q7 51 43.5 82t87.5 31h10q51 0 76.5 -31t17.5 -82q-7 -51 -43.5 -82t-87.5 -31zM332 -369h-127l53 328l152 748h61l-86 -748z" />
    <glyph glyph-name="cent" unicode="&#xa2;" 
d="M1055 758h-103q20 125 -35.5 202t-173.5 91l-153 -975q122 14 200.5 90.5t100.5 202.5h102q-28 -166 -140 -269.5t-278 -117.5l-43 -269h-81l43 267q-170 11 -253 120t-55 289l56 348q28 177 146 288t288 120l43 268h82l-43 -268q163 -14 243 -118t54 -269zM344 737
l-55 -348q-22 -138 37 -221t182 -92l154 975q-128 -9 -212 -92t-106 -222z" />
    <glyph glyph-name="sterling" unicode="&#xa3;" 
d="M764 1516q201 0 304 -105t77 -285h-103q22 138 -57 217.5t-237 79.5q-135 0 -227 -82.5t-115 -224.5q-5 -32 -5.5 -62t3 -58t8.5 -52t13.5 -51.5t16 -47.5t18 -49t17.5 -48h443l-15 -93h-401q16 -82 2 -174q-10 -60 -43.5 -121.5t-80.5 -111.5t-95.5 -89.5t-96.5 -66.5
h830l-14 -92h-943l17 102q49 26 99.5 64.5t98.5 87.5t82 109t43 118q14 94 -2 174h-233l14 93h195q-7 20 -21 54.5t-22.5 56t-18 55.5t-13.5 62t-4.5 65.5t5.5 76.5q29 185 153 291.5t308 106.5z" />
    <glyph glyph-name="currency" unicode="&#xa4;" 
d="M1057 764q-24 -144 -129 -256l145 -170l-80 -72l-147 172q-121 -78 -262 -78q-145 0 -240 82l-201 -174l-61 72l199 172q-65 117 -43 252q24 144 122 250l-145 176l82 72l147 -179q124 84 267 84t239 -80l201 175l59 -72l-200 -174q70 -111 47 -252zM344 764
q-20 -131 52.5 -218t201.5 -87t230.5 87.5t121.5 217.5q22 130 -51.5 217.5t-202.5 87.5t-229.5 -87t-122.5 -218z" />
    <glyph glyph-name="yen" unicode="&#xa5;" 
d="M1163 1495h111l-555 -840h401l-16 -102h-442l-23 -154h440l-16 -102h-440l-48 -297h-102l47 297h-440l16 102h441l22 154h-438l16 102h398l-285 840h102l230 -676q37 -108 47 -143q5 8 20 32.5t33.5 54t36.5 56.5z" />
    <glyph glyph-name="brokenbar" unicode="&#xa6;" 
d="M721 922h-103l123 778h103zM541 -225h-103l123 778h103z" />
    <glyph glyph-name="section" unicode="&#xa7;" 
d="M553 -317h-137q-152 0 -239 82.5t-81 214.5h103q2 -90 65.5 -147.5t167.5 -57.5h137q112 0 187 58t90 155q14 90 -29 157.5t-127 87.5l-211 52q-138 34 -204 121t-46 212q17 108 92 190.5t183 111.5l2 8q-38 8 -73 29t-64.5 55t-42 85.5t-2.5 112.5q22 140 131 223
t272 83h86q152 0 238.5 -75.5t81.5 -201.5h-103q0 81 -62.5 132.5t-168.5 51.5h-86q-116 0 -193 -57t-92 -154q-13 -84 33 -141t145 -82l209 -51q123 -31 186 -119t43 -211q-17 -110 -90.5 -193.5t-173.5 -105.5l-2 -8q36 -10 69 -33t60.5 -58.5t39 -89t1.5 -116.5
q-23 -146 -130.5 -233.5t-264.5 -87.5zM512 385l139 -35q92 -23 182 52.5t109 189.5q14 90 -29 158t-127 88l-145 34q-93 23 -190.5 -56.5t-116.5 -194.5q-14 -86 32.5 -149t145.5 -87z" />
    <glyph glyph-name="dieresis" unicode="&#xa8;" 
d="M520 1341q-47 0 -72 31t-18 82q9 51 43.5 82t81.5 31q48 0 72.5 -31t15.5 -82q-7 -51 -41.5 -82t-81.5 -31zM961 1341q-49 0 -75 31t-18 82q9 51 43.5 82t83.5 31q47 0 71 -31t15 -82q-8 -51 -40.5 -82t-79.5 -31z" />
    <glyph glyph-name="copyright" unicode="&#xa9;" 
d="M559 225q-229 0 -347 135t-83 357l49 307q35 222 196 357t390 135t347 -135t83 -357l-49 -307q-35 -222 -196 -357t-390 -135zM571 303q188 0 322.5 114t163.5 300l49 307q29 186 -68.5 300t-285.5 114t-322.5 -114t-163.5 -300l-49 -307q-29 -186 68.5 -300t285.5 -114z
M614 502q-106 0 -160.5 64.5t-37.5 170.5l43 267q17 106 91.5 170.5t180.5 64.5q105 0 159.5 -65t37.5 -170h-92q10 69 -23 111t-96 42q-64 0 -109.5 -42t-56.5 -111l-43 -267q-11 -69 22 -111t97 -42q63 0 109.5 42t56.5 111h92q-17 -106 -92 -170.5t-179 -64.5z" />
    <glyph glyph-name="ordfeminine" unicode="&#xaa;" 
d="M774 1516q101 0 155.5 -51t41.5 -134l-64 -399h-65l18 112h-6q-29 -55 -95 -88.5t-143 -33.5q-89 0 -133 47t-30 127q12 78 72.5 126t148.5 48h215l10 61q9 55 -28.5 89t-106.5 34q-60 0 -106.5 -28t-61.5 -74h-72q25 74 93.5 119t156.5 45zM868 1137l13 71h-217
q-56 0 -94.5 -30.5t-45.5 -81.5q-9 -54 26 -85.5t103 -31.5q86 0 144.5 43t70.5 115z" />
    <glyph glyph-name="guillemotleft" unicode="&#xab;" 
d="M578 82h-121l-355 491l504 492h127l-506 -494zM1049 82h-121l-355 491l504 492h127l-506 -494z" />
    <glyph glyph-name="logicalnot" unicode="&#xac;" 
d="M1065 440h-102l45 287h-840l14 92h942z" />
    <glyph glyph-name="uni00AD" unicode="&#xad;" 
d="M952 631h-655l14 92h656z" />
    <glyph glyph-name="registered" unicode="&#xae;" 
d="M764 1516q229 0 347 -135t83 -357l-49 -307q-35 -222 -196 -357t-390 -135t-347 135t-83 357l49 307q35 222 196 357t390 135zM1057 717l49 307q29 186 -68.5 300t-285.5 114t-322.5 -114t-163.5 -300l-49 -307q-29 -186 68.5 -300t285.5 -114t322.5 114t163.5 300z
M514 1229h215q99 0 150 -57t36 -152q-12 -71 -56 -124t-109 -73l92 -311h-97l-83 297h-121l-47 -297h-93zM834 1018q9 57 -23.5 93t-93.5 36h-123l-41 -256h123q62 0 105.5 35t52.5 92z" />
    <glyph glyph-name="macron" unicode="&#xaf;" 
d="M1034 1401h-573l14 88h574z" />
    <glyph glyph-name="degree" unicode="&#xb0;" 
d="M670 922q-134 0 -203 82t-47 215q22 135 116 216t228 81t203 -82t47 -215q-22 -134 -116.5 -215.5t-227.5 -81.5zM684 1004q92 0 157.5 59t80.5 156q15 98 -31.5 157.5t-138.5 59.5q-93 0 -159 -59.5t-81 -157.5q-15 -97 32.5 -156t139.5 -59z" />
    <glyph glyph-name="plusminus" unicode="&#xb1;" 
d="M995 0h-942l15 92h415l88 553h-415l14 92h416l67 430h101l-68 -430h426l-14 -92h-426l-88 -553h426z" />
    <glyph glyph-name="uni00B2" unicode="&#xb2;" 
d="M963 829h-574l17 105l344 244q77 56 128 125.5t60 132.5q15 94 -27.5 148t-130.5 54t-148 -56t-75 -152h-92q20 133 108.5 211.5t219.5 78.5t195 -74.5t44 -203.5q-14 -87 -78.5 -177t-162.5 -157l-285 -197h469z" />
    <glyph glyph-name="uni00B3" unicode="&#xb3;" 
d="M537 1700h452l-14 -90l-244 -248q117 -8 175.5 -82.5t39.5 -194.5q-20 -126 -108 -201t-217 -75q-131 0 -197.5 75t-46.5 201h92q-14 -89 30.5 -141.5t133.5 -52.5q87 0 147.5 52.5t73.5 141.5q13 91 -30.5 145t-129.5 54h-59l16 94l234 240h-361z" />
    <glyph glyph-name="acute" unicode="&#xb4;" 
d="M750 1321h-117l262 287h129z" />
    <glyph glyph-name="uni00B5" unicode="&#xb5;" 
d="M885 389l116 737h103l-178 -1126h-103l25 154h-6q-46 -82 -129.5 -128t-186.5 -46q-102 0 -169 46t-89 128h-4l-24 -154l-60 -369h-102l237 1495h103l-117 -737q-25 -152 38.5 -236.5t201.5 -84.5t228.5 84.5t115.5 236.5z" />
    <glyph glyph-name="paragraph" unicode="&#xb6;" 
d="M506 -369h-103l160 1004q-157 0 -239 84.5t-60 222.5l39 246q22 138 131 222.5t266 84.5h103zM854 -369h-102l297 1864h102z" />
    <glyph glyph-name="periodcentered" unicode="&#xb7;" 
d="M317 543q-69 0 -102 41t-22 112q10 69 57.5 109.5t116.5 40.5t102.5 -40.5t22.5 -109.5q-10 -70 -58 -111.5t-117 -41.5z" />
    <glyph glyph-name="cedilla" unicode="&#xb8;" 
d="M440 -399h-164l13 71h164q48 0 82.5 25.5t39.5 60.5q8 50 -53.5 80.5t-169.5 30.5l101 184h86l-66 -123q38 -2 73.5 -13t66.5 -31t47 -53t10 -75q-9 -67 -74 -112t-156 -45z" />
    <glyph glyph-name="uni00B9" unicode="&#xb9;" 
d="M963 829h-574l12 82h265l114 717l-278 -194l16 104l227 162h138l-125 -789h217z" />
    <glyph glyph-name="ordmasculine" unicode="&#xba;" 
d="M668 911q-100 0 -153 53.5t-38 141.5l33 215q13 88 83.5 141.5t170.5 53.5t152.5 -53.5t39.5 -141.5l-32 -215q-15 -88 -85.5 -141.5t-170.5 -53.5zM678 973q69 0 117 36.5t59 96.5l33 215q9 60 -27.5 96.5t-105.5 36.5t-117 -36.5t-57 -96.5l-33 -215q-10 -60 26 -96.5
t105 -36.5z" />
    <glyph glyph-name="guillemotright" unicode="&#xbb;" 
d="M152 82h-127l503 500l-348 483h121l354 -492zM623 82h-127l503 500l-348 483h121l354 -492z" />
    <glyph glyph-name="onequarter" unicode="&#xbc;" 
d="M125 0h-100l1194 1495h100zM666 829h-564l13 82h243l84 523q-3 -3 -17 -15.5t-29 -25.5t-31 -25l-148 -111l19 113l165 125h144l-94 -584h227zM1006 0h-93l23 143h-369l23 144l330 379h102l-344 -408l-6 -33h276l35 217h92z" />
    <glyph glyph-name="onehalf" unicode="&#xbd;" 
d="M707 854l512 641h100l-1194 -1495h-100l661 829h-567l12 82h244l84 523q-68 -58 -78 -66l-148 -111l19 113l166 125h143l-94 -584h248zM934 676q102 0 156 -59t40 -152q-24 -153 -237 -277l-172 -98l-2 -8h119h252l-13 -82h-491l16 104l260 154q83 50 125 98t49 103
q11 62 -20 98.5t-94 36.5q-67 0 -115 -42t-59 -110h-93q17 105 94 169.5t185 64.5z" />
    <glyph glyph-name="threequarters" unicode="&#xbe;" 
d="M25 0l1194 1495h100l-1194 -1495h-100zM354 819q-109 0 -165.5 59t-41.5 156h93q-9 -60 26.5 -96.5t102.5 -36.5q66 0 111.5 39t56.5 104q9 60 -25 97t-98 37h-62l15 88l202 147h-319l14 82h410l-17 -92l-208 -156q93 -8 142.5 -63.5t37.5 -139.5q-17 -101 -92.5 -163
t-182.5 -62zM672 225h276l35 217h92l-69 -442h-93l23 143h-369l23 144l330 379h102l-344 -408z" />
    <glyph glyph-name="questiondown" unicode="&#xbf;" 
d="M750 913h-11q-51 0 -77.5 31t-18.5 82q9 51 44.5 82t86.5 31h10q51 0 77.5 -31t17.5 -82q-8 -51 -43 -82t-86 -31zM735 -346h-246q-196 0 -295.5 107t-70.5 292q29 187 161 293.5t330 106.5l41 254h103l-56 -347h-102q-150 0 -251 -81.5t-124 -225.5t52.5 -225.5
t226.5 -81.5h246z" />
    <glyph glyph-name="Agrave" unicode="&#xc0;" 
d="M860 1659h-106l-185 287h119zM156 0h-107l649 1495h127l174 -1495h-102l-47 430h-512zM637 1126l-260 -604h463l-66 604q-9 84 -22 283q-19 -59 -115 -283z" />
    <glyph glyph-name="Aacute" unicode="&#xc1;" 
d="M825 1659h-116l262 287h129zM156 0h-107l649 1495h127l174 -1495h-102l-47 430h-512zM637 1126l-260 -604h463l-66 604q-9 84 -22 283q-19 -59 -115 -283z" />
    <glyph glyph-name="Acircumflex" unicode="&#xc2;" 
d="M588 1659h-109l291 287h123l201 -287h-97l-170 223zM156 0h-107l649 1495h127l174 -1495h-102l-47 430h-512zM637 1126l-260 -604h463l-66 604q-9 84 -22 283q-19 -59 -115 -283z" />
    <glyph glyph-name="Atilde" unicode="&#xc3;" 
d="M942 1669q-43 0 -77 19t-56 46.5t-41.5 55t-43 46.5t-50.5 19q-47 0 -79 -28.5t-40 -75.5l-10 -72h-82l10 72q13 86 71 135t144 49q43 0 76.5 -19t55.5 -46.5t41 -55t42.5 -46.5t50.5 -19q43 0 72 28.5t37 75.5l12 72h82l-12 -72q-14 -86 -67.5 -135t-135.5 -49zM156 0
h-107l649 1495h127l174 -1495h-102l-47 430h-512zM637 1126l-260 -604h463l-66 604q-9 84 -22 283q-19 -59 -115 -283z" />
    <glyph glyph-name="Adieresis" unicode="&#xc4;" 
d="M578 1690q-48 0 -73 30.5t-18 81.5q9 51 43.5 82t81.5 31q48 0 72.5 -31t15.5 -82q-7 -51 -41 -81.5t-81 -30.5zM1018 1690q-49 0 -74.5 30.5t-17.5 81.5q9 51 43.5 82t83.5 31q47 0 71 -31t15 -82q-7 -51 -40.5 -81.5t-80.5 -30.5zM156 0h-107l649 1495h127l174 -1495
h-102l-47 430h-512zM637 1126l-260 -604h463l-66 604q-9 84 -22 283q-19 -59 -115 -283z" />
    <glyph glyph-name="Aring" unicode="&#xc5;" 
d="M780 1597q-97 0 -148 56.5t-38 148.5q15 92 84 148.5t166 56.5q95 0 145 -56.5t35 -148.5q-13 -92 -81 -148.5t-163 -56.5zM788 1669q60 0 102.5 36.5t51.5 96.5q10 60 -20.5 96.5t-90.5 36.5t-102 -36.5t-53 -96.5q-9 -60 21.5 -96.5t90.5 -36.5zM156 0h-107l649 1495
h127l174 -1495h-102l-47 430h-512zM637 1126l-260 -604h463l-66 604q-9 84 -22 283q-19 -59 -115 -283z" />
    <glyph glyph-name="AE" unicode="&#xc6;" 
d="M82 0h-102l622 1495h711l-17 -92h-428l-90 -580h355l-15 -92h-354l-102 -639h428l-15 -92h-530l69 440h-348zM662 1403l-355 -871h322l137 871h-104z" />
    <glyph glyph-name="Ccedilla" unicode="&#xc7;" 
d="M776 1516q190 0 285.5 -117t64.5 -314h-102q25 157 -45.5 247.5t-216.5 90.5q-143 0 -239.5 -85t-119.5 -232l-114 -717q-23 -148 46 -232.5t214 -84.5q147 0 245.5 90.5t123.5 247.5h102q-31 -189 -155 -305t-306 -125l-27 -50q38 -2 74 -13t67.5 -31t47.5 -53t10 -75
q-11 -67 -74.5 -112t-154.5 -45h-164l12 71h164q48 0 83 25.5t40 60.5q8 50 -53.5 80.5t-169.5 30.5l61 113q-160 19 -238.5 128t-50.5 279l115 717q29 187 158 298.5t317 111.5z" />
    <glyph glyph-name="Egrave" unicode="&#xc8;" 
d="M901 1659h-106l-185 287h119zM954 0h-798l237 1495h799l-16 -94h-697l-90 -576h625l-15 -92h-624l-103 -639h697z" />
    <glyph glyph-name="Eacute" unicode="&#xc9;" 
d="M866 1659h-116l262 287h129zM954 0h-798l237 1495h799l-16 -94h-697l-90 -576h625l-15 -92h-624l-103 -639h697z" />
    <glyph glyph-name="Ecircumflex" unicode="&#xca;" 
d="M629 1659h-109l291 287h123l201 -287h-97l-170 223zM954 0h-798l237 1495h799l-16 -94h-697l-90 -576h625l-15 -92h-624l-103 -639h697z" />
    <glyph glyph-name="Edieresis" unicode="&#xcb;" 
d="M618 1690q-48 0 -72.5 30.5t-17.5 81.5q9 51 43.5 82t81.5 31q48 0 72.5 -31t15.5 -82q-7 -51 -41 -81.5t-82 -30.5zM1059 1690q-49 0 -74.5 30.5t-17.5 81.5q9 51 43.5 82t83.5 31q47 0 71 -31t15 -82q-7 -51 -40.5 -81.5t-80.5 -30.5zM954 0h-798l237 1495h799l-16 -94
h-697l-90 -576h625l-15 -92h-624l-103 -639h697z" />
    <glyph glyph-name="Igrave" unicode="&#xcc;" 
d="M860 1659h-106l-185 287h119zM893 0h-737l14 94h319l207 1307h-319l16 94h737l-16 -94h-315l-207 -1307h315z" />
    <glyph glyph-name="Iacute" unicode="&#xcd;" 
d="M825 1659h-116l262 287h129zM893 0h-737l14 94h319l207 1307h-319l16 94h737l-16 -94h-315l-207 -1307h315z" />
    <glyph glyph-name="Icircumflex" unicode="&#xce;" 
d="M588 1659h-109l291 287h123l201 -287h-97l-170 223zM893 0h-737l14 94h319l207 1307h-319l16 94h737l-16 -94h-315l-207 -1307h315z" />
    <glyph glyph-name="Idieresis" unicode="&#xcf;" 
d="M578 1690q-48 0 -73 30.5t-18 81.5q9 51 43.5 82t81.5 31q48 0 72.5 -31t15.5 -82q-7 -51 -41 -81.5t-81 -30.5zM1018 1690q-49 0 -74.5 30.5t-17.5 81.5q9 51 43.5 82t83.5 31q47 0 71 -31t15 -82q-7 -51 -40.5 -81.5t-80.5 -30.5zM893 0h-737l14 94h319l207 1307h-319
l16 94h737l-16 -94h-315l-207 -1307h315z" />
    <glyph glyph-name="Eth" unicode="&#xd0;" 
d="M373 1495h327q207 0 314.5 -124.5t75.5 -326.5l-95 -593q-32 -203 -178.5 -327t-353.5 -124h-328l115 719h-230v90h244zM893 451l94 593q25 160 -59 258.5t-244 98.5h-225l-94 -592h229v-90h-244l-98 -625h225q161 0 275.5 98t140.5 259z" />
    <glyph glyph-name="Ntilde" unicode="&#xd1;" 
d="M942 1669q-43 0 -77 19t-56 46.5t-41.5 55t-43 46.5t-50.5 19q-47 0 -79 -28.5t-40 -75.5l-10 -72h-82l10 72q13 86 71 135t144 49q43 0 76.5 -19t55.5 -46.5t41 -55t42.5 -46.5t50.5 -19q43 0 72 28.5t37 75.5l12 72h82l-12 -72q-14 -86 -67.5 -135t-135.5 -49zM233 0
h-98l238 1495h137l332 -1382q7 74 28 235l183 1147h98l-238 -1495h-139l-325 1382q-6 -61 -33 -235z" />
    <glyph glyph-name="Ograve" unicode="&#xd2;" 
d="M860 1659h-106l-185 287h119zM520 -20q-182 0 -272.5 111t-61.5 298l115 717q29 186 155.5 298t307.5 112q182 0 273.5 -112t62.5 -298l-115 -717q-29 -187 -155.5 -298t-309.5 -111zM535 70q141 0 232 83.5t116 235.5l114 717q23 151 -42 235t-205 84t-232 -84.5
t-115 -234.5l-114 -717q-25 -152 40 -235.5t206 -83.5z" />
    <glyph glyph-name="Oacute" unicode="&#xd3;" 
d="M825 1659h-116l262 287h129zM520 -20q-182 0 -272.5 111t-61.5 298l115 717q29 186 155.5 298t307.5 112q182 0 273.5 -112t62.5 -298l-115 -717q-29 -187 -155.5 -298t-309.5 -111zM535 70q141 0 232 83.5t116 235.5l114 717q23 151 -42 235t-205 84t-232 -84.5
t-115 -234.5l-114 -717q-25 -152 40 -235.5t206 -83.5z" />
    <glyph glyph-name="Ocircumflex" unicode="&#xd4;" 
d="M588 1659h-109l291 287h123l201 -287h-97l-170 223zM520 -20q-182 0 -272.5 111t-61.5 298l115 717q29 186 155.5 298t307.5 112q182 0 273.5 -112t62.5 -298l-115 -717q-29 -187 -155.5 -298t-309.5 -111zM535 70q141 0 232 83.5t116 235.5l114 717q23 151 -42 235
t-205 84t-232 -84.5t-115 -234.5l-114 -717q-25 -152 40 -235.5t206 -83.5z" />
    <glyph glyph-name="Otilde" unicode="&#xd5;" 
d="M942 1669q-43 0 -77 19t-56 46.5t-41.5 55t-43 46.5t-50.5 19q-47 0 -79 -28.5t-40 -75.5l-10 -72h-82l10 72q13 86 71 135t144 49q43 0 76.5 -19t55.5 -46.5t41 -55t42.5 -46.5t50.5 -19q43 0 72 28.5t37 75.5l12 72h82l-12 -72q-14 -86 -67.5 -135t-135.5 -49zM520 -20
q-182 0 -272.5 111t-61.5 298l115 717q29 186 155.5 298t307.5 112q182 0 273.5 -112t62.5 -298l-115 -717q-29 -187 -155.5 -298t-309.5 -111zM535 70q141 0 232 83.5t116 235.5l114 717q23 151 -42 235t-205 84t-232 -84.5t-115 -234.5l-114 -717q-25 -152 40 -235.5
t206 -83.5z" />
    <glyph glyph-name="Odieresis" unicode="&#xd6;" 
d="M578 1690q-48 0 -73 30.5t-18 81.5q9 51 43.5 82t81.5 31q48 0 72.5 -31t15.5 -82q-7 -51 -41 -81.5t-81 -30.5zM1018 1690q-49 0 -74.5 30.5t-17.5 81.5q9 51 43.5 82t83.5 31q47 0 71 -31t15 -82q-7 -51 -40.5 -81.5t-80.5 -30.5zM520 -20q-182 0 -272.5 111t-61.5 298
l115 717q29 186 155.5 298t307.5 112q182 0 273.5 -112t62.5 -298l-115 -717q-29 -187 -155.5 -298t-309.5 -111zM535 70q141 0 232 83.5t116 235.5l114 717q23 151 -42 235t-205 84t-232 -84.5t-115 -234.5l-114 -717q-25 -152 40 -235.5t206 -83.5z" />
    <glyph glyph-name="multiply" unicode="&#xd7;" 
d="M623 602l-363 -311l-65 76l362 311l-260 309l82 70l260 -309l360 313l66 -76l-360 -313l260 -310l-82 -69z" />
    <glyph glyph-name="Oslash" unicode="&#xd8;" 
d="M1178 1536h102l-184 -254q19 -79 4 -176l-115 -717q-31 -188 -156.5 -298.5t-308.5 -110.5q-194 0 -282 124l-136 -186h-102l197 268q-29 91 -11 203l115 717q29 186 155.5 298t307.5 112q102 0 177.5 -37.5t117.5 -106.5zM403 1106l-114 -717q-6 -43 -6 -84l706 973
q-23 71 -84.5 109t-154.5 38q-139 0 -230.5 -84t-116.5 -235zM883 389l114 717l7 49l-701 -960q58 -125 232 -125q141 0 232 83.5t116 235.5z" />
    <glyph glyph-name="Ugrave" unicode="&#xd9;" 
d="M860 1659h-106l-185 287h119zM522 -20q-180 0 -269 111.5t-60 297.5l176 1106h102l-176 -1106q-23 -150 41.5 -233.5t202.5 -83.5q136 0 225.5 84t112.5 233l176 1106h102l-176 -1106q-29 -186 -153.5 -297.5t-303.5 -111.5z" />
    <glyph glyph-name="Uacute" unicode="&#xda;" 
d="M825 1659h-116l262 287h129zM522 -20q-180 0 -269 111.5t-60 297.5l176 1106h102l-176 -1106q-23 -150 41.5 -233.5t202.5 -83.5q136 0 225.5 84t112.5 233l176 1106h102l-176 -1106q-29 -186 -153.5 -297.5t-303.5 -111.5z" />
    <glyph glyph-name="Ucircumflex" unicode="&#xdb;" 
d="M588 1659h-109l291 287h123l201 -287h-97l-170 223zM522 -20q-180 0 -269 111.5t-60 297.5l176 1106h102l-176 -1106q-23 -150 41.5 -233.5t202.5 -83.5q136 0 225.5 84t112.5 233l176 1106h102l-176 -1106q-29 -186 -153.5 -297.5t-303.5 -111.5z" />
    <glyph glyph-name="Udieresis" unicode="&#xdc;" 
d="M578 1690q-48 0 -73 30.5t-18 81.5q9 51 43.5 82t81.5 31q48 0 72.5 -31t15.5 -82q-7 -51 -41 -81.5t-81 -30.5zM1018 1690q-49 0 -74.5 30.5t-17.5 81.5q9 51 43.5 82t83.5 31q47 0 71 -31t15 -82q-7 -51 -40.5 -81.5t-80.5 -30.5zM522 -20q-180 0 -269 111.5t-60 297.5
l176 1106h102l-176 -1106q-23 -150 41.5 -233.5t202.5 -83.5q136 0 225.5 84t112.5 233l176 1106h102l-176 -1106q-29 -186 -153.5 -297.5t-303.5 -111.5z" />
    <glyph glyph-name="Yacute" unicode="&#xdd;" 
d="M825 1659h-116l262 287h129zM575 0h-102l90 573l-313 922h102l230 -676q37 -108 47 -143q5 8 20 32.5t33.5 54t36.5 56.5l444 676h111l-608 -922z" />
    <glyph glyph-name="Thorn" unicode="&#xde;" 
d="M227 0h-102l237 1495h103l-55 -338h364q186 0 279 -102t65 -277t-152.5 -277t-310.5 -102h-364zM395 1065l-90 -571h365q140 0 233 76t113 208q22 133 -47 210t-209 77h-365z" />
    <glyph glyph-name="germandbls" unicode="&#xdf;" 
d="M1112 1126q-22 -136 -101 -231.5t-192 -124.5q122 -25 179 -115.5t34 -228.5q-31 -197 -163 -311.5t-334 -114.5h-127l14 92h127q160 0 257 83t122 235q23 150 -48 230.5t-231 80.5h-82l15 92h82q135 0 228.5 83.5t115.5 219.5q23 142 -42.5 224.5t-205.5 82.5
q-135 0 -229 -85t-117 -226l-195 -1225q-19 -120 -100.5 -188t-206.5 -68h-182l16 93h182q78 0 127.5 42.5t61.5 120.5l194 1225q29 182 156 293t307 111q186 0 276 -105t62 -285z" />
    <glyph glyph-name="agrave" unicode="&#xe0;" 
d="M647 1608l172 -287h-106l-185 287h119zM965 973l24 153h103l-179 -1126h-102l25 154h-9q-50 -82 -137.5 -128t-195.5 -46q-169 0 -253 111.5t-55 295.5l56 350q29 185 149 297.5t289 112.5q108 0 180.5 -46t97.5 -128h7zM872 387l56 350q23 152 -40 237t-202 85
q-137 0 -228 -85.5t-114 -236.5l-55 -350q-23 -151 40 -235t199 -84q138 0 229.5 84.5t114.5 234.5z" />
    <glyph glyph-name="aacute" unicode="&#xe1;" 
d="M948 1608h129l-274 -287h-117zM965 973l24 153h103l-179 -1126h-102l25 154h-9q-50 -82 -137.5 -128t-195.5 -46q-169 0 -253 111.5t-55 295.5l56 350q29 185 149 297.5t289 112.5q108 0 180.5 -46t97.5 -128h7zM872 387l56 350q23 152 -40 237t-202 85
q-137 0 -228 -85.5t-114 -236.5l-55 -350q-23 -151 40 -235t199 -84q138 0 229.5 84.5t114.5 234.5z" />
    <glyph glyph-name="acircumflex" unicode="&#xe2;" 
d="M954 1321l-172 223l-237 -223h-109l291 287h123l201 -287h-97zM965 973l24 153h103l-179 -1126h-102l25 154h-9q-50 -82 -137.5 -128t-195.5 -46q-169 0 -253 111.5t-55 295.5l56 350q29 185 149 297.5t289 112.5q108 0 180.5 -46t97.5 -128h7zM872 387l56 350
q23 152 -40 237t-202 85q-137 0 -228 -85.5t-114 -236.5l-55 -350q-23 -151 40 -235t199 -84q138 0 229.5 84.5t114.5 234.5z" />
    <glyph glyph-name="atilde" unicode="&#xe3;" 
d="M1020 1516l12 71h82l-12 -71q-14 -86 -67.5 -135.5t-135.5 -49.5q-43 0 -77 19.5t-56 46.5t-41.5 54.5t-43 47t-50.5 19.5q-47 0 -79 -28.5t-40 -76.5l-10 -72h-82l10 72q13 86 70.5 135t144.5 49q43 0 76.5 -19t55.5 -46.5t41 -55t42.5 -46.5t50.5 -19q42 0 71.5 28.5
t37.5 76.5zM958 973h7l24 153h103l-179 -1126h-102l25 154h-9q-50 -82 -137.5 -128t-195.5 -46q-169 0 -253 111.5t-55 295.5l56 350q29 185 149 297.5t289 112.5q108 0 180.5 -46t97.5 -128zM872 387l56 350q23 152 -40 237t-202 85q-137 0 -228 -85.5t-114 -236.5
l-55 -350q-23 -151 40 -235t199 -84q138 0 229.5 84.5t114.5 234.5z" />
    <glyph glyph-name="adieresis" unicode="&#xe4;" 
d="M528 1341q-47 0 -72 31t-18 82q9 51 43.5 82t81.5 31q48 0 72.5 -31t15.5 -82q-7 -51 -41.5 -82t-81.5 -31zM969 1341q-49 0 -74.5 31t-17.5 82q9 51 43.5 82t83.5 31q47 0 71 -31t15 -82q-8 -51 -41 -82t-80 -31zM958 973h7l24 153h103l-179 -1126h-102l25 154h-9
q-50 -82 -137.5 -128t-195.5 -46q-169 0 -253 111.5t-55 295.5l56 350q29 185 149 297.5t289 112.5q108 0 180.5 -46t97.5 -128zM872 387l56 350q23 152 -40 237t-202 85q-137 0 -228 -85.5t-114 -236.5l-55 -350q-23 -151 40 -235t199 -84q138 0 229.5 84.5t114.5 234.5z
" />
    <glyph glyph-name="aring" unicode="&#xe5;" 
d="M735 1260q-97 0 -147.5 56t-36.5 148q15 92 84 148.5t166 56.5q95 0 145 -56.5t35 -148.5q-13 -92 -81.5 -148t-164.5 -56zM633 1464q-9 -60 21.5 -96.5t90.5 -36.5t102.5 36.5t51.5 96.5t-21 96.5t-90 36.5t-103 -36.5t-52 -96.5zM965 973l24 153h103l-179 -1126h-102
l25 154h-9q-50 -82 -137.5 -128t-195.5 -46q-169 0 -253 111.5t-55 295.5l56 350q29 185 149 297.5t289 112.5q108 0 180.5 -46t97.5 -128h7zM872 387l56 350q23 152 -40 237t-202 85q-137 0 -228 -85.5t-114 -236.5l-55 -350q-23 -151 40 -235t199 -84q138 0 229.5 84.5
t114.5 234.5z" />
    <glyph glyph-name="ae" unicode="&#xe6;" 
d="M262 -20q-126 0 -186.5 83.5t-38.5 221.5l14 94q20 121 102.5 191.5t206.5 70.5h222l30 199q15 94 -29 155.5t-130 61.5q-79 0 -139.5 -52t-82.5 -135h-102q31 127 120 202t212 75q108 0 163.5 -54.5t57.5 -121.5h4q27 67 100 121.5t172 54.5q128 0 191 -84t41 -223
l-47 -291h-475l-41 -262q-14 -95 30 -155t131 -60q78 0 132.5 50t76.5 134h103q-31 -128 -115 -202t-207 -74q-108 0 -163.5 53.5t-57.5 120.5h-6q-24 -67 -99.5 -120.5t-189.5 -53.5zM715 840l-31 -199h373l30 199q14 94 -26.5 155.5t-122.5 61.5q-83 0 -146 -62t-77 -155z
M295 66q85 0 149.5 62.5t79.5 158.5l41 262h-221q-72 0 -125 -47.5t-65 -122.5l-15 -94q-15 -96 28 -157.5t128 -61.5z" />
    <glyph glyph-name="ccedilla" unicode="&#xe7;" 
d="M1055 758h-103q22 138 -47.5 216.5t-210.5 78.5q-140 0 -233.5 -83.5t-116.5 -232.5l-55 -348q-23 -147 44.5 -231t207.5 -84q141 0 234 78.5t116 216.5h102q-29 -179 -156 -284t-313 -105h-20l-27 -50q38 -2 73.5 -13t66.5 -31t47 -53t10 -75q-9 -67 -74 -112t-156 -45
h-163l12 71h164q48 0 83 25.5t40 60.5q8 50 -54 80.5t-170 30.5l66 121q-135 29 -198 134.5t-38 264.5l56 348q29 186 157 298t312 112q186 0 279 -105t65 -284z" />
    <glyph glyph-name="egrave" unicode="&#xe8;" 
d="M637 1608l172 -287h-107l-184 287h119zM709 1147q184 0 272.5 -111t58.5 -299l-30 -194h-697l-24 -154q-23 -149 42 -234t206 -85q113 0 196.5 54t128.5 152h103q-53 -138 -169.5 -217t-273.5 -79q-188 0 -276.5 110t-59.5 299l56 348q29 187 155 298.5t312 111.5z
M920 631l18 106q25 149 -39.5 234.5t-204.5 85.5q-144 0 -235.5 -85t-114.5 -235l-16 -106h592z" />
    <glyph glyph-name="eacute" unicode="&#xe9;" 
d="M938 1608h129l-274 -287h-117zM709 1147q184 0 272.5 -111t58.5 -299l-30 -194h-697l-24 -154q-23 -149 42 -234t206 -85q113 0 196.5 54t128.5 152h103q-53 -138 -169.5 -217t-273.5 -79q-188 0 -276.5 110t-59.5 299l56 348q29 187 155 298.5t312 111.5zM920 631
l18 106q25 149 -39.5 234.5t-204.5 85.5q-144 0 -235.5 -85t-114.5 -235l-16 -106h592z" />
    <glyph glyph-name="ecircumflex" unicode="&#xea;" 
d="M944 1321l-172 223l-237 -223h-109l291 287h123l200 -287h-96zM709 1147q184 0 272.5 -111t58.5 -299l-30 -194h-697l-24 -154q-23 -149 42 -234t206 -85q113 0 196.5 54t128.5 152h103q-53 -138 -169.5 -217t-273.5 -79q-188 0 -276.5 110t-59.5 299l56 348
q29 187 155 298.5t312 111.5zM920 631l18 106q25 149 -39.5 234.5t-204.5 85.5q-144 0 -235.5 -85t-114.5 -235l-16 -106h592z" />
    <glyph glyph-name="edieresis" unicode="&#xeb;" 
d="M518 1341q-47 0 -72 31t-18 82q9 51 43.5 82t81.5 31q48 0 72.5 -31t15.5 -82q-7 -51 -41.5 -82t-81.5 -31zM993 1567q47 0 71 -31t15 -82q-8 -51 -41 -82t-80 -31q-49 0 -74.5 31t-17.5 82q9 51 43.5 82t83.5 31zM709 1147q184 0 272.5 -111t58.5 -299l-30 -194h-697
l-24 -154q-23 -149 42 -234t206 -85q113 0 196.5 54t128.5 152h103q-53 -138 -169.5 -217t-273.5 -79q-188 0 -276.5 110t-59.5 299l56 348q29 187 155 298.5t312 111.5zM920 631l18 106q25 149 -39.5 234.5t-204.5 85.5q-144 0 -235.5 -85t-114.5 -235l-16 -106h592z" />
    <glyph glyph-name="igrave" unicode="&#xec;" horiz-adv-x="1024" 
d="M750 1321h-107l-184 287h119zM811 0h-694l14 92h309l150 942h-271l15 92h373l-164 -1034h282z" />
    <glyph glyph-name="iacute" unicode="&#xed;" horiz-adv-x="1024" 
d="M733 1321h-117l263 287h129zM811 0h-694l14 92h309l150 942h-271l15 92h373l-164 -1034h282z" />
    <glyph glyph-name="icircumflex" unicode="&#xee;" horiz-adv-x="1024" 
d="M475 1321h-108l290 287h123l201 -287h-96l-172 223zM811 0h-694l14 92h309l150 942h-271l15 92h373l-164 -1034h282z" />
    <glyph glyph-name="idieresis" unicode="&#xef;" horiz-adv-x="1024" 
d="M459 1341q-47 0 -72 31t-18 82q9 51 43.5 82t81.5 31q48 0 72.5 -31t15.5 -82q-7 -51 -41.5 -82t-81.5 -31zM899 1341q-49 0 -74.5 31t-17.5 82q9 51 43.5 82t83.5 31q47 0 71 -31t15 -82q-8 -51 -41 -82t-80 -31zM811 0h-694l14 92h309l150 942h-271l15 92h373
l-164 -1034h282z" />
    <glyph glyph-name="eth" unicode="&#xf0;" 
d="M520 -20q-204 0 -306.5 125.5t-70.5 334.5q32 207 168 330t334 123q103 0 178.5 -56.5t104.5 -125.5h6q-6 38 -35.5 117.5t-83.5 177.5l-115 211l-383 -166l13 90l332 145l-121 209h102l94 -176l348 149l-12 -90l-297 -129l111 -190q201 -347 157 -623
q-34 -207 -176.5 -331.5t-347.5 -124.5zM537 82q154 0 261.5 98t133.5 262q25 156 -54.5 256.5t-226.5 100.5q-155 0 -262 -97.5t-133 -261.5t50 -261t231 -97z" />
    <glyph glyph-name="ntilde" unicode="&#xf1;" 
d="M1012 1516l12 71h82l-12 -71q-14 -86 -67.5 -135.5t-135.5 -49.5q-43 0 -77 19.5t-56 46.5t-41.5 54.5t-43 47t-50.5 19.5q-47 0 -79 -28.5t-40 -76.5l-10 -72h-82l10 72q13 86 70.5 135t144.5 49q43 0 76.5 -19t55.5 -46.5t41 -55t42.5 -46.5t50.5 -19q42 0 71.5 28.5
t37.5 76.5zM733 1147q166 0 249 -107t54 -288l-118 -752h-103l117 737q25 151 -38 236.5t-196 85.5q-135 0 -228 -86.5t-116 -235.5l-116 -737h-103l178 1126h103l-31 -192q45 100 136 156.5t212 56.5z" />
    <glyph glyph-name="ograve" unicode="&#xf2;" 
d="M809 1321h-107l-184 287h119zM520 -20q-182 0 -272.5 111t-61.5 298l56 348q29 186 156 298t309 112q181 0 271.5 -112t61.5 -298l-55 -348q-29 -187 -155.5 -298t-309.5 -111zM535 70q141 0 232 83.5t116 235.5l55 348q25 150 -40.5 235t-205.5 85q-139 0 -231 -84.5
t-117 -235.5l-55 -348q-25 -152 40 -235.5t206 -83.5z" />
    <glyph glyph-name="oacute" unicode="&#xf3;" 
d="M793 1321h-117l262 287h129zM520 -20q-182 0 -272.5 111t-61.5 298l56 348q29 186 156 298t309 112q181 0 271.5 -112t61.5 -298l-55 -348q-29 -187 -155.5 -298t-309.5 -111zM535 70q141 0 232 83.5t116 235.5l55 348q25 150 -40.5 235t-205.5 85q-139 0 -231 -84.5
t-117 -235.5l-55 -348q-25 -152 40 -235.5t206 -83.5z" />
    <glyph glyph-name="ocircumflex" unicode="&#xf4;" 
d="M535 1321h-109l291 287h123l200 -287h-96l-172 223zM520 -20q-182 0 -272.5 111t-61.5 298l56 348q29 186 156 298t309 112q181 0 271.5 -112t61.5 -298l-55 -348q-29 -187 -155.5 -298t-309.5 -111zM535 70q141 0 232 83.5t116 235.5l55 348q25 150 -40.5 235t-205.5 85
q-139 0 -231 -84.5t-117 -235.5l-55 -348q-25 -152 40 -235.5t206 -83.5z" />
    <glyph glyph-name="otilde" unicode="&#xf5;" 
d="M889 1331q-43 0 -77 19.5t-56 46.5t-41.5 54.5t-43 47t-50.5 19.5q-47 0 -79 -28.5t-40 -76.5l-10 -72h-82l10 72q13 86 70.5 135t144.5 49q43 0 76.5 -19t55.5 -46.5t41 -55t42.5 -46.5t50.5 -19q42 0 71.5 28.5t37.5 76.5l12 71h82l-12 -71q-14 -86 -67.5 -135.5
t-135.5 -49.5zM520 -20q-182 0 -272.5 111t-61.5 298l56 348q29 186 156 298t309 112q181 0 271.5 -112t61.5 -298l-55 -348q-29 -187 -155.5 -298t-309.5 -111zM535 70q141 0 232 83.5t116 235.5l55 348q25 150 -40.5 235t-205.5 85q-139 0 -231 -84.5t-117 -235.5
l-55 -348q-25 -152 40 -235.5t206 -83.5z" />
    <glyph glyph-name="odieresis" unicode="&#xf6;" 
d="M518 1341q-47 0 -72 31t-18 82q9 51 43.5 82t81.5 31q48 0 72.5 -31t15.5 -82q-7 -51 -41.5 -82t-81.5 -31zM958 1341q-49 0 -74.5 31t-17.5 82q9 51 43.5 82t83.5 31q47 0 71 -31t15 -82q-8 -51 -41 -82t-80 -31zM520 -20q-182 0 -272.5 111t-61.5 298l56 348
q29 186 156 298t309 112q181 0 271.5 -112t61.5 -298l-55 -348q-29 -187 -155.5 -298t-309.5 -111zM535 70q141 0 232 83.5t116 235.5l55 348q25 150 -40.5 235t-205.5 85q-139 0 -231 -84.5t-117 -235.5l-55 -348q-25 -152 40 -235.5t206 -83.5z" />
    <glyph glyph-name="divide" unicode="&#xf7;" 
d="M672 934q-67 0 -101.5 40.5t-23.5 106.5t58 107t114 41t102.5 -41t24.5 -107q-10 -66 -58 -106.5t-116 -40.5zM1034 633h-819l16 102h820zM547 135q-67 0 -102.5 41t-24.5 107q10 66 58 106.5t116 40.5q67 0 101.5 -40.5t23.5 -106.5t-58 -107t-114 -41z" />
    <glyph glyph-name="oslash" unicode="&#xf8;" 
d="M1104 1208h104l-194 -227q47 -101 26 -244l-55 -348q-29 -187 -155.5 -298t-309.5 -111q-179 0 -268 106l-127 -147h-105l187 219q-42 97 -21 231l56 348q29 186 156 298t309 112q171 0 260 -98zM344 737l-55 -348q-12 -74 -2 -137l612 717q-63 88 -207 88
q-139 0 -231 -84.5t-117 -235.5zM883 389l55 348q14 82 -2 152l-617 -723q65 -96 216 -96q141 0 232 83.5t116 235.5z" />
    <glyph glyph-name="ugrave" unicode="&#xf9;" 
d="M809 1321h-107l-184 287h119zM518 -20q-183 0 -268.5 111t-54.5 306l114 729h103l-115 -729q-25 -153 38.5 -239t199.5 -86q137 0 228 86t116 239l114 729h103l-115 -729q-31 -194 -155 -305.5t-308 -111.5z" />
    <glyph glyph-name="uacute" unicode="&#xfa;" 
d="M793 1321h-117l262 287h129zM518 -20q-183 0 -268.5 111t-54.5 306l114 729h103l-115 -729q-25 -153 38.5 -239t199.5 -86q137 0 228 86t116 239l114 729h103l-115 -729q-31 -194 -155 -305.5t-308 -111.5z" />
    <glyph glyph-name="ucircumflex" unicode="&#xfb;" 
d="M535 1321h-109l291 287h123l200 -287h-96l-172 223zM518 -20q-183 0 -268.5 111t-54.5 306l114 729h103l-115 -729q-25 -153 38.5 -239t199.5 -86q137 0 228 86t116 239l114 729h103l-115 -729q-31 -194 -155 -305.5t-308 -111.5z" />
    <glyph glyph-name="udieresis" unicode="&#xfc;" 
d="M518 1341q-47 0 -72 31t-18 82q9 51 43.5 82t81.5 31q48 0 72.5 -31t15.5 -82q-7 -51 -41.5 -82t-81.5 -31zM958 1341q-49 0 -74.5 31t-17.5 82q9 51 43.5 82t83.5 31q47 0 71 -31t15 -82q-8 -51 -41 -82t-80 -31zM518 -20q-183 0 -268.5 111t-54.5 306l114 729h103
l-115 -729q-25 -153 38.5 -239t199.5 -86q137 0 228 86t116 239l114 729h103l-115 -729q-31 -194 -155 -305.5t-308 -111.5z" />
    <glyph glyph-name="yacute" unicode="&#xfd;" 
d="M938 1608h129l-274 -287h-117zM874 492l101 634h102l-182 -1157q-28 -167 -131 -252.5t-275 -85.5h-296l16 93h297q246 0 287 245l20 133l31 193q-45 -100 -136 -156.5t-212 -56.5q-166 0 -249 107t-54 288l102 649h102l-100 -634q-25 -151 37.5 -236.5t195.5 -85.5
q135 0 228 86.5t116 235.5z" />
    <glyph glyph-name="thorn" unicode="&#xfe;" 
d="M733 1147q168 0 252 -112.5t55 -297.5l-55 -350q-29 -184 -149 -295.5t-289 -111.5q-108 0 -181 46t-98 128h-6l-6 -33h2l-78 -490h-102l59 369h-2l238 1495h102l-49 -307l-35 -215h8q50 82 138 128t196 46zM883 387l55 350q25 151 -39 236.5t-201 85.5q-139 0 -229 -85
t-115 -237l-55 -350q-25 -150 39.5 -234.5t202.5 -84.5q137 0 227 84t115 235z" />
    <glyph glyph-name="ydieresis" unicode="&#xff;" 
d="M518 1341q-47 0 -72 31t-18 82q9 51 43.5 82t81.5 31q48 0 72.5 -31t15.5 -82q-7 -51 -41.5 -82t-81.5 -31zM993 1567q47 0 71 -31t15 -82q-8 -51 -41 -82t-80 -31q-49 0 -74.5 31t-17.5 82q9 51 43.5 82t83.5 31zM874 492l101 634h102l-182 -1157q-28 -167 -131 -252.5
t-275 -85.5h-296l16 93h297q246 0 287 245l20 133l31 193q-45 -100 -136 -156.5t-212 -56.5q-166 0 -249 107t-54 288l102 649h102l-100 -634q-25 -151 37.5 -236.5t195.5 -85.5q135 0 228 86.5t116 235.5z" />
    <glyph glyph-name="Amacron" unicode="&#x100;" 
d="M1087 1749h-573l14 88h574zM156 0h-107l649 1495h127l174 -1495h-102l-47 430h-512zM637 1126l-260 -604h463l-66 604q-9 84 -22 283q-19 -59 -115 -283z" />
    <glyph glyph-name="amacron" unicode="&#x101;" 
d="M483 1489h574l-15 -88h-573zM965 973l24 153h103l-179 -1126h-102l25 154h-9q-50 -82 -137.5 -128t-195.5 -46q-169 0 -253 111.5t-55 295.5l56 350q29 185 149 297.5t289 112.5q108 0 180.5 -46t97.5 -128h7zM872 387l56 350q23 152 -40 237t-202 85q-137 0 -228 -85.5
t-114 -236.5l-55 -350q-23 -151 40 -235t199 -84q138 0 229.5 84.5t114.5 234.5z" />
    <glyph glyph-name="Abreve" unicode="&#x102;" 
d="M786 1655q-136 0 -203.5 78.5t-47.5 212.5h92q-15 -97 30.5 -153t139.5 -56q95 0 159.5 56t79.5 153h92q-20 -133 -112.5 -212t-229.5 -79zM156 0h-107l649 1495h127l174 -1495h-102l-47 430h-512zM637 1126l-260 -604h463l-66 604q-9 84 -22 283q-19 -59 -115 -283z" />
    <glyph glyph-name="abreve" unicode="&#x103;" 
d="M743 1317q-136 0 -203.5 78.5t-47.5 212.5h92q-15 -97 30.5 -153t139.5 -56q95 0 159.5 56t79.5 153h92q-20 -133 -112.5 -212t-229.5 -79zM965 973l24 153h103l-179 -1126h-102l25 154h-9q-50 -82 -137.5 -128t-195.5 -46q-169 0 -253 111.5t-55 295.5l56 350
q29 185 149 297.5t289 112.5q108 0 180.5 -46t97.5 -128h7zM872 387l56 350q23 152 -40 237t-202 85q-137 0 -228 -85.5t-114 -236.5l-55 -350q-23 -151 40 -235t199 -84q138 0 229.5 84.5t114.5 234.5z" />
    <glyph glyph-name="Aogonek" unicode="&#x104;" 
d="M901 -313h131l-14 -86h-150q-85 0 -126 43t-29 120q9 58 57.5 121t126.5 119l-47 426h-512l-182 -430h-107l649 1495h127l172 -1475l2 -20h-28q-68 -56 -110 -112t-48 -99q-8 -48 15.5 -75t72.5 -27zM637 1126l-260 -604h463l-66 604q-9 84 -22 283q-19 -59 -115 -283z
" />
    <glyph glyph-name="aogonek" unicode="&#x105;" 
d="M756 -211q-8 -48 15.5 -75t72.5 -27h131l-14 -86h-150q-85 0 -126.5 43.5t-29.5 119.5q7 56 55 118.5t124 117.5h-23l25 154h-9q-50 -82 -137.5 -128t-195.5 -46q-169 0 -253 111.5t-55 295.5l56 350q29 185 149 297.5t289 112.5q108 0 180.5 -46t97.5 -128h7l24 153h103
l-179 -1126q-67 -55 -109 -111.5t-48 -99.5zM528 68q138 0 229.5 84.5t114.5 234.5l56 350q23 152 -40 237t-202 85q-137 0 -228 -85.5t-114 -236.5l-55 -350q-23 -151 40 -235t199 -84z" />
    <glyph glyph-name="Cacute" unicode="&#x106;" 
d="M836 1659h-117l262 287h129zM532 -20q-187 0 -281 111.5t-65 297.5l115 717q29 187 158 298.5t317 111.5q190 0 285.5 -117t64.5 -314h-102q25 157 -45.5 247.5t-216.5 90.5q-143 0 -239.5 -85t-119.5 -232l-114 -717q-23 -148 46 -232.5t214 -84.5q147 0 245.5 90.5
t123.5 247.5h102q-32 -196 -164.5 -313t-323.5 -117z" />
    <glyph glyph-name="cacute" unicode="&#x107;" 
d="M797 1321h-117l262 287h129zM524 -20q-186 0 -276.5 110.5t-61.5 298.5l56 348q29 186 157 298t312 112q186 0 279 -105t65 -284h-103q22 138 -47.5 216.5t-210.5 78.5q-140 0 -233.5 -83.5t-116.5 -232.5l-55 -348q-23 -147 44.5 -231t207.5 -84q141 0 234 78.5
t116 216.5h102q-29 -179 -156 -284t-313 -105z" />
    <glyph glyph-name="Ccircumflex" unicode="&#x108;" 
d="M598 1659h-109l291 287h123l201 -287h-96l-170 223zM532 -20q-187 0 -281 111.5t-65 297.5l115 717q29 187 158 298.5t317 111.5q190 0 285.5 -117t64.5 -314h-102q25 157 -45.5 247.5t-216.5 90.5q-143 0 -239.5 -85t-119.5 -232l-114 -717q-23 -148 46 -232.5
t214 -84.5q147 0 245.5 90.5t123.5 247.5h102q-32 -196 -164.5 -313t-323.5 -117z" />
    <glyph glyph-name="ccircumflex" unicode="&#x109;" 
d="M539 1321h-109l291 287h123l200 -287h-96l-172 223zM524 -20q-186 0 -276.5 110.5t-61.5 298.5l56 348q29 186 157 298t312 112q186 0 279 -105t65 -284h-103q22 138 -47.5 216.5t-210.5 78.5q-140 0 -233.5 -83.5t-116.5 -232.5l-55 -348q-23 -147 44.5 -231t207.5 -84
q141 0 234 78.5t116 216.5h102q-29 -179 -156 -284t-313 -105z" />
    <glyph glyph-name="Cdotaccent" unicode="&#x10a;" 
d="M803 1690q-54 0 -82 30.5t-21 81.5q9 51 46.5 82t91.5 31t81.5 -31t18.5 -82q-8 -51 -44.5 -81.5t-90.5 -30.5zM532 -20q-187 0 -281 111.5t-65 297.5l115 717q29 187 158 298.5t317 111.5q190 0 285.5 -117t64.5 -314h-102q25 157 -45.5 247.5t-216.5 90.5
q-143 0 -239.5 -85t-119.5 -232l-114 -717q-23 -148 46 -232.5t214 -84.5q147 0 245.5 90.5t123.5 247.5h102q-32 -196 -164.5 -313t-323.5 -117z" />
    <glyph glyph-name="cdotaccent" unicode="&#x10b;" 
d="M739 1341q-54 0 -81 31t-19 82q7 51 45 82t92 31t81.5 -31t19.5 -82q-7 -51 -45.5 -82t-92.5 -31zM524 -20q-186 0 -276.5 110.5t-61.5 298.5l56 348q29 186 157 298t312 112q186 0 279 -105t65 -284h-103q22 138 -47.5 216.5t-210.5 78.5q-140 0 -233.5 -83.5
t-116.5 -232.5l-55 -348q-23 -147 44.5 -231t207.5 -84q141 0 234 78.5t116 216.5h102q-29 -179 -156 -284t-313 -105z" />
    <glyph glyph-name="Ccaron" unicode="&#x10c;" 
d="M858 1659h-123l-200 287h100l172 -224l240 224h102zM532 -20q-187 0 -281 111.5t-65 297.5l115 717q29 187 158 298.5t317 111.5q190 0 285.5 -117t64.5 -314h-102q25 157 -45.5 247.5t-216.5 90.5q-143 0 -239.5 -85t-119.5 -232l-114 -717q-23 -148 46 -232.5
t214 -84.5q147 0 245.5 90.5t123.5 247.5h102q-32 -196 -164.5 -313t-323.5 -117z" />
    <glyph glyph-name="ccaron" unicode="&#x10d;" 
d="M801 1321h-123l-201 287h101l172 -224l239 224h103zM524 -20q-186 0 -276.5 110.5t-61.5 298.5l56 348q29 186 157 298t312 112q186 0 279 -105t65 -284h-103q22 138 -47.5 216.5t-210.5 78.5q-140 0 -233.5 -83.5t-116.5 -232.5l-55 -348q-23 -147 44.5 -231t207.5 -84
q141 0 234 78.5t116 216.5h102q-29 -179 -156 -284t-313 -105z" />
    <glyph glyph-name="Dcaron" unicode="&#x10e;" 
d="M848 1659h-123l-201 287h101l172 -224l239 224h103zM463 0h-328l238 1495h327q207 0 314.5 -124.5t75.5 -326.5l-95 -593q-32 -203 -178.5 -327t-353.5 -124zM459 1401l-207 -1307h225q161 0 275.5 98t140.5 259l94 593q25 160 -59 258.5t-244 98.5h-225z" />
    <glyph glyph-name="dcaron" unicode="&#x10f;" 
d="M893 973l35 215l49 307h102l-237 -1495h-103l25 154h-4q-46 -82 -129.5 -128t-188.5 -46q-161 0 -238 109.5t-48 297.5l55 350q29 188 142.5 299t275.5 111q105 0 173.5 -46t88.5 -128h2zM1133 1126l79 369h103l-90 -369h-92zM801 387l55 350q23 148 -36 235t-185 87
q-125 0 -212 -87t-110 -235l-55 -350q-23 -148 35.5 -233.5t183.5 -85.5q126 0 213.5 85.5t110.5 233.5z" />
    <glyph glyph-name="Dcroat" unicode="&#x110;" 
d="M373 1495h327q207 0 314.5 -124.5t75.5 -326.5l-95 -593q-32 -203 -178.5 -327t-353.5 -124h-328l115 719h-230l15 90h229zM893 451l94 593q25 160 -59 258.5t-244 98.5h-225l-94 -592h243l-14 -90h-244l-98 -625h225q161 0 275.5 98t140.5 259z" />
    <glyph glyph-name="dcroat" unicode="&#x111;" 
d="M186 387l37 227q29 185 148.5 297.5t287.5 112.5q109 0 182.5 -46t96.5 -128h8l33 215l22 135h-368l14 92h369l33 203h102l-33 -203h205l-14 -92h-205l-191 -1200h-102l25 154h-9q-50 -82 -137.5 -128t-195.5 -46q-169 0 -253 111.5t-55 295.5zM326 614l-37 -227
q-25 -150 38.5 -234.5t200.5 -84.5q138 0 228.5 84t115.5 235l37 227q23 151 -40.5 236.5t-202.5 85.5q-136 0 -226.5 -85.5t-113.5 -236.5z" />
    <glyph glyph-name="Emacron" unicode="&#x112;" 
d="M1128 1749h-573l14 88h574zM954 0h-798l237 1495h799l-16 -94h-697l-90 -576h625l-15 -92h-624l-103 -639h697z" />
    <glyph glyph-name="emacron" unicode="&#x113;" 
d="M473 1489h574l-15 -88h-573zM709 1147q184 0 272.5 -111t58.5 -299l-30 -194h-697l-24 -154q-23 -149 42 -234t206 -85q113 0 196.5 54t128.5 152h103q-53 -138 -169.5 -217t-273.5 -79q-188 0 -276.5 110t-59.5 299l56 348q29 187 155 298.5t312 111.5zM920 631l18 106
q25 149 -39.5 234.5t-204.5 85.5q-144 0 -235.5 -85t-114.5 -235l-16 -106h592z" />
    <glyph glyph-name="Ebreve" unicode="&#x114;" 
d="M827 1655q-136 0 -204 78.5t-48 212.5h93q-15 -97 30.5 -153t139.5 -56q95 0 159.5 56t79.5 153h92q-20 -133 -112.5 -212t-229.5 -79zM954 0h-798l237 1495h799l-16 -94h-697l-90 -576h625l-15 -92h-624l-103 -639h697z" />
    <glyph glyph-name="ebreve" unicode="&#x115;" 
d="M733 1317q-136 0 -204 78.5t-48 212.5h92q-15 -97 30.5 -153t139.5 -56q95 0 160 56t80 153h92q-20 -133 -112.5 -212t-229.5 -79zM709 1147q184 0 272.5 -111t58.5 -299l-30 -194h-697l-24 -154q-23 -149 42 -234t206 -85q113 0 196.5 54t128.5 152h103
q-53 -138 -169.5 -217t-273.5 -79q-188 0 -276.5 110t-59.5 299l56 348q29 187 155 298.5t312 111.5zM920 631l18 106q25 149 -39.5 234.5t-204.5 85.5q-144 0 -235.5 -85t-114.5 -235l-16 -106h592z" />
    <glyph glyph-name="Edotaccent" unicode="&#x116;" 
d="M834 1690q-54 0 -82 30.5t-21 81.5q9 51 46 82t91 31t82 -31t19 -82q-8 -51 -44.5 -81.5t-90.5 -30.5zM954 0h-798l237 1495h799l-16 -94h-697l-90 -576h625l-15 -92h-624l-103 -639h697z" />
    <glyph glyph-name="edotaccent" unicode="&#x117;" 
d="M735 1341q-54 0 -81 31t-19 82q7 51 45 82t92 31t81 -31t19 -82q-7 -51 -45 -82t-92 -31zM709 1147q184 0 272.5 -111t58.5 -299l-30 -194h-697l-24 -154q-23 -149 42 -234t206 -85q113 0 196.5 54t128.5 152h103q-53 -138 -169.5 -217t-273.5 -79q-188 0 -276.5 110
t-59.5 299l56 348q29 187 155 298.5t312 111.5zM920 631l18 106q25 149 -39.5 234.5t-204.5 85.5q-144 0 -235.5 -85t-114.5 -235l-16 -106h592z" />
    <glyph glyph-name="Eogonek" unicode="&#x118;" 
d="M1192 1495l-16 -94h-697l-90 -576h625l-15 -92h-624l-103 -639h697l-15 -94h-100q-68 -56 -110 -112t-48 -99q-8 -48 15.5 -75t72.5 -27h131l-14 -86h-149q-85 0 -126.5 43.5t-29.5 119.5q7 57 54.5 119.5t123.5 116.5h-618l237 1495h799z" />
    <glyph glyph-name="eogonek" unicode="&#x119;" 
d="M709 1147q184 0 272.5 -111t58.5 -299l-30 -194h-697l-24 -154q-23 -149 42 -234t206 -85q113 0 196.5 54t128.5 152h103q-57 -147 -183 -227l-63 -49q-68 -56 -110 -112t-48 -99q-8 -48 15.5 -75t72.5 -27h131l-14 -86h-150q-85 0 -126 43t-29 120q16 103 164 226
q-52 -10 -103 -10q-188 0 -276.5 110t-59.5 299l56 348q29 187 155 298.5t312 111.5zM344 737l-16 -106h594l16 106q23 149 -40.5 234.5t-203.5 85.5q-144 0 -235.5 -85t-114.5 -235z" />
    <glyph glyph-name="Ecaron" unicode="&#x11a;" 
d="M889 1659h-123l-201 287h101l172 -224l239 224h103zM954 0h-798l237 1495h799l-16 -94h-697l-90 -576h625l-15 -92h-624l-103 -639h697z" />
    <glyph glyph-name="ecaron" unicode="&#x11b;" 
d="M1087 1608l-290 -287h-123l-201 287h100l172 -224l240 224h102zM709 1147q184 0 272.5 -111t58.5 -299l-30 -194h-697l-24 -154q-23 -149 42 -234t206 -85q113 0 196.5 54t128.5 152h103q-53 -138 -169.5 -217t-273.5 -79q-188 0 -276.5 110t-59.5 299l56 348
q29 187 155 298.5t312 111.5zM920 631l18 106q25 149 -39.5 234.5t-204.5 85.5q-144 0 -235.5 -85t-114.5 -235l-16 -106h592z" />
    <glyph glyph-name="Gcircumflex" unicode="&#x11c;" 
d="M600 1659h-108l290 287h123l201 -287h-96l-170 223zM532 -20q-187 0 -281 111.5t-65 297.5l115 717q29 187 158 298.5t317 111.5q190 0 285.5 -117t64.5 -314h-102q25 157 -45.5 247.5t-216.5 90.5q-143 0 -239.5 -85t-119.5 -232l-114 -717q-23 -148 46 -232.5
t214 -84.5q147 0 245.5 90.5t123.5 247.5l34 225h-354l14 94h457l-49 -319q-32 -196 -164.5 -313t-323.5 -117z" />
    <glyph glyph-name="gcircumflex" unicode="&#x11d;" 
d="M938 1321l-172 223l-238 -223h-108l291 287h123l200 -287h-96zM961 940l28 186h103l-183 -1157q-26 -167 -129.5 -252.5t-275.5 -85.5h-297l16 93h297q122 0 195 62t92 183l14 92l35 228q-44 -97 -136 -152t-210 -55q-169 0 -252.5 111t-54.5 296l39 248
q29 185 149 297.5t289 112.5q118 0 192 -55t89 -152zM889 489l39 248q23 152 -40 237t-202 85q-137 0 -228 -85.5t-114 -236.5l-39 -248q-23 -151 40 -235t200 -84q138 0 229.5 84.5t114.5 234.5z" />
    <glyph glyph-name="Gbreve" unicode="&#x11e;" 
d="M799 1655q-136 0 -204 78.5t-48 212.5h92q-15 -97 30.5 -153t139.5 -56q95 0 160 56t80 153h92q-20 -133 -112.5 -212t-229.5 -79zM532 -20q-187 0 -281 111.5t-65 297.5l115 717q29 187 158 298.5t317 111.5q190 0 285.5 -117t64.5 -314h-102q25 157 -45.5 247.5
t-216.5 90.5q-143 0 -239.5 -85t-119.5 -232l-114 -717q-23 -148 46 -232.5t214 -84.5q147 0 245.5 90.5t123.5 247.5l34 225h-354l14 94h457l-49 -319q-32 -196 -164.5 -313t-323.5 -117z" />
    <glyph glyph-name="gbreve" unicode="&#x11f;" 
d="M727 1317q-136 0 -204 78.5t-48 212.5h92q-15 -97 30.5 -153t139.5 -56q95 0 160 56t80 153h92q-20 -133 -112.5 -212t-229.5 -79zM961 940l28 186h103l-183 -1157q-26 -167 -129.5 -252.5t-275.5 -85.5h-297l16 93h297q122 0 195 62t92 183l14 92l35 228
q-44 -97 -136 -152t-210 -55q-169 0 -252.5 111t-54.5 296l39 248q29 185 149 297.5t289 112.5q118 0 192 -55t89 -152zM889 489l39 248q23 152 -40 237t-202 85q-137 0 -228 -85.5t-114 -236.5l-39 -248q-23 -151 40 -235t200 -84q138 0 229.5 84.5t114.5 234.5z" />
    <glyph glyph-name="Gdotaccent" unicode="&#x120;" 
d="M805 1690q-54 0 -82 30.5t-21 81.5q9 51 46.5 82t91.5 31t81.5 -31t18.5 -82q-8 -51 -44.5 -81.5t-90.5 -30.5zM532 -20q-187 0 -281 111.5t-65 297.5l115 717q29 187 158 298.5t317 111.5q190 0 285.5 -117t64.5 -314h-102q25 157 -45.5 247.5t-216.5 90.5
q-143 0 -239.5 -85t-119.5 -232l-114 -717q-23 -148 46 -232.5t214 -84.5q147 0 245.5 90.5t123.5 247.5l34 225h-354l14 94h457l-49 -319q-32 -196 -164.5 -313t-323.5 -117z" />
    <glyph glyph-name="gdotaccent" unicode="&#x121;" 
d="M729 1341q-54 0 -81 31t-19 82q7 51 45 82t92 31t81 -31t19 -82q-7 -51 -45 -82t-92 -31zM961 940l28 186h103l-183 -1157q-26 -167 -129.5 -252.5t-275.5 -85.5h-297l16 93h297q122 0 195 62t92 183l14 92l35 228q-44 -97 -136 -152t-210 -55q-169 0 -252.5 111
t-54.5 296l39 248q29 185 149 297.5t289 112.5q118 0 192 -55t89 -152zM889 489l39 248q23 152 -40 237t-202 85q-137 0 -228 -85.5t-114 -236.5l-39 -248q-23 -151 40 -235t200 -84q138 0 229.5 84.5t114.5 234.5z" />
    <glyph glyph-name="uni0122" unicode="&#x122;" 
d="M532 -20q-187 0 -281 111.5t-65 297.5l115 717q29 187 158 298.5t317 111.5q190 0 285.5 -117t64.5 -314h-102q25 157 -45.5 247.5t-216.5 90.5q-143 0 -239.5 -85t-119.5 -232l-114 -717q-23 -148 46 -232.5t214 -84.5q147 0 245.5 90.5t123.5 247.5l34 225h-354l14 94
h457l-49 -319q-32 -196 -164.5 -313t-323.5 -117zM387 -492h-102l231 297h133z" />
    <glyph glyph-name="uni0123" unicode="&#x123;" 
d="M911 1802h101l-271 -481h-141zM961 940l28 186h103l-183 -1157q-26 -167 -129.5 -252.5t-275.5 -85.5h-297l16 93h297q122 0 195 62t92 183l14 92l35 228q-44 -97 -136 -152t-210 -55q-169 0 -252.5 111t-54.5 296l39 248q29 185 149 297.5t289 112.5q118 0 192 -55
t89 -152zM889 489l39 248q23 152 -40 237t-202 85q-137 0 -228 -85.5t-114 -236.5l-39 -248q-23 -151 40 -235t200 -84q138 0 229.5 84.5t114.5 234.5z" />
    <glyph glyph-name="Hcircumflex" unicode="&#x124;" 
d="M588 1659h-109l291 287h123l201 -287h-97l-170 223zM238 0h-103l238 1495h102l-106 -672h573l107 672h102l-238 -1495h-102l115 729h-574z" />
    <glyph glyph-name="hcircumflex" unicode="&#x125;" 
d="M639 1649l-172 223l-238 -223h-108l291 286h123l200 -286h-96zM733 1147q166 0 249 -107t54 -288l-118 -752h-103l117 737q25 151 -38 236.5t-196 85.5q-135 0 -228 -86.5t-116 -235.5l-116 -737h-103l238 1495h102l-49 -307l-37 -225h8q47 87 135.5 135.5t200.5 48.5z
" />
    <glyph glyph-name="Hbar" unicode="&#x126;" 
d="M1104 1196h205l-15 -90h-204l-177 -1106h-102l115 729h-574l-114 -729h-103l176 1106h-205l15 90h205l47 299h102l-47 -299h573l48 299h102zM369 823h573l45 283h-573z" />
    <glyph glyph-name="hbar" unicode="&#x127;" 
d="M326 1200h-207l14 92h207l33 203h102l-33 -203h367l-14 -92h-367l-31 -196l-26 -164h8q48 87 135 135.5t199 48.5q166 0 249.5 -107t55.5 -288l-100 -629h-103l98 614q23 152 -39.5 237t-195.5 85q-135 0 -227 -86.5t-115 -235.5l-98 -614h-103z" />
    <glyph glyph-name="Itilde" unicode="&#x128;" 
d="M942 1669q-43 0 -77 19t-56 46.5t-41.5 55t-43 46.5t-50.5 19q-47 0 -79 -28.5t-40 -75.5l-10 -72h-82l10 72q13 86 71 135t144 49q43 0 76.5 -19t55.5 -46.5t41 -55t42.5 -46.5t50.5 -19q43 0 72 28.5t37 75.5l12 72h82l-12 -72q-14 -86 -67.5 -135t-135.5 -49zM893 0
h-737l14 94h319l207 1307h-319l16 94h737l-16 -94h-315l-207 -1307h315z" />
    <glyph glyph-name="itilde" unicode="&#x129;" 
d="M829 1331q-43 0 -77 19.5t-56 46.5t-41.5 54.5t-43 47t-50.5 19.5q-47 0 -79 -28.5t-40 -76.5l-10 -72h-82l10 72q13 86 70.5 135t144.5 49q43 0 77 -19t55.5 -46.5t41 -55t43 -46.5t50.5 -19q42 0 71 28.5t37 76.5l13 71h81l-12 -71q-14 -86 -67.5 -135.5t-135.5 -49.5z
M811 0h-694l14 92h309l150 942h-271l15 92h373l-164 -1034h282z" />
    <glyph glyph-name="Imacron" unicode="&#x12a;" 
d="M1087 1749h-573l14 88h574zM893 0h-737l14 94h319l207 1307h-319l16 94h737l-16 -94h-315l-207 -1307h315z" />
    <glyph glyph-name="imacron" unicode="&#x12b;" horiz-adv-x="1024" 
d="M973 1401h-574l15 88h573zM811 0h-694l14 92h309l150 942h-271l15 92h373l-164 -1034h282z" />
    <glyph glyph-name="Ibreve" unicode="&#x12c;" 
d="M786 1655q-136 0 -203.5 78.5t-47.5 212.5h92q-15 -97 30.5 -153t139.5 -56q95 0 159.5 56t79.5 153h92q-20 -133 -112.5 -212t-229.5 -79zM893 0h-737l14 94h319l207 1307h-319l16 94h737l-16 -94h-315l-207 -1307h315z" />
    <glyph glyph-name="ibreve" unicode="&#x12d;" 
d="M674 1317q-136 0 -204 78.5t-48 212.5h92q-15 -97 30.5 -153t139.5 -56q95 0 160 56t80 153h92q-20 -133 -112.5 -212t-229.5 -79zM811 0h-694l14 92h309l150 942h-271l15 92h373l-164 -1034h282z" />
    <glyph glyph-name="Iogonek" unicode="&#x12e;" 
d="M1130 1495l-16 -94h-315l-207 -1307h315l-14 -94h-330q-66 -55 -107.5 -111.5t-49.5 -99.5q-8 -48 15.5 -75t72.5 -27h131l-13 -86h-149q-85 0 -127.5 43.5t-30.5 119.5q9 57 56.5 119.5t121.5 116.5h-327l14 94h319l207 1307h-319l16 94h737z" />
    <glyph glyph-name="iogonek" unicode="&#x12f;" horiz-adv-x="1024" 
d="M676 1341q-54 0 -81.5 31t-19.5 82q7 51 45.5 82t92.5 31t81 -31t19 -82q-7 -51 -45 -82t-92 -31zM811 0h-264q-68 -56 -110 -112t-48 -99q-8 -48 15.5 -75t72.5 -27h131l-14 -86h-150q-85 0 -126 43t-29 120q7 57 54.5 119.5t123.5 116.5h-350l14 92h309l150 942h-271
l15 92h373l-164 -1034h282z" />
    <glyph glyph-name="Idotaccent" unicode="&#x130;" 
d="M793 1690q-54 0 -82 30.5t-21 81.5q9 51 46 82t91 31t82 -31t19 -82q-8 -51 -44.5 -81.5t-90.5 -30.5zM893 0h-737l14 94h319l207 1307h-319l16 94h737l-16 -94h-315l-207 -1307h315z" />
    <glyph glyph-name="dotlessi" unicode="&#x131;" horiz-adv-x="1024" 
d="M811 0h-694l14 92h309l150 942h-271l15 92h373l-164 -1034h282z" />
    <glyph glyph-name="Jcircumflex" unicode="&#x134;" 
d="M858 1659h-108l290 287h123l201 -287h-96l-170 223zM469 -20q-196 0 -289 114.5t-61 315.5h102q-26 -158 45 -248t219 -90q147 0 246.5 90t124.5 246l156 991h-465l16 96h567l-172 -1087q-34 -204 -162 -316t-327 -112z" />
    <glyph glyph-name="jcircumflex" unicode="&#x135;" horiz-adv-x="819" 
d="M297 1321h-109l291 287h123l201 -287h-96l-172 223zM55 -369h-137l16 93h138q145 0 232 75.5t110 220.5l159 1014h-378l14 92h481l-174 -1106q-29 -183 -151 -286t-310 -103z" />
    <glyph glyph-name="uni0136" unicode="&#x136;" 
d="M238 0h-103l238 1495h102l-106 -674h311l434 674h119l-465 -723l248 -772h-115l-231 729h-318zM375 -492h-103l232 297h133z" />
    <glyph glyph-name="uni0137" unicode="&#x137;" 
d="M244 0h-103l238 1495h102l-137 -862h268l430 493h125l-473 -546l303 -580h-118l-277 541h-272zM375 -492h-103l232 297h133z" />
    <glyph glyph-name="kgreenlandic" unicode="&#x138;" 
d="M244 0h-103l178 1126h103l-78 -493h266l430 493h127l-465 -544l295 -582h-118l-275 541h-274z" />
    <glyph glyph-name="Lacute" unicode="&#x139;" 
d="M551 1659h-117l262 287h129zM1026 0h-829l237 1495h103l-224 -1401h727z" />
    <glyph glyph-name="lacute" unicode="&#x13a;" horiz-adv-x="819" 
d="M543 1659h-117l262 287h129zM653 0h-155q-138 0 -202 71.5t-42 204.5l178 1127h-252l17 92h354l-195 -1219q-27 -184 156 -184h156z" />
    <glyph glyph-name="uni013B" unicode="&#x13b;" 
d="M1026 0h-829l237 1495h103l-224 -1401h727zM457 -492h-103l232 297h133z" />
    <glyph glyph-name="uni013C" unicode="&#x13c;" horiz-adv-x="819" 
d="M653 0h-155q-138 0 -202 71.5t-42 204.5l178 1127h-252l17 92h354l-195 -1219q-27 -184 156 -184h156zM182 -492h-102l231 297h133z" />
    <glyph glyph-name="Lcaron" unicode="&#x13d;" 
d="M1458 1495h-82l80 369h103zM1026 0h-829l237 1495h103l-224 -1401h727z" />
    <glyph glyph-name="lcaron" unicode="&#x13e;" horiz-adv-x="819" 
d="M760 1495h-82l80 369h102zM653 0h-155q-138 0 -202 71.5t-42 204.5l178 1127h-252l17 92h354l-195 -1219q-27 -184 156 -184h156z" />
    <glyph glyph-name="Ldot" unicode="&#x13f;" 
d="M1026 0h-829l237 1495h103l-224 -1401h727zM604 543q-69 0 -102.5 41t-22.5 112q10 69 57.5 109.5t116.5 40.5t102.5 -40.5t22.5 -109.5q-10 -70 -57.5 -111.5t-116.5 -41.5z" />
    <glyph glyph-name="ldot" unicode="&#x140;" 
d="M612 0h-155q-138 0 -202 71.5t-42 204.5l178 1127h-252l17 92h354l-195 -1219q-27 -184 156 -184h156zM891 543q-69 0 -102.5 41t-22.5 112q10 69 57.5 109.5t116.5 40.5t102.5 -40.5t22.5 -109.5q-10 -70 -57.5 -111.5t-116.5 -41.5z" />
    <glyph glyph-name="Lslash" unicode="&#x141;" 
d="M438 743l-104 -649h727l-14 -94h-830l107 672l-295 -185l18 117l295 184l113 707h102l-100 -635l430 270l-19 -116z" />
    <glyph glyph-name="lslash" unicode="&#x142;" horiz-adv-x="819" 
d="M799 1014l-365 -252l-78 -486q-27 -184 156 -184h156l-15 -92h-155q-138 0 -202 71.5t-42 204.5l63 406l-276 -190v112l297 205l94 594h-252l17 92h354l-96 -606l344 237v-112z" />
    <glyph glyph-name="Nacute" unicode="&#x143;" 
d="M825 1659h-116l262 287h129zM233 0h-98l238 1495h137l332 -1382q7 74 28 235l183 1147h98l-238 -1495h-139l-325 1382q-6 -61 -33 -235z" />
    <glyph glyph-name="nacute" unicode="&#x144;" 
d="M940 1608h129l-274 -287h-117zM733 1147q166 0 249 -107t54 -288l-118 -752h-103l117 737q25 151 -38 236.5t-196 85.5q-135 0 -228 -86.5t-116 -235.5l-116 -737h-103l178 1126h103l-31 -192q45 100 136 156.5t212 56.5z" />
    <glyph glyph-name="uni0145" unicode="&#x145;" 
d="M233 0h-98l238 1495h137l332 -1382q7 74 28 235l183 1147h98l-238 -1495h-139l-325 1382q-6 -61 -33 -235zM375 -492h-103l232 297h133z" />
    <glyph glyph-name="uni0146" unicode="&#x146;" 
d="M733 1147q166 0 249 -107t54 -288l-118 -752h-103l117 737q25 151 -38 236.5t-196 85.5q-135 0 -228 -86.5t-116 -235.5l-116 -737h-103l178 1126h103l-31 -192q45 100 136 156.5t212 56.5zM375 -492h-103l232 297h133z" />
    <glyph glyph-name="Ncaron" unicode="&#x147;" 
d="M848 1659h-123l-201 287h101l172 -224l239 224h103zM233 0h-98l238 1495h137l332 -1382q7 74 28 235l183 1147h98l-238 -1495h-139l-325 1382q-6 -61 -33 -235z" />
    <glyph glyph-name="ncaron" unicode="&#x148;" 
d="M1090 1608l-291 -287h-123l-201 287h100l173 -224l239 224h103zM733 1147q166 0 249 -107t54 -288l-118 -752h-103l117 737q25 151 -38 236.5t-196 85.5q-135 0 -228 -86.5t-116 -235.5l-116 -737h-103l178 1126h103l-31 -192q45 100 136 156.5t212 56.5z" />
    <glyph glyph-name="napostrophe" unicode="&#x149;" 
d="M360 1618h134l-263 -297h-102zM733 1147q166 0 249 -107t54 -288l-118 -752h-103l117 737q25 151 -38 236.5t-196 85.5q-135 0 -228 -86.5t-116 -235.5l-116 -737h-103l178 1126h103l-31 -192q45 100 136 156.5t212 56.5z" />
    <glyph glyph-name="Eng" unicode="&#x14a;" 
d="M479 -369h-164l17 93h164q135 0 215 70.5t102 205.5l-367 1382q-8 -81 -32 -235l-183 -1147h-98l238 1495h139l346 -1302q7 88 33 256l166 1046h98l-238 -1495q-28 -177 -141.5 -273t-294.5 -96z" />
    <glyph glyph-name="eng" unicode="&#x14b;" 
d="M733 1147q166 0 249 -107t54 -288l-114 -721q-28 -182 -160.5 -291t-325.5 -109h-84l17 93h84q148 0 246 82.5t120 224.5l113 706q25 151 -38 236.5t-196 85.5q-135 0 -228 -86.5t-116 -235.5l-116 -737h-103l178 1126h103l-31 -192q45 100 136 156.5t212 56.5z" />
    <glyph glyph-name="Omacron" unicode="&#x14c;" 
d="M1087 1749h-573l14 88h574zM520 -20q-182 0 -272.5 111t-61.5 298l115 717q29 186 155.5 298t307.5 112q182 0 273.5 -112t62.5 -298l-115 -717q-29 -187 -155.5 -298t-309.5 -111zM535 70q141 0 232 83.5t116 235.5l114 717q23 151 -42 235t-205 84t-232 -84.5
t-115 -234.5l-114 -717q-25 -152 40 -235.5t206 -83.5z" />
    <glyph glyph-name="omacron" unicode="&#x14d;" 
d="M1032 1401h-573l14 88h574zM520 -20q-182 0 -272.5 111t-61.5 298l56 348q29 186 156 298t309 112q181 0 271.5 -112t61.5 -298l-55 -348q-29 -187 -155.5 -298t-309.5 -111zM535 70q141 0 232 83.5t116 235.5l55 348q25 150 -40.5 235t-205.5 85q-139 0 -231 -84.5
t-117 -235.5l-55 -348q-25 -152 40 -235.5t206 -83.5z" />
    <glyph glyph-name="Obreve" unicode="&#x14e;" 
d="M786 1655q-136 0 -203.5 78.5t-47.5 212.5h92q-15 -97 30.5 -153t139.5 -56q95 0 159.5 56t79.5 153h92q-20 -133 -112.5 -212t-229.5 -79zM520 -20q-182 0 -272.5 111t-61.5 298l115 717q29 186 155.5 298t307.5 112q182 0 273.5 -112t62.5 -298l-115 -717
q-29 -187 -155.5 -298t-309.5 -111zM535 70q141 0 232 83.5t116 235.5l114 717q23 151 -42 235t-205 84t-232 -84.5t-115 -234.5l-114 -717q-25 -152 40 -235.5t206 -83.5z" />
    <glyph glyph-name="obreve" unicode="&#x14f;" 
d="M733 1317q-136 0 -204 78.5t-48 212.5h92q-15 -97 30.5 -153t139.5 -56q95 0 160 56t80 153h92q-20 -133 -112.5 -212t-229.5 -79zM520 -20q-182 0 -272.5 111t-61.5 298l56 348q29 186 156 298t309 112q181 0 271.5 -112t61.5 -298l-55 -348q-29 -187 -155.5 -298
t-309.5 -111zM535 70q141 0 232 83.5t116 235.5l55 348q25 150 -40.5 235t-205.5 85q-139 0 -231 -84.5t-117 -235.5l-55 -348q-25 -152 40 -235.5t206 -83.5z" />
    <glyph glyph-name="Ohungarumlaut" unicode="&#x150;" 
d="M643 1659h-115l263 287h127zM969 1659h-115l262 287h127zM520 -20q-182 0 -272.5 111t-61.5 298l115 717q29 186 155.5 298t307.5 112q182 0 273.5 -112t62.5 -298l-115 -717q-29 -187 -155.5 -298t-309.5 -111zM535 70q141 0 232 83.5t116 235.5l114 717q23 151 -42 235
t-205 84t-232 -84.5t-115 -234.5l-114 -717q-25 -152 40 -235.5t206 -83.5z" />
    <glyph glyph-name="ohungarumlaut" unicode="&#x151;" 
d="M590 1321h-115l262 287h127zM915 1321h-114l262 287h127zM520 -20q-182 0 -272.5 111t-61.5 298l56 348q29 186 156 298t309 112q181 0 271.5 -112t61.5 -298l-55 -348q-29 -187 -155.5 -298t-309.5 -111zM535 70q141 0 232 83.5t116 235.5l55 348q25 150 -40.5 235
t-205.5 85q-139 0 -231 -84.5t-117 -235.5l-55 -348q-25 -152 40 -235.5t206 -83.5z" />
    <glyph glyph-name="OE" unicode="&#x152;" 
d="M307 -20q-140 0 -213 105t-47 269l125 787q26 164 132.5 269.5t246.5 105.5q97 0 152.5 -57.5t62.5 -127.5h10l27 164h510l-17 -102h-397l-90 -570h324l-17 -102h-323l-99 -619h398l-17 -102h-510l27 164h-10q-31 -70 -104.5 -127t-170.5 -57zM346 82q103 0 179.5 74.5
t95.5 197.5l124 787q20 123 -33 197.5t-155 74.5t-177 -75t-95 -197l-125 -787q-19 -122 32 -197t154 -75z" />
    <glyph glyph-name="oe" unicode="&#x153;" 
d="M262 -20q-130 0 -193.5 82.5t-41.5 222.5l88 551q22 141 116.5 226t229.5 85q108 0 163.5 -54.5t57.5 -121.5h4q27 67 100 121.5t172 54.5q133 0 198.5 -83.5t43.5 -223.5l-49 -308h-487l-39 -245q-15 -97 29 -157t132 -60q83 0 146.5 51t85.5 135h102
q-31 -126 -124 -201t-218 -75q-108 0 -163.5 53.5t-57.5 120.5h-6q-24 -67 -99.5 -120.5t-189.5 -53.5zM295 70q88 0 151 60t78 157l88 553q15 97 -28.5 157t-130.5 60q-90 0 -154.5 -61t-79.5 -160l-88 -551q-15 -97 30 -156t134 -59zM713 840l-33 -205h385l33 205
q15 97 -29 157t-131 60q-86 0 -148 -60t-77 -157z" />
    <glyph glyph-name="Racute" unicode="&#x154;" 
d="M971 1946h129l-275 -287h-116zM373 1495h420q198 0 295.5 -111.5t68.5 -302.5q-26 -164 -137.5 -272.5t-274.5 -130.5l242 -678h-110l-234 676h-299l-106 -676h-103zM1055 1085q23 144 -53 230t-226 86h-317l-101 -633h318q149 0 252.5 86t126.5 231z" />
    <glyph glyph-name="racute" unicode="&#x155;" 
d="M979 1608h129l-274 -287h-117zM764 1147q180 0 266 -110.5t57 -299.5l-10 -61h-112l10 61q25 152 -39.5 237t-202.5 85t-228.5 -85t-115.5 -237l-117 -737h-102l178 1126h103l-25 -153h10q46 83 131 128.5t197 45.5z" />
    <glyph glyph-name="uni0156" unicode="&#x156;" 
d="M373 1495h420q198 0 295.5 -111.5t68.5 -302.5q-26 -164 -137.5 -272.5t-274.5 -130.5l242 -678h-110l-234 676h-299l-106 -676h-103zM1055 1085q23 144 -53 230t-226 86h-317l-101 -633h318q149 0 252.5 86t126.5 231zM375 -492h-103l232 297h133z" />
    <glyph glyph-name="uni0157" unicode="&#x157;" 
d="M764 1147q180 0 266 -110.5t57 -299.5l-10 -61h-112l10 61q25 152 -39.5 237t-202.5 85t-228.5 -85t-115.5 -237l-117 -737h-102l178 1126h103l-25 -153h10q46 83 131 128.5t197 45.5zM37 -492h-103l232 297h133z" />
    <glyph glyph-name="Rcaron" unicode="&#x158;" 
d="M1139 1946l-291 -287h-123l-201 287h101l172 -224l239 224h103zM373 1495h420q198 0 295.5 -111.5t68.5 -302.5q-26 -164 -137.5 -272.5t-274.5 -130.5l242 -678h-110l-234 676h-299l-106 -676h-103zM1055 1085q23 144 -53 230t-226 86h-317l-101 -633h318
q149 0 252.5 86t126.5 231z" />
    <glyph glyph-name="rcaron" unicode="&#x159;" 
d="M1128 1608l-290 -287h-123l-201 287h100l172 -224l240 224h102zM764 1147q180 0 266 -110.5t57 -299.5l-10 -61h-112l10 61q25 152 -39.5 237t-202.5 85t-228.5 -85t-115.5 -237l-117 -737h-102l178 1126h103l-25 -153h10q46 83 131 128.5t197 45.5z" />
    <glyph glyph-name="Sacute" unicode="&#x15a;" 
d="M825 1659h-116l262 287h129zM530 -20q-207 0 -311.5 108t-75.5 291h103q-22 -139 60.5 -223t240.5 -84q154 0 252.5 77t120.5 213q19 125 -32.5 211t-166.5 121l-166 51q-139 43 -205 150t-43 250q26 170 153 270.5t316 100.5q187 0 280.5 -106t65.5 -288h-102
q22 136 -49 218.5t-211 82.5q-143 0 -237 -72t-113 -198q-17 -115 32 -199t152 -116l166 -52q144 -44 215.5 -159t48.5 -258q-29 -179 -162.5 -284t-331.5 -105z" />
    <glyph glyph-name="sacute" unicode="&#x15b;" 
d="M801 1321h-117l262 287h129zM600 -20h-137q-152 0 -239 82t-81 214h103q2 -90 65 -147t168 -57h137q112 0 187 58.5t90 156.5q14 89 -29.5 151t-130.5 74l-213 31q-141 20 -208.5 98t-47.5 201q23 140 133 222.5t273 82.5h86q152 0 237 -75.5t80 -201.5h-102
q2 81 -61 133t-169 52h-86q-116 0 -194.5 -57.5t-91.5 -153.5q-24 -175 184 -205l209 -31q129 -19 192 -105.5t43 -215.5q-23 -141 -130 -224t-267 -83z" />
    <glyph glyph-name="Scircumflex" unicode="&#x15c;" 
d="M588 1659h-109l291 287h123l201 -287h-97l-170 223zM530 -20q-207 0 -311.5 108t-75.5 291h103q-22 -139 60.5 -223t240.5 -84q154 0 252.5 77t120.5 213q19 125 -32.5 211t-166.5 121l-166 51q-139 43 -205 150t-43 250q26 170 153 270.5t316 100.5q187 0 280.5 -106
t65.5 -288h-102q22 136 -49 218.5t-211 82.5q-143 0 -237 -72t-113 -198q-17 -115 32 -199t152 -116l166 -52q144 -44 215.5 -159t48.5 -258q-29 -179 -162.5 -284t-331.5 -105z" />
    <glyph glyph-name="scircumflex" unicode="&#x15d;" 
d="M543 1321h-109l291 287h123l201 -287h-97l-172 223zM600 -20h-137q-152 0 -239 82t-81 214h103q2 -90 65 -147t168 -57h137q112 0 187 58.5t90 156.5q14 89 -29.5 151t-130.5 74l-213 31q-141 20 -208.5 98t-47.5 201q23 140 133 222.5t273 82.5h86q152 0 237 -75.5
t80 -201.5h-102q2 81 -61 133t-169 52h-86q-116 0 -194.5 -57.5t-91.5 -153.5q-24 -175 184 -205l209 -31q129 -19 192 -105.5t43 -215.5q-23 -141 -130 -224t-267 -83z" />
    <glyph glyph-name="Scedilla" unicode="&#x15e;" 
d="M1122 1122h-102q22 136 -49 218.5t-211 82.5q-143 0 -237 -72t-113 -198q-17 -115 32 -199t152 -116l166 -52q144 -44 215.5 -159t48.5 -258q-29 -174 -156 -278.5t-317 -110.5l-27 -50q38 -2 73.5 -13t66.5 -31t47 -53t10 -75q-9 -67 -73.5 -112t-155.5 -45h-164l12 71
h164q48 0 83 25.5t40 60.5q8 50 -54 80.5t-170 30.5l62 113q-175 19 -261.5 124.5t-60.5 272.5h103q-22 -139 60.5 -223t240.5 -84q154 0 252.5 77t120.5 213q19 125 -32.5 211t-166.5 121l-166 51q-139 43 -205 150t-43 250q26 170 153 270.5t316 100.5q187 0 280.5 -106
t65.5 -288z" />
    <glyph glyph-name="scedilla" unicode="&#x15f;" 
d="M1073 870h-102q2 81 -61 133t-169 52h-86q-116 0 -194.5 -57.5t-91.5 -153.5q-24 -175 184 -205l209 -31q129 -19 192 -105.5t43 -215.5q-23 -141 -130 -224t-267 -83l-27 -50q38 -2 74 -13t67.5 -31t47.5 -53t10 -75q-11 -67 -74.5 -112t-154.5 -45h-164l12 71h164
q48 0 83 25.5t40 60.5q8 50 -53.5 80.5t-169.5 30.5l59 111h-51q-152 0 -239 82t-81 214h103q2 -90 65 -147t168 -57h137q112 0 187 58.5t90 156.5q14 89 -29.5 151t-130.5 74l-213 31q-141 20 -208.5 98t-47.5 201q23 140 133 222.5t273 82.5h86q152 0 237 -75.5t80 -201.5
z" />
    <glyph glyph-name="Scaron" unicode="&#x160;" 
d="M848 1659h-123l-201 287h101l172 -224l239 224h103zM530 -20q-207 0 -311.5 108t-75.5 291h103q-22 -139 60.5 -223t240.5 -84q154 0 252.5 77t120.5 213q19 125 -32.5 211t-166.5 121l-166 51q-139 43 -205 150t-43 250q26 170 153 270.5t316 100.5q187 0 280.5 -106
t65.5 -288h-102q22 136 -49 218.5t-211 82.5q-143 0 -237 -72t-113 -198q-17 -115 32 -199t152 -116l166 -52q144 -44 215.5 -159t48.5 -258q-29 -179 -162.5 -284t-331.5 -105z" />
    <glyph glyph-name="scaron" unicode="&#x161;" 
d="M805 1321h-123l-201 287h101l172 -224l239 224h103zM600 -20h-137q-152 0 -239 82t-81 214h103q2 -90 65 -147t168 -57h137q112 0 187 58.5t90 156.5q14 89 -29.5 151t-130.5 74l-213 31q-141 20 -208.5 98t-47.5 201q23 140 133 222.5t273 82.5h86q152 0 237 -75.5
t80 -201.5h-102q2 81 -61 133t-169 52h-86q-116 0 -194.5 -57.5t-91.5 -153.5q-24 -175 184 -205l209 -31q129 -19 192 -105.5t43 -215.5q-23 -141 -130 -224t-267 -83z" />
    <glyph glyph-name="uni0162" unicode="&#x162;" 
d="M254 1401l16 94h983l-16 -94h-438l-221 -1401l-39 -70q38 -2 74 -13t67.5 -31t47 -53t9.5 -75q-11 -67 -74.5 -112t-154.5 -45h-164l12 71h164q48 0 83 25.5t40 60.5q8 50 -53.5 80.5t-169.5 30.5l72 131h-17l221 1401h-442z" />
    <glyph glyph-name="uni0163" unicode="&#x163;" horiz-adv-x="1024" 
d="M928 1034h-383l-123 -778q-12 -80 23 -122t114 -42h178l-14 -92h-178h-6l-27 -70q53 -3 101.5 -20.5t86 -57t37.5 -94.5q0 -67 -57 -112t-148 -45h-163v71h163q48 0 79.5 25.5t31.5 60.5q0 50 -66.5 80.5t-175.5 30.5l56 141q-84 20 -119.5 83.5t-18.5 162.5l123 778
h-280l14 92h281l49 308h102l-49 -308h383z" />
    <glyph glyph-name="Tcaron" unicode="&#x164;" 
d="M848 1659h-123l-201 287h101l172 -224l239 224h103zM578 0h-103l221 1401h-442l16 94h983l-16 -94h-438z" />
    <glyph glyph-name="tcaron" unicode="&#x165;" horiz-adv-x="1024" 
d="M903 1270h-100l215 319h141zM723 0h-178q-129 0 -187.5 66t-38.5 190l123 778h-280l14 92h281l49 308h102l-49 -308h383l-14 -92h-383l-123 -778q-12 -80 23 -122t114 -42h178z" />
    <glyph glyph-name="Tbar" unicode="&#x166;" 
d="M1253 1495l-16 -94h-438l-107 -674h318l-15 -92h-317l-100 -635h-103l100 635h-317l14 92h318l106 674h-442l16 94h983z" />
    <glyph glyph-name="tbar" unicode="&#x167;" horiz-adv-x="1024" 
d="M942 1126l-14 -92h-383l-66 -411h379l-14 -88h-379l-43 -279q-12 -80 23 -122t114 -42h178l-14 -92h-178q-129 0 -187.5 66t-38.5 190l43 279h-278l14 88h279l65 411h-280l14 92h281l49 308h102l-49 -308h383z" />
    <glyph glyph-name="Utilde" unicode="&#x168;" 
d="M942 1669q-43 0 -77 19t-56 46.5t-41.5 55t-43 46.5t-50.5 19q-47 0 -79 -28.5t-40 -75.5l-10 -72h-82l10 72q13 86 71 135t144 49q43 0 76.5 -19t55.5 -46.5t41 -55t42.5 -46.5t50.5 -19q43 0 72 28.5t37 75.5l12 72h82l-12 -72q-14 -86 -67.5 -135t-135.5 -49zM522 -20
q-180 0 -269 111.5t-60 297.5l176 1106h102l-176 -1106q-23 -150 41.5 -233.5t202.5 -83.5q136 0 225.5 84t112.5 233l176 1106h102l-176 -1106q-29 -186 -153.5 -297.5t-303.5 -111.5z" />
    <glyph glyph-name="utilde" unicode="&#x169;" 
d="M889 1331q-43 0 -77 19.5t-56 46.5t-41.5 54.5t-43 47t-50.5 19.5q-47 0 -79 -28.5t-40 -76.5l-10 -72h-82l10 72q13 86 70.5 135t144.5 49q43 0 76.5 -19t55.5 -46.5t41 -55t42.5 -46.5t50.5 -19q42 0 71.5 28.5t37.5 76.5l12 71h82l-12 -71q-14 -86 -67.5 -135.5
t-135.5 -49.5zM518 -20q-183 0 -268.5 111t-54.5 306l114 729h103l-115 -729q-25 -153 38.5 -239t199.5 -86q137 0 228 86t116 239l114 729h103l-115 -729q-31 -194 -155 -305.5t-308 -111.5z" />
    <glyph glyph-name="Umacron" unicode="&#x16a;" 
d="M1087 1749h-573l14 88h574zM522 -20q-180 0 -269 111.5t-60 297.5l176 1106h102l-176 -1106q-23 -150 41.5 -233.5t202.5 -83.5q136 0 225.5 84t112.5 233l176 1106h102l-176 -1106q-29 -186 -153.5 -297.5t-303.5 -111.5z" />
    <glyph glyph-name="umacron" unicode="&#x16b;" 
d="M1032 1401h-573l14 88h574zM518 -20q-183 0 -268.5 111t-54.5 306l114 729h103l-115 -729q-25 -153 38.5 -239t199.5 -86q137 0 228 86t116 239l114 729h103l-115 -729q-31 -194 -155 -305.5t-308 -111.5z" />
    <glyph glyph-name="Ubreve" unicode="&#x16c;" 
d="M786 1655q-136 0 -203.5 78.5t-47.5 212.5h92q-15 -97 30.5 -153t139.5 -56q95 0 159.5 56t79.5 153h92q-20 -133 -112.5 -212t-229.5 -79zM522 -20q-180 0 -269 111.5t-60 297.5l176 1106h102l-176 -1106q-23 -150 41.5 -233.5t202.5 -83.5q136 0 225.5 84t112.5 233
l176 1106h102l-176 -1106q-29 -186 -153.5 -297.5t-303.5 -111.5z" />
    <glyph glyph-name="ubreve" unicode="&#x16d;" 
d="M733 1317q-136 0 -204 78.5t-48 212.5h92q-15 -97 30.5 -153t139.5 -56q95 0 160 56t80 153h92q-20 -133 -112.5 -212t-229.5 -79zM518 -20q-183 0 -268.5 111t-54.5 306l114 729h103l-115 -729q-25 -153 38.5 -239t199.5 -86q137 0 228 86t116 239l114 729h103
l-115 -729q-31 -194 -155 -305.5t-308 -111.5z" />
    <glyph glyph-name="Uring" unicode="&#x16e;" 
d="M780 1597q-97 0 -148 56.5t-38 148.5q15 92 84 148.5t166 56.5q95 0 145 -56.5t35 -148.5q-13 -92 -81 -148.5t-163 -56.5zM788 1669q60 0 102.5 36.5t51.5 96.5q10 60 -20.5 96.5t-90.5 36.5t-102 -36.5t-53 -96.5q-9 -60 21.5 -96.5t90.5 -36.5zM522 -20
q-180 0 -269 111.5t-60 297.5l176 1106h102l-176 -1106q-23 -150 41.5 -233.5t202.5 -83.5q136 0 225.5 84t112.5 233l176 1106h102l-176 -1106q-29 -186 -153.5 -297.5t-303.5 -111.5z" />
    <glyph glyph-name="uring" unicode="&#x16f;" 
d="M725 1260q-97 0 -147.5 56t-36.5 148q15 92 84 148.5t166 56.5q95 0 145 -56.5t35 -148.5q-13 -92 -81.5 -148t-164.5 -56zM735 1331q60 0 102.5 36.5t51.5 96.5t-21 96.5t-90 36.5t-103 -36.5t-52 -96.5t21.5 -96.5t90.5 -36.5zM518 -20q-183 0 -268.5 111t-54.5 306
l114 729h103l-115 -729q-25 -153 38.5 -239t199.5 -86q137 0 228 86t116 239l114 729h103l-115 -729q-31 -194 -155 -305.5t-308 -111.5z" />
    <glyph glyph-name="Uhungarumlaut" unicode="&#x170;" 
d="M643 1659h-115l263 287h127zM969 1659h-115l262 287h127zM522 -20q-180 0 -269 111.5t-60 297.5l176 1106h102l-176 -1106q-23 -150 41.5 -233.5t202.5 -83.5q136 0 225.5 84t112.5 233l176 1106h102l-176 -1106q-29 -186 -153.5 -297.5t-303.5 -111.5z" />
    <glyph glyph-name="uhungarumlaut" unicode="&#x171;" 
d="M590 1321h-115l262 287h127zM915 1321h-114l262 287h127zM518 -20q-183 0 -268.5 111t-54.5 306l114 729h103l-115 -729q-25 -153 38.5 -239t199.5 -86q137 0 228 86t116 239l114 729h103l-115 -729q-31 -194 -155 -305.5t-308 -111.5z" />
    <glyph glyph-name="Uogonek" unicode="&#x172;" 
d="M752 -399h-150q-85 0 -126.5 43.5t-29.5 119.5q7 54 49.5 113.5t108.5 110.5q-31 -8 -84 -8q-181 0 -268.5 110.5t-58.5 298.5l176 1106h102l-176 -1106q-25 -153 37 -236t203 -83q140 0 228.5 83t113.5 236l176 1106h102l-176 -1106q-40 -258 -252 -369l-22 -16
q-66 -53 -109 -112t-49 -103q-8 -48 15.5 -75t72.5 -27h131z" />
    <glyph glyph-name="uogonek" unicode="&#x173;" 
d="M760 -399h-150q-85 0 -126 43t-29 120q15 102 161 224q-39 -8 -96 -8q-181 0 -268.5 110.5t-58.5 298.5l116 737h103l-117 -737q-25 -153 37 -236t203 -83q140 0 228.5 83t113.5 236l116 737h103l-117 -737q-38 -232 -203 -338l-63 -51q-68 -56 -110 -112t-48 -99
q-8 -48 15.5 -75t72.5 -27h131z" />
    <glyph glyph-name="Wcircumflex" unicode="&#x174;" 
d="M588 1659h-109l291 287h123l201 -287h-97l-170 223zM319 0h-143l53 1495h90l-36 -1106q-1 -48 -13 -317q60 203 95 317l333 1106h131l-24 -1106q-1 -41 -3 -160t-3 -157q80 273 92 317l303 1106h100l-424 -1495h-147l22 1085l9 328q-13 -41 -48 -159.5t-51 -168.5z" />
    <glyph glyph-name="wcircumflex" unicode="&#x175;" 
d="M535 1321h-109l291 287h123l200 -287h-96l-172 223zM338 0h-135l-13 1126h95l6 -837q0 -103 -4 -217q21 84 65 215l297 839h105l30 -839q4 -109 0 -215q33 136 60 217l272 837h98l-370 -1126h-135l-15 801q-1 36 -2 121.5t-2 115.5q-19 -63 -78 -237z" />
    <glyph glyph-name="Ycircumflex" unicode="&#x176;" 
d="M588 1659h-109l291 287h123l201 -287h-97l-170 223zM575 0h-102l90 573l-313 922h102l230 -676q37 -108 47 -143q5 8 20 32.5t33.5 54t36.5 56.5l444 676h111l-608 -922z" />
    <glyph glyph-name="ycircumflex" unicode="&#x177;" 
d="M944 1321l-172 223l-237 -223h-109l291 287h123l200 -287h-96zM874 492l101 634h102l-182 -1157q-28 -167 -131 -252.5t-275 -85.5h-296l16 93h297q246 0 287 245l20 133l31 193q-45 -100 -136 -156.5t-212 -56.5q-166 0 -249 107t-54 288l102 649h102l-100 -634
q-25 -151 37.5 -236.5t195.5 -85.5q135 0 228 86.5t116 235.5z" />
    <glyph glyph-name="Ydieresis" unicode="&#x178;" 
d="M578 1690q-48 0 -73 30.5t-18 81.5q9 51 43.5 82t81.5 31q48 0 72.5 -31t15.5 -82q-7 -51 -41 -81.5t-81 -30.5zM1018 1690q-49 0 -74.5 30.5t-17.5 81.5q9 51 43.5 82t83.5 31q47 0 71 -31t15 -82q-7 -51 -40.5 -81.5t-80.5 -30.5zM575 0h-102l90 573l-313 922h102
l230 -676q37 -108 47 -143q5 8 20 32.5t33.5 54t36.5 56.5l444 676h111l-608 -922z" />
    <glyph glyph-name="Zacute" unicode="&#x179;" 
d="M825 1659h-116l262 287h129zM950 0h-854l17 102l927 1299h-714l16 94h819l-18 -117l-922 -1284h744z" />
    <glyph glyph-name="zacute" unicode="&#x17a;" 
d="M793 1321h-117l262 287h129zM928 0h-807l14 94l809 940h-641l14 92h762l-14 -96l-811 -938h688z" />
    <glyph glyph-name="Zdotaccent" unicode="&#x17b;" 
d="M793 1690q-54 0 -82 30.5t-21 81.5q9 51 46 82t91 31t82 -31t19 -82q-8 -51 -44.5 -81.5t-90.5 -30.5zM950 0h-854l17 102l927 1299h-714l16 94h819l-18 -117l-922 -1284h744z" />
    <glyph glyph-name="zdotaccent" unicode="&#x17c;" 
d="M735 1341q-54 0 -81 31t-19 82q7 51 45 82t92 31t81 -31t19 -82q-7 -51 -45 -82t-92 -31zM928 0h-807l14 94l809 940h-641l14 92h762l-14 -96l-811 -938h688z" />
    <glyph glyph-name="Zcaron" unicode="&#x17d;" 
d="M848 1659h-123l-201 287h101l172 -224l239 224h103zM950 0h-854l17 102l927 1299h-714l16 94h819l-18 -117l-922 -1284h744z" />
    <glyph glyph-name="zcaron" unicode="&#x17e;" 
d="M797 1321h-123l-201 287h100l172 -224l240 224h102zM928 0h-807l14 94l809 940h-641l14 92h762l-14 -96l-811 -938h688z" />
    <glyph glyph-name="longs" unicode="&#x17f;" 
d="M178 -369h-231l16 93h232q78 0 127 42.5t61 120.5l215 1352q20 120 101.5 188t205.5 68h314l-17 -92h-313q-78 0 -127.5 -43t-61.5 -121l-215 -1352q-19 -120 -100.5 -188t-206.5 -68z" />
    <glyph glyph-name="uni018F" unicode="&#x18f;" 
d="M762 1516q187 0 277 -111t61 -299l-115 -717q-29 -187 -155 -298t-312 -111q-185 0 -273 111t-59 298l62 385h696l53 332q23 149 -42 233t-207 84q-144 0 -234 -89.5t-115 -248.5h-102q31 199 154 315t311 116zM883 389l47 297h-594l-47 -297q-23 -149 40 -234t203 -85
q144 0 236 84.5t115 234.5z" />
    <glyph glyph-name="uni0190" unicode="&#x190;" 
d="M1169 1120h-102q22 135 -58 220t-229 85t-254 -84.5t-127 -220.5q-22 -135 57 -220t228 -85h143l-14 -92h-154q-160 0 -274 -91t-137 -237q-23 -144 63 -233.5t246 -89.5t274.5 89.5t137.5 233.5h102q-29 -184 -176.5 -299.5t-353.5 -115.5t-315.5 117t-80.5 304
q23 142 117.5 241.5t229.5 125.5q-110 30 -163.5 124t-31.5 228q28 175 166.5 285.5t331.5 110.5t297.5 -110.5t76.5 -285.5z" />
    <glyph glyph-name="florin" unicode="&#x192;" 
d="M47 -369h-197l17 93h196q145 0 232.5 75.5t110.5 220.5l104 660h-348l14 92h348l74 467q19 120 100.5 188t206.5 68h314l-17 -92h-313q-78 0 -127.5 -43t-61.5 -121l-73 -467h477l-14 -92h-478l-108 -680q-28 -172 -151 -270.5t-306 -98.5z" />
    <glyph glyph-name="uni019B" unicode="&#x19b;" 
d="M727 1337l383 179l-16 -99l-351 -162l258 -1255h-106l-145 731q-7 33 -18.5 90t-20.5 100t-13 68q-90 -190 -127 -258l-399 -731h-121l617 1104l-25 104l-389 -180l16 98l355 164l-47 205h116z" />
    <glyph glyph-name="Ohorn" unicode="&#x1a0;" 
d="M1141 1536l20 123h82l-20 -123q-10 -67 -53.5 -112.5t-106.5 -57.5q61 -106 37 -260l-115 -717q-29 -187 -155.5 -298t-309.5 -111q-182 0 -272.5 111t-61.5 298l115 717q29 186 155.5 298t307.5 112q156 0 244 -82h26q41 0 70 28t37 74zM883 389l114 717q23 151 -42 235
t-205 84t-232 -84.5t-115 -234.5l-114 -717q-25 -152 40 -235.5t206 -83.5t232 83.5t116 235.5z" />
    <glyph glyph-name="ohorn" unicode="&#x1a1;" 
d="M1092 1188l20 123h82l-20 -123q-10 -73 -60 -119.5t-121 -54.5q74 -110 47 -277l-55 -348q-29 -187 -155.5 -298t-309.5 -111q-182 0 -272.5 111t-61.5 298l56 348q29 186 156 298t309 112q128 0 219 -62h59q41 0 70 28.5t37 74.5zM883 389l55 348q25 150 -40.5 235
t-205.5 85q-139 0 -231 -84.5t-117 -235.5l-55 -348q-25 -152 40 -235.5t206 -83.5t232 83.5t116 235.5z" />
    <glyph glyph-name="Uhorn" unicode="&#x1af;" 
d="M1337 1597l21 123h82l-21 -123q-12 -78 -67 -126t-133 -48h-76l-164 -1034q-29 -186 -153.5 -297.5t-303.5 -111.5q-180 0 -269 111.5t-60 297.5l176 1106h102l-176 -1106q-23 -150 41.5 -233.5t202.5 -83.5q136 0 225.5 84t112.5 233l176 1106h178q41 0 69.5 28t36.5 74
z" />
    <glyph glyph-name="uhorn" unicode="&#x1b0;" 
d="M195 397l114 729h103l-115 -729q-25 -153 38.5 -239t199.5 -86q137 0 228 86t116 239l114 729h101q41 0 70.5 28.5t37.5 74.5l21 123h82l-21 -123q-12 -78 -67 -126t-132 -48l-104 -658q-31 -194 -155 -305.5t-308 -111.5q-183 0 -268.5 111t-54.5 306z" />
    <glyph glyph-name="uni01CD" unicode="&#x1cd;" 
d="M848 1659h-123l-201 287h101l172 -224l239 224h103zM156 0h-107l649 1495h127l174 -1495h-102l-47 430h-512zM637 1126l-260 -604h463l-66 604q-9 84 -22 283q-19 -59 -115 -283z" />
    <glyph glyph-name="uni01CE" unicode="&#x1ce;" 
d="M1098 1608l-291 -287h-123l-201 287h101l172 -224l239 224h103zM958 973h7l24 153h103l-179 -1126h-102l25 154h-9q-50 -82 -137.5 -128t-195.5 -46q-169 0 -253 111.5t-55 295.5l56 350q29 185 149 297.5t289 112.5q108 0 180.5 -46t97.5 -128zM872 387l56 350
q23 152 -40 237t-202 85q-137 0 -228 -85.5t-114 -236.5l-55 -350q-23 -151 40 -235t199 -84q138 0 229.5 84.5t114.5 234.5z" />
    <glyph glyph-name="uni01D0" unicode="&#x1d0;" horiz-adv-x="1024" 
d="M737 1321h-123l-200 287h100l172 -224l240 224h102zM811 0h-694l14 92h309l150 942h-271l15 92h373l-164 -1034h282z" />
    <glyph glyph-name="uni01D2" unicode="&#x1d2;" 
d="M797 1321h-123l-201 287h100l172 -224l240 224h102zM520 -20q-182 0 -272.5 111t-61.5 298l56 348q29 186 156 298t309 112q181 0 271.5 -112t61.5 -298l-55 -348q-29 -187 -155.5 -298t-309.5 -111zM535 70q141 0 232 83.5t116 235.5l55 348q25 150 -40.5 235t-205.5 85
q-139 0 -231 -84.5t-117 -235.5l-55 -348q-25 -152 40 -235.5t206 -83.5z" />
    <glyph glyph-name="uni01D4" unicode="&#x1d4;" 
d="M797 1321h-123l-201 287h100l172 -224l240 224h102zM518 -20q-183 0 -268.5 111t-54.5 306l114 729h103l-115 -729q-25 -153 38.5 -239t199.5 -86q137 0 228 86t116 239l114 729h103l-115 -729q-31 -194 -155 -305.5t-308 -111.5z" />
    <glyph glyph-name="uni01D6" unicode="&#x1d6;" 
d="M1102 1841h-574l15 88h573zM518 1341q-47 0 -72 31t-18 82q9 51 43.5 82t81.5 31q48 0 72.5 -31t15.5 -82q-7 -51 -41.5 -82t-81.5 -31zM958 1341q-49 0 -74.5 31t-17.5 82q9 51 43.5 82t83.5 31q47 0 71 -31t15 -82q-8 -51 -41 -82t-80 -31zM518 -20q-183 0 -268.5 111
t-54.5 306l114 729h103l-115 -729q-25 -153 38.5 -239t199.5 -86q137 0 228 86t116 239l114 729h103l-115 -729q-31 -194 -155 -305.5t-308 -111.5z" />
    <glyph glyph-name="uni01D8" unicode="&#x1d8;" 
d="M862 1761h-117l263 287h129zM518 1341q-47 0 -72 31t-18 82q9 51 43.5 82t81.5 31q48 0 72.5 -31t15.5 -82q-7 -51 -41.5 -82t-81.5 -31zM958 1341q-49 0 -74.5 31t-17.5 82q9 51 43.5 82t83.5 31q47 0 71 -31t15 -82q-8 -51 -41 -82t-80 -31zM518 -20q-183 0 -268.5 111
t-54.5 306l114 729h103l-115 -729q-25 -153 38.5 -239t199.5 -86q137 0 228 86t116 239l114 729h103l-115 -729q-31 -194 -155 -305.5t-308 -111.5z" />
    <glyph glyph-name="uni01DA" unicode="&#x1da;" 
d="M866 1761h-123l-200 287h100l172 -223l240 223h102zM518 1341q-47 0 -72 31t-18 82q9 51 43.5 82t81.5 31q48 0 72.5 -31t15.5 -82q-7 -51 -41.5 -82t-81.5 -31zM958 1341q-49 0 -74.5 31t-17.5 82q9 51 43.5 82t83.5 31q47 0 71 -31t15 -82q-8 -51 -41 -82t-80 -31z
M518 -20q-183 0 -268.5 111t-54.5 306l114 729h103l-115 -729q-25 -153 38.5 -239t199.5 -86q137 0 228 86t116 239l114 729h103l-115 -729q-31 -194 -155 -305.5t-308 -111.5z" />
    <glyph glyph-name="uni01DC" unicode="&#x1dc;" 
d="M879 1761h-107l-184 287h119zM518 1341q-47 0 -72 31t-18 82q9 51 43.5 82t81.5 31q48 0 72.5 -31t15.5 -82q-7 -51 -41.5 -82t-81.5 -31zM958 1341q-49 0 -74.5 31t-17.5 82q9 51 43.5 82t83.5 31q47 0 71 -31t15 -82q-8 -51 -41 -82t-80 -31zM518 -20
q-183 0 -268.5 111t-54.5 306l114 729h103l-115 -729q-25 -153 38.5 -239t199.5 -86q137 0 228 86t116 239l114 729h103l-115 -729q-31 -194 -155 -305.5t-308 -111.5z" />
    <glyph glyph-name="Gcaron" unicode="&#x1e6;" 
d="M860 1659h-123l-200 287h100l172 -224l240 224h102zM532 -20q-187 0 -281 111.5t-65 297.5l115 717q29 187 158 298.5t317 111.5q190 0 285.5 -117t64.5 -314h-102q25 157 -45.5 247.5t-216.5 90.5q-143 0 -239.5 -85t-119.5 -232l-114 -717q-23 -148 46 -232.5
t214 -84.5q147 0 245.5 90.5t123.5 247.5l34 225h-354l14 94h457l-49 -319q-32 -196 -164.5 -313t-323.5 -117z" />
    <glyph glyph-name="gcaron" unicode="&#x1e7;" 
d="M1081 1608l-290 -287h-123l-201 287h100l172 -224l240 224h102zM961 940l28 186h103l-183 -1157q-26 -167 -129.5 -252.5t-275.5 -85.5h-297l16 93h297q122 0 195 62t92 183l14 92l35 228q-44 -97 -136 -152t-210 -55q-169 0 -252.5 111t-54.5 296l39 248
q29 185 149 297.5t289 112.5q118 0 192 -55t89 -152zM889 489l39 248q23 152 -40 237t-202 85q-137 0 -228 -85.5t-114 -236.5l-39 -248q-23 -151 40 -235t200 -84q138 0 229.5 84.5t114.5 234.5z" />
    <glyph glyph-name="uni01EA" unicode="&#x1ea;" 
d="M752 -399h-150q-85 0 -126.5 43.5t-29.5 119.5q7 54 49.5 113.5t108.5 110.5q-31 -8 -84 -8q-182 0 -272.5 111t-61.5 298l115 717q29 186 155.5 298t307.5 112q182 0 273.5 -112t62.5 -298l-115 -717q-39 -254 -258 -369l-22 -16q-66 -53 -109 -112t-49 -103
q-8 -48 15.5 -75t72.5 -27h131zM535 70q141 0 232 83.5t116 235.5l114 717q23 151 -42 235t-205 84t-232 -84.5t-115 -234.5l-114 -717q-25 -152 40 -235.5t206 -83.5z" />
    <glyph glyph-name="uni01EB" unicode="&#x1eb;" 
d="M760 -399h-150q-85 0 -126 43t-29 120q15 102 161 224q-39 -8 -96 -8q-182 0 -272.5 111t-61.5 298l56 348q29 186 156 298t309 112q181 0 271.5 -112t61.5 -298l-55 -348q-37 -228 -209 -338l-63 -51q-68 -56 -110 -112t-48 -99q-8 -48 15.5 -75t72.5 -27h131zM535 70
q141 0 232 83.5t116 235.5l55 348q25 150 -40.5 235t-205.5 85q-139 0 -231 -84.5t-117 -235.5l-55 -348q-25 -152 40 -235.5t206 -83.5z" />
    <glyph glyph-name="uni01F4" unicode="&#x1f4;" 
d="M838 1659h-117l262 287h129zM532 -20q-187 0 -281 111.5t-65 297.5l115 717q29 187 158 298.5t317 111.5q190 0 285.5 -117t64.5 -314h-102q25 157 -45.5 247.5t-216.5 90.5q-143 0 -239.5 -85t-119.5 -232l-114 -717q-23 -148 46 -232.5t214 -84.5q147 0 245.5 90.5
t123.5 247.5l34 225h-354l14 94h457l-49 -319q-32 -196 -164.5 -313t-323.5 -117z" />
    <glyph glyph-name="uni01F5" unicode="&#x1f5;" 
d="M932 1608h129l-275 -287h-116zM961 940l28 186h103l-183 -1157q-26 -167 -129.5 -252.5t-275.5 -85.5h-297l16 93h297q122 0 195 62t92 183l14 92l35 228q-44 -97 -136 -152t-210 -55q-169 0 -252.5 111t-54.5 296l39 248q29 185 149 297.5t289 112.5q118 0 192 -55
t89 -152zM889 489l39 248q23 152 -40 237t-202 85q-137 0 -228 -85.5t-114 -236.5l-39 -248q-23 -151 40 -235t200 -84q138 0 229.5 84.5t114.5 234.5z" />
    <glyph glyph-name="AEacute" unicode="&#x1fc;" 
d="M825 1659h-116l262 287h129zM82 0h-102l622 1495h711l-17 -92h-428l-90 -580h355l-15 -92h-354l-102 -639h428l-15 -92h-530l69 440h-348zM662 1403l-355 -871h322l137 871h-104z" />
    <glyph glyph-name="aeacute" unicode="&#x1fd;" 
d="M793 1321h-117l262 287h129zM262 -20q-126 0 -186.5 83.5t-38.5 221.5l14 94q20 121 102.5 191.5t206.5 70.5h222l30 199q15 94 -29 155.5t-130 61.5q-79 0 -139.5 -52t-82.5 -135h-102q31 127 120 202t212 75q108 0 163.5 -54.5t57.5 -121.5h4q27 67 100 121.5t172 54.5
q128 0 191 -84t41 -223l-47 -291h-475l-41 -262q-14 -95 30 -155t131 -60q78 0 132.5 50t76.5 134h103q-31 -128 -115 -202t-207 -74q-108 0 -163.5 53.5t-57.5 120.5h-6q-24 -67 -99.5 -120.5t-189.5 -53.5zM715 840l-31 -199h373l30 199q14 94 -26.5 155.5t-122.5 61.5
q-83 0 -146 -62t-77 -155zM295 66q85 0 149.5 62.5t79.5 158.5l41 262h-221q-72 0 -125 -47.5t-65 -122.5l-15 -94q-15 -96 28 -157.5t128 -61.5z" />
    <glyph glyph-name="Oslashacute" unicode="&#x1fe;" 
d="M971 1946h129l-275 -287h-116zM1178 1536h102l-184 -254q19 -79 4 -176l-115 -717q-31 -188 -156.5 -298.5t-308.5 -110.5q-194 0 -282 124l-136 -186h-102l197 268q-29 91 -11 203l115 717q29 186 155.5 298t307.5 112q102 0 177.5 -37.5t117.5 -106.5zM403 1106
l-114 -717q-6 -43 -6 -84l706 973q-23 71 -84.5 109t-154.5 38q-139 0 -230.5 -84t-116.5 -235zM883 389l114 717l7 49l-701 -960q58 -125 232 -125q141 0 232 83.5t116 235.5z" />
    <glyph glyph-name="oslashacute" unicode="&#x1ff;" 
d="M938 1608h129l-274 -287h-117zM1104 1208h104l-194 -227q47 -101 26 -244l-55 -348q-29 -187 -155.5 -298t-309.5 -111q-179 0 -268 106l-127 -147h-105l187 219q-42 97 -21 231l56 348q29 186 156 298t309 112q171 0 260 -98zM344 737l-55 -348q-12 -74 -2 -137l612 717
q-63 88 -207 88q-139 0 -231 -84.5t-117 -235.5zM883 389l55 348q14 82 -2 152l-617 -723q65 -96 216 -96q141 0 232 83.5t116 235.5z" />
    <glyph glyph-name="uni0218" unicode="&#x218;" 
d="M530 -20q-207 0 -311.5 108t-75.5 291h103q-22 -139 60.5 -223t240.5 -84q154 0 252.5 77t120.5 213q19 125 -32.5 211t-166.5 121l-166 51q-139 43 -205 150t-43 250q26 170 153 270.5t316 100.5q187 0 280.5 -106t65.5 -288h-102q22 136 -49 218.5t-211 82.5
q-143 0 -237 -72t-113 -198q-17 -115 32 -199t152 -116l166 -52q144 -44 215.5 -159t48.5 -258q-29 -179 -162.5 -284t-331.5 -105zM375 -492h-103l232 297h133z" />
    <glyph glyph-name="uni0219" unicode="&#x219;" 
d="M600 -20h-137q-152 0 -239 82t-81 214h103q2 -90 65 -147t168 -57h137q112 0 187 58.5t90 156.5q14 89 -29.5 151t-130.5 74l-213 31q-141 20 -208.5 98t-47.5 201q23 140 133 222.5t273 82.5h86q152 0 237 -75.5t80 -201.5h-102q2 81 -61 133t-169 52h-86
q-116 0 -194.5 -57.5t-91.5 -153.5q-24 -175 184 -205l209 -31q129 -19 192 -105.5t43 -215.5q-23 -141 -130 -224t-267 -83zM385 -492h-102l231 297h133z" />
    <glyph glyph-name="uni021A" unicode="&#x21a;" 
d="M578 0h-103l221 1401h-442l16 94h983l-16 -94h-438zM375 -492h-103l232 297h133z" />
    <glyph glyph-name="uni021B" unicode="&#x21b;" 
d="M723 0h-178q-129 0 -187.5 66t-38.5 190l123 778h-280l14 92h281l49 308h102l-49 -308h383l-14 -92h-383l-123 -778q-12 -80 23 -122t114 -42h178zM395 -492h-102l231 297h133z" />
    <glyph glyph-name="uni0232" unicode="&#x232;" 
d="M1087 1749h-573l14 88h574zM575 0h-102l90 573l-313 922h102l230 -676q37 -108 47 -143q5 8 20 32.5t33.5 54t36.5 56.5l444 676h111l-608 -922z" />
    <glyph glyph-name="uni0233" unicode="&#x233;" 
d="M473 1489h574l-15 -88h-573zM874 492l101 634h102l-182 -1157q-28 -167 -131 -252.5t-275 -85.5h-296l16 93h297q246 0 287 245l20 133l31 193q-45 -100 -136 -156.5t-212 -56.5q-166 0 -249 107t-54 288l102 649h102l-100 -634q-25 -151 37.5 -236.5t195.5 -85.5
q135 0 228 86.5t116 235.5z" />
    <glyph glyph-name="uni0237" unicode="&#x237;" horiz-adv-x="819" 
d="M55 -369h-137l16 93h138q145 0 232 75.5t110 220.5l159 1014h-378l14 92h481l-174 -1106q-29 -183 -151 -286t-310 -103z" />
    <glyph glyph-name="uni0259" unicode="&#x259;" 
d="M705 1147q187 0 276 -110.5t59 -299.5l-55 -348q-29 -187 -155 -298t-312 -111q-185 0 -273 111t-59 298l31 195h696l25 153q23 149 -42 234.5t-206 85.5q-112 0 -196 -54.5t-129 -152.5h-103q53 138 169.5 217.5t273.5 79.5zM883 389l16 107h-592l-18 -107
q-23 -149 40 -234t203 -85q144 0 236 84.5t115 234.5z" />
    <glyph glyph-name="uni02B9" unicode="&#x2b9;" horiz-adv-x="819" 
d="M397 840h-82l254 637h185z" />
    <glyph glyph-name="uni02BA" unicode="&#x2ba;" 
d="M279 838h-82l254 637h184zM831 838h-81l254 637h184z" />
    <glyph glyph-name="uni02BC" unicode="&#x2bc;" horiz-adv-x="409" 
d="M178 952h-82l254 637h185z" />
    <glyph glyph-name="circumflex" unicode="&#x2c6;" 
d="M537 1321h-109l291 287h123l200 -287h-96l-172 223z" />
    <glyph glyph-name="caron" unicode="&#x2c7;" 
d="M797 1321h-123l-201 287h100l172 -224l240 224h102z" />
    <glyph glyph-name="uni02C9" unicode="&#x2c9;" 
d="M1034 1401h-573l14 88h574z" />
    <glyph glyph-name="breve" unicode="&#x2d8;" 
d="M735 1317q-136 0 -204 78.5t-48 212.5h92q-15 -97 30.5 -153t139.5 -56q95 0 160 56t80 153h92q-20 -133 -112.5 -212t-229.5 -79z" />
    <glyph glyph-name="dotaccent" unicode="&#x2d9;" 
d="M737 1341q-54 0 -81 31t-19 82q7 51 45 82t92 31t81 -31t19 -82q-7 -51 -45 -82t-92 -31z" />
    <glyph glyph-name="ring" unicode="&#x2da;" 
d="M727 1260q-97 0 -147.5 56t-36.5 148q15 92 84 148.5t166 56.5q95 0 145 -56.5t35 -148.5q-13 -92 -81.5 -148t-164.5 -56zM737 1331q60 0 102.5 36.5t51.5 96.5t-21 96.5t-90 36.5t-103 -36.5t-52 -96.5t21.5 -96.5t90.5 -36.5z" />
    <glyph glyph-name="ogonek" unicode="&#x2db;" 
d="M614 -399h-149q-85 0 -126.5 43.5t-29.5 119.5q9 63 65 131t144 125h76l-27 -20q-67 -55 -109 -111.5t-48 -99.5q-8 -48 15.5 -75t72.5 -27h131z" />
    <glyph glyph-name="tilde" unicode="&#x2dc;" 
d="M889 1331q-43 0 -77 19.5t-56 46.5t-41.5 54.5t-43 47t-50.5 19.5q-47 0 -79 -28.5t-40 -76.5l-10 -72h-82l10 72q13 86 70.5 135t144.5 49q43 0 76.5 -19t55.5 -46.5t41 -55t42.5 -46.5t50.5 -19q42 0 71.5 28.5t37.5 76.5l12 71h82l-12 -71q-14 -86 -67.5 -135.5
t-135.5 -49.5z" />
    <glyph glyph-name="hungarumlaut" unicode="&#x2dd;" 
d="M590 1321h-115l262 287h127zM915 1321h-114l262 287h127z" />
    <glyph glyph-name="uni02F3" unicode="&#x2f3;" 
d="M446 -502q-97 0 -147.5 53.5t-36.5 141.5q13 88 81 141t165 53t147.5 -53t36.5 -141q-13 -88 -81 -141.5t-165 -53.5zM457 -430q61 0 103 34.5t50 88.5q9 56 -20.5 90.5t-93.5 34.5q-58 0 -100.5 -35.5t-51.5 -89.5q-8 -54 23.5 -88.5t89.5 -34.5z" />
    <glyph glyph-name="uni02F7" unicode="&#x2f7;" 
d="M768 -430q-43 0 -80 19t-63 46.5t-50 55t-50.5 46.5t-53.5 19q-47 0 -74.5 -28.5t-27.5 -75.5v-72h-82v72q0 86 49 135t135 49q43 0 80 -19t63 -46.5t50 -55t50.5 -46.5t53.5 -19q43 0 67.5 28t24.5 76v72h82v-72q0 -86 -46 -135t-128 -49z" />
    <glyph glyph-name="gravecomb" unicode="&#x300;" horiz-adv-x="0" 
d="M-395 1321h-107l-184 287h119z" />
    <glyph glyph-name="acutecomb" unicode="&#x301;" horiz-adv-x="0" 
d="M-479 1321h-117l262 287h129z" />
    <glyph glyph-name="uni0302" unicode="&#x302;" horiz-adv-x="0" 
d="M-692 1321h-109l291 287h123l201 -287h-97l-172 223z" />
    <glyph glyph-name="tildecomb" unicode="&#x303;" horiz-adv-x="0" 
d="M-340 1331q-43 0 -77 19.5t-56 46.5t-41.5 54.5t-43 47t-50.5 19.5q-47 0 -79 -28.5t-40 -76.5l-10 -72h-82l10 72q13 86 71 135t144 49q43 0 76.5 -19t55.5 -46.5t41 -55t42.5 -46.5t50.5 -19q42 0 71.5 28.5t37.5 76.5l12 71h82l-12 -71q-14 -86 -67.5 -135.5
t-135.5 -49.5z" />
    <glyph glyph-name="uni0304" unicode="&#x304;" horiz-adv-x="0" 
d="M-195 1401h-573l14 88h574z" />
    <glyph glyph-name="uni0306" unicode="&#x306;" horiz-adv-x="0" 
d="M-494 1317q-136 0 -203.5 78.5t-47.5 212.5h92q-15 -97 30.5 -153t139.5 -56q95 0 159.5 56t79.5 153h92q-20 -133 -112.5 -212t-229.5 -79z" />
    <glyph glyph-name="uni0307" unicode="&#x307;" horiz-adv-x="0" 
d="M-492 1341q-54 0 -81 31t-19 82q7 51 45 82t92 31t81.5 -31t19.5 -82q-7 -51 -45.5 -82t-92.5 -31z" />
    <glyph glyph-name="uni0308" unicode="&#x308;" horiz-adv-x="0" 
d="M-709 1341q-47 0 -72 31t-18 82q9 51 43.5 82t81.5 31q48 0 72.5 -31t15.5 -82q-7 -51 -41.5 -82t-81.5 -31zM-268 1341q-49 0 -74.5 31t-17.5 82q9 51 43.5 82t83.5 31q47 0 71 -31t15 -82q-8 -51 -41 -82t-80 -31z" />
    <glyph glyph-name="hookabovecomb" unicode="&#x309;" horiz-adv-x="0" 
d="M-446 1321h-107l139 156q47 54 49 73q5 27 -12.5 42.5t-52.5 15.5h-180l12 71h180q72 0 109.5 -32t29.5 -88q-11 -59 -55 -109z" />
    <glyph glyph-name="uni030A" unicode="&#x30a;" horiz-adv-x="0" 
d="M-502 1260q-97 0 -147.5 56t-36.5 148q15 92 84 148.5t166 56.5q95 0 145 -56.5t35 -148.5q-13 -92 -81.5 -148t-164.5 -56zM-492 1331q60 0 102.5 36.5t51.5 96.5t-21 96.5t-90 36.5t-103 -36.5t-52 -96.5t21.5 -96.5t90.5 -36.5z" />
    <glyph glyph-name="uni030B" unicode="&#x30b;" horiz-adv-x="0" 
d="M-639 1321h-115l262 287h127zM-313 1321h-115l262 287h127z" />
    <glyph glyph-name="uni030C" unicode="&#x30c;" horiz-adv-x="0" 
d="M-432 1321h-123l-201 287h101l172 -224l239 224h103z" />
    <glyph glyph-name="uni030F" unicode="&#x30f;" horiz-adv-x="0" 
d="M-743 1608l172 -287h-101l-184 287h113zM-418 1608l172 -287h-100l-184 287h112z" />
    <glyph glyph-name="uni0312" unicode="&#x312;" horiz-adv-x="0" 
d="M-311 1802h100l-270 -481h-142z" />
    <glyph glyph-name="uni031B" unicode="&#x31b;" horiz-adv-x="0" 
d="M-301 1055h-113l11 71h112q41 0 71 28.5t38 74.5l20 123h82l-20 -123q-12 -78 -67.5 -126t-133.5 -48z" />
    <glyph glyph-name="dotbelowcomb" unicode="&#x323;" horiz-adv-x="0" 
d="M-768 -420q-54 0 -82 31t-20 82q7 51 45 81.5t92 30.5t81 -30.5t19 -81.5t-44.5 -82t-90.5 -31z" />
    <glyph glyph-name="uni0325" unicode="&#x325;" horiz-adv-x="0" 
d="M-782 -502q-97 0 -147.5 53.5t-37.5 141.5t81 141t165 53t147.5 -53t36.5 -141q-13 -88 -80.5 -141.5t-164.5 -53.5zM-772 -430q61 0 103.5 34.5t50.5 88.5q9 56 -21 90.5t-94 34.5q-58 0 -100.5 -35.5t-51.5 -89.5q-8 -54 23.5 -88.5t89.5 -34.5z" />
    <glyph glyph-name="uni0326" unicode="&#x326;" horiz-adv-x="0" 
d="M-854 -492h-102l231 297h133z" />
    <glyph glyph-name="uni0327" unicode="&#x327;" horiz-adv-x="0" 
d="M-788 -399h-164l12 71h164q48 0 83 25.5t40 60.5q8 50 -54 80.5t-170 30.5l101 184h86l-66 -123q38 -2 73.5 -13t66.5 -31t47 -53t10 -75q-9 -67 -73.5 -112t-155.5 -45z" />
    <glyph glyph-name="uni0328" unicode="&#x328;" horiz-adv-x="0" 
d="M-614 -399h-150q-85 0 -126.5 43.5t-29.5 119.5q9 63 65 131t144 125h76l-27 -20q-67 -55 -109 -111.5t-48 -99.5q-8 -48 15.5 -75t72.5 -27h131z" />
    <glyph glyph-name="uni0336" unicode="&#x336;" horiz-adv-x="0" 
d="M70 627h-1350l14 82h1350z" />
    <glyph glyph-name="uni0337" unicode="&#x337;" horiz-adv-x="0" 
d="M-1100 -61h-104l1079 1269h105z" />
    <glyph glyph-name="uni0338" unicode="&#x338;" horiz-adv-x="0" 
d="M-1010 -225h-98l889 1577h98z" />
    <glyph glyph-name="uni0374" unicode="&#x374;" 
d="M504 840h-82l254 637h184z" />
    <glyph glyph-name="uni0375" unicode="&#x375;" 
d="M201 -328h-88l254 637h190z" />
    <glyph glyph-name="uni037E" unicode="&#x37e;" 
d="M467 860h-21q-66 0 -99.5 39.5t-22.5 104.5q9 64 55.5 103.5t112.5 39.5h20q64 0 97 -39t24 -104q-11 -65 -56.5 -104.5t-109.5 -39.5zM131 -328h-88l254 637h190z" />
    <glyph glyph-name="tonos" unicode="&#x384;" 
d="M707 1321h-109l262 287h121z" />
    <glyph glyph-name="dieresistonos" unicode="&#x385;" 
d="M807 1575h-86l209 268h100zM518 1341q-47 0 -72 31t-18 82q9 51 43.5 82t81.5 31q48 0 72.5 -31t15.5 -82q-7 -51 -41.5 -82t-81.5 -31zM958 1341q-49 0 -74.5 31t-17.5 82q9 51 43.5 82t83.5 31q47 0 71 -31t15 -82q-8 -51 -41 -82t-80 -31z" />
    <glyph glyph-name="Alphatonos" unicode="&#x386;" 
d="M156 0h-107l649 1495h127l174 -1495h-102l-47 430h-512zM326 1163h-99l166 328h111zM637 1126l-260 -604h463l-66 604q-9 84 -22 283q-19 -59 -115 -283z" />
    <glyph glyph-name="anoteleia" unicode="&#x387;" 
d="M408 543q-69 0 -102.5 41t-22.5 112q10 69 57.5 109.5t116.5 40.5t102.5 -40.5t22.5 -109.5q-10 -70 -57.5 -111.5t-116.5 -41.5z" />
    <glyph glyph-name="Epsilontonos" unicode="&#x388;" 
d="M954 0h-798l237 1495h799l-16 -94h-697l-90 -576h625l-15 -92h-624l-103 -639h697zM80 1163h-98l165 328h111z" />
    <glyph glyph-name="Etatonos" unicode="&#x389;" 
d="M238 0h-103l238 1495h102l-106 -672h573l107 672h102l-238 -1495h-102l115 729h-574zM80 1163h-98l165 328h111z" />
    <glyph glyph-name="Iotatonos" unicode="&#x38a;" 
d="M893 0h-737l14 94h319l207 1307h-319l16 94h737l-16 -94h-315l-207 -1307h315zM80 1163h-98l165 328h111z" />
    </font>
</defs>
</svg>
