<?xml version="1.0" standalone="no"?>
<!DOCTYPE svg PUBLIC "-//W3C//DTD SVG 1.1//EN" "http://www.w3.org/Graphics/SVG/1.1/DTD/svg11.dtd" >
<svg xmlns="http://www.w3.org/2000/svg" xmlns:xlink="http://www.w3.org/1999/xlink" version="1.1">
<metadata>
Created by FontForge 20170731 at Thu Nov 16 19:44:05 2023
 By Aleksey,,,
Copyright 2021 Alessio Laiso, Mario Rullo, Paolo Rosset
</metadata>
<defs>
<font id="TekneLDO-Italic" horiz-adv-x="1228" >
  <font-face 
    font-family="Tekne LDO"
    font-weight="400"
    font-style="italic"
    font-stretch="normal"
    units-per-em="2048"
    panose-1="2 0 0 9 0 0 0 0 0 0"
    ascent="1638"
    descent="-410"
    x-height="1126"
    cap-height="1495"
    bbox="-3576 -819 1630 2294"
    underline-thickness="102"
    underline-position="-419"
    slope="-9"
    unicode-range="U+000D-1D54A"
  />
<missing-glyph 
d="M1044 0h-860v1495h860v-1495zM287 1393v-1170l614 1170h-614zM942 1272l-614 -1170h614v1170z" />
    <glyph glyph-name="hyphen_hyphen.liga" unicode="&#x2d;&#x2d;" 
d="M-88 594h-850l27 164h850zM946 594h-850l27 164h850z" />
    <glyph glyph-name="hyphen_hyphen_hyphen.liga" unicode="&#x2d;&#x2d;&#x2d;" 
d="M-1255 594h-912l27 164h911zM-160 594h-901l27 164h901zM946 594h-911l26 164h912z" />
    <glyph glyph-name="hyphen_hyphen_greater.liga" unicode="&#x2d;&#x2d;&#x3e;" 
d="M848 758l-340 522h207l377 -604l-570 -604h-225l504 522h-3078l26 164h3099z" />
    <glyph glyph-name="hyphen_bar.liga" unicode="&#x2d;&#x7c;" 
d="M590 -174h-184l120 768h-1382l27 164h1382l123 778h184z" />
    <glyph glyph-name="hyphen_greater.liga" unicode="&#x2d;&#x3e;" 
d="M842 758l-334 522h207l377 -604l-570 -604h-225l498 522h-1846l27 164h1866z" />
    <glyph glyph-name="hyphen_greater_greater.liga" unicode="&#x2d;&#x3e;&#x3e;" 
d="M-92 72h-225l497 522h-2459l26 164h2480l-333 522h206l377 -604zM522 72h-225l586 618l-375 590h207l377 -604z" />
    <glyph glyph-name="hyphen_less.liga" unicode="&#x2d;&#x3c;" 
d="M936 72h-207l-328 522h-1452l27 164h1452l494 522h225l-580 -618z" />
    <glyph glyph-name="hyphen_less_less.liga" unicode="&#x2d;&#x3c;&#x3c;" 
d="M322 72h-207l-328 522h-2066l26 164h2067l493 522h225l-587 -614zM936 72h-207l-379 604l572 604h225l-590 -614z" />
    <glyph glyph-name="hyphen_asciitilde.liga" unicode="&#x2d;&#x7e;" 
d="M186 451q-97 0 -163.5 37t-94.5 106h-938l27 164h1075l-2 -10q-10 -68 23 -106t98 -38q42 0 83 22t73 55t73.5 71.5t82 71.5t100.5 55t127 22q143 0 217.5 -82t52.5 -215l-21 -123h-174l21 123q9 65 -24 104.5t-97 39.5q-37 0 -72.5 -16.5t-66 -42.5t-62 -57.5t-67 -63.5
t-74 -58t-89.5 -42.5t-108 -16.5z" />
    <glyph glyph-name="braceleft_bar.liga" unicode="&#x7b;&#x7c;" 
d="M-410 1024l33 336q17 160 133 250t299 90h236l-25 -164h-235q-98 0 -156.5 -44.5t-67.5 -131.5l-32 -336q-12 -116 -78.5 -192t-171.5 -95q99 -19 142 -95t18 -191l-74 -336q-19 -87 24.5 -131.5t141.5 -44.5h235l-24 -164h-236q-183 0 -271.5 90t-53.5 250l73 336
q24 113 -10 158.5t-162 45.5h-225l25 164h225q129 0 177.5 45.5t59.5 159.5zM356 -225l303 1925h185l-303 -1925h-185z" />
    <glyph glyph-name="bracketleft_bar.liga" unicode="[&#x7c;" 
d="M-2 -225h-789l304 1925h788l-25 -164h-604l-254 -1597h605zM541 -225h-185l303 1925h185z" />
    <glyph glyph-name="bracketleft_less.liga" unicode="[&#x3c;" 
d="M-641 -225h-502l303 1925h502l-24 -164h-318l-254 -1597h318zM811 336l-31 -172l-811 440l33 205l950 440l-28 -190l-684 -311q-84 -38 -129 -50q54 -14 114 -49z" />
    <glyph glyph-name="bracketright_numbersign.liga" unicode="]&#x23;" 
d="M-692 -225h-502l25 164h317l254 1597h-317l24 164h502zM223 0h-143l147 430h-772l23 133h794l127 369h-864l21 133h886l150 430h143l-149 -430h327l150 430h143l-149 -430h178l-21 -133h-200l-127 -369h198l-22 -133h-221l-148 -430h-143l147 430h-327zM543 932
l-127 -369h327l127 369h-327z" />
    <glyph glyph-name="period_period.liga" unicode="&#x2e;&#x2e;" 
d="M-743 -20q-78 0 -117 44.5t-27 120.5q12 79 66.5 126.5t132.5 47.5t115.5 -47t25.5 -127q-12 -76 -65 -120.5t-131 -44.5zM154 -20q-78 0 -117 44.5t-27 120.5q12 79 66.5 126.5t132.5 47.5t115.5 -47t25.5 -127q-12 -76 -65 -120.5t-131 -44.5z" />
    <glyph glyph-name="period_period_period.liga" unicode="&#x2e;&#x2e;&#x2e;" 
d="M-1931 -20q-78 0 -117 44.5t-27 120.5q12 79 66.5 126.5t132.5 47.5t115.5 -47t25.5 -127q-12 -76 -65 -120.5t-131 -44.5zM-909 -20q-78 0 -117 44.5t-27 120.5q12 79 66.5 126.5t132.5 47.5t115.5 -47t25.5 -127q-12 -76 -65 -120.5t-131 -44.5zM113 -20
q-78 0 -117 44.5t-27 120.5q12 79 66.5 126.5t132.5 47.5t115.5 -47t25.5 -127q-12 -76 -65 -120.5t-131 -44.5z" />
    <glyph glyph-name="period_period_less.liga" unicode="&#x2e;&#x2e;&#x3c;" 
d="M627 305l-31 -172l-811 440l33 205l950 441l-29 -191l-684 -311q-79 -36 -129 -49q53 -14 115 -50zM-1995 -20q-78 0 -116.5 44.5t-26.5 120.5q12 79 66.5 126.5t132.5 47.5t115.5 -47t25.5 -127q-12 -76 -65.5 -120.5t-131.5 -44.5zM-1098 -20q-78 0 -116.5 44.5
t-26.5 120.5q12 79 66.5 126.5t132.5 47.5t115.5 -47t25.5 -127q-12 -76 -65.5 -120.5t-131.5 -44.5z" />
    <glyph glyph-name="period_question.liga" unicode="&#x2e;&#x3f;" 
d="M387 420h-184l59 368h103q130 0 218.5 72.5t108.5 194.5q19 122 -47.5 194t-198.5 72h-256l29 174h256q215 0 324 -119.5t78 -320.5q-29 -177 -155.5 -294t-299.5 -126zM-911 -20q-78 0 -117 44.5t-27 120.5q12 79 66.5 126.5t132.5 47.5t115.5 -47t25.5 -127
q-12 -76 -65 -120.5t-131 -44.5zM256 -10h-61q-54 0 -83 34.5t-20 88.5q7 54 47 88.5t94 34.5h62q57 0 84.5 -33.5t19.5 -87.5q-9 -54 -49 -89.5t-94 -35.5z" />
    <glyph glyph-name="period_equal.liga" unicode="&#x2e;&#x3d;" 
d="M1098 840h-881l27 164h880zM-625 430q-107 0 -165 69.5t-41 176.5t97 176.5t187 69.5t165.5 -69.5t41.5 -176.5t-97.5 -176.5t-187.5 -69.5zM1020 348h-881l27 164h881z" />
    <glyph glyph-name="colon_colon.liga" unicode="&#x3a;&#x3a;" 
d="M-612 840q-76 0 -116.5 42t-29.5 111q10 69 64 111.5t131 42.5q76 0 116 -42.5t29 -111.5q-10 -69 -63.5 -111t-130.5 -42zM289 840q-76 0 -116.5 42t-29.5 111q10 69 64 111.5t131 42.5q76 0 116 -42.5t29 -111.5q-10 -69 -63.5 -111t-130.5 -42zM-750 -20
q-76 0 -116 42t-29 111q10 69 64 111.5t131 42.5q76 0 116 -42.5t29 -111.5q-10 -69 -64 -111t-131 -42zM152 -20q-76 0 -116.5 42t-29.5 111q10 69 64 111.5t131 42.5q76 0 116 -42.5t29 -111.5q-10 -69 -63.5 -111t-130.5 -42z" />
    <glyph glyph-name="colon_colon_colon.liga" unicode="&#x3a;&#x3a;&#x3a;" 
d="M-1677 840q-76 0 -116.5 42t-29.5 111q10 69 64 111.5t131 42.5q76 0 116 -42.5t29 -111.5q-10 -69 -63.5 -111t-130.5 -42zM-776 840q-76 0 -116.5 42t-29.5 111q10 69 64 111.5t131 42.5q76 0 116 -42.5t29 -111.5q-10 -69 -63.5 -111t-130.5 -42zM125 840
q-76 0 -116 42t-29 111t64.5 111.5t129.5 42.5t116 -42.5t29 -111.5q-10 -69 -63.5 -111t-130.5 -42zM-1815 -20q-76 0 -116 42t-29 111q10 69 64 111.5t131 42.5q76 0 116 -42.5t29 -111.5q-10 -69 -64 -111t-131 -42zM-913 -20q-76 0 -116.5 42t-29.5 111q10 69 64 111.5
t131 42.5q76 0 116 -42.5t29 -111.5q-10 -69 -63.5 -111t-130.5 -42zM-12 -20q-76 0 -116.5 42t-29.5 111q10 69 64 111.5t131 42.5q76 0 116 -42.5t29 -111.5q-10 -69 -63.5 -111t-130.5 -42z" />
    <glyph glyph-name="colon_colon_equal.liga" unicode="&#x3a;&#x3a;&#x3d;" 
d="M-1950 952q-76 0 -116 42.5t-29 111.5t64.5 111.5t129.5 42.5t116.5 -42.5t29.5 -111.5q-10 -69 -64 -111.5t-131 -42.5zM-1024 952q-76 0 -116 42.5t-29 111.5t64.5 111.5t129.5 42.5t116.5 -42.5t29.5 -111.5q-10 -69 -64 -111.5t-131 -42.5zM831 840h-880l26 164h881z
M754 348h-881l27 164h880zM-2087 92q-76 0 -116 42.5t-29 111.5q10 69 63.5 111t130.5 42q76 0 116.5 -42t29.5 -111q-10 -69 -64 -111.5t-131 -42.5zM-1161 92q-76 0 -116.5 42.5t-29.5 111.5q10 69 64 111t131 42q76 0 116 -42t29 -111t-64.5 -111.5t-129.5 -42.5z" />
    <glyph glyph-name="colon_question.liga" unicode="&#x3a;&#x3f;" 
d="M387 420h-184l59 368h103q130 0 218.5 72.5t108.5 194.5q19 122 -47.5 194t-198.5 72h-256l29 174h256q215 0 324 -119.5t78 -320.5q-29 -177 -155.5 -294t-299.5 -126zM-674 840q-76 0 -116 42t-29 111t64.5 111.5t129.5 42.5t116.5 -42.5t29.5 -111.5q-10 -69 -64 -111
t-131 -42zM-811 -20q-76 0 -116 42t-29 111t64.5 111.5t129.5 42.5t116.5 -42.5t29.5 -111.5q-10 -69 -64 -111t-131 -42zM256 -10h-61q-54 0 -83 34.5t-20 88.5q7 54 47 88.5t94 34.5h62q57 0 84.5 -33.5t19.5 -87.5q-9 -54 -49 -89.5t-94 -35.5z" />
    <glyph glyph-name="colon_question_greater.liga" unicode="&#x3a;&#x3f;&#x3e;" 
d="M-860 420h-184l59 368h102q130 0 219 72.5t109 194.5q19 122 -47.5 194t-198.5 72h-256l29 174h256q215 0 323.5 -119.5t77.5 -320.5q-29 -177 -155 -294t-299 -126zM881 573l-951 -440l29 186l684 312q82 37 131 49q-52 13 -115 49l-585 313l28 177l811 -441zM-1995 840
q-76 0 -116 42t-29 111t64.5 111.5t129.5 42.5t116.5 -42.5t29.5 -111.5q-10 -69 -64 -111t-131 -42zM-2132 -20q-76 0 -116 42t-29 111t64.5 111.5t129.5 42.5t116.5 -42.5t29.5 -111.5q-10 -69 -64 -111t-131 -42zM-991 -10h-62q-54 0 -82.5 34.5t-19.5 88.5q7 54 47 88.5
t94 34.5h62q57 0 84.5 -33.5t19.5 -87.5q-9 -54 -49 -89.5t-94 -35.5z" />
    <glyph glyph-name="colon_equal.liga" unicode="&#x3a;&#x3d;" 
d="M-678 819q-74 0 -111.5 44.5t-25.5 119.5q12 74 64.5 119t125.5 45q74 0 112 -45.5t26 -118.5q-12 -75 -64.5 -119.5t-126.5 -44.5zM1006 840h-1127l27 164h1126zM-774 205q-74 0 -111.5 45.5t-25.5 120.5q10 73 62 117t126 44t111.5 -44t27.5 -117q-12 -75 -64 -120.5
t-126 -45.5zM928 348h-1127l27 164h1126z" />
    <glyph glyph-name="colon_greater.liga" unicode="&#x3a;&#x3e;" 
d="M-776 952q-76 0 -116.5 42.5t-29.5 111.5q10 69 64 111.5t131 42.5q76 0 116 -42.5t29 -111.5t-64.5 -111.5t-129.5 -42.5zM850 573l-950 -440l28 186l684 312q82 37 131 49q-51 12 -114 49l-586 313l29 177l811 -441zM-913 92q-76 0 -116.5 42.5t-29.5 111.5
q10 69 64 111t131 42q76 0 116 -42t29 -111t-64.5 -111.5t-129.5 -42.5z" />
    <glyph glyph-name="colon_less.liga" unicode="&#x3a;&#x3c;" 
d="M-776 952q-76 0 -116.5 42.5t-29.5 111.5q10 69 64 111.5t131 42.5q76 0 116 -42.5t29 -111.5t-64.5 -111.5t-129.5 -42.5zM729 305l-31 -172l-811 440l33 205l950 441l-28 -191l-684 -311q-79 -36 -129 -49q51 -13 114 -50zM-913 92q-76 0 -116.5 42.5t-29.5 111.5
q10 69 64 111t131 42q76 0 116 -42t29 -111t-64.5 -111.5t-129.5 -42.5z" />
    <glyph glyph-name="semicolon_semicolon.liga" unicode="&#x3b;&#x3b;" 
d="M-592 840h-41q-67 0 -103.5 42.5t-25.5 110.5q11 66 61.5 110t116.5 44h41q66 0 103 -44t26 -110q-10 -67 -60 -110t-118 -43zM309 840h-41q-67 0 -103.5 42.5t-25.5 110.5q11 66 61.5 110t116.5 44h41q66 0 103 -44t26 -110q-10 -67 -60 -110t-118 -43zM-899 -328h-164
l264 637h267zM2 -328h-164l264 637h267z" />
    <glyph glyph-name="semicolon_semicolon_semicolon.liga" unicode="&#x3b;&#x3b;&#x3b;" 
d="M-1657 840h-41q-67 0 -103.5 42.5t-25.5 110.5q11 66 61.5 110t116.5 44h41q66 0 103 -44t26 -110q-10 -67 -60 -110t-118 -43zM-756 840h-41q-67 0 -103.5 42.5t-25.5 110.5q11 66 61.5 110t116.5 44h41q66 0 103 -44t26 -110q-10 -67 -60 -110t-118 -43zM145 840h-41
q-67 0 -103.5 42.5t-25.5 110.5q10 66 61.5 110t117.5 44h41q66 0 103 -44t26 -110q-10 -67 -60.5 -110t-118.5 -43zM-1964 -328h-164l264 637h267zM-1063 -328h-164l264 637h267zM-162 -328h-164l265 637h266z" />
    <glyph glyph-name="exclam_exclam.liga" unicode="&#x21;&#x21;" 
d="M-651 440h-131l86 809l39 246h217l-39 -246zM332 440h-131l86 809l39 246h217l-39 -246zM-758 -10h-61q-54 0 -83 34.5t-20 88.5q7 54 47.5 88.5t94.5 34.5h61q57 0 85 -33.5t20 -87.5q-9 -54 -49.5 -89.5t-94.5 -35.5zM225 -10h-61q-54 0 -83 34.5t-20 88.5
q7 54 47.5 88.5t94.5 34.5h61q57 0 85 -33.5t20 -87.5q-9 -54 -49.5 -89.5t-94.5 -35.5z" />
    <glyph glyph-name="exclam_equal.liga" unicode="&#x21;&#x3d;" 
d="M-438 0h-185l281 348h-758l27 164h864l262 328h-1075l27 164h1181l287 358h184l-286 -358h764l-27 -164h-870l-263 -328h1082l-27 -164h-1188z" />
    <glyph glyph-name="exclam_equal_equal.liga" unicode="&#x21;&#x3d;&#x3d;" 
d="M1153 1196l-25 -156h-1361l-222 -286h1538l-24 -156h-1634l-222 -287h1811l-25 -155h-1904l-199 -258h-168l199 258h-1266l25 155h1361l222 287h-1538l24 156h1632l222 286h-1809l25 156h1904l199 258h166l-199 -258h1268z" />
    <glyph glyph-name="question_period.liga" unicode="&#x3f;&#x2e;" 
d="M-428 420h-184l59 368h102q130 0 219 72.5t109 194.5q19 122 -47.5 194t-198.5 72h-256l29 174h256q215 0 323.5 -119.5t77.5 -320.5q-29 -177 -155 -294t-299 -126zM152 -20q-78 0 -117 44.5t-27 120.5q12 79 66.5 126.5t132.5 47.5t115.5 -47t25.5 -127
q-12 -76 -65 -120.5t-131 -44.5zM-559 -10h-62q-54 0 -82.5 34.5t-19.5 88.5q7 54 47 88.5t94 34.5h62q57 0 84.5 -33.5t19.5 -87.5q-9 -54 -49 -89.5t-94 -35.5z" />
    <glyph glyph-name="question_colon.liga" unicode="&#x3f;&#x3a;" 
d="M-428 420h-184l59 368h102q130 0 219 72.5t109 194.5q19 122 -47.5 194t-198.5 72h-256l29 174h256q215 0 323.5 -119.5t77.5 -320.5q-29 -177 -155 -294t-299 -126zM350 840q-76 0 -116 42t-29 111t64.5 111.5t129.5 42.5t116.5 -42.5t29.5 -111.5q-10 -69 -64 -111
t-131 -42zM213 -20q-76 0 -116 42t-29 111t64.5 111.5t129.5 42.5t116.5 -42.5t29.5 -111.5q-10 -69 -64 -111t-131 -42zM-559 -10h-62q-54 0 -82.5 34.5t-19.5 88.5q7 54 47 88.5t94 34.5h62q57 0 84.5 -33.5t19.5 -87.5q-9 -54 -49 -89.5t-94 -35.5z" />
    <glyph glyph-name="question_question.liga" unicode="&#x3f;&#x3f;" 
d="M-535 420h-184l60 368h102q130 0 219 72.5t109 194.5q19 122 -47.5 194t-198.5 72h-256l29 174h256q215 0 323.5 -119.5t77.5 -320.5q-29 -177 -155.5 -294t-299.5 -126zM500 420h-185l60 368h102q130 0 219 72.5t109 194.5q19 122 -47.5 194t-198.5 72h-256l29 174h256
q215 0 323.5 -119.5t77.5 -320.5q-29 -177 -155 -294t-299 -126zM-666 -10h-61q-54 0 -82.5 34.5t-19.5 88.5q7 54 47 88.5t94 34.5h61q57 0 85 -33.5t20 -87.5q-9 -54 -49.5 -89.5t-94.5 -35.5zM369 -10h-62q-54 0 -82.5 34.5t-19.5 88.5q7 54 47 88.5t94 34.5h62
q57 0 84.5 -33.5t19.5 -87.5q-9 -54 -49 -89.5t-94 -35.5z" />
    <glyph glyph-name="question_question_question.liga" unicode="&#x3f;&#x3f;&#x3f;" 
d="M-1784 420h-184l59 368h103q130 0 218.5 72.5t108.5 194.5q19 122 -47 194t-198 72h-256l28 174h256q215 0 324 -119.5t78 -320.5q-29 -177 -155.5 -294t-299.5 -126zM-637 420h-184l59 368h103q130 0 218.5 72.5t108.5 194.5q19 122 -47.5 194t-198.5 72h-256l29 174
h256q215 0 324 -119.5t78 -320.5q-29 -177 -155.5 -294t-299.5 -126zM510 420h-184l59 368h102q130 0 219 72.5t109 194.5q19 122 -47.5 194t-198.5 72h-256l29 174h256q215 0 323.5 -119.5t77.5 -320.5q-29 -177 -155 -294t-299 -126zM-1915 -10h-61q-54 0 -83 34.5
t-20 88.5q7 54 47.5 88.5t94.5 34.5h61q57 0 84.5 -33.5t19.5 -87.5q-9 -54 -49 -89.5t-94 -35.5zM-768 -10h-61q-54 0 -83 34.5t-20 88.5q7 54 47 88.5t94 34.5h62q57 0 84.5 -33.5t19.5 -87.5q-9 -54 -49 -89.5t-94 -35.5zM379 -10h-62q-54 0 -82.5 34.5t-19.5 88.5
q7 54 47 88.5t94 34.5h62q57 0 84.5 -33.5t19.5 -87.5q-9 -54 -49 -89.5t-94 -35.5z" />
    <glyph glyph-name="question_equal.liga" unicode="&#x3f;&#x3d;" 
d="M-555 420h-184l59 368h102q130 0 219 72.5t109 194.5q19 122 -47.5 194t-198.5 72h-256l29 174h256q215 0 323.5 -119.5t77.5 -320.5q-29 -177 -155 -294t-299 -126zM995 911h-901l27 164h901zM918 420h-1229l12 74q90 43 113 90h1130zM-686 -10h-62q-54 0 -82.5 34.5
t-19.5 88.5q7 54 47 88.5t94 34.5h62q57 0 84.5 -33.5t19.5 -87.5q-9 -54 -49 -89.5t-94 -35.5z" />
    <glyph glyph-name="asterisk_asterisk_asterisk.liga" unicode="&#x2a;&#x2a;&#x2a;" 
d="M-780 680l-135 -160l-132 103l136 159q84 97 237 207l-4 15q-176 14 -272 51l-170 65l88 170l170 -65q104 -39 229 -146l12 8q-20 189 -4 295l31 195h180l-30 -195q-17 -112 -101 -295l8 -8q166 109 275 146l192 65l35 -170l-192 -65q-106 -37 -287 -51l-10 -17
q116 -107 170 -205l88 -159l-164 -103l-88 160q-53 96 -80 262h-14q-86 -163 -168 -262zM-1927 352l-135 -159l-131 102l135 160q84 97 237 207l-4 14q-176 14 -272 51l-170 66l88 170l170 -66q106 -40 229 -145l13 8q-20 193 -5 295l31 194h180l-30 -194
q-17 -112 -101 -295l9 -8q164 107 274 145l192 66l35 -170l-192 -66q-106 -37 -287 -51l-10 -17q117 -108 170 -204l88 -160l-164 -102l-88 159q-53 96 -80 262h-14q-86 -163 -168 -262zM367 352l-136 -159l-131 102l136 160q84 97 237 207l-4 14q-176 14 -272 51l-170 66
l88 170l170 -66q106 -40 229 -145l12 8q-20 189 -4 295l31 194h180l-31 -194q-17 -115 -100 -295l8 -8q163 106 275 145l192 66l35 -170l-192 -66q-106 -37 -287 -51l-10 -17q117 -108 170 -204l88 -160l-164 -102l-88 159q-53 96 -80 262h-14q-86 -163 -168 -262z" />
    <glyph glyph-name="asterisk_greater.liga" unicode="&#x2a;&#x3e;" 
d="M-731 352l-187 -221l-131 102l187 222q81 98 237 207l-4 14q-168 13 -272 51l-229 86l88 170l229 -86q106 -40 229 -145l13 8q-21 197 -4 295l38 256h181l-39 -256q-20 -120 -101 -295l9 -6q173 108 274 143l258 86l35 -170l-258 -86q-108 -36 -287 -49l-10 -19
q127 -122 170 -204l119 -222l-164 -102l-119 221q-54 103 -80 262h-16q-78 -156 -166 -262zM1085 573l-950 -440l29 186l684 312q82 37 131 49q-52 13 -115 49l-585 313l28 177l811 -441z" />
    <glyph glyph-name="asterisk_slash.liga" unicode="&#x2a;&#x2f;" 
d="M227 -225h-198l1026 1925h198zM-780 188l-135 -159l-132 102l136 160q84 97 237 207l-4 14q-176 14 -272 51l-170 66l88 170l170 -66q106 -40 229 -145l12 8q-20 189 -4 295l31 194h180l-30 -194q-17 -112 -101 -295l8 -8q163 106 275 145l192 66l35 -170l-192 -66
q-106 -37 -287 -51l-10 -16q116 -107 170 -205l88 -160l-164 -102l-88 159q-53 95 -80 263h-14q-87 -166 -168 -263z" />
    <glyph glyph-name="numbersign_parenleft.liga" unicode="&#x23;&#x28;" 
d="M926 1731l-29 -175q-173 -40 -304.5 -170t-193.5 -321h160l-20 -133h-170l-58 -369h170l-22 -133h-162q-6 -196 84.5 -330t257.5 -174l-29 -182q-251 66 -381 245t-118 441h-498l-148 -430h-143l148 430h-328l-148 -430h-143l148 430h-179l23 133h201l127 369h-199
l20 133h222l149 430h143l-149 -430h328l149 430h143l-149 -430h387q73 250 261.5 426.5t449.5 239.5zM-813 563h328l127 369h-328zM-342 563h469l57 369h-399z" />
    <glyph glyph-name="numbersign_braceleft.liga" unicode="&#x23;&#x7b;" 
d="M1141 1700h92l-25 -164h-92q-98 0 -157 -45t-66 -131l-31 -326q-11 -117 -86 -195.5t-194 -82.5v-11q117 -4 165.5 -85t24.5 -199l-76 -346q-19 -87 24.5 -131.5t141.5 -44.5h92l-24 -164h-92q-184 0 -272.5 90t-53.5 250l70 315h-969l-148 -430h-143l148 430h-328
l-148 -430h-143l148 430h-179l23 133h201l127 369h-199l20 133h222l149 430h143l-149 -430h328l149 430h143l-149 -430h852l29 295q15 160 131.5 250t300.5 90zM-813 563h328l127 369h-328zM287 829h153q94 0 143.5 24t71.5 79h-870l-127 -369h940q-5 55 -46.5 79t-137.5 24
h-154z" />
    <glyph glyph-name="numbersign_bracketleft.liga" unicode="&#x23;[" 
d="M840 1700l-25 -164h-317l-76 -471h199l-21 -133h-199l-59 -369h201l-23 -133h-198l-78 -491h317l-24 -164h-502l102 655h-524l-148 -430h-143l148 430h-328l-148 -430h-143l148 430h-179l23 133h201l127 369h-199l20 133h222l149 430h143l-149 -430h328l149 430h143
l-149 -430h410l100 635h502zM-813 563h328l127 369h-328zM-342 563h502l57 369h-432z" />
    <glyph glyph-name="numbersign_colon.liga" unicode="&#x23;&#x3a;" 
d="M-1001 0h-150l141 410h-172l21 133h196l140 409h-199l20 133h224l141 410h150l-142 -410h320l141 410h150l-142 -410h172l-20 -133h-197l-139 -409h199l-21 -133h-223l-141 -410h-150l141 410h-319zM664 881q-74 0 -112 44t-26 119q10 73 62.5 118.5t126.5 45.5
q73 0 111.5 -45t27.5 -119q-12 -75 -64 -119t-126 -44zM-676 952l-139 -409h319l140 409h-320zM567 266q-73 0 -111.5 45.5t-27.5 120.5q12 73 64 117.5t126 44.5t112 -44.5t26 -117.5q-10 -75 -62.5 -120.5t-126.5 -45.5z" />
    <glyph glyph-name="numbersign_exclam.liga" unicode="&#x23;&#x21;" 
d="M-1001 0h-150l141 410h-172l21 133h196l140 409h-199l20 133h224l141 410h150l-142 -410h320l141 410h150l-142 -410h172l-20 -133h-197l-139 -409h199l-21 -133h-223l-141 -410h-150l141 410h-319zM541 440h-131l243 809l86 246h217l-86 -246zM-676 952l-139 -409h319
l140 409h-320zM346 -10h-61q-54 0 -76 34.5t-2 88.5q17 53 64 88t100 35h61q58 0 79.5 -34t2.5 -87q-20 -54 -67 -89.5t-101 -35.5z" />
    <glyph glyph-name="numbersign_question.liga" unicode="&#x23;&#x3f;" 
d="M-1006 0h-143l148 430h-179l23 133h201l127 369h-199l20 133h222l149 430h143l-149 -430h328l149 430h143l-149 -430h332l2 2q31 199 187 324t374 125q224 0 339 -123t81 -328q-29 -188 -153.5 -308t-303.5 -132l-33 -205h-184l57 358h103q132 0 217.5 76t107.5 211
q22 132 -47.5 209.5t-208.5 77.5q-141 0 -236.5 -77.5t-117.5 -209.5l-20 -133h-539l-127 -369h199l-23 -133h-221l-148 -430h-143l148 430h-328zM-686 932l-127 -369h328l127 369h-328zM512 -10h-41q-61 0 -91.5 32t-21.5 89q8 56 50 90.5t102 34.5h41q60 0 91.5 -34.5
t23.5 -90.5q-9 -55 -51.5 -88t-102.5 -33z" />
    <glyph glyph-name="numbersign_numbersign.liga" unicode="&#x23;&#x23;" 
d="M-944 0h-143l147 430h-178l22 133h201l127 369h-199l21 133h221l150 430h143l-150 -430h328l150 430h143l-150 -430h492l149 430h144l-150 -430h328l149 430h144l-150 -430h179l-21 -133h-201l-127 -369h199l-23 -133h-221l-147 -430h-144l148 430h-328l-147 -430h-144
l148 430h-492l-147 -430h-143l147 430h-328zM-625 932l-127 -369h328l127 369h-328zM-154 932l-127 -369h492l127 369h-492zM481 932l-127 -369h328l127 369h-328z" />
    <glyph glyph-name="numbersign_numbersign_numbersign.liga" unicode="&#x23;&#x23;&#x23;" 
d="M-2173 0h-143l147 430h-178l23 133h200l127 369h-198l20 133h221l150 430h143l-149 -430h327l150 430h143l-149 -430h553l149 430h143l-149 -430h328l149 430h143l-149 -430h553l149 430h144l-150 -430h328l149 430h144l-150 -430h179l-21 -133h-201l-127 -369h199
l-23 -133h-221l-147 -430h-144l148 430h-328l-147 -430h-144l148 430h-553l-148 -430h-143l148 430h-328l-148 -430h-143l148 430h-553l-148 -430h-143l147 430h-327zM-1853 932l-127 -369h327l127 369h-327zM-1382 932l-127 -369h553l127 369h-553zM-686 932l-127 -369h328
l127 369h-328zM-215 932l-127 -369h553l127 369h-553zM481 932l-127 -369h328l127 369h-328z" />
    <glyph glyph-name="numbersign_numbersign_numbersign_numbersign.liga" unicode="&#x23;&#x23;&#x23;&#x23;" 
d="M-3402 0h-143l147 430h-178l23 133h200l127 369h-198l20 133h221l150 430h143l-149 -430h327l150 430h143l-149 -430h573l150 430h143l-149 -430h327l150 430h143l-149 -430h573l150 430h143l-150 -430h328l150 430h143l-150 -430h574l149 430h144l-150 -430h328l149 430
h144l-150 -430h179l-21 -133h-201l-127 -369h199l-23 -133h-221l-147 -430h-144l148 430h-328l-147 -430h-144l148 430h-574l-147 -430h-143l147 430h-328l-147 -430h-143l147 430h-573l-148 -430h-143l147 430h-327l-148 -430h-143l147 430h-573l-148 -430h-143l147 430
h-327zM-3082 932l-127 -369h327l127 369h-327zM-2611 932l-127 -369h573l127 369h-573zM-1894 932l-127 -369h327l127 369h-327zM-1423 932l-127 -369h573l127 369h-573zM-707 932l-127 -369h328l127 369h-328zM-236 932l-126 -369h573l127 369h-574zM481 932l-127 -369h328
l127 369h-328z" />
    <glyph glyph-name="numbersign_equal.liga" unicode="&#x23;&#x3d;" 
d="M-1001 0h-150l141 410h-172l21 133h196l140 409h-199l20 133h224l141 410h150l-142 -410h320l141 410h150l-142 -410h172l-20 -133h-197l-139 -409h199l-21 -133h-223l-141 -410h-150l141 410h-319zM1120 922h-901l27 163h901zM-676 952l-139 -409h319l140 409h-320z
M1040 410h-901l25 163h901z" />
    <glyph glyph-name="numbersign_underscore.liga" unicode="&#x23;_" 
d="M983 -205h-1733l220 635h-328l-148 -430h-143l148 430h-179l23 133h201l127 369h-199l20 133h222l149 430h143l-149 -430h328l149 430h143l-149 -430h178l-20 -133h-201l-127 -369h199l-23 -133h-221l-166 -481h1561zM-686 932l-127 -369h328l127 369h-328z" />
    <glyph glyph-name="numbersign_underscore_parenleft.liga" unicode="&#x23;_&#x28;" 
d="M842 -205h-2820l219 635h-328l-147 -430h-144l148 430h-178l22 133h201l127 369h-199l21 133h221l149 430h144l-150 -430h328l149 430h144l-150 -430h178l-20 -133h-201l-127 -369h199l-23 -133h-221l-166 -481h2333q-122 87 -173.5 249.5t-19.5 364.5l54 348
q47 299 246.5 513.5t494.5 285.5l-27 -174q-204 -46 -348 -215t-182 -410l-53 -348q-38 -235 48.5 -399.5t274.5 -214.5zM-1915 932l-127 -369h328l127 369h-328z" />
    <glyph glyph-name="slash_asterisk.liga" unicode="&#x2f;&#x2a;" 
d="M-1001 -225h-199l1026 1925h199zM489 618l-135 -159l-131 102l135 160q82 95 238 207l-4 14q-178 14 -273 51l-169 66l88 170l170 -66q106 -40 229 -145l12 8q-20 189 -4 295l31 195h180l-31 -195q-17 -115 -100 -295l8 -8q163 106 275 145l192 66l35 -170l-193 -66
q-107 -38 -286 -51l-11 -16q116 -107 170 -205l89 -160l-164 -102l-88 159q-53 95 -80 263h-15q-87 -166 -168 -263z" />
    <glyph glyph-name="slash_asterisk_asterisk.liga" unicode="&#x2f;&#x2a;&#x2a;" 
d="M-2230 -225h-199l1026 1925h199zM-780 618l-135 -159l-132 102l136 160q84 97 237 207l-4 14q-176 14 -272 51l-170 66l88 170l170 -66q106 -40 229 -145l12 8q-20 189 -4 295l31 195h180l-30 -195q-17 -112 -101 -295l8 -8q163 106 275 145l192 66l35 -170l-192 -66
q-106 -37 -287 -51l-10 -16q116 -107 170 -205l88 -160l-164 -102l-88 159q-53 95 -80 263h-14q-87 -166 -168 -263zM449 618l-136 -159l-131 102l135 160q82 95 238 207l-4 14q-176 14 -272 51l-170 66l88 170l170 -66q106 -40 229 -145l12 8q-20 189 -4 295l31 195h180
l-31 -195q-17 -115 -100 -295l8 -8q163 106 275 145l192 66l35 -170l-193 -66q-107 -38 -286 -51l-10 -16q114 -105 169 -205l89 -160l-164 -102l-88 159q-53 95 -80 263h-15q-89 -169 -167 -263z" />
    <glyph glyph-name="slash_equal.liga" unicode="&#x2f;&#x3d;" 
d="M1073 1004l-26 -164h-1420l-174 -328h1542l-26 -164h-1604l-305 -573h-199l1026 1925h199l-371 -696h1358z" />
    <glyph glyph-name="slash_equal_equal.liga" unicode="&#x2f;&#x3d;&#x3d;" 
d="M1073 1004l-26 -164h-2657l-225 -328h2830l-26 -164h-2919l-395 -573h-199l1330 1925h198l-481 -696h2570z" />
    <glyph glyph-name="slash_greater.liga" unicode="&#x2f;&#x3e;" 
d="M-934 -225h-194l1030 1925h194l-188 -354l1087 -568l-32 -205l-951 -440l31 195l682 309q63 29 131 45q-59 14 -117 45l-909 477z" />
    <glyph glyph-name="slash_slash.liga" unicode="&#x2f;&#x2f;" 
d="M-848 -225h-199l1027 1925h198zM74 -225h-199l1026 1925h199z" />
    <glyph glyph-name="slash_slash_equal.liga" unicode="&#x2f;&#x2f;&#x3d;" 
d="M-2234 -225l1026 1925h198l-1026 -1925h-198zM1032 1004l-26 -164h-1551l-174 -328h1673l-26 -164h-1735l-305 -573h-199l1026 1925h199l-371 -696h1489z" />
    <glyph glyph-name="slash_slash_slash.liga" unicode="&#x2f;&#x2f;&#x2f;" 
d="M-1985 -225h-198l1026 1925h199zM-1001 -225h-199l1026 1925h199zM-18 -225h-199l1026 1925h199z" />
    <glyph glyph-name="underscore_bar_underscore.liga" unicode="_&#x7c;_" 
d="M676 -205h-2826l24 154h1321l252 1587h184l-252 -1587h1321z" />
    <glyph glyph-name="underscore_underscore.liga" unicode="__" 
d="M983 -205h-2212l25 154h2212z" />
    <glyph glyph-name="at_underscore.liga" unicode="&#x40;_" 
d="M-662 -51h1670l-25 -154h-1669q-262 0 -392 161t-87 433l84 533q44 277 216.5 435.5t430.5 158.5q245 0 358 -98t78 -322l-139 -881h-146l17 113h-23q-25 -62 -87 -97.5t-146 -35.5q-134 0 -191 81t-32 236l38 246q25 155 107.5 236t216.5 81q84 0 135.5 -35.5
t57.5 -97.5h24l2 143l2 11q10 49 6.5 88t-10.5 68t-27.5 49.5t-44 34.5t-59 22t-73.5 11t-87 3q-185 0 -306 -118t-155 -332l-83 -533q-32 -204 58.5 -322t280.5 -118zM-252 532l37 228q15 97 -17.5 141.5t-117.5 44.5q-84 0 -131 -46t-62 -142l-39 -246
q-15 -97 17.5 -142.5t115.5 -45.5q84 0 132 51t65 157z" />
    <glyph glyph-name="ampersand_ampersand.liga" unicode="&#x26;&#x26;" 
d="M-791 -20q-168 0 -248.5 89.5t-54.5 247.5l39 256q17 107 86 182.5t178 106.5l-12 21q-94 164 -71 307q23 148 138 237t281 89q179 0 268.5 -95t63.5 -256h-184q13 89 -32.5 140t-139.5 51q-85 0 -142 -46t-69 -124q-19 -108 45 -223l547 -963h-203l-100 178
q-89 -96 -189.5 -147t-200.5 -51zM315 -20q-168 0 -248.5 89.5t-54.5 247.5l39 256q17 107 86 182.5t178 106.5l-12 21q-95 166 -72 307q23 147 138.5 236.5t281.5 89.5q179 0 268.5 -95t63.5 -256h-184q13 89 -32.5 140t-139.5 51q-85 0 -142 -46t-69 -124
q-19 -108 45 -223l276 -486l187 260h192l-297 -407l189 -330h-203l-100 178q-89 -96 -189.5 -147t-200.5 -51zM-754 143q69 0 142 46t131 128l-236 416q-131 -21 -153 -160l-39 -256q-14 -83 26.5 -128.5t128.5 -45.5zM352 143q69 0 142 46t131 128l-236 416
q-131 -21 -153 -160l-39 -256q-14 -83 26.5 -128.5t128.5 -45.5z" />
    <glyph glyph-name="ampersand_ampersand_ampersand.liga" unicode="&#x26;&#x26;&#x26;" 
d="M-1958 -20q-168 0 -248.5 89.5t-54.5 247.5l39 256q17 107 86 182.5t178 106.5l-12 21q-95 166 -72 307q23 147 138.5 236.5t281.5 89.5q179 0 268.5 -95t63.5 -256h-185q13 89 -32.5 140t-139.5 51q-85 0 -142 -46t-69 -124q-9 -50 3.5 -110t42.5 -113l546 -963h-202
l-101 178q-183 -198 -389 -198zM-852 -20q-168 0 -248.5 89.5t-54.5 247.5l39 256q17 107 86 182.5t178 106.5l-12 21q-95 166 -72 307q23 147 138.5 236.5t281.5 89.5q179 0 268.5 -95t63.5 -256h-185q13 89 -32.5 140t-139.5 51q-85 0 -142 -46t-69 -124q-19 -108 45 -223
l547 -963h-202l-101 178q-183 -198 -389 -198zM254 -20q-168 0 -248.5 89.5t-54.5 247.5l39 256q17 107 86 182.5t178 106.5l-12 21q-95 166 -72 307q23 147 138.5 236.5t281.5 89.5q179 0 268.5 -95t63.5 -256h-185q13 89 -32.5 140t-139.5 51q-85 0 -142 -46t-69 -124
q-19 -108 45 -223l277 -486l186 260h193l-297 -407l188 -330h-203l-100 178q-183 -198 -389 -198zM-1921 143q69 0 141.5 46t130.5 128l-235 416q-132 -22 -154 -160l-39 -256q-13 -83 27.5 -128.5t128.5 -45.5zM-815 143q69 0 141.5 46t130.5 128l-235 416
q-132 -22 -154 -160l-39 -256q-13 -83 27.5 -128.5t128.5 -45.5zM291 143q69 0 141.5 46t130.5 128l-235 416q-132 -22 -154 -160l-39 -256q-13 -83 27.5 -128.5t128.5 -45.5z" />
    <glyph glyph-name="ampersand_equal.liga" unicode="&#x26;&#x3d;" 
d="M-328 475l379 529h1084l-27 -164h-989l-363 -510l187 -330h-203l-102 178q-183 -198 -388 -198q-168 0 -248.5 89.5t-54.5 247.5l39 256q19 108 87.5 183t176.5 106l-12 21q-95 166 -72 307q23 147 138.5 236.5t281.5 89.5q179 0 268.5 -95t63.5 -256h-184
q13 89 -32.5 140t-139.5 51q-85 0 -142 -46t-69 -124q-19 -108 45 -223zM-713 143q69 0 142 46t131 128l-236 416q-128 -21 -153 -160l-39 -256q-14 -83 26.5 -128.5t128.5 -45.5zM1030 348h-973l27 164h973z" />
    <glyph glyph-name="bar_hyphen.liga" unicode="&#x7c;&#x2d;" 
d="M-639 -174h-184l270 1710h184l-123 -778h1383l-27 -164h-1382z" />
    <glyph glyph-name="bar_hyphen_greater.liga" unicode="&#x7c;&#x2d;&#x3e;" 
d="M-2085 72h-184l190 1208h185l-82 -522h2818l-334 522h207l377 -604l-570 -604h-225l498 522h-2798z" />
    <glyph glyph-name="bar_braceright.liga" unicode="&#x7c;&#x7d;" 
d="M-606 -225h-185l304 1925h184zM725 819h225l-24 -164h-226q-128 0 -177 -45.5t-60 -158.5l-33 -336q-17 -160 -133 -250t-299 -90h-236l25 164h236q98 0 156 44.5t67 131.5l33 336q10 115 77 192t172 96q-99 17 -142 93t-17 192l73 336q19 87 -24.5 131.5t-141.5 44.5
h-235l25 164h235q184 0 272.5 -90t53.5 -250l-74 -336q-16 -72 -8.5 -117.5t50 -66.5t130.5 -21z" />
    <glyph glyph-name="bar_bracketright.liga" unicode="&#x7c;]" 
d="M-606 -225h-185l304 1925h184zM541 -225h-789l25 164h604l254 1597h-604l24 164h789z" />
    <glyph glyph-name="bar_bar.liga" unicode="&#x7c;&#x7c;" 
d="M-524 -225h-185l303 1925h185zM459 -225h-185l304 1925h184z" />
    <glyph glyph-name="bar_bar_hyphen.liga" unicode="&#x7c;&#x7c;&#x2d;" 
d="M-1694 -174h-184l270 1710h185zM-813 -174h-184l270 1710h184l-123 -778h1454l-26 -164h-1454z" />
    <glyph glyph-name="bar_bar_bar.liga" unicode="&#x7c;&#x7c;&#x7c;" 
d="M-1630 -225h-185l304 1925h184zM-647 -225h-184l303 1925h184zM336 -225h-184l303 1925h184z" />
    <glyph glyph-name="bar_bar_bar_greater.liga" unicode="&#x7c;&#x7c;&#x7c;&#x3e;" 
d="M-2666 -174h-185l271 1710h184zM-1786 -174h-184l270 1710h184zM-905 -174h-185l271 1710h184l1098 -758l-33 -205zM-666 1331l-202 -1278l999 553q100 56 158 80q-49 27 -133 84z" />
    <glyph glyph-name="bar_bar_equal.liga" unicode="&#x7c;&#x7c;&#x3d;" 
d="M-1694 -174h-184l270 1710h185zM-813 -174h-184l270 1710h184l-84 -532h1454l-26 -164h-1454l-52 -328h1455l-27 -164h-1454z" />
    <glyph glyph-name="bar_bar_greater.liga" unicode="&#x7c;&#x7c;&#x3e;" 
d="M-1591 -174h-185l271 1710h184zM-711 -174h-184l270 1710h185l1097 -758l-32 -205zM-471 1331l-203 -1278l1000 553q102 57 157 80q-49 27 -133 84z" />
    <glyph glyph-name="bar_equal.liga" unicode="&#x7c;&#x3d;" 
d="M-639 -174h-184l270 1710h184l-84 -532h1383l-27 -164h-1382l-51 -328h1382l-27 -164h-1382z" />
    <glyph glyph-name="bar_equal_greater.liga" unicode="&#x7c;&#x3d;&#x3e;" 
d="M-2085 72h-184l190 1208h185l-43 -276h2619l-174 276h207l377 -604l-570 -604h-225l264 276h-2603zM-1964 840l-51 -328h2734l166 160l-101 168h-2748z" />
    <glyph glyph-name="bar_greater.liga" unicode="&#x7c;&#x3e;" 
d="M-598 -174h-184l270 1710h184l1098 -758l-33 -205zM-358 1331l-203 -1278l999 553q100 56 158 80q-49 27 -133 84z" />
    <glyph glyph-name="dollar_greater.liga" unicode="&#x24;&#x3e;" 
d="M-41 1413l1108 -635l-33 -205l-919 -440l30 195l652 309q82 39 129 51q-56 10 -113 43l-936 541q-68 39 -118.5 55t-106.5 21l-80 -514l78 -27q137 -46 203 -158t43 -260q-26 -172 -149 -280t-310 -127l-43 -269h-123l43 269q-192 15 -284.5 122.5t-67.5 284.5h184
q-15 -102 35 -165.5t157 -76.5l87 541l-54 19q-136 47 -203.5 156.5t-50.5 254.5q26 164 145 270t294 123l43 271h122l-43 -271q135 -16 281 -98zM-696 1135q-15 -95 24 -165.5t127 -99.5l74 478q-198 -28 -225 -213zM-289 385q14 91 -24 161t-121 97l-25 8l-80 -504
q103 15 169 77.5t81 160.5z" />
    <glyph glyph-name="plus_plus.liga" unicode="&#x2b;&#x2b;" 
d="M-471 195h-180l63 399h-391l27 164h391l61 399h181l-62 -399h823l62 399h180l-61 -399h391l-27 -164h-391l-64 -399h-180l64 399h-824z" />
    <glyph glyph-name="plus_plus_plus.liga" unicode="&#x2b;&#x2b;&#x2b;" 
d="M-1587 195h-180l63 399h-391l27 164h391l61 399h180l-61 -399h823l62 399h180l-62 -399h824l61 399h180l-61 -399h391l-27 -164h-391l-63 -399h-180l63 399h-823l-64 -399h-180l64 399h-824z" />
    <glyph glyph-name="plus_greater.liga" unicode="&#x2b;&#x3e;" 
d="M-528 92h-181l80 502h-493l26 164h494l78 502h180l-78 -502h494l-27 -164h-494zM1085 573l-950 -440l29 186l684 312q82 37 131 49q-52 13 -115 49l-585 313l28 177l811 -441z" />
    <glyph glyph-name="equal_colon.liga" unicode="&#x3d;&#x3a;" 
d="M829 1147q74 0 112 -45.5t26 -120.5q-10 -73 -62.5 -117.5t-126.5 -44.5t-111.5 44.5t-27.5 117.5q12 75 64 120.5t126 45.5zM-872 1004h1126l-27 -164h-1126zM733 532q74 0 111.5 -44t25.5 -119q-12 -74 -64.5 -119t-125.5 -45t-111 45t-26 119q12 75 64 119t126 44z
M-950 512h1126l-26 -164h-1127z" />
    <glyph glyph-name="equal_colon_equal.liga" unicode="&#x3d;&#x3a;&#x3d;" 
d="M-575 819q-74 0 -112 44.5t-26 119.5q12 73 64.5 118.5t126.5 45.5q73 0 111 -45t26 -119q-12 -75 -64 -119.5t-126 -44.5zM-1135 840h-1116l27 164h1116zM1108 840h-1116l26 164h1117zM-672 205q-73 0 -111 45t-26 119q10 74 62 118.5t126 44.5t112 -44t28 -119
q-12 -73 -64.5 -118.5t-126.5 -45.5zM-1212 348h-1117l27 164h1116zM1030 348h-1116l27 164h1116z" />
    <glyph glyph-name="equal_exclam_equal.liga" unicode="&#x3d;&#x21;&#x3d;" 
d="M-774 440h-131l86 809l39 246h217l-39 -246zM-1135 840h-1116l27 164h1116zM1108 840h-1116l26 164h1117zM-1212 348h-1117l27 164h1116zM1030 348h-1116l27 164h1116zM-881 -10h-61q-54 0 -82.5 34.5t-19.5 88.5q7 54 47 88.5t94 34.5h61q57 0 85 -33.5t20 -87.5
q-9 -54 -49.5 -89.5t-94.5 -35.5z" />
    <glyph glyph-name="equal_equal.liga" unicode="&#x3d;&#x3d;" 
d="M1108 840h-2130l27 164h2130zM1030 348h-2130l27 164h2130z" />
    <glyph glyph-name="equal_equal_equal.liga" unicode="&#x3d;&#x3d;&#x3d;" 
d="M1128 1040h-3338l25 156h3338zM1059 598h-3338l24 156h3338zM989 156h-3338l25 155h3338z" />
    <glyph glyph-name="equal_equal_greater.liga" unicode="&#x3d;&#x3d;&#x3e;" 
d="M522 72h-225l264 276h-2879l26 164h3011l168 174l-103 154h-3025l27 164h2896l-174 276h207l377 -604z" />
    <glyph glyph-name="equal_greater.liga" unicode="&#x3d;&#x3e;" 
d="M522 72h-225l264 276h-1651l27 164h1782l168 170l-103 158h-1796l27 164h1667l-174 276h207l377 -604z" />
    <glyph glyph-name="equal_greater_greater.liga" unicode="&#x3d;&#x3e;&#x3e;" 
d="M-92 72h-225l264 276h-2265l26 164h2396l172 172l-106 156h-2411l27 164h2282l-174 276h206l377 -604zM522 72h-225l592 614l-381 594h207l377 -604z" />
    <glyph glyph-name="equal_less_less.liga" unicode="&#x3d;&#x3c;&#x3c;" 
d="M362 72h-206l-174 276h-2300l26 164h2173l-104 164l155 164h-2173l27 164h2302l260 276h225l-587 -608zM936 72h-207l-379 604l572 604h225l-588 -608z" />
    <glyph glyph-name="equal_slash_equal.liga" unicode="&#x3d;&#x2f;&#x3d;" 
d="M-1094 0h-184l281 348h-1373l27 164h1479l262 328h-1690l27 164h1796l287 358h184l-287 -358h1379l-27 -164h-1485l-262 -328h1696l-27 -164h-1802z" />
    <glyph glyph-name="greater_hyphen.liga" unicode="&#x3e;&#x2d;" 
d="M-887 72h-225l582 618l-371 590h207l327 -522h1452l-26 -164h-1452z" />
    <glyph glyph-name="greater_hyphen_greater.liga" unicode="&#x3e;&#x2d;&#x3e;" 
d="M-2118 72h-225l586 618l-375 590h207l328 -522h2437l-332 522h207l377 -604l-570 -604h-225l498 522h-2419z" />
    <glyph glyph-name="greater_bracketright.liga" unicode="&#x3e;]" 
d="M434 -225h-502l25 164h317l254 1597h-317l25 164h501zM31 604l-951 -440l29 186l684 312q82 37 131 49q-51 12 -114 49l-586 313l28 176l811 -440z" />
    <glyph glyph-name="greater_colon.liga" unicode="&#x3e;&#x3a;" 
d="M453 952q-76 0 -116.5 42.5t-29.5 111.5q10 69 64 111.5t131 42.5q76 0 116 -42.5t29 -111.5t-64.5 -111.5t-129.5 -42.5zM113 573l-951 -440l29 186l684 312q82 37 131 49q-52 13 -115 49l-585 313l28 177l811 -441zM315 92q-76 0 -116 42.5t-29 111.5q10 69 64 111
t131 42q76 0 116 -42t29 -111q-10 -69 -64 -111.5t-131 -42.5z" />
    <glyph glyph-name="greater_equal.liga" unicode="&#x3e;&#x3d;" 
d="M655 768l-1321 -461l29 195l1059 344q63 21 117 26l2 15q-50 5 -109 26l-948 351l29 170l1175 -461zM584 309l-1323 -461l30 177l1321 460z" />
    <glyph glyph-name="greater_equal_greater.liga" unicode="&#x3e;&#x3d;&#x3e;" 
d="M-2118 72h-225l584 610l-373 598h207l174 -276h2435l-176 276h207l377 -604l-570 -604h-225l262 276h-2417zM-1548 676l-154 -164h2419l172 170l-103 158h-2437z" />
    <glyph glyph-name="greater_greater.liga" unicode="&#x3e;&#x3e;" 
d="M965 573l-951 -440l29 186l684 312q82 37 131 49q-52 13 -115 49l-585 313l28 177l811 -441zM-82 571l-950 -440l28 186l685 312q82 37 131 49q-52 13 -115 49l-586 313l29 177l811 -441z" />
    <glyph glyph-name="greater_greater_hyphen.liga" unicode="&#x3e;&#x3e;&#x2d;" 
d="M-2118 72h-225l580 618l-369 590h207l377 -604zM-1503 72h-226l580 618l-369 590h207l328 -522h2068l-26 -164h-2069z" />
    <glyph glyph-name="greater_greater_equal.liga" unicode="&#x3e;&#x3e;&#x3d;" 
d="M-2118 72h-225l574 616l-363 592h207l377 -604zM-1503 72h-226l574 616l-363 592h207l174 -276h2261l-26 -164h-2134l102 -164l-153 -164h2134l-27 -164h-2263z" />
    <glyph glyph-name="greater_greater_greater.liga" unicode="&#x3e;&#x3e;&#x3e;" 
d="M-993 573l-951 -440l29 186l684 312q82 37 131 49q-51 12 -114 49l-586 313l28 177l811 -441zM31 573l-951 -440l29 186l684 312q82 37 131 49q-51 12 -114 49l-586 313l28 177l811 -441zM1055 573l-951 -440l29 186l684 312q82 37 131 49q-51 12 -114 49l-586 313
l28 177l811 -441z" />
    <glyph glyph-name="less_hyphen.liga" unicode="&#x3c;&#x2d;" 
d="M-473 72h-207l-379 604l572 604h225l-498 -522h1815l-27 -164h-1833z" />
    <glyph glyph-name="less_hyphen_hyphen.liga" unicode="&#x3c;&#x2d;&#x2d;" 
d="M-1692 72h-217l-379 604l572 604h215l-467 -489q-23 -23 -31 -33h3084l-24 -154h-3093q3 -4 15 -22.5t20 -28.5z" />
    <glyph glyph-name="less_hyphen_bar.liga" unicode="&#x3c;&#x2d;&#x7c;" 
d="M-1999 758h2808l82 522h184l-190 -1208h-185l82 522h-2805l331 -522h-217l-379 604l572 604h215z" />
    <glyph glyph-name="less_hyphen_greater.liga" unicode="&#x3c;&#x2d;&#x3e;" 
d="M-1702 72h-207l-379 604l572 604h225l-498 -522h2831l-334 522h207l377 -604l-570 -604h-225l498 522h-2829z" />
    <glyph glyph-name="less_hyphen_less.liga" unicode="&#x3c;&#x2d;&#x3c;" 
d="M-1702 72h-207l-379 604l572 604h225l-498 -522h2417l494 522h225l-572 -612l361 -596h-207l-328 522h-2435z" />
    <glyph glyph-name="less_colon.liga" unicode="&#x3c;&#x3a;" 
d="M453 952q-76 0 -116.5 42.5t-29.5 111.5q10 69 64 111.5t131 42.5q76 0 116 -42.5t29 -111.5t-64.5 -111.5t-129.5 -42.5zM74 305l-31 -172l-811 440l33 205l950 441l-29 -191l-684 -311q-79 -36 -129 -49q53 -14 115 -50zM315 92q-76 0 -116 42.5t-29 111.5
q10 69 64 111t131 42q76 0 116 -42t29 -111q-10 -69 -64 -111.5t-131 -42.5z" />
    <glyph glyph-name="less_colon_less.liga" unicode="&#x3c;&#x3a;&#x3c;" 
d="M-776 952q-76 0 -116.5 42.5t-29.5 111.5q10 69 64 111.5t131 42.5q76 0 116 -42.5t29 -111.5t-64.5 -111.5t-129.5 -42.5zM-1360 305l-31 -172l-811 440l33 205l950 441l-28 -191l-684 -311q-79 -36 -129 -49q51 -13 114 -50zM831 305l-30 -172l-811 440l33 205l950 441
l-29 -191l-684 -311q-79 -36 -129 -49q53 -14 115 -50zM-913 92q-76 0 -116.5 42.5t-29.5 111.5q10 69 64 111t131 42q76 0 116 -42t29 -111t-64.5 -111.5t-129.5 -42.5z" />
    <glyph glyph-name="less_exclam_hyphen_hyphen.liga" unicode="&#x3c;&#x21;&#x2d;&#x2d;" 
d="M-2154 440l215 809l77 246h217l-77 -246l-301 -809h-131zM-2249 594h-1005q6 -7 15.5 -21.5t12.5 -19.5l306 -481h-218l-378 604l571 604h215l-467 -489l-33 -33h1008zM-1430 594l27 164h2488l-26 -164h-2489zM-2185 236h61q57 0 79 -33.5t7 -87.5q-19 -54 -64.5 -89.5
t-99.5 -35.5h-61q-54 0 -77.5 34.5t-4.5 88.5q15 54 60.5 88.5t99.5 34.5z" />
    <glyph glyph-name="less_asterisk.liga" unicode="&#x3c;&#x2a;" 
d="M416 352l-187 -221l-131 102l187 222q81 98 237 207l-4 14q-168 13 -272 51l-230 86l88 170l230 -86q106 -40 229 -145l12 8q-21 197 -4 295l39 256h181l-39 -256q-20 -120 -101 -295l8 -6q172 108 275 143l258 86l35 -170l-258 -86q-108 -36 -287 -49l-10 -19
q127 -122 170 -204l119 -222l-164 -102l-119 221q-54 103 -80 262h-16q-78 -156 -166 -262zM-244 305l-30 -172l-811 440l32 205l951 441l-29 -191l-684 -311q-79 -36 -129 -49q53 -14 115 -50z" />
    <glyph glyph-name="less_asterisk_greater.liga" unicode="&#x3c;&#x2a;&#x3e;" 
d="M-782 352l-187 -221l-131 102l187 222q81 98 237 207l-4 14q-168 13 -272 51l-230 86l88 170l230 -86q106 -40 229 -145l12 8q-21 197 -4 295l39 256h180l-38 -256q-20 -120 -101 -295l8 -6q172 108 275 143l258 86l35 -170l-258 -86q-108 -36 -287 -49l-10 -19
q127 -122 170 -204l118 -222l-163 -102l-119 221q-54 103 -80 262h-16q-78 -156 -166 -262zM-1411 305l-31 -172l-811 440l33 205l950 441l-28 -191l-684 -311q-79 -36 -129 -49q51 -13 114 -50zM1024 573l-950 -440l28 186l684 312q81 37 132 49q-52 13 -115 49l-586 313
l29 177l811 -441z" />
    <glyph glyph-name="less_bar.liga" unicode="&#x3c;&#x7c;" 
d="M549 -174h-184l-1102 747l32 205l1340 758h184zM-565 672l956 -633l203 1278z" />
    <glyph glyph-name="less_bar_bar.liga" unicode="&#x3c;&#x7c;&#x7c;" 
d="M-567 -174h-185l-1101 747l32 205l1340 758h184zM313 -174h-184l270 1710h185zM-1681 672l956 -633l203 1278z" />
    <glyph glyph-name="less_bar_bar_bar.liga" unicode="&#x3c;&#x7c;&#x7c;&#x7c;" 
d="M-1602 -174h-184l-1102 747l33 205l1339 758h185zM-721 -174h-184l270 1710h184zM160 -174h-185l271 1710h184zM-2716 672l957 -633l203 1278z" />
    <glyph glyph-name="less_bar_greater.liga" unicode="&#x3c;&#x7c;&#x3e;" 
d="M-647 -225h-184l288 1822h185zM-1016 29l-35 -207l-1099 751l32 205l1340 758l-35 -223l-1155 -647zM922 573l-1338 -749l35 229l1153 633l-950 649l35 201l1097 -758z" />
    <glyph glyph-name="less_dollar.liga" unicode="&#x3c;&#x24;" 
d="M1118 1116h-184q15 96 -25.5 156.5t-130.5 75.5l-80 -512l78 -27q137 -46 204 -159t42 -261q-26 -168 -151 -278t-308 -129l-43 -269h-123l43 269q-245 9 -446 104l-1028 487l33 205l950 441l-29 -189l-813 -360l979 -449q149 -70 379 -76l86 543l-53 17
q-141 43 -209 153.5t-45 259.5q26 164 144.5 270t293.5 123l43 271h123l-43 -269q168 -17 253 -124t60 -273zM430 1126q-17 -95 23.5 -163.5t128.5 -96.5l73 482q-92 -12 -151.5 -71t-73.5 -151zM838 385q13 92 -25.5 158.5t-122.5 97.5l-22 8l-80 -502q103 15 169 77.5
t81 160.5z" />
    <glyph glyph-name="less_dollar_greater.liga" unicode="&#x3c;&#x24;&#x3e;" 
d="M-98 1411l1134 -633l-32 -205l-951 -440l29 189l815 360l-1094 594q-98 54 -223 72l-80 -512l78 -27q135 -46 202 -160t44 -260q-26 -168 -151 -278t-308 -129l-43 -269h-123l43 269q-245 9 -446 104l-1028 487l32 205l951 441l-29 -189l-813 -360l979 -449
q149 -70 379 -76l86 543l-53 17q-141 43 -209 153.5t-45 259.5q26 164 144.5 269t293.5 122l43 273h123l-43 -273q150 -16 295 -98zM-768 1126q-13 -94 27 -163t123 -97l75 482q-89 -13 -150 -73.5t-75 -148.5zM-360 385q14 94 -24 159.5t-124 96.5l-22 8l-80 -502
q103 15 169 77.5t81 160.5z" />
    <glyph glyph-name="less_numbersign_hyphen_hyphen.liga" unicode="&#x3c;&#x23;&#x2d;&#x2d;" 
d="M-2230 0h-150l142 410h-172l20 133h197l139 409h-199l21 133h223l141 410h150l-142 -410h320l141 410h150l-142 -410h172l-20 -133h-197l-139 -409h199l-21 -133h-223l-141 -410h-150l142 410h-320zM-2929 72h-209l-378 604l571 604h223l-497 -522h731l-27 -164h-745z
M-1905 952l-139 -409h320l139 409h-320zM1059 594h-2202l27 164h2201z" />
    <glyph glyph-name="less_plus.liga" unicode="&#x3c;&#x2b;" 
d="M557 92h-180l80 502h-494l27 164h493l78 502h180l-77 -502h493l-27 -164h-493zM-244 305l-30 -172l-811 440l32 205l951 441l-29 -191l-684 -311q-79 -36 -129 -49q53 -14 115 -50z" />
    <glyph glyph-name="less_plus_greater.liga" unicode="&#x3c;&#x2b;&#x3e;" 
d="M-600 92h-180l80 502h-494l27 164h493l78 502h180l-78 -502h494l-27 -164h-493zM-1411 305l-31 -172l-811 440l33 205l950 441l-28 -191l-684 -311q-79 -36 -129 -49q51 -13 114 -50zM1024 573l-950 -440l28 186l684 312q81 37 132 49q-52 13 -115 49l-586 313l29 177
l811 -441z" />
    <glyph glyph-name="less_equal.liga" unicode="&#x3c;&#x3d;" 
d="M612 492l-28 -185l-1178 461l33 205l1323 461l-29 -183l-1059 -344q-64 -21 -116 -26l-2 -15q40 0 108 -24zM539 23l-29 -175l-1176 463l29 174z" />
    <glyph glyph-name="less_equal_bar.liga" unicode="&#x3c;&#x3d;&#x7c;" 
d="M-1702 72h-207l-379 604l572 604h225l-264 -276h2603l43 276h184l-190 -1208h-185l43 276h-2619zM-2075 668l97 -156h2748l51 328h-2734z" />
    <glyph glyph-name="less_equal_equal.liga" unicode="&#x3c;&#x3d;&#x3d;" 
d="M-1702 72h-207l-379 604l572 604h225l-264 -276h2879l-26 -164h-3011l-162 -172l97 -156h3025l-27 -164h-2896z" />
    <glyph glyph-name="less_equal_equal_greater.liga" unicode="&#x3c;&#x3d;&#x3d;&#x3e;" 
d="M-2931 72h-207l-378 604l571 604h225l-264 -276h3666l-174 276h207l377 -604l-570 -604h-225l264 276h-3666zM-3299 668l92 -156h3926l164 172l-99 156h-3926z" />
    <glyph glyph-name="less_equal_greater.liga" unicode="&#x3c;&#x3d;&#x3e;" 
d="M-1702 72h-207l-379 604l572 604h225l-262 -276h2435l-174 276h207l377 -604l-570 -604h-225l264 276h-2439zM-2077 666l97 -154h2699l164 170l-99 158h-2695z" />
    <glyph glyph-name="less_equal_less.liga" unicode="&#x3c;&#x3d;&#x3c;" 
d="M-1702 72h-207l-379 604l572 604h225l-264 -276h2417l260 276h225l-582 -612l371 -596h-207l-174 276h-2431zM-2075 670l97 -158h2433l-105 164l156 164h-2419z" />
    <glyph glyph-name="less_greater.liga" unicode="&#x3c;&#x3e;" 
d="M942 573l-1020 -491l-864 491l33 205l1020 492l864 -492zM-668 627l613 -351l757 357q23 11 48.5 22.5t39 17.5t17.5 9q-32 11 -86 43l-627 352l-747 -360q-78 -37 -107 -45q38 -13 92 -45z" />
    <glyph glyph-name="less_less.liga" unicode="&#x3c;&#x3c;" 
d="M-61 305l-31 -172l-811 440l33 205l950 441l-29 -191l-684 -311q-79 -36 -129 -49q53 -14 115 -50zM924 305l-31 -172l-811 440l33 205l950 441l-29 -191l-684 -311q-79 -36 -129 -49q53 -14 115 -50z" />
    <glyph glyph-name="less_less_hyphen.liga" unicode="&#x3c;&#x3c;&#x2d;" 
d="M-1702 72h-207l-379 604l572 604h225l-588 -612zM-1087 72h-207l-379 604l571 604h225l-497 -522h2459l-24 -154h-2488z" />
    <glyph glyph-name="less_less_equal.liga" unicode="&#x3c;&#x3c;&#x3d;" 
d="M-1702 72h-207l-379 604l572 604h225l-582 -612zM-1087 72h-207l-379 604l571 604h225l-260 -276h2179l-26 -164h-2310l-166 -172l92 -156h2333l-27 -164h-2204z" />
    <glyph glyph-name="less_less_less.liga" unicode="&#x3c;&#x3c;&#x3c;" 
d="M-1278 305l-31 -172l-811 440l33 205l950 441l-28 -191l-684 -311q-79 -36 -129 -49q51 -13 114 -50zM-203 305l-30 -172l-811 440l32 205l951 441l-29 -191l-684 -311q-79 -36 -129 -49q53 -14 115 -50zM872 305l-30 -172l-811 440l32 205l951 441l-29 -191l-684 -311
q-79 -36 -129 -49q53 -14 115 -50z" />
    <glyph glyph-name="less_less_asciitilde.liga" unicode="&#x3c;&#x3c;&#x7e;" 
d="M-1700 72h-211l-377 604l572 604h221l-582 -610zM-1085 72h-211l-377 604l571 604h221l-374 -391h55q52 0 93 -14.5t67 -38t47 -52t37.5 -57t33 -52t39.5 -38t52 -14.5q39 0 76 27.5t71.5 66.5t73.5 78t98.5 66.5t130.5 27.5q52 0 94 -14.5t69 -38t49.5 -52t40 -57
t35 -52t40.5 -38t51 -14.5q39 0 77.5 27.5t74 66.5t76.5 78t101.5 66.5t131.5 27.5q52 0 93 -14.5t67 -38t46.5 -52t36.5 -57t32.5 -52t38.5 -38t50 -14.5q47 0 77.5 29t37.5 83l12 82h174l-12 -82q-19 -119 -104 -192.5t-205 -73.5q-52 0 -93 14.5t-66.5 38t-45.5 52
t-36 57t-32 52t-38.5 38t-51.5 14.5q-39 0 -78 -27.5t-75.5 -66.5t-78.5 -78t-103 -66.5t-132 -27.5t-122.5 27.5t-80 66.5t-52 78t-53 66.5t-68.5 27.5t-76.5 -27.5t-72 -66.5t-74.5 -78t-99.5 -66.5t-130.5 -27.5t-121.5 27.5t-78 66.5t-49.5 78t-50.5 66.5t-67.5 27.5
h-178l-63 -65z" />
    <glyph glyph-name="less_asciitilde.liga" unicode="&#x3c;&#x7e;" 
d="M-473 72h-207l-379 604l572 604h225l-578 -604h17q39 0 75.5 22t70 53t72 62.5t97 53.5t129.5 22t123 -27.5t81 -66.5t53 -78t53 -66.5t67 -27.5q39 0 77.5 27.5t74.5 66.5t77.5 78t102 66.5t131.5 27.5q52 0 93 -14.5t66.5 -38t46 -52t36.5 -57t32 -52t38 -38t50 -14.5
q46 0 77 29.5t38 84.5l12 82h174l-12 -82q-19 -119 -104.5 -193.5t-204.5 -74.5q-52 0 -93 14.5t-66.5 38t-45.5 52t-36 57t-32 52t-38.5 38t-51.5 14.5q-39 0 -78 -27.5t-75.5 -66.5t-78.5 -78t-103 -66.5t-132 -27.5t-122.5 27.5t-80 66.5t-52 78t-53 66.5t-68.5 27.5
q-42 0 -87 -25t-80.5 -56.5t-90.5 -64.5t-111 -46z" />
    <glyph glyph-name="less_asciitilde_greater.liga" unicode="&#x3c;&#x7e;&#x3e;" 
d="M-1411 305l-31 -172l-811 440l33 205l950 441l-28 -191l-684 -311q-79 -36 -129 -49q51 -13 114 -50zM1024 573l-950 -440l28 186l684 312q81 37 132 49q-52 13 -115 49l-586 313l29 177l811 -441zM-825 469q-71 0 -121.5 27.5t-77.5 66.5t-49 78t-49.5 66.5t-65.5 27.5
q-46 0 -76 -28.5t-39 -83.5l-12 -82h-174l12 82q20 120 105 193t205 73q70 0 120 -27.5t76.5 -66.5t48 -78t50 -66.5t67.5 -27.5t76 27.5t70.5 66.5t72.5 78t98 66.5t130 27.5q52 0 93 -14.5t66.5 -38t46 -52t36.5 -57t32 -52t38 -38t50 -14.5q46 0 76 28.5t39 83.5l12 82
h174l-12 -82q-19 -119 -104 -192.5t-205 -73.5q-52 0 -93 14.5t-66.5 38t-45.5 52t-36 57t-32 52t-38.5 38t-51.5 14.5q-39 0 -75.5 -27.5t-70.5 -66.5t-72.5 -78t-97.5 -66.5t-130 -27.5z" />
    <glyph glyph-name="less_asciitilde_asciitilde.liga" unicode="&#x3c;&#x7e;&#x7e;" 
d="M938 735l12 82h174l-12 -82q-19 -119 -104 -192.5t-205 -73.5q-52 0 -93 14.5t-66.5 38t-45.5 52t-36 57t-32 52t-38.5 38t-51.5 14.5q-39 0 -78 -27.5t-75.5 -66.5t-78.5 -78t-103 -66.5t-132 -27.5t-122.5 27.5t-80 66.5t-52 78t-53 66.5t-68.5 27.5t-76.5 -27.5
t-72 -66.5t-74.5 -78t-99.5 -66.5t-130.5 -27.5t-121.5 27.5t-78 66.5t-49.5 78t-50.5 66.5t-67.5 27.5t-76.5 -27.5t-72 -66.5t-74 -78t-99 -66.5t-130.5 -27.5q-67 0 -116 24.5t-76 60.5t-48 73t-46 67.5t-56 38.5l-62 -63l377 -598h-207l-379 604l572 604h225l-403 -420
q34 -18 62 -50t46 -63t36 -60t42.5 -46.5t56.5 -17.5q39 0 76.5 27.5t72 66.5t74.5 78t99.5 66.5t130.5 27.5t121.5 -27.5t78 -66.5t49.5 -78t50.5 -66.5t67.5 -27.5t76.5 27.5t72 66.5t74 78t99 66.5t130.5 27.5t123 -27.5t81 -66.5t53 -78t53 -66.5t67 -27.5
q39 0 77.5 27.5t74.5 66.5t77.5 78t102 66.5t131.5 27.5q52 0 93 -14.5t66.5 -38t46 -52t36.5 -57t32 -52t38 -38t50 -14.5q47 0 77.5 29t37.5 83z" />
    <glyph glyph-name="less_slash.liga" unicode="&#x3c;&#x2f;" 
d="M152 -225h-195l123 231l-1043 567l33 205l950 441l-28 -195l-797 -354l963 -520l829 1550h195z" />
    <glyph glyph-name="less_slash_greater.liga" unicode="&#x3c;&#x2f;&#x3e;" 
d="M-1006 -225h-194l123 231l-1043 567l33 205l950 441l-28 -195l-797 -354l963 -520l829 1550h195l-177 -334l1076 -588l-33 -205l-950 -440l28 189l817 360l-1019 541z" />
    <glyph glyph-name="asciitilde_hyphen.liga" unicode="&#x7e;&#x2d;" 
d="M-223 451q-57 0 -103 16.5t-76.5 42.5t-55.5 57.5t-46.5 63.5t-43.5 58t-52.5 42.5t-67.5 16.5q-65 0 -111 -40t-55 -104l-20 -123h-174l20 123q22 134 122.5 215.5t242.5 81.5q67 0 120 -22t83 -55t59 -71.5t51 -71.5t55.5 -55t75.5 -22q64 0 109.5 40.5t56.5 103.5
l2 10h1086l-27 -164h-952q-52 -68 -129 -105.5t-170 -37.5z" />
    <glyph glyph-name="asciitilde_at.liga" unicode="&#x7e;&#x40;" 
d="M795 1516q233 0 346 -134.5t76 -367.5l-140 -881h-159l22 133h-6q-19 -70 -83.5 -111.5t-156.5 -41.5q-134 0 -192 81t-33 236l39 246q25 155 108.5 236t217.5 81q91 0 142 -41t48 -112h8l21 164v10q28 173 -44.5 265.5t-236.5 92.5q-185 0 -306 -118t-155 -332
l-110 -697q-32 -204 59 -322t281 -118h143l-25 -154h-143q-262 0 -392 161t-87 433l67 422q-129 -135 -313 -135q-68 0 -125 14.5t-95.5 38t-70.5 52t-58.5 57t-52 52t-57 38t-67.5 14.5q-61 0 -108 -38t-56 -95l-21 -123h-174l21 123q20 123 122.5 205t235.5 82
q60 0 109.5 -14.5t83 -38t63 -52t57 -57t56.5 -52t70 -38t90 -14.5q115 0 202.5 60.5t126.5 164.5l4 31q44 277 217 435.5t431 158.5zM965 451l34 227q15 97 -16.5 141.5t-116.5 44.5q-84 0 -131.5 -46t-62.5 -142l-39 -246q-15 -96 18 -142t117 -46t132 51t65 158z" />
    <glyph glyph-name="asciitilde_greater.liga" unicode="&#x7e;&#x3e;" 
d="M522 72h-225l446 469q-52 14 -93 47.5t-62.5 65t-55 56.5t-75.5 25q-39 0 -77.5 -27.5t-74.5 -66.5t-77.5 -78t-102 -66.5t-131.5 -27.5t-123 27.5t-81.5 66.5t-53.5 78t-54 66.5t-69 27.5t-76 -27.5t-71 -66.5t-73.5 -78t-98.5 -66.5t-130 -27.5q-120 0 -181 73.5
t-42 192.5l12 82h175l-13 -82q-15 -112 78 -112q38 0 74.5 27.5t71 66.5t74 78t99 66.5t130.5 27.5t122.5 -27.5t80 -66.5t52 -78t53 -66.5t68.5 -27.5q38 0 76 27.5t74.5 66.5t78 78t102.5 66.5t132 27.5t122.5 -22t80 -53.5t51.5 -62.5t52.5 -53t68.5 -22h43l-391 604h207
l377 -604z" />
    <glyph glyph-name="asciitilde_asciitilde.liga" unicode="&#x7e;&#x7e;" 
d="M-211 471q-52 0 -93 14.5t-66.5 38t-46 52t-36.5 57t-32 52t-38 38t-50 14.5q-46 0 -76 -28.5t-39 -83.5l-12 -82h-174l12 82q20 120 104.5 193t204.5 73q52 0 92.5 -14.5t66 -38t45.5 -52t36 -57t32.5 -52t39 -38t51.5 -14.5q39 0 75.5 27.5t70.5 66.5t72.5 78
t97.5 66.5t130 27.5q52 0 93 -14.5t66.5 -38t46 -52t36.5 -57t32 -52t38 -38t50 -14.5q46 0 76 28.5t39 83.5l12 82h175l-13 -82q-19 -119 -104 -192.5t-205 -73.5q-71 0 -121 27.5t-76.5 66.5t-48 78t-49.5 66.5t-67 27.5t-76 -27.5t-70.5 -66.5t-72.5 -78t-98 -66.5
t-130 -27.5z" />
    <glyph glyph-name="asciitilde_asciitilde_greater.liga" unicode="&#x7e;&#x7e;&#x3e;" 
d="M522 72h-225l592 610l-25 33q-38 -1 -75 -27t-71.5 -62t-74.5 -71.5t-99.5 -60.5t-129.5 -25q-71 0 -121.5 27.5t-78 66.5t-49.5 78t-50.5 66.5t-67.5 27.5t-76.5 -27.5t-72 -66.5t-74.5 -78t-99.5 -66.5t-130.5 -27.5t-121.5 27.5t-77.5 66.5t-49 78t-50.5 66.5
t-67.5 27.5t-77.5 -27.5t-74.5 -66.5t-77.5 -78t-102 -66.5t-131.5 -27.5t-123 27.5t-81.5 66.5t-53.5 78t-54 66.5t-69 27.5t-76 -27.5t-71 -66.5t-73 -78t-98 -66.5t-130 -27.5q-120 0 -181.5 73.5t-42.5 192.5l13 82h174l-13 -82q-15 -112 78 -112q38 0 74.5 27.5
t71 66.5t74 78t99 66.5t130.5 27.5q52 0 93.5 -14.5t68.5 -38t48.5 -52t39 -57t34.5 -52t40.5 -38t52.5 -14.5q38 0 76 27.5t74 66.5t77.5 78t102.5 66.5t132 27.5t121.5 -27.5t78 -66.5t49.5 -78t50.5 -66.5t67.5 -27.5t76.5 27.5t72 66.5t74.5 78t99.5 66.5t130.5 27.5
t121.5 -27.5t77.5 -66.5t49 -78t50.5 -66.5t67.5 -27.5q40 0 81.5 27.5t74 63t84 75.5t104.5 59l-274 432h207l377 -604z" />
    <glyph glyph-name="asciicircum_equal.liga" unicode="^&#x3d;" 
d="M-692 840h-197l522 716h172l232 -552h883l-27 -164h-987l-201 575zM815 348h-993l26 164h994z" />
    <glyph glyph-name=".notdef" 
d="M1044 0h-860v1495h860v-1495zM287 1393v-1170l614 1170h-614zM942 1272l-614 -1170h614v1170z" />
    <glyph glyph-name=".null" horiz-adv-x="0" 
 />
    <glyph glyph-name="nonmarkingreturn" horiz-adv-x="682" 
 />
    <glyph glyph-name="uni2400" unicode="&#x2400;" 
d="M82 502h-59l77 493h82l84 -422q4 67 17 146l43 276h59l-78 -493h-80l-84 422q-17 -139 -18 -146zM571 496q-68 0 -98.5 37t-19.5 104l55 358h61l-57 -358q-6 -41 11 -64.5t57 -23.5q79 0 96 88l55 358h62l-58 -358q-11 -67 -53.5 -104t-110.5 -37zM1178 502h-285l78 493
h61l-69 -438h223z" />
    <glyph glyph-name="uni2400" 
d="M82 502h-59l77 493h82l84 -422q4 67 17 146l43 276h59l-78 -493h-80l-84 422q-17 -139 -18 -146zM571 496q-68 0 -98.5 37t-19.5 104l55 358h61l-57 -358q-6 -41 11 -64.5t57 -23.5q79 0 96 88l55 358h62l-58 -358q-11 -67 -53.5 -104t-110.5 -37zM1178 502h-285l78 493
h61l-69 -438h223z" />
    <glyph glyph-name="uni2401" unicode="&#x2401;" 
d="M166 496q-72 0 -108 36t-27 99h61q-6 -38 16 -60t66 -22q43 0 71 21.5t34 58.5q9 66 -48 86l-63 20q-47 15 -69.5 51t-16.5 84q9 60 54.5 97t111.5 37q64 0 98 -37t25 -97h-62q6 37 -12 57.5t-57 20.5q-40 0 -65.5 -18.5t-29.5 -52.5q-12 -66 48 -86l63 -23
q47 -15 69.5 -51t14.5 -86q-10 -61 -58 -98t-116 -37zM571 496q-66 0 -98 37.5t-22 103.5l34 223q10 66 55 103.5t111 37.5t98.5 -37.5t22.5 -103.5l-35 -223q-10 -66 -55 -103.5t-111 -37.5zM926 502h-62l78 493h62l-33 -211h157l33 211h62l-78 -493h-62l37 227h-159z
M580 549q40 0 65 23.5t31 64.5l35 223q7 41 -10.5 63.5t-57.5 22.5q-83 0 -96 -86l-35 -223q-8 -41 10 -64.5t58 -23.5z" />
    <glyph glyph-name="uni2401" 
d="M166 496q-72 0 -108 36t-27 99h61q-6 -38 16 -60t66 -22q43 0 71 21.5t34 58.5q9 66 -48 86l-63 20q-47 15 -69.5 51t-16.5 84q9 60 54.5 97t111.5 37q64 0 98 -37t25 -97h-62q6 37 -12 57.5t-57 20.5q-40 0 -65.5 -18.5t-29.5 -52.5q-12 -66 48 -86l63 -23
q47 -15 69.5 -51t14.5 -86q-10 -61 -58 -98t-116 -37zM571 496q-66 0 -98 37.5t-22 103.5l34 223q10 66 55 103.5t111 37.5t98.5 -37.5t22.5 -103.5l-35 -223q-10 -66 -55 -103.5t-111 -37.5zM926 502h-62l78 493h62l-33 -211h157l33 211h62l-78 -493h-62l37 227h-159z
M580 549q40 0 65 23.5t31 64.5l35 223q7 41 -10.5 63.5t-57.5 22.5q-83 0 -96 -86l-35 -223q-8 -41 10 -64.5t58 -23.5z" />
    <glyph glyph-name="uni2402" unicode="&#x2402;" 
d="M166 496q-72 0 -108 36t-27 99h61q-6 -38 16 -60t66 -22q43 0 71 21.5t34 58.5q9 66 -48 86l-63 20q-47 15 -69.5 51t-16.5 84q9 60 54.5 97t111.5 37q64 0 98 -37t25 -97h-62q6 37 -12 57.5t-57 20.5q-40 0 -65.5 -18.5t-29.5 -52.5q-12 -66 48 -86l63 -23
q47 -15 69.5 -51t14.5 -86q-10 -61 -58 -98t-116 -37zM602 502h-59l69 438h-135l8 55h332l-10 -55h-135zM899 502h-70l181 252l-95 241h68l53 -145q6 -22 17 -45q2 3 11.5 19.5t16.5 25.5l101 145h69l-172 -241l101 -252h-66l-61 157q-11 25 -15 46q-4 -5 -14.5 -22.5
t-15.5 -23.5z" />
    <glyph glyph-name="uni2402" 
d="M166 496q-72 0 -108 36t-27 99h61q-6 -38 16 -60t66 -22q43 0 71 21.5t34 58.5q9 66 -48 86l-63 20q-47 15 -69.5 51t-16.5 84q9 60 54.5 97t111.5 37q64 0 98 -37t25 -97h-62q6 37 -12 57.5t-57 20.5q-40 0 -65.5 -18.5t-29.5 -52.5q-12 -66 48 -86l63 -23
q47 -15 69.5 -51t14.5 -86q-10 -61 -58 -98t-116 -37zM602 502h-59l69 438h-135l8 55h332l-10 -55h-135zM899 502h-70l181 252l-95 241h68l53 -145q6 -22 17 -45q2 3 11.5 19.5t16.5 25.5l101 145h69l-172 -241l101 -252h-66l-61 157q-11 25 -15 46q-4 -5 -14.5 -22.5
t-15.5 -23.5z" />
    <glyph glyph-name="uni2403" unicode="&#x2403;" 
d="M313 502h-284l80 493h282l-8 -55h-223l-25 -154h201l-10 -53h-199l-29 -176h224zM602 502h-59l69 438h-135l8 55h332l-10 -55h-135zM899 502h-70l181 252l-95 241h68l53 -145q6 -22 17 -45q2 3 11.5 19.5t16.5 25.5l101 145h69l-172 -241l101 -252h-66l-61 157
q-11 25 -15 46q-4 -5 -14.5 -22.5t-15.5 -23.5z" />
    <glyph glyph-name="uni2403" 
d="M313 502h-284l80 493h282l-8 -55h-223l-25 -154h201l-10 -53h-199l-29 -176h224zM602 502h-59l69 438h-135l8 55h332l-10 -55h-135zM899 502h-70l181 252l-95 241h68l53 -145q6 -22 17 -45q2 3 11.5 19.5t16.5 25.5l101 145h69l-172 -241l101 -252h-66l-61 157
q-11 25 -15 46q-4 -5 -14.5 -22.5t-15.5 -23.5z" />
    <glyph glyph-name="uni2404" unicode="&#x2404;" 
d="M571 496q-66 0 -98 37.5t-22 103.5l34 223q10 66 55 103.5t111 37.5t98.5 -37.5t22.5 -103.5l-35 -223q-10 -66 -55 -103.5t-111 -37.5zM313 502h-284l80 493h282l-8 -55h-223l-25 -154h201l-10 -53h-199l-29 -176h224zM1034 502h-59l69 438h-135l9 55h331l-10 -55h-135z
M580 549q40 0 65 23.5t31 64.5l35 223q7 41 -10.5 63.5t-57.5 22.5q-83 0 -96 -86l-35 -223q-8 -41 10 -64.5t58 -23.5z" />
    <glyph glyph-name="uni2404" 
d="M571 496q-66 0 -98 37.5t-22 103.5l34 223q10 66 55 103.5t111 37.5t98.5 -37.5t22.5 -103.5l-35 -223q-10 -66 -55 -103.5t-111 -37.5zM313 502h-284l80 493h282l-8 -55h-223l-25 -154h201l-10 -53h-199l-29 -176h224zM1034 502h-59l69 438h-135l9 55h331l-10 -55h-135z
M580 549q40 0 65 23.5t31 64.5l35 223q7 41 -10.5 63.5t-57.5 22.5q-83 0 -96 -86l-35 -223q-8 -41 10 -64.5t58 -23.5z" />
    <glyph glyph-name="uni2405" unicode="&#x2405;" 
d="M1083 1001q69 0 102.5 -39.5t22.5 -105.5l-32 -215q-15 -94 -97 -131l58 -129h-68l-51 115h-14q-69 0 -102.5 38.5t-24.5 106.5l34 215q10 66 57 105.5t115 39.5zM313 502h-284l80 493h282l-8 -55h-223l-25 -154h201l-10 -53h-199l-29 -176h224zM690 719l43 276h60
l-78 -493h-80l-84 422q-14 -115 -19 -146l-43 -276h-59l78 493h82l84 -422q5 76 16 146zM1114 641l35 215q6 41 -14 66.5t-60 25.5t-68 -25.5t-34 -66.5l-35 -215q-6 -41 14 -66.5t60 -25.5t68 25.5t34 66.5z" />
    <glyph glyph-name="uni2405" 
d="M1083 1001q69 0 102.5 -39.5t22.5 -105.5l-32 -215q-15 -94 -97 -131l58 -129h-68l-51 115h-14q-69 0 -102.5 38.5t-24.5 106.5l34 215q10 66 57 105.5t115 39.5zM313 502h-284l80 493h282l-8 -55h-223l-25 -154h201l-10 -53h-199l-29 -176h224zM690 719l43 276h60
l-78 -493h-80l-84 422q-14 -115 -19 -146l-43 -276h-59l78 493h82l84 -422q5 76 16 146zM1114 641l35 215q6 41 -14 66.5t-60 25.5t-68 -25.5t-34 -66.5l-35 -215q-6 -41 14 -66.5t60 -25.5t68 25.5t34 66.5z" />
    <glyph glyph-name="uni2406" unicode="&#x2406;" 
d="M573 496q-68 0 -100 37.5t-22 103.5l34 223q10 66 55.5 103.5t112.5 37.5t100.5 -38t22.5 -103h-61q7 41 -11.5 63.5t-58.5 22.5t-66 -22.5t-32 -63.5l-35 -223q-7 -41 11.5 -64.5t58.5 -23.5t66 23.5t32 64.5h61q-10 -66 -55.5 -103.5t-112.5 -37.5zM59 502h-63l207 493
h82l49 -493h-60l-12 131h-149zM926 502h-62l78 493h62l-35 -211h71l144 211h67l-159 -239l88 -254h-68l-78 229h-73zM197 838l-64 -154h125l-14 152q-6 57 -6 110q-16 -49 -41 -108z" />
    <glyph glyph-name="uni2406" 
d="M573 496q-68 0 -100 37.5t-22 103.5l34 223q10 66 55.5 103.5t112.5 37.5t100.5 -38t22.5 -103h-61q7 41 -11.5 63.5t-58.5 22.5t-66 -22.5t-32 -63.5l-35 -223q-7 -41 11.5 -64.5t58.5 -23.5t66 23.5t32 64.5h61q-10 -66 -55.5 -103.5t-112.5 -37.5zM59 502h-63l207 493
h82l49 -493h-60l-12 131h-149zM926 502h-62l78 493h62l-35 -211h71l144 211h67l-159 -239l88 -254h-68l-78 229h-73zM197 838l-64 -154h125l-14 152q-6 57 -6 110q-16 -49 -41 -108z" />
    <glyph glyph-name="uni2407" unicode="&#x2407;" 
d="M102 995h142q67 0 99.5 -34t23.5 -93q-12 -84 -93 -106q39 -11 57 -43.5t11 -79.5q-11 -63 -56 -100t-112 -37h-149zM733 502h-284l79 493h283l-8 -55h-223l-25 -154h201l-11 -53h-198l-29 -176h223zM1032 995l-69 -438h223l-8 -55h-285l78 493h61zM305 862
q6 37 -13 57.5t-59 20.5h-79l-25 -156h80q38 0 64 21.5t32 56.5zM283 641q6 40 -15 66t-63 26h-84l-27 -176h82q43 0 72 23t35 61z" />
    <glyph glyph-name="uni2407" 
d="M102 995h142q67 0 99.5 -34t23.5 -93q-12 -84 -93 -106q39 -11 57 -43.5t11 -79.5q-11 -63 -56 -100t-112 -37h-149zM733 502h-284l79 493h283l-8 -55h-223l-25 -154h201l-11 -53h-198l-29 -176h223zM1032 995l-69 -438h223l-8 -55h-285l78 493h61zM305 862
q6 37 -13 57.5t-59 20.5h-79l-25 -156h80q38 0 64 21.5t32 56.5zM283 641q6 40 -15 66t-63 26h-84l-27 -176h82q43 0 72 23t35 61z" />
    <glyph glyph-name="uni2408" unicode="&#x2408;" 
d="M997 870h-61q6 37 -12 57.5t-58 20.5t-65 -18.5t-29 -52.5q-12 -67 47 -86l64 -23q47 -15 69.5 -51t14.5 -86q-10 -61 -58 -98t-116 -37q-72 0 -108.5 36t-27.5 99h62q-6 -38 16 -60t66 -22q43 0 70.5 21.5t33.5 58.5q9 67 -47 86l-63 20q-47 15 -69.5 51t-16.5 84
q9 60 54 97t111 37q64 0 98 -37t25 -97zM313 995h142q67 0 99.5 -34t23.5 -93q-12 -84 -93 -106q39 -11 57 -43.5t11 -79.5q-11 -63 -56 -100t-112 -37h-149zM516 862q6 37 -13 57.5t-59 20.5h-79l-25 -156h80q38 0 64 21.5t32 56.5zM494 641q6 40 -15 66t-63 26h-84
l-27 -176h82q43 0 72 23t35 61z" />
    <glyph glyph-name="uni2408" 
d="M997 870h-61q6 37 -12 57.5t-58 20.5t-65 -18.5t-29 -52.5q-12 -67 47 -86l64 -23q47 -15 69.5 -51t14.5 -86q-10 -61 -58 -98t-116 -37q-72 0 -108.5 36t-27.5 99h62q-6 -38 16 -60t66 -22q43 0 70.5 21.5t33.5 58.5q9 67 -47 86l-63 20q-47 15 -69.5 51t-16.5 84
q9 60 54 97t111 37q64 0 98 -37t25 -97zM313 995h142q67 0 99.5 -34t23.5 -93q-12 -84 -93 -106q39 -11 57 -43.5t11 -79.5q-11 -63 -56 -100t-112 -37h-149zM516 862q6 37 -13 57.5t-59 20.5h-79l-25 -156h80q38 0 64 21.5t32 56.5zM494 641q6 40 -15 66t-63 26h-84
l-27 -176h82q43 0 72 23t35 61z" />
    <glyph glyph-name="uni240B" unicode="&#x240b;" 
d="M418 502h-84l-49 493h61l31 -336q6 -71 6 -110q4 14 41 110l137 336h62zM821 502h-59l69 438h-135l9 55h331l-10 -55h-135z" />
    <glyph glyph-name="uni240B" 
d="M418 502h-84l-49 493h61l31 -336q6 -71 6 -110q4 14 41 110l137 336h62zM821 502h-59l69 438h-135l9 55h331l-10 -55h-135z" />
    <glyph glyph-name="uni240C" unicode="&#x240c;" 
d="M299 502h-61l77 493h291l-8 -55h-231l-27 -164h213l-8 -55h-213zM715 502h-62l78 493h291l-8 -55h-232l-26 -164h213l-8 -55h-213z" />
    <glyph glyph-name="uni240C" 
d="M299 502h-61l77 493h291l-8 -55h-231l-27 -164h213l-8 -55h-213zM715 502h-62l78 493h291l-8 -55h-232l-26 -164h213l-8 -55h-213z" />
    <glyph glyph-name="CR" unicode="&#xd;" horiz-adv-x="819" 
 />
    <glyph glyph-name="uni240E" unicode="&#x240e;" 
d="M377 496q-72 0 -108 36t-27 99h61q-6 -38 16 -60t66 -22q43 0 70.5 21.5t33.5 58.5q9 67 -47 86l-63 20q-47 15 -69.5 51t-16.5 84q9 60 54.5 97t111.5 37q64 0 98 -37t25 -97h-62q6 37 -12 57.5t-57 20.5q-40 0 -65.5 -18.5t-29.5 -52.5q-12 -67 47 -86l64 -23
q47 -15 69.5 -51t14.5 -86q-10 -61 -58 -98t-116 -37zM791 496q-66 0 -98.5 37.5t-22.5 103.5l35 223q10 66 54.5 103.5t110.5 37.5t98.5 -37.5t22.5 -103.5l-35 -223q-10 -66 -54.5 -103.5t-110.5 -37.5zM799 549q40 0 65 23.5t31 64.5l35 223q7 41 -10.5 63.5t-57.5 22.5
q-83 0 -96 -86l-35 -223q-8 -41 10 -64.5t58 -23.5z" />
    <glyph glyph-name="uni240E" 
d="M377 496q-72 0 -108 36t-27 99h61q-6 -38 16 -60t66 -22q43 0 70.5 21.5t33.5 58.5q9 67 -47 86l-63 20q-47 15 -69.5 51t-16.5 84q9 60 54.5 97t111.5 37q64 0 98 -37t25 -97h-62q6 37 -12 57.5t-57 20.5q-40 0 -65.5 -18.5t-29.5 -52.5q-12 -67 47 -86l64 -23
q47 -15 69.5 -51t14.5 -86q-10 -61 -58 -98t-116 -37zM791 496q-66 0 -98.5 37.5t-22.5 103.5l35 223q10 66 54.5 103.5t110.5 37.5t98.5 -37.5t22.5 -103.5l-35 -223q-10 -66 -54.5 -103.5t-110.5 -37.5zM799 549q40 0 65 23.5t31 64.5l35 223q7 41 -10.5 63.5t-57.5 22.5
q-83 0 -96 -86l-35 -223q-8 -41 10 -64.5t58 -23.5z" />
    <glyph glyph-name="uni240F" unicode="&#x240f;" 
d="M377 496q-72 0 -108 36t-27 99h61q-6 -38 16 -60t66 -22q43 0 70.5 21.5t33.5 58.5q9 67 -47 86l-63 20q-47 15 -69.5 51t-16.5 84q9 60 54.5 97t111.5 37q64 0 98 -37t25 -97h-62q6 37 -12 57.5t-57 20.5q-40 0 -65.5 -18.5t-29.5 -52.5q-12 -67 47 -86l64 -23
q47 -15 69.5 -51t14.5 -86q-10 -61 -58 -98t-116 -37zM924 502h-265l9 55h102l59 383h-100l8 55h264l-8 -55h-100l-62 -383h101z" />
    <glyph glyph-name="uni240F" 
d="M377 496q-72 0 -108 36t-27 99h61q-6 -38 16 -60t66 -22q43 0 70.5 21.5t33.5 58.5q9 67 -47 86l-63 20q-47 15 -69.5 51t-16.5 84q9 60 54.5 97t111.5 37q64 0 98 -37t25 -97h-62q6 37 -12 57.5t-57 20.5q-40 0 -65.5 -18.5t-29.5 -52.5q-12 -67 47 -86l64 -23
q47 -15 69.5 -51t14.5 -86q-10 -61 -58 -98t-116 -37zM924 502h-265l9 55h102l59 383h-100l8 55h264l-8 -55h-100l-62 -383h101z" />
    <glyph glyph-name="uni2410" unicode="&#x2410;" 
d="M152 502h-127l77 493h127q72 0 108 -39.5t25 -107.5l-30 -197q-10 -69 -59 -109t-121 -40zM745 502h-284l78 493h61l-70 -438h224zM1153 502h-285l80 493h283l-8 -55h-224l-24 -154h201l-11 -53h-198l-29 -176h223zM156 942l-62 -387h68q44 0 73 26t35 70l31 197
q8 43 -14 68.5t-66 25.5h-65z" />
    <glyph glyph-name="uni2410" 
d="M152 502h-127l77 493h127q72 0 108 -39.5t25 -107.5l-30 -197q-10 -69 -59 -109t-121 -40zM745 502h-284l78 493h61l-70 -438h224zM1153 502h-285l80 493h283l-8 -55h-224l-24 -154h201l-11 -53h-198l-29 -176h223zM156 942l-62 -387h68q44 0 73 26t35 70l31 197
q8 43 -14 68.5t-66 25.5h-65z" />
    <glyph glyph-name="uni2411" unicode="&#x2411;" 
d="M573 496q-68 0 -100 37.5t-22 103.5l34 223q10 66 55.5 103.5t112.5 37.5t100.5 -38t22.5 -103h-61q7 41 -11.5 63.5t-58.5 22.5t-66 -22.5t-32 -63.5l-35 -223q-7 -41 11.5 -64.5t58.5 -23.5t66 23.5t32 64.5h61q-10 -66 -55.5 -103.5t-112.5 -37.5zM152 502h-127
l77 493h127q72 0 108 -39.5t25 -107.5l-30 -197q-10 -69 -59 -109t-121 -40zM1167 502h-305l8 55h136l61 387l-149 -100l10 67l125 84h84l-70 -438h109zM156 942l-62 -387h68q44 0 73 26t35 70l31 197q8 43 -14 68.5t-66 25.5h-65z" />
    <glyph glyph-name="uni2411" 
d="M573 496q-68 0 -100 37.5t-22 103.5l34 223q10 66 55.5 103.5t112.5 37.5t100.5 -38t22.5 -103h-61q7 41 -11.5 63.5t-58.5 22.5t-66 -22.5t-32 -63.5l-35 -223q-7 -41 11.5 -64.5t58.5 -23.5t66 23.5t32 64.5h61q-10 -66 -55.5 -103.5t-112.5 -37.5zM152 502h-127
l77 493h127q72 0 108 -39.5t25 -107.5l-30 -197q-10 -69 -59 -109t-121 -40zM1167 502h-305l8 55h136l61 387l-149 -100l10 67l125 84h84l-70 -438h109zM156 942l-62 -387h68q44 0 73 26t35 70l31 197q8 43 -14 68.5t-66 25.5h-65z" />
    <glyph glyph-name="uni2412" unicode="&#x2412;" 
d="M573 496q-68 0 -100 37.5t-22 103.5l34 223q10 66 55.5 103.5t112.5 37.5t100.5 -38t22.5 -103h-61q7 41 -11.5 63.5t-58.5 22.5t-66 -22.5t-32 -63.5l-35 -223q-7 -41 11.5 -64.5t58.5 -23.5t66 23.5t32 64.5h61q-10 -66 -55.5 -103.5t-112.5 -37.5zM1157 502h-293l8 59
l187 172q78 75 86 127q6 40 -13.5 64t-60.5 24t-68.5 -24.5t-35.5 -67.5h-60q12 67 58.5 106t113.5 39q69 0 102.5 -38.5t24.5 -104.5q-12 -72 -110 -162l-152 -139h221zM152 502h-127l77 493h127q72 0 108 -39.5t25 -107.5l-30 -197q-10 -69 -59 -109t-121 -40zM156 942
l-62 -387h68q44 0 73 26t35 70l31 197q8 43 -14 68.5t-66 25.5h-65z" />
    <glyph glyph-name="uni2412" 
d="M573 496q-68 0 -100 37.5t-22 103.5l34 223q10 66 55.5 103.5t112.5 37.5t100.5 -38t22.5 -103h-61q7 41 -11.5 63.5t-58.5 22.5t-66 -22.5t-32 -63.5l-35 -223q-7 -41 11.5 -64.5t58.5 -23.5t66 23.5t32 64.5h61q-10 -66 -55.5 -103.5t-112.5 -37.5zM1157 502h-293l8 59
l187 172q78 75 86 127q6 40 -13.5 64t-60.5 24t-68.5 -24.5t-35.5 -67.5h-60q12 67 58.5 106t113.5 39q69 0 102.5 -38.5t24.5 -104.5q-12 -72 -110 -162l-152 -139h221zM152 502h-127l77 493h127q72 0 108 -39.5t25 -107.5l-30 -197q-10 -69 -59 -109t-121 -40zM156 942
l-62 -387h68q44 0 73 26t35 70l31 197q8 43 -14 68.5t-66 25.5h-65z" />
    <glyph glyph-name="uni2413" unicode="&#x2413;" 
d="M653 1001q67 0 100.5 -38t22.5 -103h-61q7 41 -11.5 63.5t-58.5 22.5t-66 -22.5t-32 -63.5l-35 -223q-7 -41 11.5 -64.5t58.5 -23.5t66 23.5t32 64.5h61q-10 -66 -55.5 -103.5t-112.5 -37.5q-68 0 -100 37.5t-22 103.5l34 223q10 66 55.5 103.5t112.5 37.5zM102 995h127
q72 0 108 -39.5t25 -107.5l-30 -197q-10 -69 -59 -109t-121 -40h-127zM948 995h260l-8 -57l-135 -125q60 -6 89.5 -43.5t19.5 -97.5l-7 -35q-9 -65 -55.5 -103t-116.5 -38q-66 0 -100 38.5t-25 102.5h62q-6 -41 13.5 -64.5t60.5 -23.5t67.5 24t34.5 64l4 35q7 41 -12.5 63.5
t-61.5 22.5h-53l8 53l140 129h-195zM270 651l31 197q8 43 -14 68.5t-66 25.5h-65l-62 -387h68q44 0 73 26t35 70z" />
    <glyph glyph-name="uni2413" 
d="M653 1001q67 0 100.5 -38t22.5 -103h-61q7 41 -11.5 63.5t-58.5 22.5t-66 -22.5t-32 -63.5l-35 -223q-7 -41 11.5 -64.5t58.5 -23.5t66 23.5t32 64.5h61q-10 -66 -55.5 -103.5t-112.5 -37.5q-68 0 -100 37.5t-22 103.5l34 223q10 66 55.5 103.5t112.5 37.5zM102 995h127
q72 0 108 -39.5t25 -107.5l-30 -197q-10 -69 -59 -109t-121 -40h-127zM948 995h260l-8 -57l-135 -125q60 -6 89.5 -43.5t19.5 -97.5l-7 -35q-9 -65 -55.5 -103t-116.5 -38q-66 0 -100 38.5t-25 102.5h62q-6 -41 13.5 -64.5t60.5 -23.5t67.5 24t34.5 64l4 35q7 41 -12.5 63.5
t-61.5 22.5h-53l8 53l140 129h-195zM270 651l31 197q8 43 -14 68.5t-66 25.5h-65l-62 -387h68q44 0 73 26t35 70z" />
    <glyph glyph-name="uni2414" unicode="&#x2414;" 
d="M573 496q-68 0 -100 37.5t-22 103.5l34 223q10 66 55.5 103.5t112.5 37.5t100.5 -38t22.5 -103h-61q7 41 -11.5 63.5t-58.5 22.5t-66 -22.5t-32 -63.5l-35 -223q-7 -41 11.5 -64.5t58.5 -23.5t66 23.5t32 64.5h61q-10 -66 -55.5 -103.5t-112.5 -37.5zM152 502h-127
l77 493h127q72 0 108 -39.5t25 -107.5l-30 -197q-10 -69 -59 -109t-121 -40zM1133 502h-62l19 108h-224l15 95l227 290h66l-234 -305l-4 -24h162l20 120h60zM156 942l-62 -387h68q44 0 73 26t35 70l31 197q8 43 -14 68.5t-66 25.5h-65z" />
    <glyph glyph-name="uni2414" 
d="M573 496q-68 0 -100 37.5t-22 103.5l34 223q10 66 55.5 103.5t112.5 37.5t100.5 -38t22.5 -103h-61q7 41 -11.5 63.5t-58.5 22.5t-66 -22.5t-32 -63.5l-35 -223q-7 -41 11.5 -64.5t58.5 -23.5t66 23.5t32 64.5h61q-10 -66 -55.5 -103.5t-112.5 -37.5zM152 502h-127
l77 493h127q72 0 108 -39.5t25 -107.5l-30 -197q-10 -69 -59 -109t-121 -40zM1133 502h-62l19 108h-224l15 95l227 290h66l-234 -305l-4 -24h162l20 120h60zM156 942l-62 -387h68q44 0 73 26t35 70l31 197q8 43 -14 68.5t-66 25.5h-65z" />
    <glyph glyph-name="uni2415" unicode="&#x2415;" 
d="M82 502h-59l77 493h82l84 -422q4 67 17 146l43 276h59l-78 -493h-80l-84 422q-17 -139 -18 -146zM467 502h-64l207 493h82l49 -493h-59l-12 131h-150zM926 502h-62l78 493h62l-35 -211h71l144 211h67l-159 -239l88 -254h-68l-78 229h-73zM604 838l-63 -154h125l-15 152
q-6 57 -6 110q-16 -49 -41 -108z" />
    <glyph glyph-name="uni2415" 
d="M82 502h-59l77 493h82l84 -422q4 67 17 146l43 276h59l-78 -493h-80l-84 422q-17 -139 -18 -146zM467 502h-64l207 493h82l49 -493h-59l-12 131h-150zM926 502h-62l78 493h62l-35 -211h71l144 211h67l-159 -239l88 -254h-68l-78 229h-73zM604 838l-63 -154h125l-15 152
q-6 57 -6 110q-16 -49 -41 -108z" />
    <glyph glyph-name="uni2416" unicode="&#x2416;" 
d="M166 496q-72 0 -108 36t-27 99h61q-6 -38 16 -60t66 -22q43 0 71 21.5t34 58.5q9 66 -48 86l-63 20q-47 15 -69.5 51t-16.5 84q9 60 54.5 97t111.5 37q64 0 98 -37t25 -97h-62q6 37 -12 57.5t-57 20.5q-40 0 -65.5 -18.5t-29.5 -52.5q-12 -66 48 -86l63 -23
q47 -15 69.5 -51t14.5 -86q-10 -61 -58 -98t-116 -37zM602 502h-59l28 184l-100 309h61l66 -202q12 -35 12 -48q10 20 27 48l129 202h63l-196 -309zM922 502h-60l78 493h82l84 -422q5 76 16 146l43 276h60l-78 -493h-80l-84 422q-17 -139 -18 -146z" />
    <glyph glyph-name="uni2416" 
d="M166 496q-72 0 -108 36t-27 99h61q-6 -38 16 -60t66 -22q43 0 71 21.5t34 58.5q9 66 -48 86l-63 20q-47 15 -69.5 51t-16.5 84q9 60 54.5 97t111.5 37q64 0 98 -37t25 -97h-62q6 37 -12 57.5t-57 20.5q-40 0 -65.5 -18.5t-29.5 -52.5q-12 -66 48 -86l63 -23
q47 -15 69.5 -51t14.5 -86q-10 -61 -58 -98t-116 -37zM602 502h-59l28 184l-100 309h61l66 -202q12 -35 12 -48q10 20 27 48l129 202h63l-196 -309zM922 502h-60l78 493h82l84 -422q5 76 16 146l43 276h60l-78 -493h-80l-84 422q-17 -139 -18 -146z" />
    <glyph glyph-name="uni2417" unicode="&#x2417;" 
d="M313 502h-284l80 493h282l-8 -55h-223l-25 -154h201l-10 -53h-199l-29 -176h224zM612 940h-135l8 55h332l-10 -55h-135l-70 -438h-59zM1206 868q-12 -84 -92 -106q39 -11 57 -43.5t11 -79.5q-11 -63 -56 -100t-112 -37h-150l78 493h141q67 0 99.5 -34t23.5 -93zM1145 862
q6 37 -13 57.5t-59 20.5h-80l-24 -156h80q38 0 64 21.5t32 56.5zM1122 641q6 40 -15 66t-63 26h-83l-27 -176h82q43 0 71.5 23t34.5 61z" />
    <glyph glyph-name="uni2417" 
d="M313 502h-284l80 493h282l-8 -55h-223l-25 -154h201l-10 -53h-199l-29 -176h224zM612 940h-135l8 55h332l-10 -55h-135l-70 -438h-59zM1206 868q-12 -84 -92 -106q39 -11 57 -43.5t11 -79.5q-11 -63 -56 -100t-112 -37h-150l78 493h141q67 0 99.5 -34t23.5 -93zM1145 862
q6 37 -13 57.5t-59 20.5h-80l-24 -156h80q38 0 64 21.5t32 56.5zM1122 641q6 40 -15 66t-63 26h-83l-27 -176h82q43 0 71.5 23t34.5 61z" />
    <glyph glyph-name="uni2418" unicode="&#x2418;" 
d="M166 496q-68 0 -100.5 37.5t-22.5 103.5l35 223q10 66 55.5 103.5t112.5 37.5t100.5 -38t22.5 -103h-62q7 41 -11 63.5t-58 22.5t-66.5 -22.5t-32.5 -63.5l-35 -223q-7 -41 11.5 -64.5t58.5 -23.5t66 23.5t32 64.5h62q-10 -66 -55.5 -103.5t-112.5 -37.5zM467 502h-64
l207 493h82l49 -493h-59l-12 131h-150zM922 502h-60l78 493h82l84 -422q5 76 16 146l43 276h60l-78 -493h-80l-84 422q-17 -139 -18 -146zM604 838l-63 -154h125l-15 152q-6 57 -6 110q-16 -49 -41 -108z" />
    <glyph glyph-name="uni2418" 
d="M166 496q-68 0 -100.5 37.5t-22.5 103.5l35 223q10 66 55.5 103.5t112.5 37.5t100.5 -38t22.5 -103h-62q7 41 -11 63.5t-58 22.5t-66.5 -22.5t-32.5 -63.5l-35 -223q-7 -41 11.5 -64.5t58.5 -23.5t66 23.5t32 64.5h62q-10 -66 -55.5 -103.5t-112.5 -37.5zM467 502h-64
l207 493h82l49 -493h-59l-12 131h-150zM922 502h-60l78 493h82l84 -422q5 76 16 146l43 276h60l-78 -493h-80l-84 422q-17 -139 -18 -146zM604 838l-63 -154h125l-15 152q-6 57 -6 110q-16 -49 -41 -108z" />
    <glyph glyph-name="uni2419" unicode="&#x2419;" 
d="M524 502h-284l79 493h283l-8 -55h-223l-25 -154h201l-10 -53h-199l-29 -176h223zM700 502h-59l78 493h78l26 -159l11 -76q16 44 32 76l74 159h82l-80 -493h-59l28 178q11 63 66 285l-119 -246h-63l-41 246q-10 -176 -27 -285z" />
    <glyph glyph-name="uni2419" 
d="M524 502h-284l79 493h283l-8 -55h-223l-25 -154h201l-10 -53h-199l-29 -176h223zM700 502h-59l78 493h78l26 -159l11 -76q16 44 32 76l74 159h82l-80 -493h-59l28 178q11 63 66 285l-119 -246h-63l-41 246q-10 -176 -27 -285z" />
    <glyph glyph-name="uni241A" unicode="&#x241a;" 
d="M248 1004q64 0 98 -37t25 -97h-62q6 37 -12 57.5t-57 20.5q-40 0 -65.5 -18.5t-29.5 -52.5q-12 -66 48 -86l63 -23q47 -15 69.5 -51t14.5 -86q-10 -61 -58 -98t-116 -37q-72 0 -108 36t-27 99h61q-6 -38 16 -60t66 -22q43 0 71 21.5t34 58.5q9 66 -48 86l-63 20
q-47 15 -69.5 51t-16.5 84q9 60 54.5 97t111.5 37zM676 637l55 358h62l-58 -358q-11 -67 -53.5 -104t-110.5 -37t-98.5 37t-19.5 104l55 358h61l-57 -358q-6 -41 11 -64.5t57 -23.5q79 0 96 88zM1206 868q-12 -84 -92 -106q39 -11 57 -43.5t11 -79.5q-11 -63 -56 -100
t-112 -37h-150l78 493h141q67 0 99.5 -34t23.5 -93zM1145 862q6 37 -13 57.5t-59 20.5h-80l-24 -156h80q38 0 64 21.5t32 56.5zM1122 641q6 40 -15 66t-63 26h-83l-27 -176h82q43 0 71.5 23t34.5 61z" />
    <glyph glyph-name="uni241A" 
d="M248 1004q64 0 98 -37t25 -97h-62q6 37 -12 57.5t-57 20.5q-40 0 -65.5 -18.5t-29.5 -52.5q-12 -66 48 -86l63 -23q47 -15 69.5 -51t14.5 -86q-10 -61 -58 -98t-116 -37q-72 0 -108 36t-27 99h61q-6 -38 16 -60t66 -22q43 0 71 21.5t34 58.5q9 66 -48 86l-63 20
q-47 15 -69.5 51t-16.5 84q9 60 54.5 97t111.5 37zM676 637l55 358h62l-58 -358q-11 -67 -53.5 -104t-110.5 -37t-98.5 37t-19.5 104l55 358h61l-57 -358q-6 -41 11 -64.5t57 -23.5q79 0 96 88zM1206 868q-12 -84 -92 -106q39 -11 57 -43.5t11 -79.5q-11 -63 -56 -100
t-112 -37h-150l78 493h141q67 0 99.5 -34t23.5 -93zM1145 862q6 37 -13 57.5t-59 20.5h-80l-24 -156h80q38 0 64 21.5t32 56.5zM1122 641q6 40 -15 66t-63 26h-83l-27 -176h82q43 0 71.5 23t34.5 61z" />
    <glyph glyph-name="uni241B" unicode="&#x241b;" 
d="M573 496q-72 0 -108 36t-27 99h62q-6 -38 16 -60t66 -22q43 0 70.5 21.5t33.5 58.5q9 67 -47 86l-64 20q-47 15 -69.5 51t-16.5 84q9 60 54.5 97t111.5 37q64 0 98 -37t25 -97h-61q6 37 -12 57.5t-58 20.5t-65 -18.5t-29 -52.5q-12 -67 47 -86l64 -23q47 -15 69.5 -51
t14.5 -86q-10 -61 -58.5 -98t-116.5 -37zM1006 496q-68 0 -100.5 37.5t-22.5 103.5l35 223q10 66 55.5 103.5t111.5 37.5q67 0 100.5 -38t22.5 -103h-61q7 41 -11.5 63.5t-58.5 22.5t-66 -22.5t-32 -63.5l-35 -223q-7 -41 11.5 -64.5t58.5 -23.5t66 23.5t32 64.5h62
q-10 -66 -55.5 -103.5t-112.5 -37.5zM313 502h-284l80 493h282l-8 -55h-223l-25 -154h201l-10 -53h-199l-29 -176h224z" />
    <glyph glyph-name="uni241B" 
d="M573 496q-72 0 -108 36t-27 99h62q-6 -38 16 -60t66 -22q43 0 70.5 21.5t33.5 58.5q9 67 -47 86l-64 20q-47 15 -69.5 51t-16.5 84q9 60 54.5 97t111.5 37q64 0 98 -37t25 -97h-61q6 37 -12 57.5t-58 20.5t-65 -18.5t-29 -52.5q-12 -67 47 -86l64 -23q47 -15 69.5 -51
t14.5 -86q-10 -61 -58.5 -98t-116.5 -37zM1006 496q-68 0 -100.5 37.5t-22.5 103.5l35 223q10 66 55.5 103.5t111.5 37.5q67 0 100.5 -38t22.5 -103h-61q7 41 -11.5 63.5t-58.5 22.5t-66 -22.5t-32 -63.5l-35 -223q-7 -41 11.5 -64.5t58.5 -23.5t66 23.5t32 64.5h62
q-10 -66 -55.5 -103.5t-112.5 -37.5zM313 502h-284l80 493h282l-8 -55h-223l-25 -154h201l-10 -53h-199l-29 -176h224z" />
    <glyph glyph-name="uni241C" unicode="&#x241c;" 
d="M793 496q-72 0 -108.5 36t-27.5 99h62q-6 -38 16 -60t66 -22q43 0 70.5 21.5t33.5 58.5q9 67 -47 86l-63 20q-47 15 -69.5 51t-16.5 84q9 60 54 97t111 37q64 0 98 -37t25 -97h-61q6 37 -12 57.5t-58 20.5t-65 -18.5t-29 -52.5q-12 -67 47 -86l64 -23q47 -15 69.5 -51
t14.5 -86q-10 -61 -58 -98t-116 -37zM299 502h-61l77 493h291l-8 -55h-231l-27 -164h213l-8 -55h-213z" />
    <glyph glyph-name="uni241C" 
d="M793 496q-72 0 -108.5 36t-27.5 99h62q-6 -38 16 -60t66 -22q43 0 70.5 21.5t33.5 58.5q9 67 -47 86l-63 20q-47 15 -69.5 51t-16.5 84q9 60 54 97t111 37q64 0 98 -37t25 -97h-61q6 37 -12 57.5t-58 20.5t-65 -18.5t-29 -52.5q-12 -67 47 -86l64 -23q47 -15 69.5 -51
t14.5 -86q-10 -61 -58 -98t-116 -37zM299 502h-61l77 493h291l-8 -55h-231l-27 -164h213l-8 -55h-213z" />
    <glyph glyph-name="uni241D" unicode="&#x241d;" 
d="M793 496q-72 0 -108.5 36t-27.5 99h62q-6 -38 16 -60t66 -22q43 0 70.5 21.5t33.5 58.5q9 67 -47 86l-63 20q-47 15 -69.5 51t-16.5 84q9 60 54 97t111 37q64 0 98 -37t25 -97h-61q6 37 -12 57.5t-58 20.5t-65 -18.5t-29 -52.5q-12 -67 47 -86l64 -23q47 -15 69.5 -51
t14.5 -86q-10 -61 -58 -98t-116 -37zM377 496q-68 0 -100.5 37.5t-22.5 103.5l35 223q10 66 55.5 103.5t112.5 37.5t100.5 -38t22.5 -103h-62q7 41 -11 63.5t-58 22.5t-66.5 -22.5t-32.5 -63.5l-35 -223q-7 -41 11.5 -64.5t58.5 -23.5t66 23.5t32 64.5l11 61h-101l8 56h162
l-18 -117q-10 -66 -55.5 -103.5t-112.5 -37.5z" />
    <glyph glyph-name="uni241D" 
d="M793 496q-72 0 -108.5 36t-27.5 99h62q-6 -38 16 -60t66 -22q43 0 70.5 21.5t33.5 58.5q9 67 -47 86l-63 20q-47 15 -69.5 51t-16.5 84q9 60 54 97t111 37q64 0 98 -37t25 -97h-61q6 37 -12 57.5t-58 20.5t-65 -18.5t-29 -52.5q-12 -67 47 -86l64 -23q47 -15 69.5 -51
t14.5 -86q-10 -61 -58 -98t-116 -37zM377 496q-68 0 -100.5 37.5t-22.5 103.5l35 223q10 66 55.5 103.5t112.5 37.5t100.5 -38t22.5 -103h-62q7 41 -11 63.5t-58 22.5t-66.5 -22.5t-32.5 -63.5l-35 -223q-7 -41 11.5 -64.5t58.5 -23.5t66 23.5t32 64.5l11 61h-101l8 56h162
l-18 -117q-10 -66 -55.5 -103.5t-112.5 -37.5z" />
    <glyph glyph-name="uni241E" unicode="&#x241e;" 
d="M997 870h-61q6 37 -12 57.5t-58 20.5t-65 -18.5t-29 -52.5q-12 -67 47 -86l64 -23q47 -15 69.5 -51t14.5 -86q-10 -61 -58 -98t-116 -37q-72 0 -108.5 36t-27.5 99h62q-6 -38 16 -60t66 -22q43 0 70.5 21.5t33.5 58.5q9 67 -47 86l-63 20q-47 15 -69.5 51t-16.5 84
q9 60 54 97t111 37q64 0 98 -37t25 -97zM313 995h154q66 0 100 -39t23 -102q-7 -52 -40 -87.5t-81 -47.5l72 -217h-68l-65 209h-78l-33 -209h-61zM526 854q8 38 -11.5 62t-57.5 24h-90l-29 -174h92q38 0 64 24t32 64z" />
    <glyph glyph-name="uni241E" 
d="M997 870h-61q6 37 -12 57.5t-58 20.5t-65 -18.5t-29 -52.5q-12 -67 47 -86l64 -23q47 -15 69.5 -51t14.5 -86q-10 -61 -58 -98t-116 -37q-72 0 -108.5 36t-27.5 99h62q-6 -38 16 -60t66 -22q43 0 70.5 21.5t33.5 58.5q9 67 -47 86l-63 20q-47 15 -69.5 51t-16.5 84
q9 60 54 97t111 37q64 0 98 -37t25 -97zM313 995h154q66 0 100 -39t23 -102q-7 -52 -40 -87.5t-81 -47.5l72 -217h-68l-65 209h-78l-33 -209h-61zM526 854q8 38 -11.5 62t-57.5 24h-90l-29 -174h92q38 0 64 24t32 64z" />
    <glyph glyph-name="uni241F" unicode="&#x241f;" 
d="M793 496q-72 0 -108.5 36t-27.5 99h62q-6 -38 16 -60t66 -22q43 0 70.5 21.5t33.5 58.5q9 67 -47 86l-63 20q-47 15 -69.5 51t-16.5 84q9 60 54 97t111 37q64 0 98 -37t25 -97h-61q6 37 -12 57.5t-58 20.5t-65 -18.5t-29 -52.5q-12 -67 47 -86l64 -23q47 -15 69.5 -51
t14.5 -86q-10 -61 -58 -98t-116 -37zM375 496q-68 0 -99 37t-20 104l55 358h62l-58 -358q-6 -41 11 -64.5t57 -23.5q79 0 96 88l56 358h61l-57 -358q-11 -67 -53.5 -104t-110.5 -37z" />
    <glyph glyph-name="uni241F" 
d="M793 496q-72 0 -108.5 36t-27.5 99h62q-6 -38 16 -60t66 -22q43 0 70.5 21.5t33.5 58.5q9 67 -47 86l-63 20q-47 15 -69.5 51t-16.5 84q9 60 54 97t111 37q64 0 98 -37t25 -97h-61q6 37 -12 57.5t-58 20.5t-65 -18.5t-29 -52.5q-12 -67 47 -86l64 -23q47 -15 69.5 -51
t14.5 -86q-10 -61 -58 -98t-116 -37zM375 496q-68 0 -99 37t-20 104l55 358h62l-58 -358q-6 -41 11 -64.5t57 -23.5q79 0 96 88l56 358h61l-57 -358q-11 -67 -53.5 -104t-110.5 -37z" />
    <glyph glyph-name="space" unicode=" " horiz-adv-x="819" 
 />
    <glyph glyph-name="exclam" unicode="!" horiz-adv-x="819" 
d="M455 440h-131l86 809l39 246h217l-39 -246zM348 -10h-61q-54 0 -83 34.5t-20 88.5q7 54 47.5 88.5t94.5 34.5h61q57 0 85 -33.5t20 -87.5q-9 -54 -49.5 -89.5t-94.5 -35.5z" />
    <glyph glyph-name="quotedbl" unicode="&#x22;" horiz-adv-x="819" 
d="M328 881h-152l43 430l31 184h199l-31 -184zM743 881h-151l43 430l31 184h198l-30 -184z" />
    <glyph glyph-name="numbersign" unicode="#" 
d="M227 0h-149l141 410h-172l21 133h196l139 409h-198l20 133h224l141 410h149l-141 -410h320l141 410h149l-141 -410h172l-20 -133h-197l-139 -409h198l-20 -133h-223l-142 -410h-149l141 410h-319zM553 952l-139 -409h319l139 409h-319z" />
    <glyph glyph-name="dollar" unicode="$" 
d="M1149 1116h-184q15 96 -25.5 156.5t-130.5 75.5l-80 -508l78 -27q141 -47 206 -159.5t40 -264.5q-26 -168 -151 -278t-308 -129l-43 -269h-123l43 269q-192 15 -284.5 122.5t-67.5 284.5h184q-15 -101 35.5 -165t157.5 -77l86 537l-54 16q-145 47 -211 156.5t-43 261.5
q26 164 145 270t294 123l43 271h123l-43 -269q168 -17 253 -124t60 -273zM463 1135q-14 -93 24 -160t125 -96l74 469q-92 -14 -151 -69.5t-72 -143.5zM868 385q14 90 -24.5 157.5t-122.5 94.5l-23 8l-80 -498q103 15 169 77.5t81 160.5z" />
    <glyph glyph-name="percent" unicode="%" 
d="M356 819q-130 0 -194.5 74.5t-44.5 202.5l20 133q20 128 109 202t219 74t196 -74t46 -202l-21 -133q-20 -128 -110 -202.5t-220 -74.5zM94 0h-155l1253 1495h156zM379 958q135 0 156 138l20 133q21 137 -111 137q-134 0 -155 -137l-21 -133q-21 -138 111 -138zM819 -10
q-130 0 -194.5 74t-44.5 202l20 133q20 128 109 202.5t219 74.5t195.5 -74.5t45.5 -202.5l-20 -133q-20 -128 -110 -202t-220 -74zM842 131q134 0 155 135l21 133q21 138 -113 138q-132 0 -153 -138l-21 -133q-11 -69 16.5 -102t94.5 -33z" />
    <glyph glyph-name="ampersand" unicode="&#x26;" 
d="M377 -20q-168 0 -248.5 89.5t-54.5 247.5l39 256q17 107 86 182.5t178 106.5l-12 21q-95 166 -72 307q23 147 138.5 236.5t281.5 89.5q178 0 267.5 -95t63.5 -256h-184q13 89 -32.5 140t-139.5 51q-85 0 -142 -46t-69 -124q-19 -108 45 -223l277 -486l186 260h193
l-297 -407l188 -330h-203l-100 178q-183 -198 -389 -198zM414 143q69 0 141.5 46t130.5 128l-235 416q-132 -22 -154 -160l-39 -256q-13 -83 27.5 -128.5t128.5 -45.5z" />
    <glyph glyph-name="quotesingle" unicode="'" horiz-adv-x="409" 
d="M330 881h-152l25 307l49 307h199l-50 -307z" />
    <glyph glyph-name="parenleft" unicode="(" horiz-adv-x="819" 
d="M639 -74l-29 -182q-279 72 -407.5 283t-79.5 516l61 389q47 299 247 513.5t495 285.5l-29 -175q-203 -46 -346.5 -214.5t-181.5 -409.5l-62 -389q-38 -238 51.5 -404.5t280.5 -212.5z" />
    <glyph glyph-name="parenright" unicode=")" horiz-adv-x="819" 
d="M-53 -256l28 182q205 46 348 212.5t181 404.5l61 389q38 241 -51.5 409.5t-280.5 214.5l29 175q274 -70 404.5 -285t83.5 -514l-62 -389q-50 -306 -244.5 -516.5t-496.5 -282.5z" />
    <glyph glyph-name="asterisk" unicode="*" 
d="M449 352l-136 -159l-131 102l135 160q82 95 238 207l-4 14q-176 14 -272 51l-170 66l88 170l170 -66q106 -40 229 -145l12 8q-20 189 -4 295l31 194h180l-31 -194q-17 -115 -100 -295l8 -8q163 106 275 145l192 66l35 -170l-193 -66q-107 -38 -286 -51l-10 -17
q115 -106 169 -204l89 -160l-164 -102l-88 159q-53 96 -80 262h-15q-88 -166 -167 -262z" />
    <glyph glyph-name="plus" unicode="+" 
d="M645 195h-180l63 399h-391l27 164h391l61 399h181l-62 -399h391l-26 -164h-391z" />
    <glyph glyph-name="comma" unicode="," horiz-adv-x="819" 
d="M236 -328h-173l265 637h274z" />
    <glyph glyph-name="hyphen" unicode="-" 
d="M946 594h-655l26 164h656z" />
    <glyph glyph-name="period" unicode="." horiz-adv-x="819" 
d="M317 -20q-78 0 -116.5 44.5t-26.5 120.5q12 79 66.5 126.5t132.5 47.5t115.5 -47t25.5 -127q-12 -76 -65.5 -120.5t-131.5 -44.5z" />
    <glyph glyph-name="slash" unicode="/" 
d="M227 -225h-198l1026 1925h198z" />
    <glyph glyph-name="zero" unicode="0" 
d="M520 -20q-207 0 -310 119.5t-71 320.5l105 655q32 202 173 321.5t347 119.5q207 0 310 -120t71 -321l-105 -655q-32 -200 -173.5 -320t-346.5 -120zM547 137q122 0 208.5 78.5t106.5 204.5l105 655q20 125 -43 204t-185 79t-209.5 -79t-107.5 -204l-105 -655
q-20 -125 43.5 -204t186.5 -79zM643 627q-55 0 -89 35t-34 92q0 56 34 89.5t89 33.5t89 -33.5t34 -89.5q0 -57 -34 -92t-89 -35z" />
    <glyph glyph-name="one" unicode="1" 
d="M1016 0h-922l27 168h405l187 1173l-455 -303l33 205l379 252h252l-211 -1327h331z" />
    <glyph glyph-name="two" unicode="2" 
d="M987 0h-889l29 182l559 520q126 117 188.5 206.5t75.5 174.5q19 124 -41 196.5t-182 72.5q-125 0 -210 -75t-105 -202h-185q38 202 180 321.5t345 119.5q207 0 310.5 -117.5t72.5 -317.5q-18 -111 -96 -228.5t-236 -262.5l-463 -422h674z" />
    <glyph glyph-name="three" unicode="3" 
d="M352 1495h793l-29 -172l-409 -383q181 -13 269.5 -128t59.5 -300l-16 -102q-31 -198 -171.5 -314t-350.5 -116q-202 0 -306 118t-73 312h184q-20 -125 39.5 -196t183.5 -71t206.5 72.5t103.5 194.5l16 102q20 126 -39.5 196t-185.5 70h-162l27 160l417 389h-583z" />
    <glyph glyph-name="four" unicode="4" 
d="M913 0h-184l51 328h-676l48 288l684 879h202l-710 -922l-13 -77h492l59 364h185z" />
    <glyph glyph-name="five" unicode="5" 
d="M1122 1327h-608l-86 -498h8q31 72 110 113t189 41q181 1 265 -112t53 -316l-23 -145q-31 -199 -167.5 -314.5t-346.5 -115.5q-182 0 -284 93.5t-97 254.5h184q-3 -89 55 -137t171 -48q128 0 204.5 69t96.5 198l22 145q20 129 -33.5 197.5t-179.5 68.5q-79 0 -145.5 -41.5
t-103.5 -111.5h-185l141 827h787z" />
    <glyph glyph-name="six" unicode="6" 
d="M524 -20q-218 0 -330.5 131.5t-78.5 345.5q28 186 196 417l457 621h203l-514 -690l6 -6q46 56 119.5 88.5t160.5 32.5q185 0 278.5 -125.5t61.5 -329.5q-35 -218 -188.5 -351.5t-370.5 -133.5zM549 143q133 0 229 87.5t119 230.5q23 142 -45.5 229.5t-202.5 87.5
t-230.5 -87.5t-119.5 -229.5t46.5 -230t203.5 -88z" />
    <glyph glyph-name="seven" unicode="7" 
d="M508 0h-207l741 1327h-573l-39 -242h-184l65 410h953l-29 -172z" />
    <glyph glyph-name="eight" unicode="8" 
d="M1149 1135q-15 -103 -97 -194.5t-223 -158.5q127 -62 190.5 -171t43.5 -236q-28 -176 -177.5 -285.5t-365.5 -109.5t-330 109.5t-86 285.5q20 127 117 236t244 171q-121 63 -174 155t-35 198q28 167 171 275t337 108t303.5 -108t81.5 -275zM969 1128q15 100 -49.5 163
t-182.5 63t-202 -63.5t-99 -162.5q-13 -83 32.5 -151.5t133.5 -102.5l55 -22l56 20q103 37 173 106t83 150zM885 399q15 91 -29 164t-137 111l-84 35l-98 -37q-103 -38 -169.5 -111t-80.5 -162q-17 -116 54 -186t206 -70t228 70.5t110 185.5z" />
    <glyph glyph-name="nine" unicode="9" 
d="M528 0h-213l510 690l-6 6q-100 -121 -272 -121q-185 0 -278.5 125.5t-61.5 329.5q34 218 187 352t370 134q218 0 331 -132t79 -346q-28 -185 -197 -417zM639 717q134 0 230.5 87.5t119.5 229.5t-45.5 230t-202.5 88t-230.5 -88t-119.5 -230t45.5 -229.5t202.5 -87.5z" />
    <glyph glyph-name="colon" unicode=":" horiz-adv-x="819" 
d="M453 840q-76 0 -116.5 42t-29.5 111q10 69 64 111.5t131 42.5q76 0 116 -42.5t29 -111.5q-10 -69 -63.5 -111t-130.5 -42zM315 -20q-76 0 -116 42t-29 111q10 69 64 111.5t131 42.5q76 0 116 -42.5t29 -111.5q-10 -69 -64 -111t-131 -42z" />
    <glyph glyph-name="semicolon" unicode=";" horiz-adv-x="819" 
d="M473 840h-41q-67 0 -103.5 42.5t-25.5 110.5q11 66 61.5 110t116.5 44h41q66 0 103 -44t26 -110q-10 -67 -60 -110t-118 -43zM166 -328h-164l264 637h266z" />
    <glyph glyph-name="less" unicode="&#x3c;" 
d="M1016 305l-31 -172l-811 440l33 205l950 441l-29 -191l-684 -311q-79 -36 -129 -49q53 -14 115 -50z" />
    <glyph glyph-name="equal" unicode="=" 
d="M1098 840h-881l27 164h880zM1020 348h-881l27 164h881z" />
    <glyph glyph-name="greater" unicode="&#x3e;" 
d="M1055 573l-951 -440l29 186l684 312q82 37 131 49q-51 12 -114 49l-586 313l28 177l811 -441z" />
    <glyph glyph-name="question" unicode="?" 
d="M592 420h-184l59 368h102q130 0 219 72.5t109 194.5q19 122 -47.5 194t-198.5 72h-256l29 174h256q215 0 323.5 -119.5t77.5 -320.5q-29 -177 -155 -294t-299 -126zM461 -10h-62q-54 0 -82.5 34.5t-19.5 88.5q7 54 47 88.5t94 34.5h62q57 0 84.5 -33.5t19.5 -87.5
q-9 -54 -49 -89.5t-94 -35.5z" />
    <glyph glyph-name="at" unicode="@" 
d="M795 1516q233 0 346 -134.5t76 -367.5l-140 -881h-159l22 133h-6q-19 -70 -83.5 -111.5t-156.5 -41.5q-134 0 -192 81t-33 236l39 246q25 155 108.5 236t217.5 81q91 0 142 -41t48 -112h8l21 164v10q28 173 -44.5 265.5t-236.5 92.5q-185 0 -306 -118t-155 -332
l-110 -697q-32 -204 59 -322t281 -118h143l-25 -154h-143q-262 0 -392 161t-87 433l110 697q44 277 217 435.5t431 158.5zM965 451l34 227q15 97 -16.5 141.5t-116.5 44.5q-84 0 -131.5 -46t-62.5 -142l-39 -246q-15 -96 18 -142t117 -46t132 51t65 158z" />
    <glyph glyph-name="A" unicode="A" 
d="M207 0h-195l627 1495h248l149 -1495h-180l-35 397h-452zM618 1016l-188 -463h377l-43 461q-21 228 -21 334q-40 -122 -125 -332z" />
    <glyph glyph-name="B" unicode="B" 
d="M1137 1108q-20 -122 -92.5 -205.5t-184.5 -114.5q118 -32 171 -130t30 -242q-31 -192 -166.5 -304t-339.5 -112h-455l238 1495h424q204 0 303.5 -102.5t71.5 -284.5zM952 1094q17 109 -41 172t-176 63h-243l-76 -471h241q118 0 197 63.5t98 172.5zM881 422
q19 124 -44.5 200t-191.5 76h-254l-84 -532h254q129 0 214.5 68.5t105.5 187.5z" />
    <glyph glyph-name="C" unicode="C" 
d="M528 -20q-205 0 -304.5 115t-67.5 315l106 675q32 201 169 316t341 115q201 0 301.5 -116.5t69.5 -314.5h-185q20 127 -36 196t-177 69q-122 0 -200.5 -68.5t-98.5 -194.5l-106 -677q-20 -127 36.5 -196t178.5 -69q121 0 199 69t98 196h184q-32 -198 -169.5 -314
t-338.5 -116z" />
    <glyph glyph-name="D" unicode="D" 
d="M485 0h-387l238 1495h387q216 0 324.5 -122t76.5 -326l-94 -596q-32 -206 -180 -328.5t-365 -122.5zM494 1331l-185 -1167h203q135 0 223.5 76t110.5 211l94 596q22 133 -43.5 208.5t-200.5 75.5h-202z" />
    <glyph glyph-name="E" unicode="E" 
d="M975 0h-860l237 1495h860l-26 -168h-678l-74 -463h606l-26 -166h-606l-84 -530h677z" />
    <glyph glyph-name="F" unicode="F" 
d="M289 0h-185l238 1495h881l-27 -168h-700l-80 -496h647l-27 -167h-643z" />
    <glyph glyph-name="G" unicode="G" 
d="M528 -20q-205 0 -304.5 115t-67.5 315l106 675q32 201 169 316t341 115q201 0 301.5 -116.5t69.5 -314.5h-185q20 127 -36 196t-177 69q-122 0 -200.5 -68.5t-98.5 -194.5l-106 -677q-20 -127 36.5 -197t178.5 -70q120 0 198.5 70t98.5 197l29 184h-303l26 168h488
l-56 -352q-31 -197 -168.5 -313.5t-339.5 -116.5z" />
    <glyph glyph-name="H" unicode="H" 
d="M285 0h-185l238 1495h184l-102 -639h479l102 639h185l-238 -1495h-184l108 688h-479z" />
    <glyph glyph-name="I" unicode="I" 
d="M924 0h-799l27 168h305l184 1159h-305l26 168h799l-26 -168h-306l-184 -1159h305z" />
    <glyph glyph-name="J" unicode="J" 
d="M459 -20q-215 0 -318 120t-71 330h184q-22 -136 39 -211.5t192 -75.5t215.5 75.5t106.5 211.5l143 897h-420l27 168h604l-170 -1065q-34 -215 -172.5 -332.5t-359.5 -117.5z" />
    <glyph glyph-name="K" unicode="K" 
d="M283 0h-185l238 1495h184l-102 -641h217l434 641h205l-486 -725l269 -770h-205l-238 692h-221z" />
    <glyph glyph-name="L" unicode="L" 
d="M1047 0h-861l238 1495h184l-211 -1327h676z" />
    <glyph glyph-name="M" unicode="M" 
d="M246 0h-180l237 1495h238l77 -483q18 -116 33 -230q35 92 99 232l225 481h246l-238 -1495h-180l86 543q50 312 198 860l-358 -748h-194l-127 748q-19 -506 -76 -860z" />
    <glyph glyph-name="N" unicode="N" 
d="M272 0h-178l238 1495h243l256 -1280q13 219 50 440l133 840h178l-238 -1495h-243l-254 1280q-21 -258 -51 -440z" />
    <glyph glyph-name="O" unicode="O" 
d="M520 -20q-201 0 -298.5 114.5t-65.5 315.5l106 675q32 201 166.5 316t335.5 115t299 -114.5t67 -314.5l-106 -677q-32 -200 -167 -315t-337 -115zM547 145q120 0 196.5 69t96.5 196l106 675q20 127 -34.5 196t-174.5 69t-195.5 -68.5t-95.5 -196.5l-106 -675
q-20 -128 33.5 -196.5t173.5 -68.5z" />
    <glyph glyph-name="P" unicode="P" 
d="M283 0h-185l238 1495h481q209 0 313.5 -119.5t73.5 -320.5q-32 -201 -174.5 -321t-351.5 -120h-297zM494 1329l-88 -549h296q122 0 207 74.5t105 200.5t-40.5 200t-182.5 74h-297z" />
    <glyph glyph-name="Q" unicode="Q" 
d="M764 1516q207 0 310 -120t71 -321l-105 -655q-23 -140 -99 -243t-193 -152l174 -394h-201l-156 353q-28 -4 -45 -4q-207 0 -310 119.5t-71 320.5l105 655q32 202 173 321.5t347 119.5zM856 420l105 655q20 126 -40.5 201.5t-181.5 75.5t-206 -75.5t-105 -201.5l-104 -655
q-20 -126 40.5 -201.5t182.5 -75.5q121 0 205 75.5t104 201.5z" />
    <glyph glyph-name="R" unicode="R" 
d="M336 1495h463q199 0 302.5 -119t72.5 -311q-23 -154 -120 -263t-243 -149l215 -653h-209l-194 635h-240l-100 -635h-185zM983 1065q20 119 -38 191.5t-173 72.5h-278l-84 -528h278q115 0 195.5 72t99.5 192z" />
    <glyph glyph-name="S" unicode="S" 
d="M528 -20q-219 0 -328 109t-81 300h184q-19 -114 47.5 -179t204.5 -65q129 0 211.5 63.5t101.5 176.5q14 96 -24 164t-119 94l-193 64q-143 46 -211.5 154.5t-46.5 256.5q29 181 166 290.5t336 109.5q196 0 297.5 -110t75.5 -292h-184q19 111 -37.5 173.5t-177.5 62.5
q-120 0 -196 -58t-91 -159q-15 -96 23 -165.5t122 -97.5l195 -65q141 -47 207 -158t43 -260q-29 -184 -174 -296.5t-351 -112.5z" />
    <glyph glyph-name="T" unicode="T" 
d="M616 0h-184l211 1327h-410l27 168h1004l-27 -168h-410z" />
    <glyph glyph-name="U" unicode="U" 
d="M520 -20q-207 0 -300 114t-60 316l172 1085h184l-172 -1085q-21 -126 30 -196.5t173 -70.5q121 0 194.5 70.5t94.5 196.5l172 1085h184l-172 -1085q-33 -203 -162 -316.5t-338 -113.5z" />
    <glyph glyph-name="V" unicode="V" 
d="M649 0h-252l-147 1495h186l92 -1016q21 -247 21 -336q40 136 121 336l413 1016h191z" />
    <glyph glyph-name="W" unicode="W" 
d="M365 0h-232l66 1495h172l-64 -1106q-13 -189 -22 -256q5 17 28 110.5t39 145.5l316 1106h194l-49 -1106q-10 -232 -12 -256q62 252 63 256l293 1106h168l-414 -1495h-231l51 1126q6 147 14 240q-4 -15 -26.5 -101t-38.5 -139z" />
    <glyph glyph-name="X" unicode="X" 
d="M205 0h-213l549 762l-289 733h205l161 -442q10 -30 52 -138q52 90 86 138l305 442h211l-520 -729l305 -766h-203l-182 475q-36 95 -47 139q-47 -77 -88 -137z" />
    <glyph glyph-name="Y" unicode="Y" 
d="M616 0h-184l88 559l-301 936h187l198 -614q33 -97 37 -140q32 64 80 140l389 614h195l-600 -936z" />
    <glyph glyph-name="Z" unicode="Z" 
d="M965 0h-881l29 184l850 1143h-658l27 168h850l-31 -184l-848 -1143h688z" />
    <glyph glyph-name="bracketleft" unicode="[" horiz-adv-x="819" 
d="M537 -225h-502l303 1925h502l-25 -164h-317l-254 -1597h317z" />
    <glyph glyph-name="backslash" unicode="\" 
d="M950 -225h-184l-434 1925h184z" />
    <glyph glyph-name="bracketright" unicode="]" horiz-adv-x="819" 
d="M537 -225h-502l24 164h318l254 1597h-318l25 164h502z" />
    <glyph glyph-name="asciicircum" unicode="^" 
d="M356 696h-172l494 799h172l235 -799h-159l-146 529q-23 88 -30 137q-39 -81 -74 -137z" />
    <glyph glyph-name="underscore" unicode="_" 
d="M983 -205h-983l25 154h983z" />
    <glyph glyph-name="grave" unicode="`" 
d="M883 1321h-183l-190 287h192z" />
    <glyph glyph-name="a" unicode="a" 
d="M915 911l31 215h184l-178 -1126h-184l35 215h-4q-31 -110 -122.5 -172.5t-219.5 -62.5q-169 0 -250.5 112t-50.5 305l51 330q31 195 148 307.5t288 112.5q126 0 197.5 -63.5t68.5 -172.5h6zM834 410l47 307q20 127 -34 198.5t-169 71.5q-118 0 -193.5 -70t-95.5 -200
l-47 -307q-20 -130 33 -200.5t170 -70.5q114 0 191.5 72t97.5 199z" />
    <glyph glyph-name="b" unicode="b" 
d="M772 1147q170 0 251 -112.5t50 -307.5l-51 -330q-31 -193 -149 -305t-287 -112q-128 0 -199 62.5t-68 172.5h-2l-34 -215h-185l238 1495h184l-53 -328l-45 -256h8q31 109 123.5 172.5t218.5 63.5zM840 410l47 307q22 130 -31.5 200t-171.5 70q-114 0 -190.5 -71.5
t-98.5 -198.5l-47 -307q-20 -127 34.5 -199t168.5 -72q117 0 192 70.5t97 200.5z" />
    <glyph glyph-name="c" unicode="c" 
d="M528 -20q-205 0 -304.5 115t-67.5 315l47 307q32 200 169.5 315t342.5 115q195 0 297 -104.5t80 -284.5h-185q10 107 -47.5 166t-171.5 59q-122 0 -200.5 -69t-98.5 -195l-49 -309q-20 -127 36.5 -197t178.5 -70q114 0 190 59.5t101 166.5h184q-35 -180 -171 -284.5
t-331 -104.5z" />
    <glyph glyph-name="d" unicode="d" 
d="M952 1167l54 328h184l-238 -1495h-184l35 215h-4q-31 -110 -122.5 -172.5t-219.5 -62.5q-169 0 -250.5 112t-50.5 305l51 330q31 195 148 307.5t288 112.5q126 0 197.5 -63.5t68.5 -172.5h6zM834 410l47 307q22 127 -33 198.5t-170 71.5q-117 0 -192 -70t-97 -200
l-47 -307q-22 -130 31.5 -200.5t171.5 -70.5q114 0 191.5 72t97.5 199z" />
    <glyph glyph-name="e" unicode="e" 
d="M707 1147q199 0 297.5 -117t66.5 -313l-31 -199h-688l-16 -108q-22 -134 31 -204.5t178 -70.5q214 0 270 152h184q-40 -141 -170 -224t-309 -83q-199 0 -297 117t-67 313l47 307q32 196 168.5 313t335.5 117zM883 657l8 60q22 134 -31 205t-178 71t-201 -71t-98 -205
l-8 -60h508z" />
    <glyph glyph-name="f" unicode="f" horiz-adv-x="1024" 
d="M23 -369h-109l27 168h110q86 0 132.5 39t60.5 121l145 887h-246l27 168h246l24 153q25 153 133 240.5t273 87.5h229l-26 -168h-232q-169 0 -192 -160l-25 -153h399l-26 -168h-400l-145 -887q-25 -153 -132.5 -240.5t-272.5 -87.5z" />
    <glyph glyph-name="g" unicode="g" 
d="M913 911l35 215h182l-184 -1167q-25 -153 -132.5 -240.5t-272.5 -87.5h-357l27 168h358q86 0 132.5 39t60.5 121l22 143l37 205h-4q-28 -109 -118 -172t-218 -63q-173 0 -256.5 113t-52.5 307l37 237q31 192 150 305t292 113q127 0 197.5 -63.5t64.5 -172.5zM850 502
l33 215q22 127 -33 198.5t-170 71.5q-117 0 -192 -70t-97 -200l-33 -215q-22 -130 31.5 -200.5t171.5 -70.5q114 0 191.5 72t97.5 199z" />
    <glyph glyph-name="h" unicode="h" 
d="M766 1147q169 0 253 -105t56 -284l-121 -758h-184l117 737q19 119 -34.5 186.5t-164.5 67.5q-116 0 -193.5 -72t-99.5 -202l-112 -717h-185l238 1495h184l-59 -369l-35 -215h4q31 112 119 174t217 62z" />
    <glyph glyph-name="i" unicode="i" horiz-adv-x="1024" 
d="M664 1329q-67 0 -100.5 34.5t-24.5 94.5q9 61 53.5 97t112.5 36q67 0 100 -35.5t24 -97.5q-9 -60 -53 -94.5t-112 -34.5zM831 0h-757l26 168h297l125 790h-254l27 168h438l-151 -958h276z" />
    <glyph glyph-name="j" unicode="j" horiz-adv-x="819" 
d="M649 1329q-67 0 -100.5 34.5t-24.5 94.5q9 61 53.5 97t112.5 36q67 0 100.5 -35.5t24.5 -97.5q-9 -60 -53.5 -94.5t-112.5 -34.5zM29 -369h-131l28 170h131q128 0 209 68t101 194l141 895h-338l27 168h522l-168 -1063q-31 -198 -173 -315t-349 -117z" />
    <glyph glyph-name="k" unicode="k" 
d="M289 0h-185l238 1495h184l-133 -833h193l401 464h215l-463 -542l291 -584h-211l-248 502h-202z" />
    <glyph glyph-name="l" unicode="l" horiz-adv-x="819" 
d="M672 0h-174q-149 0 -224.5 86t-52.5 231l160 1010h-236l27 168h420l-186 -1178q-11 -69 20.5 -109t97.5 -40h174z" />
    <glyph glyph-name="m" unicode="m" horiz-adv-x="1638" 
d="M1249 1147q140 0 205.5 -79.5t44.5 -211.5l-137 -856h-184l137 858q10 70 -31.5 109t-122.5 39q-83 0 -140 -39t-67 -107l-137 -860h-172l137 858q10 70 -32 109t-125 39q-80 0 -136.5 -39t-66.5 -107l-137 -860h-185l181 1126h174l-23 -135h12q31 71 107.5 113.5
t173.5 42.5q93 0 150.5 -41t76.5 -115h11q32 70 110.5 113t175.5 43z" />
    <glyph glyph-name="n" unicode="n" 
d="M766 1147q169 0 253 -105t56 -284l-121 -758h-184l117 737q19 119 -34.5 186.5t-164.5 67.5q-116 0 -193.5 -72t-99.5 -202l-112 -717h-185l178 1126h185l-35 -215h4q31 112 119 174t217 62z" />
    <glyph glyph-name="o" unicode="o" 
d="M520 -20q-201 0 -298.5 114.5t-65.5 315.5l47 307q32 200 167 315t337 115q201 0 299 -114.5t67 -313.5l-49 -309q-32 -200 -167 -315t-337 -115zM547 143q120 0 195.5 68.5t97.5 198.5l47 307q22 130 -32 198t-175 68q-120 0 -195.5 -68t-97.5 -198l-47 -307
q-22 -130 32 -198.5t175 -68.5z" />
    <glyph glyph-name="p" unicode="p" 
d="M774 1147q169 0 249.5 -112.5t49.5 -305.5l-51 -330q-31 -195 -147.5 -307t-286.5 -112q-126 0 -199 63.5t-70 171.5h-6l-37 -256l-53 -328h-184l237 1495h185l-35 -215h4q31 110 123.5 173t220.5 63zM840 410l47 307q22 130 -31 200t-170 70q-114 0 -191.5 -71.5
t-99.5 -198.5l-47 -307q-20 -127 35 -199t170 -72q117 0 191 70t96 201z" />
    <glyph glyph-name="q" unicode="q" 
d="M909 911l35 215h184l-237 -1495h-184l53 328l45 256h-8q-31 -108 -123.5 -171.5t-218.5 -63.5q-170 0 -251 112t-50 307l51 330q31 193 149 305.5t287 112.5q127 0 198 -63t68 -173h2zM831 410l48 307q22 127 -33 198.5t-170 71.5q-117 0 -192 -70t-97 -200l-47 -307
q-22 -130 31.5 -200.5t171.5 -70.5q114 0 191 72t97 199z" />
    <glyph glyph-name="r" unicode="r" 
d="M797 1147q178 0 265 -111.5t58 -302.5l-12 -67h-184l8 51q22 132 -31 203t-172 71q-117 0 -195 -72t-100 -202l-112 -717h-185l178 1126h181l-33 -204q89 225 334 225z" />
    <glyph glyph-name="s" unicode="s" 
d="M561 -20h-86q-171 0 -262.5 79.5t-85.5 216.5h184q3 -61 52.5 -97t138.5 -36h86q105 0 167 45t74 121q21 144 -161 174l-148 25q-164 27 -232.5 102t-45.5 215q24 153 135.5 237.5t300.5 84.5h78q159 0 246.5 -77t87.5 -208h-185q-5 56 -50 88.5t-126 32.5h-78
q-200 0 -225 -160q-10 -69 23 -104t120 -49l148 -25q179 -30 250.5 -106t48.5 -222q-27 -160 -143 -248.5t-312 -88.5z" />
    <glyph glyph-name="t" unicode="t" horiz-adv-x="1024" 
d="M764 0h-225q-146 0 -214.5 78t-45.5 219l104 661h-256l27 168h256l49 308h184l-49 -308h369l-27 -168h-369l-104 -661q-11 -66 14 -97.5t88 -31.5h226z" />
    <glyph glyph-name="u" unicode="u" 
d="M518 -20q-195 0 -292 116t-66 314l112 716h185l-113 -716q-20 -127 33.5 -198t167.5 -71q116 0 193.5 71t97.5 198l112 716h185l-113 -716q-31 -197 -168.5 -313.5t-333.5 -116.5z" />
    <glyph glyph-name="v" unicode="v" 
d="M651 0h-250l-229 1126h182l162 -757q8 -40 14 -84.5t11 -88.5t6 -55q49 123 104 228l393 757h193z" />
    <glyph glyph-name="w" unicode="w" 
d="M365 0h-203l-2 1126h157l-14 -798q-1 -28 -2 -95t-2 -90l57 185l254 798h181l-3 -798v-185l58 185l244 798h155l-366 -1126h-203l2 778v205q-19 -69 -64 -205z" />
    <glyph glyph-name="x" unicode="x" 
d="M242 0h-219l481 586l-279 540h213l160 -348q31 -68 37 -92q22 42 59 92l269 348h219l-451 -555l295 -571h-213l-174 369q-24 53 -39 100q-49 -76 -68 -100z" />
    <glyph glyph-name="y" unicode="y" 
d="M852 512l96 614h185l-187 -1167q-23 -152 -131 -240t-274 -88h-357l27 168h358q87 0 134 38.5t59 121.5l24 154l35 204h-4q-31 -112 -119 -173.5t-217 -61.5q-170 0 -254 105t-55 284l104 655h185l-101 -634q-20 -119 34 -186.5t165 -67.5q116 0 194.5 72.5t98.5 201.5z
" />
    <glyph glyph-name="z" unicode="z" 
d="M954 0h-860l29 184l745 774h-606l27 168h821l-29 -184l-757 -774h657z" />
    <glyph glyph-name="braceleft" unicode="{" 
d="M1141 1700h92l-25 -164h-92q-98 0 -156 -44.5t-67 -131.5l-33 -336q-12 -116 -78.5 -192t-171.5 -95q99 -19 142 -95t18 -191l-74 -336q-19 -87 24.5 -131.5t141.5 -44.5h92l-24 -164h-92q-184 0 -272.5 90t-53.5 250l74 336q24 113 -10 158.5t-162 45.5h-226l25 164h225
q129 0 178 46t60 159l33 336q17 160 133 250t299 90z" />
    <glyph glyph-name="bar" unicode="|" 
d="M582 -225h-185l303 1925h185z" />
    <glyph glyph-name="braceright" unicode="}" 
d="M868 819h226l-25 -164h-225q-128 0 -177.5 -45.5t-60.5 -158.5l-33 -336q-17 -160 -133 -250t-299 -90h-92l25 164h92q98 0 156 44.5t67 131.5l33 336q10 115 77.5 192t172.5 96q-99 17 -142.5 93t-17.5 192l74 336q19 87 -24.5 131.5t-141.5 44.5h-92l24 164h92
q184 0 272.5 -90t53.5 -250l-74 -336q-16 -72 -8.5 -117.5t50 -66.5t130.5 -21z" />
    <glyph glyph-name="asciitilde" unicode="~" 
d="M309 522h-174l23 144q20 120 104.5 193t204.5 73q52 0 93 -14.5t66.5 -38t46 -52t36.5 -57t32 -52t38 -38t50 -14.5q46 0 76 28.5t39 83.5l23 144h174l-23 -144q-19 -119 -103 -192.5t-204 -73.5q-52 0 -93 14.5t-67 38t-47 52t-37 57t-32.5 52t-38.5 38t-50 14.5
q-96 0 -114 -112z" />
    <glyph glyph-name="uni2421" unicode="&#x2421;" 
d="M152 502h-127l77 493h127q72 0 108 -39.5t25 -107.5l-30 -197q-10 -69 -59 -109t-121 -40zM721 502h-285l80 493h283l-8 -55h-224l-24 -154h200l-10 -53h-198l-29 -176h223zM1178 502h-285l78 493h61l-69 -438h223zM156 942l-62 -387h68q44 0 73 26t35 70l31 197
q8 43 -14 68.5t-66 25.5h-65z" />
    <glyph glyph-name="uni2421" 
d="M152 502h-127l77 493h127q72 0 108 -39.5t25 -107.5l-30 -197q-10 -69 -59 -109t-121 -40zM721 502h-285l80 493h283l-8 -55h-224l-24 -154h200l-10 -53h-198l-29 -176h223zM1178 502h-285l78 493h61l-69 -438h223zM156 942l-62 -387h68q44 0 73 26t35 70l31 197
q8 43 -14 68.5t-66 25.5h-65z" />
    <glyph glyph-name="uni00A0" unicode="&#xa0;" horiz-adv-x="819" 
 />
    <glyph glyph-name="exclamdown" unicode="&#xa1;" horiz-adv-x="819" 
d="M481 893h-41q-60 0 -90.5 34.5t-21.5 90.5q7 55 49 88t102 33h41q61 0 92.5 -32t22.5 -87q-9 -57 -51.5 -92t-102.5 -35zM369 -369h-217l41 256l169 801h132l-84 -801z" />
    <glyph glyph-name="cent" unicode="&#xa2;" 
d="M1092 758h-185q9 88 -29.5 144t-117.5 73l-129 -823q84 17 139.5 72.5t75.5 144.5h184q-32 -160 -145.5 -262.5t-280.5 -122.5l-43 -271h-123l43 269q-182 14 -269 127t-56 301l47 307q31 188 153.5 301t307.5 127l43 268h122l-43 -270q162 -19 244 -121t62 -264z
M389 719l-49 -309q-19 -114 25 -182.5t141 -80.5l133 832q-101 -12 -166 -79.5t-84 -180.5z" />
    <glyph glyph-name="sterling" unicode="&#xa3;" 
d="M1143 1126h-195q17 103 -40.5 164.5t-170.5 61.5q-120 0 -194.5 -59t-91.5 -167q-5 -47 -3 -77t15.5 -66.5t26.5 -61.5t30 -62.5t27 -70.5h379l-27 -163h-332q0 -24 -8 -86q-20 -121 -105.5 -222.5t-179.5 -152.5h758l-26 -164h-943l33 205q96 67 179 156t94 159
q8 52 8 105h-215l26 163h154q-7 19 -18 45t-19.5 45t-17.5 43.5t-14.5 47.5t-9.5 49.5t-3 56.5t6 62q28 173 162.5 276t335.5 103q203 0 304 -103.5t75 -286.5z" />
    <glyph glyph-name="currency" unicode="&#xa4;" 
d="M1065 764q-21 -129 -104 -232l149 -176l-145 -125l-152 181q-103 -62 -231 -62q-123 0 -209 58l-205 -175l-109 134l195 172q-50 99 -29 225q21 131 109 233l-150 179l146 124l153 -182q105 60 230 60q124 0 215 -62l196 170l111 -129l-195 -168q45 -103 25 -225z
M377 764q-19 -117 46 -194.5t181 -77.5q114 0 202 77.5t107 194.5t-45 194.5t-178 77.5q-116 0 -205 -77.5t-108 -194.5z" />
    <glyph glyph-name="yen" unicode="&#xa5;" 
d="M1110 1495h195l-506 -788h329l-24 -154h-399l-25 -154h399l-24 -153h-400l-39 -246h-184l39 246h-399l24 153h400l24 154h-399l24 154h328l-254 788h187l198 -614q33 -97 37 -140q32 64 80 140z" />
    <glyph glyph-name="brokenbar" unicode="&#xa6;" 
d="M762 922h-184l122 778h185zM582 -225h-185l123 778h185z" />
    <glyph glyph-name="section" unicode="&#xa7;" 
d="M506 -315h-62q-168 0 -272 87t-104 228h194q8 -68 64.5 -110t142.5 -42h61q115 0 186 48t83 129q24 146 -176 190l-183 39q-137 28 -209 119t-53 211q19 117 107 200.5t204 94.5l3 14q-44 -1 -84.5 15t-74.5 49t-48 92.5t-2 136.5q23 152 145 241t313 89h62
q161 0 259.5 -81.5t98.5 -215.5h-194q-6 60 -58 96.5t-131 36.5h-61q-104 0 -170.5 -45.5t-77.5 -122.5q-10 -66 34.5 -114.5t133.5 -68.5l178 -38q142 -31 212 -119.5t50 -212.5q-19 -121 -107.5 -202t-209.5 -81l-2 -14q47 -2 90.5 -21t80 -54t52.5 -94t4 -134
q-25 -161 -152 -253.5t-327 -92.5zM496 410l149 -31q86 -18 155 51.5t87 181.5q12 72 -24.5 126t-106.5 69l-146 31q-86 18 -155 -49.5t-84 -174.5q-13 -78 21.5 -134t103.5 -70z" />
    <glyph glyph-name="dieresis" unicode="&#xa8;" 
d="M508 1329q-60 0 -90 34.5t-21 94.5q9 61 50.5 97t101.5 36t89.5 -35.5t20.5 -97.5q-9 -60 -50 -94.5t-101 -34.5zM963 1329q-60 0 -90 34.5t-21 94.5q9 61 50.5 97t101.5 36t89.5 -35.5t20.5 -97.5q-9 -60 -50 -94.5t-101 -34.5z" />
    <glyph glyph-name="copyright" unicode="&#xa9;" 
d="M559 225q-234 0 -356 135t-88 357l49 307q35 221 200 356.5t400 135.5t357 -135.5t87 -356.5l-49 -307q-34 -221 -199.5 -356.5t-400.5 -135.5zM575 328q184 0 314 107t158 282l49 307q28 175 -68 282t-280 107q-183 0 -313.5 -107.5t-158.5 -281.5l-49 -307
q-28 -175 68.5 -282t279.5 -107zM614 502q-116 0 -176 64.5t-43 170.5l43 267q17 106 97.5 170.5t195.5 64.5q114 0 174 -64.5t43 -170.5h-133q8 56 -20 89t-82 33q-56 0 -95.5 -33.5t-46.5 -88.5l-43 -267q-9 -55 20 -89t85 -34q54 0 92 33.5t47 89.5h133
q-17 -106 -97 -170.5t-194 -64.5z" />
    <glyph glyph-name="ordfeminine" unicode="&#xaa;" 
d="M774 1516q109 0 164.5 -49.5t42.5 -135.5l-63 -399h-97l19 112h-6q-31 -57 -89 -89.5t-129 -32.5q-92 0 -139 48t-35 128t77.5 127t164.5 47h184l11 59q8 47 -24 75t-93 28q-54 0 -95 -22.5t-51 -59.5h-102q23 78 91 121t169 43zM848 1137l8 53h-184q-54 0 -87.5 -24.5
t-39.5 -67.5q-8 -46 22 -72.5t88 -26.5q80 0 131.5 37t61.5 101z" />
    <glyph glyph-name="guillemotleft" unicode="&#xab;" 
d="M604 82h-207l-336 491l490 492h225l-506 -498zM1081 82h-207l-335 491l489 492h225l-505 -498z" />
    <glyph glyph-name="logicalnot" unicode="&#xac;" 
d="M1061 420h-174l43 266h-768l26 164h942z" />
    <glyph glyph-name="uni00AD" unicode="&#xad;" 
d="M946 594h-655l26 164h656z" />
    <glyph glyph-name="registered" unicode="&#xae;" 
d="M764 1516q235 0 357 -135.5t87 -356.5l-49 -307q-35 -221 -200 -356.5t-400 -135.5t-357 135.5t-87 356.5l49 307q35 221 200 356.5t400 135.5zM1047 717l49 307q28 175 -68 282t-280 107q-183 0 -313.5 -107.5t-158.5 -281.5l-49 -307q-28 -175 68.5 -282t279.5 -107
q184 0 314 107t158 282zM494 1229h233q110 0 166 -58.5t39 -156.5q-10 -68 -51 -119t-103 -74l88 -309h-129l-78 287h-110l-45 -287h-123zM807 1014q9 54 -16.5 83t-79.5 29h-111l-35 -225h111q54 0 89 29.5t42 83.5z" />
    <glyph glyph-name="macron" unicode="&#xaf;" 
d="M1069 1372h-655l24 154h656z" />
    <glyph glyph-name="degree" unicode="&#xb0;" 
d="M670 922q-138 0 -210 82t-50 215q22 134 119 215.5t235 81.5t210 -82t50 -215q-22 -134 -119 -215.5t-235 -81.5zM684 1026q84 0 143.5 53t73.5 140q14 88 -28.5 141t-127.5 53q-82 0 -141 -53.5t-72 -140.5q-14 -86 28 -139.5t124 -53.5z" />
    <glyph glyph-name="plusminus" unicode="&#xb1;" 
d="M995 0h-942l23 143h381l73 461h-391l25 164h391l63 399h181l-64 -399h391l-24 -164h-391l-74 -461h381z" />
    <glyph glyph-name="uni00B2" unicode="&#xb2;" 
d="M973 829h-592l29 179l370 247q49 32 82 78t41 92q12 76 -23.5 121t-107.5 45t-122 -45t-62 -121h-144q28 135 122.5 215t226.5 80q138 0 206 -78t48 -212q-12 -74 -67 -150.5t-138 -130.5l-293 -188h444z" />
    <glyph glyph-name="uni00B3" unicode="&#xb3;" 
d="M518 1702h492l-27 -158l-207 -178q107 -15 159.5 -87t33.5 -183q-22 -132 -115.5 -209.5t-232.5 -77.5q-140 0 -210.5 77.5t-48.5 209.5h142q-12 -72 25 -115t112 -43q72 0 120 43t60 115q11 72 -24 113.5t-105 41.5h-61l20 138l213 182h-368z" />
    <glyph glyph-name="acute" unicode="&#xb4;" 
d="M784 1321h-198l262 287h209z" />
    <glyph glyph-name="uni00B5" unicode="&#xb5;" 
d="M831 410l113 716h184l-178 -1126h-180l35 215h-6q-53 -235 -283 -235q-120 0 -162.5 59.5t-31.5 175.5h-5l-36 -256l-54 -328h-184l238 1495h184l-113 -716q-20 -128 30 -199.5t163 -71.5q114 0 190 72t96 199z" />
    <glyph glyph-name="paragraph" unicode="&#xb6;" 
d="M537 -369h-164l159 1004q-175 0 -266.5 95.5t-66.5 252.5l26 164q25 157 147.5 252.5t297.5 95.5h164zM885 -369h-164l297 1864h164z" />
    <glyph glyph-name="periodcentered" unicode="&#xb7;" 
d="M317 532q-78 0 -116.5 44.5t-26.5 121.5q12 79 66.5 126.5t132.5 47.5t115.5 -47t25.5 -127q-12 -76 -65.5 -121t-131.5 -45z" />
    <glyph glyph-name="cedilla" unicode="&#xb8;" 
d="M438 -416h-174l19 113h143q43 0 74.5 22.5t36.5 51.5q6 37 -48 62.5t-153 25.5l102 194h117l-63 -125q58 -7 108 -26.5t84.5 -58.5t26.5 -89q-11 -72 -87.5 -121t-185.5 -49z" />
    <glyph glyph-name="uni00B9" unicode="&#xb9;" 
d="M983 829h-625l21 132h268l96 610l-276 -178l25 161l221 146h194l-116 -739h213z" />
    <glyph glyph-name="ordmasculine" unicode="&#xba;" 
d="M668 911q-106 0 -161 59t-40 156l27 164q15 97 88.5 156t179.5 59t162 -59t41 -156l-27 -164q-15 -97 -89.5 -156t-180.5 -59zM682 993q60 0 102.5 36.5t51.5 96.5l26 164q9 60 -21.5 96.5t-90.5 36.5t-102.5 -36.5t-51.5 -96.5l-27 -164q-9 -60 22 -96.5t91 -36.5z" />
    <glyph glyph-name="guillemotright" unicode="&#xbb;" 
d="M201 82h-224l502 504l-332 479h207l336 -492zM678 82h-223l501 504l-331 479h206l336 -492z" />
    <glyph glyph-name="onequarter" unicode="&#xbc;" 
d="M678 907l379 588h135l-963 -1495h-135l535 829h-527l17 103h241l76 483q-32 -41 -80 -78l-143 -110l23 143l163 125h174l-90 -563h199zM696 246h236l29 182h122l-67 -428h-123l22 143h-358l27 164l313 359h141l-336 -387z" />
    <glyph glyph-name="onehalf" unicode="&#xbd;" 
d="M694 932l363 563h135l-963 -1495h-135l535 829h-527l17 103h241l76 483q-32 -41 -80 -78l-143 -110l23 143l163 125h174l-90 -563h211zM918 676q115 0 175.5 -63.5t45.5 -166.5q-11 -63 -67 -124.5t-148 -108.5l-207 -107l-2 -20q83 16 155 16h224l-17 -102h-522l20 131
l269 141q158 84 170 170q9 60 -22 95.5t-91 35.5t-102 -35.5t-51 -95.5h-123q22 106 102.5 170t190.5 64z" />
    <glyph glyph-name="threequarters" unicode="&#xbe;" 
d="M94 0l963 1495h135l-963 -1495h-135zM354 819q-118 0 -180 59t-47 156h123q-8 -51 25 -81.5t96 -30.5q62 0 105 30.5t50 81.5q8 51 -24 82t-92 31h-62l19 117l186 129h-320l17 102h440l-18 -113l-197 -135q93 -12 140 -69t34 -144q-15 -97 -96.5 -156t-198.5 -59z
M696 246h236l29 182h122l-67 -428h-123l22 143h-358l27 164l313 359h141l-336 -387z" />
    <glyph glyph-name="questiondown" unicode="&#xbf;" 
d="M778 891h-41q-60 0 -90.5 34.5t-21.5 90.5q7 55 49 88t102 33h41q60 0 91 -32t24 -87q-9 -57 -51.5 -92t-102.5 -35zM807 -348h-256q-218 0 -326.5 116t-77.5 314q28 175 153 288t300 122l35 215h184l-59 -369h-103q-132 0 -218.5 -68t-106.5 -188q-19 -120 47.5 -188
t200.5 -68h256z" />
    <glyph glyph-name="Agrave" unicode="&#xc0;" 
d="M907 1659h-182l-190 287h192zM207 0h-195l627 1495h248l149 -1495h-180l-35 397h-452zM618 1016l-188 -463h377l-43 461q-21 228 -21 334q-40 -122 -125 -332z" />
    <glyph glyph-name="Aacute" unicode="&#xc1;" 
d="M860 1659h-198l262 287h209zM207 0h-195l627 1495h248l149 -1495h-180l-35 397h-452zM618 1016l-188 -463h377l-43 461q-21 228 -21 334q-40 -122 -125 -332z" />
    <glyph glyph-name="Acircumflex" unicode="&#xc2;" 
d="M627 1659h-211l329 287h170l242 -287h-199l-141 160zM207 0h-195l627 1495h248l149 -1495h-180l-35 397h-452zM618 1016l-188 -463h377l-43 461q-21 228 -21 334q-40 -122 -125 -332z" />
    <glyph glyph-name="Atilde" unicode="&#xc3;" 
d="M932 1669q-45 0 -79.5 14.5t-55 35.5t-37 42.5t-37 36t-45.5 14.5q-63 0 -72 -71l-10 -62h-133l10 62q13 91 71.5 142.5t143.5 51.5q45 0 79.5 -14.5t55 -35.5t37 -42.5t37 -36t45.5 -14.5q60 0 72 72l10 61h133l-10 -61q-13 -91 -72 -143t-143 -52zM207 0h-195l627 1495
h248l149 -1495h-180l-35 397h-452zM618 1016l-188 -463h377l-43 461q-21 228 -21 334q-40 -122 -125 -332z" />
    <glyph glyph-name="Adieresis" unicode="&#xc4;" 
d="M561 1673q-60 0 -89.5 34.5t-20.5 94.5q10 61 51.5 97t101.5 36t89.5 -36t19.5 -97q-9 -60 -50.5 -94.5t-101.5 -34.5zM1016 1673q-60 0 -90 34.5t-21 94.5q10 61 52 97t102 36t89 -36t19 -97q-9 -60 -50 -94.5t-101 -34.5zM207 0h-195l627 1495h248l149 -1495h-180
l-35 397h-452zM618 1016l-188 -463h377l-43 461q-21 228 -21 334q-40 -122 -125 -332z" />
    <glyph glyph-name="Aring" unicode="&#xc5;" 
d="M772 1569q-110 0 -167 64t-42 169q17 105 95 169.5t188 64.5t168 -65t41 -169q-15 -104 -93.5 -168.5t-189.5 -64.5zM791 1677q56 0 95 34t46 91q9 57 -19.5 92t-83.5 35t-94.5 -35t-48.5 -92q-8 -57 21 -91t84 -34zM207 0h-195l627 1495h248l149 -1495h-180l-35 397
h-452zM618 1016l-188 -463h377l-43 461q-21 228 -21 334q-40 -122 -125 -332z" />
    <glyph glyph-name="AE" unicode="&#xc6;" 
d="M158 0h-187l535 1495h809l-27 -168h-373l-73 -467h321l-26 -168h-322l-84 -524h373l-27 -168h-549l66 416h-289zM625 1327l-267 -758h260l121 758h-114z" />
    <glyph glyph-name="Ccedilla" unicode="&#xc7;" 
d="M1143 1085h-185q20 127 -36 196t-177 69q-122 0 -200.5 -68.5t-98.5 -194.5l-106 -677q-20 -127 36.5 -196t178.5 -69q121 0 199 69t98 196h184q-32 -198 -169.5 -314t-338.5 -116l-26 -52q58 -7 108 -26.5t84.5 -58.5t26.5 -89q-11 -72 -87.5 -121t-184.5 -49h-175
l19 113h143q43 0 74.5 22.5t36.5 51.5q6 37 -48 62.5t-153 25.5l70 131q-150 31 -219 141t-41 279l106 675q32 201 169 316t341 115q201 0 301.5 -116.5t69.5 -314.5z" />
    <glyph glyph-name="Egrave" unicode="&#xc8;" 
d="M948 1659h-182l-191 287h193zM975 0h-860l237 1495h860l-26 -168h-678l-74 -463h606l-26 -166h-606l-84 -530h677z" />
    <glyph glyph-name="Eacute" unicode="&#xc9;" 
d="M901 1659h-199l263 287h209zM975 0h-860l237 1495h860l-26 -168h-678l-74 -463h606l-26 -166h-606l-84 -530h677z" />
    <glyph glyph-name="Ecircumflex" unicode="&#xca;" 
d="M668 1659h-211l329 287h170l242 -287h-199l-141 160zM975 0h-860l237 1495h860l-26 -168h-678l-74 -463h606l-26 -166h-606l-84 -530h677z" />
    <glyph glyph-name="Edieresis" unicode="&#xcb;" 
d="M602 1673q-60 0 -89.5 34.5t-20.5 94.5q10 61 51.5 97t101.5 36t89.5 -36t19.5 -97q-9 -60 -50.5 -94.5t-101.5 -34.5zM1057 1673q-60 0 -90 34.5t-21 94.5q10 61 52 97t102 36t89 -36t19 -97q-9 -60 -50 -94.5t-101 -34.5zM975 0h-860l237 1495h860l-26 -168h-678
l-74 -463h606l-26 -166h-606l-84 -530h677z" />
    <glyph glyph-name="Igrave" unicode="&#xcc;" 
d="M907 1659h-182l-190 287h192zM924 0h-799l27 168h305l184 1159h-305l26 168h799l-26 -168h-306l-184 -1159h305z" />
    <glyph glyph-name="Iacute" unicode="&#xcd;" 
d="M860 1659h-198l262 287h209zM924 0h-799l27 168h305l184 1159h-305l26 168h799l-26 -168h-306l-184 -1159h305z" />
    <glyph glyph-name="Icircumflex" unicode="&#xce;" 
d="M627 1659h-211l329 287h170l242 -287h-199l-141 160zM924 0h-799l27 168h305l184 1159h-305l26 168h799l-26 -168h-306l-184 -1159h305z" />
    <glyph glyph-name="Idieresis" unicode="&#xcf;" 
d="M561 1673q-60 0 -89.5 34.5t-20.5 94.5q10 61 51.5 97t101.5 36t89.5 -36t19.5 -97q-9 -60 -50.5 -94.5t-101.5 -34.5zM1016 1673q-60 0 -90 34.5t-21 94.5q10 61 52 97t102 36t89 -36t19 -97q-9 -60 -50 -94.5t-101 -34.5zM924 0h-799l27 168h305l184 1159h-305l26 168
h799l-26 -168h-306l-184 -1159h305z" />
    <glyph glyph-name="Eth" unicode="&#xd0;" 
d="M336 1495h387q216 0 324.5 -122t76.5 -326l-94 -596q-32 -206 -180 -328.5t-365 -122.5h-387l109 686h-187v154h211zM846 451l94 596q22 133 -43.5 208.5t-200.5 75.5h-202l-78 -491h178v-154h-203l-82 -522h203q135 0 223.5 76t110.5 211z" />
    <glyph glyph-name="Ntilde" unicode="&#xd1;" 
d="M932 1669q-45 0 -79.5 14.5t-55 35.5t-37 42.5t-37 36t-45.5 14.5q-63 0 -72 -71l-10 -62h-133l10 62q13 91 71.5 142.5t143.5 51.5q45 0 79.5 -14.5t55 -35.5t37 -42.5t37 -36t45.5 -14.5q60 0 72 72l10 61h133l-10 -61q-13 -91 -72 -143t-143 -52zM272 0h-178l238 1495
h243l256 -1280q13 219 50 440l133 840h178l-238 -1495h-243l-254 1280q-21 -258 -51 -440z" />
    <glyph glyph-name="Ograve" unicode="&#xd2;" 
d="M907 1659h-182l-190 287h192zM520 -20q-201 0 -298.5 114.5t-65.5 315.5l106 675q32 201 166.5 316t335.5 115t299 -114.5t67 -314.5l-106 -677q-32 -200 -167 -315t-337 -115zM547 145q120 0 196.5 69t96.5 196l106 675q20 127 -34.5 196t-174.5 69t-195.5 -68.5
t-95.5 -196.5l-106 -675q-20 -128 33.5 -196.5t173.5 -68.5z" />
    <glyph glyph-name="Oacute" unicode="&#xd3;" 
d="M860 1659h-198l262 287h209zM520 -20q-201 0 -298.5 114.5t-65.5 315.5l106 675q32 201 166.5 316t335.5 115t299 -114.5t67 -314.5l-106 -677q-32 -200 -167 -315t-337 -115zM547 145q120 0 196.5 69t96.5 196l106 675q20 127 -34.5 196t-174.5 69t-195.5 -68.5
t-95.5 -196.5l-106 -675q-20 -128 33.5 -196.5t173.5 -68.5z" />
    <glyph glyph-name="Ocircumflex" unicode="&#xd4;" 
d="M627 1659h-211l329 287h170l242 -287h-199l-141 160zM520 -20q-201 0 -298.5 114.5t-65.5 315.5l106 675q32 201 166.5 316t335.5 115t299 -114.5t67 -314.5l-106 -677q-32 -200 -167 -315t-337 -115zM547 145q120 0 196.5 69t96.5 196l106 675q20 127 -34.5 196
t-174.5 69t-195.5 -68.5t-95.5 -196.5l-106 -675q-20 -128 33.5 -196.5t173.5 -68.5z" />
    <glyph glyph-name="Otilde" unicode="&#xd5;" 
d="M932 1669q-45 0 -79.5 14.5t-55 35.5t-37 42.5t-37 36t-45.5 14.5q-63 0 -72 -71l-10 -62h-133l10 62q13 91 71.5 142.5t143.5 51.5q45 0 79.5 -14.5t55 -35.5t37 -42.5t37 -36t45.5 -14.5q60 0 72 72l10 61h133l-10 -61q-13 -91 -72 -143t-143 -52zM520 -20
q-201 0 -298.5 114.5t-65.5 315.5l106 675q32 201 166.5 316t335.5 115t299 -114.5t67 -314.5l-106 -677q-32 -200 -167 -315t-337 -115zM547 145q120 0 196.5 69t96.5 196l106 675q20 127 -34.5 196t-174.5 69t-195.5 -68.5t-95.5 -196.5l-106 -675q-20 -128 33.5 -196.5
t173.5 -68.5z" />
    <glyph glyph-name="Odieresis" unicode="&#xd6;" 
d="M561 1673q-60 0 -89.5 34.5t-20.5 94.5q10 61 51.5 97t101.5 36t89.5 -36t19.5 -97q-9 -60 -50.5 -94.5t-101.5 -34.5zM1016 1673q-60 0 -90 34.5t-21 94.5q10 61 52 97t102 36t89 -36t19 -97q-9 -60 -50 -94.5t-101 -34.5zM520 -20q-201 0 -298.5 114.5t-65.5 315.5
l106 675q32 201 166.5 316t335.5 115t299 -114.5t67 -314.5l-106 -677q-32 -200 -167 -315t-337 -115zM547 145q120 0 196.5 69t96.5 196l106 675q20 127 -34.5 196t-174.5 69t-195.5 -68.5t-95.5 -196.5l-106 -675q-20 -128 33.5 -196.5t173.5 -68.5z" />
    <glyph glyph-name="multiply" unicode="&#xd7;" 
d="M614 569l-338 -293l-92 111l336 291l-239 289l116 100l242 -287l346 299l92 -110l-346 -299l244 -287l-119 -102z" />
    <glyph glyph-name="Oslash" unicode="&#xd8;" 
d="M1135 1536h176l-185 -258q19 -85 4 -191l-106 -677q-32 -200 -167 -315t-337 -115q-175 0 -270 83l-105 -145h-176l197 275q-30 100 -10 217l106 675q32 201 166.5 316t335.5 115q186 0 285 -99zM446 1085l-102 -647l586 813q-49 99 -193 99q-120 0 -195.5 -68.5
t-95.5 -196.5zM840 410l96 604l-569 -789q50 -80 180 -80q120 0 196.5 69t96.5 196z" />
    <glyph glyph-name="Ugrave" unicode="&#xd9;" 
d="M907 1659h-182l-190 287h192zM520 -20q-207 0 -300 114t-60 316l172 1085h184l-172 -1085q-21 -126 30 -196.5t173 -70.5q121 0 194.5 70.5t94.5 196.5l172 1085h184l-172 -1085q-33 -203 -162 -316.5t-338 -113.5z" />
    <glyph glyph-name="Uacute" unicode="&#xda;" 
d="M860 1659h-198l262 287h209zM520 -20q-207 0 -300 114t-60 316l172 1085h184l-172 -1085q-21 -126 30 -196.5t173 -70.5q121 0 194.5 70.5t94.5 196.5l172 1085h184l-172 -1085q-33 -203 -162 -316.5t-338 -113.5z" />
    <glyph glyph-name="Ucircumflex" unicode="&#xdb;" 
d="M627 1659h-211l329 287h170l242 -287h-199l-141 160zM520 -20q-207 0 -300 114t-60 316l172 1085h184l-172 -1085q-21 -126 30 -196.5t173 -70.5q121 0 194.5 70.5t94.5 196.5l172 1085h184l-172 -1085q-33 -203 -162 -316.5t-338 -113.5z" />
    <glyph glyph-name="Udieresis" unicode="&#xdc;" 
d="M561 1673q-60 0 -89.5 34.5t-20.5 94.5q10 61 51.5 97t101.5 36t89.5 -36t19.5 -97q-9 -60 -50.5 -94.5t-101.5 -34.5zM1016 1673q-60 0 -90 34.5t-21 94.5q10 61 52 97t102 36t89 -36t19 -97q-9 -60 -50 -94.5t-101 -34.5zM520 -20q-207 0 -300 114t-60 316l172 1085
h184l-172 -1085q-21 -126 30 -196.5t173 -70.5q121 0 194.5 70.5t94.5 196.5l172 1085h184l-172 -1085q-33 -203 -162 -316.5t-338 -113.5z" />
    <glyph glyph-name="Yacute" unicode="&#xdd;" 
d="M860 1659h-198l262 287h209zM616 0h-184l88 559l-301 936h187l198 -614q33 -97 37 -140q32 64 80 140l389 614h195l-600 -936z" />
    <glyph glyph-name="Thorn" unicode="&#xde;" 
d="M279 0h-185l238 1495h184l-49 -307h313q201 0 304.5 -112.5t74.5 -297.5q-29 -187 -167 -298t-341 -111h-313zM440 1024l-78 -492h314q118 0 196 66t97 180t-39.5 180t-175.5 66h-314z" />
    <glyph glyph-name="germandbls" unicode="&#xdf;" 
d="M1147 1135q-20 -123 -97 -212.5t-192 -121.5q118 -33 173 -131.5t32 -243.5q-29 -188 -170 -307t-338 -119h-135l26 168h115q122 0 205 72.5t102 191.5q20 118 -40 186t-185 68h-90l25 160h86q112 0 189 70.5t95 181.5q19 118 -36.5 184t-168.5 66q-114 0 -190.5 -68
t-95.5 -186l-181 -1135q-25 -153 -132.5 -240.5t-272.5 -87.5h-141l26 168h144q169 0 192 160l180 1135q31 191 166.5 306.5t331.5 115.5q200 0 303 -100t74 -281z" />
    <glyph glyph-name="agrave" unicode="&#xe0;" 
d="M684 1608l180 -287h-182l-190 287h192zM915 911l31 215h184l-178 -1126h-184l35 215h-4q-31 -110 -122.5 -172.5t-219.5 -62.5q-169 0 -250.5 112t-50.5 305l51 330q31 195 148 307.5t288 112.5q126 0 197.5 -63.5t68.5 -172.5h6zM834 410l47 307q20 127 -34 198.5
t-169 71.5q-118 0 -193.5 -70t-95.5 -200l-47 -307q-20 -130 33 -200.5t170 -70.5q114 0 191.5 72t97.5 199z" />
    <glyph glyph-name="aacute" unicode="&#xe1;" 
d="M881 1608h209l-273 -287h-199zM915 911l31 215h184l-178 -1126h-184l35 215h-4q-31 -110 -122.5 -172.5t-219.5 -62.5q-169 0 -250.5 112t-50.5 305l51 330q31 195 148 307.5t288 112.5q126 0 197.5 -63.5t68.5 -172.5h6zM834 410l47 307q20 127 -34 198.5t-169 71.5
q-118 0 -193.5 -70t-95.5 -200l-47 -307q-20 -130 33 -200.5t170 -70.5q114 0 191.5 72t97.5 199z" />
    <glyph glyph-name="acircumflex" unicode="&#xe2;" 
d="M915 1321l-141 160l-190 -160h-211l329 287h170l242 -287h-199zM915 911l31 215h184l-178 -1126h-184l35 215h-4q-31 -110 -122.5 -172.5t-219.5 -62.5q-169 0 -250.5 112t-50.5 305l51 330q31 195 148 307.5t288 112.5q126 0 197.5 -63.5t68.5 -172.5h6zM834 410l47 307
q20 127 -34 198.5t-169 71.5q-118 0 -193.5 -70t-95.5 -200l-47 -307q-20 -130 33 -200.5t170 -70.5q114 0 191.5 72t97.5 199z" />
    <glyph glyph-name="atilde" unicode="&#xe3;" 
d="M561 1403l-8 -62h-133l8 62q15 91 74 142.5t143 51.5q38 0 69 -10.5t49 -26.5t35 -34.5t29.5 -34.5t30.5 -26.5t39 -10.5q62 0 74 72l10 61h133l-10 -61q-15 -91 -73 -143t-142 -52q-45 0 -79.5 15t-55 36t-37 42t-37 36t-45.5 15q-62 0 -74 -72zM915 911l31 215h184
l-178 -1126h-184l35 215h-4q-31 -110 -122.5 -172.5t-219.5 -62.5q-169 0 -250.5 112t-50.5 305l51 330q31 195 148 307.5t288 112.5q126 0 197.5 -63.5t68.5 -172.5h6zM834 410l47 307q20 127 -34 198.5t-169 71.5q-118 0 -193.5 -70t-95.5 -200l-47 -307
q-20 -130 33 -200.5t170 -70.5q114 0 191.5 72t97.5 199z" />
    <glyph glyph-name="adieresis" unicode="&#xe4;" 
d="M518 1329q-60 0 -89.5 34.5t-20.5 94.5q9 61 50 97t101 36t90 -36t21 -97q-9 -60 -50.5 -94.5t-101.5 -34.5zM973 1329q-60 0 -90 34.5t-21 94.5q9 61 50.5 97t101.5 36t89.5 -35.5t20.5 -97.5q-9 -60 -50 -94.5t-101 -34.5zM915 911l31 215h184l-178 -1126h-184l35 215
h-4q-31 -110 -122.5 -172.5t-219.5 -62.5q-169 0 -250.5 112t-50.5 305l51 330q31 195 148 307.5t288 112.5q126 0 197.5 -63.5t68.5 -172.5h6zM834 410l47 307q20 127 -34 198.5t-169 71.5q-118 0 -193.5 -70t-95.5 -200l-47 -307q-20 -130 33 -200.5t170 -70.5
q114 0 191.5 72t97.5 199z" />
    <glyph glyph-name="aring" unicode="&#xe5;" 
d="M731 1245q-110 0 -167 64.5t-42 169.5q17 104 95 168.5t188 64.5t168 -64.5t41 -168.5q-15 -104 -94 -169t-189 -65zM645 1479q-9 -57 20 -91t85 -34q55 0 93.5 34t47.5 91t-19.5 92t-83.5 35t-94.5 -35t-48.5 -92zM915 911l31 215h184l-178 -1126h-184l35 215h-4
q-31 -110 -122.5 -172.5t-219.5 -62.5q-169 0 -250.5 112t-50.5 305l51 330q31 195 148 307.5t288 112.5q126 0 197.5 -63.5t68.5 -172.5h6zM834 410l47 307q20 127 -34 198.5t-169 71.5q-118 0 -193.5 -70t-95.5 -200l-47 -307q-20 -130 33 -200.5t170 -70.5
q114 0 191.5 72t97.5 199z" />
    <glyph glyph-name="ae" unicode="&#xe6;" 
d="M254 -20q-127 0 -189 77t-40 209l18 123q20 126 117 201.5t239 75.5h152l24 151q13 89 -13 130.5t-97 41.5q-58 0 -98.5 -35t-49.5 -94h-174q20 129 107.5 208t210.5 79q109 0 164 -50.5t57 -113.5h8q20 62 89 113t173 51q138 0 203.5 -88t40.5 -240l-47 -297h-455
l-32 -215q-12 -77 18 -123.5t92 -46.5q66 0 109.5 34.5t54.5 94.5h174q-22 -129 -116.5 -207.5t-227.5 -78.5q-105 0 -157 50.5t-52 112.5h-8q-20 -62 -98 -112.5t-197 -50.5zM741 819l-24 -153h280l25 153q12 77 -19 123.5t-98 46.5q-64 0 -108 -46.5t-56 -123.5zM322 137
q66 0 114 47t60 123l32 215h-147q-63 0 -104 -35.5t-50 -97.5l-18 -123q-10 -60 20.5 -94.5t92.5 -34.5z" />
    <glyph glyph-name="ccedilla" unicode="&#xe7;" 
d="M1092 758h-185q10 107 -47.5 166t-171.5 59q-122 0 -200.5 -69t-98.5 -195l-49 -309q-20 -127 36.5 -197t178.5 -70q114 0 190 59.5t101 166.5h184q-35 -180 -171 -284.5t-331 -104.5h-2l-26 -52q58 -7 108 -26.5t84.5 -58.5t26.5 -89q-11 -72 -87.5 -121t-185.5 -49
h-174l19 113h143q43 0 74.5 22.5t36.5 51.5q6 37 -48 62.5t-153 25.5l70 131q-149 31 -217.5 141t-40.5 279l47 307q32 200 169.5 315t342.5 115q195 0 297 -104.5t80 -284.5z" />
    <glyph glyph-name="egrave" unicode="&#xe8;" 
d="M674 1608l180 -287h-182l-191 287h193zM707 1147q199 0 297.5 -117t66.5 -313l-31 -199h-688l-16 -108q-22 -134 31 -204.5t178 -70.5q214 0 270 152h184q-40 -141 -170 -224t-309 -83q-199 0 -297 117t-67 313l47 307q32 196 168.5 313t335.5 117zM883 657l8 60
q22 134 -31 205t-178 71t-201 -71t-98 -205l-8 -60h508z" />
    <glyph glyph-name="eacute" unicode="&#xe9;" 
d="M870 1608h209l-272 -287h-199zM707 1147q199 0 297.5 -117t66.5 -313l-31 -199h-688l-16 -108q-22 -134 31 -204.5t178 -70.5q214 0 270 152h184q-40 -141 -170 -224t-309 -83q-199 0 -297 117t-67 313l47 307q32 196 168.5 313t335.5 117zM883 657l8 60q22 134 -31 205
t-178 71t-201 -71t-98 -205l-8 -60h508z" />
    <glyph glyph-name="ecircumflex" unicode="&#xea;" 
d="M905 1321l-141 160l-191 -160h-211l330 287h170l242 -287h-199zM707 1147q199 0 297.5 -117t66.5 -313l-31 -199h-688l-16 -108q-22 -134 31 -204.5t178 -70.5q214 0 270 152h184q-40 -141 -170 -224t-309 -83q-199 0 -297 117t-67 313l47 307q32 196 168.5 313
t335.5 117zM883 657l8 60q22 134 -31 205t-178 71t-201 -71t-98 -205l-8 -60h508z" />
    <glyph glyph-name="edieresis" unicode="&#xeb;" 
d="M508 1329q-60 0 -90 34.5t-21 94.5q9 61 50.5 97t101.5 36t89.5 -35.5t20.5 -97.5q-9 -60 -50 -94.5t-101 -34.5zM1004 1591q60 0 89.5 -35.5t20.5 -97.5q-9 -60 -50 -94.5t-101 -34.5t-90 34.5t-21 94.5q9 61 50.5 97t101.5 36zM707 1147q199 0 297.5 -117t66.5 -313
l-31 -199h-688l-16 -108q-22 -134 31 -204.5t178 -70.5q214 0 270 152h184q-40 -141 -170 -224t-309 -83q-199 0 -297 117t-67 313l47 307q32 196 168.5 313t335.5 117zM883 657l8 60q22 134 -31 205t-178 71t-201 -71t-98 -205l-8 -60h508z" />
    <glyph glyph-name="igrave" unicode="&#xec;" horiz-adv-x="1024" 
d="M782 1321h-182l-190 287h192zM831 0h-757l26 168h297l125 790h-254l27 168h438l-151 -958h276z" />
    <glyph glyph-name="iacute" unicode="&#xed;" horiz-adv-x="1024" 
d="M735 1321h-198l262 287h209zM831 0h-757l26 168h297l125 790h-254l27 168h438l-151 -958h276z" />
    <glyph glyph-name="icircumflex" unicode="&#xee;" horiz-adv-x="1024" 
d="M502 1321h-211l330 287h170l241 -287h-198l-142 160zM831 0h-757l26 168h297l125 790h-254l27 168h438l-151 -958h276z" />
    <glyph glyph-name="idieresis" unicode="&#xef;" horiz-adv-x="1024" 
d="M436 1329q-60 0 -89.5 34.5t-20.5 94.5q9 61 50 97t101 36t90 -36t21 -97q-9 -60 -50.5 -94.5t-101.5 -34.5zM891 1329q-60 0 -90 34.5t-21 94.5q9 61 50.5 97t101.5 36t89.5 -35.5t20.5 -97.5q-9 -60 -50 -94.5t-101 -34.5zM831 0h-757l26 168h297l125 790h-254l27 168
h438l-151 -958h276z" />
    <glyph glyph-name="eth" unicode="&#xf0;" 
d="M518 -20q-211 0 -319 126.5t-76 333.5q32 204 170.5 328.5t333.5 124.5q81 0 137.5 -35.5t77.5 -79.5h28q-19 63 -98 205l-102 182l-361 -149l27 166l262 114l-113 199h195l70 -127l342 137l-25 -168l-246 -100l133 -227q75 -127 105 -274.5t8 -278.5
q-34 -215 -184.5 -346t-364.5 -131zM545 143q130 0 222 81.5t114 215.5q22 133 -44.5 215t-197.5 82q-127 0 -218.5 -81.5t-113.5 -215.5q-22 -133 44 -215t194 -82z" />
    <glyph glyph-name="ntilde" unicode="&#xf1;" 
d="M963 1526l10 61h133l-10 -61q-15 -91 -73 -143t-142 -52q-45 0 -79.5 15t-55 36t-37 42t-37 36t-45.5 15q-62 0 -74 -72l-8 -62h-133l8 62q15 91 74 142.5t143 51.5q38 0 69 -10.5t49 -26.5t35 -34.5t29.5 -34.5t30.5 -26.5t39 -10.5q62 0 74 72zM766 1147
q169 0 253 -105t56 -284l-121 -758h-184l117 737q19 119 -34.5 186.5t-164.5 67.5q-116 0 -193.5 -72t-99.5 -202l-112 -717h-185l178 1126h185l-35 -215h4q31 112 119 174t217 62z" />
    <glyph glyph-name="ograve" unicode="&#xf2;" 
d="M854 1321h-182l-191 287h193zM520 -20q-201 0 -298.5 114.5t-65.5 315.5l47 307q32 200 167 315t337 115q201 0 299 -114.5t67 -313.5l-49 -309q-32 -200 -167 -315t-337 -115zM547 143q120 0 195.5 68.5t97.5 198.5l47 307q22 130 -32 198t-175 68q-120 0 -195.5 -68
t-97.5 -198l-47 -307q-22 -130 32 -198.5t175 -68.5z" />
    <glyph glyph-name="oacute" unicode="&#xf3;" 
d="M807 1321h-199l262 287h209zM520 -20q-201 0 -298.5 114.5t-65.5 315.5l47 307q32 200 167 315t337 115q201 0 299 -114.5t67 -313.5l-49 -309q-32 -200 -167 -315t-337 -115zM547 143q120 0 195.5 68.5t97.5 198.5l47 307q22 130 -32 198t-175 68q-120 0 -195.5 -68
t-97.5 -198l-47 -307q-22 -130 32 -198.5t175 -68.5z" />
    <glyph glyph-name="ocircumflex" unicode="&#xf4;" 
d="M573 1321h-211l330 287h170l242 -287h-199l-141 160zM520 -20q-201 0 -298.5 114.5t-65.5 315.5l47 307q32 200 167 315t337 115q201 0 299 -114.5t67 -313.5l-49 -309q-32 -200 -167 -315t-337 -115zM547 143q120 0 195.5 68.5t97.5 198.5l47 307q22 130 -32 198
t-175 68q-120 0 -195.5 -68t-97.5 -198l-47 -307q-22 -130 32 -198.5t175 -68.5z" />
    <glyph glyph-name="otilde" unicode="&#xf5;" 
d="M879 1331q-45 0 -79.5 15t-55 36t-37 42t-37 36t-45.5 15q-62 0 -74 -72l-8 -62h-133l8 62q15 91 74 142.5t143 51.5q38 0 69 -10.5t49 -26.5t35 -34.5t29.5 -34.5t30.5 -26.5t39 -10.5q62 0 74 72l10 61h133l-10 -61q-15 -91 -73 -143t-142 -52zM520 -20
q-201 0 -298.5 114.5t-65.5 315.5l47 307q32 200 167 315t337 115q201 0 299 -114.5t67 -313.5l-49 -309q-32 -200 -167 -315t-337 -115zM547 143q120 0 195.5 68.5t97.5 198.5l47 307q22 130 -32 198t-175 68q-120 0 -195.5 -68t-97.5 -198l-47 -307q-22 -130 32 -198.5
t175 -68.5z" />
    <glyph glyph-name="odieresis" unicode="&#xf6;" 
d="M508 1329q-60 0 -90 34.5t-21 94.5q9 61 50.5 97t101.5 36t89.5 -35.5t20.5 -97.5q-9 -60 -50 -94.5t-101 -34.5zM963 1329q-60 0 -90 34.5t-21 94.5q9 61 50.5 97t101.5 36t89.5 -35.5t20.5 -97.5q-9 -60 -50 -94.5t-101 -34.5zM520 -20q-201 0 -298.5 114.5
t-65.5 315.5l47 307q32 200 167 315t337 115q201 0 299 -114.5t67 -313.5l-49 -309q-32 -200 -167 -315t-337 -115zM547 143q120 0 195.5 68.5t97.5 198.5l47 307q22 130 -32 198t-175 68q-120 0 -195.5 -68t-97.5 -198l-47 -307q-22 -130 32 -198.5t175 -68.5z" />
    <glyph glyph-name="divide" unicode="&#xf7;" 
d="M674 942q-76 0 -116.5 42.5t-29.5 111.5q10 69 64 111t131 42q76 0 116 -42t29 -111t-64.5 -111.5t-129.5 -42.5zM1030 604h-819l25 154h819zM543 113q-76 0 -116.5 42t-29.5 111q10 69 64 111.5t131 42.5q76 0 116 -42.5t29 -111.5q-10 -69 -63.5 -111t-130.5 -42z" />
    <glyph glyph-name="oslash" unicode="&#xf8;" 
d="M1067 1208h190l-208 -241q48 -102 24 -248l-49 -309q-32 -200 -167 -315t-337 -115q-165 0 -258 75l-102 -116h-189l203 235q-39 98 -18 236l47 307q31 200 166.5 315t337.5 115q149 0 249 -68zM377 717l-47 -307q-4 -23 -4 -62l508 590q-57 45 -154 45q-123 0 -203 -70
t-100 -196zM850 410l47 307q7 48 4 80l-518 -600q57 -54 164 -54q123 0 203 70.5t100 196.5z" />
    <glyph glyph-name="ugrave" unicode="&#xf9;" 
d="M854 1321h-182l-191 287h193zM518 -20q-195 0 -292 116t-66 314l112 716h185l-113 -716q-20 -127 33.5 -198t167.5 -71q116 0 193.5 71t97.5 198l112 716h185l-113 -716q-31 -197 -168.5 -313.5t-333.5 -116.5z" />
    <glyph glyph-name="uacute" unicode="&#xfa;" 
d="M807 1321h-199l262 287h209zM518 -20q-195 0 -292 116t-66 314l112 716h185l-113 -716q-20 -127 33.5 -198t167.5 -71q116 0 193.5 71t97.5 198l112 716h185l-113 -716q-31 -197 -168.5 -313.5t-333.5 -116.5z" />
    <glyph glyph-name="ucircumflex" unicode="&#xfb;" 
d="M573 1321h-211l330 287h170l242 -287h-199l-141 160zM518 -20q-195 0 -292 116t-66 314l112 716h185l-113 -716q-20 -127 33.5 -198t167.5 -71q116 0 193.5 71t97.5 198l112 716h185l-113 -716q-31 -197 -168.5 -313.5t-333.5 -116.5z" />
    <glyph glyph-name="udieresis" unicode="&#xfc;" 
d="M508 1329q-60 0 -90 34.5t-21 94.5q9 61 50.5 97t101.5 36t89.5 -35.5t20.5 -97.5q-9 -60 -50 -94.5t-101 -34.5zM963 1329q-60 0 -90 34.5t-21 94.5q9 61 50.5 97t101.5 36t89.5 -35.5t20.5 -97.5q-9 -60 -50 -94.5t-101 -34.5zM518 -20q-195 0 -292 116t-66 314
l112 716h185l-113 -716q-20 -127 33.5 -198t167.5 -71q116 0 193.5 71t97.5 198l112 716h185l-113 -716q-31 -197 -168.5 -313.5t-333.5 -116.5z" />
    <glyph glyph-name="yacute" unicode="&#xfd;" 
d="M870 1608h209l-272 -287h-199zM852 512l96 614h185l-187 -1167q-23 -152 -131 -240t-274 -88h-357l27 168h358q87 0 134 38.5t59 121.5l24 154l35 204h-4q-31 -112 -119 -173.5t-217 -61.5q-170 0 -254 105t-55 284l104 655h185l-101 -634q-20 -119 34 -186.5t165 -67.5
q116 0 194.5 72.5t98.5 201.5z" />
    <glyph glyph-name="thorn" unicode="&#xfe;" 
d="M762 1147q170 0 251 -112.5t50 -307.5l-51 -330q-31 -193 -149 -305t-288 -112q-128 0 -198.5 62.5t-67.5 172.5h-2l-35 -215l-59 -369h-184l77 490l220 1374h184l-53 -328l-45 -256h8q31 109 123.5 172.5t218.5 63.5zM829 410l48 307q22 130 -31.5 200t-171.5 70
q-114 0 -190.5 -71.5t-98.5 -198.5l-47 -307q-20 -127 34.5 -199t168.5 -72q117 0 191.5 70t96.5 201z" />
    <glyph glyph-name="ydieresis" unicode="&#xff;" 
d="M508 1329q-60 0 -90 34.5t-21 94.5q9 61 50.5 97t101.5 36t89.5 -35.5t20.5 -97.5q-9 -60 -50 -94.5t-101 -34.5zM963 1329q-60 0 -90 34.5t-21 94.5q9 61 50.5 97t101.5 36t89.5 -35.5t20.5 -97.5q-9 -60 -50 -94.5t-101 -34.5zM852 512l96 614h185l-187 -1167
q-23 -152 -131 -240t-274 -88h-357l27 168h358q87 0 134 38.5t59 121.5l24 154l35 204h-4q-31 -112 -119 -173.5t-217 -61.5q-170 0 -254 105t-55 284l104 655h185l-101 -634q-20 -119 34 -186.5t165 -67.5q116 0 194.5 72.5t98.5 201.5z" />
    <glyph glyph-name="Amacron" unicode="&#x100;" 
d="M1124 1720h-655l25 154h655zM207 0h-195l627 1495h248l149 -1495h-180l-35 397h-452zM618 1016l-188 -463h377l-43 461q-21 228 -21 334q-40 -122 -125 -332z" />
    <glyph glyph-name="amacron" unicode="&#x101;" 
d="M449 1526h655l-25 -154h-655zM915 911l31 215h184l-178 -1126h-184l35 215h-4q-31 -110 -122.5 -172.5t-219.5 -62.5q-169 0 -250.5 112t-50.5 305l51 330q31 195 148 307.5t288 112.5q126 0 197.5 -63.5t68.5 -172.5h6zM834 410l47 307q20 127 -34 198.5t-169 71.5
q-118 0 -193.5 -70t-95.5 -200l-47 -307q-20 -130 33 -200.5t170 -70.5q114 0 191.5 72t97.5 199z" />
    <glyph glyph-name="Abreve" unicode="&#x102;" 
d="M784 1649q-147 0 -223.5 81.5t-56.5 215.5h143q-12 -80 30.5 -129.5t123.5 -49.5q83 0 141 49.5t70 129.5h147q-20 -133 -123.5 -215t-251.5 -82zM207 0h-195l627 1495h248l149 -1495h-180l-35 397h-452zM618 1016l-188 -463h377l-43 461q-21 228 -21 334
q-40 -122 -125 -332z" />
    <glyph glyph-name="abreve" unicode="&#x103;" 
d="M741 1311q-147 0 -223.5 81.5t-56.5 215.5h143q-12 -80 30 -129t124 -49q83 0 141 49t70 129h147q-20 -133 -123.5 -215t-251.5 -82zM915 911l31 215h184l-178 -1126h-184l35 215h-4q-31 -110 -122.5 -172.5t-219.5 -62.5q-169 0 -250.5 112t-50.5 305l51 330
q31 195 148 307.5t288 112.5q126 0 197.5 -63.5t68.5 -172.5h6zM834 410l47 307q20 127 -34 198.5t-169 71.5q-118 0 -193.5 -70t-95.5 -200l-47 -307q-20 -130 33 -200.5t170 -70.5q114 0 191.5 72t97.5 199z" />
    <glyph glyph-name="Aogonek" unicode="&#x104;" 
d="M938 -293h123l-19 -123h-159q-113 0 -173 53.5t-46 137.5q19 118 192 231l-35 391h-452l-162 -397h-195l627 1495h248l149 -1495h-35q-145 -108 -159 -190q-6 -45 19.5 -74t76.5 -29zM618 1016l-188 -463h377l-43 461q-21 228 -21 334q-40 -122 -125 -332z" />
    <glyph glyph-name="aogonek" unicode="&#x105;" 
d="M788 -190q-6 -45 20 -74t77 -29h123l-19 -123h-160q-113 0 -173 53.5t-46 137.5q19 114 183 225h-25l35 215h-4q-31 -110 -122.5 -172.5t-219.5 -62.5q-169 0 -250.5 112t-50.5 305l51 330q31 195 148 307.5t288 112.5q126 0 197.5 -63.5t68.5 -172.5h6l31 215h184
l-178 -1126h-2q-148 -108 -162 -190zM545 139q114 0 191.5 72t97.5 199l47 307q20 127 -34 198.5t-169 71.5q-118 0 -193.5 -70t-95.5 -200l-47 -307q-20 -130 33 -200.5t170 -70.5z" />
    <glyph glyph-name="Cacute" unicode="&#x106;" 
d="M870 1659h-198l262 287h209zM528 -20q-205 0 -304.5 115t-67.5 315l106 675q32 201 169 316t341 115q201 0 301.5 -116.5t69.5 -314.5h-185q20 127 -36 196t-177 69q-122 0 -200.5 -68.5t-98.5 -194.5l-106 -677q-20 -127 36.5 -196t178.5 -69q121 0 199 69t98 196h184
q-32 -198 -169.5 -314t-338.5 -116z" />
    <glyph glyph-name="cacute" unicode="&#x107;" 
d="M815 1321h-199l263 287h208zM528 -20q-205 0 -304.5 115t-67.5 315l47 307q32 200 169.5 315t342.5 115q195 0 297 -104.5t80 -284.5h-185q10 107 -47.5 166t-171.5 59q-122 0 -200.5 -69t-98.5 -195l-49 -309q-20 -127 36.5 -197t178.5 -70q114 0 190 59.5t101 166.5
h184q-35 -180 -171 -284.5t-331 -104.5z" />
    <glyph glyph-name="Ccircumflex" unicode="&#x108;" 
d="M637 1659h-211l330 287h170l241 -287h-198l-142 160zM528 -20q-205 0 -304.5 115t-67.5 315l106 675q32 201 169 316t341 115q201 0 301.5 -116.5t69.5 -314.5h-185q20 127 -36 196t-177 69q-122 0 -200.5 -68.5t-98.5 -194.5l-106 -677q-20 -127 36.5 -196t178.5 -69
q121 0 199 69t98 196h184q-32 -198 -169.5 -314t-338.5 -116z" />
    <glyph glyph-name="ccircumflex" unicode="&#x109;" 
d="M582 1321h-211l329 287h170l242 -287h-199l-141 160zM528 -20q-205 0 -304.5 115t-67.5 315l47 307q32 200 169.5 315t342.5 115q195 0 297 -104.5t80 -284.5h-185q10 107 -47.5 166t-171.5 59q-122 0 -200.5 -69t-98.5 -195l-49 -309q-20 -127 36.5 -197t178.5 -70
q114 0 190 59.5t101 166.5h184q-35 -180 -171 -284.5t-331 -104.5z" />
    <glyph glyph-name="Cdotaccent" unicode="&#x10a;" 
d="M799 1671q-67 0 -100.5 35.5t-24.5 95.5q11 60 56 95.5t112 35.5t100.5 -35.5t22.5 -95.5q-9 -60 -54 -95.5t-112 -35.5zM528 -20q-205 0 -304.5 115t-67.5 315l106 675q32 201 169 316t341 115q201 0 301.5 -116.5t69.5 -314.5h-185q20 127 -36 196t-177 69
q-122 0 -200.5 -68.5t-98.5 -194.5l-106 -677q-20 -127 36.5 -196t178.5 -69q121 0 199 69t98 196h184q-32 -198 -169.5 -314t-338.5 -116z" />
    <glyph glyph-name="cdotaccent" unicode="&#x10b;" 
d="M743 1329q-67 0 -100.5 34.5t-24.5 94.5q9 61 53.5 97t112.5 36q67 0 100.5 -35.5t24.5 -97.5q-9 -60 -53.5 -94.5t-112.5 -34.5zM528 -20q-205 0 -304.5 115t-67.5 315l47 307q32 200 169.5 315t342.5 115q195 0 297 -104.5t80 -284.5h-185q10 107 -47.5 166t-171.5 59
q-122 0 -200.5 -69t-98.5 -195l-49 -309q-20 -127 36.5 -197t178.5 -70q114 0 190 59.5t101 166.5h184q-35 -180 -171 -284.5t-331 -104.5z" />
    <glyph glyph-name="Ccaron" unicode="&#x10c;" 
d="M883 1659h-170l-242 287h199l143 -160l188 160h211zM528 -20q-205 0 -304.5 115t-67.5 315l106 675q32 201 169 316t341 115q201 0 301.5 -116.5t69.5 -314.5h-185q20 127 -36 196t-177 69q-122 0 -200.5 -68.5t-98.5 -194.5l-106 -677q-20 -127 36.5 -196t178.5 -69
q121 0 199 69t98 196h184q-32 -198 -169.5 -314t-338.5 -116z" />
    <glyph glyph-name="ccaron" unicode="&#x10d;" 
d="M829 1321h-170l-241 287h198l144 -160l188 160h211zM528 -20q-205 0 -304.5 115t-67.5 315l47 307q32 200 169.5 315t342.5 115q195 0 297 -104.5t80 -284.5h-185q10 107 -47.5 166t-171.5 59q-122 0 -200.5 -69t-98.5 -195l-49 -309q-20 -127 36.5 -197t178.5 -70
q114 0 190 59.5t101 166.5h184q-35 -180 -171 -284.5t-331 -104.5z" />
    <glyph glyph-name="Dcaron" unicode="&#x10e;" 
d="M872 1659h-170l-241 287h198l144 -160l188 160h211zM485 0h-387l238 1495h387q216 0 324.5 -122t76.5 -326l-94 -596q-32 -206 -180 -328.5t-365 -122.5zM494 1331l-185 -1167h203q135 0 223.5 76t110.5 211l94 596q22 133 -43.5 208.5t-200.5 75.5h-202z" />
    <glyph glyph-name="dcaron" unicode="&#x10f;" 
d="M801 911l37 256l53 328h184l-237 -1495h-185l35 215h-2q-31 -109 -114 -172t-199 -63q-155 0 -228.5 109.5t-44.5 297.5l56 350q29 189 138 299.5t265 110.5q116 0 178.5 -63t57.5 -173h6zM1133 1126l59 369h184l-80 -369h-163zM717 399l51 328q20 123 -26 191.5
t-148 68.5q-101 0 -168.5 -68.5t-87.5 -191.5l-51 -328q-20 -123 26 -191.5t148 -68.5q101 0 168.5 68.5t87.5 191.5z" />
    <glyph glyph-name="Dcroat" unicode="&#x110;" 
d="M336 1495h387q216 0 324.5 -122t76.5 -326l-94 -596q-32 -206 -180 -328.5t-365 -122.5h-387l109 686h-187l25 154h186zM846 451l94 596q22 133 -43.5 208.5t-200.5 75.5h-202l-78 -491h202l-24 -154h-203l-82 -522h203q135 0 223.5 76t110.5 211z" />
    <glyph glyph-name="dcroat" unicode="&#x111;" 
d="M158 397l32 207q31 195 146 307.5t285 112.5q126 0 196.5 -63.5t67.5 -172.5h6l37 256l18 123h-340l25 154h340l28 174h185l-29 -174h193l-25 -154h-193l-184 -1167h-184l35 215h-4q-31 -110 -120 -172.5t-218 -62.5q-169 0 -248.5 111.5t-48.5 305.5zM373 594l-29 -184
q-22 -130 30 -200.5t169 -70.5q114 0 189 71.5t95 199.5l29 184q20 127 -32.5 198.5t-166.5 71.5q-117 0 -190.5 -70t-93.5 -200z" />
    <glyph glyph-name="Emacron" unicode="&#x112;" 
d="M1165 1720h-655l25 154h655zM975 0h-860l237 1495h860l-26 -168h-678l-74 -463h606l-26 -166h-606l-84 -530h677z" />
    <glyph glyph-name="emacron" unicode="&#x113;" 
d="M438 1526h656l-25 -154h-655zM707 1147q199 0 297.5 -117t66.5 -313l-31 -199h-688l-16 -108q-22 -134 31 -204.5t178 -70.5q214 0 270 152h184q-40 -141 -170 -224t-309 -83q-199 0 -297 117t-67 313l47 307q32 196 168.5 313t335.5 117zM883 657l8 60q22 134 -31 205
t-178 71t-201 -71t-98 -205l-8 -60h508z" />
    <glyph glyph-name="Ebreve" unicode="&#x114;" 
d="M825 1649q-147 0 -223.5 81.5t-56.5 215.5h143q-12 -80 30.5 -129.5t123.5 -49.5q83 0 141 49.5t70 129.5h147q-20 -133 -123.5 -215t-251.5 -82zM975 0h-860l237 1495h860l-26 -168h-678l-74 -463h606l-26 -166h-606l-84 -530h677z" />
    <glyph glyph-name="ebreve" unicode="&#x115;" 
d="M731 1311q-147 0 -223.5 81.5t-56.5 215.5h143q-12 -80 30 -129t124 -49q83 0 140.5 49t69.5 129h148q-20 -133 -123.5 -215t-251.5 -82zM707 1147q199 0 297.5 -117t66.5 -313l-31 -199h-688l-16 -108q-22 -134 31 -204.5t178 -70.5q214 0 270 152h184
q-40 -141 -170 -224t-309 -83q-199 0 -297 117t-67 313l47 307q32 196 168.5 313t335.5 117zM883 657l8 60q22 134 -31 205t-178 71t-201 -71t-98 -205l-8 -60h508z" />
    <glyph glyph-name="Edotaccent" unicode="&#x116;" 
d="M829 1671q-67 0 -100 35.5t-24 95.5q11 60 55.5 95.5t111.5 35.5t100.5 -35.5t22.5 -95.5q-9 -60 -54 -95.5t-112 -35.5zM975 0h-860l237 1495h860l-26 -168h-678l-74 -463h606l-26 -166h-606l-84 -530h677z" />
    <glyph glyph-name="edotaccent" unicode="&#x117;" 
d="M735 1329q-67 0 -100.5 34.5t-24.5 94.5q9 61 53.5 97t112.5 36q67 0 100.5 -35.5t24.5 -97.5q-9 -60 -53.5 -94.5t-112.5 -34.5zM707 1147q199 0 297.5 -117t66.5 -313l-31 -199h-688l-16 -108q-22 -134 31 -204.5t178 -70.5q214 0 270 152h184q-40 -141 -170 -224
t-309 -83q-199 0 -297 117t-67 313l47 307q32 196 168.5 313t335.5 117zM883 657l8 60q22 134 -31 205t-178 71t-201 -71t-98 -205l-8 -60h508z" />
    <glyph glyph-name="Eogonek" unicode="&#x118;" 
d="M1212 1495l-26 -168h-678l-74 -463h606l-26 -166h-606l-84 -530h677l-26 -168h-96q-146 -109 -160 -190q-6 -45 19.5 -74t76.5 -29h123l-18 -123h-160q-113 0 -173 53.5t-46 137.5q19 115 182 225h-608l237 1495h860z" />
    <glyph glyph-name="eogonek" unicode="&#x119;" 
d="M707 1147q199 0 297.5 -117t66.5 -313l-31 -199h-688l-16 -108q-22 -134 31 -204.5t178 -70.5q214 0 270 152h184q-24 -87 -85 -153t-148 -105l-37 -27q-147 -108 -162 -192q-6 -45 20 -74t77 -29h122l-18 -123h-160q-113 0 -173 53.5t-46 137.5q12 93 152 205h-21
q-199 0 -297 117t-67 313l47 307q32 196 168.5 313t335.5 117zM383 717l-8 -60h508l8 60q22 134 -31 205t-178 71t-201 -71t-98 -205z" />
    <glyph glyph-name="Ecaron" unicode="&#x11a;" 
d="M913 1659h-170l-241 287h198l144 -160l188 160h211zM975 0h-860l237 1495h860l-26 -168h-678l-74 -463h606l-26 -166h-606l-84 -530h677z" />
    <glyph glyph-name="ecaron" unicode="&#x11b;" 
d="M1151 1608l-330 -287h-170l-241 287h198l144 -160l188 160h211zM707 1147q199 0 297.5 -117t66.5 -313l-31 -199h-688l-16 -108q-22 -134 31 -204.5t178 -70.5q214 0 270 152h184q-40 -141 -170 -224t-309 -83q-199 0 -297 117t-67 313l47 307q32 196 168.5 313
t335.5 117zM883 657l8 60q22 134 -31 205t-178 71t-201 -71t-98 -205l-8 -60h508z" />
    <glyph glyph-name="Gcircumflex" unicode="&#x11c;" 
d="M627 1659h-211l329 287h170l242 -287h-199l-141 160zM528 -20q-205 0 -304.5 115t-67.5 315l106 675q32 201 169 316t341 115q201 0 301.5 -116.5t69.5 -314.5h-185q20 127 -36 196t-177 69q-122 0 -200.5 -68.5t-98.5 -194.5l-106 -677q-20 -127 36.5 -197t178.5 -70
q120 0 198.5 70t98.5 197l29 184h-303l26 168h488l-56 -352q-31 -197 -168.5 -313.5t-339.5 -116.5z" />
    <glyph glyph-name="gcircumflex" unicode="&#x11d;" 
d="M899 1321l-141 160l-191 -160h-211l330 287h170l242 -287h-199zM913 911l35 215h182l-184 -1167q-25 -153 -132.5 -240.5t-272.5 -87.5h-357l27 168h358q86 0 132.5 39t60.5 121l22 143l37 205h-4q-28 -109 -118 -172t-218 -63q-173 0 -256.5 113t-52.5 307l37 237
q31 192 150 305t292 113q127 0 197.5 -63.5t64.5 -172.5zM850 502l33 215q22 127 -33 198.5t-170 71.5q-117 0 -192 -70t-97 -200l-33 -215q-22 -130 31.5 -200.5t171.5 -70.5q114 0 191.5 72t97.5 199z" />
    <glyph glyph-name="Gbreve" unicode="&#x11e;" 
d="M784 1649q-147 0 -223.5 81.5t-56.5 215.5h143q-12 -80 30.5 -129.5t123.5 -49.5q83 0 141 49.5t70 129.5h147q-20 -133 -123.5 -215t-251.5 -82zM528 -20q-205 0 -304.5 115t-67.5 315l106 675q32 201 169 316t341 115q201 0 301.5 -116.5t69.5 -314.5h-185
q20 127 -36 196t-177 69q-122 0 -200.5 -68.5t-98.5 -194.5l-106 -677q-20 -127 36.5 -197t178.5 -70q120 0 198.5 70t98.5 197l29 184h-303l26 168h488l-56 -352q-31 -197 -168.5 -313.5t-339.5 -116.5z" />
    <glyph glyph-name="gbreve" unicode="&#x11f;" 
d="M725 1311q-147 0 -224 81.5t-57 215.5h144q-12 -80 30 -129t123 -49q83 0 141 49t70 129h148q-20 -133 -123.5 -215t-251.5 -82zM913 911l35 215h182l-184 -1167q-25 -153 -132.5 -240.5t-272.5 -87.5h-357l27 168h358q86 0 132.5 39t60.5 121l22 143l37 205h-4
q-28 -109 -118 -172t-218 -63q-173 0 -256.5 113t-52.5 307l37 237q31 192 150 305t292 113q127 0 197.5 -63.5t64.5 -172.5zM850 502l33 215q22 127 -33 198.5t-170 71.5q-117 0 -192 -70t-97 -200l-33 -215q-22 -130 31.5 -200.5t171.5 -70.5q114 0 191.5 72t97.5 199z
" />
    <glyph glyph-name="Gdotaccent" unicode="&#x120;" 
d="M788 1671q-67 0 -100 35.5t-24 95.5q11 60 55.5 95.5t111.5 35.5t100.5 -35.5t22.5 -95.5q-9 -60 -54 -95.5t-112 -35.5zM528 -20q-205 0 -304.5 115t-67.5 315l106 675q32 201 169 316t341 115q201 0 301.5 -116.5t69.5 -314.5h-185q20 127 -36 196t-177 69
q-122 0 -200.5 -68.5t-98.5 -194.5l-106 -677q-20 -127 36.5 -197t178.5 -70q120 0 198.5 70t98.5 197l29 184h-303l26 168h488l-56 -352q-31 -197 -168.5 -313.5t-339.5 -116.5z" />
    <glyph glyph-name="gdotaccent" unicode="&#x121;" 
d="M729 1329q-67 0 -100.5 34.5t-24.5 94.5q9 61 53.5 97t112.5 36q67 0 100.5 -35.5t24.5 -97.5q-9 -60 -53.5 -94.5t-112.5 -34.5zM913 911l35 215h182l-184 -1167q-25 -153 -132.5 -240.5t-272.5 -87.5h-357l27 168h358q86 0 132.5 39t60.5 121l22 143l37 205h-4
q-28 -109 -118 -172t-218 -63q-173 0 -256.5 113t-52.5 307l37 237q31 192 150 305t292 113q127 0 197.5 -63.5t64.5 -172.5zM850 502l33 215q22 127 -33 198.5t-170 71.5q-117 0 -192 -70t-97 -200l-33 -215q-22 -130 31.5 -200.5t171.5 -70.5q114 0 191.5 72t97.5 199z
" />
    <glyph glyph-name="uni0122" unicode="&#x122;" 
d="M528 -20q-205 0 -304.5 115t-67.5 315l106 675q32 201 169 316t341 115q201 0 301.5 -116.5t69.5 -314.5h-185q20 127 -36 196t-177 69q-122 0 -200.5 -68.5t-98.5 -194.5l-106 -677q-20 -127 36.5 -197t178.5 -70q120 0 198.5 70t98.5 197l29 184h-303l26 168h488
l-56 -352q-31 -197 -168.5 -313.5t-339.5 -116.5zM420 -492h-187l242 297h207z" />
    <glyph glyph-name="uni0123" unicode="&#x123;" 
d="M891 1802h141l-239 -481h-244zM913 911l35 215h182l-184 -1167q-25 -153 -132.5 -240.5t-272.5 -87.5h-357l27 168h358q86 0 132.5 39t60.5 121l22 143l37 205h-4q-28 -109 -118 -172t-218 -63q-173 0 -256.5 113t-52.5 307l37 237q31 192 150 305t292 113
q127 0 197.5 -63.5t64.5 -172.5zM850 502l33 215q22 127 -33 198.5t-170 71.5q-117 0 -192 -70t-97 -200l-33 -215q-22 -130 31.5 -200.5t171.5 -70.5q114 0 191.5 72t97.5 199z" />
    <glyph glyph-name="Hcircumflex" unicode="&#x124;" 
d="M627 1659h-211l329 287h170l242 -287h-199l-141 160zM285 0h-185l238 1495h184l-102 -639h479l102 639h185l-238 -1495h-184l108 688h-479z" />
    <glyph glyph-name="hcircumflex" unicode="&#x125;" 
d="M600 1649l-141 159l-191 -159h-211l330 286h170l242 -286h-199zM766 1147q169 0 253 -105t56 -284l-121 -758h-184l117 737q19 119 -34.5 186.5t-164.5 67.5q-116 0 -193.5 -72t-99.5 -202l-112 -717h-185l238 1495h184l-59 -369l-35 -215h4q31 112 119 174t217 62z" />
    <glyph glyph-name="Hbar" unicode="&#x126;" 
d="M1143 1229h170l-25 -154h-170l-170 -1075h-184l108 688h-479l-108 -688h-185l170 1075h-168l25 154h168l43 266h184l-43 -266h479l43 266h185zM420 856h479l35 219h-479z" />
    <glyph glyph-name="hbar" unicode="&#x127;" 
d="M283 1167h-189l25 154h188l29 174h184l-28 -174h344l-25 -154h-344l-25 -163l-34 -216h2q32 113 119 174.5t216 61.5q170 0 254.5 -105t55.5 -284l-101 -635h-184l98 614q19 119 -35 186.5t-165 67.5q-116 0 -193.5 -72t-97.5 -202l-94 -594h-185z" />
    <glyph glyph-name="Itilde" unicode="&#x128;" 
d="M932 1669q-45 0 -79.5 14.5t-55 35.5t-37 42.5t-37 36t-45.5 14.5q-63 0 -72 -71l-10 -62h-133l10 62q13 91 71.5 142.5t143.5 51.5q45 0 79.5 -14.5t55 -35.5t37 -42.5t37 -36t45.5 -14.5q60 0 72 72l10 61h133l-10 -61q-13 -91 -72 -143t-143 -52zM924 0h-799l27 168
h305l184 1159h-305l26 168h799l-26 -168h-306l-184 -1159h305z" />
    <glyph glyph-name="itilde" unicode="&#x129;" 
d="M807 1331q-45 0 -79.5 15t-55 36t-37 42t-37 36t-45.5 15q-62 0 -74 -72l-8 -62h-133l8 62q15 91 74 142.5t143 51.5q38 0 69 -10.5t49 -26.5t35 -34.5t29.5 -34.5t30.5 -26.5t39 -10.5q62 0 74 72l10 61h133l-10 -61q-15 -91 -73 -143t-142 -52zM831 0h-757l26 168h297
l125 790h-254l27 168h438l-151 -958h276z" />
    <glyph glyph-name="Imacron" unicode="&#x12a;" 
d="M1124 1720h-655l25 154h655zM924 0h-799l27 168h305l184 1159h-305l26 168h799l-26 -168h-306l-184 -1159h305z" />
    <glyph glyph-name="imacron" unicode="&#x12b;" horiz-adv-x="1024" 
d="M997 1372h-655l25 154h655zM831 0h-757l26 168h297l125 790h-254l27 168h438l-151 -958h276z" />
    <glyph glyph-name="Ibreve" unicode="&#x12c;" 
d="M784 1649q-147 0 -223.5 81.5t-56.5 215.5h143q-12 -80 30.5 -129.5t123.5 -49.5q83 0 141 49.5t70 129.5h147q-20 -133 -123.5 -215t-251.5 -82zM924 0h-799l27 168h305l184 1159h-305l26 168h799l-26 -168h-306l-184 -1159h305z" />
    <glyph glyph-name="ibreve" unicode="&#x12d;" 
d="M659 1311q-147 0 -223.5 81.5t-56.5 215.5h143q-12 -80 30 -129t124 -49q83 0 141 49t70 129h147q-20 -133 -123.5 -215t-251.5 -82zM831 0h-757l26 168h297l125 790h-254l27 168h438l-151 -958h276z" />
    <glyph glyph-name="Iogonek" unicode="&#x12e;" 
d="M1161 1495l-26 -168h-306l-184 -1159h305l-26 -168h-332q-146 -109 -160 -190q-6 -45 19.5 -74t76.5 -29h123l-18 -123h-160q-113 0 -173 53.5t-46 137.5q19 115 182 225h-311l27 168h305l184 1159h-305l26 168h799z" />
    <glyph glyph-name="iogonek" unicode="&#x12f;" horiz-adv-x="1024" 
d="M664 1329q-67 0 -100.5 34.5t-24.5 94.5q9 61 53.5 97t112.5 36q67 0 100 -35.5t24 -97.5q-9 -60 -53 -94.5t-112 -34.5zM831 0h-272q-146 -109 -160 -190q-6 -45 20 -74t77 -29h122l-18 -123h-160q-113 0 -173 53.5t-46 137.5q19 115 182 225h-329l26 168h297l125 790
h-254l27 168h438l-151 -958h276z" />
    <glyph glyph-name="Idotaccent" unicode="&#x130;" 
d="M788 1671q-67 0 -100 35.5t-24 95.5q11 60 55.5 95.5t111.5 35.5t100.5 -35.5t22.5 -95.5q-9 -60 -54 -95.5t-112 -35.5zM924 0h-799l27 168h305l184 1159h-305l26 168h799l-26 -168h-306l-184 -1159h305z" />
    <glyph glyph-name="dotlessi" unicode="&#x131;" horiz-adv-x="1024" 
d="M831 0h-757l26 168h297l125 790h-254l27 168h438l-151 -958h276z" />
    <glyph glyph-name="Jcircumflex" unicode="&#x134;" 
d="M750 1659h-211l329 287h170l242 -287h-199l-141 160zM459 -20q-215 0 -318 120t-71 330h184q-22 -136 39 -211.5t192 -75.5t215.5 75.5t106.5 211.5l143 897h-420l27 168h604l-170 -1065q-34 -215 -172.5 -332.5t-359.5 -117.5z" />
    <glyph glyph-name="jcircumflex" unicode="&#x135;" horiz-adv-x="819" 
d="M365 1321h-211l329 287h170l242 -287h-199l-141 160zM29 -369h-131l28 170h131q128 0 209 68t101 194l141 895h-338l27 168h522l-168 -1063q-31 -198 -173 -315t-349 -117z" />
    <glyph glyph-name="uni0136" unicode="&#x136;" 
d="M283 0h-185l238 1495h184l-102 -641h217l434 641h205l-486 -725l269 -770h-205l-238 692h-221zM412 -492h-187l242 297h207z" />
    <glyph glyph-name="uni0137" unicode="&#x137;" 
d="M289 0h-185l238 1495h184l-133 -833h193l401 464h215l-463 -542l291 -584h-211l-248 502h-202zM416 -492h-195l242 297h215z" />
    <glyph glyph-name="kgreenlandic" unicode="&#x138;" 
d="M293 0h-184l178 1126h184l-74 -464h189l401 464h215l-463 -542l291 -584h-211l-248 502h-198z" />
    <glyph glyph-name="Lacute" unicode="&#x139;" 
d="M616 1659h-198l262 287h209zM1047 0h-861l238 1495h184l-211 -1327h676z" />
    <glyph glyph-name="lacute" unicode="&#x13a;" horiz-adv-x="819" 
d="M578 1659h-199l262 287h209zM672 0h-174q-149 0 -224.5 86t-52.5 231l160 1010h-236l27 168h420l-186 -1178q-11 -69 20.5 -109t97.5 -40h174z" />
    <glyph glyph-name="uni013B" unicode="&#x13b;" 
d="M1047 0h-861l238 1495h184l-211 -1327h676zM494 -492h-187l242 297h207z" />
    <glyph glyph-name="uni013C" unicode="&#x13c;" horiz-adv-x="819" 
d="M672 0h-174q-149 0 -224.5 86t-52.5 231l160 1010h-236l27 168h420l-186 -1178q-11 -69 20.5 -109t97.5 -40h174zM223 -492h-194l241 297h215z" />
    <glyph glyph-name="Lcaron" unicode="&#x13d;" 
d="M1530 1495h-154l80 369h174zM1047 0h-861l238 1495h184l-211 -1327h676z" />
    <glyph glyph-name="lcaron" unicode="&#x13e;" horiz-adv-x="819" 
d="M891 1495h-154l80 369h174zM672 0h-174q-149 0 -224.5 86t-52.5 231l160 1010h-236l27 168h420l-186 -1178q-11 -69 20.5 -109t97.5 -40h174z" />
    <glyph glyph-name="Ldot" unicode="&#x13f;" 
d="M473 639l-76 -471h676l-26 -168h-861l238 1495h184l-112 -713q25 48 70.5 74.5t103.5 26.5q78 0 115.5 -47t25.5 -127q-12 -76 -65.5 -121t-131.5 -45q-58 0 -95 25t-46 71z" />
    <glyph glyph-name="ldot" unicode="&#x140;" 
d="M631 0h-174q-149 0 -224.5 86t-52.5 231l160 1010h-236l27 168h420l-186 -1178q-11 -69 20.5 -109t97.5 -40h174zM881 543q-78 0 -117 45t-27 121q12 79 66.5 126.5t132.5 47.5t115.5 -47t25.5 -127q-12 -76 -65 -121t-131 -45z" />
    <glyph glyph-name="Lslash" unicode="&#x141;" 
d="M489 752l-92 -584h676l-26 -168h-861l99 625l-260 -162l26 172l262 162l111 698h184l-90 -571l373 231l-27 -172z" />
    <glyph glyph-name="lslash" unicode="&#x142;" horiz-adv-x="819" 
d="M799 983l-322 -217l-71 -449q-11 -69 20.5 -109t97.5 -40h174l-26 -168h-174q-149 0 -224.5 86t-52.5 231l49 310l-229 -156v164l258 174l82 518h-236l27 168h420l-86 -547l293 199v-164z" />
    <glyph glyph-name="Nacute" unicode="&#x143;" 
d="M860 1659h-198l262 287h209zM272 0h-178l238 1495h243l256 -1280q13 219 50 440l133 840h178l-238 -1495h-243l-254 1280q-21 -258 -51 -440z" />
    <glyph glyph-name="nacute" unicode="&#x144;" 
d="M872 1608h209l-272 -287h-199zM766 1147q169 0 253 -105t56 -284l-121 -758h-184l117 737q19 119 -34.5 186.5t-164.5 67.5q-116 0 -193.5 -72t-99.5 -202l-112 -717h-185l178 1126h185l-35 -215h4q31 112 119 174t217 62z" />
    <glyph glyph-name="uni0145" unicode="&#x145;" 
d="M272 0h-178l238 1495h243l256 -1280q13 219 50 440l133 840h178l-238 -1495h-243l-254 1280q-21 -258 -51 -440zM416 -492h-195l242 297h215z" />
    <glyph glyph-name="uni0146" unicode="&#x146;" 
d="M766 1147q169 0 253 -105t56 -284l-121 -758h-184l117 737q19 119 -34.5 186.5t-164.5 67.5q-116 0 -193.5 -72t-99.5 -202l-112 -717h-185l178 1126h185l-35 -215h4q31 112 119 174t217 62zM416 -492h-195l242 297h215z" />
    <glyph glyph-name="Ncaron" unicode="&#x147;" 
d="M872 1659h-170l-241 287h198l144 -160l188 160h211zM272 0h-178l238 1495h243l256 -1280q13 219 50 440l133 840h178l-238 -1495h-243l-254 1280q-21 -258 -51 -440z" />
    <glyph glyph-name="ncaron" unicode="&#x148;" 
d="M1153 1608l-330 -287h-170l-241 287h198l144 -160l188 160h211zM766 1147q169 0 253 -105t56 -284l-121 -758h-184l117 737q19 119 -34.5 186.5t-164.5 67.5q-116 0 -193.5 -72t-99.5 -202l-112 -717h-185l178 1126h185l-35 -215h4q31 112 119 174t217 62z" />
    <glyph glyph-name="napostrophe" unicode="&#x149;" 
d="M319 1618h216l-263 -297h-194zM766 1147q169 0 253 -105t56 -284l-121 -758h-184l117 737q19 119 -34.5 186.5t-164.5 67.5q-116 0 -193.5 -72t-99.5 -202l-112 -717h-185l178 1126h185l-35 -215h4q31 112 119 174t217 62z" />
    <glyph glyph-name="Eng" unicode="&#x14a;" 
d="M475 -369h-133l27 168h133q109 0 182 62.5t90 169.5l-317 1249q-21 -258 -51 -440l-134 -840h-178l238 1495h241l283 -1128q23 287 49 446l109 682h178l-234 -1464q-29 -182 -161 -291t-322 -109z" />
    <glyph glyph-name="eng" unicode="&#x14b;" 
d="M766 1147q169 0 251 -104.5t54 -284.5l-117 -727q-28 -181 -160 -290.5t-323 -109.5h-129l27 168h129q109 0 182 62.5t90 169.5l113 706q19 120 -33 187t-162 67q-116 0 -191.5 -72t-97.5 -202l-112 -717h-185l179 1126h184l-35 -215h4q31 113 117 174.5t215 61.5z" />
    <glyph glyph-name="Omacron" unicode="&#x14c;" 
d="M1124 1720h-655l25 154h655zM520 -20q-201 0 -298.5 114.5t-65.5 315.5l106 675q32 201 166.5 316t335.5 115t299 -114.5t67 -314.5l-106 -677q-32 -200 -167 -315t-337 -115zM547 145q120 0 196.5 69t96.5 196l106 675q20 127 -34.5 196t-174.5 69t-195.5 -68.5
t-95.5 -196.5l-106 -675q-20 -128 33.5 -196.5t173.5 -68.5z" />
    <glyph glyph-name="omacron" unicode="&#x14d;" 
d="M1069 1372h-655l24 154h656zM520 -20q-201 0 -298.5 114.5t-65.5 315.5l47 307q32 200 167 315t337 115q201 0 299 -114.5t67 -313.5l-49 -309q-32 -200 -167 -315t-337 -115zM547 143q120 0 195.5 68.5t97.5 198.5l47 307q22 130 -32 198t-175 68q-120 0 -195.5 -68
t-97.5 -198l-47 -307q-22 -130 32 -198.5t175 -68.5z" />
    <glyph glyph-name="Obreve" unicode="&#x14e;" 
d="M784 1649q-147 0 -223.5 81.5t-56.5 215.5h143q-12 -80 30.5 -129.5t123.5 -49.5q83 0 141 49.5t70 129.5h147q-20 -133 -123.5 -215t-251.5 -82zM520 -20q-201 0 -298.5 114.5t-65.5 315.5l106 675q32 201 166.5 316t335.5 115t299 -114.5t67 -314.5l-106 -677
q-32 -200 -167 -315t-337 -115zM547 145q120 0 196.5 69t96.5 196l106 675q20 127 -34.5 196t-174.5 69t-195.5 -68.5t-95.5 -196.5l-106 -675q-20 -128 33.5 -196.5t173.5 -68.5z" />
    <glyph glyph-name="obreve" unicode="&#x14f;" 
d="M731 1311q-147 0 -223.5 81.5t-56.5 215.5h143q-12 -80 30 -129t124 -49q83 0 140.5 49t69.5 129h148q-20 -133 -123.5 -215t-251.5 -82zM520 -20q-201 0 -298.5 114.5t-65.5 315.5l47 307q32 200 167 315t337 115q201 0 299 -114.5t67 -313.5l-49 -309
q-32 -200 -167 -315t-337 -115zM547 143q120 0 195.5 68.5t97.5 198.5l47 307q22 130 -32 198t-175 68q-120 0 -195.5 -68t-97.5 -198l-47 -307q-22 -130 32 -198.5t175 -68.5z" />
    <glyph glyph-name="Ohungarumlaut" unicode="&#x150;" 
d="M651 1659h-184l270 287h195zM1024 1659h-184l270 287h195zM520 -20q-201 0 -298.5 114.5t-65.5 315.5l106 675q32 201 166.5 316t335.5 115t299 -114.5t67 -314.5l-106 -677q-32 -200 -167 -315t-337 -115zM547 145q120 0 196.5 69t96.5 196l106 675q20 127 -34.5 196
t-174.5 69t-195.5 -68.5t-95.5 -196.5l-106 -675q-20 -128 33.5 -196.5t173.5 -68.5z" />
    <glyph glyph-name="ohungarumlaut" unicode="&#x151;" 
d="M598 1321h-182l270 287h193zM969 1321h-183l271 287h192zM520 -20q-201 0 -298.5 114.5t-65.5 315.5l47 307q32 200 167 315t337 115q201 0 299 -114.5t67 -313.5l-49 -309q-32 -200 -167 -315t-337 -115zM547 143q120 0 195.5 68.5t97.5 198.5l47 307q22 130 -32 198
t-175 68q-120 0 -195.5 -68t-97.5 -198l-47 -307q-22 -130 32 -198.5t175 -68.5z" />
    <glyph glyph-name="OE" unicode="&#x152;" 
d="M305 -20q-148 0 -215.5 104.5t-38.5 284.5l119 757q29 181 130.5 285.5t248.5 104.5q97 0 146.5 -57.5t49.5 -127.5h11l26 164h543l-27 -168h-362l-76 -471h311l-26 -168h-311l-82 -520h362l-27 -168h-542l26 164h-10q-24 -71 -91.5 -127.5t-164.5 -56.5zM383 143
q86 0 145 60.5t76 165.5l119 757q17 104 -22.5 165t-125.5 61t-145 -60.5t-76 -165.5l-118 -757q-17 -105 22 -165.5t125 -60.5z" />
    <glyph glyph-name="oe" unicode="&#x153;" 
d="M274 -20q-137 0 -202.5 88t-40.5 239l80 512q25 151 119.5 239.5t230.5 88.5q112 0 165.5 -51t49.5 -113h8q14 62 84.5 113t183.5 51q137 0 203 -88.5t41 -239.5l-47 -307h-455l-32 -205q-12 -78 17.5 -124t92.5 -46q52 0 94.5 32.5t61.5 86.5h174q-40 -127 -131 -201.5
t-205 -74.5q-112 0 -165.5 50.5t-49.5 112.5h-8q-14 -61 -85 -112t-184 -51zM322 137q63 0 107 46t56 124l80 512q12 78 -17.5 124t-92.5 46q-66 0 -112 -46t-58 -124l-80 -512q-12 -78 19.5 -124t97.5 -46zM741 819l-24 -157h280l25 157q12 78 -19.5 124t-97.5 46
q-63 0 -107.5 -46t-56.5 -124z" />
    <glyph glyph-name="Racute" unicode="&#x154;" 
d="M924 1946h209l-273 -287h-198zM336 1495h463q199 0 302.5 -119t72.5 -311q-23 -154 -120 -263t-243 -149l215 -653h-209l-194 635h-240l-100 -635h-185zM983 1065q20 119 -38 191.5t-173 72.5h-278l-84 -528h278q115 0 195.5 72t99.5 192z" />
    <glyph glyph-name="racute" unicode="&#x155;" 
d="M911 1608h209l-272 -287h-199zM797 1147q178 0 265 -111.5t58 -302.5l-12 -67h-184l8 51q22 132 -31 203t-172 71q-117 0 -195 -72t-100 -202l-112 -717h-185l178 1126h181l-33 -204q89 225 334 225z" />
    <glyph glyph-name="uni0156" unicode="&#x156;" 
d="M336 1495h463q199 0 302.5 -119t72.5 -311q-23 -154 -120 -263t-243 -149l215 -653h-209l-194 635h-240l-100 -635h-185zM983 1065q20 119 -38 191.5t-173 72.5h-278l-84 -528h278q115 0 195.5 72t99.5 192zM416 -492h-195l242 297h215z" />
    <glyph glyph-name="uni0157" unicode="&#x157;" 
d="M797 1147q178 0 265 -111.5t58 -302.5l-12 -67h-184l8 51q22 132 -31 203t-172 71q-117 0 -195 -72t-100 -202l-112 -717h-185l178 1126h181l-33 -204q89 225 334 225zM78 -492h-195l242 297h215z" />
    <glyph glyph-name="Rcaron" unicode="&#x158;" 
d="M1202 1946l-330 -287h-170l-241 287h198l144 -160l188 160h211zM336 1495h463q199 0 302.5 -119t72.5 -311q-23 -154 -120 -263t-243 -149l215 -653h-209l-194 635h-240l-100 -635h-185zM983 1065q20 119 -38 191.5t-173 72.5h-278l-84 -528h278q115 0 195.5 72t99.5 192
z" />
    <glyph glyph-name="rcaron" unicode="&#x159;" 
d="M1192 1608l-330 -287h-170l-241 287h198l144 -160l188 160h211zM797 1147q178 0 265 -111.5t58 -302.5l-12 -67h-184l8 51q22 132 -31 203t-172 71q-117 0 -195 -72t-100 -202l-112 -717h-185l178 1126h181l-33 -204q89 225 334 225z" />
    <glyph glyph-name="Sacute" unicode="&#x15a;" 
d="M860 1659h-198l262 287h209zM528 -20q-219 0 -328 109t-81 300h184q-19 -114 47.5 -179t204.5 -65q129 0 211.5 63.5t101.5 176.5q14 96 -24 164t-119 94l-193 64q-143 46 -211.5 154.5t-46.5 256.5q29 181 166 290.5t336 109.5q196 0 297.5 -110t75.5 -292h-184
q19 111 -37.5 173.5t-177.5 62.5q-120 0 -196 -58t-91 -159q-15 -96 23 -165.5t122 -97.5l195 -65q141 -47 207 -158t43 -260q-29 -184 -174 -296.5t-351 -112.5z" />
    <glyph glyph-name="sacute" unicode="&#x15b;" 
d="M809 1321h-199l262 287h209zM561 -20h-86q-171 0 -262.5 79.5t-85.5 216.5h184q3 -61 52.5 -97t138.5 -36h86q105 0 167 45t74 121q21 144 -161 174l-148 25q-164 27 -232.5 102t-45.5 215q24 153 135.5 237.5t300.5 84.5h78q159 0 246.5 -77t87.5 -208h-185
q-5 56 -50 88.5t-126 32.5h-78q-200 0 -225 -160q-10 -69 23 -104t120 -49l148 -25q179 -30 250.5 -106t48.5 -222q-27 -160 -143 -248.5t-312 -88.5z" />
    <glyph glyph-name="Scircumflex" unicode="&#x15c;" 
d="M627 1659h-211l329 287h170l242 -287h-199l-141 160zM528 -20q-219 0 -328 109t-81 300h184q-19 -114 47.5 -179t204.5 -65q129 0 211.5 63.5t101.5 176.5q14 96 -24 164t-119 94l-193 64q-143 46 -211.5 154.5t-46.5 256.5q29 181 166 290.5t336 109.5q196 0 297.5 -110
t75.5 -292h-184q19 111 -37.5 173.5t-177.5 62.5q-120 0 -196 -58t-91 -159q-15 -96 23 -165.5t122 -97.5l195 -65q141 -47 207 -158t43 -260q-29 -184 -174 -296.5t-351 -112.5z" />
    <glyph glyph-name="scircumflex" unicode="&#x15d;" 
d="M575 1321h-210l329 287h170l242 -287h-199l-141 160zM561 -20h-86q-171 0 -262.5 79.5t-85.5 216.5h184q3 -61 52.5 -97t138.5 -36h86q105 0 167 45t74 121q21 144 -161 174l-148 25q-164 27 -232.5 102t-45.5 215q24 153 135.5 237.5t300.5 84.5h78q159 0 246.5 -77
t87.5 -208h-185q-5 56 -50 88.5t-126 32.5h-78q-200 0 -225 -160q-10 -69 23 -104t120 -49l148 -25q179 -30 250.5 -106t48.5 -222q-27 -160 -143 -248.5t-312 -88.5z" />
    <glyph glyph-name="Scedilla" unicode="&#x15e;" 
d="M1149 1116h-184q19 111 -37.5 173.5t-177.5 62.5q-120 0 -196 -58t-91 -159q-15 -96 23 -165.5t122 -97.5l195 -65q141 -47 207 -158t43 -260q-29 -184 -174 -296.5t-351 -112.5h-10l-26 -52q58 -7 108 -26.5t84.5 -58.5t26.5 -89q-11 -72 -87.5 -121t-185.5 -49h-174
l19 113h143q43 0 74.5 22.5t36.5 51.5q6 37 -48 62.5t-153 25.5l70 131q-160 29 -235 133.5t-52 265.5h184q-19 -114 47.5 -179t204.5 -65q129 0 211.5 63.5t101.5 176.5q14 96 -24 164t-119 94l-193 64q-143 46 -211.5 154.5t-46.5 256.5q29 181 166 290.5t336 109.5
q196 0 297.5 -110t75.5 -292z" />
    <glyph glyph-name="scedilla" unicode="&#x15f;" 
d="M569 670l148 -25q179 -30 250.5 -106t48.5 -222q-24 -144 -121.5 -231t-261.5 -102l-19 -56q58 -7 111.5 -26.5t94 -58.5t40.5 -89q0 -72 -69 -121t-177 -49h-174v113h144q43 0 71.5 22.5t28.5 51.5q0 37 -58 62.5t-157 25.5l45 121h-39q-171 0 -262.5 79.5t-85.5 216.5
h184q3 -61 52.5 -97t138.5 -36h86q105 0 167 45t74 121q21 144 -161 174l-148 25q-164 27 -232.5 102t-45.5 215q24 153 135.5 237.5t300.5 84.5h78q159 0 246.5 -77t87.5 -208h-185q-5 56 -50 88.5t-126 32.5h-78q-200 0 -225 -160q-10 -69 23 -104t120 -49z" />
    <glyph glyph-name="Scaron" unicode="&#x160;" 
d="M872 1659h-170l-241 287h198l144 -160l188 160h211zM528 -20q-219 0 -328 109t-81 300h184q-19 -114 47.5 -179t204.5 -65q129 0 211.5 63.5t101.5 176.5q14 96 -24 164t-119 94l-193 64q-143 46 -211.5 154.5t-46.5 256.5q29 181 166 290.5t336 109.5q196 0 297.5 -110
t75.5 -292h-184q19 111 -37.5 173.5t-177.5 62.5q-120 0 -196 -58t-91 -159q-15 -96 23 -165.5t122 -97.5l195 -65q141 -47 207 -158t43 -260q-29 -184 -174 -296.5t-351 -112.5z" />
    <glyph glyph-name="scaron" unicode="&#x161;" 
d="M823 1321h-170l-241 287h198l144 -160l188 160h211zM561 -20h-86q-171 0 -262.5 79.5t-85.5 216.5h184q3 -61 52.5 -97t138.5 -36h86q105 0 167 45t74 121q21 144 -161 174l-148 25q-164 27 -232.5 102t-45.5 215q24 153 135.5 237.5t300.5 84.5h78q159 0 246.5 -77
t87.5 -208h-185q-5 56 -50 88.5t-126 32.5h-78q-200 0 -225 -160q-10 -69 23 -104t120 -49l148 -25q179 -30 250.5 -106t48.5 -222q-27 -160 -143 -248.5t-312 -88.5z" />
    <glyph glyph-name="uni0162" unicode="&#x162;" 
d="M233 1327l27 168h1004l-27 -168h-410l-211 -1327l-36 -72q58 -7 108 -26.5t84.5 -58.5t26.5 -89q-11 -72 -87.5 -121t-185.5 -49h-174l19 113h143q43 0 74.5 22.5t36.5 51.5q6 37 -48 62.5t-153 25.5l74 141h-66l211 1327h-410z" />
    <glyph glyph-name="uni0163" unicode="&#x163;" horiz-adv-x="1024" 
d="M936 958h-369l-104 -661q-11 -66 14 -97.5t88 -31.5h226l-27 -168h-207l-25 -72q58 -7 111.5 -26.5t94 -58.5t40.5 -89q0 -72 -69 -121t-177 -49h-174v113h144q43 0 71.5 22.5t28.5 51.5q0 37 -58 62.5t-157 25.5l55 151q-97 23 -139.5 97.5t-23.5 189.5l104 661h-256
l27 168h256l49 308h184l-49 -308h369z" />
    <glyph glyph-name="Tcaron" unicode="&#x164;" 
d="M872 1659h-170l-241 287h198l144 -160l188 160h211zM616 0h-184l211 1327h-410l27 168h1004l-27 -168h-410z" />
    <glyph glyph-name="tcaron" unicode="&#x165;" horiz-adv-x="1024" 
d="M940 1270h-176l235 319h197zM764 0h-225q-146 0 -214.5 78t-45.5 219l104 661h-256l27 168h256l49 308h184l-49 -308h369l-27 -168h-369l-104 -661q-11 -66 14 -97.5t88 -31.5h226z" />
    <glyph glyph-name="Tbar" unicode="&#x166;" 
d="M1264 1495l-27 -168h-410l-90 -569h297l-24 -154h-297l-97 -604h-184l96 604h-297l25 154h297l90 569h-410l27 168h1004z" />
    <glyph glyph-name="tbar" unicode="&#x167;" horiz-adv-x="1024" 
d="M963 1126l-27 -168h-369l-49 -315h359l-25 -154h-358l-31 -192q-11 -66 14 -97.5t88 -31.5h226l-27 -168h-225q-146 0 -214.5 78t-45.5 219l30 192h-256l25 154h256l49 315h-256l27 168h256l49 308h184l-49 -308h369z" />
    <glyph glyph-name="Utilde" unicode="&#x168;" 
d="M932 1669q-45 0 -79.5 14.5t-55 35.5t-37 42.5t-37 36t-45.5 14.5q-63 0 -72 -71l-10 -62h-133l10 62q13 91 71.5 142.5t143.5 51.5q45 0 79.5 -14.5t55 -35.5t37 -42.5t37 -36t45.5 -14.5q60 0 72 72l10 61h133l-10 -61q-13 -91 -72 -143t-143 -52zM520 -20
q-207 0 -300 114t-60 316l172 1085h184l-172 -1085q-21 -126 30 -196.5t173 -70.5q121 0 194.5 70.5t94.5 196.5l172 1085h184l-172 -1085q-33 -203 -162 -316.5t-338 -113.5z" />
    <glyph glyph-name="utilde" unicode="&#x169;" 
d="M879 1331q-45 0 -79.5 15t-55 36t-37 42t-37 36t-45.5 15q-62 0 -74 -72l-8 -62h-133l8 62q15 91 74 142.5t143 51.5q38 0 69 -10.5t49 -26.5t35 -34.5t29.5 -34.5t30.5 -26.5t39 -10.5q62 0 74 72l10 61h133l-10 -61q-15 -91 -73 -143t-142 -52zM518 -20
q-195 0 -292 116t-66 314l112 716h185l-113 -716q-20 -127 33.5 -198t167.5 -71q116 0 193.5 71t97.5 198l112 716h185l-113 -716q-31 -197 -168.5 -313.5t-333.5 -116.5z" />
    <glyph glyph-name="Umacron" unicode="&#x16a;" 
d="M1124 1720h-655l25 154h655zM520 -20q-207 0 -300 114t-60 316l172 1085h184l-172 -1085q-21 -126 30 -196.5t173 -70.5q121 0 194.5 70.5t94.5 196.5l172 1085h184l-172 -1085q-33 -203 -162 -316.5t-338 -113.5z" />
    <glyph glyph-name="umacron" unicode="&#x16b;" 
d="M1069 1372h-655l24 154h656zM518 -20q-195 0 -292 116t-66 314l112 716h185l-113 -716q-20 -127 33.5 -198t167.5 -71q116 0 193.5 71t97.5 198l112 716h185l-113 -716q-31 -197 -168.5 -313.5t-333.5 -116.5z" />
    <glyph glyph-name="Ubreve" unicode="&#x16c;" 
d="M784 1649q-147 0 -223.5 81.5t-56.5 215.5h143q-12 -80 30.5 -129.5t123.5 -49.5q83 0 141 49.5t70 129.5h147q-20 -133 -123.5 -215t-251.5 -82zM520 -20q-207 0 -300 114t-60 316l172 1085h184l-172 -1085q-21 -126 30 -196.5t173 -70.5q121 0 194.5 70.5t94.5 196.5
l172 1085h184l-172 -1085q-33 -203 -162 -316.5t-338 -113.5z" />
    <glyph glyph-name="ubreve" unicode="&#x16d;" 
d="M731 1311q-147 0 -223.5 81.5t-56.5 215.5h143q-12 -80 30 -129t124 -49q83 0 140.5 49t69.5 129h148q-20 -133 -123.5 -215t-251.5 -82zM518 -20q-195 0 -292 116t-66 314l112 716h185l-113 -716q-20 -127 33.5 -198t167.5 -71q116 0 193.5 71t97.5 198l112 716h185
l-113 -716q-31 -197 -168.5 -313.5t-333.5 -116.5z" />
    <glyph glyph-name="Uring" unicode="&#x16e;" 
d="M772 1569q-110 0 -167 64t-42 169q17 105 95 169.5t188 64.5t168 -65t41 -169q-15 -104 -93.5 -168.5t-189.5 -64.5zM791 1677q56 0 95 34t46 91q9 57 -19.5 92t-83.5 35t-94.5 -35t-48.5 -92q-8 -57 21 -91t84 -34zM520 -20q-207 0 -300 114t-60 316l172 1085h184
l-172 -1085q-21 -126 30 -196.5t173 -70.5q121 0 194.5 70.5t94.5 196.5l172 1085h184l-172 -1085q-33 -203 -162 -316.5t-338 -113.5z" />
    <glyph glyph-name="uring" unicode="&#x16f;" 
d="M721 1245q-110 0 -167 64.5t-42 169.5q17 104 95 168.5t188 64.5t168 -64.5t41 -168.5q-15 -104 -94 -169t-189 -65zM739 1354q56 0 94.5 34t47.5 91t-19.5 92t-83.5 35t-94.5 -35t-48.5 -92t19.5 -91t84.5 -34zM518 -20q-195 0 -292 116t-66 314l112 716h185l-113 -716
q-20 -127 33.5 -198t167.5 -71q116 0 193.5 71t97.5 198l112 716h185l-113 -716q-31 -197 -168.5 -313.5t-333.5 -116.5z" />
    <glyph glyph-name="Uhungarumlaut" unicode="&#x170;" 
d="M651 1659h-184l270 287h195zM1024 1659h-184l270 287h195zM520 -20q-207 0 -300 114t-60 316l172 1085h184l-172 -1085q-21 -126 30 -196.5t173 -70.5q121 0 194.5 70.5t94.5 196.5l172 1085h184l-172 -1085q-33 -203 -162 -316.5t-338 -113.5z" />
    <glyph glyph-name="uhungarumlaut" unicode="&#x171;" 
d="M598 1321h-182l270 287h193zM969 1321h-183l271 287h192zM518 -20q-195 0 -292 116t-66 314l112 716h185l-113 -716q-20 -127 33.5 -198t167.5 -71q116 0 193.5 71t97.5 198l112 716h185l-113 -716q-31 -197 -168.5 -313.5t-333.5 -116.5z" />
    <glyph glyph-name="Uogonek" unicode="&#x172;" 
d="M780 -416h-159q-113 0 -173.5 53.5t-46.5 137.5q13 91 146 205h-27q-201 0 -296.5 114.5t-63.5 315.5l172 1085h184l-172 -1085q-20 -128 32 -196.5t171 -68.5q120 0 194.5 68.5t94.5 196.5l172 1085h184l-172 -1085q-42 -251 -221 -359l-68 -49q-135 -101 -151 -192
q-6 -45 19.5 -74t76.5 -29h123z" />
    <glyph glyph-name="uogonek" unicode="&#x173;" 
d="M766 -416h-160q-113 0 -173 53.5t-46 137.5q13 95 152 205h-19q-201 0 -296.5 114.5t-63.5 315.5l112 716h185l-113 -716q-22 -130 30.5 -198.5t172.5 -68.5t193.5 68t95.5 199l112 716h185l-113 -716q-41 -260 -238 -367l-55 -41q-147 -108 -162 -192q-6 -45 20 -74
t77 -29h122z" />
    <glyph glyph-name="Wcircumflex" unicode="&#x174;" 
d="M627 1659h-211l329 287h170l242 -287h-199l-141 160zM365 0h-232l66 1495h172l-64 -1106q-13 -189 -22 -256q5 17 28 110.5t39 145.5l316 1106h194l-49 -1106q-10 -232 -12 -256q62 252 63 256l293 1106h168l-414 -1495h-231l51 1126q6 147 14 240q-4 -15 -26.5 -101
t-38.5 -139z" />
    <glyph glyph-name="wcircumflex" unicode="&#x175;" 
d="M573 1321h-211l330 287h170l242 -287h-199l-141 160zM365 0h-203l-2 1126h157l-14 -798q-1 -28 -2 -95t-2 -90l57 185l254 798h181l-3 -798v-185l58 185l244 798h155l-366 -1126h-203l2 778v205q-19 -69 -64 -205z" />
    <glyph glyph-name="Ycircumflex" unicode="&#x176;" 
d="M627 1659h-211l329 287h170l242 -287h-199l-141 160zM616 0h-184l88 559l-301 936h187l198 -614q33 -97 37 -140q32 64 80 140l389 614h195l-600 -936z" />
    <glyph glyph-name="ycircumflex" unicode="&#x177;" 
d="M905 1321l-141 160l-191 -160h-211l330 287h170l242 -287h-199zM852 512l96 614h185l-187 -1167q-23 -152 -131 -240t-274 -88h-357l27 168h358q87 0 134 38.5t59 121.5l24 154l35 204h-4q-31 -112 -119 -173.5t-217 -61.5q-170 0 -254 105t-55 284l104 655h185
l-101 -634q-20 -119 34 -186.5t165 -67.5q116 0 194.5 72.5t98.5 201.5z" />
    <glyph glyph-name="Ydieresis" unicode="&#x178;" 
d="M561 1673q-60 0 -89.5 34.5t-20.5 94.5q10 61 51.5 97t101.5 36t89.5 -36t19.5 -97q-9 -60 -50.5 -94.5t-101.5 -34.5zM1016 1673q-60 0 -90 34.5t-21 94.5q10 61 52 97t102 36t89 -36t19 -97q-9 -60 -50 -94.5t-101 -34.5zM616 0h-184l88 559l-301 936h187l198 -614
q33 -97 37 -140q32 64 80 140l389 614h195l-600 -936z" />
    <glyph glyph-name="Zacute" unicode="&#x179;" 
d="M860 1659h-198l262 287h209zM965 0h-881l29 184l850 1143h-658l27 168h850l-31 -184l-848 -1143h688z" />
    <glyph glyph-name="zacute" unicode="&#x17a;" 
d="M807 1321h-199l262 287h209zM954 0h-860l29 184l745 774h-606l27 168h821l-29 -184l-757 -774h657z" />
    <glyph glyph-name="Zdotaccent" unicode="&#x17b;" 
d="M788 1671q-67 0 -100 35.5t-24 95.5q11 60 55.5 95.5t111.5 35.5t100.5 -35.5t22.5 -95.5q-9 -60 -54 -95.5t-112 -35.5zM965 0h-881l29 184l850 1143h-658l27 168h850l-31 -184l-848 -1143h688z" />
    <glyph glyph-name="zdotaccent" unicode="&#x17c;" 
d="M735 1329q-67 0 -100.5 34.5t-24.5 94.5q9 61 53.5 97t112.5 36q67 0 100.5 -35.5t24.5 -97.5q-9 -60 -53.5 -94.5t-112.5 -34.5zM954 0h-860l29 184l745 774h-606l27 168h821l-29 -184l-757 -774h657z" />
    <glyph glyph-name="Zcaron" unicode="&#x17d;" 
d="M872 1659h-170l-241 287h198l144 -160l188 160h211zM965 0h-881l29 184l850 1143h-658l27 168h850l-31 -184l-848 -1143h688z" />
    <glyph glyph-name="zcaron" unicode="&#x17e;" 
d="M821 1321h-170l-241 287h198l144 -160l188 160h211zM954 0h-860l29 184l745 774h-606l27 168h821l-29 -184l-757 -774h657z" />
    <glyph glyph-name="longs" unicode="&#x17f;" 
d="M133 -369h-229l26 168h232q169 0 192 160l191 1208q23 152 131 240t274 88h357l-27 -168h-358q-170 0 -193 -160l-190 -1208q-23 -152 -131.5 -240t-274.5 -88z" />
    <glyph glyph-name="uni018F" unicode="&#x18f;" 
d="M764 1516q203 0 298.5 -114.5t63.5 -316.5l-106 -675q-31 -196 -166 -313t-334 -117q-198 0 -294.5 117t-65.5 313l63 409h676l43 268q20 127 -31.5 196t-171.5 69q-119 0 -193.5 -69.5t-94.5 -197.5h-185q31 199 164.5 315t333.5 116zM836 410l41 266h-490l-43 -266
q-45 -277 201 -277t291 277z" />
    <glyph glyph-name="uni0190" unicode="&#x190;" 
d="M1190 1096h-184q19 115 -46.5 185.5t-191.5 70.5q-124 0 -211 -68t-104 -178q-19 -110 46.5 -178t190.5 -68h184l-26 -164h-186q-138 0 -235.5 -76t-117.5 -200q-19 -125 53.5 -201t210.5 -76q131 0 223.5 69t112.5 181h185q-32 -186 -182.5 -299.5t-364.5 -113.5
q-222 0 -338.5 121t-85.5 319q25 149 116 247t228 126q-113 26 -166 111.5t-33 213.5q29 180 171 289t347 109q212 0 322.5 -115.5t81.5 -304.5z" />
    <glyph glyph-name="florin" unicode="&#x192;" 
d="M66 -369h-216l27 168h215q109 0 182.5 62.5t90.5 169.5l98 610h-328l27 168h327l64 401q22 135 116.5 210t243.5 75h330l-26 -164h-330q-131 0 -152 -123l-61 -399h461l-27 -168h-461l-98 -610q-28 -181 -160 -290.5t-323 -109.5z" />
    <glyph glyph-name="uni019B" unicode="&#x19b;" 
d="M748 1348l362 168l-27 -164l-307 -142l262 -1210h-190l-152 731q-12 55 -22 129t-12 84q-9 -96 -68 -213l-373 -731h-207l594 1108l-4 20l-360 -165l26 163l301 140l-53 229h197z" />
    <glyph glyph-name="Ohorn" unicode="&#x1a0;" 
d="M1079 1505l25 154h153l-24 -164q-22 -120 -123 -168q41 -100 20 -240l-106 -677q-32 -200 -167 -315t-337 -115q-201 0 -298.5 114.5t-65.5 315.5l106 675q32 201 166.5 316t335.5 115q166 0 262 -78q47 16 53 67zM840 410l106 675q20 127 -34.5 196t-174.5 69
t-195.5 -68.5t-95.5 -196.5l-106 -675q-20 -128 33.5 -196.5t173.5 -68.5t196.5 69t96.5 196z" />
    <glyph glyph-name="ohorn" unicode="&#x1a1;" 
d="M1044 1157l25 154h154l-25 -164q-11 -65 -50.5 -111.5t-100.5 -66.5q48 -98 26 -250l-49 -309q-32 -200 -167 -315t-337 -115q-201 0 -298.5 114.5t-65.5 315.5l47 307q32 200 167 315t337 115q147 0 239 -62h17q72 0 81 72zM840 410l47 307q22 130 -32 198t-175 68
q-120 0 -195.5 -68t-97.5 -198l-47 -307q-22 -130 32 -198.5t175 -68.5q120 0 195.5 68.5t97.5 198.5z" />
    <glyph glyph-name="Uhorn" unicode="&#x1af;" 
d="M1223 1567l24 153h154l-27 -164q-12 -78 -66.5 -129t-136.5 -63l-151 -954q-33 -203 -162 -316.5t-338 -113.5q-207 0 -300 114t-60 316l172 1085h184l-172 -1085q-21 -126 30 -196.5t173 -70.5q121 0 194.5 70.5t94.5 196.5l172 1085h133q32 0 54.5 20t27.5 52z" />
    <glyph glyph-name="uhorn" unicode="&#x1b0;" 
d="M160 410l112 716h185l-113 -716q-20 -127 33.5 -198t167.5 -71q116 0 193.5 71t97.5 198l112 716h144q72 0 84 72l24 154h154l-27 -164q-14 -91 -67.5 -143t-147.5 -52l-92 -583q-32 -197 -169 -313.5t-333 -116.5t-293 116.5t-65 313.5z" />
    <glyph glyph-name="uni01CD" unicode="&#x1cd;" 
d="M872 1659h-170l-241 287h198l144 -160l188 160h211zM207 0h-195l627 1495h248l149 -1495h-180l-35 397h-452zM618 1016l-188 -463h377l-43 461q-21 228 -21 334q-40 -122 -125 -332z" />
    <glyph glyph-name="uni01CE" unicode="&#x1ce;" 
d="M1161 1608l-330 -287h-169l-242 287h198l144 -160l188 160h211zM909 911h6l31 215h184l-178 -1126h-184l35 215h-4q-31 -110 -122.5 -172.5t-219.5 -62.5q-169 0 -250.5 112t-50.5 305l51 330q31 195 148 307.5t288 112.5q126 0 197.5 -63.5t68.5 -172.5zM834 410l47 307
q20 127 -34 198.5t-169 71.5q-118 0 -193.5 -70t-95.5 -200l-47 -307q-20 -130 33 -200.5t170 -70.5q114 0 191.5 72t97.5 199z" />
    <glyph glyph-name="uni01D0" unicode="&#x1d0;" horiz-adv-x="1024" 
d="M750 1321h-170l-242 287h199l143 -160l188 160h211zM831 0h-757l26 168h297l125 790h-254l27 168h438l-151 -958h276z" />
    <glyph glyph-name="uni01D2" unicode="&#x1d2;" 
d="M821 1321h-170l-241 287h198l144 -160l188 160h211zM520 -20q-201 0 -298.5 114.5t-65.5 315.5l47 307q32 200 167 315t337 115q201 0 299 -114.5t67 -313.5l-49 -309q-32 -200 -167 -315t-337 -115zM547 143q120 0 195.5 68.5t97.5 198.5l47 307q22 130 -32 198t-175 68
q-120 0 -195.5 -68t-97.5 -198l-47 -307q-22 -130 32 -198.5t175 -68.5z" />
    <glyph glyph-name="uni01D4" unicode="&#x1d4;" 
d="M821 1321h-170l-241 287h198l144 -160l188 160h211zM518 -20q-195 0 -292 116t-66 314l112 716h185l-113 -716q-20 -127 33.5 -198t167.5 -71q116 0 193.5 71t97.5 198l112 716h185l-113 -716q-31 -197 -168.5 -313.5t-333.5 -116.5z" />
    <glyph glyph-name="uni01D6" unicode="&#x1d6;" 
d="M1143 1837h-656l25 154h655zM508 1329q-60 0 -90 34.5t-21 94.5q9 61 50.5 97t101.5 36t89.5 -35.5t20.5 -97.5q-9 -60 -50 -94.5t-101 -34.5zM963 1329q-60 0 -90 34.5t-21 94.5q9 61 50.5 97t101.5 36t89.5 -35.5t20.5 -97.5q-9 -60 -50 -94.5t-101 -34.5zM518 -20
q-195 0 -292 116t-66 314l112 716h185l-113 -716q-20 -127 33.5 -198t167.5 -71q116 0 193.5 71t97.5 198l112 716h185l-113 -716q-31 -197 -168.5 -313.5t-333.5 -116.5z" />
    <glyph glyph-name="uni01D8" unicode="&#x1d8;" 
d="M881 1786h-199l262 287h209zM508 1329q-60 0 -90 34.5t-21 94.5q9 61 50.5 97t101.5 36t89.5 -35.5t20.5 -97.5q-9 -60 -50 -94.5t-101 -34.5zM963 1329q-60 0 -90 34.5t-21 94.5q9 61 50.5 97t101.5 36t89.5 -35.5t20.5 -97.5q-9 -60 -50 -94.5t-101 -34.5zM518 -20
q-195 0 -292 116t-66 314l112 716h185l-113 -716q-20 -127 33.5 -198t167.5 -71q116 0 193.5 71t97.5 198l112 716h185l-113 -716q-31 -197 -168.5 -313.5t-333.5 -116.5z" />
    <glyph glyph-name="uni01DA" unicode="&#x1da;" 
d="M895 1786h-170l-242 287h199l143 -160l189 160h211zM508 1329q-60 0 -90 34.5t-21 94.5q9 61 50.5 97t101.5 36t89.5 -35.5t20.5 -97.5q-9 -60 -50 -94.5t-101 -34.5zM963 1329q-60 0 -90 34.5t-21 94.5q9 61 50.5 97t101.5 36t89.5 -35.5t20.5 -97.5q-9 -60 -50 -94.5
t-101 -34.5zM518 -20q-195 0 -292 116t-66 314l112 716h185l-113 -716q-20 -127 33.5 -198t167.5 -71q116 0 193.5 71t97.5 198l112 716h185l-113 -716q-31 -197 -168.5 -313.5t-333.5 -116.5z" />
    <glyph glyph-name="uni01DC" unicode="&#x1dc;" 
d="M928 1786h-183l-190 287h193zM508 1329q-60 0 -90 34.5t-21 94.5q9 61 50.5 97t101.5 36t89.5 -35.5t20.5 -97.5q-9 -60 -50 -94.5t-101 -34.5zM963 1329q-60 0 -90 34.5t-21 94.5q9 61 50.5 97t101.5 36t89.5 -35.5t20.5 -97.5q-9 -60 -50 -94.5t-101 -34.5zM518 -20
q-195 0 -292 116t-66 314l112 716h185l-113 -716q-20 -127 33.5 -198t167.5 -71q116 0 193.5 71t97.5 198l112 716h185l-113 -716q-31 -197 -168.5 -313.5t-333.5 -116.5z" />
    <glyph glyph-name="Gcaron" unicode="&#x1e6;" 
d="M872 1659h-170l-241 287h198l144 -160l188 160h211zM528 -20q-205 0 -304.5 115t-67.5 315l106 675q32 201 169 316t341 115q201 0 301.5 -116.5t69.5 -314.5h-185q20 127 -36 196t-177 69q-122 0 -200.5 -68.5t-98.5 -194.5l-106 -677q-20 -127 36.5 -197t178.5 -70
q120 0 198.5 70t98.5 197l29 184h-303l26 168h488l-56 -352q-31 -197 -168.5 -313.5t-339.5 -116.5z" />
    <glyph glyph-name="gcaron" unicode="&#x1e7;" 
d="M1145 1608l-330 -287h-170l-242 287h199l143 -160l189 160h211zM913 911l35 215h182l-184 -1167q-25 -153 -132.5 -240.5t-272.5 -87.5h-357l27 168h358q86 0 132.5 39t60.5 121l22 143l37 205h-4q-28 -109 -118 -172t-218 -63q-173 0 -256.5 113t-52.5 307l37 237
q31 192 150 305t292 113q127 0 197.5 -63.5t64.5 -172.5zM850 502l33 215q22 127 -33 198.5t-170 71.5q-117 0 -192 -70t-97 -200l-33 -215q-22 -130 31.5 -200.5t171.5 -70.5q114 0 191.5 72t97.5 199z" />
    <glyph glyph-name="uni01EA" unicode="&#x1ea;" 
d="M780 -416h-159q-113 0 -173.5 53.5t-46.5 137.5q13 91 146 205h-27q-201 0 -298.5 114.5t-65.5 315.5l106 675q32 201 166.5 316t335.5 115t299.5 -115t66.5 -314l-106 -677q-20 -121 -78 -213t-147 -146l-68 -49q-135 -101 -151 -192q-6 -45 19.5 -74t76.5 -29h123z
M547 145q120 0 196.5 69t96.5 196l106 675q20 127 -34.5 196t-174.5 69t-195.5 -68.5t-95.5 -196.5l-106 -675q-20 -128 33.5 -196.5t173.5 -68.5z" />
    <glyph glyph-name="uni01EB" unicode="&#x1eb;" 
d="M766 -416h-160q-113 0 -173 53.5t-46 137.5q13 95 152 205h-19q-201 0 -298.5 114.5t-65.5 315.5l47 307q32 200 167 315t337 115q201 0 299 -114.5t67 -313.5l-49 -309q-20 -127 -82.5 -220.5t-159.5 -146.5l-55 -41q-147 -108 -162 -192q-6 -45 20 -74t77 -29h122z
M547 143q120 0 195.5 68.5t97.5 198.5l47 307q22 130 -32 198t-175 68q-120 0 -195.5 -68t-97.5 -198l-47 -307q-22 -130 32 -198.5t175 -68.5z" />
    <glyph glyph-name="uni01F4" unicode="&#x1f4;" 
d="M860 1659h-198l262 287h209zM528 -20q-205 0 -304.5 115t-67.5 315l106 675q32 201 169 316t341 115q201 0 301.5 -116.5t69.5 -314.5h-185q20 127 -36 196t-177 69q-122 0 -200.5 -68.5t-98.5 -194.5l-106 -677q-20 -127 36.5 -197t178.5 -70q120 0 198.5 70t98.5 197
l29 184h-303l26 168h488l-56 -352q-31 -197 -168.5 -313.5t-339.5 -116.5z" />
    <glyph glyph-name="uni01F5" unicode="&#x1f5;" 
d="M864 1608h209l-272 -287h-199zM913 911l35 215h182l-184 -1167q-25 -153 -132.5 -240.5t-272.5 -87.5h-357l27 168h358q86 0 132.5 39t60.5 121l22 143l37 205h-4q-28 -109 -118 -172t-218 -63q-173 0 -256.5 113t-52.5 307l37 237q31 192 150 305t292 113
q127 0 197.5 -63.5t64.5 -172.5zM850 502l33 215q22 127 -33 198.5t-170 71.5q-117 0 -192 -70t-97 -200l-33 -215q-22 -130 31.5 -200.5t171.5 -70.5q114 0 191.5 72t97.5 199z" />
    <glyph glyph-name="AEacute" unicode="&#x1fc;" 
d="M860 1659h-198l262 287h209zM158 0h-187l535 1495h809l-27 -168h-373l-73 -467h321l-26 -168h-322l-84 -524h373l-27 -168h-549l66 416h-289zM625 1327l-267 -758h260l121 758h-114z" />
    <glyph glyph-name="aeacute" unicode="&#x1fd;" 
d="M807 1321h-199l262 287h209zM254 -20q-127 0 -189 77t-40 209l18 123q20 126 117 201.5t239 75.5h152l24 151q13 89 -13 130.5t-97 41.5q-58 0 -98.5 -35t-49.5 -94h-174q20 129 107.5 208t210.5 79q109 0 164 -50.5t57 -113.5h8q20 62 89 113t173 51q138 0 203.5 -88
t40.5 -240l-47 -297h-455l-32 -215q-12 -77 18 -123.5t92 -46.5q66 0 109.5 34.5t54.5 94.5h174q-22 -129 -116.5 -207.5t-227.5 -78.5q-105 0 -157 50.5t-52 112.5h-8q-20 -62 -98 -112.5t-197 -50.5zM741 819l-24 -153h280l25 153q12 77 -19 123.5t-98 46.5
q-64 0 -108 -46.5t-56 -123.5zM322 137q66 0 114 47t60 123l32 215h-147q-63 0 -104 -35.5t-50 -97.5l-18 -123q-10 -60 20.5 -94.5t92.5 -34.5z" />
    <glyph glyph-name="Oslashacute" unicode="&#x1fe;" 
d="M924 1946h209l-273 -287h-198zM1135 1536h176l-185 -258q19 -85 4 -191l-106 -677q-32 -200 -167 -315t-337 -115q-175 0 -270 83l-105 -145h-176l197 275q-30 100 -10 217l106 675q32 201 166.5 316t335.5 115q186 0 285 -99zM446 1085l-102 -647l586 813
q-49 99 -193 99q-120 0 -195.5 -68.5t-95.5 -196.5zM840 410l96 604l-569 -789q50 -80 180 -80q120 0 196.5 69t96.5 196z" />
    <glyph glyph-name="oslashacute" unicode="&#x1ff;" 
d="M870 1608h209l-272 -287h-199zM1067 1208h190l-208 -241q48 -102 24 -248l-49 -309q-32 -200 -167 -315t-337 -115q-165 0 -258 75l-102 -116h-189l203 235q-39 98 -18 236l47 307q31 200 166.5 315t337.5 115q149 0 249 -68zM377 717l-47 -307q-4 -23 -4 -62l508 590
q-57 45 -154 45q-123 0 -203 -70t-100 -196zM850 410l47 307q7 48 4 80l-518 -600q57 -54 164 -54q123 0 203 70.5t100 196.5z" />
    <glyph glyph-name="uni0218" unicode="&#x218;" 
d="M528 -20q-219 0 -328 109t-81 300h184q-19 -114 47.5 -179t204.5 -65q129 0 211.5 63.5t101.5 176.5q14 96 -24 164t-119 94l-193 64q-143 46 -211.5 154.5t-46.5 256.5q29 181 166 290.5t336 109.5q196 0 297.5 -110t75.5 -292h-184q19 111 -37.5 173.5t-177.5 62.5
q-120 0 -196 -58t-91 -159q-15 -96 23 -165.5t122 -97.5l195 -65q141 -47 207 -158t43 -260q-29 -184 -174 -296.5t-351 -112.5zM416 -492h-195l242 297h215z" />
    <glyph glyph-name="uni0219" unicode="&#x219;" 
d="M561 -20h-86q-171 0 -262.5 79.5t-85.5 216.5h184q3 -61 52.5 -97t138.5 -36h86q105 0 167 45t74 121q21 144 -161 174l-148 25q-164 27 -232.5 102t-45.5 215q24 153 135.5 237.5t300.5 84.5h78q159 0 246.5 -77t87.5 -208h-185q-5 56 -50 88.5t-126 32.5h-78
q-200 0 -225 -160q-10 -69 23 -104t120 -49l148 -25q179 -30 250.5 -106t48.5 -222q-27 -160 -143 -248.5t-312 -88.5zM418 -492h-195l242 297h215z" />
    <glyph glyph-name="uni021A" unicode="&#x21a;" 
d="M616 0h-184l211 1327h-410l27 168h1004l-27 -168h-410zM416 -492h-195l242 297h215z" />
    <glyph glyph-name="uni021B" unicode="&#x21b;" 
d="M764 0h-225q-146 0 -214.5 78t-45.5 219l104 661h-256l27 168h256l49 308h184l-49 -308h369l-27 -168h-369l-104 -661q-11 -66 14 -97.5t88 -31.5h226zM430 -492h-194l241 297h215z" />
    <glyph glyph-name="uni0232" unicode="&#x232;" 
d="M1124 1720h-655l25 154h655zM616 0h-184l88 559l-301 936h187l198 -614q33 -97 37 -140q32 64 80 140l389 614h195l-600 -936z" />
    <glyph glyph-name="uni0233" unicode="&#x233;" 
d="M438 1526h656l-25 -154h-655zM852 512l96 614h185l-187 -1167q-23 -152 -131 -240t-274 -88h-357l27 168h358q87 0 134 38.5t59 121.5l24 154l35 204h-4q-31 -112 -119 -173.5t-217 -61.5q-170 0 -254 105t-55 284l104 655h185l-101 -634q-20 -119 34 -186.5t165 -67.5
q116 0 194.5 72.5t98.5 201.5z" />
    <glyph glyph-name="uni0237" unicode="&#x237;" horiz-adv-x="819" 
d="M29 -369h-131l28 170h131q128 0 209 68t101 194l141 895h-338l27 168h522l-168 -1063q-31 -198 -173 -315t-349 -117z" />
    <glyph glyph-name="uni0259" unicode="&#x259;" 
d="M707 1147q199 0 295.5 -117t64.5 -313l-47 -307q-31 -196 -166 -313t-334 -117q-198 0 -294.5 117t-65.5 313l30 198h680l17 109q45 274 -205 274q-210 0 -266 -151h-185q41 141 169.5 224t306.5 83zM840 410l8 59h-498l-10 -59q-22 -135 29 -206t176 -71t199 71t96 206z
" />
    <glyph glyph-name="uni02B9" unicode="&#x2b9;" horiz-adv-x="819" 
d="M444 840h-163l264 637h266z" />
    <glyph glyph-name="uni02BA" unicode="&#x2ba;" 
d="M319 838h-163l264 637h266zM883 838h-164l264 637h266z" />
    <glyph glyph-name="uni02BC" unicode="&#x2bc;" horiz-adv-x="409" 
d="M215 952h-164l264 637h267z" />
    <glyph glyph-name="circumflex" unicode="&#x2c6;" 
d="M575 1321h-210l329 287h170l242 -287h-199l-141 160z" />
    <glyph glyph-name="caron" unicode="&#x2c7;" 
d="M821 1321h-170l-241 287h198l144 -160l188 160h211z" />
    <glyph glyph-name="uni02C9" unicode="&#x2c9;" 
d="M1069 1372h-655l24 154h656z" />
    <glyph glyph-name="breve" unicode="&#x2d8;" 
d="M733 1311q-147 0 -223.5 81.5t-56.5 215.5h143q-12 -80 30 -129t124 -49q83 0 141 49t70 129h147q-20 -133 -123.5 -215t-251.5 -82z" />
    <glyph glyph-name="dotaccent" unicode="&#x2d9;" 
d="M735 1329q-67 0 -100.5 34.5t-24.5 94.5q9 61 53.5 97t112.5 36q67 0 100.5 -35.5t24.5 -97.5q-9 -60 -53.5 -94.5t-112.5 -34.5z" />
    <glyph glyph-name="ring" unicode="&#x2da;" 
d="M723 1245q-110 0 -167 64.5t-42 169.5q17 104 95 168.5t188 64.5t168 -64.5t41 -168.5q-15 -104 -94 -169t-189 -65zM741 1354q56 0 94.5 34t47.5 91t-19.5 92t-83.5 35t-94.5 -35t-48.5 -92t19.5 -91t84.5 -34z" />
    <glyph glyph-name="ogonek" unicode="&#x2db;" 
d="M633 -416h-160q-113 0 -173 53.5t-46 137.5q19 123 213 245h154l-27 -18q-147 -108 -162 -192q-6 -45 19.5 -74t76.5 -29h123z" />
    <glyph glyph-name="tilde" unicode="&#x2dc;" 
d="M879 1331q-45 0 -79.5 15t-55 36t-37 42t-37 36t-45.5 15q-62 0 -74 -72l-8 -62h-133l8 62q15 91 74 142.5t143 51.5q38 0 69 -10.5t49 -26.5t35 -34.5t29.5 -34.5t30.5 -26.5t39 -10.5q62 0 74 72l10 61h133l-10 -61q-15 -91 -73 -143t-142 -52z" />
    <glyph glyph-name="hungarumlaut" unicode="&#x2dd;" 
d="M598 1321h-182l270 287h193zM969 1321h-183l271 287h192z" />
    <glyph glyph-name="uni02F3" unicode="&#x2f3;" 
d="M444 -512q-110 0 -168.5 56.5t-44.5 148.5q15 92 92 148.5t187 56.5t169 -56.5t44 -148.5q-13 -92 -90.5 -148.5t-188.5 -56.5zM459 -408q57 0 96 28.5t45 72.5q9 51 -19.5 76.5t-88.5 25.5q-54 0 -92.5 -28t-45.5 -74q-6 -45 22.5 -73t82.5 -28z" />
    <glyph glyph-name="uni02F7" unicode="&#x2f7;" 
d="M758 -430q-45 0 -82 14.5t-60.5 35.5t-44 42.5t-43 36t-47.5 14.5q-61 0 -61 -71v-62h-133v62q0 91 50 142.5t134 51.5q45 0 82 -14.5t60.5 -35.5t44 -42.5t43 -36t47.5 -14.5q61 0 61 71v62h133v-62q0 -91 -50 -142.5t-134 -51.5z" />
    <glyph glyph-name="gravecomb" unicode="&#x300;" horiz-adv-x="0" 
d="M-346 1321h-182l-191 287h193z" />
    <glyph glyph-name="acutecomb" unicode="&#x301;" horiz-adv-x="0" 
d="M-444 1321h-199l262 287h209z" />
    <glyph glyph-name="uni0302" unicode="&#x302;" horiz-adv-x="0" 
d="M-653 1321h-211l329 287h170l242 -287h-199l-141 160z" />
    <glyph glyph-name="tildecomb" unicode="&#x303;" horiz-adv-x="0" 
d="M-350 1331q-45 0 -79.5 15t-55 36t-37 42t-37 36t-45.5 15q-62 0 -74 -72l-8 -62h-133l8 62q15 91 74 142.5t143 51.5q38 0 69 -10.5t49 -26.5t35 -34.5t29.5 -34.5t30.5 -26.5t39 -10.5q62 0 74 72l10 61h133l-10 -61q-15 -91 -73 -143t-142 -52z" />
    <glyph glyph-name="uni0304" unicode="&#x304;" horiz-adv-x="0" 
d="M-160 1372h-655l24 154h656z" />
    <glyph glyph-name="uni0306" unicode="&#x306;" horiz-adv-x="0" 
d="M-496 1311q-147 0 -223.5 81.5t-56.5 215.5h143q-12 -80 30 -129t124 -49q83 0 141 49t70 129h147q-20 -133 -123.5 -215t-251.5 -82z" />
    <glyph glyph-name="uni0307" unicode="&#x307;" horiz-adv-x="0" 
d="M-494 1329q-67 0 -100 34.5t-24 94.5q9 62 53.5 97.5t111.5 35.5t100.5 -35.5t24.5 -97.5q-9 -60 -53.5 -94.5t-112.5 -34.5z" />
    <glyph glyph-name="uni0308" unicode="&#x308;" horiz-adv-x="0" 
d="M-721 1329q-60 0 -89.5 34.5t-20.5 94.5q9 61 50 97t101 36t90 -36t21 -97q-9 -60 -50.5 -94.5t-101.5 -34.5zM-266 1329q-60 0 -90 34.5t-21 94.5q9 61 50.5 97t101.5 36t89.5 -35.5t20.5 -97.5q-9 -60 -50 -94.5t-101 -34.5z" />
    <glyph glyph-name="hookabovecomb" unicode="&#x309;" horiz-adv-x="0" 
d="M-408 1321h-186l123 129q36 39 39 66q6 40 -51 40h-160l22 134h215q78 0 119 -41t31 -111q-9 -60 -53 -111z" />
    <glyph glyph-name="uni030A" unicode="&#x30a;" horiz-adv-x="0" 
d="M-506 1245q-110 0 -167 64.5t-42 169.5q17 104 95 168.5t188 64.5t168 -64.5t41 -168.5q-15 -104 -94 -169t-189 -65zM-487 1354q55 0 93.5 34t47.5 91t-19.5 92t-83.5 35t-94.5 -35t-48.5 -92t20 -91t85 -34z" />
    <glyph glyph-name="uni030B" unicode="&#x30b;" horiz-adv-x="0" 
d="M-631 1321h-182l270 287h193zM-260 1321h-182l270 287h192z" />
    <glyph glyph-name="uni030C" unicode="&#x30c;" horiz-adv-x="0" 
d="M-408 1321h-170l-241 287h198l144 -160l188 160h211z" />
    <glyph glyph-name="uni030F" unicode="&#x30f;" horiz-adv-x="0" 
d="M-729 1608l180 -287h-172l-190 287h182zM-369 1608l181 -287h-172l-191 287h182z" />
    <glyph glyph-name="uni0312" unicode="&#x312;" horiz-adv-x="0" 
d="M-332 1802h142l-240 -481h-244z" />
    <glyph glyph-name="uni031B" unicode="&#x31b;" horiz-adv-x="0" 
d="M-344 993h-64l21 133h53q72 0 84 72l25 154h153l-26 -164q-13 -88 -81 -141.5t-165 -53.5z" />
    <glyph glyph-name="dotbelowcomb" unicode="&#x323;" horiz-adv-x="0" 
d="M-772 -436q-67 0 -100.5 34.5t-24.5 94.5q11 62 56 97.5t112 35.5t100.5 -35.5t22.5 -97.5q-9 -60 -53.5 -94.5t-112.5 -34.5z" />
    <glyph glyph-name="uni0325" unicode="&#x325;" horiz-adv-x="0" 
d="M-784 -512q-110 0 -168.5 56.5t-44.5 148.5q15 92 91.5 148.5t186.5 56.5t169 -56.5t44 -148.5q-13 -92 -90 -148.5t-188 -56.5zM-770 -408q57 0 96 28.5t45 72.5q9 51 -19.5 76.5t-88.5 25.5q-54 0 -91.5 -28t-45.5 -74q-6 -45 22.5 -73t81.5 -28z" />
    <glyph glyph-name="uni0326" unicode="&#x326;" horiz-adv-x="0" 
d="M-813 -492h-195l242 297h215z" />
    <glyph glyph-name="uni0327" unicode="&#x327;" horiz-adv-x="0" 
d="M-791 -416h-174l19 113h143q43 0 74.5 22.5t36.5 51.5q6 37 -48 62.5t-153 25.5l102 194h117l-63 -125q58 -7 108 -26.5t84.5 -58.5t26.5 -89q-11 -72 -87.5 -121t-185.5 -49z" />
    <glyph glyph-name="uni0328" unicode="&#x328;" horiz-adv-x="0" 
d="M-596 -416h-160q-113 0 -173 53.5t-46 137.5q19 123 213 245h154l-27 -18q-147 -108 -162 -192q-6 -45 20 -74t77 -29h122z" />
    <glyph glyph-name="uni0336" unicode="&#x336;" horiz-adv-x="0" 
d="M66 594h-1352l22 143h1352z" />
    <glyph glyph-name="uni0337" unicode="&#x337;" horiz-adv-x="0" 
d="M-1065 -61h-190l1093 1269h193z" />
    <glyph glyph-name="uni0338" unicode="&#x338;" horiz-adv-x="0" 
d="M-993 -225h-135l892 1577h136z" />
    <glyph glyph-name="uni0374" unicode="&#x374;" 
d="M545 840h-164l264 637h266z" />
    <glyph glyph-name="uni0375" unicode="&#x375;" 
d="M236 -328h-173l265 637h274z" />
    <glyph glyph-name="uni037E" unicode="&#x37e;" 
d="M473 840h-41q-67 0 -103.5 42.5t-25.5 110.5q11 66 61.5 110t116.5 44h41q66 0 103 -44t26 -110q-10 -67 -60 -110t-118 -43zM166 -328h-164l264 637h266z" />
    <glyph glyph-name="tonos" unicode="&#x384;" 
d="M1014 1608l-273 -287h-188l262 287h199z" />
    <glyph glyph-name="dieresistonos" unicode="&#x385;" 
d="M834 1575h-144l203 268h164zM508 1329q-60 0 -90 34.5t-21 94.5q9 61 50.5 97t101.5 36t89.5 -35.5t20.5 -97.5q-9 -60 -50 -94.5t-101 -34.5zM963 1329q-60 0 -90 34.5t-21 94.5q9 61 50.5 97t101.5 36t89.5 -35.5t20.5 -97.5q-9 -60 -50 -94.5t-101 -34.5z" />
    <glyph glyph-name="Alphatonos" unicode="&#x386;" 
d="M207 0h-195l627 1495h248l149 -1495h-180l-35 397h-452zM291 1167h-176l168 328h192zM618 1016l-188 -463h377l-43 461q-21 228 -21 334q-40 -122 -125 -332z" />
    <glyph glyph-name="anoteleia" unicode="&#x387;" 
d="M408 543q-78 0 -117 45t-27 121q12 79 66.5 126.5t132.5 47.5t115.5 -47t25.5 -127q-12 -76 -65 -121t-131 -45z" />
    <glyph glyph-name="Epsilontonos" unicode="&#x388;" 
d="M35 1167h-176l168 328h192zM975 0h-860l237 1495h860l-26 -168h-678l-74 -463h606l-26 -166h-606l-84 -530h677z" />
    <glyph glyph-name="Etatonos" unicode="&#x389;" 
d="M35 1167h-176l168 328h192zM285 0h-185l238 1495h184l-102 -639h479l102 639h185l-238 -1495h-184l108 688h-479z" />
    <glyph glyph-name="Iotatonos" unicode="&#x38a;" 
d="M35 1167h-176l168 328h192zM924 0h-799l27 168h305l184 1159h-305l26 168h799l-26 -168h-306l-184 -1159h305z" />
    <glyph glyph-name="Omicrontonos" unicode="&#x38c;" 
d="M520 -20q-201 0 -298.5 114.5t-65.5 315.5l106 675q32 201 166.5 316t335.5 115t299 -114.5t67 -314.5l-106 -677q-32 -200 -167 -315t-337 -115zM106 1167h-176l168 328h193zM547 145q120 0 196.5 69t96.5 196l106 675q20 127 -34.5 196t-174.5 69t-195.5 -68.5
t-95.5 -196.5l-106 -675q-20 -128 33.5 -196.5t173.5 -68.5z" />
    <glyph glyph-name="Upsilontonos" unicode="&#x38e;" 
d="M14 1167h-176l168 328h193zM616 0h-184l88 559l-301 936h187l198 -614q33 -97 37 -140q32 64 80 140l389 614h195l-600 -936z" />
    <glyph glyph-name="Omegatonos" unicode="&#x38f;" 
d="M442 0h-430l27 164h297v10q-39 5 -74.5 26t-66 61t-41.5 99.5t0 141.5l90 573q32 202 173 321.5t347 119.5q207 0 310 -120t71 -321l-90 -573q-12 -77 -44.5 -140t-74.5 -100.5t-84.5 -59t-83.5 -26.5l-2 -12h299l-27 -164h-432l35 225q82 0 145 75t82 192l93 583
q20 126 -40.5 201.5t-181.5 75.5t-206 -75.5t-105 -201.5l-92 -583q-19 -117 20.5 -192t120.5 -75zM106 1167h-176l168 328h193z" />
    <glyph glyph-name="iotadieresistonos" unicode="&#x390;" 
d="M834 1575h-144l203 268h164zM508 1329q-60 0 -90 34.5t-21 94.5q9 61 50.5 97t101.5 36t89.5 -35.5t20.5 -97.5q-9 -60 -50 -94.5t-101 -34.5zM963 1329q-60 0 -90 34.5t-21 94.5q9 61 50.5 97t101.5 36t89.5 -35.5t20.5 -97.5q-9 -60 -50 -94.5t-101 -34.5zM1036 0h-276
q-149 0 -224.5 86t-52.5 231l101 641h-410l27 168h594l-127 -809q-12 -69 20 -109t98 -40h277z" />
    <glyph glyph-name="Alpha" unicode="&#x391;" 
d="M207 0h-195l627 1495h248l149 -1495h-180l-35 397h-452zM618 1016l-188 -463h377l-43 461q-21 228 -21 334q-40 -122 -125 -332z" />
    <glyph glyph-name="Beta" unicode="&#x392;" 
d="M1137 1108q-20 -122 -92.5 -205.5t-184.5 -114.5q118 -32 171 -130t30 -242q-31 -192 -166.5 -304t-339.5 -112h-455l238 1495h424q204 0 303.5 -102.5t71.5 -284.5zM952 1094q17 109 -41 172t-176 63h-243l-76 -471h241q118 0 197 63.5t98 172.5zM881 422
q19 124 -44.5 200t-191.5 76h-254l-84 -532h254q129 0 214.5 68.5t105.5 187.5z" />
    <glyph glyph-name="Gamma" unicode="&#x393;" 
d="M360 0h-184l238 1495h870l-27 -168h-686z" />
    <glyph glyph-name="uni0394" unicode="&#x394;" 
d="M1036 0h-1024l627 1495h248zM616 1016l-346 -852h570l-78 850q-16 190 -21 338q-7 -18 -28 -77.5t-46.5 -128t-50.5 -130.5z" />
    <glyph glyph-name="Epsilon" unicode="&#x395;" 
d="M975 0h-860l237 1495h860l-26 -168h-678l-74 -463h606l-26 -166h-606l-84 -530h677z" />
    <glyph glyph-name="Zeta" unicode="&#x396;" 
d="M965 0h-881l29 184l850 1143h-658l27 168h850l-31 -184l-848 -1143h688z" />
    <glyph glyph-name="Eta" unicode="&#x397;" 
d="M285 0h-185l238 1495h184l-102 -639h479l102 639h185l-238 -1495h-184l108 688h-479z" />
    <glyph glyph-name="Theta" unicode="&#x398;" 
d="M520 -20q-201 0 -298.5 114.5t-65.5 315.5l106 675q32 201 166.5 316t335.5 115t299.5 -115t66.5 -314l-106 -677q-32 -200 -167 -315t-337 -115zM547 145q120 0 196.5 69t96.5 196l106 675q20 127 -34.5 196t-174.5 69t-195.5 -68.5t-95.5 -196.5l-106 -675
q-20 -128 33.5 -196.5t173.5 -68.5zM813 666h-369l27 168h369z" />
    <glyph glyph-name="Iota" unicode="&#x399;" 
d="M924 0h-799l27 168h305l184 1159h-305l26 168h799l-26 -168h-306l-184 -1159h305z" />
    <glyph glyph-name="Kappa" unicode="&#x39a;" 
d="M283 0h-185l238 1495h184l-102 -641h217l434 641h205l-486 -725l269 -770h-205l-238 692h-221z" />
    <glyph glyph-name="Lambda" unicode="&#x39b;" 
d="M207 0h-195l627 1495h248l149 -1495h-180l-92 1014q-8 87 -13.5 171.5t-7.5 125.5l-2 41q-45 -143 -123 -336z" />
    <glyph glyph-name="Mu" unicode="&#x39c;" 
d="M246 0h-180l237 1495h238l77 -483q18 -116 33 -230q35 92 99 232l225 481h246l-238 -1495h-180l86 543q50 312 198 860l-358 -748h-194l-127 748q-19 -506 -76 -860z" />
    <glyph glyph-name="Nu" unicode="&#x39d;" 
d="M272 0h-178l238 1495h243l256 -1280q13 219 50 440l133 840h178l-238 -1495h-243l-254 1280q-21 -258 -51 -440z" />
    <glyph glyph-name="Xi" unicode="&#x39e;" 
d="M1186 1327h-901l26 168h901zM1020 674h-778l26 168h779zM975 0h-901l26 168h901z" />
    <glyph glyph-name="Omicron" unicode="&#x39f;" 
d="M520 -20q-201 0 -298.5 114.5t-65.5 315.5l106 675q32 201 166.5 316t335.5 115t299 -114.5t67 -314.5l-106 -677q-32 -200 -167 -315t-337 -115zM547 145q120 0 196.5 69t96.5 196l106 675q20 127 -34.5 196t-174.5 69t-195.5 -68.5t-95.5 -196.5l-106 -675
q-20 -128 33.5 -196.5t173.5 -68.5z" />
    </font>
</defs>
</svg>
