<?xml version="1.0" standalone="no"?>
<!DOCTYPE svg PUBLIC "-//W3C//DTD SVG 1.1//EN" "http://www.w3.org/Graphics/SVG/1.1/DTD/svg11.dtd" >
<svg xmlns="http://www.w3.org/2000/svg" xmlns:xlink="http://www.w3.org/1999/xlink" version="1.1">
<metadata>
Created by FontForge 20170731 at Thu Nov 16 19:44:03 2023
 By Aleksey,,,
Copyright 2021 Alessio Laiso, Mario Rullo, Paolo Rosset
</metadata>
<defs>
<font id="TekneLDO-BoldItalic" horiz-adv-x="1228" >
  <font-face 
    font-family="Tekne LDO"
    font-weight="700"
    font-style="italic"
    font-stretch="normal"
    units-per-em="2048"
    panose-1="2 0 0 9 0 0 0 0 0 0"
    ascent="1638"
    descent="-410"
    x-height="1126"
    cap-height="1495"
    bbox="-3559 -819 1696 2294"
    underline-thickness="102"
    underline-position="-419"
    slope="-9"
    unicode-range="U+000D-1D54A"
  />
<missing-glyph 
d="M1044 0h-860v1495h860v-1495zM287 1393v-1170l614 1170h-614zM942 1272l-614 -1170h614v1170z" />
    <glyph glyph-name="hyphen_hyphen.liga" unicode="&#x2d;&#x2d;" 
d="M-94 557h-850l37 238h850zM940 557h-850l37 238h850z" />
    <glyph glyph-name="hyphen_hyphen_hyphen.liga" unicode="&#x2d;&#x2d;&#x2d;" 
d="M-1262 557h-911l37 238h911zM-166 557h-901l37 238h901zM940 557h-911l37 238h911z" />
    <glyph glyph-name="hyphen_hyphen_greater.liga" unicode="&#x2d;&#x2d;&#x3e;" 
d="M743 795l-301 485h291l365 -604l-557 -604h-310l455 485h-2976l37 238h2996z" />
    <glyph glyph-name="hyphen_bar.liga" unicode="&#x2d;&#x7c;" 
d="M621 -174h-256l114 731h-1341l37 238h1341l119 741h256z" />
    <glyph glyph-name="hyphen_greater.liga" unicode="&#x2d;&#x3e;" 
d="M737 795l-295 485h291l365 -604l-557 -604h-310l449 485h-1743l37 238h1763z" />
    <glyph glyph-name="hyphen_greater_greater.liga" unicode="&#x2d;&#x3e;&#x3e;" 
d="M-96 72h-312l451 485h-2335l37 238h2353l-295 485h293l363 -604zM541 72h-310l572 614l-361 594h291l365 -604z" />
    <glyph glyph-name="hyphen_less.liga" unicode="&#x2d;&#x3c;" 
d="M948 72h-293l-295 485h-1423l37 238h1423l451 485h311l-567 -616z" />
    <glyph glyph-name="hyphen_less_less.liga" unicode="&#x2d;&#x3c;&#x3c;" 
d="M283 72h-293l-295 485h-1987l37 238h1987l450 485h312l-572 -616zM948 72h-293l-364 604l557 604h311l-571 -616z" />
    <glyph glyph-name="hyphen_asciitilde.liga" unicode="&#x2d;&#x7e;" 
d="M139 420q-91 0 -158.5 36t-101.5 101h-913l39 238h1075l-6 -35q-10 -65 17.5 -101t86.5 -36q42 0 84.5 23t77 57t79 74.5t89 74.5t109.5 57t137 23q148 0 228 -87.5t58 -221.5l-22 -142h-217l20 123q9 57 -20 91t-86 34q-50 0 -99.5 -32t-95 -77.5t-97 -90.5t-125 -77
t-159.5 -32z" />
    <glyph glyph-name="braceleft_bar.liga" unicode="&#x7b;&#x7c;" 
d="M-446 1022l30 321q17 164 135 260.5t295 96.5h283l-37 -236h-248q-76 0 -122 -36t-52 -109l-31 -320q-10 -102 -78.5 -172t-177.5 -90q102 -20 149 -90.5t24 -173.5l-72 -319q-13 -67 22.5 -105.5t108.5 -38.5h248l-39 -237h-283q-176 0 -264.5 99t-50.5 265l69 312
q38 169 -141 169h-244l37 236h244q180 0 195 168zM315 -225l303 1925h256l-303 -1925h-256z" />
    <glyph glyph-name="bracketleft_bar.liga" unicode="[&#x7c;" 
d="M-20 -225h-824l303 1925h824l-37 -236h-568l-229 -1454h567zM594 -225h-256l303 1925h256z" />
    <glyph glyph-name="bracketleft_less.liga" unicode="[&#x3c;" 
d="M-604 -225h-576l303 1925h576l-37 -236h-317l-232 -1454h318zM815 375l-37 -230l-848 433l39 256l985 432l-36 -246l-637 -275q-80 -35 -152 -49q82 -16 137 -45z" />
    <glyph glyph-name="bracketright_numbersign.liga" unicode="]&#x23;" 
d="M1243 1106l-29 -174h-186l-121 -369h178l-28 -174h-207l-131 -389h-180l131 389h-291l-131 -389h-180l131 389h-758l-96 -614h-576l37 235h317l232 1454h-318l35 236h576l-94 -594h880l133 389h181l-134 -389h291l133 389h181l-134 -389h158zM-530 563h786l121 369h-850z
M436 563h291l121 369h-291z" />
    <glyph glyph-name="period_period.liga" unicode="&#x2e;&#x2e;" 
d="M-745 -20q-89 0 -132.5 51t-29.5 139q13 89 73.5 140.5t149.5 51.5q88 0 130.5 -51.5t29.5 -140.5q-12 -87 -72.5 -138.5t-148.5 -51.5zM154 -20q-88 0 -131 51t-31 139q13 89 73.5 140.5t149.5 51.5q88 0 130.5 -51.5t29.5 -140.5q-12 -87 -72.5 -138.5t-148.5 -51.5z
" />
    <glyph glyph-name="period_period_period.liga" unicode="&#x2e;&#x2e;&#x2e;" 
d="M-1958 -20q-88 0 -131 51t-31 139q15 89 75.5 140.5t148.5 51.5t131 -51.5t28 -140.5q-12 -88 -72 -139t-149 -51zM-911 -20q-88 0 -131 51t-29 139q13 89 73 140.5t148 51.5q89 0 132.5 -51.5t29.5 -140.5q-13 -88 -73.5 -139t-149.5 -51zM137 -20q-89 0 -132.5 51
t-29.5 139q13 89 73.5 140.5t150.5 51.5q88 0 130.5 -51.5t28.5 -140.5q-13 -88 -73 -139t-148 -51z" />
    <glyph glyph-name="period_period_less.liga" unicode="&#x2e;&#x2e;&#x3c;" 
d="M649 344l-37 -229l-850 432l41 256l985 432l-36 -246l-637 -274q-85 -36 -152 -49q79 -15 137 -45zM-1997 -20q-88 0 -131 51t-29 139q13 89 73.5 140.5t148.5 51.5q89 0 132 -51.5t29 -140.5q-13 -88 -73.5 -139t-149.5 -51zM-1096 -20q-89 0 -132 51t-29 139
q13 89 73.5 140.5t149.5 51.5q88 0 130.5 -51.5t29.5 -140.5q-13 -87 -73.5 -138.5t-148.5 -51.5z" />
    <glyph glyph-name="period_question.liga" unicode="&#x2e;&#x3f;" 
d="M410 444h-226l60 410h162q102 0 171.5 55t84.5 146q13 92 -40 146t-157 54h-303l39 240h293q225 0 340 -119.5t84 -320.5q-29 -186 -161.5 -304t-318.5 -122zM-911 -20q-88 0 -131 51t-31 139q13 89 73.5 140.5t149.5 51.5q88 0 130.5 -51.5t29.5 -140.5
q-12 -87 -72.5 -138.5t-148.5 -51.5zM254 -10h-61q-62 0 -95 37.5t-24 97.5t54 97.5t108 37.5h61q64 0 97 -37.5t24 -97.5q-11 -60 -56 -97.5t-108 -37.5z" />
    <glyph glyph-name="period_equal.liga" unicode="&#x2e;&#x3d;" 
d="M1100 809h-893l37 235h893zM-629 412q-117 0 -178.5 73.5t-42.5 190.5t103.5 190.5t201.5 73.5t178.5 -73.5t44.5 -190.5q-19 -117 -104.5 -190.5t-202.5 -73.5zM1018 307h-891l37 236h893z" />
    <glyph glyph-name="colon_colon.liga" unicode="&#x3a;&#x3a;" 
d="M-616 803q-86 0 -131 47.5t-33 124.5t72.5 124.5t146.5 47.5q85 0 129.5 -47.5t32.5 -124.5t-71.5 -124.5t-145.5 -47.5zM285 803q-86 0 -131 47.5t-33 124.5t72.5 124.5t146.5 47.5q85 0 129.5 -47.5t32.5 -124.5t-71.5 -124.5t-145.5 -47.5zM-748 -20
q-86 0 -130.5 47.5t-32.5 124.5t72.5 124.5t146.5 47.5q85 0 129.5 -47.5t32.5 -124.5q-12 -76 -72.5 -124t-145.5 -48zM154 -20q-86 0 -131 47.5t-33 124.5t72.5 124.5t146.5 47.5q85 0 129.5 -47.5t32.5 -124.5t-72 -124.5t-145 -47.5z" />
    <glyph glyph-name="colon_colon_colon.liga" unicode="&#x3a;&#x3a;&#x3a;" 
d="M-1681 803q-86 0 -131 47.5t-33 124.5t72.5 124.5t146.5 47.5q85 0 129.5 -47.5t32.5 -124.5t-71.5 -124.5t-145.5 -47.5zM-780 803q-86 0 -131 47.5t-33 124.5t72.5 124.5t146.5 47.5q85 0 129.5 -47.5t32.5 -124.5t-71.5 -124.5t-145.5 -47.5zM121 803q-86 0 -131 47.5
t-33 124.5t72.5 124.5t146.5 47.5q85 0 129.5 -47.5t32.5 -124.5t-71.5 -124.5t-145.5 -47.5zM-1812 -20q-86 0 -131 47.5t-33 124.5t72.5 124.5t146.5 47.5q85 0 129.5 -47.5t32.5 -124.5t-72 -124.5t-145 -47.5zM-911 -20q-86 0 -131 47.5t-33 124.5t72.5 124.5
t146.5 47.5q85 0 129.5 -47.5t32.5 -124.5t-72 -124.5t-145 -47.5zM-10 -20q-86 0 -131 47.5t-33 124.5t72.5 124.5t146.5 47.5q85 0 129.5 -47.5t32.5 -124.5t-72 -124.5t-145 -47.5z" />
    <glyph glyph-name="colon_colon_equal.liga" unicode="&#x3a;&#x3a;&#x3d;" 
d="M-1952 915q-85 0 -129.5 47.5t-32.5 124.5t72 125t146 48t130.5 -48t32.5 -125t-72.5 -124.5t-146.5 -47.5zM-1028 915q-86 0 -130.5 47.5t-33.5 124.5q14 77 73.5 125t145.5 48t131 -48t31 -125q-11 -77 -71 -124.5t-146 -47.5zM834 809h-893l36 235h893zM752 307h-891
l37 236h893zM-2083 92q-86 0 -130 47.5t-32 124.5t71.5 124.5t145.5 47.5t131 -47.5t33 -124.5t-72.5 -124.5t-146.5 -47.5zM-1159 92q-86 0 -130 47.5t-32 124.5t71.5 124.5t145.5 47.5t130.5 -47.5t33.5 -124.5q-12 -77 -72.5 -124.5t-146.5 -47.5z" />
    <glyph glyph-name="colon_question.liga" unicode="&#x3a;&#x3f;" 
d="M410 444h-226l60 410h162q102 0 171.5 55t84.5 146q13 92 -40 146t-157 54h-303l39 240h293q225 0 340 -119.5t84 -320.5q-29 -186 -161.5 -304t-318.5 -122zM-678 803q-86 0 -131 47.5t-33 124.5t72.5 124.5t146.5 47.5q85 0 129.5 -47.5t32.5 -124.5t-71.5 -124.5
t-145.5 -47.5zM-809 -20q-86 0 -131 47.5t-33 124.5t72.5 124.5t146.5 47.5q85 0 129.5 -47.5t32.5 -124.5t-72 -124.5t-145 -47.5zM254 -10h-61q-62 0 -95 37.5t-24 97.5t54 97.5t108 37.5h61q64 0 97 -37.5t24 -97.5q-11 -60 -56 -97.5t-108 -37.5z" />
    <glyph glyph-name="colon_question_greater.liga" unicode="&#x3a;&#x3f;&#x3e;" 
d="M-850 444h-225l59 410h162q102 0 171.5 54.5t86.5 146.5q13 92 -40.5 146t-156.5 54h-305l39 240h293q227 0 342 -119.5t84 -320.5q-31 -186 -163 -304t-318 -122zM895 547l-985 -432l37 243l637 275q86 36 151 49q-79 16 -135 45l-551 277l37 231l850 -432zM-1999 803
q-86 0 -131 47.5t-33 124.5t72.5 124.5t146.5 47.5q85 0 129.5 -47.5t32.5 -124.5t-71.5 -124.5t-145.5 -47.5zM-2130 -20q-86 0 -131 47.5t-33 124.5t72.5 124.5t146.5 47.5q85 0 129.5 -47.5t32.5 -124.5t-72 -124.5t-145 -47.5zM-1006 -10h-59q-63 0 -96.5 37.5
t-24.5 97.5q11 60 55 97.5t107 37.5h61q64 0 97 -37.5t24 -97.5q-11 -60 -56 -97.5t-108 -37.5z" />
    <glyph glyph-name="colon_equal.liga" unicode="&#x3a;&#x3d;" 
d="M-682 795q-85 0 -128 49t-30 131q13 86 72.5 138t144.5 52t128 -52t30 -138q-12 -81 -72 -130.5t-145 -49.5zM1001 809h-1126l37 235h1126zM-778 186q-85 0 -128.5 50.5t-29.5 132.5q12 86 72 137t145 51t128.5 -51t31.5 -137q-14 -82 -74 -132.5t-145 -50.5zM920 307
h-1127l39 236h1126z" />
    <glyph glyph-name="colon_greater.liga" unicode="&#x3a;&#x3e;" 
d="M-780 915q-86 0 -131 47.5t-33 124.5t72.5 125t146.5 48q84 0 129 -48t33 -125t-71.5 -124.5t-145.5 -47.5zM864 547l-985 -432l37 243l637 275q85 36 152 49q-80 17 -136 45l-551 277l37 231l850 -432zM-911 92q-86 0 -131 47.5t-33 124.5t72.5 124.5t146.5 47.5
q85 0 129.5 -47.5t32.5 -124.5t-72 -124.5t-145 -47.5z" />
    <glyph glyph-name="colon_less.liga" unicode="&#x3a;&#x3c;" 
d="M-780 915q-86 0 -131 47.5t-33 124.5t72.5 125t146.5 48q84 0 129 -48t33 -125t-71.5 -124.5t-145.5 -47.5zM752 344l-37 -229l-850 432l41 256l985 432l-37 -246l-637 -274q-86 -36 -151 -49q79 -15 137 -45zM-911 92q-86 0 -131 47.5t-33 124.5t72.5 124.5t146.5 47.5
q85 0 129.5 -47.5t32.5 -124.5t-72 -124.5t-145 -47.5z" />
    <glyph glyph-name="semicolon_semicolon.liga" unicode="&#x3b;&#x3b;" 
d="M-598 803h-41q-74 0 -115 49t-30 123q14 74 70.5 123t129.5 49h41q74 0 115 -49.5t29 -122.5q-12 -74 -68 -123t-131 -49zM303 803h-41q-74 0 -115 49t-30 123q14 74 70.5 123t129.5 49h41q74 0 115 -49.5t29 -122.5q-12 -74 -68 -123t-131 -49zM-868 -328h-226l265 637
h327zM33 -328h-226l265 637h327z" />
    <glyph glyph-name="semicolon_semicolon_semicolon.liga" unicode="&#x3b;&#x3b;&#x3b;" 
d="M-1663 803h-41q-74 0 -115 49t-30 123q14 74 70.5 123t129.5 49h41q74 0 115 -49.5t29 -122.5q-12 -74 -68 -123t-131 -49zM-762 803h-41q-74 0 -115 49t-30 123q14 74 70.5 123t129.5 49h41q74 0 115 -49.5t29 -122.5q-12 -74 -68 -123t-131 -49zM139 803h-41
q-74 0 -115 49t-30 123q14 74 71 123t130 49h41q73 0 114 -49t29 -123t-68 -123t-131 -49zM-1933 -328h-226l265 637h327zM-1032 -328h-225l264 637h327zM-131 -328h-225l264 637h328z" />
    <glyph glyph-name="exclam_exclam.liga" unicode="&#x21;&#x21;" 
d="M-614 477h-191l72 735l45 283h280l-45 -283zM369 477h-191l72 735l45 283h280l-45 -283zM-758 -10h-59q-63 0 -96.5 37.5t-24.5 97.5q11 60 55 97.5t107 37.5h61q64 0 97 -37.5t24 -97.5q-11 -60 -56 -97.5t-108 -37.5zM225 -10h-59q-63 0 -96.5 37.5t-24.5 97.5
q11 60 55 97.5t107 37.5h61q64 0 97 -37.5t24 -97.5q-11 -60 -56 -97.5t-108 -37.5z" />
    <glyph glyph-name="exclam_equal.liga" unicode="&#x21;&#x3d;" 
d="M-408 0h-256l246 307h-690l39 236h844l213 266h-1014l37 235h1167l254 318h256l-254 -318h707l-37 -235h-858l-215 -266h1030l-39 -236h-1184z" />
    <glyph glyph-name="exclam_equal_equal.liga" unicode="&#x21;&#x3d;&#x3d;" 
d="M1176 1286l-37 -219h-1329l-216 -281h1502l-35 -221h-1639l-215 -280h1809l-35 -219h-1942l-184 -240h-215l184 240h-1194l35 219h1327l215 280h-1497l35 221h1634l215 281h-1806l37 219h1937l185 240h215l-185 -240h1199z" />
    <glyph glyph-name="question_period.liga" unicode="&#x3f;&#x2e;" 
d="M-408 444h-227l60 410h163q102 0 171.5 55t84.5 146q14 92 -39 146t-157 54h-303l39 240h292q225 0 340 -119.5t84 -320.5q-29 -186 -161 -304t-318 -122zM154 -20q-89 0 -132.5 51t-29.5 139q13 89 73.5 140.5t149.5 51.5q88 0 130.5 -51.5t29.5 -140.5
q-13 -88 -73 -139t-148 -51zM-563 -10h-62q-63 0 -95 37.5t-23 97.5t53.5 97.5t107.5 37.5h62q64 0 97 -37.5t24 -97.5q-11 -60 -56 -97.5t-108 -37.5z" />
    <glyph glyph-name="question_colon.liga" unicode="&#x3f;&#x3a;" 
d="M-408 444h-227l60 410h163q102 0 171.5 55t84.5 146q14 92 -39 146t-157 54h-303l39 240h292q225 0 340 -119.5t84 -320.5q-29 -186 -161 -304t-318 -122zM346 803q-86 0 -131 47.5t-33 124.5t72.5 124.5t146.5 47.5q85 0 129.5 -47.5t32.5 -124.5t-71.5 -124.5
t-145.5 -47.5zM215 -20q-86 0 -131 47.5t-33 124.5t72.5 124.5t146.5 47.5q85 0 129.5 -47.5t32.5 -124.5t-72 -124.5t-145 -47.5zM-563 -10h-62q-63 0 -95 37.5t-23 97.5t53.5 97.5t107.5 37.5h62q64 0 97 -37.5t24 -97.5q-11 -60 -56 -97.5t-108 -37.5z" />
    <glyph glyph-name="question_question.liga" unicode="&#x3f;&#x3f;" 
d="M-512 444h-225l59 410h162q102 0 171.5 55t84.5 146q13 92 -40 146t-157 54h-303l39 240h293q225 0 340 -119.5t84 -320.5q-29 -186 -161 -304t-318 -122zM522 444h-225l59 410h162q102 0 171.5 55t84.5 146q14 92 -39 146t-157 54h-304l39 240h293q225 0 340 -119.5
t84 -320.5q-29 -186 -161 -304t-318 -122zM-668 -10h-61q-62 0 -95 37.5t-24 97.5t54 97.5t108 37.5h61q64 0 97 -37.5t24 -97.5q-11 -60 -56 -97.5t-108 -37.5zM367 -10h-62q-62 0 -95 37.5t-24 97.5t54 97.5t108 37.5h62q64 0 96.5 -37t23.5 -98q-11 -60 -55.5 -97.5
t-107.5 -37.5z" />
    <glyph glyph-name="question_question_question.liga" unicode="&#x3f;&#x3f;&#x3f;" 
d="M-1749 444h-227l59 410h164q102 0 171.5 55t84.5 146q13 92 -40 146t-157 54h-303l39 240h293q225 0 340 -119.5t84 -320.5q-29 -186 -161 -304t-318 -122zM-627 444h-225l59 410h162q102 0 171.5 54.5t86.5 146.5q13 92 -40 146t-156 54h-305l38 240h293
q227 0 342 -119.5t84 -320.5q-31 -186 -163 -304t-318 -122zM498 444h-228l60 410h162q102 0 172.5 55t85.5 146q13 92 -40 146t-157 54h-305l41 240h291q227 0 342 -119.5t84 -320.5q-31 -186 -163.5 -304t-316.5 -122zM-1905 -10h-61q-63 0 -95.5 37.5t-23.5 97.5t54 97.5
t108 37.5h61q64 0 97 -37.5t24 -97.5q-11 -60 -56 -97.5t-108 -37.5zM-782 -10h-60q-63 0 -96.5 37.5t-24.5 97.5q11 60 55 97.5t107 37.5h62q64 0 97 -37.5t24 -97.5q-11 -60 -56 -97.5t-108 -37.5zM340 -10h-59q-63 0 -95.5 37.5t-23.5 97.5t54 97.5t108 37.5h61
q64 0 96 -37t23 -98q-9 -60 -54.5 -97.5t-109.5 -37.5z" />
    <glyph glyph-name="question_equal.liga" unicode="&#x3f;&#x3d;" 
d="M-537 444h-225l60 410h161q102 0 172.5 55t85.5 146q13 92 -40 146t-156 54h-305l39 240h292q227 0 342 -119.5t84 -320.5q-31 -186 -163 -304t-318 -122zM1067 948h-936l37 236h936zM989 444h-1175l14 97q55 19 98 56t62 83h1038zM-692 -10h-60q-63 0 -96 37.5t-24 97.5
q11 60 55.5 97.5t105.5 37.5h62q65 0 97.5 -37t23.5 -98q-11 -60 -55.5 -97.5t-108.5 -37.5z" />
    <glyph glyph-name="asterisk_asterisk_asterisk.liga" unicode="&#x2a;&#x2a;&#x2a;" 
d="M-797 627l-102 -121l-166 131l100 121q88 102 285 229l-2 12q-211 5 -324 48l-127 49l111 217l129 -49q110 -43 258 -181l10 9q-34 231 -18 338l25 147h229l-23 -147q-17 -113 -129 -338l9 -7q209 142 311 179l147 49l45 -217l-145 -49q-126 -43 -336 -48l-6 -12
q159 -137 209 -229l65 -121l-209 -131l-65 121q-51 93 -84 313h-12q-98 -213 -185 -313zM-1944 299l-102 -121l-166 131l101 121q89 104 284 229l-2 13q-212 5 -323 47l-127 49l110 217l129 -49q112 -44 258 -180l10 8q-34 231 -18 338l25 147h229l-23 -147
q-17 -113 -129 -338l9 -6q206 140 311 178l147 49l45 -217l-145 -49q-123 -42 -336 -47l-6 -13q159 -137 209 -229l65 -121l-208 -131l-66 121q-51 93 -84 313h-12q-98 -213 -185 -313zM350 299l-102 -121l-168 131l102 121q85 102 283 229l-2 13q-214 5 -322 47l-129 49
l113 217l129 -49q111 -44 256 -180l12 8q-38 220 -18 338l22 147h232l-25 -147q-17 -119 -127 -338l8 -6q196 137 312 178l145 49l45 -217l-145 -49q-123 -42 -334 -47l-8 -13q159 -137 211 -229l65 -121l-211 -131l-65 121q-56 102 -82 313h-15q-91 -207 -182 -313z" />
    <glyph glyph-name="asterisk_greater.liga" unicode="&#x2a;&#x3e;" 
d="M-748 299l-153 -182l-166 131l152 182q92 106 284 232l-2 10q-212 5 -323 47l-187 69l113 218l186 -70q112 -44 258 -180l11 8q-34 234 -19 338l33 209h229l-30 -209q-19 -116 -130 -338l9 -6q206 140 311 178l213 70l45 -218l-211 -69q-123 -42 -336 -47l-6 -13
q159 -137 209 -229l96 -182l-209 -131l-96 182q-51 93 -84 313h-12q-98 -213 -185 -313zM1094 547l-985 -432l36 243l637 275q85 36 152 49q-79 16 -135 45l-551 277l37 231l850 -432z" />
    <glyph glyph-name="asterisk_slash.liga" unicode="&#x2a;&#x2f;" 
d="M272 -225h-274l1012 1925h274zM-797 135l-102 -121l-166 131l100 121q90 104 285 230l-2 12q-214 5 -324 47l-127 49l111 217l129 -49q112 -44 258 -180l10 8q-34 231 -18 338l25 147h229l-23 -147q-17 -113 -129 -338l9 -6q206 140 311 178l147 49l45 -217l-145 -49
q-123 -42 -336 -47l-6 -12q158 -136 209 -230l65 -121l-209 -131l-65 121q-51 93 -84 314h-12q-99 -215 -185 -314z" />
    <glyph glyph-name="numbersign_parenleft.liga" unicode="&#x23;&#x28;" 
d="M930 1731l-41 -252q-147 -35 -259.5 -132.5t-172.5 -240.5h145l-27 -174h-167l-58 -369h168l-29 -174h-149q11 -149 93 -250.5t222 -136.5l-41 -258q-259 70 -396.5 236.5t-139.5 408.5h-457l-131 -389h-180l131 389h-291l-131 -389h-180l131 389h-156l29 174h184
l121 369h-176l29 174h204l133 389h181l-133 -389h290l134 389h180l-133 -389h340q83 231 274.5 394.5t458.5 230.5zM-793 563h291l121 369h-291zM-322 563h416l58 369h-353z" />
    <glyph glyph-name="numbersign_braceleft.liga" unicode="&#x23;&#x7b;" 
d="M1104 1700h141l-37 -236h-104q-76 0 -122 -36t-52 -109l-29 -309q-10 -112 -93.5 -180.5t-207.5 -73.5v-11q121 -5 181.5 -77t35.5 -185l-74 -329q-13 -67 22.5 -105.5t108.5 -38.5h105l-39 -237h-139q-176 0 -264 98.5t-52 265.5l56 252h-922l-131 -389h-178l129 389
h-291l-131 -389h-178l129 389h-156l29 174h186l121 369h-178l29 174h206l133 389h179l-133 -389h292l134 389h178l-133 -389h798l23 237q15 164 133.5 260.5t294.5 96.5zM-795 563h293l121 369h-293zM268 866h185q113 0 161 66h-817l-121 -369h879q-28 66 -139 66h-185z" />
    <glyph glyph-name="numbersign_bracketleft.liga" unicode="&#x23;[" 
d="M877 1700l-37 -236h-318l-57 -358h166l-27 -174h-166l-59 -369h168l-29 -174h-168l-59 -379h317l-35 -235h-575l96 614h-471l-131 -389h-178l131 389h-293l-131 -389h-178l131 389h-156l29 174h184l121 369h-176l27 174h206l134 389h180l-133 -389h291l133 389h180
l-133 -389h346l94 594h576zM-788 563h290l121 369h-291zM-317 563h440l57 369h-377z" />
    <glyph glyph-name="numbersign_colon.liga" unicode="&#x23;&#x3a;" 
d="M-977 0h-188l125 373h-166l28 176h197l133 397h-201l27 176h231l127 373h187l-125 -373h283l124 373h189l-125 -373h166l-29 -176h-196l-134 -397h201l-27 -176h-231l-127 -373h-186l125 373h-283zM659 856q-85 0 -127.5 49t-29.5 131q12 86 72 138.5t145 52.5
q84 0 127 -52t31 -139q-12 -81 -72.5 -130.5t-145.5 -49.5zM-659 946l-134 -397h281l133 397h-280zM563 248q-85 0 -128.5 50t-31.5 132q13 86 74 137t146 51t127.5 -51t29.5 -137q-12 -82 -72 -132t-145 -50z" />
    <glyph glyph-name="numbersign_exclam.liga" unicode="&#x23;&#x21;" 
d="M-977 0h-188l125 373h-166l28 176h197l133 397h-201l27 176h231l127 373h187l-125 -373h283l124 373h189l-125 -373h166l-29 -176h-196l-134 -397h201l-27 -176h-231l-127 -373h-186l125 373h-283zM582 477h-189l215 735l101 283h278l-98 -283zM-659 946l-134 -397h281
l133 397h-280zM344 -10h-59q-63 0 -88.5 37.5t-3.5 97.5q20 60 72 97.5t114 37.5h61q64 0 90.5 -37.5t6.5 -97.5q-23 -60 -76 -97.5t-117 -37.5z" />
    <glyph glyph-name="numbersign_question.liga" unicode="&#x23;&#x3f;" 
d="M717 1516q246 0 371.5 -122t91.5 -329q-31 -195 -162.5 -315t-319.5 -125l-28 -181h-226l58 406h127q125 0 200.5 55.5t92.5 159.5q17 101 -47 158t-195 57q-130 0 -212 -57t-99 -158l-21 -133h-549l-121 -369h179l-29 -174h-207l-131 -389h-180l131 389h-291l-131 -389
h-180l131 389h-156l29 174h184l121 369h-176l29 174h204l133 389h181l-133 -389h290l134 389h180l-133 -389h262q46 188 207 299t391 111zM-793 563h291l121 369h-291zM494 260h53q66 0 100 -37.5t25 -99.5q-10 -61 -56 -97t-112 -36h-51q-66 0 -100 36.5t-25 96.5
q11 62 56.5 99.5t109.5 37.5z" />
    <glyph glyph-name="numbersign_numbersign.liga" unicode="&#x23;&#x23;" 
d="M-922 0h-178l129 389h-155l28 174h187l120 369h-178l29 174h207l133 389h178l-133 -389h293l133 389h178l-133 -389h457l133 389h178l-133 -389h293l133 389h178l-133 -389h158l-29 -174h-186l-121 -369h178l-29 -174h-207l-131 -389h-178l129 389h-291l-131 -389h-178
l129 389h-454l-132 -389h-178l129 389h-291zM-612 932l-121 -369h293l121 369h-293zM-141 932l-121 -369h457l120 369h-456zM494 932l-121 -369h293l120 369h-292z" />
    <glyph glyph-name="numbersign_numbersign_numbersign.liga" unicode="&#x23;&#x23;&#x23;" 
d="M-2150 0h-179l129 389h-155l28 174h187l121 369h-179l29 174h207l133 389h178l-133 -389h293l133 389h178l-133 -389h518l133 389h179l-133 -389h292l134 389h178l-133 -389h518l133 389h178l-133 -389h293l133 389h178l-133 -389h158l-29 -174h-186l-121 -369h178
l-29 -174h-207l-131 -389h-178l129 389h-291l-131 -389h-178l129 389h-516l-131 -389h-178l129 389h-291l-131 -389h-178l129 389h-516l-131 -389h-179l129 389h-290zM-1841 932l-121 -369h293l121 369h-293zM-1370 932l-121 -369h518l121 369h-518zM-674 932l-121 -369h293
l121 369h-293zM-203 932l-121 -369h519l120 369h-518zM494 932l-121 -369h293l120 369h-292z" />
    <glyph glyph-name="numbersign_numbersign_numbersign_numbersign.liga" unicode="&#x23;&#x23;&#x23;&#x23;" 
d="M-3355 0h-180l131 389h-155l28 174h187l120 369h-178l29 174h207l131 389h180l-133 -389h293l131 389h180l-133 -389h539l133 389h180l-133 -389h291l133 389h180l-133 -389h524l133 389h178l-133 -389h293l133 389h179l-134 -389h527l133 389h178l-133 -389h293l133 389
h178l-133 -389h158l-29 -174h-186l-121 -369h178l-29 -174h-207l-131 -389h-178l129 389h-291l-131 -389h-178l129 389h-524l-131 -389h-180l131 389h-291l-131 -389h-180l131 389h-525l-131 -389h-178l131 389h-293l-131 -389h-178l131 389h-539l-131 -389h-180l131 389
h-291zM-3045 932l-121 -369h293l120 369h-292zM-2574 932l-121 -369h538l121 369h-538zM-1855 932l-121 -369h290l121 369h-290zM-1384 932l-121 -369h524l121 369h-524zM-682 932l-121 -369h293l121 369h-293zM-211 932l-121 -369h527l120 369h-526zM494 932l-121 -369h293
l120 369h-292z" />
    <glyph glyph-name="numbersign_equal.liga" unicode="&#x23;&#x3d;" 
d="M-977 0h-188l125 373h-166l28 176h197l133 397h-201l27 176h231l127 373h187l-125 -373h283l124 373h189l-125 -373h166l-29 -176h-196l-134 -397h201l-27 -176h-231l-127 -373h-186l125 373h-283zM1116 885h-901l37 237h901zM-659 946l-134 -397h281l133 397h-280z
M1034 373h-901l37 237h901z" />
    <glyph glyph-name="numbersign_underscore.liga" unicode="&#x23;_" 
d="M983 -283h-1769l225 672h-291l-131 -389h-178l129 389h-156l29 174h186l121 369h-178l29 174h206l133 389h179l-133 -389h292l134 389h178l-133 -389h157l-28 -174h-187l-121 -369h179l-29 -174h-207l-149 -440h1550zM-674 932l-121 -369h293l121 369h-293z" />
    <glyph glyph-name="numbersign_underscore_parenleft.liga" unicode="&#x23;_&#x28;" 
d="M846 -283h-2861l225 672h-291l-131 -389h-178l129 389h-156l29 174h186l121 369h-178l29 174h207l133 389h178l-133 -389h293l133 389h178l-133 -389h157l-28 -174h-187l-120 -369h178l-29 -174h-207l-149 -440h2240q-99 72 -142 220.5t-17 319.5l67 435q47 294 254 506
t524 292l-39 -252q-191 -44 -319 -189.5t-162 -356.5l-67 -435q-34 -204 48 -349t255 -189zM-1903 932l-120 -369h292l121 369h-293z" />
    <glyph glyph-name="slash_asterisk.liga" unicode="&#x2f;&#x2a;" 
d="M-956 -225h-275l1012 1925h274zM426 565l-102 -121l-168 131l102 121q90 104 285 230l-4 12q-212 5 -322 47l-129 49l113 217l129 -49q62 -25 132.5 -77t123.5 -103l12 8q-34 231 -18 338l22 148h232l-25 -148q-17 -119 -127 -338l8 -6q195 136 311 178l146 49l47 -217
l-147 -49q-123 -42 -334 -47l-8 -12q151 -126 210 -230l66 -121l-209 -131l-67 121q-55 101 -82 314h-13q-101 -217 -184 -314z" />
    <glyph glyph-name="slash_asterisk_asterisk.liga" unicode="&#x2f;&#x2a;&#x2a;" 
d="M-2185 -225h-275l1012 1925h274zM-797 565l-102 -121l-166 131l100 121q90 104 285 230l-2 12q-214 5 -324 47l-127 49l111 217l129 -49q112 -44 258 -180l10 8q-34 231 -18 338l25 148h229l-23 -148q-17 -113 -129 -338l9 -6q206 140 311 178l147 49l45 -217l-145 -49
q-123 -42 -336 -47l-6 -12q158 -136 209 -230l65 -121l-209 -131l-65 121q-51 93 -84 314h-12q-99 -215 -185 -314zM432 565l-102 -121l-166 131l100 121q90 104 285 230l-2 12q-214 5 -324 47l-127 49l111 217l129 -49q112 -44 258 -180l10 8q-34 231 -18 338l24 148h230
l-23 -148q-17 -113 -129 -338l8 -6q205 139 312 178l147 49l45 -217l-145 -49q-123 -42 -336 -47l-6 -12q158 -136 209 -230l65 -121l-209 -131l-65 121q-51 93 -84 314h-13q-101 -217 -184 -314z" />
    <glyph glyph-name="slash_equal.liga" unicode="&#x2f;&#x3d;" 
d="M1079 1044l-37 -235h-1394l-140 -268h1491l-38 -234h-1575l-281 -532h-274l1011 1925h275l-344 -656h1306z" />
    <glyph glyph-name="slash_equal_equal.liga" unicode="&#x2f;&#x3d;&#x3d;" 
d="M1079 1044l-37 -235h-2607l-182 -268h2746l-38 -234h-2868l-364 -532h-273l1315 1925h275l-449 -656h2482z" />
    <glyph glyph-name="slash_greater.liga" unicode="&#x2f;&#x3e;" 
d="M-881 -225h-272l1014 1925h272l-188 -359l1073 -538l-41 -256l-985 -432l39 250l637 274q79 34 166 43q-83 9 -154 45l-838 422z" />
    <glyph glyph-name="slash_slash.liga" unicode="&#x2f;&#x2f;" 
d="M-803 -225h-274l1011 1925h275zM119 -225h-275l1012 1925h274z" />
    <glyph glyph-name="slash_slash_equal.liga" unicode="&#x2f;&#x2f;&#x3d;" 
d="M-2271 -225l1011 1925h273l-1012 -1925h-272zM1038 1044l-37 -235h-1533l-140 -268h1630l-38 -234h-1715l-280 -532h-273l1012 1925h273l-345 -656h1446z" />
    <glyph glyph-name="slash_slash_slash.liga" unicode="&#x2f;&#x2f;&#x2f;" 
d="M-1939 -225h-275l1012 1925h274zM-956 -225h-275l1012 1925h274zM27 -225h-275l1012 1925h274z" />
    <glyph glyph-name="underscore_bar_underscore.liga" unicode="_&#x7c;_" 
d="M664 -283h-2827l37 232h1284l252 1587h258l-252 -1587h1284z" />
    <glyph glyph-name="underscore_underscore.liga" unicode="__" 
d="M971 -283h-2212l37 232h2212z" />
    <glyph glyph-name="at_underscore.liga" unicode="&#x40;_" 
d="M-662 -51h1670l-37 -232h-1669q-181 0 -304.5 81.5t-172.5 224t-21 325.5l90 574q44 277 223.5 435.5t448.5 158.5q255 0 375 -100t86 -314l-140 -887h-194l28 113h-36q-28 -62 -90.5 -97.5t-145.5 -35.5q-129 0 -185.5 85.5t-31.5 243.5l37 234q25 158 108.5 243.5
t212.5 85.5q88 0 140 -39t55 -106h37l-10 143l4 17q21 130 -48.5 179.5t-230.5 49.5q-173 0 -286 -107t-144 -302l-90 -574q-31 -190 53.5 -294.5t267.5 -104.5zM-276 532l36 226q27 174 -112 174t-166 -174l-39 -234q-13 -91 15 -132.5t98 -41.5q74 0 113.5 43t54.5 139z
" />
    <glyph glyph-name="ampersand_ampersand.liga" unicode="&#x26;&#x26;" 
d="M-59 1143h-238q12 75 -27 118.5t-116 43.5q-72 0 -122.5 -42t-62.5 -112q-14 -94 60 -229l508 -922h-256l-76 135q-166 -155 -371 -155q-184 0 -270 101.5t-57 283.5l28 190q19 121 86.5 204t173.5 115q-78 158 -55 297q25 154 147.5 249.5t298.5 95.5q185 0 281 -102
t68 -271zM883 737h247l-284 -415l178 -322h-256l-74 135q-169 -155 -372 -155q-184 0 -270.5 101.5t-57.5 283.5l31 190q19 121 86 204t172 115q-76 160 -56 297q25 154 148.5 249.5t300.5 95.5q184 0 279 -102t67 -271h-238q12 74 -26.5 118t-114.5 44q-73 0 -123.5 -41.5
t-62.5 -112.5q-14 -95 59 -229l221 -400zM-487 313l-220 394q-91 -40 -108 -152l-29 -190q-13 -83 23.5 -129t113.5 -46q59 0 116.5 32.5t103.5 90.5zM377 190q59 0 116 32.5t101 90.5l-217 394q-92 -39 -109 -152l-30 -190q-13 -82 24.5 -128.5t114.5 -46.5z" />
    <glyph glyph-name="ampersand_ampersand_ampersand.liga" unicode="&#x26;&#x26;&#x26;" 
d="M-1251 1143h-238q12 74 -26.5 118t-114.5 44q-74 0 -124.5 -42t-62.5 -112q-14 -94 60 -229l508 -922h-256l-74 135q-169 -155 -373 -155q-184 0 -270 101.5t-57 283.5l30 190q19 121 86 204t172 115q-75 159 -55 297q25 154 148.5 249.5t300.5 95.5q184 0 279 -102
t67 -271zM-145 1143h-238q12 74 -26.5 118t-114.5 44q-74 0 -124.5 -42t-62.5 -112q-14 -94 60 -229l508 -922h-256l-74 135q-169 -155 -373 -155q-184 0 -270.5 101.5t-57.5 283.5l31 190q19 121 86 204t172 115q-75 159 -55 297q25 154 148 249.5t300 95.5q185 0 280 -102
t67 -271zM821 737h248l-285 -415l179 -322h-256l-74 135q-169 -155 -373 -155q-184 0 -270.5 101.5t-57.5 283.5l31 190q19 121 86 204t172 115q-75 159 -55 297q25 154 148 249.5t300 95.5q185 0 280 -102t67 -271h-238q12 74 -26.5 118t-114.5 44q-74 0 -124.5 -42
t-62.5 -112q-14 -94 60 -229l221 -400zM-1679 313l-217 394q-92 -39 -109 -152l-31 -190q-13 -82 25 -128.5t115 -46.5q59 0 116 32.5t101 90.5zM-573 313l-218 394q-91 -38 -108 -152l-31 -190q-13 -82 24.5 -128.5t114.5 -46.5q59 0 116.5 32.5t101.5 90.5zM315 190
q59 0 116 32.5t101 90.5l-217 394q-91 -38 -108 -152l-31 -190q-13 -82 24.5 -128.5t114.5 -46.5z" />
    <glyph glyph-name="ampersand_equal.liga" unicode="&#x26;&#x3d;" 
d="M-307 518l360 526h1088l-37 -235h-975l-330 -487l178 -322h-256l-73 133q-167 -153 -373 -153q-184 0 -270.5 101.5t-57.5 283.5l29 190q20 121 86.5 204t171.5 118q-76 155 -53 294q25 154 147.5 249.5t298.5 95.5q186 0 281 -102t67 -271h-237q12 75 -27.5 118.5
t-116.5 43.5q-72 0 -122 -42t-62 -112q-14 -94 60 -229zM-672 190q124 0 219 121l-221 398q-86 -36 -104 -154l-31 -190q-13 -83 23.5 -129t113.5 -46zM1022 307h-973l39 236h973z" />
    <glyph glyph-name="bar_hyphen.liga" unicode="&#x7c;&#x2d;" 
d="M-602 -174h-258l270 1710h258l-119 -741h1346l-37 -238h-1345z" />
    <glyph glyph-name="bar_hyphen_greater.liga" unicode="&#x7c;&#x2d;&#x3e;" 
d="M-2025 72h-256l190 1208h256l-76 -485h2648l-295 485h291l365 -604l-557 -604h-310l449 485h-2630z" />
    <glyph glyph-name="bar_braceright.liga" unicode="&#x7c;&#x7d;" 
d="M-569 -225h-258l303 1925h258zM725 854h244l-37 -236h-244q-182 0 -194 -169l-31 -312q-15 -166 -134.5 -265t-295.5 -99h-283l37 237h248q73 0 120.5 38.5t53.5 105.5l31 319q10 104 79.5 174t178.5 90q-103 20 -150 90t-24 172l71 320q29 145 -131 145h-248l37 236h285
q176 0 263.5 -96.5t51.5 -260.5l-69 -321q-19 -84 15 -126t126 -42z" />
    <glyph glyph-name="bar_bracketright.liga" unicode="&#x7c;]" 
d="M-588 -225h-256l303 1925h256zM594 -225h-823l36 235h568l229 1454h-567l37 236h823z" />
    <glyph glyph-name="bar_bar.liga" unicode="&#x7c;&#x7c;" 
d="M-487 -225h-258l303 1925h258zM496 -225h-258l303 1925h258z" />
    <glyph glyph-name="bar_bar_hyphen.liga" unicode="&#x7c;&#x7c;&#x2d;" 
d="M-1657 -174h-258l270 1710h259zM-776 -174h-258l270 1710h258l-119 -741h1418l-37 -238h-1418z" />
    <glyph glyph-name="bar_bar_bar.liga" unicode="&#x7c;&#x7c;&#x7c;" 
d="M-1606 -225h-256l303 1925h256zM-621 -225h-256l304 1925h256zM385 -225h-256l303 1925h256z" />
    <glyph glyph-name="bar_bar_bar_greater.liga" unicode="&#x7c;&#x7c;&#x7c;&#x3e;" 
d="M-2630 -174h-258l271 1710h258zM-1749 -174h-258l270 1710h258zM-852 -174h-256l270 1710h256l1080 -731l-41 -258zM-621 1264l-180 -1137l907 496q79 43 150 69q-72 29 -127 68z" />
    <glyph glyph-name="bar_bar_equal.liga" unicode="&#x7c;&#x7c;&#x3d;" 
d="M-1657 -174h-258l270 1710h259zM-776 -174h-258l270 1710h258l-80 -492h1422l-39 -235h-1420l-41 -266h1420l-39 -236h-1419z" />
    <glyph glyph-name="bar_bar_greater.liga" unicode="&#x7c;&#x7c;&#x3e;" 
d="M-1554 -174h-258l270 1710h258zM-664 -174h-256l271 1710h256l1079 -731l-41 -258zM-432 1264l-180 -1137l907 496q81 44 149 69q-72 29 -127 68z" />
    <glyph glyph-name="bar_equal.liga" unicode="&#x7c;&#x3d;" 
d="M-602 -174h-258l270 1710h258l-80 -492h1348l-37 -235h-1348l-40 -266h1345l-39 -236h-1345z" />
    <glyph glyph-name="bar_equal_greater.liga" unicode="&#x7c;&#x3d;&#x3e;" 
d="M-2025 72h-256l190 1208h256l-37 -236h2458l-144 236h291l365 -604l-557 -604h-310l222 235h-2442zM-1909 809l-41 -266h2622l131 133l-76 133h-2636z" />
    <glyph glyph-name="bar_greater.liga" unicode="&#x7c;&#x3e;" 
d="M-545 -174h-256l271 1710h256l1079 -731l-41 -258zM-313 1264l-181 -1137l908 496q81 44 149 69q-72 29 -127 68z" />
    <glyph glyph-name="dollar_greater.liga" unicode="&#x24;&#x3e;" 
d="M-55 1417l1157 -614l-41 -256l-973 -432l39 250l623 274q80 34 139 47q-58 9 -123 45l-938 502q-83 45 -193 55l-65 -424l63 -18q166 -40 243.5 -156.5t51.5 -281.5q-28 -179 -162.5 -294t-334.5 -132l-43 -269h-129l43 269q-200 17 -297.5 128t-69.5 291h256
q-13 -76 25 -126.5t120 -65.5l70 438l-37 12q-164 49 -241.5 164t-55.5 275q28 173 154.5 284.5t316.5 130.5l43 269h129l-43 -273q130 -16 273 -92zM-670 1112q-12 -78 18.5 -134t98.5 -81l59 389q-74 -14 -119 -58t-57 -116zM-328 397q12 81 -26 136.5t-117 74.5l-64 -401
q85 12 139 62t68 128z" />
    <glyph glyph-name="plus_plus.liga" unicode="&#x2b;&#x2b;" 
d="M-434 188h-256l59 369h-366l36 238h367l57 368h256l-59 -368h750l57 368h256l-59 -368h366l-37 -238h-366l-58 -369h-256l60 369h-750z" />
    <glyph glyph-name="plus_plus_plus.liga" unicode="&#x2b;&#x2b;&#x2b;" 
d="M-1550 188h-256l59 369h-367l37 238h367l57 368h256l-59 -368h749l58 368h256l-60 -368h750l57 368h256l-59 -368h367l-37 -238h-367l-57 -369h-256l59 369h-749l-58 -369h-256l60 369h-750z" />
    <glyph glyph-name="plus_greater.liga" unicode="&#x2b;&#x3e;" 
d="M-492 92h-253l73 465h-456l36 238h457l74 465h254l-74 -465h457l-37 -238h-457zM1094 547l-985 -432l36 243l637 275q85 36 152 49q-79 16 -135 45l-551 277l37 231l850 -432z" />
    <glyph glyph-name="equal_colon.liga" unicode="&#x3d;&#x3a;" 
d="M846 1165q85 0 128.5 -50t29.5 -132q-13 -86 -73 -137t-145 -51q-86 0 -128.5 50.5t-30.5 137.5q13 82 73.5 132t145.5 50zM-854 1044h1126l-36 -235h-1127zM750 557q85 0 127.5 -49t29.5 -131q-14 -86 -73 -138.5t-144 -52.5t-128 52.5t-30 138.5q12 81 72.5 130.5
t145.5 49.5zM-934 543h1127l-37 -236h-1127z" />
    <glyph glyph-name="equal_colon_equal.liga" unicode="&#x3d;&#x3a;&#x3d;" 
d="M-580 795q-85 0 -127.5 49t-29.5 131q13 86 72.5 138t144.5 52t128 -52t30 -138q-12 -81 -72.5 -130.5t-145.5 -49.5zM-1110 809h-1145l37 235h1147zM1104 809h-1147l37 235h1147zM-676 186q-85 0 -128.5 50.5t-29.5 132.5q12 85 72 136.5t146 51.5q85 0 128 -51t31 -137
q-14 -82 -74 -132.5t-145 -50.5zM-1190 307h-1147l39 236h1147zM1022 307h-1145l39 236h1145z" />
    <glyph glyph-name="equal_exclam_equal.liga" unicode="&#x3d;&#x21;&#x3d;" 
d="M-737 477h-191l72 735l45 283h281l-45 -283zM-1110 809h-1145l37 235h1147zM1104 809h-1147l37 235h1147zM-1190 307h-1147l39 236h1147zM1022 307h-1145l39 236h1145zM-881 -10h-59q-63 0 -96.5 37.5t-24.5 97.5q11 60 55 97.5t107 37.5h61q64 0 97 -37.5t24 -97.5
q-11 -60 -56 -97.5t-108 -37.5z" />
    <glyph glyph-name="equal_equal.liga" unicode="&#x3d;&#x3d;" 
d="M1104 809h-2130l37 235h2130zM1022 307h-2130l39 236h2130z" />
    <glyph glyph-name="equal_equal_equal.liga" unicode="&#x3d;&#x3d;&#x3d;" 
d="M1139 1067h-3351l37 219h3351zM1061 565h-3351l35 221h3351zM981 66h-3351l35 219h3351z" />
    <glyph glyph-name="equal_equal_greater.liga" unicode="&#x3d;&#x3d;&#x3e;" 
d="M541 72h-310l222 235h-2784l37 236h2966l135 141l-82 125h-2976l37 235h2798l-142 236h291l365 -604z" />
    <glyph glyph-name="equal_greater.liga" unicode="&#x3d;&#x3e;" 
d="M541 72h-310l220 235h-1553l37 236h1733l137 137l-80 129h-1747l37 235h1569l-142 236h291l365 -604z" />
    <glyph glyph-name="equal_greater_greater.liga" unicode="&#x3d;&#x3e;&#x3e;" 
d="M-96 72h-312l220 235h-2143l37 236h2325l139 141l-84 125h-2337l37 235h2159l-142 236h293l363 -604zM541 72h-310l576 612l-365 596h291l365 -604z" />
    <glyph glyph-name="equal_less_less.liga" unicode="&#x3d;&#x3c;&#x3c;" 
d="M326 72h-291l-144 235h-2222l37 236h2046l-84 133l125 133h-2044l37 235h2224l217 236h310l-570 -610zM948 72h-293l-364 604l557 604h311l-571 -610z" />
    <glyph glyph-name="equal_slash_equal.liga" unicode="&#x3d;&#x2f;&#x3d;" 
d="M-1057 0h-256l246 307h-1333l39 236h1487l212 266h-1658l36 235h1813l254 318h256l-254 -318h1339l-39 -235h-1491l-212 -266h1662l-38 -236h-1817z" />
    <glyph glyph-name="greater_hyphen.liga" unicode="&#x3e;&#x2d;" 
d="M-864 72l-310 -2l566 616l-355 594h291l295 -485h1473l-37 -238h-1475z" />
    <glyph glyph-name="greater_hyphen_greater.liga" unicode="&#x3e;&#x2d;&#x3e;" 
d="M-2040 72h-311l569 614l-358 594h293l295 -485h2287l-293 485h291l365 -604l-557 -604h-310l449 485h-2271z" />
    <glyph glyph-name="greater_bracketright.liga" unicode="&#x3e;]" 
d="M500 -225h-574l37 235h318l229 1454h-317l36 236h574zM63 578l-985 -433l37 244l637 275q80 35 152 49q-82 17 -135 45l-551 276l37 232l849 -432z" />
    <glyph glyph-name="greater_colon.liga" unicode="&#x3e;&#x3a;" 
d="M449 915q-86 0 -131 47.5t-33 124.5t72.5 125t146.5 48q84 0 129 -48t33 -125t-71.5 -124.5t-145.5 -47.5zM127 547l-985 -432l37 243l637 275q86 36 151 49q-79 16 -135 45l-551 277l37 231l850 -432zM317 92q-86 0 -130.5 47.5t-32.5 124.5t72.5 124.5t146.5 47.5
q85 0 129.5 -47.5t32.5 -124.5q-12 -76 -72.5 -124t-145.5 -48z" />
    <glyph glyph-name="greater_equal.liga" unicode="&#x3e;&#x3d;" 
d="M651 739l-1317 -432l37 250l975 289q80 24 160 24l2 19q-85 0 -152 22l-882 293l39 230l1179 -435zM578 272l-1319 -432l36 226l1319 432z" />
    <glyph glyph-name="greater_equal_greater.liga" unicode="&#x3e;&#x3d;&#x3e;" 
d="M-2040 72h-311l565 610l-354 598h293l143 -236h2288l-142 236h291l365 -604l-557 -604h-310l220 235h-2276zM-1483 676l-123 -133h2274l135 139l-78 127h-2290z" />
    <glyph glyph-name="greater_greater.liga" unicode="&#x3e;&#x3e;" 
d="M979 547l-985 -432l37 243l637 275q86 36 151 49q-79 16 -135 45l-551 277l37 231l850 -432zM-68 545l-985 -432l37 243l637 275q85 36 152 49q-79 16 -135 45l-551 276l36 232l850 -432z" />
    <glyph glyph-name="greater_greater_hyphen.liga" unicode="&#x3e;&#x3e;&#x2d;" 
d="M-2040 72h-311l563 614l-352 594h293l364 -604zM-1425 72h-312l563 614l-352 594h293l295 -485h2034l-37 -238h-2036z" />
    <glyph glyph-name="greater_greater_equal.liga" unicode="&#x3e;&#x3e;&#x3d;" 
d="M-2040 72h-311l561 612l-350 596h293l364 -604zM-1425 72h-312l561 612l-350 596h293l143 -236h2227l-37 -235h-2050l82 -133l-123 -133h2048l-39 -236h-2228z" />
    <glyph glyph-name="greater_greater_greater.liga" unicode="&#x3e;&#x3e;&#x3e;" 
d="M-979 547l-985 -432l37 243l637 275q86 36 151 49q-79 16 -135 45l-551 277l37 231l850 -432zM45 547l-985 -432l37 243l637 275q86 36 151 49q-79 16 -135 45l-551 277l37 231l850 -432zM1069 547l-985 -432l37 243l637 275q86 36 151 49q-79 16 -135 45l-551 277
l37 231l850 -432z" />
    <glyph glyph-name="less_hyphen.liga" unicode="&#x3c;&#x2d;" 
d="M-408 72h-290l-367 604l559 604h309l-450 -485h1706l-37 -238h-1724z" />
    <glyph glyph-name="less_hyphen_hyphen.liga" unicode="&#x3c;&#x2d;&#x2d;" 
d="M-1626 72h-301l-367 604l559 604h299l-422 -455q-20 -20 -28 -30h2982l-37 -232h-2982q2 -4 22 -39z" />
    <glyph glyph-name="less_hyphen_bar.liga" unicode="&#x3c;&#x2d;&#x7c;" 
d="M-1886 795h2640l77 485h256l-190 -1208h-256l76 485h-2638l295 -485h-301l-367 604l559 604h299z" />
    <glyph glyph-name="less_hyphen_greater.liga" unicode="&#x3c;&#x2d;&#x3e;" 
d="M-1636 72h-291l-367 604l559 604h312l-451 -485h2611l-295 485h291l365 -604l-557 -604h-310l449 485h-2611z" />
    <glyph glyph-name="less_hyphen_less.liga" unicode="&#x3c;&#x2d;&#x3c;" 
d="M-1636 72h-291l-367 604l559 604h310l-451 -485h2273l451 485h311l-557 -614l346 -594h-293l-295 485h-2291z" />
    <glyph glyph-name="less_colon.liga" unicode="&#x3c;&#x3a;" 
d="M449 915q-86 0 -131 47.5t-33 124.5t72.5 125t146.5 48q84 0 129 -48t33 -125t-71.5 -124.5t-145.5 -47.5zM90 344l-37 -229l-848 432l39 256l985 432l-36 -246l-637 -274q-80 -35 -152 -49q79 -15 137 -45zM317 92q-86 0 -130.5 47.5t-32.5 124.5t72.5 124.5t146.5 47.5
q85 0 129.5 -47.5t32.5 -124.5q-12 -76 -72.5 -124t-145.5 -48z" />
    <glyph glyph-name="less_colon_less.liga" unicode="&#x3c;&#x3a;&#x3c;" 
d="M-780 915q-86 0 -131 47.5t-33 124.5t72.5 125t146.5 48q84 0 129 -48t33 -125t-71.5 -124.5t-145.5 -47.5zM-1337 344l-37 -229l-850 432l41 256l985 432l-37 -246l-637 -274q-86 -36 -151 -49q79 -15 137 -45zM854 344l-37 -229l-850 432l41 256l985 432l-37 -246
l-637 -274q-86 -36 -151 -49q79 -15 137 -45zM-911 92q-86 0 -131 47.5t-33 124.5t72.5 124.5t146.5 47.5q85 0 129.5 -47.5t32.5 -124.5t-72 -124.5t-145 -47.5z" />
    <glyph glyph-name="less_exclam_hyphen_hyphen.liga" unicode="&#x3c;&#x21;&#x2d;&#x2d;" 
d="M-2171 477l189 735l90 283h278l-88 -283l-280 -735h-189zM-2267 557h-883q2 -3 10 -14.5t11 -18.5l274 -452h-301l-367 604l560 604h299l-422 -455q-25 -25 -29 -30h885zM-1423 557l37 238h2482l-37 -238h-2482zM-2177 260h61q65 0 92.5 -37t8.5 -98q-20 -60 -71.5 -97.5
t-115.5 -37.5h-59q-63 0 -90 37.5t-8 97.5t69.5 97.5t112.5 37.5z" />
    <glyph glyph-name="less_asterisk.liga" unicode="&#x3c;&#x2a;" 
d="M397 299l-155 -182l-166 131l153 182q83 101 283 232l-2 10q-214 5 -324 47l-186 69l113 218l188 -70q106 -40 256 -180l10 8q-34 231 -18 338l33 209h231l-33 -209q-21 -125 -127 -338l9 -6q201 140 311 178l211 70l45 -218l-211 -69q-131 -42 -334 -47l-8 -13
q163 -141 211 -229l96 -182l-211 -131l-96 182q-56 102 -82 313h-14q-98 -212 -183 -313zM-221 344l-37 -229l-850 432l41 256l985 432l-37 -246l-637 -274q-86 -36 -151 -49q79 -15 137 -45z" />
    <glyph glyph-name="less_asterisk_greater.liga" unicode="&#x3c;&#x2a;&#x3e;" 
d="M-799 299l-153 -182l-166 131l151 182q91 107 285 232l-2 10q-214 5 -324 47l-186 69l113 218l186 -70q108 -40 258 -180l10 8q-34 231 -18 338l33 209h229l-31 -209q-20 -119 -129 -338l8 -6q209 142 312 178l213 70l45 -218l-211 -69q-131 -42 -336 -47l-6 -13
q159 -137 209 -229l96 -182l-209 -131l-96 182q-51 93 -84 313h-12q-98 -213 -185 -313zM-1389 344l-36 -229l-850 432l41 256l985 432l-37 -246l-637 -274q-85 -36 -152 -49q80 -16 138 -45zM1038 547l-985 -432l37 243l637 275q85 36 152 49q-80 17 -136 45l-550 277
l36 231l850 -432z" />
    <glyph glyph-name="less_bar.liga" unicode="&#x3c;&#x7c;" 
d="M567 -174h-256l-1081 721l41 258l1311 731h256zM-528 678l878 -565l178 1136z" />
    <glyph glyph-name="less_bar_bar.liga" unicode="&#x3c;&#x7c;&#x7c;" 
d="M-549 -174h-256l-1081 721l41 258l1310 731h256zM350 -174h-258l270 1710h259zM-1645 678l879 -565l178 1136z" />
    <glyph glyph-name="less_bar_bar_bar.liga" unicode="&#x3c;&#x7c;&#x7c;&#x7c;" 
d="M-1583 -174h-256l-1081 721l41 258l1310 731h256zM-684 -174h-258l270 1710h258zM197 -174h-258l270 1710h258zM-2679 678l879 -565l178 1136z" />
    <glyph glyph-name="less_bar_greater.liga" unicode="&#x3c;&#x7c;&#x3e;" 
d="M-610 -225h-258l288 1822h258zM-1040 102l-45 -278l-1082 723l41 258l1311 731l-45 -295l-1057 -573zM930 547l-1309 -721l45 303l1055 565l-873 574l46 268l1077 -731z" />
    <glyph glyph-name="less_dollar.liga" unicode="&#x3c;&#x24;" 
d="M1130 1104h-256q11 74 -20.5 120.5t-103.5 61.5l-68 -418l63 -18q164 -46 243.5 -163t53.5 -279q-28 -177 -163.5 -293t-333.5 -133l-43 -269h-129l43 269q-238 9 -400 81l-1083 484l39 256l985 432l-37 -246l-788 -321l1003 -414q97 -42 314 -49l71 442l-35 10
q-167 47 -245.5 163t-53.5 278q28 173 154.5 284.5t316.5 130.5l43 269h129l-43 -269q185 -17 277.5 -126.5t66.5 -282.5zM444 1108q-13 -76 17 -130t98 -77l62 385q-72 -12 -119.5 -59t-57.5 -119zM784 397q12 77 -26 133t-117 76l-63 -399q86 12 140 62t66 128z" />
    <glyph glyph-name="less_dollar_greater.liga" unicode="&#x3c;&#x24;&#x3e;" 
d="M-115 1417l1168 -614l-41 -256l-985 -432l36 245l789 324l-1090 551q-73 39 -192 53l-66 -422l64 -18q168 -46 244.5 -159.5t50.5 -280.5q-28 -177 -164 -293t-334 -133l-43 -269h-129l43 269q-237 9 -399 81l-1086 484l41 256l985 432l-37 -246l-788 -323l1004 -412
q97 -42 315 -49l70 444l-37 10q-165 46 -243.5 161t-53.5 278q28 173 154.5 284.5t316.5 128.5l43 271h129l-43 -273q136 -16 278 -92zM-735 1108q-11 -72 20 -127t97 -80l59 385q-71 -14 -117.5 -61t-58.5 -117zM-393 397q12 78 -26.5 134t-117.5 75l-63 -399q85 12 139 62
t68 128z" />
    <glyph glyph-name="less_numbersign_hyphen_hyphen.liga" unicode="&#x3c;&#x23;&#x2d;&#x2d;" 
d="M-2206 0h-188l125 373h-166l29 176h196l133 397h-200l26 176h232l127 373h186l-125 -373h283l125 373h188l-125 -373h166l-29 -176h-196l-133 -397h200l-26 -176h-232l-127 -373h-186l125 373h-283zM-2863 72h-293l-367 604l560 604h309l-451 -485h621l-37 -238h-637z
M-1888 946l-133 -397h280l133 397h-280zM1059 557h-2208l37 238h2208z" />
    <glyph glyph-name="less_plus.liga" unicode="&#x3c;&#x2b;" 
d="M594 92h-254l74 465h-457l37 238h457l73 465h254l-73 -465h456l-37 -238h-456zM-221 344l-37 -229l-850 432l41 256l985 432l-37 -246l-637 -274q-86 -36 -151 -49q79 -15 137 -45z" />
    <glyph glyph-name="less_plus_greater.liga" unicode="&#x3c;&#x2b;&#x3e;" 
d="M-551 92h-254l74 465h-457l37 238h457l73 465h254l-73 -465h456l-36 -238h-457zM-1389 344l-36 -229l-850 432l41 256l985 432l-37 -246l-637 -274q-85 -36 -152 -49q80 -16 138 -45zM1038 547l-985 -432l37 243l637 275q85 36 152 49q-80 17 -136 45l-550 277l36 231
l850 -432z" />
    <glyph glyph-name="less_equal.liga" unicode="&#x3c;&#x3d;" 
d="M621 543l-37 -236l-1182 432l41 260l1319 435l-39 -244l-973 -289q-66 -20 -158 -20l-4 -19q77 4 154 -20zM545 66l-37 -226l-1180 434l37 224z" />
    <glyph glyph-name="less_equal_bar.liga" unicode="&#x3c;&#x3d;&#x7c;" 
d="M-1636 72h-291l-367 604l559 604h310l-220 -236h2440l36 236h256l-190 -1208h-256l35 235h-2456zM-1993 670l74 -127h2634l41 266h-2618z" />
    <glyph glyph-name="less_equal_equal.liga" unicode="&#x3c;&#x3d;&#x3d;" 
d="M-1636 72h-291l-367 604l559 604h310l-220 -236h2782l-37 -235h-2960l-129 -141l72 -125h2974l-39 -236h-2796z" />
    <glyph glyph-name="less_equal_equal_greater.liga" unicode="&#x3c;&#x3d;&#x3d;&#x3e;" 
d="M-2865 72h-291l-367 604l560 604h309l-219 -236h3457l-142 236h291l365 -604l-557 -604h-312l222 235h-3460zM-3217 668l69 -125h3816l133 139l-78 127h-3811z" />
    <glyph glyph-name="less_equal_greater.liga" unicode="&#x3c;&#x3d;&#x3e;" 
d="M-1636 72h-291l-367 604l559 604h310l-217 -236h2226l-142 236h291l365 -604l-557 -604h-310l220 235h-2231zM-1991 668l72 -125h2587l133 139l-76 127h-2585z" />
    <glyph glyph-name="less_equal_less.liga" unicode="&#x3c;&#x3d;&#x3c;" 
d="M-1636 72h-291l-367 604l559 604h310l-220 -236h2276l217 236h311l-567 -612l354 -596h-291l-143 235h-2292zM-1993 668l74 -125h2292l-82 133l125 133h-2278z" />
    <glyph glyph-name="less_greater.liga" unicode="&#x3c;&#x3e;" 
d="M938 547l-1020 -490l-864 490l41 256l1020 491l864 -491zM-604 625l551 -322l682 328q74 39 133 49q-57 10 -117 47l-561 324l-672 -330q-80 -38 -133 -47q49 -10 117 -49z" />
    <glyph glyph-name="less_less.liga" unicode="&#x3c;&#x3c;" 
d="M-39 344l-37 -229l-850 432l41 256l985 432l-37 -246l-636 -274q-85 -36 -152 -49q79 -15 137 -45zM946 344l-37 -229l-850 432l41 256l985 432l-36 -246l-637 -274q-85 -36 -152 -49q79 -15 137 -45z" />
    <glyph glyph-name="less_less_hyphen.liga" unicode="&#x3c;&#x3c;&#x2d;" 
d="M-1636 72h-291l-367 604l559 604h310l-568 -614zM-997 72h-293l-365 604l557 604h312l-451 -485h2333l-37 -232h-2355z" />
    <glyph glyph-name="less_less_equal.liga" unicode="&#x3c;&#x3c;&#x3d;" 
d="M-1636 72h-291l-367 604l559 604h310l-566 -612zM-997 72h-293l-365 604l557 604h312l-218 -236h2106l-37 -235h-2286l-135 -141l74 -125h2306l-39 -236h-2128z" />
    <glyph glyph-name="less_less_less.liga" unicode="&#x3c;&#x3c;&#x3c;" 
d="M-1255 344l-37 -229l-850 432l41 256l985 432l-37 -246l-637 -274q-85 -36 -152 -49q80 -16 138 -45zM-180 344l-37 -229l-850 432l41 256l985 432l-37 -246l-637 -274q-86 -36 -151 -49q79 -15 137 -45zM895 344l-37 -229l-850 432l41 256l985 432l-37 -246l-637 -274
q-86 -36 -151 -49q79 -15 137 -45z" />
    <glyph glyph-name="less_less_asciitilde.liga" unicode="&#x3c;&#x3c;&#x7e;" 
d="M-1735 1280h308l-568 -612l361 -596h-295l-363 604zM911 745l11 74h204l-14 -88q-19 -117 -106.5 -188.5t-212.5 -71.5q-66 0 -115 23.5t-77 57.5t-51 67.5t-50.5 57t-61.5 23.5t-69.5 -23.5t-70.5 -57t-76 -67.5t-101 -57.5t-129 -23.5t-121 23.5t-82 57.5t-54 67.5
t-52 57t-62 23.5t-69 -23.5t-69 -57t-74 -67.5t-99.5 -57.5t-128.5 -23.5q-59 0 -105.5 17t-73.5 42.5t-51.5 55t-41.5 55t-41.5 42.5t-53.5 17l-141 2l-33 -34l365 -596h-295l-365 604l559 604h308l-375 -401q67 2 118.5 -21t82 -56.5t55.5 -67t53.5 -57.5t62.5 -24
t69.5 24t69.5 58t74 68t99.5 58t128.5 24q66 0 117 -24t82 -58t56.5 -68t54.5 -58t63 -24t69 24t69.5 58t75 68t100.5 58t130 24q59 0 103.5 -17t68.5 -43t45.5 -56t35.5 -56t36.5 -43t50.5 -17q88 0 104 92z" />
    <glyph glyph-name="less_asciitilde.liga" unicode="&#x3c;&#x7e;" 
d="M885 741l12 78h215l-14 -94q-20 -122 -113.5 -197t-220.5 -75q-51 0 -91.5 14t-66.5 36.5t-46.5 49.5t-36 54t-30 49.5t-34 36.5t-43.5 14q-28 0 -56.5 -19t-52 -47t-56 -61t-66.5 -61t-85 -47t-110 -19t-104 19t-70 47t-47 61t-36.5 61t-37 47t-49.5 19
q-28 0 -55.5 -15.5t-53.5 -39t-54.5 -48.5t-70 -49t-88.5 -35l268 -448h-290l-367 604l559 604h309l-534 -575q33 0 63.5 14.5t53.5 36.5t53 47t60 47t76 36.5t101 14.5q59 0 104 -19t70 -47t47 -61t36.5 -61t37 -47t49.5 -19t55.5 19t52 47t55.5 61t66 61t85 47t110 19
t103.5 -19t69 -47t46 -61t36 -61t37 -47t50.5 -19q40 0 66.5 25t32.5 69z" />
    <glyph glyph-name="less_asciitilde_greater.liga" unicode="&#x3c;&#x7e;&#x3e;" 
d="M-1389 344l-36 -229l-850 432l41 256l985 432l-37 -246l-637 -274q-85 -36 -152 -49q80 -16 138 -45zM1038 547l-985 -432l37 243l637 275q85 36 152 49q-80 17 -136 45l-550 277l36 231l850 -432zM-809 453q-69 0 -121 26t-81.5 63.5t-53.5 75t-51.5 63.5t-61.5 26
q-40 0 -64.5 -25.5t-29.5 -69.5l-4 -75h-217l6 94q7 123 89.5 196.5t211.5 73.5q64 0 115 -19t80 -47t54.5 -61t42.5 -61t41 -47t52 -19q27 0 53 19t46.5 47t49 61t59 61t79.5 47t108 19t105.5 -19t73.5 -47t52 -61t42.5 -61t42.5 -47t55 -19q41 0 66 25.5t30 68.5l5 78h217
l-7 -94q-7 -123 -90 -197.5t-211 -74.5q-63 0 -113.5 19t-80.5 47t-56.5 61t-45 61t-43 47t-52.5 19q-27 0 -53 -19t-46 -47t-48.5 -61t-59 -61t-79 -47t-107.5 -19z" />
    <glyph glyph-name="less_asciitilde_asciitilde.liga" unicode="&#x3c;&#x7e;&#x7e;" 
d="M909 745l11 74h204l-14 -88q-19 -117 -106 -188.5t-213 -71.5q-66 0 -115 23.5t-77 57.5t-50.5 67.5t-49.5 57t-61 23.5t-69.5 -23.5t-70.5 -57t-76 -67.5t-101 -57.5t-129 -23.5t-121.5 23.5t-82 57.5t-54 67.5t-52 57t-61.5 23.5t-69.5 -23.5t-69.5 -57t-73.5 -67.5
t-99 -57.5t-128.5 -23.5q-70 0 -122 23.5t-81 57.5t-52.5 67.5t-50.5 57t-61 23.5q-25 0 -50 -12.5t-47.5 -33t-46 -44.5t-52.5 -48.5t-61.5 -45t-77 -33t-95.5 -12.5q-58 0 -103.5 16.5t-71 42t-48 54.5t-38 54.5t-38.5 43t-51 18.5l-31 -32l361 -596h-291l-367 604
l559 604h310l-394 -422q39 -20 72.5 -57.5t52 -68.5t47 -55t62.5 -24t67.5 24t66 58t70.5 68t96.5 58t127.5 24q66 0 116.5 -24t80 -58t54 -68t53 -58t62.5 -24t69 24t69.5 58t74.5 68t99.5 58t128.5 24q66 0 117 -24t81.5 -58t55.5 -68t54 -58t62 -24q34 0 69.5 24t70.5 58
t75.5 68t100.5 58t129 24q59 0 103.5 -17t68.5 -43t45.5 -56t36 -56t37 -43t51.5 -17q42 0 69 24.5t33 67.5z" />
    <glyph glyph-name="less_slash.liga" unicode="&#x3c;&#x2f;" 
d="M190 -225h-270l129 241l-1032 531l41 256l985 432l-39 -248l-778 -319l924 -457l786 1489h270z" />
    <glyph glyph-name="less_slash_greater.liga" unicode="&#x3c;&#x2f;&#x3e;" 
d="M-961 -225h-270l129 241l-1040 531l41 256l985 432l-37 -248l-778 -319l930 -457l786 1489h270l-180 -342l1071 -555l-41 -256l-985 -432l37 245l784 322l-970 479z" />
    <glyph glyph-name="asciitilde_hyphen.liga" unicode="&#x7e;&#x2d;" 
d="M-186 420q-72 0 -129.5 23t-91 57t-65.5 74.5t-56 74.5t-59.5 57t-78.5 23q-57 0 -96.5 -34t-46.5 -91l-20 -123h-218l23 142q22 134 130 221.5t255 87.5q73 0 130.5 -23t91.5 -57t65.5 -74.5t55 -74.5t58 -57t76.5 -23q60 0 99.5 37t48.5 100l6 35h1079l-37 -238h-919
q-53 -64 -131.5 -100.5t-169.5 -36.5z" />
    <glyph glyph-name="asciitilde_at.liga" unicode="&#x7e;&#x40;" 
d="M795 1516q243 0 362.5 -136t83.5 -360l-139 -887h-207l23 146h-7q-19 -75 -85.5 -120.5t-159.5 -45.5q-129 0 -183.5 85t-29.5 244l36 234q26 160 107.5 245t210.5 85q93 0 145 -45.5t47 -120.5h9l20 159l2 21q25 150 -45.5 230.5t-226.5 80.5q-168 0 -279.5 -107.5
t-142.5 -301.5l-111 -695q-31 -189 54.5 -294t269.5 -105h143l-30 -195h-144q-277 0 -412.5 159.5t-91.5 434.5l58 361q-132 -107 -297 -107q-81 0 -146 20.5t-104.5 51.5t-75.5 67.5t-62 67.5t-61.5 51.5t-75.5 20.5q-55 0 -95.5 -34t-49.5 -87l-18 -117h-217l22 129
q22 133 133 222.5t256 89.5q61 0 110.5 -15.5t82.5 -40t62 -54t56 -59.5t56 -54.5t71 -40t93 -15.5q102 0 184 51.5t119 138.5l8 48q44 277 223.5 435.5t448.5 158.5zM940 451l35 225q27 174 -111 174q-141 0 -168 -174l-37 -234q-15 -90 13.5 -132t99.5 -42
q72 0 112.5 43.5t55.5 139.5z" />
    <glyph glyph-name="asciitilde_greater.liga" unicode="&#x7e;&#x3e;" 
d="M442 1280h291l365 -604l-557 -604h-310l418 446q-43 11 -76 35t-51.5 49.5t-35.5 49.5t-38.5 39.5t-50.5 15.5q-27 0 -55.5 -19t-52 -47t-55.5 -61t-66 -61t-85 -47t-110 -19t-104 19t-70 47t-47 61t-36.5 61t-37 47t-49.5 19q-33 0 -66.5 -26t-67 -63.5t-72.5 -75
t-98 -63.5t-128 -26q-127 0 -196.5 75t-49.5 197l15 94h215l-10 -78q-12 -94 65 -94q28 0 56.5 19t52 47t56 61t66 61t84 47t109.5 19t104 -19t70 -47t47 -61t36.5 -61t37 -47t49.5 -19q32 0 64 26t64.5 63.5t71 75t97 63.5t127.5 26q49 0 87 -11t61.5 -29t43 -39.5
t35.5 -42.5t33 -38t41.5 -26.5t56.5 -7.5z" />
    <glyph glyph-name="asciitilde_asciitilde.liga" unicode="&#x7e;&#x7e;" 
d="M-188 453q-59 0 -104.5 19t-70 47t-46.5 61t-36.5 61t-37.5 47t-52 19q-39 0 -65.5 -25t-34.5 -68l-12 -77h-217l14 94q20 123 109.5 197.5t218.5 74.5q56 0 100 -14t71 -36.5t48 -49.5t36 -54t29.5 -49.5t34 -36.5t43.5 -14q27 0 55 19t50.5 47t54.5 61t65 61t83.5 47
t109.5 19t103.5 -19t69 -47t46.5 -61t37 -61t38.5 -47t53.5 -19q41 0 69.5 24.5t35.5 67.5l10 78h217l-14 -94q-19 -121 -109.5 -196.5t-218.5 -75.5q-54 0 -98 14t-71.5 36.5t-49.5 49.5t-38.5 54t-32 49.5t-35.5 36.5t-44 14q-27 0 -54.5 -19t-50 -47t-54 -61t-64 -61
t-83 -47t-109.5 -19z" />
    <glyph glyph-name="asciitilde_asciitilde_greater.liga" unicode="&#x7e;&#x7e;&#x3e;" 
d="M541 72h-310l572 606l-35 14q-33 -1 -66.5 -24t-66 -55t-71 -64.5t-97 -55t-127.5 -22.5t-119.5 23.5t-78 57.5t-49 67.5t-47.5 57t-60 23.5t-69 -23.5t-69.5 -57t-74.5 -67.5t-99.5 -57.5t-128.5 -23.5q-59 0 -105.5 17t-73 42.5t-51 55t-41.5 55t-41.5 42.5t-53.5 17
q-34 0 -69.5 -23.5t-70.5 -57t-75.5 -67.5t-100.5 -57.5t-129 -23.5t-121.5 23.5t-82.5 57.5t-54 67.5t-52 57t-62 23.5t-68.5 -23.5t-68 -57t-72 -67.5t-95.5 -57.5t-124 -23.5q-125 0 -190 71.5t-46 188.5l14 88h203l-10 -74q-8 -43 11 -67.5t61 -24.5q34 0 66.5 24t63 58
t66.5 68t93 58t126 24t121.5 -24t82 -58t54 -68t52 -58t61.5 -24t70.5 24t72.5 58t77 68t99.5 58t124.5 24q69 0 121 -24t81 -58t52.5 -68t51 -58t61.5 -24t70.5 24t72 58t76 68t98.5 58t125 24q69 0 119.5 -24t78 -58t49 -68t48 -58t60.5 -24q28 0 57.5 16t57.5 41.5
t57.5 53t70 54t82.5 40.5l-254 422h291l365 -604z" />
    <glyph glyph-name="asciicircum_equal.liga" unicode="^&#x3d;" 
d="M-659 809h-252l538 747h215l211 -512h873l-37 -235h-991l-189 541zM807 307h-993l39 236h993z" />
    <glyph glyph-name=".notdef" 
d="M1044 0h-860v1495h860v-1495zM287 1393v-1170l614 1170h-614zM942 1272l-614 -1170h614v1170z" />
    <glyph glyph-name=".null" horiz-adv-x="0" 
 />
    <glyph glyph-name="nonmarkingreturn" horiz-adv-x="682" 
 />
    <glyph glyph-name="uni2400" unicode="&#x2400;" 
d="M88 502h-78l80 493h100l76 -399q2 52 17 166l36 233h78l-78 -493h-102l-74 399q-1 -12 -4 -45t-6 -62.5t-6 -50.5zM571 496q-72 0 -107 39t-24 108l58 352h84l-56 -352q-6 -35 9 -54.5t49 -19.5q33 0 54.5 19.5t25.5 54.5l57 352h84l-55 -352q-12 -69 -59.5 -108
t-119.5 -39zM1180 502h-295l78 493h86l-68 -415h211z" />
    <glyph glyph-name="uni2400" 
d="M88 502h-78l80 493h100l76 -399q2 52 17 166l36 233h78l-78 -493h-102l-74 399q-1 -12 -4 -45t-6 -62.5t-6 -50.5zM571 496q-72 0 -107 39t-24 108l58 352h84l-56 -352q-6 -35 9 -54.5t49 -19.5q33 0 54.5 19.5t25.5 54.5l57 352h84l-55 -352q-12 -69 -59.5 -108
t-119.5 -39zM1180 502h-295l78 493h86l-68 -415h211z" />
    <glyph glyph-name="uni2401" unicode="&#x2401;" 
d="M164 496q-75 0 -113 37.5t-28 101.5h83q-5 -31 14.5 -48.5t57.5 -17.5q35 0 58.5 17.5t29.5 46.5q6 56 -45 72l-53 14q-55 15 -81.5 53t-18.5 92q11 63 58.5 100t119.5 37q70 0 106 -36.5t27 -98.5h-84q5 29 -12 45.5t-52 16.5q-32 0 -52 -16t-25 -44q-10 -56 41 -71
l55 -15q56 -15 82 -52.5t18 -92.5q-11 -65 -61 -103t-125 -38zM571 496q-70 0 -106 39.5t-25 105.5l33 215q10 66 58.5 105.5t119.5 39.5q70 0 106 -39.5t25 -105.5l-32 -215q-10 -66 -59 -105.5t-120 -39.5zM938 502h-84l78 493h86l-33 -198h131l33 198h84l-78 -493h-84
l33 217h-131zM584 569q71 0 80 72l34 215q9 72 -59 72q-71 0 -80 -72l-35 -215q-9 -72 60 -72z" />
    <glyph glyph-name="uni2401" 
d="M164 496q-75 0 -113 37.5t-28 101.5h83q-5 -31 14.5 -48.5t57.5 -17.5q35 0 58.5 17.5t29.5 46.5q6 56 -45 72l-53 14q-55 15 -81.5 53t-18.5 92q11 63 58.5 100t119.5 37q70 0 106 -36.5t27 -98.5h-84q5 29 -12 45.5t-52 16.5q-32 0 -52 -16t-25 -44q-10 -56 41 -71
l55 -15q56 -15 82 -52.5t18 -92.5q-11 -65 -61 -103t-125 -38zM571 496q-70 0 -106 39.5t-25 105.5l33 215q10 66 58.5 105.5t119.5 39.5q70 0 106 -39.5t25 -105.5l-32 -215q-10 -66 -59 -105.5t-120 -39.5zM938 502h-84l78 493h86l-33 -198h131l33 198h84l-78 -493h-84
l33 217h-131zM584 569q71 0 80 72l34 215q9 72 -59 72q-71 0 -80 -72l-35 -215q-9 -72 60 -72z" />
    <glyph glyph-name="uni2402" unicode="&#x2402;" 
d="M164 496q-75 0 -113 37.5t-28 101.5h83q-5 -31 14.5 -48.5t57.5 -17.5q35 0 58.5 17.5t29.5 46.5q6 56 -45 72l-53 14q-55 15 -81.5 53t-18.5 92q11 63 58.5 100t119.5 37q70 0 106 -36.5t27 -98.5h-84q5 29 -12 45.5t-52 16.5q-32 0 -52 -16t-25 -44q-10 -56 41 -71
l55 -15q56 -15 82 -52.5t18 -92.5q-11 -65 -61 -103t-125 -38zM614 502h-84l66 416h-129l12 77h344l-14 -77h-129zM915 502h-94l176 254l-90 239h92l41 -125q3 -8 8.5 -23.5t6.5 -19.5q13 25 26 43l82 125h94l-165 -241l96 -252h-90l-49 137q-11 30 -15 45q-16 -31 -26 -45z
" />
    <glyph glyph-name="uni2402" 
d="M164 496q-75 0 -113 37.5t-28 101.5h83q-5 -31 14.5 -48.5t57.5 -17.5q35 0 58.5 17.5t29.5 46.5q6 56 -45 72l-53 14q-55 15 -81.5 53t-18.5 92q11 63 58.5 100t119.5 37q70 0 106 -36.5t27 -98.5h-84q5 29 -12 45.5t-52 16.5q-32 0 -52 -16t-25 -44q-10 -56 41 -71
l55 -15q56 -15 82 -52.5t18 -92.5q-11 -65 -61 -103t-125 -38zM614 502h-84l66 416h-129l12 77h344l-14 -77h-129zM915 502h-94l176 254l-90 239h92l41 -125q3 -8 8.5 -23.5t6.5 -19.5q13 25 26 43l82 125h94l-165 -241l96 -252h-90l-49 137q-11 30 -15 45q-16 -31 -26 -45z
" />
    <glyph glyph-name="uni2403" unicode="&#x2403;" 
d="M317 502h-294l77 493h295l-12 -73h-211l-20 -129h188l-12 -72h-189l-22 -146h213zM614 502h-84l66 416h-129l12 77h344l-14 -77h-129zM915 502h-94l176 254l-90 239h92l41 -125q3 -8 8.5 -23.5t6.5 -19.5q13 25 26 43l82 125h94l-165 -241l96 -252h-90l-49 137
q-11 30 -15 45q-16 -31 -26 -45z" />
    <glyph glyph-name="uni2403" 
d="M317 502h-294l77 493h295l-12 -73h-211l-20 -129h188l-12 -72h-189l-22 -146h213zM614 502h-84l66 416h-129l12 77h344l-14 -77h-129zM915 502h-94l176 254l-90 239h92l41 -125q3 -8 8.5 -23.5t6.5 -19.5q13 25 26 43l82 125h94l-165 -241l96 -252h-90l-49 137
q-11 30 -15 45q-16 -31 -26 -45z" />
    <glyph glyph-name="uni2404" unicode="&#x2404;" 
d="M571 496q-70 0 -106 39.5t-25 105.5l33 215q10 66 58.5 105.5t119.5 39.5q70 0 106 -39.5t25 -105.5l-32 -215q-10 -66 -59 -105.5t-120 -39.5zM317 502h-294l77 493h295l-12 -73h-211l-20 -129h188l-12 -72h-189l-22 -146h213zM1047 502h-84l65 416h-129l12 77h344
l-14 -77h-129zM584 569q71 0 80 72l34 215q9 72 -59 72q-71 0 -80 -72l-35 -215q-9 -72 60 -72z" />
    <glyph glyph-name="uni2404" 
d="M571 496q-70 0 -106 39.5t-25 105.5l33 215q10 66 58.5 105.5t119.5 39.5q70 0 106 -39.5t25 -105.5l-32 -215q-10 -66 -59 -105.5t-120 -39.5zM317 502h-294l77 493h295l-12 -73h-211l-20 -129h188l-12 -72h-189l-22 -146h213zM1047 502h-84l65 416h-129l12 77h344
l-14 -77h-129zM584 569q71 0 80 72l34 215q9 72 -59 72q-71 0 -80 -72l-35 -215q-9 -72 60 -72z" />
    <glyph glyph-name="uni2405" unicode="&#x2405;" 
d="M1083 1001q71 0 107.5 -40t26.5 -107l-33 -211q-15 -91 -97 -131l60 -131h-86l-51 115h-6q-71 0 -107.5 40t-26.5 107l33 211q10 67 59.5 107t120.5 40zM317 502h-294l77 493h295l-12 -73h-211l-20 -129h188l-12 -72h-189l-22 -146h213zM690 762l37 233h78l-78 -493h-102
l-74 399q-1 -12 -4 -45t-6 -62.5t-6 -50.5l-39 -241h-78l80 493h100l76 -399q3 64 16 166zM1098 643l35 211q9 74 -60 74q-34 0 -57 -19.5t-29 -54.5l-33 -211q-9 -74 62 -74q34 0 56 19.5t26 54.5z" />
    <glyph glyph-name="uni2405" 
d="M1083 1001q71 0 107.5 -40t26.5 -107l-33 -211q-15 -91 -97 -131l60 -131h-86l-51 115h-6q-71 0 -107.5 40t-26.5 107l33 211q10 67 59.5 107t120.5 40zM317 502h-294l77 493h295l-12 -73h-211l-20 -129h188l-12 -72h-189l-22 -146h213zM690 762l37 233h78l-78 -493h-102
l-74 399q-1 -12 -4 -45t-6 -62.5t-6 -50.5l-39 -241h-78l80 493h100l76 -399q3 64 16 166zM1098 643l35 211q9 74 -60 74q-34 0 -57 -19.5t-29 -54.5l-33 -211q-9 -74 62 -74q34 0 56 19.5t26 54.5z" />
    <glyph glyph-name="uni2406" unicode="&#x2406;" 
d="M573 496q-71 0 -107 39.5t-26 105.5l33 215q10 67 59.5 106t120.5 39q72 0 108 -39.5t27 -105.5h-86q12 72 -59 72q-75 0 -84 -72l-35 -215q-9 -72 62 -72q72 0 84 72h84q-10 -66 -60 -105.5t-121 -39.5zM74 502h-88l202 493h109l47 -493h-84l-8 119h-131zM938 502h-84
l78 493h84l-31 -200h55l127 200h93l-150 -241l76 -252h-90l-64 217h-59zM199 823l-52 -133h101l-10 133q-1 17 -2 40t-2 37.5t-1 21.5q-2 -5 -13.5 -39.5t-20.5 -59.5z" />
    <glyph glyph-name="uni2406" 
d="M573 496q-71 0 -107 39.5t-26 105.5l33 215q10 67 59.5 106t120.5 39q72 0 108 -39.5t27 -105.5h-86q12 72 -59 72q-75 0 -84 -72l-35 -215q-9 -72 62 -72q72 0 84 72h84q-10 -66 -60 -105.5t-121 -39.5zM74 502h-88l202 493h109l47 -493h-84l-8 119h-131zM938 502h-84
l78 493h84l-31 -200h55l127 200h93l-150 -241l76 -252h-90l-64 217h-59zM199 823l-52 -133h101l-10 133q-1 17 -2 40t-2 37.5t-1 21.5q-2 -5 -13.5 -39.5t-20.5 -59.5z" />
    <glyph glyph-name="uni2407" unicode="&#x2407;" 
d="M92 995h152q72 0 108 -34t27 -93q-6 -43 -36.5 -72t-72.5 -34q45 -6 68 -37.5t16 -81.5q-11 -65 -60 -103t-122 -38h-158zM737 502h-295l78 493h295l-12 -73h-211l-21 -129h189l-12 -72h-189l-22 -146h213zM1049 995l-68 -415h211l-12 -78h-295l78 493h86zM293 858
q5 31 -11.5 48.5t-50.5 17.5h-67l-23 -131h70q33 0 55.5 17.5t26.5 47.5zM270 645q5 36 -13 57t-54 21h-72l-25 -152h72q37 0 61.5 20t30.5 54z" />
    <glyph glyph-name="uni2407" 
d="M92 995h152q72 0 108 -34t27 -93q-6 -43 -36.5 -72t-72.5 -34q45 -6 68 -37.5t16 -81.5q-11 -65 -60 -103t-122 -38h-158zM737 502h-295l78 493h295l-12 -73h-211l-21 -129h189l-12 -72h-189l-22 -146h213zM1049 995l-68 -415h211l-12 -78h-295l78 493h86zM293 858
q5 31 -11.5 48.5t-50.5 17.5h-67l-23 -131h70q33 0 55.5 17.5t26.5 47.5zM270 645q5 36 -13 57t-54 21h-72l-25 -152h72q37 0 61.5 20t30.5 54z" />
    <glyph glyph-name="uni2408" unicode="&#x2408;" 
d="M1006 866h-84q5 29 -12 45.5t-52 16.5q-32 0 -52.5 -16t-25.5 -44q-10 -56 41 -71l56 -15q56 -15 82 -52.5t18 -92.5q-11 -65 -61 -103t-125 -38t-113.5 37.5t-28.5 101.5h84q-5 -31 14.5 -48.5t57.5 -17.5q35 0 58.5 17.5t29.5 46.5q6 56 -45 72l-53 14q-56 15 -82 53
t-19 92q11 63 58.5 100t119.5 37q70 0 106.5 -36.5t27.5 -98.5zM303 995h152q72 0 108 -34t27 -93q-6 -43 -36.5 -72t-72.5 -34q45 -6 68 -37.5t16 -81.5q-11 -65 -60 -103t-122 -38h-158zM504 858q5 31 -11.5 48.5t-50.5 17.5h-67l-23 -131h70q33 0 55.5 17.5t26.5 47.5z
M481 645q5 36 -13 57t-54 21h-72l-25 -152h72q37 0 61.5 20t30.5 54z" />
    <glyph glyph-name="uni2408" 
d="M1006 866h-84q5 29 -12 45.5t-52 16.5q-32 0 -52.5 -16t-25.5 -44q-10 -56 41 -71l56 -15q56 -15 82 -52.5t18 -92.5q-11 -65 -61 -103t-125 -38t-113.5 37.5t-28.5 101.5h84q-5 -31 14.5 -48.5t57.5 -17.5q35 0 58.5 17.5t29.5 46.5q6 56 -45 72l-53 14q-56 15 -82 53
t-19 92q11 63 58.5 100t119.5 37q70 0 106.5 -36.5t27.5 -98.5zM303 995h152q72 0 108 -34t27 -93q-6 -43 -36.5 -72t-72.5 -34q45 -6 68 -37.5t16 -81.5q-11 -65 -60 -103t-122 -38h-158zM504 858q5 31 -11.5 48.5t-50.5 17.5h-67l-23 -131h70q33 0 55.5 17.5t26.5 47.5z
M481 645q5 36 -13 57t-54 21h-72l-25 -152h72q37 0 61.5 20t30.5 54z" />
    <glyph glyph-name="uni240B" unicode="&#x240b;" 
d="M430 502h-108l-48 493h86l25 -321q4 -66 4 -96q5 19 33 96l125 321h86zM834 502h-84l65 416h-129l12 77h344l-14 -77h-129z" />
    <glyph glyph-name="uni240B" 
d="M430 502h-108l-48 493h86l25 -321q4 -66 4 -96q5 19 33 96l125 321h86zM834 502h-84l65 416h-129l12 77h344l-14 -77h-129z" />
    <glyph glyph-name="uni240C" unicode="&#x240c;" 
d="M311 502h-84l78 493h307l-12 -77h-223l-21 -134h205l-12 -77h-205zM727 502h-84l78 493h307l-12 -77h-223l-21 -134h205l-12 -77h-205z" />
    <glyph glyph-name="uni240C" 
d="M311 502h-84l78 493h307l-12 -77h-223l-21 -134h205l-12 -77h-205zM727 502h-84l78 493h307l-12 -77h-223l-21 -134h205l-12 -77h-205z" />
    <glyph glyph-name="CR" unicode="&#xd;" horiz-adv-x="819" 
 />
    <glyph glyph-name="uni240E" unicode="&#x240e;" 
d="M375 496q-75 0 -113.5 37.5t-28.5 101.5h84q-5 -31 14.5 -48.5t57.5 -17.5q35 0 58.5 17.5t29.5 46.5q6 56 -45 72l-53 14q-55 15 -81.5 53t-18.5 92q11 63 58.5 100t119.5 37q70 0 106 -36.5t27 -98.5h-84q5 29 -12 45.5t-52 16.5q-32 0 -52 -16t-25 -44q-10 -56 41 -71
l55 -15q56 -15 82 -52.5t18 -92.5q-11 -65 -61 -103t-125 -38zM791 496q-71 0 -106.5 39.5t-25.5 105.5l33 215q10 66 58.5 105.5t119.5 39.5q70 0 106 -39.5t25 -105.5l-32 -215q-10 -66 -58.5 -105.5t-119.5 -39.5zM803 569q71 0 80 72l35 215q9 72 -60 72q-71 0 -80 -72
l-35 -215q-9 -72 60 -72z" />
    <glyph glyph-name="uni240E" 
d="M375 496q-75 0 -113.5 37.5t-28.5 101.5h84q-5 -31 14.5 -48.5t57.5 -17.5q35 0 58.5 17.5t29.5 46.5q6 56 -45 72l-53 14q-55 15 -81.5 53t-18.5 92q11 63 58.5 100t119.5 37q70 0 106 -36.5t27 -98.5h-84q5 29 -12 45.5t-52 16.5q-32 0 -52 -16t-25 -44q-10 -56 41 -71
l55 -15q56 -15 82 -52.5t18 -92.5q-11 -65 -61 -103t-125 -38zM791 496q-71 0 -106.5 39.5t-25.5 105.5l33 215q10 66 58.5 105.5t119.5 39.5q70 0 106 -39.5t25 -105.5l-32 -215q-10 -66 -58.5 -105.5t-119.5 -39.5zM803 569q71 0 80 72l35 215q9 72 -60 72q-71 0 -80 -72
l-35 -215q-9 -72 60 -72z" />
    <glyph glyph-name="uni240F" unicode="&#x240f;" 
d="M375 496q-75 0 -113.5 37.5t-28.5 101.5h84q-5 -31 14.5 -48.5t57.5 -17.5q35 0 58.5 17.5t29.5 46.5q6 56 -45 72l-53 14q-55 15 -81.5 53t-18.5 92q11 63 58.5 100t119.5 37q70 0 106 -36.5t27 -98.5h-84q5 29 -12 45.5t-52 16.5q-32 0 -52 -16t-25 -44q-10 -56 41 -71
l55 -15q56 -15 82 -52.5t18 -92.5q-11 -65 -61 -103t-125 -38zM934 502h-285l13 73h100l53 347h-98l12 73h283l-13 -73h-98l-55 -347h98z" />
    <glyph glyph-name="uni240F" 
d="M375 496q-75 0 -113.5 37.5t-28.5 101.5h84q-5 -31 14.5 -48.5t57.5 -17.5q35 0 58.5 17.5t29.5 46.5q6 56 -45 72l-53 14q-55 15 -81.5 53t-18.5 92q11 63 58.5 100t119.5 37q70 0 106 -36.5t27 -98.5h-84q5 29 -12 45.5t-52 16.5q-32 0 -52 -16t-25 -44q-10 -56 41 -71
l55 -15q56 -15 82 -52.5t18 -92.5q-11 -65 -61 -103t-125 -38zM934 502h-285l13 73h100l53 347h-98l12 73h283l-13 -73h-98l-55 -347h98z" />
    <glyph glyph-name="uni2410" unicode="&#x2410;" 
d="M160 502h-148l80 493h146q75 0 113.5 -42t27.5 -111l-31 -187q-10 -69 -62 -111t-126 -42zM748 502h-295l77 493h86l-67 -415h211zM1157 502h-295l78 493h295l-12 -73h-211l-21 -129h189l-13 -72h-188l-23 -146h213zM164 918l-53 -338h61q37 0 61.5 20t30.5 55l29 187
q6 34 -12.5 55t-55.5 21h-61z" />
    <glyph glyph-name="uni2410" 
d="M160 502h-148l80 493h146q75 0 113.5 -42t27.5 -111l-31 -187q-10 -69 -62 -111t-126 -42zM748 502h-295l77 493h86l-67 -415h211zM1157 502h-295l78 493h295l-12 -73h-211l-21 -129h189l-13 -72h-188l-23 -146h213zM164 918l-53 -338h61q37 0 61.5 20t30.5 55l29 187
q6 34 -12.5 55t-55.5 21h-61z" />
    <glyph glyph-name="uni2411" unicode="&#x2411;" 
d="M573 496q-71 0 -107 39.5t-26 105.5l33 215q10 67 59.5 106t120.5 39q72 0 108 -39.5t27 -105.5h-86q12 72 -59 72q-75 0 -84 -72l-35 -215q-9 -72 62 -72q72 0 84 72h84q-10 -66 -60 -105.5t-121 -39.5zM160 502h-148l80 493h146q75 0 113.5 -42t27.5 -111l-31 -187
q-10 -69 -62 -111t-126 -42zM1176 502h-318l12 73h129l54 345l-144 -97l15 90l127 82h98l-66 -420h103zM164 918l-53 -338h61q37 0 61.5 20t30.5 55l29 187q6 34 -12.5 55t-55.5 21h-61z" />
    <glyph glyph-name="uni2411" 
d="M573 496q-71 0 -107 39.5t-26 105.5l33 215q10 67 59.5 106t120.5 39q72 0 108 -39.5t27 -105.5h-86q12 72 -59 72q-75 0 -84 -72l-35 -215q-9 -72 62 -72q72 0 84 72h84q-10 -66 -60 -105.5t-121 -39.5zM160 502h-148l80 493h146q75 0 113.5 -42t27.5 -111l-31 -187
q-10 -69 -62 -111t-126 -42zM1176 502h-318l12 73h129l54 345l-144 -97l15 90l127 82h98l-66 -420h103zM164 918l-53 -338h61q37 0 61.5 20t30.5 55l29 187q6 34 -12.5 55t-55.5 21h-61z" />
    <glyph glyph-name="uni2412" unicode="&#x2412;" 
d="M573 496q-71 0 -107 39.5t-26 105.5l33 215q10 67 59.5 106t120.5 39q72 0 108 -39.5t27 -105.5h-86q12 72 -59 72q-75 0 -84 -72l-35 -215q-9 -72 62 -72q72 0 84 72h84q-10 -66 -60 -105.5t-121 -39.5zM1163 502h-307l12 78l193 172q58 49 67 98q5 36 -11 56t-50 20
t-57 -20.5t-29 -57.5h-84q12 70 62 111.5t122 41.5q71 0 106 -39t25 -106q-12 -81 -106 -160l-135 -118h205zM160 502h-148l80 493h146q75 0 113.5 -42t27.5 -111l-31 -187q-10 -69 -62 -111t-126 -42zM164 918l-53 -338h61q37 0 61.5 20t30.5 55l29 187q6 34 -12.5 55
t-55.5 21h-61z" />
    <glyph glyph-name="uni2412" 
d="M573 496q-71 0 -107 39.5t-26 105.5l33 215q10 67 59.5 106t120.5 39q72 0 108 -39.5t27 -105.5h-86q12 72 -59 72q-75 0 -84 -72l-35 -215q-9 -72 62 -72q72 0 84 72h84q-10 -66 -60 -105.5t-121 -39.5zM1163 502h-307l12 78l193 172q58 49 67 98q5 36 -11 56t-50 20
t-57 -20.5t-29 -57.5h-84q12 70 62 111.5t122 41.5q71 0 106 -39t25 -106q-12 -81 -106 -160l-135 -118h205zM160 502h-148l80 493h146q75 0 113.5 -42t27.5 -111l-31 -187q-10 -69 -62 -111t-126 -42zM164 918l-53 -338h61q37 0 61.5 20t30.5 55l29 187q6 34 -12.5 55
t-55.5 21h-61z" />
    <glyph glyph-name="uni2413" unicode="&#x2413;" 
d="M653 1001q72 0 108 -39.5t27 -105.5h-86q12 72 -59 72q-75 0 -84 -72l-35 -215q-9 -72 62 -72q72 0 84 72h84q-10 -66 -60 -105.5t-121 -39.5t-107 39.5t-26 105.5l33 215q10 67 59.5 106t120.5 39zM92 995h146q75 0 113.5 -42t27.5 -111l-31 -187q-10 -69 -62 -111
t-126 -42h-148zM942 995h277l-11 -69l-125 -111q57 -9 84.5 -46t18.5 -95l-6 -37q-9 -66 -58 -103.5t-123 -37.5q-72 0 -108.5 38.5t-26.5 102.5h84q-6 -33 11 -51.5t51 -18.5q35 0 57.5 18.5t28.5 51.5l6 37q9 69 -64 69h-57l10 70l123 111h-182zM264 655l29 187
q6 34 -12.5 55t-55.5 21h-61l-53 -338h61q37 0 61.5 20t30.5 55z" />
    <glyph glyph-name="uni2413" 
d="M653 1001q72 0 108 -39.5t27 -105.5h-86q12 72 -59 72q-75 0 -84 -72l-35 -215q-9 -72 62 -72q72 0 84 72h84q-10 -66 -60 -105.5t-121 -39.5t-107 39.5t-26 105.5l33 215q10 67 59.5 106t120.5 39zM92 995h146q75 0 113.5 -42t27.5 -111l-31 -187q-10 -69 -62 -111
t-126 -42h-148zM942 995h277l-11 -69l-125 -111q57 -9 84.5 -46t18.5 -95l-6 -37q-9 -66 -58 -103.5t-123 -37.5q-72 0 -108.5 38.5t-26.5 102.5h84q-6 -33 11 -51.5t51 -18.5q35 0 57.5 18.5t28.5 51.5l6 37q9 69 -64 69h-57l10 70l123 111h-182zM264 655l29 187
q6 34 -12.5 55t-55.5 21h-61l-53 -338h61q37 0 61.5 20t30.5 55z" />
    <glyph glyph-name="uni2414" unicode="&#x2414;" 
d="M573 496q-71 0 -107 39.5t-26 105.5l33 215q10 67 59.5 106t120.5 39q72 0 108 -39.5t27 -105.5h-86q12 72 -59 72q-75 0 -84 -72l-35 -215q-9 -72 62 -72q72 0 84 72h84q-10 -66 -60 -105.5t-121 -39.5zM160 502h-148l80 493h146q75 0 113.5 -42t27.5 -111l-31 -187
q-10 -69 -62 -111t-126 -42zM1145 502h-84l14 98h-219l21 121l225 274h94l-244 -297l-4 -24h139l19 112h84zM164 918l-53 -338h61q37 0 61.5 20t30.5 55l29 187q6 34 -12.5 55t-55.5 21h-61z" />
    <glyph glyph-name="uni2414" 
d="M573 496q-71 0 -107 39.5t-26 105.5l33 215q10 67 59.5 106t120.5 39q72 0 108 -39.5t27 -105.5h-86q12 72 -59 72q-75 0 -84 -72l-35 -215q-9 -72 62 -72q72 0 84 72h84q-10 -66 -60 -105.5t-121 -39.5zM160 502h-148l80 493h146q75 0 113.5 -42t27.5 -111l-31 -187
q-10 -69 -62 -111t-126 -42zM1145 502h-84l14 98h-219l21 121l225 274h94l-244 -297l-4 -24h139l19 112h84zM164 918l-53 -338h61q37 0 61.5 20t30.5 55l29 187q6 34 -12.5 55t-55.5 21h-61z" />
    <glyph glyph-name="uni2415" unicode="&#x2415;" 
d="M88 502h-78l80 493h100l76 -399q2 52 17 166l36 233h78l-78 -493h-102l-74 399q-1 -12 -4 -45t-6 -62.5t-6 -50.5zM481 502h-88l203 493h109l47 -493h-84l-9 119h-131zM938 502h-84l78 493h84l-31 -200h55l127 200h93l-150 -241l76 -252h-90l-64 217h-59zM606 823
l-51 -133h100l-10 133q-4 86 -4 99q-2 -5 -14 -39.5t-21 -59.5z" />
    <glyph glyph-name="uni2415" 
d="M88 502h-78l80 493h100l76 -399q2 52 17 166l36 233h78l-78 -493h-102l-74 399q-1 -12 -4 -45t-6 -62.5t-6 -50.5zM481 502h-88l203 493h109l47 -493h-84l-9 119h-131zM938 502h-84l78 493h84l-31 -200h55l127 200h93l-150 -241l76 -252h-90l-64 217h-59zM606 823
l-51 -133h100l-10 133q-4 86 -4 99q-2 -5 -14 -39.5t-21 -59.5z" />
    <glyph glyph-name="uni2416" unicode="&#x2416;" 
d="M164 496q-75 0 -113 37.5t-28 101.5h83q-5 -31 14.5 -48.5t57.5 -17.5q35 0 58.5 17.5t29.5 46.5q6 56 -45 72l-53 14q-55 15 -81.5 53t-18.5 92q11 63 58.5 100t119.5 37q70 0 106 -36.5t27 -98.5h-84q5 29 -12 45.5t-52 16.5q-32 0 -52 -16t-25 -44q-10 -56 41 -71
l55 -15q56 -15 82 -52.5t18 -92.5q-11 -65 -61 -103t-125 -38zM614 502h-84l29 180l-96 313h86l51 -172q12 -54 12 -69q13 31 33 69l103 172h90l-195 -313zM928 502h-78l80 493h100l76 -399q3 64 16 166l37 233h78l-78 -493h-102l-74 399q-1 -12 -4 -45t-6 -62.5t-6 -50.5z
" />
    <glyph glyph-name="uni2416" 
d="M164 496q-75 0 -113 37.5t-28 101.5h83q-5 -31 14.5 -48.5t57.5 -17.5q35 0 58.5 17.5t29.5 46.5q6 56 -45 72l-53 14q-55 15 -81.5 53t-18.5 92q11 63 58.5 100t119.5 37q70 0 106 -36.5t27 -98.5h-84q5 29 -12 45.5t-52 16.5q-32 0 -52 -16t-25 -44q-10 -56 41 -71
l55 -15q56 -15 82 -52.5t18 -92.5q-11 -65 -61 -103t-125 -38zM614 502h-84l29 180l-96 313h86l51 -172q12 -54 12 -69q13 31 33 69l103 172h90l-195 -313zM928 502h-78l80 493h100l76 -399q3 64 16 166l37 233h78l-78 -493h-102l-74 399q-1 -12 -4 -45t-6 -62.5t-6 -50.5z
" />
    <glyph glyph-name="uni2417" unicode="&#x2417;" 
d="M317 502h-294l77 493h295l-12 -73h-211l-20 -129h188l-12 -72h-189l-22 -146h213zM596 918h-129l12 77h344l-14 -77h-129l-66 -416h-84zM1219 868q-6 -43 -36.5 -72t-72.5 -34q45 -6 68 -37.5t16 -81.5q-11 -65 -60 -103t-122 -38h-158l78 493h151q72 0 108.5 -34
t27.5 -93zM1133 858q5 31 -11.5 48.5t-50.5 17.5h-67l-23 -131h70q33 0 55.5 17.5t26.5 47.5zM1110 645q5 36 -13.5 57t-54.5 21h-71l-25 -152h72q37 0 61.5 20t30.5 54z" />
    <glyph glyph-name="uni2417" 
d="M317 502h-294l77 493h295l-12 -73h-211l-20 -129h188l-12 -72h-189l-22 -146h213zM596 918h-129l12 77h344l-14 -77h-129l-66 -416h-84zM1219 868q-6 -43 -36.5 -72t-72.5 -34q45 -6 68 -37.5t16 -81.5q-11 -65 -60 -103t-122 -38h-158l78 493h151q72 0 108.5 -34
t27.5 -93zM1133 858q5 31 -11.5 48.5t-50.5 17.5h-67l-23 -131h70q33 0 55.5 17.5t26.5 47.5zM1110 645q5 36 -13.5 57t-54.5 21h-71l-25 -152h72q37 0 61.5 20t30.5 54z" />
    <glyph glyph-name="uni2418" unicode="&#x2418;" 
d="M166 496q-71 0 -107 39.5t-26 105.5l33 215q10 67 59.5 106t120.5 39q72 0 108 -39.5t27 -105.5h-86q12 72 -59 72q-75 0 -84 -72l-35 -215q-9 -72 61 -72q72 0 84 72h84q-10 -66 -59.5 -105.5t-120.5 -39.5zM481 502h-88l203 493h109l47 -493h-84l-9 119h-131zM928 502
h-78l80 493h100l76 -399q3 64 16 166l37 233h78l-78 -493h-102l-74 399q-1 -12 -4 -45t-6 -62.5t-6 -50.5zM606 823l-51 -133h100l-10 133q-4 86 -4 99q-2 -5 -14 -39.5t-21 -59.5z" />
    <glyph glyph-name="uni2418" 
d="M166 496q-71 0 -107 39.5t-26 105.5l33 215q10 67 59.5 106t120.5 39q72 0 108 -39.5t27 -105.5h-86q12 72 -59 72q-75 0 -84 -72l-35 -215q-9 -72 61 -72q72 0 84 72h84q-10 -66 -59.5 -105.5t-120.5 -39.5zM481 502h-88l203 493h109l47 -493h-84l-9 119h-131zM928 502
h-78l80 493h100l76 -399q3 64 16 166l37 233h78l-78 -493h-102l-74 399q-1 -12 -4 -45t-6 -62.5t-6 -50.5zM606 823l-51 -133h100l-10 133q-4 86 -4 99q-2 -5 -14 -39.5t-21 -59.5z" />
    <glyph glyph-name="uni2419" unicode="&#x2419;" 
d="M528 502h-295l78 493h295l-12 -73h-211l-21 -129h189l-12 -72h-189l-22 -146h213zM705 502h-78l78 493h98l22 -157q9 -46 9 -72q13 38 28 72l72 157h100l-78 -493h-79l24 153q18 106 66 291l-103 -231h-78l-30 231q-5 -157 -27 -291z" />
    <glyph glyph-name="uni2419" 
d="M528 502h-295l78 493h295l-12 -73h-211l-21 -129h189l-12 -72h-189l-22 -146h213zM705 502h-78l78 493h98l22 -157q9 -46 9 -72q13 38 28 72l72 157h100l-78 -493h-79l24 153q18 106 66 291l-103 -231h-78l-30 231q-5 -157 -27 -291z" />
    <glyph glyph-name="uni241A" unicode="&#x241a;" 
d="M246 1001q70 0 106 -36.5t27 -98.5h-84q5 29 -12 45.5t-52 16.5q-32 0 -52 -16t-25 -44q-10 -56 41 -71l55 -15q56 -15 82 -52.5t18 -92.5q-11 -65 -61 -103t-125 -38t-113 37.5t-28 101.5h83q-5 -31 14.5 -48.5t57.5 -17.5q35 0 58.5 17.5t29.5 46.5q6 56 -45 72l-53 14
q-55 15 -81.5 53t-18.5 92q11 63 58.5 100t119.5 37zM664 643l57 352h84l-55 -352q-12 -69 -59.5 -108t-119.5 -39t-107 39t-24 108l58 352h84l-56 -352q-6 -35 9 -54.5t49 -19.5q33 0 54.5 19.5t25.5 54.5zM1219 868q-6 -43 -36.5 -72t-72.5 -34q45 -6 68 -37.5t16 -81.5
q-11 -65 -60 -103t-122 -38h-158l78 493h151q72 0 108.5 -34t27.5 -93zM1133 858q5 31 -11.5 48.5t-50.5 17.5h-67l-23 -131h70q33 0 55.5 17.5t26.5 47.5zM1110 645q5 36 -13.5 57t-54.5 21h-71l-25 -152h72q37 0 61.5 20t30.5 54z" />
    <glyph glyph-name="uni241A" 
d="M246 1001q70 0 106 -36.5t27 -98.5h-84q5 29 -12 45.5t-52 16.5q-32 0 -52 -16t-25 -44q-10 -56 41 -71l55 -15q56 -15 82 -52.5t18 -92.5q-11 -65 -61 -103t-125 -38t-113 37.5t-28 101.5h83q-5 -31 14.5 -48.5t57.5 -17.5q35 0 58.5 17.5t29.5 46.5q6 56 -45 72l-53 14
q-55 15 -81.5 53t-18.5 92q11 63 58.5 100t119.5 37zM664 643l57 352h84l-55 -352q-12 -69 -59.5 -108t-119.5 -39t-107 39t-24 108l58 352h84l-56 -352q-6 -35 9 -54.5t49 -19.5q33 0 54.5 19.5t25.5 54.5zM1219 868q-6 -43 -36.5 -72t-72.5 -34q45 -6 68 -37.5t16 -81.5
q-11 -65 -60 -103t-122 -38h-158l78 493h151q72 0 108.5 -34t27.5 -93zM1133 858q5 31 -11.5 48.5t-50.5 17.5h-67l-23 -131h70q33 0 55.5 17.5t26.5 47.5zM1110 645q5 36 -13.5 57t-54.5 21h-71l-25 -152h72q37 0 61.5 20t30.5 54z" />
    <glyph glyph-name="uni241B" unicode="&#x241b;" 
d="M571 496q-75 0 -113 37.5t-28 101.5h84q-5 -31 14.5 -48.5t57.5 -17.5q35 0 58.5 17.5t29.5 46.5q6 56 -45 72l-54 14q-55 15 -81.5 53t-18.5 92q11 63 58.5 100t119.5 37q70 0 106 -36.5t27 -98.5h-84q5 29 -11.5 45.5t-51.5 16.5q-32 0 -52.5 -16t-25.5 -44
q-10 -56 41 -71l55 -15q57 -15 83 -53t18 -92q-10 -64 -61 -102.5t-126 -38.5zM1006 496q-71 0 -107.5 39.5t-26.5 105.5l33 215q10 67 59.5 106t120.5 39q72 0 108.5 -39.5t27.5 -105.5h-86q6 35 -10 53.5t-50 18.5q-75 0 -84 -72l-35 -215q-9 -72 62 -72q72 0 84 72h84
q-10 -66 -59.5 -105.5t-120.5 -39.5zM317 502h-294l77 493h295l-12 -73h-211l-20 -129h188l-12 -72h-189l-22 -146h213z" />
    <glyph glyph-name="uni241B" 
d="M571 496q-75 0 -113 37.5t-28 101.5h84q-5 -31 14.5 -48.5t57.5 -17.5q35 0 58.5 17.5t29.5 46.5q6 56 -45 72l-54 14q-55 15 -81.5 53t-18.5 92q11 63 58.5 100t119.5 37q70 0 106 -36.5t27 -98.5h-84q5 29 -11.5 45.5t-51.5 16.5q-32 0 -52.5 -16t-25.5 -44
q-10 -56 41 -71l55 -15q57 -15 83 -53t18 -92q-10 -64 -61 -102.5t-126 -38.5zM1006 496q-71 0 -107.5 39.5t-26.5 105.5l33 215q10 67 59.5 106t120.5 39q72 0 108.5 -39.5t27.5 -105.5h-86q6 35 -10 53.5t-50 18.5q-75 0 -84 -72l-35 -215q-9 -72 62 -72q72 0 84 72h84
q-10 -66 -59.5 -105.5t-120.5 -39.5zM317 502h-294l77 493h295l-12 -73h-211l-20 -129h188l-12 -72h-189l-22 -146h213z" />
    <glyph glyph-name="uni241C" unicode="&#x241c;" 
d="M791 496q-75 0 -113.5 37.5t-28.5 101.5h84q-5 -31 14.5 -48.5t57.5 -17.5q35 0 58.5 17.5t29.5 46.5q6 56 -45 72l-53 14q-56 15 -82 53t-19 92q11 63 58.5 100t119.5 37q70 0 106.5 -36.5t27.5 -98.5h-84q5 29 -12 45.5t-52 16.5q-32 0 -52.5 -16t-25.5 -44
q-10 -56 41 -71l56 -15q56 -15 82 -52.5t18 -92.5q-11 -65 -61 -103t-125 -38zM311 502h-84l78 493h307l-12 -77h-223l-21 -134h205l-12 -77h-205z" />
    <glyph glyph-name="uni241C" 
d="M791 496q-75 0 -113.5 37.5t-28.5 101.5h84q-5 -31 14.5 -48.5t57.5 -17.5q35 0 58.5 17.5t29.5 46.5q6 56 -45 72l-53 14q-56 15 -82 53t-19 92q11 63 58.5 100t119.5 37q70 0 106.5 -36.5t27.5 -98.5h-84q5 29 -12 45.5t-52 16.5q-32 0 -52.5 -16t-25.5 -44
q-10 -56 41 -71l56 -15q56 -15 82 -52.5t18 -92.5q-11 -65 -61 -103t-125 -38zM311 502h-84l78 493h307l-12 -77h-223l-21 -134h205l-12 -77h-205z" />
    <glyph glyph-name="uni241D" unicode="&#x241d;" 
d="M377 496q-71 0 -107 39.5t-26 105.5l32 215q10 67 60 106t121 39q72 0 108 -39.5t27 -105.5h-86q6 35 -10 53.5t-50 18.5q-75 0 -84 -72l-34 -215q-9 -72 61 -72q72 0 84 72l8 49h-86l13 74h167l-18 -123q-10 -66 -59.5 -105.5t-120.5 -39.5zM791 496q-75 0 -113.5 37.5
t-28.5 101.5h84q-5 -31 14.5 -48.5t57.5 -17.5q35 0 58.5 17.5t29.5 46.5q6 56 -45 72l-53 14q-56 15 -82 53t-19 92q11 63 58.5 100t119.5 37q70 0 106.5 -36.5t27.5 -98.5h-84q5 29 -12 45.5t-52 16.5q-32 0 -52.5 -16t-25.5 -44q-10 -56 41 -71l56 -15q56 -15 82 -52.5
t18 -92.5q-11 -65 -61 -103t-125 -38z" />
    <glyph glyph-name="uni241D" 
d="M377 496q-71 0 -107 39.5t-26 105.5l32 215q10 67 60 106t121 39q72 0 108 -39.5t27 -105.5h-86q6 35 -10 53.5t-50 18.5q-75 0 -84 -72l-34 -215q-9 -72 61 -72q72 0 84 72l8 49h-86l13 74h167l-18 -123q-10 -66 -59.5 -105.5t-120.5 -39.5zM791 496q-75 0 -113.5 37.5
t-28.5 101.5h84q-5 -31 14.5 -48.5t57.5 -17.5q35 0 58.5 17.5t29.5 46.5q6 56 -45 72l-53 14q-56 15 -82 53t-19 92q11 63 58.5 100t119.5 37q70 0 106.5 -36.5t27.5 -98.5h-84q5 29 -12 45.5t-52 16.5q-32 0 -52.5 -16t-25.5 -44q-10 -56 41 -71l56 -15q56 -15 82 -52.5
t18 -92.5q-11 -65 -61 -103t-125 -38z" />
    <glyph glyph-name="uni241E" unicode="&#x241e;" 
d="M1006 866h-84q5 29 -12 45.5t-52 16.5q-32 0 -52.5 -16t-25.5 -44q-10 -56 41 -71l56 -15q56 -15 82 -52.5t18 -92.5q-11 -65 -61 -103t-125 -38t-113.5 37.5t-28.5 101.5h84q-5 -31 14.5 -48.5t57.5 -17.5q35 0 58.5 17.5t29.5 46.5q6 56 -45 72l-53 14q-56 15 -82 53
t-19 92q11 63 58.5 100t119.5 37q70 0 106.5 -36.5t27.5 -98.5zM303 995h156q74 0 111.5 -40t27.5 -107q-7 -49 -39 -86.5t-78 -52.5l68 -207h-90l-60 196h-59l-31 -196h-84zM512 846q5 35 -13 55.5t-53 20.5h-71l-23 -150h72q35 0 58.5 20t29.5 54z" />
    <glyph glyph-name="uni241E" 
d="M1006 866h-84q5 29 -12 45.5t-52 16.5q-32 0 -52.5 -16t-25.5 -44q-10 -56 41 -71l56 -15q56 -15 82 -52.5t18 -92.5q-11 -65 -61 -103t-125 -38t-113.5 37.5t-28.5 101.5h84q-5 -31 14.5 -48.5t57.5 -17.5q35 0 58.5 17.5t29.5 46.5q6 56 -45 72l-53 14q-56 15 -82 53
t-19 92q11 63 58.5 100t119.5 37q70 0 106.5 -36.5t27.5 -98.5zM303 995h156q74 0 111.5 -40t27.5 -107q-7 -49 -39 -86.5t-78 -52.5l68 -207h-90l-60 196h-59l-31 -196h-84zM512 846q5 35 -13 55.5t-53 20.5h-71l-23 -150h72q35 0 58.5 20t29.5 54z" />
    <glyph glyph-name="uni241F" unicode="&#x241f;" 
d="M791 496q-75 0 -113.5 37.5t-28.5 101.5h84q-5 -31 14.5 -48.5t57.5 -17.5q35 0 58.5 17.5t29.5 46.5q6 56 -45 72l-53 14q-56 15 -82 53t-19 92q11 63 58.5 100t119.5 37q70 0 106.5 -36.5t27.5 -98.5h-84q5 29 -12 45.5t-52 16.5q-32 0 -52.5 -16t-25.5 -44
q-10 -56 41 -71l56 -15q56 -15 82 -52.5t18 -92.5q-11 -65 -61 -103t-125 -38zM375 496q-72 0 -107 39t-24 108l57 352h84l-55 -352q-6 -35 8.5 -54.5t48.5 -19.5q33 0 54.5 19.5t25.5 54.5l57 352h84l-55 -352q-12 -69 -59 -108t-119 -39z" />
    <glyph glyph-name="uni241F" 
d="M791 496q-75 0 -113.5 37.5t-28.5 101.5h84q-5 -31 14.5 -48.5t57.5 -17.5q35 0 58.5 17.5t29.5 46.5q6 56 -45 72l-53 14q-56 15 -82 53t-19 92q11 63 58.5 100t119.5 37q70 0 106.5 -36.5t27.5 -98.5h-84q5 29 -12 45.5t-52 16.5q-32 0 -52.5 -16t-25.5 -44
q-10 -56 41 -71l56 -15q56 -15 82 -52.5t18 -92.5q-11 -65 -61 -103t-125 -38zM375 496q-72 0 -107 39t-24 108l57 352h84l-55 -352q-6 -35 8.5 -54.5t48.5 -19.5q33 0 54.5 19.5t25.5 54.5l57 352h84l-55 -352q-12 -69 -59 -108t-119 -39z" />
    <glyph glyph-name="space" unicode=" " horiz-adv-x="819" 
 />
    <glyph glyph-name="exclam" unicode="!" horiz-adv-x="819" 
d="M492 477h-191l72 735l45 283h280l-45 -283zM348 -10h-59q-63 0 -96.5 37.5t-24.5 97.5q11 60 55 97.5t107 37.5h61q64 0 97 -37.5t24 -97.5q-11 -60 -56 -97.5t-108 -37.5z" />
    <glyph glyph-name="quotedbl" unicode="&#x22;" horiz-adv-x="819" 
d="M338 881h-207l27 346l45 268h258l-43 -268zM788 881h-206l26 346l45 268h258l-43 -268z" />
    <glyph glyph-name="numbersign" unicode="#" 
d="M252 0h-189l125 373h-165l28 176h197l133 397h-201l27 176h231l127 373h187l-125 -373h282l125 373h189l-125 -373h166l-29 -176h-197l-133 -397h201l-27 -176h-231l-127 -373h-186l124 373h-282zM569 946l-133 -397h281l133 397h-281z" />
    <glyph glyph-name="dollar" unicode="$" 
d="M1174 1104h-256q12 74 -20.5 121.5t-104.5 60.5l-66 -414l64 -18q170 -46 246 -161.5t48 -284.5q-28 -178 -163.5 -293.5t-335.5 -132.5l-43 -269h-127l43 271q-199 15 -297 126t-70 291h256q-12 -77 26 -127t120 -65l67 434l-35 10q-167 44 -244.5 161.5t-52.5 283.5
q28 173 154.5 284.5t316.5 128.5l43 271h127l-43 -269q186 -17 279.5 -126.5t67.5 -282.5zM489 1112q-12 -72 18.5 -126t96.5 -77l60 377q-73 -14 -119 -59t-56 -115zM829 397q12 77 -26 131t-119 76l-63 -397q86 12 140 62t68 128z" />
    <glyph glyph-name="percent" unicode="%" 
d="M362 819q-131 0 -202 75t-51 202l20 133q20 127 115 201.5t227 74.5q131 0 202.5 -74.5t51.5 -201.5l-20 -133q-20 -127 -115.5 -202t-227.5 -75zM96 0h-192l1288 1495h190zM387 977q117 0 137 119l21 133q17 119 -99 119q-115 0 -135 -119l-20 -133q-9 -61 15 -90
t81 -29zM813 -10q-133 0 -202.5 75.5t-49.5 200.5l21 133q19 125 113 201t227 76t204 -76t52 -201l-21 -133q-20 -125 -115.5 -200.5t-228.5 -75.5zM840 150q115 0 135 116l20 133q17 119 -98 119t-135 -119l-21 -133q-9 -61 15.5 -88.5t83.5 -27.5z" />
    <glyph glyph-name="ampersand" unicode="&#x26;" 
d="M944 737h248l-285 -415l178 -322h-256l-73 135q-169 -155 -373 -155q-184 0 -270.5 101.5t-57.5 283.5l31 190q19 121 86 204t172 115q-75 159 -55 297q25 154 148 249.5t300 95.5q184 0 279 -102t67 -271h-237q12 74 -26.5 118t-114.5 44q-74 0 -124.5 -42t-62.5 -112
q-14 -94 60 -229l221 -400zM438 190q59 0 116 32.5t101 90.5l-217 394q-91 -38 -108 -152l-31 -190q-13 -82 24.5 -128.5t114.5 -46.5z" />
    <glyph glyph-name="quotesingle" unicode="'" horiz-adv-x="409" 
d="M358 881h-206l18 295l51 319h260l-51 -319z" />
    <glyph glyph-name="parenleft" unicode="(" horiz-adv-x="819" 
d="M655 2l-41 -258q-298 82 -434.5 290t-89.5 507l62 391q47 295 254 507t524 292l-41 -252q-189 -44 -318 -190.5t-163 -356.5l-62 -391q-32 -206 51 -351t258 -188z" />
    <glyph glyph-name="parenright" unicode=")" horiz-adv-x="819" 
d="M-57 -256l41 258q190 43 318.5 188t162.5 351l61 391q34 211 -48.5 357t-260.5 190l41 252q292 -79 431 -291.5t93 -507.5l-61 -391q-50 -300 -252.5 -507.5t-525.5 -289.5z" />
    <glyph glyph-name="asterisk" unicode="*" 
d="M432 299l-102 -121l-166 131l100 121q88 102 285 229l-2 13q-214 5 -324 47l-127 49l111 217l129 -49q112 -44 258 -180l10 8q-34 231 -18 338l24 147h230l-23 -147q-17 -113 -129 -338l8 -6q205 139 312 178l147 49l45 -217l-145 -49q-123 -42 -336 -47l-6 -13
q159 -137 209 -229l65 -121l-209 -131l-65 121q-51 93 -84 313h-13q-100 -215 -184 -313z" />
    <glyph glyph-name="plus" unicode="+" 
d="M682 188h-256l59 369h-366l37 238h366l58 368h256l-60 -368h367l-37 -238h-367z" />
    <glyph glyph-name="comma" unicode="," horiz-adv-x="819" 
d="M266 -328h-227l264 637h330z" />
    <glyph glyph-name="hyphen" unicode="-" 
d="M958 557h-692l39 238h690z" />
    <glyph glyph-name="period" unicode="." horiz-adv-x="819" 
d="M317 -20q-87 0 -130 51t-31 139q13 89 73.5 140.5t149.5 51.5q88 0 130.5 -51.5t29.5 -140.5q-12 -87 -73 -138.5t-149 -51.5z" />
    <glyph glyph-name="slash" unicode="/" 
d="M272 -225h-274l1012 1925h274z" />
    <glyph glyph-name="zero" unicode="0" 
d="M520 -20q-218 0 -326.5 121.5t-76.5 324.5l102 643q32 203 180 325t365 122t326 -122t77 -325l-102 -643q-32 -202 -180 -324t-365 -122zM557 201q105 0 178 62t88 163l103 643q17 102 -36.5 163.5t-160.5 61.5t-180 -61.5t-88 -163.5l-103 -643q-17 -101 37.5 -163
t161.5 -62zM641 614q-61 0 -98 38.5t-37 101.5q0 62 37 98.5t98 36.5q60 0 97.5 -37t37.5 -98q0 -63 -37.5 -101.5t-97.5 -38.5z" />
    <glyph glyph-name="one" unicode="1" 
d="M1040 0h-958l37 225h389l164 1043l-439 -291l46 270l383 248h303l-201 -1270h311z" />
    <glyph glyph-name="two" unicode="2" 
d="M1006 0h-934l37 233l589 525q92 83 140.5 154.5t58.5 144.5q17 107 -31 168t-149 61q-104 0 -174.5 -62.5t-89.5 -172.5h-256q37 214 188 339.5t371 125.5q215 0 324 -120t77 -323q-21 -124 -96.5 -239.5t-226.5 -245.5l-408 -357h616z" />
    <glyph glyph-name="three" unicode="3" 
d="M336 1495h840l-35 -211l-379 -336q173 -26 256 -139t55 -287l-16 -112q-31 -199 -179 -314.5t-372 -115.5q-218 0 -329.5 116.5t-80.5 313.5h258q-17 -100 33 -156.5t156 -56.5t173.5 56.5t82.5 156.5l18 112q17 101 -33.5 157t-156.5 56h-174l32 205l373 336h-557z" />
    <glyph glyph-name="four" unicode="4" 
d="M950 0h-258l47 297h-663l59 371l686 827h283l-737 -899l-11 -74h420l53 338h258z" />
    <glyph glyph-name="five" unicode="5" 
d="M1141 1264h-600l-74 -435h4q31 71 109 111.5t186 40.5q181 1 264.5 -109.5t52.5 -310.5l-22 -145q-32 -203 -176.5 -319.5t-366.5 -116.5q-206 0 -314 103t-93 282h256q-5 -77 43.5 -119.5t144.5 -42.5q105 0 169 55.5t81 157.5l22 145q15 102 -30.5 156.5t-151.5 54.5
q-64 0 -117 -26.5t-84 -73.5h-249l141 823h842z" />
    <glyph glyph-name="six" unicode="6" 
d="M522 -20q-227 0 -345 137.5t-81 361.5q26 184 207 430l430 586h281l-525 -702l11 -9q112 131 276 131q180 0 271 -124t59 -328q-35 -217 -196 -350t-388 -133zM557 197q114 0 195 72.5t100 189.5q19 119 -39 192.5t-172 73.5t-196 -73.5t-101 -192.5q-19 -117 40 -189.5
t173 -72.5z" />
    <glyph glyph-name="seven" unicode="7" 
d="M518 0h-285l744 1264h-477l-37 -238h-256l74 469h1007l-39 -231z" />
    <glyph glyph-name="eight" unicode="8" 
d="M1171 1122q-38 -226 -301 -350q125 -66 182 -165.5t38 -221.5q-29 -184 -185 -294.5t-383 -110.5t-347.5 111.5t-92.5 293.5q20 125 110 224.5t232 162.5q-112 61 -162 150t-31 200q27 171 176 282.5t359 111.5q209 0 321 -111.5t84 -282.5zM920 1108q14 85 -39.5 138.5
t-151.5 53.5t-168 -53.5t-84 -138.5q-10 -71 27.5 -129.5t109.5 -91.5l48 -21l49 19q84 33 140.5 92.5t68.5 130.5zM844 410q10 73 -31 138t-117 99l-63 29l-78 -31q-86 -33 -147.5 -97.5t-71.5 -135.5q-13 -95 48.5 -155t172.5 -60q109 0 190.5 60t96.5 153z" />
    <glyph glyph-name="nine" unicode="9" 
d="M569 0h-305l520 696l-10 9q-56 -67 -118 -100.5t-146 -33.5q-177 0 -268 127.5t-60 329.5q35 217 197.5 352.5t386.5 135.5t343.5 -138t84.5 -358q-29 -185 -207 -432zM647 764q114 0 196 74t101 194q19 117 -40 191.5t-173 74.5q-112 0 -194 -74.5t-101 -191.5
q-20 -119 39 -193.5t172 -74.5z" />
    <glyph glyph-name="colon" unicode=":" horiz-adv-x="819" 
d="M449 803q-86 0 -131 47.5t-33 124.5t72.5 124.5t146.5 47.5q85 0 129.5 -47.5t32.5 -124.5t-71.5 -124.5t-145.5 -47.5zM317 -20q-86 0 -130.5 47.5t-32.5 124.5t72.5 124.5t146.5 47.5q85 0 129.5 -47.5t32.5 -124.5q-12 -76 -72.5 -124t-145.5 -48z" />
    <glyph glyph-name="semicolon" unicode=";" horiz-adv-x="819" 
d="M467 803h-41q-74 0 -115 49t-30 123q14 74 70.5 123t129.5 49h41q74 0 115 -49.5t29 -122.5q-12 -74 -68 -123t-131 -49zM197 -328h-226l265 637h327z" />
    <glyph glyph-name="less" unicode="&#x3c;" 
d="M1038 344l-37 -229l-849 432l41 256l985 432l-37 -246l-637 -274q-85 -36 -152 -49q79 -15 137 -45z" />
    <glyph glyph-name="equal" unicode="=" 
d="M1100 809h-893l37 235h893zM1018 307h-891l37 236h893z" />
    <glyph glyph-name="greater" unicode="&#x3e;" 
d="M1069 547l-985 -432l37 243l637 275q86 36 151 49q-79 16 -135 45l-551 277l37 231l850 -432z" />
    <glyph glyph-name="question" unicode="?" 
d="M602 444h-225l59 410h162q102 0 171.5 54.5t86.5 146.5q13 92 -40.5 146t-156.5 54h-305l39 240h293q227 0 342 -119.5t84 -320.5q-31 -186 -163 -304t-318 -122zM446 -10h-59q-63 0 -96.5 37.5t-24.5 97.5q11 60 55 97.5t107 37.5h61q64 0 97 -37.5t24 -97.5
q-11 -60 -56 -97.5t-108 -37.5z" />
    <glyph glyph-name="at" unicode="@" 
d="M795 1516q243 0 362.5 -136t83.5 -360l-139 -887h-207l23 146h-7q-19 -75 -85.5 -120.5t-159.5 -45.5q-129 0 -183.5 85t-29.5 244l36 234q26 160 107.5 245t210.5 85q93 0 145 -45.5t47 -120.5h9l20 159l2 21q25 150 -45.5 230.5t-226.5 80.5q-168 0 -279.5 -107.5
t-142.5 -301.5l-111 -695q-31 -189 54.5 -294t269.5 -105h143l-30 -195h-144q-277 0 -412.5 159.5t-91.5 434.5l109 695q44 277 223.5 435.5t448.5 158.5zM940 451l35 225q27 174 -111 174q-141 0 -168 -174l-37 -234q-15 -90 13.5 -132t99.5 -42q72 0 112.5 43.5
t55.5 139.5z" />
    <glyph glyph-name="A" unicode="A" 
d="M252 0h-270l614 1495h330l141 -1495h-254l-25 362h-397zM627 975l-158 -404h305l-26 402q-17 226 -17 299q-49 -149 -104 -297z" />
    <glyph glyph-name="B" unicode="B" 
d="M1174 1110q-20 -131 -110.5 -219t-217.5 -107q137 -18 207 -112t45 -246q-31 -195 -179 -310.5t-370 -115.5h-481l237 1495h459q217 0 327.5 -103.5t82.5 -281.5zM913 1081q14 94 -36.5 147.5t-151.5 53.5h-207l-63 -403h207q101 0 167.5 54t83.5 148zM844 438
q17 105 -38 169.5t-167 64.5h-217l-72 -459h217q112 0 186 60t91 165z" />
    <glyph glyph-name="C" unicode="C" 
d="M528 -20q-217 0 -327 120t-78 322l102 651q32 202 181 322.5t366 120.5q215 0 325.5 -121t78.5 -322h-256q19 105 -30 161t-153 56q-105 0 -171 -55.5t-83 -159.5l-104 -653q-15 -105 33 -161t153 -56q103 0 169 56t83 161h256q-32 -201 -181 -321.5t-364 -120.5z" />
    <glyph glyph-name="D" unicode="D" 
d="M508 0h-445l238 1495h444q226 0 342 -127.5t82 -339.5l-88 -559q-34 -212 -190.5 -340.5t-382.5 -128.5zM518 1260l-162 -1024h189q112 0 186.5 62.5t91.5 170.5l90 559q17 106 -39.5 169t-166.5 63h-189z" />
    <glyph glyph-name="E" unicode="E" 
d="M987 0h-897l238 1495h897l-37 -223h-643l-64 -389h574l-35 -221h-574l-69 -439h645z" />
    <glyph glyph-name="F" unicode="F" 
d="M330 0h-256l237 1495h930l-39 -238h-676l-63 -399h622l-36 -237h-619z" />
    <glyph glyph-name="G" unicode="G" 
d="M528 -20q-217 0 -327 120t-78 322l102 651q32 202 181 322.5t366 120.5q215 0 325.5 -121t78.5 -322h-256q19 105 -30 161t-153 56q-105 0 -171 -55.5t-83 -159.5l-104 -653q-15 -106 33.5 -162.5t152.5 -56.5q103 0 169 57t83 162l25 151h-256l35 222h512l-60 -373
q-31 -201 -180 -321.5t-365 -120.5z" />
    <glyph glyph-name="H" unicode="H" 
d="M324 0h-256l237 1495h256l-96 -600h401l97 600h256l-238 -1495h-256l102 657h-399z" />
    <glyph glyph-name="I" unicode="I" 
d="M954 0h-860l37 225h301l164 1045h-299l35 225h860l-37 -225h-301l-164 -1045h299z" />
    <glyph glyph-name="J" unicode="J" 
d="M459 -20q-227 0 -338.5 124t-77.5 338h256q-19 -112 33.5 -175.5t163.5 -63.5q109 0 181 63.5t91 173.5l129 824h-420l39 231h676l-168 -1055q-35 -220 -182.5 -340t-382.5 -120z" />
    <glyph glyph-name="K" unicode="K" 
d="M322 0h-256l237 1495h256l-96 -604h172l381 604h280l-454 -729l233 -766h-276l-189 657h-184z" />
    <glyph glyph-name="L" unicode="L" 
d="M1053 0h-891l237 1495h256l-198 -1257h633z" />
    <glyph glyph-name="M" unicode="M" 
d="M264 0h-239l237 1495h297l70 -475q20 -134 20 -217q27 85 88 217l215 475h310l-238 -1495h-240l74 465q31 192 89 443t110 442l-312 -707h-233l-96 707q-5 -184 -25.5 -433.5t-52.5 -451.5z" />
    <glyph glyph-name="N" unicode="N" 
d="M291 0h-234l238 1495h309l227 -1208q18 286 52 499l112 709h234l-238 -1495h-309l-225 1208q-20 -292 -49 -477z" />
    <glyph glyph-name="O" unicode="O" 
d="M520 -20q-215 0 -322 119.5t-75 322.5l102 651q32 203 178 323t361 120t322 -120t75 -321l-102 -653q-32 -203 -178 -322.5t-361 -119.5zM557 205q103 0 166 55.5t80 161.5l102 651q17 106 -27.5 161.5t-148.5 55.5t-167.5 -55.5t-78.5 -161.5l-104 -651
q-15 -106 29.5 -161.5t148.5 -55.5z" />
    <glyph glyph-name="P" unicode="P" 
d="M324 0h-256l237 1495h498q225 0 339.5 -125.5t82.5 -335.5q-34 -209 -190 -335t-380 -126h-241zM524 1264l-73 -459h241q109 0 183.5 62.5t91.5 166.5q15 106 -39.5 168t-161.5 62h-242z" />
    <glyph glyph-name="Q" unicode="Q" 
d="M764 1516q215 0 325 -122t78 -325l-102 -643q-22 -136 -97 -238t-192 -155l180 -402h-260l-153 349h-23q-215 0 -325 122.5t-78 323.5l102 643q32 203 180.5 325t364.5 122zM809 426l102 643q17 104 -31 163.5t-151 59.5q-102 0 -170.5 -59.5t-83.5 -163.5l-102 -643
q-17 -103 31 -162t153 -59t171 58.5t81 162.5z" />
    <glyph glyph-name="R" unicode="R" 
d="M1196 1051q-23 -151 -118 -265t-232 -159l205 -627h-273l-180 594h-182l-94 -594h-256l237 1495h473q223 0 337.5 -121.5t82.5 -322.5zM936 1042q17 105 -36 166.5t-159 61.5h-219l-71 -451h219q106 0 177.5 59.5t88.5 163.5z" />
    <glyph glyph-name="S" unicode="S" 
d="M524 -20q-230 0 -346.5 113.5t-85.5 307.5h256q-15 -92 42 -144t173 -52q110 0 180.5 50.5t85.5 141.5q11 80 -23.5 137.5t-107.5 77.5l-166 47q-167 46 -246.5 161.5t-56.5 277.5q31 190 177 304t360 114q216 0 326.5 -112t81.5 -300h-256q14 89 -35 138.5t-154 49.5
q-101 0 -164.5 -47.5t-75.5 -132.5q-14 -82 19 -138.5t106 -76.5l170 -49q169 -47 248 -161.5t53 -278.5q-31 -195 -184 -311.5t-377 -116.5z" />
    <glyph glyph-name="T" unicode="T" 
d="M653 0h-258l201 1257h-393l39 238h1040l-39 -238h-391z" />
    <glyph glyph-name="U" unicode="U" 
d="M520 -20q-219 0 -323 119t-70 327l168 1069h258l-170 -1067q-19 -106 26.5 -165.5t147.5 -59.5q100 0 163.5 59t82.5 166l168 1067h258l-170 -1069q-34 -208 -177 -327t-362 -119z" />
    <glyph glyph-name="V" unicode="V" 
d="M690 0h-332l-139 1495h260l72 -975q14 -168 14 -289q48 162 99 291l376 973h265z" />
    <glyph glyph-name="W" unicode="W" 
d="M381 0h-285l84 1495h215l-76 -1044q-7 -131 -26 -277q39 169 69 277l289 1044h221l-51 -1044q-2 -38 -6 -139.5t-6 -137.5q47 228 59 277l256 1044h219l-399 -1495h-282l53 1049q4 84 20 284q-21 -101 -67 -284z" />
    <glyph glyph-name="X" unicode="X" 
d="M256 0h-289l535 772l-273 723h279l127 -375q7 -26 23.5 -74.5t19.5 -62.5q48 92 78 137l252 375h286l-503 -731l290 -764h-276l-146 414q-23 60 -45 141q-37 -76 -82 -141z" />
    <glyph glyph-name="Y" unicode="Y" 
d="M653 0h-258l86 543l-286 952h262l149 -518q35 -124 39 -213q41 110 100 213l312 518h272l-592 -952z" />
    <glyph glyph-name="Z" unicode="Z" 
d="M977 0h-903l37 244l753 1013h-579l39 238h868l-39 -244l-754 -1013h615z" />
    <glyph glyph-name="bracketleft" unicode="[" horiz-adv-x="819" 
d="M573 -225h-575l303 1925h576l-37 -236h-318l-231 -1454h317z" />
    <glyph glyph-name="backslash" unicode="\" 
d="M979 -225h-258l-420 1925h256z" />
    <glyph glyph-name="bracketright" unicode="]" horiz-adv-x="819" 
d="M573 -225h-575l37 235h317l232 1454h-318l35 236h576z" />
    <glyph glyph-name="asciicircum" unicode="^" 
d="M403 696h-243l481 799h246l223 -799h-233l-113 471q-21 85 -25 144q-41 -99 -67 -144z" />
    <glyph glyph-name="underscore" unicode="_" 
d="M971 -283h-983l37 232h983z" />
    <glyph glyph-name="grave" unicode="`" 
d="M915 1321h-251l-193 287h270z" />
    <glyph glyph-name="a" unicode="a" 
d="M877 911l28 215h256l-178 -1126h-252l35 215h-4q-35 -111 -123.5 -173t-212.5 -62q-171 0 -254 116.5t-49 313.5l47 305q34 198 153 315t289 117q123 0 191.5 -63t66.5 -173h7zM793 422l45 283q17 104 -29 162.5t-143 58.5q-99 0 -162 -58t-78 -163l-45 -283
q-17 -106 27.5 -163.5t144.5 -57.5q96 0 159.5 58t80.5 163z" />
    <glyph glyph-name="b" unicode="b" 
d="M803 1147q170 0 252 -117t51 -315l-49 -305q-31 -197 -151 -313.5t-290 -116.5q-124 0 -193 62.5t-67 172.5h-4l-35 -215h-249l237 1495h256l-51 -315l-51 -269h8q34 111 123 173.5t213 62.5zM803 422l45 283q17 105 -28 163t-144 58q-97 0 -161 -58.5t-81 -162.5
l-45 -283q-15 -106 30 -163.5t142 -57.5q99 0 162 57.5t80 163.5z" />
    <glyph glyph-name="c" unicode="c" 
d="M526 -20q-217 0 -326 120t-77 322l45 283q32 202 180 322t365 120q212 0 321.5 -109.5t87.5 -298.5h-256q7 87 -42.5 136t-145.5 49q-105 0 -171 -56.5t-81 -160.5l-47 -285q-15 -106 32.5 -162.5t151.5 -56.5q97 0 161.5 48t84.5 136h258q-38 -189 -183.5 -298
t-357.5 -109z" />
    <glyph glyph-name="d" unicode="d" 
d="M913 1180l52 315h256l-238 -1495h-252l35 215h-4q-35 -111 -123.5 -173t-212.5 -62q-170 0 -252 116t-51 314l47 305q31 198 151 315t291 117q123 0 191.5 -63t66.5 -173h7zM793 422l45 283q17 104 -29 162.5t-143 58.5q-98 0 -160.5 -57.5t-79.5 -163.5l-45 -283
q-17 -106 27.5 -163.5t144.5 -57.5q96 0 159.5 58t80.5 163z" />
    <glyph glyph-name="e" unicode="e" 
d="M709 1147q213 0 320 -121t75 -321l-33 -203h-688l-14 -80q-38 -240 188 -240q173 0 221 117h254q-53 -145 -191.5 -232t-318.5 -87q-214 0 -322 120.5t-77 321.5l45 283q32 200 179.5 321t361.5 121zM414 705l-6 -43l444 4l6 41q19 118 -27 179.5t-155 61.5
q-111 0 -177 -62.5t-85 -180.5z" />
    <glyph glyph-name="f" unicode="f" horiz-adv-x="1024" 
d="M-10 -369h-96l34 213h90q83 0 134 42t63 120l123 764h-225l37 231h227l24 154q25 155 141 247.5t287 92.5h258l-34 -225h-254q-60 0 -97.5 -31.5t-46.5 -89.5l-22 -148h381l-37 -231h-381l-127 -770q-26 -171 -154.5 -270t-324.5 -99z" />
    <glyph glyph-name="g" unicode="g" 
d="M877 911l28 215h256l-178 -1126q-28 -171 -156.5 -270t-324.5 -99h-340l35 213h333q86 0 136.5 41.5t64.5 120.5l12 84l39 211h-4q-35 -112 -123 -173.5t-211 -61.5q-172 0 -255.5 116.5t-51.5 315.5l35 219q31 196 151.5 313t290.5 117q125 0 193 -62t65 -174h5z
M809 508l29 197q17 104 -28.5 162.5t-141.5 58.5q-99 0 -162 -57.5t-80 -163.5l-31 -197q-19 -105 26 -163t144 -58q97 0 161 58.5t83 162.5z" />
    <glyph glyph-name="h" unicode="h" 
d="M803 1147q166 0 248 -111t51 -297l-117 -739h-256l113 713q17 100 -28 156.5t-140 56.5q-96 0 -159.5 -58t-80.5 -163l-110 -705h-256l237 1495h256l-59 -369l-41 -215h6q34 111 122.5 173.5t213.5 62.5z" />
    <glyph glyph-name="i" unicode="i" horiz-adv-x="1024" 
d="M653 1315q-78 0 -116.5 39t-28.5 108q11 68 62.5 108t129.5 40q76 0 115.5 -40t28.5 -108q-9 -68 -61 -107.5t-130 -39.5zM858 0h-817l37 233h299l104 662h-248l37 231h492l-141 -893h274z" />
    <glyph glyph-name="j" unicode="j" horiz-adv-x="819" 
d="M645 1315q-78 0 -116.5 39t-28.5 108q11 68 62.5 108t129.5 40q76 0 115.5 -40t28.5 -108q-9 -68 -61 -107.5t-130 -39.5zM59 -369h-170l41 238h156q101 0 165 55.5t81 155.5l129 809h-322l39 237h576l-166 -1052q-34 -204 -176 -323.5t-353 -119.5z" />
    <glyph glyph-name="k" unicode="k" 
d="M330 0h-256l237 1495h256l-129 -811h164l344 442h293l-428 -555l256 -571h-283l-202 467h-179z" />
    <glyph glyph-name="l" unicode="l" horiz-adv-x="819" 
d="M688 0h-192q-167 0 -252.5 100.5t-59.5 264.5l142 899h-199l37 231h454l-178 -1130q-9 -61 20.5 -97.5t88.5 -36.5h174z" />
    <glyph glyph-name="m" unicode="m" horiz-adv-x="1638" 
d="M1280 1147q137 0 208.5 -80.5t51.5 -208.5l-137 -858h-256l133 840q9 55 -25.5 85.5t-103.5 30.5q-71 0 -118 -30.5t-56 -85.5l-133 -840h-226l134 840q9 55 -27.5 85.5t-106.5 30.5q-69 0 -114.5 -30.5t-54.5 -85.5l-134 -840h-256l181 1126h239l-24 -151h10
q28 77 106 124.5t177 47.5q98 0 159.5 -46.5t75.5 -125.5h6q26 76 107.5 124t183.5 48z" />
    <glyph glyph-name="n" unicode="n" 
d="M803 1147q166 0 248 -111t51 -297l-117 -739h-256l113 713q17 100 -28 156.5t-140 56.5q-96 0 -159.5 -58t-80.5 -163l-110 -705h-256l178 1126h250l-35 -215h6q34 111 122.5 173.5t213.5 62.5z" />
    <glyph glyph-name="o" unicode="o" 
d="M520 -20q-215 0 -322 119.5t-75 322.5l45 283q32 203 178 322.5t361 119.5t322 -119.5t75 -320.5l-45 -285q-32 -203 -178 -322.5t-361 -119.5zM557 203q101 0 165 56.5t81 162.5l45 283q17 106 -29 162.5t-149 56.5q-101 0 -165 -56.5t-81 -162.5l-45 -283
q-17 -106 29 -162.5t149 -56.5z" />
    <glyph glyph-name="p" unicode="p" 
d="M803 1147q170 0 252 -116.5t51 -313.5l-49 -305q-31 -198 -150.5 -315t-290.5 -117q-124 0 -193 62.5t-67 172.5h-6l-35 -268l-51 -316h-256l238 1495h250l-35 -215h6q34 111 123 173.5t213 62.5zM803 422l45 283q17 106 -27.5 163.5t-144.5 57.5q-97 0 -161 -58.5
t-81 -162.5l-45 -283q-15 -104 31 -162.5t143 -58.5q98 0 160.5 57.5t79.5 163.5z" />
    <glyph glyph-name="q" unicode="q" 
d="M874 911l35 215h250l-237 -1495h-256l51 316l51 268h-10q-34 -111 -122 -173t-212 -62q-170 0 -252 117t-51 315l49 305q31 196 151 313t289 117q124 0 192 -62.5t66 -173.5h6zM793 422l45 283q17 104 -29 162.5t-143 58.5q-99 0 -162 -57.5t-80 -163.5l-45 -283
q-17 -105 28 -163t144 -58q97 0 161 58.5t81 162.5z" />
    <glyph glyph-name="r" unicode="r" 
d="M838 1147q183 0 268.5 -112t54.5 -312l-14 -82h-268l12 64q17 108 -29 167.5t-145 59.5q-100 0 -164.5 -59t-81.5 -168l-113 -705h-256l179 1126h241l-35 -215h2q92 236 349 236z" />
    <glyph glyph-name="s" unicode="s" 
d="M563 -20h-90q-193 0 -296.5 88.5t-86.5 238.5h256q-3 -54 40.5 -86.5t121.5 -32.5h88q93 0 147.5 37t63.5 101q9 59 -27.5 95t-120.5 48l-135 20q-192 27 -269 101t-54 223q25 160 146.5 247t326.5 87h78q186 0 285.5 -84.5t84.5 -226.5h-256q2 47 -37.5 74.5
t-111.5 27.5h-78q-167 0 -188 -125q-9 -57 21 -88t106 -43l141 -20q199 -28 281.5 -105.5t58.5 -228.5q-28 -167 -154.5 -257.5t-341.5 -90.5z" />
    <glyph glyph-name="t" unicode="t" horiz-adv-x="1024" 
d="M791 0h-248q-161 0 -237.5 89.5t-51.5 248.5l88 557h-240l35 231h242l49 308h256l-49 -308h354l-35 -231h-356l-88 -557q-15 -107 88 -107h229z" />
    <glyph glyph-name="u" unicode="u" 
d="M520 -20q-215 0 -318 119t-71 327l111 700h256l-111 -698q-17 -108 27 -166.5t141 -58.5q99 0 162 58.5t80 166.5l110 698h256l-110 -700q-32 -206 -176 -326t-357 -120z" />
    <glyph glyph-name="v" unicode="v" 
d="M692 0h-330l-227 1126h258l139 -684q15 -76 27 -231q70 178 96 229l351 686h268z" />
    <glyph glyph-name="w" unicode="w" 
d="M387 0h-264l6 1126h207l-14 -690q-3 -135 -11 -250q5 16 72 250l217 690h203l-4 -690q0 -63 -6 -252q33 130 69 252l209 690h205l-354 -1126h-265l9 694q1 36 2 124.5t2 119.5q-9 -29 -34.5 -117.5t-37.5 -126.5z" />
    <glyph glyph-name="x" unicode="x" 
d="M283 0h-295l481 588l-276 538h282l127 -276q25 -54 37 -105q33 58 66 105l213 276h296l-448 -551l295 -575h-285l-141 309q-32 71 -41 107q-42 -76 -68 -107z" />
    <glyph glyph-name="y" unicode="y" 
d="M801 524l96 602h256l-176 -1126q-28 -171 -156.5 -270t-324.5 -99h-338l32 213h334q86 0 137.5 41.5t63.5 120.5l14 88l37 223h-6q-36 -111 -123.5 -173t-212.5 -62q-166 0 -248 110.5t-53 296.5l103 637h256l-99 -610q-15 -101 30 -157t140 -56q96 0 159.5 58t78.5 163z
" />
    <glyph glyph-name="z" unicode="z" 
d="M979 0h-909l36 231l687 670h-562l35 225h869l-37 -231l-690 -670h606z" />
    <glyph glyph-name="braceleft" unicode="{" 
d="M1104 1700h141l-37 -236h-104q-76 0 -122 -36t-52 -109l-31 -320q-10 -102 -79.5 -172t-178.5 -90q103 -20 150 -90t24 -174l-72 -319q-13 -67 22.5 -105.5t108.5 -38.5h105l-39 -237h-139q-176 0 -265 99t-51 265l70 312q38 169 -141 169h-244l37 236h244q92 0 139 42
t55 126l31 321q17 164 135 260.5t293 96.5z" />
    <glyph glyph-name="bar" unicode="|" 
d="M618 -225h-258l304 1925h258z" />
    <glyph glyph-name="braceright" unicode="}" 
d="M868 854h244l-37 -236h-244q-182 0 -194 -169l-31 -312q-15 -166 -134.5 -265t-295.5 -99h-139l37 237h104q73 0 120.5 38.5t53.5 105.5l31 319q10 104 79.5 174t178.5 90q-103 20 -150 90t-24 172l72 320q29 145 -131 145h-105l37 236h141q176 0 264 -96.5t52 -260.5
l-70 -321q-19 -84 15 -126t126 -42z" />
    <glyph glyph-name="asciitilde" unicode="~" 
d="M315 522h-217l27 162q20 126 113.5 202.5t226.5 76.5q66 0 116 -20.5t77 -51.5t50.5 -67.5t39.5 -67.5t41 -51.5t57 -20.5q37 0 60.5 23t29.5 65l25 150h217l-27 -162q-20 -126 -112 -202.5t-226 -76.5q-66 0 -116 20.5t-77 51.5t-50.5 67.5t-39.5 67.5t-41 51.5
t-57 20.5q-38 0 -62 -22.5t-30 -65.5z" />
    <glyph glyph-name="uni2421" unicode="&#x2421;" 
d="M160 502h-148l80 493h146q75 0 113.5 -42t27.5 -111l-31 -187q-10 -69 -62 -111t-126 -42zM725 502h-295l78 493h295l-12 -73h-211l-21 -129h189l-13 -72h-188l-23 -146h213zM1180 502h-295l78 493h86l-68 -415h211zM164 918l-53 -338h61q37 0 61.5 20t30.5 55l29 187
q6 34 -12.5 55t-55.5 21h-61z" />
    <glyph glyph-name="uni2421" 
d="M160 502h-148l80 493h146q75 0 113.5 -42t27.5 -111l-31 -187q-10 -69 -62 -111t-126 -42zM725 502h-295l78 493h295l-12 -73h-211l-21 -129h189l-13 -72h-188l-23 -146h213zM1180 502h-295l78 493h86l-68 -415h211zM164 918l-53 -338h61q37 0 61.5 20t30.5 55l29 187
q6 34 -12.5 55t-55.5 21h-61z" />
    <glyph glyph-name="uni00A0" unicode="&#xa0;" horiz-adv-x="819" 
 />
    <glyph glyph-name="exclamdown" unicode="&#xa1;" horiz-adv-x="819" 
d="M483 868h-53q-65 0 -99 37.5t-24 100.5q9 60 55.5 95.5t112.5 35.5h51q65 0 99.5 -36t25.5 -97q-11 -62 -56.5 -99t-111.5 -37zM399 -369h-278l47 297l160 723h188l-67 -723z" />
    <glyph glyph-name="cent" unicode="&#xa2;" 
d="M1122 739h-256q6 70 -25 115.5t-93 60.5l-113 -704q68 15 113.5 60.5t60.5 115.5h258q-35 -171 -159 -277.5t-308 -125.5l-43 -271h-129l43 269q-191 15 -285 133t-63 307l45 283q31 188 161 305.5t324 134.5l43 268h129l-43 -270q179 -17 269.5 -124.5t70.5 -279.5z
M426 707l-47 -285q-27 -184 127 -215l112 711q-80 -14 -130 -68t-62 -143z" />
    <glyph glyph-name="sterling" unicode="&#xa3;" 
d="M1174 1102h-263q9 85 -41 137.5t-145 52.5q-102 0 -168 -51t-80 -137q-6 -43 4 -82t27 -65.5t42.5 -67.5t39.5 -76h340l-35 -213h-281q0 -13 -4 -37q-10 -64 -44.5 -120.5t-82.5 -96.5t-98 -67.5t-100 -42.5h757l-36 -236h-943l43 276q93 48 174.5 123.5t92.5 145.5
q2 12 4 32t2 23h-234l35 213h137q-6 10 -22.5 35.5t-23.5 38t-20 36.5t-17.5 42t-10 43.5t-4.5 52.5t6 57q27 176 174.5 287t364.5 111q211 0 320.5 -112.5t89.5 -301.5z" />
    <glyph glyph-name="currency" unicode="&#xa4;" 
d="M1065 764q-16 -115 -98 -225l151 -179l-157 -133l-154 181q-103 -58 -225 -58t-205 53l-205 -174l-117 142l197 172q-45 98 -27 221q18 124 101 223l-150 180l156 136l153 -185q107 60 228 60q122 0 211 -58l196 170l119 -139l-197 -170q43 -101 23 -217zM883 764
q17 102 -40 172t-157 70q-102 0 -181.5 -69.5t-96.5 -172.5t41 -172.5t159 -69.5t179.5 69.5t95.5 172.5z" />
    <glyph glyph-name="yen" unicode="&#xa5;" 
d="M1057 1495h272l-475 -764h279l-31 -190h-365l-20 -129h364l-30 -191h-363l-35 -221h-258l35 221h-362l30 191h363l20 129h-362l31 190h274l-229 764h262l149 -518q35 -124 39 -213q41 110 100 213z" />
    <glyph glyph-name="brokenbar" unicode="&#xa6;" 
d="M799 922h-258l123 778h258zM618 -225h-258l123 778h258z" />
    <glyph glyph-name="section" unicode="&#xa7;" 
d="M504 -317h-62q-195 0 -305 85t-108 234h260q7 -52 58 -84.5t126 -32.5h62q101 0 164.5 41.5t74.5 110.5q21 118 -156 158l-184 41q-157 32 -236 121t-59 210q19 118 106 193.5t218 87.5l2 14q-46 6 -89.5 27t-79.5 56.5t-52.5 94t-5.5 129.5q26 161 157.5 254t339.5 93
h62q189 0 294.5 -81.5t102.5 -224.5h-260q-5 44 -50 73.5t-118 29.5h-61q-93 0 -150 -37t-66 -102q-9 -55 27 -94t113 -56l194 -43q159 -35 237 -126t58 -216q-19 -120 -106 -195.5t-219 -81.5l-2 -14q47 -5 91.5 -25.5t82 -57t54.5 -96.5t5 -134q-25 -163 -163 -257.5
t-357 -94.5zM506 432l125 -26q85 -18 149 37.5t82 156.5q11 68 -23 118.5t-100 65.5l-125 27q-80 18 -141 -37.5t-76 -155.5q-12 -72 18.5 -123.5t90.5 -62.5z" />
    <glyph glyph-name="dieresis" unicode="&#xa8;" 
d="M494 1315q-69 0 -103 39t-24 108q11 68 58 108t116 40t103.5 -40t23.5 -108q-10 -68 -57 -107.5t-117 -39.5zM975 1315q-69 0 -103 39t-24 108q11 68 58 108t116 40t103 -40.5t22 -107.5q-9 -68 -55.5 -107.5t-116.5 -39.5z" />
    <glyph glyph-name="copyright" unicode="&#xa9;" 
d="M559 225q-234 0 -356 135t-88 357l49 307q35 221 200 356.5t400 135.5t357 -135.5t87 -356.5l-49 -307q-34 -221 -199.5 -356.5t-400.5 -135.5zM575 328q184 0 314 107t158 282l49 307q28 175 -68 282t-280 107q-183 0 -313.5 -107.5t-158.5 -281.5l-49 -307
q-28 -175 68.5 -282t279.5 -107zM614 502q-121 0 -183.5 67.5t-45.5 180.5l39 241q19 113 102.5 180.5t204.5 67.5q120 0 182 -68t45 -180h-157q7 51 -17.5 81t-74.5 30t-85 -30t-42 -81l-39 -241q-8 -51 17.5 -81t76.5 -30q48 0 83 30.5t42 80.5h158q-19 -112 -102.5 -180
t-203.5 -68z" />
    <glyph glyph-name="ordfeminine" unicode="&#xaa;" 
d="M774 1516q113 0 172.5 -50t46.5 -135l-63 -399h-133l18 112h-6q-30 -58 -85 -90t-120 -32q-91 0 -138.5 49t-35.5 129t82 128t174 48h160l8 55q6 36 -19.5 57t-76.5 21q-45 0 -78.5 -17t-40.5 -46h-137q25 78 98.5 124t173.5 46zM823 1137l8 45h-161q-40 0 -67.5 -21
t-33.5 -59q-6 -37 19 -59.5t71 -22.5q66 0 110.5 31.5t53.5 85.5z" />
    <glyph glyph-name="guillemotleft" unicode="&#xab;" 
d="M600 82h-268l-289 491l446 492h285l-461 -502zM1098 82h-269l-288 491l446 492h285l-461 -502z" />
    <glyph glyph-name="logicalnot" unicode="&#xac;" 
d="M1057 383h-252l43 272h-690l37 236h942z" />
    <glyph glyph-name="uni00AD" unicode="&#xad;" 
d="M958 557h-692l39 238h690z" />
    <glyph glyph-name="registered" unicode="&#xae;" 
d="M764 1516q235 0 357 -135.5t87 -356.5l-49 -307q-35 -221 -200 -356.5t-400 -135.5t-357 135.5t-87 356.5l49 307q35 221 200 356.5t400 135.5zM1047 717l49 307q28 175 -68 282t-280 107q-183 0 -313.5 -107.5t-158.5 -281.5l-49 -307q-28 -175 68.5 -282t279.5 -107
q184 0 314 107t158 282zM481 1229h246q114 0 173 -60.5t44 -160.5q-24 -139 -153 -191l88 -305h-152l-74 281h-94l-43 -281h-147zM795 1014q9 46 -14.5 73t-71.5 27h-99l-32 -201h100q46 0 78.5 28t38.5 73z" />
    <glyph glyph-name="macron" unicode="&#xaf;" 
d="M1092 1354h-705l31 196h702z" />
    <glyph glyph-name="degree" unicode="&#xb0;" 
d="M670 922q-138 0 -210 82t-50 215q22 134 119 215.5t235 81.5t210 -82t50 -215q-22 -134 -119 -215.5t-235 -81.5zM688 1042q75 0 129 49.5t66 127.5q13 79 -25 127.5t-115 48.5q-74 0 -127 -48.5t-65 -127.5q-12 -78 26 -127.5t111 -49.5z" />
    <glyph glyph-name="plusminus" unicode="&#xb1;" 
d="M1001 0h-954l31 193h356l58 370h-365l35 236h366l60 368h254l-60 -368h367l-37 -236h-364l-60 -370h344z" />
    <glyph glyph-name="uni00B2" unicode="&#xb2;" 
d="M989 829h-624l32 191l383 244q44 28 75 70.5t38 88.5q11 66 -22 106t-97 40q-66 0 -111.5 -40t-56.5 -106h-172q23 135 122.5 216t240.5 81q145 0 218.5 -80t51.5 -215q-28 -172 -217 -286l-262 -156h424z" />
    <glyph glyph-name="uni00B3" unicode="&#xb3;" 
d="M502 1700h520l-27 -172l-188 -158q99 -19 147 -89.5t31 -176.5q-22 -136 -120.5 -215.5t-243.5 -79.5q-147 0 -223 79.5t-54 213.5h172q-10 -67 24.5 -104t104.5 -37q67 0 110.5 37.5t55.5 105.5q9 68 -23 106.5t-98 38.5h-61l22 135l191 162h-365z" />
    <glyph glyph-name="acute" unicode="&#xb4;" 
d="M817 1321h-268l260 287h287z" />
    <glyph glyph-name="uni00B5" unicode="&#xb5;" 
d="M801 422l110 704h256l-178 -1126h-254l41 215h-6q-28 -113 -90.5 -174t-155.5 -61q-184 0 -168 235h-2l-37 -268l-51 -316h-256l238 1495h256l-111 -704q-17 -104 27 -162.5t141 -58.5q95 0 159 58.5t81 162.5z" />
    <glyph glyph-name="paragraph" unicode="&#xb6;" 
d="M555 -369h-201l160 1004q-175 0 -267 95.5t-67 252.5l27 164q25 157 147 252.5t297 95.5h201zM915 -369h-200l297 1864h200z" />
    <glyph glyph-name="periodcentered" unicode="&#xb7;" 
d="M317 522q-87 0 -130 51.5t-31 139.5q13 89 73.5 140.5t149.5 51.5q88 0 130.5 -51.5t29.5 -140.5q-12 -87 -73 -139t-149 -52z" />
    <glyph glyph-name="cedilla" unicode="&#xb8;" 
d="M446 -442h-204l20 131h156q46 0 81 23t38 50q8 44 -49 70.5t-164 26.5l102 182h135l-59 -117q46 -4 89.5 -17t81.5 -35t57.5 -57t12.5 -77q-11 -74 -95 -127t-202 -53z" />
    <glyph glyph-name="uni00B9" unicode="&#xb9;" 
d="M1001 829h-655l25 156h272l88 561l-280 -180l28 184l223 150h226l-113 -715h211z" />
    <glyph glyph-name="ordmasculine" unicode="&#xba;" 
d="M670 918q-116 0 -177.5 65.5t-46.5 167.5l21 127q17 105 98.5 169t198.5 64t178.5 -64.5t44.5 -168.5l-22 -127q-15 -102 -97 -167.5t-198 -65.5zM688 1034q54 0 93 32.5t46 84.5l21 127q7 52 -21 83.5t-82 31.5q-56 0 -94 -31.5t-45 -83.5l-20 -127q-8 -53 19.5 -85
t82.5 -32z" />
    <glyph glyph-name="guillemotright" unicode="&#xbb;" 
d="M242 82h-285l457 506l-283 477h268l289 -492zM739 82h-284l456 506l-282 477h268l289 -492z" />
    <glyph glyph-name="onequarter" unicode="&#xbc;" 
d="M702 961l353 534h162l-986 -1495h-161l544 827h-503l20 134h238l67 425q-36 -46 -88 -83l-143 -103l28 178l168 115h211l-84 -532h174zM721 258h188l25 166h160l-68 -424h-158l21 131h-346l28 188l314 347h176l-334 -375z" />
    <glyph glyph-name="onehalf" unicode="&#xbd;" 
d="M705 963l350 532h162l-986 -1495h-161l546 829h-505l20 134h238l67 426q-38 -48 -88 -84l-141 -103l26 176l170 117h209l-84 -532h177zM928 676q118 0 181 -60.5t48 -158.5q-21 -134 -227 -236l-160 -82l-4 -20q72 14 137 14h213l-20 -133h-547l24 162l299 153
q113 60 125 131q7 47 -17.5 75t-72.5 28q-51 0 -87 -30t-42 -77h-160q19 104 104.5 169t205.5 65z" />
    <glyph glyph-name="threequarters" unicode="&#xbe;" 
d="M70 0l985 1495h162l-986 -1495h-161zM356 819q-124 0 -189 59t-50 156h157q-6 -40 21.5 -64t79.5 -24q51 0 86.5 25.5t42.5 68.5q6 43 -20.5 69t-75.5 26h-62l23 127l159 112h-309l21 121h462l-18 -121l-184 -127q87 -12 131 -68t31 -139q-15 -99 -99.5 -160t-206.5 -61z
M721 258h188l25 166h160l-68 -424h-158l21 131h-346l28 188l314 347h176l-334 -375z" />
    <glyph glyph-name="questiondown" unicode="&#xbf;" 
d="M795 866h-54q-66 0 -100 38t-25 100q10 61 56 97t112 36h52q66 0 100 -36.5t25 -96.5q-11 -62 -56.5 -100t-109.5 -38zM831 -348h-292q-226 0 -342.5 117.5t-85.5 312.5q31 183 162 297.5t317 118.5l28 184h226l-60 -410h-161q-105 0 -173 -50.5t-81 -139.5
q-15 -89 37.5 -140t158.5 -51h303z" />
    <glyph glyph-name="Agrave" unicode="&#xc0;" 
d="M940 1659h-252l-192 287h270zM252 0h-270l614 1495h330l141 -1495h-254l-25 362h-397zM627 975l-158 -404h305l-26 402q-17 226 -17 299q-49 -149 -104 -297z" />
    <glyph glyph-name="Aacute" unicode="&#xc1;" 
d="M895 1659h-268l260 287h287zM252 0h-270l614 1495h330l141 -1495h-254l-25 362h-397zM627 975l-158 -404h305l-26 402q-17 226 -17 299q-49 -149 -104 -297z" />
    <glyph glyph-name="Acircumflex" unicode="&#xc2;" 
d="M641 1659h-254l326 287h237l236 -287h-240l-133 149zM252 0h-270l614 1495h330l141 -1495h-254l-25 362h-397zM627 975l-158 -404h305l-26 402q-17 226 -17 299q-49 -149 -104 -297z" />
    <glyph glyph-name="Atilde" unicode="&#xc3;" 
d="M930 1651q-47 0 -83 13.5t-56.5 32.5t-37.5 38.5t-36.5 33t-42.5 13.5q-28 0 -48 -18t-24 -50l-10 -53h-156l10 68q15 100 82.5 162.5t161.5 62.5q47 0 83 -13.5t56.5 -33t37.5 -38.5t36.5 -32.5t42.5 -13.5q60 0 72 63l8 58h158l-10 -68q-15 -100 -82.5 -162.5
t-161.5 -62.5zM252 0h-270l614 1495h330l141 -1495h-254l-25 362h-397zM627 975l-158 -404h305l-26 402q-17 226 -17 299q-49 -149 -104 -297z" />
    <glyph glyph-name="Adieresis" unicode="&#xc4;" 
d="M545 1655q-67 0 -101.5 39.5t-25.5 107.5q12 69 59.5 109.5t116.5 40.5t103 -40.5t22 -109.5q-10 -67 -57.5 -107t-116.5 -40zM1026 1655q-69 0 -103.5 39.5t-23.5 107.5q12 69 59.5 109.5t116.5 40.5q68 0 101.5 -40.5t23.5 -109.5q-10 -67 -57.5 -107t-116.5 -40z
M252 0h-270l614 1495h330l141 -1495h-254l-25 362h-397zM627 975l-158 -404h305l-26 402q-17 226 -17 299q-49 -149 -104 -297z" />
    <glyph glyph-name="Aring" unicode="&#xc5;" 
d="M770 1552q-121 0 -184.5 68.5t-46.5 181.5q19 113 103.5 181.5t205.5 68.5t184.5 -68.5t46.5 -181.5q-17 -112 -102 -181t-207 -69zM791 1681q55 0 94 33.5t47 87.5q9 54 -20 87.5t-85 33.5q-55 0 -93.5 -33.5t-47.5 -87.5q-8 -54 21 -87.5t84 -33.5zM252 0h-270
l614 1495h330l141 -1495h-254l-25 362h-397zM627 975l-158 -404h305l-26 402q-17 226 -17 299q-49 -149 -104 -297z" />
    <glyph glyph-name="AE" unicode="&#xc6;" 
d="M184 0h-250l527 1495h866l-35 -219h-352l-61 -397h299l-37 -226h-299l-70 -432h352l-34 -221h-574l57 371h-266zM612 1276l-241 -717h233l113 717h-105z" />
    <glyph glyph-name="Ccedilla" unicode="&#xc7;" 
d="M1176 1073h-256q19 105 -30 161t-153 56q-105 0 -171 -55.5t-83 -159.5l-104 -653q-15 -105 33 -161t153 -56q103 0 169 56t83 161h256q-32 -196 -175.5 -316t-350.5 -126l-29 -56q102 -9 178 -57t64 -129q-11 -74 -95.5 -127t-203.5 -53h-203l21 131h155q46 0 81 23
t38 50q8 44 -49 70.5t-164 26.5l72 131q-161 31 -239 145.5t-50 286.5l102 651q32 202 181 322.5t366 120.5q215 0 325.5 -121t78.5 -322z" />
    <glyph glyph-name="Egrave" unicode="&#xc8;" 
d="M981 1659h-252l-192 287h270zM987 0h-897l238 1495h897l-37 -223h-643l-64 -389h574l-35 -221h-574l-69 -439h645z" />
    <glyph glyph-name="Eacute" unicode="&#xc9;" 
d="M936 1659h-268l260 287h286zM987 0h-897l238 1495h897l-37 -223h-643l-64 -389h574l-35 -221h-574l-69 -439h645z" />
    <glyph glyph-name="Ecircumflex" unicode="&#xca;" 
d="M682 1659h-254l326 287h237l236 -287h-240l-133 149zM987 0h-897l238 1495h897l-37 -223h-643l-64 -389h574l-35 -221h-574l-69 -439h645z" />
    <glyph glyph-name="Edieresis" unicode="&#xcb;" 
d="M586 1655q-67 0 -101.5 39.5t-25.5 107.5q12 69 59.5 109.5t116.5 40.5t103 -40.5t22 -109.5q-10 -67 -57.5 -107t-116.5 -40zM1067 1655q-69 0 -103.5 39.5t-23.5 107.5q12 69 59.5 109.5t116.5 40.5q68 0 101.5 -40.5t23.5 -109.5q-10 -67 -57.5 -107t-116.5 -40z
M987 0h-897l238 1495h897l-37 -223h-643l-64 -389h574l-35 -221h-574l-69 -439h645z" />
    <glyph glyph-name="Igrave" unicode="&#xcc;" 
d="M940 1659h-252l-192 287h270zM954 0h-860l37 225h301l164 1045h-299l35 225h860l-37 -225h-301l-164 -1045h299z" />
    <glyph glyph-name="Iacute" unicode="&#xcd;" 
d="M895 1659h-268l260 287h287zM954 0h-860l37 225h301l164 1045h-299l35 225h860l-37 -225h-301l-164 -1045h299z" />
    <glyph glyph-name="Icircumflex" unicode="&#xce;" 
d="M641 1659h-254l326 287h237l236 -287h-240l-133 149zM954 0h-860l37 225h301l164 1045h-299l35 225h860l-37 -225h-301l-164 -1045h299z" />
    <glyph glyph-name="Idieresis" unicode="&#xcf;" 
d="M545 1655q-67 0 -101.5 39.5t-25.5 107.5q12 69 59.5 109.5t116.5 40.5t103 -40.5t22 -109.5q-10 -67 -57.5 -107t-116.5 -40zM1026 1655q-69 0 -103.5 39.5t-23.5 107.5q12 69 59.5 109.5t116.5 40.5q68 0 101.5 -40.5t23.5 -109.5q-10 -67 -57.5 -107t-116.5 -40z
M954 0h-860l37 225h301l164 1045h-299l35 225h860l-37 -225h-301l-164 -1045h299z" />
    <glyph glyph-name="Eth" unicode="&#xd0;" 
d="M301 1495h444q226 0 342 -127.5t82 -339.5l-88 -559q-34 -212 -190.5 -340.5t-382.5 -128.5h-445l107 674h-150v178h179zM823 469l90 559q17 106 -39.5 169t-166.5 63h-189l-63 -408h139v-178h-168l-70 -438h189q112 0 186.5 62.5t91.5 170.5z" />
    <glyph glyph-name="Ntilde" unicode="&#xd1;" 
d="M930 1651q-47 0 -83 13.5t-56.5 32.5t-37.5 38.5t-36.5 33t-42.5 13.5q-28 0 -48 -18t-24 -50l-10 -53h-156l10 68q15 100 82.5 162.5t161.5 62.5q47 0 83 -13.5t56.5 -33t37.5 -38.5t36.5 -32.5t42.5 -13.5q60 0 72 63l8 58h158l-10 -68q-15 -100 -82.5 -162.5
t-161.5 -62.5zM291 0h-234l238 1495h309l227 -1208q18 286 52 499l112 709h234l-238 -1495h-309l-225 1208q-20 -292 -49 -477z" />
    <glyph glyph-name="Ograve" unicode="&#xd2;" 
d="M940 1659h-252l-192 287h270zM520 -20q-215 0 -322 119.5t-75 322.5l102 651q32 203 178 323t361 120t322 -120t75 -321l-102 -653q-32 -203 -178 -322.5t-361 -119.5zM557 205q103 0 166 55.5t80 161.5l102 651q17 106 -27.5 161.5t-148.5 55.5t-167.5 -55.5
t-78.5 -161.5l-104 -651q-15 -106 29.5 -161.5t148.5 -55.5z" />
    <glyph glyph-name="Oacute" unicode="&#xd3;" 
d="M895 1659h-268l260 287h287zM520 -20q-215 0 -322 119.5t-75 322.5l102 651q32 203 178 323t361 120t322 -120t75 -321l-102 -653q-32 -203 -178 -322.5t-361 -119.5zM557 205q103 0 166 55.5t80 161.5l102 651q17 106 -27.5 161.5t-148.5 55.5t-167.5 -55.5
t-78.5 -161.5l-104 -651q-15 -106 29.5 -161.5t148.5 -55.5z" />
    <glyph glyph-name="Ocircumflex" unicode="&#xd4;" 
d="M641 1659h-254l326 287h237l236 -287h-240l-133 149zM520 -20q-215 0 -322 119.5t-75 322.5l102 651q32 203 178 323t361 120t322 -120t75 -321l-102 -653q-32 -203 -178 -322.5t-361 -119.5zM557 205q103 0 166 55.5t80 161.5l102 651q17 106 -27.5 161.5t-148.5 55.5
t-167.5 -55.5t-78.5 -161.5l-104 -651q-15 -106 29.5 -161.5t148.5 -55.5z" />
    <glyph glyph-name="Otilde" unicode="&#xd5;" 
d="M930 1651q-47 0 -83 13.5t-56.5 32.5t-37.5 38.5t-36.5 33t-42.5 13.5q-28 0 -48 -18t-24 -50l-10 -53h-156l10 68q15 100 82.5 162.5t161.5 62.5q47 0 83 -13.5t56.5 -33t37.5 -38.5t36.5 -32.5t42.5 -13.5q60 0 72 63l8 58h158l-10 -68q-15 -100 -82.5 -162.5
t-161.5 -62.5zM520 -20q-215 0 -322 119.5t-75 322.5l102 651q32 203 178 323t361 120t322 -120t75 -321l-102 -653q-32 -203 -178 -322.5t-361 -119.5zM557 205q103 0 166 55.5t80 161.5l102 651q17 106 -27.5 161.5t-148.5 55.5t-167.5 -55.5t-78.5 -161.5l-104 -651
q-15 -106 29.5 -161.5t148.5 -55.5z" />
    <glyph glyph-name="Odieresis" unicode="&#xd6;" 
d="M545 1655q-67 0 -101.5 39.5t-25.5 107.5q12 69 59.5 109.5t116.5 40.5t103 -40.5t22 -109.5q-10 -67 -57.5 -107t-116.5 -40zM1026 1655q-69 0 -103.5 39.5t-23.5 107.5q12 69 59.5 109.5t116.5 40.5q68 0 101.5 -40.5t23.5 -109.5q-10 -67 -57.5 -107t-116.5 -40z
M520 -20q-215 0 -322 119.5t-75 322.5l102 651q32 203 178 323t361 120t322 -120t75 -321l-102 -653q-32 -203 -178 -322.5t-361 -119.5zM557 205q103 0 166 55.5t80 161.5l102 651q17 106 -27.5 161.5t-148.5 55.5t-167.5 -55.5t-78.5 -161.5l-104 -651
q-15 -106 29.5 -161.5t148.5 -55.5z" />
    <glyph glyph-name="multiply" unicode="&#xd7;" 
d="M604 502l-305 -266l-145 170l305 262l-219 266l188 164l223 -264l310 268l143 -172l-309 -264l221 -267l-189 -163z" />
    <glyph glyph-name="Oslash" unicode="&#xd8;" 
d="M1120 1536h215l-184 -254q28 -91 10 -207l-102 -653q-32 -203 -178 -322.5t-361 -119.5q-163 0 -264 69l-96 -131h-215l196 272q-39 99 -18 232l102 651q32 203 178 323t361 120q175 0 283 -82zM477 1073l-86 -543l500 691q-44 69 -162 69q-105 0 -170 -56t-82 -161z
M809 422l78 498l-479 -662q47 -53 149 -53q105 0 170 56t82 161z" />
    <glyph glyph-name="Ugrave" unicode="&#xd9;" 
d="M940 1659h-252l-192 287h270zM520 -20q-219 0 -323 119t-70 327l168 1069h258l-170 -1067q-19 -106 26.5 -165.5t147.5 -59.5q100 0 163.5 59t82.5 166l168 1067h258l-170 -1069q-34 -208 -177 -327t-362 -119z" />
    <glyph glyph-name="Uacute" unicode="&#xda;" 
d="M895 1659h-268l260 287h287zM520 -20q-219 0 -323 119t-70 327l168 1069h258l-170 -1067q-19 -106 26.5 -165.5t147.5 -59.5q100 0 163.5 59t82.5 166l168 1067h258l-170 -1069q-34 -208 -177 -327t-362 -119z" />
    <glyph glyph-name="Ucircumflex" unicode="&#xdb;" 
d="M641 1659h-254l326 287h237l236 -287h-240l-133 149zM520 -20q-219 0 -323 119t-70 327l168 1069h258l-170 -1067q-19 -106 26.5 -165.5t147.5 -59.5q100 0 163.5 59t82.5 166l168 1067h258l-170 -1069q-34 -208 -177 -327t-362 -119z" />
    <glyph glyph-name="Udieresis" unicode="&#xdc;" 
d="M545 1655q-67 0 -101.5 39.5t-25.5 107.5q12 69 59.5 109.5t116.5 40.5t103 -40.5t22 -109.5q-10 -67 -57.5 -107t-116.5 -40zM1026 1655q-69 0 -103.5 39.5t-23.5 107.5q12 69 59.5 109.5t116.5 40.5q68 0 101.5 -40.5t23.5 -109.5q-10 -67 -57.5 -107t-116.5 -40z
M520 -20q-219 0 -323 119t-70 327l168 1069h258l-170 -1067q-19 -106 26.5 -165.5t147.5 -59.5q100 0 163.5 59t82.5 166l168 1067h258l-170 -1069q-34 -208 -177 -327t-362 -119z" />
    <glyph glyph-name="Yacute" unicode="&#xdd;" 
d="M895 1659h-268l260 287h287zM653 0h-258l86 543l-286 952h262l149 -518q35 -124 39 -213q41 110 100 213l312 518h272l-592 -952z" />
    <glyph glyph-name="Thorn" unicode="&#xde;" 
d="M326 0h-256l237 1495h256l-45 -289h273q213 0 318.5 -115t74.5 -313t-173 -313t-356 -115h-272zM481 987l-65 -418h243q111 0 180.5 55t84.5 154q17 99 -35.5 154t-161.5 55h-246z" />
    <glyph glyph-name="germandbls" unicode="&#xdf;" 
d="M1182 1124q-20 -126 -99 -211t-202 -116q124 -34 182.5 -131.5t36.5 -237.5q-31 -191 -182 -309.5t-367 -118.5h-119l37 219h102q108 0 180 61t89 164t-36.5 162.5t-162.5 59.5h-92l31 198h90q96 0 162 57.5t81 153.5q15 103 -35 162t-153 59q-101 0 -170 -60.5
t-86 -164.5l-170 -1071q-28 -171 -156.5 -270t-324.5 -99h-88l34 213h82q90 0 146.5 42.5t68.5 119.5l170 1065q31 201 179 323t366 122q208 0 321.5 -106.5t84.5 -285.5z" />
    <glyph glyph-name="agrave" unicode="&#xe0;" 
d="M723 1608l174 -287h-252l-192 287h270zM877 911l28 215h256l-178 -1126h-252l35 215h-4q-35 -111 -123.5 -173t-212.5 -62q-171 0 -254 116.5t-49 313.5l47 305q34 198 153 315t289 117q123 0 191.5 -63t66.5 -173h7zM793 422l45 283q17 104 -29 162.5t-143 58.5
q-99 0 -162 -58t-78 -163l-45 -283q-17 -106 27.5 -163.5t144.5 -57.5q96 0 159.5 58t80.5 163z" />
    <glyph glyph-name="aacute" unicode="&#xe1;" 
d="M844 1608h286l-278 -287h-268zM877 911l28 215h256l-178 -1126h-252l35 215h-4q-35 -111 -123.5 -173t-212.5 -62q-171 0 -254 116.5t-49 313.5l47 305q34 198 153 315t289 117q123 0 191.5 -63t66.5 -173h7zM793 422l45 283q17 104 -29 162.5t-143 58.5q-99 0 -162 -58
t-78 -163l-45 -283q-17 -106 27.5 -163.5t144.5 -57.5q96 0 159.5 58t80.5 163z" />
    <glyph glyph-name="acircumflex" unicode="&#xe2;" 
d="M903 1321l-133 149l-172 -149h-254l326 287h237l236 -287h-240zM877 911l28 215h256l-178 -1126h-252l35 215h-4q-35 -111 -123.5 -173t-212.5 -62q-171 0 -254 116.5t-49 313.5l47 305q34 198 153 315t289 117q123 0 191.5 -63t66.5 -173h7zM793 422l45 283
q17 104 -29 162.5t-143 58.5q-99 0 -162 -58t-78 -163l-45 -283q-17 -106 27.5 -163.5t144.5 -57.5q96 0 159.5 58t80.5 163z" />
    <glyph glyph-name="atilde" unicode="&#xe3;" 
d="M557 1376l-8 -53h-156l10 68q15 100 82.5 162.5t161.5 62.5q47 0 82.5 -13.5t56 -33t37 -38.5t36 -32.5t42.5 -13.5q28 0 48 16.5t26 46.5l8 58h158l-11 -68q-17 -101 -83.5 -163t-159.5 -62q-47 0 -83 13.5t-56.5 32.5t-37.5 38.5t-36.5 33t-42.5 13.5q-28 0 -48 -18
t-26 -50zM877 911l28 215h256l-178 -1126h-252l35 215h-4q-35 -111 -123.5 -173t-212.5 -62q-171 0 -254 116.5t-49 313.5l47 305q34 198 153 315t289 117q123 0 191.5 -63t66.5 -173h7zM793 422l45 283q17 104 -29 162.5t-143 58.5q-99 0 -162 -58t-78 -163l-45 -283
q-17 -106 27.5 -163.5t144.5 -57.5q96 0 159.5 58t80.5 163z" />
    <glyph glyph-name="adieresis" unicode="&#xe4;" 
d="M502 1315q-69 0 -103 39t-24 108q11 68 58 108t116 40t103.5 -40t23.5 -108q-10 -68 -57 -107.5t-117 -39.5zM983 1315q-69 0 -103 39t-24 108q11 68 58 108t116 40t103 -40.5t22 -107.5q-9 -68 -55.5 -107.5t-116.5 -39.5zM877 911l28 215h256l-178 -1126h-252l35 215
h-4q-35 -111 -123.5 -173t-212.5 -62q-171 0 -254 116.5t-49 313.5l47 305q34 198 153 315t289 117q123 0 191.5 -63t66.5 -173h7zM793 422l45 283q17 104 -29 162.5t-143 58.5q-99 0 -162 -58t-78 -163l-45 -283q-17 -106 27.5 -163.5t144.5 -57.5q96 0 159.5 58t80.5 163z
" />
    <glyph glyph-name="aring" unicode="&#xe5;" 
d="M731 1235q-121 0 -184.5 68.5t-46.5 179.5q19 113 103.5 181.5t205.5 68.5t184.5 -68.5t46.5 -181.5q-17 -111 -102.5 -179.5t-206.5 -68.5zM647 1483q-8 -54 21 -86.5t84 -32.5q56 0 95 32.5t46 86.5q7 55 -21 88t-84 33t-95 -33t-46 -88zM877 911l28 215h256
l-178 -1126h-252l35 215h-4q-35 -111 -123.5 -173t-212.5 -62q-171 0 -254 116.5t-49 313.5l47 305q34 198 153 315t289 117q123 0 191.5 -63t66.5 -173h7zM793 422l45 283q17 104 -29 162.5t-143 58.5q-99 0 -162 -58t-78 -163l-45 -283q-17 -106 27.5 -163.5t144.5 -57.5
q96 0 159.5 58t80.5 163z" />
    <glyph glyph-name="ae" unicode="&#xe6;" 
d="M256 -20q-126 0 -188.5 82t-40.5 217l16 110q20 128 122 205.5t251 77.5h112l27 157q21 136 -88 136q-52 0 -87 -34.5t-46 -94.5h-209q22 140 115 225.5t223 85.5q107 0 160 -48.5t55 -109.5h12q18 60 86.5 109t175.5 49q135 0 202 -85.5t44 -230.5l-49 -315h-438
l-35 -221q-9 -61 16 -97t76 -36q54 0 89 31t44 86h211q-22 -135 -117 -217t-229 -82q-107 0 -159 48t-52 109h-14q-20 -60 -94.5 -108.5t-190.5 -48.5zM760 831l-25 -159h228l26 159q9 62 -15.5 98t-78.5 36q-53 0 -88.5 -36t-46.5 -98zM336 162q52 0 88 35.5t47 97.5
l35 221h-113q-54 0 -90 -33.5t-45 -93.5l-18 -110q-9 -55 16.5 -86t79.5 -31z" />
    <glyph glyph-name="ccedilla" unicode="&#xe7;" 
d="M1122 739h-256q7 87 -42.5 136t-145.5 49q-105 0 -171 -56.5t-81 -160.5l-47 -285q-15 -106 32.5 -162.5t151.5 -56.5q97 0 161.5 48t84.5 136h258q-38 -187 -180 -295.5t-350 -111.5l-29 -56q47 -4 90.5 -17t81.5 -35t58 -57t14 -77q-12 -74 -96.5 -127t-202.5 -53h-205
l20 131h156q47 0 81.5 22.5t37.5 50.5q8 43 -48.5 70t-162.5 27l74 133q-159 31 -235 145t-48 285l45 283q32 202 180 322t365 120q212 0 321.5 -109.5t87.5 -298.5z" />
    <glyph glyph-name="egrave" unicode="&#xe8;" 
d="M713 1608l174 -287h-252l-193 287h271zM709 1147q213 0 320 -121t75 -321l-33 -203h-688l-14 -80q-38 -240 188 -240q173 0 221 117h254q-53 -145 -191.5 -232t-318.5 -87q-214 0 -322 120.5t-77 321.5l45 283q32 200 179.5 321t361.5 121zM414 705l-6 -43l444 4l6 41
q19 118 -27 179.5t-155 61.5q-111 0 -177 -62.5t-85 -180.5z" />
    <glyph glyph-name="eacute" unicode="&#xe9;" 
d="M834 1608h286l-278 -287h-269zM709 1147q213 0 320 -121t75 -321l-33 -203h-688l-14 -80q-38 -240 188 -240q173 0 221 117h254q-53 -145 -191.5 -232t-318.5 -87q-214 0 -322 120.5t-77 321.5l45 283q32 200 179.5 321t361.5 121zM414 705l-6 -43l444 4l6 41
q19 118 -27 179.5t-155 61.5q-111 0 -177 -62.5t-85 -180.5z" />
    <glyph glyph-name="ecircumflex" unicode="&#xea;" 
d="M893 1321l-133 149l-172 -149h-254l325 287h238l236 -287h-240zM709 1147q213 0 320 -121t75 -321l-33 -203h-688l-14 -80q-38 -240 188 -240q173 0 221 117h254q-53 -145 -191.5 -232t-318.5 -87q-214 0 -322 120.5t-77 321.5l45 283q32 200 179.5 321t361.5 121z
M414 705l-6 -43l444 4l6 41q19 118 -27 179.5t-155 61.5q-111 0 -177 -62.5t-85 -180.5z" />
    <glyph glyph-name="edieresis" unicode="&#xeb;" 
d="M492 1315q-69 0 -103 39t-24 108q11 68 58 108t116 40t103.5 -40t23.5 -108q-10 -68 -57 -107.5t-117 -39.5zM1020 1610q69 0 103 -40.5t22 -107.5q-9 -68 -55.5 -107.5t-116.5 -39.5q-69 0 -103 39t-24 108q11 68 58 108t116 40zM709 1147q213 0 320 -121t75 -321
l-33 -203h-688l-14 -80q-38 -240 188 -240q173 0 221 117h254q-53 -145 -191.5 -232t-318.5 -87q-214 0 -322 120.5t-77 321.5l45 283q32 200 179.5 321t361.5 121zM414 705l-6 -43l444 4l6 41q19 118 -27 179.5t-155 61.5q-111 0 -177 -62.5t-85 -180.5z" />
    <glyph glyph-name="igrave" unicode="&#xec;" horiz-adv-x="1024" 
d="M807 1321h-252l-193 287h271zM858 0h-817l37 233h299l104 662h-248l37 231h492l-141 -893h274z" />
    <glyph glyph-name="iacute" unicode="&#xed;" horiz-adv-x="1024" 
d="M762 1321h-268l260 287h286zM858 0h-817l37 233h299l104 662h-248l37 231h492l-141 -893h274z" />
    <glyph glyph-name="icircumflex" unicode="&#xee;" horiz-adv-x="1024" 
d="M508 1321h-254l326 287h237l236 -287h-240l-133 149zM858 0h-817l37 233h299l104 662h-248l37 231h492l-141 -893h274z" />
    <glyph glyph-name="idieresis" unicode="&#xef;" horiz-adv-x="1024" 
d="M414 1315q-69 0 -103 39t-24 108q11 68 58 108t116 40t103.5 -40t23.5 -108q-10 -68 -57 -107.5t-117 -39.5zM895 1315q-69 0 -103 39t-24 108q11 68 58 108t116 40t103 -40.5t22 -107.5q-9 -68 -55.5 -107.5t-116.5 -39.5zM858 0h-817l37 233h299l104 662h-248l37 231
h492l-141 -893h274z" />
    <glyph glyph-name="eth" unicode="&#xf0;" 
d="M522 -8q-228 0 -346 129.5t-86 343.5q32 204 168.5 328.5t327.5 124.5q90 0 154.5 -45t88.5 -101h19q-7 55 -103 221l-92 160l-354 -131l29 197l233 88l-110 188h264l59 -104l359 129l-29 -197l-238 -86l105 -174q182 -302 137 -574q-35 -227 -195 -362t-391 -135z
M557 209q114 0 194 69.5t97 186.5q19 114 -39 184t-172 70q-112 0 -191.5 -69t-99.5 -185q-17 -117 40 -186.5t171 -69.5z" />
    <glyph glyph-name="ntilde" unicode="&#xf1;" 
d="M967 1548l8 58h158l-11 -68q-17 -101 -83.5 -163t-159.5 -62q-47 0 -83 13.5t-56.5 32.5t-37.5 38.5t-36.5 33t-42.5 13.5q-28 0 -48 -18t-26 -50l-8 -53h-156l10 68q15 100 82.5 162.5t161.5 62.5q47 0 82.5 -13.5t56 -33t37 -38.5t36 -32.5t42.5 -13.5q28 0 48 16.5
t26 46.5zM803 1147q166 0 248 -111t51 -297l-117 -739h-256l113 713q17 100 -28 156.5t-140 56.5q-96 0 -159.5 -58t-80.5 -163l-110 -705h-256l178 1126h250l-35 -215h6q34 111 122.5 173.5t213.5 62.5z" />
    <glyph glyph-name="ograve" unicode="&#xf2;" 
d="M887 1321h-252l-193 287h271zM520 -20q-215 0 -322 119.5t-75 322.5l45 283q32 203 178 322.5t361 119.5t322 -119.5t75 -320.5l-45 -285q-32 -203 -178 -322.5t-361 -119.5zM557 203q101 0 165 56.5t81 162.5l45 283q17 106 -29 162.5t-149 56.5q-101 0 -165 -56.5
t-81 -162.5l-45 -283q-17 -106 29 -162.5t149 -56.5z" />
    <glyph glyph-name="oacute" unicode="&#xf3;" 
d="M842 1321h-269l261 287h286zM520 -20q-215 0 -322 119.5t-75 322.5l45 283q32 203 178 322.5t361 119.5t322 -119.5t75 -320.5l-45 -285q-32 -203 -178 -322.5t-361 -119.5zM557 203q101 0 165 56.5t81 162.5l45 283q17 106 -29 162.5t-149 56.5q-101 0 -165 -56.5
t-81 -162.5l-45 -283q-17 -106 29 -162.5t149 -56.5z" />
    <glyph glyph-name="ocircumflex" unicode="&#xf4;" 
d="M588 1321h-254l325 287h238l236 -287h-240l-133 149zM520 -20q-215 0 -322 119.5t-75 322.5l45 283q32 203 178 322.5t361 119.5t322 -119.5t75 -320.5l-45 -285q-32 -203 -178 -322.5t-361 -119.5zM557 203q101 0 165 56.5t81 162.5l45 283q17 106 -29 162.5t-149 56.5
q-101 0 -165 -56.5t-81 -162.5l-45 -283q-17 -106 29 -162.5t149 -56.5z" />
    <glyph glyph-name="otilde" unicode="&#xf5;" 
d="M877 1313q-47 0 -83 13.5t-56.5 32.5t-37.5 38.5t-36.5 33t-42.5 13.5q-28 0 -48 -18t-26 -50l-8 -53h-156l10 68q15 100 82.5 162.5t161.5 62.5q47 0 82.5 -13.5t56 -33t37 -38.5t36 -32.5t42.5 -13.5q28 0 48 16.5t26 46.5l8 58h157l-10 -68q-17 -101 -83.5 -163
t-159.5 -62zM520 -20q-215 0 -322 119.5t-75 322.5l45 283q32 203 178 322.5t361 119.5t322 -119.5t75 -320.5l-45 -285q-32 -203 -178 -322.5t-361 -119.5zM557 203q101 0 165 56.5t81 162.5l45 283q17 106 -29 162.5t-149 56.5q-101 0 -165 -56.5t-81 -162.5l-45 -283
q-17 -106 29 -162.5t149 -56.5z" />
    <glyph glyph-name="odieresis" unicode="&#xf6;" 
d="M492 1315q-69 0 -103 39t-24 108q11 68 58 108t116 40t103.5 -40t23.5 -108q-10 -68 -57 -107.5t-117 -39.5zM973 1315q-69 0 -103 39t-24 108q11 68 58 108t116 40t103 -40.5t22 -107.5q-9 -68 -55.5 -107.5t-116.5 -39.5zM520 -20q-215 0 -322 119.5t-75 322.5l45 283
q32 203 178 322.5t361 119.5t322 -119.5t75 -320.5l-45 -285q-32 -203 -178 -322.5t-361 -119.5zM557 203q101 0 165 56.5t81 162.5l45 283q17 106 -29 162.5t-149 56.5q-101 0 -165 -56.5t-81 -162.5l-45 -283q-17 -106 29 -162.5t149 -56.5z" />
    <glyph glyph-name="divide" unicode="&#xf7;" 
d="M676 942q-86 0 -131 47.5t-33 124.5t71.5 124.5t145.5 47.5t131 -47.5t33 -124.5t-72 -124.5t-145 -47.5zM1024 563h-819l37 232h819zM537 72q-86 0 -130.5 46.5t-33.5 123.5q12 78 72 125t147 47q86 0 130 -47t32 -125q-10 -76 -70.5 -123t-146.5 -47z" />
    <glyph glyph-name="oslash" unicode="&#xf8;" 
d="M1053 1208h217l-203 -235q62 -105 37 -266l-45 -285q-32 -203 -178 -322.5t-361 -119.5q-153 0 -254 63l-90 -104h-217l195 227q-52 104 -31 256l45 283q32 203 178 322.5t361 119.5q146 0 243 -57zM408 705l-46 -283q0 -3 -1 -8.5t-1 -7.5l426 493q-48 25 -116 25
q-107 0 -176 -58t-86 -161zM819 422l45 283q1 6 2 18t2 18l-438 -508q50 -30 127 -30q107 0 176 58t86 161z" />
    <glyph glyph-name="ugrave" unicode="&#xf9;" 
d="M887 1321h-252l-193 287h271zM520 -20q-215 0 -318 119t-71 327l111 700h256l-111 -698q-17 -108 27 -166.5t141 -58.5q99 0 162 58.5t80 166.5l110 698h256l-110 -700q-32 -206 -176 -326t-357 -120z" />
    <glyph glyph-name="uacute" unicode="&#xfa;" 
d="M842 1321h-269l261 287h286zM520 -20q-215 0 -318 119t-71 327l111 700h256l-111 -698q-17 -108 27 -166.5t141 -58.5q99 0 162 58.5t80 166.5l110 698h256l-110 -700q-32 -206 -176 -326t-357 -120z" />
    <glyph glyph-name="ucircumflex" unicode="&#xfb;" 
d="M588 1321h-254l325 287h238l236 -287h-240l-133 149zM520 -20q-215 0 -318 119t-71 327l111 700h256l-111 -698q-17 -108 27 -166.5t141 -58.5q99 0 162 58.5t80 166.5l110 698h256l-110 -700q-32 -206 -176 -326t-357 -120z" />
    <glyph glyph-name="udieresis" unicode="&#xfc;" 
d="M492 1315q-69 0 -103 39t-24 108q11 68 58 108t116 40t103.5 -40t23.5 -108q-10 -68 -57 -107.5t-117 -39.5zM973 1315q-69 0 -103 39t-24 108q11 68 58 108t116 40t103 -40.5t22 -107.5q-9 -68 -55.5 -107.5t-116.5 -39.5zM520 -20q-215 0 -318 119t-71 327l111 700h256
l-111 -698q-17 -108 27 -166.5t141 -58.5q99 0 162 58.5t80 166.5l110 698h256l-110 -700q-32 -206 -176 -326t-357 -120z" />
    <glyph glyph-name="yacute" unicode="&#xfd;" 
d="M834 1608h286l-278 -287h-269zM801 524l96 602h256l-176 -1126q-28 -171 -156.5 -270t-324.5 -99h-338l32 213h334q86 0 137.5 41.5t63.5 120.5l14 88l37 223h-6q-36 -111 -123.5 -173t-212.5 -62q-166 0 -248 110.5t-53 296.5l103 637h256l-99 -610q-15 -101 30 -157
t140 -56q96 0 159.5 58t78.5 163z" />
    <glyph glyph-name="thorn" unicode="&#xfe;" 
d="M799 1147q170 0 252 -117t51 -315l-49 -305q-31 -197 -151 -313.5t-290 -116.5q-124 0 -193 62.5t-67 172.5h-4l-35 -215h-2l-57 -369h-250l76 480h2l219 1384h256l-51 -315l-51 -269h8q34 111 123 173.5t213 62.5zM799 422l45 283q17 105 -28 163t-144 58
q-97 0 -161 -58.5t-81 -162.5l-45 -283q-15 -106 30 -163.5t142 -57.5q98 0 161.5 57.5t80.5 163.5z" />
    <glyph glyph-name="ydieresis" unicode="&#xff;" 
d="M492 1315q-69 0 -103 39t-24 108q11 68 58 108t116 40t103.5 -40t23.5 -108q-10 -68 -57 -107.5t-117 -39.5zM973 1315q-69 0 -103 39t-24 108q11 68 58 108t116 40t103 -40.5t22 -107.5q-9 -68 -55.5 -107.5t-116.5 -39.5zM801 524l96 602h256l-176 -1126
q-28 -171 -156.5 -270t-324.5 -99h-338l32 213h334q86 0 137.5 41.5t63.5 120.5l14 88l37 223h-6q-36 -111 -123.5 -173t-212.5 -62q-166 0 -248 110.5t-53 296.5l103 637h256l-99 -610q-15 -101 30 -157t140 -56q96 0 159.5 58t78.5 163z" />
    <glyph glyph-name="Amacron" unicode="&#x100;" 
d="M1145 1696h-703l29 196h705zM252 0h-270l614 1495h330l141 -1495h-254l-25 362h-397zM627 975l-158 -404h305l-26 402q-17 226 -17 299q-49 -149 -104 -297z" />
    <glyph glyph-name="amacron" unicode="&#x101;" 
d="M428 1550h702l-28 -196h-705zM877 911l28 215h256l-178 -1126h-252l35 215h-4q-35 -111 -123.5 -173t-212.5 -62q-171 0 -254 116.5t-49 313.5l47 305q34 198 153 315t289 117q123 0 191.5 -63t66.5 -173h7zM793 422l45 283q17 104 -29 162.5t-143 58.5q-99 0 -162 -58
t-78 -163l-45 -283q-17 -106 27.5 -163.5t144.5 -57.5q96 0 159.5 58t80.5 163z" />
    <glyph glyph-name="Abreve" unicode="&#x102;" 
d="M784 1642q-160 0 -244.5 83.5t-64.5 220.5h197q-11 -68 26 -109t107 -41q72 0 123 41.5t61 108.5h201q-22 -137 -133.5 -220.5t-272.5 -83.5zM252 0h-270l614 1495h330l141 -1495h-254l-25 362h-397zM627 975l-158 -404h305l-26 402q-17 226 -17 299q-49 -149 -104 -297z
" />
    <glyph glyph-name="abreve" unicode="&#x103;" 
d="M741 1305q-160 0 -245.5 83.5t-65.5 219.5h197q-10 -67 27 -108.5t108 -41.5q72 0 121.5 41t60.5 109h203q-22 -137 -133.5 -220t-272.5 -83zM877 911l28 215h256l-178 -1126h-252l35 215h-4q-35 -111 -123.5 -173t-212.5 -62q-171 0 -254 116.5t-49 313.5l47 305
q34 198 153 315t289 117q123 0 191.5 -63t66.5 -173h7zM793 422l45 283q17 104 -29 162.5t-143 58.5q-99 0 -162 -58t-78 -163l-45 -283q-17 -106 27.5 -163.5t144.5 -57.5q96 0 159.5 58t80.5 163z" />
    <glyph glyph-name="Aogonek" unicode="&#x104;" 
d="M829 -178q-6 -38 17 -63t69 -25h136l-29 -176h-195q-120 0 -181 58.5t-46 152.5q19 128 213 235l-25 358h-397l-139 -362h-270l614 1495h330l141 -1495h-84l-27 -20q-117 -90 -127 -158zM627 975l-158 -404h305l-26 402q-17 226 -17 299q-49 -149 -104 -297z" />
    <glyph glyph-name="aogonek" unicode="&#x105;" 
d="M827 -178q-5 -38 18.5 -63t69.5 -25h134l-27 -176h-197q-118 0 -179 58.5t-46 152.5q15 122 203 231h-72l35 215h-4q-35 -111 -123.5 -173t-212.5 -62q-171 0 -254 116.5t-49 313.5l47 305q34 198 153 315t289 117q123 0 191.5 -63t66.5 -173h7l28 215h256l-178 -1126
q-144 -111 -156 -178zM553 201q96 0 159.5 58t80.5 163l45 283q17 104 -29 162.5t-143 58.5q-99 0 -162 -58t-78 -163l-45 -283q-17 -106 27.5 -163.5t144.5 -57.5z" />
    <glyph glyph-name="Cacute" unicode="&#x106;" 
d="M905 1659h-268l260 287h287zM528 -20q-217 0 -327 120t-78 322l102 651q32 202 181 322.5t366 120.5q215 0 325.5 -121t78.5 -322h-256q19 105 -30 161t-153 56q-105 0 -171 -55.5t-83 -159.5l-104 -653q-15 -105 33 -161t153 -56q103 0 169 56t83 161h256
q-32 -201 -181 -321.5t-364 -120.5z" />
    <glyph glyph-name="cacute" unicode="&#x107;" 
d="M848 1321h-268l260 287h286zM526 -20q-217 0 -326 120t-77 322l45 283q32 202 180 322t365 120q212 0 321.5 -109.5t87.5 -298.5h-256q7 87 -42.5 136t-145.5 49q-105 0 -171 -56.5t-81 -160.5l-47 -285q-15 -106 32.5 -162.5t151.5 -56.5q97 0 161.5 48t84.5 136h258
q-38 -189 -183.5 -298t-357.5 -109z" />
    <glyph glyph-name="Ccircumflex" unicode="&#x108;" 
d="M651 1659h-254l326 287h238l235 -287h-240l-133 149zM528 -20q-217 0 -327 120t-78 322l102 651q32 202 181 322.5t366 120.5q215 0 325.5 -121t78.5 -322h-256q19 105 -30 161t-153 56q-105 0 -171 -55.5t-83 -159.5l-104 -653q-15 -105 33 -161t153 -56q103 0 169 56
t83 161h256q-32 -201 -181 -321.5t-364 -120.5z" />
    <glyph glyph-name="ccircumflex" unicode="&#x109;" 
d="M594 1321h-254l326 287h237l236 -287h-240l-131 149zM526 -20q-217 0 -326 120t-77 322l45 283q32 202 180 322t365 120q212 0 321.5 -109.5t87.5 -298.5h-256q7 87 -42.5 136t-145.5 49q-105 0 -171 -56.5t-81 -160.5l-47 -285q-15 -106 32.5 -162.5t151.5 -56.5
q97 0 161.5 48t84.5 136h258q-38 -189 -183.5 -298t-357.5 -109z" />
    <glyph glyph-name="Cdotaccent" unicode="&#x10a;" 
d="M797 1655q-78 0 -117.5 39.5t-28.5 107.5q10 67 63 107.5t130 40.5q78 0 116.5 -40t26.5 -108q-9 -67 -61 -107t-129 -40zM528 -20q-217 0 -327 120t-78 322l102 651q32 202 181 322.5t366 120.5q215 0 325.5 -121t78.5 -322h-256q19 105 -30 161t-153 56
q-105 0 -171 -55.5t-83 -159.5l-104 -653q-15 -105 33 -161t153 -56q103 0 169 56t83 161h256q-32 -201 -181 -321.5t-364 -120.5z" />
    <glyph glyph-name="cdotaccent" unicode="&#x10b;" 
d="M739 1315q-77 0 -115.5 39t-29.5 108q10 67 62.5 107.5t129.5 40.5q78 0 117.5 -40t28.5 -108q-10 -69 -62 -108t-131 -39zM526 -20q-217 0 -326 120t-77 322l45 283q32 202 180 322t365 120q212 0 321.5 -109.5t87.5 -298.5h-256q7 87 -42.5 136t-145.5 49
q-105 0 -171 -56.5t-81 -160.5l-47 -285q-15 -106 32.5 -162.5t151.5 -56.5q97 0 161.5 48t84.5 136h258q-38 -189 -183.5 -298t-357.5 -109z" />
    <glyph glyph-name="Ccaron" unicode="&#x10c;" 
d="M915 1659h-237l-236 287h240l133 -150l172 150h254zM528 -20q-217 0 -327 120t-78 322l102 651q32 202 181 322.5t366 120.5q215 0 325.5 -121t78.5 -322h-256q19 105 -30 161t-153 56q-105 0 -171 -55.5t-83 -159.5l-104 -653q-15 -105 33 -161t153 -56q103 0 169 56
t83 161h256q-32 -201 -181 -321.5t-364 -120.5z" />
    <glyph glyph-name="ccaron" unicode="&#x10d;" 
d="M860 1321h-237l-236 287h240l133 -150l172 150h254zM526 -20q-217 0 -326 120t-77 322l45 283q32 202 180 322t365 120q212 0 321.5 -109.5t87.5 -298.5h-256q7 87 -42.5 136t-145.5 49q-105 0 -171 -56.5t-81 -160.5l-47 -285q-15 -106 32.5 -162.5t151.5 -56.5
q97 0 161.5 48t84.5 136h258q-38 -189 -183.5 -298t-357.5 -109z" />
    <glyph glyph-name="Dcaron" unicode="&#x10e;" 
d="M905 1659h-237l-236 287h240l133 -150l172 150h254zM508 0h-445l238 1495h444q226 0 342 -127.5t82 -339.5l-88 -559q-34 -212 -190.5 -340.5t-382.5 -128.5zM518 1260l-162 -1024h189q112 0 186.5 62.5t91.5 170.5l90 559q17 106 -39.5 169t-166.5 63h-189z" />
    <glyph glyph-name="dcaron" unicode="&#x10f;" 
d="M758 911l35 269l51 315h243l-237 -1495h-238l35 215h-4q-32 -109 -112.5 -172t-188.5 -63q-154 0 -225.5 112.5t-40.5 306.5l51 328q31 193 139 306.5t262 113.5q108 0 168 -63t58 -173h4zM1126 1126l60 369h209l-80 -369h-189zM672 412l49 305q15 103 -20.5 161
t-114.5 58q-86 0 -143 -58t-74 -161l-50 -305q-15 -105 23.5 -163.5t124.5 -58.5q79 0 133.5 59t71.5 163z" />
    <glyph glyph-name="Dcroat" unicode="&#x110;" 
d="M301 1495h444q226 0 342 -127.5t82 -339.5l-88 -559q-34 -212 -190.5 -340.5t-382.5 -128.5h-445l107 674h-150l29 178h150zM823 469l90 559q17 106 -39.5 169t-166.5 63h-189l-63 -408h168l-29 -178h-168l-70 -438h189q112 0 186.5 62.5t91.5 170.5z" />
    <glyph glyph-name="dcroat" unicode="&#x111;" 
d="M123 410l29 182q32 198 150 315t288 117q124 0 193 -62.5t67 -173.5h6l35 269l14 92h-313l26 172h314l29 174h256l-29 -174h160l-27 -172h-160l-182 -1149h-250l35 215h-4q-35 -112 -123 -173.5t-213 -61.5q-169 0 -250.5 116t-50.5 314zM406 582l-25 -160
q-17 -106 27.5 -163.5t142.5 -57.5q97 0 160 57.5t80 163.5l24 160q17 104 -27 162.5t-141 58.5q-99 0 -161.5 -57.5t-79.5 -163.5z" />
    <glyph glyph-name="Emacron" unicode="&#x112;" 
d="M1186 1696h-703l29 196h705zM987 0h-897l238 1495h897l-37 -223h-643l-64 -389h574l-35 -221h-574l-69 -439h645z" />
    <glyph glyph-name="emacron" unicode="&#x113;" 
d="M418 1550h702l-28 -196h-705zM709 1147q213 0 320 -121t75 -321l-33 -203h-688l-14 -80q-38 -240 188 -240q173 0 221 117h254q-53 -145 -191.5 -232t-318.5 -87q-214 0 -322 120.5t-77 321.5l45 283q32 200 179.5 321t361.5 121zM414 705l-6 -43l444 4l6 41
q19 118 -27 179.5t-155 61.5q-111 0 -177 -62.5t-85 -180.5z" />
    <glyph glyph-name="Ebreve" unicode="&#x114;" 
d="M825 1642q-160 0 -245.5 84t-63.5 220h195q-10 -67 27 -108.5t108 -41.5q72 0 121.5 41t60.5 109h203q-22 -137 -133.5 -220.5t-272.5 -83.5zM987 0h-897l238 1495h897l-37 -223h-643l-64 -389h574l-35 -221h-574l-69 -439h645z" />
    <glyph glyph-name="ebreve" unicode="&#x115;" 
d="M731 1305q-160 0 -245.5 83.5t-65.5 219.5h196q-10 -67 27.5 -108.5t108.5 -41.5q72 0 121.5 41t60.5 109h203q-22 -137 -133.5 -220t-272.5 -83zM709 1147q213 0 320 -121t75 -321l-33 -203h-688l-14 -80q-38 -240 188 -240q173 0 221 117h254q-53 -145 -191.5 -232
t-318.5 -87q-214 0 -322 120.5t-77 321.5l45 283q32 200 179.5 321t361.5 121zM414 705l-6 -43l444 4l6 41q19 118 -27 179.5t-155 61.5q-111 0 -177 -62.5t-85 -180.5z" />
    <glyph glyph-name="Edotaccent" unicode="&#x116;" 
d="M827 1655q-78 0 -117 39.5t-28 107.5q10 67 62.5 107.5t129.5 40.5q78 0 117 -40t27 -108q-9 -67 -61.5 -107t-129.5 -40zM987 0h-897l238 1495h897l-37 -223h-643l-64 -389h574l-35 -221h-574l-69 -439h645z" />
    <glyph glyph-name="edotaccent" unicode="&#x117;" 
d="M733 1315q-78 0 -116.5 39t-28.5 108q11 68 62.5 108t129.5 40q76 0 115.5 -40t28.5 -108q-9 -68 -61 -107.5t-130 -39.5zM709 1147q213 0 320 -121t75 -321l-33 -203h-688l-14 -80q-38 -240 188 -240q173 0 221 117h254q-53 -145 -191.5 -232t-318.5 -87
q-214 0 -322 120.5t-77 321.5l45 283q32 200 179.5 321t361.5 121zM414 705l-6 -43l444 4l6 41q19 118 -27 179.5t-155 61.5q-111 0 -177 -62.5t-85 -180.5z" />
    <glyph glyph-name="Eogonek" unicode="&#x118;" 
d="M1225 1495l-37 -223h-643l-64 -389h574l-35 -221h-574l-69 -439h645l-35 -223h-100l-27 -20q-116 -89 -129 -158q-5 -38 18.5 -63t69.5 -25h135l-28 -176h-197q-118 0 -179 58.5t-46 152.5q15 122 203 231h-617l238 1495h897z" />
    <glyph glyph-name="eogonek" unicode="&#x119;" 
d="M709 1147q213 0 320 -121t75 -321l-33 -203h-688l-14 -80q-38 -240 188 -240q173 0 221 117h254q-57 -162 -227 -252l-86 -67q-116 -89 -129 -158q-5 -38 18.5 -63t69.5 -25h133l-27 -176h-196q-119 0 -181 59t-45 152q12 99 173 211h-13q-214 0 -322 120.5t-77 321.5
l45 283q32 200 179.5 321t361.5 121zM414 705l-6 -43l444 4l6 41q19 118 -27 179.5t-155 61.5q-111 0 -177 -62.5t-85 -180.5z" />
    <glyph glyph-name="Ecaron" unicode="&#x11a;" 
d="M946 1659h-237l-236 287h240l133 -150l172 150h254zM987 0h-897l238 1495h897l-37 -223h-643l-64 -389h574l-35 -221h-574l-69 -439h645z" />
    <glyph glyph-name="ecaron" unicode="&#x11b;" 
d="M1180 1608l-326 -287h-238l-235 287h240l133 -150l172 150h254zM709 1147q213 0 320 -121t75 -321l-33 -203h-688l-14 -80q-38 -240 188 -240q173 0 221 117h254q-53 -145 -191.5 -232t-318.5 -87q-214 0 -322 120.5t-77 321.5l45 283q32 200 179.5 321t361.5 121z
M414 705l-6 -43l444 4l6 41q19 118 -27 179.5t-155 61.5q-111 0 -177 -62.5t-85 -180.5z" />
    <glyph glyph-name="Gcircumflex" unicode="&#x11c;" 
d="M641 1659h-254l326 287h237l236 -287h-240l-133 149zM528 -20q-217 0 -327 120t-78 322l102 651q32 202 181 322.5t366 120.5q215 0 325.5 -121t78.5 -322h-256q19 105 -30 161t-153 56q-105 0 -171 -55.5t-83 -159.5l-104 -653q-15 -106 33.5 -162.5t152.5 -56.5
q103 0 169 57t83 162l25 151h-256l35 222h512l-60 -373q-31 -201 -180 -321.5t-365 -120.5z" />
    <glyph glyph-name="gcircumflex" unicode="&#x11d;" 
d="M887 1321l-133 149l-172 -149h-254l325 287h238l235 -287h-239zM877 911l28 215h256l-178 -1126q-28 -171 -156.5 -270t-324.5 -99h-340l35 213h333q86 0 136.5 41.5t64.5 120.5l12 84l39 211h-4q-35 -112 -123 -173.5t-211 -61.5q-172 0 -255.5 116.5t-51.5 315.5
l35 219q31 196 151.5 313t290.5 117q125 0 193 -62t65 -174h5zM809 508l29 197q17 104 -28.5 162.5t-141.5 58.5q-99 0 -162 -57.5t-80 -163.5l-31 -197q-19 -105 26 -163t144 -58q97 0 161 58.5t83 162.5z" />
    <glyph glyph-name="Gbreve" unicode="&#x11e;" 
d="M784 1642q-160 0 -245.5 84t-63.5 220h195q-10 -67 27 -108.5t108 -41.5q72 0 121.5 41t60.5 109h203q-22 -137 -133.5 -220.5t-272.5 -83.5zM528 -20q-217 0 -327 120t-78 322l102 651q32 202 181 322.5t366 120.5q215 0 325.5 -121t78.5 -322h-256q19 105 -30 161
t-153 56q-105 0 -171 -55.5t-83 -159.5l-104 -653q-15 -106 33.5 -162.5t152.5 -56.5q103 0 169 57t83 162l25 151h-256l35 222h512l-60 -373q-31 -201 -180 -321.5t-365 -120.5z" />
    <glyph glyph-name="gbreve" unicode="&#x11f;" 
d="M725 1305q-160 0 -245.5 83.5t-65.5 219.5h196q-10 -67 27 -108.5t108 -41.5q72 0 122 41t61 109h202q-22 -137 -133 -220t-272 -83zM877 911l28 215h256l-178 -1126q-28 -171 -156.5 -270t-324.5 -99h-340l35 213h333q86 0 136.5 41.5t64.5 120.5l12 84l39 211h-4
q-35 -112 -123 -173.5t-211 -61.5q-172 0 -255.5 116.5t-51.5 315.5l35 219q31 196 151.5 313t290.5 117q125 0 193 -62t65 -174h5zM809 508l29 197q17 104 -28.5 162.5t-141.5 58.5q-99 0 -162 -57.5t-80 -163.5l-31 -197q-19 -105 26 -163t144 -58q97 0 161 58.5t83 162.5
z" />
    <glyph glyph-name="Gdotaccent" unicode="&#x120;" 
d="M786 1655q-78 0 -117 39.5t-28 107.5q10 67 63 107.5t130 40.5q78 0 116.5 -40t26.5 -108q-9 -67 -61.5 -107t-129.5 -40zM528 -20q-217 0 -327 120t-78 322l102 651q32 202 181 322.5t366 120.5q215 0 325.5 -121t78.5 -322h-256q19 105 -30 161t-153 56
q-105 0 -171 -55.5t-83 -159.5l-104 -653q-15 -106 33.5 -162.5t152.5 -56.5q103 0 169 57t83 162l25 151h-256l35 222h512l-60 -373q-31 -201 -180 -321.5t-365 -120.5z" />
    <glyph glyph-name="gdotaccent" unicode="&#x121;" 
d="M727 1315q-78 0 -116.5 39t-28.5 108q11 68 62.5 108t129.5 40q76 0 115.5 -40t28.5 -108q-9 -68 -61 -107.5t-130 -39.5zM877 911l28 215h256l-178 -1126q-28 -171 -156.5 -270t-324.5 -99h-340l35 213h333q86 0 136.5 41.5t64.5 120.5l12 84l39 211h-4
q-35 -112 -123 -173.5t-211 -61.5q-172 0 -255.5 116.5t-51.5 315.5l35 219q31 196 151.5 313t290.5 117q125 0 193 -62t65 -174h5zM809 508l29 197q17 104 -28.5 162.5t-141.5 58.5q-99 0 -162 -57.5t-80 -163.5l-31 -197q-19 -105 26 -163t144 -58q97 0 161 58.5t83 162.5
z" />
    <glyph glyph-name="uni0122" unicode="&#x122;" 
d="M528 -20q-217 0 -327 120t-78 322l102 651q32 202 181 322.5t366 120.5q215 0 325.5 -121t78.5 -322h-256q19 105 -30 161t-153 56q-105 0 -171 -55.5t-83 -159.5l-104 -653q-15 -106 33.5 -162.5t152.5 -56.5q103 0 169 57t83 162l25 151h-256l35 222h512l-60 -373
q-31 -201 -180 -321.5t-365 -120.5zM451 -492h-242l242 297h272z" />
    <glyph glyph-name="uni0123" unicode="&#x123;" 
d="M860 1802h209l-240 -481h-311zM877 911l28 215h256l-178 -1126q-28 -171 -156.5 -270t-324.5 -99h-340l35 213h333q86 0 136.5 41.5t64.5 120.5l12 84l39 211h-4q-35 -112 -123 -173.5t-211 -61.5q-172 0 -255.5 116.5t-51.5 315.5l35 219q31 196 151.5 313t290.5 117
q125 0 193 -62t65 -174h5zM809 508l29 197q17 104 -28.5 162.5t-141.5 58.5q-99 0 -162 -57.5t-80 -163.5l-31 -197q-19 -105 26 -163t144 -58q97 0 161 58.5t83 162.5z" />
    <glyph glyph-name="Hcircumflex" unicode="&#x124;" 
d="M641 1659h-254l326 287h237l236 -287h-240l-133 149zM324 0h-256l237 1495h256l-96 -600h401l97 600h256l-238 -1495h-256l102 657h-399z" />
    <glyph glyph-name="hcircumflex" unicode="&#x125;" 
d="M801 1673l-133 150l-172 -150h-254l325 287h238l235 -287h-239zM803 1147q166 0 248 -111t51 -297l-117 -739h-256l113 713q17 100 -28 156.5t-140 56.5q-96 0 -159.5 -58t-80.5 -163l-110 -705h-256l237 1495h256l-59 -369l-41 -215h6q34 111 122.5 173.5t213.5 62.5z
" />
    <glyph glyph-name="Hbar" unicode="&#x126;" 
d="M1180 1253h137l-27 -178h-139l-170 -1075h-256l102 657h-399l-104 -657h-256l170 1075h-136l29 178h135l39 242h256l-39 -242h402l39 242h256zM465 895h401l29 180h-401z" />
    <glyph glyph-name="hbar" unicode="&#x127;" 
d="M250 1149h-158l27 172h157l29 174h256l-29 -174h316l-27 -172h-315l-23 -145l-41 -216h4q36 111 123.5 173.5t212.5 62.5q166 0 248 -111t53 -297l-98 -616h-256l94 590q15 101 -29.5 157t-138.5 56q-97 0 -160.5 -58t-78.5 -163l-92 -582h-256z" />
    <glyph glyph-name="Itilde" unicode="&#x128;" 
d="M930 1651q-47 0 -83 13.5t-56.5 32.5t-37.5 38.5t-36.5 33t-42.5 13.5q-28 0 -48 -18t-24 -50l-10 -53h-156l10 68q15 100 82.5 162.5t161.5 62.5q47 0 83 -13.5t56.5 -33t37.5 -38.5t36.5 -32.5t42.5 -13.5q60 0 72 63l8 58h158l-10 -68q-15 -100 -82.5 -162.5
t-161.5 -62.5zM954 0h-860l37 225h301l164 1045h-299l35 225h860l-37 -225h-301l-164 -1045h299z" />
    <glyph glyph-name="itilde" unicode="&#x129;" 
d="M797 1313q-47 0 -83 13.5t-56.5 32.5t-37.5 38.5t-36.5 33t-42.5 13.5q-28 0 -48 -18t-24 -50l-8 -53h-158l10 68q17 100 85 162.5t161 62.5q47 0 82.5 -13.5t56 -33t37 -38.5t36 -32.5t42.5 -13.5q28 0 48 16.5t24 46.5l10 58h156l-11 -68q-15 -100 -82 -162.5
t-161 -62.5zM858 0h-817l37 233h299l104 662h-248l37 231h492l-141 -893h274z" />
    <glyph glyph-name="Imacron" unicode="&#x12a;" 
d="M1145 1696h-703l29 196h705zM954 0h-860l37 225h301l164 1045h-299l35 225h860l-37 -225h-301l-164 -1045h299z" />
    <glyph glyph-name="imacron" unicode="&#x12b;" horiz-adv-x="1024" 
d="M1012 1354h-705l31 196h702zM858 0h-817l37 233h299l104 662h-248l37 231h492l-141 -893h274z" />
    <glyph glyph-name="Ibreve" unicode="&#x12c;" 
d="M784 1642q-160 0 -245.5 84t-63.5 220h195q-10 -67 27 -108.5t108 -41.5q72 0 121.5 41t60.5 109h203q-22 -137 -133.5 -220.5t-272.5 -83.5zM954 0h-860l37 225h301l164 1045h-299l35 225h860l-37 -225h-301l-164 -1045h299z" />
    <glyph glyph-name="ibreve" unicode="&#x12d;" 
d="M651 1305q-160 0 -245.5 83.5t-63.5 219.5h195q-10 -67 27 -108.5t108 -41.5q72 0 123 41.5t61 108.5h201q-20 -136 -132 -219.5t-274 -83.5zM858 0h-817l37 233h299l104 662h-248l37 231h492l-141 -893h274z" />
    <glyph glyph-name="Iogonek" unicode="&#x12e;" 
d="M1192 1495l-37 -225h-301l-164 -1045h299l-35 -225h-342l-26 -20q-116 -89 -129 -158q-5 -38 18.5 -63t69.5 -25h133l-27 -176h-196q-119 0 -180 59t-46 152q15 122 203 231h-338l37 225h301l164 1045h-299l35 225h860z" />
    <glyph glyph-name="iogonek" unicode="&#x12f;" horiz-adv-x="1024" 
d="M653 1315q-78 0 -116.5 39t-28.5 108q11 68 62.5 108t129.5 40q76 0 115.5 -40t28.5 -108q-9 -68 -61 -107.5t-130 -39.5zM567 0l-26 -20q-116 -89 -129 -158q-5 -38 18.5 -63t69.5 -25h133l-27 -176h-196q-119 0 -180 59t-46 152q15 122 203 231h-346l37 233h299
l104 662h-248l37 231h492l-141 -893h274l-37 -233h-291z" />
    <glyph glyph-name="Idotaccent" unicode="&#x130;" 
d="M786 1655q-78 0 -117 39.5t-28 107.5q10 67 63 107.5t130 40.5q78 0 116.5 -40t26.5 -108q-9 -67 -61.5 -107t-129.5 -40zM954 0h-860l37 225h301l164 1045h-299l35 225h860l-37 -225h-301l-164 -1045h299z" />
    <glyph glyph-name="dotlessi" unicode="&#x131;" horiz-adv-x="1024" 
d="M858 0h-817l37 233h299l104 662h-248l37 231h492l-141 -893h274z" />
    <glyph glyph-name="Jcircumflex" unicode="&#x134;" 
d="M850 1659h-254l326 287h237l236 -287h-240l-133 149zM459 -20q-227 0 -338.5 124t-77.5 338h256q-19 -112 33.5 -175.5t163.5 -63.5q109 0 181 63.5t91 173.5l129 824h-420l39 231h676l-168 -1055q-35 -220 -182.5 -340t-382.5 -120z" />
    <glyph glyph-name="jcircumflex" unicode="&#x135;" horiz-adv-x="819" 
d="M381 1321h-254l324 287h239l236 -287h-242l-131 149zM59 -369h-170l41 238h156q101 0 165 55.5t81 155.5l129 809h-322l39 237h576l-166 -1052q-34 -204 -176 -323.5t-353 -119.5z" />
    <glyph glyph-name="uni0136" unicode="&#x136;" 
d="M322 0h-256l237 1495h256l-96 -604h172l381 604h280l-454 -729l233 -766h-276l-189 657h-184zM442 -492h-241l241 297h273z" />
    <glyph glyph-name="uni0137" unicode="&#x137;" 
d="M330 0h-256l237 1495h256l-129 -811h164l344 442h293l-428 -555l256 -571h-283l-202 467h-179zM440 -492h-237l241 297h271z" />
    <glyph glyph-name="kgreenlandic" unicode="&#x138;" 
d="M332 0h-256l178 1126h256l-72 -442h164l344 442h293l-428 -553l256 -573h-287l-200 467h-174z" />
    <glyph glyph-name="Lacute" unicode="&#x139;" 
d="M662 1659h-269l260 287h287zM1053 0h-891l237 1495h256l-198 -1257h633z" />
    <glyph glyph-name="lacute" unicode="&#x13a;" horiz-adv-x="819" 
d="M614 1659h-268l260 287h287zM688 0h-192q-167 0 -252.5 100.5t-59.5 264.5l142 899h-199l37 231h454l-178 -1130q-9 -61 20.5 -97.5t88.5 -36.5h174z" />
    <glyph glyph-name="uni013B" unicode="&#x13b;" 
d="M1053 0h-891l237 1495h256l-198 -1257h633zM524 -492h-241l241 297h273z" />
    <glyph glyph-name="uni013C" unicode="&#x13c;" horiz-adv-x="819" 
d="M688 0h-192q-167 0 -252.5 100.5t-59.5 264.5l142 899h-199l37 231h454l-178 -1130q-9 -61 20.5 -97.5t88.5 -36.5h174zM264 -492h-237l241 297h271z" />
    <glyph glyph-name="Lcaron" unicode="&#x13d;" 
d="M1595 1495h-219l80 369h240zM1053 0h-891l237 1495h256l-198 -1257h633z" />
    <glyph glyph-name="lcaron" unicode="&#x13e;" horiz-adv-x="819" 
d="M954 1495h-219l80 369h240zM688 0h-192q-167 0 -252.5 100.5t-59.5 264.5l142 899h-199l37 231h454l-178 -1130q-9 -61 20.5 -97.5t88.5 -36.5h174z" />
    <glyph glyph-name="Ldot" unicode="&#x13f;" 
d="M512 594l-55 -356h633l-37 -238h-891l237 1495h256l-98 -621q61 52 148 52q88 0 130.5 -52t28.5 -141q-12 -87 -72.5 -138.5t-148.5 -51.5q-86 0 -131 51z" />
    <glyph glyph-name="ldot" unicode="&#x140;" 
d="M647 0h-192q-167 0 -252.5 100.5t-59.5 264.5l142 899h-199l37 231h455l-179 -1130q-9 -61 20.5 -97.5t88.5 -36.5h174zM911 543q-89 0 -132 51t-29 139q13 89 73.5 141t149.5 52q88 0 131 -52t29 -141q-13 -87 -73.5 -138.5t-148.5 -51.5z" />
    <glyph glyph-name="Lslash" unicode="&#x141;" 
d="M549 741l-80 -503h633l-37 -238h-891l94 592l-243 -131l38 246l244 131l105 657h256l-80 -508l315 170l-37 -246z" />
    <glyph glyph-name="lslash" unicode="&#x142;" horiz-adv-x="819" 
d="M807 911l-307 -176l-60 -370q-9 -61 20.5 -97.5t88.5 -36.5h174l-35 -231h-192q-167 0 -252.5 100.5t-59.5 264.5l33 208l-180 -102v236l221 127l68 430h-199l37 231h454l-79 -502l268 154v-236z" />
    <glyph glyph-name="Nacute" unicode="&#x143;" 
d="M893 1659h-268l262 287h287zM291 0h-234l238 1495h309l227 -1208q18 286 52 499l112 709h234l-238 -1495h-309l-225 1208q-20 -292 -49 -477z" />
    <glyph glyph-name="nacute" unicode="&#x144;" 
d="M836 1608h286l-278 -287h-269zM803 1147q166 0 248 -111t51 -297l-117 -739h-256l113 713q17 100 -28 156.5t-140 56.5q-96 0 -159.5 -58t-80.5 -163l-110 -705h-256l178 1126h250l-35 -215h6q34 111 122.5 173.5t213.5 62.5z" />
    <glyph glyph-name="uni0145" unicode="&#x145;" 
d="M291 0h-234l238 1495h309l227 -1208q18 286 52 499l112 709h234l-238 -1495h-309l-225 1208q-20 -292 -49 -477zM440 -492h-237l241 297h271z" />
    <glyph glyph-name="uni0146" unicode="&#x146;" 
d="M803 1147q166 0 248 -111t51 -297l-117 -739h-256l113 713q17 100 -28 156.5t-140 56.5q-96 0 -159.5 -58t-80.5 -163l-110 -705h-256l178 1126h250l-35 -215h6q34 111 122.5 173.5t213.5 62.5zM440 -492h-237l241 297h271z" />
    <glyph glyph-name="Ncaron" unicode="&#x147;" 
d="M905 1659h-237l-236 287h240l133 -150l172 150h254zM291 0h-234l238 1495h309l227 -1208q18 286 52 499l112 709h234l-238 -1495h-309l-225 1208q-20 -292 -49 -477z" />
    <glyph glyph-name="ncaron" unicode="&#x148;" 
d="M1182 1608l-326 -287h-238l-235 287h240l133 -150l172 150h254zM803 1147q166 0 248 -111t51 -297l-117 -739h-256l113 713q17 100 -28 156.5t-140 56.5q-96 0 -159.5 -58t-80.5 -163l-110 -705h-256l178 1126h250l-35 -215h6q34 111 122.5 173.5t213.5 62.5z" />
    <glyph glyph-name="napostrophe" unicode="&#x149;" 
d="M301 1618h270l-274 -297h-238zM803 1147q166 0 248 -111t51 -297l-117 -739h-256l113 713q17 100 -28 156.5t-140 56.5q-96 0 -159.5 -58t-80.5 -163l-110 -705h-256l178 1126h250l-35 -215h6q34 111 122.5 173.5t213.5 62.5z" />
    <glyph glyph-name="Eng" unicode="&#x14a;" 
d="M469 -369h-115l39 244h127q91 0 150.5 49t72.5 137l-286 1147q-20 -292 -49 -477l-117 -731h-234l238 1495h305l260 -1034q28 365 51 506l84 528h234l-232 -1452q-29 -184 -175.5 -298t-352.5 -114z" />
    <glyph glyph-name="eng" unicode="&#x14b;" 
d="M803 1147q166 0 247 -111t52 -297l-111 -696q-29 -184 -175.5 -298t-352.5 -114h-113l37 244h127q91 0 150.5 49t72.5 137l105 652q15 101 -29.5 157t-138.5 56q-96 0 -158.5 -58t-79.5 -163l-110 -705h-256l178 1126h250l-35 -215h6q34 111 121.5 173.5t212.5 62.5z" />
    <glyph glyph-name="Omacron" unicode="&#x14c;" 
d="M1145 1696h-703l29 196h705zM520 -20q-215 0 -322 119.5t-75 322.5l102 651q32 203 178 323t361 120t322 -120t75 -321l-102 -653q-32 -203 -178 -322.5t-361 -119.5zM557 205q103 0 166 55.5t80 161.5l102 651q17 106 -27.5 161.5t-148.5 55.5t-167.5 -55.5
t-78.5 -161.5l-104 -651q-15 -106 29.5 -161.5t148.5 -55.5z" />
    <glyph glyph-name="omacron" unicode="&#x14d;" 
d="M1092 1354h-705l31 196h702zM520 -20q-215 0 -322 119.5t-75 322.5l45 283q32 203 178 322.5t361 119.5t322 -119.5t75 -320.5l-45 -285q-32 -203 -178 -322.5t-361 -119.5zM557 203q101 0 165 56.5t81 162.5l45 283q17 106 -29 162.5t-149 56.5q-101 0 -165 -56.5
t-81 -162.5l-45 -283q-17 -106 29 -162.5t149 -56.5z" />
    <glyph glyph-name="Obreve" unicode="&#x14e;" 
d="M784 1642q-160 0 -245.5 84t-63.5 220h195q-10 -67 27 -108.5t108 -41.5q72 0 121.5 41t60.5 109h203q-22 -137 -133.5 -220.5t-272.5 -83.5zM520 -20q-215 0 -322 119.5t-75 322.5l102 651q32 203 178 323t361 120t322 -120t75 -321l-102 -653q-32 -203 -178 -322.5
t-361 -119.5zM557 205q103 0 166 55.5t80 161.5l102 651q17 106 -27.5 161.5t-148.5 55.5t-167.5 -55.5t-78.5 -161.5l-104 -651q-15 -106 29.5 -161.5t148.5 -55.5z" />
    <glyph glyph-name="obreve" unicode="&#x14f;" 
d="M731 1305q-160 0 -245.5 83.5t-65.5 219.5h196q-10 -67 27.5 -108.5t108.5 -41.5q72 0 121.5 41t60.5 109h203q-22 -137 -133.5 -220t-272.5 -83zM520 -20q-215 0 -322 119.5t-75 322.5l45 283q32 203 178 322.5t361 119.5t322 -119.5t75 -320.5l-45 -285
q-32 -203 -178 -322.5t-361 -119.5zM557 203q101 0 165 56.5t81 162.5l45 283q17 106 -29 162.5t-149 56.5q-101 0 -165 -56.5t-81 -162.5l-45 -283q-17 -106 29 -162.5t149 -56.5z" />
    <glyph glyph-name="Ohungarumlaut" unicode="&#x150;" 
d="M655 1659h-239l266 287h254zM1075 1659h-239l264 287h256zM520 -20q-215 0 -322 119.5t-75 322.5l102 651q32 203 178 323t361 120t322 -120t75 -321l-102 -653q-32 -203 -178 -322.5t-361 -119.5zM557 205q103 0 166 55.5t80 161.5l102 651q17 106 -27.5 161.5
t-148.5 55.5t-167.5 -55.5t-78.5 -161.5l-104 -651q-15 -106 29.5 -161.5t148.5 -55.5z" />
    <glyph glyph-name="ohungarumlaut" unicode="&#x151;" 
d="M602 1321h-237l264 287h254zM1020 1321h-238l265 287h253zM520 -20q-215 0 -322 119.5t-75 322.5l45 283q32 203 178 322.5t361 119.5t322 -119.5t75 -320.5l-45 -285q-32 -203 -178 -322.5t-361 -119.5zM557 203q101 0 165 56.5t81 162.5l45 283q17 106 -29 162.5
t-149 56.5q-101 0 -165 -56.5t-81 -162.5l-45 -283q-17 -106 29 -162.5t149 -56.5z" />
    <glyph glyph-name="OE" unicode="&#x152;" 
d="M283 -12q-143 0 -207 106t-35 293l117 729q29 186 126.5 293t239.5 107q52 0 92 -17.5t62 -45.5t33 -59t10 -63h10l27 164h573l-35 -219h-344l-63 -397h293l-35 -222h-293l-70 -436h344l-34 -221h-574l29 172h-10q-24 -71 -90.5 -127.5t-165.5 -56.5zM401 205
q68 0 114.5 48t59.5 134l115 729q14 85 -17 133.5t-100 48.5q-67 0 -113.5 -49t-58.5 -133l-114 -729q-14 -85 16.5 -133.5t97.5 -48.5z" />
    <glyph glyph-name="oe" unicode="&#x153;" 
d="M274 -20q-135 0 -201.5 86t-43.5 229l84 536q23 143 118 229.5t230 86.5q107 0 161 -49t52 -109h14q16 60 85 109t179 49q135 0 202 -86.5t44 -229.5l-49 -319h-438l-35 -217q-9 -62 15.5 -97.5t76.5 -35.5q48 0 82.5 29.5t46.5 82.5h211q-29 -133 -122.5 -213.5
t-219.5 -80.5q-110 0 -162.5 48.5t-50.5 108.5h-14q-18 -60 -88 -108.5t-177 -48.5zM334 162q52 0 87 35t46 98l84 536q9 63 -15.5 98.5t-76.5 35.5q-53 0 -89.5 -36.5t-45.5 -97.5l-86 -536q-9 -62 16.5 -97.5t79.5 -35.5zM760 831l-25 -161h228l26 161q9 63 -15.5 98.5
t-78.5 35.5q-53 0 -88.5 -36t-46.5 -98z" />
    <glyph glyph-name="Racute" unicode="&#x154;" 
d="M887 1946h287l-281 -287h-268zM1196 1051q-23 -151 -118 -265t-232 -159l205 -627h-273l-180 594h-182l-94 -594h-256l237 1495h473q223 0 337.5 -121.5t82.5 -322.5zM936 1042q17 105 -36 166.5t-159 61.5h-219l-71 -451h219q106 0 177.5 59.5t88.5 163.5z" />
    <glyph glyph-name="racute" unicode="&#x155;" 
d="M874 1608h287l-278 -287h-269zM838 1147q183 0 268.5 -112t54.5 -312l-14 -82h-268l12 64q17 108 -29 167.5t-145 59.5q-100 0 -164.5 -59t-81.5 -168l-113 -705h-256l179 1126h241l-35 -215h2q92 236 349 236z" />
    <glyph glyph-name="uni0156" unicode="&#x156;" 
d="M1196 1051q-23 -151 -118 -265t-232 -159l205 -627h-273l-180 594h-182l-94 -594h-256l237 1495h473q223 0 337.5 -121.5t82.5 -322.5zM936 1042q17 105 -36 166.5t-159 61.5h-219l-71 -451h219q106 0 177.5 59.5t88.5 163.5zM440 -492h-237l241 297h271z" />
    <glyph glyph-name="uni0157" unicode="&#x157;" 
d="M838 1147q183 0 268.5 -112t54.5 -312l-14 -82h-268l12 64q17 108 -29 167.5t-145 59.5q-100 0 -164.5 -59t-81.5 -168l-113 -705h-256l179 1126h241l-35 -215h2q92 236 349 236zM102 -492h-237l241 297h271z" />
    <glyph glyph-name="Rcaron" unicode="&#x158;" 
d="M1231 1946l-326 -287h-237l-236 287h240l133 -150l172 150h254zM303 1495h473q223 0 337.5 -121.5t82.5 -322.5q-23 -151 -118 -265t-232 -159l205 -627h-273l-180 594h-182l-94 -594h-256zM936 1042q17 105 -36 166.5t-159 61.5h-219l-71 -451h219q106 0 177.5 59.5
t88.5 163.5z" />
    <glyph glyph-name="rcaron" unicode="&#x159;" 
d="M1221 1608l-326 -287h-238l-235 287h240l133 -150l172 150h254zM838 1147q183 0 268.5 -112t54.5 -312l-14 -82h-268l12 64q17 108 -29 167.5t-145 59.5q-100 0 -164.5 -59t-81.5 -168l-113 -705h-256l179 1126h241l-35 -215h2q92 236 349 236z" />
    <glyph glyph-name="Sacute" unicode="&#x15a;" 
d="M893 1659h-268l262 287h287zM524 -20q-230 0 -346.5 113.5t-85.5 307.5h256q-15 -92 42 -144t173 -52q110 0 180.5 50.5t85.5 141.5q11 80 -23.5 137.5t-107.5 77.5l-166 47q-167 46 -246.5 161.5t-56.5 277.5q31 190 177 304t360 114q216 0 326.5 -112t81.5 -300h-256
q14 89 -35 138.5t-154 49.5q-101 0 -164.5 -47.5t-75.5 -132.5q-14 -82 19 -138.5t106 -76.5l170 -49q169 -47 248 -161.5t53 -278.5q-31 -195 -184 -311.5t-377 -116.5z" />
    <glyph glyph-name="sacute" unicode="&#x15b;" 
d="M844 1321h-269l261 287h286zM563 -20h-90q-193 0 -296.5 88.5t-86.5 238.5h256q-3 -54 40.5 -86.5t121.5 -32.5h88q93 0 147.5 37t63.5 101q9 59 -27.5 95t-120.5 48l-135 20q-192 27 -269 101t-54 223q25 160 146.5 247t326.5 87h78q186 0 285.5 -84.5t84.5 -226.5h-256
q2 47 -37.5 74.5t-111.5 27.5h-78q-167 0 -188 -125q-9 -57 21 -88t106 -43l141 -20q199 -28 281.5 -105.5t58.5 -228.5q-28 -167 -154.5 -257.5t-341.5 -90.5z" />
    <glyph glyph-name="Scircumflex" unicode="&#x15c;" 
d="M641 1659h-254l326 287h237l236 -287h-240l-133 149zM524 -20q-230 0 -346.5 113.5t-85.5 307.5h256q-15 -92 42 -144t173 -52q110 0 180.5 50.5t85.5 141.5q11 80 -23.5 137.5t-107.5 77.5l-166 47q-167 46 -246.5 161.5t-56.5 277.5q31 190 177 304t360 114
q216 0 326.5 -112t81.5 -300h-256q14 89 -35 138.5t-154 49.5q-101 0 -164.5 -47.5t-75.5 -132.5q-14 -82 19 -138.5t106 -76.5l170 -49q169 -47 248 -161.5t53 -278.5q-31 -195 -184 -311.5t-377 -116.5z" />
    <glyph glyph-name="scircumflex" unicode="&#x15d;" 
d="M592 1321h-254l324 287h239l236 -287h-242l-131 149zM563 -20h-90q-193 0 -296.5 88.5t-86.5 238.5h256q-3 -54 40.5 -86.5t121.5 -32.5h88q93 0 147.5 37t63.5 101q9 59 -27.5 95t-120.5 48l-135 20q-192 27 -269 101t-54 223q25 160 146.5 247t326.5 87h78
q186 0 285.5 -84.5t84.5 -226.5h-256q2 47 -37.5 74.5t-111.5 27.5h-78q-167 0 -188 -125q-9 -57 21 -88t106 -43l141 -20q199 -28 281.5 -105.5t58.5 -228.5q-28 -167 -154.5 -257.5t-341.5 -90.5z" />
    <glyph glyph-name="Scedilla" unicode="&#x15e;" 
d="M1174 1104h-256q14 89 -35 138.5t-154 49.5q-101 0 -164.5 -47.5t-75.5 -132.5q-14 -82 19 -138.5t106 -76.5l170 -49q169 -47 248 -161.5t53 -278.5q-31 -192 -179.5 -308.5t-368.5 -119.5l-29 -56q102 -9 178 -57t64 -129q-11 -74 -95.5 -127t-203.5 -53h-203l20 131
h156q46 0 81 23t38 50q8 44 -49 70.5t-164 26.5l71 131q-171 29 -253 137.5t-56 273.5h256q-15 -92 42 -144t173 -52q110 0 180.5 50.5t85.5 141.5q11 80 -23.5 137.5t-107.5 77.5l-166 47q-167 46 -246.5 161.5t-56.5 277.5q31 190 177 304t360 114q216 0 326.5 -112
t81.5 -300z" />
    <glyph glyph-name="scedilla" unicode="&#x15f;" 
d="M1122 836h-256q2 47 -37.5 74.5t-111.5 27.5h-78q-167 0 -188 -125q-9 -57 21 -88t106 -43l141 -20q199 -28 281.5 -105.5t58.5 -228.5q-25 -150 -130 -238.5t-284 -105.5l-20 -60q47 -4 92.5 -17t87 -35t67 -57t25.5 -77q0 -74 -76 -127t-194 -53h-205v131h156
q45 0 76.5 22.5t31.5 50.5q0 44 -61 70.5t-168 26.5l47 121h-31q-193 0 -296.5 88.5t-86.5 238.5h256q-3 -54 40.5 -86.5t121.5 -32.5h88q93 0 147.5 37t63.5 101q9 59 -27.5 95t-120.5 48l-135 20q-192 27 -269 101t-54 223q25 160 146.5 247t326.5 87h78
q186 0 285.5 -84.5t84.5 -226.5z" />
    <glyph glyph-name="Scaron" unicode="&#x160;" 
d="M905 1659h-237l-236 287h240l133 -150l172 150h254zM524 -20q-230 0 -346.5 113.5t-85.5 307.5h256q-15 -92 42 -144t173 -52q110 0 180.5 50.5t85.5 141.5q11 80 -23.5 137.5t-107.5 77.5l-166 47q-167 46 -246.5 161.5t-56.5 277.5q31 190 177 304t360 114
q216 0 326.5 -112t81.5 -300h-256q14 89 -35 138.5t-154 49.5q-101 0 -164.5 -47.5t-75.5 -132.5q-14 -82 19 -138.5t106 -76.5l170 -49q169 -47 248 -161.5t53 -278.5q-31 -195 -184 -311.5t-377 -116.5z" />
    <glyph glyph-name="scaron" unicode="&#x161;" 
d="M858 1321h-237l-236 287h240l133 -150l172 150h254zM563 -20h-90q-193 0 -296.5 88.5t-86.5 238.5h256q-3 -54 40.5 -86.5t121.5 -32.5h88q93 0 147.5 37t63.5 101q9 59 -27.5 95t-120.5 48l-135 20q-192 27 -269 101t-54 223q25 160 146.5 247t326.5 87h78
q186 0 285.5 -84.5t84.5 -226.5h-256q2 47 -37.5 74.5t-111.5 27.5h-78q-167 0 -188 -125q-9 -57 21 -88t106 -43l141 -20q199 -28 281.5 -105.5t58.5 -228.5q-28 -167 -154.5 -257.5t-341.5 -90.5z" />
    <glyph glyph-name="uni0162" unicode="&#x162;" 
d="M1243 1257h-391l-199 -1257l-39 -76q47 -4 90.5 -17t81.5 -35t58 -57t14 -77q-12 -74 -96.5 -127t-202.5 -53h-205l21 131h155q47 0 81.5 22.5t37.5 50.5q8 44 -49 70.5t-164 26.5l80 141h-121l201 1257h-393l39 238h1040z" />
    <glyph glyph-name="uni0163" unicode="&#x163;" horiz-adv-x="1024" 
d="M954 895h-356l-88 -557q-15 -107 88 -107h229l-36 -231h-226l-24 -76q47 -4 92 -17t86 -35t66.5 -57t25.5 -77q0 -74 -75 -127t-193 -53h-205v131h156q45 0 75.5 22.5t30.5 50.5q0 43 -60.5 70t-166.5 27l61 153q-106 29 -153 113.5t-27 212.5l88 557h-240l35 231h242
l49 308h256l-49 -308h354z" />
    <glyph glyph-name="Tcaron" unicode="&#x164;" 
d="M905 1659h-237l-236 287h240l133 -150l172 150h254zM653 0h-258l201 1257h-393l39 238h1040l-39 -238h-391z" />
    <glyph glyph-name="tcaron" unicode="&#x165;" horiz-adv-x="1024" 
d="M987 1270h-215l223 317h236zM791 0h-248q-161 0 -237.5 89.5t-51.5 248.5l88 557h-240l35 231h242l49 308h256l-49 -308h354l-35 -231h-356l-88 -557q-15 -107 88 -107h229z" />
    <glyph glyph-name="Tbar" unicode="&#x166;" 
d="M1282 1495l-39 -238h-391l-76 -475h275l-33 -202h-273l-92 -580h-258l92 580h-272l33 202h272l76 475h-393l39 238h1040z" />
    <glyph glyph-name="tbar" unicode="&#x167;" horiz-adv-x="1024" 
d="M989 1126l-35 -231h-356l-37 -227h340l-31 -201h-340l-20 -129q-15 -107 88 -107h229l-36 -231h-248q-161 0 -237.5 89.5t-51.5 248.5l20 129h-239l33 201h237l37 227h-240l35 231h242l49 308h256l-49 -308h354z" />
    <glyph glyph-name="Utilde" unicode="&#x168;" 
d="M930 1651q-47 0 -83 13.5t-56.5 32.5t-37.5 38.5t-36.5 33t-42.5 13.5q-28 0 -48 -18t-24 -50l-10 -53h-156l10 68q15 100 82.5 162.5t161.5 62.5q47 0 83 -13.5t56.5 -33t37.5 -38.5t36.5 -32.5t42.5 -13.5q60 0 72 63l8 58h158l-10 -68q-15 -100 -82.5 -162.5
t-161.5 -62.5zM520 -20q-219 0 -323 119t-70 327l168 1069h258l-170 -1067q-19 -106 26.5 -165.5t147.5 -59.5q100 0 163.5 59t82.5 166l168 1067h258l-170 -1069q-34 -208 -177 -327t-362 -119z" />
    <glyph glyph-name="utilde" unicode="&#x169;" 
d="M877 1313q-47 0 -83 13.5t-56.5 32.5t-37.5 38.5t-36.5 33t-42.5 13.5q-28 0 -48 -18t-26 -50l-8 -53h-156l10 68q15 100 82.5 162.5t161.5 62.5q47 0 82.5 -13.5t56 -33t37 -38.5t36 -32.5t42.5 -13.5q28 0 48 16.5t26 46.5l8 58h157l-10 -68q-17 -101 -83.5 -163
t-159.5 -62zM520 -20q-215 0 -318 119t-71 327l111 700h256l-111 -698q-17 -108 27 -166.5t141 -58.5q99 0 162 58.5t80 166.5l110 698h256l-110 -700q-32 -206 -176 -326t-357 -120z" />
    <glyph glyph-name="Umacron" unicode="&#x16a;" 
d="M1145 1696h-703l29 196h705zM520 -20q-219 0 -323 119t-70 327l168 1069h258l-170 -1067q-19 -106 26.5 -165.5t147.5 -59.5q100 0 163.5 59t82.5 166l168 1067h258l-170 -1069q-34 -208 -177 -327t-362 -119z" />
    <glyph glyph-name="umacron" unicode="&#x16b;" 
d="M1092 1354h-705l31 196h702zM520 -20q-215 0 -318 119t-71 327l111 700h256l-111 -698q-17 -108 27 -166.5t141 -58.5q99 0 162 58.5t80 166.5l110 698h256l-110 -700q-32 -206 -176 -326t-357 -120z" />
    <glyph glyph-name="Ubreve" unicode="&#x16c;" 
d="M784 1642q-160 0 -245.5 84t-63.5 220h195q-10 -67 27 -108.5t108 -41.5q72 0 121.5 41t60.5 109h203q-22 -137 -133.5 -220.5t-272.5 -83.5zM520 -20q-219 0 -323 119t-70 327l168 1069h258l-170 -1067q-19 -106 26.5 -165.5t147.5 -59.5q100 0 163.5 59t82.5 166
l168 1067h258l-170 -1069q-34 -208 -177 -327t-362 -119z" />
    <glyph glyph-name="ubreve" unicode="&#x16d;" 
d="M731 1305q-160 0 -245.5 83.5t-65.5 219.5h196q-10 -67 27.5 -108.5t108.5 -41.5q72 0 121.5 41t60.5 109h203q-22 -137 -133.5 -220t-272.5 -83zM520 -20q-215 0 -318 119t-71 327l111 700h256l-111 -698q-17 -108 27 -166.5t141 -58.5q99 0 162 58.5t80 166.5l110 698
h256l-110 -700q-32 -206 -176 -326t-357 -120z" />
    <glyph glyph-name="Uring" unicode="&#x16e;" 
d="M770 1552q-121 0 -184.5 68.5t-46.5 181.5q19 113 103.5 181.5t205.5 68.5t184.5 -68.5t46.5 -181.5q-17 -112 -102 -181t-207 -69zM791 1681q55 0 94 33.5t47 87.5q9 54 -20 87.5t-85 33.5q-55 0 -93.5 -33.5t-47.5 -87.5q-8 -54 21 -87.5t84 -33.5zM520 -20
q-219 0 -323 119t-70 327l168 1069h258l-170 -1067q-19 -106 26.5 -165.5t147.5 -59.5q100 0 163.5 59t82.5 166l168 1067h258l-170 -1069q-34 -208 -177 -327t-362 -119z" />
    <glyph glyph-name="uring" unicode="&#x16f;" 
d="M721 1235q-121 0 -185 69t-47 179q19 113 104 181.5t206 68.5t184.5 -68.5t46.5 -181.5q-17 -111 -102.5 -179.5t-206.5 -68.5zM741 1364q56 0 95.5 32.5t46.5 86.5q7 55 -21 88t-84 33t-95 -33t-46 -88q-8 -54 20.5 -86.5t83.5 -32.5zM520 -20q-215 0 -318 119t-71 327
l111 700h256l-111 -698q-17 -108 27 -166.5t141 -58.5q99 0 162 58.5t80 166.5l110 698h256l-110 -700q-32 -206 -176 -326t-357 -120z" />
    <glyph glyph-name="Uhungarumlaut" unicode="&#x170;" 
d="M655 1659h-239l266 287h254zM1075 1659h-239l264 287h256zM520 -20q-219 0 -323 119t-70 327l168 1069h258l-170 -1067q-19 -106 26.5 -165.5t147.5 -59.5q100 0 163.5 59t82.5 166l168 1067h258l-170 -1069q-34 -208 -177 -327t-362 -119z" />
    <glyph glyph-name="uhungarumlaut" unicode="&#x171;" 
d="M602 1321h-237l264 287h254zM1020 1321h-238l265 287h253zM520 -20q-215 0 -318 119t-71 327l111 700h256l-111 -698q-17 -108 27 -166.5t141 -58.5q99 0 162 58.5t80 166.5l110 698h256l-110 -700q-32 -206 -176 -326t-357 -120z" />
    <glyph glyph-name="Uogonek" unicode="&#x172;" 
d="M801 422l170 1073h258l-172 -1073q-20 -124 -86.5 -221.5t-167.5 -153.5l-94 -67q-106 -75 -121 -158q-5 -38 18.5 -63t69.5 -25h133l-27 -176h-196q-119 0 -181 59t-45 152q6 49 54.5 106.5t120.5 104.5h-15q-215 0 -321 119.5t-74 322.5l170 1073h258l-172 -1073
q-17 -106 27.5 -161.5t148.5 -55.5q102 0 164.5 55.5t79.5 161.5z" />
    <glyph glyph-name="uogonek" unicode="&#x173;" 
d="M797 422l110 704h256l-110 -704q-20 -120 -81.5 -215t-156.5 -152l-98 -75q-115 -85 -129 -158q-5 -38 18.5 -63t69.5 -25h133l-27 -176h-196q-119 0 -181 59t-45 152q12 102 177 213q-6 -2 -17 -2q-214 0 -318.5 119.5t-72.5 322.5l113 704h256l-113 -704
q-17 -106 26.5 -162.5t145.5 -56.5q101 0 162 56.5t78 162.5z" />
    <glyph glyph-name="Wcircumflex" unicode="&#x174;" 
d="M641 1659h-254l326 287h237l236 -287h-240l-133 149zM381 0h-285l84 1495h215l-76 -1044q-7 -131 -26 -277q39 169 69 277l289 1044h221l-51 -1044q-2 -38 -6 -139.5t-6 -137.5q47 228 59 277l256 1044h219l-399 -1495h-282l53 1049q4 84 20 284q-21 -101 -67 -284z" />
    <glyph glyph-name="wcircumflex" unicode="&#x175;" 
d="M588 1321h-254l325 287h238l236 -287h-240l-133 149zM387 0h-264l6 1126h207l-14 -690q-3 -135 -11 -250q5 16 72 250l217 690h203l-4 -690q0 -63 -6 -252q33 130 69 252l209 690h205l-354 -1126h-265l9 694q1 36 2 124.5t2 119.5q-9 -29 -34.5 -117.5t-37.5 -126.5z" />
    <glyph glyph-name="Ycircumflex" unicode="&#x176;" 
d="M641 1659h-254l326 287h237l236 -287h-240l-133 149zM653 0h-258l86 543l-286 952h262l149 -518q35 -124 39 -213q41 110 100 213l312 518h272l-592 -952z" />
    <glyph glyph-name="ycircumflex" unicode="&#x177;" 
d="M893 1321l-133 149l-172 -149h-254l325 287h238l236 -287h-240zM801 524l96 602h256l-176 -1126q-28 -171 -156.5 -270t-324.5 -99h-338l32 213h334q86 0 137.5 41.5t63.5 120.5l14 88l37 223h-6q-36 -111 -123.5 -173t-212.5 -62q-166 0 -248 110.5t-53 296.5l103 637
h256l-99 -610q-15 -101 30 -157t140 -56q96 0 159.5 58t78.5 163z" />
    <glyph glyph-name="Ydieresis" unicode="&#x178;" 
d="M545 1655q-67 0 -101.5 39.5t-25.5 107.5q12 69 59.5 109.5t116.5 40.5t103 -40.5t22 -109.5q-10 -67 -57.5 -107t-116.5 -40zM1026 1655q-69 0 -103.5 39.5t-23.5 107.5q12 69 59.5 109.5t116.5 40.5q68 0 101.5 -40.5t23.5 -109.5q-10 -67 -57.5 -107t-116.5 -40z
M653 0h-258l86 543l-286 952h262l149 -518q35 -124 39 -213q41 110 100 213l312 518h272l-592 -952z" />
    <glyph glyph-name="Zacute" unicode="&#x179;" 
d="M893 1659h-268l262 287h287zM977 0h-903l37 244l753 1013h-579l39 238h868l-39 -244l-754 -1013h615z" />
    <glyph glyph-name="zacute" unicode="&#x17a;" 
d="M842 1321h-269l261 287h286zM979 0h-909l36 231l687 670h-562l35 225h869l-37 -231l-690 -670h606z" />
    <glyph glyph-name="Zdotaccent" unicode="&#x17b;" 
d="M786 1655q-78 0 -117 39.5t-28 107.5q10 67 63 107.5t130 40.5q78 0 116.5 -40t26.5 -108q-9 -67 -61.5 -107t-129.5 -40zM977 0h-903l37 244l753 1013h-579l39 238h868l-39 -244l-754 -1013h615z" />
    <glyph glyph-name="zdotaccent" unicode="&#x17c;" 
d="M733 1315q-78 0 -116.5 39t-28.5 108q11 68 62.5 108t129.5 40q76 0 115.5 -40t28.5 -108q-9 -68 -61 -107.5t-130 -39.5zM979 0h-909l36 231l687 670h-562l35 225h869l-37 -231l-690 -670h606z" />
    <glyph glyph-name="Zcaron" unicode="&#x17d;" 
d="M905 1659h-237l-236 287h240l133 -150l172 150h254zM977 0h-903l37 244l753 1013h-579l39 238h868l-39 -244l-754 -1013h615z" />
    <glyph glyph-name="zcaron" unicode="&#x17e;" 
d="M854 1321h-238l-235 287h240l133 -150l172 150h254zM979 0h-909l36 231l687 670h-562l35 225h869l-37 -231l-690 -670h606z" />
    <glyph glyph-name="longs" unicode="&#x17f;" 
d="M106 -369h-219l35 213h213q83 0 134 42t63 120l182 1149q23 155 139.5 247.5t288.5 92.5h340l-35 -225h-336q-60 0 -97 -31.5t-46 -89.5l-182 -1149q-26 -170 -155.5 -269.5t-324.5 -99.5z" />
    <glyph glyph-name="uni018F" unicode="&#x18f;" 
d="M766 1516q216 0 320.5 -119.5t72.5 -323.5l-102 -651q-31 -201 -176 -321.5t-359 -120.5t-321.5 121t-75.5 321l65 416h676l37 237q19 105 -24.5 161t-147.5 56q-208 0 -244 -219h-258q34 203 178.5 323t358.5 120zM801 422l35 225h-418l-37 -225q-38 -242 174 -242
q108 0 167.5 61t78.5 181z" />
    <glyph glyph-name="uni0190" unicode="&#x190;" 
d="M1208 1081h-256q15 95 -39.5 153t-160.5 58t-179.5 -57.5t-87.5 -149.5q-15 -92 40 -148t161 -56h199l-33 -211h-199q-118 0 -200 -64.5t-97 -169.5q-17 -106 44 -169.5t178 -63.5q109 0 186.5 56.5t97.5 150.5h256q-35 -193 -194.5 -311.5t-384.5 -118.5
q-233 0 -355 124.5t-90 329.5q23 145 108 239.5t212 119.5q-106 25 -155.5 108.5t-29.5 208.5q29 183 178 294.5t367 111.5q228 0 347 -119.5t87 -315.5z" />
    <glyph glyph-name="florin" unicode="&#x192;" 
d="M78 -369h-228l39 244h240q91 0 150.5 49t72.5 137l86 547h-321l37 226h321l53 333q23 151 129.5 239.5t264.5 88.5h346l-37 -223h-322q-108 0 -127 -105l-51 -333h436l-34 -226h-439l-90 -565q-28 -184 -174 -298t-352 -114z" />
    <glyph glyph-name="uni019B" unicode="&#x19b;" 
d="M793 1368l317 148l-31 -195l-254 -119l244 -1202h-262l-117 659q-14 78 -20 215q-21 -104 -74 -215l-328 -659h-284l587 1085l-331 -153l30 194l281 131l-55 238h270z" />
    <glyph glyph-name="Ohorn" unicode="&#x1a0;" 
d="M1092 1505l24 154h209l-25 -158q-10 -71 -50.5 -125t-102.5 -84q33 -87 14 -217l-102 -653q-32 -203 -178 -322.5t-361 -119.5t-322 119.5t-75 322.5l102 651q32 203 178 323t361 120q169 0 276 -78q46 16 52 67zM803 422l102 651q17 106 -27.5 161.5t-148.5 55.5
t-167.5 -55.5t-78.5 -161.5l-104 -651q-15 -106 29.5 -161.5t148.5 -55.5q103 0 166 55.5t80 161.5z" />
    <glyph glyph-name="ohorn" unicode="&#x1a1;" 
d="M1038 1157l25 154h207l-25 -158q-10 -73 -52.5 -128t-109.5 -85q41 -101 21 -233l-45 -285q-32 -203 -178 -322.5t-361 -119.5t-322 119.5t-75 322.5l45 283q32 203 178 322.5t361 119.5q146 0 251 -62q32 0 54 19t26 53zM803 422l45 283q17 106 -29 162.5t-149 56.5
q-101 0 -165 -56.5t-81 -162.5l-45 -283q-17 -106 29 -162.5t149 -56.5q101 0 165 56.5t81 162.5z" />
    <glyph glyph-name="Uhorn" unicode="&#x1af;" 
d="M1235 1567l25 153h208l-26 -157q-15 -95 -79 -158t-161 -80l-143 -899q-34 -208 -177 -327t-362 -119t-323 119t-70 327l168 1069h258l-170 -1067q-19 -106 26.5 -165.5t147.5 -59.5q100 0 163.5 59t82.5 166l168 1067h182q34 0 56 19t26 53z" />
    <glyph glyph-name="uhorn" unicode="&#x1b0;" 
d="M129 420l113 706h256l-113 -708q-15 -104 23 -159.5t124 -55.5q87 0 144 56t72 159l112 708h219q71 0 84 72l25 154h207l-25 -158q-18 -111 -92.5 -176.5t-190.5 -65.5l-83 -532q-32 -204 -168.5 -322t-339.5 -118q-202 0 -300.5 118t-66.5 322z" />
    <glyph glyph-name="uni01CD" unicode="&#x1cd;" 
d="M905 1659h-237l-236 287h240l133 -150l172 150h254zM252 0h-270l614 1495h330l141 -1495h-254l-25 362h-397zM627 975l-158 -404h305l-26 402q-17 226 -17 299q-49 -149 -104 -297z" />
    <glyph glyph-name="uni01CE" unicode="&#x1ce;" 
d="M1190 1608l-326 -287h-237l-236 287h240l133 -150l172 150h254zM870 911h7l28 215h256l-178 -1126h-252l35 215h-4q-35 -111 -123.5 -173t-212.5 -62q-171 0 -254 116.5t-49 313.5l47 305q34 198 153 315t289 117q123 0 191.5 -63t66.5 -173zM793 422l45 283
q17 104 -29 162.5t-143 58.5q-99 0 -162 -58t-78 -163l-45 -283q-17 -106 27.5 -163.5t144.5 -57.5q96 0 159.5 58t80.5 163z" />
    <glyph glyph-name="uni01D0" unicode="&#x1d0;" horiz-adv-x="1024" 
d="M774 1321h-237l-236 287h240l133 -150l172 150h254zM858 0h-817l37 233h299l104 662h-248l37 231h492l-141 -893h274z" />
    <glyph glyph-name="uni01D2" unicode="&#x1d2;" 
d="M854 1321h-238l-235 287h240l133 -150l172 150h254zM520 -20q-215 0 -322 119.5t-75 322.5l45 283q32 203 178 322.5t361 119.5t322 -119.5t75 -320.5l-45 -285q-32 -203 -178 -322.5t-361 -119.5zM557 203q101 0 165 56.5t81 162.5l45 283q17 106 -29 162.5t-149 56.5
q-101 0 -165 -56.5t-81 -162.5l-45 -283q-17 -106 29 -162.5t149 -56.5z" />
    <glyph glyph-name="uni01D4" unicode="&#x1d4;" 
d="M854 1321h-238l-235 287h240l133 -150l172 150h254zM520 -20q-215 0 -318 119t-71 327l111 700h256l-111 -698q-17 -108 27 -166.5t141 -58.5q99 0 162 58.5t80 166.5l110 698h256l-110 -700q-32 -206 -176 -326t-357 -120z" />
    <glyph glyph-name="uni01D6" unicode="&#x1d6;" 
d="M1167 1837h-704l31 197h702zM492 1315q-69 0 -103 39t-24 108q11 68 58 108t116 40t103.5 -40t23.5 -108q-10 -68 -57 -107.5t-117 -39.5zM973 1315q-69 0 -103 39t-24 108q11 68 58 108t116 40t103 -40.5t22 -107.5q-9 -68 -55.5 -107.5t-116.5 -39.5zM520 -20
q-215 0 -318 119t-71 327l111 700h256l-111 -698q-17 -108 27 -166.5t141 -58.5q99 0 162 58.5t80 166.5l110 698h256l-110 -700q-32 -206 -176 -326t-357 -120z" />
    <glyph glyph-name="uni01D8" unicode="&#x1d8;" 
d="M918 1804h-269l260 287h287zM492 1315q-69 0 -103 39t-24 108q11 68 58 108t116 40t103.5 -40t23.5 -108q-10 -68 -57 -107.5t-117 -39.5zM973 1315q-69 0 -103 39t-24 108q11 68 58 108t116 40t103 -40.5t22 -107.5q-9 -68 -55.5 -107.5t-116.5 -39.5zM520 -20
q-215 0 -318 119t-71 327l111 700h256l-111 -698q-17 -108 27 -166.5t141 -58.5q99 0 162 58.5t80 166.5l110 698h256l-110 -700q-32 -206 -176 -326t-357 -120z" />
    <glyph glyph-name="uni01DA" unicode="&#x1da;" 
d="M930 1804h-238l-235 287h239l133 -149l172 149h254zM492 1315q-69 0 -103 39t-24 108q11 68 58 108t116 40t103.5 -40t23.5 -108q-10 -68 -57 -107.5t-117 -39.5zM973 1315q-69 0 -103 39t-24 108q11 68 58 108t116 40t103 -40.5t22 -107.5q-9 -68 -55.5 -107.5
t-116.5 -39.5zM520 -20q-215 0 -318 119t-71 327l111 700h256l-111 -698q-17 -108 27 -166.5t141 -58.5q99 0 162 58.5t80 166.5l110 698h256l-110 -700q-32 -206 -176 -326t-357 -120z" />
    <glyph glyph-name="uni01DC" unicode="&#x1dc;" 
d="M963 1804h-252l-193 287h270zM492 1315q-69 0 -103 39t-24 108q11 68 58 108t116 40t103.5 -40t23.5 -108q-10 -68 -57 -107.5t-117 -39.5zM973 1315q-69 0 -103 39t-24 108q11 68 58 108t116 40t103 -40.5t22 -107.5q-9 -68 -55.5 -107.5t-116.5 -39.5zM520 -20
q-215 0 -318 119t-71 327l111 700h256l-111 -698q-17 -108 27 -166.5t141 -58.5q99 0 162 58.5t80 166.5l110 698h256l-110 -700q-32 -206 -176 -326t-357 -120z" />
    <glyph glyph-name="Gcaron" unicode="&#x1e6;" 
d="M905 1659h-237l-236 287h240l133 -150l172 150h254zM528 -20q-217 0 -327 120t-78 322l102 651q32 202 181 322.5t366 120.5q215 0 325.5 -121t78.5 -322h-256q19 105 -30 161t-153 56q-105 0 -171 -55.5t-83 -159.5l-104 -653q-15 -106 33.5 -162.5t152.5 -56.5
q103 0 169 57t83 162l25 151h-256l35 222h512l-60 -373q-31 -201 -180 -321.5t-365 -120.5z" />
    <glyph glyph-name="gcaron" unicode="&#x1e7;" 
d="M1174 1608l-326 -287h-238l-235 287h239l134 -150l172 150h254zM872 911h5l28 215h256l-178 -1126q-28 -171 -156.5 -270t-324.5 -99h-340l35 213h333q86 0 136.5 41.5t64.5 120.5l12 84l39 211h-4q-35 -112 -123 -173.5t-211 -61.5q-172 0 -255.5 116.5t-51.5 315.5
l35 219q31 196 151.5 313t290.5 117q125 0 193 -62t65 -174zM809 508l29 197q17 104 -28.5 162.5t-141.5 58.5q-99 0 -162 -57.5t-80 -163.5l-31 -197q-19 -105 26 -163t144 -58q97 0 161 58.5t83 162.5z" />
    <glyph glyph-name="uni01EA" unicode="&#x1ea;" 
d="M766 1516q215 0 322 -120t75 -321l-102 -653q-20 -123 -88.5 -221t-169.5 -154l-92 -67q-106 -75 -121 -158q-6 -38 18 -63t70 -25h133l-29 -176h-194q-119 0 -181 59t-47 152q7 49 56 107t121 104h-15q-216 0 -322.5 119.5t-74.5 322.5l102 651q32 203 177.5 323
t361.5 120zM803 422l104 651q17 106 -28 161.5t-150 55.5q-104 0 -166.5 -55.5t-79.5 -161.5l-102 -651q-17 -106 28 -161.5t148 -55.5q104 0 167.5 55.5t78.5 161.5z" />
    <glyph glyph-name="uni01EB" unicode="&#x1eb;" 
d="M707 1147q215 0 322 -119.5t75 -320.5l-45 -285q-18 -118 -82.5 -213.5t-161.5 -153.5l-98 -75q-115 -85 -129 -158q-5 -38 18.5 -63t69.5 -25h133l-27 -176h-196q-119 0 -181 59t-45 152q12 102 177 213q-6 -2 -17 -2q-215 0 -322 119.5t-75 322.5l45 283
q32 203 178 322.5t361 119.5zM803 422l45 283q17 106 -29 162.5t-149 56.5q-101 0 -165 -56.5t-81 -162.5l-45 -283q-17 -106 29 -162.5t149 -56.5q101 0 165 56.5t81 162.5z" />
    <glyph glyph-name="uni01F4" unicode="&#x1f4;" 
d="M893 1659h-268l262 287h287zM528 -20q-217 0 -327 120t-78 322l102 651q32 202 181 322.5t366 120.5q215 0 325.5 -121t78.5 -322h-256q19 105 -30 161t-153 56q-105 0 -171 -55.5t-83 -159.5l-104 -653q-15 -106 33.5 -162.5t152.5 -56.5q103 0 169 57t83 162l25 151
h-256l35 222h512l-60 -373q-31 -201 -180 -321.5t-365 -120.5z" />
    <glyph glyph-name="uni01F5" unicode="&#x1f5;" 
d="M827 1608h287l-280 -287h-269zM877 911l28 215h256l-178 -1126q-28 -171 -156.5 -270t-324.5 -99h-340l35 213h333q86 0 136.5 41.5t64.5 120.5l12 84l39 211h-4q-35 -112 -123 -173.5t-211 -61.5q-172 0 -255.5 116.5t-51.5 315.5l35 219q31 196 151.5 313t290.5 117
q125 0 193 -62t65 -174h5zM809 508l29 197q17 104 -28.5 162.5t-141.5 58.5q-99 0 -162 -57.5t-80 -163.5l-31 -197q-19 -105 26 -163t144 -58q97 0 161 58.5t83 162.5z" />
    <glyph glyph-name="AEacute" unicode="&#x1fc;" 
d="M893 1659h-268l262 287h287zM184 0h-250l527 1495h866l-35 -219h-352l-61 -397h299l-37 -226h-299l-70 -432h352l-34 -221h-574l57 371h-266zM612 1276l-241 -717h233l113 717h-105z" />
    <glyph glyph-name="aeacute" unicode="&#x1fd;" 
d="M840 1321h-269l263 287h286zM256 -20q-126 0 -188.5 82t-40.5 217l16 110q20 128 122 205.5t251 77.5h112l27 157q21 136 -88 136q-52 0 -87 -34.5t-46 -94.5h-209q22 140 115 225.5t223 85.5q107 0 160 -48.5t55 -109.5h12q18 60 86.5 109t175.5 49q135 0 202 -85.5
t44 -230.5l-49 -315h-438l-35 -221q-9 -61 16 -97t76 -36q54 0 89 31t44 86h211q-22 -135 -117 -217t-229 -82q-107 0 -159 48t-52 109h-14q-20 -60 -94.5 -108.5t-190.5 -48.5zM760 831l-25 -159h228l26 159q9 62 -15.5 98t-78.5 36q-53 0 -88.5 -36t-46.5 -98zM336 162
q52 0 88 35.5t47 97.5l35 221h-113q-54 0 -90 -33.5t-45 -93.5l-18 -110q-9 -55 16.5 -86t79.5 -31z" />
    <glyph glyph-name="Oslashacute" unicode="&#x1fe;" 
d="M887 1946h287l-281 -287h-268zM1120 1536h215l-184 -254q28 -91 10 -207l-102 -653q-32 -203 -178 -322.5t-361 -119.5q-163 0 -264 69l-96 -131h-215l196 272q-39 99 -18 232l102 651q32 203 178 323t361 120q175 0 283 -82zM477 1073l-86 -543l500 691q-44 69 -162 69
q-105 0 -170 -56t-82 -161zM809 422l78 498l-479 -662q47 -53 149 -53q105 0 170 56t82 161z" />
    <glyph glyph-name="oslashacute" unicode="&#x1ff;" 
d="M834 1608h286l-280 -287h-269zM1053 1208h217l-203 -235q62 -105 37 -266l-45 -285q-32 -203 -178 -322.5t-361 -119.5q-153 0 -254 63l-90 -104h-217l195 227q-52 104 -31 256l45 283q32 203 178 322.5t361 119.5q146 0 243 -57zM408 705l-46 -283q0 -3 -1 -8.5t-1 -7.5
l426 493q-48 25 -116 25q-107 0 -176 -58t-86 -161zM819 422l45 283q1 6 2 18t2 18l-438 -508q50 -30 127 -30q107 0 176 58t86 161z" />
    <glyph glyph-name="uni0218" unicode="&#x218;" 
d="M524 -20q-230 0 -346.5 113.5t-85.5 307.5h256q-15 -92 42 -144t173 -52q110 0 180.5 50.5t85.5 141.5q11 80 -23.5 137.5t-107.5 77.5l-166 47q-167 46 -246.5 161.5t-56.5 277.5q31 190 177 304t360 114q216 0 326.5 -112t81.5 -300h-256q14 89 -35 138.5t-154 49.5
q-101 0 -164.5 -47.5t-75.5 -132.5q-14 -82 19 -138.5t106 -76.5l170 -49q169 -47 248 -161.5t53 -278.5q-31 -195 -184 -311.5t-377 -116.5zM440 -492h-237l241 297h271z" />
    <glyph glyph-name="uni0219" unicode="&#x219;" 
d="M563 -20h-90q-193 0 -296.5 88.5t-86.5 238.5h256q-3 -54 40.5 -86.5t121.5 -32.5h88q93 0 147.5 37t63.5 101q9 59 -27.5 95t-120.5 48l-135 20q-192 27 -269 101t-54 223q25 160 146.5 247t326.5 87h78q186 0 285.5 -84.5t84.5 -226.5h-256q2 47 -37.5 74.5
t-111.5 27.5h-78q-167 0 -188 -125q-9 -57 21 -88t106 -43l141 -20q199 -28 281.5 -105.5t58.5 -228.5q-28 -167 -154.5 -257.5t-341.5 -90.5zM440 -492h-237l241 297h269z" />
    <glyph glyph-name="uni021A" unicode="&#x21a;" 
d="M653 0h-258l201 1257h-393l39 238h1040l-39 -238h-391zM440 -492h-237l241 297h271z" />
    <glyph glyph-name="uni021B" unicode="&#x21b;" 
d="M791 0h-248q-161 0 -237.5 89.5t-51.5 248.5l88 557h-240l35 231h242l49 308h256l-49 -308h354l-35 -231h-356l-88 -557q-15 -107 88 -107h229zM459 -492h-236l242 297h268z" />
    <glyph glyph-name="uni0232" unicode="&#x232;" 
d="M1145 1696h-703l29 196h705zM653 0h-258l86 543l-286 952h262l149 -518q35 -124 39 -213q41 110 100 213l312 518h272l-592 -952z" />
    <glyph glyph-name="uni0233" unicode="&#x233;" 
d="M418 1550h702l-28 -196h-705zM801 524l96 602h256l-176 -1126q-28 -171 -156.5 -270t-324.5 -99h-338l32 213h334q86 0 137.5 41.5t63.5 120.5l14 88l37 223h-6q-36 -111 -123.5 -173t-212.5 -62q-166 0 -248 110.5t-53 296.5l103 637h256l-99 -610q-15 -101 30 -157
t140 -56q96 0 159.5 58t78.5 163z" />
    <glyph glyph-name="uni0237" unicode="&#x237;" horiz-adv-x="819" 
d="M59 -369h-170l41 238h156q101 0 165 55.5t81 155.5l129 809h-322l39 237h576l-166 -1052q-34 -204 -176 -323.5t-353 -119.5z" />
    <glyph glyph-name="uni0259" unicode="&#x259;" 
d="M705 1147q214 0 321.5 -121t75.5 -321l-45 -283q-31 -200 -177.5 -321t-361.5 -121q-213 0 -319 121t-74 321l33 203h686l12 80q38 239 -186 239q-170 0 -221 -117h-252q54 146 191.5 233t316.5 87zM811 422l6 43h-438l-8 -43q-39 -242 182 -242q219 0 258 242z" />
    <glyph glyph-name="uni02B9" unicode="&#x2b9;" horiz-adv-x="819" 
d="M477 838h-223l264 637h326z" />
    <glyph glyph-name="uni02BA" unicode="&#x2ba;" 
d="M360 838h-223l264 637h326zM924 838h-224l265 637h325z" />
    <glyph glyph-name="uni02BC" unicode="&#x2bc;" horiz-adv-x="409" 
d="M281 952h-224l265 637h325z" />
    <glyph glyph-name="circumflex" unicode="&#x2c6;" 
d="M590 1321h-254l326 287h237l236 -287h-240l-133 149z" />
    <glyph glyph-name="caron" unicode="&#x2c7;" 
d="M854 1321h-238l-235 287h240l133 -150l172 150h254z" />
    <glyph glyph-name="uni02C9" unicode="&#x2c9;" 
d="M1092 1354h-705l31 196h702z" />
    <glyph glyph-name="breve" unicode="&#x2d8;" 
d="M733 1305q-160 0 -245.5 83.5t-65.5 219.5h196q-10 -67 27.5 -108.5t108.5 -41.5q72 0 121.5 41t60.5 109h203q-22 -137 -133.5 -220t-272.5 -83z" />
    <glyph glyph-name="dotaccent" unicode="&#x2d9;" 
d="M733 1315q-78 0 -116.5 39t-28.5 108q11 68 62.5 108t129.5 40q76 0 115.5 -40t28.5 -108q-9 -68 -61 -107.5t-130 -39.5z" />
    <glyph glyph-name="ring" unicode="&#x2da;" 
d="M721 1235q-121 0 -185 69t-47 179q19 113 104 181.5t206 68.5t184.5 -68.5t46.5 -181.5q-17 -111 -102.5 -179.5t-206.5 -68.5zM741 1364q56 0 95.5 32.5t46.5 86.5q7 55 -21 88t-84 33t-95 -33t-46 -88q-8 -54 20.5 -86.5t83.5 -32.5z" />
    <glyph glyph-name="ogonek" unicode="&#x2db;" 
d="M651 -442h-196q-119 0 -180 59t-46 152q9 66 72.5 132.5t173.5 121.5h166l-55 -43q-116 -89 -129 -158q-5 -38 18.5 -63t69.5 -25h133z" />
    <glyph glyph-name="tilde" unicode="&#x2dc;" 
d="M877 1313q-47 0 -83 13.5t-56.5 32.5t-37.5 38.5t-36.5 33t-42.5 13.5q-28 0 -48 -18t-26 -50l-8 -53h-156l10 68q15 100 82.5 162.5t161.5 62.5q47 0 82.5 -13.5t56 -33t37 -38.5t36 -32.5t42.5 -13.5q28 0 48 16.5t26 46.5l8 58h157l-10 -68q-17 -101 -83.5 -163
t-159.5 -62z" />
    <glyph glyph-name="hungarumlaut" unicode="&#x2dd;" 
d="M602 1321h-237l264 287h254zM1020 1321h-238l265 287h253z" />
    <glyph glyph-name="uni02F3" unicode="&#x2f3;" 
d="M442 -524q-116 0 -177 58t-46 153t94.5 153t196.5 58t177.5 -57.5t45.5 -153.5q-13 -95 -93.5 -153t-197.5 -58zM457 -416q57 0 96 28.5t45 74.5q9 49 -19.5 76.5t-86.5 27.5q-56 0 -94.5 -28.5t-45.5 -75.5q-6 -46 22.5 -74.5t82.5 -28.5z" />
    <glyph glyph-name="uni02F7" unicode="&#x2f7;" 
d="M758 -467q-47 0 -85 13.5t-62 33.5t-44 39.5t-41.5 33t-44.5 13.5q-28 0 -44.5 -18.5t-16.5 -50.5v-54h-158v68q0 101 57.5 163t151.5 62q47 0 85 -13.5t62 -33t44 -38.5t41.5 -32.5t44.5 -13.5q28 0 44.5 17t16.5 47v57h158v-68q0 -100 -58 -162.5t-151 -62.5z" />
    <glyph glyph-name="gravecomb" unicode="&#x300;" horiz-adv-x="0" 
d="M-313 1321h-252l-193 287h271z" />
    <glyph glyph-name="acutecomb" unicode="&#x301;" horiz-adv-x="0" 
d="M-412 1321h-268l260 287h287z" />
    <glyph glyph-name="uni0302" unicode="&#x302;" horiz-adv-x="0" 
d="M-639 1321h-254l326 287h237l236 -287h-240l-133 149z" />
    <glyph glyph-name="tildecomb" unicode="&#x303;" horiz-adv-x="0" 
d="M-352 1313q-47 0 -83 13.5t-56.5 32.5t-37.5 38.5t-36.5 33t-42.5 13.5q-28 0 -48 -18t-26 -50l-8 -53h-156l10 68q15 100 82.5 162.5t161.5 62.5q47 0 82.5 -13.5t56 -33t37 -38.5t36 -32.5t42.5 -13.5q28 0 48 16.5t26 46.5l8 58h158l-11 -68q-17 -101 -83.5 -163
t-159.5 -62z" />
    <glyph glyph-name="uni0304" unicode="&#x304;" horiz-adv-x="0" 
d="M-137 1354h-705l31 196h702z" />
    <glyph glyph-name="uni0306" unicode="&#x306;" horiz-adv-x="0" 
d="M-496 1305q-160 0 -245.5 83.5t-65.5 219.5h197q-10 -67 27 -108.5t108 -41.5q72 0 121.5 41t60.5 109h203q-22 -137 -133.5 -220t-272.5 -83z" />
    <glyph glyph-name="uni0307" unicode="&#x307;" horiz-adv-x="0" 
d="M-496 1315q-78 0 -116.5 39t-28.5 108q11 68 62.5 108t129.5 40q76 0 115.5 -40t28.5 -108q-9 -68 -61 -107.5t-130 -39.5z" />
    <glyph glyph-name="uni0308" unicode="&#x308;" horiz-adv-x="0" 
d="M-735 1315q-69 0 -103 39t-24 108q11 68 58 108t116 40t103.5 -40t23.5 -108q-10 -68 -57 -107.5t-117 -39.5zM-254 1315q-69 0 -103 39t-24 108q11 68 58 108t116 40t103 -40.5t22 -107.5q-9 -68 -55.5 -107.5t-116.5 -39.5z" />
    <glyph glyph-name="hookabovecomb" unicode="&#x309;" horiz-adv-x="0" 
d="M-395 1321h-217l120 123q39 42 41 61q3 20 -9.5 29.5t-41.5 9.5h-153l24 156h215q90 0 136 -45t34 -121q-10 -70 -59 -119z" />
    <glyph glyph-name="uni030A" unicode="&#x30a;" horiz-adv-x="0" 
d="M-508 1235q-121 0 -184.5 68.5t-46.5 179.5q19 113 103.5 181.5t205.5 68.5t184.5 -68.5t46.5 -181.5q-17 -111 -102.5 -179.5t-206.5 -68.5zM-487 1364q56 0 95 32.5t46 86.5q7 55 -21 88t-84 33t-95 -33t-46 -88q-8 -54 21 -86.5t84 -32.5z" />
    <glyph glyph-name="uni030B" unicode="&#x30b;" horiz-adv-x="0" 
d="M-627 1321h-237l264 287h254zM-209 1321h-237l264 287h254z" />
    <glyph glyph-name="uni030C" unicode="&#x30c;" horiz-adv-x="0" 
d="M-375 1321h-237l-236 287h240l133 -150l172 150h254z" />
    <glyph glyph-name="uni030F" unicode="&#x30f;" horiz-adv-x="0" 
d="M-719 1608l174 -287h-227l-191 287h244zM-313 1608l176 -287h-228l-190 287h242z" />
    <glyph glyph-name="uni0312" unicode="&#x312;" horiz-adv-x="0" 
d="M-362 1802h208l-239 -481h-312z" />
    <glyph glyph-name="uni031B" unicode="&#x31b;" horiz-adv-x="0" 
d="M-338 952h-111l29 174h94q34 0 56 19t28 53l25 154h207l-27 -158q-17 -109 -100 -175.5t-201 -66.5z" />
    <glyph glyph-name="dotbelowcomb" unicode="&#x323;" horiz-adv-x="0" 
d="M-776 -461q-76 0 -115.5 40t-30.5 108q12 69 64.5 109t130.5 40q77 0 115 -40t28 -109q-11 -68 -62.5 -108t-129.5 -40z" />
    <glyph glyph-name="uni0325" unicode="&#x325;" horiz-adv-x="0" 
d="M-786 -524q-116 0 -177.5 58t-46.5 153t94.5 153t196.5 58t177.5 -57.5t45.5 -153.5q-13 -95 -93 -153t-197 -58zM-772 -416q57 0 96 28.5t45 74.5q9 49 -19.5 76.5t-86.5 27.5q-56 0 -94.5 -28.5t-45.5 -75.5q-6 -46 22.5 -74.5t82.5 -28.5z" />
    <glyph glyph-name="uni0326" unicode="&#x326;" horiz-adv-x="0" 
d="M-788 -492h-238l242 297h270z" />
    <glyph glyph-name="uni0327" unicode="&#x327;" horiz-adv-x="0" 
d="M-782 -442h-205l20 131h156q46 0 81 23t38 50q8 44 -49 70.5t-164 26.5l102 182h135l-59 -117q63 -6 119 -25.5t94 -62t29 -98.5q-11 -74 -95 -127t-202 -53z" />
    <glyph glyph-name="uni0328" unicode="&#x328;" horiz-adv-x="0" 
d="M-578 -442h-196q-118 0 -179 58.5t-46 152.5q9 67 72.5 133t172.5 121h166l-55 -43q-116 -89 -129 -158q-5 -38 18.5 -63t69.5 -25h133z" />
    <glyph glyph-name="uni0336" unicode="&#x336;" horiz-adv-x="0" 
d="M59 557h-1351l30 193h1352z" />
    <glyph glyph-name="uni0337" unicode="&#x337;" horiz-adv-x="0" 
d="M-1047 -61h-221l1088 1269h223z" />
    <glyph glyph-name="uni0338" unicode="&#x338;" horiz-adv-x="0" 
d="M-965 -225h-170l871 1577h170z" />
    <glyph glyph-name="uni0374" unicode="&#x374;" 
d="M575 838h-225l264 637h328z" />
    <glyph glyph-name="uni0375" unicode="&#x375;" 
d="M266 -328h-227l264 637h330z" />
    <glyph glyph-name="uni037E" unicode="&#x37e;" 
d="M467 803h-41q-74 0 -115 49t-30 123q14 74 70.5 123t129.5 49h41q74 0 115 -49.5t29 -122.5q-12 -74 -68 -123t-131 -49zM197 -328h-226l265 637h327z" />
    <glyph glyph-name="tonos" unicode="&#x384;" 
d="M1053 1608l-279 -287h-258l262 287h275z" />
    <glyph glyph-name="dieresistonos" unicode="&#x385;" 
d="M868 1608h-202l200 266h224zM492 1315q-68 0 -102 39t-25 108q11 68 58 108t116 40t103.5 -40t23.5 -108q-10 -68 -57 -107.5t-117 -39.5zM973 1315q-69 0 -103 39t-24 108q11 68 58 108t116 40t103.5 -40t23.5 -108q-10 -68 -57 -107.5t-117 -39.5z" />
    <glyph glyph-name="Alphatonos" unicode="&#x386;" 
d="M252 0h-270l614 1495h330l141 -1495h-254l-25 362h-397zM283 1167h-222l170 328h238zM627 975l-158 -404h305l-26 402q-17 226 -17 299q-49 -149 -104 -297z" />
    <glyph glyph-name="anoteleia" unicode="&#x387;" 
d="M408 543q-88 0 -131 51t-31 139q13 89 73.5 141t149.5 52q88 0 131 -52t29 -141q-12 -87 -72.5 -138.5t-148.5 -51.5z" />
    <glyph glyph-name="Epsilontonos" unicode="&#x388;" 
d="M45 1167h-223l172 328h237zM987 0h-897l238 1495h897l-37 -223h-643l-64 -389h574l-35 -221h-574l-69 -439h645z" />
    <glyph glyph-name="Etatonos" unicode="&#x389;" 
d="M45 1167h-223l172 328h237zM324 0h-256l237 1495h256l-96 -600h401l97 600h256l-238 -1495h-256l102 657h-399z" />
    <glyph glyph-name="Iotatonos" unicode="&#x38a;" 
d="M45 1167h-223l172 328h237zM954 0h-860l37 225h301l164 1045h-299l35 225h860l-37 -225h-301l-164 -1045h299z" />
    <glyph glyph-name="Omicrontonos" unicode="&#x38c;" 
d="M520 -20q-215 0 -322 119.5t-75 322.5l102 651q32 203 178 323t361 120t322 -120t75 -321l-102 -653q-32 -203 -178 -322.5t-361 -119.5zM111 1167h-222l170 328h238zM557 205q103 0 166 55.5t80 161.5l102 651q17 106 -27.5 161.5t-148.5 55.5t-167.5 -55.5
t-78.5 -161.5l-104 -651q-15 -106 29.5 -161.5t148.5 -55.5z" />
    <glyph glyph-name="Upsilontonos" unicode="&#x38e;" 
d="M-12 1167h-221l170 328h237zM653 0h-258l86 543l-286 952h262l149 -518q35 -124 39 -213q41 110 100 213l312 518h272l-592 -952z" />
    <glyph glyph-name="Omegatonos" unicode="&#x38f;" 
d="M442 0h-430l37 236h297l2 10q-46 5 -88.5 26.5t-78 59.5t-51 101t-3.5 140l78 492q32 204 184.5 327.5t374.5 123.5t336 -123.5t82 -327.5l-78 -492q-12 -77 -47.5 -139.5t-83.5 -100.5t-97.5 -59t-97.5 -26l-2 -12h299l-37 -236h-432l58 369q67 0 117.5 54t64.5 140
l80 502q17 103 -37 165t-160 62t-179.5 -62t-88.5 -165l-80 -502q-14 -87 19 -140.5t100 -53.5zM111 1167h-222l170 328h238z" />
    <glyph glyph-name="iotadieresistonos" unicode="&#x390;" 
d="M868 1608h-202l200 266h224zM492 1315q-68 0 -102 39t-25 108q11 68 58 108t116 40t103.5 -40t23.5 -108q-10 -68 -57 -107.5t-117 -39.5zM973 1315q-69 0 -103 39t-24 108q11 68 58 108t116 40t103.5 -40t23.5 -108q-10 -68 -57 -107.5t-117 -39.5zM1049 0h-285
q-166 0 -251.5 100.5t-59.5 264.5l84 530h-390l35 231h647l-120 -761q-9 -60 20.5 -97t89.5 -37h266z" />
    <glyph glyph-name="Alpha" unicode="&#x391;" 
d="M252 0h-270l614 1495h330l141 -1495h-254l-25 362h-397zM627 975l-158 -404h305l-26 402q-17 226 -17 299q-49 -149 -104 -297z" />
    <glyph glyph-name="Beta" unicode="&#x392;" 
d="M1174 1110q-20 -131 -110.5 -219t-217.5 -107q137 -18 207 -112t45 -246q-31 -195 -179 -310.5t-370 -115.5h-481l237 1495h459q217 0 327.5 -103.5t82.5 -281.5zM913 1081q14 94 -36.5 147.5t-151.5 53.5h-207l-63 -403h207q101 0 167.5 54t83.5 148zM844 438
q17 105 -38 169.5t-167 64.5h-217l-72 -459h217q112 0 186 60t91 165z" />
    <glyph glyph-name="Gamma" unicode="&#x393;" 
d="M414 0h-256l237 1495h895l-39 -238h-639z" />
    <glyph glyph-name="uni0394" unicode="&#x394;" 
d="M1067 0h-1085l614 1495h330zM623 975l-291 -752h463l-54 750q-11 152 -16 295q-52 -163 -102 -293z" />
    <glyph glyph-name="Epsilon" unicode="&#x395;" 
d="M987 0h-897l238 1495h897l-37 -223h-643l-64 -389h574l-35 -221h-574l-69 -439h645z" />
    <glyph glyph-name="Zeta" unicode="&#x396;" 
d="M977 0h-903l37 244l753 1013h-579l39 238h868l-39 -244l-754 -1013h615z" />
    <glyph glyph-name="Eta" unicode="&#x397;" 
d="M324 0h-256l237 1495h256l-96 -600h401l97 600h256l-238 -1495h-256l102 657h-399z" />
    <glyph glyph-name="Theta" unicode="&#x398;" 
d="M522 -20q-216 0 -322.5 119.5t-74.5 322.5l102 651q32 203 177.5 323t361.5 120q215 0 322 -120t75 -321l-102 -653q-32 -203 -178 -322.5t-361 -119.5zM557 205q104 0 167.5 55.5t78.5 161.5l104 651q17 106 -28 161.5t-150 55.5q-104 0 -166.5 -55.5t-79.5 -161.5
l-102 -651q-17 -106 28 -161.5t148 -55.5zM774 641h-297l37 238h299z" />
    <glyph glyph-name="Iota" unicode="&#x399;" 
d="M954 0h-860l37 225h301l164 1045h-299l35 225h860l-37 -225h-301l-164 -1045h299z" />
    <glyph glyph-name="Kappa" unicode="&#x39a;" 
d="M322 0h-256l237 1495h256l-96 -604h172l381 604h280l-454 -729l233 -766h-276l-189 657h-184z" />
    <glyph glyph-name="Lambda" unicode="&#x39b;" 
d="M250 0h-268l614 1495h330l141 -1495h-256l-68 973l-16 295q-47 -148 -102 -293z" />
    <glyph glyph-name="Mu" unicode="&#x39c;" 
d="M264 0h-239l237 1495h297l70 -475q20 -134 20 -217q27 85 88 217l215 475h310l-238 -1495h-240l74 465q31 192 89 443t110 442l-312 -707h-233l-96 707q-5 -184 -25.5 -433.5t-52.5 -451.5z" />
    <glyph glyph-name="Nu" unicode="&#x39d;" 
d="M291 0h-234l238 1495h309l227 -1208q18 286 52 499l112 709h234l-238 -1495h-309l-225 1208q-20 -292 -49 -477z" />
    <glyph glyph-name="Xi" unicode="&#x39e;" 
d="M1192 1257h-938l39 238h938zM1032 639h-813l37 238h815zM993 0h-938l37 238h938z" />
    </font>
</defs>
</svg>
