<?xml version="1.0" standalone="no"?>
<!DOCTYPE svg PUBLIC "-//W3C//DTD SVG 1.1//EN" "http://www.w3.org/Graphics/SVG/1.1/DTD/svg11.dtd" >
<svg xmlns="http://www.w3.org/2000/svg" xmlns:xlink="http://www.w3.org/1999/xlink" version="1.1">
<metadata>
Created by FontForge 20170731 at Thu Nov 16 19:43:45 2023
 By Aleksey,,,
Copyright 2021 Alessio Laiso, Mario Rullo, Paolo Rosset
</metadata>
<defs>
<font id="TekneLDO-ExtraLight" horiz-adv-x="1228" >
  <font-face 
    font-family="Tekne LDO ExtraLight"
    font-weight="200"
    font-stretch="normal"
    units-per-em="2048"
    panose-1="2 0 0 9 0 0 0 0 0 0"
    ascent="1638"
    descent="-410"
    x-height="1126"
    cap-height="1495"
    bbox="-3553 -819 1430 2294"
    underline-thickness="102"
    underline-position="-419"
    unicode-range="U+000D-1D54A"
  />
<missing-glyph 
d="M1044 0h-860v1495h860v-1495zM287 1393v-1170l614 1170h-614zM942 1272l-614 -1170h614v1170z" />
    <glyph glyph-name=".notdef" 
d="M1044 0h-860v1495h860v-1495zM287 1393v-1170l614 1170h-614zM942 1272l-614 -1170h614v1170z" />
    <glyph glyph-name=".null" horiz-adv-x="0" 
 />
    <glyph glyph-name="nonmarkingreturn" horiz-adv-x="682" 
 />
    <glyph glyph-name="uni2400" unicode="&#x2400;" 
d="M104 502h-43v493h60l168 -442q0 15 -2 53t-2 51v338h43v-493h-60l-168 442q4 -40 4 -104v-338zM602 496q-63 0 -99 37t-36 100v362h45v-362q0 -46 23.5 -72t66.5 -26t66.5 26t23.5 72v362h45v-362q0 -63 -36 -100t-99 -37zM1202 502h-278v493h45v-452h233v-41z" />
    <glyph glyph-name="uni2400" 
d="M104 502h-43v493h60l168 -442q0 15 -2 53t-2 51v338h43v-493h-60l-168 442q4 -40 4 -104v-338zM602 496q-63 0 -99 37t-36 100v362h45v-362q0 -46 23.5 -72t66.5 -26t66.5 26t23.5 72v362h45v-362q0 -63 -36 -100t-99 -37zM1202 502h-278v493h45v-452h233v-41z" />
    <glyph glyph-name="uni2401" unicode="&#x2401;" 
d="M199 496q-71 0 -112.5 36t-41.5 97h45q0 -43 29.5 -68.5t79.5 -25.5q46 0 73 24.5t27 65.5q0 35 -19 61.5t-53 36.5l-63 20q-49 13 -77 48.5t-28 85.5q0 57 38 90.5t102 33.5q63 0 100 -35t37 -96h-43q0 42 -25.5 67.5t-68.5 25.5q-44 0 -70.5 -23t-26.5 -61
q0 -34 19 -58t53 -35l64 -20q49 -15 77.5 -52t28.5 -87q0 -60 -39.5 -95.5t-105.5 -35.5zM602 496q-63 0 -100 37t-37 100v231q0 63 37 100t100 37t100 -37t37 -100v-231q0 -63 -37 -100t-100 -37zM946 502h-45v493h45v-217h176v217h45v-493h-45v235h-176v-235zM602 535
q44 0 68 25.5t24 72.5v231q0 46 -24.5 72.5t-67.5 26.5t-67.5 -26.5t-24.5 -72.5v-231q0 -47 24 -72.5t68 -25.5z" />
    <glyph glyph-name="uni2401" 
d="M199 496q-71 0 -112.5 36t-41.5 97h45q0 -43 29.5 -68.5t79.5 -25.5q46 0 73 24.5t27 65.5q0 35 -19 61.5t-53 36.5l-63 20q-49 13 -77 48.5t-28 85.5q0 57 38 90.5t102 33.5q63 0 100 -35t37 -96h-43q0 42 -25.5 67.5t-68.5 25.5q-44 0 -70.5 -23t-26.5 -61
q0 -34 19 -58t53 -35l64 -20q49 -15 77.5 -52t28.5 -87q0 -60 -39.5 -95.5t-105.5 -35.5zM602 496q-63 0 -100 37t-37 100v231q0 63 37 100t100 37t100 -37t37 -100v-231q0 -63 -37 -100t-100 -37zM946 502h-45v493h45v-217h176v217h45v-493h-45v235h-176v-235zM602 535
q44 0 68 25.5t24 72.5v231q0 46 -24.5 72.5t-67.5 26.5t-67.5 -26.5t-24.5 -72.5v-231q0 -47 24 -72.5t68 -25.5z" />
    <glyph glyph-name="uni2402" unicode="&#x2402;" 
d="M199 496q-71 0 -112.5 36t-41.5 97h45q0 -43 29.5 -68.5t79.5 -25.5q46 0 73 24.5t27 65.5q0 35 -19 61.5t-53 36.5l-63 20q-49 13 -77 48.5t-28 85.5q0 57 38 90.5t102 33.5q63 0 100 -35t37 -96h-43q0 42 -25.5 67.5t-68.5 25.5q-44 0 -70.5 -23t-26.5 -61
q0 -34 19 -58t53 -35l64 -20q49 -15 77.5 -52t28.5 -87q0 -60 -39.5 -95.5t-105.5 -35.5zM625 502h-45v452h-142v41h328v-41h-141v-452zM913 502h-49l144 254l-136 239h52l80 -149q20 -35 30 -55l31 55l82 149h49l-135 -237l143 -256h-49l-90 166q-28 49 -31 55
q-10 -20 -30 -55z" />
    <glyph glyph-name="uni2402" 
d="M199 496q-71 0 -112.5 36t-41.5 97h45q0 -43 29.5 -68.5t79.5 -25.5q46 0 73 24.5t27 65.5q0 35 -19 61.5t-53 36.5l-63 20q-49 13 -77 48.5t-28 85.5q0 57 38 90.5t102 33.5q63 0 100 -35t37 -96h-43q0 42 -25.5 67.5t-68.5 25.5q-44 0 -70.5 -23t-26.5 -61
q0 -34 19 -58t53 -35l64 -20q49 -15 77.5 -52t28.5 -87q0 -60 -39.5 -95.5t-105.5 -35.5zM625 502h-45v452h-142v41h328v-41h-141v-452zM913 502h-49l144 254l-136 239h52l80 -149q20 -35 30 -55l31 55l82 149h49l-135 -237l143 -256h-49l-90 166q-28 49 -31 55
q-10 -20 -30 -55z" />
    <glyph glyph-name="uni2403" unicode="&#x2403;" 
d="M340 502h-272v493h272v-41h-227v-176h202v-39h-202v-196h227v-41zM625 502h-45v452h-142v41h328v-41h-141v-452zM913 502h-49l144 254l-136 239h52l80 -149q20 -35 30 -55l31 55l82 149h49l-135 -237l143 -256h-49l-90 166q-28 49 -31 55q-10 -20 -30 -55z" />
    <glyph glyph-name="uni2403" 
d="M340 502h-272v493h272v-41h-227v-176h202v-39h-202v-196h227v-41zM625 502h-45v452h-142v41h328v-41h-141v-452zM913 502h-49l144 254l-136 239h52l80 -149q20 -35 30 -55l31 55l82 149h49l-135 -237l143 -256h-49l-90 166q-28 49 -31 55q-10 -20 -30 -55z" />
    <glyph glyph-name="uni2404" unicode="&#x2404;" 
d="M602 496q-63 0 -100 37t-37 100v231q0 63 37 100t100 37t100 -37t37 -100v-231q0 -63 -37 -100t-100 -37zM340 502h-272v493h272v-41h-227v-176h202v-39h-202v-196h227v-41zM1057 502h-45v452h-142v41h328v-41h-141v-452zM602 535q44 0 68 25.5t24 72.5v231
q0 46 -24.5 72.5t-67.5 26.5t-67.5 -26.5t-24.5 -72.5v-231q0 -47 24 -72.5t68 -25.5z" />
    <glyph glyph-name="uni2404" 
d="M602 496q-63 0 -100 37t-37 100v231q0 63 37 100t100 37t100 -37t37 -100v-231q0 -63 -37 -100t-100 -37zM340 502h-272v493h272v-41h-227v-176h202v-39h-202v-196h227v-41zM1057 502h-45v452h-142v41h328v-41h-141v-452zM602 535q44 0 68 25.5t24 72.5v231
q0 46 -24.5 72.5t-67.5 26.5t-67.5 -26.5t-24.5 -72.5v-231q0 -47 24 -72.5t68 -25.5z" />
    <glyph glyph-name="uni2405" unicode="&#x2405;" 
d="M1102 510l78 -129h-52l-69 115h-25q-63 0 -101 37.5t-38 101.5v227q0 64 38 101.5t101 37.5q64 0 102 -38.5t38 -100.5v-227q0 -44 -19 -77t-53 -48zM340 502h-272v493h272v-41h-227v-176h202v-39h-202v-196h227v-41zM692 657v338h43v-493h-59l-168 442q4 -40 4 -104
v-338h-43v493h59l168 -442q0 15 -2 53t-2 51zM940 862v-227q0 -47 25.5 -73.5t68.5 -26.5q44 0 69 26.5t25 73.5v227q0 46 -25.5 73.5t-68.5 27.5t-68.5 -27.5t-25.5 -73.5z" />
    <glyph glyph-name="uni2405" 
d="M1102 510l78 -129h-52l-69 115h-25q-63 0 -101 37.5t-38 101.5v227q0 64 38 101.5t101 37.5q64 0 102 -38.5t38 -100.5v-227q0 -44 -19 -77t-53 -48zM340 502h-272v493h272v-41h-227v-176h202v-39h-202v-196h227v-41zM692 657v338h43v-493h-59l-168 442q4 -40 4 -104
v-338h-43v493h59l168 -442q0 15 -2 53t-2 51zM940 862v-227q0 -47 25.5 -73.5t68.5 -26.5q44 0 69 26.5t25 73.5v227q0 46 -25.5 73.5t-68.5 27.5t-68.5 -27.5t-25.5 -73.5z" />
    <glyph glyph-name="uni2406" unicode="&#x2406;" 
d="M606 496q-65 0 -103 37t-38 100v231q0 63 38 100t103 37q64 0 101.5 -38t37.5 -103h-43q0 47 -26 75t-70 28t-70 -26.5t-26 -72.5v-231q0 -46 26 -72t70 -26t70 27.5t26 74.5h43q0 -65 -37.5 -103t-101.5 -38zM78 502h-45l133 493h57l133 -493h-45l-37 137h-159zM946 502
h-45v493h45v-219h90l111 219h49l-119 -237l125 -256h-51l-115 235h-90v-235zM172 858l-49 -180h141l-47 180l-22 100q-1 -4 -4 -17t-8.5 -37t-10.5 -46z" />
    <glyph glyph-name="uni2406" 
d="M606 496q-65 0 -103 37t-38 100v231q0 63 38 100t103 37q64 0 101.5 -38t37.5 -103h-43q0 47 -26 75t-70 28t-70 -26.5t-26 -72.5v-231q0 -46 26 -72t70 -26t70 27.5t26 74.5h43q0 -65 -37.5 -103t-101.5 -38zM78 502h-45l133 493h57l133 -493h-45l-37 137h-159zM946 502
h-45v493h45v-219h90l111 219h49l-119 -237l125 -256h-51l-115 235h-90v-235zM172 858l-49 -180h141l-47 180l-22 100q-1 -4 -4 -17t-8.5 -37t-10.5 -46z" />
    <glyph glyph-name="uni2407" unicode="&#x2407;" 
d="M256 758q42 -9 65 -40.5t23 -80.5q0 -62 -39 -98.5t-106 -36.5h-138v493h134q63 0 100 -34.5t37 -92.5q0 -91 -76 -110zM760 502h-273v493h273v-41h-228v-176h203v-39h-203v-196h228v-41zM969 995v-452h233v-41h-278v493h45zM195 954h-89v-178h87q44 0 70 24.5t26 65.5
t-25.5 64.5t-68.5 23.5zM106 543h91q47 0 74.5 26t27.5 70q0 45 -27.5 71.5t-74.5 26.5h-91v-194z" />
    <glyph glyph-name="uni2407" 
d="M256 758q42 -9 65 -40.5t23 -80.5q0 -62 -39 -98.5t-106 -36.5h-138v493h134q63 0 100 -34.5t37 -92.5q0 -91 -76 -110zM760 502h-273v493h273v-41h-228v-176h203v-39h-203v-196h228v-41zM969 995v-452h233v-41h-278v493h45zM195 954h-89v-178h87q44 0 70 24.5t26 65.5
t-25.5 64.5t-68.5 23.5zM106 543h91q47 0 74.5 26t27.5 70q0 45 -27.5 71.5t-74.5 26.5h-91v-194z" />
    <glyph glyph-name="uni2408" unicode="&#x2408;" 
d="M801 786l63 -20q50 -15 78.5 -52.5t28.5 -86.5q0 -60 -40 -95.5t-106 -35.5q-71 0 -112 36t-41 97h45q0 -43 29.5 -68.5t78.5 -25.5q46 0 73.5 24.5t27.5 65.5q0 35 -19 61.5t-53 36.5l-63 20q-49 13 -77 48.5t-28 85.5q0 57 37.5 90.5t101.5 33.5q63 0 100.5 -35
t37.5 -96h-43q0 41 -26 67t-69 26q-44 0 -70 -23t-26 -61q0 -34 19 -58t53 -35zM467 758q42 -9 65 -40.5t23 -80.5q0 -62 -39 -98.5t-106 -36.5h-138v493h134q63 0 100 -34.5t37 -92.5q0 -91 -76 -110zM406 954h-89v-178h86q44 0 70.5 24.5t26.5 65.5t-25.5 64.5t-68.5 23.5
zM317 543h91q47 0 74.5 26t27.5 70q0 45 -27.5 71.5t-74.5 26.5h-91v-194z" />
    <glyph glyph-name="uni2408" 
d="M801 786l63 -20q50 -15 78.5 -52.5t28.5 -86.5q0 -60 -40 -95.5t-106 -35.5q-71 0 -112 36t-41 97h45q0 -43 29.5 -68.5t78.5 -25.5q46 0 73.5 24.5t27.5 65.5q0 35 -19 61.5t-53 36.5l-63 20q-49 13 -77 48.5t-28 85.5q0 57 37.5 90.5t101.5 33.5q63 0 100.5 -35
t37.5 -96h-43q0 41 -26 67t-69 26q-44 0 -70 -23t-26 -61q0 -34 19 -58t53 -35zM467 758q42 -9 65 -40.5t23 -80.5q0 -62 -39 -98.5t-106 -36.5h-138v493h134q63 0 100 -34.5t37 -92.5q0 -91 -76 -110zM406 954h-89v-178h86q44 0 70.5 24.5t26.5 65.5t-25.5 64.5t-68.5 23.5
zM317 543h91q47 0 74.5 26t27.5 70q0 45 -27.5 71.5t-74.5 26.5h-91v-194z" />
    <glyph glyph-name="uni240B" unicode="&#x240b;" 
d="M434 502h-59l-131 493h47l94 -358q18 -74 21 -100q17 79 24 102l92 356h45zM844 502h-45v452h-142v41h328v-41h-141v-452z" />
    <glyph glyph-name="uni240B" 
d="M434 502h-59l-131 493h47l94 -358q18 -74 21 -100q17 79 24 102l92 356h45zM844 502h-45v452h-142v41h328v-41h-141v-452z" />
    <glyph glyph-name="uni240C" unicode="&#x240c;" 
d="M319 502h-45v493h283v-41h-238v-184h218v-41h-218v-227zM735 502h-45v493h283v-41h-238v-184h217v-41h-217v-227z" />
    <glyph glyph-name="uni240C" 
d="M319 502h-45v493h283v-41h-238v-184h218v-41h-218v-227zM735 502h-45v493h283v-41h-238v-184h217v-41h-217v-227z" />
    <glyph glyph-name="CR" unicode="&#xd;" horiz-adv-x="819" 
 />
    <glyph glyph-name="uni240E" unicode="&#x240e;" 
d="M410 496q-71 0 -112.5 36t-41.5 97h45q0 -43 29.5 -68.5t79.5 -25.5q46 0 73 24.5t27 65.5q0 35 -19 61.5t-53 36.5l-63 20q-49 13 -77 48.5t-28 85.5q0 57 38 90.5t102 33.5q63 0 100 -35t37 -96h-43q0 42 -26 67.5t-68 25.5q-44 0 -70.5 -23t-26.5 -61q0 -34 19 -58
t53 -35l64 -20q49 -15 77.5 -52t28.5 -87q0 -60 -39.5 -95.5t-105.5 -35.5zM821 496q-63 0 -100 37t-37 100v231q0 63 37 100t100 37t100 -37t37 -100v-231q0 -63 -37 -100t-100 -37zM821 535q44 0 68 25.5t24 72.5v231q0 46 -24.5 72.5t-67.5 26.5t-67.5 -26.5t-24.5 -72.5
v-231q0 -47 24 -72.5t68 -25.5z" />
    <glyph glyph-name="uni240E" 
d="M410 496q-71 0 -112.5 36t-41.5 97h45q0 -43 29.5 -68.5t79.5 -25.5q46 0 73 24.5t27 65.5q0 35 -19 61.5t-53 36.5l-63 20q-49 13 -77 48.5t-28 85.5q0 57 38 90.5t102 33.5q63 0 100 -35t37 -96h-43q0 42 -26 67.5t-68 25.5q-44 0 -70.5 -23t-26.5 -61q0 -34 19 -58
t53 -35l64 -20q49 -15 77.5 -52t28.5 -87q0 -60 -39.5 -95.5t-105.5 -35.5zM821 496q-63 0 -100 37t-37 100v231q0 63 37 100t100 37t100 -37t37 -100v-231q0 -63 -37 -100t-100 -37zM821 535q44 0 68 25.5t24 72.5v231q0 46 -24.5 72.5t-67.5 26.5t-67.5 -26.5t-24.5 -72.5
v-231q0 -47 24 -72.5t68 -25.5z" />
    <glyph glyph-name="uni240F" unicode="&#x240f;" 
d="M410 496q-71 0 -112.5 36t-41.5 97h45q0 -43 29.5 -68.5t79.5 -25.5q46 0 73 24.5t27 65.5q0 35 -19 61.5t-53 36.5l-63 20q-49 13 -77 48.5t-28 85.5q0 57 38 90.5t102 33.5q63 0 100 -35t37 -96h-43q0 42 -26 67.5t-68 25.5q-44 0 -70.5 -23t-26.5 -61q0 -34 19 -58
t53 -35l64 -20q49 -15 77.5 -52t28.5 -87q0 -60 -39.5 -95.5t-105.5 -35.5zM946 502h-250v41h103v411h-103v41h250v-41h-102v-411h102v-41z" />
    <glyph glyph-name="uni240F" 
d="M410 496q-71 0 -112.5 36t-41.5 97h45q0 -43 29.5 -68.5t79.5 -25.5q46 0 73 24.5t27 65.5q0 35 -19 61.5t-53 36.5l-63 20q-49 13 -77 48.5t-28 85.5q0 57 38 90.5t102 33.5q63 0 100 -35t37 -96h-43q0 42 -26 67.5t-68 25.5q-44 0 -70.5 -23t-26.5 -61q0 -34 19 -58
t53 -35l64 -20q49 -15 77.5 -52t28.5 -87q0 -60 -39.5 -95.5t-105.5 -35.5zM946 502h-250v41h103v411h-103v41h250v-41h-102v-411h102v-41z" />
    <glyph glyph-name="uni2410" unicode="&#x2410;" 
d="M178 502h-117v493h117q69 0 111.5 -41t42.5 -108v-195q0 -67 -42.5 -108t-111.5 -41zM770 502h-278v493h45v-452h233v-41zM1180 502h-273v493h273v-41h-228v-176h203v-39h-203v-196h228v-41zM106 954v-411h72q50 0 79.5 28.5t29.5 79.5v195q0 51 -29.5 79.5t-79.5 28.5
h-72z" />
    <glyph glyph-name="uni2410" 
d="M178 502h-117v493h117q69 0 111.5 -41t42.5 -108v-195q0 -67 -42.5 -108t-111.5 -41zM770 502h-278v493h45v-452h233v-41zM1180 502h-273v493h273v-41h-228v-176h203v-39h-203v-196h228v-41zM106 954v-411h72q50 0 79.5 28.5t29.5 79.5v195q0 51 -29.5 79.5t-79.5 28.5
h-72z" />
    <glyph glyph-name="uni2411" unicode="&#x2411;" 
d="M606 496q-65 0 -103 37t-38 100v231q0 63 38 100t103 37q64 0 101.5 -38t37.5 -103h-43q0 47 -26 75t-70 28t-70 -26.5t-26 -72.5v-231q0 -46 26 -72t70 -26t70 27.5t26 74.5h43q0 -65 -37.5 -103t-101.5 -38zM178 502h-117v493h117q69 0 111.5 -41t42.5 -108v-195
q0 -67 -42.5 -108t-111.5 -41zM1192 502h-295v41h137v413l-135 -98v49l119 88h61v-452h113v-41zM106 954v-411h72q50 0 79.5 28.5t29.5 79.5v195q0 51 -29.5 79.5t-79.5 28.5h-72z" />
    <glyph glyph-name="uni2411" 
d="M606 496q-65 0 -103 37t-38 100v231q0 63 38 100t103 37q64 0 101.5 -38t37.5 -103h-43q0 47 -26 75t-70 28t-70 -26.5t-26 -72.5v-231q0 -46 26 -72t70 -26t70 27.5t26 74.5h43q0 -65 -37.5 -103t-101.5 -38zM178 502h-117v493h117q69 0 111.5 -41t42.5 -108v-195
q0 -67 -42.5 -108t-111.5 -41zM1192 502h-295v41h137v413l-135 -98v49l119 88h61v-452h113v-41zM106 954v-411h72q50 0 79.5 28.5t29.5 79.5v195q0 51 -29.5 79.5t-79.5 28.5h-72z" />
    <glyph glyph-name="uni2412" unicode="&#x2412;" 
d="M606 496q-65 0 -103 37t-38 100v231q0 63 38 100t103 37q64 0 101.5 -38t37.5 -103h-43q0 47 -26 75t-70 28t-70 -26.5t-26 -72.5v-231q0 -46 26 -72t70 -26t70 27.5t26 74.5h43q0 -65 -37.5 -103t-101.5 -38zM1188 502h-293v45l158 164q80 86 80 151q0 46 -27.5 73.5
t-73.5 27.5q-47 0 -74.5 -28t-27.5 -75h-45q2 65 41.5 103t105.5 38t106 -37.5t40 -101.5q0 -78 -97 -178l-135 -141h242v-41zM178 502h-117v493h117q69 0 111.5 -41t42.5 -108v-195q0 -67 -42.5 -108t-111.5 -41zM106 954v-411h72q50 0 79.5 28.5t29.5 79.5v195
q0 51 -29.5 79.5t-79.5 28.5h-72z" />
    <glyph glyph-name="uni2412" 
d="M606 496q-65 0 -103 37t-38 100v231q0 63 38 100t103 37q64 0 101.5 -38t37.5 -103h-43q0 47 -26 75t-70 28t-70 -26.5t-26 -72.5v-231q0 -46 26 -72t70 -26t70 27.5t26 74.5h43q0 -65 -37.5 -103t-101.5 -38zM1188 502h-293v45l158 164q80 86 80 151q0 46 -27.5 73.5
t-73.5 27.5q-47 0 -74.5 -28t-27.5 -75h-45q2 65 41.5 103t105.5 38t106 -37.5t40 -101.5q0 -78 -97 -178l-135 -141h242v-41zM178 502h-117v493h117q69 0 111.5 -41t42.5 -108v-195q0 -67 -42.5 -108t-111.5 -41zM106 954v-411h72q50 0 79.5 28.5t29.5 79.5v195
q0 51 -29.5 79.5t-79.5 28.5h-72z" />
    <glyph glyph-name="uni2413" unicode="&#x2413;" 
d="M606 963q-44 0 -70 -26.5t-26 -72.5v-231q0 -46 26 -72t70 -26t70 27.5t26 74.5h43q0 -65 -37.5 -103t-101.5 -38q-65 0 -103 37t-38 100v231q0 63 38 100t103 37q64 0 101.5 -38t37.5 -103h-43q0 47 -26 75t-70 28zM61 995h117q69 0 111.5 -41t42.5 -108v-195
q0 -67 -42.5 -108t-111.5 -41h-117v493zM1157 952l-121 -141q61 -3 96 -39.5t35 -95.5v-43q0 -63 -38 -100t-101 -37q-65 0 -103 37t-38 100h45q0 -46 26 -72t70 -26t70 27t26 71v43q0 44 -26 70t-70 26h-43v37l123 145h-203v41h252v-43zM287 651v195q0 51 -29.5 79.5
t-79.5 28.5h-72v-411h72q50 0 79.5 28.5t29.5 79.5z" />
    <glyph glyph-name="uni2413" 
d="M606 963q-44 0 -70 -26.5t-26 -72.5v-231q0 -46 26 -72t70 -26t70 27.5t26 74.5h43q0 -65 -37.5 -103t-101.5 -38q-65 0 -103 37t-38 100v231q0 63 38 100t103 37q64 0 101.5 -38t37.5 -103h-43q0 47 -26 75t-70 28zM61 995h117q69 0 111.5 -41t42.5 -108v-195
q0 -67 -42.5 -108t-111.5 -41h-117v493zM1157 952l-121 -141q61 -3 96 -39.5t35 -95.5v-43q0 -63 -38 -100t-101 -37q-65 0 -103 37t-38 100h45q0 -46 26 -72t70 -26t70 27t26 71v43q0 44 -26 70t-70 26h-43v37l123 145h-203v41h252v-43zM287 651v195q0 51 -29.5 79.5
t-79.5 28.5h-72v-411h72q50 0 79.5 28.5t29.5 79.5z" />
    <glyph glyph-name="uni2414" unicode="&#x2414;" 
d="M606 496q-65 0 -103 37t-38 100v231q0 63 38 100t103 37q64 0 101.5 -38t37.5 -103h-43q0 47 -26 75t-70 28t-70 -26.5t-26 -72.5v-231q0 -46 26 -72t70 -26t70 27.5t26 74.5h43q0 -65 -37.5 -103t-101.5 -38zM178 502h-117v493h117q69 0 111.5 -41t42.5 -108v-195
q0 -67 -42.5 -108t-111.5 -41zM1155 502h-45v112h-225v78l188 303h47l-190 -313v-27h180v131h45v-284zM106 954v-411h72q50 0 79.5 28.5t29.5 79.5v195q0 51 -29.5 79.5t-79.5 28.5h-72z" />
    <glyph glyph-name="uni2414" 
d="M606 496q-65 0 -103 37t-38 100v231q0 63 38 100t103 37q64 0 101.5 -38t37.5 -103h-43q0 47 -26 75t-70 28t-70 -26.5t-26 -72.5v-231q0 -46 26 -72t70 -26t70 27.5t26 74.5h43q0 -65 -37.5 -103t-101.5 -38zM178 502h-117v493h117q69 0 111.5 -41t42.5 -108v-195
q0 -67 -42.5 -108t-111.5 -41zM1155 502h-45v112h-225v78l188 303h47l-190 -313v-27h180v131h45v-284zM106 954v-411h72q50 0 79.5 28.5t29.5 79.5v195q0 51 -29.5 79.5t-79.5 28.5h-72z" />
    <glyph glyph-name="uni2415" unicode="&#x2415;" 
d="M104 502h-43v493h60l168 -442q0 15 -2 53t-2 51v338h43v-493h-60l-168 442q4 -40 4 -104v-338zM485 502h-45l133 493h58l133 -493h-45l-37 137h-160zM946 502h-45v493h45v-219h90l111 219h49l-119 -237l125 -256h-51l-115 235h-90v-235zM580 858l-50 -180h142l-47 180
l-23 100q-5 -24 -22 -100z" />
    <glyph glyph-name="uni2415" 
d="M104 502h-43v493h60l168 -442q0 15 -2 53t-2 51v338h43v-493h-60l-168 442q4 -40 4 -104v-338zM485 502h-45l133 493h58l133 -493h-45l-37 137h-160zM946 502h-45v493h45v-219h90l111 219h49l-119 -237l125 -256h-51l-115 235h-90v-235zM580 858l-50 -180h142l-47 180
l-23 100q-5 -24 -22 -100z" />
    <glyph glyph-name="uni2416" unicode="&#x2416;" 
d="M199 496q-71 0 -112.5 36t-41.5 97h45q0 -43 29.5 -68.5t79.5 -25.5q46 0 73 24.5t27 65.5q0 35 -19 61.5t-53 36.5l-63 20q-49 13 -77 48.5t-28 85.5q0 57 38 90.5t102 33.5q63 0 100 -35t37 -96h-43q0 42 -25.5 67.5t-68.5 25.5q-44 0 -70.5 -23t-26.5 -61
q0 -34 19 -58t53 -35l64 -20q49 -15 77.5 -52t28.5 -87q0 -60 -39.5 -95.5t-105.5 -35.5zM625 502h-45v186l-150 307h45l107 -215q16 -33 20 -47l23 47l104 215h45l-149 -307v-186zM944 502h-43v493h60l167 -442q0 15 -2 53t-2 51v338h43v-493h-59l-168 442q4 -40 4 -104
v-338z" />
    <glyph glyph-name="uni2416" 
d="M199 496q-71 0 -112.5 36t-41.5 97h45q0 -43 29.5 -68.5t79.5 -25.5q46 0 73 24.5t27 65.5q0 35 -19 61.5t-53 36.5l-63 20q-49 13 -77 48.5t-28 85.5q0 57 38 90.5t102 33.5q63 0 100 -35t37 -96h-43q0 42 -25.5 67.5t-68.5 25.5q-44 0 -70.5 -23t-26.5 -61
q0 -34 19 -58t53 -35l64 -20q49 -15 77.5 -52t28.5 -87q0 -60 -39.5 -95.5t-105.5 -35.5zM625 502h-45v186l-150 307h45l107 -215q16 -33 20 -47l23 47l104 215h45l-149 -307v-186zM944 502h-43v493h60l167 -442q0 15 -2 53t-2 51v338h43v-493h-59l-168 442q4 -40 4 -104
v-338z" />
    <glyph glyph-name="uni2417" unicode="&#x2417;" 
d="M340 502h-272v493h272v-41h-227v-176h202v-39h-202v-196h227v-41zM580 954h-142v41h328v-41h-141v-452h-45v452zM1096 758q42 -9 65 -40.5t23 -80.5q0 -62 -39.5 -98.5t-106.5 -36.5h-137v493h133q63 0 100 -34.5t37 -92.5q0 -43 -19.5 -72t-55.5 -38zM1034 954h-88v-178
h86q44 0 70 24.5t26 65.5t-25.5 64.5t-68.5 23.5zM946 543h90q47 0 75 26t28 70t-28 71t-75 27h-90v-194z" />
    <glyph glyph-name="uni2417" 
d="M340 502h-272v493h272v-41h-227v-176h202v-39h-202v-196h227v-41zM580 954h-142v41h328v-41h-141v-452h-45v452zM1096 758q42 -9 65 -40.5t23 -80.5q0 -62 -39.5 -98.5t-106.5 -36.5h-137v493h133q63 0 100 -34.5t37 -92.5q0 -43 -19.5 -72t-55.5 -38zM1034 954h-88v-178
h86q44 0 70 24.5t26 65.5t-25.5 64.5t-68.5 23.5zM946 543h90q47 0 75 26t28 70t-28 71t-75 27h-90v-194z" />
    <glyph glyph-name="uni2418" unicode="&#x2418;" 
d="M199 496q-65 0 -103.5 37t-38.5 100v231q0 63 38.5 100t103.5 37q64 0 101.5 -38t37.5 -103h-43q0 47 -26 75t-70 28t-70.5 -26.5t-26.5 -72.5v-231q0 -45 26 -71.5t71 -26.5q44 0 70 27.5t26 74.5h43q0 -65 -37.5 -103t-101.5 -38zM494 502h-45l133 493h57l133 -493h-47
l-35 137h-162zM944 502h-43v493h60l167 -442q0 15 -2 53t-2 51v338h43v-493h-59l-168 442q4 -40 4 -104v-338zM586 858l-47 -180h141l-47 180q-12 47 -23 100q-8 -38 -24 -100z" />
    <glyph glyph-name="uni2418" 
d="M199 496q-65 0 -103.5 37t-38.5 100v231q0 63 38.5 100t103.5 37q64 0 101.5 -38t37.5 -103h-43q0 47 -26 75t-70 28t-70.5 -26.5t-26.5 -72.5v-231q0 -45 26 -71.5t71 -26.5q44 0 70 27.5t26 74.5h43q0 -65 -37.5 -103t-101.5 -38zM494 502h-45l133 493h57l133 -493h-47
l-35 137h-162zM944 502h-43v493h60l167 -442q0 15 -2 53t-2 51v338h43v-493h-59l-168 442q4 -40 4 -104v-338zM586 858l-47 -180h141l-47 180q-12 47 -23 100q-8 -38 -24 -100z" />
    <glyph glyph-name="uni2419" unicode="&#x2419;" 
d="M551 502h-272v493h272v-41h-227v-176h202v-39h-202v-196h227v-41zM721 502h-45v493h63l62 -178q8 -23 20 -65q2 5 23 65l61 178h62v-493h-45v272q0 72 10 199l-88 -252h-45l-88 252q10 -122 10 -199v-272z" />
    <glyph glyph-name="uni2419" 
d="M551 502h-272v493h272v-41h-227v-176h202v-39h-202v-196h227v-41zM721 502h-45v493h63l62 -178q8 -23 20 -65q2 5 23 65l61 178h62v-493h-45v272q0 72 10 199l-88 -252h-45l-88 252q10 -122 10 -199v-272z" />
    <glyph glyph-name="uni241A" unicode="&#x241a;" 
d="M174 786l64 -20q49 -15 77.5 -52t28.5 -87q0 -60 -39.5 -95.5t-105.5 -35.5q-71 0 -112.5 36t-41.5 97h45q0 -43 29.5 -68.5t79.5 -25.5q46 0 73 24.5t27 65.5q0 35 -19 61.5t-53 36.5l-63 20q-49 13 -77 48.5t-28 85.5q0 57 38 90.5t102 33.5q63 0 100 -35t37 -96h-43
q0 42 -25.5 67.5t-68.5 25.5q-44 0 -70.5 -23t-26.5 -61q0 -34 19 -58t53 -35zM692 633v362h45v-362q0 -63 -36 -100t-99 -37t-99 37t-36 100v362h45v-362q0 -46 23.5 -72t66.5 -26t66.5 26t23.5 72zM1096 758q42 -9 65 -40.5t23 -80.5q0 -62 -39.5 -98.5t-106.5 -36.5h-137
v493h133q63 0 100 -34.5t37 -92.5q0 -43 -19.5 -72t-55.5 -38zM1034 954h-88v-178h86q44 0 70 24.5t26 65.5t-25.5 64.5t-68.5 23.5zM946 543h90q47 0 75 26t28 70t-28 71t-75 27h-90v-194z" />
    <glyph glyph-name="uni241A" 
d="M174 786l64 -20q49 -15 77.5 -52t28.5 -87q0 -60 -39.5 -95.5t-105.5 -35.5q-71 0 -112.5 36t-41.5 97h45q0 -43 29.5 -68.5t79.5 -25.5q46 0 73 24.5t27 65.5q0 35 -19 61.5t-53 36.5l-63 20q-49 13 -77 48.5t-28 85.5q0 57 38 90.5t102 33.5q63 0 100 -35t37 -96h-43
q0 42 -25.5 67.5t-68.5 25.5q-44 0 -70.5 -23t-26.5 -61q0 -34 19 -58t53 -35zM692 633v362h45v-362q0 -63 -36 -100t-99 -37t-99 37t-36 100v362h45v-362q0 -46 23.5 -72t66.5 -26t66.5 26t23.5 72zM1096 758q42 -9 65 -40.5t23 -80.5q0 -62 -39.5 -98.5t-106.5 -36.5h-137
v493h133q63 0 100 -34.5t37 -92.5q0 -43 -19.5 -72t-55.5 -38zM1034 954h-88v-178h86q44 0 70 24.5t26 65.5t-25.5 64.5t-68.5 23.5zM946 543h90q47 0 75 26t28 70t-28 71t-75 27h-90v-194z" />
    <glyph glyph-name="uni241B" unicode="&#x241b;" 
d="M606 496q-71 0 -112 36t-41 97h45q0 -43 29.5 -68.5t78.5 -25.5q46 0 73.5 24.5t27.5 65.5q0 35 -19 61.5t-53 36.5l-64 20q-49 13 -76.5 48.5t-27.5 85.5q0 57 37.5 90.5t101.5 33.5q63 0 100 -35t37 -96h-43q0 42 -26 67.5t-68 25.5q-44 0 -70 -23t-26 -61
q0 -34 19 -58t53 -35l63 -20q50 -15 78.5 -52.5t28.5 -86.5q0 -60 -40 -95.5t-106 -35.5zM1038 496q-65 0 -103 37t-38 100v231q0 63 38 100t103 37q64 0 102 -38t38 -103h-43q0 47 -26.5 75t-70.5 28t-70 -26.5t-26 -72.5v-231q0 -46 26 -72t70 -26t70.5 27.5t26.5 74.5h43
q0 -65 -38 -103t-102 -38zM340 502h-272v493h272v-41h-227v-176h202v-39h-202v-196h227v-41z" />
    <glyph glyph-name="uni241B" 
d="M606 496q-71 0 -112 36t-41 97h45q0 -43 29.5 -68.5t78.5 -25.5q46 0 73.5 24.5t27.5 65.5q0 35 -19 61.5t-53 36.5l-64 20q-49 13 -76.5 48.5t-27.5 85.5q0 57 37.5 90.5t101.5 33.5q63 0 100 -35t37 -96h-43q0 42 -26 67.5t-68 25.5q-44 0 -70 -23t-26 -61
q0 -34 19 -58t53 -35l63 -20q50 -15 78.5 -52.5t28.5 -86.5q0 -60 -40 -95.5t-106 -35.5zM1038 496q-65 0 -103 37t-38 100v231q0 63 38 100t103 37q64 0 102 -38t38 -103h-43q0 47 -26.5 75t-70.5 28t-70 -26.5t-26 -72.5v-231q0 -46 26 -72t70 -26t70.5 27.5t26.5 74.5h43
q0 -65 -38 -103t-102 -38zM340 502h-272v493h272v-41h-227v-176h202v-39h-202v-196h227v-41z" />
    <glyph glyph-name="uni241C" unicode="&#x241c;" 
d="M825 496q-71 0 -112 36t-41 97h45q0 -43 29.5 -68.5t78.5 -25.5q46 0 73.5 24.5t27.5 65.5q0 35 -19 61.5t-53 36.5l-63 20q-49 13 -77 48.5t-28 85.5q0 57 37.5 90.5t101.5 33.5q63 0 100.5 -35t37.5 -96h-43q0 41 -26 67t-69 26q-44 0 -70 -23t-26 -61q0 -34 19 -58
t53 -35l63 -20q50 -15 78.5 -52.5t28.5 -86.5q0 -60 -40 -95.5t-106 -35.5zM319 502h-45v493h283v-41h-238v-184h218v-41h-218v-227z" />
    <glyph glyph-name="uni241C" 
d="M825 496q-71 0 -112 36t-41 97h45q0 -43 29.5 -68.5t78.5 -25.5q46 0 73.5 24.5t27.5 65.5q0 35 -19 61.5t-53 36.5l-63 20q-49 13 -77 48.5t-28 85.5q0 57 37.5 90.5t101.5 33.5q63 0 100.5 -35t37.5 -96h-43q0 41 -26 67t-69 26q-44 0 -70 -23t-26 -61q0 -34 19 -58
t53 -35l63 -20q50 -15 78.5 -52.5t28.5 -86.5q0 -60 -40 -95.5t-106 -35.5zM319 502h-45v493h283v-41h-238v-184h218v-41h-218v-227z" />
    <glyph glyph-name="uni241D" unicode="&#x241d;" 
d="M410 496q-65 0 -103.5 37t-38.5 100v231q0 63 38.5 100t103.5 37q64 0 101.5 -38t37.5 -103h-43q0 47 -26 75t-70 28t-70.5 -26.5t-26.5 -72.5v-231q0 -45 26.5 -71.5t70.5 -26.5t70 27.5t26 74.5v70h-111v41h154v-111q0 -65 -37.5 -103t-101.5 -38zM825 496
q-71 0 -112 36t-41 97h45q0 -43 29.5 -68.5t78.5 -25.5q46 0 73.5 24.5t27.5 65.5q0 35 -19 61.5t-53 36.5l-63 20q-49 13 -77 48.5t-28 85.5q0 57 37.5 90.5t101.5 33.5q63 0 100.5 -35t37.5 -96h-43q0 41 -26 67t-69 26q-44 0 -70 -23t-26 -61q0 -34 19 -58t53 -35l63 -20
q50 -15 78.5 -52.5t28.5 -86.5q0 -60 -40 -95.5t-106 -35.5z" />
    <glyph glyph-name="uni241D" 
d="M410 496q-65 0 -103.5 37t-38.5 100v231q0 63 38.5 100t103.5 37q64 0 101.5 -38t37.5 -103h-43q0 47 -26 75t-70 28t-70.5 -26.5t-26.5 -72.5v-231q0 -45 26.5 -71.5t70.5 -26.5t70 27.5t26 74.5v70h-111v41h154v-111q0 -65 -37.5 -103t-101.5 -38zM825 496
q-71 0 -112 36t-41 97h45q0 -43 29.5 -68.5t78.5 -25.5q46 0 73.5 24.5t27.5 65.5q0 35 -19 61.5t-53 36.5l-63 20q-49 13 -77 48.5t-28 85.5q0 57 37.5 90.5t101.5 33.5q63 0 100.5 -35t37.5 -96h-43q0 41 -26 67t-69 26q-44 0 -70 -23t-26 -61q0 -34 19 -58t53 -35l63 -20
q50 -15 78.5 -52.5t28.5 -86.5q0 -60 -40 -95.5t-106 -35.5z" />
    <glyph glyph-name="uni241E" unicode="&#x241e;" 
d="M825 496q-71 0 -112 36t-41 97h45q0 -43 29.5 -68.5t78.5 -25.5q46 0 73.5 24.5t27.5 65.5q0 35 -19 61.5t-53 36.5l-63 20q-49 13 -77 48.5t-28 85.5q0 57 37.5 90.5t101.5 33.5q63 0 100.5 -35t37.5 -96h-43q0 41 -26 67t-69 26q-44 0 -70 -23t-26 -61q0 -34 19 -58
t53 -35l63 -20q50 -15 78.5 -52.5t28.5 -86.5q0 -60 -40 -95.5t-106 -35.5zM317 502h-45v493h144q66 0 105.5 -38t39.5 -101q0 -52 -28 -87t-78 -46l110 -221h-53l-104 217h-91v-217zM317 954v-194h99q44 0 71 27t27 71q0 43 -27 69.5t-71 26.5h-99z" />
    <glyph glyph-name="uni241E" 
d="M825 496q-71 0 -112 36t-41 97h45q0 -43 29.5 -68.5t78.5 -25.5q46 0 73.5 24.5t27.5 65.5q0 35 -19 61.5t-53 36.5l-63 20q-49 13 -77 48.5t-28 85.5q0 57 37.5 90.5t101.5 33.5q63 0 100.5 -35t37.5 -96h-43q0 41 -26 67t-69 26q-44 0 -70 -23t-26 -61q0 -34 19 -58
t53 -35l63 -20q50 -15 78.5 -52.5t28.5 -86.5q0 -60 -40 -95.5t-106 -35.5zM317 502h-45v493h144q66 0 105.5 -38t39.5 -101q0 -52 -28 -87t-78 -46l110 -221h-53l-104 217h-91v-217zM317 954v-194h99q44 0 71 27t27 71q0 43 -27 69.5t-71 26.5h-99z" />
    <glyph glyph-name="uni241F" unicode="&#x241f;" 
d="M825 496q-71 0 -112 36t-41 97h45q0 -43 29.5 -68.5t78.5 -25.5q46 0 73.5 24.5t27.5 65.5q0 35 -19 61.5t-53 36.5l-63 20q-49 13 -77 48.5t-28 85.5q0 57 37.5 90.5t101.5 33.5q63 0 100.5 -35t37.5 -96h-43q0 41 -26 67t-69 26q-44 0 -70 -23t-26 -61q0 -34 19 -58
t53 -35l63 -20q50 -15 78.5 -52.5t28.5 -86.5q0 -60 -40 -95.5t-106 -35.5zM406 496q-63 0 -99.5 37t-36.5 100v362h45v-362q0 -46 24 -72t67 -26t66.5 26t23.5 72v362h45v-362q0 -63 -36 -100t-99 -37z" />
    <glyph glyph-name="uni241F" 
d="M825 496q-71 0 -112 36t-41 97h45q0 -43 29.5 -68.5t78.5 -25.5q46 0 73.5 24.5t27.5 65.5q0 35 -19 61.5t-53 36.5l-63 20q-49 13 -77 48.5t-28 85.5q0 57 37.5 90.5t101.5 33.5q63 0 100.5 -35t37.5 -96h-43q0 41 -26 67t-69 26q-44 0 -70 -23t-26 -61q0 -34 19 -58
t53 -35l63 -20q50 -15 78.5 -52.5t28.5 -86.5q0 -60 -40 -95.5t-106 -35.5zM406 496q-63 0 -99.5 37t-36.5 100v362h45v-362q0 -46 24 -72t67 -26t66.5 26t23.5 72v362h45v-362q0 -63 -36 -100t-99 -37z" />
    <glyph glyph-name="space" unicode=" " horiz-adv-x="819" 
 />
    <glyph glyph-name="exclam" unicode="!" horiz-adv-x="819" 
d="M451 428h-91l-36 772v295h163v-295zM426 -10h-31q-53 0 -84.5 32t-31.5 84q0 53 32 85t84 32h31q54 0 85.5 -32t31.5 -85q0 -51 -32.5 -83.5t-84.5 -32.5z" />
    <glyph glyph-name="quotedbl" unicode="&#x22;" horiz-adv-x="819" 
d="M264 881h-119l-22 430v184h162v-184zM676 881h-119l-22 430v184h161v-184z" />
    <glyph glyph-name="numbersign" unicode="#" 
d="M293 0h-113l86 455h-194v102h215l71 381h-215v102h234l86 455h112l-86 -455h361l86 455h113l-86 -455h194v-102h-215l-72 -381h215v-102h-233l-86 -455h-113l86 455h-360zM471 938l-72 -381h359l71 381h-358z" />
    <glyph glyph-name="dollar" unicode="$" 
d="M674 819l67 -20q152 -47 238 -160.5t86 -265.5q0 -167 -106 -272t-285 -119v-269h-99v269q-190 12 -299.5 119t-111.5 282h135q0 -119 73.5 -194t202.5 -87v609l-55 16q-150 44 -232.5 151.5t-82.5 256.5q0 162 99.5 263t270.5 115v269h99v-269q171 -14 271.5 -118.5
t101.5 -274.5h-136q0 114 -63.5 186.5t-173.5 86.5v-574zM340 1145q0 -108 62.5 -186.5t172.5 -106.5v541q-110 -12 -172.5 -78t-62.5 -170zM674 680v-578q121 12 188.5 82.5t67.5 186.5q0 107 -59.5 187t-165.5 112z" />
    <glyph glyph-name="percent" unicode="%" 
d="M324 819q-124 0 -196.5 72.5t-72.5 198.5v145q0 125 72.5 197.5t196.5 72.5t196 -72.5t72 -197.5v-145q0 -126 -72.5 -198.5t-195.5 -72.5zM152 0h-115l1040 1495h115zM324 926q75 0 114 42t39 122v145q0 80 -39 122t-114 42q-74 0 -114 -42.5t-40 -121.5v-145
q0 -79 40 -121.5t114 -42.5zM905 -10q-123 0 -195.5 72t-72.5 198v146q0 126 72.5 198t195.5 72q124 0 196.5 -72.5t72.5 -197.5v-146q0 -125 -72.5 -197.5t-196.5 -72.5zM905 98q75 0 114.5 41.5t39.5 120.5v146q0 79 -39.5 121t-114.5 42t-114 -41.5t-39 -121.5v-146
q0 -79 39 -120.5t114 -41.5z" />
    <glyph glyph-name="ampersand" unicode="&#x26;" 
d="M1133 737l-224 -407l244 -330h-145l-164 217q-150 -237 -385 -237q-156 0 -245 89.5t-89 247.5v240q0 123 60 204t169 107q-129 175 -129 320q0 144 96.5 236t253.5 92q165 0 265 -97t100 -252h-135q0 98 -65 164t-165 66q-94 0 -154.5 -60t-60.5 -149q0 -114 109 -258
l360 -492l164 299h140zM469 100q85 0 162 57.5t135 164.5l-334 446q-81 -7 -126.5 -63.5t-45.5 -147.5v-240q0 -98 57 -157.5t152 -59.5z" />
    <glyph glyph-name="quotesingle" unicode="'" horiz-adv-x="409" 
d="M264 881h-119l-20 282v332h160v-332z" />
    <glyph glyph-name="parenleft" unicode="(" horiz-adv-x="819" 
d="M721 -117v-129q-278 69 -431 275.5t-153 511.5v393q0 302 154.5 510.5t429.5 275.5v-127q-211 -51 -330 -226t-119 -433v-393q0 -258 119 -431.5t330 -226.5z" />
    <glyph glyph-name="parenright" unicode=")" horiz-adv-x="819" 
d="M98 -246v129q211 53 330 226.5t119 431.5v393q0 258 -119 433t-330 226v127q275 -67 429.5 -275.5t154.5 -510.5v-393q0 -305 -153 -511.5t-431 -275.5z" />
    <glyph glyph-name="asterisk" unicode="*" 
d="M485 395l-131 -190l-114 80l133 190q24 33 52 65t42.5 46.5t47 45t34.5 32.5l-8 22q-144 15 -242 51l-219 80l49 129l217 -78q104 -38 221 -118l15 10q-2 9 -10.5 47t-13 61.5t-9 64t-4.5 79.5v237h139v-237q0 -23 -1 -45t-4 -44t-5 -37t-7 -37.5t-6.5 -31t-7 -31.5
t-6.5 -26l15 -12q113 81 217 118l223 80l47 -131l-221 -80q-28 -11 -56 -18.5t-57 -13t-45 -8.5t-47.5 -6.5t-36.5 -4.5l-8 -22q7 -6 36 -33t45.5 -43.5t43.5 -47.5t49 -63l135 -192l-113 -80l-135 192q-18 27 -33 53t-28.5 53.5t-20.5 43.5t-19 45.5t-15 36.5h-19
q-5 -10 -25 -58.5t-42 -90t-52 -83.5z" />
    <glyph glyph-name="plus" unicode="+" 
d="M682 201h-135v417h-402v121h402v418h135v-418h401v-121h-401v-417z" />
    <glyph glyph-name="comma" unicode="," horiz-adv-x="819" 
d="M303 -328h-115l158 637h217z" />
    <glyph glyph-name="hyphen" unicode="-" 
d="M942 616h-655v121h655v-121z" />
    <glyph glyph-name="period" unicode="." horiz-adv-x="819" 
d="M410 -20q-72 0 -115 42.5t-43 114.5q0 73 43 116.5t115 43.5t114.5 -43.5t42.5 -116.5q0 -72 -42.5 -114.5t-114.5 -42.5z" />
    <glyph glyph-name="slash" unicode="/" 
d="M322 -225h-144l729 1925h144z" />
    <glyph glyph-name="zero" unicode="0" 
d="M616 -20q-202 0 -319 118.5t-117 321.5v655q0 203 117 322t319 119q200 0 316.5 -118.5t116.5 -322.5v-655q0 -203 -117 -321.5t-316 -118.5zM616 104q135 0 214 85.5t79 230.5v655q0 145 -79 230.5t-214 85.5q-136 0 -216.5 -85.5t-80.5 -230.5v-655q0 -145 80.5 -230.5
t216.5 -85.5zM614 641q-50 0 -80 31t-30 82q0 50 30 80t80 30t80.5 -30.5t30.5 -79.5q0 -51 -30.5 -82t-80.5 -31z" />
    <glyph glyph-name="one" unicode="1" 
d="M1094 0h-897v123h415v1255l-405 -301v152l360 266h181v-1372h346v-123z" />
    <glyph glyph-name="two" unicode="2" 
d="M1081 0h-888v135l477 502q126 132 184.5 240.5t58.5 214.5q0 140 -83 222.5t-224 82.5q-142 0 -225.5 -83.5t-83.5 -226.5h-135q3 196 123.5 312.5t320.5 116.5q203 0 323 -114t120 -306q0 -125 -71 -256.5t-220 -286.5l-412 -430h735v-123z" />
    <glyph glyph-name="three" unicode="3" 
d="M987 1368l-366 -430q184 -9 291.5 -119.5t107.5 -292.5v-129q0 -190 -116 -303.5t-310 -113.5t-310 113.5t-116 303.5h135q0 -139 78 -218t213 -79q136 0 213.5 80t77.5 217v129q0 137 -76.5 214t-214.5 77h-127v117l371 438h-615v123h764v-127z" />
    <glyph glyph-name="four" unicode="4" 
d="M979 0h-135v340h-682v238l569 915h146l-580 -946v-84h547v397h135v-860z" />
    <glyph glyph-name="five" unicode="5" 
d="M662 983q180 0 277 -112t97 -318v-139q0 -200 -113.5 -317t-310.5 -117q-181 0 -292.5 95.5t-126.5 260.5h135q9 -112 83 -174t203 -62q138 0 212.5 82t74.5 232v139q0 148 -74 228.5t-213 80.5q-96 0 -163 -51t-93 -143h-135l10 827h758v-123h-626l-7 -573h2
q22 86 102 135t200 49z" />
    <glyph glyph-name="six" unicode="6" 
d="M614 -20q-209 0 -336.5 130t-127.5 343q0 175 129 395l368 647h150l-414 -698l8 -6q36 48 110.5 81t166.5 33q185 0 298 -125t113 -329q0 -211 -128 -340t-337 -131zM614 100q149 0 239.5 95t90.5 254q0 154 -91.5 251t-238.5 97q-146 0 -236.5 -97t-92.5 -251
q-3 -159 87.5 -254t241.5 -95z" />
    <glyph glyph-name="seven" unicode="7" 
d="M561 0h-151l555 1366h-648v-281h-141v410h928v-137z" />
    <glyph glyph-name="eight" unicode="8" 
d="M741 778q330 -152 330 -411q0 -176 -125.5 -281.5t-331.5 -105.5t-331 105.5t-125 281.5q0 265 331 411q-144 67 -219 162t-75 209q0 159 119 263t300 104q183 0 308 -105t125 -262q0 -112 -78.5 -207t-227.5 -164zM547 864l69 -30l66 28q231 106 231 281q0 112 -84 182
t-215 70q-128 0 -207 -69t-79 -183q0 -181 219 -279zM614 100q145 0 233.5 74.5t88.5 198.5q0 99 -63 180t-181 135l-76 35l-81 -37q-117 -53 -179.5 -133t-62.5 -180q0 -124 88 -198.5t233 -74.5z" />
    <glyph glyph-name="nine" unicode="9" 
d="M578 0h-152l418 698l-8 7q-35 -49 -109.5 -84t-165.5 -35q-181 0 -292 124.5t-111 327.5q0 214 125.5 346t330.5 132t331 -131t126 -343q0 -186 -121 -395zM614 696q145 0 234 94.5t90 251.5q2 159 -87 256t-237 97q-145 0 -233 -97.5t-88 -257.5q0 -154 88.5 -249
t232.5 -95z" />
    <glyph glyph-name="colon" unicode=":" horiz-adv-x="819" 
d="M410 848q-71 0 -114.5 41t-43.5 108t43.5 108.5t114.5 41.5t114 -41.5t43 -108.5t-43 -108t-114 -41zM410 -20q-71 0 -114.5 41t-43.5 108t43.5 108.5t114.5 41.5t114 -41.5t43 -108.5t-43 -108t-114 -41z" />
    <glyph glyph-name="semicolon" unicode=";" horiz-adv-x="819" 
d="M424 852h-29q-66 0 -107.5 40.5t-41.5 106.5q0 65 41.5 106.5t107.5 41.5h29q64 0 105.5 -41.5t41.5 -106.5q0 -66 -40.5 -106.5t-106.5 -40.5zM283 -328h-115l158 637h217z" />
    <glyph glyph-name="less" unicode="&#x3c;" 
d="M1049 291v-139l-869 454v139l869 455v-137l-613 -313q-71 -39 -149 -72q41 -15 149 -70z" />
    <glyph glyph-name="equal" unicode="=" 
d="M1042 854h-856v121h856v-121zM1042 379h-856v121h856v-121z" />
    <glyph glyph-name="greater" unicode="&#x3e;" 
d="M1049 606l-869 -454v137l613 313q71 39 149 72q-47 17 -149 69l-613 318v139l869 -455v-139z" />
    <glyph glyph-name="question" unicode="?" 
d="M600 420h-135v356h102q140 0 221.5 80.5t81.5 216.5q0 135 -84.5 216t-226.5 81h-274v125h274q203 0 325 -115t122 -307q0 -184 -110 -297.5t-296 -116.5v-239zM545 -10h-31q-53 0 -85 32t-32 84t32.5 84.5t84.5 32.5h31q54 0 85.5 -32t31.5 -85q0 -51 -33 -83.5
t-84 -32.5z" />
    <glyph glyph-name="at" unicode="@" 
d="M645 1516q222 0 352.5 -139t130.5 -376v-868h-118v133h-11q-12 -71 -73.5 -112t-155.5 -41q-132 0 -202 81.5t-70 235.5v258q0 149 70 227t202 78q97 0 157 -40.5t72 -112.5h11l-9 151v10q0 191 -93.5 297.5t-262.5 106.5q-191 0 -296 -129.5t-105 -360.5v-682
q0 -224 112.5 -353.5t309.5 -129.5h149v-117h-149q-254 0 -401.5 162t-147.5 438v682q0 281 140 441t388 160zM1001 438v250q0 98 -48 148.5t-140 50.5q-188 0 -188 -199v-258q0 -211 188 -211q92 0 140 56t48 163z" />
    <glyph glyph-name="A" unicode="A" 
d="M262 0h-137l401 1495h176l402 -1495h-137l-109 418h-489zM543 1081l-144 -546h428l-143 546q-50 192 -70 303q-18 -98 -71 -303z" />
    <glyph glyph-name="B" unicode="B" 
d="M805 776q124 -28 194 -124t70 -240q0 -189 -119 -300.5t-321 -111.5h-418v1495h401q193 0 306.5 -104t113.5 -281q0 -128 -60.5 -216.5t-166.5 -117.5zM612 1372h-268v-541h266q135 0 211 72.5t76 198.5t-76.5 198t-208.5 72zM344 123h277q145 0 229 78t84 213
q0 137 -84.5 218t-228.5 81h-277v-590z" />
    <glyph glyph-name="C" unicode="C" 
d="M625 -20q-194 0 -309 112.5t-115 304.5v701q0 193 115 305.5t309 112.5q195 0 310.5 -117t115.5 -314h-136q0 145 -77.5 227.5t-212.5 82.5q-134 0 -211.5 -79t-77.5 -218v-701q0 -139 77 -218t212 -79q136 0 213 82.5t77 227.5h136q0 -197 -115.5 -313.5t-310.5 -116.5z
" />
    <glyph glyph-name="D" unicode="D" 
d="M561 0h-350v1495h350q212 0 339.5 -123.5t127.5 -327.5v-593q0 -204 -127.5 -327.5t-339.5 -123.5zM346 1372v-1249h215q152 0 242 88.5t90 239.5v593q0 150 -90.5 239t-241.5 89h-215z" />
    <glyph glyph-name="E" unicode="E" 
d="M1053 0h-824v1495h824v-123h-688v-530h616v-121h-616v-598h688v-123z" />
    <glyph glyph-name="F" unicode="F" 
d="M354 0h-135v1495h856v-123h-723v-557h660v-125h-658v-690z" />
    <glyph glyph-name="G" unicode="G" 
d="M625 -20q-194 0 -309 112.5t-115 304.5v701q0 193 115 305.5t309 112.5q195 0 310.5 -117t115.5 -314h-136q0 145 -77.5 227.5t-212.5 82.5q-134 0 -211.5 -79t-77.5 -218v-701q0 -139 77 -218t212 -79q136 0 213 82.5t77 227.5v208h-333v123h469v-331
q0 -197 -115.5 -313.5t-310.5 -116.5z" />
    <glyph glyph-name="H" unicode="H" 
d="M346 0h-135v1495h135v-659h537v659h135v-1495h-135v713h-537v-713z" />
    <glyph glyph-name="I" unicode="I" 
d="M995 0h-762v123h314v1249h-314v123h762v-123h-311v-1249h311v-123z" />
    <glyph glyph-name="J" unicode="J" 
d="M559 -20q-204 0 -320 117t-116 321h135q0 -149 80 -233.5t221 -84.5t221 84t80 232v954h-446v125h581v-1079q0 -202 -116.5 -319t-319.5 -117z" />
    <glyph glyph-name="K" unicode="K" 
d="M346 0h-135v1495h135v-661h277l331 661h148l-361 -717l381 -778h-157l-347 715h-272v-715z" />
    <glyph glyph-name="L" unicode="L" 
d="M1120 0h-841v1495h135v-1372h706v-123z" />
    <glyph glyph-name="M" unicode="M" 
d="M307 0h-131v1495h189l188 -537q41 -119 63 -204q37 126 66 204l184 537h187v-1495h-131v823q0 322 26 604l-264 -765h-137l-268 765q28 -300 28 -604v-823z" />
    <glyph glyph-name="N" unicode="N" 
d="M340 0h-131v1495h182l512 -1341q-14 210 -14 317v1024h131v-1495h-182l-508 1341q10 -158 10 -317v-1024z" />
    <glyph glyph-name="O" unicode="O" 
d="M614 -20q-190 0 -301.5 112t-111.5 305v701q0 192 112 305t301 113t301.5 -113t112.5 -305v-701q0 -193 -111.5 -305t-302.5 -112zM614 100q132 0 205.5 77.5t73.5 219.5v701q0 141 -73.5 219t-205.5 78t-205 -78t-73 -219v-701q0 -142 73 -219.5t205 -77.5z" />
    <glyph glyph-name="P" unicode="P" 
d="M346 0h-135v1495h457q201 0 320.5 -116t119.5 -310q0 -193 -120 -309.5t-320 -116.5h-322v-643zM346 1372v-606h322q138 0 220.5 82.5t82.5 220.5q0 139 -82.5 221t-220.5 82h-322z" />
    <glyph glyph-name="Q" unicode="Q" 
d="M821 23l236 -392h-160l-215 353q-36 -4 -66 -4q-193 0 -307 114.5t-114 306.5v693q0 194 114 308t307 114q191 0 304.5 -116.5t113.5 -305.5v-693q0 -132 -56 -231.5t-157 -146.5zM616 100q132 0 207.5 80t75.5 221v693q0 139 -76 220t-207 81q-134 0 -210 -80t-76 -221
v-693q0 -141 76 -221t210 -80z" />
    <glyph glyph-name="R" unicode="R" 
d="M346 0h-135v1495h436q199 0 317.5 -114.5t118.5 -305.5q0 -158 -86 -266t-235 -139l336 -670h-160l-317 659h-275v-659zM346 1372v-592h301q135 0 217 81t82 216t-82 215t-217 80h-301z" />
    <glyph glyph-name="S" unicode="S" 
d="M625 -20q-212 0 -336.5 109.5t-124.5 295.5h135q0 -129 88.5 -207t237.5 -78q142 0 224.5 73.5t82.5 201.5q0 106 -59 185.5t-160 111.5l-193 57q-149 46 -232 152.5t-83 251.5q0 177 114 280t308 103q192 0 306 -107.5t114 -288.5h-136q0 125 -78 200t-208 75
q-132 0 -209.5 -68.5t-77.5 -185.5q0 -100 56.5 -174t154.5 -105l196 -61q148 -47 234 -160t86 -262q0 -183 -119.5 -291t-320.5 -108z" />
    <glyph glyph-name="T" unicode="T" 
d="M684 0h-135v1372h-430v123h991v-123h-426v-1372z" />
    <glyph glyph-name="U" unicode="U" 
d="M616 -20q-191 0 -300 112t-109 305v1098h135v-1098q0 -141 71 -219t203 -78q129 0 200 79t71 218v1098h135v-1098q0 -193 -108 -305t-298 -112z" />
    <glyph glyph-name="V" unicode="V" 
d="M705 0h-181l-399 1495h139l285 -1083q37 -133 67 -306q19 109 70 308l283 1081h135z" />
    <glyph glyph-name="W" unicode="W" 
d="M428 0h-178l-180 1495h127l129 -1106q24 -237 28 -293q29 227 39 293l150 1106h155l142 -1106l37 -293q4 37 17 144.5t17 148.5l123 1106h125l-182 -1495h-180l-142 1102q-31 256 -34 293q-21 -142 -39 -293z" />
    <glyph glyph-name="X" unicode="X" 
d="M248 0h-150l439 770l-412 725h154l243 -451q48 -91 94 -167q49 84 93 167l247 451h148l-412 -717l438 -778h-153l-268 500l-95 170q-55 -103 -92 -170z" />
    <glyph glyph-name="Y" unicode="Y" 
d="M682 0h-135v567l-457 928h139l322 -651q44 -89 65 -142q29 68 66 142l317 651h140l-457 -928v-567z" />
    <glyph glyph-name="Z" unicode="Z" 
d="M1049 0h-869v135l711 1237h-703v123h836v-143l-707 -1229h732v-123z" />
    <glyph glyph-name="bracketleft" unicode="[" horiz-adv-x="819" 
d="M721 -225h-477v1925h477v-121h-342v-1683h342v-121z" />
    <glyph glyph-name="backslash" unicode="\" 
d="M1051 -225h-144l-729 1925h144z" />
    <glyph glyph-name="bracketright" unicode="]" horiz-adv-x="819" 
d="M575 -225h-477v121h342v1683h-342v121h477v-1925z" />
    <glyph glyph-name="asciicircum" unicode="^" 
d="M326 696h-138l363 799h135l354 -799h-137l-227 531q-30 68 -58 151q-16 -58 -57 -151z" />
    <glyph glyph-name="underscore" unicode="_" 
d="M1106 -168h-983v117h983v-117z" />
    <glyph glyph-name="grave" unicode="`" 
d="M733 1321h-145l-234 287h158z" />
    <glyph glyph-name="a" unicode="a" 
d="M623 1147q183 0 291 -102.5t108 -274.5v-770h-133v193q-25 -99 -119 -156t-233 -57q-175 0 -279 90.5t-104 244.5q0 150 98.5 239t263.5 89h371v125q0 123 -69 190.5t-195 67.5q-112 0 -187.5 -54t-89.5 -143h-135q17 142 131.5 230t280.5 88zM571 92q140 0 228 71
t88 185v187h-371q-103 0 -165 -57t-62 -152q0 -106 76.5 -170t205.5 -64z" />
    <glyph glyph-name="b" unicode="b" 
d="M657 1147q169 0 271 -112.5t102 -301.5v-342q0 -187 -102 -299t-271 -112q-116 0 -198 52.5t-111 145.5h-2v-178h-135v1495h135v-315l-2 -232h4q29 93 111 146t198 53zM895 395v334q0 142 -73 221.5t-201 79.5q-130 0 -202.5 -80t-72.5 -221v-334q0 -141 73 -220t202 -79
q128 0 201 79t73 220z" />
    <glyph glyph-name="c" unicode="c" 
d="M621 -20q-194 0 -308 112t-114 305v332q0 192 115 305t307 113q189 0 302.5 -105.5t114.5 -283.5h-135q-1 126 -76 196t-206 70q-133 0 -210 -78t-77 -217v-332q0 -139 77 -217t210 -78q131 0 206 70.5t76 196.5h135q-1 -178 -114.5 -283.5t-302.5 -105.5z" />
    <glyph glyph-name="d" unicode="d" 
d="M883 1180v315h135v-1495h-135v178h-2q-29 -93 -111 -145.5t-199 -52.5q-169 0 -270.5 112t-101.5 299v342q0 189 101.5 301.5t270.5 112.5q116 0 198.5 -53t111.5 -146h4zM608 96q129 0 202 79t73 220v334q0 141 -72.5 221t-202.5 80q-128 0 -201 -79.5t-73 -221.5v-334
q0 -141 73 -220t201 -79z" />
    <glyph glyph-name="e" unicode="e" 
d="M1030 729v-197h-698v-135q0 -142 74 -221.5t210 -79.5q109 0 180.5 48.5t96.5 136.5h135q-26 -139 -136.5 -220t-275.5 -81q-193 0 -305 113t-112 304v332q0 190 112.5 304t304.5 114q190 0 302 -114t112 -304zM332 729v-88h565v88q0 142 -73.5 222.5t-207.5 80.5
q-137 0 -210.5 -79.5t-73.5 -223.5z" />
    <glyph glyph-name="f" unicode="f" horiz-adv-x="1024" 
d="M500 0h-135v891h-256v121h256v215q0 126 76 197t210 71h258v-123h-258q-72 0 -111.5 -37.5t-39.5 -107.5v-215h409v-121h-409v-891z" />
    <glyph glyph-name="g" unicode="g" 
d="M883 932v194h135v-1161q0 -161 -91 -247.5t-261 -86.5h-320v123h322q215 0 215 211v113l2 223q-22 -105 -104 -164t-206 -59q-171 0 -272.5 111.5t-101.5 299.5v244q0 188 101.5 301t272.5 113q121 0 203 -57.5t105 -157.5zM608 195q129 0 202 79t73 220v235
q0 141 -72.5 221t-202.5 80q-128 0 -200 -79.5t-72 -221.5v-235q0 -141 72 -220t200 -79z" />
    <glyph glyph-name="h" unicode="h" 
d="M653 1147q168 0 268.5 -106t100.5 -287v-754h-135v737q0 139 -71 217t-195 78q-128 0 -201.5 -81t-73.5 -222v-729h-135v1495h135v-553h4q25 97 105 151t198 54z" />
    <glyph glyph-name="i" unicode="i" horiz-adv-x="1024" 
d="M535 1337q-60 0 -94.5 32t-34.5 87q0 56 34.5 88.5t94.5 32.5t94.5 -32.5t34.5 -88.5q0 -55 -34.5 -87t-94.5 -32zM911 0h-718v123h303v881h-265v122h400v-1003h280v-123z" />
    <glyph glyph-name="j" unicode="j" horiz-adv-x="819" 
d="M522 1337q-60 0 -94.5 32t-34.5 87q0 56 34.5 88.5t94.5 32.5t94.5 -32.5t34.5 -88.5q0 -55 -34.5 -87t-94.5 -32zM195 -369h-136v123h136q137 0 210.5 73.5t73.5 209.5v967h-362v122h497v-1089q0 -189 -112 -297.5t-307 -108.5z" />
    <glyph glyph-name="k" unicode="k" 
d="M352 0h-135v1495h135v-850h248l344 481h158l-379 -534l385 -592h-160l-346 524h-250v-524z" />
    <glyph glyph-name="l" unicode="l" horiz-adv-x="819" 
d="M750 0h-164q-141 0 -222 77.5t-81 215.5v1079h-244v123h379v-1202q0 -81 44 -125.5t124 -44.5h164v-123z" />
    <glyph glyph-name="m" unicode="m" horiz-adv-x="1638" 
d="M1143 1147q138 0 211 -74t73 -201v-872h-135v866q0 80 -51.5 126t-140.5 46q-95 0 -155 -47t-60 -125v-866h-129v866q0 79 -56.5 125.5t-146.5 46.5q-89 0 -147 -47t-58 -125v-866h-135v1126h123v-145h10q14 76 84 121t176 45q102 0 168.5 -44t93.5 -122h4
q15 74 90.5 120t180.5 46z" />
    <glyph glyph-name="n" unicode="n" 
d="M653 1147q168 0 268.5 -106t100.5 -287v-754h-135v737q0 139 -71 216t-195 77q-128 0 -201.5 -80t-73.5 -221v-729h-135v1126h135v-202q23 105 103.5 164t203.5 59z" />
    <glyph glyph-name="o" unicode="o" 
d="M614 -18q-191 0 -303 112.5t-112 304.5v328q0 192 112 305t303 113q190 0 303 -112.5t113 -303.5v-330q0 -192 -112 -304.5t-304 -112.5zM614 100q133 0 207 77.5t74 221.5v328q0 142 -74.5 220.5t-206.5 78.5t-206 -78.5t-74 -220.5v-328q0 -144 73.5 -221.5
t206.5 -77.5z" />
    <glyph glyph-name="p" unicode="p" 
d="M657 1147q169 0 271 -112.5t102 -299.5v-342q0 -188 -102 -300.5t-271 -112.5q-116 0 -198 52.5t-111 145.5h-4l2 -194v-353h-135v1495h135v-178h2q30 93 111 146t198 53zM895 397v334q0 141 -72.5 220t-201.5 79q-128 0 -201.5 -79.5t-73.5 -219.5v-334
q0 -142 73.5 -221.5t201.5 -79.5q129 0 201.5 79.5t72.5 221.5z" />
    <glyph glyph-name="q" unicode="q" 
d="M883 948v178h135v-1495h-135v316l2 231h-4q-29 -93 -111 -145.5t-199 -52.5q-169 0 -269.5 112t-100.5 301v342q0 188 100.5 300t269.5 112q116 0 198.5 -53t111.5 -146h2zM608 96q130 0 202.5 80t72.5 221v334q0 141 -73 220t-202 79q-128 0 -200 -79t-72 -220v-334
q0 -142 72 -221.5t200 -79.5z" />
    <glyph glyph-name="r" unicode="r" 
d="M686 1147q179 0 283 -111t104 -301v-73h-141v67q0 143 -72.5 222t-204.5 79t-203 -78t-71 -223v-729h-135v1126h135v-190q28 99 108 155t197 56z" />
    <glyph glyph-name="s" unicode="s" 
d="M682 -18h-117q-161 0 -265.5 82t-111.5 215h138q9 -78 75.5 -127.5t165.5 -49.5h117q109 0 171.5 52t62.5 141q0 82 -52 135.5t-143 67.5l-193 28q-154 23 -233.5 101.5t-79.5 208.5q0 145 98.5 227t270.5 82h82q160 0 259.5 -76t108.5 -203h-137q-6 71 -70 114.5
t-163 43.5h-82q-108 0 -170 -50t-62 -138q0 -75 51 -121.5t148 -61.5l188 -26q151 -23 230.5 -105t79.5 -215q0 -152 -96.5 -238.5t-270.5 -86.5z" />
    <glyph glyph-name="t" unicode="t" horiz-adv-x="1024" 
d="M827 0h-196q-134 0 -208.5 71.5t-74.5 200.5v732h-270v122h270v318h135v-318h377v-122h-377v-732q0 -71 39 -110t109 -39h196v-123z" />
    <glyph glyph-name="u" unicode="u" 
d="M612 -20q-188 0 -296.5 113t-108.5 308v725h135v-725q0 -142 72 -221.5t198 -79.5q128 0 201.5 79.5t73.5 221.5v725h135v-725q0 -195 -110.5 -308t-299.5 -113z" />
    <glyph glyph-name="v" unicode="v" 
d="M700 0h-172l-426 1126h142l309 -807q11 -28 21.5 -62.5t17 -58t14.5 -55.5t10 -41q40 150 66 217l305 807h139z" />
    <glyph glyph-name="w" unicode="w" 
d="M438 0h-162l-186 1126h121l129 -821q12 -74 22 -205h7q7 88 30 203l148 823h137l150 -823q15 -89 28 -203h6q5 70 23 205l131 821h117l-191 -1126h-162l-133 793q-34 210 -35 223h-6q-12 -108 -34 -223z" />
    <glyph glyph-name="x" unicode="x" 
d="M289 0h-156l402 578l-377 548h159l252 -385l47 -79q9 18 48 79l251 385h158l-377 -548l400 -578h-158l-270 406q-24 36 -54 86q-39 -65 -53 -86z" />
    <glyph glyph-name="y" unicode="y" 
d="M530 -369h-139l166 445l-422 1050h148l278 -708q43 -108 66 -187q60 177 65 189l258 706h144z" />
    <glyph glyph-name="z" unicode="z" 
d="M1028 0h-827v131l649 873h-633v122h787v-131l-658 -872h682v-123z" />
    <glyph glyph-name="braceleft" unicode="{" 
d="M1016 1579h-105q-97 0 -153 -53.5t-47 -145.5l37 -379q10 -104 -38 -172.5t-139 -87.5q90 -20 138.5 -92.5t38.5 -177.5l-37 -377q-9 -92 47 -145t153 -53h105v-121h-105q-165 0 -258 85t-78 234l37 377q11 112 -32 158.5t-172 46.5h-236v121h236q127 0 171 45t33 159
l-37 379q-15 149 78 234.5t258 85.5h105v-121z" />
    <glyph glyph-name="bar" unicode="|" 
d="M682 -225h-135v1925h135v-1925z" />
    <glyph glyph-name="braceright" unicode="}" 
d="M823 797h234v-121h-234q-128 0 -171 -46.5t-34 -158.5l33 -377q13 -150 -79.5 -234.5t-256.5 -84.5h-102v121h102q99 0 154.5 53t46.5 145l-33 377q-9 104 38 177t134 93q-88 21 -134.5 89t-37.5 171l33 379q9 92 -47 145.5t-154 53.5h-102v121h102q164 0 256.5 -85
t79.5 -235l-33 -379q-9 -114 34.5 -159t170.5 -45z" />
    <glyph glyph-name="asciitilde" unicode="~" 
d="M293 528h-125v150q0 110 64 176t171 66q57 0 104.5 -21t78 -52.5t60.5 -68t54 -68t57.5 -52.5t71.5 -21q51 0 79 34t28 95v149h125v-149q0 -110 -62 -176t-168 -66q-59 0 -107.5 21t-78.5 52.5t-60 68t-53.5 68t-56 52.5t-69.5 21q-54 0 -83.5 -33.5t-29.5 -95.5v-150z
" />
    <glyph glyph-name="uni2421" unicode="&#x2421;" 
d="M178 502h-117v493h117q69 0 111.5 -41t42.5 -108v-195q0 -67 -42.5 -108t-111.5 -41zM748 502h-273v493h273v-41h-228v-176h203v-39h-203v-196h228v-41zM1202 502h-278v493h45v-452h233v-41zM106 954v-411h72q50 0 79.5 28.5t29.5 79.5v195q0 51 -29.5 79.5t-79.5 28.5
h-72z" />
    <glyph glyph-name="uni2421" 
d="M178 502h-117v493h117q69 0 111.5 -41t42.5 -108v-195q0 -67 -42.5 -108t-111.5 -41zM748 502h-273v493h273v-41h-228v-176h203v-39h-203v-196h228v-41zM1202 502h-278v493h45v-452h233v-41zM106 954v-411h72q50 0 79.5 28.5t29.5 79.5v195q0 51 -29.5 79.5t-79.5 28.5
h-72z" />
    <glyph glyph-name="uni00A0" unicode="&#xa0;" horiz-adv-x="819" 
 />
    <glyph glyph-name="exclamdown" unicode="&#xa1;" horiz-adv-x="819" 
d="M418 903h-23q-54 0 -87.5 33t-33.5 86q0 52 33.5 83.5t87.5 31.5h23q54 0 87.5 -31.5t33.5 -83.5q0 -53 -33.5 -86t-87.5 -33zM492 -369h-162v299l37 768h88l37 -768v-299z" />
    <glyph glyph-name="cent" unicode="&#xa2;" 
d="M674 1020v-914q106 14 167 82.5t62 180.5h135q-1 -165 -99.5 -268.5t-264.5 -118.5v-269h-99v269q-174 12 -275 122.5t-101 292.5v332q0 180 101.5 291t274.5 125v268h99v-268q166 -15 264.5 -118.5t99.5 -268.5h-135q-1 112 -61.5 180t-167.5 82zM334 729v-332
q0 -126 64 -202.5t177 -90.5v918q-113 -14 -177 -90.5t-64 -202.5z" />
    <glyph glyph-name="sterling" unicode="&#xa3;" 
d="M295 121h801v-121h-942v143q94 62 170.5 161t76.5 194q0 73 -20 145h-227v121h178q-10 19 -43 78t-46 88t-27.5 84.5t-14.5 111.5q0 180 111 285t302 105q202 0 321 -104.5t122 -285.5h-139q0 124 -83 196.5t-223 72.5q-129 0 -202.5 -73t-73.5 -202q0 -52 14.5 -103
t30.5 -83.5t47 -86.5t45 -83h418v-121h-371q17 -70 17 -139q0 -118 -75 -222.5t-167 -160.5z" />
    <glyph glyph-name="currency" unicode="&#xa4;" 
d="M1122 348l-94 -96l-174 174q-103 -70 -238 -70t-239 74l-176 -174l-92 92l172 172q-78 108 -78 244q0 141 78 242l-177 176l95 96l178 -178q107 71 239 71q136 0 242 -73l174 174l92 -92l-174 -172q80 -107 80 -244q0 -131 -78 -244zM616 471q123 0 206 84t83 209
t-83 209t-206 84t-206.5 -84.5t-83.5 -208.5t83.5 -208.5t206.5 -84.5z" />
    <glyph glyph-name="yen" unicode="&#xa5;" 
d="M999 1495h140l-404 -819h371v-123h-424v-154h424v-123h-424v-276h-135v276h-424v123h424v154h-424v123h371l-404 819h139l322 -651q44 -89 65 -142q29 68 66 142z" />
    <glyph glyph-name="brokenbar" unicode="&#xa6;" 
d="M682 922h-135v778h135v-778zM682 -225h-135v778h135v-778z" />
    <glyph glyph-name="section" unicode="&#xa7;" 
d="M674 -317h-107q-157 0 -264.5 84.5t-124.5 220.5h139q15 -81 84 -133t166 -52h107q114 0 179 54.5t65 144.5q0 83 -53.5 143t-147.5 80l-207 47q-141 31 -224 120t-83 212q0 112 67.5 194.5t173.5 104.5v10q-41 5 -80.5 24t-75.5 52.5t-58.5 88.5t-22.5 122
q0 145 101.5 230.5t275.5 85.5h75q156 0 259 -78.5t120 -206.5h-139q-12 73 -78 118.5t-162 45.5h-75q-110 0 -175 -53t-65 -142q0 -76 54.5 -130t154.5 -77l203 -45q135 -31 215 -120t80 -212q0 -115 -67 -196.5t-173 -93.5v-13q41 -6 81.5 -27t77 -56.5t59 -91.5
t22.5 -124q0 -151 -101.5 -241t-275.5 -90zM532 395l150 -33q61 -14 115 15t86 89t32 134q0 83 -50 144.5t-132 80.5l-149 33q-94 22 -169 -53.5t-75 -186.5q0 -84 51 -143.5t141 -79.5z" />
    <glyph glyph-name="dieresis" unicode="&#xa8;" 
d="M391 1337q-53 0 -84 32t-31 87t31 88t84 33q54 0 85.5 -32.5t31.5 -88.5q0 -55 -31.5 -87t-85.5 -32zM838 1337q-54 0 -85.5 32t-31.5 87q0 56 31.5 88.5t85.5 32.5q52 0 83 -32.5t31 -88.5q0 -55 -30.5 -87t-83.5 -32z" />
    <glyph glyph-name="copyright" unicode="&#xa9;" 
d="M614 225q-232 0 -373 134.5t-141 357.5v307q0 223 141 357.5t373 134.5t373 -134.5t141 -357.5v-307q0 -223 -141 -357.5t-373 -134.5zM614 313q186 0 301 111.5t115 292.5v307q0 181 -115 292t-301 111t-300.5 -111t-114.5 -292v-307q0 -181 114.5 -292.5t300.5 -111.5z
M625 502q-109 0 -176.5 64.5t-67.5 170.5v267q0 106 67.5 170.5t176.5 64.5q108 0 174.5 -65t66.5 -170h-108q0 63 -36.5 102t-96.5 39q-61 0 -98.5 -39t-37.5 -102v-267q0 -63 37.5 -102t98.5 -39q60 0 96.5 39t36.5 102h108q0 -105 -66.5 -170t-174.5 -65z" />
    <glyph glyph-name="ordfeminine" unicode="&#xaa;" 
d="M625 1516q104 0 166.5 -50t62.5 -135v-399h-78v112h-6q-20 -55 -77.5 -88.5t-131.5 -33.5q-90 0 -143 47t-53 127q0 79 55 126.5t147 47.5h203v61q0 52 -39.5 83.5t-105.5 31.5q-57 0 -98 -26t-48 -68h-84q12 75 74 119.5t156 44.5zM588 987q83 0 132.5 40.5t49.5 109.5
v63h-203q-55 0 -86.5 -28t-31.5 -76q0 -51 37 -80t102 -29z" />
    <glyph glyph-name="guillemotleft" unicode="&#xab;" 
d="M670 82h-162l-422 491l422 492h162l-424 -487zM1143 82h-162l-422 491l424 492h160l-424 -487z" />
    <glyph glyph-name="logicalnot" unicode="&#xac;" 
d="M1085 432h-131v279h-811v120h942v-399z" />
    <glyph glyph-name="uni00AD" unicode="&#xad;" 
d="M942 616h-655v121h655v-121z" />
    <glyph glyph-name="registered" unicode="&#xae;" 
d="M614 225q-232 0 -373 134.5t-141 357.5v307q0 223 141 357.5t373 134.5t373 -134.5t141 -357.5v-307q0 -223 -141 -357.5t-373 -134.5zM199 1024v-307q0 -181 114.5 -292.5t300.5 -111.5t301 111.5t115 292.5v307q0 181 -115 292t-301 111t-300.5 -111t-114.5 -292z
M506 512h-105v717h224q103 0 165 -57.5t62 -153.5q0 -70 -34.5 -122t-94.5 -75l137 -309h-112l-125 293h-117v-293zM506 1139v-244h119q59 0 93 32t34 89q0 58 -34 90.5t-93 32.5h-119z" />
    <glyph glyph-name="macron" unicode="&#xaf;" 
d="M918 1389h-607v114h607v-114z" />
    <glyph glyph-name="degree" unicode="&#xb0;" 
d="M614 922q-135 0 -218 82t-83 215q0 135 83 216t218 81t218 -82t83 -215t-83 -215t-218 -82zM614 1012q89 0 143 57t54 150q0 94 -54 151t-143 57t-142.5 -57t-53.5 -151q0 -93 53.5 -150t142.5 -57z" />
    <glyph glyph-name="plusminus" unicode="&#xb1;" 
d="M1085 0h-942v113h402v516h-406v121h406v417h133v-417h412v-121h-412v-516h407v-113z" />
    <glyph glyph-name="uni00B2" unicode="&#xb2;" 
d="M926 829h-582v134l318 245q58 46 92 106.5t34 117.5q0 87 -48 137.5t-130 50.5t-130 -52t-48 -141h-113q3 135 81.5 214t209.5 79q134 0 211.5 -76t77.5 -206q0 -82 -47.5 -165.5t-130.5 -146.5l-256 -194h461v-103z" />
    <glyph glyph-name="uni00B3" unicode="&#xb3;" 
d="M819 1581l-198 -217q115 -9 183 -83t68 -191q0 -129 -78.5 -205t-211.5 -76q-134 0 -213.5 76t-79.5 205h110q0 -83 50 -132t133 -49q80 0 128 49t48 132t-48 132.5t-128 49.5h-60v110l199 217h-371v101h469v-119z" />
    <glyph glyph-name="acute" unicode="&#xb4;" 
d="M643 1321h-141l217 287h151z" />
    <glyph glyph-name="uni00B5" unicode="&#xb5;" 
d="M889 397v729h135v-1126h-133v178q-25 -94 -95.5 -146t-181.5 -52q-110 0 -178 51.5t-92 146.5l2 -194v-353h-135v1495h135v-729q0 -143 70.5 -222t197.5 -79q129 0 202 79.5t73 221.5z" />
    <glyph glyph-name="paragraph" unicode="&#xb6;" 
d="M668 -369h-127v1004q-164 0 -264.5 88.5t-100.5 234.5v213q0 146 100.5 235t264.5 89h127v-1864zM1016 -369h-127v1864h127v-1864z" />
    <glyph glyph-name="periodcentered" unicode="&#xb7;" 
d="M410 539q-72 0 -115 42.5t-43 114.5q0 73 43 116.5t115 43.5t114.5 -43.5t42.5 -116.5q0 -72 -42.5 -114.5t-114.5 -42.5z" />
    <glyph glyph-name="cedilla" unicode="&#xb8;" 
d="M594 -406h-168v89h156q46 0 76 23.5t30 55.5q0 45 -63 74t-168 29l71 188h99l-45 -123q40 -4 79 -16t74.5 -32t57.5 -53t22 -73q0 -69 -61.5 -115.5t-159.5 -46.5z" />
    <glyph glyph-name="uni00B9" unicode="&#xb9;" 
d="M930 829h-594v103h266v674l-250 -189v127l203 156h160v-768h215v-103z" />
    <glyph glyph-name="ordmasculine" unicode="&#xba;" 
d="M614 911q-102 0 -164.5 56t-62.5 147v195q0 91 62 146.5t165 55.5t165.5 -55.5t62.5 -146.5v-195q0 -91 -62.5 -147t-165.5 -56zM614 981q66 0 106 36.5t40 96.5v195q0 60 -40 96.5t-106 36.5t-105.5 -36.5t-39.5 -96.5v-195q0 -60 39.5 -96.5t105.5 -36.5z" />
    <glyph glyph-name="guillemotright" unicode="&#xbb;" 
d="M246 82h-160l420 491l-420 492h162l422 -492zM721 82h-160l420 491l-422 492h162l422 -492z" />
    <glyph glyph-name="onequarter" unicode="&#xbc;" 
d="M625 881l299 614h108l-727 -1495h-108l403 829h-539v91h244v505q-36 -42 -67 -69l-129 -111v125l145 125h156v-575h215v-39zM995 233v203h105v-436h-105v143h-364v152l266 371h117l-279 -400v-33h260z" />
    <glyph glyph-name="onehalf" unicode="&#xbd;" 
d="M643 920l281 575h108l-727 -1495h-108l403 829h-528v91h241v505q-36 -42 -67 -69l-127 -111v125l143 125h156v-575h225zM928 90h239v-90h-503v115l239 149q144 90 144 189q0 60 -37.5 96.5t-98.5 36.5q-64 0 -103.5 -39.5t-39.5 -104.5h-104q2 105 69.5 169.5t177.5 64.5
q107 0 173.5 -61t66.5 -158q0 -144 -186 -258l-170 -103v-12q111 6 133 6z" />
    <glyph glyph-name="threequarters" unicode="&#xbe;" 
d="M561 1040q0 -100 -68 -160.5t-178 -60.5q-112 0 -180.5 59t-68.5 156h104q0 -57 39.5 -91t105.5 -34q64 0 103 36t39 95q0 57 -38.5 91t-101.5 34h-61v101l174 139h-319v90h421v-100l-182 -150q96 -8 153.5 -63t57.5 -142zM197 0l727 1495h108l-727 -1495h-108zM995 233
v203h105v-436h-105v143h-364v152l266 371h117l-279 -400v-33h260z" />
    <glyph glyph-name="questiondown" unicode="&#xbf;" 
d="M707 905h-23q-54 0 -87.5 32.5t-33.5 84.5t33.5 84.5t87.5 32.5h23q55 0 87.5 -31.5t32.5 -85.5q0 -53 -32.5 -85t-87.5 -32zM909 -346h-250q-205 0 -325.5 110.5t-120.5 301.5q0 181 112 289.5t300 113.5v238h135v-355h-103q-143 0 -226 -76.5t-83 -209.5
q0 -134 84 -210.5t227 -76.5h250v-125z" />
    <glyph glyph-name="Agrave" unicode="&#xc0;" 
d="M713 1659h-146l-233 287h158zM262 0h-137l401 1495h176l402 -1495h-137l-109 418h-489zM543 1081l-144 -546h428l-143 546q-50 192 -70 303q-18 -98 -71 -303z" />
    <glyph glyph-name="Aacute" unicode="&#xc1;" 
d="M664 1659h-142l217 287h152zM262 0h-137l401 1495h176l402 -1495h-137l-109 418h-489zM543 1081l-144 -546h428l-143 546q-50 192 -70 303q-18 -98 -71 -303z" />
    <glyph glyph-name="Acircumflex" unicode="&#xc2;" 
d="M428 1659h-145l260 287h141l262 -287h-141l-191 199zM262 0h-137l401 1495h176l402 -1495h-137l-109 418h-489zM543 1081l-144 -546h428l-143 546q-50 192 -70 303q-18 -98 -71 -303z" />
    <glyph glyph-name="Atilde" unicode="&#xc3;" 
d="M764 1669q-44 0 -81 17.5t-62 42.5t-47.5 50t-47.5 42.5t-51 17.5q-40 0 -63 -24.5t-23 -67.5v-68h-102v68q0 89 49.5 138.5t134.5 49.5q44 0 81 -17.5t62 -42.5t47.5 -50t47.5 -42.5t51 -17.5q37 0 58.5 25t21.5 68v67h102v-67q0 -89 -48 -139t-130 -50zM262 0h-137
l401 1495h176l402 -1495h-137l-109 418h-489zM543 1081l-144 -546h428l-143 546q-50 192 -70 303q-18 -98 -71 -303z" />
    <glyph glyph-name="Adieresis" unicode="&#xc4;" 
d="M393 1683q-52 0 -83 32.5t-31 86.5q0 56 31 88.5t83 32.5q54 0 85.5 -32.5t31.5 -88.5q0 -54 -31.5 -86.5t-85.5 -32.5zM840 1683q-54 0 -85.5 32.5t-31.5 86.5q0 56 31.5 88.5t85.5 32.5q52 0 83 -32.5t31 -88.5q0 -54 -31 -86.5t-83 -32.5zM262 0h-137l401 1495h176
l402 -1495h-137l-109 418h-489zM543 1081l-144 -546h428l-143 546q-50 192 -70 303q-18 -98 -71 -303z" />
    <glyph glyph-name="Aring" unicode="&#xc5;" 
d="M616 1585q-103 0 -166 60t-63 157t63 157t166 60q101 0 163.5 -60t62.5 -157t-62.5 -157t-163.5 -60zM614 1673q58 0 93.5 35.5t35.5 93.5q0 59 -35.5 95t-93.5 36t-93.5 -36t-35.5 -95q0 -58 35.5 -93.5t93.5 -35.5zM262 0h-137l401 1495h176l402 -1495h-137l-109 418
h-489zM543 1081l-144 -546h428l-143 546q-50 192 -70 303q-18 -98 -71 -303z" />
    <glyph glyph-name="AE" unicode="&#xc6;" 
d="M203 0h-137l350 1495h749v-123h-405v-534h342v-123h-342v-592h405v-123h-536v430h-326zM520 1372l-188 -825h297v825h-109z" />
    <glyph glyph-name="Ccedilla" unicode="&#xc7;" 
d="M625 100q136 0 213 82.5t77 227.5h136q0 -192 -111.5 -309t-298.5 -121l-18 -50q40 -4 79 -16t74.5 -32t57.5 -53t22 -73q0 -69 -61.5 -115.5t-159.5 -46.5h-168v89h156q46 0 76 23.5t30 55.5q0 45 -63 74t-168 29l45 121q-159 23 -250.5 132.5t-91.5 278.5v701
q0 193 115 305.5t309 112.5q195 0 310.5 -117t115.5 -314h-136q0 145 -77.5 227.5t-212.5 82.5q-134 0 -211.5 -79t-77.5 -218v-701q0 -139 77 -218t212 -79z" />
    <glyph glyph-name="Egrave" unicode="&#xc8;" 
d="M754 1659h-146l-233 287h157zM1053 0h-824v1495h824v-123h-688v-530h616v-121h-616v-598h688v-123z" />
    <glyph glyph-name="Eacute" unicode="&#xc9;" 
d="M705 1659h-142l217 287h152zM1053 0h-824v1495h824v-123h-688v-530h616v-121h-616v-598h688v-123z" />
    <glyph glyph-name="Ecircumflex" unicode="&#xca;" 
d="M469 1659h-145l260 287h141l262 -287h-141l-191 199zM1053 0h-824v1495h824v-123h-688v-530h616v-121h-616v-598h688v-123z" />
    <glyph glyph-name="Edieresis" unicode="&#xcb;" 
d="M434 1683q-52 0 -83.5 32.5t-31.5 86.5q0 55 31 88t84 33q54 0 85.5 -32.5t31.5 -88.5q0 -54 -31.5 -86.5t-85.5 -32.5zM881 1683q-54 0 -85.5 32.5t-31.5 86.5q0 56 31.5 88.5t85.5 32.5q52 0 83 -32.5t31 -88.5q0 -54 -31 -86.5t-83 -32.5zM1053 0h-824v1495h824v-123
h-688v-530h616v-121h-616v-598h688v-123z" />
    <glyph glyph-name="Igrave" unicode="&#xcc;" 
d="M713 1659h-146l-233 287h158zM995 0h-762v123h314v1249h-314v123h762v-123h-311v-1249h311v-123z" />
    <glyph glyph-name="Iacute" unicode="&#xcd;" 
d="M664 1659h-142l217 287h152zM995 0h-762v123h314v1249h-314v123h762v-123h-311v-1249h311v-123z" />
    <glyph glyph-name="Icircumflex" unicode="&#xce;" 
d="M428 1659h-145l260 287h141l262 -287h-141l-191 199zM995 0h-762v123h314v1249h-314v123h762v-123h-311v-1249h311v-123z" />
    <glyph glyph-name="Idieresis" unicode="&#xcf;" 
d="M393 1683q-52 0 -83 32.5t-31 86.5q0 56 31 88.5t83 32.5q54 0 85.5 -32.5t31.5 -88.5q0 -54 -31.5 -86.5t-85.5 -32.5zM840 1683q-54 0 -85.5 32.5t-31.5 86.5q0 56 31.5 88.5t85.5 32.5q52 0 83 -32.5t31 -88.5q0 -54 -31 -86.5t-83 -32.5zM995 0h-762v123h314v1249
h-314v123h762v-123h-311v-1249h311v-123z" />
    <glyph glyph-name="Eth" unicode="&#xd0;" 
d="M211 1495h350q212 0 339.5 -123.5t127.5 -327.5v-593q0 -204 -127.5 -327.5t-339.5 -123.5h-350v707h-191v114h191v674zM893 451v593q0 150 -90.5 239t-241.5 89h-215v-551h248v-114h-248v-584h215q152 0 242 88.5t90 239.5z" />
    <glyph glyph-name="Ntilde" unicode="&#xd1;" 
d="M764 1669q-44 0 -81 17.5t-62 42.5t-47.5 50t-47.5 42.5t-51 17.5q-40 0 -63 -24.5t-23 -67.5v-68h-102v68q0 89 49.5 138.5t134.5 49.5q44 0 81 -17.5t62 -42.5t47.5 -50t47.5 -42.5t51 -17.5q37 0 58.5 25t21.5 68v67h102v-67q0 -89 -48 -139t-130 -50zM340 0h-131
v1495h182l512 -1341q-14 210 -14 317v1024h131v-1495h-182l-508 1341q10 -158 10 -317v-1024z" />
    <glyph glyph-name="Ograve" unicode="&#xd2;" 
d="M713 1659h-146l-233 287h158zM614 -20q-190 0 -301.5 112t-111.5 305v701q0 192 112 305t301 113t301.5 -113t112.5 -305v-701q0 -193 -111.5 -305t-302.5 -112zM614 100q132 0 205.5 77.5t73.5 219.5v701q0 141 -73.5 219t-205.5 78t-205 -78t-73 -219v-701
q0 -142 73 -219.5t205 -77.5z" />
    <glyph glyph-name="Oacute" unicode="&#xd3;" 
d="M664 1659h-142l217 287h152zM614 -20q-190 0 -301.5 112t-111.5 305v701q0 192 112 305t301 113t301.5 -113t112.5 -305v-701q0 -193 -111.5 -305t-302.5 -112zM614 100q132 0 205.5 77.5t73.5 219.5v701q0 141 -73.5 219t-205.5 78t-205 -78t-73 -219v-701
q0 -142 73 -219.5t205 -77.5z" />
    <glyph glyph-name="Ocircumflex" unicode="&#xd4;" 
d="M428 1659h-145l260 287h141l262 -287h-141l-191 199zM614 -20q-190 0 -301.5 112t-111.5 305v701q0 192 112 305t301 113t301.5 -113t112.5 -305v-701q0 -193 -111.5 -305t-302.5 -112zM614 100q132 0 205.5 77.5t73.5 219.5v701q0 141 -73.5 219t-205.5 78t-205 -78
t-73 -219v-701q0 -142 73 -219.5t205 -77.5z" />
    <glyph glyph-name="Otilde" unicode="&#xd5;" 
d="M764 1669q-44 0 -81 17.5t-62 42.5t-47.5 50t-47.5 42.5t-51 17.5q-40 0 -63 -24.5t-23 -67.5v-68h-102v68q0 89 49.5 138.5t134.5 49.5q44 0 81 -17.5t62 -42.5t47.5 -50t47.5 -42.5t51 -17.5q37 0 58.5 25t21.5 68v67h102v-67q0 -89 -48 -139t-130 -50zM614 -20
q-190 0 -301.5 112t-111.5 305v701q0 192 112 305t301 113t301.5 -113t112.5 -305v-701q0 -193 -111.5 -305t-302.5 -112zM614 100q132 0 205.5 77.5t73.5 219.5v701q0 141 -73.5 219t-205.5 78t-205 -78t-73 -219v-701q0 -142 73 -219.5t205 -77.5z" />
    <glyph glyph-name="Odieresis" unicode="&#xd6;" 
d="M393 1683q-52 0 -83 32.5t-31 86.5q0 56 31 88.5t83 32.5q54 0 85.5 -32.5t31.5 -88.5q0 -54 -31.5 -86.5t-85.5 -32.5zM840 1683q-54 0 -85.5 32.5t-31.5 86.5q0 56 31.5 88.5t85.5 32.5q52 0 83 -32.5t31 -88.5q0 -54 -31 -86.5t-83 -32.5zM614 -20q-190 0 -301.5 112
t-111.5 305v701q0 192 112 305t301 113t301.5 -113t112.5 -305v-701q0 -193 -111.5 -305t-302.5 -112zM614 100q132 0 205.5 77.5t73.5 219.5v701q0 141 -73.5 219t-205.5 78t-205 -78t-73 -219v-701q0 -142 73 -219.5t205 -77.5z" />
    <glyph glyph-name="multiply" unicode="&#xd7;" 
d="M612 590l-303 -303l-86 86l303 303l-303 303l86 84l303 -303l306 307l86 -86l-306 -305l303 -303l-88 -86z" />
    <glyph glyph-name="Oslash" unicode="&#xd8;" 
d="M1012 1536h127l-144 -254q33 -87 33 -184v-701q0 -193 -111.5 -305t-302.5 -112q-189 0 -299 110l-98 -172h-127l154 270q-43 87 -43 209v701q0 192 112 305t301 113q202 0 314 -127zM336 1098v-701q0 -31 2 -45l518 912q-67 131 -242 131q-132 0 -205 -78t-73 -219z
M893 397v701v6l-510 -893q72 -111 231 -111q132 0 205.5 77.5t73.5 219.5z" />
    <glyph glyph-name="Ugrave" unicode="&#xd9;" 
d="M713 1659h-146l-233 287h158zM616 -20q-191 0 -300 112t-109 305v1098h135v-1098q0 -141 71 -219t203 -78q129 0 200 79t71 218v1098h135v-1098q0 -193 -108 -305t-298 -112z" />
    <glyph glyph-name="Uacute" unicode="&#xda;" 
d="M664 1659h-142l217 287h152zM616 -20q-191 0 -300 112t-109 305v1098h135v-1098q0 -141 71 -219t203 -78q129 0 200 79t71 218v1098h135v-1098q0 -193 -108 -305t-298 -112z" />
    <glyph glyph-name="Ucircumflex" unicode="&#xdb;" 
d="M428 1659h-145l260 287h141l262 -287h-141l-191 199zM616 -20q-191 0 -300 112t-109 305v1098h135v-1098q0 -141 71 -219t203 -78q129 0 200 79t71 218v1098h135v-1098q0 -193 -108 -305t-298 -112z" />
    <glyph glyph-name="Udieresis" unicode="&#xdc;" 
d="M393 1683q-52 0 -83 32.5t-31 86.5q0 56 31 88.5t83 32.5q54 0 85.5 -32.5t31.5 -88.5q0 -54 -31.5 -86.5t-85.5 -32.5zM840 1683q-54 0 -85.5 32.5t-31.5 86.5q0 56 31.5 88.5t85.5 32.5q52 0 83 -32.5t31 -88.5q0 -54 -31 -86.5t-83 -32.5zM616 -20q-191 0 -300 112
t-109 305v1098h135v-1098q0 -141 71 -219t203 -78q129 0 200 79t71 218v1098h135v-1098q0 -193 -108 -305t-298 -112z" />
    <glyph glyph-name="Yacute" unicode="&#xdd;" 
d="M664 1659h-142l217 287h152zM682 0h-135v567l-457 928h139l322 -651q44 -89 65 -142q29 68 66 142l317 651h140l-457 -928v-567z" />
    <glyph glyph-name="Thorn" unicode="&#xde;" 
d="M338 0h-135v1495h135v-326h344q192 0 306 -106t114 -285q0 -180 -114 -285.5t-306 -105.5h-344v-387zM338 1049v-539h344q131 0 207 72t76 196q0 126 -76 198.5t-207 72.5h-344z" />
    <glyph glyph-name="germandbls" unicode="&#xdf;" 
d="M801 782q125 -28 195.5 -122t70.5 -234q0 -194 -117 -310t-317 -116h-131v123h123q144 -1 223.5 78t79.5 217q0 137 -79 213t-224 76h-86v118h84q126 0 201 78.5t75 204.5q0 133 -73 209t-203 76q-126 0 -201.5 -78.5t-75.5 -210.5v-1104h-135v1104q0 186 113 299
t299 113q192 0 302.5 -103t110.5 -283q0 -130 -63.5 -223.5t-171.5 -124.5z" />
    <glyph glyph-name="agrave" unicode="&#xe0;" 
d="M502 1608l221 -287h-145l-234 287h158zM623 1147q183 0 291 -102.5t108 -274.5v-770h-133v193q-25 -99 -119 -156t-233 -57q-175 0 -279 90.5t-104 244.5q0 150 98.5 239t263.5 89h371v125q0 123 -69 190.5t-195 67.5q-112 0 -187.5 -54t-89.5 -143h-135
q17 142 131.5 230t280.5 88zM571 92q140 0 228 71t88 185v187h-371q-103 0 -165 -57t-62 -152q0 -106 76.5 -170t205.5 -64z" />
    <glyph glyph-name="aacute" unicode="&#xe1;" 
d="M762 1608h151l-227 -287h-141zM623 1147q183 0 291 -102.5t108 -274.5v-770h-133v193q-25 -99 -119 -156t-233 -57q-175 0 -279 90.5t-104 244.5q0 150 98.5 239t263.5 89h371v125q0 123 -69 190.5t-195 67.5q-112 0 -187.5 -54t-89.5 -143h-135q17 142 131.5 230
t280.5 88zM571 92q140 0 228 71t88 185v187h-371q-103 0 -165 -57t-62 -152q0 -106 76.5 -170t205.5 -64z" />
    <glyph glyph-name="acircumflex" unicode="&#xe2;" 
d="M815 1321l-190 199l-187 -199h-145l260 287h141l262 -287h-141zM623 1147q183 0 291 -102.5t108 -274.5v-770h-133v193q-25 -99 -119 -156t-233 -57q-175 0 -279 90.5t-104 244.5q0 150 98.5 239t263.5 89h371v125q0 123 -69 190.5t-195 67.5q-112 0 -187.5 -54
t-89.5 -143h-135q17 142 131.5 230t280.5 88zM571 92q140 0 228 71t88 185v187h-371q-103 0 -165 -57t-62 -152q0 -106 76.5 -170t205.5 -64z" />
    <glyph glyph-name="atilde" unicode="&#xe3;" 
d="M399 1409v-68h-102v68q0 89 49.5 138.5t134.5 49.5q44 0 81 -17.5t62 -42.5t47.5 -50t47.5 -42.5t51 -17.5q37 0 58.5 25t21.5 68v67h102v-67q0 -89 -48 -139t-130 -50q-44 0 -81 17.5t-62 42.5t-47.5 50t-47.5 42.5t-51 17.5q-40 0 -63 -24.5t-23 -67.5zM623 1147
q183 0 291 -102.5t108 -274.5v-770h-133v193q-25 -99 -119 -156t-233 -57q-175 0 -279 90.5t-104 244.5q0 150 98.5 239t263.5 89h371v125q0 123 -69 190.5t-195 67.5q-112 0 -187.5 -54t-89.5 -143h-135q17 142 131.5 230t280.5 88zM571 92q140 0 228 71t88 185v187h-371
q-103 0 -165 -57t-62 -152q0 -106 76.5 -170t205.5 -64z" />
    <glyph glyph-name="adieresis" unicode="&#xe4;" 
d="M401 1337q-53 0 -83.5 32t-30.5 87q0 56 31 88.5t83 32.5q54 0 85.5 -32.5t31.5 -88.5q0 -55 -31.5 -87t-85.5 -32zM848 1337q-54 0 -85.5 32t-31.5 87q0 56 31.5 88.5t85.5 32.5q53 0 84 -33t31 -88t-31 -87t-84 -32zM623 1147q183 0 291 -102.5t108 -274.5v-770h-133
v193q-25 -99 -119 -156t-233 -57q-175 0 -279 90.5t-104 244.5q0 150 98.5 239t263.5 89h371v125q0 123 -69 190.5t-195 67.5q-112 0 -187.5 -54t-89.5 -143h-135q17 142 131.5 230t280.5 88zM571 92q140 0 228 71t88 185v187h-371q-103 0 -165 -57t-62 -152
q0 -106 76.5 -170t205.5 -64z" />
    <glyph glyph-name="aring" unicode="&#xe5;" 
d="M627 1253q-103 0 -166.5 60t-63.5 157t63.5 156.5t166.5 59.5q101 0 163 -59.5t62 -156.5t-62 -157t-163 -60zM625 1602q-58 0 -93.5 -36.5t-35.5 -95.5t35.5 -95t93.5 -36t93.5 36t35.5 95t-35.5 95.5t-93.5 36.5zM623 1147q183 0 291 -102.5t108 -274.5v-770h-133v193
q-25 -99 -119 -156t-233 -57q-175 0 -279 90.5t-104 244.5q0 150 98.5 239t263.5 89h371v125q0 123 -69 190.5t-195 67.5q-112 0 -187.5 -54t-89.5 -143h-135q17 142 131.5 230t280.5 88zM571 92q140 0 228 71t88 185v187h-371q-103 0 -165 -57t-62 -152q0 -106 76.5 -170
t205.5 -64z" />
    <glyph glyph-name="ae" unicode="&#xe6;" 
d="M352 -20q-127 0 -200.5 80.5t-73.5 215.5v107q0 123 76 195.5t208 72.5h195v180q0 91 -46.5 145t-125.5 54q-71 0 -116 -45.5t-50 -118.5h-131q6 128 81.5 204.5t199.5 76.5q108 0 172.5 -53t76.5 -119h5q14 65 77 118.5t164 53.5q132 0 209.5 -85.5t77.5 -230.5v-292
h-467v-244q0 -88 47.5 -142.5t124.5 -54.5q72 0 116.5 44.5t49.5 117.5h131q-8 -129 -83.5 -204.5t-201.5 -75.5q-108 0 -170.5 52t-74.5 118h-7q-12 -65 -80 -117.5t-184 -52.5zM684 831v-180h336v180q0 87 -46 143t-122 56q-74 0 -121 -56t-47 -143zM381 94
q77 0 126.5 56.5t49.5 144.5v244h-192q-69 0 -110.5 -43.5t-41.5 -112.5v-107q0 -80 46 -131t122 -51z" />
    <glyph glyph-name="ccedilla" unicode="&#xe7;" 
d="M621 102q131 0 206 70.5t76 196.5h135q-1 -178 -114.5 -283.5t-302.5 -105.5h-15l-18 -50q40 -4 79 -16t74.5 -32t57.5 -53t22 -73q0 -69 -61.5 -115.5t-159.5 -46.5h-168v89h156q46 0 76 23.5t30 55.5q0 45 -63.5 74t-167.5 29l47 125q-146 31 -228.5 137.5t-82.5 269.5
v332q0 192 115 305t307 113q189 0 302.5 -105.5t114.5 -283.5h-135q-1 126 -76 196t-206 70q-133 0 -210 -78t-77 -217v-332q0 -139 77 -217t210 -78z" />
    <glyph glyph-name="egrave" unicode="&#xe8;" 
d="M492 1608l221 -287h-146l-233 287h158zM1030 729v-197h-698v-135q0 -142 74 -221.5t210 -79.5q109 0 180.5 48.5t96.5 136.5h135q-26 -139 -136.5 -220t-275.5 -81q-193 0 -305 113t-112 304v332q0 190 112.5 304t304.5 114q190 0 302 -114t112 -304zM332 729v-88h565v88
q0 142 -73.5 222.5t-207.5 80.5q-137 0 -210.5 -79.5t-73.5 -223.5z" />
    <glyph glyph-name="eacute" unicode="&#xe9;" 
d="M752 1608h151l-227 -287h-141zM1030 729v-197h-698v-135q0 -142 74 -221.5t210 -79.5q109 0 180.5 48.5t96.5 136.5h135q-26 -139 -136.5 -220t-275.5 -81q-193 0 -305 113t-112 304v332q0 190 112.5 304t304.5 114q190 0 302 -114t112 -304zM332 729v-88h565v88
q0 142 -73.5 222.5t-207.5 80.5q-137 0 -210.5 -79.5t-73.5 -223.5z" />
    <glyph glyph-name="ecircumflex" unicode="&#xea;" 
d="M805 1321l-191 199l-186 -199h-145l260 287h141l262 -287h-141zM1030 729v-197h-698v-135q0 -142 74 -221.5t210 -79.5q109 0 180.5 48.5t96.5 136.5h135q-26 -139 -136.5 -220t-275.5 -81q-193 0 -305 113t-112 304v332q0 190 112.5 304t304.5 114q190 0 302 -114
t112 -304zM332 729v-88h565v88q0 142 -73.5 222.5t-207.5 80.5q-137 0 -210.5 -79.5t-73.5 -223.5z" />
    <glyph glyph-name="edieresis" unicode="&#xeb;" 
d="M391 1337q-53 0 -84 32t-31 87t31 88t84 33q54 0 85.5 -32.5t31.5 -88.5q0 -55 -31.5 -87t-85.5 -32zM838 1337q-54 0 -85.5 32t-31.5 87q0 56 31.5 88.5t85.5 32.5q52 0 83 -32.5t31 -88.5q0 -55 -30.5 -87t-83.5 -32zM1030 729v-197h-698v-135q0 -142 74 -221.5
t210 -79.5q109 0 180.5 48.5t96.5 136.5h135q-26 -139 -136.5 -220t-275.5 -81q-193 0 -305 113t-112 304v332q0 190 112.5 304t304.5 114q190 0 302 -114t112 -304zM332 729v-88h565v88q0 142 -73.5 222.5t-207.5 80.5q-137 0 -210.5 -79.5t-73.5 -223.5z" />
    <glyph glyph-name="igrave" unicode="&#xec;" horiz-adv-x="1024" 
d="M633 1321h-146l-233 287h158zM911 0h-718v123h303v881h-265v122h400v-1003h280v-123z" />
    <glyph glyph-name="iacute" unicode="&#xed;" horiz-adv-x="1024" 
d="M596 1321h-141l217 287h151zM911 0h-718v123h303v881h-265v122h400v-1003h280v-123z" />
    <glyph glyph-name="icircumflex" unicode="&#xee;" horiz-adv-x="1024" 
d="M348 1321h-145l260 287h141l262 -287h-141l-190 199zM911 0h-718v123h303v881h-265v122h400v-1003h280v-123z" />
    <glyph glyph-name="idieresis" unicode="&#xef;" horiz-adv-x="1024" 
d="M311 1337q-53 0 -83.5 32t-30.5 87q0 56 31 88.5t83 32.5q54 0 85.5 -32.5t31.5 -88.5q0 -55 -31.5 -87t-85.5 -32zM758 1337q-54 0 -85.5 32t-31.5 87q0 56 31.5 88.5t85.5 32.5q52 0 83 -32.5t31 -88.5q0 -55 -30.5 -87t-83.5 -32zM911 0h-718v123h303v881h-265v122
h400v-1003h280v-123z" />
    <glyph glyph-name="eth" unicode="&#xf0;" 
d="M614 -20q-207 0 -332.5 125.5t-125.5 334.5q0 206 117 329.5t313 123.5q94 0 170 -48t110 -108h17q-24 71 -160 260l-145 199l-338 -158v115l276 129l-156 213h168l109 -158l307 144v-115l-246 -115l150 -213q225 -316 225 -594q0 -211 -125 -337.5t-334 -126.5zM614 106
q145 0 231.5 92t86.5 244q0 147 -89 239.5t-229 92.5q-145 0 -231 -91t-86 -243t86 -243t231 -91z" />
    <glyph glyph-name="ntilde" unicode="&#xf1;" 
d="M399 1409v-68h-102v68q0 89 49.5 138.5t134.5 49.5q44 0 81 -17.5t62 -42.5t47.5 -50t47.5 -42.5t51 -17.5q37 0 58.5 25t21.5 68v67h102v-67q0 -89 -48 -139t-130 -50q-44 0 -81 17.5t-62 42.5t-47.5 50t-47.5 42.5t-51 17.5q-40 0 -63 -24.5t-23 -67.5zM653 1147
q168 0 268.5 -106t100.5 -287v-754h-135v737q0 139 -71 216t-195 77q-128 0 -201.5 -80t-73.5 -221v-729h-135v1126h135v-202q23 105 103.5 164t203.5 59z" />
    <glyph glyph-name="ograve" unicode="&#xf2;" 
d="M713 1321h-146l-233 287h158zM614 -18q-191 0 -303 112.5t-112 304.5v328q0 192 112 305t303 113q190 0 303 -112.5t113 -303.5v-330q0 -192 -112 -304.5t-304 -112.5zM614 100q133 0 207 77.5t74 221.5v328q0 142 -74.5 220.5t-206.5 78.5t-206 -78.5t-74 -220.5v-328
q0 -144 73.5 -221.5t206.5 -77.5z" />
    <glyph glyph-name="oacute" unicode="&#xf3;" 
d="M676 1321h-141l217 287h151zM614 -18q-191 0 -303 112.5t-112 304.5v328q0 192 112 305t303 113q190 0 303 -112.5t113 -303.5v-330q0 -192 -112 -304.5t-304 -112.5zM614 100q133 0 207 77.5t74 221.5v328q0 142 -74.5 220.5t-206.5 78.5t-206 -78.5t-74 -220.5v-328
q0 -144 73.5 -221.5t206.5 -77.5z" />
    <glyph glyph-name="ocircumflex" unicode="&#xf4;" 
d="M428 1321h-145l260 287h141l262 -287h-141l-191 199zM614 -18q-191 0 -303 112.5t-112 304.5v328q0 192 112 305t303 113q190 0 303 -112.5t113 -303.5v-330q0 -192 -112 -304.5t-304 -112.5zM614 100q133 0 207 77.5t74 221.5v328q0 142 -74.5 220.5t-206.5 78.5
t-206 -78.5t-74 -220.5v-328q0 -144 73.5 -221.5t206.5 -77.5z" />
    <glyph glyph-name="otilde" unicode="&#xf5;" 
d="M764 1331q-44 0 -81 17.5t-62 42.5t-47.5 50t-47.5 42.5t-51 17.5q-40 0 -63 -24.5t-23 -67.5v-68h-102v68q0 89 49.5 138.5t134.5 49.5q44 0 81 -17.5t62 -42.5t47.5 -50t47.5 -42.5t51 -17.5q37 0 58.5 25t21.5 68v67h102v-67q0 -89 -48 -139t-130 -50zM614 -18
q-191 0 -303 112.5t-112 304.5v328q0 192 112 305t303 113q190 0 303 -112.5t113 -303.5v-330q0 -192 -112 -304.5t-304 -112.5zM614 100q133 0 207 77.5t74 221.5v328q0 142 -74.5 220.5t-206.5 78.5t-206 -78.5t-74 -220.5v-328q0 -144 73.5 -221.5t206.5 -77.5z" />
    <glyph glyph-name="odieresis" unicode="&#xf6;" 
d="M391 1337q-53 0 -84 32t-31 87t31 88t84 33q54 0 85.5 -32.5t31.5 -88.5q0 -55 -31.5 -87t-85.5 -32zM838 1337q-54 0 -85.5 32t-31.5 87q0 56 31.5 88.5t85.5 32.5q52 0 83 -32.5t31 -88.5q0 -55 -30.5 -87t-83.5 -32zM614 -18q-191 0 -303 112.5t-112 304.5v328
q0 192 112 305t303 113q190 0 303 -112.5t113 -303.5v-330q0 -192 -112 -304.5t-304 -112.5zM614 100q133 0 207 77.5t74 221.5v328q0 142 -74.5 220.5t-206.5 78.5t-206 -78.5t-74 -220.5v-328q0 -144 73.5 -221.5t206.5 -77.5z" />
    <glyph glyph-name="divide" unicode="&#xf7;" 
d="M614 938q-71 0 -114 41t-43 108t43 108.5t114 41.5t114.5 -41.5t43.5 -108.5t-43.5 -108t-114.5 -41zM1024 621h-819v122h819v-122zM614 127q-71 0 -114 41t-43 108t43 108.5t114 41.5t114.5 -41.5t43.5 -108.5t-43.5 -108t-114.5 -41z" />
    <glyph glyph-name="oslash" unicode="&#xf8;" 
d="M993 1208h135l-165 -233q65 -103 65 -246v-332q0 -193 -111.5 -305t-302.5 -112q-174 0 -282 94l-96 -135h-136l158 225q-57 97 -57 233v332q0 192 112 305t301 113q167 0 275 -88zM332 729v-332q0 -64 14 -110l469 669q-72 72 -201 72q-133 0 -207.5 -79t-74.5 -220z
M897 397v332q0 69 -18 125l-473 -676q74 -80 208 -80q133 0 208 79t75 220z" />
    <glyph glyph-name="ugrave" unicode="&#xf9;" 
d="M713 1321h-146l-233 287h158zM612 -20q-188 0 -296.5 113t-108.5 308v725h135v-725q0 -142 72 -221.5t198 -79.5q128 0 201.5 79.5t73.5 221.5v725h135v-725q0 -195 -110.5 -308t-299.5 -113z" />
    <glyph glyph-name="uacute" unicode="&#xfa;" 
d="M676 1321h-141l217 287h151zM612 -20q-188 0 -296.5 113t-108.5 308v725h135v-725q0 -142 72 -221.5t198 -79.5q128 0 201.5 79.5t73.5 221.5v725h135v-725q0 -195 -110.5 -308t-299.5 -113z" />
    <glyph glyph-name="ucircumflex" unicode="&#xfb;" 
d="M428 1321h-145l260 287h141l262 -287h-141l-191 199zM612 -20q-188 0 -296.5 113t-108.5 308v725h135v-725q0 -142 72 -221.5t198 -79.5q128 0 201.5 79.5t73.5 221.5v725h135v-725q0 -195 -110.5 -308t-299.5 -113z" />
    <glyph glyph-name="udieresis" unicode="&#xfc;" 
d="M391 1337q-53 0 -84 32t-31 87t31 88t84 33q54 0 85.5 -32.5t31.5 -88.5q0 -55 -31.5 -87t-85.5 -32zM838 1337q-54 0 -85.5 32t-31.5 87q0 56 31.5 88.5t85.5 32.5q52 0 83 -32.5t31 -88.5q0 -55 -30.5 -87t-83.5 -32zM612 -20q-188 0 -296.5 113t-108.5 308v725h135
v-725q0 -142 72 -221.5t198 -79.5q128 0 201.5 79.5t73.5 221.5v725h135v-725q0 -195 -110.5 -308t-299.5 -113z" />
    <glyph glyph-name="yacute" unicode="&#xfd;" 
d="M676 1321h-141l217 287h151zM530 -369h-139l166 445l-422 1050h148l278 -708q43 -108 66 -187q60 177 65 189l258 706h144z" />
    <glyph glyph-name="thorn" unicode="&#xfe;" 
d="M653 1147q169 0 271 -112.5t102 -301.5v-342q0 -187 -102 -299t-271 -112q-116 0 -198 52.5t-111 145.5h-2v-538h-135v1855h135v-315l-2 -232h4q29 93 111 146t198 53zM891 395v334q0 142 -73.5 221.5t-201.5 79.5q-130 0 -202 -79.5t-72 -221.5v-334q0 -141 72.5 -220
t201.5 -79q128 0 201.5 79.5t73.5 219.5z" />
    <glyph glyph-name="ydieresis" unicode="&#xff;" 
d="M391 1337q-53 0 -84 32t-31 87t31 88t84 33q54 0 85.5 -32.5t31.5 -88.5q0 -55 -31.5 -87t-85.5 -32zM838 1337q-54 0 -85.5 32t-31.5 87q0 56 31.5 88.5t85.5 32.5q52 0 83 -32.5t31 -88.5q0 -55 -30.5 -87t-83.5 -32zM530 -369h-139l166 445l-422 1050h148l278 -708
q43 -108 66 -187q60 177 65 189l258 706h144z" />
    <glyph glyph-name="Amacron" unicode="&#x100;" 
d="M918 1737h-607v114h607v-114zM262 0h-137l401 1495h176l402 -1495h-137l-109 418h-489zM543 1081l-144 -546h428l-143 546q-50 192 -70 303q-18 -98 -71 -303z" />
    <glyph glyph-name="amacron" unicode="&#x101;" 
d="M322 1503h606v-114h-606v114zM623 1147q183 0 291 -102.5t108 -274.5v-770h-133v193q-25 -99 -119 -156t-233 -57q-175 0 -279 90.5t-104 244.5q0 150 98.5 239t263.5 89h371v125q0 123 -69 190.5t-195 67.5q-112 0 -187.5 -54t-89.5 -143h-135q17 142 131.5 230
t280.5 88zM571 92q140 0 228 71t88 185v187h-371q-103 0 -165 -57t-62 -152q0 -106 76.5 -170t205.5 -64z" />
    <glyph glyph-name="Abreve" unicode="&#x102;" 
d="M614 1653q-141 0 -225 79.5t-84 213.5h113q0 -91 52.5 -144t141.5 -53q91 0 145 53t54 144h113q0 -133 -84.5 -213t-225.5 -80zM262 0h-137l401 1495h176l402 -1495h-137l-109 418h-489zM543 1081l-144 -546h428l-143 546q-50 192 -70 303q-18 -98 -71 -303z" />
    <glyph glyph-name="abreve" unicode="&#x103;" 
d="M625 1315q-141 0 -225.5 80t-84.5 213h113q0 -91 53 -144t142 -53q91 0 144.5 53t53.5 144h113q0 -134 -84 -213.5t-225 -79.5zM623 1147q183 0 291 -102.5t108 -274.5v-770h-133v193q-25 -99 -119 -156t-233 -57q-175 0 -279 90.5t-104 244.5q0 150 98.5 239t263.5 89
h371v125q0 123 -69 190.5t-195 67.5q-112 0 -187.5 -54t-89.5 -143h-135q17 142 131.5 230t280.5 88zM571 92q140 0 228 71t88 185v187h-371q-103 0 -165 -57t-62 -152q0 -106 76.5 -170t205.5 -64z" />
    <glyph glyph-name="Aogonek" unicode="&#x104;" 
d="M1055 -305h127v-101h-154q-95 0 -152 47.5t-57 127.5q0 120 148 235l-109 414h-489l-107 -418h-137l401 1495h176l402 -1495h-31q-127 -115 -127 -203q0 -46 29.5 -74t79.5 -28zM543 1081l-144 -546h428l-143 546q-50 192 -70 303q-18 -98 -71 -303z" />
    <glyph glyph-name="aogonek" unicode="&#x105;" 
d="M1004 -305h126v-101h-153q-96 0 -152.5 47.5t-56.5 127.5q0 118 143 231h-22v193q-25 -99 -119 -156t-233 -57q-175 0 -279 90.5t-104 244.5q0 150 98.5 239t263.5 89h371v125q0 123 -69 190.5t-195 67.5q-112 0 -187.5 -54t-89.5 -143h-135q17 142 131.5 230t280.5 88
q183 0 291 -102.5t108 -274.5v-770q-127 -112 -127 -203q0 -46 29.5 -74t79.5 -28zM571 92q140 0 228 71t88 185v187h-371q-103 0 -165 -57t-62 -152q0 -106 76.5 -170t205.5 -64z" />
    <glyph glyph-name="Cacute" unicode="&#x106;" 
d="M674 1659h-142l218 287h151zM625 -20q-194 0 -309 112.5t-115 304.5v701q0 193 115 305.5t309 112.5q195 0 310.5 -117t115.5 -314h-136q0 145 -77.5 227.5t-212.5 82.5q-134 0 -211.5 -79t-77.5 -218v-701q0 -139 77 -218t212 -79q136 0 213 82.5t77 227.5h136
q0 -197 -115.5 -313.5t-310.5 -116.5z" />
    <glyph glyph-name="cacute" unicode="&#x107;" 
d="M682 1321h-141l217 287h151zM621 -20q-194 0 -308 112t-114 305v332q0 192 115 305t307 113q189 0 302.5 -105.5t114.5 -283.5h-135q-1 126 -76 196t-206 70q-133 0 -210 -78t-77 -217v-332q0 -139 77 -217t210 -78q131 0 206 70.5t76 196.5h135q-1 -178 -114.5 -283.5
t-302.5 -105.5z" />
    <glyph glyph-name="Ccircumflex" unicode="&#x108;" 
d="M438 1659h-145l260 287h141l262 -287h-141l-190 199zM625 -20q-194 0 -309 112.5t-115 304.5v701q0 193 115 305.5t309 112.5q195 0 310.5 -117t115.5 -314h-136q0 145 -77.5 227.5t-212.5 82.5q-134 0 -211.5 -79t-77.5 -218v-701q0 -139 77 -218t212 -79
q136 0 213 82.5t77 227.5h136q0 -197 -115.5 -313.5t-310.5 -116.5z" />
    <glyph glyph-name="ccircumflex" unicode="&#x109;" 
d="M432 1321h-145l262 287h141l262 -287h-141l-190 199zM621 -20q-194 0 -308 112t-114 305v332q0 192 115 305t307 113q189 0 302.5 -105.5t114.5 -283.5h-135q-1 126 -76 196t-206 70q-133 0 -210 -78t-77 -217v-332q0 -139 77 -217t210 -78q131 0 206 70.5t76 196.5h135
q-1 -178 -114.5 -283.5t-302.5 -105.5z" />
    <glyph glyph-name="Cdotaccent" unicode="&#x10a;" 
d="M625 1681q-59 0 -94 33t-35 88t35 88t94 33t94 -33t35 -88t-35 -88t-94 -33zM625 -20q-194 0 -309 112.5t-115 304.5v701q0 193 115 305.5t309 112.5q195 0 310.5 -117t115.5 -314h-136q0 145 -77.5 227.5t-212.5 82.5q-134 0 -211.5 -79t-77.5 -218v-701q0 -139 77 -218
t212 -79q136 0 213 82.5t77 227.5h136q0 -197 -115.5 -313.5t-310.5 -116.5z" />
    <glyph glyph-name="cdotaccent" unicode="&#x10b;" 
d="M621 1337q-60 0 -94.5 32t-34.5 87q0 56 34.5 88.5t94.5 32.5q59 0 94 -33t35 -88t-35 -87t-94 -32zM621 -20q-194 0 -308 112t-114 305v332q0 192 115 305t307 113q189 0 302.5 -105.5t114.5 -283.5h-135q-1 126 -76 196t-206 70q-133 0 -210 -78t-77 -217v-332
q0 -139 77 -217t210 -78q131 0 206 70.5t76 196.5h135q-1 -178 -114.5 -283.5t-302.5 -105.5z" />
    <glyph glyph-name="Ccaron" unicode="&#x10c;" 
d="M696 1659h-141l-262 287h143l191 -199l188 199h141zM625 -20q-194 0 -309 112.5t-115 304.5v701q0 193 115 305.5t309 112.5q195 0 310.5 -117t115.5 -314h-136q0 145 -77.5 227.5t-212.5 82.5q-134 0 -211.5 -79t-77.5 -218v-701q0 -139 77 -218t212 -79q136 0 213 82.5
t77 227.5h136q0 -197 -115.5 -313.5t-310.5 -116.5z" />
    <glyph glyph-name="ccaron" unicode="&#x10d;" 
d="M692 1321h-141l-262 287h143l191 -199l188 199h141zM621 -20q-194 0 -308 112t-114 305v332q0 192 115 305t307 113q189 0 302.5 -105.5t114.5 -283.5h-135q-1 126 -76 196t-206 70q-133 0 -210 -78t-77 -217v-332q0 -139 77 -217t210 -78q131 0 206 70.5t76 196.5h135
q-1 -178 -114.5 -283.5t-302.5 -105.5z" />
    <glyph glyph-name="Dcaron" unicode="&#x10e;" 
d="M686 1659h-141l-262 287h143l190 -199l189 199h141zM561 0h-350v1495h350q212 0 339.5 -123.5t127.5 -327.5v-593q0 -204 -127.5 -327.5t-339.5 -123.5zM346 1372v-1249h215q152 0 242 88.5t90 239.5v593q0 150 -90.5 239t-241.5 89h-215z" />
    <glyph glyph-name="dcaron" unicode="&#x10f;" 
d="M797 948l-2 232v315h135v-1495h-135v178q-27 -93 -101.5 -145.5t-185.5 -52.5q-159 0 -252.5 110t-93.5 297v350q0 189 93.5 299.5t252.5 110.5q111 0 185.5 -53t101.5 -146h2zM1044 1126l13 369h135l-27 -369h-121zM545 96q117 0 183.5 79t66.5 216v342
q0 138 -66.5 217.5t-183.5 79.5q-115 0 -181.5 -79.5t-66.5 -217.5v-342q0 -137 66.5 -216t181.5 -79z" />
    <glyph glyph-name="Dcroat" unicode="&#x110;" 
d="M211 1495h350q212 0 339.5 -123.5t127.5 -327.5v-593q0 -204 -127.5 -327.5t-339.5 -123.5h-350v707h-191v114h191v674zM893 451v593q0 150 -90.5 239t-241.5 89h-215v-551h248v-114h-248v-584h215q152 0 242 88.5t90 239.5z" />
    <glyph glyph-name="dcroat" unicode="&#x111;" 
d="M1016 1305h201v-117h-201v-1188h-135v178h-2q-28 -92 -109.5 -145t-198.5 -53q-169 0 -268.5 111.5t-99.5 299.5v219q0 189 99.5 301.5t268.5 112.5q116 0 197.5 -53t110.5 -146h4l-2 232v131h-357v117h357v190h135v-190zM608 96q129 0 201 79t72 220v211
q0 142 -71.5 221.5t-201.5 79.5q-128 0 -199 -79.5t-71 -221.5v-211q0 -141 71.5 -220t198.5 -79z" />
    <glyph glyph-name="Emacron" unicode="&#x112;" 
d="M958 1737h-606v114h606v-114zM1053 0h-824v1495h824v-123h-688v-530h616v-121h-616v-598h688v-123z" />
    <glyph glyph-name="emacron" unicode="&#x113;" 
d="M311 1503h607v-114h-607v114zM1030 729v-197h-698v-135q0 -142 74 -221.5t210 -79.5q109 0 180.5 48.5t96.5 136.5h135q-26 -139 -136.5 -220t-275.5 -81q-193 0 -305 113t-112 304v332q0 190 112.5 304t304.5 114q190 0 302 -114t112 -304zM332 729v-88h565v88
q0 142 -73.5 222.5t-207.5 80.5q-137 0 -210.5 -79.5t-73.5 -223.5z" />
    <glyph glyph-name="Ebreve" unicode="&#x114;" 
d="M655 1653q-141 0 -225 79.5t-84 213.5h113q0 -91 52.5 -144t141.5 -53q91 0 145 53t54 144h113q0 -133 -84.5 -213t-225.5 -80zM1053 0h-824v1495h824v-123h-688v-530h616v-121h-616v-598h688v-123z" />
    <glyph glyph-name="ebreve" unicode="&#x115;" 
d="M614 1315q-141 0 -225 79.5t-84 213.5h113q0 -91 52.5 -144t141.5 -53q91 0 145 53t54 144h113q0 -133 -84.5 -213t-225.5 -80zM1030 729v-197h-698v-135q0 -142 74 -221.5t210 -79.5q109 0 180.5 48.5t96.5 136.5h135q-26 -139 -136.5 -220t-275.5 -81q-193 0 -305 113
t-112 304v332q0 190 112.5 304t304.5 114q190 0 302 -114t112 -304zM332 729v-88h565v88q0 142 -73.5 222.5t-207.5 80.5q-137 0 -210.5 -79.5t-73.5 -223.5z" />
    <glyph glyph-name="Edotaccent" unicode="&#x116;" 
d="M655 1681q-59 0 -94 33t-35 88t35 88t94 33t94 -33t35 -88t-35 -88t-94 -33zM1053 0h-824v1495h824v-123h-688v-530h616v-121h-616v-598h688v-123z" />
    <glyph glyph-name="edotaccent" unicode="&#x117;" 
d="M614 1337q-60 0 -94.5 32t-34.5 87q0 56 34.5 88.5t94.5 32.5t94.5 -32.5t34.5 -88.5q0 -55 -34.5 -87t-94.5 -32zM1030 729v-197h-698v-135q0 -142 74 -221.5t210 -79.5q109 0 180.5 48.5t96.5 136.5h135q-26 -139 -136.5 -220t-275.5 -81q-193 0 -305 113t-112 304v332
q0 190 112.5 304t304.5 114q190 0 302 -114t112 -304zM332 729v-88h565v88q0 142 -73.5 222.5t-207.5 80.5q-137 0 -210.5 -79.5t-73.5 -223.5z" />
    <glyph glyph-name="Eogonek" unicode="&#x118;" 
d="M936 -305h127v-101h-154q-96 0 -152.5 47.5t-56.5 127.5q0 117 144 231h-615v1495h824v-123h-688v-530h616v-121h-616v-598h688v-123h-99q-127 -112 -127 -203q0 -46 29.5 -74t79.5 -28z" />
    <glyph glyph-name="eogonek" unicode="&#x119;" 
d="M1028 729v-197h-694v-135q0 -142 73.5 -221.5t208.5 -79.5q109 0 179.5 48t93.5 137h135q-27 -158 -164 -240l-47 -41q-127 -112 -127 -203q0 -46 29 -74t78 -28h129v-101h-154q-96 0 -152.5 47.5t-56.5 127.5q0 101 125 217q-30 -6 -68 -6q-193 0 -304 113t-111 304v332
q0 190 111.5 304t303.5 114q189 0 300.5 -114t111.5 -304zM334 729v-88h561v88q0 142 -72.5 222.5t-206.5 80.5q-137 0 -209.5 -79.5t-72.5 -223.5z" />
    <glyph glyph-name="Ecaron" unicode="&#x11a;" 
d="M727 1659h-141l-262 287h143l190 -199l189 199h141zM1053 0h-824v1495h824v-123h-688v-530h616v-121h-616v-598h688v-123z" />
    <glyph glyph-name="ecaron" unicode="&#x11b;" 
d="M946 1608l-260 -287h-141l-262 287h143l190 -199l189 199h141zM1030 729v-197h-698v-135q0 -142 74 -221.5t210 -79.5q109 0 180.5 48.5t96.5 136.5h135q-26 -139 -136.5 -220t-275.5 -81q-193 0 -305 113t-112 304v332q0 190 112.5 304t304.5 114q190 0 302 -114
t112 -304zM332 729v-88h565v88q0 142 -73.5 222.5t-207.5 80.5q-137 0 -210.5 -79.5t-73.5 -223.5z" />
    <glyph glyph-name="Gcircumflex" unicode="&#x11c;" 
d="M434 1659h-145l262 287h141l262 -287h-141l-190 199zM625 -20q-194 0 -309 112.5t-115 304.5v701q0 193 115 305.5t309 112.5q195 0 310.5 -117t115.5 -314h-136q0 145 -77.5 227.5t-212.5 82.5q-134 0 -211.5 -79t-77.5 -218v-701q0 -139 77 -218t212 -79
q136 0 213 82.5t77 227.5v208h-333v123h469v-331q0 -197 -115.5 -313.5t-310.5 -116.5z" />
    <glyph glyph-name="gcircumflex" unicode="&#x11d;" 
d="M799 1321l-191 199l-186 -199h-146l261 287h141l262 -287h-141zM883 932v194h135v-1161q0 -161 -91 -247.5t-261 -86.5h-320v123h322q215 0 215 211v113l2 223q-22 -105 -104 -164t-206 -59q-171 0 -272.5 111.5t-101.5 299.5v244q0 188 101.5 301t272.5 113
q121 0 203 -57.5t105 -157.5zM608 195q129 0 202 79t73 220v235q0 141 -72.5 221t-202.5 80q-128 0 -200 -79.5t-72 -221.5v-235q0 -141 72 -220t200 -79z" />
    <glyph glyph-name="Gbreve" unicode="&#x11e;" 
d="M623 1653q-141 0 -225.5 80t-84.5 213h113q0 -91 53 -144t142 -53t142.5 53.5t53.5 143.5h115q0 -133 -84.5 -213t-224.5 -80zM625 -20q-194 0 -309 112.5t-115 304.5v701q0 193 115 305.5t309 112.5q195 0 310.5 -117t115.5 -314h-136q0 145 -77.5 227.5t-212.5 82.5
q-134 0 -211.5 -79t-77.5 -218v-701q0 -139 77 -218t212 -79q136 0 213 82.5t77 227.5v208h-333v123h469v-331q0 -197 -115.5 -313.5t-310.5 -116.5z" />
    <glyph glyph-name="gbreve" unicode="&#x11f;" 
d="M608 1315q-141 0 -225 79.5t-84 213.5h113q0 -91 52.5 -144t141.5 -53q91 0 145 53t54 144h113q0 -133 -84.5 -213t-225.5 -80zM883 932v194h135v-1161q0 -161 -91 -247.5t-261 -86.5h-320v123h322q215 0 215 211v113l2 223q-22 -105 -104 -164t-206 -59
q-171 0 -272.5 111.5t-101.5 299.5v244q0 188 101.5 301t272.5 113q121 0 203 -57.5t105 -157.5zM608 195q129 0 202 79t73 220v235q0 141 -72.5 221t-202.5 80q-128 0 -200 -79.5t-72 -221.5v-235q0 -141 72 -220t200 -79z" />
    <glyph glyph-name="Gdotaccent" unicode="&#x120;" 
d="M623 1681q-60 0 -95.5 33.5t-35.5 87.5t35.5 87.5t95.5 33.5q58 0 93.5 -33.5t35.5 -87.5t-35.5 -87.5t-93.5 -33.5zM625 -20q-194 0 -309 112.5t-115 304.5v701q0 193 115 305.5t309 112.5q195 0 310.5 -117t115.5 -314h-136q0 145 -77.5 227.5t-212.5 82.5
q-134 0 -211.5 -79t-77.5 -218v-701q0 -139 77 -218t212 -79q136 0 213 82.5t77 227.5v208h-333v123h469v-331q0 -197 -115.5 -313.5t-310.5 -116.5z" />
    <glyph glyph-name="gdotaccent" unicode="&#x121;" 
d="M608 1337q-60 0 -94.5 32t-34.5 87q0 56 34.5 88.5t94.5 32.5t94.5 -32.5t34.5 -88.5q0 -55 -34.5 -87t-94.5 -32zM883 932v194h135v-1161q0 -161 -91 -247.5t-261 -86.5h-320v123h322q215 0 215 211v113l2 223q-22 -105 -104 -164t-206 -59q-171 0 -272.5 111.5
t-101.5 299.5v244q0 188 101.5 301t272.5 113q121 0 203 -57.5t105 -157.5zM608 195q129 0 202 79t73 220v235q0 141 -72.5 221t-202.5 80q-128 0 -200 -79.5t-72 -221.5v-235q0 -141 72 -220t200 -79z" />
    <glyph glyph-name="uni0122" unicode="&#x122;" 
d="M625 -20q-194 0 -309 112.5t-115 304.5v701q0 193 115 305.5t309 112.5q195 0 310.5 -117t115.5 -314h-136q0 145 -77.5 227.5t-212.5 82.5q-134 0 -211.5 -79t-77.5 -218v-701q0 -139 77 -218t212 -79q136 0 213 82.5t77 227.5v208h-333v123h469v-331
q0 -197 -115.5 -313.5t-310.5 -116.5zM569 -492h-139l188 297h166z" />
    <glyph glyph-name="uni0123" unicode="&#x123;" 
d="M709 1802h116l-182 -481h-182zM883 932v194h135v-1161q0 -161 -91 -247.5t-261 -86.5h-320v123h322q215 0 215 211v113l2 223q-22 -105 -104 -164t-206 -59q-171 0 -272.5 111.5t-101.5 299.5v244q0 188 101.5 301t272.5 113q121 0 203 -57.5t105 -157.5zM608 195
q129 0 202 79t73 220v235q0 141 -72.5 221t-202.5 80q-128 0 -200 -79.5t-72 -221.5v-235q0 -141 72 -220t200 -79z" />
    <glyph glyph-name="Hcircumflex" unicode="&#x124;" 
d="M428 1659h-145l260 287h141l262 -287h-141l-191 199zM346 0h-135v1495h135v-659h537v659h135v-1495h-135v713h-537v-713z" />
    <glyph glyph-name="hcircumflex" unicode="&#x125;" 
d="M639 1649h-141l-191 198l-186 -198h-146l261 286h141zM653 1147q168 0 268.5 -106t100.5 -287v-754h-135v737q0 139 -71 217t-195 78q-128 0 -201.5 -81t-73.5 -222v-729h-135v1495h135v-553h4q25 97 105 151t198 54z" />
    <glyph glyph-name="Hbar" unicode="&#x126;" 
d="M1018 1208h190v-114h-190v-1094h-135v713h-537v-713h-135v1094h-191v114h191v287h135v-287h537v287h135v-287zM346 836h537v258h-537v-258z" />
    <glyph glyph-name="hbar" unicode="&#x127;" 
d="M211 1188h-201v117h201v190h135v-190h356v-117h-356v-369h6q25 97 104 151t197 54q168 0 268.5 -106t100.5 -287v-631h-135v614q0 139 -71 217t-195 78q-128 0 -201.5 -81t-73.5 -222v-606h-135v1188z" />
    <glyph glyph-name="Itilde" unicode="&#x128;" 
d="M764 1669q-44 0 -81 17.5t-62 42.5t-47.5 50t-47.5 42.5t-51 17.5q-40 0 -63 -24.5t-23 -67.5v-68h-102v68q0 89 49.5 138.5t134.5 49.5q44 0 81 -17.5t62 -42.5t47.5 -50t47.5 -42.5t51 -17.5q37 0 58.5 25t21.5 68v67h102v-67q0 -89 -48 -139t-130 -50zM995 0h-762v123
h314v1249h-314v123h762v-123h-311v-1249h311v-123z" />
    <glyph glyph-name="itilde" unicode="&#x129;" 
d="M684 1331q-44 0 -80.5 17.5t-61.5 42.5t-47.5 50t-47.5 42.5t-52 17.5q-39 0 -62.5 -25t-23.5 -67v-68h-102v68q0 89 49.5 138.5t134.5 49.5q44 0 81 -17.5t62 -42.5t47.5 -50t47.5 -42.5t51 -17.5q37 0 58.5 25t21.5 68v67h102v-67q0 -89 -47.5 -139t-130.5 -50zM911 0
h-718v123h303v881h-265v122h400v-1003h280v-123z" />
    <glyph glyph-name="Imacron" unicode="&#x12a;" 
d="M918 1737h-607v114h607v-114zM995 0h-762v123h314v1249h-314v123h762v-123h-311v-1249h311v-123z" />
    <glyph glyph-name="imacron" unicode="&#x12b;" horiz-adv-x="1024" 
d="M838 1389h-607v114h607v-114zM911 0h-718v123h303v881h-265v122h400v-1003h280v-123z" />
    <glyph glyph-name="Ibreve" unicode="&#x12c;" 
d="M614 1653q-141 0 -225 79.5t-84 213.5h113q0 -91 52.5 -144t141.5 -53q91 0 145 53t54 144h113q0 -133 -84.5 -213t-225.5 -80zM995 0h-762v123h314v1249h-314v123h762v-123h-311v-1249h311v-123z" />
    <glyph glyph-name="ibreve" unicode="&#x12d;" 
d="M535 1315q-140 0 -225 80t-85 213h115q0 -91 52 -144t140 -53q91 0 145 53t54 144h113q0 -134 -84 -213.5t-225 -79.5zM911 0h-718v123h303v881h-265v122h400v-1003h280v-123z" />
    <glyph glyph-name="Iogonek" unicode="&#x12e;" 
d="M995 1495v-123h-311v-1249h311v-123h-327q-127 -112 -127 -203q0 -46 29 -74t79 -28h127v-101h-153q-96 0 -152.5 47.5t-56.5 127.5q0 118 143 231h-324v123h314v1249h-314v123h762z" />
    <glyph glyph-name="iogonek" unicode="&#x12f;" horiz-adv-x="1024" 
d="M535 1337q-60 0 -94.5 32t-34.5 87q0 56 34.5 88.5t94.5 32.5t94.5 -32.5t34.5 -88.5q0 -55 -34.5 -87t-94.5 -32zM911 0h-295q-127 -112 -127 -203q0 -46 29.5 -74t79.5 -28h127v-101h-154q-96 0 -152.5 47.5t-56.5 127.5q0 117 144 231h-313v123h303v881h-265v122h400
v-1003h280v-123z" />
    <glyph glyph-name="Idotaccent" unicode="&#x130;" 
d="M614 1681q-59 0 -94 33t-35 88t35 88t94 33t94 -33t35 -88t-35 -88t-94 -33zM995 0h-762v123h314v1249h-314v123h762v-123h-311v-1249h311v-123z" />
    <glyph glyph-name="dotlessi" unicode="&#x131;" horiz-adv-x="1024" 
d="M911 0h-718v123h303v881h-265v122h400v-1003h280v-123z" />
    <glyph glyph-name="Jcircumflex" unicode="&#x134;" 
d="M551 1659h-145l260 287h141l262 -287h-141l-191 199zM559 -20q-204 0 -320 117t-116 321h135q0 -149 80 -233.5t221 -84.5t221 84t80 232v954h-446v125h581v-1079q0 -202 -116.5 -319t-319.5 -117z" />
    <glyph glyph-name="jcircumflex" unicode="&#x135;" horiz-adv-x="819" 
d="M209 1321h-146l263 287h141l262 -287h-141l-193 199zM195 -369h-136v123h136q137 0 210.5 73.5t73.5 209.5v967h-362v122h497v-1089q0 -189 -112 -297.5t-307 -108.5z" />
    <glyph glyph-name="uni0136" unicode="&#x136;" 
d="M346 0h-135v1495h135v-661h277l331 661h148l-361 -717l381 -778h-157l-347 715h-272v-715zM559 -492h-139l188 297h166z" />
    <glyph glyph-name="uni0137" unicode="&#x137;" 
d="M352 0h-135v1495h135v-850h248l344 481h158l-379 -534l385 -592h-160l-346 524h-250v-524zM559 -492h-139l188 297h166z" />
    <glyph glyph-name="kgreenlandic" unicode="&#x138;" 
d="M352 0h-135v1126h135v-481h248l344 481h158l-379 -534l385 -592h-160l-346 524h-250v-524z" />
    <glyph glyph-name="Lacute" unicode="&#x139;" 
d="M397 1659h-141l217 287h152zM1120 0h-841v1495h135v-1372h706v-123z" />
    <glyph glyph-name="lacute" unicode="&#x13a;" horiz-adv-x="819" 
d="M367 1659h-142l217 287h152zM750 0h-164q-141 0 -222 77.5t-81 215.5v1079h-244v123h379v-1202q0 -81 44 -125.5t124 -44.5h164v-123z" />
    <glyph glyph-name="uni013B" unicode="&#x13b;" 
d="M1120 0h-841v1495h135v-1372h706v-123zM641 -492h-139l188 297h166z" />
    <glyph glyph-name="uni013C" unicode="&#x13c;" horiz-adv-x="819" 
d="M750 0h-164q-141 0 -222 77.5t-81 215.5v1079h-244v123h379v-1202q0 -81 44 -125.5t124 -44.5h164v-123zM397 -492h-139l188 297h166z" />
    <glyph glyph-name="Lcaron" unicode="&#x13d;" 
d="M1339 1495h-110l20 369h131zM1120 0h-841v1495h135v-1372h706v-123z" />
    <glyph glyph-name="lcaron" unicode="&#x13e;" horiz-adv-x="819" 
d="M676 1495h-111l21 369h131zM750 0h-164q-141 0 -222 77.5t-81 215.5v1079h-244v123h379v-1202q0 -81 44 -125.5t124 -44.5h164v-123z" />
    <glyph glyph-name="Ldot" unicode="&#x13f;" 
d="M1120 0h-841v1495h135v-1372h706v-123zM700 543q-72 0 -114.5 42.5t-42.5 114.5q0 73 42.5 116.5t114.5 43.5t115 -43.5t43 -116.5q0 -72 -43 -114.5t-115 -42.5z" />
    <glyph glyph-name="ldot" unicode="&#x140;" 
d="M709 0h-164q-141 0 -222 77.5t-81 215.5v1079h-244v123h379v-1202q0 -81 44 -125.5t124 -44.5h164v-123zM922 543q-72 0 -115 42.5t-43 114.5q0 73 43 116.5t115 43.5t114.5 -43.5t42.5 -116.5q0 -72 -42.5 -114.5t-114.5 -42.5z" />
    <glyph glyph-name="Lslash" unicode="&#x141;" 
d="M426 748v-625h707v-123h-842v653l-250 -170v133l250 170v709h135v-614l373 254v-134z" />
    <glyph glyph-name="lslash" unicode="&#x142;" horiz-adv-x="819" 
d="M586 123h164v-123h-164q-141 0 -222 77.5t-81 215.5v356l-244 -166v133l244 166v590h-244v123h379v-621l256 175v-134l-256 -174v-448q0 -81 44 -125.5t124 -44.5z" />
    <glyph glyph-name="Nacute" unicode="&#x143;" 
d="M664 1659h-142l217 287h152zM340 0h-131v1495h182l512 -1341q-14 210 -14 317v1024h131v-1495h-182l-508 1341q10 -158 10 -317v-1024z" />
    <glyph glyph-name="nacute" unicode="&#x144;" 
d="M762 1608h151l-227 -287h-141zM653 1147q168 0 268.5 -106t100.5 -287v-754h-135v737q0 139 -71 216t-195 77q-128 0 -201.5 -80t-73.5 -221v-729h-135v1126h135v-202q23 105 103.5 164t203.5 59z" />
    <glyph glyph-name="uni0145" unicode="&#x145;" 
d="M340 0h-131v1495h182l512 -1341q-14 210 -14 317v1024h131v-1495h-182l-508 1341q10 -158 10 -317v-1024zM559 -492h-139l188 297h166z" />
    <glyph glyph-name="uni0146" unicode="&#x146;" 
d="M653 1147q168 0 268.5 -106t100.5 -287v-754h-135v737q0 139 -71 216t-195 77q-128 0 -201.5 -80t-73.5 -221v-729h-135v1126h135v-202q23 105 103.5 164t203.5 59zM559 -492h-139l188 297h166z" />
    <glyph glyph-name="Ncaron" unicode="&#x147;" 
d="M686 1659h-141l-262 287h143l190 -199l189 199h141zM340 0h-131v1495h182l512 -1341q-14 210 -14 317v1024h131v-1495h-182l-508 1341q10 -158 10 -317v-1024z" />
    <glyph glyph-name="ncaron" unicode="&#x148;" 
d="M956 1608l-260 -287h-141l-262 287h143l191 -199l188 199h141zM653 1147q168 0 268.5 -106t100.5 -287v-754h-135v737q0 139 -71 216t-195 77q-128 0 -201.5 -80t-73.5 -221v-729h-135v1126h135v-202q23 105 103.5 164t203.5 59z" />
    <glyph glyph-name="napostrophe" unicode="&#x149;" 
d="M10 1321l189 297h166l-215 -297h-140zM653 1147q168 0 268.5 -106t100.5 -287v-754h-135v737q0 139 -71 216t-195 77q-128 0 -201.5 -80t-73.5 -221v-729h-135v1126h135v-202q23 105 103.5 164t203.5 59z" />
    <glyph glyph-name="Eng" unicode="&#x14a;" 
d="M627 -369h-152v123h152q125 0 192.5 67t67.5 191l-559 1329q10 -158 10 -317v-1024h-131v1495h184l512 -1231q-12 210 -12 330v901h131v-1483q0 -179 -104.5 -280t-290.5 -101z" />
    <glyph glyph-name="eng" unicode="&#x14b;" 
d="M653 1147q168 0 267.5 -106t99.5 -287v-723q0 -183 -114.5 -291.5t-305.5 -108.5h-102v123h102q132 0 208.5 74t76.5 203v706q0 139 -70.5 217t-193.5 78q-127 0 -200 -81t-73 -222v-729h-135v1126h135v-194q25 102 104.5 158.5t200.5 56.5z" />
    <glyph glyph-name="Omacron" unicode="&#x14c;" 
d="M918 1737h-607v114h607v-114zM614 -20q-190 0 -301.5 112t-111.5 305v701q0 192 112 305t301 113t301.5 -113t112.5 -305v-701q0 -193 -111.5 -305t-302.5 -112zM614 100q132 0 205.5 77.5t73.5 219.5v701q0 141 -73.5 219t-205.5 78t-205 -78t-73 -219v-701
q0 -142 73 -219.5t205 -77.5z" />
    <glyph glyph-name="omacron" unicode="&#x14d;" 
d="M918 1389h-607v114h607v-114zM614 -18q-191 0 -303 112.5t-112 304.5v328q0 192 112 305t303 113q190 0 303 -112.5t113 -303.5v-330q0 -192 -112 -304.5t-304 -112.5zM614 100q133 0 207 77.5t74 221.5v328q0 142 -74.5 220.5t-206.5 78.5t-206 -78.5t-74 -220.5v-328
q0 -144 73.5 -221.5t206.5 -77.5z" />
    <glyph glyph-name="Obreve" unicode="&#x14e;" 
d="M614 1653q-141 0 -225 79.5t-84 213.5h113q0 -91 52.5 -144t141.5 -53q91 0 145 53t54 144h113q0 -133 -84.5 -213t-225.5 -80zM614 -20q-190 0 -301.5 112t-111.5 305v701q0 192 112 305t301 113t301.5 -113t112.5 -305v-701q0 -193 -111.5 -305t-302.5 -112zM614 100
q132 0 205.5 77.5t73.5 219.5v701q0 141 -73.5 219t-205.5 78t-205 -78t-73 -219v-701q0 -142 73 -219.5t205 -77.5z" />
    <glyph glyph-name="obreve" unicode="&#x14f;" 
d="M614 1315q-141 0 -225 79.5t-84 213.5h113q0 -91 52.5 -144t141.5 -53q91 0 145 53t54 144h113q0 -133 -84.5 -213t-225.5 -80zM614 -18q-191 0 -303 112.5t-112 304.5v328q0 192 112 305t303 113q190 0 303 -112.5t113 -303.5v-330q0 -192 -112 -304.5t-304 -112.5z
M614 100q133 0 207 77.5t74 221.5v328q0 142 -74.5 220.5t-206.5 78.5t-206 -78.5t-74 -220.5v-328q0 -144 73.5 -221.5t206.5 -77.5z" />
    <glyph glyph-name="Ohungarumlaut" unicode="&#x150;" 
d="M471 1659h-135l221 287h148zM813 1659h-135l221 287h148zM614 -20q-190 0 -301.5 112t-111.5 305v701q0 192 112 305t301 113t301.5 -113t112.5 -305v-701q0 -193 -111.5 -305t-302.5 -112zM614 100q132 0 205.5 77.5t73.5 219.5v701q0 141 -73.5 219t-205.5 78t-205 -78
t-73 -219v-701q0 -142 73 -219.5t205 -77.5z" />
    <glyph glyph-name="ohungarumlaut" unicode="&#x151;" 
d="M471 1321h-135l221 287h148zM813 1321h-135l221 287h148zM614 -18q-191 0 -303 112.5t-112 304.5v328q0 192 112 305t303 113q190 0 303 -112.5t113 -303.5v-330q0 -192 -112 -304.5t-304 -112.5zM614 100q133 0 207 77.5t74 221.5v328q0 142 -74.5 220.5t-206.5 78.5
t-206 -78.5t-74 -220.5v-328q0 -144 73.5 -221.5t206.5 -77.5z" />
    <glyph glyph-name="OE" unicode="&#x152;" 
d="M401 -20q-143 0 -231 105t-88 275v775q0 170 88 275.5t231 105.5q97 0 159.5 -57.5t76.5 -127.5h10v164h522v-129h-383v-530h320v-127h-320v-580h383v-129h-522v164h-10q-14 -70 -76.5 -127t-159.5 -57zM434 106q96 0 154.5 69t58.5 185v775q0 116 -58.5 185t-154.5 69
q-95 0 -153 -69.5t-58 -184.5v-775q0 -115 58 -184.5t153 -69.5z" />
    <glyph glyph-name="oe" unicode="&#x153;" 
d="M360 -20q-132 0 -210 85t-78 228v536q0 145 81 231.5t216 86.5q110 0 173 -53.5t72 -118.5h7q12 66 75 119t168 53q135 0 214 -85.5t79 -230.5v-307h-475v-229q0 -89 48 -144t126 -55q70 0 118 44.5t56 115.5h131q-13 -126 -93 -201t-200 -75q-111 0 -173.5 52t-73.5 118
h-7q-11 -65 -75.5 -117.5t-178.5 -52.5zM381 96q77 0 124.5 55t47.5 144v536q0 89 -47.5 144t-124.5 55q-79 0 -127.5 -55t-48.5 -146v-536q0 -89 48 -143t128 -54zM682 831v-186h344v186q0 89 -48 144t-126 55q-76 0 -123 -55t-47 -144z" />
    <glyph glyph-name="Racute" unicode="&#x154;" 
d="M664 1659h-142l217 287h152zM346 0h-135v1495h436q199 0 317.5 -114.5t118.5 -305.5q0 -158 -86 -266t-235 -139l336 -670h-160l-317 659h-275v-659zM346 1372v-592h301q135 0 217 81t82 216t-82 215t-217 80h-301z" />
    <glyph glyph-name="racute" unicode="&#x155;" 
d="M793 1608h151l-227 -287h-142zM686 1147q179 0 283 -111t104 -301v-73h-141v67q0 143 -72.5 222t-204.5 79t-203 -78t-71 -223v-729h-135v1126h135v-190q28 99 108 155t197 56z" />
    <glyph glyph-name="uni0156" unicode="&#x156;" 
d="M346 0h-135v1495h436q199 0 317.5 -114.5t118.5 -305.5q0 -158 -86 -266t-235 -139l336 -670h-160l-317 659h-275v-659zM346 1372v-592h301q135 0 217 81t82 216t-82 215t-217 80h-301zM559 -492h-139l188 297h166z" />
    <glyph glyph-name="uni0157" unicode="&#x157;" 
d="M686 1147q179 0 283 -111t104 -301v-73h-141v67q0 143 -72.5 222t-204.5 79t-203 -78t-71 -223v-729h-135v1126h135v-190q28 99 108 155t197 56zM229 -492h-139l189 297h165z" />
    <glyph glyph-name="Rcaron" unicode="&#x158;" 
d="M686 1659h-141l-262 287h143l190 -199l189 199h141zM346 0h-135v1495h436q199 0 317.5 -114.5t118.5 -305.5q0 -158 -86 -266t-235 -139l336 -670h-160l-317 659h-275v-659zM346 1372v-592h301q135 0 217 81t82 216t-82 215t-217 80h-301z" />
    <glyph glyph-name="rcaron" unicode="&#x159;" 
d="M987 1608l-260 -287h-141l-262 287h143l190 -199l189 199h141zM686 1147q179 0 283 -111t104 -301v-73h-141v67q0 143 -72.5 222t-204.5 79t-203 -78t-71 -223v-729h-135v1126h135v-190q28 99 108 155t197 56z" />
    <glyph glyph-name="Sacute" unicode="&#x15a;" 
d="M664 1659h-142l217 287h152zM625 -20q-212 0 -336.5 109.5t-124.5 295.5h135q0 -129 88.5 -207t237.5 -78q142 0 224.5 73.5t82.5 201.5q0 106 -59 185.5t-160 111.5l-193 57q-149 46 -232 152.5t-83 251.5q0 177 114 280t308 103q192 0 306 -107.5t114 -288.5h-136
q0 125 -78 200t-208 75q-132 0 -209.5 -68.5t-77.5 -185.5q0 -100 56.5 -174t154.5 -105l196 -61q148 -47 234 -160t86 -262q0 -183 -119.5 -291t-320.5 -108z" />
    <glyph glyph-name="sacute" unicode="&#x15b;" 
d="M676 1321h-141l217 287h151zM682 -18h-117q-161 0 -265.5 82t-111.5 215h138q9 -78 75.5 -127.5t165.5 -49.5h117q109 0 171.5 52t62.5 141q0 82 -52 135.5t-143 67.5l-193 28q-154 23 -233.5 101.5t-79.5 208.5q0 145 98.5 227t270.5 82h82q160 0 259.5 -76t108.5 -203
h-137q-6 71 -70 114.5t-163 43.5h-82q-108 0 -170 -50t-62 -138q0 -75 51 -121.5t148 -61.5l188 -26q151 -23 230.5 -105t79.5 -215q0 -152 -96.5 -238.5t-270.5 -86.5z" />
    <glyph glyph-name="Scircumflex" unicode="&#x15c;" 
d="M428 1659h-145l260 287h141l262 -287h-141l-191 199zM625 -20q-212 0 -336.5 109.5t-124.5 295.5h135q0 -129 88.5 -207t237.5 -78q142 0 224.5 73.5t82.5 201.5q0 106 -59 185.5t-160 111.5l-193 57q-149 46 -232 152.5t-83 251.5q0 177 114 280t308 103
q192 0 306 -107.5t114 -288.5h-136q0 125 -78 200t-208 75q-132 0 -209.5 -68.5t-77.5 -185.5q0 -100 56.5 -174t154.5 -105l196 -61q148 -47 234 -160t86 -262q0 -183 -119.5 -291t-320.5 -108z" />
    <glyph glyph-name="scircumflex" unicode="&#x15d;" 
d="M428 1321h-145l260 287h141l262 -287h-141l-191 199zM682 -18h-117q-161 0 -265.5 82t-111.5 215h138q9 -78 75.5 -127.5t165.5 -49.5h117q109 0 171.5 52t62.5 141q0 82 -52 135.5t-143 67.5l-193 28q-154 23 -233.5 101.5t-79.5 208.5q0 145 98.5 227t270.5 82h82
q160 0 259.5 -76t108.5 -203h-137q-6 71 -70 114.5t-163 43.5h-82q-108 0 -170 -50t-62 -138q0 -75 51 -121.5t148 -61.5l188 -26q151 -23 230.5 -105t79.5 -215q0 -152 -96.5 -238.5t-270.5 -86.5z" />
    <glyph glyph-name="Scedilla" unicode="&#x15e;" 
d="M1065 379q0 -181 -118 -289t-316 -110l-19 -50q56 -6 106 -24t89 -57.5t39 -92.5q0 -69 -61.5 -115.5t-159.5 -46.5h-168v89h155q46 0 76.5 23.5t30.5 55.5q0 45 -63.5 74t-168.5 29l45 121q-171 23 -269.5 129t-98.5 270h135q0 -129 88.5 -207t237.5 -78
q142 0 224.5 73.5t82.5 201.5q0 106 -59 185.5t-160 111.5l-193 57q-149 46 -232 152.5t-83 251.5q0 177 114 280t308 103q192 0 306 -107.5t114 -288.5h-136q0 125 -78 200t-208 75q-132 0 -209.5 -68.5t-77.5 -185.5q0 -100 56.5 -174t154.5 -105l196 -61
q148 -47 234 -160t86 -262z" />
    <glyph glyph-name="scedilla" unicode="&#x15f;" 
d="M682 -18h-61l-19 -52q56 -6 106 -24t89 -57.5t39 -92.5q0 -69 -62 -115.5t-160 -46.5h-168v89h156q46 0 76.5 23.5t30.5 55.5q0 45 -63.5 74t-168.5 29l45 119q-145 11 -236 91t-98 204h138q9 -78 75.5 -127.5t165.5 -49.5h117q109 0 171.5 52t62.5 141q0 82 -52 135.5
t-143 67.5l-193 28q-154 23 -233.5 101.5t-79.5 208.5q0 145 98.5 227t270.5 82h82q160 0 259.5 -76t108.5 -203h-137q-6 71 -70 114.5t-163 43.5h-82q-108 0 -170 -50t-62 -138q0 -75 51 -121.5t148 -61.5l188 -26q151 -23 230.5 -105t79.5 -215q0 -152 -96.5 -238.5
t-270.5 -86.5z" />
    <glyph glyph-name="Scaron" unicode="&#x160;" 
d="M686 1659h-141l-262 287h143l190 -199l189 199h141zM625 -20q-212 0 -336.5 109.5t-124.5 295.5h135q0 -129 88.5 -207t237.5 -78q142 0 224.5 73.5t82.5 201.5q0 106 -59 185.5t-160 111.5l-193 57q-149 46 -232 152.5t-83 251.5q0 177 114 280t308 103
q192 0 306 -107.5t114 -288.5h-136q0 125 -78 200t-208 75q-132 0 -209.5 -68.5t-77.5 -185.5q0 -100 56.5 -174t154.5 -105l196 -61q148 -47 234 -160t86 -262q0 -183 -119.5 -291t-320.5 -108z" />
    <glyph glyph-name="scaron" unicode="&#x161;" 
d="M686 1321h-141l-262 287h143l190 -199l189 199h141zM682 -18h-117q-161 0 -265.5 82t-111.5 215h138q9 -78 75.5 -127.5t165.5 -49.5h117q109 0 171.5 52t62.5 141q0 82 -52 135.5t-143 67.5l-193 28q-154 23 -233.5 101.5t-79.5 208.5q0 145 98.5 227t270.5 82h82
q160 0 259.5 -76t108.5 -203h-137q-6 71 -70 114.5t-163 43.5h-82q-108 0 -170 -50t-62 -138q0 -75 51 -121.5t148 -61.5l188 -26q151 -23 230.5 -105t79.5 -215q0 -152 -96.5 -238.5t-270.5 -86.5z" />
    <glyph glyph-name="uni0162" unicode="&#x162;" 
d="M1110 1372h-426v-1372l-27 -70q56 -6 106 -24t89 -57.5t39 -92.5q0 -69 -61.5 -115.5t-159.5 -46.5h-168v89h155q46 0 76.5 23.5t30.5 55.5q0 45 -63.5 74t-168.5 29l52 135h-35v1372h-430v123h991v-123z" />
    <glyph glyph-name="uni0163" unicode="&#x163;" horiz-adv-x="1024" 
d="M670 0l-25 -70q56 -6 106 -24t89 -57.5t39 -92.5q0 -69 -62 -115.5t-160 -46.5h-168v89h156q46 0 76.5 23.5t30.5 55.5q0 45 -64 74t-168 29l53 139q-108 15 -166.5 84.5t-58.5 183.5v732h-270v122h270v318h135v-318h377v-122h-377v-732q0 -71 39 -110t109 -39h196v-123
h-157z" />
    <glyph glyph-name="Tcaron" unicode="&#x164;" 
d="M686 1659h-141l-262 287h143l190 -199l189 199h141zM684 0h-135v1372h-430v123h991v-123h-426v-1372z" />
    <glyph glyph-name="tcaron" unicode="&#x165;" horiz-adv-x="1024" 
d="M905 1270h-121l172 319h154zM827 0h-196q-134 0 -208.5 71.5t-74.5 200.5v732h-270v122h270v318h135v-318h377v-122h-377v-732q0 -71 39 -110t109 -39h196v-123z" />
    <glyph glyph-name="Tbar" unicode="&#x166;" 
d="M1110 1495v-123h-426v-633h307v-116h-307v-623h-135v623h-311v116h311v633h-430v123h991z" />
    <glyph glyph-name="tbar" unicode="&#x167;" horiz-adv-x="1024" 
d="M860 1126v-122h-377v-373h273v-115h-273v-244q0 -71 39 -110t109 -39h196v-123h-196q-134 0 -208.5 71.5t-74.5 200.5v244h-266v115h266v373h-270v122h270v318h135v-318h377z" />
    <glyph glyph-name="Utilde" unicode="&#x168;" 
d="M764 1669q-44 0 -81 17.5t-62 42.5t-47.5 50t-47.5 42.5t-51 17.5q-40 0 -63 -24.5t-23 -67.5v-68h-102v68q0 89 49.5 138.5t134.5 49.5q44 0 81 -17.5t62 -42.5t47.5 -50t47.5 -42.5t51 -17.5q37 0 58.5 25t21.5 68v67h102v-67q0 -89 -48 -139t-130 -50zM616 -20
q-191 0 -300 112t-109 305v1098h135v-1098q0 -141 71 -219t203 -78q129 0 200 79t71 218v1098h135v-1098q0 -193 -108 -305t-298 -112z" />
    <glyph glyph-name="utilde" unicode="&#x169;" 
d="M764 1331q-44 0 -81 17.5t-62 42.5t-47.5 50t-47.5 42.5t-51 17.5q-40 0 -63 -24.5t-23 -67.5v-68h-102v68q0 89 49.5 138.5t134.5 49.5q44 0 81 -17.5t62 -42.5t47.5 -50t47.5 -42.5t51 -17.5q37 0 58.5 25t21.5 68v67h102v-67q0 -89 -48 -139t-130 -50zM612 -20
q-188 0 -296.5 113t-108.5 308v725h135v-725q0 -142 72 -221.5t198 -79.5q128 0 201.5 79.5t73.5 221.5v725h135v-725q0 -195 -110.5 -308t-299.5 -113z" />
    <glyph glyph-name="Umacron" unicode="&#x16a;" 
d="M918 1737h-607v114h607v-114zM616 -20q-191 0 -300 112t-109 305v1098h135v-1098q0 -141 71 -219t203 -78q129 0 200 79t71 218v1098h135v-1098q0 -193 -108 -305t-298 -112z" />
    <glyph glyph-name="umacron" unicode="&#x16b;" 
d="M918 1389h-607v114h607v-114zM612 -20q-188 0 -296.5 113t-108.5 308v725h135v-725q0 -142 72 -221.5t198 -79.5q128 0 201.5 79.5t73.5 221.5v725h135v-725q0 -195 -110.5 -308t-299.5 -113z" />
    <glyph glyph-name="Ubreve" unicode="&#x16c;" 
d="M614 1653q-141 0 -225 79.5t-84 213.5h113q0 -91 52.5 -144t141.5 -53q91 0 145 53t54 144h113q0 -133 -84.5 -213t-225.5 -80zM616 -20q-191 0 -300 112t-109 305v1098h135v-1098q0 -141 71 -219t203 -78q129 0 200 79t71 218v1098h135v-1098q0 -193 -108 -305
t-298 -112z" />
    <glyph glyph-name="ubreve" unicode="&#x16d;" 
d="M614 1315q-141 0 -225 79.5t-84 213.5h113q0 -91 52.5 -144t141.5 -53q91 0 145 53t54 144h113q0 -133 -84.5 -213t-225.5 -80zM612 -20q-188 0 -296.5 113t-108.5 308v725h135v-725q0 -142 72 -221.5t198 -79.5q128 0 201.5 79.5t73.5 221.5v725h135v-725
q0 -195 -110.5 -308t-299.5 -113z" />
    <glyph glyph-name="Uring" unicode="&#x16e;" 
d="M616 1585q-103 0 -166 60t-63 157t63 157t166 60q101 0 163.5 -60t62.5 -157t-62.5 -157t-163.5 -60zM614 1673q58 0 93.5 35.5t35.5 93.5q0 59 -35.5 95t-93.5 36t-93.5 -36t-35.5 -95q0 -58 35.5 -93.5t93.5 -35.5zM616 -20q-191 0 -300 112t-109 305v1098h135v-1098
q0 -141 71 -219t203 -78q129 0 200 79t71 218v1098h135v-1098q0 -193 -108 -305t-298 -112z" />
    <glyph glyph-name="uring" unicode="&#x16f;" 
d="M616 1253q-103 0 -166 60t-63 157t63 156.5t166 59.5q101 0 163.5 -59.5t62.5 -156.5t-62.5 -157t-163.5 -60zM614 1339q58 0 93.5 36t35.5 95t-35.5 95.5t-93.5 36.5t-93.5 -36.5t-35.5 -95.5t35.5 -95t93.5 -36zM612 -20q-188 0 -296.5 113t-108.5 308v725h135v-725
q0 -142 72 -221.5t198 -79.5q128 0 201.5 79.5t73.5 221.5v725h135v-725q0 -195 -110.5 -308t-299.5 -113z" />
    <glyph glyph-name="Uhungarumlaut" unicode="&#x170;" 
d="M471 1659h-135l221 287h148zM813 1659h-135l221 287h148zM616 -20q-191 0 -300 112t-109 305v1098h135v-1098q0 -141 71 -219t203 -78q129 0 200 79t71 218v1098h135v-1098q0 -193 -108 -305t-298 -112z" />
    <glyph glyph-name="uhungarumlaut" unicode="&#x171;" 
d="M471 1321h-135l221 287h148zM813 1321h-135l221 287h148zM612 -20q-188 0 -296.5 113t-108.5 308v725h135v-725q0 -142 72 -221.5t198 -79.5q128 0 201.5 79.5t73.5 221.5v725h135v-725q0 -195 -110.5 -308t-299.5 -113z" />
    <glyph glyph-name="Uogonek" unicode="&#x172;" 
d="M918 -406h-154q-96 0 -152.5 47.5t-56.5 127.5q0 50 31.5 107.5t87.5 107.5q-32 -4 -60 -4q-189 0 -298 111.5t-109 305.5v1098h135v-1098q0 -143 70 -220t202 -77t202.5 77t70.5 220v1098h135v-1098q0 -254 -182 -364l-35 -29q-61 -53 -92 -107.5t-31 -99.5
q0 -46 29.5 -74t79.5 -28h127v-101z" />
    <glyph glyph-name="uogonek" unicode="&#x173;" 
d="M918 -406h-154q-97 0 -154 47.5t-57 127.5q0 98 125 215q-36 -4 -64 -4q-189 0 -298 111.5t-109 305.5v729h135v-729q0 -143 70.5 -221t201.5 -78q132 0 202.5 78t70.5 221v729h135v-729q0 -242 -160 -350l-53 -47q-127 -112 -127 -203q0 -47 28 -74.5t78 -27.5h130v-101
z" />
    <glyph glyph-name="Wcircumflex" unicode="&#x174;" 
d="M428 1659h-145l260 287h141l262 -287h-141l-191 199zM428 0h-178l-180 1495h127l129 -1106q24 -237 28 -293q29 227 39 293l150 1106h155l142 -1106l37 -293q4 37 17 144.5t17 148.5l123 1106h125l-182 -1495h-180l-142 1102q-31 256 -34 293q-21 -142 -39 -293z" />
    <glyph glyph-name="wcircumflex" unicode="&#x175;" 
d="M428 1321h-145l260 287h141l262 -287h-141l-191 199zM438 0h-162l-186 1126h121l129 -821q12 -74 22 -205h7q7 88 30 203l148 823h137l150 -823q15 -89 28 -203h6q5 70 23 205l131 821h117l-191 -1126h-162l-133 793q-34 210 -35 223h-6q-12 -108 -34 -223z" />
    <glyph glyph-name="Ycircumflex" unicode="&#x176;" 
d="M428 1659h-145l260 287h141l262 -287h-141l-191 199zM682 0h-135v567l-457 928h139l322 -651q44 -89 65 -142q29 68 66 142l317 651h140l-457 -928v-567z" />
    <glyph glyph-name="ycircumflex" unicode="&#x177;" 
d="M428 1321h-145l260 287h141l262 -287h-141l-191 199zM530 -369h-139l166 445l-422 1050h148l278 -708q43 -108 66 -187q60 177 65 189l258 706h144z" />
    <glyph glyph-name="Ydieresis" unicode="&#x178;" 
d="M393 1683q-52 0 -83 32.5t-31 86.5q0 56 31 88.5t83 32.5q54 0 85.5 -32.5t31.5 -88.5q0 -54 -31.5 -86.5t-85.5 -32.5zM840 1683q-54 0 -85.5 32.5t-31.5 86.5q0 56 31.5 88.5t85.5 32.5q52 0 83 -32.5t31 -88.5q0 -54 -31 -86.5t-83 -32.5zM682 0h-135v567l-457 928
h139l322 -651q44 -89 65 -142q29 68 66 142l317 651h140l-457 -928v-567z" />
    <glyph glyph-name="Zacute" unicode="&#x179;" 
d="M664 1659h-142l217 287h152zM1049 0h-869v135l711 1237h-703v123h836v-143l-707 -1229h732v-123z" />
    <glyph glyph-name="zacute" unicode="&#x17a;" 
d="M676 1321h-141l217 287h151zM1028 0h-827v131l649 873h-633v122h787v-131l-658 -872h682v-123z" />
    <glyph glyph-name="Zdotaccent" unicode="&#x17b;" 
d="M614 1681q-59 0 -94 33t-35 88t35 88t94 33t94 -33t35 -88t-35 -88t-94 -33zM1049 0h-869v135l711 1237h-703v123h836v-143l-707 -1229h732v-123z" />
    <glyph glyph-name="zdotaccent" unicode="&#x17c;" 
d="M614 1337q-60 0 -94.5 32t-34.5 87q0 56 34.5 88.5t94.5 32.5t94.5 -32.5t34.5 -88.5q0 -55 -34.5 -87t-94.5 -32zM1028 0h-827v131l649 873h-633v122h787v-131l-658 -872h682v-123z" />
    <glyph glyph-name="Zcaron" unicode="&#x17d;" 
d="M686 1659h-141l-262 287h143l190 -199l189 199h141zM1049 0h-869v135l711 1237h-703v123h836v-143l-707 -1229h732v-123z" />
    <glyph glyph-name="zcaron" unicode="&#x17e;" 
d="M686 1321h-141l-262 287h143l190 -199l189 199h141zM1028 0h-827v131l649 873h-633v122h787v-131l-658 -872h682v-123z" />
    <glyph glyph-name="longs" unicode="&#x17f;" 
d="M492 0h-136v1198q0 135 84 216t222 81h364v-121h-364q-75 0 -122.5 -49t-47.5 -127v-1198z" />
    <glyph glyph-name="uni018F" unicode="&#x18f;" 
d="M612 1516q194 0 304 -112t110 -306v-701q0 -190 -111 -303.5t-303 -113.5q-189 0 -299 113.5t-110 303.5v396h688v305q0 141 -72.5 219t-206.5 78q-133 0 -203.5 -81.5t-70.5 -228.5h-135q0 198 108.5 314.5t300.5 116.5zM891 397v285h-553v-285q0 -143 70.5 -223
t203.5 -80q136 0 207.5 79.5t71.5 223.5z" />
    <glyph glyph-name="uni0190" unicode="&#x190;" 
d="M971 395h135q-1 -186 -131.5 -300.5t-339.5 -114.5q-212 0 -343.5 119t-131.5 311q0 144 77 242t209 126q-116 28 -182.5 119t-66.5 223q0 177 122.5 286.5t321.5 109.5q200 0 324.5 -112.5t124.5 -293.5h-136q0 128 -86 207.5t-225 79.5t-225 -78.5t-86 -204.5
q0 -125 86 -202.5t225 -77.5h160v-121h-168q-151 0 -244.5 -85t-93.5 -222q0 -136 93.5 -221t244.5 -85q149 0 241.5 81.5t94.5 213.5z" />
    <glyph glyph-name="florin" unicode="&#x192;" 
d="M205 -369h-205v123h205q129 0 199.5 71t70.5 200v639h-340v122h340v441q0 126 76 197t211 71h319v-121h-319q-74 0 -113 -37.5t-39 -109.5v-441h471v-122h-471v-652q0 -176 -110 -278.5t-295 -102.5z" />
    <glyph glyph-name="uni019B" unicode="&#x19b;" 
d="M963 1391l-314 -158l455 -1233h-146l-264 731q-6 16 -76 240q-22 -110 -71 -240l-273 -731h-149l432 1106l-27 68l-346 -173v125l305 152l-86 217h150l57 -156l353 177v-125z" />
    <glyph glyph-name="Ohorn" unicode="&#x1a0;" 
d="M987 1524v135h111v-139q0 -69 -36 -115.5t-99 -61.5q65 -100 65 -245v-701q0 -193 -111.5 -305t-302.5 -112q-190 0 -301.5 112t-111.5 305v701q0 192 112 305t301 113q159 0 267 -82h22q38 0 61 25t23 65zM893 397v701q0 141 -73.5 219t-205.5 78t-205 -78t-73 -219
v-701q0 -142 73 -219.5t205 -77.5t205.5 77.5t73.5 219.5z" />
    <glyph glyph-name="ohorn" unicode="&#x1a1;" 
d="M1069 1311v-140q0 -64 -33 -109.5t-90 -62.5q84 -107 84 -270v-330q0 -192 -112 -304.5t-304 -112.5q-191 0 -303 112.5t-112 304.5v328q0 192 112 305t303 113q134 0 236 -60h24q38 0 61 25t23 66v135h111zM895 399v328q0 142 -74.5 220.5t-206.5 78.5t-206 -78.5
t-74 -220.5v-328q0 -144 73.5 -221.5t206.5 -77.5t207 77.5t74 221.5z" />
    <glyph glyph-name="Uhorn" unicode="&#x1af;" 
d="M1128 1585v135h111v-139q0 -83 -52 -132.5t-138 -49.5h-27v-1002q0 -193 -108 -305t-298 -112q-191 0 -300 112t-109 305v1098h135v-1098q0 -141 71 -219t203 -78q129 0 200 79t71 218v1098h157q38 0 61 25t23 65z" />
    <glyph glyph-name="uhorn" unicode="&#x1b0;" 
d="M207 401v725h135v-725q0 -142 72 -221.5t198 -79.5q128 0 201.5 79.5t73.5 221.5v725h119q38 0 61 25t23 66v135h110v-140q0 -83 -47 -132.5t-131 -49.5v-629q0 -195 -110.5 -308t-299.5 -113q-188 0 -296.5 113t-108.5 308z" />
    <glyph glyph-name="uni01CD" unicode="&#x1cd;" 
d="M686 1659h-141l-262 287h143l190 -199l189 199h141zM262 0h-137l401 1495h176l402 -1495h-137l-109 418h-489zM543 1081l-144 -546h428l-143 546q-50 192 -70 303q-18 -98 -71 -303z" />
    <glyph glyph-name="uni01CE" unicode="&#x1ce;" 
d="M956 1608l-260 -287h-141l-262 287h143l191 -199l188 199h141zM623 1147q183 0 291 -102.5t108 -274.5v-770h-133v193q-25 -99 -119 -156t-233 -57q-175 0 -279 90.5t-104 244.5q0 150 98.5 239t263.5 89h371v125q0 123 -69 190.5t-195 67.5q-112 0 -187.5 -54
t-89.5 -143h-135q17 142 131.5 230t280.5 88zM571 92q140 0 228 71t88 185v187h-371q-103 0 -165 -57t-62 -152q0 -106 76.5 -170t205.5 -64z" />
    <glyph glyph-name="uni01D0" unicode="&#x1d0;" horiz-adv-x="1024" 
d="M606 1321h-141l-262 287h143l191 -199l188 199h141zM911 0h-718v123h303v881h-265v122h400v-1003h280v-123z" />
    <glyph glyph-name="uni01D2" unicode="&#x1d2;" 
d="M686 1321h-141l-262 287h143l190 -199l189 199h141zM614 -18q-191 0 -303 112.5t-112 304.5v328q0 192 112 305t303 113q190 0 303 -112.5t113 -303.5v-330q0 -192 -112 -304.5t-304 -112.5zM614 100q133 0 207 77.5t74 221.5v328q0 142 -74.5 220.5t-206.5 78.5
t-206 -78.5t-74 -220.5v-328q0 -144 73.5 -221.5t206.5 -77.5z" />
    <glyph glyph-name="uni01D4" unicode="&#x1d4;" 
d="M686 1321h-141l-262 287h143l190 -199l189 199h141zM612 -20q-188 0 -296.5 113t-108.5 308v725h135v-725q0 -142 72 -221.5t198 -79.5q128 0 201.5 79.5t73.5 221.5v725h135v-725q0 -195 -110.5 -308t-299.5 -113z" />
    <glyph glyph-name="uni01D6" unicode="&#x1d6;" 
d="M918 1839h-607v115h607v-115zM391 1337q-53 0 -84 32t-31 87t31 88t84 33q54 0 85.5 -32.5t31.5 -88.5q0 -55 -31.5 -87t-85.5 -32zM838 1337q-54 0 -85.5 32t-31.5 87q0 56 31.5 88.5t85.5 32.5q52 0 83 -32.5t31 -88.5q0 -55 -30.5 -87t-83.5 -32zM612 -20
q-188 0 -296.5 113t-108.5 308v725h135v-725q0 -142 72 -221.5t198 -79.5q128 0 201.5 79.5t73.5 221.5v725h135v-725q0 -195 -110.5 -308t-299.5 -113z" />
    <glyph glyph-name="uni01D8" unicode="&#x1d8;" 
d="M676 1772h-141l217 286h151zM391 1337q-53 0 -84 32t-31 87t31 88t84 33q54 0 85.5 -32.5t31.5 -88.5q0 -55 -31.5 -87t-85.5 -32zM838 1337q-54 0 -85.5 32t-31.5 87q0 56 31.5 88.5t85.5 32.5q52 0 83 -32.5t31 -88.5q0 -55 -30.5 -87t-83.5 -32zM612 -20
q-188 0 -296.5 113t-108.5 308v725h135v-725q0 -142 72 -221.5t198 -79.5q128 0 201.5 79.5t73.5 221.5v725h135v-725q0 -195 -110.5 -308t-299.5 -113z" />
    <glyph glyph-name="uni01DA" unicode="&#x1da;" 
d="M686 1772h-141l-262 286h143l190 -198l189 198h141zM391 1337q-53 0 -84 32t-31 87t31 88t84 33q54 0 85.5 -32.5t31.5 -88.5q0 -55 -31.5 -87t-85.5 -32zM838 1337q-54 0 -85.5 32t-31.5 87q0 56 31.5 88.5t85.5 32.5q52 0 83 -32.5t31 -88.5q0 -55 -30.5 -87t-83.5 -32
zM612 -20q-188 0 -296.5 113t-108.5 308v725h135v-725q0 -142 72 -221.5t198 -79.5q128 0 201.5 79.5t73.5 221.5v725h135v-725q0 -195 -110.5 -308t-299.5 -113z" />
    <glyph glyph-name="uni01DC" unicode="&#x1dc;" 
d="M713 1772h-146l-233 286h158zM391 1337q-53 0 -84 32t-31 87t31 88t84 33q54 0 85.5 -32.5t31.5 -88.5q0 -55 -31.5 -87t-85.5 -32zM838 1337q-54 0 -85.5 32t-31.5 87q0 56 31.5 88.5t85.5 32.5q52 0 83 -32.5t31 -88.5q0 -55 -30.5 -87t-83.5 -32zM612 -20
q-188 0 -296.5 113t-108.5 308v725h135v-725q0 -142 72 -221.5t198 -79.5q128 0 201.5 79.5t73.5 221.5v725h135v-725q0 -195 -110.5 -308t-299.5 -113z" />
    <glyph glyph-name="Gcaron" unicode="&#x1e6;" 
d="M692 1659h-141l-262 287h143l193 -199l188 199h141zM625 -20q-194 0 -309 112.5t-115 304.5v701q0 193 115 305.5t309 112.5q195 0 310.5 -117t115.5 -314h-136q0 145 -77.5 227.5t-212.5 82.5q-134 0 -211.5 -79t-77.5 -218v-701q0 -139 77 -218t212 -79q136 0 213 82.5
t77 227.5v208h-333v123h469v-331q0 -197 -115.5 -313.5t-310.5 -116.5z" />
    <glyph glyph-name="gcaron" unicode="&#x1e7;" 
d="M940 1608l-260 -287h-141l-263 287h144l190 -199l189 199h141zM883 932v194h135v-1161q0 -161 -91 -247.5t-261 -86.5h-320v123h322q215 0 215 211v113l2 223q-22 -105 -104 -164t-206 -59q-171 0 -272.5 111.5t-101.5 299.5v244q0 188 101.5 301t272.5 113
q121 0 203 -57.5t105 -157.5zM608 195q129 0 202 79t73 220v235q0 141 -72.5 221t-202.5 80q-128 0 -200 -79.5t-72 -221.5v-235q0 -141 72 -220t200 -79z" />
    <glyph glyph-name="uni01EA" unicode="&#x1ea;" 
d="M918 -406h-154q-96 0 -152.5 47.5t-56.5 127.5q0 50 31.5 107.5t87.5 107.5q-32 -4 -60 -4q-190 0 -301.5 112t-111.5 305v701q0 192 112 305t301 113t301.5 -113t112.5 -305v-701q0 -250 -188 -364l-35 -29q-61 -53 -92 -107.5t-31 -99.5q0 -46 29.5 -74t79.5 -28h127
v-101zM614 100q132 0 205.5 77.5t73.5 219.5v701q0 141 -73.5 219t-205.5 78t-205 -78t-73 -219v-701q0 -142 73 -219.5t205 -77.5z" />
    <glyph glyph-name="uni01EB" unicode="&#x1eb;" 
d="M918 -406h-154q-97 0 -154 47.5t-57 127.5q0 98 125 215q-36 -4 -64 -4q-190 0 -301.5 112t-111.5 305v332q0 192 112 305t301 113t301.5 -113t112.5 -305v-332q0 -238 -166 -350l-53 -47q-127 -112 -127 -203q0 -47 28 -74.5t78 -27.5h130v-101zM614 98
q132 0 205.5 78.5t73.5 220.5v332q0 142 -73.5 220.5t-205.5 78.5t-205 -78.5t-73 -220.5v-332q0 -142 73 -220.5t205 -78.5z" />
    <glyph glyph-name="uni01F4" unicode="&#x1f4;" 
d="M670 1659h-140l218 287h151zM625 -20q-194 0 -309 112.5t-115 304.5v701q0 193 115 305.5t309 112.5q195 0 310.5 -117t115.5 -314h-136q0 145 -77.5 227.5t-212.5 82.5q-134 0 -211.5 -79t-77.5 -218v-701q0 -139 77 -218t212 -79q136 0 213 82.5t77 227.5v208h-333v123
h469v-331q0 -197 -115.5 -313.5t-310.5 -116.5z" />
    <glyph glyph-name="uni01F5" unicode="&#x1f5;" 
d="M745 1608h152l-227 -287h-142zM883 932v194h135v-1161q0 -161 -91 -247.5t-261 -86.5h-320v123h322q215 0 215 211v113l2 223q-22 -105 -104 -164t-206 -59q-171 0 -272.5 111.5t-101.5 299.5v244q0 188 101.5 301t272.5 113q121 0 203 -57.5t105 -157.5zM608 195
q129 0 202 79t73 220v235q0 141 -72.5 221t-202.5 80q-128 0 -200 -79.5t-72 -221.5v-235q0 -141 72 -220t200 -79z" />
    <glyph glyph-name="AEacute" unicode="&#x1fc;" 
d="M664 1659h-142l217 287h152zM203 0h-137l350 1495h749v-123h-405v-534h342v-123h-342v-592h405v-123h-536v430h-326zM520 1372l-188 -825h297v825h-109z" />
    <glyph glyph-name="aeacute" unicode="&#x1fd;" 
d="M676 1321h-141l217 287h151zM352 -20q-127 0 -200.5 80.5t-73.5 215.5v107q0 123 76 195.5t208 72.5h195v180q0 91 -46.5 145t-125.5 54q-71 0 -116 -45.5t-50 -118.5h-131q6 128 81.5 204.5t199.5 76.5q108 0 172.5 -53t76.5 -119h5q14 65 77 118.5t164 53.5
q132 0 209.5 -85.5t77.5 -230.5v-292h-467v-244q0 -88 47.5 -142.5t124.5 -54.5q72 0 116.5 44.5t49.5 117.5h131q-8 -129 -83.5 -204.5t-201.5 -75.5q-108 0 -170.5 52t-74.5 118h-7q-12 -65 -80 -117.5t-184 -52.5zM684 831v-180h336v180q0 87 -46 143t-122 56
q-74 0 -121 -56t-47 -143zM381 94q77 0 126.5 56.5t49.5 144.5v244h-192q-69 0 -110.5 -43.5t-41.5 -112.5v-107q0 -80 46 -131t122 -51z" />
    <glyph glyph-name="Oslashacute" unicode="&#x1fe;" 
d="M739 1946h152l-227 -287h-142zM1012 1536h127l-144 -254q33 -87 33 -184v-701q0 -193 -111.5 -305t-302.5 -112q-189 0 -299 110l-98 -172h-127l154 270q-43 87 -43 209v701q0 192 112 305t301 113q202 0 314 -127zM336 1098v-701q0 -31 2 -45l518 912q-67 131 -242 131
q-132 0 -205 -78t-73 -219zM893 397v701v6l-510 -893q72 -111 231 -111q132 0 205.5 77.5t73.5 219.5z" />
    <glyph glyph-name="oslashacute" unicode="&#x1ff;" 
d="M752 1608h151l-227 -287h-141zM993 1208h135l-165 -233q65 -103 65 -246v-332q0 -193 -111.5 -305t-302.5 -112q-174 0 -282 94l-96 -135h-136l158 225q-57 97 -57 233v332q0 192 112 305t301 113q167 0 275 -88zM332 729v-332q0 -64 14 -110l469 669q-72 72 -201 72
q-133 0 -207.5 -79t-74.5 -220zM897 397v332q0 69 -18 125l-473 -676q74 -80 208 -80q133 0 208 79t75 220z" />
    <glyph glyph-name="uni0218" unicode="&#x218;" 
d="M625 -20q-212 0 -336.5 109.5t-124.5 295.5h135q0 -129 88.5 -207t237.5 -78q142 0 224.5 73.5t82.5 201.5q0 106 -59 185.5t-160 111.5l-193 57q-149 46 -232 152.5t-83 251.5q0 177 114 280t308 103q192 0 306 -107.5t114 -288.5h-136q0 125 -78 200t-208 75
q-132 0 -209.5 -68.5t-77.5 -185.5q0 -100 56.5 -174t154.5 -105l196 -61q148 -47 234 -160t86 -262q0 -183 -119.5 -291t-320.5 -108zM559 -492h-139l188 297h166z" />
    <glyph glyph-name="uni0219" unicode="&#x219;" 
d="M682 -18h-117q-161 0 -265.5 82t-111.5 215h138q9 -78 75.5 -127.5t165.5 -49.5h117q109 0 171.5 52t62.5 141q0 82 -52 135.5t-143 67.5l-193 28q-154 23 -233.5 101.5t-79.5 208.5q0 145 98.5 227t270.5 82h82q160 0 259.5 -76t108.5 -203h-137q-6 71 -70 114.5
t-163 43.5h-82q-108 0 -170 -50t-62 -138q0 -75 51 -121.5t148 -61.5l188 -26q151 -23 230.5 -105t79.5 -215q0 -152 -96.5 -238.5t-270.5 -86.5zM559 -492h-139l188 297h166z" />
    <glyph glyph-name="uni021A" unicode="&#x21a;" 
d="M684 0h-135v1372h-430v123h991v-123h-426v-1372zM559 -492h-139l188 297h166z" />
    <glyph glyph-name="uni021B" unicode="&#x21b;" 
d="M827 0h-196q-134 0 -208.5 71.5t-74.5 200.5v732h-270v122h270v318h135v-318h377v-122h-377v-732q0 -71 39 -110t109 -39h196v-123zM625 -492h-140l189 297h166z" />
    <glyph glyph-name="uni0232" unicode="&#x232;" 
d="M918 1737h-607v114h607v-114zM682 0h-135v567l-457 928h139l322 -651q44 -89 65 -142q29 68 66 142l317 651h140l-457 -928v-567z" />
    <glyph glyph-name="uni0233" unicode="&#x233;" 
d="M918 1389h-607v114h607v-114zM530 -369h-139l166 445l-422 1050h148l278 -708q43 -108 66 -187q60 177 65 189l258 706h144z" />
    <glyph glyph-name="uni0237" unicode="&#x237;" horiz-adv-x="819" 
d="M195 -369h-136v123h136q137 0 210.5 73.5t73.5 209.5v967h-362v122h497v-1089q0 -189 -112 -297.5t-307 -108.5z" />
    <glyph glyph-name="uni0259" unicode="&#x259;" 
d="M612 1147q192 0 303 -113t111 -305v-332q0 -190 -111 -303.5t-303 -113.5q-189 0 -299 113.5t-110 303.5v197h690v135q0 142 -73 221.5t-208 79.5q-109 0 -178 -47.5t-94 -136.5h-135q26 139 134.5 220t272.5 81zM893 397v88h-557v-88q0 -143 71.5 -223t204.5 -80
q137 0 209 79.5t72 223.5z" />
    <glyph glyph-name="uni02B9" unicode="&#x2b9;" horiz-adv-x="819" 
d="M348 840h-115l158 637h217z" />
    <glyph glyph-name="uni02BA" unicode="&#x2ba;" 
d="M252 838h-115l158 637h217zM809 838h-115l158 637h217z" />
    <glyph glyph-name="uni02BC" unicode="&#x2bc;" horiz-adv-x="409" 
d="M131 952h-115l158 637h217z" />
    <glyph glyph-name="circumflex" unicode="&#x2c6;" 
d="M428 1321h-145l260 287h141l262 -287h-141l-191 199z" />
    <glyph glyph-name="caron" unicode="&#x2c7;" 
d="M686 1321h-141l-262 287h143l190 -199l189 199h141z" />
    <glyph glyph-name="uni02C9" unicode="&#x2c9;" 
d="M918 1389h-607v114h607v-114z" />
    <glyph glyph-name="breve" unicode="&#x2d8;" 
d="M614 1315q-141 0 -225 79.5t-84 213.5h113q0 -91 52.5 -144t141.5 -53q91 0 145 53t54 144h113q0 -133 -84.5 -213t-225.5 -80z" />
    <glyph glyph-name="dotaccent" unicode="&#x2d9;" 
d="M614 1337q-60 0 -94.5 32t-34.5 87q0 56 34.5 88.5t94.5 32.5t94.5 -32.5t34.5 -88.5q0 -55 -34.5 -87t-94.5 -32z" />
    <glyph glyph-name="ring" unicode="&#x2da;" 
d="M616 1253q-103 0 -166 60t-63 157t63 156.5t166 59.5q101 0 163.5 -59.5t62.5 -156.5t-62.5 -157t-163.5 -60zM614 1339q58 0 93.5 36t35.5 95t-35.5 95.5t-93.5 36.5t-93.5 -36.5t-35.5 -95.5t35.5 -95t93.5 -36z" />
    <glyph glyph-name="ogonek" unicode="&#x2db;" 
d="M776 -406h-153q-96 0 -152.5 47.5t-56.5 127.5q0 130 170 251h106l-22 -20q-127 -112 -127 -203q0 -46 29 -74t79 -28h127v-101z" />
    <glyph glyph-name="tilde" unicode="&#x2dc;" 
d="M764 1331q-44 0 -81 17.5t-62 42.5t-47.5 50t-47.5 42.5t-51 17.5q-40 0 -63 -24.5t-23 -67.5v-68h-102v68q0 89 49.5 138.5t134.5 49.5q44 0 81 -17.5t62 -42.5t47.5 -50t47.5 -42.5t51 -17.5q37 0 58.5 25t21.5 68v67h102v-67q0 -89 -48 -139t-130 -50z" />
    <glyph glyph-name="hungarumlaut" unicode="&#x2dd;" 
d="M471 1321h-135l221 287h148zM813 1321h-135l221 287h148z" />
    <glyph glyph-name="uni02F3" unicode="&#x2f3;" 
d="M-614 -506q-103 0 -165.5 55t-62.5 144t62.5 143.5t165.5 54.5t165 -54.5t62 -143.5t-62 -144t-165 -55zM-616 -422q60 0 95.5 32t35.5 83q0 55 -34.5 86t-96.5 31q-57 0 -92 -33t-35 -84t35 -83t92 -32z" />
    <glyph glyph-name="uni02F7" unicode="&#x2f7;" 
d="M764 -430q-44 0 -81 17.5t-62 42.5t-47.5 50t-47.5 42.5t-51 17.5q-40 0 -63 -24.5t-23 -67.5v-68h-102v68q0 89 49.5 138.5t134.5 49.5q44 0 81 -17.5t62 -42.5t47.5 -50t47.5 -42.5t51 -17.5q37 0 58.5 24.5t21.5 67.5v68h102v-68q0 -89 -48 -138.5t-130 -49.5z" />
    <glyph glyph-name="gravecomb" unicode="&#x300;" horiz-adv-x="0" 
d="M-1724 1321h-146l-233 287h157z" />
    <glyph glyph-name="acutecomb" unicode="&#x301;" horiz-adv-x="0" 
d="M-1815 1321h-141l217 287h152z" />
    <glyph glyph-name="uni0302" unicode="&#x302;" horiz-adv-x="0" 
d="M-2030 1321h-145l260 287h141l263 -287h-142l-190 199z" />
    <glyph glyph-name="tildecomb" unicode="&#x303;" horiz-adv-x="0" 
d="M-1694 1331q-44 0 -81 17.5t-62 42.5t-47 50t-47 42.5t-51 17.5q-40 0 -63 -24.5t-23 -67.5v-68h-103v68q0 89 49.5 138.5t134.5 49.5q44 0 81 -17.5t62 -42.5t47.5 -50t47.5 -42.5t51 -17.5q37 0 58.5 25t21.5 68v67h102v-67q0 -89 -48 -139t-130 -50z" />
    <glyph glyph-name="uni0304" unicode="&#x304;" horiz-adv-x="0" 
d="M-1540 1389h-606v114h606v-114z" />
    <glyph glyph-name="uni0306" unicode="&#x306;" horiz-adv-x="0" 
d="M-1843 1315q-141 0 -225 79.5t-84 213.5h112q0 -91 53 -144t142 -53q91 0 144.5 53t53.5 144h113q0 -134 -84 -213.5t-225 -79.5z" />
    <glyph glyph-name="uni0307" unicode="&#x307;" horiz-adv-x="0" 
d="M-1843 1337q-60 0 -94.5 32t-34.5 87q0 56 34.5 88.5t94.5 32.5t94.5 -32.5t34.5 -88.5q0 -55 -34.5 -87t-94.5 -32z" />
    <glyph glyph-name="uni0308" unicode="&#x308;" horiz-adv-x="0" 
d="M-2066 1337q-53 0 -84 32t-31 87t31 88t84 33q54 0 85 -32.5t31 -88.5q0 -55 -31 -87t-85 -32zM-1620 1337q-54 0 -85.5 32t-31.5 87q0 56 31.5 88.5t85.5 32.5q53 0 84 -33t31 -88t-31 -87t-84 -32z" />
    <glyph glyph-name="hookabovecomb" unicode="&#x309;" horiz-adv-x="0" 
d="M-1780 1321h-129l109 145q33 45 33 70q0 51 -72 51h-174v96h194q75 0 119.5 -36t44.5 -97q0 -62 -37 -108z" />
    <glyph glyph-name="uni030A" unicode="&#x30a;" horiz-adv-x="0" 
d="M-1841 1253q-103 0 -166.5 60t-63.5 157t63.5 156.5t166.5 59.5q101 0 163 -59.5t62 -156.5t-62 -157t-163 -60zM-1843 1339q58 0 93.5 36t35.5 95t-35.5 95.5t-93.5 36.5t-93.5 -36.5t-35.5 -95.5t35.5 -95t93.5 -36z" />
    <glyph glyph-name="uni030B" unicode="&#x30b;" horiz-adv-x="0" 
d="M-1987 1321h-135l221 287h148zM-1645 1321h-135l221 287h148z" />
    <glyph glyph-name="uni030C" unicode="&#x30c;" horiz-adv-x="0" 
d="M-1772 1321h-141l-262 287h143l191 -199l188 199h142z" />
    <glyph glyph-name="uni030F" unicode="&#x30f;" horiz-adv-x="0" 
d="M-2128 1608l221 -287h-135l-233 287h147zM-1786 1608l221 -287h-135l-233 287h147z" />
    <glyph glyph-name="uni0312" unicode="&#x312;" horiz-adv-x="0" 
d="M-1743 1802h117l-182 -481h-183z" />
    <glyph glyph-name="uni031B" unicode="&#x31b;" horiz-adv-x="0" 
d="M-1620 1030h-94v96h90q38 0 61 25t23 66v135h110v-140q0 -82 -52.5 -132t-137.5 -50z" />
    <glyph glyph-name="dotbelowcomb" unicode="&#x323;" horiz-adv-x="0" 
d="M-1843 -426q-60 0 -94.5 32.5t-34.5 86.5q0 56 34.5 88.5t94.5 32.5t94.5 -32.5t34.5 -88.5q0 -54 -34.5 -86.5t-94.5 -32.5z" />
    <glyph glyph-name="uni0325" unicode="&#x325;" horiz-adv-x="0" 
d="M-1843 -506q-103 0 -165.5 55t-62.5 144t62.5 143.5t165.5 54.5t165 -54.5t62 -143.5t-62 -144t-165 -55zM-1845 -422q60 0 95.5 32t35.5 83q0 55 -34.5 86t-96.5 31q-57 0 -92 -33t-35 -84t35 -83t92 -32z" />
    <glyph glyph-name="uni0326" unicode="&#x326;" horiz-adv-x="0" 
d="M-1898 -492h-140l189 297h166z" />
    <glyph glyph-name="uni0327" unicode="&#x327;" horiz-adv-x="0" 
d="M-1864 -406h-168v89h156q46 0 76.5 23.5t30.5 55.5q0 45 -63.5 74t-168.5 29l72 188h98l-45 -123q56 -6 106 -24t89 -57.5t39 -92.5q0 -69 -62 -115.5t-160 -46.5z" />
    <glyph glyph-name="uni0328" unicode="&#x328;" horiz-adv-x="0" 
d="M-1681 -406h-154q-96 0 -152.5 47.5t-56.5 127.5q0 130 170 251h107l-23 -20q-127 -112 -127 -203q0 -46 29.5 -74t79.5 -28h127v-101z" />
    <glyph glyph-name="uni0336" unicode="&#x336;" horiz-adv-x="0" 
d="M-1167 614h-1352v107h1352v-107z" />
    <glyph glyph-name="uni0337" unicode="&#x337;" horiz-adv-x="0" 
d="M-2222 -61h-133l889 1269h135z" />
    <glyph glyph-name="uni0338" unicode="&#x338;" horiz-adv-x="0" 
d="M-2111 -225h-109l645 1577h109z" />
    <glyph glyph-name="uni0374" unicode="&#x374;" 
d="M477 840h-115l158 637h217z" />
    <glyph glyph-name="uni0375" unicode="&#x375;" 
d="M303 -328h-115l158 637h217z" />
    <glyph glyph-name="uni037E" unicode="&#x37e;" 
d="M424 852h-29q-66 0 -107.5 40.5t-41.5 106.5q0 65 41.5 106.5t107.5 41.5h29q64 0 105.5 -41.5t41.5 -106.5q0 -66 -40.5 -106.5t-106.5 -40.5zM283 -328h-115l158 637h217z" />
    <glyph glyph-name="tonos" unicode="&#x384;" 
d="M602 1321h-141l217 287h151z" />
    <glyph glyph-name="dieresistonos" unicode="&#x385;" 
d="M657 1575h-108l164 268h125zM391 1337q-53 0 -84 32t-31 87t31 88t84 33q54 0 85.5 -32.5t31.5 -88.5q0 -55 -31.5 -87t-85.5 -32zM838 1337q-54 0 -85.5 32t-31.5 87q0 56 31.5 88.5t85.5 32.5q52 0 83 -32.5t31 -88.5q0 -55 -30.5 -87t-83.5 -32z" />
    <glyph glyph-name="Alphatonos" unicode="&#x386;" 
d="M262 0h-137l401 1495h176l402 -1495h-137l-109 418h-489zM217 1165h-129l115 328h143zM543 1081l-144 -546h428l-143 546q-50 192 -70 303q-18 -98 -71 -303z" />
    <glyph glyph-name="anoteleia" unicode="&#x387;" 
d="M410 543q-72 0 -115 42.5t-43 114.5q0 73 43 116.5t115 43.5t114.5 -43.5t42.5 -116.5q0 -72 -42.5 -114.5t-114.5 -42.5z" />
    <glyph glyph-name="Epsilontonos" unicode="&#x388;" 
d="M1053 0h-824v1495h824v-123h-688v-530h616v-121h-616v-598h688v-123zM-33 1165h-129l115 328h143z" />
    <glyph glyph-name="Etatonos" unicode="&#x389;" 
d="M346 0h-135v1495h135v-659h537v659h135v-1495h-135v713h-537v-713zM-33 1165h-129l115 328h143z" />
    <glyph glyph-name="Iotatonos" unicode="&#x38a;" 
d="M995 0h-762v123h314v1249h-314v123h762v-123h-311v-1249h311v-123zM-33 1165h-129l115 328h143z" />
    <glyph glyph-name="Omicrontonos" unicode="&#x38c;" 
d="M614 -20q-190 0 -301.5 112t-111.5 305v701q0 192 112 305t301 113t301.5 -113t112.5 -305v-701q0 -193 -111.5 -305t-302.5 -112zM33 1165h-129l114 328h144zM614 100q132 0 205.5 77.5t73.5 219.5v701q0 141 -73.5 219t-205.5 78t-205 -78t-73 -219v-701
q0 -142 73 -219.5t205 -77.5z" />
    <glyph glyph-name="Upsilontonos" unicode="&#x38e;" 
d="M682 0h-135v567l-457 928h139l322 -651q44 -89 65 -142q29 68 66 142l317 651h140l-457 -928v-567zM-66 1165h-129l115 328h143z" />
    <glyph glyph-name="Omegatonos" unicode="&#x38f;" 
d="M532 0h-430v121h322v22q-38 3 -75.5 23t-71.5 56t-55 98t-21 139v633q0 194 112 309t303 115q189 0 300.5 -115t111.5 -309v-633q0 -77 -21 -139t-55 -98t-71.5 -56t-75.5 -23v-22h321v-121h-430v193q89 0 143 71.5t54 190.5v637q0 139 -74.5 221t-202.5 82
q-129 0 -204.5 -81.5t-75.5 -221.5v-637q0 -118 53.5 -189t142.5 -71v-195zM33 1165h-129l114 328h144z" />
    <glyph glyph-name="iotadieresistonos" unicode="&#x390;" 
d="M657 1575h-108l164 268h125zM391 1337q-53 0 -84 32t-31 87t31 88t84 33q54 0 85.5 -32.5t31.5 -88.5q0 -55 -31.5 -87t-85.5 -32zM838 1337q-54 0 -85.5 32t-31.5 87q0 56 31.5 88.5t85.5 32.5q52 0 83 -32.5t31 -88.5q0 -55 -30.5 -87t-83.5 -32zM1114 0h-260
q-143 0 -223 77.5t-80 215.5v711h-420v122h555v-833q0 -82 43 -126t125 -44h260v-123z" />
    <glyph glyph-name="Alpha" unicode="&#x391;" 
d="M262 0h-137l401 1495h176l402 -1495h-137l-109 418h-489zM543 1081l-144 -546h428l-143 546q-50 192 -70 303q-18 -98 -71 -303z" />
    <glyph glyph-name="Beta" unicode="&#x392;" 
d="M805 776q124 -28 194 -124t70 -240q0 -189 -119 -300.5t-321 -111.5h-418v1495h401q193 0 306.5 -104t113.5 -281q0 -128 -60.5 -216.5t-166.5 -117.5zM612 1372h-268v-541h266q135 0 211 72.5t76 198.5t-76.5 198t-208.5 72zM344 123h277q145 0 229 78t84 213
q0 137 -84.5 218t-228.5 81h-277v-590z" />
    <glyph glyph-name="Gamma" unicode="&#x393;" 
d="M414 0h-135v1495h845v-123h-710v-1372z" />
    <glyph glyph-name="uni0394" unicode="&#x394;" 
d="M526 1495h176l402 -1495h-979zM543 1081l-250 -960h643l-252 960q-49 189 -70 308q-36 -172 -71 -308z" />
    <glyph glyph-name="Epsilon" unicode="&#x395;" 
d="M1053 0h-824v1495h824v-123h-688v-530h616v-121h-616v-598h688v-123z" />
    <glyph glyph-name="Zeta" unicode="&#x396;" 
d="M1049 0h-869v135l711 1237h-703v123h836v-143l-707 -1229h732v-123z" />
    <glyph glyph-name="Eta" unicode="&#x397;" 
d="M346 0h-135v1495h135v-659h537v659h135v-1495h-135v713h-537v-713z" />
    <glyph glyph-name="Theta" unicode="&#x398;" 
d="M614 -20q-190 0 -301.5 112t-111.5 305v701q0 192 112 305t301 113t301.5 -113t112.5 -305v-701q0 -193 -111.5 -305t-302.5 -112zM614 100q132 0 205.5 77.5t73.5 219.5v701q0 141 -73.5 219t-205.5 78t-205 -78t-73 -219v-701q0 -142 73 -219.5t205 -77.5zM805 698
h-381v123h381v-123z" />
    <glyph glyph-name="Iota" unicode="&#x399;" 
d="M995 0h-762v123h314v1249h-314v123h762v-123h-311v-1249h311v-123z" />
    <glyph glyph-name="Kappa" unicode="&#x39a;" 
d="M346 0h-135v1495h135v-661h277l331 661h148l-361 -717l381 -778h-157l-347 715h-272v-715z" />
    <glyph glyph-name="Lambda" unicode="&#x39b;" 
d="M262 0h-137l401 1495h176l402 -1495h-137l-283 1081q-20 78 -37.5 155t-24.5 115l-8 38q-26 -132 -71 -308z" />
    <glyph glyph-name="Mu" unicode="&#x39c;" 
d="M307 0h-131v1495h189l188 -537q41 -119 63 -204q37 126 66 204l184 537h187v-1495h-131v823q0 322 26 604l-264 -765h-137l-268 765q28 -300 28 -604v-823z" />
    <glyph glyph-name="Nu" unicode="&#x39d;" 
d="M340 0h-131v1495h182l512 -1341q-14 210 -14 317v1024h131v-1495h-182l-508 1341q10 -158 10 -317v-1024z" />
    <glyph glyph-name="Xi" unicode="&#x39e;" 
d="M1059 1366h-889v129h889v-129zM985 694h-741v127h741v-127zM1059 0h-889v129h889v-129z" />
    <glyph glyph-name="Omicron" unicode="&#x39f;" 
d="M614 -20q-190 0 -301.5 112t-111.5 305v701q0 192 112 305t301 113t301.5 -113t112.5 -305v-701q0 -193 -111.5 -305t-302.5 -112zM614 100q132 0 205.5 77.5t73.5 219.5v701q0 141 -73.5 219t-205.5 78t-205 -78t-73 -219v-701q0 -142 73 -219.5t205 -77.5z" />
    <glyph glyph-name="Pi" unicode="&#x3a0;" 
d="M348 0h-135v1495h803v-1495h-135v1372h-533v-1372z" />
    <glyph glyph-name="Rho" unicode="&#x3a1;" 
d="M346 0h-135v1495h457q201 0 320.5 -116t119.5 -310q0 -193 -120 -309.5t-320 -116.5h-322v-643zM346 1372v-606h322q138 0 220.5 82.5t82.5 220.5q0 139 -82.5 221t-220.5 82h-322z" />
    <glyph glyph-name="Sigma" unicode="&#x3a3;" 
d="M1133 0h-967v125l491 639l-491 606v125h967v-123h-811l497 -606l-497 -643h811v-123z" />
    <glyph glyph-name="Tau" unicode="&#x3a4;" 
d="M684 0h-135v1372h-430v123h991v-123h-426v-1372z" />
    <glyph glyph-name="Upsilon" unicode="&#x3a5;" 
d="M682 0h-135v567l-457 928h139l322 -651q44 -89 65 -142q29 68 66 142l317 651h140l-457 -928v-567z" />
    <glyph glyph-name="Phi" unicode="&#x3a6;" 
d="M680 -51h-131v143q-193 0 -308.5 113.5t-115.5 304.5v504q0 192 114.5 306t309.5 114v143h131v-143q195 0 309.5 -114t114.5 -306v-504q0 -191 -115.5 -304.5t-308.5 -113.5v-143zM549 209v1108q-131 0 -212 -84.5t-81 -218.5v-504q0 -134 80.5 -217.5t212.5 -83.5z
M680 1317v-1108q132 0 212.5 83.5t80.5 217.5v504q0 134 -81 218.5t-212 84.5z" />
    <glyph glyph-name="Chi" unicode="&#x3a7;" 
d="M248 0h-150l439 770l-412 725h154l243 -451q48 -91 94 -167q49 84 93 167l247 451h148l-412 -717l438 -778h-153l-268 500l-95 170q-55 -103 -92 -170z" />
    <glyph glyph-name="Psi" unicode="&#x3a8;" 
d="M680 0h-131v348q-193 0 -308.5 113.5t-115.5 304.5v729h131v-729q0 -134 80.5 -217.5t212.5 -83.5v1030h131v-1030q132 0 212.5 83.5t80.5 217.5v729h131v-729q0 -191 -115.5 -304.5t-308.5 -113.5v-348z" />
    <glyph glyph-name="uni03A9" unicode="&#x3a9;" 
d="M532 0h-430v121h322v22q-38 3 -75.5 23t-71.5 56t-55 98t-21 139v633q0 194 112 309t303 115q189 0 300.5 -115t111.5 -309v-633q0 -77 -21 -139t-55 -98t-71.5 -56t-75.5 -23v-22h321v-121h-430v193q89 0 143 71.5t54 190.5v637q0 139 -74.5 221t-202.5 82
q-129 0 -204.5 -81.5t-75.5 -221.5v-637q0 -118 53.5 -189t142.5 -71v-195z" />
    <glyph glyph-name="Iotadieresis" unicode="&#x3aa;" 
d="M395 1683q-54 0 -85 32.5t-31 86.5q0 56 31 88.5t85 32.5q53 0 84 -33t31 -88q0 -54 -31.5 -86.5t-83.5 -32.5zM840 1683q-53 0 -85 32.5t-32 86.5q0 55 32 88t85 33q54 0 85 -32.5t31 -88.5q0 -54 -31 -86.5t-85 -32.5zM995 0h-762v123h314v1249h-314v123h762v-123h-311
v-1249h311v-123z" />
    <glyph glyph-name="Upsilondieresis" unicode="&#x3ab;" 
d="M395 1683q-54 0 -85 32.5t-31 86.5q0 56 31 88.5t85 32.5q53 0 84 -33t31 -88q0 -54 -31.5 -86.5t-83.5 -32.5zM840 1683q-53 0 -85 32.5t-32 86.5q0 55 32 88t85 33q54 0 85 -32.5t31 -88.5q0 -54 -31 -86.5t-85 -32.5zM682 0h-135v567l-457 928h139l322 -651
q44 -89 65 -142q29 68 66 142l317 651h140l-457 -928v-567z" />
    <glyph glyph-name="alphatonos" unicode="&#x3ac;" 
d="M727 1608h152l-230 -287h-139zM881 948v178h135v-1126h-135v178h-2q-29 -93 -110.5 -145.5t-197.5 -52.5q-169 0 -268.5 112t-99.5 301v342q0 188 100 300t268 112q117 0 198.5 -53t109.5 -146h2zM608 96q130 0 201.5 79.5t71.5 221.5v334q0 141 -72 220t-201 79
q-127 0 -198.5 -79t-71.5 -220v-334q0 -142 71 -221.5t199 -79.5z" />
    <glyph glyph-name="epsilontonos" unicode="&#x3ad;" 
d="M627 1321h-142l217 287h154zM668 -18h-107q-172 0 -275.5 88.5t-103.5 232.5q0 117 66 193.5t180 83.5v8q-105 6 -166 75t-61 179q0 133 101.5 218t264.5 85h109q165 0 260 -74t119 -209h-140q-45 162 -239 162h-109q-98 0 -162.5 -56.5t-64.5 -140.5t58.5 -135
t154.5 -51h250v-119h-248q-105 0 -169 -60t-64 -153q0 -90 67 -148.5t172 -58.5h107q107 0 174 42.5t88 115.5h139q-24 -131 -127 -204.5t-274 -73.5z" />
    <glyph glyph-name="etatonos" unicode="&#x3ae;" 
d="M762 1608h151l-227 -287h-141zM653 1147q168 0 268.5 -106t100.5 -287v-1123h-135v1106q0 139 -71 217t-195 78q-128 0 -201.5 -81t-73.5 -222v-729h-135v1126h135v-202q23 105 103.5 164t203.5 59z" />
    <glyph glyph-name="iotatonos" unicode="&#x3af;" 
d="M676 1321h-141l217 287h151zM1114 0h-260q-143 0 -223 77.5t-80 215.5v711h-420v122h555v-833q0 -82 43 -126t125 -44h260v-123z" />
    <glyph glyph-name="upsilondieresistonos" unicode="&#x3b0;" 
d="M657 1575h-108l164 268h125zM391 1337q-53 0 -84 32t-31 87t31 88t84 33q54 0 85.5 -32.5t31.5 -88.5q0 -55 -31.5 -87t-85.5 -32zM838 1337q-54 0 -85.5 32t-31.5 87q0 56 31.5 88.5t85.5 32.5q52 0 83 -32.5t31 -88.5q0 -55 -30.5 -87t-83.5 -32zM612 -20
q-188 0 -296.5 113t-108.5 308v725h135v-725q0 -142 72 -221.5t198 -79.5q128 0 201.5 79.5t73.5 221.5v725h135v-725q0 -195 -110.5 -308t-299.5 -113z" />
    <glyph glyph-name="alpha" unicode="&#x3b1;" 
d="M881 948v178h135v-1126h-135v178h-2q-29 -93 -110.5 -145.5t-197.5 -52.5q-169 0 -268.5 112t-99.5 301v342q0 188 100 300t268 112q117 0 198.5 -53t109.5 -146h2zM608 96q130 0 201.5 79.5t71.5 221.5v334q0 141 -72 220t-201 79q-127 0 -198.5 -79t-71.5 -220v-334
q0 -142 71 -221.5t199 -79.5z" />
    <glyph glyph-name="beta" unicode="&#x3b2;" 
d="M346 -369h-135v1473q0 186 114 299t300 113q189 0 300 -105t111 -281q0 -131 -64 -224t-173 -124q127 -28 197.5 -121t70.5 -235q0 -194 -117 -310t-317 -116h-287v-369zM346 1104v-981h279q145 0 224 78.5t79 216.5q0 137 -79 213t-224 76h-86v118h84q126 0 201 79
t75 206q0 131 -73 207t-203 76q-127 0 -202 -78.5t-75 -210.5z" />
    <glyph glyph-name="gamma" unicode="&#x3b3;" 
d="M682 -369h-135v369l-404 1126h142l276 -790q23 -61 57 -205q47 173 58 205l272 790h137l-403 -1126v-369z" />
    <glyph glyph-name="delta" unicode="&#x3b4;" 
d="M616 -20q-195 0 -304 114.5t-109 319.5v180q0 194 86 303t243 109q96 0 179 -62l8 8l-477 424v119h729v-117h-570l435 -379q190 -166 190 -401v-184q0 -205 -108 -319.5t-302 -114.5zM616 100q131 0 203 82.5t72 231.5v184q0 151 -72.5 234t-204.5 83t-204 -83t-72 -234
v-184q0 -150 72.5 -232t205.5 -82z" />
    <glyph glyph-name="epsilon" unicode="&#x3b5;" 
d="M668 -18h-107q-172 0 -275.5 88.5t-103.5 232.5q0 117 66 193.5t180 83.5v8q-105 6 -166 75t-61 179q0 133 101.5 218t264.5 85h109q165 0 260 -74t119 -209h-140q-45 162 -239 162h-109q-98 0 -162.5 -56.5t-64.5 -140.5t58.5 -135t154.5 -51h250v-119h-248
q-105 0 -169 -60t-64 -153q0 -90 67 -148.5t172 -58.5h107q107 0 174 42.5t88 115.5h139q-24 -131 -127 -204.5t-274 -73.5z" />
    <glyph glyph-name="zeta" unicode="&#x3b6;" 
d="M1073 -369h-135v273q0 45 -25.5 70.5t-72.5 25.5h-293q-186 0 -286.5 91.5t-100.5 256.5q0 94 39 192t147.5 244t298.5 344l242 244h-697v123h832v-143l-289 -301q-249 -264 -343.5 -421.5t-94.5 -277.5q0 -111 65.5 -171t186.5 -60h293q233 0 233 -217v-273z" />
    <glyph glyph-name="eta" unicode="&#x3b7;" 
d="M653 1147q168 0 268.5 -106t100.5 -287v-1123h-135v1106q0 139 -71 217t-195 78q-128 0 -201.5 -81t-73.5 -222v-729h-135v1126h135v-202q23 105 103.5 164t203.5 59z" />
    <glyph glyph-name="theta" unicode="&#x3b8;" 
d="M614 -20q-190 0 -301.5 112t-111.5 305v680q0 192 112 305t301 113t301.5 -113t112.5 -305v-680q0 -193 -111.5 -305t-302.5 -112zM336 1077v-260h557v260q0 142 -73.5 220.5t-205.5 78.5t-205 -78.5t-73 -220.5zM614 98q132 0 205.5 78.5t73.5 220.5v301h-557v-301
q0 -142 73 -220.5t205 -78.5z" />
    <glyph glyph-name="iota" unicode="&#x3b9;" 
d="M1114 0h-260q-143 0 -223 77.5t-80 215.5v711h-420v122h555v-833q0 -82 43 -126t125 -44h260v-123z" />
    <glyph glyph-name="kappa" unicode="&#x3ba;" 
d="M352 0h-135v1126h135v-481h248l344 481h158l-379 -534l385 -592h-160l-346 524h-250v-524z" />
    <glyph glyph-name="lambda" unicode="&#x3bb;" 
d="M274 0h-149l432 1106l-154 389h150l551 -1495h-146l-264 731q-6 16 -76 240q-22 -110 -71 -240z" />
    <glyph glyph-name="uni03BC" unicode="&#x3bc;" 
d="M889 397v729h135v-1126h-133v178q-25 -94 -95.5 -146t-181.5 -52q-110 0 -178 51.5t-92 146.5l2 -194v-353h-135v1495h135v-729q0 -143 70.5 -222t197.5 -79q129 0 202 79.5t73 221.5z" />
    <glyph glyph-name="nu" unicode="&#x3bd;" 
d="M700 0h-172l-426 1126h142l309 -807q11 -28 21.5 -62.5t17 -58t14.5 -55.5t10 -41q40 150 66 217l305 807h139z" />
    <glyph glyph-name="xi" unicode="&#x3be;" 
d="M666 123h241q107 0 169.5 -59t62.5 -160v-271h-135v271q0 44 -26.5 70t-70.5 26h-241q-215 0 -341 115.5t-126 312.5q0 152 76.5 251t211.5 124q-120 23 -188 107.5t-68 211.5q0 172 116.5 272.5t314.5 100.5h368v-123h-368q-135 0 -214 -69t-79 -189t77 -189t209 -69
h310v-121h-306q-149 0 -235 -83t-86 -224t88.5 -223t239.5 -82z" />
    <glyph glyph-name="omicron" unicode="&#x3bf;" 
d="M614 -18q-191 0 -303 112.5t-112 304.5v328q0 192 112 305t303 113q190 0 303 -112.5t113 -303.5v-330q0 -192 -112 -304.5t-304 -112.5zM614 100q133 0 207 77.5t74 221.5v328q0 142 -74.5 220.5t-206.5 78.5t-206 -78.5t-74 -220.5v-328q0 -144 73.5 -221.5
t206.5 -77.5z" />
    <glyph glyph-name="pi" unicode="&#x3c0;" 
d="M1124 -10h-49q-133 0 -212 82.5t-79 220.5v713h-409v-1006h-131v1006h-181v120h1061v-120h-209v-717q0 -83 41.5 -128.5t114.5 -45.5h53v-125z" />
    <glyph glyph-name="rho" unicode="&#x3c1;" 
d="M621 1147q187 0 296 -111.5t109 -300.5v-342q0 -189 -100.5 -301t-268.5 -112q-118 0 -198.5 52.5t-108.5 145.5h-4l2 -194v-353h-135v1104q-2 191 108 301.5t300 110.5zM891 397v334q0 141 -71.5 220t-198.5 79q-130 0 -202.5 -79t-70.5 -220v-334q0 -142 72 -221.5
t201 -79.5q128 0 199 79.5t71 221.5z" />
    <glyph glyph-name="uni03C2" unicode="&#x3c2;" 
d="M1077 -369h-135v273q0 44 -26 70t-72 26h-223q-195 0 -308.5 109t-113.5 301v319q0 192 115 305t307 113q189 0 302.5 -105.5t114.5 -283.5h-135q-1 126 -76 196t-206 70q-133 0 -210 -78t-77 -217v-319q0 -138 76.5 -212.5t210.5 -74.5h223q109 0 171 -59t62 -160v-273z
" />
    <glyph glyph-name="sigma" unicode="&#x3c3;" 
d="M612 1126h494v-120h-283q94 -20 148.5 -96t54.5 -189v-324q0 -190 -113 -303.5t-301 -113.5t-300.5 113.5t-112.5 303.5v324q0 182 113.5 293.5t299.5 111.5zM891 397v324q0 143 -66.5 215t-212.5 72q-132 0 -205 -74.5t-73 -212.5v-324q0 -140 73.5 -219.5t204.5 -79.5
q130 0 204.5 79.5t74.5 219.5z" />
    <glyph glyph-name="tau" unicode="&#x3c4;" 
d="M1026 0h-238q-135 0 -208.5 71t-73.5 201v732h-371v122h916v-122h-410v-732q0 -149 147 -149h238v-123z" />
    <glyph glyph-name="upsilon" unicode="&#x3c5;" 
d="M612 -20q-188 0 -296.5 113t-108.5 308v725h135v-725q0 -142 72 -221.5t198 -79.5q128 0 201.5 79.5t73.5 221.5v725h135v-725q0 -195 -110.5 -308t-299.5 -113z" />
    <glyph glyph-name="phi" unicode="&#x3c6;" 
d="M678 -369h-127v369q-199 0 -309.5 110t-110.5 304v712h127v-712q0 -142 78.5 -221.5t220.5 -79.5v1013h193q161 0 254.5 -90.5t93.5 -247.5v-374q0 -194 -110.5 -304t-309.5 -110v-369zM672 1016v-903q142 0 220.5 79.5t78.5 221.5v374q0 106 -59 167t-162 61h-78z" />
    <glyph glyph-name="chi" unicode="&#x3c7;" 
d="M248 -369h-150l439 770l-412 725h154l243 -450q53 -100 94 -168q43 74 93 168l247 450h148l-412 -716l438 -779h-153l-268 500l-95 170q-55 -103 -92 -170z" />
    <glyph glyph-name="psi" unicode="&#x3c8;" 
d="M678 -369h-127v369q-196 0 -306 111t-110 303v712h127v-712q0 -142 77 -218.5t218 -76.5v1007h115v-1007q141 0 218 76.5t77 218.5v712h127v-712q0 -192 -110 -303t-306 -111v-369z" />
    <glyph glyph-name="omega" unicode="&#x3c9;" 
d="M809 1008v135q135 -23 212 -124.5t77 -256.5v-467q0 -146 -68.5 -230.5t-185.5 -84.5q-92 0 -152.5 51.5t-77.5 142.5q-17 -91 -77 -142.5t-152 -51.5q-117 0 -185.5 84.5t-68.5 230.5v467q0 157 76 259.5t209 125.5v-135q-74 -20 -115 -86t-41 -164v-467
q0 -97 38.5 -148t109.5 -51q70 0 108.5 51t38.5 148v457h119v-457q0 -98 38 -148.5t109 -50.5q70 0 109 51t39 148v467q0 95 -42.5 160.5t-117.5 85.5z" />
    <glyph glyph-name="iotadieresis" unicode="&#x3ca;" 
d="M391 1337q-53 0 -84 32t-31 87t31 88t84 33q54 0 85.5 -32.5t31.5 -88.5q0 -55 -31.5 -87t-85.5 -32zM838 1337q-54 0 -85.5 32t-31.5 87q0 56 31.5 88.5t85.5 32.5q52 0 83 -32.5t31 -88.5q0 -55 -30.5 -87t-83.5 -32zM1114 0h-260q-143 0 -223 77.5t-80 215.5v711h-420
v122h555v-833q0 -82 43 -126t125 -44h260v-123z" />
    <glyph glyph-name="upsilondieresis" unicode="&#x3cb;" 
d="M391 1337q-53 0 -84 32t-31 87t31 88t84 33q54 0 85.5 -32.5t31.5 -88.5q0 -55 -31.5 -87t-85.5 -32zM838 1337q-54 0 -85.5 32t-31.5 87q0 56 31.5 88.5t85.5 32.5q52 0 83 -32.5t31 -88.5q0 -55 -30.5 -87t-83.5 -32zM612 -20q-188 0 -296.5 113t-108.5 308v725h135
v-725q0 -142 72 -221.5t198 -79.5q128 0 201.5 79.5t73.5 221.5v725h135v-725q0 -195 -110.5 -308t-299.5 -113z" />
    <glyph glyph-name="omicrontonos" unicode="&#x3cc;" 
d="M676 1321h-141l217 287h151zM614 -18q-191 0 -303 112.5t-112 304.5v328q0 192 112 305t303 113q190 0 303 -112.5t113 -303.5v-330q0 -192 -112 -304.5t-304 -112.5zM614 100q133 0 207 77.5t74 221.5v328q0 142 -74.5 220.5t-206.5 78.5t-206 -78.5t-74 -220.5v-328
q0 -144 73.5 -221.5t206.5 -77.5z" />
    <glyph glyph-name="upsilontonos" unicode="&#x3cd;" 
d="M676 1321h-141l217 287h151zM612 -20q-188 0 -296.5 113t-108.5 308v725h135v-725q0 -142 72 -221.5t198 -79.5q128 0 201.5 79.5t73.5 221.5v725h135v-725q0 -195 -110.5 -308t-299.5 -113z" />
    <glyph glyph-name="omegatonos" unicode="&#x3ce;" 
d="M719 1608h151l-227 -287h-141zM809 1008v135q135 -23 212 -124.5t77 -256.5v-467q0 -146 -68.5 -230.5t-185.5 -84.5q-92 0 -152.5 51.5t-77.5 142.5q-17 -91 -77 -142.5t-152 -51.5q-117 0 -185.5 84.5t-68.5 230.5v467q0 157 76 259.5t209 125.5v-135q-74 -20 -115 -86
t-41 -164v-467q0 -97 38.5 -148t109.5 -51q70 0 108.5 51t38.5 148v457h119v-457q0 -98 38 -148.5t109 -50.5q70 0 109 51t39 148v467q0 95 -42.5 160.5t-117.5 85.5z" />
    <glyph glyph-name="uni03CF" unicode="&#x3cf;" 
d="M741 778l322 -657h100v-164q0 -158 -87 -242t-251 -84h-77v121h77q97 0 152 54t55 151v43h-67l-347 715h-272v-715h-135v1495h135v-661h277l331 661h148z" />
    <glyph glyph-name="uni03D5" unicode="&#x3d5;" 
d="M676 -369h-123v369q-197 0 -311.5 111t-114.5 303v303q0 190 114.5 299.5t311.5 109.5v371h123v-371q197 0 311.5 -109.5t114.5 -299.5v-303q0 -192 -114.5 -303t-311.5 -111v-369zM553 111v905q-140 0 -218.5 -79t-78.5 -220v-303q0 -142 78.5 -222.5t218.5 -80.5z
M676 1016v-905q140 0 218.5 80.5t78.5 222.5v303q0 141 -78.5 220t-218.5 79z" />
    <glyph glyph-name="uni03D6" unicode="&#x3d6;" 
d="M37 1126h1155v-122h-225q62 -34 96.5 -97t34.5 -147v-465q0 -146 -68.5 -230.5t-185.5 -84.5q-93 0 -153 52t-77 146q-17 -94 -76.5 -146t-152.5 -52q-117 0 -185.5 84.5t-68.5 230.5v465q0 84 34.5 147t96.5 97h-225v122zM969 295v510q0 97 -39 148t-109 51h-413
q-71 0 -109.5 -51t-38.5 -148v-510q0 -97 38.5 -148t109.5 -51q70 0 108.5 51t38.5 148v457h119v-457q0 -98 38 -148.5t109 -50.5q70 0 109 51t39 148z" />
    <glyph glyph-name="uni03D7" unicode="&#x3d7;" 
d="M1018 1126v-1005h72v-164q0 -158 -87 -242t-251 -84h-78v121h78q97 0 151.5 54t54.5 151v43h-71v676q0 197 14 330l-514 -1006h-176v1126h131v-675q0 -193 -14 -330l512 1005h178z" />
    <glyph glyph-name="uni0401" unicode="&#x401;" 
d="M434 1683q-52 0 -83.5 32.5t-31.5 86.5q0 55 31 88t84 33q54 0 85.5 -32.5t31.5 -88.5q0 -54 -31.5 -86.5t-85.5 -32.5zM881 1683q-54 0 -85.5 32.5t-31.5 86.5q0 56 31.5 88.5t85.5 32.5q52 0 83 -32.5t31 -88.5q0 -54 -31 -86.5t-83 -32.5zM1053 0h-824v1495h824v-123
h-688v-530h616v-121h-616v-598h688v-123z" />
    <glyph glyph-name="uni0402" unicode="&#x402;" 
d="M649 -369h-108v123h108q135 0 211 74t76 203v624q0 117 -47 180.5t-133 63.5q-119 0 -242 -129l-129 -135v-635h-135v1374h-250v121h637v-121h-252v-598l72 74q150 164 325 164q132 0 210.5 -89.5t78.5 -240.5v-653q0 -183 -115 -291.5t-307 -108.5z" />
    <glyph glyph-name="uni0403" unicode="&#x403;" 
d="M705 1659h-142l217 287h152zM414 0h-135v1495h845v-123h-710v-1372z" />
    <glyph glyph-name="uni0404" unicode="&#x404;" 
d="M625 -20q-194 0 -308 112.5t-114 304.5v701q0 193 114 305.5t308 112.5q195 0 309.5 -117t114.5 -314h-136q0 145 -76.5 227.5t-211.5 82.5q-134 0 -210.5 -79t-76.5 -218v-283h473v-123h-473v-295q0 -140 76 -218.5t211 -78.5q136 0 212 82.5t76 227.5h136
q0 -197 -114.5 -313.5t-309.5 -116.5z" />
    <glyph glyph-name="uni0405" unicode="&#x405;" 
d="M625 -20q-212 0 -336.5 109.5t-124.5 295.5h135q0 -129 88.5 -207t237.5 -78q142 0 224.5 73.5t82.5 201.5q0 106 -59 185.5t-160 111.5l-193 57q-149 46 -232 152.5t-83 251.5q0 177 114 280t308 103q192 0 306 -107.5t114 -288.5h-136q0 125 -78 200t-208 75
q-132 0 -209.5 -68.5t-77.5 -185.5q0 -100 56.5 -174t154.5 -105l196 -61q148 -47 234 -160t86 -262q0 -183 -119.5 -291t-320.5 -108z" />
    <glyph glyph-name="uni0406" unicode="&#x406;" 
d="M995 0h-762v123h314v1249h-314v123h762v-123h-311v-1249h311v-123z" />
    <glyph glyph-name="uni0407" unicode="&#x407;" 
d="M395 1683q-54 0 -85 32.5t-31 86.5q0 56 31 88.5t85 32.5q53 0 84 -33t31 -88q0 -54 -31.5 -86.5t-83.5 -32.5zM840 1683q-53 0 -85 32.5t-32 86.5q0 55 32 88t85 33q54 0 85 -32.5t31 -88.5q0 -54 -31 -86.5t-85 -32.5zM995 0h-762v123h314v1249h-314v123h762v-123h-311
v-1249h311v-123z" />
    <glyph glyph-name="uni0408" unicode="&#x408;" 
d="M559 -20q-204 0 -320 117t-116 321h135q0 -149 80 -233.5t221 -84.5t221 84t80 232v954h-446v125h581v-1079q0 -202 -116.5 -319t-319.5 -117z" />
    <glyph glyph-name="uni0409" unicode="&#x409;" 
d="M33 -10h-43v127h45q61 0 96 62t37 173l16 1143h537v-627h133q144 0 229.5 -85t85.5 -226v-246q0 -141 -85.5 -226t-229.5 -85h-260v1378h-285l-14 -1026q-2 -166 -73 -264t-189 -98zM721 752v-635h133q86 0 137 52.5t51 141.5v246q0 89 -51 142t-137 53h-133z" />
    <glyph glyph-name="uni040A" unicode="&#x40a;" 
d="M246 0h-127v1495h127v-627h348v627h127v-627h127q148 0 234.5 -84t86.5 -227v-246q0 -143 -86.5 -227t-234.5 -84h-254v752h-348v-752zM721 752v-635h127q91 0 142.5 51.5t51.5 142.5v246q0 91 -51.5 143t-142.5 52h-127z" />
    <glyph glyph-name="uni040B" unicode="&#x40b;" 
d="M385 0h-135v1374h-250v121h637v-121h-252v-600l72 76q153 164 327 164q131 0 209 -89.5t78 -240.5v-684h-135v655q0 117 -47 180.5t-133 63.5q-119 0 -242 -129l-129 -135v-635z" />
    <glyph glyph-name="uni040C" unicode="&#x40c;" 
d="M664 1659h-142l217 287h152zM346 0h-135v1495h135v-661h277l331 661h148l-361 -717l381 -778h-157l-347 715h-272v-715z" />
    <glyph glyph-name="uni040E" unicode="&#x40e;" 
d="M614 1653q-141 0 -225 79.5t-84 213.5h113q0 -91 52.5 -144t141.5 -53q91 0 145 53t54 144h113q0 -133 -84.5 -213t-225.5 -80zM561 0h-147l151 389l-440 1106h149l277 -731q52 -137 82 -246q27 115 74 246l251 731h146z" />
    <glyph glyph-name="uni040F" unicode="&#x40f;" 
d="M686 -256h-141v256h-332v1495h141v-1366h520v1366h142v-1495h-330v-256z" />
    <glyph glyph-name="uni0410" unicode="&#x410;" 
d="M262 0h-137l401 1495h176l402 -1495h-137l-109 418h-489zM543 1081l-144 -546h428l-143 546q-50 192 -70 303q-18 -98 -71 -303z" />
    <glyph glyph-name="uni0411" unicode="&#x411;" 
d="M627 0h-414v1495h795v-123h-660v-524h279q203 0 322.5 -114.5t119.5 -307.5q0 -194 -120 -310t-322 -116zM348 725v-602h279q141 0 222 80t81 221t-81 221t-222 80h-279z" />
    <glyph glyph-name="uni0412" unicode="&#x412;" 
d="M805 776q124 -28 194 -124t70 -240q0 -189 -119 -300.5t-321 -111.5h-418v1495h401q193 0 306.5 -104t113.5 -281q0 -128 -60.5 -216.5t-166.5 -117.5zM612 1372h-268v-541h266q135 0 211 72.5t76 198.5t-76.5 198t-208.5 72zM344 123h277q145 0 229 78t84 213
q0 137 -84.5 218t-228.5 81h-277v-590z" />
    <glyph glyph-name="uni0413" unicode="&#x413;" 
d="M414 0h-135v1495h845v-123h-710v-1372z" />
    <glyph glyph-name="uni0414" unicode="&#x414;" 
d="M201 -287h-121v406h78q47 68 86.5 194.5t42.5 270.5l18 911h696v-1376h146v-406h-121v287h-825v-287zM301 119h565v1255h-430l-16 -790q-3 -149 -39.5 -275t-79.5 -190z" />
    <glyph glyph-name="uni0415" unicode="&#x415;" 
d="M1053 0h-824v1495h824v-123h-688v-530h616v-121h-616v-598h688v-123z" />
    <glyph glyph-name="uni0416" unicode="&#x416;" 
d="M184 0h-139l272 774l-251 721h139l229 -676h121v676h117v-676h123l227 676h139l-252 -723l273 -772h-142l-245 715h-123v-715h-117v715h-125z" />
    <glyph glyph-name="uni0417" unicode="&#x417;" 
d="M782 778q132 -28 209.5 -126t77.5 -242q0 -192 -131.5 -311t-343.5 -119q-209 0 -339.5 114.5t-131.5 300.5h135q2 -132 94.5 -213.5t241.5 -81.5q151 0 244.5 85t93.5 221q0 137 -93.5 222t-244.5 85h-168v121h160q139 0 225 77.5t86 202.5q0 126 -86 204.5t-225 78.5
t-225.5 -79.5t-86.5 -207.5h-135q0 181 124.5 293.5t324.5 112.5q199 0 321.5 -109.5t122.5 -286.5q0 -132 -67 -223t-183 -119z" />
    <glyph glyph-name="uni0418" unicode="&#x418;" 
d="M391 0h-184v1495h131v-1024q0 -159 -10 -317l510 1341h184v-1495h-131v1024q0 47 12 317z" />
    <glyph glyph-name="uni0419" unicode="&#x419;" 
d="M614 1653q-141 0 -225 79.5t-84 213.5h113q0 -91 52.5 -144t141.5 -53q91 0 145 53t54 144h113q0 -133 -84.5 -213t-225.5 -80zM391 0h-184v1495h131v-1024q0 -159 -10 -317l510 1341h184v-1495h-131v1024q0 47 12 317z" />
    <glyph glyph-name="uni041A" unicode="&#x41a;" 
d="M346 0h-135v1495h135v-661h277l331 661h148l-361 -717l381 -778h-157l-347 715h-272v-715z" />
    <glyph glyph-name="uni041B" unicode="&#x41b;" 
d="M102 -10h-55v131h51q169 0 172 289l17 1085h729v-1495h-135v1372h-459l-16 -962q-3 -205 -80.5 -312.5t-223.5 -107.5z" />
    <glyph glyph-name="uni041C" unicode="&#x41c;" 
d="M307 0h-131v1495h189l188 -537q41 -119 63 -204q37 126 66 204l184 537h187v-1495h-131v823q0 322 26 604l-264 -765h-137l-268 765q28 -300 28 -604v-823z" />
    <glyph glyph-name="uni041D" unicode="&#x41d;" 
d="M346 0h-135v1495h135v-659h537v659h135v-1495h-135v713h-537v-713z" />
    <glyph glyph-name="uni041E" unicode="&#x41e;" 
d="M614 -20q-190 0 -301.5 112t-111.5 305v701q0 192 112 305t301 113t301.5 -113t112.5 -305v-701q0 -193 -111.5 -305t-302.5 -112zM614 100q132 0 205.5 77.5t73.5 219.5v701q0 141 -73.5 219t-205.5 78t-205 -78t-73 -219v-701q0 -142 73 -219.5t205 -77.5z" />
    <glyph glyph-name="uni041F" unicode="&#x41f;" 
d="M348 0h-135v1495h803v-1495h-135v1372h-533v-1372z" />
    <glyph glyph-name="uni0420" unicode="&#x420;" 
d="M346 0h-135v1495h457q201 0 320.5 -116t119.5 -310q0 -193 -120 -309.5t-320 -116.5h-322v-643zM346 1372v-606h322q138 0 220.5 82.5t82.5 220.5q0 139 -82.5 221t-220.5 82h-322z" />
    <glyph glyph-name="uni0421" unicode="&#x421;" 
d="M625 -20q-194 0 -309 112.5t-115 304.5v701q0 193 115 305.5t309 112.5q195 0 310.5 -117t115.5 -314h-136q0 145 -77.5 227.5t-212.5 82.5q-134 0 -211.5 -79t-77.5 -218v-701q0 -139 77 -218t212 -79q136 0 213 82.5t77 227.5h136q0 -197 -115.5 -313.5t-310.5 -116.5z
" />
    <glyph glyph-name="uni0422" unicode="&#x422;" 
d="M684 0h-135v1372h-430v123h991v-123h-426v-1372z" />
    <glyph glyph-name="uni0423" unicode="&#x423;" 
d="M561 0h-147l151 389l-440 1106h149l277 -731q52 -137 82 -246q27 115 74 246l251 731h146z" />
    <glyph glyph-name="uni0424" unicode="&#x424;" 
d="M680 -51h-131v143q-193 0 -308.5 113.5t-115.5 304.5v504q0 192 114.5 306t309.5 114v143h131v-143q195 0 309.5 -114t114.5 -306v-504q0 -191 -115.5 -304.5t-308.5 -113.5v-143zM549 209v1108q-131 0 -212 -84.5t-81 -218.5v-504q0 -134 80.5 -217.5t212.5 -83.5z
M680 1317v-1108q132 0 212.5 83.5t80.5 217.5v504q0 134 -81 218.5t-212 84.5z" />
    <glyph glyph-name="uni0425" unicode="&#x425;" 
d="M248 0h-150l439 770l-412 725h154l243 -451q48 -91 94 -167q49 84 93 167l247 451h148l-412 -717l438 -778h-153l-268 500l-95 170q-55 -103 -92 -170z" />
    <glyph glyph-name="uni0426" unicode="&#x426;" 
d="M1139 -287h-127v287h-799v1495h135v-1374h500v1374h135v-1374h156v-408z" />
    <glyph glyph-name="uni0427" unicode="&#x427;" 
d="M1016 0h-135l2 618q-115 -28 -289 -28q-422 0 -422 383v522h135v-522q0 -135 75.5 -198.5t235.5 -63.5q170 0 263 26v758h135v-1495z" />
    <glyph glyph-name="uni0428" unicode="&#x428;" 
d="M1083 0h-936l-2 1495h129v-1386h283v1386h117v-1386h282v1386h127v-1495z" />
    <glyph glyph-name="uni0429" unicode="&#x429;" 
d="M1165 -287h-127v287h-893v1495h125v-1380h279v1380h117v-1380h278v1380h125v-1380h96v-402z" />
    <glyph glyph-name="uni042A" unicode="&#x42a;" 
d="M651 0h-368v1366h-275v129h410v-627h233q201 0 323 -119t122 -315t-122 -315t-323 -119zM418 745v-622h229q141 0 225 85t84 226t-84 226t-225 85h-229z" />
    <glyph glyph-name="uni042B" unicode="&#x42b;" 
d="M383 0h-231v1495h131v-627h100q184 0 291.5 -105t107.5 -284v-90q0 -180 -107 -284.5t-292 -104.5zM1077 0h-131v1495h131v-1495zM283 748v-627h100q126 0 197 71t71 197v90q0 126 -71 197.5t-197 71.5h-100z" />
    <glyph glyph-name="uni042C" unicode="&#x42c;" 
d="M651 0h-438v1495h135v-627h303q201 0 323 -119t122 -315t-122 -315t-323 -119zM348 745v-622h299q141 0 225 85t84 226t-84 226t-225 85h-299z" />
    <glyph glyph-name="uni042D" unicode="&#x42d;" 
d="M610 -20q-195 0 -309.5 116.5t-114.5 313.5h136q0 -145 76 -227.5t212 -82.5q135 0 211 78.5t76 218.5v295h-473v123h473v283q0 139 -76.5 218t-210.5 79q-135 0 -211.5 -82.5t-76.5 -227.5h-136q0 197 114.5 314t309.5 117q194 0 308 -112.5t114 -305.5v-701
q0 -192 -114 -304.5t-308 -112.5z" />
    <glyph glyph-name="uni042E" unicode="&#x42e;" 
d="M793 -20q-150 0 -237 97t-87 267v369h-199v-713h-127v1495h127v-668h199v324q0 170 86.5 267.5t237.5 97.5q153 0 240 -97t87 -268v-807q0 -170 -86.5 -267t-240.5 -97zM793 98q94 0 147 65.5t53 180.5v807q0 115 -53 180.5t-147 65.5t-146.5 -65t-52.5 -181v-807
q0 -116 52.5 -181t146.5 -65z" />
    <glyph glyph-name="uni042F" unicode="&#x42f;" 
d="M291 0h-156l328 670q-148 31 -233 139t-85 266q0 191 118.5 305.5t316.5 114.5h436v-1495h-135v659h-275zM580 780h301v594h-301q-134 0 -215.5 -81t-81.5 -216t81 -216t216 -81z" />
    <glyph glyph-name="uni0430" unicode="&#x430;" 
d="M623 1147q183 0 291 -102.5t108 -274.5v-770h-133v193q-25 -99 -119 -156t-233 -57q-175 0 -279 90.5t-104 244.5q0 150 98.5 239t263.5 89h371v125q0 123 -69 190.5t-195 67.5q-112 0 -187.5 -54t-89.5 -143h-135q17 142 131.5 230t280.5 88zM571 92q140 0 228 71
t88 185v187h-371q-103 0 -165 -57t-62 -152q0 -106 76.5 -170t205.5 -64z" />
    <glyph glyph-name="uni0431" unicode="&#x431;" 
d="M653 1022q181 0 281 -113t100 -317v-178q0 -204 -109 -319t-304 -115q-196 0 -307 115t-111 319v542q0 256 133 397.5t375 141.5h268v-135h-268q-177 0 -277 -107t-100 -297v-145h6q19 101 102 156t211 55zM899 414v178q0 147 -74.5 231t-203.5 84q-133 0 -208 -85.5
t-75 -229.5v-178q0 -146 75.5 -230t207.5 -84q129 0 203.5 84t74.5 230z" />
    <glyph glyph-name="uni0432" unicode="&#x432;" 
d="M690 0h-479v1126h465q160 0 254 -76t94 -206q0 -104 -61.5 -170.5t-165.5 -73.5v-6q120 -5 192 -80.5t72 -198.5q0 -146 -100 -230.5t-271 -84.5zM344 1006v-365h332q99 0 157 49t58 133q0 83 -58.5 133t-156.5 50h-332zM344 524v-403h346q108 0 172 55t64 148
q0 91 -64.5 145.5t-171.5 54.5h-346z" />
    <glyph glyph-name="uni0433" unicode="&#x433;" 
d="M420 0h-135v1126h784v-122h-649v-1004z" />
    <glyph glyph-name="uni0434" unicode="&#x434;" 
d="M201 -287h-121v406h94q40 51 74 152.5t35 220.5l12 634h698v-1007h146v-406h-121v287h-817v-287zM319 119h539v887h-432l-10 -514q-1 -129 -31.5 -230t-65.5 -143z" />
    <glyph glyph-name="uni0435" unicode="&#x435;" 
d="M1030 729v-197h-698v-135q0 -142 74 -221.5t210 -79.5q109 0 180.5 48.5t96.5 136.5h135q-26 -139 -136.5 -220t-275.5 -81q-193 0 -305 113t-112 304v332q0 190 112.5 304t304.5 114q190 0 302 -114t112 -304zM332 729v-88h565v88q0 142 -73.5 222.5t-207.5 80.5
q-137 0 -210.5 -79.5t-73.5 -223.5z" />
    <glyph glyph-name="uni0436" unicode="&#x436;" 
d="M193 0h-136l248 578l-231 548h135l209 -503h139v503h115v-503h135l213 503h135l-231 -542l247 -584h-139l-221 524h-139v-524h-115v524h-141z" />
    <glyph glyph-name="uni0437" unicode="&#x437;" 
d="M668 -18h-111q-170 0 -272.5 73.5t-124.5 204.5h139q19 -73 85.5 -115.5t172.5 -42.5h111q105 0 172 59.5t67 147.5q0 93 -63 153t-170 60h-264v119h258q98 0 155.5 51t57.5 135q0 85 -63.5 141t-160.5 56h-106q-199 0 -244 -162h-139q24 135 120 209t263 74h106
q162 0 262.5 -85.5t100.5 -221.5q0 -107 -57.5 -174t-161.5 -74v-8q119 -9 182.5 -83t63.5 -194q0 -145 -104 -234t-275 -89z" />
    <glyph glyph-name="uni0438" unicode="&#x438;" 
d="M387 0h-176v1126h131v-675q0 -193 -14 -330l512 1005h178v-1126h-131v676q0 197 14 330z" />
    <glyph glyph-name="uni0439" unicode="&#x439;" 
d="M614 1315q-141 0 -225 79.5t-84 213.5h113q0 -91 52.5 -144t141.5 -53q91 0 145 53t54 144h113q0 -133 -84.5 -213t-225.5 -80zM387 0h-176v1126h131v-675q0 -193 -14 -330l512 1005h178v-1126h-131v676q0 197 14 330z" />
    <glyph glyph-name="uni043A" unicode="&#x43a;" 
d="M352 0h-135v1126h135v-481h248l344 481h158l-379 -534l385 -592h-160l-346 524h-250v-524z" />
    <glyph glyph-name="uni043B" unicode="&#x43b;" 
d="M113 -14h-50v131h46q170 0 176 286l14 723h719v-1126h-135v1004h-449l-16 -605q-9 -413 -305 -413z" />
    <glyph glyph-name="uni043C" unicode="&#x43c;" 
d="M305 0h-129v1126h191l184 -491q23 -57 67 -205q16 64 64 205l180 491h191v-1126h-129v389q0 282 16 674l-254 -725h-139l-258 721q16 -376 16 -670v-389z" />
    <glyph glyph-name="uni043D" unicode="&#x43d;" 
d="M346 0h-135v1126h135v-485h537v485h135v-1126h-135v518h-537v-518z" />
    <glyph glyph-name="uni043E" unicode="&#x43e;" 
d="M614 -18q-191 0 -303 112.5t-112 304.5v328q0 192 112 305t303 113q190 0 303 -112.5t113 -303.5v-330q0 -192 -112 -304.5t-304 -112.5zM614 100q133 0 207 77.5t74 221.5v328q0 142 -74.5 220.5t-206.5 78.5t-206 -78.5t-74 -220.5v-328q0 -144 73.5 -221.5
t206.5 -77.5z" />
    <glyph glyph-name="uni043F" unicode="&#x43f;" 
d="M346 0h-135v1126h807v-1126h-135v1004h-537v-1004z" />
    <glyph glyph-name="uni0440" unicode="&#x440;" 
d="M657 1147q169 0 271 -112.5t102 -299.5v-342q0 -188 -102 -300.5t-271 -112.5q-116 0 -198 52.5t-111 145.5h-4l2 -194v-353h-135v1495h135v-178h2q30 93 111 146t198 53zM895 397v334q0 141 -72.5 220t-201.5 79q-128 0 -201.5 -79.5t-73.5 -219.5v-334
q0 -142 73.5 -221.5t201.5 -79.5q129 0 201.5 79.5t72.5 221.5z" />
    <glyph glyph-name="uni0441" unicode="&#x441;" 
d="M621 -20q-194 0 -308 112t-114 305v332q0 192 115 305t307 113q189 0 302.5 -105.5t114.5 -283.5h-135q-1 126 -76 196t-206 70q-133 0 -210 -78t-77 -217v-332q0 -139 77 -217t210 -78q131 0 206 70.5t76 196.5h135q-1 -178 -114.5 -283.5t-302.5 -105.5z" />
    <glyph glyph-name="uni0442" unicode="&#x442;" 
d="M682 0h-135v999h-410v127h955v-127h-410v-999z" />
    <glyph glyph-name="uni0443" unicode="&#x443;" 
d="M530 -369h-139l166 445l-422 1050h148l278 -708q43 -108 66 -187q60 177 65 189l258 706h144z" />
    <glyph glyph-name="uni0444" unicode="&#x444;" 
d="M676 -369h-123v369q-197 0 -311.5 111t-114.5 303v303q0 190 114.5 299.5t311.5 109.5v371h123v-371q197 0 311.5 -109.5t114.5 -299.5v-303q0 -192 -114.5 -303t-311.5 -111v-369zM553 111v905q-140 0 -218.5 -79t-78.5 -220v-303q0 -142 78.5 -222.5t218.5 -80.5z
M676 1016v-905q140 0 218.5 80.5t78.5 222.5v303q0 141 -78.5 220t-218.5 79z" />
    <glyph glyph-name="uni0445" unicode="&#x445;" 
d="M289 0h-156l402 578l-377 548h159l252 -385l47 -79q9 18 48 79l251 385h158l-377 -548l400 -578h-158l-270 406q-24 36 -54 86q-39 -65 -53 -86z" />
    <glyph glyph-name="uni0446" unicode="&#x446;" 
d="M1139 -287h-127v287h-801v1126h135v-1005h502v1005h135v-1005h156v-408z" />
    <glyph glyph-name="uni0447" unicode="&#x447;" 
d="M1008 0h-136v418q-104 -17 -258 -17q-224 -1 -329 88t-105 281v356h135v-356q0 -129 73 -187.5t233 -58.5q171 0 251 17v585h136v-1126z" />
    <glyph glyph-name="uni0448" unicode="&#x448;" 
d="M1085 0h-942v1126h127v-1011h287v1011h117v-1011h284v1011h127v-1126z" />
    <glyph glyph-name="uni0449" unicode="&#x449;" 
d="M1165 -287h-127v287h-895v1126h125v-1011h279v1011h117v-1011h280v1011h125v-1011h96v-402z" />
    <glyph glyph-name="uni044A" unicode="&#x44a;" 
d="M700 0h-419v999h-269v127h410v-413h278q187 0 295.5 -96t108.5 -261q0 -163 -109.5 -259.5t-294.5 -96.5zM422 584v-455h278q122 0 191.5 60t69.5 167t-69.5 167.5t-191.5 60.5h-278z" />
    <glyph glyph-name="uni044B" unicode="&#x44b;" 
d="M393 0h-241v1126h131v-424h110q180 0 284.5 -94.5t104.5 -255.5q0 -163 -104.5 -257.5t-284.5 -94.5zM1077 0h-131v1126h131v-1126zM283 588v-473h110q123 0 192.5 62.5t69.5 174.5t-69.5 174t-192.5 62h-110z" />
    <glyph glyph-name="uni044C" unicode="&#x44c;" 
d="M700 0h-479v1126h135v-413h344q185 0 294.5 -96.5t109.5 -260.5q0 -163 -109.5 -259.5t-294.5 -96.5zM356 590v-467h344q126 0 196.5 61.5t70.5 171.5t-70.5 172t-196.5 62h-344z" />
    <glyph glyph-name="uni044D" unicode="&#x44d;" 
d="M610 -20q-189 0 -302 105t-115 280h135q2 -123 77 -195t205 -72q132 0 209.5 80t77.5 219v107h-408v127h408v98q0 139 -77.5 219t-209.5 80q-130 0 -205 -71.5t-77 -194.5h-135q2 175 115 280t302 105q192 0 307 -113t115 -305v-332q0 -193 -114 -305t-308 -112z" />
    <glyph glyph-name="uni044E" unicode="&#x44e;" 
d="M799 -20q-146 0 -230 92.5t-84 255.5v190h-215v-518h-127v1126h127v-501h215v174q0 163 84 255.5t230 92.5q149 0 235 -92.5t86 -255.5v-471q0 -163 -86 -255.5t-235 -92.5zM799 92q89 0 141.5 63.5t52.5 172.5v471q0 109 -52.5 172t-141.5 63t-141 -63t-52 -172v-471
q0 -109 52 -172.5t141 -63.5z" />
    <glyph glyph-name="uni044F" unicode="&#x44f;" 
d="M315 0h-155l280 436q-129 28 -201.5 117.5t-72.5 220.5q0 163 108.5 257.5t294.5 94.5h449v-1126h-135v424h-305zM569 545h314v461h-314q-121 0 -194.5 -64t-73.5 -168t72.5 -166.5t195.5 -62.5z" />
    <glyph glyph-name="uni0451" unicode="&#x451;" 
d="M391 1337q-53 0 -84 32t-31 87t31 88t84 33q54 0 85.5 -32.5t31.5 -88.5q0 -55 -31.5 -87t-85.5 -32zM838 1337q-54 0 -85.5 32t-31.5 87q0 56 31.5 88.5t85.5 32.5q52 0 83 -32.5t31 -88.5q0 -55 -30.5 -87t-83.5 -32zM1030 729v-197h-698v-135q0 -142 74 -221.5
t210 -79.5q109 0 180.5 48.5t96.5 136.5h135q-26 -139 -136.5 -220t-275.5 -81q-193 0 -305 113t-112 304v332q0 190 112.5 304t304.5 114q190 0 302 -114t112 -304zM332 729v-88h565v88q0 142 -73.5 222.5t-207.5 80.5q-137 0 -210.5 -79.5t-73.5 -223.5z" />
    <glyph glyph-name="uni0452" unicode="&#x452;" 
d="M653 1024q168 0 267.5 -106t99.5 -287v-594q0 -189 -111.5 -297.5t-306.5 -108.5h-115v123h115q136 0 209.5 73t73.5 210v577q0 139 -70.5 217t-193.5 78q-127 0 -200 -81t-73 -222v-606h-135v1188h-203v117h203v190h135v-190h354v-117h-354v-369h2q25 97 105 151t198 54
z" />
    <glyph glyph-name="uni0453" unicode="&#x453;" 
d="M737 1321h-141l217 287h152zM420 0h-135v1126h784v-122h-649v-1004z" />
    <glyph glyph-name="uni0454" unicode="&#x454;" 
d="M618 -20q-194 0 -307.5 112t-113.5 305v332q0 192 114.5 305t306.5 113q189 0 302.5 -105t115.5 -280h-135q-2 123 -77.5 194.5t-205.5 71.5q-132 0 -209 -80t-77 -219v-98h407v-127h-407v-107q0 -139 77 -219t209 -80q130 0 205.5 72t77.5 195h135q-2 -175 -115.5 -280
t-302.5 -105z" />
    <glyph glyph-name="uni0455" unicode="&#x455;" 
d="M682 -18h-117q-161 0 -265.5 82t-111.5 215h138q9 -78 75.5 -127.5t165.5 -49.5h117q109 0 171.5 52t62.5 141q0 82 -52 135.5t-143 67.5l-193 28q-154 23 -233.5 101.5t-79.5 208.5q0 145 98.5 227t270.5 82h82q160 0 259.5 -76t108.5 -203h-137q-6 71 -70 114.5
t-163 43.5h-82q-108 0 -170 -50t-62 -138q0 -75 51 -121.5t148 -61.5l188 -26q151 -23 230.5 -105t79.5 -215q0 -152 -96.5 -238.5t-270.5 -86.5z" />
    <glyph glyph-name="uni0456" unicode="&#x456;" horiz-adv-x="1024" 
d="M535 1337q-60 0 -94.5 32t-34.5 87q0 56 34.5 88.5t94.5 32.5t94.5 -32.5t34.5 -88.5q0 -55 -34.5 -87t-94.5 -32zM911 0h-718v123h303v881h-265v122h400v-1003h280v-123z" />
    <glyph glyph-name="uni0457" unicode="&#x457;" 
d="M313 1337q-53 0 -84.5 32t-31.5 87t31.5 88t84.5 33t85 -33t32 -88t-32 -87t-85 -32zM760 1337q-54 0 -86.5 32t-32.5 87t32.5 88t86.5 33q52 0 83 -32.5t31 -88.5q0 -55 -30.5 -87t-83.5 -32zM911 0h-718v123h303v881h-265v122h400v-1003h280v-123z" />
    <glyph glyph-name="uni0458" unicode="&#x458;" horiz-adv-x="819" 
d="M522 1337q-60 0 -94.5 32t-34.5 87q0 56 34.5 88.5t94.5 32.5t94.5 -32.5t34.5 -88.5q0 -55 -34.5 -87t-94.5 -32zM195 -369h-136v123h136q137 0 210.5 73.5t73.5 209.5v967h-362v122h497v-1089q0 -189 -112 -297.5t-307 -108.5z" />
    <glyph glyph-name="uni0459" unicode="&#x459;" 
d="M47 -10h-37v131h39q61 0 96.5 65t38.5 181l11 759h530v-421h121q147 0 234 -84.5t87 -227.5v-82q0 -143 -86.5 -227t-234.5 -84h-246v1008h-283l-10 -641q-3 -176 -72 -276.5t-188 -100.5zM725 588v-471h121q92 0 144 51.5t52 142.5v82q0 91 -52 143t-144 52h-121z" />
    <glyph glyph-name="uni045A" unicode="&#x45a;" 
d="M270 0h-127v1126h127v-421h334v421h119v-421h123q147 0 234 -84.5t87 -227.5v-82q0 -143 -86.5 -227t-234.5 -84h-242v590h-334v-590zM723 590v-475h123q92 0 143 52.5t51 143.5v82q0 91 -51 144t-143 53h-123z" />
    <glyph glyph-name="uni045B" unicode="&#x45b;" 
d="M211 1188h-201v117h201v190h135v-190h356v-117h-356v-369h6q25 97 104 151t197 54q168 0 268.5 -106t100.5 -287v-631h-135v614q0 139 -71 217t-195 78q-128 0 -201.5 -81t-73.5 -222v-606h-135v1188z" />
    <glyph glyph-name="uni045C" unicode="&#x45c;" 
d="M676 1321h-141l217 287h151zM352 0h-135v1126h135v-481h248l344 481h158l-379 -534l385 -592h-160l-346 524h-250v-524z" />
    <glyph glyph-name="uni045E" unicode="&#x45e;" 
d="M614 1315q-141 0 -225 79.5t-84 213.5h113q0 -91 52.5 -144t141.5 -53q91 0 145 53t54 144h113q0 -133 -84.5 -213t-225.5 -80zM530 -369h-139l166 445l-422 1050h148l278 -708q43 -108 66 -187q60 177 65 189l258 706h144z" />
    <glyph glyph-name="uni045F" unicode="&#x45f;" 
d="M686 -256h-141v256h-334v1126h141v-997h525v997h141v-1126h-332v-256z" />
    <glyph glyph-name="uni0490" unicode="&#x490;" 
d="M414 0h-135v1495h714v195h131v-318h-710v-1372z" />
    <glyph glyph-name="uni0491" unicode="&#x491;" 
d="M420 0h-135v1126h653v215h131v-337h-649v-1004z" />
    <glyph glyph-name="uni0492" unicode="&#x492;" 
d="M1137 1495v-123h-711v-557h340v-121h-340v-694h-135v694h-217v121h217v680h846z" />
    <glyph glyph-name="uni0493" unicode="&#x493;" 
d="M1100 1126v-122h-649v-369h380v-111h-380v-524h-136v524h-196v111h196v491h785z" />
    <glyph glyph-name="uni049A" unicode="&#x49a;" 
d="M727 778l322 -657h118v-408h-127v287h-90l-346 715h-274v-715h-135v1495h135v-661h276l332 661h149z" />
    <glyph glyph-name="uni049B" unicode="&#x49b;" 
d="M711 592l307 -471h119v-408h-127v287h-74l-346 524h-244v-524h-135v1126h135v-481h242l342 481h160z" />
    <glyph glyph-name="uni04A2" unicode="&#x4a2;" 
d="M1012 1495v-1374h96v-408h-127v287h-104v713h-537v-713h-135v1495h135v-659h537v659h135z" />
    <glyph glyph-name="uni04A3" unicode="&#x4a3;" 
d="M1012 1126v-1005h96v-408h-127v287h-107v514h-532v-514h-135v1126h135v-489h532v489h138z" />
    <glyph glyph-name="uni04AE" unicode="&#x4ae;" 
d="M682 0h-135v567l-457 928h139l322 -651q44 -89 65 -142q29 68 66 142l317 651h140l-457 -928v-567z" />
    <glyph glyph-name="uni04AF" unicode="&#x4af;" 
d="M682 -369h-135v369l-404 1126h142l276 -790q23 -61 57 -205q47 173 58 205l272 790h137l-403 -1126v-369z" />
    <glyph glyph-name="uni04B0" unicode="&#x4b0;" 
d="M999 1495h140l-457 -928h279v-116h-279v-451h-135v451h-279v116h279l-457 928h139l322 -651q44 -89 65 -142q29 68 66 142z" />
    <glyph glyph-name="uni04B1" unicode="&#x4b1;" 
d="M948 1126h137l-403 -1126h279v-117h-279v-252h-135v252h-279v117h279l-404 1126h142l276 -790q23 -61 57 -205q47 173 58 205z" />
    <glyph glyph-name="uni04B6" unicode="&#x4b6;" 
d="M995 1495v-1374h97v-408h-127v287h-105l2 618q-115 -28 -289 -28q-421 0 -421 383v522h135v-522q0 -135 75.5 -198.5t235.5 -63.5q169 0 262 26v758h135z" />
    <glyph glyph-name="uni04B7" unicode="&#x4b7;" 
d="M999 1126v-1005h95v-408h-127v287h-103v418q-104 -17 -258 -17q-224 -1 -329 88t-105 281v356h135v-356q0 -129 72.5 -187.5t232.5 -58.5q172 0 252 17v585h135z" />
    <glyph glyph-name="uni04BA" unicode="&#x4ba;" 
d="M213 1495h135l-2 -618q116 28 289 28q422 0 422 -383v-522h-135v522q0 135 -76 198.5t-236 63.5q-169 0 -262 -26v-758h-135v1495z" />
    <glyph glyph-name="uni04BB" unicode="&#x4bb;" 
d="M221 1126h135v-417q98 16 258 16q224 2 329.5 -87.5t105.5 -281.5v-356h-136v356q0 129 -72.5 187.5t-232.5 58.5q-177 0 -252 -16v-586h-135v1126z" />
    <glyph glyph-name="uni04D8" unicode="&#x4d8;" 
d="M610 -20q-196 0 -310 116t-114 314v405h711v283q0 137 -77.5 217t-209.5 80q-133 0 -210.5 -83.5t-77.5 -226.5h-136q0 198 114 314.5t310 116.5q194 0 308 -113t114 -305v-701q0 -192 -114 -304.5t-308 -112.5zM610 100q132 0 209.5 80t77.5 217v295h-575v-282
q0 -143 77.5 -226.5t210.5 -83.5z" />
    <glyph glyph-name="uni04D9" unicode="&#x4d9;" 
d="M612 1147q193 0 305.5 -113.5t112.5 -304.5v-332q0 -190 -112.5 -303.5t-305.5 -113.5q-190 0 -301.5 113.5t-111.5 303.5v197h698v135q0 142 -74.5 221.5t-210.5 79.5q-109 0 -180 -48t-96 -136h-135q26 139 136 220t275 81zM897 397v88h-565v-88q0 -142 73 -222.5
t207 -80.5q137 0 211 79.5t74 223.5z" />
    <glyph glyph-name="uni04E8" unicode="&#x4e8;" 
d="M614 -20q-189 0 -300 112.5t-111 304.5v701q0 192 111 305t300 113t300.5 -113t111.5 -305v-701q0 -192 -111.5 -304.5t-300.5 -112.5zM338 1098v-273h553v273q0 142 -72.5 220.5t-204.5 78.5t-204 -78t-72 -221zM614 98q132 0 204.5 78.5t72.5 220.5v308h-553v-308
q0 -143 72 -221t204 -78z" />
    <glyph glyph-name="uni04E9" unicode="&#x4e9;" 
d="M614 -20q-188 0 -299.5 112.5t-111.5 304.5v332q0 192 111.5 305t299.5 113t300 -114t112 -304v-332q0 -191 -111.5 -304t-300.5 -113zM336 729v-100h557v100q0 141 -73.5 220t-205.5 79t-205 -79t-73 -220zM614 98q132 0 205.5 78.5t73.5 220.5v115h-557v-115
q0 -142 73 -220.5t205 -78.5z" />
    <glyph glyph-name="uni0AEA" unicode="&#xaea;" 
d="M1049 1331l-355 -409l201 -232q145 -172 145 -330q0 -166 -118 -273t-308 -107t-308 107t-118 273q0 156 150 330l199 228l-357 413h158l278 -319l279 319h154zM614 98q129 0 210 78t81 195q0 121 -108 245l-183 211l-184 -213q-106 -121 -106 -243q0 -117 80.5 -195
t209.5 -78z" />
    <glyph glyph-name="Wgrave" unicode="&#x1e80;" 
d="M713 1659h-146l-233 287h158zM428 0h-178l-180 1495h127l129 -1106q24 -237 28 -293q29 227 39 293l150 1106h155l142 -1106l37 -293q4 37 17 144.5t17 148.5l123 1106h125l-182 -1495h-180l-142 1102q-31 256 -34 293q-21 -142 -39 -293z" />
    <glyph glyph-name="wgrave" unicode="&#x1e81;" 
d="M713 1321h-146l-233 287h158zM438 0h-162l-186 1126h121l129 -821q12 -74 22 -205h7q7 88 30 203l148 823h137l150 -823q15 -89 28 -203h6q5 70 23 205l131 821h117l-191 -1126h-162l-133 793q-34 210 -35 223h-6q-12 -108 -34 -223z" />
    <glyph glyph-name="Wacute" unicode="&#x1e82;" 
d="M664 1659h-142l217 287h152zM428 0h-178l-180 1495h127l129 -1106q24 -237 28 -293q29 227 39 293l150 1106h155l142 -1106l37 -293q4 37 17 144.5t17 148.5l123 1106h125l-182 -1495h-180l-142 1102q-31 256 -34 293q-21 -142 -39 -293z" />
    <glyph glyph-name="wacute" unicode="&#x1e83;" 
d="M676 1321h-141l217 287h151zM438 0h-162l-186 1126h121l129 -821q12 -74 22 -205h7q7 88 30 203l148 823h137l150 -823q15 -89 28 -203h6q5 70 23 205l131 821h117l-191 -1126h-162l-133 793q-34 210 -35 223h-6q-12 -108 -34 -223z" />
    <glyph glyph-name="Wdieresis" unicode="&#x1e84;" 
d="M393 1683q-52 0 -83 32.5t-31 86.5q0 56 31 88.5t83 32.5q54 0 85.5 -32.5t31.5 -88.5q0 -54 -31.5 -86.5t-85.5 -32.5zM840 1683q-54 0 -85.5 32.5t-31.5 86.5q0 56 31.5 88.5t85.5 32.5q52 0 83 -32.5t31 -88.5q0 -54 -31 -86.5t-83 -32.5zM428 0h-178l-180 1495h127
l129 -1106q24 -237 28 -293q29 227 39 293l150 1106h155l142 -1106l37 -293q4 37 17 144.5t17 148.5l123 1106h125l-182 -1495h-180l-142 1102q-31 256 -34 293q-21 -142 -39 -293z" />
    <glyph glyph-name="wdieresis" unicode="&#x1e85;" 
d="M391 1337q-53 0 -84 32t-31 87t31 88t84 33q54 0 85.5 -32.5t31.5 -88.5q0 -55 -31.5 -87t-85.5 -32zM838 1337q-54 0 -85.5 32t-31.5 87q0 56 31.5 88.5t85.5 32.5q52 0 83 -32.5t31 -88.5q0 -55 -30.5 -87t-83.5 -32zM438 0h-162l-186 1126h121l129 -821
q12 -74 22 -205h7q7 88 30 203l148 823h137l150 -823q15 -89 28 -203h6q5 70 23 205l131 821h117l-191 -1126h-162l-133 793q-34 210 -35 223h-6q-12 -108 -34 -223z" />
    <glyph glyph-name="uni1E9E" unicode="&#x1e9e;" 
d="M1069 1366l-381 -520q179 -5 286 -116.5t107 -295.5q0 -196 -118.5 -315t-315.5 -119h-131v123h123q138 0 220.5 84t82.5 225q0 138 -82.5 220.5t-220.5 82.5h-86v117l375 520h-305q-128 0 -202.5 -74.5t-74.5 -201.5v-1096h-135v1096q0 181 113 290t299 109h446v-129z
" />
    <glyph glyph-name="uni1EA0" unicode="&#x1ea0;" 
d="M262 0h-137l401 1495h176l402 -1495h-137l-109 418h-489zM543 1081l-144 -546h428l-143 546q-50 192 -70 303q-18 -98 -71 -303zM614 -426q-60 0 -94.5 32.5t-34.5 86.5q0 56 34.5 88.5t94.5 32.5t94.5 -32.5t34.5 -88.5q0 -54 -34.5 -86.5t-94.5 -32.5z" />
    <glyph glyph-name="uni1EA1" unicode="&#x1ea1;" 
d="M623 1147q183 0 291 -102.5t108 -274.5v-770h-133v193q-25 -99 -119 -156t-233 -57q-175 0 -279 90.5t-104 244.5q0 150 98.5 239t263.5 89h371v125q0 123 -69 190.5t-195 67.5q-112 0 -187.5 -54t-89.5 -143h-135q17 142 131.5 230t280.5 88zM571 92q140 0 228 71
t88 185v187h-371q-103 0 -165 -57t-62 -152q0 -106 76.5 -170t205.5 -64zM625 -186q60 0 94.5 -32.5t34.5 -88.5q0 -54 -34.5 -86.5t-94.5 -32.5t-94.5 32.5t-34.5 86.5q0 56 34.5 88.5t94.5 32.5z" />
    <glyph glyph-name="uni1EA2" unicode="&#x1ea2;" 
d="M678 1638h-129l104 146q33 48 33 69q0 52 -72 52h-170v96h174q82 0 131.5 -36.5t49.5 -96.5t-37 -109zM262 0h-137l401 1495h176l402 -1495h-137l-109 418h-489zM543 1081l-144 -546h428l-143 546q-50 192 -70 303q-18 -98 -71 -303z" />
    <glyph glyph-name="uni1EA3" unicode="&#x1ea3;" 
d="M700 1536q0 51 -71 51h-174v96h194q75 0 119.5 -36t44.5 -97q0 -62 -37 -108l-88 -121h-129l109 145q32 43 32 70zM623 1147q183 0 291 -102.5t108 -274.5v-770h-133v193q-25 -99 -119 -156t-233 -57q-175 0 -279 90.5t-104 244.5q0 150 98.5 239t263.5 89h371v125
q0 123 -69 190.5t-195 67.5q-112 0 -187.5 -54t-89.5 -143h-135q17 142 131.5 230t280.5 88zM571 92q140 0 228 71t88 185v187h-371q-103 0 -165 -57t-62 -152q0 -106 76.5 -170t205.5 -64z" />
    <glyph glyph-name="uni1EA4" unicode="&#x1ea4;" 
d="M973 1837h-142l216 252h157zM426 1597h-143l260 287h143l260 -287h-141l-191 199zM262 0h-137l401 1495h176l402 -1495h-137l-109 418h-489zM543 1081l-144 -546h428l-143 546q-50 192 -70 303q-18 -98 -71 -303z" />
    <glyph glyph-name="uni1EA5" unicode="&#x1ea5;" 
d="M1079 1843h156l-252 -287h-139zM815 1321l-190 199l-189 -199h-143l260 287h143l260 -287h-141zM623 1147q183 0 291 -102.5t108 -274.5v-770h-133v193q-25 -99 -119 -156t-233 -57q-175 0 -279 90.5t-104 244.5q0 150 98.5 239t263.5 89h371v125q0 123 -69 190.5
t-195 67.5q-112 0 -187.5 -54t-89.5 -143h-135q17 142 131.5 230t280.5 88zM571 92q140 0 228 71t88 185v187h-371q-103 0 -165 -57t-62 -152q0 -106 76.5 -170t205.5 -64z" />
    <glyph glyph-name="uni1EA6" unicode="&#x1ea6;" 
d="M1051 1837h-140l-243 252h155zM426 1597h-143l260 287h143l260 -287h-141l-191 199zM262 0h-137l401 1495h176l402 -1495h-137l-109 418h-489zM543 1081l-144 -546h428l-143 546q-50 192 -70 303q-18 -98 -71 -303z" />
    <glyph glyph-name="uni1EA7" unicode="&#x1ea7;" 
d="M829 1843l248 -287h-139l-264 287h155zM815 1321l-190 199l-189 -199h-143l260 287h143l260 -287h-141zM623 1147q183 0 291 -102.5t108 -274.5v-770h-133v193q-25 -99 -119 -156t-233 -57q-175 0 -279 90.5t-104 244.5q0 150 98.5 239t263.5 89h371v125q0 123 -69 190.5
t-195 67.5q-112 0 -187.5 -54t-89.5 -143h-135q17 142 131.5 230t280.5 88zM571 92q140 0 228 71t88 185v187h-371q-103 0 -165 -57t-62 -152q0 -106 76.5 -170t205.5 -64z" />
    <glyph glyph-name="uni1EA8" unicode="&#x1ea8;" 
d="M999 1802h-120l96 105q29 32 29 55q0 16 -12.5 26.5t-33.5 10.5h-145v90h158q66 0 103.5 -30t37.5 -81q0 -56 -45 -104zM426 1597h-143l260 287h143l260 -287h-141l-191 199zM262 0h-137l401 1495h176l402 -1495h-137l-109 418h-489zM543 1081l-144 -546h428l-143 546
q-50 192 -70 303q-18 -98 -71 -303z" />
    <glyph glyph-name="uni1EA9" unicode="&#x1ea9;" 
d="M803 1901h135q79 0 126.5 -37t47.5 -97q0 -47 -45 -112l-74 -99h-119l99 130q31 42 31 69q0 24 -19 38.5t-51 14.5h-131v93zM815 1321l-190 199l-189 -199h-143l260 287h143l260 -287h-141zM623 1147q183 0 291 -102.5t108 -274.5v-770h-133v193q-25 -99 -119 -156
t-233 -57q-175 0 -279 90.5t-104 244.5q0 150 98.5 239t263.5 89h371v125q0 123 -69 190.5t-195 67.5q-112 0 -187.5 -54t-89.5 -143h-135q17 142 131.5 230t280.5 88zM571 92q140 0 228 71t88 185v187h-371q-103 0 -165 -57t-62 -152q0 -106 76.5 -170t205.5 -64z" />
    <glyph glyph-name="uni1EAA" unicode="&#x1eaa;" 
d="M770 1884q-55 0 -101 18t-72.5 39.5t-60 39.5t-65.5 18q-34 0 -54 -19t-20 -51v-24h-102v24q0 73 47 116.5t125 43.5q55 0 101 -18t72 -39.5t59 -39.5t65 -18q31 0 49 19t18 51v24h103v-24q0 -73 -44.5 -116.5t-119.5 -43.5zM426 1597h-143l241 240h181l241 -240h-143
l-189 172zM262 0h-137l401 1495h176l402 -1495h-137l-109 418h-489zM543 1081l-144 -546h428l-143 546q-50 192 -70 303q-18 -98 -71 -303z" />
    <glyph glyph-name="uni1EAB" unicode="&#x1eab;" 
d="M418 1731v-52h-103v47q0 80 47 125t130 45q45 0 80.5 -14t57.5 -34t41.5 -40.5t42.5 -34.5t50 -14q67 0 67 74v51h103v-47q0 -79 -45 -124.5t-125 -45.5q-44 0 -79.5 14t-58 34.5t-42 40.5t-42.5 34t-50 14q-74 0 -74 -73zM815 1321l-190 199l-189 -199h-143l260 287h143
l260 -287h-141zM623 1147q183 0 291 -102.5t108 -274.5v-770h-133v193q-25 -99 -119 -156t-233 -57q-175 0 -279 90.5t-104 244.5q0 150 98.5 239t263.5 89h371v125q0 123 -69 190.5t-195 67.5q-112 0 -187.5 -54t-89.5 -143h-135q17 142 131.5 230t280.5 88zM571 92
q140 0 228 71t88 185v187h-371q-103 0 -165 -57t-62 -152q0 -106 76.5 -170t205.5 -64z" />
    <glyph glyph-name="uni1EAC" unicode="&#x1eac;" 
d="M428 1659h-145l260 287h141l262 -287h-141l-191 199zM262 0h-137l401 1495h176l402 -1495h-137l-109 418h-489zM543 1081l-144 -546h428l-143 546q-50 192 -70 303q-18 -98 -71 -303zM614 -426q-60 0 -94.5 32.5t-34.5 86.5q0 56 34.5 88.5t94.5 32.5t94.5 -32.5
t34.5 -88.5q0 -54 -34.5 -86.5t-94.5 -32.5z" />
    <glyph glyph-name="uni1EAD" unicode="&#x1ead;" 
d="M815 1321l-190 199l-187 -199h-145l260 287h141l262 -287h-141zM623 1147q183 0 291 -102.5t108 -274.5v-770h-133v193q-25 -99 -119 -156t-233 -57q-175 0 -279 90.5t-104 244.5q0 150 98.5 239t263.5 89h371v125q0 123 -69 190.5t-195 67.5q-112 0 -187.5 -54
t-89.5 -143h-135q17 142 131.5 230t280.5 88zM571 92q140 0 228 71t88 185v187h-371q-103 0 -165 -57t-62 -152q0 -106 76.5 -170t205.5 -64zM625 -186q60 0 94.5 -32.5t34.5 -88.5q0 -54 -34.5 -86.5t-94.5 -32.5t-94.5 32.5t-34.5 86.5q0 56 34.5 88.5t94.5 32.5z" />
    <glyph glyph-name="uni1EAE" unicode="&#x1eae;" 
d="M647 1837h-135l209 252h151zM659 1597h-90q-124 0 -199 71t-75 190h113q0 -74 44 -118t117 -44h90q73 0 117.5 44t44.5 118h113q0 -118 -75 -189.5t-200 -71.5zM262 0h-137l401 1495h176l402 -1495h-137l-109 418h-489zM543 1081l-144 -546h428l-143 546q-50 192 -70 303
q-18 -98 -71 -303z" />
    <glyph glyph-name="uni1EAF" unicode="&#x1eaf;" 
d="M752 1823h151l-246 -267h-135zM625 1317q-146 0 -235 71.5t-89 188.5h113q0 -72 58 -117t153 -45t153 45t58 117h112q0 -117 -88.5 -188.5t-234.5 -71.5zM623 1147q183 0 291 -102.5t108 -274.5v-770h-133v193q-25 -99 -119 -156t-233 -57q-175 0 -279 90.5t-104 244.5
q0 150 98.5 239t263.5 89h371v125q0 123 -69 190.5t-195 67.5q-112 0 -187.5 -54t-89.5 -143h-135q17 142 131.5 230t280.5 88zM571 92q140 0 228 71t88 185v187h-371q-103 0 -165 -57t-62 -152q0 -106 76.5 -170t205.5 -64z" />
    <glyph glyph-name="uni1EB0" unicode="&#x1eb0;" 
d="M721 1837h-133l-209 252h149zM659 1597h-90q-124 0 -199 71t-75 190h113q0 -74 44 -118t117 -44h90q73 0 117.5 44t44.5 118h113q0 -118 -75 -189.5t-200 -71.5zM262 0h-137l401 1495h176l402 -1495h-137l-109 418h-489zM543 1081l-144 -546h428l-143 546
q-50 192 -70 303q-18 -98 -71 -303z" />
    <glyph glyph-name="uni1EB1" unicode="&#x1eb1;" 
d="M500 1823l229 -267h-135l-246 267h152zM625 1317q-146 0 -235 71.5t-89 188.5h113q0 -72 58 -117t153 -45t153 45t58 117h112q0 -117 -88.5 -188.5t-234.5 -71.5zM623 1147q183 0 291 -102.5t108 -274.5v-770h-133v193q-25 -99 -119 -156t-233 -57q-175 0 -279 90.5
t-104 244.5q0 150 98.5 239t263.5 89h371v125q0 123 -69 190.5t-195 67.5q-112 0 -187.5 -54t-89.5 -143h-135q17 142 131.5 230t280.5 88zM571 92q140 0 228 71t88 185v187h-371q-103 0 -165 -57t-62 -152q0 -106 76.5 -170t205.5 -64z" />
    <glyph glyph-name="uni1EB2" unicode="&#x1eb2;" 
d="M657 1802h-118l94 111q29 33 29 53q0 31 -41 31h-150v92h166q61 0 95 -26.5t34 -73.5q0 -56 -45 -111zM659 1597h-90q-124 0 -199 71t-75 190h113q0 -74 44 -118t117 -44h90q73 0 117.5 44t44.5 118h113q0 -118 -75 -189.5t-200 -71.5zM262 0h-137l401 1495h176
l402 -1495h-137l-109 418h-489zM543 1081l-144 -546h428l-143 546q-50 192 -70 303q-18 -98 -71 -303z" />
    <glyph glyph-name="uni1EB3" unicode="&#x1eb3;" 
d="M678 1755q0 23 -18.5 38t-49.5 15h-135v93h143q77 0 123.5 -35.5t46.5 -93.5q0 -53 -47 -117l-71 -99h-121l98 130q31 46 31 69zM625 1317q-146 0 -235 71.5t-89 188.5h113q0 -72 58 -117t153 -45t153 45t58 117h112q0 -117 -88.5 -188.5t-234.5 -71.5zM623 1147
q183 0 291 -102.5t108 -274.5v-770h-133v193q-25 -99 -119 -156t-233 -57q-175 0 -279 90.5t-104 244.5q0 150 98.5 239t263.5 89h371v125q0 123 -69 190.5t-195 67.5q-112 0 -187.5 -54t-89.5 -143h-135q17 142 131.5 230t280.5 88zM571 92q140 0 228 71t88 185v187h-371
q-103 0 -165 -57t-62 -152q0 -106 76.5 -170t205.5 -64z" />
    <glyph glyph-name="uni1EB4" unicode="&#x1eb4;" 
d="M770 1884q-55 0 -101 18t-72.5 39.5t-60 39.5t-65.5 18q-34 0 -54 -19t-20 -51v-24h-102v24q0 73 47 116.5t125 43.5q55 0 101 -18t72 -39.5t59 -39.5t65 -18q31 0 49 19t18 51v24h103v-24q0 -73 -44.5 -116.5t-119.5 -43.5zM659 1597h-90q-126 0 -200 65.5t-74 180.5
h113q0 -70 43.5 -108.5t117.5 -38.5h90q75 0 118.5 38.5t43.5 108.5h113q0 -115 -74.5 -180.5t-200.5 -65.5zM262 0h-137l401 1495h176l402 -1495h-137l-109 418h-489zM543 1081l-144 -546h428l-143 546q-50 192 -70 303q-18 -98 -71 -303z" />
    <glyph glyph-name="uni1EB5" unicode="&#x1eb5;" 
d="M418 1731v-52h-103v47q0 80 47 125t130 45q45 0 80.5 -14t57.5 -34t41.5 -40.5t42.5 -34.5t50 -14q67 0 67 74v51h103v-47q0 -79 -45 -124.5t-125 -45.5q-44 0 -79.5 14t-58 34.5t-42 40.5t-42.5 34t-50 14q-74 0 -74 -73zM625 1321q-141 0 -228.5 71.5t-87.5 188.5h109
q0 -72 57 -117t150 -45q92 0 149 45t57 117h109q0 -117 -87 -188.5t-228 -71.5zM623 1147q183 0 291 -102.5t108 -274.5v-770h-133v193q-25 -99 -119 -156t-233 -57q-175 0 -279 90.5t-104 244.5q0 150 98.5 239t263.5 89h371v125q0 123 -69 190.5t-195 67.5
q-112 0 -187.5 -54t-89.5 -143h-135q17 142 131.5 230t280.5 88zM571 92q140 0 228 71t88 185v187h-371q-103 0 -165 -57t-62 -152q0 -106 76.5 -170t205.5 -64z" />
    <glyph glyph-name="uni1EB6" unicode="&#x1eb6;" 
d="M614 1653q-141 0 -225 79.5t-84 213.5h113q0 -91 52.5 -144t141.5 -53q91 0 145 53t54 144h113q0 -133 -84.5 -213t-225.5 -80zM262 0h-137l401 1495h176l402 -1495h-137l-109 418h-489zM543 1081l-144 -546h428l-143 546q-50 192 -70 303q-18 -98 -71 -303zM614 -426
q-60 0 -94.5 32.5t-34.5 86.5q0 56 34.5 88.5t94.5 32.5t94.5 -32.5t34.5 -88.5q0 -54 -34.5 -86.5t-94.5 -32.5z" />
    <glyph glyph-name="uni1EB7" unicode="&#x1eb7;" 
d="M625 1315q-141 0 -225.5 80t-84.5 213h113q0 -91 53 -144t142 -53q91 0 144.5 53t53.5 144h113q0 -134 -84 -213.5t-225 -79.5zM623 1147q183 0 291 -102.5t108 -274.5v-770h-133v193q-25 -99 -119 -156t-233 -57q-175 0 -279 90.5t-104 244.5q0 150 98.5 239t263.5 89
h371v125q0 123 -69 190.5t-195 67.5q-112 0 -187.5 -54t-89.5 -143h-135q17 142 131.5 230t280.5 88zM571 92q140 0 228 71t88 185v187h-371q-103 0 -165 -57t-62 -152q0 -106 76.5 -170t205.5 -64zM625 -186q60 0 94.5 -32.5t34.5 -88.5q0 -54 -34.5 -86.5t-94.5 -32.5
t-94.5 32.5t-34.5 86.5q0 56 34.5 88.5t94.5 32.5z" />
    <glyph glyph-name="uni1EB8" unicode="&#x1eb8;" 
d="M1053 0h-824v1495h824v-123h-688v-530h616v-121h-616v-598h688v-123zM655 -426q-60 0 -94.5 32.5t-34.5 86.5q0 56 34.5 88.5t94.5 32.5t94.5 -32.5t34.5 -88.5q0 -54 -34.5 -86.5t-94.5 -32.5z" />
    <glyph glyph-name="uni1EB9" unicode="&#x1eb9;" 
d="M1030 729v-197h-698v-135q0 -142 74 -221.5t210 -79.5q109 0 180.5 48.5t96.5 136.5h135q-26 -139 -136.5 -220t-275.5 -81q-193 0 -305 113t-112 304v332q0 190 112.5 304t304.5 114q190 0 302 -114t112 -304zM332 729v-88h565v88q0 142 -73.5 222.5t-207.5 80.5
q-137 0 -210.5 -79.5t-73.5 -223.5zM614 -186q60 0 94.5 -32.5t34.5 -88.5q0 -54 -34.5 -86.5t-94.5 -32.5t-94.5 32.5t-34.5 86.5q0 56 34.5 88.5t94.5 32.5z" />
    <glyph glyph-name="uni1EBA" unicode="&#x1eba;" 
d="M719 1638h-129l104 146q33 48 33 69q0 52 -72 52h-170v96h174q82 0 131.5 -36.5t49.5 -96.5t-37 -109zM1053 0h-824v1495h824v-123h-688v-530h616v-121h-616v-598h688v-123z" />
    <glyph glyph-name="uni1EBB" unicode="&#x1ebb;" 
d="M690 1536q0 51 -72 51h-174v96h195q75 0 119.5 -36t44.5 -97q0 -62 -37 -108l-88 -121h-129l108 145q33 45 33 70zM1030 729v-197h-698v-135q0 -142 74 -221.5t210 -79.5q109 0 180.5 48.5t96.5 136.5h135q-26 -139 -136.5 -220t-275.5 -81q-193 0 -305 113t-112 304v332
q0 190 112.5 304t304.5 114q190 0 302 -114t112 -304zM332 729v-88h565v88q0 142 -73.5 222.5t-207.5 80.5q-137 0 -210.5 -79.5t-73.5 -223.5z" />
    <glyph glyph-name="uni1EBC" unicode="&#x1ebc;" 
d="M805 1669q-44 0 -81 17.5t-62 42.5t-47.5 50t-47.5 42.5t-51 17.5q-40 0 -63 -24.5t-23 -67.5v-68h-102v68q0 89 49.5 138.5t134.5 49.5q44 0 81 -17.5t62 -42.5t47.5 -50t47.5 -42.5t51 -17.5q37 0 58.5 25t21.5 68v67h102v-67q0 -89 -48 -139t-130 -50zM1053 0h-824
v1495h824v-123h-688v-530h616v-121h-616v-598h688v-123z" />
    <glyph glyph-name="uni1EBD" unicode="&#x1ebd;" 
d="M389 1409v-68h-102v68q0 89 49.5 138.5t134.5 49.5q44 0 81 -17.5t62 -42.5t47.5 -50t47.5 -42.5t51 -17.5q37 0 58.5 25t21.5 68v67h102v-67q0 -89 -48 -139t-130 -50q-44 0 -81 17.5t-62 42.5t-47.5 50t-47.5 42.5t-51 17.5q-40 0 -63 -24.5t-23 -67.5zM1030 729v-197
h-698v-135q0 -142 74 -221.5t210 -79.5q109 0 180.5 48.5t96.5 136.5h135q-26 -139 -136.5 -220t-275.5 -81q-193 0 -305 113t-112 304v332q0 190 112.5 304t304.5 114q190 0 302 -114t112 -304zM332 729v-88h565v88q0 142 -73.5 222.5t-207.5 80.5q-137 0 -210.5 -79.5
t-73.5 -223.5z" />
    <glyph glyph-name="uni1EBE" unicode="&#x1ebe;" 
d="M1014 1837h-142l215 252h158zM467 1597h-143l260 287h143l260 -287h-141l-191 199zM1053 0h-824v1495h824v-123h-688v-530h616v-121h-616v-598h688v-123z" />
    <glyph glyph-name="uni1EBF" unicode="&#x1ebf;" 
d="M1069 1843h156l-252 -287h-139zM805 1321l-191 199l-188 -199h-143l260 287h143l260 -287h-141zM616 1147q190 0 302 -114t112 -304v-197h-698v-135q0 -142 74 -221.5t210 -79.5q109 0 180.5 48.5t96.5 136.5h135q-26 -139 -136.5 -220t-275.5 -81q-193 0 -305 113
t-112 304v332q0 190 112.5 304t304.5 114zM332 729v-88h565v88q0 142 -73.5 222.5t-207.5 80.5q-137 0 -210.5 -79.5t-73.5 -223.5z" />
    <glyph glyph-name="uni1EC0" unicode="&#x1ec0;" 
d="M1092 1837h-140l-243 252h155zM467 1597h-143l260 287h143l260 -287h-141l-191 199zM1053 0h-824v1495h824v-123h-688v-530h616v-121h-616v-598h688v-123z" />
    <glyph glyph-name="uni1EC1" unicode="&#x1ec1;" 
d="M819 1843l248 -287h-139l-264 287h155zM805 1321l-191 199l-188 -199h-143l260 287h143l260 -287h-141zM616 1147q190 0 302 -114t112 -304v-197h-698v-135q0 -142 74 -221.5t210 -79.5q109 0 180.5 48.5t96.5 136.5h135q-26 -139 -136.5 -220t-275.5 -81
q-193 0 -305 113t-112 304v332q0 190 112.5 304t304.5 114zM332 729v-88h565v88q0 142 -73.5 222.5t-207.5 80.5q-137 0 -210.5 -79.5t-73.5 -223.5z" />
    <glyph glyph-name="uni1EC2" unicode="&#x1ec2;" 
d="M1040 1802h-120l96 105q28 31 28 55q0 16 -12 26.5t-33 10.5h-145v90h158q66 0 103.5 -30t37.5 -81q0 -56 -45 -104zM467 1597h-143l260 287h143l260 -287h-141l-191 199zM1053 0h-824v1495h824v-123h-688v-530h616v-121h-616v-598h688v-123z" />
    <glyph glyph-name="uni1EC3" unicode="&#x1ec3;" 
d="M793 1901h135q79 0 126.5 -37t47.5 -97q0 -47 -45 -112l-74 -99h-119l99 130q30 41 30 69q0 24 -18.5 38.5t-50.5 14.5h-131v93zM805 1321l-191 199l-188 -199h-143l260 287h143l260 -287h-141zM616 1147q190 0 302 -114t112 -304v-197h-698v-135q0 -142 74 -221.5
t210 -79.5q109 0 180.5 48.5t96.5 136.5h135q-26 -139 -136.5 -220t-275.5 -81q-193 0 -305 113t-112 304v332q0 190 112.5 304t304.5 114zM332 729v-88h565v88q0 142 -73.5 222.5t-207.5 80.5q-137 0 -210.5 -79.5t-73.5 -223.5z" />
    <glyph glyph-name="uni1EC4" unicode="&#x1ec4;" 
d="M811 1884q-55 0 -101 18t-72.5 39.5t-60 39.5t-65.5 18q-34 0 -54 -19t-20 -51v-24h-102v24q0 73 47 116.5t125 43.5q55 0 101 -18t72 -39.5t59 -39.5t65 -18q31 0 49 19t18 51v24h103v-24q0 -73 -44.5 -116.5t-119.5 -43.5zM467 1597h-143l241 240h180l242 -240h-143
l-189 172zM1053 0h-824v1495h824v-123h-688v-530h616v-121h-616v-598h688v-123z" />
    <glyph glyph-name="uni1EC5" unicode="&#x1ec5;" 
d="M408 1731v-52h-103v47q0 80 46.5 125t129.5 45q45 0 80.5 -14t58 -34t42 -40.5t42.5 -34.5t50 -14q67 0 67 74v51h103v-47q0 -79 -45 -124.5t-125 -45.5q-54 0 -96 21.5t-64 47t-51.5 47t-61.5 21.5q-73 0 -73 -73zM805 1321l-191 199l-188 -199h-143l260 287h143
l260 -287h-141zM1030 729v-197h-698v-135q0 -142 74 -221.5t210 -79.5q109 0 180.5 48.5t96.5 136.5h135q-26 -139 -136.5 -220t-275.5 -81q-193 0 -305 113t-112 304v332q0 190 112.5 304t304.5 114q190 0 302 -114t112 -304zM332 729v-88h565v88q0 142 -73.5 222.5
t-207.5 80.5q-137 0 -210.5 -79.5t-73.5 -223.5z" />
    <glyph glyph-name="uni1EC6" unicode="&#x1ec6;" 
d="M469 1659h-145l260 287h141l262 -287h-141l-191 199zM1053 0h-824v1495h824v-123h-688v-530h616v-121h-616v-598h688v-123zM655 -426q-60 0 -94.5 32.5t-34.5 86.5q0 56 34.5 88.5t94.5 32.5t94.5 -32.5t34.5 -88.5q0 -54 -34.5 -86.5t-94.5 -32.5z" />
    <glyph glyph-name="uni1EC7" unicode="&#x1ec7;" 
d="M805 1321l-191 199l-186 -199h-145l260 287h141l262 -287h-141zM1030 729v-197h-698v-135q0 -142 74 -221.5t210 -79.5q109 0 180.5 48.5t96.5 136.5h135q-26 -139 -136.5 -220t-275.5 -81q-193 0 -305 113t-112 304v332q0 190 112.5 304t304.5 114q190 0 302 -114
t112 -304zM332 729v-88h565v88q0 142 -73.5 222.5t-207.5 80.5q-137 0 -210.5 -79.5t-73.5 -223.5zM614 -186q60 0 94.5 -32.5t34.5 -88.5q0 -54 -34.5 -86.5t-94.5 -32.5t-94.5 32.5t-34.5 86.5q0 56 34.5 88.5t94.5 32.5z" />
    </font>
</defs>
</svg>
