<?xml version="1.0" standalone="no"?>
<!DOCTYPE svg PUBLIC "-//W3C//DTD SVG 1.1//EN" "http://www.w3.org/Graphics/SVG/1.1/DTD/svg11.dtd" >
<svg xmlns="http://www.w3.org/2000/svg" xmlns:xlink="http://www.w3.org/1999/xlink" version="1.1">
<metadata>
Created by FontForge 20170731 at Thu Nov 16 19:43:58 2023
 By Aleksey,,,
Copyright 2021 Alessio Laiso, Mario Rullo, Paolo Rosset
</metadata>
<defs>
<font id="TekneLDO-ExtraLightItalic" horiz-adv-x="1228" >
  <font-face 
    font-family="Tekne LDO ExtraLight"
    font-weight="200"
    font-style="italic"
    font-stretch="normal"
    units-per-em="2048"
    panose-1="2 0 0 9 0 0 0 0 0 0"
    ascent="1638"
    descent="-410"
    x-height="1126"
    cap-height="1495"
    bbox="-3572 -819 1587 2294"
    underline-thickness="102"
    underline-position="-419"
    slope="-9"
    unicode-range="U+000D-1D54A"
  />
<missing-glyph 
d="M1044 0h-860v1495h860v-1495zM287 1393v-1170l614 1170h-614zM942 1272l-614 -1170h614v1170z" />
    <glyph glyph-name="hyphen_hyphen.liga" unicode="&#x2d;&#x2d;" 
d="M-84 618h-850l19 121h849zM950 618h-850l19 121h850z" />
    <glyph glyph-name="hyphen_hyphen_hyphen.liga" unicode="&#x2d;&#x2d;&#x2d;" 
d="M-1251 618h-912l19 121h911zM-156 618h-901l19 121h901zM950 618h-911l18 121h912z" />
    <glyph glyph-name="hyphen_hyphen_greater.liga" unicode="&#x2d;&#x2d;&#x3e;" 
d="M895 737l-363 543h154l393 -602l-585 -606h-166l536 544h-3127l20 121h3138z" />
    <glyph glyph-name="hyphen_bar.liga" unicode="&#x2d;&#x7c;" 
d="M565 -174h-135l125 792h-1407l18 121h1407l127 797h136z" />
    <glyph glyph-name="hyphen_greater.liga" unicode="&#x2d;&#x3e;" 
d="M891 737l-356 543h151l393 -602l-585 -606h-166l530 544h-1892l18 121h1907z" />
    <glyph glyph-name="hyphen_greater_greater.liga" unicode="&#x2d;&#x3e;&#x3e;" 
d="M-96 72h-166l530 544h-2531l18 121h2546l-356 543h151l393 -602zM494 72h-166l594 616l-387 592h151l393 -602z" />
    <glyph glyph-name="hyphen_less.liga" unicode="&#x2d;&#x3c;" 
d="M934 72h-154l-356 544h-1458l18 121h1460l529 543h164l-592 -612z" />
    <glyph glyph-name="hyphen_less_less.liga" unicode="&#x2d;&#x3c;&#x3c;" 
d="M342 72h-152l-356 544h-2097l18 121h2100l528 543h166l-602 -612zM932 72h-152l-395 604l588 604h166l-598 -612z" />
    <glyph glyph-name="hyphen_asciitilde.liga" unicode="&#x2d;&#x7e;" 
d="M190 481q-89 0 -150 36t-83 101h-963l19 121h1063l-2 -10q-9 -62 28 -98.5t107 -36.5q53 0 108.5 31t105.5 75t103 88.5t120 75.5t138 31q119 0 177 -68.5t38 -185.5l-20 -141h-125l20 141q11 66 -18 103.5t-90 37.5q-48 0 -100.5 -31t-102 -75t-103 -88.5t-124.5 -75.5
t-146 -31z" />
    <glyph glyph-name="braceleft_bar.liga" unicode="&#x7b;&#x7c;" 
d="M-395 1001l35 379q15 151 119.5 235.5t267.5 84.5h233l-18 -121h-234q-98 0 -161 -53t-72 -146l-35 -379q-10 -104 -66.5 -174t-144.5 -90q80 -20 115.5 -91.5t13.5 -174.5l-86 -377q-21 -93 25.5 -145.5t144.5 -52.5h233l-18 -121h-233q-164 0 -243 84.5t-44 234.5
l86 377q24 113 -11 159t-163 46h-226l21 121h225q127 0 177 45t59 159zM381 -225l303 1925h135l-303 -1925h-135z" />
    <glyph glyph-name="bracketleft_bar.liga" unicode="[&#x7c;" 
d="M-14 -225h-752l303 1925h752l-19 -121h-616l-266 -1683h616zM516 -225h-135l303 1925h135z" />
    <glyph glyph-name="bracketleft_less.liga" unicode="[&#x3c;" 
d="M-653 -225h-477l303 1925h477l-19 -121h-342l-266 -1683h342zM801 313l-23 -131l-796 455l22 139l940 455l-22 -144l-662 -313q-115 -57 -160 -72q85 -38 140 -71z" />
    <glyph glyph-name="bracketright_numbersign.liga" unicode="]&#x23;" 
d="M-748 -225h-477l19 121h342l266 1683h-342l18 121h478zM258 0h-113l113 455h-801l8 102h822l94 381h-893l8 102h912l114 455h113l-115 -455h361l112 455h113l-113 -455h195l-8 -102h-213l-97 -381h215l-8 -102h-233l-115 -455h-113l115 455h-360zM494 938l-95 -381h359
l96 381h-360z" />
    <glyph glyph-name="period_period.liga" unicode="&#x2e;&#x2e;" 
d="M-745 -20q-73 0 -109 42.5t-25 114.5q12 73 62.5 116.5t122.5 43.5t107.5 -43.5t23.5 -116.5q-10 -72 -60 -114.5t-122 -42.5zM154 -20q-72 0 -108.5 42.5t-25.5 114.5q12 73 62.5 116.5t122.5 43.5q73 0 108 -43t23 -117q-10 -72 -60 -114.5t-122 -42.5z" />
    <glyph glyph-name="period_period_period.liga" unicode="&#x2e;&#x2e;&#x2e;" 
d="M-1884 -20q-73 0 -108.5 42.5t-24.5 114.5q12 73 62 116.5t122 43.5t107.5 -43.5t23.5 -116.5q-10 -72 -60 -114.5t-122 -42.5zM-911 -20q-72 0 -107.5 42.5t-23.5 114.5q10 73 60 116.5t124 43.5q72 0 107 -43t24 -117q-12 -72 -61.5 -114.5t-122.5 -42.5zM63 -20
q-72 0 -108 42.5t-25 114.5q12 73 62.5 116.5t122.5 43.5q73 0 108 -43t23 -117q-10 -72 -60.5 -114.5t-122.5 -42.5z" />
    <glyph glyph-name="period_period_less.liga" unicode="&#x2e;&#x2e;&#x3c;" 
d="M616 283l-22 -131l-797 454l23 139l940 455l-23 -143l-661 -314q-109 -53 -160 -71q73 -33 139 -72zM-1995 -20q-72 0 -108 42.5t-25 114.5q12 73 62 116.5t122 43.5q73 0 108.5 -43t23.5 -117q-10 -72 -60.5 -114.5t-122.5 -42.5zM-1098 -20q-72 0 -108 42.5t-25 114.5
q12 73 62 116.5t122 43.5q73 0 108.5 -43t23.5 -117q-10 -72 -60.5 -114.5t-122.5 -42.5z" />
    <glyph glyph-name="period_question.liga" unicode="&#x2e;&#x3f;" 
d="M375 420h-135l57 356h102q141 0 238 81t119 216t-50.5 216t-213.5 81h-250l20 125h250q203 0 306.5 -115t72.5 -307q-29 -184 -159.5 -297.5t-317.5 -116.5zM-911 -20q-72 0 -108 42.5t-25 114.5q12 73 62 116.5t122 43.5q73 0 108 -43t23 -117q-10 -72 -60 -114.5
t-122 -42.5zM252 -10h-31q-52 0 -79 31.5t-19 84.5q7 52 44.5 84.5t90.5 32.5h31q53 0 79.5 -32t18.5 -85q-7 -51 -45.5 -83.5t-89.5 -32.5z" />
    <glyph glyph-name="period_equal.liga" unicode="&#x2e;&#x3d;" 
d="M1087 854h-856l21 121h856zM-621 461q-95 0 -145 60t-35 155t84 155t166 60q95 0 145 -60t35 -155t-84 -155t-166 -60zM1012 379h-856l20 121h856z" />
    <glyph glyph-name="colon_colon.liga" unicode="&#x3a;&#x3a;" 
d="M-610 848q-72 0 -109 40.5t-26 108.5q10 67 60.5 108.5t121.5 41.5q70 0 107 -41t26 -109q-10 -67 -59.5 -108t-120.5 -41zM291 848q-72 0 -109 40.5t-26 108.5q10 67 60.5 108.5t121.5 41.5q70 0 107 -41t26 -109q-10 -67 -59.5 -108t-120.5 -41zM-750 -20
q-71 0 -107 41t-26 108t60 108.5t121 41.5q72 0 109 -41t26 -109q-10 -67 -61 -108t-122 -41zM152 -20q-71 0 -107.5 41t-26.5 108t60 108.5t121 41.5q72 0 109 -41t26 -109q-10 -67 -60.5 -108t-121.5 -41z" />
    <glyph glyph-name="colon_colon_colon.liga" unicode="&#x3a;&#x3a;&#x3a;" 
d="M-1675 848q-72 0 -109 40.5t-26 108.5q10 67 60.5 108.5t121.5 41.5q70 0 107 -41t26 -109q-10 -67 -59.5 -108t-120.5 -41zM-774 848q-72 0 -109 40.5t-26 108.5q10 67 60.5 108.5t121.5 41.5q70 0 107 -41t26 -109q-10 -67 -59.5 -108t-120.5 -41zM127 848
q-72 0 -109 40.5t-26 108.5q10 67 60.5 108.5t121.5 41.5q70 0 107 -41t26 -109q-10 -67 -59.5 -108t-120.5 -41zM-1815 -20q-71 0 -107 41t-26 108t60 108.5t121 41.5q72 0 109 -41t26 -109q-10 -67 -61 -108t-122 -41zM-913 -20q-71 0 -107.5 41t-26.5 108t60 108.5
t121 41.5q72 0 109 -41t26 -109q-10 -67 -60.5 -108t-121.5 -41zM-12 -20q-71 0 -107 41t-26 108q10 68 59.5 109t120.5 41q72 0 109 -41t26 -109q-10 -67 -60.5 -108t-121.5 -41z" />
    <glyph glyph-name="colon_colon_equal.liga" unicode="&#x3a;&#x3a;&#x3d;" 
d="M-1948 961q-72 0 -109 40.5t-26 108.5q10 67 60.5 108.5t121.5 41.5t107.5 -41.5t26.5 -108.5t-60 -108t-121 -41zM-1022 961q-72 0 -109 40.5t-26 108.5q10 67 60.5 108.5t121.5 41.5q70 0 107 -41t26 -109q-10 -67 -59.5 -108t-120.5 -41zM821 854h-856l21 121h856z
M745 379h-856l21 121h856zM-2087 92q-70 0 -107 41t-26 109q10 67 59.5 108t120.5 41q72 0 109 -40.5t26 -108.5q-10 -67 -60.5 -108.5t-121.5 -41.5zM-1161 92q-70 0 -107 41t-26 109q10 67 59.5 108t120.5 41q72 0 109 -40.5t26 -108.5q-10 -67 -60.5 -108.5t-121.5 -41.5
z" />
    <glyph glyph-name="colon_question.liga" unicode="&#x3a;&#x3f;" 
d="M362 420h-135l58 356h102q141 0 237.5 81t118.5 216t-50.5 216t-213.5 81h-250l21 125h250q203 0 306.5 -115t72.5 -307q-29 -183 -160 -297t-318 -117zM-672 848q-72 0 -109 40.5t-26 108.5q10 67 60.5 108.5t121.5 41.5q70 0 107 -41t26 -109q-10 -67 -59.5 -108
t-120.5 -41zM-811 -20q-71 0 -107 41t-26 108q11 67 60.5 108.5t119.5 41.5q72 0 109 -41t26 -109q-10 -67 -60.5 -108t-121.5 -41zM240 -10h-31q-52 0 -79 31.5t-19 84.5q7 52 44.5 84.5t90.5 32.5h30q54 0 80.5 -32t18.5 -85q-7 -51 -45.5 -83.5t-89.5 -32.5z" />
    <glyph glyph-name="colon_question_greater.liga" unicode="&#x3a;&#x3f;&#x3e;" 
d="M-872 420h-136l58 356h102q141 0 237.5 81t118.5 216t-50.5 216t-213.5 81h-250l21 125h250q203 0 306.5 -115t72.5 -307q-29 -183 -160 -297t-318 -117zM881 606l-940 -454l20 141l662 315q129 59 161 70q-73 33 -139 72l-561 317l22 133l797 -455zM-1993 848
q-72 0 -109 40.5t-26 108.5q10 67 60.5 108.5t121.5 41.5t107.5 -41.5t26.5 -108.5t-60 -108t-121 -41zM-2132 -20q-71 0 -107 41t-26 108q11 68 60 109t120 41q72 0 109 -41t26 -109q-10 -67 -60.5 -108t-121.5 -41zM-995 -10h-31q-52 0 -79 31.5t-19 84.5q7 52 44.5 84.5
t90.5 32.5h31q53 0 79.5 -32t18.5 -85q-7 -51 -45.5 -83.5t-89.5 -32.5z" />
    <glyph glyph-name="colon_equal.liga" unicode="&#x3a;&#x3d;" 
d="M-676 831q-69 0 -106.5 42t-28.5 110q12 68 63 110t121 42q69 0 106 -42.5t27 -109.5q-11 -68 -61.5 -110t-120.5 -42zM1008 852h-1127l21 121h1126zM-772 217q-70 0 -108 42t-27 110q10 67 61.5 109t120.5 42t106.5 -42t28.5 -109q-10 -67 -61.5 -109.5t-120.5 -42.5z
M932 379h-1127l21 121h1126z" />
    <glyph glyph-name="colon_greater.liga" unicode="&#x3a;&#x3e;" 
d="M-774 961q-72 0 -109 40.5t-26 108.5q10 67 60.5 108.5t121.5 41.5q70 0 107 -41t26 -109q-10 -67 -59.5 -108t-120.5 -41zM850 606l-940 -454l20 141l662 315q126 58 162 70q-77 35 -140 72l-561 317l23 133l796 -455zM-913 92q-71 0 -107.5 41.5t-26.5 108.5t60 108
t121 41q72 0 109 -40.5t26 -108.5q-10 -67 -60.5 -108.5t-121.5 -41.5z" />
    <glyph glyph-name="colon_less.liga" unicode="&#x3a;&#x3c;" 
d="M-774 961q-72 0 -109 40.5t-26 108.5q10 67 60.5 108.5t121.5 41.5q70 0 107 -41t26 -109q-10 -67 -59.5 -108t-120.5 -41zM719 283l-23 -131l-796 454l22 139l940 455l-22 -143l-662 -314q-109 -53 -160 -71q77 -35 140 -72zM-913 92q-71 0 -107.5 41.5t-26.5 108.5
t60 108t121 41q72 0 109 -40.5t26 -108.5q-10 -67 -60.5 -108.5t-121.5 -41.5z" />
    <glyph glyph-name="semicolon_semicolon.liga" unicode="&#x3b;&#x3b;" 
d="M-596 852h-29q-66 0 -100.5 40.5t-24.5 106.5q9 65 57.5 106.5t114.5 41.5h29q64 0 99 -41.5t26 -106.5q-10 -66 -58 -106.5t-114 -40.5zM305 852h-29q-66 0 -100 40.5t-24 106.5q9 65 57.5 106.5t114.5 41.5h28q64 0 99 -41.5t26 -106.5q-10 -66 -58 -106.5t-114 -40.5z
M-920 -328h-118l258 637h221zM-18 -328h-119l258 637h221z" />
    <glyph glyph-name="semicolon_semicolon_semicolon.liga" unicode="&#x3b;&#x3b;&#x3b;" 
d="M-1661 852h-29q-66 0 -100.5 40.5t-24.5 106.5q9 64 58 106t115 42h28q64 0 99 -41.5t26 -106.5q-10 -66 -58 -106.5t-114 -40.5zM-760 852h-28q-66 0 -100.5 40.5t-24.5 106.5q9 65 57.5 106.5t114.5 41.5h28q64 0 99 -41.5t26 -106.5q-10 -66 -58 -106.5t-114 -40.5z
M141 852h-28q-66 0 -100.5 40.5t-24.5 106.5q9 65 57.5 106.5t114.5 41.5h28q64 0 99 -41.5t26 -106.5q-10 -66 -58 -106.5t-114 -40.5zM-1985 -328h-118l258 637h221zM-1083 -328h-119l258 637h221zM-182 -328h-119l258 637h221z" />
    <glyph glyph-name="exclam_exclam.liga" unicode="&#x21;&#x21;" 
d="M-682 428h-90l86 772l49 295h162l-47 -295zM303 428h-88l86 772l47 295h162l-47 -295zM-776 -10h-31q-52 0 -79 31.5t-19 84.5q7 52 45.5 84.5t89.5 32.5h31q53 0 79.5 -32t18.5 -85q-8 -51 -45.5 -83.5t-89.5 -32.5zM209 -10h-31q-52 0 -78.5 31.5t-17.5 84.5
q7 52 44.5 84.5t90.5 32.5h31q53 0 79.5 -32t18.5 -85q-9 -51 -47 -83.5t-90 -32.5z" />
    <glyph glyph-name="exclam_equal.liga" unicode="&#x21;&#x3d;" 
d="M-461 0h-139l305 379h-801l21 121h876l285 354h-1106l21 121h1183l310 387h137l-309 -387h808l-20 -121h-887l-282 -354h1114l-21 -121h-1190z" />
    <glyph glyph-name="exclam_equal_equal.liga" unicode="&#x21;&#x3d;&#x3d;" 
d="M1133 1149l-17 -117h-1376l-229 -299h1558l-18 -115h-1631l-229 -299h1813l-19 -116h-1884l-236 -305h-131l236 305h-1299l19 116h1370l229 299h-1552l18 115h1624l230 299h-1807l17 117h1880l235 305h132l-236 -305h1303z" />
    <glyph glyph-name="question_period.liga" unicode="&#x3f;&#x2e;" 
d="M-453 420h-135l58 356h102q141 0 237.5 81t118.5 216t-50.5 216t-213.5 81h-250l21 125h250q203 0 306 -115t72 -307q-29 -184 -159.5 -297.5t-317.5 -116.5zM154 -20q-73 0 -109 42.5t-25 114.5q10 73 60.5 116.5t124.5 43.5q72 0 107 -43t24 -117q-10 -72 -60 -114.5
t-122 -42.5zM-575 -10h-31q-52 0 -79.5 31.5t-19.5 84.5q7 52 45 84.5t91 32.5h30q54 0 80.5 -32t18.5 -85q-7 -51 -45.5 -83.5t-89.5 -32.5z" />
    <glyph glyph-name="question_colon.liga" unicode="&#x3f;&#x3a;" 
d="M-451 420h-135l58 356h102q141 0 237.5 81t118.5 216t-50.5 216t-213.5 81h-250l21 125h250q203 0 306.5 -115t72.5 -307q-29 -183 -160 -297t-318 -117zM352 848q-72 0 -109 40.5t-26 108.5q10 67 60.5 108.5t121.5 41.5q70 0 107 -41t26 -109q-10 -67 -59.5 -108
t-120.5 -41zM213 -20q-71 0 -107 41t-26 108q10 68 60 109t120 41q72 0 109 -41t26 -109q-10 -67 -60.5 -108t-121.5 -41zM-573 -10h-31q-52 0 -79 31.5t-19 84.5q7 52 44.5 84.5t90.5 32.5h30q54 0 80.5 -32t18.5 -85q-8 -51 -45.5 -83.5t-89.5 -32.5z" />
    <glyph glyph-name="question_question.liga" unicode="&#x3f;&#x3f;" 
d="M-559 420h-135l57 356h102q141 0 238 81t119 216t-50.5 216t-213.5 81h-250l20 125h250q203 0 306.5 -115t72.5 -307q-29 -184 -159.5 -297.5t-317.5 -116.5zM475 420h-135l57 356h103q141 0 237.5 81t118.5 216t-50.5 216t-213.5 81h-250l20 125h250q203 0 306.5 -115
t72.5 -307q-29 -184 -159.5 -297.5t-317.5 -116.5zM-682 -10h-31q-52 0 -79 31.5t-19 84.5q7 52 44.5 84.5t90.5 32.5h31q53 0 79.5 -32t18.5 -85q-7 -51 -45.5 -83.5t-89.5 -32.5zM352 -10h-30q-52 0 -79.5 31.5t-19.5 84.5q7 52 44.5 84.5t90.5 32.5h31q53 0 79.5 -32
t18.5 -85q-7 -51 -45.5 -83.5t-89.5 -32.5z" />
    <glyph glyph-name="question_question_question.liga" unicode="&#x3f;&#x3f;&#x3f;" 
d="M-1796 420h-135l57 356h102q141 0 238 81t119 216t-50.5 216t-213.5 81h-250l20 125h250q203 0 306.5 -115t72.5 -307q-29 -184 -159.5 -297.5t-317.5 -116.5zM-649 420h-135l57 356h102q141 0 238 81t119 216t-50.5 216t-213.5 81h-250l20 125h250q203 0 306.5 -115
t72.5 -307q-29 -184 -159.5 -297.5t-317.5 -116.5zM498 420h-136l58 356h102q141 0 238 81t119 216t-51 216t-214 81h-249l20 125h250q203 0 306.5 -115t72.5 -307q-29 -184 -159.5 -297.5t-317.5 -116.5zM-1919 -10h-31q-52 0 -79 31.5t-19 84.5q7 52 44.5 84.5t90.5 32.5
h31q53 0 79.5 -32t18.5 -85q-7 -51 -45.5 -83.5t-89.5 -32.5zM-772 -10h-31q-52 0 -79 31.5t-19 84.5q7 52 44.5 84.5t90.5 32.5h31q53 0 79.5 -32t18.5 -85q-7 -51 -45.5 -83.5t-89.5 -32.5zM375 -10h-31q-52 0 -79 31.5t-19 84.5q7 52 44.5 84.5t90.5 32.5h31
q53 0 79.5 -32t18.5 -85q-7 -51 -45.5 -83.5t-89.5 -32.5z" />
    <glyph glyph-name="question_equal.liga" unicode="&#x3f;&#x3d;" 
d="M-567 420h-135l57 356h102q141 0 238 81t119 216t-51 216t-214 81h-249l20 125h250q203 0 306.5 -115t72.5 -307q-29 -184 -159.5 -297.5t-317.5 -116.5zM954 874h-864l21 127h864zM881 420h-1192l8 49q40 9 70 30t40 48h1094zM-690 -10h-31q-52 0 -79 31.5t-19 84.5
q7 52 44.5 84.5t90.5 32.5h31q53 0 79.5 -32t18.5 -85q-7 -51 -45.5 -83.5t-89.5 -32.5z" />
    <glyph glyph-name="asterisk_asterisk_asterisk.liga" unicode="&#x2a;&#x2a;&#x2a;" 
d="M-770 723l-162 -191l-104 80l166 191q23 27 46.5 50.5t47.5 45t38.5 33.5t41 33t32.5 26l-4 23q-139 14 -235 51l-207 80l70 129l206 -78q97 -38 201 -119l17 10q0 11 -2.5 47t-3 60.5t1.5 65t8 79.5l39 238h137l-37 -238q-18 -110 -78 -252l12 -12q143 88 236 119
l235 80l27 -133l-233 -80q-37 -13 -78 -22.5t-61.5 -12.5t-63 -8t-47.5 -6l-13 -23q6 -7 31 -33t39.5 -42.5t37 -47.5t40.5 -63l102 -193l-125 -80l-104 193q-11 19 -19.5 38t-16.5 39.5t-12.5 33t-10.5 35.5t-7.5 29t-7.5 31l-6 25h-18q-6 -10 -26.5 -45t-34.5 -57
t-40 -58.5t-55 -70.5zM-1917 395l-162 -190l-104 80l166 190q23 27 46.5 50.5t48 45.5t39 34t41 33t32.5 26l-5 22q-139 14 -235 51l-207 80l70 129l207 -78q98 -38 200 -118l17 10q0 11 -2.5 47t-3 60.5t1.5 65t8 79.5l39 237h137l-37 -237q-18 -110 -78 -252l12 -12
q46 29 66.5 41t71 36.5t98.5 40.5l236 80l26 -133l-233 -80q-37 -13 -78 -22.5t-61.5 -12.5t-63 -8t-47.5 -6l-12 -22q3 -4 30.5 -33t40.5 -44t35.5 -46.5t40.5 -63.5l102 -192l-125 -80l-104 192q-11 19 -19.5 38t-16 39.5t-12.5 34t-11 35t-8 29t-7 31t-6 25.5h-18
q-7 -11 -27 -45.5t-34 -57t-40 -59.5t-55 -70zM377 395l-162 -190l-104 80l165 190q23 27 46.5 50.5t48 45.5t39 34t41 33t32.5 26l-4 22q-139 14 -235 51l-207 80l69 129l207 -78q100 -39 201 -118l16 10q0 10 -2.5 47t-3 61t2 64.5t8.5 79.5l38 237h138l-37 -237
q-18 -110 -78 -252l12 -12q46 29 66.5 41t71 36.5t98.5 40.5l235 80l27 -133l-234 -80q-37 -13 -77.5 -22.5t-61 -12.5t-63.5 -8t-47 -6l-13 -22q5 -6 31 -33.5t40 -43t36.5 -47t40.5 -63.5l102 -192l-125 -80l-104 192q-11 19 -19.5 38t-16 39.5t-12.5 34t-11 35t-8 29
t-7 31t-6 25.5h-19q-7 -12 -26.5 -45.5t-34 -57t-40 -60t-54.5 -69.5z" />
    <glyph glyph-name="asterisk_greater.liga" unicode="&#x2a;&#x3e;" 
d="M-719 395l-196 -227l-103 80l199 227q73 82 205 189l-4 22q-1 0 -19 2t-23 2.5t-22.5 2.5t-26 4t-25.5 5t-29 6t-28 7.5t-31 10t-30 11.5l-242 101l68 129l242 -99q99 -43 202 -120l17 12q0 5 -2 30.5t-2.5 37t-1.5 38t0 46t3.5 46.5t6.5 54l45 286h137l-45 -286
q-16 -110 -76 -252l13 -10q137 79 235 116l277 101l26 -131l-276 -101q-48 -18 -101 -29.5t-75.5 -14t-73.5 -7.5l-10 -22q5 -5 24.5 -26t30 -33t28 -33.5t32.5 -45t30 -49.5l127 -229l-125 -80l-127 229q-24 43 -42 91.5t-23.5 72.5t-14.5 68h-20q-4 -6 -33 -57.5
t-56.5 -92t-64.5 -82.5zM1079 606l-940 -454l21 141l661 315q126 58 162 70q-73 33 -139 72l-561 317l22 133l797 -455z" />
    <glyph glyph-name="asterisk_slash.liga" unicode="&#x2a;&#x2f;" 
d="M201 -225h-148l1028 1925h148zM-770 231l-162 -190l-104 80l166 190q23 27 46 50t48.5 46t37.5 33.5t41.5 34t32.5 25.5l-4 22q-139 14 -235 51l-207 80l70 129l206 -77q97 -38 201 -119l17 10q0 11 -2.5 47t-3 60.5t1.5 65t8 79.5l39 237h137l-37 -237
q-18 -110 -78 -252l12 -12q46 29 66.5 41t71 36.5t98.5 40.5l235 80l27 -133l-233 -80q-37 -13 -78 -22.5t-61.5 -12.5t-63 -8t-47.5 -6l-13 -22q5 -6 31 -33.5t40 -43t36.5 -47t40.5 -63.5l102 -192l-125 -80l-104 192q-11 19 -19.5 38t-16 39.5t-12.5 34t-11 35t-8 29
t-7 31t-6 25.5h-18q-7 -11 -27 -45.5t-34 -57t-40 -59.5t-55 -70z" />
    <glyph glyph-name="numbersign_parenleft.liga" unicode="&#x23;&#x28;" 
d="M922 1724l-21 -129q-195 -46 -334 -191.5t-196 -363.5h147l-8 -102h-162l-59 -381h198l-8 -102h-205q-17 -226 76 -378.5t279 -199.5l-21 -127q-247 64 -369.5 248.5t-99.5 456.5h-524l-115 -455h-112l114 455h-360l-113 -455h-112l112 455h-194l8 102h215l94 381h-215
l8 102h234l114 455h113l-115 -455h361l112 455h113l-113 -455h469q68 263 248.5 443t440.5 241zM-829 557h358l96 381h-360zM-358 557h512l59 381h-475z" />
    <glyph glyph-name="numbersign_braceleft.liga" unicode="&#x23;&#x7b;" 
d="M1122 1700h99l-19 -121h-98q-96 0 -159.5 -53t-72.5 -146l-38 -366q-11 -113 -78.5 -183.5t-171.5 -74.5v-8q101 -4 146 -77t20 -188l-82 -389q-19 -93 27.5 -145.5t142.5 -52.5h98l-18 -121h-99q-163 0 -241 84t-46 235l76 361h-1003l-158 -455h-113l158 455h-360
l-158 -455h-113l158 455h-195l17 102h215l131 381h-213l14 102h234l160 455h112l-160 -455h361l160 455h112l-160 -455h893l37 340q15 151 118.5 235.5t266.5 84.5zM-831 557h360l131 381h-360zM301 809h160q103 0 154 29.5t71 99.5h-913l-131 -381h983q3 70 -37 99.5
t-146 29.5h-159z" />
    <glyph glyph-name="numbersign_bracketleft.liga" unicode="&#x23;[" 
d="M827 1700l-18 -121h-342l-86 -539h211l-17 -102h-210l-60 -381h211l-18 -102h-209l-88 -559h342l-19 -121h-477l107 680h-545l-158 -455h-113l158 455h-358l-158 -455h-113l158 455h-196l18 102h213l133 381h-215l16 102h234l158 455h112l-157 -455h358l160 455h112
l-159 -455h434l104 660h477zM-827 557h360l131 381h-358zM-354 557h524l59 381h-452z" />
    <glyph glyph-name="numbersign_colon.liga" unicode="&#x23;&#x3a;" 
d="M-1020 0h-123l148 422h-185l17 106h205l149 439h-213l16 106h236l147 422h123l-147 -422h348l147 422h127l-151 -422h184l-16 -106h-207l-150 -439h215l-16 -106h-235l-148 -422h-123l148 422h-350zM666 893q-70 0 -108 42t-28 109t62 109.5t121 42.5t106.5 -42
t28.5 -110q-10 -67 -60.5 -109t-121.5 -42zM-686 967l-150 -439h349l151 439h-350zM569 279q-70 0 -108 41.5t-29 109.5q12 68 63 110t121 42q69 0 106.5 -42.5t27.5 -109.5q-9 -67 -60 -109t-121 -42z" />
    <glyph glyph-name="numbersign_exclam.liga" unicode="&#x23;&#x21;" 
d="M-1020 0h-123l148 422h-185l17 106h205l149 439h-213l16 106h236l147 422h123l-147 -422h348l147 422h127l-151 -422h184l-16 -106h-207l-150 -439h215l-16 -106h-235l-148 -422h-123l148 422h-350zM508 428h-88l235 772l105 295h164l-105 -295zM-686 967l-150 -439h349
l151 439h-350zM330 -10h-31q-53 0 -74 32t-2 84q17 52 61 84.5t97 32.5h31q54 0 74 -32t1 -85q-19 -51 -62.5 -83.5t-94.5 -32.5z" />
    <glyph glyph-name="numbersign_question.liga" unicode="&#x23;&#x3f;" 
d="M-1026 0h-113l158 455h-195l17 102h215l131 381h-213l14 102h234l160 455h112l-160 -455h361l160 455h112l-160 -455h373l8 37q31 199 177 319t358 120q214 0 321.5 -119t75.5 -320q-29 -188 -159 -303t-320 -119l-37 -235h-135l55 352h90q151 0 249 81t120 224
q25 148 -49.5 233t-228.5 85t-257 -85t-126 -233l-21 -139h-528l-131 -381h213l-17 -102h-233l-158 -455h-113l158 455h-360zM-700 938l-131 -381h360l131 381h-360zM477 -10h-22q-55 0 -83 31t-20 85q7 52 46.5 84.5t93.5 32.5h22q54 0 82 -32t20 -85q-7 -53 -45.5 -84.5
t-93.5 -31.5z" />
    <glyph glyph-name="numbersign_numbersign.liga" unicode="&#x23;&#x23;" 
d="M-965 0h-112l157 455h-194l16 102h215l131 381h-213l15 102h233l160 455h113l-160 -455h360l160 455h113l-160 -455h520l160 455h113l-160 -455h360l160 455h113l-160 -455h194l-14 -102h-215l-131 -381h213l-16 -102h-234l-158 -455h-112l157 455h-360l-158 -455h-112
l157 455h-520l-158 -455h-112l158 455h-361zM-639 938l-131 -381h360l131 381h-360zM-166 938l-131 -381h520l131 381h-520zM467 938l-131 -381h360l131 381h-360z" />
    <glyph glyph-name="numbersign_numbersign_numbersign.liga" unicode="&#x23;&#x23;&#x23;" 
d="M-2193 0h-113l158 455h-195l16 102h216l131 381h-213l14 102h233l160 455h113l-160 -455h360l160 455h113l-160 -455h582l160 455h112l-160 -455h361l160 455h112l-160 -455h582l160 455h113l-160 -455h360l160 455h113l-160 -455h194l-14 -102h-215l-131 -381h213
l-16 -102h-234l-158 -455h-112l157 455h-360l-158 -455h-112l157 455h-581l-158 -455h-113l158 455h-360l-158 -455h-113l158 455h-582l-157 -455h-113l158 455h-361zM-1868 938l-131 -381h361l131 381h-361zM-1395 938l-131 -381h582l131 381h-582zM-700 938l-131 -381h360
l131 381h-360zM-227 938l-131 -381h581l131 381h-581zM467 938l-131 -381h360l131 381h-360z" />
    <glyph glyph-name="numbersign_numbersign_numbersign_numbersign.liga" unicode="&#x23;&#x23;&#x23;&#x23;" 
d="M-3422 0h-113l158 455h-195l17 102h215l131 381h-213l14 102h234l159 455h113l-160 -455h361l159 455h113l-160 -455h602l160 455h113l-160 -455h361l159 455h113l-160 -455h602l160 455h113l-160 -455h360l160 455h113l-160 -455h602l160 455h113l-160 -455h360l160 455
h113l-160 -455h194l-14 -102h-215l-131 -381h213l-16 -102h-234l-158 -455h-112l157 455h-360l-158 -455h-112l157 455h-602l-157 -455h-113l158 455h-361l-158 -455h-112l158 455h-603l-157 -455h-113l158 455h-361l-157 -455h-113l158 455h-602l-158 -455h-113l158 455
h-361zM-3097 938l-131 -381h361l131 381h-361zM-2623 938l-132 -381h603l131 381h-602zM-1909 938l-131 -381h361l131 381h-361zM-1436 938l-131 -381h602l131 381h-602zM-721 938l-131 -381h360l132 381h-361zM-248 938l-131 -381h602l131 381h-602zM467 938l-131 -381h360
l131 381h-360z" />
    <glyph glyph-name="numbersign_equal.liga" unicode="&#x23;&#x3d;" 
d="M-1020 0h-123l148 422h-185l17 106h205l149 439h-213l16 106h236l147 422h123l-147 -422h348l147 422h127l-151 -422h184l-16 -106h-207l-150 -439h215l-16 -106h-235l-148 -422h-123l148 422h-350zM1124 952h-901l21 121h901zM-686 967l-150 -439h349l151 439h-350z
M1042 422h-901l19 121h901z" />
    <glyph glyph-name="numbersign_underscore.liga" unicode="&#x23;_" 
d="M977 -168h-1700l215 623h-360l-158 -455h-113l158 455h-195l17 102h215l131 381h-213l14 102h234l160 455h112l-160 -455h361l160 455h112l-160 -455h195l-14 -102h-215l-131 -381h213l-17 -102h-233l-176 -506h1566zM-700 938l-131 -381h360l131 381h-360z" />
    <glyph glyph-name="numbersign_underscore_parenleft.liga" unicode="&#x23;_&#x28;" 
d="M864 -168h-2816l215 623h-360l-158 -455h-112l157 455h-194l16 102h215l131 381h-213l14 102h234l160 455h112l-159 -455h360l160 455h112l-159 -455h194l-14 -102h-215l-131 -381h213l-17 -102h-233l-176 -506h2423q-142 84 -200 255t-24 396l54 336q49 307 235 511
t479 275l-20 -131q-220 -53 -366 -225t-187 -430l-53 -336q-40 -252 51 -425t291 -226zM-1929 938l-131 -381h360l131 381h-360z" />
    <glyph glyph-name="slash_asterisk.liga" unicode="&#x2f;&#x2a;" 
d="M-1028 -225h-148l1029 1925h147zM500 662l-162 -191l-105 80l166 190q23 27 46.5 50.5t48 45.5t39 34t41 33t32.5 26l-4 22q-136 14 -235 52l-207 79l69 129l207 -77q97 -38 201 -119l16 10q0 11 -2.5 47t-3 60.5t1.5 65t8 79.5l39 238h138l-37 -238q-18 -110 -78 -252
l12 -12q143 88 236 119l235 79l27 -133l-234 -80q-37 -13 -78 -22.5t-61.5 -12.5t-63 -8t-47.5 -6l-12 -22q5 -6 31 -33.5t40 -43t36.5 -47t40.5 -63.5l102 -192l-125 -80l-104 193q-11 19 -19.5 38t-16.5 39.5t-12.5 33t-10.5 35.5t-7.5 29t-7.5 31l-6 25h-19
q-7 -11 -27 -45t-34 -57t-39.5 -59.5t-54.5 -69.5z" />
    <glyph glyph-name="slash_asterisk_asterisk.liga" unicode="&#x2f;&#x2a;&#x2a;" 
d="M-2257 -225h-147l1028 1925h147zM-768 662l-164 -191l-102 80l164 190q29 33 61 64.5t52 48.5t52 43t41 33l-4 22q-138 14 -233 52l-207 79l68 129l206 -77q99 -38 203 -119l17 10q0 5 -2 30.5t-2.5 37t-1.5 38t0 46t3.5 46.5t6.5 54l37 238h139l-39 -238
q-19 -118 -76 -252l12 -12q132 84 234 119l235 79l29 -133l-235 -80q-36 -13 -76.5 -22.5t-61 -12.5t-63.5 -8t-47 -6l-13 -22q1 -1 30 -32.5t40.5 -45t34.5 -45.5t41 -64l104 -192l-125 -80l-104 193q-11 19 -19.5 38t-16.5 39.5t-12.5 33t-10.5 35.5t-7.5 29t-7.5 31
l-6 25h-20q-7 -11 -27 -45t-34 -57t-39.5 -59.5t-53.5 -69.5zM459 662l-162 -191l-104 80l165 190q23 27 46.5 50.5t48 45.5t39 34t41 33t32.5 26l-4 22q-136 14 -235 52l-207 79l69 129l207 -77q97 -38 201 -119l16 10q0 11 -2.5 47t-3 60.5t1.5 65t8 79.5l39 238h138
l-37 -238q-18 -110 -78 -252l12 -12q143 88 236 119l235 79l27 -133l-234 -80q-37 -13 -77.5 -22.5t-61 -12.5t-63.5 -8t-47 -6l-13 -22q5 -6 31 -33.5t40 -43t36.5 -47t40.5 -63.5l102 -192l-125 -80l-104 193q-11 19 -19.5 38t-16.5 39.5t-12.5 33t-10.5 35.5t-7.5 29
t-7.5 31l-6 25h-19q-7 -11 -27 -45t-34 -57t-39.5 -59.5t-54.5 -69.5z" />
    <glyph glyph-name="slash_equal.liga" unicode="&#x2f;&#x3d;" 
d="M1069 975l-20 -121h-1440l-189 -354h1573l-20 -121h-1616l-324 -604h-147l1028 1925h147l-387 -725h1395z" />
    <glyph glyph-name="slash_equal_equal.liga" unicode="&#x2f;&#x3d;&#x3d;" 
d="M1069 975l-20 -121h-2675l-244 -354h2863l-20 -121h-2927l-418 -604h-147l815 1179l4 21h10l502 725h148l-502 -725h2611z" />
    <glyph glyph-name="slash_greater.liga" unicode="&#x2f;&#x3e;" 
d="M-967 -225h-139l1028 1925h139l-176 -332l1106 -623l-22 -139l-940 -454l22 147l660 313q33 16 161 70q-79 36 -137 70l-909 510z" />
    <glyph glyph-name="slash_slash.liga" unicode="&#x2f;&#x2f;" 
d="M-872 -225h-148l1026 1925h150zM47 -225h-149l1028 1925h147z" />
    <glyph glyph-name="slash_slash_equal.liga" unicode="&#x2f;&#x2f;&#x3d;" 
d="M-2210 -225l1028 1925h148l-1028 -1925h-148zM1028 975l-20 -121h-1571l-189 -354h1704l-20 -121h-1747l-324 -604h-147l1028 1925h147l-387 -725h1526z" />
    <glyph glyph-name="slash_slash_slash.liga" unicode="&#x2f;&#x2f;&#x2f;" 
d="M-2011 -225h-148l1029 1925h147zM-1028 -225h-148l1029 1925h147zM-45 -225h-148l1029 1925h147z" />
    <glyph glyph-name="underscore_bar_underscore.liga" unicode="_&#x7c;_" 
d="M682 -168h-2826l18 117h1346l252 1587h135l-252 -1587h1345z" />
    <glyph glyph-name="underscore_underscore.liga" unicode="__" 
d="M987 -174h-2212l21 123h2212z" />
    <glyph glyph-name="at_underscore.liga" unicode="&#x40;_" 
d="M-662 -51h1670l-19 -117h-1669q-254 0 -375.5 162t-77.5 438l74 483q44 280 210.5 440.5t414.5 160.5q233 0 342 -103t74 -330l-138 -868h-112l18 125h-16q-26 -67 -93.5 -106t-158.5 -39q-132 0 -189 81.5t-32 235.5l41 258q23 149 105 227t214 78q94 0 148 -38t57 -107
h18l9 143l2 10q8 63 7 112t-18.5 84.5t-42.5 59.5t-65 39t-85.5 21t-103.5 6q-191 0 -315.5 -129t-163.5 -361l-74 -483q-37 -223 55 -353t289 -130zM-236 520l41 250q30 199 -157 199q-189 0 -219 -199l-41 -258q-34 -211 153 -211q188 0 223 219z" />
    <glyph glyph-name="ampersand_ampersand.liga" unicode="&#x26;&#x26;" 
d="M-709 1188q-19 -107 66 -258l539 -930h-146l-129 217q-191 -237 -424 -237q-156 0 -230 89.5t-48 247.5l37 240q19 124 92.5 205t187.5 106q-104 176 -80 320q22 144 133.5 236t268.5 92q165 0 249.5 -97t59.5 -252h-135q15 98 -39 164t-154 66q-94 0 -164 -60t-84 -149z
M958 737h138l-287 -407l190 -330h-145l-129 217q-187 -237 -424 -237q-156 0 -230 89.5t-48 247.5l36 240q20 123 93.5 204t187.5 107q-104 176 -80 320q23 144 135 236t267 92q166 0 250 -97t59 -252h-135q15 98 -38.5 164t-154.5 66q-94 0 -163.5 -60t-84.5 -149
q-17 -113 68 -258l285 -492zM-772 100q85 0 170 57t162 165l-265 446q-82 -7 -136 -63.5t-68 -147.5l-37 -240q-17 -98 31 -157.5t143 -59.5zM332 100q85 0 171 57.5t161 164.5l-265 446q-80 -8 -134.5 -64t-69.5 -147l-37 -240q-15 -98 32.5 -157.5t141.5 -59.5z" />
    <glyph glyph-name="ampersand_ampersand_ampersand.liga" unicode="&#x26;&#x26;&#x26;" 
d="M-1876 1188q-19 -107 66 -258l538 -930h-145l-129 217q-190 -237 -424 -237q-156 0 -230.5 89.5t-48.5 247.5l37 240q19 124 92.5 205t188.5 106q-104 176 -80 320q22 144 133 236t268 92q165 0 250 -97t60 -252h-136q15 98 -38.5 164t-153.5 66q-94 0 -164 -60t-84 -149
zM-770 1188q-20 -109 65 -258l539 -930h-145l-129 217q-190 -237 -424 -237q-156 0 -230.5 89.5t-48.5 247.5l37 240q19 124 92.5 205t188.5 106q-104 176 -80 320q22 144 133 236t268 92q165 0 249.5 -97t59.5 -252h-135q15 98 -38.5 164t-153.5 66q-94 0 -164 -60
t-84 -149zM909 737h138l-287 -407l190 -330h-145l-129 217q-187 -237 -424 -237q-156 0 -230.5 89.5t-48.5 247.5l37 240q20 123 93.5 204t187.5 107q-104 176 -80 320q23 144 134.5 236t266.5 92q166 0 250.5 -97t59.5 -252h-136q15 98 -38 164t-154 66q-94 0 -163.5 -60
t-84.5 -149q-17 -113 68 -258l284 -492zM-1939 100q84 0 169 57t162 165l-264 446q-82 -8 -137 -64t-68 -147l-37 -240q-17 -98 31 -157.5t144 -59.5zM-834 100q85 0 170 57t162 165l-264 446q-82 -8 -137 -64t-68 -147l-37 -240q-17 -98 31 -157.5t143 -59.5zM283 100
q85 0 170.5 57.5t160.5 164.5l-264 446q-80 -8 -135 -64.5t-70 -146.5l-36 -240q-15 -98 32.5 -157.5t141.5 -59.5z" />
    <glyph glyph-name="ampersand_equal.liga" unicode="&#x26;&#x3d;" 
d="M-299 438l377 537h1052l-20 -121h-979l-367 -524l191 -330h-145l-129 217q-190 -237 -424 -237q-156 0 -230.5 89.5t-48.5 247.5l37 240q19 123 91.5 205t186.5 108q-101 173 -77 318q22 144 133 236t268 92q165 0 249.5 -97t59.5 -252h-135q15 98 -38.5 164t-153.5 66
q-94 0 -164 -60t-84 -149q-20 -109 65 -258zM-383 317l2 5l-264 446q-81 -7 -135.5 -63.5t-69.5 -147.5l-37 -240q-17 -98 31 -157.5t143 -59.5q85 0 171.5 57t158.5 160zM1034 379h-973l21 121h973z" />
    <glyph glyph-name="bar_hyphen.liga" unicode="&#x7c;&#x2d;" 
d="M-664 -174h-135l271 1710h135l-127 -797h1407l-19 -121h-1407z" />
    <glyph glyph-name="bar_hyphen_greater.liga" unicode="&#x7c;&#x2d;&#x3e;" 
d="M-2122 72h-135l191 1208h135l-86 -541h2906l-354 541h151l393 -602l-585 -606h-168l526 540h-2890z" />
    <glyph glyph-name="bar_braceright.liga" unicode="&#x7c;&#x7d;" 
d="M-631 -225h-135l303 1925h135zM705 797h225l-19 -121h-225q-128 0 -178 -46t-59 -159l-35 -377q-13 -150 -118 -234.5t-269 -84.5h-234l19 121h233q98 0 161.5 52.5t72.5 145.5l34 377q9 103 66.5 174.5t146.5 91.5q-82 20 -117 90.5t-12 173.5l84 379q21 93 -25 146
t-143 53h-233l18 121h234q163 0 241 -85t43 -235l-84 -379q-25 -115 10.5 -159.5t162.5 -44.5z" />
    <glyph glyph-name="bar_bracketright.liga" unicode="&#x7c;]" 
d="M-631 -225h-135l303 1925h135zM516 -225h-752l19 121h616l267 1683h-617l19 121h751z" />
    <glyph glyph-name="bar_bar.liga" unicode="&#x7c;&#x7c;" 
d="M-543 -225h-135l303 1925h135zM428 -225h-135l303 1925h135z" />
    <glyph glyph-name="bar_bar_hyphen.liga" unicode="&#x7c;&#x7c;&#x2d;" 
d="M-1712 -174h-135l270 1710h135zM-836 -174h-135l271 1710h135l-127 -797h1476l-18 -121h-1479z" />
    <glyph glyph-name="bar_bar_bar.liga" unicode="&#x7c;&#x7c;&#x7c;" 
d="M-1655 -225h-135l303 1925h135zM-672 -225h-135l303 1925h135zM311 -225h-135l303 1925h135z" />
    <glyph glyph-name="bar_bar_bar_greater.liga" unicode="&#x7c;&#x7c;&#x7c;&#x3e;" 
d="M-2691 -174h-135l270 1710h135zM-1810 -174h-136l271 1710h135zM-930 -174h-135l270 1710h136l1093 -786l-24 -150zM-682 1384l-219 -1390l1003 577q153 87 209 113q-70 42 -174 119z" />
    <glyph glyph-name="bar_bar_equal.liga" unicode="&#x7c;&#x7c;&#x3d;" 
d="M-1712 -174h-135l270 1710h135zM-836 -174h-135l271 1710h135l-90 -561h1435l-18 -121h-1436l-57 -354h1436l-19 -121h-1436z" />
    <glyph glyph-name="bar_bar_greater.liga" unicode="&#x7c;&#x7c;&#x3e;" 
d="M-1616 -174h-135l270 1710h135zM-735 -174h-135l270 1710h135l1094 -786l-25 -150zM-487 1384l-220 -1390l1004 577q153 87 209 113q-70 42 -174 119z" />
    <glyph glyph-name="bar_equal.liga" unicode="&#x7c;&#x3d;" 
d="M-664 -174h-135l271 1710h135l-88 -561h1407l-21 -121h-1407l-55 -354h1407l-21 -121h-1407z" />
    <glyph glyph-name="bar_equal_greater.liga" unicode="&#x7c;&#x3d;&#x3e;" 
d="M-2122 72h-135l191 1208h135l-47 -305h2711l-198 305h151l393 -602l-585 -606h-166l299 307h-2702zM-1999 854l-55 -354h2799l181 178l-115 176h-2810z" />
    <glyph glyph-name="bar_greater.liga" unicode="&#x7c;&#x3e;" 
d="M-623 -174h-135l271 1710h135l1093 -786l-24 -150zM-375 1384l-219 -1390l1004 577q157 89 208 113q-70 42 -174 119z" />
    <glyph glyph-name="dollar_greater.liga" unicode="&#x24;&#x3e;" 
d="M-59 1423l1122 -678l-23 -139l-921 -454l22 147l641 311q73 37 160 74q-81 34 -137 68l-932 571q-101 58 -213 68l-92 -578l65 -22q143 -46 212 -157.5t44 -260.5q-26 -168 -147.5 -272.5t-304.5 -118.5l-43 -269h-99l43 269q-189 12 -282.5 119t-67.5 282h135
q-19 -119 44 -194t190 -87l98 613l-53 18q-140 44 -207 150.5t-45 251.5q25 162 140.5 263t289.5 115l43 269h98l-43 -269q135 -12 263 -90zM-715 1145q-19 -113 31.5 -194t157.5 -107l88 547q-114 -12 -187 -76.5t-90 -169.5zM-420 676l-31 10l-94 -584q123 12 201.5 82.5
t97.5 186.5q17 113 -28.5 193.5t-145.5 111.5z" />
    <glyph glyph-name="plus_plus.liga" unicode="&#x2b;&#x2b;" 
d="M-487 201h-134l66 417h-401l18 121h403l64 418h135l-65 -418h858l63 418h135l-65 -418h401l-18 -121h-404l-65 -417h-133l65 417h-858z" />
    <glyph glyph-name="plus_plus_plus.liga" unicode="&#x2b;&#x2b;&#x2b;" 
d="M-1610 201h-133l66 417h-402l19 121h403l64 418h135l-66 -418h871l63 418h135l-65 -418h870l64 418h135l-66 -418h402l-19 -121h-403l-66 -417h-133l66 417h-871l-65 -417h-133l65 417h-870z" />
    <glyph glyph-name="plus_greater.liga" unicode="&#x2b;&#x3e;" 
d="M-537 111h-133l80 507h-491l18 121h494l80 508h133l-80 -508h491l-18 -121h-494zM1079 606l-940 -454l21 141l661 315q126 58 162 70q-73 33 -139 72l-561 317l22 133l797 -455z" />
    <glyph glyph-name="equal_colon.liga" unicode="&#x3d;&#x3a;" 
d="M821 1135q69 0 106 -42.5t27 -109.5q-9 -67 -60 -109.5t-122 -42.5q-69 0 -106.5 42t-28.5 110q12 68 63 110t121 42zM-885 973h1127l-19 -121h-1126zM723 520q71 0 108 -42t27 -109t-61.5 -109.5t-120.5 -42.5t-107 42.5t-28 109.5t61.5 109t120.5 42zM-961 500h1127
l-19 -121h-1126z" />
    <glyph glyph-name="equal_colon_equal.liga" unicode="&#x3d;&#x3a;&#x3d;" 
d="M-573 831q-69 0 -107 42.5t-29 109.5q12 68 63.5 110t121.5 42q69 0 106 -42.5t27 -109.5q-11 -68 -61.5 -110t-120.5 -42zM-1143 834h-1110l21 127h1110zM1106 834h-1110l20 127h1110zM-1210 397h-1110l20 127h1110zM1038 397h-1110l21 127h1110zM-670 217
q-70 0 -108 42t-27 110q10 67 61.5 109t120.5 42t107 -42t29 -109q-10 -67 -62 -109.5t-121 -42.5z" />
    <glyph glyph-name="equal_exclam_equal.liga" unicode="&#x3d;&#x21;&#x3d;" 
d="M-803 428h-88l86 772l47 295h162l-47 -295zM-1133 852h-1116l21 121h1116zM1110 852h-1116l20 121h1116zM-1208 379h-1116l20 121h1116zM1034 379h-1116l21 121h1116zM-897 -10h-31q-52 0 -78.5 31.5t-17.5 84.5q7 52 44.5 84.5t90.5 32.5h31q53 0 79.5 -32t18.5 -85
q-9 -51 -47 -83.5t-90 -32.5z" />
    <glyph glyph-name="equal_equal.liga" unicode="&#x3d;&#x3d;" 
d="M1110 854h-2130l21 121h2129zM1034 379h-2130l21 121h2130z" />
    <glyph glyph-name="equal_equal_equal.liga" unicode="&#x3d;&#x3d;&#x3d;" 
d="M1116 1032h-3314l17 117h3314zM1051 618h-3314l18 115h3314zM985 203h-3314l19 116h3314z" />
    <glyph glyph-name="equal_equal_greater.liga" unicode="&#x3d;&#x3d;&#x3e;" 
d="M494 72h-166l299 307h-2929l21 121h3026l181 184l-115 170h-3037l20 121h2939l-198 305h151l393 -602z" />
    <glyph glyph-name="equal_greater.liga" unicode="&#x3d;&#x3e;" 
d="M494 72h-166l299 307h-1700l20 121h1798l181 182l-115 172h-1808l20 121h1710l-198 305h151l393 -602z" />
    <glyph glyph-name="equal_greater_greater.liga" unicode="&#x3d;&#x3e;&#x3e;" 
d="M-96 72h-166l299 307h-2339l21 121h2437l182 182l-117 172h-2447l20 121h2349l-198 305h151l393 -602zM494 72h-166l598 612l-391 596h151l393 -602z" />
    <glyph glyph-name="equal_less_less.liga" unicode="&#x3d;&#x3c;&#x3c;" 
d="M358 72h-151l-203 307h-2306l21 121h2207l-114 176l174 178h-2212l20 121h2308l297 305h166l-602 -610zM932 72h-152l-395 604l588 604h166l-602 -610z" />
    <glyph glyph-name="equal_slash_equal.liga" unicode="&#x3d;&#x2f;&#x3d;" 
d="M-1112 0h-148l302 373h-1407l20 127h1489l283 352h-1717l21 127h1798l307 383h148l-308 -383h1414l-21 -127h-1495l-283 -352h1723l-21 -127h-1804z" />
    <glyph glyph-name="greater_hyphen.liga" unicode="&#x3e;&#x2d;" 
d="M-938 72h-166l594 614l-387 594h152l356 -543h1458l-18 -121h-1461z" />
    <glyph glyph-name="greater_hyphen_greater.liga" unicode="&#x3e;&#x2d;&#x3e;" 
d="M-2165 72h-168l596 616l-389 592h154l354 -543h2509l-356 543h151l393 -602l-585 -606h-166l530 544h-2496z" />
    <glyph glyph-name="greater_bracketright.liga" unicode="&#x3e;]" 
d="M422 -225h-477l18 121h342l266 1683h-342l19 121h477zM31 637l-940 -455l20 142l662 315q129 59 161 70q-80 36 -139 71l-561 318l23 133l796 -455z" />
    <glyph glyph-name="greater_colon.liga" unicode="&#x3e;&#x3a;" 
d="M455 961q-72 0 -109 41t-27 108t61 108.5t122 41.5q70 0 107 -41t26 -109q-10 -67 -59.5 -108t-120.5 -41zM113 606l-940 -454l20 141l662 315q129 59 161 70q-73 33 -139 72l-561 317l22 133l797 -455zM315 92q-70 0 -107 41t-26 109q10 67 59.5 108t120.5 41
q72 0 109 -41t27 -108t-61 -108.5t-122 -41.5z" />
    <glyph glyph-name="greater_equal.liga" unicode="&#x3e;&#x3d;" 
d="M635 797l-1260 -461l23 149l985 344q116 37 149 43l3 13q-62 13 -136 43l-876 342l22 135l1114 -459zM567 354l-1261 -454l22 135l1260 454z" />
    <glyph glyph-name="greater_equal_greater.liga" unicode="&#x3e;&#x3d;&#x3e;" 
d="M-2165 72h-168l592 612l-385 596h154l200 -305h2507l-200 305h151l393 -602l-585 -606h-166l297 307h-2493zM-1581 678l-170 -178h2494l183 182l-113 172h-2509z" />
    <glyph glyph-name="greater_greater.liga" unicode="&#x3e;&#x3e;" 
d="M-82 606l-940 -454l21 141l661 313q79 39 162 72q-73 33 -139 72l-562 317l23 133l797 -457zM965 606l-940 -454l20 141l662 315q129 59 161 70q-73 33 -139 72l-561 317l22 133l797 -455z" />
    <glyph glyph-name="greater_greater_hyphen.liga" unicode="&#x3e;&#x3e;&#x2d;" 
d="M-2159 72h-168l590 614l-383 594h154l391 -602zM-1569 72h-168l590 614l-383 594h154l354 -543h2091l-18 -121h-2093z" />
    <glyph glyph-name="greater_greater_equal.liga" unicode="&#x3e;&#x3e;&#x3d;" 
d="M-2159 72h-168l586 612l-379 596h154l391 -602zM-1569 72h-168l586 612l-379 596h154l200 -305h2284l-18 -121h-2190l115 -176l-170 -178h2187l-18 -121h-2286z" />
    <glyph glyph-name="greater_greater_greater.liga" unicode="&#x3e;&#x3e;&#x3e;" 
d="M-993 606l-940 -454l20 141l662 315q129 59 161 70q-73 33 -139 72l-561 317l23 133l796 -455zM31 606l-940 -454l20 141l662 315q129 59 161 70q-73 33 -139 72l-561 317l23 133l796 -455zM1055 606l-940 -454l20 141l662 315q129 59 161 70q-73 33 -139 72l-561 317
l23 133l796 -455z" />
    <glyph glyph-name="less_hyphen.liga" unicode="&#x3c;&#x2d;" 
d="M-500 72h-151l-396 604l588 604h166l-532 -545h1882l-19 -121h-1896z" />
    <glyph glyph-name="less_hyphen_hyphen.liga" unicode="&#x3c;&#x2d;&#x2d;" 
d="M-1720 72h-160l-395 604l587 604h158l-477 -487q-11 -14 -53 -56h3129l-18 -116h-3136q6 -8 21 -30.5t24 -35.5z" />
    <glyph glyph-name="less_hyphen_bar.liga" unicode="&#x3c;&#x2d;&#x7c;" 
d="M-2060 737h2902l86 543h135l-191 -1208h-135l86 544h-2904l361 -544h-160l-395 604l587 604h158z" />
    <glyph glyph-name="less_hyphen_greater.liga" unicode="&#x3c;&#x2d;&#x3e;" 
d="M-1729 72h-151l-395 604l587 604h166l-530 -543h2943l-356 543h151l393 -602l-585 -606h-166l530 544h-2947z" />
    <glyph glyph-name="less_hyphen_less.liga" unicode="&#x3c;&#x2d;&#x3c;" 
d="M-1729 72h-151l-395 604l587 604h166l-530 -543h2496l529 543h166l-590 -612l383 -596h-152l-356 544h-2513z" />
    <glyph glyph-name="less_colon.liga" unicode="&#x3c;&#x3a;" 
d="M455 961q-72 0 -109 41t-27 108t61 108.5t122 41.5q70 0 107 -41t26 -109q-10 -67 -59.5 -108t-120.5 -41zM63 283l-22 -131l-797 454l23 139l940 455l-23 -143l-661 -314q-109 -53 -160 -71q73 -33 139 -72zM315 92q-70 0 -107 41t-26 109q10 67 59.5 108t120.5 41
q72 0 109 -41t27 -108t-61 -108.5t-122 -41.5z" />
    <glyph glyph-name="less_colon_less.liga" unicode="&#x3c;&#x3a;&#x3c;" 
d="M-774 961q-72 0 -109 40.5t-26 108.5q10 67 60.5 108.5t121.5 41.5q70 0 107 -41t26 -109q-10 -67 -59.5 -108t-120.5 -41zM-1370 283l-23 -131l-796 454l22 139l940 455l-22 -143l-662 -314q-109 -53 -160 -71q77 -35 140 -72zM821 283l-22 -131l-797 454l23 139
l940 455l-23 -143l-661 -314q-109 -53 -160 -71q73 -33 139 -72zM-913 92q-71 0 -107.5 41.5t-26.5 108.5t60 108t121 41q72 0 109 -40.5t26 -108.5q-10 -67 -60.5 -108.5t-121.5 -41.5z" />
    <glyph glyph-name="less_exclam_hyphen_hyphen.liga" unicode="&#x3c;&#x21;&#x2d;&#x2d;" 
d="M-2142 428l207 772l94 295h164l-95 -295l-282 -772h-88zM-2245 616h-1054q27 -36 43 -61l319 -483h-160l-395 604l588 604h158l-478 -487q-32 -32 -53 -56h1051zM-1425 616l18 121h2476l-18 -121h-2476zM-2173 223h31q53 0 74 -32t6 -85q-17 -51 -60.5 -83.5t-95.5 -32.5
h-31q-51 0 -73 32t-5 84q15 52 58 84.5t96 32.5z" />
    <glyph glyph-name="less_asterisk.liga" unicode="&#x3c;&#x2a;" 
d="M422 395l-197 -227l-102 80l199 227q76 85 204 189l-4 22l-19 2q-19 2 -23 2.5t-22 2.5t-26 4t-25.5 5t-29 6t-27.5 7.5t-31 10t-30 11.5l-242 101l68 129l241 -99q101 -44 203 -120l16 12q-11 156 5 252l45 286h137l-45 -286q-16 -110 -76 -252l12 -10q135 78 236 116
l276 101l27 -131l-277 -101q-98 -37 -249 -51l-11 -22q1 -1 30 -32.5t40.5 -45t34.5 -45.5t41 -64l127 -229l-125 -80l-127 229q-24 43 -42 91.5t-23.5 72.5t-14.5 68h-21q-5 -9 -33 -58.5t-55.5 -90.5t-64.5 -83zM-248 283l-22 -131l-797 454l23 139l940 455l-23 -143
l-661 -314q-109 -53 -160 -71q73 -33 139 -72z" />
    <glyph glyph-name="less_asterisk_greater.liga" unicode="&#x3c;&#x2a;&#x3e;" 
d="M-770 395l-197 -227l-102 80l199 227q76 85 204 189l-4 22l-19 2q-19 2 -23 2.5t-22 2.5t-26 4t-25.5 5t-29 6t-27.5 7.5t-31 10t-30 11.5l-242 101l68 129l241 -99q101 -44 203 -120l17 12q0 5 -2 30.5t-2.5 37t-1.5 38t0 46t3.5 46.5t6.5 54l45 286h137l-45 -286
q-16 -110 -76 -252l12 -10q135 78 236 116l276 101l27 -131l-276 -101q-48 -18 -101 -29.5t-75.5 -14t-73.5 -7.5l-11 -22q1 -1 30 -32.5t40.5 -45t34.5 -45.5t41 -64l127 -229l-125 -80l-127 229q-24 43 -42 91.5t-23.5 72.5t-14.5 68h-20q-4 -6 -33 -57.5t-56.5 -92
t-64.5 -82.5zM-1407 283l-20 -131l-797 454l20 139l942 455l-22 -143l-662 -314q-106 -52 -161 -71q61 -26 139 -72zM1040 606l-940 -454l21 141l661 315q126 58 162 70q-73 33 -139 72l-561 317l22 133l795 -455z" />
    <glyph glyph-name="less_bar.liga" unicode="&#x3c;&#x7c;" 
d="M524 -174h-135l-1098 774l25 150l1343 786h136zM-582 672l994 -692l219 1394z" />
    <glyph glyph-name="less_bar_bar.liga" unicode="&#x3c;&#x7c;&#x7c;" 
d="M-592 -174h-135l-1098 774l25 150l1343 786h135zM289 -174h-135l270 1710h135zM-1698 672l993 -692l220 1394z" />
    <glyph glyph-name="less_bar_bar_bar.liga" unicode="&#x3c;&#x7c;&#x7c;&#x7c;" 
d="M-1626 -174h-135l-1098 774l25 150l1343 786h135zM-745 -174h-136l271 1710h135zM135 -174h-135l270 1710h136zM-2732 672l993 -692l219 1394z" />
    <glyph glyph-name="less_bar_greater.liga" unicode="&#x3c;&#x7c;&#x3e;" 
d="M-672 -225h-135l289 1822h135zM-1012 -23l-26 -153l-1096 778l25 148l1343 786l-27 -166l-1198 -700zM913 606l-1341 -782l27 170l1196 694l-977 694l26 154l1094 -782z" />
    <glyph glyph-name="less_dollar.liga" unicode="&#x3c;&#x24;" 
d="M502 -287h-99l41 267q-226 10 -403 96l-1069 530l22 139l940 455l-22 -143l-821 -383l1015 -494q151 -73 359 -80l96 615l-53 16q-138 43 -205.5 152t-44.5 252q25 162 140.5 263t289.5 115l43 269h98l-43 -269q167 -14 251.5 -120.5t58.5 -272.5h-135q19 116 -32 188
t-161 85l-92 -578l65 -22q143 -46 212 -158.5t44 -261.5q-26 -165 -147 -269.5t-305 -121.5zM580 844l-2 -31l92 580q-114 -12 -187 -78t-90 -172q-17 -110 31.5 -187.5t155.5 -111.5zM655 684l-92 -580q120 15 201 87t98 180q17 113 -29.5 193t-146.5 112z" />
    <glyph glyph-name="less_dollar_greater.liga" unicode="&#x3c;&#x24;&#x3e;" 
d="M-143 1423l1169 -678l-22 -139l-941 -454l21 143l823 385l-1126 643q-91 54 -211 68l-90 -574l69 -24q141 -50 210 -162t46 -258q-26 -167 -149.5 -271.5t-308.5 -119.5l-43 -269h-99l41 267q-216 9 -397 96l-1069 530l22 139l941 455l-23 -143l-821 -385l1016 -492
q147 -74 352 -80l96 617l-47 14q-141 44 -207 151.5t-43 252.5q25 159 140 260.5t284 115.5l43 271h98l-43 -271q139 -12 269 -88zM-799 1143q-17 -112 32.5 -191t152.5 -108l86 547q-107 -12 -180.5 -78.5t-90.5 -169.5zM-506 676l-35 12l-94 -586q123 15 205.5 87
t99.5 182t-29.5 190t-146.5 115z" />
    <glyph glyph-name="less_numbersign_hyphen_hyphen.liga" unicode="&#x3c;&#x23;&#x2d;&#x2d;" 
d="M-2249 0h-123l148 422h-184l16 106h205l149 439h-213l17 106h235l148 422h122l-147 -422h348l148 422h127l-152 -422h184l-16 -106h-207l-149 -439h215l-17 -106h-235l-148 -422h-123l148 422h-350zM-2945 72h-152l-395 604l588 604h166l-533 -543h779l-19 -121h-794z
M-1915 967l-149 -439h348l151 439h-350zM1051 616h-2190l19 121h2189z" />
    <glyph glyph-name="less_plus.liga" unicode="&#x3c;&#x2b;" 
d="M512 111h-133l80 507h-492l19 121h493l80 508h133l-80 -508h492l-19 -121h-493zM-248 283l-22 -131l-797 454l23 139l940 455l-23 -143l-661 -314q-109 -53 -160 -71q73 -33 139 -72z" />
    <glyph glyph-name="less_plus_greater.liga" unicode="&#x3c;&#x2b;&#x3e;" 
d="M-621 111h-133l80 507h-491l18 121h494l80 508h133l-80 -508h491l-18 -121h-494zM-1421 283l-23 -131l-797 454l23 139l940 455l-22 -143l-662 -314q-109 -53 -160 -71q77 -35 140 -72zM1024 606l-940 -454l20 141l662 315q126 58 162 70q-77 35 -140 72l-561 317l23 133
l797 -455z" />
    <glyph glyph-name="less_equal.liga" unicode="&#x3c;&#x3d;" 
d="M586 475l-23 -139l-1116 461l25 149l1261 459l-22 -145l-985 -342q-98 -31 -150 -41l-2 -13q60 -12 135 -43zM516 33l-22 -133l-1115 454l21 133z" />
    <glyph glyph-name="less_equal_bar.liga" unicode="&#x3c;&#x3d;&#x7c;" 
d="M-1729 72h-151l-395 604l587 604h166l-299 -305h2702l47 305h135l-191 -1208h-135l47 307h-2717zM-2120 670l109 -170h2816l55 354h-2799z" />
    <glyph glyph-name="less_equal_equal.liga" unicode="&#x3c;&#x3d;&#x3d;" 
d="M-1729 72h-151l-395 604l587 604h166l-299 -305h2929l-21 -121h-3026l-181 -184l111 -170h3041l-20 -121h-2943z" />
    <glyph glyph-name="less_equal_equal_greater.liga" unicode="&#x3c;&#x3d;&#x3d;&#x3e;" 
d="M-2945 72h-152l-395 604l588 604h166l-299 -305h3770l-198 305h151l393 -602l-585 -606h-166l299 307h-3775zM-3332 670l106 -170h3971l177 182l-111 172h-3967z" />
    <glyph glyph-name="less_equal_greater.liga" unicode="&#x3c;&#x3d;&#x3e;" 
d="M-1729 72h-151l-395 604l587 604h168l-299 -305h2552l-198 305h151l393 -602l-585 -606h-168l301 307h-2558zM-2118 668l109 -168h2752l175 182l-107 172h-2748z" />
    <glyph glyph-name="less_equal_less.liga" unicode="&#x3c;&#x3d;&#x3c;" 
d="M-1729 72h-151l-395 604l587 604h166l-299 -305h2497l297 305h166l-594 -612l387 -596h-152l-202 307h-2509zM-2120 668l111 -168h2509l-115 176l174 178h-2498z" />
    <glyph glyph-name="less_greater.liga" unicode="&#x3c;&#x3e;" 
d="M934 598l-1012 -516l-848 516l25 156l1012 516l847 -516zM-702 623l643 -394l784 394q57 27 117 57q-3 2 -19.5 10.5t-36 19.5t-38.5 23l-650 391l-784 -399q-78 -41 -113 -53q47 -18 97 -49z" />
    <glyph glyph-name="less_less.liga" unicode="&#x3c;&#x3c;" 
d="M-72 283l-22 -131l-797 454l23 139l940 455l-23 -143l-661 -314q-109 -53 -160 -71q73 -33 139 -72zM913 283l-22 -131l-797 454l23 139l940 455l-23 -143l-661 -314q-109 -53 -160 -71q73 -33 139 -72z" />
    <glyph glyph-name="less_less_hyphen.liga" unicode="&#x3c;&#x3c;&#x2d;" 
d="M-1729 72h-151l-395 604l587 604h166l-598 -610zM-1139 72h-151l-396 604l588 604h166l-530 -543h2531l-18 -116h-2554z" />
    <glyph glyph-name="less_less_equal.liga" unicode="&#x3c;&#x3c;&#x3d;" 
d="M-1729 72h-151l-395 604l587 604h168l-598 -612zM-1141 72h-149l-396 604l592 604h162l-299 -305h2306l-20 -121h-2403l-182 -186l109 -168h2420l-20 -121h-2322z" />
    <glyph glyph-name="less_less_less.liga" unicode="&#x3c;&#x3c;&#x3c;" 
d="M-1288 283l-23 -131l-796 454l22 139l940 455l-22 -143l-662 -314q-109 -53 -160 -71q77 -35 140 -72zM-213 283l-23 -131l-796 454l22 139l940 455l-22 -143l-662 -314q-111 -55 -159 -71q73 -33 139 -72zM862 283l-22 -131l-797 454l23 139l940 455l-23 -143l-661 -314
q-109 -53 -160 -71q73 -33 139 -72z" />
    <glyph glyph-name="less_less_asciitilde.liga" unicode="&#x3c;&#x3c;&#x7e;" 
d="M-1726 72h-156l-391 604l585 604h164l-594 -608zM-1137 72h-155l-391 604l585 604h164l-393 -401h78q59 0 104 -21t70.5 -52.5t50 -68t43 -68t48 -52.5t67.5 -21q33 0 64 15.5t58 40.5t55 55.5t59 60.5t64.5 55t78 40.5t94.5 15.5q59 0 104.5 -21t71.5 -52.5t51 -68
t44 -68t49 -52.5t67 -21q38 0 75 21t66.5 52.5t66.5 68t73 68t87.5 52.5t108.5 21t101.5 -21t69.5 -52.5t49.5 -68t43 -68t49 -52.5t68.5 -21q52 0 85 33.5t42 95.5l16 94h125l-16 -94q-17 -112 -88.5 -177t-177.5 -65q-59 0 -104 21t-70.5 52t-50 67.5t-43 67.5t-48 52
t-67.5 21t-75 -21t-66.5 -52t-66.5 -67.5t-73.5 -67.5t-88 -52t-108.5 -21t-101.5 21t-70.5 52t-51 67.5t-44.5 67.5t-51 52t-70.5 21q-44 0 -86.5 -29t-80 -70t-79 -82.5t-99.5 -70.5t-126 -29q-50 0 -89 15.5t-65 40.5t-47 55t-39 59.5t-37.5 54.5t-46.5 40.5t-61 15.5
h-170l-92 -92z" />
    <glyph glyph-name="less_asciitilde.liga" unicode="&#x3c;&#x7e;" 
d="M-500 72h-151l-396 604l588 604h166l-598 -608l21 -23h36q38 0 75.5 23.5t71 57.5t72 68t94.5 57.5t122 23.5q59 0 104 -21t70.5 -52.5t49.5 -68t42.5 -68t48 -52.5t66.5 -21q44 0 86.5 29t80 71t79 83.5t99.5 70.5t126 29q50 0 89 -15.5t63.5 -40.5t45 -55t37.5 -60.5
t35.5 -55.5t44.5 -40.5t59 -15.5q56 0 90.5 33.5t43.5 95.5l14 94h131l-14 -94q-19 -109 -95 -175.5t-186 -66.5q-59 0 -103.5 21t-69 52t-48 67.5t-41 67.5t-46.5 52t-67 21q-33 0 -64 -15.5t-58 -40.5t-55 -54.5t-59 -59.5t-64.5 -55t-78 -40.5t-94.5 -15.5q-57 0 -101 21
t-69 52t-49 67.5t-43 67.5t-49.5 52t-69.5 21q-43 0 -81.5 -20t-70 -49.5t-64.5 -60t-79 -55.5t-100 -32z" />
    <glyph glyph-name="less_asciitilde_greater.liga" unicode="&#x3c;&#x7e;&#x3e;" 
d="M-1421 283l-23 -131l-797 454l23 139l940 455l-22 -143l-662 -314q-109 -53 -160 -71q77 -35 140 -72zM1024 606l-940 -454l20 141l662 315q126 58 162 70q-77 35 -140 72l-561 317l23 133l797 -455zM-836 483q-50 0 -88.5 15.5t-63.5 40.5t-45 55t-37 59.5t-35.5 54.5
t-45 40.5t-59.5 15.5q-56 0 -93 -33.5t-47 -93.5l-14 -94h-125l14 94q19 109 95 175.5t186 66.5q58 0 102.5 -21t69 -52.5t48 -68t41.5 -68t47 -52.5t67 -21q33 0 64 15.5t57 40.5t53 55.5t57 60.5t63 55t77 40.5t94 15.5t89 -15.5t63.5 -40.5t45 -55t37.5 -60.5t35.5 -55.5
t44.5 -40.5t59 -15.5q57 0 94 34t46 95l14 94h125l-14 -94q-17 -109 -94 -175.5t-187 -66.5q-59 0 -103.5 21t-69 52t-48 67.5t-41 67.5t-46.5 52t-67 21q-44 0 -86 -29t-78.5 -70t-77 -82.5t-98 -70.5t-125.5 -29z" />
    <glyph glyph-name="less_asciitilde_asciitilde.liga" unicode="&#x3c;&#x7e;&#x7e;" 
d="M979 725l14 94h125l-14 -94q-19 -112 -90.5 -177t-177.5 -65q-51 0 -91 15.5t-66 40.5t-47 55t-38.5 59.5t-35.5 54.5t-44 40.5t-59 15.5q-44 0 -87.5 -29t-82.5 -70t-81.5 -82.5t-101.5 -70.5t-127 -29q-57 0 -101.5 21t-70 52t-50.5 67.5t-44.5 67.5t-50.5 52t-70 21
q-33 0 -64 -15.5t-58 -40.5t-55 -54.5t-59 -59.5t-64.5 -55t-78 -40.5t-94.5 -15.5t-89 15.5t-64.5 40.5t-46.5 55t-39 59.5t-37 54.5t-46 40.5t-61 15.5q-46 0 -88 -29t-77.5 -70t-75 -82.5t-96.5 -70.5t-124 -29q-63 0 -108 23.5t-69.5 58.5t-44.5 70t-46 63t-61 33
l-64 -63l393 -596h-151l-395 604l587 604h166l-444 -453q38 -15 66 -45t44.5 -60.5t34 -59.5t45 -47.5t66.5 -18.5q38 0 73.5 21t62.5 52.5t61.5 68t68.5 68t85 52.5t110 21t104 -21t70.5 -52.5t50 -68t43 -68t48 -52.5t67.5 -21q33 0 64 15.5t58 40.5t55 55.5t59 60.5
t64.5 55t78 40.5t94.5 15.5q59 0 104.5 -21t71.5 -52.5t51 -68t44 -68t49 -52.5t67 -21q38 0 75 21t66.5 52.5t66.5 68t73 68t87.5 52.5t108.5 21t101.5 -21t69.5 -52.5t49.5 -68t43 -68t49 -52.5t68.5 -21q52 0 85 33.5t42 95.5z" />
    <glyph glyph-name="less_slash.liga" unicode="&#x3c;&#x2f;" 
d="M129 -225h-149l122 231l-1058 600l22 139l940 455l-22 -147l-815 -381l991 -559l850 1587h149z" />
    <glyph glyph-name="less_slash_greater.liga" unicode="&#x3c;&#x2f;&#x3e;" 
d="M-1028 -225h-150l123 231l-1052 600l22 139l940 455l-22 -147l-815 -381l985 -559l850 1587h149l-176 -332l1087 -623l-22 -139l-940 -454l20 143l824 385l-1031 582z" />
    <glyph glyph-name="asciitilde_hyphen.liga" unicode="&#x7e;&#x2d;" 
d="M-213 481q-63 0 -117 22.5t-88.5 55.5t-69.5 72.5t-62.5 72.5t-65 55.5t-78.5 22.5q-60 0 -102 -37.5t-52 -103.5l-20 -141h-125l20 141q20 117 100 185.5t197 68.5q60 0 111 -22.5t84.5 -55.5t68 -72.5t63 -72.5t69 -55.5t85.5 -22.5q68 0 118 37.5t59 97.5l2 10h1067
l-19 -121h-969q-41 -65 -114 -101t-162 -36z" />
    <glyph glyph-name="asciitilde_at.liga" unicode="&#x7e;&#x40;" 
d="M795 1516q223 0 331 -139.5t70 -375.5l-137 -868h-119l23 133h-13q-22 -70 -90 -111.5t-162 -41.5q-132 0 -190 82t-33 235l41 258q25 149 107.5 227t214.5 78q96 0 149 -40.5t53 -112.5h13l16 151v10q31 190 -46.5 297t-246.5 107q-191 0 -315.5 -129t-163.5 -361
l-107 -682q-35 -224 57.5 -353.5t289.5 -129.5h149l-18 -117h-150q-254 0 -376 162t-79 438l68 435q-125 -144 -311 -144q-67 0 -123 15.5t-93 40.5t-69 55t-59.5 60.5t-54.5 55.5t-63.5 40.5t-78.5 15.5q-78 0 -135.5 -47t-69.5 -121l-16 -111h-125l16 111q20 123 117 202
t229 79q60 0 108.5 -15.5t82 -40.5t63 -55.5t57.5 -60.5t59 -55t75 -40.5t98 -15.5q114 0 200.5 63t123.5 168l8 47q44 280 210.5 440.5t414.5 160.5zM981 438l39 250q30 199 -156 199q-191 0 -221 -199l-41 -258q-34 -211 156 -211q188 0 223 219z" />
    <glyph glyph-name="asciitilde_greater.liga" unicode="&#x7e;&#x3e;" 
d="M494 72h-166l465 475q-49 8 -84.5 33.5t-56.5 55.5t-41.5 59.5t-51.5 49t-74 19.5q-46 0 -89 -29t-80 -70t-78 -82.5t-99 -70.5t-125 -29q-57 0 -101.5 21t-70 52t-50 67.5t-43 67.5t-48.5 52t-68 21q-44 0 -85.5 -29t-78 -70t-76.5 -82.5t-99 -70.5t-128 -29
q-109 0 -165 66.5t-37 175.5l14 94h125l-14 -94q-9 -62 16 -95.5t82 -33.5q33 0 64.5 15.5t58 40.5t53 55.5t56.5 60.5t63 55t76.5 40.5t93.5 15.5q57 0 101.5 -21t70 -52.5t50 -68t43 -68t48.5 -52.5t68 -21q32 0 63 15.5t57 40.5t53.5 55.5t58 60.5t64.5 55t79 40.5
t96 15.5q66 0 114 -23.5t75 -57.5t50 -68t52.5 -57.5t68.5 -23.5h29l37 29l-395 602h151l393 -602z" />
    <glyph glyph-name="asciitilde_asciitilde.liga" unicode="&#x7e;&#x7e;" 
d="M-221 483q-57 0 -101 21t-68 52.5t-47.5 68t-41.5 68t-48 52.5t-69 21q-56 0 -92.5 -34t-46.5 -95l-15 -94h-124l14 94q19 110 95 176t185 66q58 0 102.5 -21t69 -52.5t48 -68t41.5 -68t47 -52.5t67 -21q33 0 64 15.5t57 40.5t53 55.5t57 60.5t63 55t77 40.5t94 15.5
q57 0 101 -21t68.5 -52.5t48 -68t41.5 -68t48 -52.5t68 -21q57 0 93.5 34t45.5 95l14 94h125l-14 -94q-17 -109 -94 -175.5t-187 -66.5q-59 0 -103.5 21t-69 52.5t-47.5 68t-40.5 68t-46.5 52.5t-67 21q-33 0 -64 -15.5t-57 -40.5t-53 -55t-57 -60.5t-63 -55.5t-77 -40.5
t-94 -15.5z" />
    <glyph glyph-name="asciitilde_asciitilde_greater.liga" unicode="&#x7e;&#x7e;&#x3e;" 
d="M494 72h-166l596 608l-31 45q-33 -3 -65.5 -22t-57 -46t-56.5 -57.5t-63.5 -56.5t-78.5 -43t-101 -17q-57 0 -100.5 21t-67 52t-46.5 67.5t-40.5 67.5t-47.5 52t-69 21q-46 0 -89 -29t-80.5 -70t-78.5 -82.5t-99.5 -70.5t-125.5 -29q-50 0 -89.5 15.5t-65 40.5t-47 55
t-40 59.5t-37.5 54.5t-45 40.5t-59 15.5q-46 0 -89.5 -29t-81.5 -70t-79.5 -82.5t-100.5 -70.5t-126 -29q-50 0 -89.5 15.5t-66 40.5t-48 55t-40 59.5t-38 54.5t-46 40.5t-59.5 15.5q-44 0 -86 -29t-79.5 -70t-78.5 -82.5t-100.5 -70.5t-128.5 -29q-106 0 -158 65t-33 177
l15 94h125l-15 -94q-18 -129 86 -129q33 0 65 15.5t58.5 40.5t54 55.5t58 60.5t64 55t77.5 40.5t94 15.5t89.5 -15.5t66 -40.5t48.5 -55t40.5 -60.5t38 -55.5t46 -40.5t59.5 -15.5q32 0 63 15.5t58 40.5t55 55.5t59 60.5t65.5 55t80 40.5t96.5 15.5q50 0 89.5 -15.5
t65 -40.5t47 -55t40 -60.5t37.5 -55.5t45 -40.5t59 -15.5t64 15.5t57.5 40.5t53.5 55.5t58 60.5t65 55t79 40.5t96 15.5t90.5 -15.5t64 -40.5t44.5 -55t36.5 -60.5t34 -55.5t42.5 -40.5t58 -15.5q40 0 74.5 18.5t61.5 47t54.5 59t66 59t83.5 41.5l-294 459h151l393 -602z
" />
    <glyph glyph-name="asciicircum_equal.liga" unicode="^&#x3d;" 
d="M-666 852h-149l491 704h127l217 -583h895l-20 -121h-973l-194 588zM819 379h-975l21 121h975z" />
    <glyph glyph-name=".notdef" 
d="M1044 0h-860v1495h860v-1495zM287 1393v-1170l614 1170h-614zM942 1272l-614 -1170h614v1170z" />
    <glyph glyph-name=".null" horiz-adv-x="0" 
 />
    <glyph glyph-name="nonmarkingreturn" horiz-adv-x="682" 
 />
    <glyph glyph-name="uni2400" unicode="&#x2400;" 
d="M74 502h-43l78 493h59l100 -442q2 30 13 104l53 338h43l-78 -493h-59l-99 442q-3 -26 -14 -104zM571 496q-63 0 -93 37t-19 100l57 362h45l-57 -362q-8 -46 11.5 -72t62.5 -26q44 0 71 26t35 72l57 362h43l-57 -362q-9 -63 -51 -100t-105 -37zM1174 502h-279l78 493h45
l-72 -452h234z" />
    <glyph glyph-name="uni2400" 
d="M74 502h-43l78 493h59l100 -442q2 30 13 104l53 338h43l-78 -493h-59l-99 442q-3 -26 -14 -104zM571 496q-63 0 -93 37t-19 100l57 362h45l-57 -362q-8 -46 11.5 -72t62.5 -26q44 0 71 26t35 72l57 362h43l-57 -362q-9 -63 -51 -100t-105 -37zM1174 502h-279l78 493h45
l-72 -452h234z" />
    <glyph glyph-name="uni2401" unicode="&#x2401;" 
d="M166 496q-69 0 -104 36t-25 97h43q-6 -43 19 -68.5t75 -25.5q47 0 78 24.5t37 65.5q10 78 -60 100l-57 18q-45 13 -67.5 49.5t-16.5 84.5q9 57 53 90.5t107 33.5t95 -35.5t24 -95.5h-45q6 43 -15.5 68t-64.5 25q-44 0 -73.5 -22t-35.5 -60q-5 -36 10 -62.5t47 -36.5
l58 -18q47 -15 70.5 -52.5t15.5 -84.5q-9 -60 -54.5 -95.5t-113.5 -35.5zM571 496q-63 0 -93 37t-21 100l37 231q11 63 52.5 100t104.5 37t94 -37t21 -100l-37 -231q-9 -63 -52 -100t-106 -37zM915 502h-43l78 493h45l-34 -217h176l34 217h46l-80 -493h-43l36 235h-178z
M578 535q43 0 71.5 25.5t34.5 72.5l37 231q8 46 -12.5 72.5t-63.5 26.5t-71.5 -26.5t-34.5 -72.5l-37 -231q-8 -47 12 -72.5t64 -25.5z" />
    <glyph glyph-name="uni2401" 
d="M166 496q-69 0 -104 36t-25 97h43q-6 -43 19 -68.5t75 -25.5q47 0 78 24.5t37 65.5q10 78 -60 100l-57 18q-45 13 -67.5 49.5t-16.5 84.5q9 57 53 90.5t107 33.5t95 -35.5t24 -95.5h-45q6 43 -15.5 68t-64.5 25q-44 0 -73.5 -22t-35.5 -60q-5 -36 10 -62.5t47 -36.5
l58 -18q47 -15 70.5 -52.5t15.5 -84.5q-9 -60 -54.5 -95.5t-113.5 -35.5zM571 496q-63 0 -93 37t-21 100l37 231q11 63 52.5 100t104.5 37t94 -37t21 -100l-37 -231q-9 -63 -52 -100t-106 -37zM915 502h-43l78 493h45l-34 -217h176l34 217h46l-80 -493h-43l36 235h-178z
M578 535q43 0 71.5 25.5t34.5 72.5l37 231q8 46 -12.5 72.5t-63.5 26.5t-71.5 -26.5t-34.5 -72.5l-37 -231q-8 -47 12 -72.5t64 -25.5z" />
    <glyph glyph-name="uni2402" unicode="&#x2402;" 
d="M166 496q-69 0 -104 36t-25 97h43q-6 -43 19 -68.5t75 -25.5q47 0 78 24.5t37 65.5q10 78 -60 100l-57 18q-45 13 -67.5 49.5t-16.5 84.5q9 57 53 90.5t107 33.5t95 -35.5t24 -95.5h-45q6 43 -15.5 68t-64.5 25q-44 0 -73.5 -22t-35.5 -60q-5 -36 10 -62.5t47 -36.5
l58 -18q47 -15 70.5 -52.5t15.5 -84.5q-9 -60 -54.5 -95.5t-113.5 -35.5zM596 502h-45l72 452h-142l6 41h328l-8 -41h-139zM885 502h-51l186 256l-98 237h49l55 -149q2 -4 12 -25t13 -30q22 35 39 55l104 149h51l-174 -237l105 -256h-50l-63 166l-23 55q-2 -3 -39 -55z" />
    <glyph glyph-name="uni2402" 
d="M166 496q-69 0 -104 36t-25 97h43q-6 -43 19 -68.5t75 -25.5q47 0 78 24.5t37 65.5q10 78 -60 100l-57 18q-45 13 -67.5 49.5t-16.5 84.5q9 57 53 90.5t107 33.5t95 -35.5t24 -95.5h-45q6 43 -15.5 68t-64.5 25q-44 0 -73.5 -22t-35.5 -60q-5 -36 10 -62.5t47 -36.5
l58 -18q47 -15 70.5 -52.5t15.5 -84.5q-9 -60 -54.5 -95.5t-113.5 -35.5zM596 502h-45l72 452h-142l6 41h328l-8 -41h-139zM885 502h-51l186 256l-98 237h49l55 -149q2 -4 12 -25t13 -30q22 35 39 55l104 149h51l-174 -237l105 -256h-50l-63 166l-23 55q-2 -3 -39 -55z" />
    <glyph glyph-name="uni2403" unicode="&#x2403;" 
d="M309 502h-272l80 493h270l-6 -41h-227l-27 -176h203l-6 -39h-203l-33 -196h227zM596 502h-45l72 452h-142l6 41h328l-8 -41h-139zM885 502h-51l186 256l-98 237h49l55 -149q2 -4 12 -25t13 -30q22 35 39 55l104 149h51l-174 -237l105 -256h-50l-63 166l-23 55
q-2 -3 -39 -55z" />
    <glyph glyph-name="uni2403" 
d="M309 502h-272l80 493h270l-6 -41h-227l-27 -176h203l-6 -39h-203l-33 -196h227zM596 502h-45l72 452h-142l6 41h328l-8 -41h-139zM885 502h-51l186 256l-98 237h49l55 -149q2 -4 12 -25t13 -30q22 35 39 55l104 149h51l-174 -237l105 -256h-50l-63 166l-23 55
q-2 -3 -39 -55z" />
    <glyph glyph-name="uni2404" unicode="&#x2404;" 
d="M571 496q-63 0 -93 37t-21 100l37 231q11 63 52.5 100t104.5 37t94 -37t21 -100l-37 -231q-9 -63 -52 -100t-106 -37zM309 502h-272l80 493h270l-6 -41h-227l-27 -176h203l-6 -39h-203l-33 -196h227zM1028 502h-45l72 452h-142l7 41h327l-8 -41h-139zM578 535
q43 0 71.5 25.5t34.5 72.5l37 231q8 46 -12.5 72.5t-63.5 26.5t-71.5 -26.5t-34.5 -72.5l-37 -231q-8 -47 12 -72.5t64 -25.5z" />
    <glyph glyph-name="uni2404" 
d="M571 496q-63 0 -93 37t-21 100l37 231q11 63 52.5 100t104.5 37t94 -37t21 -100l-37 -231q-9 -63 -52 -100t-106 -37zM309 502h-272l80 493h270l-6 -41h-227l-27 -176h203l-6 -39h-203l-33 -196h227zM1028 502h-45l72 452h-142l7 41h327l-8 -41h-139zM578 535
q43 0 71.5 25.5t34.5 72.5l37 231q8 46 -12.5 72.5t-63.5 26.5t-71.5 -26.5t-34.5 -72.5l-37 -231q-8 -47 12 -72.5t64 -25.5z" />
    <glyph glyph-name="uni2405" unicode="&#x2405;" 
d="M1083 1001q64 0 96 -38.5t21 -100.5l-37 -227q-8 -45 -32 -78.5t-60 -46.5l57 -129h-47l-51 117q-8 -2 -26 -2q-63 0 -95 37.5t-22 101.5l37 227q10 64 53 101.5t106 37.5zM309 502h-272l80 493h270l-6 -41h-227l-27 -176h203l-6 -39h-203l-33 -196h227zM688 657l53 338
h43l-77 -493h-60l-98 442q-3 -26 -14 -104l-54 -338h-43l78 493h59l101 -442q3 43 12 104zM1120 635l35 227q8 46 -13 73.5t-65 27.5q-43 0 -72.5 -27.5t-35.5 -73.5l-37 -227q-7 -47 14 -73.5t64 -26.5q44 0 73.5 26.5t36.5 73.5z" />
    <glyph glyph-name="uni2405" 
d="M1083 1001q64 0 96 -38.5t21 -100.5l-37 -227q-8 -45 -32 -78.5t-60 -46.5l57 -129h-47l-51 117q-8 -2 -26 -2q-63 0 -95 37.5t-22 101.5l37 227q10 64 53 101.5t106 37.5zM309 502h-272l80 493h270l-6 -41h-227l-27 -176h203l-6 -39h-203l-33 -196h227zM688 657l53 338
h43l-77 -493h-60l-98 442q-3 -26 -14 -104l-54 -338h-43l78 493h59l101 -442q3 43 12 104zM1120 635l35 227q8 46 -13 73.5t-65 27.5q-43 0 -72.5 -27.5t-35.5 -73.5l-37 -227q-7 -47 14 -73.5t64 -26.5q44 0 73.5 26.5t36.5 73.5z" />
    <glyph glyph-name="uni2406" unicode="&#x2406;" 
d="M575 496q-64 0 -95.5 37t-22.5 100l37 231q11 63 54 100t107 37t96 -38t23 -103h-45q8 47 -14 75t-66 28t-74 -26.5t-36 -72.5l-37 -231q-7 -46 14.5 -72t65.5 -26t74.5 27.5t37.5 74.5h43q-10 -64 -54.5 -102.5t-107.5 -38.5zM49 502h-45l211 493h57l54 -493h-43
l-15 137h-162zM915 502h-45l80 493h43l-32 -219h90l143 219h49l-156 -239l84 -254h-49l-78 235h-92zM199 858l-76 -180h141l-18 180q-6 53 -6 100q-28 -71 -41 -100z" />
    <glyph glyph-name="uni2406" 
d="M575 496q-64 0 -95.5 37t-22.5 100l37 231q11 63 54 100t107 37t96 -38t23 -103h-45q8 47 -14 75t-66 28t-74 -26.5t-36 -72.5l-37 -231q-7 -46 14.5 -72t65.5 -26t74.5 27.5t37.5 74.5h43q-10 -64 -54.5 -102.5t-107.5 -38.5zM49 502h-45l211 493h57l54 -493h-43
l-15 137h-162zM915 502h-45l80 493h43l-32 -219h90l143 219h49l-156 -239l84 -254h-49l-78 235h-92zM199 858l-76 -180h141l-18 180q-6 53 -6 100q-28 -71 -41 -100z" />
    <glyph glyph-name="uni2407" unicode="&#x2407;" 
d="M111 995h131q64 0 95.5 -34t22.5 -93q-6 -43 -30.5 -72t-61.5 -38q39 -9 57 -40.5t11 -80.5q-9 -61 -54.5 -98t-111.5 -37h-137zM729 502h-272l80 493h270l-6 -41h-228l-26 -176h203l-7 -39h-202l-33 -196h227zM1018 995l-72 -452h234l-6 -41h-279l78 493h45zM315 866
q7 41 -14 64.5t-65 23.5h-89l-28 -178h88q44 0 73 24.5t35 65.5zM293 639q6 45 -17.5 71.5t-70.5 26.5h-92l-31 -194h90q49 0 81 25.5t40 70.5z" />
    <glyph glyph-name="uni2407" 
d="M111 995h131q64 0 95.5 -34t22.5 -93q-6 -43 -30.5 -72t-61.5 -38q39 -9 57 -40.5t11 -80.5q-9 -61 -54.5 -98t-111.5 -37h-137zM729 502h-272l80 493h270l-6 -41h-228l-26 -176h203l-7 -39h-202l-33 -196h227zM1018 995l-72 -452h234l-6 -41h-279l78 493h45zM315 866
q7 41 -14 64.5t-65 23.5h-89l-28 -178h88q44 0 73 24.5t35 65.5zM293 639q6 45 -17.5 71.5t-70.5 26.5h-92l-31 -194h90q49 0 81 25.5t40 70.5z" />
    <glyph glyph-name="uni2408" unicode="&#x2408;" 
d="M993 870h-45q6 43 -15.5 68t-64.5 25q-44 0 -73 -22t-35 -60q-5 -36 10 -62.5t47 -36.5l57 -18q47 -15 71 -52.5t16 -84.5q-9 -60 -54.5 -95.5t-113.5 -35.5q-69 0 -104 36t-25 97h43q-6 -43 19 -68.5t75 -25.5q47 0 77.5 24.5t36.5 65.5q10 79 -59 100l-57 18
q-45 13 -67.5 49.5t-16.5 84.5q9 57 52.5 90.5t106.5 33.5t95 -35.5t24 -95.5zM322 995h131q64 0 95.5 -34t22.5 -93q-6 -43 -30.5 -72t-61.5 -38q39 -9 57 -40.5t11 -80.5q-9 -61 -54.5 -98t-111.5 -37h-137zM526 866q7 41 -14.5 64.5t-65.5 23.5h-88l-28 -178h88
q44 0 73 24.5t35 65.5zM504 639q6 45 -17.5 71.5t-70.5 26.5h-92l-31 -194h90q49 0 81 25.5t40 70.5z" />
    <glyph glyph-name="uni2408" 
d="M993 870h-45q6 43 -15.5 68t-64.5 25q-44 0 -73 -22t-35 -60q-5 -36 10 -62.5t47 -36.5l57 -18q47 -15 71 -52.5t16 -84.5q-9 -60 -54.5 -95.5t-113.5 -35.5q-69 0 -104 36t-25 97h43q-6 -43 19 -68.5t75 -25.5q47 0 77.5 24.5t36.5 65.5q10 79 -59 100l-57 18
q-45 13 -67.5 49.5t-16.5 84.5q9 57 52.5 90.5t106.5 33.5t95 -35.5t24 -95.5zM322 995h131q64 0 95.5 -34t22.5 -93q-6 -43 -30.5 -72t-61.5 -38q39 -9 57 -40.5t11 -80.5q-9 -61 -54.5 -98t-111.5 -37h-137zM526 866q7 41 -14.5 64.5t-65.5 23.5h-88l-28 -178h88
q44 0 73 24.5t35 65.5zM504 639q6 45 -17.5 71.5t-70.5 26.5h-92l-31 -194h90q49 0 81 25.5t40 70.5z" />
    <glyph glyph-name="uni240B" unicode="&#x240b;" 
d="M406 502h-60l-53 493h45l37 -356q6 -64 6 -102q14 43 39 102l149 356h47zM815 502h-45l72 452h-142l7 41h327l-8 -41h-139z" />
    <glyph glyph-name="uni240B" 
d="M406 502h-60l-53 493h45l37 -356q6 -64 6 -102q14 43 39 102l149 356h47zM815 502h-45l72 452h-142l7 41h327l-8 -41h-139z" />
    <glyph glyph-name="uni240C" unicode="&#x240c;" 
d="M291 502h-45l78 493h282l-6 -41h-240l-28 -184h217l-6 -41h-217zM707 502h-45l77 493h283l-6 -41h-240l-28 -184h217l-7 -41h-217z" />
    <glyph glyph-name="uni240C" 
d="M291 502h-45l78 493h282l-6 -41h-240l-28 -184h217l-6 -41h-217zM707 502h-45l77 493h283l-6 -41h-240l-28 -184h217l-7 -41h-217z" />
    <glyph glyph-name="CR" unicode="&#xd;" horiz-adv-x="819" 
 />
    <glyph glyph-name="uni240E" unicode="&#x240e;" 
d="M377 496q-69 0 -104 36t-25 97h43q-6 -43 19 -68.5t75 -25.5q47 0 78 24.5t37 65.5q10 78 -60 100l-57 18q-45 13 -67.5 49.5t-16.5 84.5q9 57 53 90.5t107 33.5t95 -35.5t24 -95.5h-46q6 43 -15 68t-64 25q-44 0 -73.5 -22t-35.5 -60q-5 -36 10 -62.5t47 -36.5l58 -18
q47 -15 70.5 -52.5t15.5 -84.5q-9 -60 -54.5 -95.5t-113.5 -35.5zM791 496q-63 0 -93.5 37t-21.5 100l37 231q11 63 52.5 100t104.5 37t94 -37t21 -100l-37 -231q-9 -63 -51.5 -100t-105.5 -37zM797 535q43 0 71.5 25.5t34.5 72.5l37 231q8 46 -12.5 72.5t-63.5 26.5
t-71.5 -26.5t-34.5 -72.5l-37 -231q-8 -47 12 -72.5t64 -25.5z" />
    <glyph glyph-name="uni240E" 
d="M377 496q-69 0 -104 36t-25 97h43q-6 -43 19 -68.5t75 -25.5q47 0 78 24.5t37 65.5q10 78 -60 100l-57 18q-45 13 -67.5 49.5t-16.5 84.5q9 57 53 90.5t107 33.5t95 -35.5t24 -95.5h-46q6 43 -15 68t-64 25q-44 0 -73.5 -22t-35.5 -60q-5 -36 10 -62.5t47 -36.5l58 -18
q47 -15 70.5 -52.5t15.5 -84.5q-9 -60 -54.5 -95.5t-113.5 -35.5zM791 496q-63 0 -93.5 37t-21.5 100l37 231q11 63 52.5 100t104.5 37t94 -37t21 -100l-37 -231q-9 -63 -51.5 -100t-105.5 -37zM797 535q43 0 71.5 25.5t34.5 72.5l37 231q8 46 -12.5 72.5t-63.5 26.5
t-71.5 -26.5t-34.5 -72.5l-37 -231q-8 -47 12 -72.5t64 -25.5z" />
    <glyph glyph-name="uni240F" unicode="&#x240f;" 
d="M377 496q-69 0 -104 36t-25 97h43q-6 -43 19 -68.5t75 -25.5q47 0 78 24.5t37 65.5q10 78 -60 100l-57 18q-45 13 -67.5 49.5t-16.5 84.5q9 57 53 90.5t107 33.5t95 -35.5t24 -95.5h-46q6 43 -15 68t-64 25q-44 0 -73.5 -22t-35.5 -60q-5 -36 10 -62.5t47 -36.5l58 -18
q47 -15 70.5 -52.5t15.5 -84.5q-9 -60 -54.5 -95.5t-113.5 -35.5zM918 502h-252l6 41h104l66 411h-105l6 41h252l-6 -41h-102l-66 -411h103z" />
    <glyph glyph-name="uni240F" 
d="M377 496q-69 0 -104 36t-25 97h43q-6 -43 19 -68.5t75 -25.5q47 0 78 24.5t37 65.5q10 78 -60 100l-57 18q-45 13 -67.5 49.5t-16.5 84.5q9 57 53 90.5t107 33.5t95 -35.5t24 -95.5h-46q6 43 -15 68t-64 25q-44 0 -73.5 -22t-35.5 -60q-5 -36 10 -62.5t47 -36.5l58 -18
q47 -15 70.5 -52.5t15.5 -84.5q-9 -60 -54.5 -95.5t-113.5 -35.5zM918 502h-252l6 41h104l66 411h-105l6 41h252l-6 -41h-102l-66 -411h103z" />
    <glyph glyph-name="uni2410" unicode="&#x2410;" 
d="M147 502h-116l80 493h114q70 0 106 -40.5t25 -108.5l-30 -195q-10 -67 -60 -108t-119 -41zM741 502h-278l78 493h45l-72 -452h234zM1149 502h-272l79 493h271l-6 -41h-228l-26 -176h202l-6 -39h-202l-33 -196h227zM147 954l-65 -411h72q51 0 85.5 28.5t41.5 79.5l30 195
q7 51 -17.5 79.5t-74.5 28.5h-72z" />
    <glyph glyph-name="uni2410" 
d="M147 502h-116l80 493h114q70 0 106 -40.5t25 -108.5l-30 -195q-10 -67 -60 -108t-119 -41zM741 502h-278l78 493h45l-72 -452h234zM1149 502h-272l79 493h271l-6 -41h-228l-26 -176h202l-6 -39h-202l-33 -196h227zM147 954l-65 -411h72q51 0 85.5 28.5t41.5 79.5l30 195
q7 51 -17.5 79.5t-74.5 28.5h-72z" />
    <glyph glyph-name="uni2411" unicode="&#x2411;" 
d="M575 496q-64 0 -95.5 37t-22.5 100l37 231q11 63 54 100t107 37t96 -38t23 -103h-45q8 47 -14 75t-66 28t-74 -26.5t-36 -72.5l-37 -231q-7 -46 14.5 -72t65.5 -26t74.5 27.5t37.5 74.5h43q-10 -64 -54.5 -102.5t-107.5 -38.5zM147 502h-116l80 493h114q70 0 106 -40.5
t25 -108.5l-30 -195q-10 -67 -60 -108t-119 -41zM1163 502h-297l6 41h138l65 413l-149 -98l8 49l133 88h59l-71 -452h114zM147 954l-65 -411h72q51 0 85.5 28.5t41.5 79.5l30 195q7 51 -17.5 79.5t-74.5 28.5h-72z" />
    <glyph glyph-name="uni2411" 
d="M575 496q-64 0 -95.5 37t-22.5 100l37 231q11 63 54 100t107 37t96 -38t23 -103h-45q8 47 -14 75t-66 28t-74 -26.5t-36 -72.5l-37 -231q-7 -46 14.5 -72t65.5 -26t74.5 27.5t37.5 74.5h43q-10 -64 -54.5 -102.5t-107.5 -38.5zM147 502h-116l80 493h114q70 0 106 -40.5
t25 -108.5l-30 -195q-10 -67 -60 -108t-119 -41zM1163 502h-297l6 41h138l65 413l-149 -98l8 49l133 88h59l-71 -452h114zM147 954l-65 -411h72q51 0 85.5 28.5t41.5 79.5l30 195q7 51 -17.5 79.5t-74.5 28.5h-72z" />
    <glyph glyph-name="uni2412" unicode="&#x2412;" 
d="M575 496q-64 0 -95.5 37t-22.5 100l37 231q11 63 54 100t107 37t96 -38t23 -103h-45q8 47 -14 75t-66 28t-74 -26.5t-36 -72.5l-37 -231q-7 -46 14.5 -72t65.5 -26t74.5 27.5t37.5 74.5h43q-10 -64 -54.5 -102.5t-107.5 -38.5zM1159 502h-293l6 45l185 164q94 88 102 151
q8 46 -15 73.5t-69 27.5q-47 0 -79 -28t-40 -75h-45q12 65 58 103t112 38t99.5 -37.5t23.5 -101.5q-12 -80 -121 -178l-159 -141h241zM147 502h-116l80 493h114q70 0 106 -40.5t25 -108.5l-30 -195q-10 -67 -60 -108t-119 -41zM147 954l-65 -411h72q51 0 85.5 28.5
t41.5 79.5l30 195q7 51 -17.5 79.5t-74.5 28.5h-72z" />
    <glyph glyph-name="uni2412" 
d="M575 496q-64 0 -95.5 37t-22.5 100l37 231q11 63 54 100t107 37t96 -38t23 -103h-45q8 47 -14 75t-66 28t-74 -26.5t-36 -72.5l-37 -231q-7 -46 14.5 -72t65.5 -26t74.5 27.5t37.5 74.5h43q-10 -64 -54.5 -102.5t-107.5 -38.5zM1159 502h-293l6 45l185 164q94 88 102 151
q8 46 -15 73.5t-69 27.5q-47 0 -79 -28t-40 -75h-45q12 65 58 103t112 38t99.5 -37.5t23.5 -101.5q-12 -80 -121 -178l-159 -141h241zM147 502h-116l80 493h114q70 0 106 -40.5t25 -108.5l-30 -195q-10 -67 -60 -108t-119 -41zM147 954l-65 -411h72q51 0 85.5 28.5
t41.5 79.5l30 195q7 51 -17.5 79.5t-74.5 28.5h-72z" />
    <glyph glyph-name="uni2413" unicode="&#x2413;" 
d="M655 1001q64 0 96 -38t23 -103h-45q8 47 -14 75t-66 28t-74 -26.5t-36 -72.5l-37 -231q-7 -46 14.5 -72t65.5 -26t74.5 27.5t37.5 74.5h43q-10 -64 -54.5 -102.5t-107.5 -38.5q-64 0 -95.5 37t-22.5 100l37 231q11 63 54 100t107 37zM111 995h114q70 0 106 -40.5
t25 -108.5l-30 -195q-10 -67 -60 -108t-119 -41h-116zM954 995h252l-6 -43l-143 -141q60 -3 89.5 -39.5t18.5 -95.5l-6 -43q-9 -63 -53 -100t-109 -37q-64 0 -95.5 37t-22.5 100h45q-7 -46 14.5 -72t65.5 -26t74 27t36 71l8 43q6 45 -15.5 70.5t-66.5 25.5h-41l7 37l145 145
h-203zM281 651l30 195q7 51 -17.5 79.5t-74.5 28.5h-72l-65 -411h72q51 0 85.5 28.5t41.5 79.5z" />
    <glyph glyph-name="uni2413" 
d="M655 1001q64 0 96 -38t23 -103h-45q8 47 -14 75t-66 28t-74 -26.5t-36 -72.5l-37 -231q-7 -46 14.5 -72t65.5 -26t74.5 27.5t37.5 74.5h43q-10 -64 -54.5 -102.5t-107.5 -38.5q-64 0 -95.5 37t-22.5 100l37 231q11 63 54 100t107 37zM111 995h114q70 0 106 -40.5
t25 -108.5l-30 -195q-10 -67 -60 -108t-119 -41h-116zM954 995h252l-6 -43l-143 -141q60 -3 89.5 -39.5t18.5 -95.5l-6 -43q-9 -63 -53 -100t-109 -37q-64 0 -95.5 37t-22.5 100h45q-7 -46 14.5 -72t65.5 -26t74 27t36 71l8 43q6 45 -15.5 70.5t-66.5 25.5h-41l7 37l145 145
h-203zM281 651l30 195q7 51 -17.5 79.5t-74.5 28.5h-72l-65 -411h72q51 0 85.5 28.5t41.5 79.5z" />
    <glyph glyph-name="uni2414" unicode="&#x2414;" 
d="M575 496q-64 0 -95.5 37t-22.5 100l37 231q11 63 54 100t107 37t96 -38t23 -103h-45q8 47 -14 75t-66 28t-74 -26.5t-36 -72.5l-37 -231q-7 -46 14.5 -72t65.5 -26t74.5 27.5t37.5 74.5h43q-10 -64 -54.5 -102.5t-107.5 -38.5zM147 502h-116l80 493h114q70 0 106 -40.5
t25 -108.5l-30 -195q-10 -67 -60 -108t-119 -41zM1124 502h-45l19 112h-226l13 78l237 303h49l-243 -315l-4 -25h180l22 131h43zM147 954l-65 -411h72q51 0 85.5 28.5t41.5 79.5l30 195q7 51 -17.5 79.5t-74.5 28.5h-72z" />
    <glyph glyph-name="uni2414" 
d="M575 496q-64 0 -95.5 37t-22.5 100l37 231q11 63 54 100t107 37t96 -38t23 -103h-45q8 47 -14 75t-66 28t-74 -26.5t-36 -72.5l-37 -231q-7 -46 14.5 -72t65.5 -26t74.5 27.5t37.5 74.5h43q-10 -64 -54.5 -102.5t-107.5 -38.5zM147 502h-116l80 493h114q70 0 106 -40.5
t25 -108.5l-30 -195q-10 -67 -60 -108t-119 -41zM1124 502h-45l19 112h-226l13 78l237 303h49l-243 -315l-4 -25h180l22 131h43zM147 954l-65 -411h72q51 0 85.5 28.5t41.5 79.5l30 195q7 51 -17.5 79.5t-74.5 28.5h-72z" />
    <glyph glyph-name="uni2415" unicode="&#x2415;" 
d="M74 502h-43l78 493h59l100 -442q2 30 13 104l53 338h43l-78 -493h-59l-99 442q-3 -26 -14 -104zM457 502h-45l211 493h57l53 -493h-43l-14 137h-162zM915 502h-45l80 493h43l-32 -219h90l143 219h49l-156 -239l84 -254h-49l-78 235h-92zM606 858l-76 -180h142l-19 180
q-6 53 -6 100q-28 -71 -41 -100z" />
    <glyph glyph-name="uni2415" 
d="M74 502h-43l78 493h59l100 -442q2 30 13 104l53 338h43l-78 -493h-59l-99 442q-3 -26 -14 -104zM457 502h-45l211 493h57l53 -493h-43l-14 137h-162zM915 502h-45l80 493h43l-32 -219h90l143 219h49l-156 -239l84 -254h-49l-78 235h-92zM606 858l-76 -180h142l-19 180
q-6 53 -6 100q-28 -71 -41 -100z" />
    <glyph glyph-name="uni2416" unicode="&#x2416;" 
d="M166 496q-69 0 -104 36t-25 97h43q-6 -43 19 -68.5t75 -25.5q47 0 78 24.5t37 65.5q10 78 -60 100l-57 18q-45 13 -67.5 49.5t-16.5 84.5q9 57 53 90.5t107 33.5t95 -35.5t24 -95.5h-45q6 43 -15.5 68t-64.5 25q-44 0 -73.5 -22t-35.5 -60q-5 -36 10 -62.5t47 -36.5
l58 -18q47 -15 70.5 -52.5t15.5 -84.5q-9 -60 -54.5 -95.5t-113.5 -35.5zM594 502h-43l29 186l-103 307h45l72 -215q6 -15 14 -47q10 20 29 47l139 215h47l-198 -307zM913 502h-43l78 493h60l100 -442q3 43 12 104l54 338h43l-78 -493h-60l-98 442q-3 -26 -14 -104z" />
    <glyph glyph-name="uni2416" 
d="M166 496q-69 0 -104 36t-25 97h43q-6 -43 19 -68.5t75 -25.5q47 0 78 24.5t37 65.5q10 78 -60 100l-57 18q-45 13 -67.5 49.5t-16.5 84.5q9 57 53 90.5t107 33.5t95 -35.5t24 -95.5h-45q6 43 -15.5 68t-64.5 25q-44 0 -73.5 -22t-35.5 -60q-5 -36 10 -62.5t47 -36.5
l58 -18q47 -15 70.5 -52.5t15.5 -84.5q-9 -60 -54.5 -95.5t-113.5 -35.5zM594 502h-43l29 186l-103 307h45l72 -215q6 -15 14 -47q10 20 29 47l139 215h47l-198 -307zM913 502h-43l78 493h60l100 -442q3 43 12 104l54 338h43l-78 -493h-60l-98 442q-3 -26 -14 -104z" />
    <glyph glyph-name="uni2417" unicode="&#x2417;" 
d="M309 502h-272l80 493h270l-6 -41h-227l-27 -176h203l-6 -39h-203l-33 -196h227zM623 954h-142l6 41h328l-8 -41h-139l-72 -452h-45zM1200 868q-6 -43 -30.5 -72t-61.5 -38q39 -9 57 -40.5t11 -80.5q-9 -61 -54.5 -98t-111.5 -37h-138l78 493h131q64 0 96 -34t23 -93z
M1155 866q7 41 -14.5 64.5t-65.5 23.5h-88l-29 -178h89q44 0 73 24.5t35 65.5zM1133 639q6 44 -18 71t-71 27h-92l-30 -194h90q49 0 81 25.5t40 70.5z" />
    <glyph glyph-name="uni2417" 
d="M309 502h-272l80 493h270l-6 -41h-227l-27 -176h203l-6 -39h-203l-33 -196h227zM623 954h-142l6 41h328l-8 -41h-139l-72 -452h-45zM1200 868q-6 -43 -30.5 -72t-61.5 -38q39 -9 57 -40.5t11 -80.5q-9 -61 -54.5 -98t-111.5 -37h-138l78 493h131q64 0 96 -34t23 -93z
M1155 866q7 41 -14.5 64.5t-65.5 23.5h-88l-29 -178h89q44 0 73 24.5t35 65.5zM1133 639q6 44 -18 71t-71 27h-92l-30 -194h90q49 0 81 25.5t40 70.5z" />
    <glyph glyph-name="uni2418" unicode="&#x2418;" 
d="M168 496q-64 0 -96 37t-23 100l37 231q11 63 54.5 100t107.5 37t96 -38t23 -103h-45q8 47 -14 75t-66 28q-45 0 -75 -27t-36 -72l-37 -231q-7 -46 14.5 -72t65.5 -26t75 27.5t38 74.5h43q-10 -64 -54.5 -102.5t-107.5 -38.5zM465 502h-47l211 493h59l53 -493h-43l-14 137
h-162zM913 502h-43l78 493h60l100 -442q3 43 12 104l54 338h43l-78 -493h-60l-98 442q-3 -26 -14 -104zM614 858l-75 -180h141l-18 180q-9 80 -9 100q-1 -2 -6.5 -17t-14 -37.5t-18.5 -45.5z" />
    <glyph glyph-name="uni2418" 
d="M168 496q-64 0 -96 37t-23 100l37 231q11 63 54.5 100t107.5 37t96 -38t23 -103h-45q8 47 -14 75t-66 28q-45 0 -75 -27t-36 -72l-37 -231q-7 -46 14.5 -72t65.5 -26t75 27.5t38 74.5h43q-10 -64 -54.5 -102.5t-107.5 -38.5zM465 502h-47l211 493h59l53 -493h-43l-14 137
h-162zM913 502h-43l78 493h60l100 -442q3 43 12 104l54 338h43l-78 -493h-60l-98 442q-3 -26 -14 -104zM614 858l-75 -180h141l-18 180q-9 80 -9 100q-1 -2 -6.5 -17t-14 -37.5t-18.5 -45.5z" />
    <glyph glyph-name="uni2419" unicode="&#x2419;" 
d="M520 502h-272l80 493h270l-6 -41h-227l-27 -176h203l-6 -39h-203l-33 -196h227zM690 502h-43l78 493h61l33 -178q2 -10 6.5 -33.5t5.5 -31.5l31 65l90 178h64l-80 -493h-43l39 250q14 90 45 221l-127 -252h-47l-49 252q-3 -80 -25 -221z" />
    <glyph glyph-name="uni2419" 
d="M520 502h-272l80 493h270l-6 -41h-227l-27 -176h203l-6 -39h-203l-33 -196h227zM690 502h-43l78 493h61l33 -178q2 -10 6.5 -33.5t5.5 -31.5l31 65l90 178h64l-80 -493h-43l39 250q14 90 45 221l-127 -252h-47l-49 252q-3 -80 -25 -221z" />
    <glyph glyph-name="uni241A" unicode="&#x241a;" 
d="M248 1001q63 0 95 -35.5t24 -95.5h-45q6 43 -15.5 68t-64.5 25q-44 0 -73.5 -22t-35.5 -60q-5 -36 10 -62.5t47 -36.5l58 -18q47 -15 70.5 -52.5t15.5 -84.5q-9 -60 -54.5 -95.5t-113.5 -35.5q-69 0 -104 36t-25 97h43q-6 -43 19 -68.5t75 -25.5q47 0 78 24.5t37 65.5
q10 78 -60 100l-57 18q-45 13 -67.5 49.5t-16.5 84.5q9 57 53 90.5t107 33.5zM684 633l57 362h43l-57 -362q-9 -63 -51 -100t-105 -37t-93 37t-19 100l57 362h45l-57 -362q-8 -46 11.5 -72t62.5 -26q44 0 71 26t35 72zM1200 868q-6 -43 -30.5 -72t-61.5 -38q39 -9 57 -40.5
t11 -80.5q-9 -61 -54.5 -98t-111.5 -37h-138l78 493h131q64 0 96 -34t23 -93zM1155 866q7 41 -14.5 64.5t-65.5 23.5h-88l-29 -178h89q44 0 73 24.5t35 65.5zM1133 639q6 44 -18 71t-71 27h-92l-30 -194h90q49 0 81 25.5t40 70.5z" />
    <glyph glyph-name="uni241A" 
d="M248 1001q63 0 95 -35.5t24 -95.5h-45q6 43 -15.5 68t-64.5 25q-44 0 -73.5 -22t-35.5 -60q-5 -36 10 -62.5t47 -36.5l58 -18q47 -15 70.5 -52.5t15.5 -84.5q-9 -60 -54.5 -95.5t-113.5 -35.5q-69 0 -104 36t-25 97h43q-6 -43 19 -68.5t75 -25.5q47 0 78 24.5t37 65.5
q10 78 -60 100l-57 18q-45 13 -67.5 49.5t-16.5 84.5q9 57 53 90.5t107 33.5zM684 633l57 362h43l-57 -362q-9 -63 -51 -100t-105 -37t-93 37t-19 100l57 362h45l-57 -362q-8 -46 11.5 -72t62.5 -26q44 0 71 26t35 72zM1200 868q-6 -43 -30.5 -72t-61.5 -38q39 -9 57 -40.5
t11 -80.5q-9 -61 -54.5 -98t-111.5 -37h-138l78 493h131q64 0 96 -34t23 -93zM1155 866q7 41 -14.5 64.5t-65.5 23.5h-88l-29 -178h89q44 0 73 24.5t35 65.5zM1133 639q6 44 -18 71t-71 27h-92l-30 -194h90q49 0 81 25.5t40 70.5z" />
    <glyph glyph-name="uni241B" unicode="&#x241b;" 
d="M573 496q-69 0 -104 36t-25 97h43q-6 -43 19 -68.5t76 -25.5q47 0 77.5 24.5t36.5 65.5q10 79 -59 100l-57 18q-45 13 -67.5 49.5t-16.5 84.5q9 57 52.5 90.5t106.5 33.5t95 -35.5t24 -95.5h-45q6 43 -15.5 68t-64.5 25q-44 0 -73 -22t-35 -60q-5 -36 10 -62.5t47 -36.5
l57 -18q47 -15 70.5 -52.5t15.5 -84.5q-9 -60 -54.5 -95.5t-113.5 -35.5zM1008 496q-64 0 -96 37t-23 100l37 231q11 63 54 100t107 37t96 -38t23 -103h-45q8 47 -14 75t-66 28t-74 -26.5t-36 -72.5l-37 -231q-7 -46 14.5 -72t65.5 -26t74.5 27.5t37.5 74.5h43
q-10 -64 -54 -102.5t-107 -38.5zM309 502h-272l80 493h270l-6 -41h-227l-27 -176h203l-6 -39h-203l-33 -196h227z" />
    <glyph glyph-name="uni241B" 
d="M573 496q-69 0 -104 36t-25 97h43q-6 -43 19 -68.5t76 -25.5q47 0 77.5 24.5t36.5 65.5q10 79 -59 100l-57 18q-45 13 -67.5 49.5t-16.5 84.5q9 57 52.5 90.5t106.5 33.5t95 -35.5t24 -95.5h-45q6 43 -15.5 68t-64.5 25q-44 0 -73 -22t-35 -60q-5 -36 10 -62.5t47 -36.5
l57 -18q47 -15 70.5 -52.5t15.5 -84.5q-9 -60 -54.5 -95.5t-113.5 -35.5zM1008 496q-64 0 -96 37t-23 100l37 231q11 63 54 100t107 37t96 -38t23 -103h-45q8 47 -14 75t-66 28t-74 -26.5t-36 -72.5l-37 -231q-7 -46 14.5 -72t65.5 -26t74.5 27.5t37.5 74.5h43
q-10 -64 -54 -102.5t-107 -38.5zM309 502h-272l80 493h270l-6 -41h-227l-27 -176h203l-6 -39h-203l-33 -196h227z" />
    <glyph glyph-name="uni241C" unicode="&#x241c;" 
d="M793 496q-69 0 -104 36t-25 97h43q-6 -43 19 -68.5t75 -25.5q47 0 77.5 24.5t36.5 65.5q10 79 -59 100l-57 18q-45 13 -67.5 49.5t-16.5 84.5q9 57 52.5 90.5t106.5 33.5t95 -35.5t24 -95.5h-45q6 43 -15.5 68t-64.5 25q-44 0 -73 -22t-35 -60q-5 -36 10 -62.5t47 -36.5
l57 -18q47 -15 71 -52.5t16 -84.5q-9 -60 -54.5 -95.5t-113.5 -35.5zM291 502h-45l78 493h282l-6 -41h-240l-28 -184h217l-6 -41h-217z" />
    <glyph glyph-name="uni241C" 
d="M793 496q-69 0 -104 36t-25 97h43q-6 -43 19 -68.5t75 -25.5q47 0 77.5 24.5t36.5 65.5q10 79 -59 100l-57 18q-45 13 -67.5 49.5t-16.5 84.5q9 57 52.5 90.5t106.5 33.5t95 -35.5t24 -95.5h-45q6 43 -15.5 68t-64.5 25q-44 0 -73 -22t-35 -60q-5 -36 10 -62.5t47 -36.5
l57 -18q47 -15 71 -52.5t16 -84.5q-9 -60 -54.5 -95.5t-113.5 -35.5zM291 502h-45l78 493h282l-6 -41h-240l-28 -184h217l-6 -41h-217z" />
    <glyph glyph-name="uni241D" unicode="&#x241d;" 
d="M379 496q-64 0 -96 37t-23 100l37 231q11 63 54.5 100t107.5 37t96 -38t23 -103h-46q8 47 -13.5 75t-65.5 28q-45 0 -75 -27t-36 -72l-37 -231q-7 -46 14.5 -72t65.5 -26t75 27.5t38 74.5l10 70h-111l6 41h156l-18 -111q-9 -64 -53.5 -102.5t-108.5 -38.5zM793 496
q-69 0 -104 36t-25 97h43q-6 -43 19 -68.5t75 -25.5q47 0 77.5 24.5t36.5 65.5q10 79 -59 100l-57 18q-45 13 -67.5 49.5t-16.5 84.5q9 57 52.5 90.5t106.5 33.5t95 -35.5t24 -95.5h-45q6 43 -15.5 68t-64.5 25q-44 0 -73 -22t-35 -60q-5 -36 10 -62.5t47 -36.5l57 -18
q47 -15 71 -52.5t16 -84.5q-9 -60 -54.5 -95.5t-113.5 -35.5z" />
    <glyph glyph-name="uni241D" 
d="M379 496q-64 0 -96 37t-23 100l37 231q11 63 54.5 100t107.5 37t96 -38t23 -103h-46q8 47 -13.5 75t-65.5 28q-45 0 -75 -27t-36 -72l-37 -231q-7 -46 14.5 -72t65.5 -26t75 27.5t38 74.5l10 70h-111l6 41h156l-18 -111q-9 -64 -53.5 -102.5t-108.5 -38.5zM793 496
q-69 0 -104 36t-25 97h43q-6 -43 19 -68.5t75 -25.5q47 0 77.5 24.5t36.5 65.5q10 79 -59 100l-57 18q-45 13 -67.5 49.5t-16.5 84.5q9 57 52.5 90.5t106.5 33.5t95 -35.5t24 -95.5h-45q6 43 -15.5 68t-64.5 25q-44 0 -73 -22t-35 -60q-5 -36 10 -62.5t47 -36.5l57 -18
q47 -15 71 -52.5t16 -84.5q-9 -60 -54.5 -95.5t-113.5 -35.5z" />
    <glyph glyph-name="uni241E" unicode="&#x241e;" 
d="M993 870h-45q6 43 -15.5 68t-64.5 25q-44 0 -73 -22t-35 -60q-5 -36 10 -62.5t47 -36.5l57 -18q47 -15 71 -52.5t16 -84.5q-9 -60 -54.5 -95.5t-113.5 -35.5q-69 0 -104 36t-25 97h43q-6 -43 19 -68.5t75 -25.5q47 0 77.5 24.5t36.5 65.5q10 79 -59 100l-57 18
q-45 13 -67.5 49.5t-16.5 84.5q9 57 52.5 90.5t106.5 33.5t95 -35.5t24 -95.5zM322 995h143q66 0 99 -38t24 -101q-9 -53 -44 -88.5t-87 -44.5l78 -221h-52l-71 217h-90l-35 -217h-45zM541 858q8 43 -15 69.5t-67 26.5h-101l-30 -194h100q44 0 75.5 27t37.5 71z" />
    <glyph glyph-name="uni241E" 
d="M993 870h-45q6 43 -15.5 68t-64.5 25q-44 0 -73 -22t-35 -60q-5 -36 10 -62.5t47 -36.5l57 -18q47 -15 71 -52.5t16 -84.5q-9 -60 -54.5 -95.5t-113.5 -35.5q-69 0 -104 36t-25 97h43q-6 -43 19 -68.5t75 -25.5q47 0 77.5 24.5t36.5 65.5q10 79 -59 100l-57 18
q-45 13 -67.5 49.5t-16.5 84.5q9 57 52.5 90.5t106.5 33.5t95 -35.5t24 -95.5zM322 995h143q66 0 99 -38t24 -101q-9 -53 -44 -88.5t-87 -44.5l78 -221h-52l-71 217h-90l-35 -217h-45zM541 858q8 43 -15 69.5t-67 26.5h-101l-30 -194h100q44 0 75.5 27t37.5 71z" />
    <glyph glyph-name="uni241F" unicode="&#x241f;" 
d="M793 496q-69 0 -104 36t-25 97h43q-6 -43 19 -68.5t75 -25.5q47 0 77.5 24.5t36.5 65.5q10 79 -59 100l-57 18q-45 13 -67.5 49.5t-16.5 84.5q9 57 52.5 90.5t106.5 33.5t95 -35.5t24 -95.5h-45q6 43 -15.5 68t-64.5 25q-44 0 -73 -22t-35 -60q-5 -36 10 -62.5t47 -36.5
l57 -18q47 -15 71 -52.5t16 -84.5q-9 -60 -54.5 -95.5t-113.5 -35.5zM375 496q-63 0 -93.5 37t-19.5 100l57 362h46l-58 -362q-8 -46 11.5 -72t62.5 -26q44 0 71 26t35 72l58 362h43l-58 -362q-9 -63 -50.5 -100t-104.5 -37z" />
    <glyph glyph-name="uni241F" 
d="M793 496q-69 0 -104 36t-25 97h43q-6 -43 19 -68.5t75 -25.5q47 0 77.5 24.5t36.5 65.5q10 79 -59 100l-57 18q-45 13 -67.5 49.5t-16.5 84.5q9 57 52.5 90.5t106.5 33.5t95 -35.5t24 -95.5h-45q6 43 -15.5 68t-64.5 25q-44 0 -73 -22t-35 -60q-5 -36 10 -62.5t47 -36.5
l57 -18q47 -15 71 -52.5t16 -84.5q-9 -60 -54.5 -95.5t-113.5 -35.5zM375 496q-63 0 -93.5 37t-19.5 100l57 362h46l-58 -362q-8 -46 11.5 -72t62.5 -26q44 0 71 26t35 72l58 362h43l-58 -362q-9 -63 -50.5 -100t-104.5 -37z" />
    <glyph glyph-name="space" unicode=" " horiz-adv-x="819" 
 />
    <glyph glyph-name="exclam" unicode="!" horiz-adv-x="819" 
d="M426 428h-88l86 772l47 295h162l-47 -295zM332 -10h-31q-52 0 -78.5 31.5t-17.5 84.5q7 52 44.5 84.5t90.5 32.5h31q53 0 79.5 -32t18.5 -85q-9 -51 -47 -83.5t-90 -32.5z" />
    <glyph glyph-name="quotedbl" unicode="&#x22;" horiz-adv-x="819" 
d="M313 881h-118l45 430l30 184h162l-31 -184zM725 881h-119l45 430l31 184h162l-31 -184z" />
    <glyph glyph-name="numbersign" unicode="#" 
d="M209 0h-123l147 422h-184l17 106h204l150 439h-213l16 106h236l147 422h123l-147 -422h348l147 422h127l-151 -422h184l-16 -106h-207l-150 -439h215l-16 -106h-236l-147 -422h-123l148 422h-351zM543 967l-150 -439h348l152 439h-350z" />
    <glyph glyph-name="dollar" unicode="$" 
d="M1133 1120h-136q19 114 -32 187t-160 86l-92 -574l65 -20q145 -47 213 -160.5t43 -265.5q-26 -167 -148.5 -272t-303.5 -119l-43 -269h-99l43 269q-189 12 -282.5 119t-67.5 282h135q-19 -119 44 -194t190 -87l96 609l-53 16q-142 44 -208.5 152t-41.5 256
q25 162 140.5 263t289.5 115l43 269h98l-43 -269q169 -14 252.5 -118.5t57.5 -274.5zM430 1145q-17 -107 34 -185.5t157 -107.5l86 541q-113 -12 -186.5 -78t-90.5 -170zM721 670l-31 10l-90 -578q123 12 201.5 82.5t97.5 186.5q17 107 -30.5 187t-147.5 112z" />
    <glyph glyph-name="percent" unicode="%" 
d="M362 819q-123 0 -184 72.5t-41 198.5l23 145q20 126 104 198t207 72q124 0 185.5 -72.5t41.5 -197.5l-22 -145q-20 -125 -105 -198t-209 -73zM68 0h-121l1272 1495h120zM381 926q75 0 120.5 42t59.5 122l23 145q12 80 -21 122t-108 42q-74 0 -121 -42.5t-60 -121.5
l-22 -145q-12 -80 21 -122t108 -42zM813 -10q-124 0 -184.5 72.5t-40.5 197.5l22 146q20 125 104 197.5t208 72.5t185.5 -72.5t41.5 -197.5l-23 -146q-20 -125 -104.5 -197.5t-208.5 -72.5zM831 98q153 0 181 162l22 146q12 80 -21 121.5t-108 41.5q-152 0 -180 -163
l-23 -146q-24 -162 129 -162z" />
    <glyph glyph-name="ampersand" unicode="&#x26;" 
d="M1020 737h139l-289 -407l193 -330h-145l-130 217q-190 -237 -423 -237q-156 0 -230.5 89.5t-48.5 247.5l37 240q19 124 92.5 205t187.5 106q-103 174 -79 320q22 144 133 236t268 92q165 0 249.5 -97t59.5 -252h-135q15 98 -38.5 164t-153.5 66q-94 0 -164 -60t-84 -149
q-20 -109 65 -258l285 -492zM395 100q85 0 170 57t162 165l-264 446q-82 -8 -137 -64t-68 -147l-37 -240q-17 -98 31 -157.5t143 -59.5z" />
    <glyph glyph-name="quotesingle" unicode="'" horiz-adv-x="409" 
d="M313 881h-118l24 282l53 332h160l-53 -332z" />
    <glyph glyph-name="parenleft" unicode="(" horiz-adv-x="819" 
d="M629 -123l-21 -127q-266 69 -386.5 276t-71.5 511l63 401q47 302 235 510t474 276l-21 -129q-218 -51 -365 -225t-188 -432l-63 -401q-41 -258 50 -432.5t294 -227.5z" />
    <glyph glyph-name="parenright" unicode=")" horiz-adv-x="819" 
d="M-45 -250l18 131q220 53 366.5 226t186.5 430l66 401q40 258 -51.5 435t-292.5 229l18 122q264 -68 386 -276t75 -510l-65 -401q-50 -305 -234.5 -511.5t-472.5 -275.5z" />
    <glyph glyph-name="asterisk" unicode="*" 
d="M459 395l-162 -190l-104 80l165 190q23 27 46.5 50.5t48 45.5t39 34t41 33t32.5 26l-4 22q-139 14 -235 51l-207 80l69 129l207 -78q100 -39 201 -118l16 10q0 11 -2.5 47t-3 60.5t1.5 65t8 79.5l39 237h138l-37 -237q-18 -110 -78 -252l12 -12q46 29 66.5 41t71 36.5
t98.5 40.5l235 80l27 -133l-234 -80q-37 -13 -77.5 -22.5t-61 -12.5t-63.5 -8t-47 -6l-13 -22q5 -6 31 -33.5t40 -43t36.5 -47t40.5 -63.5l102 -192l-125 -80l-104 192q-11 19 -19.5 38t-16 39.5t-12.5 34t-11 35t-8 29t-7 31t-6 25.5h-19q-7 -12 -26.5 -45.5t-34 -57
t-40 -60t-54.5 -69.5z" />
    <glyph glyph-name="plus" unicode="+" 
d="M623 201h-134l66 417h-401l18 121h403l64 418h135l-65 -418h401l-18 -121h-404z" />
    <glyph glyph-name="comma" unicode="," horiz-adv-x="819" 
d="M215 -328h-123l258 637h225z" />
    <glyph glyph-name="hyphen" unicode="-" 
d="M950 616h-655l18 121h656z" />
    <glyph glyph-name="period" unicode="." horiz-adv-x="819" 
d="M317 -20q-72 0 -108 42.5t-25 114.5q12 73 62.5 116.5t122.5 43.5q73 0 108 -43t23 -117q-10 -72 -60.5 -114.5t-122.5 -42.5z" />
    <glyph glyph-name="slash" unicode="/" 
d="M201 -225h-148l1028 1925h148z" />
    <glyph glyph-name="zero" unicode="0" 
d="M522 -20q-202 0 -300 118.5t-66 321.5l104 655q32 203 168 322t338 119q200 0 297 -118.5t65 -322.5l-104 -655q-32 -203 -167.5 -321.5t-334.5 -118.5zM543 104q135 0 227.5 85.5t114.5 230.5l104 655q23 145 -43 230.5t-201 85.5q-137 0 -230.5 -85.5t-115.5 -230.5
l-104 -655q-23 -145 44 -230.5t204 -85.5zM647 641q-51 0 -80.5 31t-29.5 82q0 50 29.5 80t80.5 30q50 0 80.5 -30.5t30.5 -79.5q0 -51 -30.5 -82t-80.5 -31z" />
    <glyph glyph-name="one" unicode="1" 
d="M1004 0h-898l19 123h418l198 1255l-454 -301l24 152l404 266h180l-217 -1372h344z" />
    <glyph glyph-name="two" unicode="2" 
d="M991 0h-889l23 135l555 502q147 131 222.5 239.5t92.5 215.5q22 140 -47.5 222.5t-210.5 82.5q-142 0 -238.5 -83.5t-119.5 -226.5h-135q34 196 173 312.5t339 116.5q202 0 303.5 -114t70.5 -306q-40 -252 -366 -543l-481 -430h729z" />
    <glyph glyph-name="three" unicode="3" 
d="M373 1495h764l-23 -127l-432 -430q182 -9 271.5 -120t60.5 -292l-21 -129q-29 -192 -162.5 -304.5t-330.5 -112.5q-193 0 -290.5 113t-68.5 304h135q-22 -139 43.5 -218t202.5 -79q134 0 224 80t112 217l21 129q22 137 -43 214t-201 77h-129l20 117l441 438h-615z" />
    <glyph glyph-name="four" unicode="4" 
d="M889 0h-135l53 340h-682l39 238l715 915h149l-735 -950l-12 -80h546l64 397h135z" />
    <glyph glyph-name="five" unicode="5" 
d="M1118 1372h-626l-99 -573h4q35 86 122.5 135t207.5 49q180 0 259.5 -112t47.5 -318l-22 -139q-31 -200 -163.5 -317t-330.5 -117q-181 0 -277 95.5t-85 260.5h135q-9 -111 56 -173.5t194 -62.5q138 0 225.5 82t110.5 232l22 139q23 149 -37.5 229t-199.5 80
q-96 0 -171.5 -51.5t-115.5 -142.5h-135l141 827h758z" />
    <glyph glyph-name="six" unicode="6" 
d="M522 -20q-209 0 -317 130.5t-74 342.5q27 172 191 395l473 647h149l-522 -698l6 -6q43 48 122 81t171 33q185 0 278.5 -125t61.5 -329q-34 -210 -182.5 -339.5t-356.5 -131.5zM541 100q148 0 253.5 95t131.5 254q23 155 -52.5 251.5t-222.5 96.5t-253.5 -97t-131.5 -251
q-29 -159 47 -254t228 -95z" />
    <glyph glyph-name="seven" unicode="7" 
d="M487 0h-155l755 1366h-643l-45 -281h-141l66 410h927l-22 -137z" />
    <glyph glyph-name="eight" unicode="8" 
d="M1139 1149q-17 -112 -110.5 -207t-254.5 -164q307 -151 264 -411q-28 -176 -169.5 -281.5t-346.5 -105.5q-206 0 -314.5 105.5t-80.5 281.5q44 265 397 411q-135 68 -196.5 162.5t-42.5 208.5q26 159 163 263t318 104q183 0 291 -105t82 -262zM1006 1143
q17 112 -56.5 182t-204.5 70q-128 0 -218 -69t-107 -183q-15 -89 30.5 -160t143.5 -119l65 -30l70 28q247 107 277 281zM905 373q17 99 -33.5 179.5t-160.5 135.5l-72 35l-86 -37q-125 -53 -200.5 -133t-92.5 -180q-19 -124 58.5 -198.5t222.5 -74.5t245 74.5t119 198.5z
" />
    <glyph glyph-name="nine" unicode="9" 
d="M489 0h-153l526 698l-6 7q-43 -48 -121 -80.5t-170 -32.5q-175 0 -269.5 124t-62.5 322q34 214 180.5 346t350.5 132q205 0 311 -131t72 -343q-29 -187 -180 -395zM635 696q145 0 249 94.5t130 251.5q28 158 -46.5 255.5t-222.5 97.5q-145 0 -248 -97.5t-128 -257.5
q-26 -154 47.5 -249t218.5 -95z" />
    <glyph glyph-name="colon" unicode=":" horiz-adv-x="819" 
d="M455 848q-72 0 -109 41t-27 108t61 108.5t122 41.5q70 0 107 -41t26 -109q-10 -67 -59.5 -108t-120.5 -41zM315 -20q-71 0 -107 41t-26 108q10 68 60 109t120 41q72 0 109.5 -41t26.5 -109q-10 -67 -61 -108t-122 -41z" />
    <glyph glyph-name="semicolon" unicode=";" horiz-adv-x="819" 
d="M469 852h-29q-66 0 -100.5 40.5t-24.5 106.5q9 65 57.5 106.5t114.5 41.5h29q64 0 99 -41.5t26 -106.5q-10 -66 -58 -106.5t-114 -40.5zM145 -328h-118l258 637h221z" />
    <glyph glyph-name="less" unicode="&#x3c;" 
d="M1006 283l-23 -131l-797 454l23 139l940 455l-23 -143l-661 -314q-109 -53 -160 -71q73 -33 139 -72z" />
    <glyph glyph-name="equal" unicode="=" 
d="M1087 854h-856l21 121h856zM1012 379h-856l20 121h856z" />
    <glyph glyph-name="greater" unicode="&#x3e;" 
d="M1055 606l-940 -454l20 141l662 315q129 59 161 70q-73 33 -139 72l-561 317l23 133l796 -455z" />
    <glyph glyph-name="question" unicode="?" 
d="M580 420h-136l58 356h102q141 0 238 81t119 216t-51 216t-214 81h-250l21 125h250q203 0 306.5 -115t72.5 -307q-29 -183 -160 -297t-318 -117zM457 -10h-31q-52 0 -79 31.5t-19 84.5q7 52 44.5 84.5t90.5 32.5h31q53 0 79.5 -32t18.5 -85q-7 -51 -45.5 -83.5
t-89.5 -32.5z" />
    <glyph glyph-name="at" unicode="@" 
d="M795 1516q223 0 331 -139.5t70 -375.5l-137 -868h-119l23 133h-13q-22 -70 -90 -111.5t-162 -41.5q-132 0 -190 82t-33 235l41 258q25 149 107.5 227t214.5 78q96 0 149 -40.5t53 -112.5h13l16 151v10q31 190 -46.5 297t-246.5 107q-191 0 -315.5 -129t-163.5 -361
l-107 -682q-35 -224 57.5 -353.5t289.5 -129.5h149l-18 -117h-150q-254 0 -376 162t-79 438l107 682q44 280 210.5 440.5t414.5 160.5zM981 438l39 250q30 199 -156 199q-191 0 -221 -199l-41 -258q-34 -211 156 -211q188 0 223 219z" />
    <glyph glyph-name="A" unicode="A" 
d="M176 0h-141l639 1495h176l164 -1495h-133l-43 418h-488zM629 1081l-232 -546h430l-57 546q-9 89 -22 303q-27 -90 -119 -303z" />
    <glyph glyph-name="B" unicode="B" 
d="M1118 1110q-20 -129 -94 -217t-186 -117q119 -29 173.5 -124.5t32.5 -239.5q-31 -189 -167 -300.5t-338 -111.5h-418l237 1495h402q193 0 289.5 -104t68.5 -281zM983 1102q20 126 -45.5 198t-198.5 72h-268l-84 -541h266q133 0 221.5 72.5t108.5 198.5zM909 414
q22 137 -49 218t-217 81h-274l-95 -590h275q146 0 242 78t118 213z" />
    <glyph glyph-name="C" unicode="C" 
d="M530 -20q-194 0 -290.5 112.5t-65.5 304.5l111 701q31 193 163 305.5t326 112.5q195 0 292.5 -117t66.5 -314h-136q23 145 -41.5 227.5t-199.5 82.5t-224 -78.5t-112 -218.5l-111 -701q-22 -139 42.5 -218t199.5 -79q136 0 226.5 82.5t113.5 227.5h135
q-32 -197 -166.5 -313.5t-329.5 -116.5z" />
    <glyph glyph-name="D" unicode="D" 
d="M471 0h-350l237 1495h351q212 0 319.5 -123.5t75.5 -327.5l-94 -593q-32 -204 -179.5 -327.5t-359.5 -123.5zM473 1372l-199 -1249h218q151 0 254 88.5t128 239.5l95 593q23 150 -53.5 239t-227.5 89h-215z" />
    <glyph glyph-name="E" unicode="E" 
d="M963 0h-824l238 1495h823l-20 -123h-688l-84 -530h616l-18 -123h-619l-94 -596h688z" />
    <glyph glyph-name="F" unicode="F" 
d="M264 0h-135l238 1495h856l-21 -123h-723l-88 -557h658l-19 -125h-657z" />
    <glyph glyph-name="G" unicode="G" 
d="M530 -20q-194 0 -290.5 112.5t-65.5 304.5l111 701q31 193 163 305.5t326 112.5q195 0 292.5 -117t66.5 -314h-136q23 145 -41.5 227.5t-199.5 82.5t-224 -78.5t-112 -218.5l-111 -701q-22 -139 42.5 -218t199.5 -79q136 0 226.5 82.5t113.5 227.5l33 208h-334l18 123
h469l-51 -331q-31 -196 -166 -313t-330 -117z" />
    <glyph glyph-name="H" unicode="H" 
d="M256 0h-135l237 1495h136l-105 -659h537l104 659h135l-237 -1495h-135l112 713h-536z" />
    <glyph glyph-name="I" unicode="I" 
d="M905 0h-762l19 123h315l197 1249h-314l21 123h762l-21 -123h-311l-199 -1249h312z" />
    <glyph glyph-name="J" unicode="J" 
d="M465 -20q-204 0 -301.5 117t-65.5 321h135q-23 -149 44 -233.5t208 -84.5t234.5 84t116.5 232l151 954h-446l20 125h582l-172 -1079q-34 -208 -165.5 -322t-340.5 -114z" />
    <glyph glyph-name="K" unicode="K" 
d="M256 0h-135l237 1495h136l-105 -661h273l434 661h153l-473 -723l256 -772h-151l-234 715h-278z" />
    <glyph glyph-name="L" unicode="L" 
d="M1034 0h-841l237 1495h135l-219 -1372h707z" />
    <glyph glyph-name="M" unicode="M" 
d="M217 0h-131l238 1495h184l100 -537q26 -134 35 -204q4 10 96 204l271 537h190l-237 -1495h-132l121 758q49 317 138 669l-388 -765h-143l-147 765q-23 -347 -74 -669z" />
    <glyph glyph-name="N" unicode="N" 
d="M250 0h-131l237 1495h181l301 -1341q17 197 36 317l162 1024h131l-237 -1495h-180l-297 1341q-15 -157 -41 -317z" />
    <glyph glyph-name="O" unicode="O" 
d="M520 -20q-190 0 -283.5 112t-62.5 305l111 701q31 192 160.5 305t318.5 113t283 -113t65 -305l-111 -701q-31 -193 -160.5 -305t-320.5 -112zM539 100q134 0 219 77.5t108 219.5l111 701q22 141 -39.5 219t-192.5 78q-132 0 -217 -78t-108 -219l-111 -701
q-23 -142 37.5 -219.5t192.5 -77.5z" />
    <glyph glyph-name="P" unicode="P" 
d="M256 0h-135l237 1495h457q201 0 302.5 -116t70.5 -310q-31 -193 -169.5 -309.5t-338.5 -116.5h-322zM473 1372l-96 -606h321q138 0 233.5 82.5t117.5 220.5q23 139 -46 221t-208 82h-322z" />
    <glyph glyph-name="Q" unicode="Q" 
d="M766 1516q191 0 287 -116.5t65 -305.5l-110 -693q-22 -134 -95.5 -234t-183.5 -144l172 -392h-143l-158 355q-34 -6 -78 -6q-193 0 -289 114.5t-65 306.5l111 693q31 194 162.5 308t324.5 114zM872 401l111 693q23 139 -40.5 220t-194.5 81q-133 0 -222 -80t-112 -221
l-111 -693q-23 -140 41.5 -220.5t198.5 -80.5q132 0 219 80t110 221z" />
    <glyph glyph-name="R" unicode="R" 
d="M358 1495h437q199 0 299 -114.5t69 -305.5q-25 -159 -130 -268t-261 -137l232 -670h-152l-217 659h-275l-104 -659h-135zM1026 1077q22 135 -47.5 215t-204.5 80h-301l-94 -592h301q136 0 230 81t116 216z" />
    <glyph glyph-name="S" unicode="S" 
d="M530 -20q-213 0 -319 108t-78 295h135q-20 -129 56.5 -206t226.5 -77q142 0 235 72.5t113 198.5q17 114 -28.5 192.5t-147.5 110.5l-176 55q-141 44 -208 152.5t-44 253.5q26 173 157 277t324 104q191 0 288 -107.5t69 -288.5h-136q20 126 -44.5 200.5t-196.5 74.5
q-134 0 -220.5 -66.5t-105.5 -183.5q-15 -106 30 -184t140 -109l176 -57q144 -46 213.5 -158.5t46.5 -259.5q-29 -181 -167 -289t-339 -108z" />
    <glyph glyph-name="T" unicode="T" 
d="M594 0h-135l217 1372h-430l20 123h991l-20 -123h-426z" />
    <glyph glyph-name="U" unicode="U" 
d="M522 -20q-191 0 -282 112t-60 305l174 1098h135l-174 -1098q-23 -140 36 -218.5t192 -78.5q129 0 212 79t105 218l174 1098h135l-174 -1098q-31 -193 -157 -305t-316 -112z" />
    <glyph glyph-name="V" unicode="V" 
d="M614 0h-180l-162 1495h136l112 -1081q21 -193 21 -308q42 132 114 308l457 1081h139z" />
    <glyph glyph-name="W" unicode="W" 
d="M338 0h-178l57 1495h123l-47 -1106q-10 -206 -17 -293q8 27 39 137t45 156l326 1106h156l-33 -1106q-2 -40 -5 -147t-5 -146q13 43 42.5 151t39.5 142l299 1106h127l-420 -1495h-180l32 1102l11 293q-5 -16 -35.5 -125.5t-48.5 -167.5z" />
    <glyph glyph-name="X" unicode="X" 
d="M164 0h-156l561 772l-297 723h150l170 -451q9 -26 36 -87t34 -80l116 167l320 451h153l-526 -721l315 -774h-147l-191 500q-7 21 -33 82t-34 86q-44 -59 -119 -168z" />
    <glyph glyph-name="Y" unicode="Y" 
d="M592 0h-135l90 567l-309 928h135l217 -651q36 -99 43 -142q3 6 17.5 31t32.5 54t36 57l424 651h143l-604 -928z" />
    <glyph glyph-name="Z" unicode="Z" 
d="M956 0h-864l21 135l897 1237h-693l21 123h831l-22 -143l-893 -1229h721z" />
    <glyph glyph-name="bracketleft" unicode="[" horiz-adv-x="819" 
d="M524 -225h-477l303 1925h477l-18 -121h-342l-266 -1683h342z" />
    <glyph glyph-name="backslash" unicode="\" 
d="M926 -225h-138l-432 1925h138z" />
    <glyph glyph-name="bracketright" unicode="]" horiz-adv-x="819" 
d="M524 -225h-477l19 121h342l266 1683h-342l18 121h477z" />
    <glyph glyph-name="asciicircum" unicode="^" 
d="M352 696h-143l489 799h136l227 -799h-131l-146 531q-17 66 -32 151q-23 -49 -82 -151z" />
    <glyph glyph-name="underscore" unicode="_" 
d="M989 -168h-983l19 117h983z" />
    <glyph glyph-name="grave" unicode="`" 
d="M854 1321h-137l-187 287h148z" />
    <glyph glyph-name="a" unicode="a" 
d="M944 948l29 178h135l-178 -1126h-135l28 178h-2q-44 -93 -134.5 -145.5t-207.5 -52.5q-169 0 -251.5 111.5t-53.5 299.5l53 342q31 189 150 301.5t289 112.5q115 0 188 -53t88 -146h2zM856 395l53 334q22 142 -37.5 221.5t-189.5 79.5q-128 0 -213 -79.5t-107 -221.5
l-53 -334q-22 -141 37.5 -220t188.5 -79t214 79t107 220z" />
    <glyph glyph-name="b" unicode="b" 
d="M750 1147q169 0 251.5 -112.5t51.5 -301.5l-54 -342q-29 -187 -148 -299t-288 -112q-116 0 -189.5 52.5t-88.5 145.5l-29 -178h-135l237 1495h136l-52 -315l-39 -232h5q43 92 134 145.5t208 53.5zM866 395l52 334q23 142 -37 221.5t-189 79.5t-213.5 -79.5t-107.5 -221.5
l-52 -334q-23 -141 37 -220t189 -79q128 0 212 78.5t109 220.5z" />
    <glyph glyph-name="c" unicode="c" 
d="M526 -20q-194 0 -288.5 112t-63.5 305l51 332q31 192 163.5 305t324.5 113q189 0 285.5 -105.5t70.5 -283.5h-135q17 126 -47 196t-195 70q-133 0 -220.5 -78t-109.5 -217l-53 -332q-22 -139 41.5 -217t196.5 -78q130 0 216 70.5t109 196.5h136q-31 -178 -162 -283.5
t-320 -105.5z" />
    <glyph glyph-name="d" unicode="d" 
d="M981 1180l51 315h135l-237 -1495h-135l28 178h-2q-44 -93 -134.5 -145.5t-207.5 -52.5q-169 0 -251.5 111.5t-53.5 299.5l53 342q31 189 150 301.5t289 112.5q115 0 188 -53t88 -146h2zM856 395l53 334q23 141 -37 221t-190 80q-128 0 -212.5 -79.5t-107.5 -221.5
l-53 -334q-23 -141 37 -220t189 -79t214 79t107 220z" />
    <glyph glyph-name="e" unicode="e" 
d="M709 1147q189 0 282 -114t62 -304l-31 -197h-692l-23 -135q-22 -142 38.5 -221.5t195.5 -79.5q109 0 186.5 48t116.5 137h135q-47 -139 -169.5 -220t-287.5 -81q-192 0 -284.5 112.5t-63.5 304.5l51 332q31 190 161.5 304t322.5 114zM905 641l15 88q23 142 -36.5 222.5
t-193.5 80.5q-137 0 -222.5 -79.5t-107.5 -223.5l-14 -88h559z" />
    <glyph glyph-name="f" unicode="f" horiz-adv-x="1024" 
d="M49 -369h-96l20 123h97q162 0 190 162l160 975h-256l18 121h256l33 198q22 133 114 209t232 76h244l-21 -123h-243q-82 0 -130.5 -41t-60.5 -121l-33 -198h410l-18 -121h-410l-160 -975q-22 -132 -114.5 -208.5t-231.5 -76.5z" />
    <glyph glyph-name="g" unicode="g" 
d="M942 934l31 192h135l-184 -1161q-25 -161 -130.5 -247.5t-275.5 -86.5h-319l20 123h322q213 0 247 211l19 113l37 219q-40 -103 -131 -161t-215 -58q-170 0 -253.5 111.5t-54.5 299.5l39 244q29 188 149 301t290 113q121 0 193.5 -56.5t80.5 -156.5zM872 494l37 235
q23 141 -36.5 221t-188.5 80t-214 -79.5t-108 -221.5l-36 -235q-22 -141 37 -220t188 -79t214 79t107 220z" />
    <glyph glyph-name="h" unicode="h" 
d="M745 1147q168 0 252 -106t56 -287l-121 -754h-135l116 737q23 138 -36 216.5t-183 78.5q-127 0 -213.5 -81t-109.5 -222l-115 -729h-135l237 1495h136l-54 -332l-37 -221h5q41 97 130 151t207 54z" />
    <glyph glyph-name="i" unicode="i" horiz-adv-x="1024" 
d="M672 1337q-60 0 -90 32t-21 87q7 55 48 88t100 33q60 0 89.5 -32.5t20.5 -88.5q-7 -55 -47.5 -87t-99.5 -32zM819 0h-719l19 123h305l139 881h-264l18 122h400l-158 -1003h279z" />
    <glyph glyph-name="j" unicode="j" horiz-adv-x="819" 
d="M657 1337q-60 0 -89.5 32t-20.5 87q7 55 47.5 88t99.5 33q60 0 90 -32.5t21 -88.5q-7 -55 -48 -87t-100 -32zM45 -369h-135l20 123h136q138 0 222.5 73t106.5 210l152 967h-363l21 122h497l-172 -1089q-31 -189 -160.5 -297.5t-324.5 -108.5z" />
    <glyph glyph-name="k" unicode="k" 
d="M262 0h-135l238 1495h135l-135 -850h237l418 481h162l-469 -544l297 -582h-156l-264 524h-244z" />
    <glyph glyph-name="l" unicode="l" horiz-adv-x="819" 
d="M662 0h-164q-143 0 -211 77.5t-45 215.5l170 1079h-246l20 123h381l-190 -1202q-13 -82 23 -126t116 -44h164z" />
    <glyph glyph-name="m" unicode="m" horiz-adv-x="1638" 
d="M1235 1147q138 0 200.5 -74t41.5 -201l-140 -872h-135l139 866q12 79 -32.5 125.5t-132.5 46.5q-95 0 -162.5 -47t-79.5 -125l-139 -866h-129l137 866q12 79 -36 125.5t-138 46.5t-155 -47t-77 -125l-139 -866h-135l180 1126h123l-23 -145h9q27 76 103.5 121t182.5 45
q102 0 162 -44t74 -122h4q29 75 111 120.5t186 45.5z" />
    <glyph glyph-name="n" unicode="n" 
d="M745 1147q168 0 252 -106t56 -287l-121 -754h-135l116 737q23 138 -36 216.5t-183 78.5q-127 0 -213.5 -81t-109.5 -222l-115 -729h-135l178 1126h135l-33 -202q40 105 130 164t214 59z" />
    <glyph glyph-name="o" unicode="o" 
d="M520 -20q-190 0 -283.5 112t-62.5 305l51 332q31 192 162 305t320 113t283 -113t63 -305l-52 -332q-31 -193 -160.5 -305t-320.5 -112zM539 98q133 0 217.5 78t109.5 221l52 332q23 142 -38 220.5t-192 78.5q-132 0 -217.5 -78t-110.5 -221l-51 -332
q-23 -142 37.5 -220.5t192.5 -78.5z" />
    <glyph glyph-name="p" unicode="p" 
d="M750 1147q169 0 251.5 -112t51.5 -300l-54 -342q-29 -189 -148 -301t-288 -112q-116 0 -189.5 52.5t-88.5 145.5h-2l-29 -194l-57 -353h-136l238 1495h135l-28 -178h2q43 93 133.5 146t208.5 53zM866 397l52 334q23 141 -36.5 220t-187.5 79q-129 0 -214.5 -79
t-108.5 -220l-52 -334q-23 -142 37.5 -221.5t188.5 -79.5q129 0 212.5 79t108.5 222z" />
    <glyph glyph-name="q" unicode="q" 
d="M942 948l29 178h135l-238 -1495h-135l51 316l39 231h-4q-43 -92 -134 -145t-208 -53q-169 0 -251.5 112t-51.5 301l53 342q29 187 148.5 299.5t288.5 112.5q116 0 189.5 -53t88.5 -146zM856 397l51 334q25 141 -35.5 220t-189.5 79t-213 -78.5t-109 -220.5l-51 -334
q-23 -142 37 -221.5t189 -79.5t214 80t107 221z" />
    <glyph glyph-name="r" unicode="r" 
d="M776 1147q180 0 266.5 -110.5t57.5 -301.5l-10 -63h-142l10 57q23 144 -36.5 223.5t-190.5 79.5q-129 0 -214.5 -80t-108.5 -223l-115 -729h-135l178 1126h133l-29 -178h4q46 97 130.5 148t201.5 51z" />
    <glyph glyph-name="s" unicode="s" 
d="M584 -20h-117q-159 0 -247.5 81t-82.5 215h135q2 -78 59.5 -127t155.5 -49h117q110 0 179.5 52.5t84.5 142.5q12 83 -30.5 138t-130.5 67l-187 28q-307 48 -264 308q23 145 133.5 228t284.5 83h82q155 0 240.5 -76t82.5 -205h-135q0 72 -56 116t-151 44h-84
q-110 0 -179 -50.5t-83 -139.5q-11 -80 29.5 -125t138.5 -60l184 -28q149 -23 216 -105.5t47 -218.5q-25 -149 -136 -234t-286 -85z" />
    <glyph glyph-name="t" unicode="t" horiz-adv-x="1024" 
d="M739 0h-196q-137 0 -199.5 71t-40.5 201l115 732h-271l21 122h270l49 308h136l-50 -308h377l-18 -122h-379l-115 -732q-24 -149 123 -149h197z" />
    <glyph glyph-name="u" unicode="u" 
d="M518 -20q-187 0 -278 113t-60 308l115 725h135l-115 -725q-23 -142 37 -221.5t187 -79.5q128 0 214 79.5t109 221.5l113 725h135l-113 -725q-31 -194 -160 -307.5t-319 -113.5z" />
    <glyph glyph-name="v" unicode="v" 
d="M614 0h-176l-258 1126h133l193 -807q10 -44 33 -217q70 157 102 217l444 807h144z" />
    <glyph glyph-name="w" unicode="w" 
d="M348 0h-162l-8 1126h119l-2 -821q0 -99 -4 -205q21 78 63 203l279 823h135l18 -823v-203q21 81 58 205l262 821h121l-369 -1126h-162l-8 793q-2 74 -2 223q-11 -37 -74 -223z" />
    <glyph glyph-name="x" unicode="x" 
d="M209 0h-162l490 582l-287 544h153l191 -385q20 -45 37 -79q9 16 55 79l309 385h162l-459 -553l303 -573h-153l-203 406q-5 12 -21 43.5t-20 42.5q-5 -7 -28.5 -39t-36.5 -47z" />
    <glyph glyph-name="y" unicode="y" 
d="M866 500l99 626h135l-185 -1161q-26 -161 -131 -247.5t-274 -86.5h-322l21 123h321q216 0 250 211l23 141l33 199q-40 -105 -131.5 -164t-215.5 -59q-168 0 -251 106t-54 287l103 651h135l-100 -634q-22 -139 37 -217t184 -78q126 0 213 81t110 222z" />
    <glyph glyph-name="z" unicode="z" 
d="M938 0h-827l20 131l782 873h-626l18 122h787l-21 -131l-788 -872h675z" />
    <glyph glyph-name="braceleft" unicode="{" 
d="M1110 1700h104l-18 -121h-104q-97 0 -161 -53.5t-71 -145.5l-35 -379q-9 -103 -65.5 -173.5t-145.5 -90.5q81 -21 116.5 -92t12.5 -174l-88 -377q-21 -92 26 -145t144 -53h105l-19 -121h-104q-164 0 -242 84.5t-45 234.5l88 377q24 113 -11 159t-163 46h-225l20 121h226
q127 0 176.5 44.5t58.5 159.5l35 379q13 150 117.5 235t267.5 85z" />
    <glyph glyph-name="bar" unicode="|" 
d="M557 -225h-135l303 1925h135z" />
    <glyph glyph-name="braceright" unicode="}" 
d="M848 797h225l-20 -121h-226q-128 0 -177 -46t-58 -159l-35 -377q-15 -150 -119.5 -234.5t-267.5 -84.5h-102l18 121h102q98 0 161.5 52.5t72.5 145.5l35 377q9 103 66.5 174.5t146.5 91.5q-83 20 -118.5 90.5t-12.5 173.5l86 379q21 93 -25.5 146t-144.5 53h-103l19 121
h102q164 0 243 -85t44 -235l-86 -379q-24 -115 12 -159.5t162 -44.5z" />
    <glyph glyph-name="asciitilde" unicode="~" 
d="M287 528h-125l22 150q19 110 93.5 176t181.5 66q57 0 101.5 -21t69.5 -52.5t49.5 -68t43 -68t49 -52.5t68.5 -21q51 0 84.5 34t42.5 95l22 149h125l-22 -149q-17 -111 -89.5 -176.5t-177.5 -65.5q-51 0 -91.5 15.5t-66.5 40.5t-47 55t-39 60.5t-36.5 55.5t-44.5 40.5
t-58 15.5q-54 0 -88 -33.5t-45 -95.5z" />
    <glyph glyph-name="uni2421" unicode="&#x2421;" 
d="M147 502h-116l80 493h114q70 0 106 -40.5t25 -108.5l-30 -195q-10 -67 -60 -108t-119 -41zM717 502h-273l80 493h271l-7 -41h-227l-26 -176h202l-6 -39h-203l-32 -196h227zM1174 502h-279l78 493h45l-72 -452h234zM147 954l-65 -411h72q51 0 85.5 28.5t41.5 79.5l30 195
q7 51 -17.5 79.5t-74.5 28.5h-72z" />
    <glyph glyph-name="uni2421" 
d="M147 502h-116l80 493h114q70 0 106 -40.5t25 -108.5l-30 -195q-10 -67 -60 -108t-119 -41zM717 502h-273l80 493h271l-7 -41h-227l-26 -176h202l-6 -39h-203l-32 -196h227zM1174 502h-279l78 493h45l-72 -452h234zM147 954l-65 -411h72q51 0 85.5 28.5t41.5 79.5l30 195
q7 51 -17.5 79.5t-74.5 28.5h-72z" />
    <glyph glyph-name="uni00A0" unicode="&#xa0;" horiz-adv-x="819" 
 />
    <glyph glyph-name="exclamdown" unicode="&#xa1;" horiz-adv-x="819" 
d="M473 903h-22q-54 0 -82 33t-19 86q7 52 45 83.5t94 31.5h23q54 0 81.5 -31.5t20.5 -83.5q-9 -53 -47.5 -86t-93.5 -33zM346 -369h-162l47 299l160 768h88l-84 -768z" />
    <glyph glyph-name="cent" unicode="&#xa2;" 
d="M1069 758h-135q15 110 -33 178.5t-149 83.5l-146 -914q106 15 176 84t90 179h136q-28 -162 -141 -266t-279 -121l-43 -269h-99l43 269q-175 11 -259.5 121t-55.5 294l51 332q29 181 149.5 292.5t297.5 123.5l43 268h98l-43 -268q162 -17 243 -120.5t56 -266.5zM362 729
l-53 -332q-20 -128 33 -205t166 -88l145 918q-117 -11 -194 -87.5t-97 -205.5z" />
    <glyph glyph-name="sterling" unicode="&#xa3;" 
d="M1145 1126h-139q19 124 -52 196.5t-211 72.5q-129 0 -214 -73t-105 -202q-8 -31 -5 -69t7 -62.5t15 -57t20.5 -55t23 -55.5t21.5 -57h416l-19 -121h-371q6 -62 -6 -139q-19 -118 -110.5 -222.5t-192.5 -160.5h801l-18 -121h-943l23 143q104 62 196.5 161t106.5 194
q12 85 4 145h-227l18 121h178q-7 19 -17.5 46t-18.5 47t-17 45.5t-14 49.5t-9 51.5t-3 58.5t6 64q28 180 156 285t319 105q202 0 304.5 -104.5t76.5 -285.5z" />
    <glyph glyph-name="currency" unicode="&#xa4;" 
d="M1061 764q-23 -135 -119 -246l145 -172l-106 -94l-147 176q-113 -72 -250 -72q-136 0 -230 72l-200 -174l-80 96l196 172q-60 112 -37 242q24 144 117 244l-147 176l106 94l152 -180q112 73 250 73q136 0 231 -73l199 174l80 -94l-199 -172q61 -113 39 -242zM356 764
q-19 -125 51 -209t193 -84t219.5 84t116.5 209q20 124 -49.5 208.5t-192.5 84.5q-124 0 -220 -84t-118 -209z" />
    <glyph glyph-name="yen" unicode="&#xa5;" 
d="M1143 1495h143l-532 -819h370l-20 -123h-424l-25 -154h424l-20 -123h-424l-43 -276h-135l43 276h-424l20 123h424l25 154h-424l20 123h369l-272 819h135l217 -651q36 -99 43 -142q3 6 17.5 31t32.5 54t36 57z" />
    <glyph glyph-name="brokenbar" unicode="&#xa6;" 
d="M737 922h-135l123 778h135zM557 -225h-135l123 778h135z" />
    <glyph glyph-name="section" unicode="&#xa7;" 
d="M535 -317h-107q-159 0 -253 84.5t-91 220.5h139q5 -81 65.5 -133t157.5 -52h107q114 0 187 54.5t87 144.5q12 84 -31 143.5t-132 79.5l-201 47q-137 31 -205.5 120t-48.5 212q17 112 97.5 194.5t191.5 104.5l2 10q-41 5 -78 24t-68 52.5t-44.5 88.5t-2.5 122
q22 145 137 230.5t289 85.5h76q156 0 247 -78.5t89 -206.5h-139q-3 73 -61.5 118.5t-153.5 45.5h-76q-110 0 -184 -53t-87 -142q-12 -76 33.5 -130t140.5 -77l197 -45q130 -31 196 -120t46 -212q-17 -115 -97 -196.5t-188 -93.5l-2 -13q40 -6 77 -27t68.5 -56.5t45 -91.5
t2.5 -124q-23 -151 -139 -241t-289 -90zM506 395l143 -33q90 -22 172 51t99 187q13 83 -27.5 144.5t-118.5 80.5l-145 33q-90 22 -177 -53.5t-104 -186.5q-14 -84 28.5 -143.5t129.5 -79.5z" />
    <glyph glyph-name="dieresis" unicode="&#xa8;" 
d="M516 1337q-54 0 -80.5 32t-17.5 87t45.5 88t89.5 33t79 -33t17 -88q-7 -55 -43.5 -87t-89.5 -32zM961 1337q-53 0 -80.5 32t-18.5 87q9 56 46 88.5t91 32.5q53 0 78.5 -33t16.5 -88q-7 -55 -43 -87t-90 -32z" />
    <glyph glyph-name="copyright" unicode="&#xa9;" 
d="M559 225q-232 0 -351 134.5t-85 357.5l49 307q35 223 197.5 357.5t394.5 134.5t351.5 -134.5t84.5 -357.5l-49 -307q-35 -223 -197.5 -357.5t-394.5 -134.5zM573 313q186 0 318.5 111.5t161.5 292.5l49 307q29 181 -68.5 292t-283.5 111t-318.5 -111t-161.5 -292
l-49 -307q-29 -181 68.5 -292.5t283.5 -111.5zM614 502q-109 0 -166 65t-40 170l43 267q17 106 94 170.5t186 64.5q108 0 165 -65t40 -170h-109q9 63 -21.5 102t-90.5 39t-103.5 -39t-52.5 -102l-43 -267q-10 -63 21.5 -102t91.5 -39t102 39t53 102h109q-17 -106 -94 -170.5
t-185 -64.5z" />
    <glyph glyph-name="ordfeminine" unicode="&#xaa;" 
d="M774 1516q105 0 159.5 -50.5t41.5 -134.5l-64 -399h-77l18 112h-6q-29 -55 -92.5 -88.5t-137.5 -33.5q-91 0 -136 47t-31 127q12 79 74.5 126.5t154.5 47.5h203l10 61q9 52 -26 83.5t-101 31.5q-59 0 -103 -25.5t-57 -68.5h-84q25 75 93 119.5t161 44.5zM860 1137l10 63
h-202q-55 0 -91.5 -28t-44.5 -76q-9 -51 24 -80t97 -29q84 0 139.5 40.5t67.5 109.5z" />
    <glyph glyph-name="guillemotleft" unicode="&#xab;" 
d="M588 82h-156l-346 491l498 492h166l-506 -496zM1061 82h-154l-348 491l498 492h168l-506 -496z" />
    <glyph glyph-name="logicalnot" unicode="&#xac;" 
d="M1063 432h-131l45 279h-811l18 120h942z" />
    <glyph glyph-name="uni00AD" unicode="&#xad;" 
d="M950 616h-655l18 121h656z" />
    <glyph glyph-name="registered" unicode="&#xae;" 
d="M764 1516q232 0 351.5 -134.5t84.5 -357.5l-49 -307q-35 -223 -197.5 -357.5t-394.5 -134.5t-351.5 134.5t-84.5 357.5l49 307q35 223 197.5 357.5t394.5 134.5zM1053 717l49 307q29 181 -68.5 292t-283.5 111t-318.5 -111t-161.5 -292l-49 -307q-29 -181 68.5 -292.5
t283.5 -111.5t318.5 111.5t161.5 292.5zM506 1229h223q103 0 156.5 -57.5t36.5 -153.5q-12 -70 -54.5 -122t-107.5 -75l92 -309h-111l-79 293h-117l-47 -293h-105zM823 1016q9 56 -20.5 89.5t-87.5 33.5h-119l-39 -244h119q58 0 98 32.5t49 88.5z" />
    <glyph glyph-name="macron" unicode="&#xaf;" 
d="M1049 1389h-607l19 114h606z" />
    <glyph glyph-name="degree" unicode="&#xb0;" 
d="M670 922q-135 0 -205.5 82t-48.5 215q22 135 117.5 216t230.5 81t205.5 -82t48.5 -215q-22 -134 -117.5 -215.5t-230.5 -81.5zM684 1012q89 0 151.5 57t77.5 150q15 94 -29.5 151t-133.5 57q-88 0 -151.5 -57t-78.5 -151q-15 -92 30.5 -149.5t133.5 -57.5z" />
    <glyph glyph-name="plusminus" unicode="&#xb1;" 
d="M995 0h-942l19 113h401l82 516h-405l18 121h405l66 417h133l-65 -417h411l-18 -121h-412l-84 -516h410z" />
    <glyph glyph-name="uni00B2" unicode="&#xb2;" 
d="M967 829h-582l23 134l354 245q66 46 110.5 106.5t51.5 117.5q13 88 -26.5 138t-121.5 50t-138 -52t-69 -141h-112q23 135 114 214t222 79q134 0 199.5 -76t45.5 -206q-14 -82 -74.5 -166.5t-152.5 -147.5l-289 -192h461z" />
    <glyph glyph-name="uni00B3" unicode="&#xb3;" 
d="M528 1700h469l-18 -117l-231 -219q114 -11 169.5 -84t36.5 -190q-20 -129 -110 -205t-223 -76q-134 0 -202 76t-48 205h112q-14 -83 27.5 -132t126.5 -49q80 0 136 49t69 132q12 83 -28 132.5t-120 49.5h-61l18 110l226 217h-365z" />
    <glyph glyph-name="acute" unicode="&#xb4;" 
d="M764 1321h-150l263 287h159z" />
    <glyph glyph-name="uni00B5" unicode="&#xb5;" 
d="M864 397l115 729h135l-178 -1126h-133l28 178h-2q-39 -94 -117.5 -146t-189.5 -52q-110 0 -169.5 52t-67.5 146l-29 -194l-57 -353h-136l238 1495h135l-114 -729q-23 -143 34.5 -222t186.5 -79q128 0 213 79.5t108 221.5z" />
    <glyph glyph-name="paragraph" unicode="&#xb6;" 
d="M518 -369h-127l160 1004q-164 0 -250 88.5t-63 234.5l34 213q23 146 137.5 235t278.5 89h127zM866 -369h-127l297 1864h127z" />
    <glyph glyph-name="periodcentered" unicode="&#xb7;" 
d="M317 539q-72 0 -108 42.5t-25 114.5q12 73 62.5 116.5t122.5 43.5q73 0 108 -43t23 -117q-10 -72 -60.5 -114.5t-122.5 -42.5z" />
    <glyph glyph-name="cedilla" unicode="&#xb8;" 
d="M440 -406h-168l15 89h155q46 0 79 23.5t38 55.5q8 45 -50.5 74t-162.5 29l100 188h99l-64 -123q39 -4 76 -16t69.5 -32t49 -53t10.5 -73q-9 -68 -79 -115t-167 -47z" />
    <glyph glyph-name="uni00B9" unicode="&#xb9;" 
d="M971 829h-594l16 103h264l109 674l-279 -189l21 127l225 156h160l-123 -768h217z" />
    <glyph glyph-name="ordmasculine" unicode="&#xba;" 
d="M668 911q-103 0 -156.5 56t-38.5 147l31 195q13 91 85 146.5t175 55.5q101 0 155.5 -55.5t41.5 -146.5l-31 -195q-15 -91 -87 -147t-175 -56zM680 981q65 0 111 36.5t55 96.5l31 195q9 60 -25 96.5t-100 36.5q-65 0 -111 -36.5t-55 -96.5l-31 -195q-9 -60 25 -96.5
t100 -36.5z" />
    <glyph glyph-name="guillemotright" unicode="&#xbb;" 
d="M172 82h-166l502 502l-340 481h154l348 -492zM645 82h-166l504 502l-342 481h156l346 -492z" />
    <glyph glyph-name="onequarter" unicode="&#xbc;" 
d="M666 834l487 661h115l-1102 -1495h-113l611 829h-562l15 91h241l82 505q-32 -32 -80 -69l-145 -111l21 125l165 125h156l-94 -575h217zM682 233h260l33 203h104l-69 -436h-105l23 143h-365l25 152l323 371h117l-340 -400z" />
    <glyph glyph-name="onehalf" unicode="&#xbd;" 
d="M705 887l448 608h115l-1102 -1495h-113l611 829h-551l14 91h242l82 505q-32 -32 -80 -69l-146 -111l21 125l164 125h155l-92 -575h238zM928 676q107 0 164 -61t43 -158q-12 -70 -71 -136t-159 -122l-186 -103l-2 -12q111 6 133 6h242l-15 -90h-504l19 115l262 149
q159 89 174 189q9 60 -22.5 96.5t-92.5 36.5q-64 0 -109 -39.5t-56 -104.5h-105q19 105 97 169.5t188 64.5z" />
    <glyph glyph-name="threequarters" unicode="&#xbe;" 
d="M53 0l1100 1495h115l-1102 -1495h-113zM354 819q-112 0 -171 59t-44 156h105q-9 -57 25.5 -91t99.5 -34q64 0 109 36t54 95q9 57 -24 91t-96 34h-62l17 101l196 139h-319l14 90h422l-16 -100l-205 -150q93 -8 141.5 -63.5t36.5 -141.5q-17 -100 -95 -160.5t-188 -60.5z
M682 233h260l33 203h104l-69 -436h-105l23 143h-365l25 152l323 371h117l-340 -400z" />
    <glyph glyph-name="questiondown" unicode="&#xbf;" 
d="M762 905h-23q-55 0 -83.5 32t-20.5 85q9 53 47 85t92 32h23q56 0 83.5 -31.5t18.5 -85.5q-8 -53 -45.5 -85t-91.5 -32zM764 -346h-250q-205 0 -308.5 110.5t-72.5 301.5q28 181 157.5 289.5t317.5 113.5l39 238h135l-57 -355h-102q-142 0 -237.5 -76.5t-117.5 -209.5
q-22 -134 50.5 -210.5t216.5 -76.5h249z" />
    <glyph glyph-name="Agrave" unicode="&#xc0;" 
d="M881 1659h-138l-186 287h148zM176 0h-141l639 1495h176l164 -1495h-133l-43 418h-488zM629 1081l-232 -546h430l-57 546q-9 89 -22 303q-27 -90 -119 -303z" />
    <glyph glyph-name="Aacute" unicode="&#xc1;" 
d="M840 1659h-150l262 287h160zM176 0h-141l639 1495h176l164 -1495h-133l-43 418h-488zM629 1081l-232 -546h430l-57 546q-9 89 -22 303q-27 -90 -119 -303z" />
    <glyph glyph-name="Acircumflex" unicode="&#xc2;" 
d="M604 1659h-149l305 287h141l217 -287h-137l-158 199zM176 0h-141l639 1495h176l164 -1495h-133l-43 418h-488zM629 1081l-232 -546h430l-57 546q-9 89 -22 303q-27 -90 -119 -303z" />
    <glyph glyph-name="Atilde" unicode="&#xc3;" 
d="M938 1669q-44 0 -78 17.5t-55.5 42.5t-40 50t-40.5 42.5t-48 17.5q-40 0 -67.5 -25t-33.5 -67l-10 -68h-102l10 68q13 88 71 138t144 50q44 0 78 -17.5t55 -42.5t39.5 -50t40.5 -42.5t49 -17.5q37 0 61.5 25t30.5 68l13 67h102l-12 -67q-13 -89 -69 -139t-138 -50zM176 0
h-141l639 1495h176l164 -1495h-133l-43 418h-488zM629 1081l-232 -546h430l-57 546q-9 89 -22 303q-27 -90 -119 -303z" />
    <glyph glyph-name="Adieresis" unicode="&#xc4;" 
d="M571 1683q-54 0 -80.5 32.5t-17.5 86.5q9 55 45.5 88t89.5 33t80 -33t17 -88q-7 -54 -44 -86.5t-90 -32.5zM1016 1683q-53 0 -80 32.5t-18 86.5q9 56 46 88.5t91 32.5q53 0 78.5 -33t15.5 -88q-8 -54 -43.5 -86.5t-89.5 -32.5zM176 0h-141l639 1495h176l164 -1495h-133
l-43 418h-488zM629 1081l-232 -546h430l-57 546q-9 89 -22 303q-27 -90 -119 -303z" />
    <glyph glyph-name="Aring" unicode="&#xc5;" 
d="M776 1585q-101 0 -154.5 60t-39.5 157q15 97 88 157t174 60t154 -60t38 -157q-13 -96 -85.5 -156.5t-174.5 -60.5zM788 1673q59 0 100 35.5t50 93.5q10 58 -20 94.5t-87 36.5q-58 0 -99 -36t-52 -95q-9 -58 21 -93.5t87 -35.5zM176 0h-141l639 1495h176l164 -1495h-133
l-43 418h-488zM629 1081l-232 -546h430l-57 546q-9 89 -22 303q-27 -90 -119 -303z" />
    <glyph glyph-name="AE" unicode="&#xc6;" 
d="M113 0h-138l588 1495h750l-21 -123h-405l-84 -534h342l-19 -123h-342l-94 -592h406l-21 -123h-536l67 430h-323zM647 1372l-319 -825h297l131 825h-109z" />
    <glyph glyph-name="Ccedilla" unicode="&#xc7;" 
d="M1133 1085h-136q23 145 -41.5 227.5t-199.5 82.5t-224 -78.5t-112 -218.5l-111 -701q-22 -139 42.5 -218t199.5 -79q136 0 226.5 82.5t113.5 227.5h135q-32 -193 -161.5 -309.5t-317.5 -120.5l-27 -50q40 -4 77.5 -16t70 -32t49 -53t10.5 -73q-11 -69 -80 -115.5
t-166 -46.5h-168l15 89h155q46 0 79 23.5t38 55.5q8 45 -50.5 74t-162.5 29l64 121q-156 23 -230.5 131.5t-46.5 279.5l111 701q31 193 163 305.5t326 112.5q195 0 292.5 -117t66.5 -314z" />
    <glyph glyph-name="Egrave" unicode="&#xc8;" 
d="M922 1659h-138l-186 287h147zM963 0h-824l238 1495h823l-20 -123h-688l-84 -530h616l-18 -123h-619l-94 -596h688z" />
    <glyph glyph-name="Eacute" unicode="&#xc9;" 
d="M881 1659h-150l262 287h160zM963 0h-824l238 1495h823l-20 -123h-688l-84 -530h616l-18 -123h-619l-94 -596h688z" />
    <glyph glyph-name="Ecircumflex" unicode="&#xca;" 
d="M645 1659h-149l305 287h141l217 -287h-137l-158 199zM963 0h-824l238 1495h823l-20 -123h-688l-84 -530h616l-18 -123h-619l-94 -596h688z" />
    <glyph glyph-name="Edieresis" unicode="&#xcb;" 
d="M612 1683q-54 0 -80.5 32.5t-17.5 86.5q9 55 45.5 88t89.5 33t79.5 -33t16.5 -88q-7 -54 -43.5 -86.5t-89.5 -32.5zM1057 1683q-53 0 -80.5 32.5t-18.5 86.5q9 55 46.5 88t91.5 33q53 0 78.5 -33t15.5 -88q-8 -54 -43.5 -86.5t-89.5 -32.5zM963 0h-824l238 1495h823
l-20 -123h-688l-84 -530h616l-18 -123h-619l-94 -596h688z" />
    <glyph glyph-name="Igrave" unicode="&#xcc;" 
d="M881 1659h-138l-186 287h148zM905 0h-762l19 123h315l197 1249h-314l21 123h762l-21 -123h-311l-199 -1249h312z" />
    <glyph glyph-name="Iacute" unicode="&#xcd;" 
d="M840 1659h-150l262 287h160zM905 0h-762l19 123h315l197 1249h-314l21 123h762l-21 -123h-311l-199 -1249h312z" />
    <glyph glyph-name="Icircumflex" unicode="&#xce;" 
d="M604 1659h-149l305 287h141l217 -287h-137l-158 199zM905 0h-762l19 123h315l197 1249h-314l21 123h762l-21 -123h-311l-199 -1249h312z" />
    <glyph glyph-name="Idieresis" unicode="&#xcf;" 
d="M571 1683q-54 0 -80.5 32.5t-17.5 86.5q9 55 45.5 88t89.5 33t80 -33t17 -88q-7 -54 -44 -86.5t-90 -32.5zM1016 1683q-53 0 -80 32.5t-18 86.5q9 56 46 88.5t91 32.5q53 0 78.5 -33t15.5 -88q-8 -54 -43.5 -86.5t-89.5 -32.5zM905 0h-762l19 123h315l197 1249h-314
l21 123h762l-21 -123h-311l-199 -1249h312z" />
    <glyph glyph-name="Eth" unicode="&#xd0;" 
d="M358 1495h351q212 0 319.5 -123.5t75.5 -327.5l-94 -593q-32 -204 -179.5 -327.5t-359.5 -123.5h-350l112 707h-213v114h232zM874 451l95 593q23 150 -53.5 239t-227.5 89h-215l-88 -551h209v-114h-227l-93 -584h218q151 0 254 88.5t128 239.5z" />
    <glyph glyph-name="Ntilde" unicode="&#xd1;" 
d="M938 1669q-44 0 -78 17.5t-55.5 42.5t-40 50t-40.5 42.5t-48 17.5q-40 0 -67.5 -25t-33.5 -67l-10 -68h-102l10 68q13 88 71 138t144 50q44 0 78 -17.5t55 -42.5t39.5 -50t40.5 -42.5t49 -17.5q37 0 61.5 25t30.5 68l13 67h102l-12 -67q-13 -89 -69 -139t-138 -50zM250 0
h-131l237 1495h181l301 -1341q17 197 36 317l162 1024h131l-237 -1495h-180l-297 1341q-15 -157 -41 -317z" />
    <glyph glyph-name="Ograve" unicode="&#xd2;" 
d="M881 1659h-138l-186 287h148zM520 -20q-190 0 -283.5 112t-62.5 305l111 701q31 192 160.5 305t318.5 113t283 -113t65 -305l-111 -701q-31 -193 -160.5 -305t-320.5 -112zM539 100q134 0 219 77.5t108 219.5l111 701q22 141 -39.5 219t-192.5 78q-132 0 -217 -78
t-108 -219l-111 -701q-23 -142 37.5 -219.5t192.5 -77.5z" />
    <glyph glyph-name="Oacute" unicode="&#xd3;" 
d="M840 1659h-150l262 287h160zM520 -20q-190 0 -283.5 112t-62.5 305l111 701q31 192 160.5 305t318.5 113t283 -113t65 -305l-111 -701q-31 -193 -160.5 -305t-320.5 -112zM539 100q134 0 219 77.5t108 219.5l111 701q22 141 -39.5 219t-192.5 78q-132 0 -217 -78
t-108 -219l-111 -701q-23 -142 37.5 -219.5t192.5 -77.5z" />
    <glyph glyph-name="Ocircumflex" unicode="&#xd4;" 
d="M604 1659h-149l305 287h141l217 -287h-137l-158 199zM520 -20q-190 0 -283.5 112t-62.5 305l111 701q31 192 160.5 305t318.5 113t283 -113t65 -305l-111 -701q-31 -193 -160.5 -305t-320.5 -112zM539 100q134 0 219 77.5t108 219.5l111 701q22 141 -39.5 219t-192.5 78
q-132 0 -217 -78t-108 -219l-111 -701q-23 -142 37.5 -219.5t192.5 -77.5z" />
    <glyph glyph-name="Otilde" unicode="&#xd5;" 
d="M938 1669q-44 0 -78 17.5t-55.5 42.5t-40 50t-40.5 42.5t-48 17.5q-40 0 -67.5 -25t-33.5 -67l-10 -68h-102l10 68q13 88 71 138t144 50q44 0 78 -17.5t55 -42.5t39.5 -50t40.5 -42.5t49 -17.5q37 0 61.5 25t30.5 68l13 67h102l-12 -67q-13 -89 -69 -139t-138 -50z
M520 -20q-190 0 -283.5 112t-62.5 305l111 701q31 192 160.5 305t318.5 113t283 -113t65 -305l-111 -701q-31 -193 -160.5 -305t-320.5 -112zM539 100q134 0 219 77.5t108 219.5l111 701q22 141 -39.5 219t-192.5 78q-132 0 -217 -78t-108 -219l-111 -701
q-23 -142 37.5 -219.5t192.5 -77.5z" />
    <glyph glyph-name="Odieresis" unicode="&#xd6;" 
d="M571 1683q-54 0 -80.5 32.5t-17.5 86.5q9 55 45.5 88t89.5 33t80 -33t17 -88q-7 -54 -44 -86.5t-90 -32.5zM1016 1683q-53 0 -80 32.5t-18 86.5q9 56 46 88.5t91 32.5q53 0 78.5 -33t15.5 -88q-8 -54 -43.5 -86.5t-89.5 -32.5zM520 -20q-190 0 -283.5 112t-62.5 305
l111 701q31 192 160.5 305t318.5 113t283 -113t65 -305l-111 -701q-31 -193 -160.5 -305t-320.5 -112zM539 100q134 0 219 77.5t108 219.5l111 701q22 141 -39.5 219t-192.5 78q-132 0 -217 -78t-108 -219l-111 -701q-23 -142 37.5 -219.5t192.5 -77.5z" />
    <glyph glyph-name="multiply" unicode="&#xd7;" 
d="M618 590l-352 -305l-76 90l353 303l-252 301l96 82l252 -301l354 309l76 -90l-354 -307l254 -301l-97 -82z" />
    <glyph glyph-name="Oslash" unicode="&#xd8;" 
d="M1161 1536h131l-184 -256q19 -82 4 -182l-111 -701q-32 -193 -161 -305t-320 -112q-186 0 -278 106l-123 -168h-131l196 270q-28 91 -10 209l111 701q31 192 160.5 305t318.5 113q201 0 293 -125zM420 1098l-111 -701q-4 -28 -4 -43l662 914q-51 127 -222 127
q-132 0 -217 -78t-108 -219zM866 397l111 701v4l-649 -895q54 -107 211 -107q134 0 219 77.5t108 219.5z" />
    <glyph glyph-name="Ugrave" unicode="&#xd9;" 
d="M881 1659h-138l-186 287h148zM522 -20q-191 0 -282 112t-60 305l174 1098h135l-174 -1098q-23 -140 36 -218.5t192 -78.5q129 0 212 79t105 218l174 1098h135l-174 -1098q-31 -193 -157 -305t-316 -112z" />
    <glyph glyph-name="Uacute" unicode="&#xda;" 
d="M840 1659h-150l262 287h160zM522 -20q-191 0 -282 112t-60 305l174 1098h135l-174 -1098q-23 -140 36 -218.5t192 -78.5q129 0 212 79t105 218l174 1098h135l-174 -1098q-31 -193 -157 -305t-316 -112z" />
    <glyph glyph-name="Ucircumflex" unicode="&#xdb;" 
d="M604 1659h-149l305 287h141l217 -287h-137l-158 199zM522 -20q-191 0 -282 112t-60 305l174 1098h135l-174 -1098q-23 -140 36 -218.5t192 -78.5q129 0 212 79t105 218l174 1098h135l-174 -1098q-31 -193 -157 -305t-316 -112z" />
    <glyph glyph-name="Udieresis" unicode="&#xdc;" 
d="M571 1683q-54 0 -80.5 32.5t-17.5 86.5q9 55 45.5 88t89.5 33t80 -33t17 -88q-7 -54 -44 -86.5t-90 -32.5zM1016 1683q-53 0 -80 32.5t-18 86.5q9 56 46 88.5t91 32.5q53 0 78.5 -33t15.5 -88q-8 -54 -43.5 -86.5t-89.5 -32.5zM522 -20q-191 0 -282 112t-60 305l174 1098
h135l-174 -1098q-23 -140 36 -218.5t192 -78.5q129 0 212 79t105 218l174 1098h135l-174 -1098q-31 -193 -157 -305t-316 -112z" />
    <glyph glyph-name="Yacute" unicode="&#xdd;" 
d="M840 1659h-150l262 287h160zM592 0h-135l90 567l-309 928h135l217 -651q36 -99 43 -142q3 6 17.5 31t32.5 54t36 57l424 651h143l-604 -928z" />
    <glyph glyph-name="Thorn" unicode="&#xde;" 
d="M248 0h-135l237 1495h135l-53 -326h344q192 0 289.5 -106t69.5 -285q-28 -180 -158 -285.5t-324 -105.5h-344zM414 1049l-86 -539h344q132 0 218.5 71.5t106.5 196.5q20 126 -44 198.5t-195 72.5h-344z" />
    <glyph glyph-name="germandbls" unicode="&#xdf;" 
d="M1126 1130q-22 -131 -99 -224t-191 -124q120 -28 175 -121.5t33 -234.5q-31 -194 -166 -310t-335 -116h-131l20 123h121q145 0 236.5 78.5t113.5 216.5q23 137 -43.5 213t-212.5 76h-86l19 118h84q126 0 213 78.5t106 204.5q22 132 -39 208.5t-190 76.5
q-127 0 -214.5 -78.5t-109.5 -210.5l-188 -1188q-20 -132 -112.5 -208.5t-233.5 -76.5h-166l20 123h166q166 0 190 162l189 1188q31 186 161 299t316 113q192 0 287 -103t67 -283z" />
    <glyph glyph-name="agrave" unicode="&#xe0;" 
d="M662 1608l176 -287h-138l-186 287h148zM944 948l29 178h135l-178 -1126h-135l28 178h-2q-44 -93 -134.5 -145.5t-207.5 -52.5q-169 0 -251.5 111.5t-53.5 299.5l53 342q31 189 150 301.5t289 112.5q115 0 188 -53t88 -146h2zM856 395l53 334q22 142 -37.5 221.5
t-189.5 79.5q-128 0 -213 -79.5t-107 -221.5l-53 -334q-22 -141 37.5 -220t188.5 -79t214 79t107 220z" />
    <glyph glyph-name="aacute" unicode="&#xe1;" 
d="M922 1608h159l-272 -287h-150zM944 948l29 178h135l-178 -1126h-135l28 178h-2q-44 -93 -134.5 -145.5t-207.5 -52.5q-169 0 -251.5 111.5t-53.5 299.5l53 342q31 189 150 301.5t289 112.5q115 0 188 -53t88 -146h2zM856 395l53 334q22 142 -37.5 221.5t-189.5 79.5
q-128 0 -213 -79.5t-107 -221.5l-53 -334q-22 -141 37.5 -220t188.5 -79t214 79t107 220z" />
    <glyph glyph-name="acircumflex" unicode="&#xe2;" 
d="M938 1321l-160 199l-217 -199h-149l305 287h141l217 -287h-137zM944 948l29 178h135l-178 -1126h-135l28 178h-2q-44 -93 -134.5 -145.5t-207.5 -52.5q-169 0 -251.5 111.5t-53.5 299.5l53 342q31 189 150 301.5t289 112.5q115 0 188 -53t88 -146h2zM856 395l53 334
q22 142 -37.5 221.5t-189.5 79.5q-128 0 -213 -79.5t-107 -221.5l-53 -334q-22 -141 37.5 -220t188.5 -79t214 79t107 220z" />
    <glyph glyph-name="atilde" unicode="&#xe3;" 
d="M532 1409l-10 -68h-102l10 68q13 88 71 138t144 50q44 0 78 -17.5t55 -42.5t39 -50t40 -42.5t48 -17.5q37 0 62.5 25t31.5 68l13 67h102l-12 -67q-13 -89 -69 -139t-138 -50q-44 0 -78 17.5t-55.5 42.5t-40 50t-40.5 42.5t-48 17.5q-40 0 -67.5 -25t-33.5 -67zM942 948h2
l29 178h135l-178 -1126h-135l28 178h-2q-44 -93 -134.5 -145.5t-207.5 -52.5q-169 0 -251.5 111.5t-53.5 299.5l53 342q31 189 150 301.5t289 112.5q115 0 188 -53t88 -146zM856 395l53 334q22 142 -37.5 221.5t-189.5 79.5q-128 0 -213 -79.5t-107 -221.5l-53 -334
q-22 -141 37.5 -220t188.5 -79t214 79t107 220z" />
    <glyph glyph-name="adieresis" unicode="&#xe4;" 
d="M524 1337q-54 0 -80.5 32t-17.5 87t45.5 88t89.5 33t79 -33t17 -88q-7 -55 -43.5 -87t-89.5 -32zM969 1337q-53 0 -80.5 32t-18.5 87t46.5 88t91.5 33q52 0 77.5 -32.5t16.5 -88.5q-7 -55 -43 -87t-90 -32zM944 948l29 178h135l-178 -1126h-135l28 178h-2
q-44 -93 -134.5 -145.5t-207.5 -52.5q-169 0 -251.5 111.5t-53.5 299.5l53 342q31 189 150 301.5t289 112.5q115 0 188 -53t88 -146h2zM856 395l53 334q22 142 -37.5 221.5t-189.5 79.5q-128 0 -213 -79.5t-107 -221.5l-53 -334q-22 -141 37.5 -220t188.5 -79t214 79
t107 220z" />
    <glyph glyph-name="aring" unicode="&#xe5;" 
d="M733 1253q-101 0 -154.5 60t-39.5 157q17 97 89.5 156.5t174.5 59.5t154.5 -59.5t35.5 -156.5q-13 -96 -85.5 -156.5t-174.5 -60.5zM637 1470q-9 -58 21.5 -94.5t89.5 -36.5q58 0 98 36t49 95t-20 95.5t-87 36.5t-100 -36.5t-51 -95.5zM944 948l29 178h135l-178 -1126
h-135l28 178h-2q-44 -93 -134.5 -145.5t-207.5 -52.5q-169 0 -251.5 111.5t-53.5 299.5l53 342q31 189 150 301.5t289 112.5q115 0 188 -53t88 -146h2zM856 395l53 334q22 142 -37.5 221.5t-189.5 79.5q-128 0 -213 -79.5t-107 -221.5l-53 -334q-22 -141 37.5 -220
t188.5 -79t214 79t107 220z" />
    <glyph glyph-name="ae" unicode="&#xe6;" 
d="M258 -20q-126 0 -186.5 80.5t-38.5 215.5l14 107q20 123 109 195.5t221 72.5h192l29 180q14 91 -24 145t-117 54q-70 0 -122 -45.5t-69 -118.5h-131q26 128 114 204.5t212 76.5q108 0 163.5 -53t57.5 -119h6q24 65 95.5 118.5t172.5 53.5q132 0 195.5 -85.5t40.5 -230.5
l-47 -292h-467l-37 -244q-14 -88 25.5 -142.5t115.5 -54.5q72 0 122.5 44t68.5 118h131q-28 -129 -116 -204.5t-214 -75.5q-108 0 -161.5 52t-55.5 118h-6q-24 -66 -100.5 -118t-192.5 -52zM725 831l-29 -180h336l29 180q14 88 -23 143.5t-112 55.5q-76 0 -131.5 -56
t-69.5 -143zM305 94q77 0 135.5 56.5t71.5 144.5l39 244h-193q-67 0 -115.5 -43.5t-60.5 -112.5l-14 -107q-14 -80 24 -131t113 -51z" />
    <glyph glyph-name="ccedilla" unicode="&#xe7;" 
d="M1069 758h-135q17 126 -47 196t-195 70q-133 0 -220.5 -78t-109.5 -217l-53 -332q-22 -139 41.5 -217t196.5 -78q130 0 216 70.5t109 196.5h136q-31 -178 -162 -283.5t-320 -105.5h-14l-27 -50q40 -4 77 -16t69.5 -32t49.5 -53t11 -73q-11 -69 -80.5 -115.5t-167.5 -46.5
h-168l17 89h156q45 0 78 23.5t38 55.5q8 45 -50.5 74t-162.5 29l68 125q-142 29 -207 136t-39 271l51 332q31 192 163.5 305t324.5 113q189 0 285.5 -105.5t70.5 -283.5z" />
    <glyph glyph-name="egrave" unicode="&#xe8;" 
d="M651 1608l176 -287h-137l-186 287h147zM709 1147q189 0 282 -114t62 -304l-31 -197h-692l-23 -135q-22 -142 38.5 -221.5t195.5 -79.5q109 0 186.5 48t116.5 137h135q-47 -139 -169.5 -220t-287.5 -81q-192 0 -284.5 112.5t-63.5 304.5l51 332q31 190 161.5 304
t322.5 114zM905 641l15 88q23 142 -36.5 222.5t-193.5 80.5q-137 0 -222.5 -79.5t-107.5 -223.5l-14 -88h559z" />
    <glyph glyph-name="eacute" unicode="&#xe9;" 
d="M911 1608h160l-272 -287h-150zM709 1147q189 0 282 -114t62 -304l-31 -197h-692l-23 -135q-22 -142 38.5 -221.5t195.5 -79.5q109 0 186.5 48t116.5 137h135q-47 -139 -169.5 -220t-287.5 -81q-192 0 -284.5 112.5t-63.5 304.5l51 332q31 190 161.5 304t322.5 114z
M905 641l15 88q23 142 -36.5 222.5t-193.5 80.5q-137 0 -222.5 -79.5t-107.5 -223.5l-14 -88h559z" />
    <glyph glyph-name="ecircumflex" unicode="&#xea;" 
d="M928 1321l-160 199l-217 -199h-150l306 287h141l217 -287h-137zM709 1147q189 0 282 -114t62 -304l-31 -197h-692l-23 -135q-22 -142 38.5 -221.5t195.5 -79.5q109 0 186.5 48t116.5 137h135q-47 -139 -169.5 -220t-287.5 -81q-192 0 -284.5 112.5t-63.5 304.5l51 332
q31 190 161.5 304t322.5 114zM905 641l15 88q23 142 -36.5 222.5t-193.5 80.5q-137 0 -222.5 -79.5t-107.5 -223.5l-14 -88h559z" />
    <glyph glyph-name="edieresis" unicode="&#xeb;" 
d="M514 1337q-54 0 -80.5 32t-17.5 87t45.5 88t89.5 33t79 -33t17 -88q-7 -55 -43.5 -87t-89.5 -32zM997 1577q53 0 78.5 -33t16.5 -88q-7 -55 -43.5 -87t-90.5 -32q-53 0 -80 32t-18 87q9 56 46 88.5t91 32.5zM709 1147q189 0 282 -114t62 -304l-31 -197h-692l-23 -135
q-22 -142 38.5 -221.5t195.5 -79.5q109 0 186.5 48t116.5 137h135q-47 -139 -169.5 -220t-287.5 -81q-192 0 -284.5 112.5t-63.5 304.5l51 332q31 190 161.5 304t322.5 114zM905 641l15 88q23 142 -36.5 222.5t-193.5 80.5q-137 0 -222.5 -79.5t-107.5 -223.5l-14 -88h559z
" />
    <glyph glyph-name="igrave" unicode="&#xec;" horiz-adv-x="1024" 
d="M764 1321h-137l-187 287h148zM819 0h-719l19 123h305l139 881h-264l18 122h400l-158 -1003h279z" />
    <glyph glyph-name="iacute" unicode="&#xed;" horiz-adv-x="1024" 
d="M735 1321h-149l262 287h160zM819 0h-719l19 123h305l139 881h-264l18 122h400l-158 -1003h279z" />
    <glyph glyph-name="icircumflex" unicode="&#xee;" horiz-adv-x="1024" 
d="M487 1321h-149l305 287h141l217 -287h-137l-159 199zM819 0h-719l19 123h305l139 881h-264l18 122h400l-158 -1003h279z" />
    <glyph glyph-name="idieresis" unicode="&#xef;" horiz-adv-x="1024" 
d="M451 1337q-54 0 -81 32t-18 87t45.5 88t89.5 33t79.5 -33t17.5 -88q-7 -55 -43.5 -87t-89.5 -32zM895 1337q-53 0 -80 32t-18 87q9 56 46 88.5t91 32.5q52 0 77.5 -32.5t16.5 -88.5q-7 -55 -43 -87t-90 -32zM819 0h-719l19 123h305l139 881h-264l18 122h400l-158 -1003
h279z" />
    <glyph glyph-name="eth" unicode="&#xf0;" 
d="M520 -20q-207 0 -312 125.5t-73 334.5q32 206 169 329.5t333 123.5q94 0 162.5 -48t93.5 -108h16q-22 95 -110 260l-111 199l-375 -160l19 121l305 133l-119 205h139l84 -156l346 144l-16 -121l-276 -117l118 -207q185 -317 140 -594q-34 -211 -179 -337.5t-354 -126.5z
M541 106q144 0 244.5 91.5t125.5 244.5q23 147 -50.5 239.5t-213.5 92.5q-145 0 -245.5 -91t-125.5 -243t47.5 -243t217.5 -91z" />
    <glyph glyph-name="ntilde" unicode="&#xf1;" 
d="M991 1520l13 67h102l-12 -67q-13 -89 -69 -139t-138 -50q-44 0 -78 17.5t-55.5 42.5t-40 50t-40.5 42.5t-48 17.5q-40 0 -67.5 -25t-33.5 -67l-10 -68h-102l10 68q13 88 71 138t144 50q44 0 78 -17.5t55 -42.5t39 -50t40 -42.5t48 -17.5q37 0 62.5 25t31.5 68zM745 1147
q168 0 252 -106t56 -287l-121 -754h-135l116 737q23 138 -36 216.5t-183 78.5q-127 0 -213.5 -81t-109.5 -222l-115 -729h-135l178 1126h135l-33 -202q40 105 130 164t214 59z" />
    <glyph glyph-name="ograve" unicode="&#xf2;" 
d="M827 1321h-137l-186 287h147zM520 -20q-190 0 -283.5 112t-62.5 305l51 332q31 192 162 305t320 113t283 -113t63 -305l-52 -332q-31 -193 -160.5 -305t-320.5 -112zM539 98q133 0 217.5 78t109.5 221l52 332q23 142 -38 220.5t-192 78.5q-132 0 -217.5 -78t-110.5 -221
l-51 -332q-23 -142 37.5 -220.5t192.5 -78.5z" />
    <glyph glyph-name="oacute" unicode="&#xf3;" 
d="M799 1321h-150l262 287h160zM520 -20q-190 0 -283.5 112t-62.5 305l51 332q31 192 162 305t320 113t283 -113t63 -305l-52 -332q-31 -193 -160.5 -305t-320.5 -112zM539 98q133 0 217.5 78t109.5 221l52 332q23 142 -38 220.5t-192 78.5q-132 0 -217.5 -78t-110.5 -221
l-51 -332q-23 -142 37.5 -220.5t192.5 -78.5z" />
    <glyph glyph-name="ocircumflex" unicode="&#xf4;" 
d="M551 1321h-150l306 287h141l217 -287h-137l-160 199zM520 -20q-190 0 -283.5 112t-62.5 305l51 332q31 192 162 305t320 113t283 -113t63 -305l-52 -332q-31 -193 -160.5 -305t-320.5 -112zM539 98q133 0 217.5 78t109.5 221l52 332q23 142 -38 220.5t-192 78.5
q-132 0 -217.5 -78t-110.5 -221l-51 -332q-23 -142 37.5 -220.5t192.5 -78.5z" />
    <glyph glyph-name="otilde" unicode="&#xf5;" 
d="M885 1331q-44 0 -78 17.5t-55.5 42.5t-40 50t-40.5 42.5t-48 17.5q-40 0 -67.5 -25t-33.5 -67l-10 -68h-102l10 68q13 88 71 138t144 50q44 0 78 -17.5t55 -42.5t39 -50t40 -42.5t48 -17.5q37 0 62.5 25t31.5 68l12 67h103l-12 -67q-13 -89 -69 -139t-138 -50zM520 -20
q-190 0 -283.5 112t-62.5 305l51 332q31 192 162 305t320 113t283 -113t63 -305l-52 -332q-31 -193 -160.5 -305t-320.5 -112zM539 98q133 0 217.5 78t109.5 221l52 332q23 142 -38 220.5t-192 78.5q-132 0 -217.5 -78t-110.5 -221l-51 -332q-23 -142 37.5 -220.5
t192.5 -78.5z" />
    <glyph glyph-name="odieresis" unicode="&#xf6;" 
d="M514 1337q-54 0 -80.5 32t-17.5 87t45.5 88t89.5 33t79 -33t17 -88q-7 -55 -43.5 -87t-89.5 -32zM958 1337q-53 0 -80 32t-18 87q9 56 46 88.5t91 32.5q53 0 78.5 -33t16.5 -88q-7 -55 -43.5 -87t-90.5 -32zM520 -20q-190 0 -283.5 112t-62.5 305l51 332q31 192 162 305
t320 113t283 -113t63 -305l-52 -332q-31 -193 -160.5 -305t-320.5 -112zM539 98q133 0 217.5 78t109.5 221l52 332q23 142 -38 220.5t-192 78.5q-132 0 -217.5 -78t-110.5 -221l-51 -332q-23 -142 37.5 -220.5t192.5 -78.5z" />
    <glyph glyph-name="divide" unicode="&#xf7;" 
d="M672 938q-71 0 -107 41t-26 108q11 68 60.5 109t121.5 41q70 0 107 -41t26 -109t-60.5 -108.5t-121.5 -40.5zM1032 621h-819l20 122h820zM545 127q-71 0 -107 41t-26 108q11 68 60.5 109t121.5 41q70 0 107 -41t26 -109t-60.5 -108.5t-121.5 -40.5z" />
    <glyph glyph-name="oslash" unicode="&#xf8;" 
d="M1090 1208h139l-201 -235q48 -103 25 -244l-52 -332q-31 -193 -160.5 -305t-320.5 -112q-172 0 -266 94l-115 -135h-139l195 227q-42 97 -21 231l51 332q31 192 162 305t320 113q164 0 256 -86zM356 729l-51 -332q-10 -62 -4 -108l573 669q-64 70 -186 70
q-133 0 -221 -79t-111 -220zM870 397l52 332q12 66 2 123l-580 -676q60 -78 195 -78q134 0 221 78.5t110 220.5z" />
    <glyph glyph-name="ugrave" unicode="&#xf9;" 
d="M827 1321h-137l-186 287h147zM518 -20q-187 0 -278 113t-60 308l115 725h135l-115 -725q-23 -142 37 -221.5t187 -79.5q128 0 214 79.5t109 221.5l113 725h135l-113 -725q-31 -194 -160 -307.5t-319 -113.5z" />
    <glyph glyph-name="uacute" unicode="&#xfa;" 
d="M799 1321h-150l262 287h160zM518 -20q-187 0 -278 113t-60 308l115 725h135l-115 -725q-23 -142 37 -221.5t187 -79.5q128 0 214 79.5t109 221.5l113 725h135l-113 -725q-31 -194 -160 -307.5t-319 -113.5z" />
    <glyph glyph-name="ucircumflex" unicode="&#xfb;" 
d="M551 1321h-150l306 287h141l217 -287h-137l-160 199zM518 -20q-187 0 -278 113t-60 308l115 725h135l-115 -725q-23 -142 37 -221.5t187 -79.5q128 0 214 79.5t109 221.5l113 725h135l-113 -725q-31 -194 -160 -307.5t-319 -113.5z" />
    <glyph glyph-name="udieresis" unicode="&#xfc;" 
d="M514 1337q-54 0 -80.5 32t-17.5 87t45.5 88t89.5 33t79 -33t17 -88q-7 -55 -43.5 -87t-89.5 -32zM958 1337q-53 0 -80 32t-18 87q9 56 46 88.5t91 32.5q53 0 78.5 -33t16.5 -88q-7 -55 -43.5 -87t-90.5 -32zM518 -20q-187 0 -278 113t-60 308l115 725h135l-115 -725
q-23 -142 37 -221.5t187 -79.5q128 0 214 79.5t109 221.5l113 725h135l-113 -725q-31 -194 -160 -307.5t-319 -113.5z" />
    <glyph glyph-name="yacute" unicode="&#xfd;" 
d="M911 1608h160l-272 -287h-150zM866 500l99 626h135l-185 -1161q-26 -161 -131 -247.5t-274 -86.5h-322l21 123h321q216 0 250 211l23 141l33 199q-40 -105 -131.5 -164t-215.5 -59q-168 0 -251 106t-54 287l103 651h135l-100 -634q-22 -139 37 -217t184 -78q126 0 213 81
t110 222z" />
    <glyph glyph-name="thorn" unicode="&#xfe;" 
d="M745 1147q169 0 252 -112.5t52 -301.5l-54 -342q-29 -187 -148 -299t-288 -112q-116 0 -189.5 52.5t-88.5 145.5l-29 -178l-59 -369h-136l78 490l219 1374h135l-51 -315l-39 -232h4q43 92 134 145.5t208 53.5zM862 395l51 334q23 142 -36.5 221.5t-188.5 79.5
t-213.5 -79.5t-107.5 -221.5l-52 -334q-23 -141 37 -220t189 -79q128 0 212 78.5t109 220.5z" />
    <glyph glyph-name="ydieresis" unicode="&#xff;" 
d="M514 1337q-54 0 -80.5 32t-17.5 87t45.5 88t89.5 33t79 -33t17 -88q-7 -55 -43.5 -87t-89.5 -32zM958 1337q-53 0 -80 32t-18 87q9 56 46 88.5t91 32.5q53 0 78.5 -33t16.5 -88q-7 -55 -43.5 -87t-90.5 -32zM866 500l99 626h135l-185 -1161q-26 -161 -131 -247.5
t-274 -86.5h-322l21 123h321q216 0 250 211l23 141l33 199q-40 -105 -131.5 -164t-215.5 -59q-168 0 -251 106t-54 287l103 651h135l-100 -634q-22 -139 37 -217t184 -78q126 0 213 81t110 222z" />
    <glyph glyph-name="Amacron" unicode="&#x100;" 
d="M1102 1737h-606l18 114h606zM176 0h-141l639 1495h176l164 -1495h-133l-43 418h-488zM629 1081l-232 -546h430l-57 546q-9 89 -22 303q-27 -90 -119 -303z" />
    <glyph glyph-name="amacron" unicode="&#x101;" 
d="M469 1503h606l-18 -114h-606zM944 948l29 178h135l-178 -1126h-135l28 178h-2q-44 -93 -134.5 -145.5t-207.5 -52.5q-169 0 -251.5 111.5t-53.5 299.5l53 342q31 189 150 301.5t289 112.5q115 0 188 -53t88 -146h2zM856 395l53 334q22 142 -37.5 221.5t-189.5 79.5
q-128 0 -213 -79.5t-107 -221.5l-53 -334q-22 -141 37.5 -220t188.5 -79t214 79t107 220z" />
    <glyph glyph-name="Abreve" unicode="&#x102;" 
d="M786 1653q-141 0 -212.5 79.5t-51.5 213.5h113q-14 -91 30.5 -144t133.5 -53q91 0 152.5 53t74.5 144h115q-20 -133 -117.5 -213t-237.5 -80zM176 0h-141l639 1495h176l164 -1495h-133l-43 418h-488zM629 1081l-232 -546h430l-57 546q-9 89 -22 303q-27 -90 -119 -303z
" />
    <glyph glyph-name="abreve" unicode="&#x103;" 
d="M743 1315q-141 0 -212.5 79.5t-51.5 213.5h113q-14 -91 30.5 -144t133.5 -53q91 0 152.5 53t74.5 144h115q-20 -133 -117.5 -213t-237.5 -80zM944 948l29 178h135l-178 -1126h-135l28 178h-2q-44 -93 -134.5 -145.5t-207.5 -52.5q-169 0 -251.5 111.5t-53.5 299.5l53 342
q31 189 150 301.5t289 112.5q115 0 188 -53t88 -146h2zM856 395l53 334q22 142 -37.5 221.5t-189.5 79.5q-128 0 -213 -79.5t-107 -221.5l-53 -334q-22 -141 37.5 -220t188.5 -79t214 79t107 220z" />
    <glyph glyph-name="Aogonek" unicode="&#x104;" 
d="M915 -305h129l-16 -101h-154q-96 0 -145 47.5t-37 127.5q18 119 189 237l-43 412h-488l-174 -418h-141l639 1495h176l164 -1495h-31q-146 -115 -158 -203q-8 -46 16 -74t74 -28zM629 1081l-232 -546h430l-57 546q-9 89 -22 303q-27 -90 -119 -303z" />
    <glyph glyph-name="aogonek" unicode="&#x105;" 
d="M768 -203q-6 -47 18 -74.5t74 -27.5h127l-14 -101h-154q-96 0 -145 47.5t-37 127.5q18 117 178 231h-20l28 178h-2q-44 -93 -134.5 -145.5t-207.5 -52.5q-169 0 -251.5 111.5t-53.5 299.5l53 342q31 189 150 301.5t289 112.5q115 0 188 -53t88 -146h2l29 178h135
l-178 -1126h-2q-144 -111 -160 -203zM535 96q129 0 214 79t107 220l53 334q22 142 -37.5 221.5t-189.5 79.5q-128 0 -213 -79.5t-107 -221.5l-53 -334q-22 -141 37.5 -220t188.5 -79z" />
    <glyph glyph-name="Cacute" unicode="&#x106;" 
d="M850 1659h-150l263 287h159zM530 -20q-194 0 -290.5 112.5t-65.5 304.5l111 701q31 193 163 305.5t326 112.5q195 0 292.5 -117t66.5 -314h-136q23 145 -41.5 227.5t-199.5 82.5t-224 -78.5t-112 -218.5l-111 -701q-22 -139 42.5 -218t199.5 -79q136 0 226.5 82.5
t113.5 227.5h135q-32 -197 -166.5 -313.5t-329.5 -116.5z" />
    <glyph glyph-name="cacute" unicode="&#x107;" 
d="M805 1321h-150l263 287h159zM526 -20q-194 0 -288.5 112t-63.5 305l51 332q31 192 163.5 305t324.5 113q189 0 285.5 -105.5t70.5 -283.5h-135q17 126 -47 196t-195 70q-133 0 -220.5 -78t-109.5 -217l-53 -332q-22 -139 41.5 -217t196.5 -78q130 0 216 70.5t109 196.5
h136q-31 -178 -162 -283.5t-320 -105.5z" />
    <glyph glyph-name="Ccircumflex" unicode="&#x108;" 
d="M614 1659h-149l305 287h141l217 -287h-137l-157 199zM530 -20q-194 0 -290.5 112.5t-65.5 304.5l111 701q31 193 163 305.5t326 112.5q195 0 292.5 -117t66.5 -314h-136q23 145 -41.5 227.5t-199.5 82.5t-224 -78.5t-112 -218.5l-111 -701q-22 -139 42.5 -218t199.5 -79
q136 0 226.5 82.5t113.5 227.5h135q-32 -197 -166.5 -313.5t-329.5 -116.5z" />
    <glyph glyph-name="ccircumflex" unicode="&#x109;" 
d="M555 1321h-149l307 287h141l217 -287h-137l-160 199zM526 -20q-194 0 -288.5 112t-63.5 305l51 332q31 192 163.5 305t324.5 113q189 0 285.5 -105.5t70.5 -283.5h-135q17 126 -47 196t-195 70q-133 0 -220.5 -78t-109.5 -217l-53 -332q-22 -139 41.5 -217t196.5 -78
q130 0 216 70.5t109 196.5h136q-31 -178 -162 -283.5t-320 -105.5z" />
    <glyph glyph-name="Cdotaccent" unicode="&#x10a;" 
d="M801 1681q-59 0 -89.5 33.5t-21.5 87.5t49.5 87.5t100.5 33.5q59 0 88.5 -33.5t19.5 -87.5q-8 -54 -47.5 -87.5t-99.5 -33.5zM530 -20q-194 0 -290.5 112.5t-65.5 304.5l111 701q31 193 163 305.5t326 112.5q195 0 292.5 -117t66.5 -314h-136q23 145 -41.5 227.5
t-199.5 82.5t-224 -78.5t-112 -218.5l-111 -701q-22 -139 42.5 -218t199.5 -79q136 0 226.5 82.5t113.5 227.5h135q-32 -197 -166.5 -313.5t-329.5 -116.5z" />
    <glyph glyph-name="cdotaccent" unicode="&#x10b;" 
d="M741 1337q-60 0 -89 31.5t-21 87.5q7 55 48 88t101 33q59 0 88.5 -33t20.5 -88q-7 -55 -48 -87t-100 -32zM526 -20q-194 0 -288.5 112t-63.5 305l51 332q31 192 163.5 305t324.5 113q189 0 285.5 -105.5t70.5 -283.5h-135q17 126 -47 196t-195 70q-133 0 -220.5 -78
t-109.5 -217l-53 -332q-22 -139 41.5 -217t196.5 -78q130 0 216 70.5t109 196.5h136q-31 -178 -162 -283.5t-320 -105.5z" />
    <glyph glyph-name="Ccaron" unicode="&#x10c;" 
d="M868 1659h-141l-217 287h139l160 -199l219 199h146zM530 -20q-194 0 -290.5 112.5t-65.5 304.5l111 701q31 193 163 305.5t326 112.5q195 0 292.5 -117t66.5 -314h-136q23 145 -41.5 227.5t-199.5 82.5t-224 -78.5t-112 -218.5l-111 -701q-22 -139 42.5 -218t199.5 -79
q136 0 226.5 82.5t113.5 227.5h135q-32 -197 -166.5 -313.5t-329.5 -116.5z" />
    <glyph glyph-name="ccaron" unicode="&#x10d;" 
d="M813 1321h-141l-217 287h139l160 -199l219 199h145zM526 -20q-194 0 -288.5 112t-63.5 305l51 332q31 192 163.5 305t324.5 113q189 0 285.5 -105.5t70.5 -283.5h-135q17 126 -47 196t-195 70q-133 0 -220.5 -78t-109.5 -217l-53 -332q-22 -139 41.5 -217t196.5 -78
q130 0 216 70.5t109 196.5h136q-31 -178 -162 -283.5t-320 -105.5z" />
    <glyph glyph-name="Dcaron" unicode="&#x10e;" 
d="M858 1659h-141l-217 287h139l160 -199l219 199h145zM471 0h-350l237 1495h351q212 0 319.5 -123.5t75.5 -327.5l-94 -593q-32 -204 -179.5 -327.5t-359.5 -123.5zM473 1372l-199 -1249h218q151 0 254 88.5t128 239.5l95 593q23 150 -53.5 239t-227.5 89h-215z" />
    <glyph glyph-name="dcaron" unicode="&#x10f;" 
d="M856 948l35 232l51 315h135l-237 -1495h-135l28 178q-40 -93 -123.5 -145.5t-195.5 -52.5q-158 0 -234 110t-47 297l55 350q29 188 141 299t271 111q111 0 177 -53t77 -146h2zM1133 1126l71 369h135l-86 -369h-120zM768 391l53 342q22 138 -32 217.5t-171 79.5
q-115 0 -193.5 -79.5t-100.5 -217.5l-54 -342q-23 -136 31 -215.5t170 -79.5q115 0 194.5 79t102.5 216z" />
    <glyph glyph-name="Dcroat" unicode="&#x110;" 
d="M358 1495h351q212 0 319.5 -123.5t75.5 -327.5l-94 -593q-32 -204 -179.5 -327.5t-359.5 -123.5h-350l112 707h-213l19 114h213zM874 451l95 593q23 150 -53.5 239t-227.5 89h-215l-88 -551h227l-18 -114h-227l-93 -584h218q151 0 254 88.5t128 239.5z" />
    <glyph glyph-name="dcroat" unicode="&#x111;" 
d="M174 391l37 219q29 189 146 301.5t286 112.5q116 0 188.5 -53t86.5 -146h6l34 232l21 131h-356l18 117h356l31 190h135l-30 -190h200l-18 -117h-201l-188 -1188h-135l28 178h-6q-41 -94 -129.5 -146t-206.5 -52q-168 0 -250 111.5t-53 299.5zM344 606l-33 -211
q-23 -141 36 -220t188 -79q127 0 211.5 79t107.5 220l35 211q22 142 -37.5 221.5t-189.5 79.5q-128 0 -212 -79.5t-106 -221.5z" />
    <glyph glyph-name="Emacron" unicode="&#x112;" 
d="M1143 1737h-606l18 114h606zM963 0h-824l238 1495h823l-20 -123h-688l-84 -530h616l-18 -123h-619l-94 -596h688z" />
    <glyph glyph-name="emacron" unicode="&#x113;" 
d="M459 1503h606l-18 -114h-607zM709 1147q189 0 282 -114t62 -304l-31 -197h-692l-23 -135q-22 -142 38.5 -221.5t195.5 -79.5q109 0 186.5 48t116.5 137h135q-47 -139 -169.5 -220t-287.5 -81q-192 0 -284.5 112.5t-63.5 304.5l51 332q31 190 161.5 304t322.5 114z
M905 641l15 88q23 142 -36.5 222.5t-193.5 80.5q-137 0 -222.5 -79.5t-107.5 -223.5l-14 -88h559z" />
    <glyph glyph-name="Ebreve" unicode="&#x114;" 
d="M827 1653q-141 0 -212.5 79.5t-51.5 213.5h113q-14 -91 30.5 -144t133.5 -53q91 0 152.5 53t74.5 144h115q-20 -133 -117.5 -213t-237.5 -80zM963 0h-824l238 1495h823l-20 -123h-688l-84 -530h616l-18 -123h-619l-94 -596h688z" />
    <glyph glyph-name="ebreve" unicode="&#x115;" 
d="M733 1315q-141 0 -212.5 79.5t-51.5 213.5h113q-14 -91 30 -144t133 -53q91 0 153 53t75 144h114q-20 -133 -117 -213t-237 -80zM709 1147q189 0 282 -114t62 -304l-31 -197h-692l-23 -135q-22 -142 38.5 -221.5t195.5 -79.5q109 0 186.5 48t116.5 137h135
q-47 -139 -169.5 -220t-287.5 -81q-192 0 -284.5 112.5t-63.5 304.5l51 332q31 190 161.5 304t322.5 114zM905 641l15 88q23 142 -36.5 222.5t-193.5 80.5q-137 0 -222.5 -79.5t-107.5 -223.5l-14 -88h559z" />
    <glyph glyph-name="Edotaccent" unicode="&#x116;" 
d="M831 1681q-58 0 -88.5 33.5t-21.5 87.5q9 55 49.5 88t99.5 33t89 -33.5t20 -87.5q-8 -54 -48 -87.5t-100 -33.5zM963 0h-824l238 1495h823l-20 -123h-688l-84 -530h616l-18 -123h-619l-94 -596h688z" />
    <glyph glyph-name="edotaccent" unicode="&#x117;" 
d="M735 1337q-60 0 -89.5 32t-20.5 87q7 55 47.5 88t99.5 33q60 0 90 -32.5t21 -88.5q-7 -55 -48 -87t-100 -32zM709 1147q189 0 282 -114t62 -304l-31 -197h-692l-23 -135q-22 -142 38.5 -221.5t195.5 -79.5q109 0 186.5 48t116.5 137h135q-47 -139 -169.5 -220t-287.5 -81
q-192 0 -284.5 112.5t-63.5 304.5l51 332q31 190 161.5 304t322.5 114zM905 641l15 88q23 142 -36.5 222.5t-193.5 80.5q-137 0 -222.5 -79.5t-107.5 -223.5l-14 -88h559z" />
    <glyph glyph-name="Eogonek" unicode="&#x118;" 
d="M1200 1495l-20 -123h-688l-84 -530h616l-18 -123h-619l-94 -596h688l-18 -123h-99q-143 -110 -159 -203q-6 -47 18 -74.5t74 -27.5h127l-15 -101h-153q-96 0 -145.5 47.5t-37.5 127.5q19 118 181 231h-615l238 1495h823z" />
    <glyph glyph-name="eogonek" unicode="&#x119;" 
d="M709 1147q189 0 282 -114t62 -304l-31 -197h-692l-23 -135q-22 -142 38.5 -221.5t195.5 -79.5q109 0 186.5 48t116.5 137h135q-53 -157 -203 -240l-53 -41q-144 -111 -160 -203q-6 -47 18 -74.5t74 -27.5h127l-16 -101h-154q-95 0 -143.5 47.5t-36.5 127.5q16 99 160 217
q-34 -6 -70 -6q-192 0 -284.5 112.5t-63.5 304.5l51 332q31 190 161.5 304t322.5 114zM360 729l-14 -88h559l15 88q22 143 -37.5 223t-192.5 80q-137 0 -222.5 -79.5t-107.5 -223.5z" />
    <glyph glyph-name="Ecaron" unicode="&#x11a;" 
d="M899 1659h-141l-217 287h139l160 -199l219 199h145zM963 0h-824l238 1495h823l-20 -123h-688l-84 -530h616l-18 -123h-619l-94 -596h688z" />
    <glyph glyph-name="ecaron" unicode="&#x11b;" 
d="M1112 1608l-305 -287h-141l-217 287h139l160 -199l219 199h145zM709 1147q189 0 282 -114t62 -304l-31 -197h-692l-23 -135q-22 -142 38.5 -221.5t195.5 -79.5q109 0 186.5 48t116.5 137h135q-47 -139 -169.5 -220t-287.5 -81q-192 0 -284.5 112.5t-63.5 304.5l51 332
q31 190 161.5 304t322.5 114zM905 641l15 88q23 142 -36.5 222.5t-193.5 80.5q-137 0 -222.5 -79.5t-107.5 -223.5l-14 -88h559z" />
    <glyph glyph-name="Gcircumflex" unicode="&#x11c;" 
d="M610 1659h-149l307 287h141l217 -287h-137l-158 199zM530 -20q-194 0 -290.5 112.5t-65.5 304.5l111 701q31 193 163 305.5t326 112.5q195 0 292.5 -117t66.5 -314h-136q23 145 -41.5 227.5t-199.5 82.5t-224 -78.5t-112 -218.5l-111 -701q-22 -139 42.5 -218t199.5 -79
q136 0 226.5 82.5t113.5 227.5l33 208h-334l18 123h469l-51 -331q-31 -196 -166 -313t-330 -117z" />
    <glyph glyph-name="gcircumflex" unicode="&#x11d;" 
d="M922 1321l-160 199l-217 -199h-150l305 287h142l217 -287h-137zM942 934l31 192h135l-184 -1161q-25 -161 -130.5 -247.5t-275.5 -86.5h-319l20 123h322q213 0 247 211l19 113l37 219q-40 -103 -131 -161t-215 -58q-170 0 -253.5 111.5t-54.5 299.5l39 244
q29 188 149 301t290 113q121 0 193.5 -56.5t80.5 -156.5zM872 494l37 235q23 141 -36.5 221t-188.5 80t-214 -79.5t-108 -221.5l-36 -235q-22 -141 37 -220t188 -79t214 79t107 220z" />
    <glyph glyph-name="Gbreve" unicode="&#x11e;" 
d="M793 1653q-141 0 -212 79.5t-51 213.5h113q-15 -90 29.5 -143.5t132.5 -53.5q91 0 153.5 53.5t75.5 143.5h115q-20 -133 -117.5 -213t-238.5 -80zM530 -20q-194 0 -290.5 112.5t-65.5 304.5l111 701q31 193 163 305.5t326 112.5q195 0 292.5 -117t66.5 -314h-136
q23 145 -41.5 227.5t-199.5 82.5t-224 -78.5t-112 -218.5l-111 -701q-22 -139 42.5 -218t199.5 -79q136 0 226.5 82.5t113.5 227.5l33 208h-334l18 123h469l-51 -331q-31 -196 -166 -313t-330 -117z" />
    <glyph glyph-name="gbreve" unicode="&#x11f;" 
d="M727 1315q-141 0 -212.5 79.5t-51.5 213.5h112q-14 -91 30.5 -144t133.5 -53q91 0 153 53t75 144h114q-20 -133 -117 -213t-237 -80zM942 934l31 192h135l-184 -1161q-25 -161 -130.5 -247.5t-275.5 -86.5h-319l20 123h322q213 0 247 211l19 113l37 219
q-40 -103 -131 -161t-215 -58q-170 0 -253.5 111.5t-54.5 299.5l39 244q29 188 149 301t290 113q121 0 193.5 -56.5t80.5 -156.5zM872 494l37 235q23 141 -36.5 221t-188.5 80t-214 -79.5t-108 -221.5l-36 -235q-22 -141 37 -220t188 -79t214 79t107 220z" />
    <glyph glyph-name="Gdotaccent" unicode="&#x120;" 
d="M799 1681q-60 0 -90.5 33.5t-22.5 87.5q11 54 51.5 87.5t98.5 33.5q60 0 89.5 -33.5t20.5 -87.5t-49 -87.5t-98 -33.5zM530 -20q-194 0 -290.5 112.5t-65.5 304.5l111 701q31 193 163 305.5t326 112.5q195 0 292.5 -117t66.5 -314h-136q23 145 -41.5 227.5t-199.5 82.5
t-224 -78.5t-112 -218.5l-111 -701q-22 -139 42.5 -218t199.5 -79q136 0 226.5 82.5t113.5 227.5l33 208h-334l18 123h469l-51 -331q-31 -196 -166 -313t-330 -117z" />
    <glyph glyph-name="gdotaccent" unicode="&#x121;" 
d="M729 1337q-60 0 -89.5 31.5t-21.5 87.5q9 56 49.5 88.5t100.5 32.5q58 0 88.5 -32.5t22.5 -88.5q-9 -55 -49.5 -87t-100.5 -32zM942 934l31 192h135l-184 -1161q-25 -161 -130.5 -247.5t-275.5 -86.5h-319l20 123h322q213 0 247 211l19 113l37 219q-40 -103 -131 -161
t-215 -58q-170 0 -253.5 111.5t-54.5 299.5l39 244q29 188 149 301t290 113q121 0 193.5 -56.5t80.5 -156.5zM872 494l37 235q23 141 -36.5 221t-188.5 80t-214 -79.5t-108 -221.5l-36 -235q-22 -141 37 -220t188 -79t214 79t107 220z" />
    <glyph glyph-name="uni0122" unicode="&#x122;" 
d="M530 -20q-194 0 -290.5 112.5t-65.5 304.5l111 701q31 193 163 305.5t326 112.5q195 0 292.5 -117t66.5 -314h-136q23 145 -41.5 227.5t-199.5 82.5t-224 -78.5t-112 -218.5l-111 -701q-22 -139 42.5 -218t199.5 -79q136 0 226.5 82.5t113.5 227.5l33 208h-334l18 123
h469l-51 -331q-31 -196 -166 -313t-330 -117zM399 -492h-135l236 297h162z" />
    <glyph glyph-name="uni0123" unicode="&#x123;" 
d="M903 1802h117l-258 -481h-182zM942 934l31 192h135l-184 -1161q-25 -161 -130.5 -247.5t-275.5 -86.5h-319l20 123h322q213 0 247 211l19 113l37 219q-40 -103 -131 -161t-215 -58q-170 0 -253.5 111.5t-54.5 299.5l39 244q29 188 149 301t290 113q121 0 193.5 -56.5
t80.5 -156.5zM872 494l37 235q23 141 -36.5 221t-188.5 80t-214 -79.5t-108 -221.5l-36 -235q-22 -141 37 -220t188 -79t214 79t107 220z" />
    <glyph glyph-name="Hcircumflex" unicode="&#x124;" 
d="M604 1659h-149l305 287h141l217 -287h-137l-158 199zM256 0h-135l237 1495h136l-105 -659h537l104 659h135l-237 -1495h-135l112 713h-536z" />
    <glyph glyph-name="hcircumflex" unicode="&#x125;" 
d="M623 1649l-160 198l-217 -198h-150l305 286h142l217 -286h-137zM745 1147q168 0 252 -106t56 -287l-121 -754h-135l116 737q23 138 -36 216.5t-183 78.5q-127 0 -213.5 -81t-109.5 -222l-115 -729h-135l237 1495h136l-54 -332l-37 -221h5q41 97 130 151t207 54z" />
    <glyph glyph-name="Hbar" unicode="&#x126;" 
d="M1120 1208h191l-19 -114h-190l-174 -1094h-135l112 713h-536l-113 -713h-135l174 1094h-191l19 114h190l45 287h136l-45 -287h536l45 287h135zM389 836h537l41 258h-537z" />
    <glyph glyph-name="hbar" unicode="&#x127;" 
d="M309 1188h-200l18 117h201l30 190h136l-31 -190h356l-18 -117h-357l-28 -184l-31 -185h6q41 97 128.5 151t205.5 54q168 0 252 -106t55 -287l-100 -631h-135l98 614q22 139 -37.5 217t-183.5 78q-128 0 -214 -81t-108 -222l-96 -606h-135z" />
    <glyph glyph-name="Itilde" unicode="&#x128;" 
d="M938 1669q-44 0 -78 17.5t-55.5 42.5t-40 50t-40.5 42.5t-48 17.5q-40 0 -67.5 -25t-33.5 -67l-10 -68h-102l10 68q13 88 71 138t144 50q44 0 78 -17.5t55 -42.5t39.5 -50t40.5 -42.5t49 -17.5q37 0 61.5 25t30.5 68l13 67h102l-12 -67q-13 -89 -69 -139t-138 -50zM905 0
h-762l19 123h315l197 1249h-314l21 123h762l-21 -123h-311l-199 -1249h312z" />
    <glyph glyph-name="itilde" unicode="&#x129;" 
d="M821 1331q-44 0 -78 17.5t-55.5 42.5t-40 50t-41 42.5t-49.5 17.5q-38 0 -65.5 -24.5t-34.5 -67.5l-8 -68h-103l8 68q15 89 72.5 138.5t144.5 49.5q44 0 78 -17.5t54.5 -42.5t38.5 -50t40 -42.5t49 -17.5q37 0 62 25t33 68l12 67h102l-12 -67q-13 -89 -69 -139t-138 -50z
M819 0h-719l19 123h305l139 881h-264l18 122h400l-158 -1003h279z" />
    <glyph glyph-name="Imacron" unicode="&#x12a;" 
d="M1102 1737h-606l18 114h606zM905 0h-762l19 123h315l197 1249h-314l21 123h762l-21 -123h-311l-199 -1249h312z" />
    <glyph glyph-name="imacron" unicode="&#x12b;" horiz-adv-x="1024" 
d="M983 1389h-606l18 114h606zM819 0h-719l19 123h305l139 881h-264l18 122h400l-158 -1003h279z" />
    <glyph glyph-name="Ibreve" unicode="&#x12c;" 
d="M786 1653q-141 0 -212.5 79.5t-51.5 213.5h113q-14 -91 30.5 -144t133.5 -53q91 0 152.5 53t74.5 144h115q-20 -133 -117.5 -213t-237.5 -80zM905 0h-762l19 123h315l197 1249h-314l21 123h762l-21 -123h-311l-199 -1249h312z" />
    <glyph glyph-name="ibreve" unicode="&#x12d;" 
d="M668 1315q-141 0 -211.5 79.5t-50.5 213.5h112q-15 -90 29.5 -143.5t132.5 -53.5q91 0 153.5 53.5t75.5 143.5h115q-20 -133 -117.5 -213t-238.5 -80zM819 0h-719l19 123h305l139 881h-264l18 122h400l-158 -1003h279z" />
    <glyph glyph-name="Iogonek" unicode="&#x12e;" 
d="M1143 1495l-21 -123h-311l-199 -1249h312l-19 -123h-330q-143 -113 -159 -203q-6 -47 18 -74.5t74 -27.5h127l-14 -101h-154q-96 0 -145 47.5t-37 127.5q18 115 180 231h-322l19 123h315l197 1249h-314l21 123h762z" />
    <glyph glyph-name="iogonek" unicode="&#x12f;" horiz-adv-x="1024" 
d="M672 1337q-60 0 -90 32t-21 87q7 55 48 88t100 33q60 0 89.5 -32.5t20.5 -88.5q-7 -55 -47.5 -87t-99.5 -32zM819 0h-266q-144 -111 -160 -203q-6 -47 18 -74.5t74 -27.5h127l-14 -101h-154q-96 0 -145 47.5t-37 127.5q19 119 180 231h-342l19 123h305l139 881h-264
l18 122h400l-158 -1003h279z" />
    <glyph glyph-name="Idotaccent" unicode="&#x130;" 
d="M791 1681q-59 0 -89.5 33.5t-21.5 87.5q9 55 49.5 88t99.5 33t89 -33.5t20 -87.5q-8 -54 -47.5 -87.5t-99.5 -33.5zM905 0h-762l19 123h315l197 1249h-314l21 123h762l-21 -123h-311l-199 -1249h312z" />
    <glyph glyph-name="dotlessi" unicode="&#x131;" horiz-adv-x="1024" 
d="M819 0h-719l19 123h305l139 881h-264l18 122h400l-158 -1003h279z" />
    <glyph glyph-name="Jcircumflex" unicode="&#x134;" 
d="M815 1659h-149l305 287h143l217 -287h-137l-160 199zM465 -20q-204 0 -301.5 117t-65.5 321h135q-23 -149 44 -233.5t208 -84.5t234.5 84t116.5 232l151 954h-446l20 125h582l-172 -1079q-34 -208 -165.5 -322t-340.5 -114z" />
    <glyph glyph-name="jcircumflex" unicode="&#x135;" horiz-adv-x="819" 
d="M324 1321h-150l307 287h142l217 -287h-138l-159 199zM45 -369h-135l20 123h136q138 0 222.5 73t106.5 210l152 967h-363l21 122h497l-172 -1089q-31 -189 -160.5 -297.5t-324.5 -108.5z" />
    <glyph glyph-name="uni0136" unicode="&#x136;" 
d="M256 0h-135l237 1495h136l-105 -661h273l434 661h153l-473 -723l256 -772h-151l-234 715h-278zM389 -492h-135l235 297h162z" />
    <glyph glyph-name="uni0137" unicode="&#x137;" 
d="M262 0h-135l238 1495h135l-135 -850h237l418 481h162l-469 -544l297 -582h-156l-264 524h-244zM391 -492h-139l235 297h166z" />
    <glyph glyph-name="kgreenlandic" unicode="&#x138;" 
d="M264 0h-135l178 1126h135l-77 -481h235l420 481h162l-465 -544l293 -582h-156l-262 524h-246z" />
    <glyph glyph-name="Lacute" unicode="&#x139;" 
d="M578 1659h-150l262 287h160zM1034 0h-841l237 1495h135l-219 -1372h707z" />
    <glyph glyph-name="lacute" unicode="&#x13a;" horiz-adv-x="819" 
d="M557 1659h-149l262 287h159zM662 0h-164q-143 0 -211 77.5t-45 215.5l170 1079h-246l20 123h381l-190 -1202q-13 -82 23 -126t116 -44h164z" />
    <glyph glyph-name="uni013B" unicode="&#x13b;" 
d="M1034 0h-841l237 1495h135l-219 -1372h707zM471 -492h-135l235 297h162z" />
    <glyph glyph-name="uni013C" unicode="&#x13c;" horiz-adv-x="819" 
d="M662 0h-164q-143 0 -211 77.5t-45 215.5l170 1079h-246l20 123h381l-190 -1202q-13 -82 23 -126t116 -44h164zM199 -492h-140l236 297h166z" />
    <glyph glyph-name="Lcaron" unicode="&#x13d;" 
d="M1487 1495h-111l80 369h131zM1034 0h-841l237 1495h135l-219 -1372h707z" />
    <glyph glyph-name="lcaron" unicode="&#x13e;" horiz-adv-x="819" 
d="M813 1495h-111l80 369h131zM662 0h-164q-143 0 -211 77.5t-45 215.5l170 1079h-246l20 123h381l-190 -1202q-13 -82 23 -126t116 -44h164z" />
    <glyph glyph-name="Ldot" unicode="&#x13f;" 
d="M1034 0h-841l237 1495h135l-219 -1372h707zM608 543q-72 0 -108 42.5t-25 114.5q12 73 62 116.5t122 43.5q73 0 108.5 -43t23.5 -117q-10 -72 -60.5 -114.5t-122.5 -42.5z" />
    <glyph glyph-name="ldot" unicode="&#x140;" 
d="M621 0h-164q-143 0 -211 77.5t-45 215.5l170 1079h-246l20 123h381l-190 -1202q-13 -82 23 -126t116 -44h164zM887 543q-72 0 -108 42.5t-25 114.5q12 73 62 116.5t122 43.5q73 0 108 -43t23 -117q-10 -72 -60 -114.5t-122 -42.5z" />
    <glyph glyph-name="Lslash" unicode="&#x141;" 
d="M459 748l-101 -625h707l-18 -123h-842l104 653l-282 -176l22 139l281 177l112 702h136l-99 -610l410 256l-23 -140z" />
    <glyph glyph-name="lslash" unicode="&#x142;" horiz-adv-x="819" 
d="M799 1001l-348 -237l-74 -471q-13 -82 23 -126t116 -44h164l-18 -123h-164q-143 0 -211 77.5t-45 215.5l57 366l-258 -176v133l283 193l88 563h-246l20 123h381l-92 -582l324 222v-134z" />
    <glyph glyph-name="Nacute" unicode="&#x143;" 
d="M840 1659h-150l262 287h160zM250 0h-131l237 1495h181l301 -1341q17 197 36 317l162 1024h131l-237 -1495h-180l-297 1341q-15 -157 -41 -317z" />
    <glyph glyph-name="nacute" unicode="&#x144;" 
d="M913 1608h160l-272 -287h-150zM745 1147q168 0 252 -106t56 -287l-121 -754h-135l116 737q23 138 -36 216.5t-183 78.5q-127 0 -213.5 -81t-109.5 -222l-115 -729h-135l178 1126h135l-33 -202q40 105 130 164t214 59z" />
    <glyph glyph-name="uni0145" unicode="&#x145;" 
d="M250 0h-131l237 1495h181l301 -1341q17 197 36 317l162 1024h131l-237 -1495h-180l-297 1341q-15 -157 -41 -317zM391 -492h-139l235 297h166z" />
    <glyph glyph-name="uni0146" unicode="&#x146;" 
d="M745 1147q168 0 252 -106t56 -287l-121 -754h-135l116 737q23 138 -36 216.5t-183 78.5q-127 0 -213.5 -81t-109.5 -222l-115 -729h-135l178 1126h135l-33 -202q40 105 130 164t214 59zM391 -492h-139l235 297h166z" />
    <glyph glyph-name="Ncaron" unicode="&#x147;" 
d="M858 1659h-141l-217 287h139l160 -199l219 199h145zM250 0h-131l237 1495h181l301 -1341q17 197 36 317l162 1024h131l-237 -1495h-180l-297 1341q-15 -157 -41 -317z" />
    <glyph glyph-name="ncaron" unicode="&#x148;" 
d="M1114 1608l-305 -287h-141l-217 287h139l160 -199l219 199h145zM745 1147q168 0 252 -106t56 -287l-121 -754h-135l116 737q23 138 -36 216.5t-183 78.5q-127 0 -213.5 -81t-109.5 -222l-115 -729h-135l178 1126h135l-33 -202q40 105 130 164t214 59z" />
    <glyph glyph-name="napostrophe" unicode="&#x149;" 
d="M344 1618h166l-262 -297h-139zM745 1147q168 0 252 -106t56 -287l-121 -754h-135l116 737q23 138 -36 216.5t-183 78.5q-127 0 -213.5 -81t-109.5 -222l-115 -729h-135l178 1126h135l-33 -202q40 105 130 164t214 59z" />
    <glyph glyph-name="Eng" unicode="&#x14a;" 
d="M477 -369h-151l20 123h152q125 0 202.5 67t96.5 191l-346 1329q-15 -157 -41 -317l-162 -1024h-131l237 1495h181l321 -1233q14 158 39 332l143 901h131l-237 -1483q-28 -179 -148.5 -280t-306.5 -101z" />
    <glyph glyph-name="eng" unicode="&#x14b;" 
d="M745 1147q168 0 251 -106t55 -287l-117 -723q-28 -182 -160 -291t-323 -109h-103l21 123h102q132 0 220.5 74t107.5 203l112 706q23 139 -35 217t-182 78q-128 0 -213.5 -81t-107.5 -222l-115 -729h-135l178 1126h135l-33 -202q38 105 128 164t214 59z" />
    <glyph glyph-name="Omacron" unicode="&#x14c;" 
d="M1102 1737h-606l18 114h606zM520 -20q-190 0 -283.5 112t-62.5 305l111 701q31 192 160.5 305t318.5 113t283 -113t65 -305l-111 -701q-31 -193 -160.5 -305t-320.5 -112zM539 100q134 0 219 77.5t108 219.5l111 701q22 141 -39.5 219t-192.5 78q-132 0 -217 -78
t-108 -219l-111 -701q-23 -142 37.5 -219.5t192.5 -77.5z" />
    <glyph glyph-name="omacron" unicode="&#x14d;" 
d="M1047 1389h-607l19 114h606zM520 -20q-190 0 -283.5 112t-62.5 305l51 332q31 192 162 305t320 113t283 -113t63 -305l-52 -332q-31 -193 -160.5 -305t-320.5 -112zM539 98q133 0 217.5 78t109.5 221l52 332q23 142 -38 220.5t-192 78.5q-132 0 -217.5 -78t-110.5 -221
l-51 -332q-23 -142 37.5 -220.5t192.5 -78.5z" />
    <glyph glyph-name="Obreve" unicode="&#x14e;" 
d="M786 1653q-141 0 -212.5 79.5t-51.5 213.5h113q-14 -91 30.5 -144t133.5 -53q91 0 152.5 53t74.5 144h115q-20 -133 -117.5 -213t-237.5 -80zM520 -20q-190 0 -283.5 112t-62.5 305l111 701q31 192 160.5 305t318.5 113t283 -113t65 -305l-111 -701q-31 -193 -160.5 -305
t-320.5 -112zM539 100q134 0 219 77.5t108 219.5l111 701q22 141 -39.5 219t-192.5 78q-132 0 -217 -78t-108 -219l-111 -701q-23 -142 37.5 -219.5t192.5 -77.5z" />
    <glyph glyph-name="obreve" unicode="&#x14f;" 
d="M733 1315q-141 0 -212.5 79.5t-51.5 213.5h113q-14 -91 30 -144t133 -53q91 0 153 53t75 144h114q-20 -133 -117 -213t-237 -80zM520 -20q-190 0 -283.5 112t-62.5 305l51 332q31 192 162 305t320 113t283 -113t63 -305l-52 -332q-31 -193 -160.5 -305t-320.5 -112z
M539 98q133 0 217.5 78t109.5 221l52 332q23 142 -38 220.5t-192 78.5q-132 0 -217.5 -78t-110.5 -221l-51 -332q-23 -142 37.5 -220.5t192.5 -78.5z" />
    <glyph glyph-name="Ohungarumlaut" unicode="&#x150;" 
d="M647 1659h-143l266 287h154zM991 1659h-143l266 287h154zM520 -20q-190 0 -283.5 112t-62.5 305l111 701q31 192 160.5 305t318.5 113t283 -113t65 -305l-111 -701q-31 -193 -160.5 -305t-320.5 -112zM539 100q134 0 219 77.5t108 219.5l111 701q22 141 -39.5 219
t-192.5 78q-132 0 -217 -78t-108 -219l-111 -701q-23 -142 37.5 -219.5t192.5 -77.5z" />
    <glyph glyph-name="ohungarumlaut" unicode="&#x151;" 
d="M594 1321h-143l266 287h153zM936 1321h-141l266 287h153zM520 -20q-190 0 -283.5 112t-62.5 305l51 332q31 192 162 305t320 113t283 -113t63 -305l-52 -332q-31 -193 -160.5 -305t-320.5 -112zM539 98q133 0 217.5 78t109.5 221l52 332q23 142 -38 220.5t-192 78.5
q-132 0 -217.5 -78t-110.5 -221l-51 -332q-23 -142 37.5 -220.5t192.5 -78.5z" />
    <glyph glyph-name="OE" unicode="&#x152;" 
d="M307 -20q-143 0 -214.5 105t-43.5 275l123 775q26 170 131 275.5t248 105.5q97 0 150 -57.5t57 -127.5h10l27 164h522l-21 -129h-383l-84 -530h320l-21 -127h-319l-92 -580h383l-21 -129h-522l27 164h-11q-27 -70 -98 -127t-168 -57zM360 106q96 0 165.5 69t88.5 185
l123 775q19 116 -28.5 185t-143.5 69q-97 0 -165 -69t-87 -185l-123 -775q-19 -115 28 -184.5t142 -69.5z" />
    <glyph glyph-name="oe" unicode="&#x153;" 
d="M266 -20q-132 0 -196 85t-41 228l84 536q23 145 118 231.5t230 86.5q57 0 101 -16t69 -42.5t37 -55t12 -58.5h6q22 66 93.5 119t176.5 53q135 0 200 -85.5t42 -230.5l-47 -307h-475l-37 -229q-13 -89 25.5 -144t115.5 -55q70 0 125.5 44.5t75.5 115.5h131
q-34 -126 -126 -201t-212 -75q-111 0 -165 52t-54 118h-8q-20 -65 -93.5 -117.5t-187.5 -52.5zM305 96q78 0 133.5 55t69.5 144l86 536q14 90 -24.5 144.5t-116.5 54.5q-80 0 -137 -55t-70 -146l-86 -536q-14 -89 26 -143t119 -54zM725 831l-31 -186h344l29 186
q14 90 -24.5 144.5t-116.5 54.5q-77 0 -132.5 -55t-68.5 -144z" />
    <glyph glyph-name="Racute" unicode="&#x154;" 
d="M952 1946h160l-272 -287h-150zM358 1495h437q199 0 299 -114.5t69 -305.5q-25 -159 -130 -268t-261 -137l232 -670h-152l-217 659h-275l-104 -659h-135zM1026 1077q22 135 -47.5 215t-204.5 80h-301l-94 -592h301q136 0 230 81t116 216z" />
    <glyph glyph-name="racute" unicode="&#x155;" 
d="M952 1608h160l-272 -287h-150zM776 1147q180 0 266.5 -110.5t57.5 -301.5l-10 -63h-142l10 57q23 144 -36.5 223.5t-190.5 79.5q-129 0 -214.5 -80t-108.5 -223l-115 -729h-135l178 1126h133l-29 -178h4q46 97 130.5 148t201.5 51z" />
    <glyph glyph-name="uni0156" unicode="&#x156;" 
d="M358 1495h437q199 0 299 -114.5t69 -305.5q-25 -159 -130 -268t-261 -137l232 -670h-152l-217 659h-275l-104 -659h-135zM1026 1077q22 135 -47.5 215t-204.5 80h-301l-94 -592h301q136 0 230 81t116 216zM391 -492h-139l235 297h166z" />
    <glyph glyph-name="uni0157" unicode="&#x157;" 
d="M776 1147q180 0 266.5 -110.5t57.5 -301.5l-10 -63h-142l10 57q23 144 -36.5 223.5t-190.5 79.5q-129 0 -214.5 -80t-108.5 -223l-115 -729h-135l178 1126h133l-29 -178h4q46 97 130.5 148t201.5 51zM53 -492h-139l236 297h165z" />
    <glyph glyph-name="Rcaron" unicode="&#x158;" 
d="M1163 1946l-305 -287h-141l-217 287h139l160 -199l219 199h145zM358 1495h437q199 0 299 -114.5t69 -305.5q-25 -159 -130 -268t-261 -137l232 -670h-152l-217 659h-275l-104 -659h-135zM1026 1077q22 135 -47.5 215t-204.5 80h-301l-94 -592h301q136 0 230 81t116 216z
" />
    <glyph glyph-name="rcaron" unicode="&#x159;" 
d="M1153 1608l-305 -287h-141l-218 287h140l159 -199l220 199h145zM776 1147q180 0 266.5 -110.5t57.5 -301.5l-10 -63h-142l10 57q23 144 -36.5 223.5t-190.5 79.5q-129 0 -214.5 -80t-108.5 -223l-115 -729h-135l178 1126h133l-29 -178h4q46 97 130.5 148t201.5 51z" />
    <glyph glyph-name="Sacute" unicode="&#x15a;" 
d="M840 1659h-150l262 287h160zM530 -20q-213 0 -319 108t-78 295h135q-20 -129 56.5 -206t226.5 -77q142 0 235 72.5t113 198.5q17 114 -28.5 192.5t-147.5 110.5l-176 55q-141 44 -208 152.5t-44 253.5q26 173 157 277t324 104q191 0 288 -107.5t69 -288.5h-136
q20 126 -44.5 200.5t-196.5 74.5q-134 0 -220.5 -66.5t-105.5 -183.5q-15 -106 30 -184t140 -109l176 -57q144 -46 213.5 -158.5t46.5 -259.5q-29 -181 -167 -289t-339 -108z" />
    <glyph glyph-name="sacute" unicode="&#x15b;" 
d="M805 1321h-150l263 287h159zM584 -20h-117q-159 0 -247.5 81t-82.5 215h135q2 -78 59.5 -127t155.5 -49h117q110 0 179.5 52.5t84.5 142.5q12 83 -30.5 138t-130.5 67l-187 28q-307 48 -264 308q23 145 133.5 228t284.5 83h82q155 0 240.5 -76t82.5 -205h-135
q0 72 -56 116t-151 44h-84q-110 0 -179 -50.5t-83 -139.5q-11 -80 29.5 -125t138.5 -60l184 -28q149 -23 216 -105.5t47 -218.5q-25 -149 -136 -234t-286 -85z" />
    <glyph glyph-name="Scircumflex" unicode="&#x15c;" 
d="M604 1659h-149l305 287h141l217 -287h-137l-158 199zM530 -20q-213 0 -319 108t-78 295h135q-20 -129 56.5 -206t226.5 -77q142 0 235 72.5t113 198.5q17 114 -28.5 192.5t-147.5 110.5l-176 55q-141 44 -208 152.5t-44 253.5q26 173 157 277t324 104q191 0 288 -107.5
t69 -288.5h-136q20 126 -44.5 200.5t-196.5 74.5q-134 0 -220.5 -66.5t-105.5 -183.5q-15 -106 30 -184t140 -109l176 -57q144 -46 213.5 -158.5t46.5 -259.5q-29 -181 -167 -289t-339 -108z" />
    <glyph glyph-name="scircumflex" unicode="&#x15d;" 
d="M555 1321h-149l307 287h141l217 -287h-137l-160 199zM584 -20h-117q-159 0 -247.5 81t-82.5 215h135q2 -78 59.5 -127t155.5 -49h117q110 0 179.5 52.5t84.5 142.5q12 83 -30.5 138t-130.5 67l-187 28q-307 48 -264 308q23 145 133.5 228t284.5 83h82q155 0 240.5 -76
t82.5 -205h-135q0 72 -56 116t-151 44h-84q-110 0 -179 -50.5t-83 -139.5q-11 -80 29.5 -125t138.5 -60l184 -28q149 -23 216 -105.5t47 -218.5q-25 -149 -136 -234t-286 -85z" />
    <glyph glyph-name="Scedilla" unicode="&#x15e;" 
d="M1133 1120h-136q20 126 -44.5 200.5t-196.5 74.5q-134 0 -220.5 -66.5t-105.5 -183.5q-15 -106 30 -184t140 -109l176 -57q144 -46 213.5 -158.5t46.5 -259.5q-29 -180 -164.5 -288t-334.5 -109l-25 -50q39 -4 76 -16t69.5 -32t49 -53t10.5 -73q-9 -68 -79 -115t-167 -47
h-168l14 89h156q46 0 79 23.5t38 55.5q8 45 -50.5 74t-162.5 29l63 121q-169 22 -250.5 127t-56.5 270h135q-20 -129 56.5 -206t226.5 -77q142 0 235 72.5t113 198.5q17 114 -28.5 192.5t-147.5 110.5l-176 55q-141 44 -208 152.5t-44 253.5q26 173 157 277t324 104
q191 0 288 -107.5t69 -288.5z" />
    <glyph glyph-name="scedilla" unicode="&#x15f;" 
d="M737 1026h-84q-110 0 -179 -50.5t-83 -139.5q-11 -80 29.5 -125t138.5 -60l184 -28q149 -23 216 -105.5t47 -218.5q-23 -142 -127 -227t-267 -92l-22 -50q56 -6 104.5 -24t83.5 -57.5t29 -92.5q-6 -69 -72 -115.5t-164 -46.5h-168l9 89h155q45 0 77.5 23.5t35.5 55.5
q5 45 -55 74t-164 29l53 115h-47q-159 0 -247.5 81t-82.5 215h135q2 -78 59.5 -127t155.5 -49h117q110 0 179.5 52.5t84.5 142.5q12 83 -30.5 138t-130.5 67l-187 28q-307 48 -264 308q23 145 133.5 228t284.5 83h82q155 0 240.5 -76t82.5 -205h-135q0 72 -56 116t-151 44z
" />
    <glyph glyph-name="Scaron" unicode="&#x160;" 
d="M858 1659h-141l-217 287h139l160 -199l219 199h145zM530 -20q-213 0 -319 108t-78 295h135q-20 -129 56.5 -206t226.5 -77q142 0 235 72.5t113 198.5q17 114 -28.5 192.5t-147.5 110.5l-176 55q-141 44 -208 152.5t-44 253.5q26 173 157 277t324 104q191 0 288 -107.5
t69 -288.5h-136q20 126 -44.5 200.5t-196.5 74.5q-134 0 -220.5 -66.5t-105.5 -183.5q-15 -106 30 -184t140 -109l176 -57q144 -46 213.5 -158.5t46.5 -259.5q-29 -181 -167 -289t-339 -108z" />
    <glyph glyph-name="scaron" unicode="&#x161;" 
d="M813 1321h-141l-217 287h139l160 -199l219 199h145zM584 -20h-117q-159 0 -247.5 81t-82.5 215h135q2 -78 59.5 -127t155.5 -49h117q110 0 179.5 52.5t84.5 142.5q12 83 -30.5 138t-130.5 67l-187 28q-307 48 -264 308q23 145 133.5 228t284.5 83h82q155 0 240.5 -76
t82.5 -205h-135q0 72 -56 116t-151 44h-84q-110 0 -179 -50.5t-83 -139.5q-11 -80 29.5 -125t138.5 -60l184 -28q149 -23 216 -105.5t47 -218.5q-25 -149 -136 -234t-286 -85z" />
    <glyph glyph-name="uni0162" unicode="&#x162;" 
d="M246 1372l20 123h991l-20 -123h-426l-217 -1372l-39 -70q40 -4 77.5 -16t70 -32t49 -53t10.5 -73q-11 -69 -80 -115.5t-166 -46.5h-168l14 89h156q46 0 79 23.5t38 55.5q8 45 -50.5 74t-162.5 29l72 135h-35l217 1372h-430z" />
    <glyph glyph-name="uni0163" unicode="&#x163;" horiz-adv-x="1024" 
d="M932 1004h-379l-115 -732q-24 -149 123 -149h197l-19 -123h-194l-25 -70q56 -6 106 -24t89 -57.5t39 -92.5q0 -69 -62 -115.5t-160 -46.5h-167v89h155q46 0 76.5 23.5t30.5 55.5q0 45 -63.5 74t-168.5 29l56 145q-89 22 -127 89t-21 173l115 732h-271l21 122h270l49 308
h136l-50 -308h377z" />
    <glyph glyph-name="Tcaron" unicode="&#x164;" 
d="M858 1659h-141l-217 287h139l160 -199l219 199h145zM594 0h-135l217 1372h-430l20 123h991l-20 -123h-426z" />
    <glyph glyph-name="tcaron" unicode="&#x165;" horiz-adv-x="1024" 
d="M918 1270h-132l224 319h164zM739 0h-196q-137 0 -199.5 71t-40.5 201l115 732h-271l21 122h270l49 308h136l-50 -308h377l-18 -122h-379l-115 -732q-24 -149 123 -149h197z" />
    <glyph glyph-name="Tbar" unicode="&#x166;" 
d="M1257 1495l-20 -123h-426l-100 -633h309l-19 -116h-309l-98 -623h-135l98 623h-309l18 116h309l101 633h-430l20 123h991z" />
    <glyph glyph-name="tbar" unicode="&#x167;" horiz-adv-x="1024" 
d="M950 1126l-18 -122h-379l-59 -373h372l-18 -115h-371l-39 -244q-24 -149 123 -149h197l-19 -123h-196q-137 0 -199.5 71t-40.5 201l39 244h-270l18 115h268l60 373h-271l21 122h270l49 308h136l-50 -308h377z" />
    <glyph glyph-name="Utilde" unicode="&#x168;" 
d="M938 1669q-44 0 -78 17.5t-55.5 42.5t-40 50t-40.5 42.5t-48 17.5q-40 0 -67.5 -25t-33.5 -67l-10 -68h-102l10 68q13 88 71 138t144 50q44 0 78 -17.5t55 -42.5t39.5 -50t40.5 -42.5t49 -17.5q37 0 61.5 25t30.5 68l13 67h102l-12 -67q-13 -89 -69 -139t-138 -50z
M522 -20q-191 0 -282 112t-60 305l174 1098h135l-174 -1098q-23 -140 36 -218.5t192 -78.5q129 0 212 79t105 218l174 1098h135l-174 -1098q-31 -193 -157 -305t-316 -112z" />
    <glyph glyph-name="utilde" unicode="&#x169;" 
d="M885 1331q-44 0 -78 17.5t-55.5 42.5t-40 50t-40.5 42.5t-48 17.5q-40 0 -67.5 -25t-33.5 -67l-10 -68h-102l10 68q13 88 71 138t144 50q44 0 78 -17.5t55 -42.5t39 -50t40 -42.5t48 -17.5q37 0 62.5 25t31.5 68l12 67h103l-12 -67q-13 -89 -69 -139t-138 -50zM518 -20
q-187 0 -278 113t-60 308l115 725h135l-115 -725q-23 -142 37 -221.5t187 -79.5q128 0 214 79.5t109 221.5l113 725h135l-113 -725q-31 -194 -160 -307.5t-319 -113.5z" />
    <glyph glyph-name="Umacron" unicode="&#x16a;" 
d="M1102 1737h-606l18 114h606zM522 -20q-191 0 -282 112t-60 305l174 1098h135l-174 -1098q-23 -140 36 -218.5t192 -78.5q129 0 212 79t105 218l174 1098h135l-174 -1098q-31 -193 -157 -305t-316 -112z" />
    <glyph glyph-name="umacron" unicode="&#x16b;" 
d="M1047 1389h-607l19 114h606zM518 -20q-187 0 -278 113t-60 308l115 725h135l-115 -725q-23 -142 37 -221.5t187 -79.5q128 0 214 79.5t109 221.5l113 725h135l-113 -725q-31 -194 -160 -307.5t-319 -113.5z" />
    <glyph glyph-name="Ubreve" unicode="&#x16c;" 
d="M786 1653q-141 0 -212.5 79.5t-51.5 213.5h113q-14 -91 30.5 -144t133.5 -53q91 0 152.5 53t74.5 144h115q-20 -133 -117.5 -213t-237.5 -80zM522 -20q-191 0 -282 112t-60 305l174 1098h135l-174 -1098q-23 -140 36 -218.5t192 -78.5q129 0 212 79t105 218l174 1098h135
l-174 -1098q-31 -193 -157 -305t-316 -112z" />
    <glyph glyph-name="ubreve" unicode="&#x16d;" 
d="M733 1315q-141 0 -212.5 79.5t-51.5 213.5h113q-14 -91 30 -144t133 -53q91 0 153 53t75 144h114q-20 -133 -117 -213t-237 -80zM518 -20q-187 0 -278 113t-60 308l115 725h135l-115 -725q-23 -142 37 -221.5t187 -79.5q128 0 214 79.5t109 221.5l113 725h135l-113 -725
q-31 -194 -160 -307.5t-319 -113.5z" />
    <glyph glyph-name="Uring" unicode="&#x16e;" 
d="M776 1585q-101 0 -154.5 60t-39.5 157q15 97 88 157t174 60t154 -60t38 -157q-13 -96 -85.5 -156.5t-174.5 -60.5zM788 1673q59 0 100 35.5t50 93.5q10 58 -20 94.5t-87 36.5q-58 0 -99 -36t-52 -95q-9 -58 21 -93.5t87 -35.5zM522 -20q-191 0 -282 112t-60 305l174 1098
h135l-174 -1098q-23 -140 36 -218.5t192 -78.5q129 0 212 79t105 218l174 1098h135l-174 -1098q-31 -193 -157 -305t-316 -112z" />
    <glyph glyph-name="uring" unicode="&#x16f;" 
d="M723 1253q-101 0 -155 60t-40 157q17 97 90 156.5t175 59.5t154.5 -59.5t35.5 -156.5q-13 -96 -85.5 -156.5t-174.5 -60.5zM737 1339q58 0 98.5 36t49.5 95t-20 95.5t-87 36.5t-100 -36.5t-51 -95.5t21.5 -95t88.5 -36zM518 -20q-187 0 -278 113t-60 308l115 725h135
l-115 -725q-23 -142 37 -221.5t187 -79.5q128 0 214 79.5t109 221.5l113 725h135l-113 -725q-31 -194 -160 -307.5t-319 -113.5z" />
    <glyph glyph-name="Uhungarumlaut" unicode="&#x170;" 
d="M647 1659h-143l266 287h154zM991 1659h-143l266 287h154zM522 -20q-191 0 -282 112t-60 305l174 1098h135l-174 -1098q-23 -140 36 -218.5t192 -78.5q129 0 212 79t105 218l174 1098h135l-174 -1098q-31 -193 -157 -305t-316 -112z" />
    <glyph glyph-name="uhungarumlaut" unicode="&#x171;" 
d="M594 1321h-143l266 287h153zM936 1321h-141l266 287h153zM518 -20q-187 0 -278 113t-60 308l115 725h135l-115 -725q-23 -142 37 -221.5t187 -79.5q128 0 214 79.5t109 221.5l113 725h135l-113 -725q-31 -194 -160 -307.5t-319 -113.5z" />
    <glyph glyph-name="Uogonek" unicode="&#x172;" 
d="M764 -406h-154q-96 0 -145 47.5t-37 127.5q8 50 49 107t105 108q-32 -4 -62 -4q-189 0 -280 111.5t-60 305.5l174 1098h135l-174 -1098q-23 -143 34.5 -220t189.5 -77q133 0 215.5 77t105.5 220l174 1098h135l-174 -1098q-40 -253 -239 -364l-41 -29q-68 -54 -108 -108.5
t-48 -98.5q-6 -47 18 -74.5t74 -27.5h127z" />
    <glyph glyph-name="uogonek" unicode="&#x173;" 
d="M762 -406h-154q-95 0 -144 48t-36 127q12 95 158 215q-40 -4 -66 -4q-189 0 -280 111.5t-60 305.5l115 729h135l-115 -729q-25 -143 33.5 -221t190.5 -78q133 0 215.5 77.5t105.5 221.5l115 729h135l-115 -729q-38 -243 -217 -350l-59 -47q-147 -114 -160 -203
q-8 -46 17 -74t75 -28h127z" />
    <glyph glyph-name="Wcircumflex" unicode="&#x174;" 
d="M604 1659h-149l305 287h141l217 -287h-137l-158 199zM338 0h-178l57 1495h123l-47 -1106q-10 -206 -17 -293q8 27 39 137t45 156l326 1106h156l-33 -1106q-2 -40 -5 -147t-5 -146q13 43 42.5 151t39.5 142l299 1106h127l-420 -1495h-180l32 1102l11 293
q-5 -16 -35.5 -125.5t-48.5 -167.5z" />
    <glyph glyph-name="wcircumflex" unicode="&#x175;" 
d="M551 1321h-150l306 287h141l217 -287h-137l-160 199zM348 0h-162l-8 1126h119l-2 -821q0 -99 -4 -205q21 78 63 203l279 823h135l18 -823v-203q21 81 58 205l262 821h121l-369 -1126h-162l-8 793q-2 74 -2 223q-11 -37 -74 -223z" />
    <glyph glyph-name="Ycircumflex" unicode="&#x176;" 
d="M604 1659h-149l305 287h141l217 -287h-137l-158 199zM592 0h-135l90 567l-309 928h135l217 -651q36 -99 43 -142q3 6 17.5 31t32.5 54t36 57l424 651h143l-604 -928z" />
    <glyph glyph-name="ycircumflex" unicode="&#x177;" 
d="M928 1321l-160 199l-217 -199h-150l306 287h141l217 -287h-137zM866 500l99 626h135l-185 -1161q-26 -161 -131 -247.5t-274 -86.5h-322l21 123h321q216 0 250 211l23 141l33 199q-40 -105 -131.5 -164t-215.5 -59q-168 0 -251 106t-54 287l103 651h135l-100 -634
q-22 -139 37 -217t184 -78q126 0 213 81t110 222z" />
    <glyph glyph-name="Ydieresis" unicode="&#x178;" 
d="M571 1683q-54 0 -80.5 32.5t-17.5 86.5q9 55 45.5 88t89.5 33t80 -33t17 -88q-7 -54 -44 -86.5t-90 -32.5zM1016 1683q-53 0 -80 32.5t-18 86.5q9 56 46 88.5t91 32.5q53 0 78.5 -33t15.5 -88q-8 -54 -43.5 -86.5t-89.5 -32.5zM592 0h-135l90 567l-309 928h135l217 -651
q36 -99 43 -142q3 6 17.5 31t32.5 54t36 57l424 651h143l-604 -928z" />
    <glyph glyph-name="Zacute" unicode="&#x179;" 
d="M840 1659h-150l262 287h160zM956 0h-864l21 135l897 1237h-693l21 123h831l-22 -143l-893 -1229h721z" />
    <glyph glyph-name="zacute" unicode="&#x17a;" 
d="M799 1321h-150l262 287h160zM938 0h-827l20 131l782 873h-626l18 122h787l-21 -131l-788 -872h675z" />
    <glyph glyph-name="Zdotaccent" unicode="&#x17b;" 
d="M791 1681q-59 0 -89.5 33.5t-21.5 87.5q9 55 49.5 88t99.5 33t89 -33.5t20 -87.5q-8 -54 -47.5 -87.5t-99.5 -33.5zM956 0h-864l21 135l897 1237h-693l21 123h831l-22 -143l-893 -1229h721z" />
    <glyph glyph-name="zdotaccent" unicode="&#x17c;" 
d="M735 1337q-60 0 -89.5 32t-20.5 87q7 55 47.5 88t99.5 33q60 0 90 -32.5t21 -88.5q-7 -55 -48 -87t-100 -32zM938 0h-827l20 131l782 873h-626l18 122h787l-21 -131l-788 -872h675z" />
    <glyph glyph-name="Zcaron" unicode="&#x17d;" 
d="M858 1659h-141l-217 287h139l160 -199l219 199h145zM956 0h-864l21 135l897 1237h-693l21 123h831l-22 -143l-893 -1229h721z" />
    <glyph glyph-name="zcaron" unicode="&#x17e;" 
d="M807 1321h-141l-217 287h139l160 -199l219 199h145zM938 0h-827l20 131l782 873h-626l18 122h787l-21 -131l-788 -872h675z" />
    <glyph glyph-name="longs" unicode="&#x17f;" 
d="M160 -369h-230l21 123h231q165 0 189 162l207 1294q20 132 112.5 208.5t233.5 76.5h329l-20 -123h-332q-164 0 -188 -162l-207 -1294q-20 -132 -112.5 -208.5t-233.5 -76.5z" />
    <glyph glyph-name="uni018F" unicode="&#x18f;" 
d="M762 1516q194 0 286.5 -112t61.5 -306l-111 -701q-31 -191 -160 -304t-321 -113q-189 0 -281 113.5t-61 303.5l62 396h688l49 305q22 141 -38 219t-194 78q-133 0 -216 -81.5t-107 -228.5h-135q31 198 158 314.5t319 116.5zM864 397l45 285h-553l-45 -285
q-24 -143 34.5 -223t191.5 -80q136 0 219.5 79t107.5 224z" />
    <glyph glyph-name="uni0190" unicode="&#x190;" 
d="M1178 1110h-136q20 128 -53.5 207.5t-212.5 79.5t-237.5 -78.5t-118.5 -204.5q-20 -124 54 -202t212 -78h160l-19 -121h-168q-151 0 -258 -85t-129 -222q-22 -136 59 -221t232 -85q149 0 254 81.5t127 213.5h135q-29 -186 -177.5 -300.5t-358.5 -114.5q-212 0 -324.5 119
t-81.5 311q22 143 115 241.5t229 126.5q-111 28 -163.5 119.5t-32.5 222.5q29 177 168.5 286.5t337.5 109.5q201 0 308 -112t79 -294z" />
    <glyph glyph-name="florin" unicode="&#x192;" 
d="M55 -369h-205l21 123h205q129 0 211 71t102 200l103 639h-340l18 122h340l70 441q20 126 107 197t222 71h320l-21 -121h-319q-74 0 -119 -37.5t-55 -109.5l-70 -441h471l-18 -122h-471l-105 -652q-28 -176 -154.5 -278.5t-312.5 -102.5z" />
    <glyph glyph-name="uni019B" unicode="&#x19b;" 
d="M735 1341l375 175l-20 -125l-334 -154l260 -1237h-139l-148 731q-26 121 -45 240q-47 -133 -104 -240l-387 -731h-156l606 1106l-16 70l-377 -175l20 125l332 154l-49 215h149z" />
    <glyph glyph-name="Ohorn" unicode="&#x1a0;" 
d="M1116 1524l23 135h110l-22 -139q-10 -63 -48.5 -108t-95.5 -64q50 -101 29 -250l-111 -701q-31 -193 -160.5 -305t-320.5 -112q-190 0 -283.5 112t-62.5 305l111 701q31 192 160.5 305t318.5 113q161 0 252 -82h4q37 0 63.5 25t32.5 65zM866 397l111 701
q22 141 -39.5 219t-192.5 78q-132 0 -217 -78t-108 -219l-111 -701q-23 -142 37.5 -219.5t192.5 -77.5q134 0 219 77.5t108 219.5z" />
    <glyph glyph-name="ohorn" unicode="&#x1a1;" 
d="M1073 1176l23 135h110l-22 -140q-12 -69 -57 -115.5t-111 -60.5q61 -105 37 -266l-52 -332q-31 -193 -160.5 -305t-320.5 -112q-190 0 -283.5 112t-62.5 305l51 332q31 192 162 305t320 113q133 0 227 -62h43q38 0 64 25t32 66zM866 397l52 332q23 142 -38 220.5
t-192 78.5q-132 0 -217.5 -78t-110.5 -221l-51 -332q-23 -142 37.5 -220.5t192.5 -78.5q133 0 217.5 78t109.5 221z" />
    <glyph glyph-name="Uhorn" unicode="&#x1af;" 
d="M1292 1585l21 135h110l-22 -139q-12 -83 -71.5 -132.5t-147.5 -49.5h-27l-160 -1002q-31 -193 -157 -305t-316 -112q-191 0 -282 112t-60 305l174 1098h135l-174 -1098q-23 -140 36 -218.5t192 -78.5q129 0 212 79t105 218l174 1098h160q38 0 64 25t34 65z" />
    <glyph glyph-name="uhorn" unicode="&#x1b0;" 
d="M180 401l115 725h135l-115 -725q-23 -142 37 -221.5t187 -79.5q128 0 214 79.5t109 221.5l113 725h119q38 0 64 24.5t34 66.5l22 135h111l-25 -140q-12 -83 -66 -132.5t-138 -49.5l-99 -629q-32 -195 -161 -308t-318 -113q-187 0 -278 113t-60 308z" />
    <glyph glyph-name="uni01CD" unicode="&#x1cd;" 
d="M858 1659h-141l-217 287h139l160 -199l219 199h145zM176 0h-141l639 1495h176l164 -1495h-133l-43 418h-488zM629 1081l-232 -546h430l-57 546q-9 89 -22 303q-27 -90 -119 -303z" />
    <glyph glyph-name="uni01CE" unicode="&#x1ce;" 
d="M1122 1608l-305 -287h-141l-217 287h139l160 -199l219 199h145zM942 948h2l29 178h135l-178 -1126h-135l28 178h-2q-44 -93 -134.5 -145.5t-207.5 -52.5q-169 0 -251.5 111.5t-53.5 299.5l53 342q31 189 150 301.5t289 112.5q115 0 188 -53t88 -146zM856 395l53 334
q22 142 -37.5 221.5t-189.5 79.5q-128 0 -213 -79.5t-107 -221.5l-53 -334q-22 -141 37.5 -220t188.5 -79t214 79t107 220z" />
    <glyph glyph-name="uni01D0" unicode="&#x1d0;" horiz-adv-x="1024" 
d="M743 1321h-141l-217 287h139l160 -199l219 199h146zM819 0h-719l19 123h305l139 881h-264l18 122h400l-158 -1003h279z" />
    <glyph glyph-name="uni01D2" unicode="&#x1d2;" 
d="M807 1321h-141l-217 287h139l160 -199l219 199h145zM520 -20q-190 0 -283.5 112t-62.5 305l51 332q31 192 162 305t320 113t283 -113t63 -305l-52 -332q-31 -193 -160.5 -305t-320.5 -112zM539 98q133 0 217.5 78t109.5 221l52 332q23 142 -38 220.5t-192 78.5
q-132 0 -217.5 -78t-110.5 -221l-51 -332q-23 -142 37.5 -220.5t192.5 -78.5z" />
    <glyph glyph-name="uni01D4" unicode="&#x1d4;" 
d="M807 1321h-141l-217 287h139l160 -199l219 199h145zM518 -20q-187 0 -278 113t-60 308l115 725h135l-115 -725q-23 -142 37 -221.5t187 -79.5q128 0 214 79.5t109 221.5l113 725h135l-113 -725q-31 -194 -160 -307.5t-319 -113.5z" />
    <glyph glyph-name="uni01D6" unicode="&#x1d6;" 
d="M1118 1839h-606l18 115h607zM514 1337q-54 0 -80.5 32t-17.5 87t45.5 88t89.5 33t79 -33t17 -88q-7 -55 -43.5 -87t-89.5 -32zM958 1337q-53 0 -80 32t-18 87q9 56 46 88.5t91 32.5q53 0 78.5 -33t16.5 -88q-7 -55 -43.5 -87t-90.5 -32zM518 -20q-187 0 -278 113t-60 308
l115 725h135l-115 -725q-23 -142 37 -221.5t187 -79.5q128 0 214 79.5t109 221.5l113 725h135l-113 -725q-31 -194 -160 -307.5t-319 -113.5z" />
    <glyph glyph-name="uni01D8" unicode="&#x1d8;" 
d="M870 1772h-149l262 286h160zM514 1337q-54 0 -80.5 32t-17.5 87t45.5 88t89.5 33t79 -33t17 -88q-7 -55 -43.5 -87t-89.5 -32zM958 1337q-53 0 -80 32t-18 87q9 56 46 88.5t91 32.5q53 0 78.5 -33t16.5 -88q-7 -55 -43.5 -87t-90.5 -32zM518 -20q-187 0 -278 113t-60 308
l115 725h135l-115 -725q-23 -142 37 -221.5t187 -79.5q128 0 214 79.5t109 221.5l113 725h135l-113 -725q-31 -194 -160 -307.5t-319 -113.5z" />
    <glyph glyph-name="uni01DA" unicode="&#x1da;" 
d="M879 1772h-142l-217 286h139l160 -198l219 198h146zM514 1337q-54 0 -80.5 32t-17.5 87t45.5 88t89.5 33t79 -33t17 -88q-7 -55 -43.5 -87t-89.5 -32zM958 1337q-53 0 -80 32t-18 87q9 56 46 88.5t91 32.5q53 0 78.5 -33t16.5 -88q-7 -55 -43.5 -87t-90.5 -32zM518 -20
q-187 0 -278 113t-60 308l115 725h135l-115 -725q-23 -142 37 -221.5t187 -79.5q128 0 214 79.5t109 221.5l113 725h135l-113 -725q-31 -194 -160 -307.5t-319 -113.5z" />
    <glyph glyph-name="uni01DC" unicode="&#x1dc;" 
d="M899 1772h-137l-187 286h148zM514 1337q-54 0 -80.5 32t-17.5 87t45.5 88t89.5 33t79 -33t17 -88q-7 -55 -43.5 -87t-89.5 -32zM958 1337q-53 0 -80 32t-18 87q9 56 46 88.5t91 32.5q53 0 78.5 -33t16.5 -88q-7 -55 -43.5 -87t-90.5 -32zM518 -20q-187 0 -278 113
t-60 308l115 725h135l-115 -725q-23 -142 37 -221.5t187 -79.5q128 0 214 79.5t109 221.5l113 725h135l-113 -725q-31 -194 -160 -307.5t-319 -113.5z" />
    <glyph glyph-name="Gcaron" unicode="&#x1e6;" 
d="M864 1659h-141l-217 287h139l162 -199l219 199h145zM530 -20q-194 0 -290.5 112.5t-65.5 304.5l111 701q31 193 163 305.5t326 112.5q195 0 292.5 -117t66.5 -314h-136q23 145 -41.5 227.5t-199.5 82.5t-224 -78.5t-112 -218.5l-111 -701q-22 -139 42.5 -218t199.5 -79
q136 0 226.5 82.5t113.5 227.5l33 208h-334l18 123h469l-51 -331q-31 -196 -166 -313t-330 -117z" />
    <glyph glyph-name="gcaron" unicode="&#x1e7;" 
d="M1106 1608l-305 -287h-142l-217 287h140l159 -199l220 199h145zM942 934l31 192h135l-184 -1161q-25 -161 -130.5 -247.5t-275.5 -86.5h-319l20 123h322q213 0 247 211l19 113l37 219q-40 -103 -131 -161t-215 -58q-170 0 -253.5 111.5t-54.5 299.5l39 244
q29 188 149 301t290 113q121 0 193.5 -56.5t80.5 -156.5zM872 494l37 235q23 141 -36.5 221t-188.5 80t-214 -79.5t-108 -221.5l-36 -235q-22 -141 37 -220t188 -79t214 79t107 220z" />
    <glyph glyph-name="uni01EA" unicode="&#x1ea;" 
d="M764 -406h-154q-96 0 -145 47.5t-37 127.5q8 50 49 107t105 108q-32 -4 -62 -4q-190 0 -283.5 112t-62.5 305l111 701q31 192 160.5 305t318.5 113t284 -113t64 -305l-111 -701q-40 -249 -245 -364l-41 -29q-68 -54 -108 -108.5t-48 -98.5q-6 -47 18 -74.5t74 -27.5h127z
M539 100q134 0 219 77.5t108 219.5l111 701q22 141 -39.5 219t-192.5 78q-132 0 -217 -78t-108 -219l-111 -701q-23 -142 37.5 -219.5t192.5 -77.5z" />
    <glyph glyph-name="uni01EB" unicode="&#x1eb;" 
d="M762 -406h-154q-95 0 -144 48t-36 127q12 95 158 215q-40 -4 -66 -4q-190 0 -283.5 112t-62.5 305l51 332q31 192 162 305t320 113t283 -113t63 -305l-52 -332q-41 -241 -223 -350l-59 -47q-147 -114 -160 -203q-8 -46 17 -74t75 -28h127zM539 98q133 0 217.5 78
t109.5 221l52 332q23 142 -38 220.5t-192 78.5q-132 0 -217.5 -78t-110.5 -221l-51 -332q-23 -142 37.5 -220.5t192.5 -78.5z" />
    <glyph glyph-name="uni01F4" unicode="&#x1f4;" 
d="M846 1659h-150l262 287h162zM530 -20q-194 0 -290.5 112.5t-65.5 304.5l111 701q31 193 163 305.5t326 112.5q195 0 292.5 -117t66.5 -314h-136q23 145 -41.5 227.5t-199.5 82.5t-224 -78.5t-112 -218.5l-111 -701q-22 -139 42.5 -218t199.5 -79q136 0 226.5 82.5
t113.5 227.5l33 208h-334l18 123h469l-51 -331q-31 -196 -166 -313t-330 -117z" />
    <glyph glyph-name="uni01F5" unicode="&#x1f5;" 
d="M905 1608h160l-272 -287h-150zM942 934l31 192h135l-184 -1161q-25 -161 -130.5 -247.5t-275.5 -86.5h-319l20 123h322q213 0 247 211l19 113l37 219q-40 -103 -131 -161t-215 -58q-170 0 -253.5 111.5t-54.5 299.5l39 244q29 188 149 301t290 113q121 0 193.5 -56.5
t80.5 -156.5zM872 494l37 235q23 141 -36.5 221t-188.5 80t-214 -79.5t-108 -221.5l-36 -235q-22 -141 37 -220t188 -79t214 79t107 220z" />
    <glyph glyph-name="AEacute" unicode="&#x1fc;" 
d="M840 1659h-150l262 287h160zM113 0h-138l588 1495h750l-21 -123h-405l-84 -534h342l-19 -123h-342l-94 -592h406l-21 -123h-536l67 430h-323zM647 1372l-319 -825h297l131 825h-109z" />
    <glyph glyph-name="aeacute" unicode="&#x1fd;" 
d="M799 1321h-150l262 287h160zM258 -20q-126 0 -186.5 80.5t-38.5 215.5l14 107q20 123 109 195.5t221 72.5h192l29 180q14 91 -24 145t-117 54q-70 0 -122 -45.5t-69 -118.5h-131q26 128 114 204.5t212 76.5q108 0 163.5 -53t57.5 -119h6q24 65 95.5 118.5t172.5 53.5
q132 0 195.5 -85.5t40.5 -230.5l-47 -292h-467l-37 -244q-14 -88 25.5 -142.5t115.5 -54.5q72 0 122.5 44t68.5 118h131q-28 -129 -116 -204.5t-214 -75.5q-108 0 -161.5 52t-55.5 118h-6q-24 -66 -100.5 -118t-192.5 -52zM725 831l-29 -180h336l29 180q14 88 -23 143.5
t-112 55.5q-76 0 -131.5 -56t-69.5 -143zM305 94q77 0 135.5 56.5t71.5 144.5l39 244h-193q-67 0 -115.5 -43.5t-60.5 -112.5l-14 -107q-14 -80 24 -131t113 -51z" />
    <glyph glyph-name="Oslashacute" unicode="&#x1fe;" 
d="M952 1946h160l-272 -287h-150zM1161 1536h131l-184 -256q19 -82 4 -182l-111 -701q-32 -193 -161 -305t-320 -112q-186 0 -278 106l-123 -168h-131l196 270q-28 91 -10 209l111 701q31 192 160.5 305t318.5 113q201 0 293 -125zM420 1098l-111 -701q-4 -28 -4 -43
l662 914q-51 127 -222 127q-132 0 -217 -78t-108 -219zM866 397l111 701v4l-649 -895q54 -107 211 -107q134 0 219 77.5t108 219.5z" />
    <glyph glyph-name="oslashacute" unicode="&#x1ff;" 
d="M911 1608h160l-272 -287h-150zM1090 1208h139l-201 -235q48 -103 25 -244l-52 -332q-31 -193 -160.5 -305t-320.5 -112q-172 0 -266 94l-115 -135h-139l195 227q-42 97 -21 231l51 332q31 192 162 305t320 113q164 0 256 -86zM356 729l-51 -332q-10 -62 -4 -108l573 669
q-64 70 -186 70q-133 0 -221 -79t-111 -220zM870 397l52 332q12 66 2 123l-580 -676q60 -78 195 -78q134 0 221 78.5t110 220.5z" />
    <glyph glyph-name="uni0218" unicode="&#x218;" 
d="M530 -20q-213 0 -319 108t-78 295h135q-20 -129 56.5 -206t226.5 -77q142 0 235 72.5t113 198.5q17 114 -28.5 192.5t-147.5 110.5l-176 55q-141 44 -208 152.5t-44 253.5q26 173 157 277t324 104q191 0 288 -107.5t69 -288.5h-136q20 126 -44.5 200.5t-196.5 74.5
q-134 0 -220.5 -66.5t-105.5 -183.5q-15 -106 30 -184t140 -109l176 -57q144 -46 213.5 -158.5t46.5 -259.5q-29 -181 -167 -289t-339 -108zM391 -492h-139l235 297h166z" />
    <glyph glyph-name="uni0219" unicode="&#x219;" 
d="M584 -20h-117q-159 0 -247.5 81t-82.5 215h135q2 -78 59.5 -127t155.5 -49h117q110 0 179.5 52.5t84.5 142.5q12 83 -30.5 138t-130.5 67l-187 28q-307 48 -264 308q23 145 133.5 228t284.5 83h82q155 0 240.5 -76t82.5 -205h-135q0 72 -56 116t-151 44h-84
q-110 0 -179 -50.5t-83 -139.5q-11 -80 29.5 -125t138.5 -60l184 -28q149 -23 216 -105.5t47 -218.5q-25 -149 -136 -234t-286 -85zM397 -492h-139l236 297h165z" />
    <glyph glyph-name="uni021A" unicode="&#x21a;" 
d="M594 0h-135l217 1372h-430l20 123h991l-20 -123h-426zM391 -492h-139l235 297h166z" />
    <glyph glyph-name="uni021B" unicode="&#x21b;" 
d="M739 0h-196q-137 0 -199.5 71t-40.5 201l115 732h-271l21 122h270l49 308h136l-50 -308h377l-18 -122h-379l-115 -732q-24 -149 123 -149h197zM410 -492h-140l236 297h166z" />
    <glyph glyph-name="uni0232" unicode="&#x232;" 
d="M1102 1737h-606l18 114h606zM592 0h-135l90 567l-309 928h135l217 -651q36 -99 43 -142q3 6 17.5 31t32.5 54t36 57l424 651h143l-604 -928z" />
    <glyph glyph-name="uni0233" unicode="&#x233;" 
d="M459 1503h606l-18 -114h-607zM866 500l99 626h135l-185 -1161q-26 -161 -131 -247.5t-274 -86.5h-322l21 123h321q216 0 250 211l23 141l33 199q-40 -105 -131.5 -164t-215.5 -59q-168 0 -251 106t-54 287l103 651h135l-100 -634q-22 -139 37 -217t184 -78q126 0 213 81
t110 222z" />
    <glyph glyph-name="uni0237" unicode="&#x237;" horiz-adv-x="819" 
d="M45 -369h-135l20 123h136q138 0 222.5 73t106.5 210l152 967h-363l21 122h497l-172 -1089q-31 -189 -160.5 -297.5t-324.5 -108.5z" />
    <glyph glyph-name="uni0259" unicode="&#x259;" 
d="M705 1147q192 0 284.5 -113t61.5 -305l-52 -332q-31 -191 -160 -304t-321 -113q-189 0 -281 113.5t-61 303.5l31 197h690l21 135q23 142 -37 221.5t-195 79.5q-109 0 -185.5 -47.5t-115.5 -136.5h-135q48 139 169 220t286 81zM866 397l13 88h-555l-15 -88
q-24 -143 35 -223t193 -80q136 0 220.5 79.5t108.5 223.5z" />
    <glyph glyph-name="uni02B9" unicode="&#x2b9;" horiz-adv-x="819" 
d="M416 840h-115l258 637h217z" />
    <glyph glyph-name="uni02BA" unicode="&#x2ba;" 
d="M295 838h-115l258 637h217zM852 838h-115l258 637h217z" />
    <glyph glyph-name="uni02BC" unicode="&#x2bc;" horiz-adv-x="409" 
d="M193 952h-115l258 637h217z" />
    <glyph glyph-name="circumflex" unicode="&#x2c6;" 
d="M553 1321h-150l306 287h141l217 -287h-137l-160 199z" />
    <glyph glyph-name="caron" unicode="&#x2c7;" 
d="M807 1321h-141l-217 287h139l160 -199l219 199h145z" />
    <glyph glyph-name="uni02C9" unicode="&#x2c9;" 
d="M1049 1389h-607l19 114h606z" />
    <glyph glyph-name="breve" unicode="&#x2d8;" 
d="M735 1315q-141 0 -212.5 79.5t-51.5 213.5h113q-14 -91 30.5 -144t133.5 -53q91 0 152.5 53t74.5 144h115q-20 -133 -117.5 -213t-237.5 -80z" />
    <glyph glyph-name="dotaccent" unicode="&#x2d9;" 
d="M737 1337q-60 0 -89.5 32t-20.5 87q7 55 47.5 88t99.5 33q60 0 90 -32.5t21 -88.5q-7 -55 -48 -87t-100 -32z" />
    <glyph glyph-name="ring" unicode="&#x2da;" 
d="M725 1253q-101 0 -155 60t-40 157q17 97 90 156.5t175 59.5t154.5 -59.5t35.5 -156.5q-13 -96 -85.5 -156.5t-174.5 -60.5zM739 1339q58 0 98.5 36t49.5 95t-20 95.5t-87 36.5t-100 -36.5t-51 -95.5t21.5 -95t88.5 -36z" />
    <glyph glyph-name="ogonek" unicode="&#x2db;" 
d="M623 -406h-154q-96 0 -145 47.5t-37 127.5q19 127 211 251h106l-26 -20q-144 -111 -160 -203q-6 -47 18 -74.5t74 -27.5h127z" />
    <glyph glyph-name="tilde" unicode="&#x2dc;" 
d="M885 1331q-44 0 -78 17.5t-55.5 42.5t-40 50t-40.5 42.5t-48 17.5q-40 0 -67.5 -25t-33.5 -67l-10 -68h-102l10 68q13 88 71 138t144 50q44 0 78 -17.5t55 -42.5t39 -50t40 -42.5t48 -17.5q37 0 62.5 25t31.5 68l12 67h103l-12 -67q-13 -89 -69 -139t-138 -50z" />
    <glyph glyph-name="hungarumlaut" unicode="&#x2dd;" 
d="M594 1321h-143l266 287h153zM936 1321h-141l266 287h153z" />
    <glyph glyph-name="uni02F3" unicode="&#x2f3;" 
d="M446 -506q-102 0 -156 54.5t-40 144.5q13 89 84.5 143.5t173.5 54.5q103 0 157 -54.5t40 -143.5q-13 -89 -85 -144t-174 -55zM457 -422q60 0 100.5 32t48.5 83q9 55 -20.5 86t-91.5 31q-56 0 -96.5 -32.5t-49.5 -84.5q-7 -51 23 -83t86 -32z" />
    <glyph glyph-name="uni02F7" unicode="&#x2f7;" 
d="M764 -430q-44 0 -81 17.5t-62 42.5t-47.5 50t-47.5 42.5t-51 17.5q-40 0 -63 -24.5t-23 -67.5v-68h-102v68q0 89 49.5 138.5t134.5 49.5q44 0 81 -17.5t62 -42.5t47.5 -50t47.5 -42.5t51 -17.5q37 0 58.5 24.5t21.5 67.5v68h102v-68q0 -89 -48 -138.5t-130 -49.5z" />
    <glyph glyph-name="gravecomb" unicode="&#x300;" horiz-adv-x="0" 
d="M-375 1321h-137l-186 287h147z" />
    <glyph glyph-name="acutecomb" unicode="&#x301;" horiz-adv-x="0" 
d="M-465 1321h-149l262 287h159z" />
    <glyph glyph-name="uni0302" unicode="&#x302;" horiz-adv-x="0" 
d="M-676 1321h-149l305 287h141l217 -287h-137l-160 199z" />
    <glyph glyph-name="tildecomb" unicode="&#x303;" horiz-adv-x="0" 
d="M-344 1331q-44 0 -78 17.5t-55.5 42.5t-40 50t-40.5 42.5t-48 17.5q-40 0 -67.5 -25t-33.5 -67l-10 -68h-102l10 68q13 88 71 138t144 50q44 0 78 -17.5t55 -42.5t39 -50t40 -42.5t48 -17.5q37 0 62.5 25t31.5 68l13 67h102l-12 -67q-13 -89 -69 -139t-138 -50z" />
    <glyph glyph-name="uni0304" unicode="&#x304;" horiz-adv-x="0" 
d="M-180 1389h-606l18 114h606z" />
    <glyph glyph-name="uni0306" unicode="&#x306;" horiz-adv-x="0" 
d="M-494 1315q-141 0 -212.5 79.5t-51.5 213.5h113q-14 -91 30.5 -144t133.5 -53q91 0 152.5 53t74.5 144h115q-20 -133 -117.5 -213t-237.5 -80z" />
    <glyph glyph-name="uni0307" unicode="&#x307;" horiz-adv-x="0" 
d="M-492 1337q-60 0 -89.5 32t-20.5 87q7 55 47.5 88t99.5 33q60 0 90 -32.5t21 -88.5q-7 -55 -48 -87t-100 -32z" />
    <glyph glyph-name="uni0308" unicode="&#x308;" horiz-adv-x="0" 
d="M-713 1337q-54 0 -80.5 32t-17.5 87t45.5 88t89.5 33t79 -33t17 -88q-7 -55 -43.5 -87t-89.5 -32zM-268 1337q-53 0 -80.5 32t-18.5 87t46.5 88t91.5 33q52 0 77.5 -32.5t16.5 -88.5q-7 -55 -43 -87t-90 -32z" />
    <glyph glyph-name="hookabovecomb" unicode="&#x309;" horiz-adv-x="0" 
d="M-430 1321h-139l133 145q42 50 45 70q6 51 -60 51h-172l17 96h192q75 0 114 -36t30 -97q-9 -57 -54 -108z" />
    <glyph glyph-name="uni030A" unicode="&#x30a;" horiz-adv-x="0" 
d="M-504 1253q-101 0 -154.5 60t-39.5 157q17 97 89.5 156.5t174.5 59.5t154.5 -59.5t35.5 -156.5q-13 -96 -85.5 -156.5t-174.5 -60.5zM-489 1339q58 0 98 36t49 95t-20 95.5t-87 36.5t-100 -36.5t-51 -95.5q-9 -58 21.5 -94.5t89.5 -36.5z" />
    <glyph glyph-name="uni030B" unicode="&#x30b;" horiz-adv-x="0" 
d="M-635 1321h-143l266 287h154zM-293 1321h-141l266 287h154z" />
    <glyph glyph-name="uni030C" unicode="&#x30c;" horiz-adv-x="0" 
d="M-422 1321h-141l-217 287h139l160 -199l219 199h145z" />
    <glyph glyph-name="uni030F" unicode="&#x30f;" horiz-adv-x="0" 
d="M-737 1608l174 -287h-129l-187 287h142zM-397 1608l174 -287h-129l-187 287h142z" />
    <glyph glyph-name="uni0312" unicode="&#x312;" horiz-adv-x="0" 
d="M-319 1802h116l-258 -481h-182z" />
    <glyph glyph-name="uni031B" unicode="&#x31b;" horiz-adv-x="0" 
d="M-317 1030h-95l15 96h90q38 0 64 24.5t34 66.5l23 135h110l-24 -140q-12 -82 -72 -132t-145 -50z" />
    <glyph glyph-name="dotbelowcomb" unicode="&#x323;" horiz-adv-x="0" 
d="M-770 -426q-59 0 -89.5 32.5t-21.5 86.5q9 56 49.5 88.5t100.5 32.5q59 0 88 -33t20 -88q-8 -54 -47.5 -86.5t-99.5 -32.5z" />
    <glyph glyph-name="uni0325" unicode="&#x325;" horiz-adv-x="0" 
d="M-782 -506q-103 0 -157 55t-40 144q13 89 84.5 143.5t173.5 54.5q103 0 157 -54.5t40 -143.5q-13 -89 -85 -144t-173 -55zM-772 -422q60 0 100.5 32t48.5 83q9 55 -20.5 86t-91.5 31q-56 0 -96.5 -32.5t-49.5 -84.5q-7 -51 23 -83t86 -32z" />
    <glyph glyph-name="uni0326" unicode="&#x326;" horiz-adv-x="0" 
d="M-838 -492h-139l236 297h166z" />
    <glyph glyph-name="uni0327" unicode="&#x327;" horiz-adv-x="0" 
d="M-788 -406h-168l14 89h156q46 0 78.5 23.5t37.5 55.5q8 45 -50.5 74t-162.5 29l101 188h98l-64 -123q39 -4 76 -16t69.5 -32t49 -53t10.5 -73q-9 -68 -78.5 -115t-166.5 -47z" />
    <glyph glyph-name="uni0328" unicode="&#x328;" horiz-adv-x="0" 
d="M-606 -406h-154q-96 0 -145 47.5t-37 127.5q19 127 211 251h106l-26 -20q-144 -111 -160 -203q-6 -47 18 -74.5t74 -27.5h127z" />
    <glyph glyph-name="uni0336" unicode="&#x336;" horiz-adv-x="0" 
d="M68 614h-1350l16 107h1352z" />
    <glyph glyph-name="uni0337" unicode="&#x337;" horiz-adv-x="0" 
d="M-1085 -61h-140l1086 1269h139z" />
    <glyph glyph-name="uni0338" unicode="&#x338;" horiz-adv-x="0" 
d="M-1004 -225h-112l891 1577h112z" />
    <glyph glyph-name="uni0374" unicode="&#x374;" 
d="M520 840h-114l258 637h217z" />
    <glyph glyph-name="uni0375" unicode="&#x375;" 
d="M215 -328h-123l258 637h225z" />
    <glyph glyph-name="uni037E" unicode="&#x37e;" 
d="M469 852h-29q-66 0 -100.5 40.5t-24.5 106.5q9 65 57.5 106.5t114.5 41.5h29q64 0 99 -41.5t26 -106.5q-10 -66 -58 -106.5t-114 -40.5zM145 -328h-118l258 637h221z" />
    <glyph glyph-name="tonos" unicode="&#x384;" 
d="M993 1608l-272 -287h-141l262 287h151z" />
    <glyph glyph-name="dieresistonos" unicode="&#x385;" 
d="M817 1575h-108l206 268h125zM514 1337q-53 0 -79 32t-19 87q9 55 45.5 88t89.5 33t80 -33t18 -88t-45.5 -87t-89.5 -32zM961 1337q-54 0 -81 32t-20 87q9 56 46 88.5t91 32.5q53 0 79.5 -33t17.5 -88t-44.5 -87t-88.5 -32z" />
    <glyph glyph-name="Alphatonos" unicode="&#x386;" 
d="M176 0h-141l639 1495h176l164 -1495h-133l-43 418h-488zM311 1165h-129l166 328h144zM629 1081l-232 -546h430l-57 546q-9 89 -22 303q-27 -90 -119 -303z" />
    <glyph glyph-name="anoteleia" unicode="&#x387;" 
d="M408 543q-72 0 -108.5 42.5t-25.5 114.5q12 73 62.5 116.5t122.5 43.5q73 0 108 -43t23 -117q-10 -72 -60 -114.5t-122 -42.5z" />
    <glyph glyph-name="Epsilontonos" unicode="&#x388;" 
d="M963 0h-824l238 1495h823l-20 -123h-688l-84 -530h616l-18 -123h-619l-94 -596h688zM61 1165h-129l166 328h144z" />
    <glyph glyph-name="Etatonos" unicode="&#x389;" 
d="M256 0h-135l237 1495h136l-105 -659h537l104 659h135l-237 -1495h-135l112 713h-536zM61 1165h-129l166 328h144z" />
    <glyph glyph-name="Iotatonos" unicode="&#x38a;" 
d="M905 0h-762l19 123h315l197 1249h-314l21 123h762l-21 -123h-311l-199 -1249h312zM61 1165h-129l166 328h144z" />
    <glyph glyph-name="Omicrontonos" unicode="&#x38c;" 
d="M520 -20q-190 0 -283.5 112t-62.5 305l111 701q31 192 160.5 305t318.5 113t283 -113t65 -305l-111 -701q-31 -193 -160.5 -305t-320.5 -112zM127 1165h-129l166 328h143zM539 100q134 0 219 77.5t108 219.5l111 701q22 141 -39.5 219t-192.5 78q-132 0 -217 -78
t-108 -219l-111 -701q-23 -142 37.5 -219.5t192.5 -77.5z" />
    <glyph glyph-name="Upsilontonos" unicode="&#x38e;" 
d="M592 0h-135l90 567l-309 928h135l217 -651q36 -99 43 -142q3 6 17.5 31t32.5 54t36 57l424 651h143l-604 -928zM29 1165h-129l166 328h143z" />
    <glyph glyph-name="Omegatonos" unicode="&#x38f;" 
d="M442 0h-430l19 121h321l4 22q-38 3 -72 22t-63.5 57.5t-39.5 96.5t1 140l101 633q32 194 162 309t321 115q189 0 282.5 -115.5t61.5 -308.5l-100 -633q-12 -77 -43 -139t-70 -98t-79.5 -56t-78.5 -23l-6 -22h324l-21 -121h-430l31 193q89 0 153.5 71.5t83.5 190.5
l101 637q23 139 -38 221t-189 82q-129 0 -218 -81.5t-112 -221.5l-101 -637q-19 -119 23 -189.5t133 -70.5zM127 1165h-129l166 328h143z" />
    </font>
</defs>
</svg>
