<?xml version="1.0" standalone="no"?>
<!DOCTYPE svg PUBLIC "-//W3C//DTD SVG 1.1//EN" "http://www.w3.org/Graphics/SVG/1.1/DTD/svg11.dtd" >
<svg xmlns="http://www.w3.org/2000/svg" xmlns:xlink="http://www.w3.org/1999/xlink" version="1.1">
<metadata>
Created by FontForge 20170731 at Sat Oct  2 18:50:08 2021
 By Aleksey,,,
Copyright 2021 Alessio Laiso, Mario Rullo, Paolo Rosset
</metadata>
<defs>
<font id="TekneLDOVariable" horiz-adv-x="600" >
  <font-face 
    font-family="Tekne LDO Variable"
    font-weight="400"
    font-stretch="normal"
    units-per-em="1000"
    panose-1="2 0 0 9 0 0 0 0 0 0"
    ascent="800"
    descent="-200"
    x-height="550"
    cap-height="730"
    bbox="-1735 -400 709 1120"
    underline-thickness="50"
    underline-position="-205"
    unicode-range="U+000D-1D54A"
  />
<missing-glyph 
d="M90 0v730h420v-730h-420zM160 50h300v571zM140 109l300 571h-300v-571z" />
    <glyph glyph-name=".notdef" 
d="M90 0v730h420v-730h-420zM160 50h300v571zM140 109l300 571h-300v-571z" />
    <glyph glyph-name=".null" horiz-adv-x="0" 
 />
    <glyph glyph-name="nonmarkingreturn" unicode="&#xd;" horiz-adv-x="400" 
 />
    <glyph glyph-name="uni2400" unicode="&#x2400;" 
d="M25.7012 245v240.912h39.6025l73.5938 -206.261q-1.32031 14.5215 -2.31055 34.6523q-0.989258 20.1309 -0.989258 36.3018v135.307h28.7109v-240.912h-39.6016l-73.2637 206.261q2.96973 -36.3018 2.96973 -70.9541v-135.307h-28.7119zM294.005 241.7
q-33.3311 0 -51.3174 18.3154q-17.9863 18.3164 -17.9863 50.9883v174.908h29.7021v-174.908q0 -20.1318 10.0654 -31.5176q10.0654 -11.3848 29.5361 -11.3848q19.4717 0 29.5371 11.3848q10.0654 11.3857 10.0654 31.5176v174.908h29.7012v-174.908
q0 -32.6719 -17.8203 -50.9883q-17.8213 -18.3154 -51.4834 -18.3154zM448.902 245v240.912h29.7012v-213.851h108.906v-27.0615h-138.607z" />
    <glyph glyph-name="uni2400" 
d="M25.7012 245v240.912h39.6025l73.5938 -206.261q-1.32031 14.5215 -2.31055 34.6523q-0.989258 20.1309 -0.989258 36.3018v135.307h28.7109v-240.912h-39.6016l-73.2637 206.261q2.96973 -36.3018 2.96973 -70.9541v-135.307h-28.7119zM294.005 241.7
q-33.3311 0 -51.3174 18.3154q-17.9863 18.3164 -17.9863 50.9883v174.908h29.7021v-174.908q0 -20.1318 10.0654 -31.5176q10.0654 -11.3848 29.5361 -11.3848q19.4717 0 29.5371 11.3848q10.0654 11.3857 10.0654 31.5176v174.908h29.7012v-174.908
q0 -32.6719 -17.8203 -50.9883q-17.8213 -18.3154 -51.4834 -18.3154zM448.902 245v240.912h29.7012v-213.851h108.906v-27.0615h-138.607z" />
    <glyph glyph-name="uni2401" unicode="&#x2401;" 
d="M96.3252 241.7q-23.1016 0 -40.4268 8.25q-17.3262 8.25098 -26.7314 23.2666t-9.40527 35.1465h29.7012q0 -18.1514 12.8701 -29.2061q12.8711 -11.0557 33.9922 -11.0557q20.4609 0 32.6719 11.0557q12.21 11.0547 12.21 29.2061q0 14.1904 -7.4248 24.916
q-7.42578 10.7256 -20.2959 14.6855l-35.6426 11.2207q-24.0908 7.59082 -37.7861 24.917q-13.6963 17.3252 -13.6963 40.7568q0 19.4707 8.74609 33.9922q8.74512 14.5205 24.751 22.4404q16.0059 7.9209 37.127 7.9209q32.0117 0 51.1523 -17.4912
q19.1416 -17.4912 19.1416 -46.8623h-29.7021q0 17.4912 -11.0557 27.7217t-29.5361 10.2305q-18.8115 0 -30.1963 -10.2305q-11.3857 -10.2305 -11.3857 -27.0615q0 -13.2012 7.4248 -22.7715q7.42578 -9.57031 20.9561 -13.8604l36.9619 -11.8809
q22.7715 -7.59082 36.1377 -25.9062q13.3652 -18.3164 13.3652 -42.7373q0 -20.1309 -9.0752 -35.1465q-9.07617 -15.0156 -25.9062 -23.2666q-16.8311 -8.25 -38.9424 -8.25zM294.005 241.7q-21.4512 0 -37.292 8.25q-15.8408 8.25098 -24.2559 23.9268
q-8.41602 15.6758 -8.41602 37.127v108.905q0 21.4512 8.41602 37.127q8.41504 15.6758 24.2559 23.9258q15.8408 8.25098 37.292 8.25098t37.292 -8.25098q15.8408 -8.25 24.2568 -23.9258q8.41504 -15.6758 8.41504 -36.7969v-109.235q0 -21.4512 -8.41504 -37.127
q-8.41602 -15.6758 -24.2568 -23.9268q-15.8408 -8.25 -37.292 -8.25zM294.005 268.432q19.4717 0 29.8672 11.0547q10.3955 11.0557 10.3955 31.5176v108.905q0 20.4609 -10.3955 31.5166t-29.8672 11.0557q-19.4707 0 -29.8662 -11.0557t-10.3955 -31.5166v-108.905
q0 -20.4619 10.3955 -31.5176q10.3955 -11.0547 29.8662 -11.0547zM436.691 245v240.912h29.7021v-102.965h77.2236v102.965h29.7012v-240.912h-29.7012v110.886h-77.2236v-110.886h-29.7021z" />
    <glyph glyph-name="uni2401" 
d="M96.3252 241.7q-23.1016 0 -40.4268 8.25q-17.3262 8.25098 -26.7314 23.2666t-9.40527 35.1465h29.7012q0 -18.1514 12.8701 -29.2061q12.8711 -11.0557 33.9922 -11.0557q20.4609 0 32.6719 11.0557q12.21 11.0547 12.21 29.2061q0 14.1904 -7.4248 24.916
q-7.42578 10.7256 -20.2959 14.6855l-35.6426 11.2207q-24.0908 7.59082 -37.7861 24.917q-13.6963 17.3252 -13.6963 40.7568q0 19.4707 8.74609 33.9922q8.74512 14.5205 24.751 22.4404q16.0059 7.9209 37.127 7.9209q32.0117 0 51.1523 -17.4912
q19.1416 -17.4912 19.1416 -46.8623h-29.7021q0 17.4912 -11.0557 27.7217t-29.5361 10.2305q-18.8115 0 -30.1963 -10.2305q-11.3857 -10.2305 -11.3857 -27.0615q0 -13.2012 7.4248 -22.7715q7.42578 -9.57031 20.9561 -13.8604l36.9619 -11.8809
q22.7715 -7.59082 36.1377 -25.9062q13.3652 -18.3164 13.3652 -42.7373q0 -20.1309 -9.0752 -35.1465q-9.07617 -15.0156 -25.9062 -23.2666q-16.8311 -8.25 -38.9424 -8.25zM294.005 241.7q-21.4512 0 -37.292 8.25q-15.8408 8.25098 -24.2559 23.9268
q-8.41602 15.6758 -8.41602 37.127v108.905q0 21.4512 8.41602 37.127q8.41504 15.6758 24.2559 23.9258q15.8408 8.25098 37.292 8.25098t37.292 -8.25098q15.8408 -8.25 24.2568 -23.9258q8.41504 -15.6758 8.41504 -36.7969v-109.235q0 -21.4512 -8.41504 -37.127
q-8.41602 -15.6758 -24.2568 -23.9268q-15.8408 -8.25 -37.292 -8.25zM294.005 268.432q19.4717 0 29.8672 11.0547q10.3955 11.0557 10.3955 31.5176v108.905q0 20.4609 -10.3955 31.5166t-29.8672 11.0557q-19.4707 0 -29.8662 -11.0557t-10.3955 -31.5166v-108.905
q0 -20.4619 10.3955 -31.5176q10.3955 -11.0547 29.8662 -11.0547zM436.691 245v240.912h29.7021v-102.965h77.2236v102.965h29.7012v-240.912h-29.7012v110.886h-77.2236v-110.886h-29.7021z" />
    <glyph glyph-name="uni2402" unicode="&#x2402;" 
d="M96.3252 241.7q-23.1016 0 -40.4268 8.25q-17.3262 8.25098 -26.7314 23.2666t-9.40527 35.1465h29.7012q0 -18.1514 12.8701 -29.2061q12.8711 -11.0557 33.9922 -11.0557q20.4609 0 32.6719 11.0557q12.21 11.0547 12.21 29.2061q0 14.1904 -7.4248 24.916
q-7.42578 10.7256 -20.2959 14.6855l-35.6426 11.2207q-24.0908 7.59082 -37.7861 24.917q-13.6963 17.3252 -13.6963 40.7568q0 19.4707 8.74609 33.9922q8.74512 14.5205 24.751 22.4404q16.0059 7.9209 37.127 7.9209q32.0117 0 51.1523 -17.4912
q19.1416 -17.4912 19.1416 -46.8623h-29.7021q0 17.4912 -11.0557 27.7217t-29.5361 10.2305q-18.8115 0 -30.1963 -10.2305q-11.3857 -10.2305 -11.3857 -27.0615q0 -13.2012 7.4248 -22.7715q7.42578 -9.57031 20.9561 -13.8604l36.9619 -11.8809
q22.7715 -7.59082 36.1377 -25.9062q13.3652 -18.3164 13.3652 -42.7373q0 -20.1309 -9.0752 -35.1465q-9.07617 -15.0156 -25.9062 -23.2666q-16.8311 -8.25 -38.9424 -8.25zM279.154 245v213.852h-66.0029v27.0605h161.708v-27.0605h-66.0039v-213.852h-29.7012z
M419.201 245l69.3027 122.106l-65.6729 118.806h34.3213l37.292 -71.2832q3.95996 -7.26074 6.27051 -11.8809q1.32031 -2.96973 2.64062 -5.44531q1.31934 -2.47461 2.30957 -4.78516l3.62988 7.59082q1.65039 3.62988 3.63086 7.25977q1.97949 3.63086 3.62988 7.26074
l37.9521 71.2832h32.6719l-65.6738 -116.826l69.3037 -124.086h-33.9922l-41.252 76.5645l-5.61035 11.2197l-5.28027 11.2207l-5.28027 -11.2207q-1.31934 -2.63965 -2.63965 -5.44531q-1.32031 -2.80469 -2.9707 -5.44531l-41.582 -76.8936h-33.001z" />
    <glyph glyph-name="uni2402" 
d="M96.3252 241.7q-23.1016 0 -40.4268 8.25q-17.3262 8.25098 -26.7314 23.2666t-9.40527 35.1465h29.7012q0 -18.1514 12.8701 -29.2061q12.8711 -11.0557 33.9922 -11.0557q20.4609 0 32.6719 11.0557q12.21 11.0547 12.21 29.2061q0 14.1904 -7.4248 24.916
q-7.42578 10.7256 -20.2959 14.6855l-35.6426 11.2207q-24.0908 7.59082 -37.7861 24.917q-13.6963 17.3252 -13.6963 40.7568q0 19.4707 8.74609 33.9922q8.74512 14.5205 24.751 22.4404q16.0059 7.9209 37.127 7.9209q32.0117 0 51.1523 -17.4912
q19.1416 -17.4912 19.1416 -46.8623h-29.7021q0 17.4912 -11.0557 27.7217t-29.5361 10.2305q-18.8115 0 -30.1963 -10.2305q-11.3857 -10.2305 -11.3857 -27.0615q0 -13.2012 7.4248 -22.7715q7.42578 -9.57031 20.9561 -13.8604l36.9619 -11.8809
q22.7715 -7.59082 36.1377 -25.9062q13.3652 -18.3164 13.3652 -42.7373q0 -20.1309 -9.0752 -35.1465q-9.07617 -15.0156 -25.9062 -23.2666q-16.8311 -8.25 -38.9424 -8.25zM279.154 245v213.852h-66.0029v27.0605h161.708v-27.0605h-66.0039v-213.852h-29.7012z
M419.201 245l69.3027 122.106l-65.6729 118.806h34.3213l37.292 -71.2832q3.95996 -7.26074 6.27051 -11.8809q1.32031 -2.96973 2.64062 -5.44531q1.31934 -2.47461 2.30957 -4.78516l3.62988 7.59082q1.65039 3.62988 3.63086 7.25977q1.97949 3.63086 3.62988 7.26074
l37.9521 71.2832h32.6719l-65.6738 -116.826l69.3037 -124.086h-33.9922l-41.252 76.5645l-5.61035 11.2197l-5.28027 11.2207l-5.28027 -11.2207q-1.31934 -2.63965 -2.63965 -5.44531q-1.32031 -2.80469 -2.9707 -5.44531l-41.582 -76.8936h-33.001z" />
    <glyph glyph-name="uni2403" unicode="&#x2403;" 
d="M29.002 245v240.912h138.607v-27.0605h-109.236v-74.584h97.6855v-26.4014h-97.6855v-85.8047h109.236v-27.0615h-138.607zM279.154 245v213.852h-66.0029v27.0605h161.708v-27.0605h-66.0039v-213.852h-29.7012zM419.201 245l69.3027 122.106l-65.6729 118.806h34.3213
l37.292 -71.2832q3.95996 -7.26074 6.27051 -11.8809q1.32031 -2.96973 2.64062 -5.44531q1.31934 -2.47461 2.30957 -4.78516l3.62988 7.59082q1.65039 3.62988 3.63086 7.25977q1.97949 3.63086 3.62988 7.26074l37.9521 71.2832h32.6719l-65.6738 -116.826
l69.3037 -124.086h-33.9922l-41.252 76.5645l-5.61035 11.2197l-5.28027 11.2207l-5.28027 -11.2207q-1.31934 -2.63965 -2.63965 -5.44531q-1.32031 -2.80469 -2.9707 -5.44531l-41.582 -76.8936h-33.001z" />
    <glyph glyph-name="uni2403" 
d="M29.002 245v240.912h138.607v-27.0605h-109.236v-74.584h97.6855v-26.4014h-97.6855v-85.8047h109.236v-27.0615h-138.607zM279.154 245v213.852h-66.0029v27.0605h161.708v-27.0605h-66.0039v-213.852h-29.7012zM419.201 245l69.3027 122.106l-65.6729 118.806h34.3213
l37.292 -71.2832q3.95996 -7.26074 6.27051 -11.8809q1.32031 -2.96973 2.64062 -5.44531q1.31934 -2.47461 2.30957 -4.78516l3.62988 7.59082q1.65039 3.62988 3.63086 7.25977q1.97949 3.63086 3.62988 7.26074l37.9521 71.2832h32.6719l-65.6738 -116.826
l69.3037 -124.086h-33.9922l-41.252 76.5645l-5.61035 11.2197l-5.28027 11.2207l-5.28027 -11.2207q-1.31934 -2.63965 -2.63965 -5.44531q-1.32031 -2.80469 -2.9707 -5.44531l-41.582 -76.8936h-33.001z" />
    <glyph glyph-name="uni2404" unicode="&#x2404;" 
d="M29.002 245v240.912h138.607v-27.0605h-109.236v-74.584h97.6855v-26.4014h-97.6855v-85.8047h109.236v-27.0615h-138.607zM294.005 241.7q-21.4512 0 -37.292 8.25q-15.8408 8.25098 -24.2559 23.9268q-8.41602 15.6758 -8.41602 37.127v108.905
q0 21.4512 8.41602 37.127q8.41504 15.6758 24.2559 23.9258q15.8408 8.25098 37.292 8.25098t37.292 -8.25098q15.8408 -8.25 24.2568 -23.9258q8.41504 -15.6758 8.41504 -36.7969v-109.235q0 -21.4512 -8.41504 -37.127q-8.41602 -15.6758 -24.2568 -23.9268
q-15.8408 -8.25 -37.292 -8.25zM294.005 268.432q19.4717 0 29.8672 11.0547q10.3955 11.0557 10.3955 31.5176v108.905q0 20.4609 -10.3955 31.5166t-29.8672 11.0557q-19.4707 0 -29.8662 -11.0557t-10.3955 -31.5166v-108.905q0 -20.4619 10.3955 -31.5176
q10.3955 -11.0547 29.8662 -11.0547zM490.154 245v213.852h-66.0029v27.0605h161.708v-27.0605h-66.0039v-213.852h-29.7012z" />
    <glyph glyph-name="uni2404" 
d="M29.002 245v240.912h138.607v-27.0605h-109.236v-74.584h97.6855v-26.4014h-97.6855v-85.8047h109.236v-27.0615h-138.607zM294.005 241.7q-21.4512 0 -37.292 8.25q-15.8408 8.25098 -24.2559 23.9268q-8.41602 15.6758 -8.41602 37.127v108.905
q0 21.4512 8.41602 37.127q8.41504 15.6758 24.2559 23.9258q15.8408 8.25098 37.292 8.25098t37.292 -8.25098q15.8408 -8.25 24.2568 -23.9258q8.41504 -15.6758 8.41504 -36.7969v-109.235q0 -21.4512 -8.41504 -37.127q-8.41602 -15.6758 -24.2568 -23.9268
q-15.8408 -8.25 -37.292 -8.25zM294.005 268.432q19.4717 0 29.8672 11.0547q10.3955 11.0557 10.3955 31.5176v108.905q0 20.4609 -10.3955 31.5166t-29.8672 11.0557q-19.4707 0 -29.8662 -11.0557t-10.3955 -31.5166v-108.905q0 -20.4619 10.3955 -31.5176
q10.3955 -11.0547 29.8662 -11.0547zM490.154 245v213.852h-66.0029v27.0605h161.708v-27.0605h-66.0039v-213.852h-29.7012z" />
    <glyph glyph-name="uni2405" unicode="&#x2405;" 
d="M29.002 245v240.912h138.607v-27.0605h-109.236v-74.584h97.6855v-26.4014h-97.6855v-85.8047h109.236v-27.0615h-138.607zM224.701 245v240.912h39.6025l73.5938 -206.261q-1.32031 14.5215 -2.31055 34.6523q-0.989258 20.1309 -0.989258 36.3018v135.307h28.7109
v-240.912h-39.6016l-73.2637 206.261q2.96973 -36.3018 2.96973 -70.9541v-135.307h-28.7119zM545.268 185.597l-35.3125 58.4131l3.30078 -1.97949h-2.64062q-1.65039 -0.330078 -5.61035 -0.330078q-22.1113 0 -38.4463 8.74512q-16.3359 8.74512 -25.2471 24.751
q-8.91016 16.0059 -8.91016 37.457v105.605q0 21.4512 8.91016 37.457q8.91113 16.0059 25.2471 24.751q16.335 8.74609 38.4463 8.74609t38.4473 -8.74609q16.3359 -8.74512 25.2461 -24.751q8.91113 -16.0059 8.91113 -37.457v-105.605q0 -22.1113 -9.57129 -38.6123
q-9.57031 -16.5 -27.0615 -24.751l38.6123 -63.6934h-34.3213zM505.005 268.102q19.4717 0 31.1865 12.0449q11.7158 12.0459 11.7158 32.5068v105.605q0 20.4609 -11.7158 32.5068q-11.7148 12.0459 -31.1865 12.0459q-19.4707 0 -31.1865 -12.0459t-11.7158 -32.5068
v-105.605q0 -20.4609 11.7158 -32.5068q11.7158 -12.0449 31.1865 -12.0449z" />
    <glyph glyph-name="uni2405" 
d="M29.002 245v240.912h138.607v-27.0605h-109.236v-74.584h97.6855v-26.4014h-97.6855v-85.8047h109.236v-27.0615h-138.607zM224.701 245v240.912h39.6025l73.5938 -206.261q-1.32031 14.5215 -2.31055 34.6523q-0.989258 20.1309 -0.989258 36.3018v135.307h28.7109
v-240.912h-39.6016l-73.2637 206.261q2.96973 -36.3018 2.96973 -70.9541v-135.307h-28.7119zM545.268 185.597l-35.3125 58.4131l3.30078 -1.97949h-2.64062q-1.65039 -0.330078 -5.61035 -0.330078q-22.1113 0 -38.4463 8.74512q-16.3359 8.74512 -25.2471 24.751
q-8.91016 16.0059 -8.91016 37.457v105.605q0 21.4512 8.91016 37.457q8.91113 16.0059 25.2471 24.751q16.335 8.74609 38.4463 8.74609t38.4473 -8.74609q16.3359 -8.74512 25.2461 -24.751q8.91113 -16.0059 8.91113 -37.457v-105.605q0 -22.1113 -9.57129 -38.6123
q-9.57031 -16.5 -27.0615 -24.751l38.6123 -63.6934h-34.3213zM505.005 268.102q19.4717 0 31.1865 12.0449q11.7158 12.0459 11.7158 32.5068v105.605q0 20.4609 -11.7158 32.5068q-11.7148 12.0459 -31.1865 12.0459q-19.4707 0 -31.1865 -12.0459t-11.7158 -32.5068
v-105.605q0 -20.4609 11.7158 -32.5068q11.7158 -12.0449 31.1865 -12.0449z" />
    <glyph glyph-name="uni2406" unicode="&#x2406;" 
d="M12.501 245l62.7031 240.912h39.9316l62.374 -240.912h-30.0322l-15.8408 64.0234h-72.9336l-15.8408 -64.0234h-30.3613zM64.6436 334.104h60.7236l-18.4814 74.2539q-8.91016 36.3018 -11.8809 53.793q-2.96973 -17.8213 -11.8799 -53.4629zM295.325 241.7
q-21.7812 0 -37.9521 8.25q-16.1709 8.25098 -24.751 23.9268q-8.58105 15.6758 -8.58105 37.127v108.905q0 21.4512 8.58105 37.127q8.58008 15.6758 24.751 23.9258q16.1709 8.25098 37.9521 8.25098q21.4512 0 37.457 -8.41602q16.0059 -8.41504 24.5859 -24.0908
q8.58105 -15.6758 8.58105 -36.7969h-29.7021q0 20.4609 -10.7256 31.5166t-30.1963 11.0557q-19.8008 0 -30.6914 -11.0557t-10.8906 -31.1865v-109.235q0 -20.4619 10.8906 -31.5176q10.8906 -11.0547 30.6914 -11.0547q19.4707 0 30.1963 11.0547
q10.7256 11.0557 10.7256 31.5176h29.7021q0 -21.1211 -8.58105 -36.7979q-8.58008 -15.6758 -24.5859 -24.0908t-37.457 -8.41504zM436.361 245v240.912h29.7021v-103.295h35.6416l53.4629 103.295h32.3418l-59.7334 -115.836l63.0332 -125.076h-33.9922l-56.1025 111.546
h-34.6514v-111.546h-29.7021z" />
    <glyph glyph-name="uni2406" 
d="M12.501 245l62.7031 240.912h39.9316l62.374 -240.912h-30.0322l-15.8408 64.0234h-72.9336l-15.8408 -64.0234h-30.3613zM64.6436 334.104h60.7236l-18.4814 74.2539q-8.91016 36.3018 -11.8809 53.793q-2.96973 -17.8213 -11.8799 -53.4629zM295.325 241.7
q-21.7812 0 -37.9521 8.25q-16.1709 8.25098 -24.751 23.9268q-8.58105 15.6758 -8.58105 37.127v108.905q0 21.4512 8.58105 37.127q8.58008 15.6758 24.751 23.9258q16.1709 8.25098 37.9521 8.25098q21.4512 0 37.457 -8.41602q16.0059 -8.41504 24.5859 -24.0908
q8.58105 -15.6758 8.58105 -36.7969h-29.7021q0 20.4609 -10.7256 31.5166t-30.1963 11.0557q-19.8008 0 -30.6914 -11.0557t-10.8906 -31.1865v-109.235q0 -20.4619 10.8906 -31.5176q10.8906 -11.0547 30.6914 -11.0547q19.4707 0 30.1963 11.0547
q10.7256 11.0557 10.7256 31.5176h29.7021q0 -21.1211 -8.58105 -36.7979q-8.58008 -15.6758 -24.5859 -24.0908t-37.457 -8.41504zM436.361 245v240.912h29.7021v-103.295h35.6416l53.4629 103.295h32.3418l-59.7334 -115.836l63.0332 -125.076h-33.9922l-56.1025 111.546
h-34.6514v-111.546h-29.7021z" />
    <glyph glyph-name="uni2407" unicode="&#x2407;" 
d="M26.6914 245v240.912h68.3135q21.7812 0 37.6221 -7.4248q15.8408 -7.42578 24.2568 -21.4512q8.41504 -14.0264 8.41504 -33.4971q0 -25.0811 -15.3457 -39.6016q-15.3457 -14.5215 -41.7471 -14.1914v4.9502q28.3809 0.660156 45.542 -16.5
q17.1611 -17.1611 17.1611 -46.2031q0 -20.4609 -8.58105 -35.6416q-8.58008 -15.1807 -24.5859 -23.2666q-16.0059 -8.08496 -37.7871 -8.08496h-73.2637zM96.6553 271.731q20.791 0 32.8369 11.0557q12.0449 11.0557 12.0449 30.1963q0 20.1309 -12.21 32.3418
q-12.2109 12.2109 -32.6719 12.2109h-40.9219v-85.8047h40.9219zM94.6748 383.277q19.1416 0 30.1973 10.2305t11.0557 27.7217q0 17.4902 -10.8906 27.7207t-30.0322 10.2305h-39.2715v-75.9033h38.9414zM234.002 245v240.912h138.607v-27.0605h-109.236v-74.584h97.6855
v-26.4014h-97.6855v-85.8047h109.236v-27.0615h-138.607zM448.902 245v240.912h29.7012v-213.851h108.906v-27.0615h-138.607z" />
    <glyph glyph-name="uni2407" 
d="M26.6914 245v240.912h68.3135q21.7812 0 37.6221 -7.4248q15.8408 -7.42578 24.2568 -21.4512q8.41504 -14.0264 8.41504 -33.4971q0 -25.0811 -15.3457 -39.6016q-15.3457 -14.5215 -41.7471 -14.1914v4.9502q28.3809 0.660156 45.542 -16.5
q17.1611 -17.1611 17.1611 -46.2031q0 -20.4609 -8.58105 -35.6416q-8.58008 -15.1807 -24.5859 -23.2666q-16.0059 -8.08496 -37.7871 -8.08496h-73.2637zM96.6553 271.731q20.791 0 32.8369 11.0557q12.0449 11.0557 12.0449 30.1963q0 20.1309 -12.21 32.3418
q-12.2109 12.2109 -32.6719 12.2109h-40.9219v-85.8047h40.9219zM94.6748 383.277q19.1416 0 30.1973 10.2305t11.0557 27.7217q0 17.4902 -10.8906 27.7207t-30.0322 10.2305h-39.2715v-75.9033h38.9414zM234.002 245v240.912h138.607v-27.0605h-109.236v-74.584h97.6855
v-26.4014h-97.6855v-85.8047h109.236v-27.0615h-138.607zM448.902 245v240.912h29.7012v-213.851h108.906v-27.0615h-138.607z" />
    <glyph glyph-name="uni2408" unicode="&#x2408;" 
d="M129.691 245v240.912h68.3135q21.7812 0 37.6221 -7.4248q15.8408 -7.42578 24.2568 -21.4512q8.41504 -14.0264 8.41504 -33.4971q0 -25.0811 -15.3457 -39.6016q-15.3457 -14.5215 -41.7471 -14.1914v4.9502q28.3809 0.660156 45.542 -16.5
q17.1611 -17.1611 17.1611 -46.2031q0 -20.4609 -8.58105 -35.6416q-8.58008 -15.1807 -24.5859 -23.2666q-16.0059 -8.08496 -37.7871 -8.08496h-73.2637zM199.655 271.731q20.791 0 32.8369 11.0557q12.0449 11.0557 12.0449 30.1963q0 20.1309 -12.21 32.3418
q-12.2109 12.2109 -32.6719 12.2109h-40.9219v-85.8047h40.9219zM197.675 383.277q19.1416 0 30.1973 10.2305t11.0557 27.7217q0 17.4902 -10.8906 27.7207t-30.0322 10.2305h-39.2715v-75.9033h38.9414zM402.325 241.7q-23.1016 0 -40.4268 8.25
q-17.3262 8.25098 -26.7314 23.2666t-9.40527 35.1465h29.7012q0 -18.1514 12.8701 -29.2061q12.8711 -11.0557 33.9922 -11.0557q20.4609 0 32.6719 11.0557q12.21 11.0547 12.21 29.2061q0 14.1904 -7.4248 24.916q-7.42578 10.7256 -20.2959 14.6855l-35.6426 11.2207
q-24.0908 7.59082 -37.7861 24.917q-13.6963 17.3252 -13.6963 40.7568q0 19.4707 8.74609 33.9922q8.74512 14.5205 24.751 22.4404q16.0059 7.9209 37.127 7.9209q32.0117 0 51.1523 -17.4912q19.1416 -17.4912 19.1416 -46.8623h-29.7021q0 17.4912 -11.0557 27.7217
t-29.5361 10.2305q-18.8115 0 -30.1963 -10.2305q-11.3857 -10.2305 -11.3857 -27.0615q0 -13.2012 7.4248 -22.7715q7.42578 -9.57031 20.9561 -13.8604l36.9619 -11.8809q22.7715 -7.59082 36.1377 -25.9062q13.3652 -18.3164 13.3652 -42.7373
q0 -20.1309 -9.0752 -35.1465q-9.07617 -15.0156 -25.9062 -23.2666q-16.8311 -8.25 -38.9424 -8.25z" />
    <glyph glyph-name="uni2408" 
d="M129.691 245v240.912h68.3135q21.7812 0 37.6221 -7.4248q15.8408 -7.42578 24.2568 -21.4512q8.41504 -14.0264 8.41504 -33.4971q0 -25.0811 -15.3457 -39.6016q-15.3457 -14.5215 -41.7471 -14.1914v4.9502q28.3809 0.660156 45.542 -16.5
q17.1611 -17.1611 17.1611 -46.2031q0 -20.4609 -8.58105 -35.6416q-8.58008 -15.1807 -24.5859 -23.2666q-16.0059 -8.08496 -37.7871 -8.08496h-73.2637zM199.655 271.731q20.791 0 32.8369 11.0557q12.0449 11.0557 12.0449 30.1963q0 20.1309 -12.21 32.3418
q-12.2109 12.2109 -32.6719 12.2109h-40.9219v-85.8047h40.9219zM197.675 383.277q19.1416 0 30.1973 10.2305t11.0557 27.7217q0 17.4902 -10.8906 27.7207t-30.0322 10.2305h-39.2715v-75.9033h38.9414zM402.325 241.7q-23.1016 0 -40.4268 8.25
q-17.3262 8.25098 -26.7314 23.2666t-9.40527 35.1465h29.7012q0 -18.1514 12.8701 -29.2061q12.8711 -11.0557 33.9922 -11.0557q20.4609 0 32.6719 11.0557q12.21 11.0547 12.21 29.2061q0 14.1904 -7.4248 24.916q-7.42578 10.7256 -20.2959 14.6855l-35.6426 11.2207
q-24.0908 7.59082 -37.7861 24.917q-13.6963 17.3252 -13.6963 40.7568q0 19.4707 8.74609 33.9922q8.74512 14.5205 24.751 22.4404q16.0059 7.9209 37.127 7.9209q32.0117 0 51.1523 -17.4912q19.1416 -17.4912 19.1416 -46.8623h-29.7021q0 17.4912 -11.0557 27.7217
t-29.5361 10.2305q-18.8115 0 -30.1963 -10.2305q-11.3857 -10.2305 -11.3857 -27.0615q0 -13.2012 7.4248 -22.7715q7.42578 -9.57031 20.9561 -13.8604l36.9619 -11.8809q22.7715 -7.59082 36.1377 -25.9062q13.3652 -18.3164 13.3652 -42.7373
q0 -20.1309 -9.0752 -35.1465q-9.07617 -15.0156 -25.9062 -23.2666q-16.8311 -8.25 -38.9424 -8.25z" />
    <glyph glyph-name="uni240B" unicode="&#x240b;" 
d="M177.544 245l-62.043 240.912h30.3613l41.252 -164.019q6.93066 -28.3809 11.2207 -53.792q2.9707 18.1504 11.8809 54.1221l39.6016 163.688h30.6924l-62.374 -240.912h-40.5918zM386.154 245v213.852h-66.0029v27.0605h161.708v-27.0605h-66.0039v-213.852h-29.7012z
" />
    <glyph glyph-name="uni240B" 
d="M177.544 245l-62.043 240.912h30.3613l41.252 -164.019q6.93066 -28.3809 11.2207 -53.792q2.9707 18.1504 11.8809 54.1221l39.6016 163.688h30.6924l-62.374 -240.912h-40.5918zM386.154 245v213.852h-66.0029v27.0605h161.708v-27.0605h-66.0039v-213.852h-29.7012z
" />
    <glyph glyph-name="uni240C" unicode="&#x240c;" 
d="M130.352 245v240.912h141.907v-27.0605h-112.865v-79.8643h104.285v-27.0615h-103.626v-106.926h-29.7012zM333.352 245v240.912h141.907v-27.0605h-112.865v-79.8643h104.285v-27.0615h-103.626v-106.926h-29.7012z" />
    <glyph glyph-name="uni240C" 
d="M130.352 245v240.912h141.907v-27.0605h-112.865v-79.8643h104.285v-27.0615h-103.626v-106.926h-29.7012zM333.352 245v240.912h141.907v-27.0605h-112.865v-79.8643h104.285v-27.0615h-103.626v-106.926h-29.7012z" />
    <glyph glyph-name="uni240E" unicode="&#x240e;" 
d="M199.325 241.7q-23.1016 0 -40.4268 8.25q-17.3262 8.25098 -26.7314 23.2666t-9.40527 35.1465h29.7012q0 -18.1514 12.8701 -29.2061q12.8711 -11.0557 33.9922 -11.0557q20.4609 0 32.6719 11.0557q12.21 11.0547 12.21 29.2061q0 14.1904 -7.4248 24.916
q-7.42578 10.7256 -20.2959 14.6855l-35.6426 11.2207q-24.0908 7.59082 -37.7861 24.917q-13.6963 17.3252 -13.6963 40.7568q0 19.4707 8.74609 33.9922q8.74512 14.5205 24.751 22.4404q16.0059 7.9209 37.127 7.9209q32.0117 0 51.1523 -17.4912
q19.1416 -17.4912 19.1416 -46.8623h-29.7021q0 17.4912 -11.0557 27.7217t-29.5361 10.2305q-18.8115 0 -30.1963 -10.2305q-11.3857 -10.2305 -11.3857 -27.0615q0 -13.2012 7.4248 -22.7715q7.42578 -9.57031 20.9561 -13.8604l36.9619 -11.8809
q22.7715 -7.59082 36.1377 -25.9062q13.3652 -18.3164 13.3652 -42.7373q0 -20.1309 -9.0752 -35.1465q-9.07617 -15.0156 -25.9062 -23.2666q-16.8311 -8.25 -38.9424 -8.25zM401.005 241.7q-21.4512 0 -37.292 8.25q-15.8408 8.25098 -24.2559 23.9268
q-8.41602 15.6758 -8.41602 37.127v108.905q0 21.4512 8.41602 37.127q8.41504 15.6758 24.2559 23.9258q15.8408 8.25098 37.292 8.25098t37.292 -8.25098q15.8408 -8.25 24.2568 -23.9258q8.41504 -15.6758 8.41504 -36.7969v-109.235q0 -21.4512 -8.41504 -37.127
q-8.41602 -15.6758 -24.2568 -23.9268q-15.8408 -8.25 -37.292 -8.25zM401.005 268.432q19.4717 0 29.8672 11.0547q10.3955 11.0557 10.3955 31.5176v108.905q0 20.4609 -10.3955 31.5166t-29.8672 11.0557q-19.4707 0 -29.8662 -11.0557t-10.3955 -31.5166v-108.905
q0 -20.4619 10.3955 -31.5176q10.3955 -11.0547 29.8662 -11.0547z" />
    <glyph glyph-name="uni240E" 
d="M199.325 241.7q-23.1016 0 -40.4268 8.25q-17.3262 8.25098 -26.7314 23.2666t-9.40527 35.1465h29.7012q0 -18.1514 12.8701 -29.2061q12.8711 -11.0557 33.9922 -11.0557q20.4609 0 32.6719 11.0557q12.21 11.0547 12.21 29.2061q0 14.1904 -7.4248 24.916
q-7.42578 10.7256 -20.2959 14.6855l-35.6426 11.2207q-24.0908 7.59082 -37.7861 24.917q-13.6963 17.3252 -13.6963 40.7568q0 19.4707 8.74609 33.9922q8.74512 14.5205 24.751 22.4404q16.0059 7.9209 37.127 7.9209q32.0117 0 51.1523 -17.4912
q19.1416 -17.4912 19.1416 -46.8623h-29.7021q0 17.4912 -11.0557 27.7217t-29.5361 10.2305q-18.8115 0 -30.1963 -10.2305q-11.3857 -10.2305 -11.3857 -27.0615q0 -13.2012 7.4248 -22.7715q7.42578 -9.57031 20.9561 -13.8604l36.9619 -11.8809
q22.7715 -7.59082 36.1377 -25.9062q13.3652 -18.3164 13.3652 -42.7373q0 -20.1309 -9.0752 -35.1465q-9.07617 -15.0156 -25.9062 -23.2666q-16.8311 -8.25 -38.9424 -8.25zM401.005 241.7q-21.4512 0 -37.292 8.25q-15.8408 8.25098 -24.2559 23.9268
q-8.41602 15.6758 -8.41602 37.127v108.905q0 21.4512 8.41602 37.127q8.41504 15.6758 24.2559 23.9258q15.8408 8.25098 37.292 8.25098t37.292 -8.25098q15.8408 -8.25 24.2568 -23.9258q8.41504 -15.6758 8.41504 -36.7969v-109.235q0 -21.4512 -8.41504 -37.127
q-8.41602 -15.6758 -24.2568 -23.9268q-15.8408 -8.25 -37.292 -8.25zM401.005 268.432q19.4717 0 29.8672 11.0547q10.3955 11.0557 10.3955 31.5176v108.905q0 20.4609 -10.3955 31.5166t-29.8672 11.0557q-19.4707 0 -29.8662 -11.0557t-10.3955 -31.5166v-108.905
q0 -20.4619 10.3955 -31.5176q10.3955 -11.0547 29.8662 -11.0547z" />
    <glyph glyph-name="uni240F" unicode="&#x240f;" 
d="M199.325 241.7q-23.1016 0 -40.4268 8.25q-17.3262 8.25098 -26.7314 23.2666t-9.40527 35.1465h29.7012q0 -18.1514 12.8701 -29.2061q12.8711 -11.0557 33.9922 -11.0557q20.4609 0 32.6719 11.0557q12.21 11.0547 12.21 29.2061q0 14.1904 -7.4248 24.916
q-7.42578 10.7256 -20.2959 14.6855l-35.6426 11.2207q-24.0908 7.59082 -37.7861 24.917q-13.6963 17.3252 -13.6963 40.7568q0 19.4707 8.74609 33.9922q8.74512 14.5205 24.751 22.4404q16.0059 7.9209 37.127 7.9209q32.0117 0 51.1523 -17.4912
q19.1416 -17.4912 19.1416 -46.8623h-29.7021q0 17.4912 -11.0557 27.7217t-29.5361 10.2305q-18.8115 0 -30.1963 -10.2305q-11.3857 -10.2305 -11.3857 -27.0615q0 -13.2012 7.4248 -22.7715q7.42578 -9.57031 20.9561 -13.8604l36.9619 -11.8809
q22.7715 -7.59082 36.1377 -25.9062q13.3652 -18.3164 13.3652 -42.7373q0 -20.1309 -9.0752 -35.1465q-9.07617 -15.0156 -25.9062 -23.2666q-16.8311 -8.25 -38.9424 -8.25zM336.651 245v27.0615h49.1729v186.79h-49.1729v27.0605h128.707v-27.0605h-49.1729v-186.79
h49.1729v-27.0615h-128.707z" />
    <glyph glyph-name="uni240F" 
d="M199.325 241.7q-23.1016 0 -40.4268 8.25q-17.3262 8.25098 -26.7314 23.2666t-9.40527 35.1465h29.7012q0 -18.1514 12.8701 -29.2061q12.8711 -11.0557 33.9922 -11.0557q20.4609 0 32.6719 11.0557q12.21 11.0547 12.21 29.2061q0 14.1904 -7.4248 24.916
q-7.42578 10.7256 -20.2959 14.6855l-35.6426 11.2207q-24.0908 7.59082 -37.7861 24.917q-13.6963 17.3252 -13.6963 40.7568q0 19.4707 8.74609 33.9922q8.74512 14.5205 24.751 22.4404q16.0059 7.9209 37.127 7.9209q32.0117 0 51.1523 -17.4912
q19.1416 -17.4912 19.1416 -46.8623h-29.7021q0 17.4912 -11.0557 27.7217t-29.5361 10.2305q-18.8115 0 -30.1963 -10.2305q-11.3857 -10.2305 -11.3857 -27.0615q0 -13.2012 7.4248 -22.7715q7.42578 -9.57031 20.9561 -13.8604l36.9619 -11.8809
q22.7715 -7.59082 36.1377 -25.9062q13.3652 -18.3164 13.3652 -42.7373q0 -20.1309 -9.0752 -35.1465q-9.07617 -15.0156 -25.9062 -23.2666q-16.8311 -8.25 -38.9424 -8.25zM336.651 245v27.0615h49.1729v186.79h-49.1729v27.0605h128.707v-27.0605h-49.1729v-186.79
h49.1729v-27.0615h-128.707z" />
    <glyph glyph-name="uni2410" unicode="&#x2410;" 
d="M26.3613 245v240.912h62.373q23.1016 0 40.2627 -8.91016t26.5664 -25.2461t9.40527 -38.1172v-96.0352q0 -21.7812 -9.40527 -38.2812q-9.40527 -16.501 -26.5664 -25.4121q-17.1611 -8.91016 -40.2627 -8.91016h-62.373zM88.7344 271.401q21.7812 0 34.1572 12.2109
q12.376 12.21 12.376 33.9912v96.0352q0 21.4512 -12.376 33.6621q-12.376 12.21 -34.1572 12.21h-32.6709v-188.109h32.6709zM237.902 245v240.912h29.7012v-213.851h108.906v-27.0615h-138.607zM439.002 245v240.912h138.607v-27.0605h-109.236v-74.584h97.6855v-26.4014
h-97.6855v-85.8047h109.236v-27.0615h-138.607z" />
    <glyph glyph-name="uni2410" 
d="M26.3613 245v240.912h62.373q23.1016 0 40.2627 -8.91016t26.5664 -25.2461t9.40527 -38.1172v-96.0352q0 -21.7812 -9.40527 -38.2812q-9.40527 -16.501 -26.5664 -25.4121q-17.1611 -8.91016 -40.2627 -8.91016h-62.373zM88.7344 271.401q21.7812 0 34.1572 12.2109
q12.376 12.21 12.376 33.9912v96.0352q0 21.4512 -12.376 33.6621q-12.376 12.21 -34.1572 12.21h-32.6709v-188.109h32.6709zM237.902 245v240.912h29.7012v-213.851h108.906v-27.0615h-138.607zM439.002 245v240.912h138.607v-27.0605h-109.236v-74.584h97.6855v-26.4014
h-97.6855v-85.8047h109.236v-27.0615h-138.607z" />
    <glyph glyph-name="uni2411" unicode="&#x2411;" 
d="M26.3613 245v240.912h62.373q23.1016 0 40.2627 -8.91016t26.5664 -25.2461t9.40527 -38.1172v-96.0352q0 -21.7812 -9.40527 -38.2812q-9.40527 -16.501 -26.5664 -25.4121q-17.1611 -8.91016 -40.2627 -8.91016h-62.373zM88.7344 271.401q21.7812 0 34.1572 12.2109
q12.376 12.21 12.376 33.9912v96.0352q0 21.4512 -12.376 33.6621q-12.376 12.21 -34.1572 12.21h-32.6709v-188.109h32.6709zM295.325 241.7q-21.7812 0 -37.9521 8.25q-16.1709 8.25098 -24.751 23.9268q-8.58105 15.6758 -8.58105 37.127v108.905
q0 21.4512 8.58105 37.127q8.58008 15.6758 24.751 23.9258q16.1709 8.25098 37.9521 8.25098q21.4512 0 37.457 -8.41602q16.0059 -8.41504 24.5859 -24.0908q8.58105 -15.6758 8.58105 -36.7969h-29.7021q0 20.4609 -10.7256 31.5166t-30.1963 11.0557
q-19.8008 0 -30.6914 -11.0557t-10.8906 -31.1865v-109.235q0 -20.4619 10.8906 -31.5176q10.8906 -11.0547 30.6914 -11.0547q19.4707 0 30.1963 11.0547q10.7256 11.0557 10.7256 31.5176h29.7021q0 -21.1211 -8.58105 -36.7979q-8.58008 -15.6758 -24.5859 -24.0908
t-37.457 -8.41504zM435.701 245v27.0615h65.3438v189.1l-65.3438 -48.8428v33.002l54.4531 40.5918h40.5918v-213.851h53.4629v-27.0615h-148.508z" />
    <glyph glyph-name="uni2411" 
d="M26.3613 245v240.912h62.373q23.1016 0 40.2627 -8.91016t26.5664 -25.2461t9.40527 -38.1172v-96.0352q0 -21.7812 -9.40527 -38.2812q-9.40527 -16.501 -26.5664 -25.4121q-17.1611 -8.91016 -40.2627 -8.91016h-62.373zM88.7344 271.401q21.7812 0 34.1572 12.2109
q12.376 12.21 12.376 33.9912v96.0352q0 21.4512 -12.376 33.6621q-12.376 12.21 -34.1572 12.21h-32.6709v-188.109h32.6709zM295.325 241.7q-21.7812 0 -37.9521 8.25q-16.1709 8.25098 -24.751 23.9268q-8.58105 15.6758 -8.58105 37.127v108.905
q0 21.4512 8.58105 37.127q8.58008 15.6758 24.751 23.9258q16.1709 8.25098 37.9521 8.25098q21.4512 0 37.457 -8.41602q16.0059 -8.41504 24.5859 -24.0908q8.58105 -15.6758 8.58105 -36.7969h-29.7021q0 20.4609 -10.7256 31.5166t-30.1963 11.0557
q-19.8008 0 -30.6914 -11.0557t-10.8906 -31.1865v-109.235q0 -20.4619 10.8906 -31.5176q10.8906 -11.0547 30.6914 -11.0547q19.4707 0 30.1963 11.0547q10.7256 11.0557 10.7256 31.5176h29.7021q0 -21.1211 -8.58105 -36.7979q-8.58008 -15.6758 -24.5859 -24.0908
t-37.457 -8.41504zM435.701 245v27.0615h65.3438v189.1l-65.3438 -48.8428v33.002l54.4531 40.5918h40.5918v-213.851h53.4629v-27.0615h-148.508z" />
    <glyph glyph-name="uni2412" unicode="&#x2412;" 
d="M26.3613 245v240.912h62.373q23.1016 0 40.2627 -8.91016t26.5664 -25.2461t9.40527 -38.1172v-96.0352q0 -21.7812 -9.40527 -38.2812q-9.40527 -16.501 -26.5664 -25.4121q-17.1611 -8.91016 -40.2627 -8.91016h-62.373zM88.7344 271.401q21.7812 0 34.1572 12.2109
q12.376 12.21 12.376 33.9912v96.0352q0 21.4512 -12.376 33.6621q-12.376 12.21 -34.1572 12.21h-32.6709v-188.109h32.6709zM295.325 241.7q-21.7812 0 -37.9521 8.25q-16.1709 8.25098 -24.751 23.9268q-8.58105 15.6758 -8.58105 37.127v108.905
q0 21.4512 8.58105 37.127q8.58008 15.6758 24.751 23.9258q16.1709 8.25098 37.9521 8.25098q21.4512 0 37.457 -8.41602q16.0059 -8.41504 24.5859 -24.0908q8.58105 -15.6758 8.58105 -36.7969h-29.7021q0 20.4609 -10.7256 31.5166t-30.1963 11.0557
q-19.8008 0 -30.6914 -11.0557t-10.8906 -31.1865v-109.235q0 -20.4619 10.8906 -31.5176q10.8906 -11.0547 30.6914 -11.0547q19.4707 0 30.1963 11.0547q10.7256 11.0557 10.7256 31.5176h29.7021q0 -21.1211 -8.58105 -36.7979q-8.58008 -15.6758 -24.5859 -24.0908
t-37.457 -8.41504zM436.361 245v29.3711l76.8945 83.8252q17.1602 18.8105 24.916 33.166q7.75586 14.3564 7.75586 28.2168q0 19.8008 -11.5508 31.5166t-31.3516 11.7158q-20.1318 0 -31.8467 -12.0459q-11.7158 -12.0459 -11.7158 -32.5068h-29.7012
q0.65918 21.4512 9.90039 37.6221q9.24023 16.1709 25.5762 24.751q16.3359 8.58105 37.7871 8.58105q33.3311 0 52.9678 -18.8115q19.6357 -18.8105 19.6357 -51.1523q0 -17.1611 -10.0654 -35.9717q-10.0654 -18.8115 -32.5068 -43.2324l-62.7031 -67.9834h109.235
v-27.0615h-143.228z" />
    <glyph glyph-name="uni2412" 
d="M26.3613 245v240.912h62.373q23.1016 0 40.2627 -8.91016t26.5664 -25.2461t9.40527 -38.1172v-96.0352q0 -21.7812 -9.40527 -38.2812q-9.40527 -16.501 -26.5664 -25.4121q-17.1611 -8.91016 -40.2627 -8.91016h-62.373zM88.7344 271.401q21.7812 0 34.1572 12.2109
q12.376 12.21 12.376 33.9912v96.0352q0 21.4512 -12.376 33.6621q-12.376 12.21 -34.1572 12.21h-32.6709v-188.109h32.6709zM295.325 241.7q-21.7812 0 -37.9521 8.25q-16.1709 8.25098 -24.751 23.9268q-8.58105 15.6758 -8.58105 37.127v108.905
q0 21.4512 8.58105 37.127q8.58008 15.6758 24.751 23.9258q16.1709 8.25098 37.9521 8.25098q21.4512 0 37.457 -8.41602q16.0059 -8.41504 24.5859 -24.0908q8.58105 -15.6758 8.58105 -36.7969h-29.7021q0 20.4609 -10.7256 31.5166t-30.1963 11.0557
q-19.8008 0 -30.6914 -11.0557t-10.8906 -31.1865v-109.235q0 -20.4619 10.8906 -31.5176q10.8906 -11.0547 30.6914 -11.0547q19.4707 0 30.1963 11.0547q10.7256 11.0557 10.7256 31.5176h29.7021q0 -21.1211 -8.58105 -36.7979q-8.58008 -15.6758 -24.5859 -24.0908
t-37.457 -8.41504zM436.361 245v29.3711l76.8945 83.8252q17.1602 18.8105 24.916 33.166q7.75586 14.3564 7.75586 28.2168q0 19.8008 -11.5508 31.5166t-31.3516 11.7158q-20.1318 0 -31.8467 -12.0459q-11.7158 -12.0459 -11.7158 -32.5068h-29.7012
q0.65918 21.4512 9.90039 37.6221q9.24023 16.1709 25.5762 24.751q16.3359 8.58105 37.7871 8.58105q33.3311 0 52.9678 -18.8115q19.6357 -18.8105 19.6357 -51.1523q0 -17.1611 -10.0654 -35.9717q-10.0654 -18.8115 -32.5068 -43.2324l-62.7031 -67.9834h109.235
v-27.0615h-143.228z" />
    <glyph glyph-name="uni2413" unicode="&#x2413;" 
d="M26.3613 245v240.912h62.373q23.1016 0 40.2627 -8.91016t26.5664 -25.2461t9.40527 -38.1172v-96.0352q0 -21.7812 -9.40527 -38.2812q-9.40527 -16.501 -26.5664 -25.4121q-17.1611 -8.91016 -40.2627 -8.91016h-62.373zM88.7344 271.401q21.7812 0 34.1572 12.2109
q12.376 12.21 12.376 33.9912v96.0352q0 21.4512 -12.376 33.6621q-12.376 12.21 -34.1572 12.21h-32.6709v-188.109h32.6709zM295.325 241.7q-21.7812 0 -37.9521 8.25q-16.1709 8.25098 -24.751 23.9268q-8.58105 15.6758 -8.58105 37.127v108.905
q0 21.4512 8.58105 37.127q8.58008 15.6758 24.751 23.9258q16.1709 8.25098 37.9521 8.25098q21.4512 0 37.457 -8.41602q16.0059 -8.41504 24.5859 -24.0908q8.58105 -15.6758 8.58105 -36.7969h-29.7021q0 20.4609 -10.7256 31.5166t-30.1963 11.0557
q-19.8008 0 -30.6914 -11.0557t-10.8906 -31.1865v-109.235q0 -20.4619 10.8906 -31.5176q10.8906 -11.0547 30.6914 -11.0547q19.4707 0 30.1963 11.0547q10.7256 11.0557 10.7256 31.5176h29.7021q0 -21.1211 -8.58105 -36.7979q-8.58008 -15.6758 -24.5859 -24.0908
t-37.457 -8.41504zM501.375 241.7q-21.4512 0 -37.9521 8.58008t-25.4111 24.4209t-8.91016 36.3027h29.7012q0 -20.1318 11.3857 -31.5176q11.3857 -11.3848 31.5166 -11.3848t31.5166 11.7148q11.3857 11.7158 11.3857 31.1875v16.5q0 20.4609 -11.2207 31.6816
t-31.6816 11.2207h-26.0713v25.7412l57.4229 62.7041h-94.0547v27.0605h127.717v-27.7207l-64.3535 -70.2939v8.91016q33.002 0 52.4727 -18.8105q19.4707 -18.8115 19.4707 -50.4932v-16.5q0 -20.4619 -9.0752 -36.3027t-25.7412 -24.4209t-38.1172 -8.58008z" />
    <glyph glyph-name="uni2413" 
d="M26.3613 245v240.912h62.373q23.1016 0 40.2627 -8.91016t26.5664 -25.2461t9.40527 -38.1172v-96.0352q0 -21.7812 -9.40527 -38.2812q-9.40527 -16.501 -26.5664 -25.4121q-17.1611 -8.91016 -40.2627 -8.91016h-62.373zM88.7344 271.401q21.7812 0 34.1572 12.2109
q12.376 12.21 12.376 33.9912v96.0352q0 21.4512 -12.376 33.6621q-12.376 12.21 -34.1572 12.21h-32.6709v-188.109h32.6709zM295.325 241.7q-21.7812 0 -37.9521 8.25q-16.1709 8.25098 -24.751 23.9268q-8.58105 15.6758 -8.58105 37.127v108.905
q0 21.4512 8.58105 37.127q8.58008 15.6758 24.751 23.9258q16.1709 8.25098 37.9521 8.25098q21.4512 0 37.457 -8.41602q16.0059 -8.41504 24.5859 -24.0908q8.58105 -15.6758 8.58105 -36.7969h-29.7021q0 20.4609 -10.7256 31.5166t-30.1963 11.0557
q-19.8008 0 -30.6914 -11.0557t-10.8906 -31.1865v-109.235q0 -20.4619 10.8906 -31.5176q10.8906 -11.0547 30.6914 -11.0547q19.4707 0 30.1963 11.0547q10.7256 11.0557 10.7256 31.5176h29.7021q0 -21.1211 -8.58105 -36.7979q-8.58008 -15.6758 -24.5859 -24.0908
t-37.457 -8.41504zM501.375 241.7q-21.4512 0 -37.9521 8.58008t-25.4111 24.4209t-8.91016 36.3027h29.7012q0 -20.1318 11.3857 -31.5176q11.3857 -11.3848 31.5166 -11.3848t31.5166 11.7148q11.3857 11.7158 11.3857 31.1875v16.5q0 20.4609 -11.2207 31.6816
t-31.6816 11.2207h-26.0713v25.7412l57.4229 62.7041h-94.0547v27.0605h127.717v-27.7207l-64.3535 -70.2939v8.91016q33.002 0 52.4727 -18.8105q19.4707 -18.8115 19.4707 -50.4932v-16.5q0 -20.4619 -9.0752 -36.3027t-25.7412 -24.4209t-38.1172 -8.58008z" />
    <glyph glyph-name="uni2414" unicode="&#x2414;" 
d="M26.3613 245v240.912h62.373q23.1016 0 40.2627 -8.91016t26.5664 -25.2461t9.40527 -38.1172v-96.0352q0 -21.7812 -9.40527 -38.2812q-9.40527 -16.501 -26.5664 -25.4121q-17.1611 -8.91016 -40.2627 -8.91016h-62.373zM88.7344 271.401q21.7812 0 34.1572 12.2109
q12.376 12.21 12.376 33.9912v96.0352q0 21.4512 -12.376 33.6621q-12.376 12.21 -34.1572 12.21h-32.6709v-188.109h32.6709zM295.325 241.7q-21.7812 0 -37.9521 8.25q-16.1709 8.25098 -24.751 23.9268q-8.58105 15.6758 -8.58105 37.127v108.905
q0 21.4512 8.58105 37.127q8.58008 15.6758 24.751 23.9258q16.1709 8.25098 37.9521 8.25098q21.4512 0 37.457 -8.41602q16.0059 -8.41504 24.5859 -24.0908q8.58105 -15.6758 8.58105 -36.7969h-29.7021q0 20.4609 -10.7256 31.5166t-30.1963 11.0557
q-19.8008 0 -30.6914 -11.0557t-10.8906 -31.1865v-109.235q0 -20.4619 10.8906 -31.5176q10.8906 -11.0547 30.6914 -11.0547q19.4707 0 30.1963 11.0547q10.7256 11.0557 10.7256 31.5176h29.7021q0 -21.1211 -8.58105 -36.7979q-8.58008 -15.6758 -24.5859 -24.0908
t-37.457 -8.41504zM538.007 245v52.8027h-108.905v46.5322l87.7842 141.577h32.6719l-90.7549 -147.518v-13.5303h79.2041v58.7432h29.7012v-138.607h-29.7012z" />
    <glyph glyph-name="uni2414" 
d="M26.3613 245v240.912h62.373q23.1016 0 40.2627 -8.91016t26.5664 -25.2461t9.40527 -38.1172v-96.0352q0 -21.7812 -9.40527 -38.2812q-9.40527 -16.501 -26.5664 -25.4121q-17.1611 -8.91016 -40.2627 -8.91016h-62.373zM88.7344 271.401q21.7812 0 34.1572 12.2109
q12.376 12.21 12.376 33.9912v96.0352q0 21.4512 -12.376 33.6621q-12.376 12.21 -34.1572 12.21h-32.6709v-188.109h32.6709zM295.325 241.7q-21.7812 0 -37.9521 8.25q-16.1709 8.25098 -24.751 23.9268q-8.58105 15.6758 -8.58105 37.127v108.905
q0 21.4512 8.58105 37.127q8.58008 15.6758 24.751 23.9258q16.1709 8.25098 37.9521 8.25098q21.4512 0 37.457 -8.41602q16.0059 -8.41504 24.5859 -24.0908q8.58105 -15.6758 8.58105 -36.7969h-29.7021q0 20.4609 -10.7256 31.5166t-30.1963 11.0557
q-19.8008 0 -30.6914 -11.0557t-10.8906 -31.1865v-109.235q0 -20.4619 10.8906 -31.5176q10.8906 -11.0547 30.6914 -11.0547q19.4707 0 30.1963 11.0547q10.7256 11.0557 10.7256 31.5176h29.7021q0 -21.1211 -8.58105 -36.7979q-8.58008 -15.6758 -24.5859 -24.0908
t-37.457 -8.41504zM538.007 245v52.8027h-108.905v46.5322l87.7842 141.577h32.6719l-90.7549 -147.518v-13.5303h79.2041v58.7432h29.7012v-138.607h-29.7012z" />
    <glyph glyph-name="uni2415" unicode="&#x2415;" 
d="M25.7012 245v240.912h39.6025l73.5938 -206.261q-1.32031 14.5215 -2.31055 34.6523q-0.989258 20.1309 -0.989258 36.3018v135.307h28.7109v-240.912h-39.6016l-73.2637 206.261q2.96973 -36.3018 2.96973 -70.9541v-135.307h-28.7119zM211.501 245l62.7031 240.912
h39.9316l62.374 -240.912h-30.0322l-15.8408 64.0234h-72.9336l-15.8408 -64.0234h-30.3613zM263.644 334.104h60.7236l-18.4814 74.2539q-8.91016 36.3018 -11.8809 53.793q-2.96973 -17.8213 -11.8799 -53.4629zM436.361 245v240.912h29.7021v-103.295h35.6416
l53.4629 103.295h32.3418l-59.7334 -115.836l63.0332 -125.076h-33.9922l-56.1025 111.546h-34.6514v-111.546h-29.7021z" />
    <glyph glyph-name="uni2415" 
d="M25.7012 245v240.912h39.6025l73.5938 -206.261q-1.32031 14.5215 -2.31055 34.6523q-0.989258 20.1309 -0.989258 36.3018v135.307h28.7109v-240.912h-39.6016l-73.2637 206.261q2.96973 -36.3018 2.96973 -70.9541v-135.307h-28.7119zM211.501 245l62.7031 240.912
h39.9316l62.374 -240.912h-30.0322l-15.8408 64.0234h-72.9336l-15.8408 -64.0234h-30.3613zM263.644 334.104h60.7236l-18.4814 74.2539q-8.91016 36.3018 -11.8809 53.793q-2.96973 -17.8213 -11.8799 -53.4629zM436.361 245v240.912h29.7021v-103.295h35.6416
l53.4629 103.295h32.3418l-59.7334 -115.836l63.0332 -125.076h-33.9922l-56.1025 111.546h-34.6514v-111.546h-29.7021z" />
    <glyph glyph-name="uni2416" unicode="&#x2416;" 
d="M96.3252 241.7q-23.1016 0 -40.4268 8.25q-17.3262 8.25098 -26.7314 23.2666t-9.40527 35.1465h29.7012q0 -18.1514 12.8701 -29.2061q12.8711 -11.0557 33.9922 -11.0557q20.4609 0 32.6719 11.0557q12.21 11.0547 12.21 29.2061q0 14.1904 -7.4248 24.916
q-7.42578 10.7256 -20.2959 14.6855l-35.6426 11.2207q-24.0908 7.59082 -37.7861 24.917q-13.6963 17.3252 -13.6963 40.7568q0 19.4707 8.74609 33.9922q8.74512 14.5205 24.751 22.4404q16.0059 7.9209 37.127 7.9209q32.0117 0 51.1523 -17.4912
q19.1416 -17.4912 19.1416 -46.8623h-29.7021q0 17.4912 -11.0557 27.7217t-29.5361 10.2305q-18.8115 0 -30.1963 -10.2305q-11.3857 -10.2305 -11.3857 -27.0615q0 -13.2012 7.4248 -22.7715q7.42578 -9.57031 20.9561 -13.8604l36.9619 -11.8809
q22.7715 -7.59082 36.1377 -25.9062q13.3652 -18.3164 13.3652 -42.7373q0 -20.1309 -9.0752 -35.1465q-9.07617 -15.0156 -25.9062 -23.2666q-16.8311 -8.25 -38.9424 -8.25zM279.154 245v90.0947l-72.6035 150.817h30.6914l47.8525 -99.0049
q3.62988 -7.26074 5.94043 -13.2002q2.30957 -5.94043 3.2998 -9.24121q0.660156 2.64062 2.31055 5.94043q3.2998 8.58105 7.25977 16.501l46.8623 99.0049h30.6924l-72.6045 -150.817v-90.0947h-29.7012zM435.701 245v240.912h39.6025l73.5938 -206.261
q-1.32031 14.5215 -2.31055 34.6523q-0.989258 20.1309 -0.989258 36.3018v135.307h28.7109v-240.912h-39.6016l-73.2637 206.261q2.96973 -36.3018 2.96973 -70.9541v-135.307h-28.7119z" />
    <glyph glyph-name="uni2416" 
d="M96.3252 241.7q-23.1016 0 -40.4268 8.25q-17.3262 8.25098 -26.7314 23.2666t-9.40527 35.1465h29.7012q0 -18.1514 12.8701 -29.2061q12.8711 -11.0557 33.9922 -11.0557q20.4609 0 32.6719 11.0557q12.21 11.0547 12.21 29.2061q0 14.1904 -7.4248 24.916
q-7.42578 10.7256 -20.2959 14.6855l-35.6426 11.2207q-24.0908 7.59082 -37.7861 24.917q-13.6963 17.3252 -13.6963 40.7568q0 19.4707 8.74609 33.9922q8.74512 14.5205 24.751 22.4404q16.0059 7.9209 37.127 7.9209q32.0117 0 51.1523 -17.4912
q19.1416 -17.4912 19.1416 -46.8623h-29.7021q0 17.4912 -11.0557 27.7217t-29.5361 10.2305q-18.8115 0 -30.1963 -10.2305q-11.3857 -10.2305 -11.3857 -27.0615q0 -13.2012 7.4248 -22.7715q7.42578 -9.57031 20.9561 -13.8604l36.9619 -11.8809
q22.7715 -7.59082 36.1377 -25.9062q13.3652 -18.3164 13.3652 -42.7373q0 -20.1309 -9.0752 -35.1465q-9.07617 -15.0156 -25.9062 -23.2666q-16.8311 -8.25 -38.9424 -8.25zM279.154 245v90.0947l-72.6035 150.817h30.6914l47.8525 -99.0049
q3.62988 -7.26074 5.94043 -13.2002q2.30957 -5.94043 3.2998 -9.24121q0.660156 2.64062 2.31055 5.94043q3.2998 8.58105 7.25977 16.501l46.8623 99.0049h30.6924l-72.6045 -150.817v-90.0947h-29.7012zM435.701 245v240.912h39.6025l73.5938 -206.261
q-1.32031 14.5215 -2.31055 34.6523q-0.989258 20.1309 -0.989258 36.3018v135.307h28.7109v-240.912h-39.6016l-73.2637 206.261q2.96973 -36.3018 2.96973 -70.9541v-135.307h-28.7119z" />
    <glyph glyph-name="uni2417" unicode="&#x2417;" 
d="M29.002 245v240.912h138.607v-27.0605h-109.236v-74.584h97.6855v-26.4014h-97.6855v-85.8047h109.236v-27.0615h-138.607zM279.154 245v213.852h-66.0029v27.0605h161.708v-27.0605h-66.0039v-213.852h-29.7012zM436.691 245v240.912h68.3135q21.7812 0 37.6221 -7.4248
q15.8408 -7.42578 24.2568 -21.4512q8.41504 -14.0264 8.41504 -33.4971q0 -25.0811 -15.3457 -39.6016q-15.3457 -14.5215 -41.7471 -14.1914v4.9502q28.3809 0.660156 45.542 -16.5q17.1611 -17.1611 17.1611 -46.2031q0 -20.4609 -8.58105 -35.6416
q-8.58008 -15.1807 -24.5859 -23.2666q-16.0059 -8.08496 -37.7871 -8.08496h-73.2637zM506.655 271.731q20.791 0 32.8369 11.0557q12.0449 11.0557 12.0449 30.1963q0 20.1309 -12.21 32.3418q-12.2109 12.2109 -32.6719 12.2109h-40.9219v-85.8047h40.9219z
M504.675 383.277q19.1416 0 30.1973 10.2305t11.0557 27.7217q0 17.4902 -10.8906 27.7207t-30.0322 10.2305h-39.2715v-75.9033h38.9414z" />
    <glyph glyph-name="uni2417" 
d="M29.002 245v240.912h138.607v-27.0605h-109.236v-74.584h97.6855v-26.4014h-97.6855v-85.8047h109.236v-27.0615h-138.607zM279.154 245v213.852h-66.0029v27.0605h161.708v-27.0605h-66.0039v-213.852h-29.7012zM436.691 245v240.912h68.3135q21.7812 0 37.6221 -7.4248
q15.8408 -7.42578 24.2568 -21.4512q8.41504 -14.0264 8.41504 -33.4971q0 -25.0811 -15.3457 -39.6016q-15.3457 -14.5215 -41.7471 -14.1914v4.9502q28.3809 0.660156 45.542 -16.5q17.1611 -17.1611 17.1611 -46.2031q0 -20.4609 -8.58105 -35.6416
q-8.58008 -15.1807 -24.5859 -23.2666q-16.0059 -8.08496 -37.7871 -8.08496h-73.2637zM506.655 271.731q20.791 0 32.8369 11.0557q12.0449 11.0557 12.0449 30.1963q0 20.1309 -12.21 32.3418q-12.2109 12.2109 -32.6719 12.2109h-40.9219v-85.8047h40.9219z
M504.675 383.277q19.1416 0 30.1973 10.2305t11.0557 27.7217q0 17.4902 -10.8906 27.7207t-30.0322 10.2305h-39.2715v-75.9033h38.9414z" />
    <glyph glyph-name="uni2418" unicode="&#x2418;" 
d="M96.3252 241.7q-21.7812 0 -37.9521 8.25q-16.1709 8.25098 -24.751 23.9268q-8.58105 15.6758 -8.58105 37.127v108.905q0 21.4512 8.58105 37.127q8.58008 15.6758 24.751 23.9258q16.1709 8.25098 37.9521 8.25098q21.4512 0 37.457 -8.41602
q16.0059 -8.41504 24.5859 -24.0908q8.58105 -15.6758 8.58105 -36.7969h-29.7021q0 20.4609 -10.7256 31.5166t-30.1963 11.0557q-19.8008 0 -30.6914 -11.0557t-10.8906 -31.1865v-109.235q0 -20.4619 10.8906 -31.5176q10.8906 -11.0547 30.6914 -11.0547
q19.4707 0 30.1963 11.0547q10.7256 11.0557 10.7256 31.5176h29.7021q0 -21.1211 -8.58105 -36.7979q-8.58008 -15.6758 -24.5859 -24.0908t-37.457 -8.41504zM211.501 245l62.7031 240.912h39.9316l62.374 -240.912h-30.0322l-15.8408 64.0234h-72.9336l-15.8408 -64.0234
h-30.3613zM263.644 334.104h60.7236l-18.4814 74.2539q-8.91016 36.3018 -11.8809 53.793q-2.96973 -17.8213 -11.8799 -53.4629zM435.701 245v240.912h39.6025l73.5938 -206.261q-1.32031 14.5215 -2.31055 34.6523q-0.989258 20.1309 -0.989258 36.3018v135.307h28.7109
v-240.912h-39.6016l-73.2637 206.261q2.96973 -36.3018 2.96973 -70.9541v-135.307h-28.7119z" />
    <glyph glyph-name="uni2418" 
d="M96.3252 241.7q-21.7812 0 -37.9521 8.25q-16.1709 8.25098 -24.751 23.9268q-8.58105 15.6758 -8.58105 37.127v108.905q0 21.4512 8.58105 37.127q8.58008 15.6758 24.751 23.9258q16.1709 8.25098 37.9521 8.25098q21.4512 0 37.457 -8.41602
q16.0059 -8.41504 24.5859 -24.0908q8.58105 -15.6758 8.58105 -36.7969h-29.7021q0 20.4609 -10.7256 31.5166t-30.1963 11.0557q-19.8008 0 -30.6914 -11.0557t-10.8906 -31.1865v-109.235q0 -20.4619 10.8906 -31.5176q10.8906 -11.0547 30.6914 -11.0547
q19.4707 0 30.1963 11.0547q10.7256 11.0557 10.7256 31.5176h29.7021q0 -21.1211 -8.58105 -36.7979q-8.58008 -15.6758 -24.5859 -24.0908t-37.457 -8.41504zM211.501 245l62.7031 240.912h39.9316l62.374 -240.912h-30.0322l-15.8408 64.0234h-72.9336l-15.8408 -64.0234
h-30.3613zM263.644 334.104h60.7236l-18.4814 74.2539q-8.91016 36.3018 -11.8809 53.793q-2.96973 -17.8213 -11.8799 -53.4629zM435.701 245v240.912h39.6025l73.5938 -206.261q-1.32031 14.5215 -2.31055 34.6523q-0.989258 20.1309 -0.989258 36.3018v135.307h28.7109
v-240.912h-39.6016l-73.2637 206.261q2.96973 -36.3018 2.96973 -70.9541v-135.307h-28.7119z" />
    <glyph glyph-name="uni2419" unicode="&#x2419;" 
d="M132.002 245v240.912h138.607v-27.0605h-109.236v-74.584h97.6855v-26.4014h-97.6855v-85.8047h109.236v-27.0615h-138.607zM327.081 245v240.912h38.9424l25.7412 -77.8838q5.61035 -17.1611 9.90039 -36.9619q4.29004 19.4707 9.90039 37.292l24.4219 77.5537h38.9414
v-240.912h-29.041v113.855q0 24.4219 1.97949 49.5029q1.98047 25.0811 5.28027 52.4727q0.330078 2.64062 0.660156 5.11523q0.330078 2.47559 0.660156 5.11523l-39.2715 -120.456h-28.3818l-39.6025 120.456l0.660156 -4.62012q3.96094 -29.3711 6.10547 -54.4531
q2.14551 -25.0811 2.14551 -53.1328v-113.855h-29.042z" />
    <glyph glyph-name="uni2419" 
d="M132.002 245v240.912h138.607v-27.0605h-109.236v-74.584h97.6855v-26.4014h-97.6855v-85.8047h109.236v-27.0615h-138.607zM327.081 245v240.912h38.9424l25.7412 -77.8838q5.61035 -17.1611 9.90039 -36.9619q4.29004 19.4707 9.90039 37.292l24.4219 77.5537h38.9414
v-240.912h-29.041v113.855q0 24.4219 1.97949 49.5029q1.98047 25.0811 5.28027 52.4727q0.330078 2.64062 0.660156 5.11523q0.330078 2.47559 0.660156 5.11523l-39.2715 -120.456h-28.3818l-39.6025 120.456l0.660156 -4.62012q3.96094 -29.3711 6.10547 -54.4531
q2.14551 -25.0811 2.14551 -53.1328v-113.855h-29.042z" />
    <glyph glyph-name="uni241A" unicode="&#x241a;" 
d="M96.3252 241.7q-23.1016 0 -40.4268 8.25q-17.3262 8.25098 -26.7314 23.2666t-9.40527 35.1465h29.7012q0 -18.1514 12.8701 -29.2061q12.8711 -11.0557 33.9922 -11.0557q20.4609 0 32.6719 11.0557q12.21 11.0547 12.21 29.2061q0 14.1904 -7.4248 24.916
q-7.42578 10.7256 -20.2959 14.6855l-35.6426 11.2207q-24.0908 7.59082 -37.7861 24.917q-13.6963 17.3252 -13.6963 40.7568q0 19.4707 8.74609 33.9922q8.74512 14.5205 24.751 22.4404q16.0059 7.9209 37.127 7.9209q32.0117 0 51.1523 -17.4912
q19.1416 -17.4912 19.1416 -46.8623h-29.7021q0 17.4912 -11.0557 27.7217t-29.5361 10.2305q-18.8115 0 -30.1963 -10.2305q-11.3857 -10.2305 -11.3857 -27.0615q0 -13.2012 7.4248 -22.7715q7.42578 -9.57031 20.9561 -13.8604l36.9619 -11.8809
q22.7715 -7.59082 36.1377 -25.9062q13.3652 -18.3164 13.3652 -42.7373q0 -20.1309 -9.0752 -35.1465q-9.07617 -15.0156 -25.9062 -23.2666q-16.8311 -8.25 -38.9424 -8.25zM294.005 241.7q-33.3311 0 -51.3174 18.3154q-17.9863 18.3164 -17.9863 50.9883v174.908
h29.7021v-174.908q0 -20.1318 10.0654 -31.5176q10.0654 -11.3848 29.5361 -11.3848q19.4717 0 29.5371 11.3848q10.0654 11.3857 10.0654 31.5176v174.908h29.7012v-174.908q0 -32.6719 -17.8203 -50.9883q-17.8213 -18.3154 -51.4834 -18.3154zM436.691 245v240.912
h68.3135q21.7812 0 37.6221 -7.4248q15.8408 -7.42578 24.2568 -21.4512q8.41504 -14.0264 8.41504 -33.4971q0 -25.0811 -15.3457 -39.6016q-15.3457 -14.5215 -41.7471 -14.1914v4.9502q28.3809 0.660156 45.542 -16.5q17.1611 -17.1611 17.1611 -46.2031
q0 -20.4609 -8.58105 -35.6416q-8.58008 -15.1807 -24.5859 -23.2666q-16.0059 -8.08496 -37.7871 -8.08496h-73.2637zM506.655 271.731q20.791 0 32.8369 11.0557q12.0449 11.0557 12.0449 30.1963q0 20.1309 -12.21 32.3418q-12.2109 12.2109 -32.6719 12.2109h-40.9219
v-85.8047h40.9219zM504.675 383.277q19.1416 0 30.1973 10.2305t11.0557 27.7217q0 17.4902 -10.8906 27.7207t-30.0322 10.2305h-39.2715v-75.9033h38.9414z" />
    <glyph glyph-name="uni241A" 
d="M96.3252 241.7q-23.1016 0 -40.4268 8.25q-17.3262 8.25098 -26.7314 23.2666t-9.40527 35.1465h29.7012q0 -18.1514 12.8701 -29.2061q12.8711 -11.0557 33.9922 -11.0557q20.4609 0 32.6719 11.0557q12.21 11.0547 12.21 29.2061q0 14.1904 -7.4248 24.916
q-7.42578 10.7256 -20.2959 14.6855l-35.6426 11.2207q-24.0908 7.59082 -37.7861 24.917q-13.6963 17.3252 -13.6963 40.7568q0 19.4707 8.74609 33.9922q8.74512 14.5205 24.751 22.4404q16.0059 7.9209 37.127 7.9209q32.0117 0 51.1523 -17.4912
q19.1416 -17.4912 19.1416 -46.8623h-29.7021q0 17.4912 -11.0557 27.7217t-29.5361 10.2305q-18.8115 0 -30.1963 -10.2305q-11.3857 -10.2305 -11.3857 -27.0615q0 -13.2012 7.4248 -22.7715q7.42578 -9.57031 20.9561 -13.8604l36.9619 -11.8809
q22.7715 -7.59082 36.1377 -25.9062q13.3652 -18.3164 13.3652 -42.7373q0 -20.1309 -9.0752 -35.1465q-9.07617 -15.0156 -25.9062 -23.2666q-16.8311 -8.25 -38.9424 -8.25zM294.005 241.7q-33.3311 0 -51.3174 18.3154q-17.9863 18.3164 -17.9863 50.9883v174.908
h29.7021v-174.908q0 -20.1318 10.0654 -31.5176q10.0654 -11.3848 29.5361 -11.3848q19.4717 0 29.5371 11.3848q10.0654 11.3857 10.0654 31.5176v174.908h29.7012v-174.908q0 -32.6719 -17.8203 -50.9883q-17.8213 -18.3154 -51.4834 -18.3154zM436.691 245v240.912
h68.3135q21.7812 0 37.6221 -7.4248q15.8408 -7.42578 24.2568 -21.4512q8.41504 -14.0264 8.41504 -33.4971q0 -25.0811 -15.3457 -39.6016q-15.3457 -14.5215 -41.7471 -14.1914v4.9502q28.3809 0.660156 45.542 -16.5q17.1611 -17.1611 17.1611 -46.2031
q0 -20.4609 -8.58105 -35.6416q-8.58008 -15.1807 -24.5859 -23.2666q-16.0059 -8.08496 -37.7871 -8.08496h-73.2637zM506.655 271.731q20.791 0 32.8369 11.0557q12.0449 11.0557 12.0449 30.1963q0 20.1309 -12.21 32.3418q-12.2109 12.2109 -32.6719 12.2109h-40.9219
v-85.8047h40.9219zM504.675 383.277q19.1416 0 30.1973 10.2305t11.0557 27.7217q0 17.4902 -10.8906 27.7207t-30.0322 10.2305h-39.2715v-75.9033h38.9414z" />
    <glyph glyph-name="uni241B" unicode="&#x241b;" 
d="M29.002 245v240.912h138.607v-27.0605h-109.236v-74.584h97.6855v-26.4014h-97.6855v-85.8047h109.236v-27.0615h-138.607zM295.325 241.7q-23.1016 0 -40.4268 8.25q-17.3262 8.25098 -26.7314 23.2666t-9.40527 35.1465h29.7012q0 -18.1514 12.8701 -29.2061
q12.8711 -11.0557 33.9922 -11.0557q20.4609 0 32.6719 11.0557q12.21 11.0547 12.21 29.2061q0 14.1904 -7.4248 24.916q-7.42578 10.7256 -20.2959 14.6855l-35.6426 11.2207q-24.0908 7.59082 -37.7861 24.917q-13.6963 17.3252 -13.6963 40.7568
q0 19.4707 8.74609 33.9922q8.74512 14.5205 24.751 22.4404q16.0059 7.9209 37.127 7.9209q32.0117 0 51.1523 -17.4912q19.1416 -17.4912 19.1416 -46.8623h-29.7021q0 17.4912 -11.0557 27.7217t-29.5361 10.2305q-18.8115 0 -30.1963 -10.2305
q-11.3857 -10.2305 -11.3857 -27.0615q0 -13.2012 7.4248 -22.7715q7.42578 -9.57031 20.9561 -13.8604l36.9619 -11.8809q22.7715 -7.59082 36.1377 -25.9062q13.3652 -18.3164 13.3652 -42.7373q0 -20.1309 -9.0752 -35.1465q-9.07617 -15.0156 -25.9062 -23.2666
q-16.8311 -8.25 -38.9424 -8.25zM506.325 241.7q-21.7812 0 -37.9521 8.25q-16.1709 8.25098 -24.751 23.9268q-8.58105 15.6758 -8.58105 37.127v108.905q0 21.4512 8.58105 37.127q8.58008 15.6758 24.751 23.9258q16.1709 8.25098 37.9521 8.25098
q21.4512 0 37.457 -8.41602q16.0059 -8.41504 24.5859 -24.0908q8.58105 -15.6758 8.58105 -36.7969h-29.7021q0 20.4609 -10.7256 31.5166t-30.1963 11.0557q-19.8008 0 -30.6914 -11.0557t-10.8906 -31.1865v-109.235q0 -20.4619 10.8906 -31.5176
q10.8906 -11.0547 30.6914 -11.0547q19.4707 0 30.1963 11.0547q10.7256 11.0557 10.7256 31.5176h29.7021q0 -21.1211 -8.58105 -36.7979q-8.58008 -15.6758 -24.5859 -24.0908t-37.457 -8.41504z" />
    <glyph glyph-name="uni241B" 
d="M29.002 245v240.912h138.607v-27.0605h-109.236v-74.584h97.6855v-26.4014h-97.6855v-85.8047h109.236v-27.0615h-138.607zM295.325 241.7q-23.1016 0 -40.4268 8.25q-17.3262 8.25098 -26.7314 23.2666t-9.40527 35.1465h29.7012q0 -18.1514 12.8701 -29.2061
q12.8711 -11.0557 33.9922 -11.0557q20.4609 0 32.6719 11.0557q12.21 11.0547 12.21 29.2061q0 14.1904 -7.4248 24.916q-7.42578 10.7256 -20.2959 14.6855l-35.6426 11.2207q-24.0908 7.59082 -37.7861 24.917q-13.6963 17.3252 -13.6963 40.7568
q0 19.4707 8.74609 33.9922q8.74512 14.5205 24.751 22.4404q16.0059 7.9209 37.127 7.9209q32.0117 0 51.1523 -17.4912q19.1416 -17.4912 19.1416 -46.8623h-29.7021q0 17.4912 -11.0557 27.7217t-29.5361 10.2305q-18.8115 0 -30.1963 -10.2305
q-11.3857 -10.2305 -11.3857 -27.0615q0 -13.2012 7.4248 -22.7715q7.42578 -9.57031 20.9561 -13.8604l36.9619 -11.8809q22.7715 -7.59082 36.1377 -25.9062q13.3652 -18.3164 13.3652 -42.7373q0 -20.1309 -9.0752 -35.1465q-9.07617 -15.0156 -25.9062 -23.2666
q-16.8311 -8.25 -38.9424 -8.25zM506.325 241.7q-21.7812 0 -37.9521 8.25q-16.1709 8.25098 -24.751 23.9268q-8.58105 15.6758 -8.58105 37.127v108.905q0 21.4512 8.58105 37.127q8.58008 15.6758 24.751 23.9258q16.1709 8.25098 37.9521 8.25098
q21.4512 0 37.457 -8.41602q16.0059 -8.41504 24.5859 -24.0908q8.58105 -15.6758 8.58105 -36.7969h-29.7021q0 20.4609 -10.7256 31.5166t-30.1963 11.0557q-19.8008 0 -30.6914 -11.0557t-10.8906 -31.1865v-109.235q0 -20.4619 10.8906 -31.5176
q10.8906 -11.0547 30.6914 -11.0547q19.4707 0 30.1963 11.0547q10.7256 11.0557 10.7256 31.5176h29.7021q0 -21.1211 -8.58105 -36.7979q-8.58008 -15.6758 -24.5859 -24.0908t-37.457 -8.41504z" />
    <glyph glyph-name="uni241C" unicode="&#x241c;" 
d="M130.352 245v240.912h141.907v-27.0605h-112.865v-79.8643h104.285v-27.0615h-103.626v-106.926h-29.7012zM402.325 241.7q-23.1016 0 -40.4268 8.25q-17.3262 8.25098 -26.7314 23.2666t-9.40527 35.1465h29.7012q0 -18.1514 12.8701 -29.2061
q12.8711 -11.0557 33.9922 -11.0557q20.4609 0 32.6719 11.0557q12.21 11.0547 12.21 29.2061q0 14.1904 -7.4248 24.916q-7.42578 10.7256 -20.2959 14.6855l-35.6426 11.2207q-24.0908 7.59082 -37.7861 24.917q-13.6963 17.3252 -13.6963 40.7568
q0 19.4707 8.74609 33.9922q8.74512 14.5205 24.751 22.4404q16.0059 7.9209 37.127 7.9209q32.0117 0 51.1523 -17.4912q19.1416 -17.4912 19.1416 -46.8623h-29.7021q0 17.4912 -11.0557 27.7217t-29.5361 10.2305q-18.8115 0 -30.1963 -10.2305
q-11.3857 -10.2305 -11.3857 -27.0615q0 -13.2012 7.4248 -22.7715q7.42578 -9.57031 20.9561 -13.8604l36.9619 -11.8809q22.7715 -7.59082 36.1377 -25.9062q13.3652 -18.3164 13.3652 -42.7373q0 -20.1309 -9.0752 -35.1465q-9.07617 -15.0156 -25.9062 -23.2666
q-16.8311 -8.25 -38.9424 -8.25z" />
    <glyph glyph-name="uni241C" 
d="M130.352 245v240.912h141.907v-27.0605h-112.865v-79.8643h104.285v-27.0615h-103.626v-106.926h-29.7012zM402.325 241.7q-23.1016 0 -40.4268 8.25q-17.3262 8.25098 -26.7314 23.2666t-9.40527 35.1465h29.7012q0 -18.1514 12.8701 -29.2061
q12.8711 -11.0557 33.9922 -11.0557q20.4609 0 32.6719 11.0557q12.21 11.0547 12.21 29.2061q0 14.1904 -7.4248 24.916q-7.42578 10.7256 -20.2959 14.6855l-35.6426 11.2207q-24.0908 7.59082 -37.7861 24.917q-13.6963 17.3252 -13.6963 40.7568
q0 19.4707 8.74609 33.9922q8.74512 14.5205 24.751 22.4404q16.0059 7.9209 37.127 7.9209q32.0117 0 51.1523 -17.4912q19.1416 -17.4912 19.1416 -46.8623h-29.7021q0 17.4912 -11.0557 27.7217t-29.5361 10.2305q-18.8115 0 -30.1963 -10.2305
q-11.3857 -10.2305 -11.3857 -27.0615q0 -13.2012 7.4248 -22.7715q7.42578 -9.57031 20.9561 -13.8604l36.9619 -11.8809q22.7715 -7.59082 36.1377 -25.9062q13.3652 -18.3164 13.3652 -42.7373q0 -20.1309 -9.0752 -35.1465q-9.07617 -15.0156 -25.9062 -23.2666
q-16.8311 -8.25 -38.9424 -8.25z" />
    <glyph glyph-name="uni241D" unicode="&#x241d;" 
d="M199.325 241.7q-21.7812 0 -37.9521 8.25q-16.1709 8.25098 -24.751 23.9268q-8.58105 15.6758 -8.58105 37.127v108.905q0 21.4512 8.58105 37.127q8.58008 15.6758 24.751 23.9258q16.1709 8.25098 37.9521 8.25098q21.4512 0 37.457 -8.41602
q16.0059 -8.41504 24.5859 -24.0908q8.58105 -15.6758 8.58105 -36.7969h-29.7021q0 20.4609 -10.7256 31.5166t-30.1963 11.0557q-19.8008 0 -30.6914 -11.0557t-10.8906 -31.1865v-109.235q0 -20.4619 10.8906 -31.6816q10.8906 -11.2207 30.6914 -11.2207
q19.4707 0 30.1963 11.2207q10.7256 11.2197 10.7256 31.6816v29.7012h-48.8428v27.0615h78.5449v-56.7627q0 -21.1211 -8.58105 -36.7979q-8.58008 -15.6758 -24.5859 -24.0908t-37.457 -8.41504zM402.325 241.7q-23.1016 0 -40.4268 8.25
q-17.3262 8.25098 -26.7314 23.2666t-9.40527 35.1465h29.7012q0 -18.1514 12.8701 -29.2061q12.8711 -11.0557 33.9922 -11.0557q20.4609 0 32.6719 11.0557q12.21 11.0547 12.21 29.2061q0 14.1904 -7.4248 24.916q-7.42578 10.7256 -20.2959 14.6855l-35.6426 11.2207
q-24.0908 7.59082 -37.7861 24.917q-13.6963 17.3252 -13.6963 40.7568q0 19.4707 8.74609 33.9922q8.74512 14.5205 24.751 22.4404q16.0059 7.9209 37.127 7.9209q32.0117 0 51.1523 -17.4912q19.1416 -17.4912 19.1416 -46.8623h-29.7021q0 17.4912 -11.0557 27.7217
t-29.5361 10.2305q-18.8115 0 -30.1963 -10.2305q-11.3857 -10.2305 -11.3857 -27.0615q0 -13.2012 7.4248 -22.7715q7.42578 -9.57031 20.9561 -13.8604l36.9619 -11.8809q22.7715 -7.59082 36.1377 -25.9062q13.3652 -18.3164 13.3652 -42.7373
q0 -20.1309 -9.0752 -35.1465q-9.07617 -15.0156 -25.9062 -23.2666q-16.8311 -8.25 -38.9424 -8.25z" />
    <glyph glyph-name="uni241D" 
d="M199.325 241.7q-21.7812 0 -37.9521 8.25q-16.1709 8.25098 -24.751 23.9268q-8.58105 15.6758 -8.58105 37.127v108.905q0 21.4512 8.58105 37.127q8.58008 15.6758 24.751 23.9258q16.1709 8.25098 37.9521 8.25098q21.4512 0 37.457 -8.41602
q16.0059 -8.41504 24.5859 -24.0908q8.58105 -15.6758 8.58105 -36.7969h-29.7021q0 20.4609 -10.7256 31.5166t-30.1963 11.0557q-19.8008 0 -30.6914 -11.0557t-10.8906 -31.1865v-109.235q0 -20.4619 10.8906 -31.6816q10.8906 -11.2207 30.6914 -11.2207
q19.4707 0 30.1963 11.2207q10.7256 11.2197 10.7256 31.6816v29.7012h-48.8428v27.0615h78.5449v-56.7627q0 -21.1211 -8.58105 -36.7979q-8.58008 -15.6758 -24.5859 -24.0908t-37.457 -8.41504zM402.325 241.7q-23.1016 0 -40.4268 8.25
q-17.3262 8.25098 -26.7314 23.2666t-9.40527 35.1465h29.7012q0 -18.1514 12.8701 -29.2061q12.8711 -11.0557 33.9922 -11.0557q20.4609 0 32.6719 11.0557q12.21 11.0547 12.21 29.2061q0 14.1904 -7.4248 24.916q-7.42578 10.7256 -20.2959 14.6855l-35.6426 11.2207
q-24.0908 7.59082 -37.7861 24.917q-13.6963 17.3252 -13.6963 40.7568q0 19.4707 8.74609 33.9922q8.74512 14.5205 24.751 22.4404q16.0059 7.9209 37.127 7.9209q32.0117 0 51.1523 -17.4912q19.1416 -17.4912 19.1416 -46.8623h-29.7021q0 17.4912 -11.0557 27.7217
t-29.5361 10.2305q-18.8115 0 -30.1963 -10.2305q-11.3857 -10.2305 -11.3857 -27.0615q0 -13.2012 7.4248 -22.7715q7.42578 -9.57031 20.9561 -13.8604l36.9619 -11.8809q22.7715 -7.59082 36.1377 -25.9062q13.3652 -18.3164 13.3652 -42.7373
q0 -20.1309 -9.0752 -35.1465q-9.07617 -15.0156 -25.9062 -23.2666q-16.8311 -8.25 -38.9424 -8.25z" />
    <glyph glyph-name="uni241E" unicode="&#x241e;" 
d="M129.361 245v240.912h74.584q21.1211 0 37.457 -8.74512t25.2461 -24.4209q8.91113 -15.6758 8.91113 -36.1367q0 -24.4219 -12.7061 -41.9131q-12.7061 -17.4902 -34.4863 -24.0908l50.4922 -105.605h-34.9814l-46.2031 102.306h-38.6113v-102.306h-29.7021z
M203.945 374.037q18.4814 0 29.7012 11.5498q11.2207 11.5508 11.2207 31.0225q0 19.1406 -11.2207 30.8564q-11.2197 11.7148 -29.7012 11.7148h-44.8818v-85.1436h44.8818zM402.325 241.7q-23.1016 0 -40.4268 8.25q-17.3262 8.25098 -26.7314 23.2666t-9.40527 35.1465
h29.7012q0 -18.1514 12.8701 -29.2061q12.8711 -11.0557 33.9922 -11.0557q20.4609 0 32.6719 11.0557q12.21 11.0547 12.21 29.2061q0 14.1904 -7.4248 24.916q-7.42578 10.7256 -20.2959 14.6855l-35.6426 11.2207q-24.0908 7.59082 -37.7861 24.917
q-13.6963 17.3252 -13.6963 40.7568q0 19.4707 8.74609 33.9922q8.74512 14.5205 24.751 22.4404q16.0059 7.9209 37.127 7.9209q32.0117 0 51.1523 -17.4912q19.1416 -17.4912 19.1416 -46.8623h-29.7021q0 17.4912 -11.0557 27.7217t-29.5361 10.2305
q-18.8115 0 -30.1963 -10.2305q-11.3857 -10.2305 -11.3857 -27.0615q0 -13.2012 7.4248 -22.7715q7.42578 -9.57031 20.9561 -13.8604l36.9619 -11.8809q22.7715 -7.59082 36.1377 -25.9062q13.3652 -18.3164 13.3652 -42.7373q0 -20.1309 -9.0752 -35.1465
q-9.07617 -15.0156 -25.9062 -23.2666q-16.8311 -8.25 -38.9424 -8.25z" />
    <glyph glyph-name="uni241E" 
d="M129.361 245v240.912h74.584q21.1211 0 37.457 -8.74512t25.2461 -24.4209q8.91113 -15.6758 8.91113 -36.1367q0 -24.4219 -12.7061 -41.9131q-12.7061 -17.4902 -34.4863 -24.0908l50.4922 -105.605h-34.9814l-46.2031 102.306h-38.6113v-102.306h-29.7021z
M203.945 374.037q18.4814 0 29.7012 11.5498q11.2207 11.5508 11.2207 31.0225q0 19.1406 -11.2207 30.8564q-11.2197 11.7148 -29.7012 11.7148h-44.8818v-85.1436h44.8818zM402.325 241.7q-23.1016 0 -40.4268 8.25q-17.3262 8.25098 -26.7314 23.2666t-9.40527 35.1465
h29.7012q0 -18.1514 12.8701 -29.2061q12.8711 -11.0557 33.9922 -11.0557q20.4609 0 32.6719 11.0557q12.21 11.0547 12.21 29.2061q0 14.1904 -7.4248 24.916q-7.42578 10.7256 -20.2959 14.6855l-35.6426 11.2207q-24.0908 7.59082 -37.7861 24.917
q-13.6963 17.3252 -13.6963 40.7568q0 19.4707 8.74609 33.9922q8.74512 14.5205 24.751 22.4404q16.0059 7.9209 37.127 7.9209q32.0117 0 51.1523 -17.4912q19.1416 -17.4912 19.1416 -46.8623h-29.7021q0 17.4912 -11.0557 27.7217t-29.5361 10.2305
q-18.8115 0 -30.1963 -10.2305q-11.3857 -10.2305 -11.3857 -27.0615q0 -13.2012 7.4248 -22.7715q7.42578 -9.57031 20.9561 -13.8604l36.9619 -11.8809q22.7715 -7.59082 36.1377 -25.9062q13.3652 -18.3164 13.3652 -42.7373q0 -20.1309 -9.0752 -35.1465
q-9.07617 -15.0156 -25.9062 -23.2666q-16.8311 -8.25 -38.9424 -8.25z" />
    <glyph glyph-name="uni241F" unicode="&#x241f;" 
d="M198.005 241.7q-33.3311 0 -51.3174 18.3154q-17.9863 18.3164 -17.9863 50.9883v174.908h29.7021v-174.908q0 -20.1318 10.0654 -31.5176q10.0654 -11.3848 29.5361 -11.3848q19.4717 0 29.5371 11.3848q10.0654 11.3857 10.0654 31.5176v174.908h29.7012v-174.908
q0 -32.6719 -17.8203 -50.9883q-17.8213 -18.3154 -51.4834 -18.3154zM402.325 241.7q-23.1016 0 -40.4268 8.25q-17.3262 8.25098 -26.7314 23.2666t-9.40527 35.1465h29.7012q0 -18.1514 12.8701 -29.2061q12.8711 -11.0557 33.9922 -11.0557q20.4609 0 32.6719 11.0557
q12.21 11.0547 12.21 29.2061q0 14.1904 -7.4248 24.916q-7.42578 10.7256 -20.2959 14.6855l-35.6426 11.2207q-24.0908 7.59082 -37.7861 24.917q-13.6963 17.3252 -13.6963 40.7568q0 19.4707 8.74609 33.9922q8.74512 14.5205 24.751 22.4404
q16.0059 7.9209 37.127 7.9209q32.0117 0 51.1523 -17.4912q19.1416 -17.4912 19.1416 -46.8623h-29.7021q0 17.4912 -11.0557 27.7217t-29.5361 10.2305q-18.8115 0 -30.1963 -10.2305q-11.3857 -10.2305 -11.3857 -27.0615q0 -13.2012 7.4248 -22.7715
q7.42578 -9.57031 20.9561 -13.8604l36.9619 -11.8809q22.7715 -7.59082 36.1377 -25.9062q13.3652 -18.3164 13.3652 -42.7373q0 -20.1309 -9.0752 -35.1465q-9.07617 -15.0156 -25.9062 -23.2666q-16.8311 -8.25 -38.9424 -8.25z" />
    <glyph glyph-name="uni241F" 
d="M198.005 241.7q-33.3311 0 -51.3174 18.3154q-17.9863 18.3164 -17.9863 50.9883v174.908h29.7021v-174.908q0 -20.1318 10.0654 -31.5176q10.0654 -11.3848 29.5361 -11.3848q19.4717 0 29.5371 11.3848q10.0654 11.3857 10.0654 31.5176v174.908h29.7012v-174.908
q0 -32.6719 -17.8203 -50.9883q-17.8213 -18.3154 -51.4834 -18.3154zM402.325 241.7q-23.1016 0 -40.4268 8.25q-17.3262 8.25098 -26.7314 23.2666t-9.40527 35.1465h29.7012q0 -18.1514 12.8701 -29.2061q12.8711 -11.0557 33.9922 -11.0557q20.4609 0 32.6719 11.0557
q12.21 11.0547 12.21 29.2061q0 14.1904 -7.4248 24.916q-7.42578 10.7256 -20.2959 14.6855l-35.6426 11.2207q-24.0908 7.59082 -37.7861 24.917q-13.6963 17.3252 -13.6963 40.7568q0 19.4707 8.74609 33.9922q8.74512 14.5205 24.751 22.4404
q16.0059 7.9209 37.127 7.9209q32.0117 0 51.1523 -17.4912q19.1416 -17.4912 19.1416 -46.8623h-29.7021q0 17.4912 -11.0557 27.7217t-29.5361 10.2305q-18.8115 0 -30.1963 -10.2305q-11.3857 -10.2305 -11.3857 -27.0615q0 -13.2012 7.4248 -22.7715
q7.42578 -9.57031 20.9561 -13.8604l36.9619 -11.8809q22.7715 -7.59082 36.1377 -25.9062q13.3652 -18.3164 13.3652 -42.7373q0 -20.1309 -9.0752 -35.1465q-9.07617 -15.0156 -25.9062 -23.2666q-16.8311 -8.25 -38.9424 -8.25z" />
    <glyph glyph-name="space" unicode=" " horiz-adv-x="400" 
 />
    <glyph glyph-name="exclam" unicode="!" horiz-adv-x="400" 
d="M168 215l-21 395v120h106v-120l-21 -395h-64zM185 -5q-26 0 -43 17t-17 43t17 43t43 17h30q28 0 44 -16.5t16 -42.5t-17 -43.5t-43 -17.5h-30z" />
    <glyph glyph-name="quotedbl" unicode="&#x22;" horiz-adv-x="400" 
d="M265 430l-12 210v90h97v-90l-11 -210h-74zM62 430l-12 210v90h97v-90l-11 -210h-74z" />
    <glyph glyph-name="numbersign" unicode="#" 
d="M83 0l39 210h-87v65h98l34 180h-97v65h108l39 210h70l-39 -210h160l39 210h70l-39 -210h87v-65h-98l-34 -180h97v-65h-108l-39 -210h-70l39 210h-160l-39 -210h-70zM203 275h160l34 180h-160z" />
    <glyph glyph-name="dollar" unicode="$" 
d="M275 -9q-94 7 -147.5 60t-55.5 139h90q0 -50 29.5 -80.5t83.5 -37.5v262l-27 8q-75 23 -115.5 76.5t-40.5 127.5q0 80 49.5 132t133.5 60v132h60v-131q83 -8 133 -60t51 -134h-90q0 47 -24.5 76.5t-69.5 36.5v-248l40 -13q73 -23 113 -78t40 -129q0 -82 -52.5 -136
t-140.5 -63v-131h-60v131zM335 72q49 8 76 38t27 78q0 44 -24 77t-67 46l-12 4v-243zM275 658q-44 -7 -68.5 -34t-24.5 -70q0 -53 32.5 -88t91.5 -44l-31 -33v269z" />
    <glyph glyph-name="percent" unicode="%" 
d="M14 0l498 730h74l-498 -730h-74zM445 -5q-63 0 -101 36t-38 99v65q0 63 38 99t101 36t101 -36t38 -99v-65q0 -63 -38 -99t-101 -36zM445 64q33 0 49 16t16 50v65q0 34 -16 50.5t-49 16.5t-49 -16.5t-16 -50.5v-65q0 -34 16 -50t49 -16zM155 400q-63 0 -101 36t-38 99v65
q0 63 38 99t101 36t101 -36t38 -99v-65q0 -63 -38 -99t-101 -36zM155 468q32 0 48.5 16.5t16.5 50.5v65q0 34 -16.5 50.5t-48.5 16.5t-48.5 -16.5t-16.5 -50.5v-65q0 -34 16.5 -50.5t48.5 -16.5z" />
    <glyph glyph-name="ampersand" unicode="&#x26;" 
d="M230 -10q-82 0 -128.5 44t-46.5 121v125q0 53 27.5 89.5t78.5 51.5l-7 10q-31 42 -45 78t-14 72q0 47 22.5 83.5t63 56t94.5 19.5q58 0 100.5 -21t65.5 -59.5t23 -90.5h-90q0 43 -26.5 68t-72.5 25q-41 0 -65.5 -22.5t-24.5 -60.5q0 -25 10.5 -54.5t29.5 -54.5l172 -237
l71 127h94l-113 -199l117 -161h-99l-63 87q-36 -47 -80.5 -72t-93.5 -25zM235 70q34 0 65.5 22.5t53.5 62.5l-147 203q-31 -5 -46.5 -25t-15.5 -53v-125q0 -40 23.5 -62.5t66.5 -22.5z" />
    <glyph glyph-name="quotesingle" unicode="'" horiz-adv-x="200" 
d="M63 430l-12 150v150h97v-150l-11 -150h-74z" />
    <glyph glyph-name="parenleft" unicode="(" horiz-adv-x="400" 
d="M355 -120q-142 35 -221 138t-79 252v180q0 97 36.5 177t104 135t159.5 78v-85q-96 -23 -153 -105t-57 -200v-180q0 -116 56.5 -197t153.5 -104v-89z" />
    <glyph glyph-name="parenright" unicode=")" horiz-adv-x="400" 
d="M45 -31q97 23 153.5 104t56.5 197v180q0 118 -57 200t-153 105v85q92 -23 159.5 -78t104 -135t36.5 -177v-180q0 -149 -79 -252t-221 -138v89z" />
    <glyph glyph-name="asterisk" unicode="*" 
d="M181 94l-72 50l54 78q30 41 80 84l20 17l-3 7l-17 1q-34 4 -65 9.5t-55 14.5l-88 32l30 83l88 -32q27 -10 57.5 -28t56.5 -37l9 -6l5 4l-7 28q-18 72 -18 116v95h88v-95q0 -27 -6 -60.5t-15 -66.5q-1 -4 -2.5 -8.5t-2.5 -8.5l5 -4q4 2 7.5 5t7.5 6q29 20 56.5 35.5
t51.5 24.5l89 32l30 -83l-89 -32q-42 -15 -112 -23l-24 -2l-4 -8q5 -4 10.5 -8.5t11.5 -9.5q24 -21 44 -42t33 -40l55 -78l-72 -50l-55 78q-23 32 -49 97q-8 22 -11 31h-7q-3 -8 -6 -16.5t-7 -17.5q-12 -29 -23.5 -52.5t-24.5 -41.5z" />
    <glyph glyph-name="plus" unicode="+" 
d="M256 95v195h-191v80h191v195h88v-195h191v-80h-191v-195h-88z" />
    <glyph glyph-name="comma" unicode="," horiz-adv-x="400" 
d="M78 -160l80 311h130l-130 -311h-80z" />
    <glyph glyph-name="hyphen" unicode="-" 
d="M140 290v80h320v-80h-320z" />
    <glyph glyph-name="period" unicode="." horiz-adv-x="400" 
d="M200 -10q-38 0 -60.5 22t-22.5 59q0 39 22.5 62t60.5 23t60.5 -23t22.5 -62q0 -37 -22.5 -59t-60.5 -22z" />
    <glyph glyph-name="slash" unicode="/" 
d="M75 -110l355 940h95l-355 -940h-95z" />
    <glyph glyph-name="zero" unicode="0" 
d="M300 -10q-67 0 -116.5 26.5t-76.5 75t-27 113.5v320q0 65 27 113.5t76.5 75t116.5 26.5t116.5 -26.5t76.5 -75t27 -113.5v-320q0 -64 -27 -113t-77 -75.5t-116 -26.5zM300 67q60 0 96.5 38.5t36.5 99.5v320q0 61 -36.5 99.5t-96.5 38.5t-96.5 -38.5t-36.5 -99.5v-320
q0 -61 36.5 -99.5t96.5 -38.5zM300 306q-27 0 -43.5 17t-16.5 45q0 27 16.5 43.5t43.5 16.5t43.5 -16.5t16.5 -43.5q0 -28 -16.5 -45t-43.5 -17z" />
    <glyph glyph-name="one" unicode="1" 
d="M90 0v82h198v573l-198 -148v100l165 123h123v-648h162v-82h-450z" />
    <glyph glyph-name="two" unicode="2" 
d="M92 0v89l233 254q52 57 75.5 100.5t23.5 85.5q0 60 -35 95.5t-95 35.5q-61 0 -96.5 -36.5t-35.5 -98.5h-90q2 65 30 114t77.5 75t114.5 26q101 0 160.5 -57t59.5 -155q0 -52 -30.5 -109t-98.5 -131l-190 -206h331v-82h-434z" />
    <glyph glyph-name="three" unicode="3" 
d="M289 -10q-65 0 -115 26t-77 74t-27 110h90q0 -61 34.5 -95.5t95.5 -34.5t95.5 35.5t34.5 94.5v50q0 62 -34 96t-96 34h-79v78l174 190h-285v82h387v-84l-195 -213v27q100 0 159 -57t59 -153v-50q0 -62 -27.5 -110t-78 -74t-115.5 -26z" />
    <glyph glyph-name="four" unicode="4" 
d="M400 0v160h-330v141l266 429h99l-275 -447v-41h240v178h90v-420h-90z" />
    <glyph glyph-name="five" unicode="5" 
d="M298 -10q-89 0 -146 46t-67 124h90q5 -43 37 -66.5t87 -23.5q62 0 94 33.5t32 96.5v71q0 63 -31.5 96.5t-93.5 33.5q-38 0 -67.5 -20.5t-42.5 -54.5h-90l5 404h384v-82h-297l-3 -243h28l-28 -26q0 46 37.5 73.5t100.5 27.5q88 1 138 -54.5t50 -154.5v-71
q0 -97 -57.5 -153.5t-159.5 -56.5z" />
    <glyph glyph-name="six" unicode="6" 
d="M301 -10q-70 0 -124 29t-83.5 82t-29.5 122q0 89 66 204l172 303h98l-198 -337l4 -3q18 27 52.5 43t76.5 16q59 0 105 -27.5t71 -78t25 -116.5q0 -70 -29.5 -124t-82.5 -83.5t-123 -29.5zM300 70q65 0 105.5 42.5t40.5 112.5t-40.5 112.5t-105.5 42.5t-105.5 -42.5
t-40.5 -112.5t40.5 -112.5t105.5 -42.5z" />
    <glyph glyph-name="seven" unicode="7" 
d="M191 0l261 648h-282v-118h-90v200h465v-84l-255 -646h-99z" />
    <glyph glyph-name="eight" unicode="8" 
d="M300 -10q-70 0 -123 24.5t-82 68t-29 100.5q0 66 44 122t118 84l97 37q47 18 76 52t29 73q0 49 -36 79.5t-94 30.5t-94 -31t-36 -79q0 -41 27.5 -74t73.5 -50l97 -36q75 -28 120.5 -84.5t45.5 -123.5q0 -57 -29 -100.5t-82 -68t-123 -24.5zM300 70q66 0 106 34.5t40 90.5
q0 44 -27 79.5t-76 54.5l-96 37q-81 31 -123 80t-42 108q0 54 28 96.5t78 66.5t112 24t112 -24t78 -66.5t28 -96.5q0 -58 -43 -107.5t-125 -81.5l-96 -37q-47 -19 -73.5 -54.5t-26.5 -78.5q0 -56 40 -90.5t106 -34.5z" />
    <glyph glyph-name="nine" unicode="9" 
d="M200 0l196 337l-4 3q-18 -27 -51.5 -43t-75.5 -16q-59 0 -105 27.5t-71 78t-25 116.5q0 70 29.5 124t82.5 83.5t123 29.5t124 -29t83.5 -82t29.5 -122q0 -46 -17 -96t-50 -108l-169 -303h-100zM300 350q65 0 105.5 42.5t40.5 112.5t-40.5 112.5t-105.5 42.5t-105.5 -42.5
t-40.5 -112.5t40.5 -112.5t105.5 -42.5z" />
    <glyph glyph-name="colon" unicode=":" horiz-adv-x="400" 
d="M200 410q-37 0 -60 20.5t-23 54.5t23 54.5t60 20.5t60 -20.5t23 -54.5t-23 -54.5t-60 -20.5zM200 -10q-37 0 -60 20.5t-23 54.5t23 54.5t60 20.5t60 -20.5t23 -54.5t-23 -54.5t-60 -20.5z" />
    <glyph glyph-name="semicolon" unicode=";" horiz-adv-x="400" 
d="M70 -160l80 311h130l-130 -311h-80zM190 410q-33 0 -54 21t-21 54q0 32 21.5 53.5t53.5 21.5h20q32 0 53.5 -21.5t21.5 -53.5q0 -33 -21 -54t-54 -21h-20z" />
    <glyph glyph-name="less" unicode="&#x3c;" 
d="M515 65l-430 215v100l430 215v-87l-310 -152q-37 -18 -60 -24q27 -7 60 -24l310 -153v-90z" />
    <glyph glyph-name="equal" unicode="=" 
d="M85 410v80h430v-80h-430zM85 170v80h430v-80h-430z" />
    <glyph glyph-name="greater" unicode="&#x3e;" 
d="M85 65v87l310 152q37 18 60 24q-27 7 -60 24l-310 153v90l430 -215v-100z" />
    <glyph glyph-name="question" unicode="?" 
d="M206 205v180h50q64 0 101.5 35.5t37.5 94.5t-38 94.5t-102 35.5h-125v85h125q69 0 121 -26.5t80.5 -75t28.5 -113.5q0 -57 -24 -102.5t-67 -72.5t-98 -30v-105h-90zM235 -5q-26 0 -43 17t-17 43t17 43t43 17h30q28 0 44 -16.5t16 -42.5t-17 -43.5t-43 -17.5h-30z" />
    <glyph glyph-name="at" unicode="@" 
d="M325 -180q-85 0 -148 35.5t-97.5 101t-34.5 153.5v340q0 89 32.5 154.5t93.5 100.5t144 35q75 0 130.5 -29.5t85 -85t29.5 -130.5v-430h-78v65h-21l19 10q0 -38 -29 -61.5t-77 -23.5q-65 0 -99.5 39.5t-34.5 115.5v120q0 76 34.5 115.5t99.5 39.5q48 0 77 -23.5t29 -62.5
l-14 11h17l-3 80v5q0 85 -42.5 130t-122.5 45q-90 0 -140 -58t-50 -162v-340q0 -100 53.5 -157.5t146.5 -57.5h70v-75h-70zM400 118q41 0 60.5 25t19.5 77v111q0 47 -19.5 69t-60.5 22t-60.5 -22.5t-19.5 -69.5v-120q0 -47 19.5 -69.5t60.5 -22.5z" />
    <glyph glyph-name="A" unicode="A" 
d="M50 0l190 730h121l189 -730h-91l-48 194h-221l-48 -194h-92zM208 270h184l-56 225q-27 110 -36 163q-9 -54 -36 -162z" />
    <glyph glyph-name="B" unicode="B" 
d="M93 0v730h207q66 0 114 -22.5t73.5 -65t25.5 -101.5q0 -76 -46.5 -120t-126.5 -43v15q86 2 138 -50t52 -140q0 -62 -26 -108t-74.5 -70.5t-114.5 -24.5h-222zM305 81q63 0 99.5 33.5t36.5 91.5q0 61 -37 98t-99 37h-124v-260h124zM299 419q58 0 91.5 31t33.5 84t-33 84
t-91 31h-119v-230h118z" />
    <glyph glyph-name="C" unicode="C" 
d="M304 -10q-66 0 -115 25t-75 72.5t-26 112.5v330q0 65 26 112.5t75 72.5t115 25q65 0 113.5 -25.5t74.5 -73t26 -111.5h-90q0 62 -32.5 95.5t-91.5 33.5q-60 0 -93 -33.5t-33 -94.5v-331q0 -62 33 -95.5t93 -33.5q59 0 91.5 33.5t32.5 95.5h90q0 -64 -26 -111.5t-74.5 -73
t-113.5 -25.5z" />
    <glyph glyph-name="D" unicode="D" 
d="M92 0v730h189q70 0 122 -27t80.5 -76.5t28.5 -115.5v-291q0 -66 -28.5 -116t-80.5 -77t-122 -27h-189zM281 80q66 0 103.5 37t37.5 103v291q0 65 -37.5 102t-103.5 37h-99v-570h99z" />
    <glyph glyph-name="E" unicode="E" 
d="M100 0v730h420v-82h-331v-226h296v-80h-296v-260h331v-82h-420z" />
    <glyph glyph-name="F" unicode="F" 
d="M95 0v730h430v-82h-342v-242h316v-82h-314v-324h-90z" />
    <glyph glyph-name="G" unicode="G" 
d="M304 -10q-66 0 -115 25t-75 72.5t-26 112.5v330q0 65 26 112.5t75 72.5t115 25q65 0 113.5 -25.5t74.5 -73t26 -111.5h-90q0 62 -32.5 95.5t-91.5 33.5q-60 0 -93 -33.5t-33 -94.5v-331q0 -62 33 -96t93 -34q59 0 91.5 34t32.5 96v90h-148v82h238v-172q0 -64 -26 -111.5
t-74.5 -73t-113.5 -25.5z" />
    <glyph glyph-name="H" unicode="H" 
d="M93 0v730h90v-312h234v312h90v-730h-90v336h-234v-336h-90z" />
    <glyph glyph-name="I" unicode="I" 
d="M105 0v82h149v566h-149v82h390v-82h-149v-566h149v-82h-390z" />
    <glyph glyph-name="J" unicode="J" 
d="M270 -10q-105 0 -165 59t-60 161h90q0 -67 35.5 -103.5t99.5 -36.5t99.5 36.5t35.5 103.5v438h-205v82h295v-520q0 -102 -60.5 -161t-164.5 -59z" />
    <glyph glyph-name="K" unicode="K" 
d="M92 0v730h90v-313h108l162 313h98l-181 -351l191 -379h-103l-170 338h-105v-338h-90z" />
    <glyph glyph-name="L" unicode="L" 
d="M130 0v730h90v-648h330v-82h-420z" />
    <glyph glyph-name="M" unicode="M" 
d="M76 0v730h118l78 -236q17 -52 30 -112q13 59 30 113l74 235h118v-730h-88v345q0 74 6 150t16 159q1 8 2 15.5t2 15.5l-119 -365h-86l-120 365l2 -14q12 -89 18.5 -165t6.5 -161v-345h-88z" />
    <glyph glyph-name="N" unicode="N" 
d="M90 0v730h120l223 -625q-4 44 -7 105t-3 110v410h87v-730h-120l-222 625q9 -110 9 -215v-410h-87z" />
    <glyph glyph-name="O" unicode="O" 
d="M300 -10q-65 0 -113 25t-73.5 72.5t-25.5 112.5v330q0 65 25.5 112.5t73.5 72.5t113 25t113 -25t73.5 -72.5t25.5 -111.5v-331q0 -65 -25.5 -112.5t-73.5 -72.5t-113 -25zM300 71q59 0 90.5 33.5t31.5 95.5v330q0 62 -31.5 95.5t-90.5 33.5t-90.5 -33.5t-31.5 -95.5v-330
q0 -62 31.5 -95.5t90.5 -33.5z" />
    <glyph glyph-name="P" unicode="P" 
d="M92 0v730h235q67 0 117.5 -26.5t78 -75t27.5 -113.5t-27.5 -113.5t-78 -75t-117.5 -26.5h-145v-300h-90zM327 381q59 0 94.5 36.5t35.5 97.5t-35.5 97.5t-94.5 36.5h-145v-268h145z" />
    <glyph glyph-name="Q" unicode="Q" 
d="M422 -180l-107 177l10 -6h-8q-5 -1 -17 -1q-67 0 -116.5 26.5t-76.5 75t-27 113.5v320q0 65 27 113.5t76.5 75t116.5 26.5t116.5 -26.5t76.5 -75t27 -113.5v-320q0 -67 -29 -117t-82 -75l117 -193h-104zM300 70q59 0 94.5 36.5t35.5 98.5v320q0 62 -35.5 98.5t-94.5 36.5
t-94.5 -36.5t-35.5 -98.5v-320q0 -62 35.5 -98.5t94.5 -36.5z" />
    <glyph glyph-name="R" unicode="R" 
d="M92 0v730h226q64 0 113.5 -26.5t76.5 -74t27 -109.5q0 -74 -38.5 -127t-104.5 -73l153 -320h-106l-140 310h-117v-310h-90zM318 391q56 0 90 35t34 94q0 58 -34 93.5t-90 35.5h-136v-258h136z" />
    <glyph glyph-name="S" unicode="S" 
d="M304 -10q-70 0 -122.5 25t-81 70.5t-28.5 106.5h90q0 -55 39 -88.5t103 -33.5q62 0 99 33.5t37 88.5q0 43 -22.5 75.5t-61.5 44.5l-108 34q-73 23 -114.5 75.5t-41.5 123.5q0 59 26.5 103t75 68t112.5 24q97 0 155 -53t58 -142h-90q0 53 -33.5 84t-89.5 31
q-57 0 -91.5 -31t-34.5 -82q0 -40 22.5 -69t63.5 -42l112 -36q69 -23 109.5 -78.5t40.5 -129.5q0 -61 -27.5 -106.5t-78.5 -70.5t-118 -25z" />
    <glyph glyph-name="T" unicode="T" 
d="M255 0v648h-200v82h490v-82h-200v-648h-90z" />
    <glyph glyph-name="U" unicode="U" 
d="M300 -10q-101 0 -155.5 55.5t-54.5 154.5v530h90v-530q0 -61 30.5 -95.5t89.5 -34.5t89.5 34.5t30.5 95.5v530h90v-530q0 -99 -54 -154.5t-156 -55.5z" />
    <glyph glyph-name="V" unicode="V" 
d="M238 0l-188 730h92l125 -497q21 -86 34 -163q9 55 36 164l120 496h93l-189 -730h-123z" />
    <glyph glyph-name="W" unicode="W" 
d="M109 0l-84 730h86l55 -540q4 -40 5 -65q1 -17 2 -32.5t2 -27.5q1 7 1.5 15.5t1.5 17.5q2 22 4.5 45.5t5.5 46.5l68 540h93l62 -540l14 -125q1 14 3 38q3 40 8 87l57 540h82l-86 -730h-113l-62 550q-9 81 -12 117q-1 -5 -1.5 -10t-0.5 -11q-2 -21 -5 -45.5t-6 -50.5
l-67 -550h-113z" />
    <glyph glyph-name="X" unicode="X" 
d="M40 0l210 370l-199 360h104l113 -216q12 -22 19 -36q4 -9 8 -16.5t7 -14.5l11 23q5 11 11 22t11 22l115 216h99l-199 -354l210 -376h-103l-125 232l-17 34l-16 34l-16 -34q-4 -8 -8 -16.5t-9 -16.5l-126 -233h-100z" />
    <glyph glyph-name="Y" unicode="Y" 
d="M255 0v273l-220 457h93l145 -300q11 -22 18 -40t10 -28q2 8 7 18q10 26 22 50l142 300h93l-220 -457v-273h-90z" />
    <glyph glyph-name="Z" unicode="Z" 
d="M85 0v90l329 558h-324v82h415v-90l-329 -558h339v-82h-430z" />
    <glyph glyph-name="bracketleft" unicode="[" horiz-adv-x="400" 
d="M110 -110v940h245v-80h-155v-780h155v-80h-245z" />
    <glyph glyph-name="backslash" unicode="\" 
d="M430 -110l-355 940h95l355 -940h-95z" />
    <glyph glyph-name="bracketright" unicode="]" horiz-adv-x="400" 
d="M45 -110v80h155v780h-155v80h245v-940h-245z" />
    <glyph glyph-name="asciicircum" unicode="^" 
d="M80 340l179 390h84l177 -390h-81l-112 258q-15 35 -24 67q-13 -38 -27 -67l-115 -258h-81z" />
    <glyph glyph-name="underscore" unicode="_" 
d="M60 -100v75h480v-75h-480z" />
    <glyph glyph-name="grave" unicode="`" 
d="M277 645l-115 140h100l110 -140h-95z" />
    <glyph glyph-name="a" unicode="a" 
d="M252 -10q-87 0 -137 44t-50 121q0 76 50 120.5t135 44.5h170v55q0 50 -30.5 78t-84.5 28q-48 0 -81 -21t-41 -55h-90q7 69 66.5 112t145.5 43q95 0 150 -49t55 -133v-378h-88v105h-15l15 15q0 -60 -46 -95t-124 -35zM274 61q64 0 105 32t41 82v78h-168q-45 0 -71 -25
t-26 -68q0 -47 31.5 -73t87.5 -26z" />
    <glyph glyph-name="b" unicode="b" 
d="M332 -10q-69 0 -109.5 36.5t-40.5 99.5l18 -21h-18v-105h-90v730h90v-160l-2 -125h20l-18 -21q0 62 41 99t109 37q84 0 133.5 -55t49.5 -150v-161q0 -94 -50 -149t-133 -55zM302 68q58 0 90.5 34.5t32.5 97.5v150q0 63 -32.5 97.5t-90.5 34.5q-56 0 -88 -35t-32 -97v-150
q0 -62 32 -97t88 -35z" />
    <glyph glyph-name="c" unicode="c" 
d="M304 -10q-66 0 -115.5 25t-76.5 72.5t-27 112.5v150q0 65 27 112.5t76.5 72.5t115.5 25q95 0 153 -51t61 -139h-90q-3 52 -35.5 81t-88.5 29q-60 0 -94.5 -34t-34.5 -95v-151q0 -62 34.5 -96t94.5 -34q56 0 88.5 29t35.5 81h90q-3 -88 -61 -139t-153 -51z" />
    <glyph glyph-name="d" unicode="d" 
d="M268 -10q-55 0 -96.5 25t-64 71t-22.5 108v161q0 63 22.5 109t64 71t96.5 25q68 0 109 -37t41 -99l-18 21h20l-2 125v160h90v-730h-90v105h-18l18 21q0 -63 -40.5 -99.5t-109.5 -36.5zM298 68q56 0 88 35t32 97v150q0 62 -32 97t-88 35q-58 0 -90.5 -34.5t-32.5 -97.5
v-150q0 -63 32.5 -97.5t90.5 -34.5z" />
    <glyph glyph-name="e" unicode="e" 
d="M300 -10q-64 0 -113 26t-75.5 73.5t-26.5 110.5v150q0 63 26.5 110.5t75.5 73.5t113 26t113 -26t75.5 -73.5t26.5 -110.5v-97h-342v-53q0 -65 32.5 -99.5t94.5 -34.5q52 0 84 19t39 55h90q-9 -69 -67.5 -109.5t-145.5 -40.5zM427 350q0 65 -33 100t-94 35t-94 -35
t-33 -100v-29h261l-7 -8v37z" />
    <glyph glyph-name="f" unicode="f" horiz-adv-x="500" 
d="M166 0v413h-120v82h120v95q0 65 41 102.5t113 37.5h131v-82h-131q-31 0 -47.5 -15t-16.5 -43v-95h195v-82h-195v-413h-90z" />
    <glyph glyph-name="g" unicode="g" 
d="M161 -180v82h175q42 0 61.5 19t19.5 59v70l2 100h-18l17 15q0 -60 -40 -95t-107 -35q-85 0 -134 55t-49 150v116q0 94 49 149t134 55q67 0 107 -35t40 -95l-17 15h17v105h89v-570q0 -75 -45.5 -117.5t-126.5 -42.5h-174zM298 113q56 0 88 35t32 97v105q0 62 -32 97
t-88 35q-57 0 -88.5 -34.5t-31.5 -97.5v-105q0 -63 31.5 -97.5t88.5 -34.5z" />
    <glyph glyph-name="h" unicode="h" 
d="M92 0v730h90v-180v-105h19l-19 -21q0 64 39 100t108 36q83 0 132 -51.5t49 -138.5v-370h-90v360q0 58 -31.5 91t-85.5 33q-57 0 -89 -35.5t-32 -98.5v-350h-90z" />
    <glyph glyph-name="i" unicode="i" horiz-adv-x="500" 
d="M85 0v82h145v386h-125v82h215v-468h135v-82h-370zM265 649q-33 0 -52 17t-19 46q0 30 19 47.5t52 17.5t52 -17.5t19 -47.5q0 -29 -19 -46t-52 -17z" />
    <glyph glyph-name="j" unicode="j" horiz-adv-x="400" 
d="M23 -180v83h64q62 0 96.5 33.5t34.5 94.5v437h-165v82h255v-519q0 -97 -60 -154t-161 -57h-64zM241 649q-33 0 -52 17t-19 46q0 30 19 47.5t52 17.5t52 -17.5t19 -47.5q0 -29 -19 -46t-52 -17z" />
    <glyph glyph-name="k" unicode="k" 
d="M95 0v730h90v-407h106l160 227h103l-185 -262l188 -288h-105l-160 245h-107v-245h-90z" />
    <glyph glyph-name="l" unicode="l" horiz-adv-x="400" 
d="M287 0q-73 0 -116.5 42.5t-43.5 112.5v493h-115v82h205v-575q0 -34 19 -53.5t51 -19.5h85v-82h-85z" />
    <glyph glyph-name="m" unicode="m" horiz-adv-x="800" 
d="M93 0v550h85v-66h18l-15 -24q0 44 36 72t92 28q61 0 96 -35.5t38 -94.5l-28 54h43l-24 -24q0 44 37.5 72t93.5 28q68 0 106 -39t38 -103v-418h-90v419q0 34 -23 53t-63 19t-65 -19t-25 -52v-420h-84v419q0 34 -24 53t-64 19q-39 0 -63.5 -19t-24.5 -52v-420h-90z" />
    <glyph glyph-name="n" unicode="n" 
d="M92 0v550h90v-105h19l-19 -21q0 64 39 100t108 36q83 0 132 -51.5t49 -138.5v-370h-90v360q0 58 -31 90t-86 32q-57 0 -89 -34.5t-32 -97.5v-350h-90z" />
    <glyph glyph-name="o" unicode="o" 
d="M300 -8q-66 0 -114.5 25.5t-74.5 72.5t-26 112v146q0 65 26 112t74.5 72.5t114.5 25.5t114.5 -25.5t74.5 -72.5t26 -111v-147q0 -65 -26 -112t-74.5 -72.5t-114.5 -25.5zM300 72q59 0 92 33.5t33 96.5v146q0 63 -33 96.5t-92 33.5t-92 -33.5t-33 -96.5v-146
q0 -63 33 -96.5t92 -33.5z" />
    <glyph glyph-name="p" unicode="p" 
d="M93 -180v730h90v-105h18l-18 -21q0 63 41 99.5t110 36.5q55 0 96 -25t63.5 -71t22.5 -108v-161q0 -63 -22.5 -109t-63.5 -71t-96 -25q-68 0 -109.5 37t-41.5 99l18 -21h-20l2 -125v-160h-90zM304 68q57 0 89.5 34.5t32.5 97.5v150q0 63 -32.5 97.5t-89.5 34.5
q-56 0 -88.5 -35t-32.5 -97v-150q0 -62 32.5 -97t88.5 -35z" />
    <glyph glyph-name="q" unicode="q" 
d="M418 -180v160l2 125h-20l18 21q0 -62 -41 -99t-109 -37q-55 0 -95.5 25t-62.5 71t-22 109v161q0 62 22 108.5t62.5 71t95.5 24.5q69 0 109.5 -36.5t40.5 -99.5l-18 21h18v105h90v-730h-90zM298 68q56 0 88 35t32 97v150q0 62 -32 97t-88 35q-57 0 -88.5 -34.5
t-31.5 -97.5v-150q0 -63 31.5 -97.5t88.5 -34.5z" />
    <glyph glyph-name="r" unicode="r" 
d="M109 0v550h90v-105h19l-19 -21q0 64 39 100t108 36q86 0 137 -54.5t51 -147.5v-38h-90v30q0 63 -32.5 97.5t-92.5 34.5q-59 0 -89.5 -33.5t-30.5 -98.5v-350h-90z" />
    <glyph glyph-name="s" unicode="s" 
d="M283 -8q-56 0 -100 17.5t-68.5 50.5t-24.5 78h92q0 -31 29 -48.5t74 -17.5h42q52 0 78.5 21t26.5 58q0 35 -24 55t-71 28l-74 12q-82 14 -121 52t-39 105q0 75 48.5 115t139.5 40h38q84 0 134.5 -37.5t50.5 -99.5h-92q0 26 -25.5 41.5t-69.5 15.5h-38q-47 0 -72.5 -19.5
t-25.5 -55.5q0 -31 21 -49t64 -25l74 -12q89 -14 129.5 -52t40.5 -110q0 -78 -49.5 -120.5t-145.5 -42.5h-42z" />
    <glyph glyph-name="t" unicode="t" horiz-adv-x="500" 
d="M306 0q-68 0 -109 39.5t-41 105.5v323h-125v82h125v155h90v-155h180v-82h-180v-323q0 -28 16.5 -45.5t43.5 -17.5h110v-82h-110z" />
    <glyph glyph-name="u" unicode="u" 
d="M299 -10q-95 0 -152 57t-57 153v350h90v-350q0 -62 31.5 -96.5t87.5 -34.5q57 0 89 34.5t32 96.5v350h90v-350q0 -96 -57.5 -153t-153.5 -57z" />
    <glyph glyph-name="v" unicode="v" 
d="M241 0l-201 550h93l138 -370q11 -30 26 -89q1 -6 2.5 -11.5t2.5 -10.5l6 24q10 47 24 87l134 370h94l-201 -550h-118z" />
    <glyph glyph-name="w" unicode="w" 
d="M123 0l-88 550h78l55 -390q4 -30 8 -67l2 -23h4q1 5 1 10.5t1 11.5q9 62 10 68l61 390h90l61 -390q8 -58 9 -65t1.5 -13.5t1.5 -11.5h4l5 36q2 14 3.5 27.5t3.5 26.5l57 390h74l-92 -550h-99l-59 380q-2 8 -3 17t-2 17q-8 53 -9 66h-4l-3 -26q-2 -17 -4.5 -36t-5.5 -38
l-62 -380h-99z" />
    <glyph glyph-name="x" unicode="x" 
d="M50 0l195 283l-183 267h106l109 -170q15 -24 24 -45q1 3 2.5 7t3.5 8q9 18 17 30l110 170h105l-183 -268l194 -282h-106l-118 180q-5 9 -10 18.5t-9 18.5l-6 12l-11 -21q-4 -8 -8 -15t-8 -13l-119 -180h-105z" />
    <glyph glyph-name="y" unicode="y" 
d="M179 -180l81 214l-210 516h98l134 -340q4 -10 12 -34q3 -11 12 -46q5 23 14 49l6 16t5 15l125 340h94l-277 -730h-94z" />
    <glyph glyph-name="z" unicode="z" 
d="M90 0v90l308 378h-300v82h401v-90l-314 -378h325v-82h-420z" />
    <glyph glyph-name="braceleft" unicode="{" 
d="M460 -110q-59 0 -102.5 20t-65.5 57t-17 89l15 164q5 55 -16 77.5t-84 22.5h-115v80h115q43 0 65.5 10t30 31.5t4.5 58.5l-15 164q-5 52 17 89t65.5 57t102.5 20h45v-80h-45q-48 0 -73.5 -22t-21.5 -64l15 -164q6 -64 -29.5 -101t-100.5 -37v5q63 0 99.5 -41.5
t30.5 -105.5l-15 -164q-4 -42 21.5 -64t73.5 -22h45v-80h-45z" />
    <glyph glyph-name="bar" unicode="|" 
d="M255 -110v940h90v-940h-90z" />
    <glyph glyph-name="braceright" unicode="}" 
d="M95 -110v80h45q48 0 73.5 22t21.5 64l-15 164q-6 65 30.5 106.5t99.5 41.5v-5q-65 0 -100.5 36.5t-29.5 100.5l15 164q4 42 -21.5 64t-73.5 22h-45v80h45q59 0 102.5 -20t65.5 -57t17 -89l-15 -164q-3 -37 4.5 -58.5t30 -31.5t65.5 -10h115v-80h-115q-63 0 -84 -22.5
t-16 -77.5l15 -164q5 -52 -17 -89t-65.5 -57t-102.5 -20h-45z" />
    <glyph glyph-name="asciitilde" unicode="~" 
d="M70 325q0 59 36 94.5t94 35.5q33 0 57.5 -11.5t40 -27.5t33.5 -41q21 -27 34.5 -38.5t32.5 -11.5q23 0 35 14t12 41v70h85v-70q0 -58 -36 -94t-94 -36q-33 0 -57.5 11.5t-40 27.5t-33.5 41q-21 27 -34.5 38.5t-32.5 11.5q-23 0 -35 -14t-12 -41v-70h-85v70z" />
    <glyph glyph-name="uni2421" unicode="&#x2421;" 
d="M26.3613 245v240.912h62.373q23.1016 0 40.2627 -8.91016t26.5664 -25.2461t9.40527 -38.1172v-96.0352q0 -21.7812 -9.40527 -38.2812q-9.40527 -16.501 -26.5664 -25.4121q-17.1611 -8.91016 -40.2627 -8.91016h-62.373zM88.7344 271.401q21.7812 0 34.1572 12.2109
q12.376 12.21 12.376 33.9912v96.0352q0 21.4512 -12.376 33.6621q-12.376 12.21 -34.1572 12.21h-32.6709v-188.109h32.6709zM228.002 245v240.912h138.607v-27.0605h-109.236v-74.584h97.6855v-26.4014h-97.6855v-85.8047h109.236v-27.0615h-138.607zM448.902 245v240.912
h29.7012v-213.851h108.906v-27.0615h-138.607z" />
    <glyph glyph-name="uni2421" 
d="M26.3613 245v240.912h62.373q23.1016 0 40.2627 -8.91016t26.5664 -25.2461t9.40527 -38.1172v-96.0352q0 -21.7812 -9.40527 -38.2812q-9.40527 -16.501 -26.5664 -25.4121q-17.1611 -8.91016 -40.2627 -8.91016h-62.373zM88.7344 271.401q21.7812 0 34.1572 12.2109
q12.376 12.21 12.376 33.9912v96.0352q0 21.4512 -12.376 33.6621q-12.376 12.21 -34.1572 12.21h-32.6709v-188.109h32.6709zM228.002 245v240.912h138.607v-27.0605h-109.236v-74.584h97.6855v-26.4014h-97.6855v-85.8047h109.236v-27.0615h-138.607zM448.902 245v240.912
h29.7012v-213.851h108.906v-27.0615h-138.607z" />
    <glyph glyph-name="uni00A0" unicode="&#xa0;" horiz-adv-x="400" 
 />
    <glyph glyph-name="exclamdown" unicode="&#xa1;" horiz-adv-x="400" 
d="M147 -180v125l21 391h64l21 -391v-125h-106zM190 436q-29 0 -47 17t-18 44t18 43t47 16h20q29 0 47 -15.5t18 -42.5q0 -28 -18 -45t-47 -17h-20z" />
    <glyph glyph-name="cent" unicode="&#xa2;" 
d="M273 -140v830h60v-830h-60zM304 -10q-66 0 -115.5 25t-76.5 72.5t-27 112.5v150q0 65 27 112.5t76.5 72.5t115.5 25q95 0 153 -51t61 -139h-90q-3 52 -35.5 81t-88.5 29q-60 0 -94.5 -34t-34.5 -95v-151q0 -62 34.5 -96t94.5 -34q56 0 88.5 29t35.5 81h90
q-3 -88 -61 -139t-153 -51z" />
    <glyph glyph-name="sterling" unicode="&#xa3;" 
d="M75 100q42 33 75.5 76.5t33.5 77.5q0 49 -13 84t-38 77q-24 39 -35.5 69t-11.5 71q0 56 26 98t74.5 64.5t113.5 22.5q66 0 114 -22.5t74 -65.5t27 -102h-95q0 50 -33 80t-88 30q-58 0 -90 -28.5t-32 -81.5q0 -31 9.5 -53.5t31.5 -57.5q18 -27 29.5 -49.5t19.5 -54
t8 -72.5q0 -59 -34 -108.5t-76 -74.5h370v-80h-460v100zM75 305v80h360v-80h-360z" />
    <glyph glyph-name="currency" unicode="&#xa4;" 
d="M408 200q-46 -29 -107 -29q-62 0 -109 29l-85 -85l-62 62l83 84q-33 49 -33 112q0 64 34 113l-86 86l63 63l88 -88q48 28 107 28q63 0 111 -31l84 84l61 -61l-83 -83q31 -50 31 -111t-32 -112l85 -85l-63 -63zM301 240q37 0 66.5 17.5t46.5 48t17 67.5t-17 67.5t-47 48
t-66 17.5q-37 0 -67 -17.5t-47.5 -48t-17.5 -67.5t17.5 -67.5t47.5 -48t67 -17.5z" />
    <glyph glyph-name="yen" unicode="&#xa5;" 
d="M60 270v75h480v-75h-480zM60 120v75h480v-75h-480zM255 0v273l-220 457h93l145 -300q11 -22 18 -40t10 -28q2 8 7 18q10 26 22 50l142 300h93l-220 -457v-273h-90z" />
    <glyph glyph-name="brokenbar" unicode="&#xa6;" 
d="M255 450v380h90v-380h-90zM255 -110v380h90v-380h-90z" />
    <glyph glyph-name="section" unicode="&#xa7;" 
d="M285 -154q-82 0 -139.5 42.5t-68.5 111.5h95q9 -33 40 -53.5t73 -20.5h30q56 0 86.5 23t30.5 63q0 36 -25.5 59t-75.5 34l-92 19q-69 13 -111 57.5t-42 103.5q0 57 36.5 98t92.5 46v7q-30 -1 -58.5 14t-47.5 47t-19 82q0 74 53 117.5t146 43.5h30q79 0 133 -40t65 -105
h-95q-8 29 -36 47t-67 18h-30q-51 0 -79.5 -22t-28.5 -60q0 -32 25.5 -55.5t71.5 -33.5l90 -19q71 -15 112 -58t41 -104q0 -59 -37 -98.5t-96 -39.5v-7q32 -2 63 -18.5t51.5 -49t20.5 -80.5q0 -78 -55 -123.5t-153 -45.5h-30zM330 185q29 -6 51.5 8t35.5 42t13 64
q0 35 -22 61t-57 34l-74 15q-29 6 -51.5 -7.5t-35.5 -40.5t-13 -61q0 -38 21 -65.5t56 -34.5z" />
    <glyph glyph-name="dieresis" unicode="&#xa8;" 
d="M411 649q-29 0 -46.5 17t-17.5 46q0 30 17.5 47.5t46.5 17.5t46.5 -17.5t17.5 -47.5q0 -29 -17.5 -46t-46.5 -17zM189 649q-29 0 -46.5 17t-17.5 46q0 30 17.5 47.5t46.5 17.5t46.5 -17.5t17.5 -47.5q0 -29 -17.5 -46t-46.5 -17z" />
    <glyph glyph-name="copyright" unicode="&#xa9;" 
d="M300 110q-76 0 -133.5 30t-89.5 84.5t-32 125.5v150q0 71 32 125.5t89.5 84.5t133.5 30t133.5 -30t89.5 -84.5t32 -125.5v-150q0 -71 -32 -125.5t-89.5 -84.5t-133.5 -30zM300 160q59 0 104.5 23.5t70.5 67t25 99.5v150q0 56 -25 99.5t-70.5 67t-104.5 23.5t-104.5 -23.5
t-70.5 -67t-25 -99.5v-150q0 -56 25 -99.5t70.5 -67t104.5 -23.5zM305 245q-56 0 -90.5 31.5t-34.5 83.5v130q0 52 34.5 83.5t90.5 31.5t90 -31.5t34 -83.5h-65q0 27 -16.5 43.5t-42.5 16.5q-27 0 -43.5 -16.5t-16.5 -43.5v-130q0 -27 16.5 -43.5t43.5 -16.5q26 0 42.5 16.5
t16.5 43.5h65q0 -52 -34 -83.5t-90 -31.5z" />
    <glyph glyph-name="ordfeminine" unicode="&#xaa;" 
d="M373 455v55h-3v140q0 23 -17.5 36.5t-47.5 13.5q-26 0 -44 -11t-21 -29h-50q5 38 35 59t80 21q53 0 84 -24t31 -66v-195h-47zM274 450q-45 0 -72 23.5t-27 62.5t28 62t77 23h101v-40h-101q-26 0 -40.5 -12t-14.5 -33q0 -22 16.5 -35t45.5 -13q39 0 61 18t22 49h11v-45
h-11q-11 -28 -36.5 -44t-59.5 -16z" />
    <glyph glyph-name="guillemotleft" unicode="&#xab;" 
d="M465 40l-202 240l201 240h106l-206 -238l206 -242h-105zM232 40l-202 240l201 240h106l-206 -238l206 -242h-105z" />
    <glyph glyph-name="logicalnot" unicode="&#xac;" 
d="M445 205v130h-375v80h460v-210h-85z" />
    <glyph glyph-name="uni00AD" unicode="&#xad;" 
d="M140 290v80h320v-80h-320z" />
    <glyph glyph-name="registered" unicode="&#xae;" 
d="M300 110q-76 0 -133.5 30t-89.5 84.5t-32 125.5v150q0 71 32 125.5t89.5 84.5t133.5 30t133.5 -30t89.5 -84.5t32 -125.5v-150q0 -71 -32 -125.5t-89.5 -84.5t-133.5 -30zM100 350q0 -56 25 -99.5t70.5 -67t104.5 -23.5t104.5 23.5t70.5 67t25 99.5v150q0 56 -25 99.5
t-70.5 67t-104.5 23.5t-104.5 -23.5t-70.5 -67t-25 -99.5v-150zM190 250v350h114q54 0 85.5 -28.5t31.5 -76.5q0 -33 -15.5 -57.5t-44.5 -37.5l66 -150h-64l-59 140h-54v-140h-60zM304 440q26 0 41 14.5t15 40.5t-15 40.5t-41 14.5h-54v-110h54z" />
    <glyph glyph-name="macron" unicode="&#xaf;" 
d="M140 670v75h320v-75h-320z" />
    <glyph glyph-name="degree" unicode="&#xb0;" 
d="M300 450q-67 0 -108.5 40t-41.5 105t41.5 105t108.5 40q68 0 109 -40t41 -105t-41 -105t-109 -40zM299 501q41 0 66 26t25 68q0 43 -25 69t-66 26q-40 0 -64.5 -26t-24.5 -69q0 -42 24.5 -68t64.5 -26z" />
    <glyph glyph-name="plusminus" unicode="&#xb1;" 
d="M70 0v70h186v225h-191v80h191v195h88v-195h191v-80h-191v-225h186v-70h-460z" />
    <glyph glyph-name="uni00B2" unicode="&#xb2;" 
d="M166 405v87l162 121q22 16 34.5 38t12.5 45q0 37 -21 59t-56 22t-56 -22t-21 -59h-70q3 66 43 105t104 39q67 0 106.5 -38.5t39.5 -103.5q0 -35 -21 -71t-58 -63l-128 -95h218v-64h-289z" />
    <glyph glyph-name="uni00B3" unicode="&#xb3;" 
d="M284 395q-68 0 -108 37.5t-40 102.5h69q0 -35 21 -56t58 -21q35 0 55.5 21t20.5 56t-20 55.5t-55 20.5h-30v67l93 89h-183v64h240v-79l-117 -111v28q66 0 105 -36.5t39 -97.5q0 -65 -40 -102.5t-108 -37.5z" />
    <glyph glyph-name="acute" unicode="&#xb4;" 
d="M232 645l106 140h97l-111 -140h-92z" />
    <glyph glyph-name="uni00B5" unicode="&#xb5;" 
d="M93 -180v730h90v-350q0 -63 30 -97.5t85 -34.5q56 0 87.5 35t31.5 97v350h90v-550h-88v105h-20l18 21q0 -66 -28 -101t-92 -35t-89 34.5t-25 101.5l18 -21h-20l2 -125v-160h-90z" />
    <glyph glyph-name="paragraph" unicode="&#xb6;" 
d="M255 310q-86 0 -138 47t-52 123v80q0 77 52 123.5t138 46.5h80v-910h-80v490zM425 -180v910h80v-910h-80z" />
    <glyph glyph-name="periodcentered" unicode="&#xb7;" 
d="M200 260q-38 0 -60.5 22t-22.5 59q0 39 22.5 62t60.5 23t60.5 -23t22.5 -62q0 -37 -22.5 -59t-60.5 -22z" />
    <glyph glyph-name="cedilla" unicode="&#xb8;" 
d="M205 -203v55h70q21 0 35 11t14 25q0 18 -28.5 30.5t-76.5 12.5l35 95h57l-21 -61q46 -5 83 -27t37 -58q0 -35 -33.5 -59t-86.5 -24h-85z" />
    <glyph glyph-name="uni00B9" unicode="&#xb9;" 
d="M155 405v64h131v298l-122 -87v79l97 71h95v-361h104v-64h-305z" />
    <glyph glyph-name="ordmasculine" unicode="&#xba;" 
d="M300 445q-52 0 -83.5 29t-31.5 76v80q0 47 31.5 76t83.5 29t83.5 -29t31.5 -76v-80q0 -47 -31.5 -76t-83.5 -29zM300 485q29 0 47 18t18 47v80q0 29 -18 47t-47 18t-47 -18t-18 -47v-80q0 -29 18 -47t47 -18z" />
    <glyph glyph-name="guillemotright" unicode="&#xbb;" 
d="M264 40l202 241l-203 239h105l202 -240l-201 -240h-105zM31 40l202 241l-203 239h105l202 -240l-201 -240h-105z" />
    <glyph glyph-name="onequarter" unicode="&#xbc;" 
d="M30 405v50h118v236q-15 -22 -33 -38l-62 -54v70l70 61h85v-275h97v-50h-275zM480 0v70h-175v80l126 175h69l-135 -189v-16h115v89h60v-209h-60zM90 0l357 730h63l-357 -730h-63z" />
    <glyph glyph-name="onehalf" unicode="&#xbd;" 
d="M315 0v64l120 69q35 20 52.5 40.5t17.5 42.5q0 29 -18 46.5t-47 17.5t-47 -17.5t-18 -46.5h-60q2 52 36.5 83t88.5 31q56 0 90.5 -31t34.5 -81q0 -31 -22.5 -61t-63.5 -53l-93 -52v-10q14 3 35 5.5t40 2.5h109v-50h-255zM30 405v50h118v236q-15 -22 -33 -38l-62 -54v70
l70 61h85v-275h107v-50h-285zM90 0l357 730h63l-357 -730h-63z" />
    <glyph glyph-name="threequarters" unicode="&#xbe;" 
d="M480 0v70h-175v80l126 175h69l-135 -189v-16h115v89h60v-209h-60zM154 400q-58 0 -93 29t-35 76h60q0 -25 18.5 -40t49.5 -15q30 0 48.5 15t18.5 40t-18.5 40t-47.5 15h-30v57l81 63h-156v50h215v-55l-107 -83v18q55 0 89 -29t34 -76t-35 -76t-92 -29zM90 0l357 730h63
l-357 -730h-63z" />
    <glyph glyph-name="questiondown" unicode="&#xbf;" 
d="M340 -170q-70 0 -122 25.5t-80 73t-28 111.5q0 56 23.5 100.5t66.5 70.5t99 29v105h90v-180h-50q-65 0 -102 -33.5t-37 -91.5t37.5 -91.5t102.5 -33.5h125v-85h-125zM335 435q-29 0 -47 17t-18 44t18 43t47 16h20q29 0 47 -15.5t18 -42.5q0 -28 -18 -45t-47 -17h-20z" />
    <glyph glyph-name="Agrave" unicode="&#xc0;" 
d="M50 0l190 730h121l189 -730h-91l-48 194h-221l-48 -194h-92zM208 270h184l-56 225q-27 110 -36 163q-9 -54 -36 -162zM267 810l-115 140h100l110 -140h-95z" />
    <glyph glyph-name="Aacute" unicode="&#xc1;" 
d="M50 0l190 730h121l189 -730h-91l-48 194h-221l-48 -194h-92zM208 270h184l-56 225q-27 110 -36 163q-9 -54 -36 -162zM242 810l106 140h97l-111 -140h-92z" />
    <glyph glyph-name="Acircumflex" unicode="&#xc2;" 
d="M50 0l190 730h121l189 -730h-91l-48 194h-221l-48 -194h-92zM208 270h184l-56 225q-27 110 -36 163q-9 -54 -36 -162zM119 810l139 140h83l140 -140h-99l-82 78l-80 -78h-101z" />
    <glyph glyph-name="Atilde" unicode="&#xc3;" 
d="M50 0l190 730h121l189 -730h-91l-48 194h-221l-48 -194h-92zM208 270h184l-56 225q-27 110 -36 163q-9 -54 -36 -162zM370 815q-30 0 -49 11t-39 31q-14 14 -24 21t-23 7q-14 0 -22 -9t-8 -26v-30h-65v30q0 44 24.5 69.5t65.5 25.5q30 0 49 -11t39 -31q14 -14 24 -21
t23 -7q14 0 22 9t8 26v30h65v-30q0 -44 -24.5 -69.5t-65.5 -25.5z" />
    <glyph glyph-name="Adieresis" unicode="&#xc4;" 
d="M50 0l190 730h121l189 -730h-91l-48 194h-221l-48 -194h-92zM208 270h184l-56 225q-27 110 -36 163q-9 -54 -36 -162zM411 817q-29 0 -46.5 17t-17.5 46q0 30 17.5 47.5t46.5 17.5t46.5 -17.5t17.5 -47.5q0 -29 -17.5 -46t-46.5 -17zM189 817q-29 0 -46.5 17t-17.5 46
q0 30 17.5 47.5t46.5 17.5t46.5 -17.5t17.5 -47.5q0 -29 -17.5 -46t-46.5 -17z" />
    <glyph glyph-name="Aring" unicode="&#xc5;" 
d="M50 0l190 730h121l189 -730h-91l-48 194h-221l-48 -194h-92zM208 270h184l-56 225q-27 110 -36 163q-9 -54 -36 -162zM300 766q-54 0 -87 31.5t-33 82.5t33 82.5t87 31.5t87 -31.5t33 -82.5t-33 -82.5t-87 -31.5zM300 819q27 0 43.5 16.5t16.5 44.5t-16.5 45t-43.5 17
t-43.5 -17t-16.5 -45t16.5 -44.5t43.5 -16.5z" />
    <glyph glyph-name="AE" unicode="&#xc6;" 
d="M30 0l145 730h395v-82h-182v-228h157v-82h-157v-256h182v-82h-268v203h-141l-40 -203h-91zM175 278h127v370h-56z" />
    <glyph glyph-name="Ccedilla" unicode="&#xc7;" 
d="M210 -203v55h70q21 0 35 11t14 25q0 18 -28.5 30.5t-76.5 12.5l35 95h57l-21 -61q46 -5 83 -27t37 -58q0 -35 -33.5 -59t-86.5 -24h-85zM304 -10q-66 0 -115 25t-75 72.5t-26 112.5v330q0 65 26 112.5t75 72.5t115 25q65 0 113.5 -25.5t74.5 -73t26 -111.5h-90
q0 62 -32.5 95.5t-91.5 33.5q-60 0 -93 -33.5t-33 -94.5v-331q0 -62 33 -95.5t93 -33.5q59 0 91.5 33.5t32.5 95.5h90q0 -64 -26 -111.5t-74.5 -73t-113.5 -25.5z" />
    <glyph glyph-name="Egrave" unicode="&#xc8;" 
d="M100 0v730h420v-82h-331v-226h296v-80h-296v-260h331v-82h-420zM287 810l-115 140h100l110 -140h-95z" />
    <glyph glyph-name="Eacute" unicode="&#xc9;" 
d="M100 0v730h420v-82h-331v-226h296v-80h-296v-260h331v-82h-420zM262 810l106 140h97l-111 -140h-92z" />
    <glyph glyph-name="Ecircumflex" unicode="&#xca;" 
d="M100 0v730h420v-82h-331v-226h296v-80h-296v-260h331v-82h-420zM139 810l139 140h83l140 -140h-99l-82 78l-80 -78h-101z" />
    <glyph glyph-name="Edieresis" unicode="&#xcb;" 
d="M100 0v730h420v-82h-331v-226h296v-80h-296v-260h331v-82h-420zM431 817q-29 0 -46.5 17t-17.5 46q0 30 17.5 47.5t46.5 17.5t46.5 -17.5t17.5 -47.5q0 -29 -17.5 -46t-46.5 -17zM209 817q-29 0 -46.5 17t-17.5 46q0 30 17.5 47.5t46.5 17.5t46.5 -17.5t17.5 -47.5
q0 -29 -17.5 -46t-46.5 -17z" />
    <glyph glyph-name="Igrave" unicode="&#xcc;" 
d="M105 0v82h149v566h-149v82h390v-82h-149v-566h149v-82h-390zM267 810l-115 140h100l110 -140h-95z" />
    <glyph glyph-name="Iacute" unicode="&#xcd;" 
d="M105 0v82h149v566h-149v82h390v-82h-149v-566h149v-82h-390zM242 810l106 140h97l-111 -140h-92z" />
    <glyph glyph-name="Icircumflex" unicode="&#xce;" 
d="M105 0v82h149v566h-149v82h390v-82h-149v-566h149v-82h-390zM119 810l139 140h83l140 -140h-99l-82 78l-80 -78h-101z" />
    <glyph glyph-name="Idieresis" unicode="&#xcf;" 
d="M105 0v82h149v566h-149v82h390v-82h-149v-566h149v-82h-390zM411 817q-29 0 -46.5 17t-17.5 46q0 30 17.5 47.5t46.5 17.5t46.5 -17.5t17.5 -47.5q0 -29 -17.5 -46t-46.5 -17zM189 817q-29 0 -46.5 17t-17.5 46q0 30 17.5 47.5t46.5 17.5t46.5 -17.5t17.5 -47.5
q0 -29 -17.5 -46t-46.5 -17z" />
    <glyph glyph-name="Eth" unicode="&#xd0;" 
d="M10 335v75h280v-75h-280zM92 0v730h189q70 0 122 -27t80.5 -76.5t28.5 -115.5v-291q0 -66 -28.5 -116t-80.5 -77t-122 -27h-189zM281 80q66 0 103.5 37t37.5 103v291q0 65 -37.5 102t-103.5 37h-99v-570h99z" />
    <glyph glyph-name="Ntilde" unicode="&#xd1;" 
d="M90 0v730h120l223 -625q-4 44 -7 105t-3 110v410h87v-730h-120l-222 625q9 -110 9 -215v-410h-87zM370 815q-30 0 -49 11t-39 31q-14 14 -24 21t-23 7q-14 0 -22 -9t-8 -26v-30h-65v30q0 44 24.5 69.5t65.5 25.5q30 0 49 -11t39 -31q14 -14 24 -21t23 -7q14 0 22 9t8 26
v30h65v-30q0 -44 -24.5 -69.5t-65.5 -25.5z" />
    <glyph glyph-name="Ograve" unicode="&#xd2;" 
d="M300 -10q-65 0 -113 25t-73.5 72.5t-25.5 112.5v330q0 65 25.5 112.5t73.5 72.5t113 25t113 -25t73.5 -72.5t25.5 -111.5v-331q0 -65 -25.5 -112.5t-73.5 -72.5t-113 -25zM300 71q59 0 90.5 33.5t31.5 95.5v330q0 62 -31.5 95.5t-90.5 33.5t-90.5 -33.5t-31.5 -95.5v-330
q0 -62 31.5 -95.5t90.5 -33.5zM267 810l-115 140h100l110 -140h-95z" />
    <glyph glyph-name="Oacute" unicode="&#xd3;" 
d="M300 -10q-65 0 -113 25t-73.5 72.5t-25.5 112.5v330q0 65 25.5 112.5t73.5 72.5t113 25t113 -25t73.5 -72.5t25.5 -111.5v-331q0 -65 -25.5 -112.5t-73.5 -72.5t-113 -25zM300 71q59 0 90.5 33.5t31.5 95.5v330q0 62 -31.5 95.5t-90.5 33.5t-90.5 -33.5t-31.5 -95.5v-330
q0 -62 31.5 -95.5t90.5 -33.5zM242 810l106 140h97l-111 -140h-92z" />
    <glyph glyph-name="Ocircumflex" unicode="&#xd4;" 
d="M300 -10q-65 0 -113 25t-73.5 72.5t-25.5 112.5v330q0 65 25.5 112.5t73.5 72.5t113 25t113 -25t73.5 -72.5t25.5 -111.5v-331q0 -65 -25.5 -112.5t-73.5 -72.5t-113 -25zM300 71q59 0 90.5 33.5t31.5 95.5v330q0 62 -31.5 95.5t-90.5 33.5t-90.5 -33.5t-31.5 -95.5v-330
q0 -62 31.5 -95.5t90.5 -33.5zM119 810l139 140h83l140 -140h-99l-82 78l-80 -78h-101z" />
    <glyph glyph-name="Otilde" unicode="&#xd5;" 
d="M300 -10q-65 0 -113 25t-73.5 72.5t-25.5 112.5v330q0 65 25.5 112.5t73.5 72.5t113 25t113 -25t73.5 -72.5t25.5 -111.5v-331q0 -65 -25.5 -112.5t-73.5 -72.5t-113 -25zM300 71q59 0 90.5 33.5t31.5 95.5v330q0 62 -31.5 95.5t-90.5 33.5t-90.5 -33.5t-31.5 -95.5v-330
q0 -62 31.5 -95.5t90.5 -33.5zM370 815q-30 0 -49 11t-39 31q-14 14 -24 21t-23 7q-14 0 -22 -9t-8 -26v-30h-65v30q0 44 24.5 69.5t65.5 25.5q30 0 49 -11t39 -31q14 -14 24 -21t23 -7q14 0 22 9t8 26v30h65v-30q0 -44 -24.5 -69.5t-65.5 -25.5z" />
    <glyph glyph-name="Odieresis" unicode="&#xd6;" 
d="M300 -10q-65 0 -113 25t-73.5 72.5t-25.5 112.5v330q0 65 25.5 112.5t73.5 72.5t113 25t113 -25t73.5 -72.5t25.5 -111.5v-331q0 -65 -25.5 -112.5t-73.5 -72.5t-113 -25zM300 71q59 0 90.5 33.5t31.5 95.5v330q0 62 -31.5 95.5t-90.5 33.5t-90.5 -33.5t-31.5 -95.5v-330
q0 -62 31.5 -95.5t90.5 -33.5zM411 817q-29 0 -46.5 17t-17.5 46q0 30 17.5 47.5t46.5 17.5t46.5 -17.5t17.5 -47.5q0 -29 -17.5 -46t-46.5 -17zM189 817q-29 0 -46.5 17t-17.5 46q0 30 17.5 47.5t46.5 17.5t46.5 -17.5t17.5 -47.5q0 -29 -17.5 -46t-46.5 -17z" />
    <glyph glyph-name="multiply" unicode="&#xd7;" 
d="M156 136l-51 52l141 141l-141 142l51 51l142 -141l145 145l51 -52l-145 -145l142 -141l-52 -52l-141 142z" />
    <glyph glyph-name="Oslash" unicode="&#xd8;" 
d="M35 -40l446 790h84l-446 -790h-84zM300 -10q-65 0 -113 25t-73.5 72.5t-25.5 112.5v330q0 65 25.5 112.5t73.5 72.5t113 25t113 -25t73.5 -72.5t25.5 -111.5v-331q0 -65 -25.5 -112.5t-73.5 -72.5t-113 -25zM300 71q59 0 90.5 33.5t31.5 95.5v330q0 62 -31.5 95.5
t-90.5 33.5t-90.5 -33.5t-31.5 -95.5v-330q0 -62 31.5 -95.5t90.5 -33.5z" />
    <glyph glyph-name="Ugrave" unicode="&#xd9;" 
d="M300 -10q-101 0 -155.5 55.5t-54.5 154.5v530h90v-530q0 -61 30.5 -95.5t89.5 -34.5t89.5 34.5t30.5 95.5v530h90v-530q0 -99 -54 -154.5t-156 -55.5zM267 810l-115 140h100l110 -140h-95z" />
    <glyph glyph-name="Uacute" unicode="&#xda;" 
d="M300 -10q-101 0 -155.5 55.5t-54.5 154.5v530h90v-530q0 -61 30.5 -95.5t89.5 -34.5t89.5 34.5t30.5 95.5v530h90v-530q0 -99 -54 -154.5t-156 -55.5zM242 810l106 140h97l-111 -140h-92z" />
    <glyph glyph-name="Ucircumflex" unicode="&#xdb;" 
d="M300 -10q-101 0 -155.5 55.5t-54.5 154.5v530h90v-530q0 -61 30.5 -95.5t89.5 -34.5t89.5 34.5t30.5 95.5v530h90v-530q0 -99 -54 -154.5t-156 -55.5zM119 810l139 140h83l140 -140h-99l-82 78l-80 -78h-101z" />
    <glyph glyph-name="Udieresis" unicode="&#xdc;" 
d="M300 -10q-101 0 -155.5 55.5t-54.5 154.5v530h90v-530q0 -61 30.5 -95.5t89.5 -34.5t89.5 34.5t30.5 95.5v530h90v-530q0 -99 -54 -154.5t-156 -55.5zM411 817q-29 0 -46.5 17t-17.5 46q0 30 17.5 47.5t46.5 17.5t46.5 -17.5t17.5 -47.5q0 -29 -17.5 -46t-46.5 -17z
M189 817q-29 0 -46.5 17t-17.5 46q0 30 17.5 47.5t46.5 17.5t46.5 -17.5t17.5 -47.5q0 -29 -17.5 -46t-46.5 -17z" />
    <glyph glyph-name="Yacute" unicode="&#xdd;" 
d="M255 0v273l-220 457h93l145 -300q11 -22 18 -40t10 -28q2 8 7 18q10 26 22 50l142 300h93l-220 -457v-273h-90zM242 810l106 140h97l-111 -140h-92z" />
    <glyph glyph-name="Thorn" unicode="&#xde;" 
d="M90 0v730h90v-150h153q65 0 114 -25t76 -70.5t27 -104.5q0 -91 -59 -145.5t-158 -54.5h-153v-180h-90zM333 260q58 0 91 32t33 88q0 55 -33.5 87.5t-90.5 32.5h-153v-240h153z" />
    <glyph glyph-name="germandbls" unicode="&#xdf;" 
d="M92 534q0 61 26 108t74 72.5t111 25.5q64 0 112 -21.5t74.5 -63.5t26.5 -101q0 -50 -22 -89.5t-61.5 -61t-92.5 -20.5v15q57 1 100 -22t66.5 -66.5t23.5 -101.5q0 -61 -27 -108t-75.5 -73.5t-112.5 -26.5h-66v82h56q60 0 95 35.5t35 93.5t-34.5 91t-95.5 33h-44v78h42
q55 0 87 34.5t32 88.5q0 57 -32 89.5t-87 32.5q-56 0 -88.5 -33t-32.5 -91v-534h-90v534z" />
    <glyph glyph-name="agrave" unicode="&#xe0;" 
d="M252 -10q-87 0 -137 44t-50 121q0 76 50 120.5t135 44.5h170v55q0 50 -30.5 78t-84.5 28q-48 0 -81 -21t-41 -55h-90q7 69 66.5 112t145.5 43q95 0 150 -49t55 -133v-378h-88v105h-15l15 15q0 -60 -46 -95t-124 -35zM274 61q64 0 105 32t41 82v78h-168q-45 0 -71 -25
t-26 -68q0 -47 31.5 -73t87.5 -26zM272 645l-115 140h100l110 -140h-95z" />
    <glyph glyph-name="aacute" unicode="&#xe1;" 
d="M252 -10q-87 0 -137 44t-50 121q0 76 50 120.5t135 44.5h170v55q0 50 -30.5 78t-84.5 28q-48 0 -81 -21t-41 -55h-90q7 69 66.5 112t145.5 43q95 0 150 -49t55 -133v-378h-88v105h-15l15 15q0 -60 -46 -95t-124 -35zM274 61q64 0 105 32t41 82v78h-168q-45 0 -71 -25
t-26 -68q0 -47 31.5 -73t87.5 -26zM247 645l106 140h97l-111 -140h-92z" />
    <glyph glyph-name="acircumflex" unicode="&#xe2;" 
d="M252 -10q-87 0 -137 44t-50 121q0 76 50 120.5t135 44.5h170v55q0 50 -30.5 78t-84.5 28q-48 0 -81 -21t-41 -55h-90q7 69 66.5 112t145.5 43q95 0 150 -49t55 -133v-378h-88v105h-15l15 15q0 -60 -46 -95t-124 -35zM274 61q64 0 105 32t41 82v78h-168q-45 0 -71 -25
t-26 -68q0 -47 31.5 -73t87.5 -26zM124 645l139 140h83l140 -140h-99l-82 78l-80 -78h-101z" />
    <glyph glyph-name="atilde" unicode="&#xe3;" 
d="M252 -10q-87 0 -137 44t-50 121q0 76 50 120.5t135 44.5h170v55q0 50 -30.5 78t-84.5 28q-48 0 -81 -21t-41 -55h-90q7 69 66.5 112t145.5 43q95 0 150 -49t55 -133v-378h-88v105h-15l15 15q0 -60 -46 -95t-124 -35zM274 61q64 0 105 32t41 82v78h-168q-45 0 -71 -25
t-26 -68q0 -47 31.5 -73t87.5 -26zM375 650q-30 0 -49 11t-39 31q-14 14 -24 21t-23 7q-14 0 -22 -9t-8 -26v-30h-65v30q0 44 24.5 69.5t65.5 25.5q30 0 49 -11t39 -31q14 -14 24 -21t23 -7q14 0 22 9t8 26v30h65v-30q0 -44 -24.5 -69.5t-65.5 -25.5z" />
    <glyph glyph-name="adieresis" unicode="&#xe4;" 
d="M252 -10q-87 0 -137 44t-50 121q0 76 50 120.5t135 44.5h170v55q0 50 -30.5 78t-84.5 28q-48 0 -81 -21t-41 -55h-90q7 69 66.5 112t145.5 43q95 0 150 -49t55 -133v-378h-88v105h-15l15 15q0 -60 -46 -95t-124 -35zM274 61q64 0 105 32t41 82v78h-168q-45 0 -71 -25
t-26 -68q0 -47 31.5 -73t87.5 -26zM416 649q-29 0 -46.5 17t-17.5 46q0 30 17.5 47.5t46.5 17.5t46.5 -17.5t17.5 -47.5q0 -29 -17.5 -46t-46.5 -17zM194 649q-29 0 -46.5 17t-17.5 46q0 30 17.5 47.5t46.5 17.5t46.5 -17.5t17.5 -47.5q0 -29 -17.5 -46t-46.5 -17z" />
    <glyph glyph-name="aring" unicode="&#xe5;" 
d="M252 -10q-87 0 -137 44t-50 121q0 76 50 120.5t135 44.5h170v55q0 50 -30.5 78t-84.5 28q-48 0 -81 -21t-41 -55h-90q7 69 66.5 112t145.5 43q95 0 150 -49t55 -133v-378h-88v105h-15l15 15q0 -60 -46 -95t-124 -35zM274 61q64 0 105 32t41 82v78h-168q-45 0 -71 -25
t-26 -68q0 -47 31.5 -73t87.5 -26zM305 608q-54 0 -87 31.5t-33 82.5t33 82.5t87 31.5t87 -31.5t33 -82.5t-33 -82.5t-87 -31.5zM305 661q27 0 43.5 16.5t16.5 44.5t-16.5 45t-43.5 17t-43.5 -17t-16.5 -45t16.5 -44.5t43.5 -16.5z" />
    <glyph glyph-name="ae" unicode="&#xe6;" 
d="M170 -10q-62 0 -98.5 37.5t-36.5 102.5v60q0 62 41.5 98.5t111.5 36.5h74v74q0 43 -16 63.5t-51 20.5q-28 0 -45.5 -17t-17.5 -46h-85q0 63 36.5 101.5t96.5 38.5q53 0 84.5 -25t36.5 -55h4q5 30 34.5 55t80.5 25q67 0 106 -43t39 -117v-145h-222v-105q0 -37 18.5 -60
t48.5 -23q32 0 51 17t19 46h85q0 -63 -40 -101.5t-105 -38.5q-51 0 -81 25t-34 55h-4q-5 -30 -39 -55t-92 -25zM190 67q32 0 52 23t20 60v105h-72q-31 0 -48 -17.5t-17 -47.5v-60q0 -29 17.5 -46t47.5 -17zM343 325h137v75q0 38 -18.5 60.5t-51.5 22.5q-31 0 -49 -22.5
t-18 -60.5v-75z" />
    <glyph glyph-name="ccedilla" unicode="&#xe7;" 
d="M209 -203v55h70q21 0 35 11t14 25q0 18 -28.5 30.5t-76.5 12.5l35 95h57l-21 -61q46 -5 83 -27t37 -58q0 -35 -33.5 -59t-86.5 -24h-85zM304 -10q-66 0 -115.5 25t-76.5 72.5t-27 112.5v150q0 65 27 112.5t76.5 72.5t115.5 25q95 0 153 -51t61 -139h-90q-3 52 -35.5 81
t-88.5 29q-60 0 -94.5 -34t-34.5 -95v-151q0 -62 34.5 -96t94.5 -34q56 0 88.5 29t35.5 81h90q-3 -88 -61 -139t-153 -51z" />
    <glyph glyph-name="egrave" unicode="&#xe8;" 
d="M300 -10q-64 0 -113 26t-75.5 73.5t-26.5 110.5v150q0 63 26.5 110.5t75.5 73.5t113 26t113 -26t75.5 -73.5t26.5 -110.5v-97h-342v-53q0 -65 32.5 -99.5t94.5 -34.5q52 0 84 19t39 55h90q-9 -69 -67.5 -109.5t-145.5 -40.5zM427 350q0 65 -33 100t-94 35t-94 -35
t-33 -100v-29h261l-7 -8v37zM267 645l-115 140h100l110 -140h-95z" />
    <glyph glyph-name="eacute" unicode="&#xe9;" 
d="M300 -10q-64 0 -113 26t-75.5 73.5t-26.5 110.5v150q0 63 26.5 110.5t75.5 73.5t113 26t113 -26t75.5 -73.5t26.5 -110.5v-97h-342v-53q0 -65 32.5 -99.5t94.5 -34.5q52 0 84 19t39 55h90q-9 -69 -67.5 -109.5t-145.5 -40.5zM427 350q0 65 -33 100t-94 35t-94 -35
t-33 -100v-29h261l-7 -8v37zM242 645l106 140h97l-111 -140h-92z" />
    <glyph glyph-name="ecircumflex" unicode="&#xea;" 
d="M300 -10q-64 0 -113 26t-75.5 73.5t-26.5 110.5v150q0 63 26.5 110.5t75.5 73.5t113 26t113 -26t75.5 -73.5t26.5 -110.5v-97h-342v-53q0 -65 32.5 -99.5t94.5 -34.5q52 0 84 19t39 55h90q-9 -69 -67.5 -109.5t-145.5 -40.5zM427 350q0 65 -33 100t-94 35t-94 -35
t-33 -100v-29h261l-7 -8v37zM119 645l139 140h83l140 -140h-99l-82 78l-80 -78h-101z" />
    <glyph glyph-name="edieresis" unicode="&#xeb;" 
d="M300 -10q-64 0 -113 26t-75.5 73.5t-26.5 110.5v150q0 63 26.5 110.5t75.5 73.5t113 26t113 -26t75.5 -73.5t26.5 -110.5v-97h-342v-53q0 -65 32.5 -99.5t94.5 -34.5q52 0 84 19t39 55h90q-9 -69 -67.5 -109.5t-145.5 -40.5zM427 350q0 65 -33 100t-94 35t-94 -35
t-33 -100v-29h261l-7 -8v37zM411 649q-29 0 -46.5 17t-17.5 46q0 30 17.5 47.5t46.5 17.5t46.5 -17.5t17.5 -47.5q0 -29 -17.5 -46t-46.5 -17zM189 649q-29 0 -46.5 17t-17.5 46q0 30 17.5 47.5t46.5 17.5t46.5 -17.5t17.5 -47.5q0 -29 -17.5 -46t-46.5 -17z" />
    <glyph glyph-name="igrave" unicode="&#xec;" horiz-adv-x="500" 
d="M85 0v82h145v386h-125v82h215v-468h135v-82h-370zM232 645l-115 140h100l110 -140h-95z" />
    <glyph glyph-name="iacute" unicode="&#xed;" horiz-adv-x="500" 
d="M85 0v82h145v386h-125v82h215v-468h135v-82h-370zM207 645l106 140h97l-111 -140h-92z" />
    <glyph glyph-name="icircumflex" unicode="&#xee;" horiz-adv-x="500" 
d="M85 0v82h145v386h-125v82h215v-468h135v-82h-370zM84 645l139 140h83l140 -140h-99l-82 78l-80 -78h-101z" />
    <glyph glyph-name="idieresis" unicode="&#xef;" horiz-adv-x="500" 
d="M85 0v82h145v386h-125v82h215v-468h135v-82h-370zM376 649q-29 0 -46.5 17t-17.5 46q0 30 17.5 47.5t46.5 17.5t46.5 -17.5t17.5 -47.5q0 -29 -17.5 -46t-46.5 -17zM154 649q-29 0 -46.5 17t-17.5 46q0 30 17.5 47.5t46.5 17.5t46.5 -17.5t17.5 -47.5q0 -29 -17.5 -46
t-46.5 -17z" />
    <glyph glyph-name="eth" unicode="&#xf0;" 
d="M299 -10q-68 0 -120 28t-80.5 79t-28.5 118q0 66 26 116t74 77.5t111 27.5q40 0 70.5 -17.5t43.5 -38.5h14q-6 13 -22.5 40t-41.5 60l-65 91l-163 -76v80l120 56l-72 99h104l44 -64l148 69v-80l-106 -49l78 -113q45 -65 71 -136t26 -134q0 -69 -28.5 -122t-81 -82
t-121.5 -29zM299 70q64 0 102.5 40t38.5 105q0 43 -17.5 76t-49.5 51t-74 18q-62 0 -100.5 -40t-38.5 -105t38.5 -105t100.5 -40z" />
    <glyph glyph-name="ntilde" unicode="&#xf1;" 
d="M92 0v550h90v-105h19l-19 -21q0 64 39 100t108 36q83 0 132 -51.5t49 -138.5v-370h-90v360q0 58 -31 90t-86 32q-57 0 -89 -34.5t-32 -97.5v-350h-90zM375 650q-30 0 -49 11t-39 31q-14 14 -24 21t-23 7q-14 0 -22 -9t-8 -26v-30h-65v30q0 44 24.5 69.5t65.5 25.5
q30 0 49 -11t39 -31q14 -14 24 -21t23 -7q14 0 22 9t8 26v30h65v-30q0 -44 -24.5 -69.5t-65.5 -25.5z" />
    <glyph glyph-name="ograve" unicode="&#xf2;" 
d="M300 -8q-66 0 -114.5 25.5t-74.5 72.5t-26 112v146q0 65 26 112t74.5 72.5t114.5 25.5t114.5 -25.5t74.5 -72.5t26 -111v-147q0 -65 -26 -112t-74.5 -72.5t-114.5 -25.5zM300 72q59 0 92 33.5t33 96.5v146q0 63 -33 96.5t-92 33.5t-92 -33.5t-33 -96.5v-146
q0 -63 33 -96.5t92 -33.5zM267 645l-115 140h100l110 -140h-95z" />
    <glyph glyph-name="oacute" unicode="&#xf3;" 
d="M300 -8q-66 0 -114.5 25.5t-74.5 72.5t-26 112v146q0 65 26 112t74.5 72.5t114.5 25.5t114.5 -25.5t74.5 -72.5t26 -111v-147q0 -65 -26 -112t-74.5 -72.5t-114.5 -25.5zM300 72q59 0 92 33.5t33 96.5v146q0 63 -33 96.5t-92 33.5t-92 -33.5t-33 -96.5v-146
q0 -63 33 -96.5t92 -33.5zM242 645l106 140h97l-111 -140h-92z" />
    <glyph glyph-name="ocircumflex" unicode="&#xf4;" 
d="M300 -8q-66 0 -114.5 25.5t-74.5 72.5t-26 112v146q0 65 26 112t74.5 72.5t114.5 25.5t114.5 -25.5t74.5 -72.5t26 -111v-147q0 -65 -26 -112t-74.5 -72.5t-114.5 -25.5zM300 72q59 0 92 33.5t33 96.5v146q0 63 -33 96.5t-92 33.5t-92 -33.5t-33 -96.5v-146
q0 -63 33 -96.5t92 -33.5zM119 645l139 140h83l140 -140h-99l-82 78l-80 -78h-101z" />
    <glyph glyph-name="otilde" unicode="&#xf5;" 
d="M300 -8q-66 0 -114.5 25.5t-74.5 72.5t-26 112v146q0 65 26 112t74.5 72.5t114.5 25.5t114.5 -25.5t74.5 -72.5t26 -111v-147q0 -65 -26 -112t-74.5 -72.5t-114.5 -25.5zM300 72q59 0 92 33.5t33 96.5v146q0 63 -33 96.5t-92 33.5t-92 -33.5t-33 -96.5v-146
q0 -63 33 -96.5t92 -33.5zM370 650q-30 0 -49 11t-39 31q-14 14 -24 21t-23 7q-14 0 -22 -9t-8 -26v-30h-65v30q0 44 24.5 69.5t65.5 25.5q30 0 49 -11t39 -31q14 -14 24 -21t23 -7q14 0 22 9t8 26v30h65v-30q0 -44 -24.5 -69.5t-65.5 -25.5z" />
    <glyph glyph-name="odieresis" unicode="&#xf6;" 
d="M300 -8q-66 0 -114.5 25.5t-74.5 72.5t-26 112v146q0 65 26 112t74.5 72.5t114.5 25.5t114.5 -25.5t74.5 -72.5t26 -111v-147q0 -65 -26 -112t-74.5 -72.5t-114.5 -25.5zM300 72q59 0 92 33.5t33 96.5v146q0 63 -33 96.5t-92 33.5t-92 -33.5t-33 -96.5v-146
q0 -63 33 -96.5t92 -33.5zM411 649q-29 0 -46.5 17t-17.5 46q0 30 17.5 47.5t46.5 17.5t46.5 -17.5t17.5 -47.5q0 -29 -17.5 -46t-46.5 -17zM189 649q-29 0 -46.5 17t-17.5 46q0 30 17.5 47.5t46.5 17.5t46.5 -17.5t17.5 -47.5q0 -29 -17.5 -46t-46.5 -17z" />
    <glyph glyph-name="divide" unicode="&#xf7;" 
d="M100 295v75h400v-75h-400zM300 460q-37 0 -60 20.5t-23 54.5t23 54.5t60 20.5t60 -20.5t23 -54.5t-23 -54.5t-60 -20.5zM300 55q-37 0 -60 20.5t-23 54.5t23 54.5t60 20.5t60 -20.5t23 -54.5t-23 -54.5t-60 -20.5z" />
    <glyph glyph-name="oslash" unicode="&#xf8;" 
d="M35 -30l439 620h91l-440 -620h-90zM300 -10q-65 0 -113 25t-73.5 72.5t-25.5 112.5v150q0 65 25.5 112.5t73.5 72.5t113 25t113 -25t73.5 -72.5t25.5 -111.5v-151q0 -65 -25.5 -112.5t-73.5 -72.5t-113 -25zM300 70q60 0 93.5 34.5t33.5 95.5v150q0 61 -33.5 95.5
t-93.5 34.5t-93.5 -34.5t-33.5 -95.5v-150q0 -61 33.5 -95.5t93.5 -34.5z" />
    <glyph glyph-name="ugrave" unicode="&#xf9;" 
d="M299 -10q-95 0 -152 57t-57 153v350h90v-350q0 -62 31.5 -96.5t87.5 -34.5q57 0 89 34.5t32 96.5v350h90v-350q0 -96 -57.5 -153t-153.5 -57zM267 645l-115 140h100l110 -140h-95z" />
    <glyph glyph-name="uacute" unicode="&#xfa;" 
d="M299 -10q-95 0 -152 57t-57 153v350h90v-350q0 -62 31.5 -96.5t87.5 -34.5q57 0 89 34.5t32 96.5v350h90v-350q0 -96 -57.5 -153t-153.5 -57zM242 645l106 140h97l-111 -140h-92z" />
    <glyph glyph-name="ucircumflex" unicode="&#xfb;" 
d="M299 -10q-95 0 -152 57t-57 153v350h90v-350q0 -62 31.5 -96.5t87.5 -34.5q57 0 89 34.5t32 96.5v350h90v-350q0 -96 -57.5 -153t-153.5 -57zM119 645l139 140h83l140 -140h-99l-82 78l-80 -78h-101z" />
    <glyph glyph-name="udieresis" unicode="&#xfc;" 
d="M299 -10q-95 0 -152 57t-57 153v350h90v-350q0 -62 31.5 -96.5t87.5 -34.5q57 0 89 34.5t32 96.5v350h90v-350q0 -96 -57.5 -153t-153.5 -57zM411 649q-29 0 -46.5 17t-17.5 46q0 30 17.5 47.5t46.5 17.5t46.5 -17.5t17.5 -47.5q0 -29 -17.5 -46t-46.5 -17zM189 649
q-29 0 -46.5 17t-17.5 46q0 30 17.5 47.5t46.5 17.5t46.5 -17.5t17.5 -47.5q0 -29 -17.5 -46t-46.5 -17z" />
    <glyph glyph-name="yacute" unicode="&#xfd;" 
d="M179 -180l81 214l-210 516h98l134 -340q4 -10 12 -34q3 -11 12 -46q5 23 14 49l6 16t5 15l125 340h94l-277 -730h-94zM242 645l106 140h97l-111 -140h-92z" />
    <glyph glyph-name="thorn" unicode="&#xfe;" 
d="M87 -170v229h90v-229h-90zM327 -10q-69 0 -109.5 36.5t-40.5 99.5l18 -21h-18v-105h-90v730h90v-160l-2 -125h20l-18 -21q0 62 41 99t109 37q84 0 133.5 -55t49.5 -150v-161q0 -94 -50 -149t-133 -55zM297 68q58 0 90.5 34.5t32.5 97.5v150q0 63 -32.5 97.5t-90.5 34.5
q-56 0 -88 -35t-32 -97v-150q0 -62 32 -97t88 -35z" />
    <glyph glyph-name="ydieresis" unicode="&#xff;" 
d="M179 -180l81 214l-210 516h98l134 -340q4 -10 12 -34q3 -11 12 -46q5 23 14 49l6 16t5 15l125 340h94l-277 -730h-94zM411 649q-29 0 -46.5 17t-17.5 46q0 30 17.5 47.5t46.5 17.5t46.5 -17.5t17.5 -47.5q0 -29 -17.5 -46t-46.5 -17zM189 649q-29 0 -46.5 17t-17.5 46
q0 30 17.5 47.5t46.5 17.5t46.5 -17.5t17.5 -47.5q0 -29 -17.5 -46t-46.5 -17z" />
    <glyph glyph-name="Amacron" unicode="&#x100;" 
d="M50 0l190 730h121l189 -730h-91l-48 194h-221l-48 -194h-92zM208 270h184l-56 225q-27 110 -36 163q-9 -54 -36 -162zM140 840v75h320v-75h-320z" />
    <glyph glyph-name="amacron" unicode="&#x101;" 
d="M252 -10q-87 0 -137 44t-50 121q0 76 50 120.5t135 44.5h170v55q0 50 -30.5 78t-84.5 28q-48 0 -81 -21t-41 -55h-90q7 69 66.5 112t145.5 43q95 0 150 -49t55 -133v-378h-88v105h-15l15 15q0 -60 -46 -95t-124 -35zM274 61q64 0 105 32t41 82v78h-168q-45 0 -71 -25
t-26 -68q0 -47 31.5 -73t87.5 -26zM145 670v75h320v-75h-320z" />
    <glyph glyph-name="Abreve" unicode="&#x102;" 
d="M50 0l190 730h121l189 -730h-91l-48 194h-221l-48 -194h-92zM208 270h184l-56 225q-27 110 -36 163q-9 -54 -36 -162zM300 805q-72 0 -116 40t-44 105h71q0 -39 24 -63t64 -24t65 24t25 63h71q0 -65 -44 -105t-116 -40z" />
    <glyph glyph-name="abreve" unicode="&#x103;" 
d="M252 -10q-87 0 -137 44t-50 121q0 76 50 120.5t135 44.5h170v55q0 50 -30.5 78t-84.5 28q-48 0 -81 -21t-41 -55h-90q7 69 66.5 112t145.5 43q95 0 150 -49t55 -133v-378h-88v105h-15l15 15q0 -60 -46 -95t-124 -35zM274 61q64 0 105 32t41 82v78h-168q-45 0 -71 -25
t-26 -68q0 -47 31.5 -73t87.5 -26zM305 640q-72 0 -116 40t-44 105h71q0 -39 24 -63t64 -24t65 24t25 63h71q0 -65 -44 -105t-116 -40z" />
    <glyph glyph-name="Aogonek" unicode="&#x104;" 
d="M507 -203q-55 0 -88.5 26t-33.5 67q0 30 20 59t65 61h75l-11 -9q-33 -27 -48.5 -50t-15.5 -44q0 -22 15 -36t40 -14h60v-60h-78zM50 0l190 730h121l189 -730h-91l-48 194h-221l-48 -194h-92zM208 270h184l-56 225q-27 110 -36 163q-9 -54 -36 -162z" />
    <glyph glyph-name="aogonek" unicode="&#x105;" 
d="M483 -203q-55 0 -88.5 26t-33.5 67q0 30 20 59t65 61l64 -10q-34 -28 -49 -50t-15 -43q0 -22 15 -36t40 -14h60v-60h-78zM252 -10q-87 0 -137 44t-50 121q0 76 50 120.5t135 44.5h170v55q0 50 -30.5 78t-84.5 28q-48 0 -81 -21t-41 -55h-90q7 69 66.5 112t145.5 43
q95 0 150 -49t55 -133v-378h-88v105h-15l15 15q0 -60 -46 -95t-124 -35zM274 61q64 0 105 32t41 82v78h-168q-45 0 -71 -25t-26 -68q0 -47 31.5 -73t87.5 -26z" />
    <glyph glyph-name="Cacute" unicode="&#x106;" 
d="M304 -10q-66 0 -115 25t-75 72.5t-26 112.5v330q0 65 26 112.5t75 72.5t115 25q65 0 113.5 -25.5t74.5 -73t26 -111.5h-90q0 62 -32.5 95.5t-91.5 33.5q-60 0 -93 -33.5t-33 -94.5v-331q0 -62 33 -95.5t93 -33.5q59 0 91.5 33.5t32.5 95.5h90q0 -64 -26 -111.5t-74.5 -73
t-113.5 -25.5zM247 810l106 140h97l-111 -140h-92z" />
    <glyph glyph-name="cacute" unicode="&#x107;" 
d="M304 -10q-66 0 -115.5 25t-76.5 72.5t-27 112.5v150q0 65 27 112.5t76.5 72.5t115.5 25q95 0 153 -51t61 -139h-90q-3 52 -35.5 81t-88.5 29q-60 0 -94.5 -34t-34.5 -95v-151q0 -62 34.5 -96t94.5 -34q56 0 88.5 29t35.5 81h90q-3 -88 -61 -139t-153 -51zM246 645
l106 140h97l-111 -140h-92z" />
    <glyph glyph-name="Ccircumflex" unicode="&#x108;" 
d="M304 -10q-66 0 -115 25t-75 72.5t-26 112.5v330q0 65 26 112.5t75 72.5t115 25q65 0 113.5 -25.5t74.5 -73t26 -111.5h-90q0 62 -32.5 95.5t-91.5 33.5q-60 0 -93 -33.5t-33 -94.5v-331q0 -62 33 -95.5t93 -33.5q59 0 91.5 33.5t32.5 95.5h90q0 -64 -26 -111.5t-74.5 -73
t-113.5 -25.5zM124 810l139 140h83l140 -140h-99l-82 78l-80 -78h-101z" />
    <glyph glyph-name="ccircumflex" unicode="&#x109;" 
d="M304 -10q-66 0 -115.5 25t-76.5 72.5t-27 112.5v150q0 65 27 112.5t76.5 72.5t115.5 25q95 0 153 -51t61 -139h-90q-3 52 -35.5 81t-88.5 29q-60 0 -94.5 -34t-34.5 -95v-151q0 -62 34.5 -96t94.5 -34q56 0 88.5 29t35.5 81h90q-3 -88 -61 -139t-153 -51zM123 645
l139 140h83l140 -140h-99l-82 78l-80 -78h-101z" />
    <glyph glyph-name="Cdotaccent" unicode="&#x10a;" 
d="M304 -10q-66 0 -115 25t-75 72.5t-26 112.5v330q0 65 26 112.5t75 72.5t115 25q65 0 113.5 -25.5t74.5 -73t26 -111.5h-90q0 62 -32.5 95.5t-91.5 33.5q-60 0 -93 -33.5t-33 -94.5v-331q0 -62 33 -95.5t93 -33.5q59 0 91.5 33.5t32.5 95.5h90q0 -64 -26 -111.5t-74.5 -73
t-113.5 -25.5zM305 816q-33 0 -52 17.5t-19 46.5t19 46.5t52 17.5t52 -17.5t19 -46.5t-19 -46.5t-52 -17.5z" />
    <glyph glyph-name="cdotaccent" unicode="&#x10b;" 
d="M304 -10q-66 0 -115.5 25t-76.5 72.5t-27 112.5v150q0 65 27 112.5t76.5 72.5t115.5 25q95 0 153 -51t61 -139h-90q-3 52 -35.5 81t-88.5 29q-60 0 -94.5 -34t-34.5 -95v-151q0 -62 34.5 -96t94.5 -34q56 0 88.5 29t35.5 81h90q-3 -88 -61 -139t-153 -51zM304 649
q-33 0 -52 17t-19 46q0 30 19 47.5t52 17.5t52 -17.5t19 -47.5q0 -29 -19 -46t-52 -17z" />
    <glyph glyph-name="Ccaron" unicode="&#x10c;" 
d="M304 -10q-66 0 -115 25t-75 72.5t-26 112.5v330q0 65 26 112.5t75 72.5t115 25q65 0 113.5 -25.5t74.5 -73t26 -111.5h-90q0 62 -32.5 95.5t-91.5 33.5q-60 0 -93 -33.5t-33 -94.5v-331q0 -62 33 -95.5t93 -33.5q59 0 91.5 33.5t32.5 95.5h90q0 -64 -26 -111.5t-74.5 -73
t-113.5 -25.5zM264 810l-140 140h99l82 -78l80 78h101l-139 -140h-83z" />
    <glyph glyph-name="ccaron" unicode="&#x10d;" 
d="M304 -10q-66 0 -115.5 25t-76.5 72.5t-27 112.5v150q0 65 27 112.5t76.5 72.5t115.5 25q95 0 153 -51t61 -139h-90q-3 52 -35.5 81t-88.5 29q-60 0 -94.5 -34t-34.5 -95v-151q0 -62 34.5 -96t94.5 -34q56 0 88.5 29t35.5 81h90q-3 -88 -61 -139t-153 -51zM263 645
l-140 140h99l82 -78l80 78h101l-139 -140h-83z" />
    <glyph glyph-name="Dcaron" unicode="&#x10e;" 
d="M92 0v730h189q70 0 122 -27t80.5 -76.5t28.5 -115.5v-291q0 -66 -28.5 -116t-80.5 -77t-122 -27h-189zM281 80q66 0 103.5 37t37.5 103v291q0 65 -37.5 102t-103.5 37h-99v-570h99zM259 810l-140 140h99l82 -78l80 78h101l-139 -140h-83z" />
    <glyph glyph-name="dcaron" unicode="&#x10f;" 
d="M510 550v180h90l-10 -180h-80zM228 -10q-76 0 -120.5 54t-44.5 145v171q0 92 44.5 146t120.5 54q62 0 98.5 -37t36.5 -99l-18 21h20l-2 125v160h90v-730h-90v105h-18l18 21q0 -62 -36.5 -99t-98.5 -37zM258 68q50 0 77.5 33.5t27.5 93.5v160q0 60 -27.5 93.5t-77.5 33.5
t-77.5 -33.5t-27.5 -93.5v-160q0 -60 27.5 -93.5t77.5 -33.5z" />
    <glyph glyph-name="Dcroat" unicode="&#x110;" 
d="M10 335v75h280v-75h-280zM92 0v730h189q70 0 122 -27t80.5 -76.5t28.5 -115.5v-291q0 -66 -28.5 -116t-80.5 -77t-122 -27h-189zM281 80q66 0 103.5 37t37.5 103v291q0 65 -37.5 102t-103.5 37h-99v-570h99z" />
    <glyph glyph-name="dcroat" unicode="&#x111;" 
d="M268 -10q-82 0 -130 54.5t-48 149.5v101q0 95 47.5 150t130.5 55q68 0 108 -37t40 -99l-18 21h20l-2 125v220h90v-730h-90v105h-18l18 21q0 -63 -40 -99.5t-108 -36.5zM298 68q56 0 87 35t31 97v90q0 62 -31 97t-87 35q-57 0 -87.5 -34t-30.5 -98v-90q0 -64 30.5 -98
t87.5 -34zM250 570v75h350v-75h-350z" />
    <glyph glyph-name="Emacron" unicode="&#x112;" 
d="M100 0v730h420v-82h-331v-226h296v-80h-296v-260h331v-82h-420zM160 840v75h320v-75h-320z" />
    <glyph glyph-name="emacron" unicode="&#x113;" 
d="M300 -10q-64 0 -113 26t-75.5 73.5t-26.5 110.5v150q0 63 26.5 110.5t75.5 73.5t113 26t113 -26t75.5 -73.5t26.5 -110.5v-97h-342v-53q0 -65 32.5 -99.5t94.5 -34.5q52 0 84 19t39 55h90q-9 -69 -67.5 -109.5t-145.5 -40.5zM427 350q0 65 -33 100t-94 35t-94 -35
t-33 -100v-29h261l-7 -8v37zM140 670v75h320v-75h-320z" />
    <glyph glyph-name="Ebreve" unicode="&#x114;" 
d="M100 0v730h420v-82h-331v-226h296v-80h-296v-260h331v-82h-420zM320 805q-72 0 -116 40t-44 105h71q0 -39 24 -63t64 -24t65 24t25 63h71q0 -65 -44 -105t-116 -40z" />
    <glyph glyph-name="ebreve" unicode="&#x115;" 
d="M300 -10q-64 0 -113 26t-75.5 73.5t-26.5 110.5v150q0 63 26.5 110.5t75.5 73.5t113 26t113 -26t75.5 -73.5t26.5 -110.5v-97h-342v-53q0 -65 32.5 -99.5t94.5 -34.5q52 0 84 19t39 55h90q-9 -69 -67.5 -109.5t-145.5 -40.5zM427 350q0 65 -33 100t-94 35t-94 -35
t-33 -100v-29h261l-7 -8v37zM300 640q-72 0 -116 40t-44 105h71q0 -39 24 -63t64 -24t65 24t25 63h71q0 -65 -44 -105t-116 -40z" />
    <glyph glyph-name="Edotaccent" unicode="&#x116;" 
d="M100 0v730h420v-82h-331v-226h296v-80h-296v-260h331v-82h-420zM320 816q-33 0 -52 17.5t-19 46.5t19 46.5t52 17.5t52 -17.5t19 -46.5t-19 -46.5t-52 -17.5z" />
    <glyph glyph-name="edotaccent" unicode="&#x117;" 
d="M300 -10q-64 0 -113 26t-75.5 73.5t-26.5 110.5v150q0 63 26.5 110.5t75.5 73.5t113 26t113 -26t75.5 -73.5t26.5 -110.5v-97h-342v-53q0 -65 32.5 -99.5t94.5 -34.5q52 0 84 19t39 55h90q-9 -69 -67.5 -109.5t-145.5 -40.5zM427 350q0 65 -33 100t-94 35t-94 -35
t-33 -100v-29h261l-7 -8v37zM300 649q-33 0 -52 17t-19 46q0 30 19 47.5t52 17.5t52 -17.5t19 -47.5q0 -29 -19 -46t-52 -17z" />
    <glyph glyph-name="Eogonek" unicode="&#x118;" 
d="M447 -203q-55 0 -88.5 26t-33.5 67q0 30 20 59t65 61h75l-11 -9q-33 -27 -48.5 -50t-15.5 -44q0 -22 15 -36t40 -14h60v-60h-78zM100 0v730h420v-82h-331v-226h296v-80h-296v-260h331v-82h-420z" />
    <glyph glyph-name="eogonek" unicode="&#x119;" 
d="M373 -203q-55 0 -88.5 26t-33.5 67q0 47 59 100h-5h-5q-64 0 -112 26t-74 73.5t-26 110.5v150q0 63 26 110.5t74 73.5t112 26t112 -26t74 -73.5t26 -110.5v-97h-336v-53q0 -66 31.5 -100t92.5 -34q52 0 82.5 18.5t37.5 55.5h90q-5 -42 -29.5 -74.5t-64.5 -51.5l-16 -13
q-33 -27 -48.5 -50t-15.5 -44q0 -22 15 -36t40 -14h60v-60h-78zM424 350q0 66 -31.5 100.5t-92.5 34.5t-92.5 -34.5t-31.5 -100.5v-29h288l-40 -40v69z" />
    <glyph glyph-name="Ecaron" unicode="&#x11a;" 
d="M100 0v730h420v-82h-331v-226h296v-80h-296v-260h331v-82h-420zM279 810l-140 140h99l82 -78l80 78h101l-139 -140h-83z" />
    <glyph glyph-name="ecaron" unicode="&#x11b;" 
d="M300 -10q-64 0 -113 26t-75.5 73.5t-26.5 110.5v150q0 63 26.5 110.5t75.5 73.5t113 26t113 -26t75.5 -73.5t26.5 -110.5v-97h-342v-53q0 -65 32.5 -99.5t94.5 -34.5q52 0 84 19t39 55h90q-9 -69 -67.5 -109.5t-145.5 -40.5zM427 350q0 65 -33 100t-94 35t-94 -35
t-33 -100v-29h261l-7 -8v37zM259 645l-140 140h99l82 -78l80 78h101l-139 -140h-83z" />
    <glyph glyph-name="Gcircumflex" unicode="&#x11c;" 
d="M304 -10q-66 0 -115 25t-75 72.5t-26 112.5v330q0 65 26 112.5t75 72.5t115 25q65 0 113.5 -25.5t74.5 -73t26 -111.5h-90q0 62 -32.5 95.5t-91.5 33.5q-60 0 -93 -33.5t-33 -94.5v-331q0 -62 33 -96t93 -34q59 0 91.5 34t32.5 96v90h-148v82h238v-172q0 -64 -26 -111.5
t-74.5 -73t-113.5 -25.5zM119 810l139 140h83l140 -140h-99l-82 78l-80 -78h-101z" />
    <glyph glyph-name="gcircumflex" unicode="&#x11d;" 
d="M161 -180v82h175q42 0 61.5 19t19.5 59v70l2 100h-18l17 15q0 -60 -40 -95t-107 -35q-85 0 -134 55t-49 150v116q0 94 49 149t134 55q67 0 107 -35t40 -95l-17 15h17v105h89v-570q0 -75 -45.5 -117.5t-126.5 -42.5h-174zM298 113q56 0 88 35t32 97v105q0 62 -32 97
t-88 35q-57 0 -88.5 -34.5t-31.5 -97.5v-105q0 -63 31.5 -97.5t88.5 -34.5zM116 645l139 140h83l140 -140h-99l-82 78l-80 -78h-101z" />
    <glyph glyph-name="Gbreve" unicode="&#x11e;" 
d="M304 -10q-66 0 -115 25t-75 72.5t-26 112.5v330q0 65 26 112.5t75 72.5t115 25q65 0 113.5 -25.5t74.5 -73t26 -111.5h-90q0 62 -32.5 95.5t-91.5 33.5q-60 0 -93 -33.5t-33 -94.5v-331q0 -62 33 -96t93 -34q59 0 91.5 34t32.5 96v90h-148v82h238v-172q0 -64 -26 -111.5
t-74.5 -73t-113.5 -25.5zM300 805q-72 0 -116 40t-44 105h71q0 -39 24 -63t64 -24t65 24t25 63h71q0 -65 -44 -105t-116 -40z" />
    <glyph glyph-name="gbreve" unicode="&#x11f;" 
d="M161 -180v82h175q42 0 61.5 19t19.5 59v70l2 100h-18l17 15q0 -60 -40 -95t-107 -35q-85 0 -134 55t-49 150v116q0 94 49 149t134 55q67 0 107 -35t40 -95l-17 15h17v105h89v-570q0 -75 -45.5 -117.5t-126.5 -42.5h-174zM298 113q56 0 88 35t32 97v105q0 62 -32 97
t-88 35q-57 0 -88.5 -34.5t-31.5 -97.5v-105q0 -63 31.5 -97.5t88.5 -34.5zM297 640q-72 0 -116 40t-44 105h71q0 -39 24 -63t64 -24t65 24t25 63h71q0 -65 -44 -105t-116 -40z" />
    <glyph glyph-name="Gdotaccent" unicode="&#x120;" 
d="M304 -10q-66 0 -115 25t-75 72.5t-26 112.5v330q0 65 26 112.5t75 72.5t115 25q65 0 113.5 -25.5t74.5 -73t26 -111.5h-90q0 62 -32.5 95.5t-91.5 33.5q-60 0 -93 -33.5t-33 -94.5v-331q0 -62 33 -96t93 -34q59 0 91.5 34t32.5 96v90h-148v82h238v-172q0 -64 -26 -111.5
t-74.5 -73t-113.5 -25.5zM300 816q-33 0 -52 17.5t-19 46.5t19 46.5t52 17.5t52 -17.5t19 -46.5t-19 -46.5t-52 -17.5z" />
    <glyph glyph-name="gdotaccent" unicode="&#x121;" 
d="M161 -180v82h175q42 0 61.5 19t19.5 59v70l2 100h-18l17 15q0 -60 -40 -95t-107 -35q-85 0 -134 55t-49 150v116q0 94 49 149t134 55q67 0 107 -35t40 -95l-17 15h17v105h89v-570q0 -75 -45.5 -117.5t-126.5 -42.5h-174zM298 113q56 0 88 35t32 97v105q0 62 -32 97
t-88 35q-57 0 -88.5 -34.5t-31.5 -97.5v-105q0 -63 31.5 -97.5t88.5 -34.5zM297 649q-33 0 -52 17t-19 46q0 30 19 47.5t52 17.5t52 -17.5t19 -47.5q0 -29 -19 -46t-52 -17z" />
    <glyph glyph-name="uni0122" unicode="&#x122;" 
d="M304 -10q-66 0 -115 25t-75 72.5t-26 112.5v330q0 65 26 112.5t75 72.5t115 25q65 0 113.5 -25.5t74.5 -73t26 -111.5h-90q0 62 -32.5 95.5t-91.5 33.5q-60 0 -93 -33.5t-33 -94.5v-331q0 -62 33 -96t93 -34q59 0 91.5 34t32.5 96v90h-148v82h238v-172q0 -64 -26 -111.5
t-74.5 -73t-113.5 -25.5zM194 -240l95 145h105l-105 -145h-95z" />
    <glyph glyph-name="uni0123" unicode="&#x123;" 
d="M161 -180v82h175q42 0 61.5 19t19.5 59v70l2 100h-18l17 15q0 -60 -40 -95t-107 -35q-85 0 -134 55t-49 150v116q0 94 49 149t134 55q67 0 107 -35t40 -95l-17 15h17v105h89v-570q0 -75 -45.5 -117.5t-126.5 -42.5h-174zM298 113q56 0 88 35t32 97v105q0 62 -32 97
t-88 35q-57 0 -88.5 -34.5t-31.5 -97.5v-105q0 -63 31.5 -97.5t88.5 -34.5zM412 880l-80 -235h-125l130 235h75z" />
    <glyph glyph-name="Hcircumflex" unicode="&#x124;" 
d="M93 0v730h90v-312h234v312h90v-730h-90v336h-234v-336h-90zM119 810l139 140h83l140 -140h-99l-82 78l-80 -78h-101z" />
    <glyph glyph-name="hcircumflex" unicode="&#x125;" 
d="M92 0v730h90v-180v-105h19l-19 -21q0 64 39 100t108 36q83 0 132 -51.5t49 -138.5v-370h-90v360q0 58 -31.5 91t-85.5 33q-57 0 -89 -35.5t-32 -98.5v-350h-90zM-31 805l139 140h83l140 -140h-99l-82 78l-80 -78h-101z" />
    <glyph glyph-name="Hbar" unicode="&#x126;" 
d="M10 525v75h580v-75h-580zM93 0v730h90v-312h234v312h90v-730h-90v336h-234v-336h-90z" />
    <glyph glyph-name="hbar" unicode="&#x127;" 
d="M0 570v75h92v85h90v-85h168v-75h-168v-80v-105h1q7 55 45 85t101 30q83 0 132 -51.5t49 -138.5v-310h-90v300q0 58 -31.5 91t-85.5 33q-57 0 -89 -35.5t-32 -98.5v-290h-90v570h-92z" />
    <glyph glyph-name="Itilde" unicode="&#x128;" 
d="M105 0v82h149v566h-149v82h390v-82h-149v-566h149v-82h-390zM370 815q-30 0 -49 11t-39 31q-14 14 -24 21t-23 7q-14 0 -22 -9t-8 -26v-30h-65v30q0 44 24.5 69.5t65.5 25.5q30 0 49 -11t39 -31q14 -14 24 -21t23 -7q14 0 22 9t8 26v30h65v-30q0 -44 -24.5 -69.5
t-65.5 -25.5z" />
    <glyph glyph-name="itilde" unicode="&#x129;" 
d="M85 0v82h145v386h-125v82h215v-468h135v-82h-370zM335 650q-30 0 -49 11t-39 31q-14 14 -24 21t-23 7q-14 0 -22 -9t-8 -26v-30h-65v30q0 44 24.5 69.5t65.5 25.5q30 0 49 -11t39 -31q14 -14 24 -21t23 -7q14 0 22 9t8 26v30h65v-30q0 -44 -24.5 -69.5t-65.5 -25.5z" />
    <glyph glyph-name="Imacron" unicode="&#x12a;" 
d="M105 0v82h149v566h-149v82h390v-82h-149v-566h149v-82h-390zM140 840v75h320v-75h-320z" />
    <glyph glyph-name="imacron" unicode="&#x12b;" horiz-adv-x="500" 
d="M85 0v82h145v386h-125v82h215v-468h135v-82h-370zM105 670v75h320v-75h-320z" />
    <glyph glyph-name="Ibreve" unicode="&#x12c;" 
d="M105 0v82h149v566h-149v82h390v-82h-149v-566h149v-82h-390zM300 805q-72 0 -116 40t-44 105h71q0 -39 24 -63t64 -24t65 24t25 63h71q0 -65 -44 -105t-116 -40z" />
    <glyph glyph-name="ibreve" unicode="&#x12d;" 
d="M85 0v82h145v386h-125v82h215v-468h135v-82h-370zM265 640q-72 0 -116 40t-44 105h71q0 -39 24 -63t64 -24t65 24t25 63h71q0 -65 -44 -105t-116 -40z" />
    <glyph glyph-name="Iogonek" unicode="&#x12e;" 
d="M307 -203q-55 0 -88.5 26t-33.5 67q0 30 20 59t65 61h75l-11 -9q-33 -27 -48.5 -50t-15.5 -44q0 -22 15 -36t40 -14h60v-60h-78zM105 0v82h149v566h-149v82h390v-82h-149v-566h149v-82h-390z" />
    <glyph glyph-name="iogonek" unicode="&#x12f;" horiz-adv-x="500" 
d="M282 -203q-55 0 -88.5 26t-33.5 67q0 30 20 59t65 61h75l-11 -9q-33 -27 -48.5 -50t-15.5 -44q0 -22 15 -36t40 -14h60v-60h-78zM85 0v82h145v386h-125v82h215v-468h135v-82h-370zM265 649q-33 0 -52 17t-19 46q0 30 19 47.5t52 17.5t52 -17.5t19 -47.5q0 -29 -19 -46
t-52 -17z" />
    <glyph glyph-name="Idotaccent" unicode="&#x130;" 
d="M105 0v82h149v566h-149v82h390v-82h-149v-566h149v-82h-390zM300 816q-33 0 -52 17.5t-19 46.5t19 46.5t52 17.5t52 -17.5t19 -46.5t-19 -46.5t-52 -17.5z" />
    <glyph glyph-name="dotlessi" unicode="&#x131;" horiz-adv-x="500" 
d="M85 0v82h145v386h-125v82h215v-468h135v-82h-370z" />
    <glyph glyph-name="Jcircumflex" unicode="&#x134;" 
d="M270 -10q-105 0 -165 59t-60 161h90q0 -67 35.5 -103.5t99.5 -36.5t99.5 36.5t35.5 103.5v438h-205v82h295v-520q0 -102 -60.5 -161t-164.5 -59zM179 810l139 140h83l140 -140h-99l-82 78l-80 -78h-101z" />
    <glyph glyph-name="jcircumflex" unicode="&#x135;" horiz-adv-x="400" 
d="M23 -180v83h64q62 0 96.5 33.5t34.5 94.5v437h-165v82h255v-519q0 -97 -60 -154t-161 -57h-64zM10 645l139 140h83l140 -140h-99l-82 78l-80 -78h-101z" />
    <glyph glyph-name="uni0136" unicode="&#x136;" 
d="M92 0v730h90v-313h108l162 313h98l-181 -351l191 -379h-103l-170 338h-105v-338h-90zM190 -240l95 145h105l-105 -145h-95z" />
    <glyph glyph-name="uni0137" unicode="&#x137;" 
d="M95 0v730h90v-407h106l160 227h103l-185 -262l188 -288h-105l-160 245h-107v-245h-90zM190 -240l95 145h105l-105 -145h-95z" />
    <glyph glyph-name="kgreenlandic" unicode="&#x138;" 
d="M95 0v550h90v-227h106l160 227h103l-185 -262l188 -288h-105l-160 245h-107v-245h-90z" />
    <glyph glyph-name="Lacute" unicode="&#x139;" 
d="M130 0v730h90v-648h330v-82h-420zM117 810l106 140h97l-111 -140h-92z" />
    <glyph glyph-name="lacute" unicode="&#x13a;" horiz-adv-x="400" 
d="M287 0q-73 0 -116.5 42.5t-43.5 112.5v493h-115v82h205v-575q0 -34 19 -53.5t51 -19.5h85v-82h-85zM102 810l106 140h97l-111 -140h-92z" />
    <glyph glyph-name="uni013B" unicode="&#x13b;" 
d="M130 0v730h90v-648h330v-82h-420zM230 -240l95 145h105l-105 -145h-95z" />
    <glyph glyph-name="uni013C" unicode="&#x13c;" horiz-adv-x="400" 
d="M287 0q-73 0 -116.5 42.5t-43.5 112.5v493h-115v82h205v-575q0 -34 19 -53.5t51 -19.5h85v-82h-85zM110 -240l95 145h105l-105 -145h-95z" />
    <glyph glyph-name="Lcaron" unicode="&#x13d;" 
d="M130 0v730h90v-648h330v-82h-420zM600 730l10 180h85l-20 -180h-75z" />
    <glyph glyph-name="lcaron" unicode="&#x13e;" horiz-adv-x="400" 
d="M287 0q-73 0 -116.5 42.5t-43.5 112.5v493h-115v82h205v-575q0 -34 19 -53.5t51 -19.5h85v-82h-85zM277 730l10 180h85l-20 -180h-75z" />
    <glyph glyph-name="Ldot" unicode="&#x13f;" 
d="M130 0v730h90v-648h330v-82h-420zM345 265q-38 0 -60.5 22t-22.5 59q0 39 22.5 62t60.5 23t60.5 -23t22.5 -62q0 -37 -22.5 -59t-60.5 -22z" />
    <glyph glyph-name="ldot" unicode="&#x140;" 
d="M267 0q-73 0 -116.5 42.5t-43.5 112.5v493h-115v82h205v-575q0 -34 19 -53.5t51 -19.5h85v-82h-85zM447 265q-38 0 -60.5 22t-22.5 59q0 39 22.5 62t60.5 23t60.5 -23t22.5 -62q0 -37 -22.5 -59t-60.5 -22z" />
    <glyph glyph-name="Lslash" unicode="&#x141;" 
d="M20 230v80l370 250v-80zM130 0v730h90v-648h330v-82h-420z" />
    <glyph glyph-name="lslash" unicode="&#x142;" horiz-adv-x="400" 
d="M19 230v80l310 210v-80zM287 0q-73 0 -116.5 42.5t-43.5 112.5v493h-115v82h205v-575q0 -34 19 -53.5t51 -19.5h85v-82h-85z" />
    <glyph glyph-name="Nacute" unicode="&#x143;" 
d="M90 0v730h120l223 -625q-4 44 -7 105t-3 110v410h87v-730h-120l-222 625q9 -110 9 -215v-410h-87zM242 810l106 140h97l-111 -140h-92z" />
    <glyph glyph-name="nacute" unicode="&#x144;" 
d="M92 0v550h90v-105h19l-19 -21q0 64 39 100t108 36q83 0 132 -51.5t49 -138.5v-370h-90v360q0 58 -31 90t-86 32q-57 0 -89 -34.5t-32 -97.5v-350h-90zM247 645l106 140h97l-111 -140h-92z" />
    <glyph glyph-name="uni0145" unicode="&#x145;" 
d="M90 0v730h120l223 -625q-4 44 -7 105t-3 110v410h87v-730h-120l-222 625q9 -110 9 -215v-410h-87zM190 -240l95 145h105l-105 -145h-95z" />
    <glyph glyph-name="uni0146" unicode="&#x146;" 
d="M92 0v550h90v-105h19l-19 -21q0 64 39 100t108 36q83 0 132 -51.5t49 -138.5v-370h-90v360q0 58 -31 90t-86 32q-57 0 -89 -34.5t-32 -97.5v-350h-90zM190 -240l95 145h105l-105 -145h-95z" />
    <glyph glyph-name="Ncaron" unicode="&#x147;" 
d="M90 0v730h120l223 -625q-4 44 -7 105t-3 110v410h87v-730h-120l-222 625q9 -110 9 -215v-410h-87zM259 810l-140 140h99l82 -78l80 78h101l-139 -140h-83z" />
    <glyph glyph-name="ncaron" unicode="&#x148;" 
d="M92 0v550h90v-105h19l-19 -21q0 64 39 100t108 36q83 0 132 -51.5t49 -138.5v-370h-90v360q0 58 -31 90t-86 32q-57 0 -89 -34.5t-32 -97.5v-350h-90zM264 645l-140 140h99l82 -78l80 78h101l-139 -140h-83z" />
    <glyph glyph-name="napostrophe" unicode="&#x149;" 
d="M92 0v550h90v-105h19l-19 -21q0 64 39 100t108 36q83 0 132 -51.5t49 -138.5v-370h-90v360q0 58 -31 90t-86 32q-57 0 -89 -34.5t-32 -97.5v-350h-90zM-10 645l95 145h105l-105 -145h-95z" />
    <glyph glyph-name="Eng" unicode="&#x14a;" 
d="M240 -180v82h65q53 0 84 30.5t31 82.5l-252 610q9 -110 9 -215v-410h-87v730h120l223 -549q-4 45 -7 106t-3 110v333h87v-715q0 -58 -25.5 -102.5t-72 -68.5t-107.5 -24h-65z" />
    <glyph glyph-name="eng" unicode="&#x14b;" 
d="M240 -180v82h63q53 0 84 30.5t31 82.5v345q0 58 -30.5 91t-84.5 33q-56 0 -87.5 -35t-31.5 -99v-350h-90v550h90v-105h19l-19 -21q0 65 38 100.5t107 35.5q83 0 131 -51t48 -139v-355q0 -58 -25.5 -102.5t-72 -68.5t-107.5 -24h-63z" />
    <glyph glyph-name="Omacron" unicode="&#x14c;" 
d="M300 -10q-65 0 -113 25t-73.5 72.5t-25.5 112.5v330q0 65 25.5 112.5t73.5 72.5t113 25t113 -25t73.5 -72.5t25.5 -111.5v-331q0 -65 -25.5 -112.5t-73.5 -72.5t-113 -25zM300 71q59 0 90.5 33.5t31.5 95.5v330q0 62 -31.5 95.5t-90.5 33.5t-90.5 -33.5t-31.5 -95.5v-330
q0 -62 31.5 -95.5t90.5 -33.5zM140 840v75h320v-75h-320z" />
    <glyph glyph-name="omacron" unicode="&#x14d;" 
d="M300 -8q-66 0 -114.5 25.5t-74.5 72.5t-26 112v146q0 65 26 112t74.5 72.5t114.5 25.5t114.5 -25.5t74.5 -72.5t26 -111v-147q0 -65 -26 -112t-74.5 -72.5t-114.5 -25.5zM300 72q59 0 92 33.5t33 96.5v146q0 63 -33 96.5t-92 33.5t-92 -33.5t-33 -96.5v-146
q0 -63 33 -96.5t92 -33.5zM140 670v75h320v-75h-320z" />
    <glyph glyph-name="Obreve" unicode="&#x14e;" 
d="M300 -10q-65 0 -113 25t-73.5 72.5t-25.5 112.5v330q0 65 25.5 112.5t73.5 72.5t113 25t113 -25t73.5 -72.5t25.5 -111.5v-331q0 -65 -25.5 -112.5t-73.5 -72.5t-113 -25zM300 71q59 0 90.5 33.5t31.5 95.5v330q0 62 -31.5 95.5t-90.5 33.5t-90.5 -33.5t-31.5 -95.5v-330
q0 -62 31.5 -95.5t90.5 -33.5zM300 805q-72 0 -116 40t-44 105h71q0 -39 24 -63t64 -24t65 24t25 63h71q0 -65 -44 -105t-116 -40z" />
    <glyph glyph-name="obreve" unicode="&#x14f;" 
d="M300 -8q-66 0 -114.5 25.5t-74.5 72.5t-26 112v146q0 65 26 112t74.5 72.5t114.5 25.5t114.5 -25.5t74.5 -72.5t26 -111v-147q0 -65 -26 -112t-74.5 -72.5t-114.5 -25.5zM300 72q59 0 92 33.5t33 96.5v146q0 63 -33 96.5t-92 33.5t-92 -33.5t-33 -96.5v-146
q0 -63 33 -96.5t92 -33.5zM300 640q-72 0 -116 40t-44 105h71q0 -39 24 -63t64 -24t65 24t25 63h71q0 -65 -44 -105t-116 -40z" />
    <glyph glyph-name="Ohungarumlaut" unicode="&#x150;" 
d="M300 -10q-65 0 -113 25t-73.5 72.5t-25.5 112.5v330q0 65 25.5 112.5t73.5 72.5t113 25t113 -25t73.5 -72.5t25.5 -111.5v-331q0 -65 -25.5 -112.5t-73.5 -72.5t-113 -25zM300 71q59 0 90.5 33.5t31.5 95.5v330q0 62 -31.5 95.5t-90.5 33.5t-90.5 -33.5t-31.5 -95.5v-330
q0 -62 31.5 -95.5t90.5 -33.5zM326 810l110 140h92l-115 -140h-87zM147 810l110 140h92l-115 -140h-87z" />
    <glyph glyph-name="ohungarumlaut" unicode="&#x151;" 
d="M300 -8q-66 0 -114.5 25.5t-74.5 72.5t-26 112v146q0 65 26 112t74.5 72.5t114.5 25.5t114.5 -25.5t74.5 -72.5t26 -111v-147q0 -65 -26 -112t-74.5 -72.5t-114.5 -25.5zM300 72q59 0 92 33.5t33 96.5v146q0 63 -33 96.5t-92 33.5t-92 -33.5t-33 -96.5v-146
q0 -63 33 -96.5t92 -33.5zM326 645l110 140h92l-115 -140h-87zM147 645l110 140h92l-115 -140h-87z" />
    <glyph glyph-name="OE" unicode="&#x152;" 
d="M195 -10q-48 0 -83 23t-53.5 66t-18.5 101v370q0 58 18.5 101t53.5 66t83 23q47 0 76 -28t34 -62h5v80h265v-82h-177v-230h152v-82h-152v-254h177v-82h-265v80h-5q-5 -34 -34 -62t-76 -28zM220 70q42 0 66 29.5t24 80.5v370q0 51 -24 80.5t-66 29.5t-66 -29.5t-24 -80.5
v-370q0 -51 24 -80.5t66 -29.5z" />
    <glyph glyph-name="oe" unicode="&#x153;" 
d="M180 -10q-67 0 -106 43t-39 117v250q0 74 39 117t106 43q55 0 85 -25t33 -55h4q3 30 33 55t85 25q67 0 106 -43t39 -117v-150h-222v-100q0 -38 18 -60.5t49 -22.5q26 0 44.5 16t22.5 42h85q-10 -62 -48 -98.5t-94 -36.5q-55 0 -85 25t-33 55h-4q-3 -30 -33 -55t-85 -25z
M190 67q31 0 49 22.5t18 60.5v250q0 38 -18 60.5t-49 22.5q-32 0 -51 -22.5t-19 -60.5v-250q0 -38 19 -60.5t51 -22.5zM343 323h137v77q0 38 -19 60.5t-51 22.5q-31 0 -49 -22.5t-18 -60.5v-77z" />
    <glyph glyph-name="Racute" unicode="&#x154;" 
d="M92 0v730h226q64 0 113.5 -26.5t76.5 -74t27 -109.5q0 -74 -38.5 -127t-104.5 -73l153 -320h-106l-140 310h-117v-310h-90zM318 391q56 0 90 35t34 94q0 58 -34 93.5t-90 35.5h-136v-258h136zM242 810l106 140h97l-111 -140h-92z" />
    <glyph glyph-name="racute" unicode="&#x155;" 
d="M109 0v550h90v-105h19l-19 -21q0 64 39 100t108 36q86 0 137 -54.5t51 -147.5v-38h-90v30q0 63 -32.5 97.5t-92.5 34.5q-59 0 -89.5 -33.5t-30.5 -98.5v-350h-90zM262 645l106 140h97l-111 -140h-92z" />
    <glyph glyph-name="uni0156" unicode="&#x156;" 
d="M92 0v730h226q64 0 113.5 -26.5t76.5 -74t27 -109.5q0 -74 -38.5 -127t-104.5 -73l153 -320h-106l-140 310h-117v-310h-90zM318 391q56 0 90 35t34 94q0 58 -34 93.5t-90 35.5h-136v-258h136zM190 -240l95 145h105l-105 -145h-95z" />
    <glyph glyph-name="uni0157" unicode="&#x157;" 
d="M109 0v550h90v-105h19l-19 -21q0 64 39 100t108 36q86 0 137 -54.5t51 -147.5v-38h-90v30q0 63 -32.5 97.5t-92.5 34.5q-59 0 -89.5 -33.5t-30.5 -98.5v-350h-90zM35 -240l95 145h105l-105 -145h-95z" />
    <glyph glyph-name="Rcaron" unicode="&#x158;" 
d="M92 0v730h226q64 0 113.5 -26.5t76.5 -74t27 -109.5q0 -74 -38.5 -127t-104.5 -73l153 -320h-106l-140 310h-117v-310h-90zM318 391q56 0 90 35t34 94q0 58 -34 93.5t-90 35.5h-136v-258h136zM259 810l-140 140h99l82 -78l80 78h101l-139 -140h-83z" />
    <glyph glyph-name="rcaron" unicode="&#x159;" 
d="M109 0v550h90v-105h19l-19 -21q0 64 39 100t108 36q86 0 137 -54.5t51 -147.5v-38h-90v30q0 63 -32.5 97.5t-92.5 34.5q-59 0 -89.5 -33.5t-30.5 -98.5v-350h-90zM279 645l-140 140h99l82 -78l80 78h101l-139 -140h-83z" />
    <glyph glyph-name="Sacute" unicode="&#x15a;" 
d="M304 -10q-70 0 -122.5 25t-81 70.5t-28.5 106.5h90q0 -55 39 -88.5t103 -33.5q62 0 99 33.5t37 88.5q0 43 -22.5 75.5t-61.5 44.5l-108 34q-73 23 -114.5 75.5t-41.5 123.5q0 59 26.5 103t75 68t112.5 24q97 0 155 -53t58 -142h-90q0 53 -33.5 84t-89.5 31
q-57 0 -91.5 -31t-34.5 -82q0 -40 22.5 -69t63.5 -42l112 -36q69 -23 109.5 -78.5t40.5 -129.5q0 -61 -27.5 -106.5t-78.5 -70.5t-118 -25zM242 810l106 140h97l-111 -140h-92z" />
    <glyph glyph-name="sacute" unicode="&#x15b;" 
d="M283 -8q-56 0 -100 17.5t-68.5 50.5t-24.5 78h92q0 -31 29 -48.5t74 -17.5h42q52 0 78.5 21t26.5 58q0 35 -24 55t-71 28l-74 12q-82 14 -121 52t-39 105q0 75 48.5 115t139.5 40h38q84 0 134.5 -37.5t50.5 -99.5h-92q0 26 -25.5 41.5t-69.5 15.5h-38q-47 0 -72.5 -19.5
t-25.5 -55.5q0 -31 21 -49t64 -25l74 -12q89 -14 129.5 -52t40.5 -110q0 -78 -49.5 -120.5t-145.5 -42.5h-42zM242 645l106 140h97l-111 -140h-92z" />
    <glyph glyph-name="Scircumflex" unicode="&#x15c;" 
d="M304 -10q-70 0 -122.5 25t-81 70.5t-28.5 106.5h90q0 -55 39 -88.5t103 -33.5q62 0 99 33.5t37 88.5q0 43 -22.5 75.5t-61.5 44.5l-108 34q-73 23 -114.5 75.5t-41.5 123.5q0 59 26.5 103t75 68t112.5 24q97 0 155 -53t58 -142h-90q0 53 -33.5 84t-89.5 31
q-57 0 -91.5 -31t-34.5 -82q0 -40 22.5 -69t63.5 -42l112 -36q69 -23 109.5 -78.5t40.5 -129.5q0 -61 -27.5 -106.5t-78.5 -70.5t-118 -25zM119 810l139 140h83l140 -140h-99l-82 78l-80 -78h-101z" />
    <glyph glyph-name="scircumflex" unicode="&#x15d;" 
d="M283 -8q-56 0 -100 17.5t-68.5 50.5t-24.5 78h92q0 -31 29 -48.5t74 -17.5h42q52 0 78.5 21t26.5 58q0 35 -24 55t-71 28l-74 12q-82 14 -121 52t-39 105q0 75 48.5 115t139.5 40h38q84 0 134.5 -37.5t50.5 -99.5h-92q0 26 -25.5 41.5t-69.5 15.5h-38q-47 0 -72.5 -19.5
t-25.5 -55.5q0 -31 21 -49t64 -25l74 -12q89 -14 129.5 -52t40.5 -110q0 -78 -49.5 -120.5t-145.5 -42.5h-42zM119 645l139 140h83l140 -140h-99l-82 78l-80 -78h-101z" />
    <glyph glyph-name="Scedilla" unicode="&#x15e;" 
d="M205 -203v55h70q21 0 35 11t14 25q0 18 -28.5 30.5t-76.5 12.5l35 95h57l-21 -61q46 -5 83 -27t37 -58q0 -35 -33.5 -59t-86.5 -24h-85zM304 -10q-70 0 -122.5 25t-81 70.5t-28.5 106.5h90q0 -55 39 -88.5t103 -33.5q62 0 99 33.5t37 88.5q0 43 -22.5 75.5t-61.5 44.5
l-108 34q-73 23 -114.5 75.5t-41.5 123.5q0 59 26.5 103t75 68t112.5 24q97 0 155 -53t58 -142h-90q0 53 -33.5 84t-89.5 31q-57 0 -91.5 -31t-34.5 -82q0 -40 22.5 -69t63.5 -42l112 -36q69 -23 109.5 -78.5t40.5 -129.5q0 -61 -27.5 -106.5t-78.5 -70.5t-118 -25z" />
    <glyph glyph-name="scedilla" unicode="&#x15f;" 
d="M215 -203v55h70q21 0 35 11t14 25q0 18 -28.5 30.5t-76.5 12.5l35 95h57l-21 -61q46 -5 83 -27t37 -58q0 -35 -33.5 -59t-86.5 -24h-85zM283 -8q-56 0 -100 17.5t-68.5 50.5t-24.5 78h92q0 -31 29 -48.5t74 -17.5h42q52 0 78.5 21t26.5 58q0 35 -24 55t-71 28l-74 12
q-82 14 -121 52t-39 105q0 75 48.5 115t139.5 40h38q84 0 134.5 -37.5t50.5 -99.5h-92q0 26 -25.5 41.5t-69.5 15.5h-38q-47 0 -72.5 -19.5t-25.5 -55.5q0 -31 21 -49t64 -25l74 -12q89 -14 129.5 -52t40.5 -110q0 -78 -49.5 -120.5t-145.5 -42.5h-42z" />
    <glyph glyph-name="Scaron" unicode="&#x160;" 
d="M304 -10q-70 0 -122.5 25t-81 70.5t-28.5 106.5h90q0 -55 39 -88.5t103 -33.5q62 0 99 33.5t37 88.5q0 43 -22.5 75.5t-61.5 44.5l-108 34q-73 23 -114.5 75.5t-41.5 123.5q0 59 26.5 103t75 68t112.5 24q97 0 155 -53t58 -142h-90q0 53 -33.5 84t-89.5 31
q-57 0 -91.5 -31t-34.5 -82q0 -40 22.5 -69t63.5 -42l112 -36q69 -23 109.5 -78.5t40.5 -129.5q0 -61 -27.5 -106.5t-78.5 -70.5t-118 -25zM259 810l-140 140h99l82 -78l80 78h101l-139 -140h-83z" />
    <glyph glyph-name="scaron" unicode="&#x161;" 
d="M283 -8q-56 0 -100 17.5t-68.5 50.5t-24.5 78h92q0 -31 29 -48.5t74 -17.5h42q52 0 78.5 21t26.5 58q0 35 -24 55t-71 28l-74 12q-82 14 -121 52t-39 105q0 75 48.5 115t139.5 40h38q84 0 134.5 -37.5t50.5 -99.5h-92q0 26 -25.5 41.5t-69.5 15.5h-38q-47 0 -72.5 -19.5
t-25.5 -55.5q0 -31 21 -49t64 -25l74 -12q89 -14 129.5 -52t40.5 -110q0 -78 -49.5 -120.5t-145.5 -42.5h-42zM259 645l-140 140h99l82 -78l80 78h101l-139 -140h-83z" />
    <glyph glyph-name="uni0162" unicode="&#x162;" 
d="M248 -203v55h70q21 0 35 11t14 25q0 18 -28.5 30.5t-76.5 12.5l35 95l48 -26l-12 -35q46 -5 83 -27t37 -58q0 -35 -33.5 -59t-86.5 -24h-85zM255 0v648h-200v82h490v-82h-200v-648h-90z" />
    <glyph glyph-name="uni0163" unicode="&#x163;" horiz-adv-x="500" 
d="M306 0q-68 0 -109 39.5t-41 105.5v323h-125v82h125v155h90v-155h180v-82h-180v-323q0 -28 16.5 -45.5t43.5 -17.5h110v-82h-110zM237 -203v55h70q21 0 35 11t14 25q0 18 -28.5 30.5t-76.5 12.5l35 95h57l-21 -61q46 -5 83 -27t37 -58q0 -35 -33.5 -59t-86.5 -24h-85z" />
    <glyph glyph-name="Tcaron" unicode="&#x164;" 
d="M255 0v648h-200v82h490v-82h-200v-648h-90zM259 810l-140 140h99l82 -78l80 78h101l-139 -140h-83z" />
    <glyph glyph-name="tcaron" unicode="&#x165;" horiz-adv-x="500" 
d="M372 620l90 156h90l-100 -156h-80zM306 0q-68 0 -109 39.5t-41 105.5v323h-125v82h125v155h90v-155h180v-82h-180v-323q0 -28 16.5 -45.5t43.5 -17.5h110v-82h-110z" />
    <glyph glyph-name="Tbar" unicode="&#x166;" 
d="M110 295v75h380v-75h-380zM255 0v648h-200v82h490v-82h-200v-648h-90z" />
    <glyph glyph-name="tbar" unicode="&#x167;" horiz-adv-x="500" 
d="M35 239v75h340v-75h-340zM306 0q-68 0 -109 39.5t-41 105.5v323h-125v82h125v155h90v-155h180v-82h-180v-323q0 -28 16.5 -45.5t43.5 -17.5h110v-82h-110z" />
    <glyph glyph-name="Utilde" unicode="&#x168;" 
d="M300 -10q-101 0 -155.5 55.5t-54.5 154.5v530h90v-530q0 -61 30.5 -95.5t89.5 -34.5t89.5 34.5t30.5 95.5v530h90v-530q0 -99 -54 -154.5t-156 -55.5zM370 815q-30 0 -49 11t-39 31q-14 14 -24 21t-23 7q-14 0 -22 -9t-8 -26v-30h-65v30q0 44 24.5 69.5t65.5 25.5
q30 0 49 -11t39 -31q14 -14 24 -21t23 -7q14 0 22 9t8 26v30h65v-30q0 -44 -24.5 -69.5t-65.5 -25.5z" />
    <glyph glyph-name="utilde" unicode="&#x169;" 
d="M299 -10q-95 0 -152 57t-57 153v350h90v-350q0 -62 31.5 -96.5t87.5 -34.5q57 0 89 34.5t32 96.5v350h90v-350q0 -96 -57.5 -153t-153.5 -57zM370 650q-30 0 -49 11t-39 31q-14 14 -24 21t-23 7q-14 0 -22 -9t-8 -26v-30h-65v30q0 44 24.5 69.5t65.5 25.5q30 0 49 -11
t39 -31q14 -14 24 -21t23 -7q14 0 22 9t8 26v30h65v-30q0 -44 -24.5 -69.5t-65.5 -25.5z" />
    <glyph glyph-name="Umacron" unicode="&#x16a;" 
d="M300 -10q-101 0 -155.5 55.5t-54.5 154.5v530h90v-530q0 -61 30.5 -95.5t89.5 -34.5t89.5 34.5t30.5 95.5v530h90v-530q0 -99 -54 -154.5t-156 -55.5zM140 840v75h320v-75h-320z" />
    <glyph glyph-name="umacron" unicode="&#x16b;" 
d="M299 -10q-95 0 -152 57t-57 153v350h90v-350q0 -62 31.5 -96.5t87.5 -34.5q57 0 89 34.5t32 96.5v350h90v-350q0 -96 -57.5 -153t-153.5 -57zM140 670v75h320v-75h-320z" />
    <glyph glyph-name="Ubreve" unicode="&#x16c;" 
d="M300 -10q-101 0 -155.5 55.5t-54.5 154.5v530h90v-530q0 -61 30.5 -95.5t89.5 -34.5t89.5 34.5t30.5 95.5v530h90v-530q0 -99 -54 -154.5t-156 -55.5zM300 805q-72 0 -116 40t-44 105h71q0 -39 24 -63t64 -24t65 24t25 63h71q0 -65 -44 -105t-116 -40z" />
    <glyph glyph-name="ubreve" unicode="&#x16d;" 
d="M299 -10q-95 0 -152 57t-57 153v350h90v-350q0 -62 31.5 -96.5t87.5 -34.5q57 0 89 34.5t32 96.5v350h90v-350q0 -96 -57.5 -153t-153.5 -57zM300 640q-72 0 -116 40t-44 105h71q0 -39 24 -63t64 -24t65 24t25 63h71q0 -65 -44 -105t-116 -40z" />
    <glyph glyph-name="Uring" unicode="&#x16e;" 
d="M300 -10q-101 0 -155.5 55.5t-54.5 154.5v530h90v-530q0 -61 30.5 -95.5t89.5 -34.5t89.5 34.5t30.5 95.5v530h90v-530q0 -99 -54 -154.5t-156 -55.5zM300 766q-54 0 -87 31.5t-33 82.5t33 82.5t87 31.5t87 -31.5t33 -82.5t-33 -82.5t-87 -31.5zM300 819q27 0 43.5 16.5
t16.5 44.5t-16.5 45t-43.5 17t-43.5 -17t-16.5 -45t16.5 -44.5t43.5 -16.5z" />
    <glyph glyph-name="uring" unicode="&#x16f;" 
d="M299 -10q-95 0 -152 57t-57 153v350h90v-350q0 -62 31.5 -96.5t87.5 -34.5q57 0 89 34.5t32 96.5v350h90v-350q0 -96 -57.5 -153t-153.5 -57zM300 608q-54 0 -87 31.5t-33 82.5t33 82.5t87 31.5t87 -31.5t33 -82.5t-33 -82.5t-87 -31.5zM300 661q27 0 43.5 16.5
t16.5 44.5t-16.5 45t-43.5 17t-43.5 -17t-16.5 -45t16.5 -44.5t43.5 -16.5z" />
    <glyph glyph-name="Uhungarumlaut" unicode="&#x170;" 
d="M300 -10q-101 0 -155.5 55.5t-54.5 154.5v530h90v-530q0 -61 30.5 -95.5t89.5 -34.5t89.5 34.5t30.5 95.5v530h90v-530q0 -99 -54 -154.5t-156 -55.5zM326 810l110 140h92l-115 -140h-87zM147 810l110 140h92l-115 -140h-87z" />
    <glyph glyph-name="uhungarumlaut" unicode="&#x171;" 
d="M299 -10q-95 0 -152 57t-57 153v350h90v-350q0 -62 31.5 -96.5t87.5 -34.5q57 0 89 34.5t32 96.5v350h90v-350q0 -96 -57.5 -153t-153.5 -57zM326 645l110 140h92l-115 -140h-87zM147 645l110 140h92l-115 -140h-87z" />
    <glyph glyph-name="Uogonek" unicode="&#x172;" 
d="M379 -203q-55 0 -88.5 26t-33.5 67q0 21 14.5 47.5t41.5 52.5h-6.5h-6.5q-65 0 -112.5 25t-72.5 72.5t-25 112.5v530h90v-530q0 -62 31 -95.5t89 -33.5t89 33.5t31 95.5v530h90v-530q0 -59 -20.5 -104t-59.5 -71l-29 -24q-32 -27 -45.5 -49.5t-13.5 -44.5t15 -36t40 -14
h60v-60h-78z" />
    <glyph glyph-name="uogonek" unicode="&#x173;" 
d="M372 -203q-55 0 -88.5 26t-33.5 67q0 23 13 47t46 53h-4.5h-4.5q-65 0 -112.5 25t-72.5 72.5t-25 112.5v350h90v-350q0 -64 30.5 -97t89.5 -33t89.5 33t30.5 97v350h90v-350q0 -62 -22 -108t-65 -71l-24 -20q-33 -27 -48.5 -50t-15.5 -44q0 -22 15 -36t40 -14h60v-60h-78
z" />
    <glyph glyph-name="Wcircumflex" unicode="&#x174;" 
d="M109 0l-84 730h86l55 -540q4 -40 5 -65q1 -17 2 -32.5t2 -27.5q1 7 1.5 15.5t1.5 17.5q2 22 4.5 45.5t5.5 46.5l68 540h93l62 -540l14 -125q1 14 3 38q3 40 8 87l57 540h82l-86 -730h-113l-62 550q-9 81 -12 117q-1 -5 -1.5 -10t-0.5 -11q-2 -21 -5 -45.5t-6 -50.5
l-67 -550h-113zM119 810l139 140h83l140 -140h-99l-82 78l-80 -78h-101z" />
    <glyph glyph-name="wcircumflex" unicode="&#x175;" 
d="M123 0l-88 550h78l55 -390q4 -30 8 -67l2 -23h4q1 5 1 10.5t1 11.5q9 62 10 68l61 390h90l61 -390q8 -58 9 -65t1.5 -13.5t1.5 -11.5h4l5 36q2 14 3.5 27.5t3.5 26.5l57 390h74l-92 -550h-99l-59 380q-2 8 -3 17t-2 17q-8 53 -9 66h-4l-3 -26q-2 -17 -4.5 -36t-5.5 -38
l-62 -380h-99zM119 645l139 140h83l140 -140h-99l-82 78l-80 -78h-101z" />
    <glyph glyph-name="Ycircumflex" unicode="&#x176;" 
d="M255 0v273l-220 457h93l145 -300q11 -22 18 -40t10 -28q2 8 7 18q10 26 22 50l142 300h93l-220 -457v-273h-90zM119 810l139 140h83l140 -140h-99l-82 78l-80 -78h-101z" />
    <glyph glyph-name="ycircumflex" unicode="&#x177;" 
d="M179 -180l81 214l-210 516h98l134 -340q4 -10 12 -34q3 -11 12 -46q5 23 14 49l6 16t5 15l125 340h94l-277 -730h-94zM119 645l139 140h83l140 -140h-99l-82 78l-80 -78h-101z" />
    <glyph glyph-name="Ydieresis" unicode="&#x178;" 
d="M255 0v273l-220 457h93l145 -300q11 -22 18 -40t10 -28q2 8 7 18q10 26 22 50l142 300h93l-220 -457v-273h-90zM411 817q-29 0 -46.5 17t-17.5 46q0 30 17.5 47.5t46.5 17.5t46.5 -17.5t17.5 -47.5q0 -29 -17.5 -46t-46.5 -17zM189 817q-29 0 -46.5 17t-17.5 46
q0 30 17.5 47.5t46.5 17.5t46.5 -17.5t17.5 -47.5q0 -29 -17.5 -46t-46.5 -17z" />
    <glyph glyph-name="Zacute" unicode="&#x179;" 
d="M85 0v90l329 558h-324v82h415v-90l-329 -558h339v-82h-430zM242 810l106 140h97l-111 -140h-92z" />
    <glyph glyph-name="zacute" unicode="&#x17a;" 
d="M90 0v90l308 378h-300v82h401v-90l-314 -378h325v-82h-420zM242 645l106 140h97l-111 -140h-92z" />
    <glyph glyph-name="Zdotaccent" unicode="&#x17b;" 
d="M85 0v90l329 558h-324v82h415v-90l-329 -558h339v-82h-430zM300 816q-33 0 -52 17.5t-19 46.5t19 46.5t52 17.5t52 -17.5t19 -46.5t-19 -46.5t-52 -17.5z" />
    <glyph glyph-name="zdotaccent" unicode="&#x17c;" 
d="M90 0v90l308 378h-300v82h401v-90l-314 -378h325v-82h-420zM300 649q-33 0 -52 17t-19 46q0 30 19 47.5t52 17.5t52 -17.5t19 -47.5q0 -29 -19 -46t-52 -17z" />
    <glyph glyph-name="Zcaron" unicode="&#x17d;" 
d="M85 0v90l329 558h-324v82h415v-90l-329 -558h339v-82h-430zM259 810l-140 140h99l82 -78l80 78h101l-139 -140h-83z" />
    <glyph glyph-name="zcaron" unicode="&#x17e;" 
d="M90 0v90l308 378h-300v82h401v-90l-314 -378h325v-82h-420zM259 645l-140 140h99l82 -78l80 78h101l-139 -140h-83z" />
    <glyph glyph-name="longs" unicode="&#x17f;" 
d="M165 571q0 71 46.5 115t122.5 44h176v-80h-176q-35 0 -57 -22t-22 -58v-570h-90v571z" />
    <glyph glyph-name="uni018F" unicode="&#x18f;" 
d="M300 -10q-64 0 -111.5 26t-73 73.5t-25.5 110.5v200h330v131q0 62 -30.5 95.5t-89.5 33.5q-58 0 -89 -33.5t-31 -96.5h-90q0 64 25 111.5t72.5 73t112.5 25.5q66 0 113 -25t72 -72.5t25 -112.5v-330q0 -63 -25.5 -110.5t-73 -73.5t-111.5 -26zM300 65q61 0 90.5 34.5
t29.5 100.5v130h-247l7 8v-138q0 -66 29.5 -100.5t90.5 -34.5z" />
    <glyph glyph-name="uni0190" unicode="&#x190;" 
d="M311 -10q69 0 122 25t82.5 71t30.5 106h-90q-2 -55 -41.5 -88.5t-103.5 -33.5q-68 0 -109 37t-41 98t41 98t109 37h91v80h-90q-61 0 -98 33t-37 87t37 87t98 33t98.5 -34.5t37.5 -90.5h90q0 61 -28.5 107.5t-80.5 72t-120 25.5q-66 0 -116.5 -24t-78 -68t-27.5 -102
q0 -77 47.5 -121t127.5 -43v10q-58 1 -101.5 -21.5t-67 -65.5t-23.5 -100q0 -64 30 -112.5t84.5 -75.5t126.5 -27z" />
    <glyph glyph-name="florin" unicode="&#x192;" 
d="M0 -180v82h105q53 0 84 30.5t31 82.5v298h-160v82h160v196q0 66 40.5 102.5t113.5 36.5h161v-80h-161q-32 0 -48 -15t-16 -45v-195h225v-82h-225v-298q0 -58 -25.5 -102.5t-72 -68.5t-107.5 -24h-105z" />
    <glyph glyph-name="uni019B" unicode="&#x19b;" 
d="M90 470v80l380 190v-80zM50 0l204 541l-74 189h96l274 -730h-96l-131 357q-13 34 -24 81l-6 23q0 -46 -20 -104l-126 -357h-97z" />
    <glyph glyph-name="Ohorn" unicode="&#x1a0;" 
d="M400 635v65h20q16 0 25.5 9.5t9.5 25.5v75h75v-80q0 -43 -28.5 -69t-76.5 -26h-25zM300 -10q-65 0 -113 25t-73.5 72.5t-25.5 112.5v330q0 65 25.5 112.5t73.5 72.5t113 25t113 -25t73.5 -72.5t25.5 -111.5v-331q0 -65 -25.5 -112.5t-73.5 -72.5t-113 -25zM300 71
q59 0 90.5 33.5t31.5 95.5v330q0 62 -31.5 95.5t-90.5 33.5t-90.5 -33.5t-31.5 -95.5v-330q0 -62 31.5 -95.5t90.5 -33.5z" />
    <glyph glyph-name="ohorn" unicode="&#x1a1;" 
d="M396 465v65h34q17 0 26 9t9 26v75h75v-80q0 -43 -29 -69t-76 -26h-39zM300 -8q-66 0 -114.5 25.5t-74.5 72.5t-26 112v146q0 65 26 112t74.5 72.5t114.5 25.5t114.5 -25.5t74.5 -72.5t26 -111v-147q0 -65 -26 -112t-74.5 -72.5t-114.5 -25.5zM300 72q59 0 92 33.5
t33 96.5v146q0 63 -33 96.5t-92 33.5t-92 -33.5t-33 -96.5v-146q0 -63 33 -96.5t92 -33.5z" />
    <glyph glyph-name="Uhorn" unicode="&#x1af;" 
d="M435 665v65h50q16 0 25.5 9.5t9.5 25.5v75h75v-80q0 -43 -28.5 -69t-76.5 -26h-55zM300 -10q-101 0 -155.5 55.5t-54.5 154.5v530h90v-530q0 -61 30.5 -95.5t89.5 -34.5t89.5 34.5t30.5 95.5v530h90v-530q0 -99 -54 -154.5t-156 -55.5z" />
    <glyph glyph-name="uhorn" unicode="&#x1b0;" 
d="M90 200v350h90v-350q0 -62 31.5 -96.5t87.5 -34.5q57 0 89 34.5t32 96.5v350h70q17 0 26 9t9 26v75h75v-80q0 -45 -22 -70t-68 -25v-285q0 -96 -57.5 -153t-153.5 -57q-95 0 -152 57t-57 153z" />
    <glyph glyph-name="uni01CD" unicode="&#x1cd;" 
d="M50 0l190 730h121l189 -730h-91l-48 194h-221l-48 -194h-92zM208 270h184l-56 225q-27 110 -36 163q-9 -54 -36 -162zM259 810l-140 140h99l82 -78l80 78h101l-139 -140h-83z" />
    <glyph glyph-name="uni01CE" unicode="&#x1ce;" 
d="M252 -10q-87 0 -137 44t-50 121q0 76 50 120.5t135 44.5h170v55q0 50 -30.5 78t-84.5 28q-48 0 -81 -21t-41 -55h-90q7 69 66.5 112t145.5 43q95 0 150 -49t55 -133v-378h-88v105h-15l15 15q0 -60 -46 -95t-124 -35zM274 61q64 0 105 32t41 82v78h-168q-45 0 -71 -25
t-26 -68q0 -47 31.5 -73t87.5 -26zM264 645l-140 140h99l82 -78l80 78h101l-139 -140h-83z" />
    <glyph glyph-name="uni01D0" unicode="&#x1d0;" horiz-adv-x="500" 
d="M85 0v82h145v386h-125v82h215v-468h135v-82h-370zM224 645l-140 140h99l82 -78l80 78h101l-139 -140h-83z" />
    <glyph glyph-name="uni01D2" unicode="&#x1d2;" 
d="M300 -8q-66 0 -114.5 25.5t-74.5 72.5t-26 112v146q0 65 26 112t74.5 72.5t114.5 25.5t114.5 -25.5t74.5 -72.5t26 -111v-147q0 -65 -26 -112t-74.5 -72.5t-114.5 -25.5zM300 72q59 0 92 33.5t33 96.5v146q0 63 -33 96.5t-92 33.5t-92 -33.5t-33 -96.5v-146
q0 -63 33 -96.5t92 -33.5zM259 645l-140 140h99l82 -78l80 78h101l-139 -140h-83z" />
    <glyph glyph-name="uni01D4" unicode="&#x1d4;" 
d="M299 -10q-95 0 -152 57t-57 153v350h90v-350q0 -62 31.5 -96.5t87.5 -34.5q57 0 89 34.5t32 96.5v350h90v-350q0 -96 -57.5 -153t-153.5 -57zM259 645l-140 140h99l82 -78l80 78h101l-139 -140h-83z" />
    <glyph glyph-name="uni01D6" unicode="&#x1d6;" 
d="M299 -10q-95 0 -152 57t-57 153v350h90v-350q0 -62 31.5 -96.5t87.5 -34.5q57 0 89 34.5t32 96.5v350h90v-350q0 -96 -57.5 -153t-153.5 -57zM411 649q-29 0 -46.5 17t-17.5 46q0 30 17.5 47.5t46.5 17.5t46.5 -17.5t17.5 -47.5q0 -29 -17.5 -46t-46.5 -17zM189 649
q-29 0 -46.5 17t-17.5 46q0 30 17.5 47.5t46.5 17.5t46.5 -17.5t17.5 -47.5q0 -29 -17.5 -46t-46.5 -17zM140 897v75h320v-75h-320z" />
    <glyph glyph-name="uni01D8" unicode="&#x1d8;" 
d="M299 -10q-95 0 -152 57t-57 153v350h90v-350q0 -62 31.5 -96.5t87.5 -34.5q57 0 89 34.5t32 96.5v350h90v-350q0 -96 -57.5 -153t-153.5 -57zM411 649q-29 0 -46.5 17t-17.5 46q0 30 17.5 47.5t46.5 17.5t46.5 -17.5t17.5 -47.5q0 -29 -17.5 -46t-46.5 -17zM189 649
q-29 0 -46.5 17t-17.5 46q0 30 17.5 47.5t46.5 17.5t46.5 -17.5t17.5 -47.5q0 -29 -17.5 -46t-46.5 -17zM242 872l106 140h97l-111 -140h-92z" />
    <glyph glyph-name="uni01DA" unicode="&#x1da;" 
d="M299 -10q-95 0 -152 57t-57 153v350h90v-350q0 -62 31.5 -96.5t87.5 -34.5q57 0 89 34.5t32 96.5v350h90v-350q0 -96 -57.5 -153t-153.5 -57zM411 649q-29 0 -46.5 17t-17.5 46q0 30 17.5 47.5t46.5 17.5t46.5 -17.5t17.5 -47.5q0 -29 -17.5 -46t-46.5 -17zM189 649
q-29 0 -46.5 17t-17.5 46q0 30 17.5 47.5t46.5 17.5t46.5 -17.5t17.5 -47.5q0 -29 -17.5 -46t-46.5 -17zM259 872l-140 140h99l82 -78l80 78h101l-139 -140h-83z" />
    <glyph glyph-name="uni01DC" unicode="&#x1dc;" 
d="M299 -10q-95 0 -152 57t-57 153v350h90v-350q0 -62 31.5 -96.5t87.5 -34.5q57 0 89 34.5t32 96.5v350h90v-350q0 -96 -57.5 -153t-153.5 -57zM411 649q-29 0 -46.5 17t-17.5 46q0 30 17.5 47.5t46.5 17.5t46.5 -17.5t17.5 -47.5q0 -29 -17.5 -46t-46.5 -17zM189 649
q-29 0 -46.5 17t-17.5 46q0 30 17.5 47.5t46.5 17.5t46.5 -17.5t17.5 -47.5q0 -29 -17.5 -46t-46.5 -17zM267 872l-115 140h100l110 -140h-95z" />
    <glyph glyph-name="Gcaron" unicode="&#x1e6;" 
d="M304 -10q-66 0 -115 25t-75 72.5t-26 112.5v330q0 65 26 112.5t75 72.5t115 25q65 0 113.5 -25.5t74.5 -73t26 -111.5h-90q0 62 -32.5 95.5t-91.5 33.5q-60 0 -93 -33.5t-33 -94.5v-331q0 -62 33 -96t93 -34q59 0 91.5 34t32.5 96v90h-148v82h238v-172q0 -64 -26 -111.5
t-74.5 -73t-113.5 -25.5zM259 810l-140 140h99l82 -78l80 78h101l-139 -140h-83z" />
    <glyph glyph-name="gcaron" unicode="&#x1e7;" 
d="M161 -180v82h175q42 0 61.5 19t19.5 59v70l2 100h-18l17 15q0 -60 -40 -95t-107 -35q-85 0 -134 55t-49 150v116q0 94 49 149t134 55q67 0 107 -35t40 -95l-17 15h17v105h89v-570q0 -75 -45.5 -117.5t-126.5 -42.5h-174zM298 113q56 0 88 35t32 97v105q0 62 -32 97
t-88 35q-57 0 -88.5 -34.5t-31.5 -97.5v-105q0 -63 31.5 -97.5t88.5 -34.5zM256 645l-140 140h99l82 -78l80 78h101l-139 -140h-83z" />
    <glyph glyph-name="uni01EA" unicode="&#x1ea;" 
d="M379 -203q-55 0 -88.5 26t-33.5 67q0 21 14.5 47.5t41.5 52.5h-6.5h-6.5q-65 0 -113 25t-73.5 72.5t-25.5 112.5v330q0 65 25.5 112.5t73.5 72.5t113 25t113 -25t73.5 -72.5t25.5 -111.5v-331q0 -59 -21.5 -103.5t-60.5 -71.5l-29 -24q-32 -27 -45.5 -49.5t-13.5 -44.5
t15 -36t40 -14h60v-60h-78zM300 71q59 0 90.5 33.5t31.5 95.5v330q0 62 -31.5 95.5t-90.5 33.5t-90.5 -33.5t-31.5 -95.5v-330q0 -62 31.5 -95.5t90.5 -33.5z" />
    <glyph glyph-name="uni01EB" unicode="&#x1eb;" 
d="M372 -203q-55 0 -88.5 26t-33.5 67q0 23 13 47t46 53h-4.5h-4.5q-65 0 -113 25t-73.5 72.5t-25.5 112.5v150q0 65 25.5 112.5t73.5 72.5t113 25t113 -25t73.5 -72.5t25.5 -111.5v-151q0 -62 -23 -107.5t-66 -71.5l-24 -20q-33 -27 -48.5 -50t-15.5 -44q0 -22 15 -36
t40 -14h60v-60h-78zM300 70q59 0 90.5 33.5t31.5 96.5v150q0 63 -31.5 96.5t-90.5 33.5t-90.5 -33.5t-31.5 -96.5v-150q0 -63 31.5 -96.5t90.5 -33.5z" />
    <glyph glyph-name="uni01F4" unicode="&#x1f4;" 
d="M304 -10q-66 0 -115 25t-75 72.5t-26 112.5v330q0 65 26 112.5t75 72.5t115 25q65 0 113.5 -25.5t74.5 -73t26 -111.5h-90q0 62 -32.5 95.5t-91.5 33.5q-60 0 -93 -33.5t-33 -94.5v-331q0 -62 33 -96t93 -34q59 0 91.5 34t32.5 96v90h-148v82h238v-172q0 -64 -26 -111.5
t-74.5 -73t-113.5 -25.5zM242 810l106 140h97l-111 -140h-92z" />
    <glyph glyph-name="uni01F5" unicode="&#x1f5;" 
d="M161 -180v82h175q42 0 61.5 19t19.5 59v70l2 100h-18l17 15q0 -60 -40 -95t-107 -35q-85 0 -134 55t-49 150v116q0 94 49 149t134 55q67 0 107 -35t40 -95l-17 15h17v105h89v-570q0 -75 -45.5 -117.5t-126.5 -42.5h-174zM298 113q56 0 88 35t32 97v105q0 62 -32 97
t-88 35q-57 0 -88.5 -34.5t-31.5 -97.5v-105q0 -63 31.5 -97.5t88.5 -34.5zM239 645l106 140h97l-111 -140h-92z" />
    <glyph glyph-name="AEacute" unicode="&#x1fc;" 
d="M30 0l145 730h395v-82h-182v-228h157v-82h-157v-256h182v-82h-268v203h-141l-40 -203h-91zM175 278h127v370h-56zM242 810l106 140h97l-111 -140h-92z" />
    <glyph glyph-name="aeacute" unicode="&#x1fd;" 
d="M170 -10q-62 0 -98.5 37.5t-36.5 102.5v60q0 62 41.5 98.5t111.5 36.5h74v74q0 43 -16 63.5t-51 20.5q-28 0 -45.5 -17t-17.5 -46h-85q0 63 36.5 101.5t96.5 38.5q53 0 84.5 -25t36.5 -55h4q5 30 34.5 55t80.5 25q67 0 106 -43t39 -117v-145h-222v-105q0 -37 18.5 -60
t48.5 -23q32 0 51 17t19 46h85q0 -63 -40 -101.5t-105 -38.5q-51 0 -81 25t-34 55h-4q-5 -30 -39 -55t-92 -25zM190 67q32 0 52 23t20 60v105h-72q-31 0 -48 -17.5t-17 -47.5v-60q0 -29 17.5 -46t47.5 -17zM343 325h137v75q0 38 -18.5 60.5t-51.5 22.5q-31 0 -49 -22.5
t-18 -60.5v-75zM242 645l106 140h97l-111 -140h-92z" />
    <glyph glyph-name="Oslashacute" unicode="&#x1fe;" 
d="M35 -40l446 790h84l-446 -790h-84zM300 -10q-65 0 -113 25t-73.5 72.5t-25.5 112.5v330q0 65 25.5 112.5t73.5 72.5t113 25t113 -25t73.5 -72.5t25.5 -111.5v-331q0 -65 -25.5 -112.5t-73.5 -72.5t-113 -25zM300 71q59 0 90.5 33.5t31.5 95.5v330q0 62 -31.5 95.5
t-90.5 33.5t-90.5 -33.5t-31.5 -95.5v-330q0 -62 31.5 -95.5t90.5 -33.5zM242 810l106 140h97l-111 -140h-92z" />
    <glyph glyph-name="oslashacute" unicode="&#x1ff;" 
d="M35 -30l439 620h91l-440 -620h-90zM300 -10q-65 0 -113 25t-73.5 72.5t-25.5 112.5v150q0 65 25.5 112.5t73.5 72.5t113 25t113 -25t73.5 -72.5t25.5 -111.5v-151q0 -65 -25.5 -112.5t-73.5 -72.5t-113 -25zM300 70q60 0 93.5 34.5t33.5 95.5v150q0 61 -33.5 95.5
t-93.5 34.5t-93.5 -34.5t-33.5 -95.5v-150q0 -61 33.5 -95.5t93.5 -34.5zM242 645l106 140h97l-111 -140h-92z" />
    <glyph glyph-name="uni0218" unicode="&#x218;" 
d="M304 -10q-70 0 -122.5 25t-81 70.5t-28.5 106.5h90q0 -55 39 -88.5t103 -33.5q62 0 99 33.5t37 88.5q0 43 -22.5 75.5t-61.5 44.5l-108 34q-73 23 -114.5 75.5t-41.5 123.5q0 59 26.5 103t75 68t112.5 24q97 0 155 -53t58 -142h-90q0 53 -33.5 84t-89.5 31
q-57 0 -91.5 -31t-34.5 -82q0 -40 22.5 -69t63.5 -42l112 -36q69 -23 109.5 -78.5t40.5 -129.5q0 -61 -27.5 -106.5t-78.5 -70.5t-118 -25zM190 -240l95 145h105l-105 -145h-95z" />
    <glyph glyph-name="uni0219" unicode="&#x219;" 
d="M283 -8q-56 0 -100 17.5t-68.5 50.5t-24.5 78h92q0 -31 29 -48.5t74 -17.5h42q52 0 78.5 21t26.5 58q0 35 -24 55t-71 28l-74 12q-82 14 -121 52t-39 105q0 75 48.5 115t139.5 40h38q84 0 134.5 -37.5t50.5 -99.5h-92q0 26 -25.5 41.5t-69.5 15.5h-38q-47 0 -72.5 -19.5
t-25.5 -55.5q0 -31 21 -49t64 -25l74 -12q89 -14 129.5 -52t40.5 -110q0 -78 -49.5 -120.5t-145.5 -42.5h-42zM190 -240l95 145h105l-105 -145h-95z" />
    <glyph glyph-name="uni021A" unicode="&#x21a;" 
d="M255 0v648h-200v82h490v-82h-200v-648h-90zM190 -240l95 145h105l-105 -145h-95z" />
    <glyph glyph-name="uni021B" unicode="&#x21b;" 
d="M306 0q-68 0 -109 39.5t-41 105.5v323h-125v82h125v155h90v-155h180v-82h-180v-323q0 -28 16.5 -45.5t43.5 -17.5h110v-82h-110zM246 -240l95 145h105l-105 -145h-95z" />
    <glyph glyph-name="uni0232" unicode="&#x232;" 
d="M255 0v273l-220 457h93l145 -300q11 -22 18 -40t10 -28q2 8 7 18q10 26 22 50l142 300h93l-220 -457v-273h-90zM140 840v75h320v-75h-320z" />
    <glyph glyph-name="uni0233" unicode="&#x233;" 
d="M179 -180l81 214l-210 516h98l134 -340q4 -10 12 -34q3 -11 12 -46q5 23 14 49l6 16t5 15l125 340h94l-277 -730h-94zM140 670v75h320v-75h-320z" />
    <glyph glyph-name="uni0237" unicode="&#x237;" horiz-adv-x="400" 
d="M23 -180v83h64q62 0 96.5 33.5t34.5 94.5v437h-165v82h255v-519q0 -97 -60 -154t-161 -57h-64z" />
    <glyph glyph-name="uni0259" unicode="&#x259;" 
d="M300 -10q-64 0 -111.5 26t-73 73.5t-25.5 110.5v97h332v53q0 66 -30.5 100t-91.5 34q-52 0 -81 -18.5t-37 -55.5h-90q9 69 65 109.5t143 40.5q64 0 111.5 -26t73 -73.5t25.5 -110.5v-150q0 -63 -25.5 -110.5t-73 -73.5t-111.5 -26zM300 65q61 0 91.5 34.5t30.5 100.5v29
h-251l7 8v-37q0 -66 30.5 -100.5t91.5 -34.5z" />
    <glyph glyph-name="uni02B9" unicode="&#x2b9;" horiz-adv-x="400" 
d="M98 410l80 311h130l-130 -311h-80z" />
    <glyph glyph-name="uni02BA" unicode="&#x2ba;" 
d="M330 409l80 311h130l-130 -311h-80zM55 409l80 311h130l-130 -311h-80z" />
    <glyph glyph-name="uni02BC" unicode="&#x2bc;" horiz-adv-x="200" 
d="M-5 465l80 311h130l-130 -311h-80z" />
    <glyph glyph-name="circumflex" unicode="&#x2c6;" 
d="M119 645l139 140h83l140 -140h-99l-82 78l-80 -78h-101z" />
    <glyph glyph-name="caron" unicode="&#x2c7;" 
d="M259 645l-140 140h99l82 -78l80 78h101l-139 -140h-83z" />
    <glyph glyph-name="uni02C9" unicode="&#x2c9;" 
d="M140 670v75h320v-75h-320z" />
    <glyph glyph-name="breve" unicode="&#x2d8;" 
d="M300 640q-72 0 -116 40t-44 105h71q0 -39 24 -63t64 -24t65 24t25 63h71q0 -65 -44 -105t-116 -40z" />
    <glyph glyph-name="dotaccent" unicode="&#x2d9;" 
d="M300 649q-33 0 -52 17t-19 46q0 30 19 47.5t52 17.5t52 -17.5t19 -47.5q0 -29 -19 -46t-52 -17z" />
    <glyph glyph-name="ring" unicode="&#x2da;" 
d="M300 608q-54 0 -87 31.5t-33 82.5t33 82.5t87 31.5t87 -31.5t33 -82.5t-33 -82.5t-87 -31.5zM300 661q27 0 43.5 16.5t16.5 44.5t-16.5 45t-43.5 17t-43.5 -17t-16.5 -45t16.5 -44.5t43.5 -16.5z" />
    <glyph glyph-name="ogonek" unicode="&#x2db;" 
d="M307 -203q-55 0 -88.5 26t-33.5 67q0 30 20 59t65 61h75l-11 -9q-33 -27 -48.5 -50t-15.5 -44q0 -22 15 -36t40 -14h60v-60h-78z" />
    <glyph glyph-name="tilde" unicode="&#x2dc;" 
d="M370 650q-30 0 -49 11t-39 31q-14 14 -24 21t-23 7q-14 0 -22 -9t-8 -26v-30h-65v30q0 44 24.5 69.5t65.5 25.5q30 0 49 -11t39 -31q14 -14 24 -21t23 -7q14 0 22 9t8 26v30h65v-30q0 -44 -24.5 -69.5t-65.5 -25.5z" />
    <glyph glyph-name="hungarumlaut" unicode="&#x2dd;" 
d="M326 645l110 140h92l-115 -140h-87zM147 645l110 140h92l-115 -140h-87z" />
    <glyph glyph-name="uni02F3" unicode="&#x2f3;" 
d="M-300 -250q-54 0 -87 27.5t-33 72.5t33 72.5t87 27.5t87 -27.5t33 -72.5t-33 -72.5t-87 -27.5zM-301 -199q28 0 44.5 13.5t16.5 35.5q0 25 -16 37.5t-45 12.5q-26 0 -42.5 -14t-16.5 -36t16.5 -35.5t42.5 -13.5z" />
    <glyph glyph-name="uni02F7" unicode="&#x2f7;" 
d="M370 -210q-30 0 -49 11t-39 31q-14 14 -24 21t-23 7q-14 0 -22 -9t-8 -26v-30h-65v30q0 44 24.5 69.5t65.5 25.5q30 0 49 -11t39 -31q15 -15 24.5 -21.5t22.5 -6.5q14 0 22 9t8 26v30h65v-30q0 -44 -24.5 -69.5t-65.5 -25.5z" />
    <glyph glyph-name="gravecomb" unicode="&#x300;" horiz-adv-x="0" 
d="M-923 645l-115 140h100l110 -140h-95z" />
    <glyph glyph-name="acutecomb" unicode="&#x301;" horiz-adv-x="0" 
d="M-968 645l106 140h97l-111 -140h-92z" />
    <glyph glyph-name="uni0302" unicode="&#x302;" horiz-adv-x="0" 
d="M-1081 645l139 140h83l140 -140h-99l-82 78l-80 -78h-101z" />
    <glyph glyph-name="tildecomb" unicode="&#x303;" horiz-adv-x="0" 
d="M-830 650q-30 0 -49 11t-39 31q-14 14 -24 21t-23 7q-14 0 -22 -9t-8 -26v-30h-65v30q0 44 24.5 69.5t65.5 25.5q30 0 49 -11t39 -31q14 -14 24 -21t23 -7q14 0 22 9t8 26v30h65v-30q0 -44 -24.5 -69.5t-65.5 -25.5z" />
    <glyph glyph-name="uni0304" unicode="&#x304;" horiz-adv-x="0" 
d="M-1060 670v75h320v-75h-320z" />
    <glyph glyph-name="uni0306" unicode="&#x306;" horiz-adv-x="0" 
d="M-900 640q-72 0 -116 40t-44 105h71q0 -39 24 -63t64 -24t65 24t25 63h71q0 -65 -44 -105t-116 -40z" />
    <glyph glyph-name="uni0307" unicode="&#x307;" horiz-adv-x="0" 
d="M-900 649q-33 0 -52 17t-19 46q0 30 19 47.5t52 17.5t52 -17.5t19 -47.5q0 -29 -19 -46t-52 -17z" />
    <glyph glyph-name="uni0308" unicode="&#x308;" horiz-adv-x="0" 
d="M-789 649q-29 0 -46.5 17t-17.5 46q0 30 17.5 47.5t46.5 17.5t46.5 -17.5t17.5 -47.5q0 -29 -17.5 -46t-46.5 -17zM-1011 649q-29 0 -46.5 17t-17.5 46q0 30 17.5 47.5t46.5 17.5t46.5 -17.5t17.5 -47.5q0 -29 -17.5 -46t-46.5 -17z" />
    <glyph glyph-name="hookabovecomb" unicode="&#x309;" horiz-adv-x="0" 
d="M-892 708q14 19 14 32q0 10 -7.5 15t-24.5 5h-80v65h105q39 0 62 -20t23 -54q0 -32 -17 -54l-40 -52h-85z" />
    <glyph glyph-name="uni030A" unicode="&#x30a;" horiz-adv-x="0" 
d="M-900 608q-54 0 -87 31.5t-33 82.5t33 82.5t87 31.5t87 -31.5t33 -82.5t-33 -82.5t-87 -31.5zM-900 661q27 0 43.5 16.5t16.5 44.5t-16.5 45t-43.5 17t-43.5 -17t-16.5 -45t16.5 -44.5t43.5 -16.5z" />
    <glyph glyph-name="uni030B" unicode="&#x30b;" horiz-adv-x="0" 
d="M-874 645l110 140h92l-115 -140h-87zM-1053 645l110 140h92l-115 -140h-87z" />
    <glyph glyph-name="uni030C" unicode="&#x30c;" horiz-adv-x="0" 
d="M-941 645l-140 140h99l82 -78l80 78h101l-139 -140h-83z" />
    <glyph glyph-name="uni030F" unicode="&#x30f;" horiz-adv-x="0" 
d="M-926 645h-87l-115 140h92zM-747 645h-87l-115 140h92z" />
    <glyph glyph-name="uni0312" unicode="&#x312;" horiz-adv-x="0" 
d="M-785 880l-80 -235h-125l130 235h75z" />
    <glyph glyph-name="uni031B" unicode="&#x31b;" horiz-adv-x="0" 
d="M-832 485v65h26q17 0 26 9t9 26v75h75v-80q0 -43 -29 -69t-76 -26h-31z" />
    <glyph glyph-name="dotbelowcomb" unicode="&#x323;" horiz-adv-x="0" 
d="M-900 -213q-33 0 -52 17t-19 46q0 30 19 47.5t52 17.5t52 -17.5t19 -47.5q0 -29 -19 -46t-52 -17z" />
    <glyph glyph-name="uni0325" unicode="&#x325;" horiz-adv-x="0" 
d="M-900 -250q-54 0 -87 27.5t-33 72.5t33 72.5t87 27.5t87 -27.5t33 -72.5t-33 -72.5t-87 -27.5zM-901 -199q28 0 44.5 13.5t16.5 35.5q0 25 -16 37.5t-45 12.5q-26 0 -42.5 -14t-16.5 -36t16.5 -35.5t42.5 -13.5z" />
    <glyph glyph-name="uni0326" unicode="&#x326;" horiz-adv-x="0" 
d="M-1010 -240l95 145h105l-105 -145h-95z" />
    <glyph glyph-name="uni0327" unicode="&#x327;" horiz-adv-x="0" 
d="M-995 -203v55h70q21 0 35 11t14 25q0 18 -28.5 30.5t-76.5 12.5l35 95h57l-21 -61q46 -5 83 -27t37 -58q0 -35 -33.5 -59t-86.5 -24h-85z" />
    <glyph glyph-name="uni0328" unicode="&#x328;" horiz-adv-x="0" 
d="M-893 -203q-55 0 -88.5 26t-33.5 67q0 30 20 59t65 61h75l-11 -9q-33 -27 -48.5 -50t-15.5 -44q0 -22 15 -36t40 -14h60v-60h-78z" />
    <glyph glyph-name="uni0336" unicode="&#x336;" horiz-adv-x="0" 
d="M-1230 290v70h660v-70h-660z" />
    <glyph glyph-name="uni0337" unicode="&#x337;" horiz-adv-x="0" 
d="M-1165 -30l439 620h91l-440 -620h-90z" />
    <glyph glyph-name="uni0338" unicode="&#x338;" horiz-adv-x="0" 
d="M-1090 -110l317 770h63l-317 -770h-63z" />
    <glyph glyph-name="uni0374" unicode="&#x374;" 
d="M165 410l80 311h130l-130 -311h-80z" />
    <glyph glyph-name="uni0375" unicode="&#x375;" 
d="M78 -160l80 311h130l-130 -311h-80z" />
    <glyph glyph-name="uni037E" unicode="&#x37e;" 
d="M70 -160l80 311h130l-130 -311h-80zM190 410q-33 0 -54 21t-21 54q0 32 21.5 53.5t53.5 21.5h20q32 0 53.5 -21.5t21.5 -53.5q0 -33 -21 -54t-54 -21h-20z" />
    <glyph glyph-name="tonos" unicode="&#x384;" 
d="M212 645l106 140h97l-111 -140h-92z" />
    <glyph glyph-name="dieresistonos" unicode="&#x385;" 
d="M259 769l78 131h80l-88 -131h-70zM411 649q-29 0 -46.5 17t-17.5 46q0 30 17.5 47.5t46.5 17.5t46.5 -17.5t17.5 -47.5q0 -29 -17.5 -46t-46.5 -17zM189 649q-29 0 -46.5 17t-17.5 46q0 30 17.5 47.5t46.5 17.5t46.5 -17.5t17.5 -47.5q0 -29 -17.5 -46t-46.5 -17z" />
    <glyph glyph-name="Alphatonos" unicode="&#x386;" 
d="M50 0l190 730h121l189 -730h-91l-48 194h-221l-48 -194h-92zM208 270h184l-56 225q-27 110 -36 163q-9 -54 -36 -162zM10 570l56 160h94l-64 -160h-86z" />
    <glyph glyph-name="anoteleia" unicode="&#x387;" 
d="M200 265q-38 0 -60.5 22t-22.5 59q0 39 22.5 62t60.5 23t60.5 -23t22.5 -62q0 -37 -22.5 -59t-60.5 -22z" />
    <glyph glyph-name="Epsilontonos" unicode="&#x388;" 
d="M100 0v730h420v-82h-331v-226h296v-80h-296v-260h331v-82h-420zM-115 570l56 160h94l-64 -160h-86z" />
    <glyph glyph-name="Etatonos" unicode="&#x389;" 
d="M-115 570l56 160h94l-64 -160h-86zM93 0v730h90v-312h234v312h90v-730h-90v336h-234v-336h-90z" />
    <glyph glyph-name="Iotatonos" unicode="&#x38a;" 
d="M-115 570l56 160h94l-64 -160h-86zM105 0v82h149v566h-149v82h390v-82h-149v-566h149v-82h-390z" />
    <glyph glyph-name="Omicrontonos" unicode="&#x38c;" 
d="M-80 570l56 160h94l-64 -160h-86zM300 -10q-65 0 -113 25t-73.5 72.5t-25.5 112.5v330q0 65 25.5 112.5t73.5 72.5t113 25t113 -25t73.5 -72.5t25.5 -111.5v-331q0 -65 -25.5 -112.5t-73.5 -72.5t-113 -25zM300 71q59 0 90.5 33.5t31.5 95.5v330q0 62 -31.5 95.5
t-90.5 33.5t-90.5 -33.5t-31.5 -95.5v-330q0 -62 31.5 -95.5t90.5 -33.5z" />
    <glyph glyph-name="Upsilontonos" unicode="&#x38e;" 
d="M-125 570l56 160h94l-64 -160h-86zM255 0v273l-220 457h93l145 -300q11 -22 18 -40t10 -28q2 8 7 18q10 26 22 50l142 300h93l-220 -457v-273h-90z" />
    <glyph glyph-name="Omegatonos" unicode="&#x38f;" 
d="M50 0v80h145v5q-27 3 -53.5 21.5t-44 53.5t-17.5 85v280q0 65 27 113.5t76.5 75t116.5 26.5t116.5 -26.5t76.5 -75t27 -113.5v-280q0 -50 -17.5 -84.5t-44 -53t-53.5 -21.5v-6h146v-80h-211v110q40 0 65 36.5t25 93.5v285q0 62 -35.5 98.5t-94.5 36.5t-94.5 -36.5
t-35.5 -98.5v-285q0 -57 25 -93.5t65 -36.5v-110h-210zM-80 570l56 160h94l-64 -160h-86z" />
    <glyph glyph-name="iotadieresistonos" unicode="&#x390;" 
d="M415 0q-73 0 -116.5 42.5t-43.5 112.5v313h-200v82h290v-395q0 -34 19 -53.5t51 -19.5h135v-82h-135zM259 769l78 131h80l-88 -131h-70zM411 649q-29 0 -46.5 17t-17.5 46q0 30 17.5 47.5t46.5 17.5t46.5 -17.5t17.5 -47.5q0 -29 -17.5 -46t-46.5 -17zM189 649
q-29 0 -46.5 17t-17.5 46q0 30 17.5 47.5t46.5 17.5t46.5 -17.5t17.5 -47.5q0 -29 -17.5 -46t-46.5 -17z" />
    <glyph glyph-name="Alpha" unicode="&#x391;" 
d="M50 0l190 730h121l189 -730h-91l-48 194h-221l-48 -194h-92zM208 270h184l-56 225q-27 110 -36 163q-9 -54 -36 -162z" />
    <glyph glyph-name="Beta" unicode="&#x392;" 
d="M93 0v730h207q66 0 114 -22.5t73.5 -65t25.5 -101.5q0 -76 -46.5 -120t-126.5 -43v15q86 2 138 -50t52 -140q0 -62 -26 -108t-74.5 -70.5t-114.5 -24.5h-222zM305 81q63 0 99.5 33.5t36.5 91.5q0 61 -37 98t-99 37h-124v-260h124zM299 419q58 0 91.5 31t33.5 84t-33 84
t-91 31h-119v-230h118z" />
    <glyph glyph-name="Gamma" unicode="&#x393;" 
d="M130 0v730h425v-82h-335v-648h-90z" />
    <glyph glyph-name="uni0394" unicode="&#x394;" 
d="M50 0l190 730h121l189 -730h-91l-123 495q-16 65 -36 165q-19 -95 -36 -164l-122 -496h-92zM109 0v80h390v-80h-390z" />
    <glyph glyph-name="Epsilon" unicode="&#x395;" 
d="M100 0v730h420v-82h-331v-226h296v-80h-296v-260h331v-82h-420z" />
    <glyph glyph-name="Zeta" unicode="&#x396;" 
d="M85 0v90l329 558h-324v82h415v-90l-329 -558h339v-82h-430z" />
    <glyph glyph-name="Eta" unicode="&#x397;" 
d="M93 0v730h90v-312h234v312h90v-730h-90v336h-234v-336h-90z" />
    <glyph glyph-name="Theta" unicode="&#x398;" 
d="M300 -10q-65 0 -113 25t-73.5 72.5t-25.5 112.5v330q0 65 25.5 112.5t73.5 72.5t113 25t113 -25t73.5 -72.5t25.5 -111.5v-331q0 -65 -25.5 -112.5t-73.5 -72.5t-113 -25zM300 71q59 0 90.5 33.5t31.5 95.5v330q0 62 -31.5 95.5t-90.5 33.5t-90.5 -33.5t-31.5 -95.5v-330
q0 -62 31.5 -95.5t90.5 -33.5zM210 325v82h180v-82h-180z" />
    <glyph glyph-name="Iota" unicode="&#x399;" 
d="M105 0v82h149v566h-149v82h390v-82h-149v-566h149v-82h-390z" />
    <glyph glyph-name="Kappa" unicode="&#x39a;" 
d="M92 0v730h90v-313h108l162 313h98l-181 -351l191 -379h-103l-170 338h-105v-338h-90z" />
    <glyph glyph-name="Lambda" unicode="&#x39b;" 
d="M50 0l190 730h121l189 -730h-91l-123 495q-22 90 -36 165q-14 -75 -36 -164l-122 -496h-92z" />
    <glyph glyph-name="Mu" unicode="&#x39c;" 
d="M76 0v730h118l78 -236q17 -52 30 -112q13 59 30 113l74 235h118v-730h-88v345q0 74 6 150t16 159q1 8 2 15.5t2 15.5l-119 -365h-86l-120 365l2 -14q12 -89 18.5 -165t6.5 -161v-345h-88z" />
    <glyph glyph-name="Nu" unicode="&#x39d;" 
d="M90 0v730h120l223 -625q-4 44 -7 105t-3 110v410h87v-730h-120l-222 625q9 -110 9 -215v-410h-87z" />
    <glyph glyph-name="Xi" unicode="&#x39e;" 
d="M80 648v82h440v-82h-440zM80 0v82h440v-82h-440zM110 329v82h380v-82h-380z" />
    <glyph glyph-name="Omicron" unicode="&#x39f;" 
d="M300 -10q-65 0 -113 25t-73.5 72.5t-25.5 112.5v330q0 65 25.5 112.5t73.5 72.5t113 25t113 -25t73.5 -72.5t25.5 -111.5v-331q0 -65 -25.5 -112.5t-73.5 -72.5t-113 -25zM300 71q59 0 90.5 33.5t31.5 95.5v330q0 62 -31.5 95.5t-90.5 33.5t-90.5 -33.5t-31.5 -95.5v-330
q0 -62 31.5 -95.5t90.5 -33.5z" />
    <glyph glyph-name="Pi" unicode="&#x3a0;" 
d="M94 0v730h412v-730h-90v648h-232v-648h-90z" />
    <glyph glyph-name="Rho" unicode="&#x3a1;" 
d="M92 0v730h235q67 0 117.5 -26.5t78 -75t27.5 -113.5t-27.5 -113.5t-78 -75t-117.5 -26.5h-145v-300h-90zM327 381q59 0 94.5 36.5t35.5 97.5t-35.5 97.5t-94.5 36.5h-145v-268h145z" />
    <glyph glyph-name="Sigma" unicode="&#x3a3;" 
d="M75 0v80l232 291l-232 279v80h475v-80h-369l235 -275l-236 -295h370v-80h-475z" />
    <glyph glyph-name="Tau" unicode="&#x3a4;" 
d="M255 0v648h-200v82h490v-82h-200v-648h-90z" />
    <glyph glyph-name="Upsilon" unicode="&#x3a5;" 
d="M255 0v273l-220 457h93l145 -300q11 -22 18 -40t10 -28q2 8 7 18q10 26 22 50l142 300h93l-220 -457v-273h-90z" />
    <glyph glyph-name="Phi" unicode="&#x3a6;" 
d="M258 45q-61 0 -107 25.5t-71.5 73t-25.5 109.5v234q0 64 25 112t71.5 74.5t107.5 26.5v70h84v-70q61 0 107.5 -26.5t71.5 -74.5t25 -112v-234q0 -62 -25.5 -109.5t-71.5 -73t-107 -25.5v-70h-84v70zM258 624q-56 0 -88 -36.5t-32 -100.5v-234q0 -62 32 -97t88 -35v503z
M342 121q56 0 88 35t32 97v234q0 64 -32 100.5t-88 36.5v-503z" />
    <glyph glyph-name="Chi" unicode="&#x3a7;" 
d="M40 0l210 370l-199 360h104l113 -216q12 -22 19 -36q4 -9 8 -16.5t7 -14.5l11 23q5 11 11 22t11 22l115 216h99l-199 -354l210 -376h-103l-125 232l-17 34l-16 34l-16 -34q-4 -8 -8 -16.5t-9 -16.5l-126 -233h-100z" />
    <glyph glyph-name="Psi" unicode="&#x3a8;" 
d="M258 170q-92 0 -148 57t-56 151v352h84v-352q0 -62 32 -97t88 -35v484h84v-484q56 0 88 35t32 97v352h84v-352q0 -94 -56 -151t-148 -57v-170h-84v170z" />
    <glyph glyph-name="uni03A9" unicode="&#x3a9;" 
d="M50 0v80h145v5q-27 3 -53.5 21.5t-44 53.5t-17.5 85v280q0 65 27 113.5t76.5 75t116.5 26.5t116.5 -26.5t76.5 -75t27 -113.5v-280q0 -50 -17.5 -84.5t-44 -53t-53.5 -21.5v-6h146v-80h-211v110q40 0 65 36.5t25 93.5v285q0 62 -35.5 98.5t-94.5 36.5t-94.5 -36.5
t-35.5 -98.5v-285q0 -57 25 -93.5t65 -36.5v-110h-210z" />
    <glyph glyph-name="Iotadieresis" unicode="&#x3aa;" 
d="M411 817q-29 0 -46.5 17t-17.5 46q0 30 17.5 47.5t46.5 17.5t46.5 -17.5t17.5 -47.5q0 -29 -17.5 -46t-46.5 -17zM189 817q-29 0 -46.5 17t-17.5 46q0 30 17.5 47.5t46.5 17.5t46.5 -17.5t17.5 -47.5q0 -29 -17.5 -46t-46.5 -17zM105 0v82h149v566h-149v82h390v-82h-149
v-566h149v-82h-390z" />
    <glyph glyph-name="Upsilondieresis" unicode="&#x3ab;" 
d="M411 817q-29 0 -46.5 17t-17.5 46q0 30 17.5 47.5t46.5 17.5t46.5 -17.5t17.5 -47.5q0 -29 -17.5 -46t-46.5 -17zM189 817q-29 0 -46.5 17t-17.5 46q0 30 17.5 47.5t46.5 17.5t46.5 -17.5t17.5 -47.5q0 -29 -17.5 -46t-46.5 -17zM255 0v273l-220 457h93l145 -300
q11 -22 18 -40t10 -28q2 8 7 18q10 26 22 50l142 300h93l-220 -457v-273h-90z" />
    <glyph glyph-name="alphatonos" unicode="&#x3ac;" 
d="M268 -10q-83 0 -130.5 55t-47.5 150v161q0 95 48 149.5t130 54.5q68 0 108 -36.5t40 -99.5l-18 21h18v105h90v-550h-90v105h-18l18 21q0 -62 -40 -99t-108 -37zM298 68q56 0 87 35t31 97v150q0 62 -31 97t-87 35q-57 0 -87.5 -34t-30.5 -98v-150q0 -64 30.5 -98t87.5 -34
zM236 645l106 140h97l-111 -140h-92z" />
    <glyph glyph-name="epsilontonos" unicode="&#x3ad;" 
d="M279 -7q-92 0 -145.5 42.5t-53.5 116.5q0 59 36 96t99 41v4q-60 4 -93.5 35.5t-33.5 84.5q0 43 23 75.5t66.5 50.5t101.5 18h50q81 0 132.5 -38t61.5 -104h-95q-5 29 -31 45.5t-68 16.5h-50q-29 0 -51 -9t-33.5 -26.5t-11.5 -40.5q0 -35 25.5 -56t68.5 -21h113v-78h-111
q-48 0 -76 -23.5t-28 -63.5t28 -63t76 -23h47q46 0 76.5 15.5t37.5 41.5h95q-11 -63 -66.5 -100t-142.5 -37h-47zM226 645l106 140h97l-111 -140h-92z" />
    <glyph glyph-name="etatonos" unicode="&#x3ae;" 
d="M92 0v550h90v-105h19l-19 -21q0 64 39 100t108 36q83 0 132 -51.5t49 -138.5v-550h-90v540q0 58 -31.5 91t-85.5 33q-57 0 -89 -35.5t-32 -98.5v-350h-90zM247 645l106 140h97l-111 -140h-92z" />
    <glyph glyph-name="iotatonos" unicode="&#x3af;" 
d="M415 0q-73 0 -116.5 42.5t-43.5 112.5v313h-200v82h290v-395q0 -34 19 -53.5t51 -19.5h135v-82h-135zM242 645l106 140h97l-111 -140h-92z" />
    <glyph glyph-name="upsilondieresistonos" unicode="&#x3b0;" 
d="M299 -10q-95 0 -152 57t-57 153v350h90v-350q0 -62 31.5 -96.5t87.5 -34.5q57 0 89 34.5t32 96.5v350h90v-350q0 -96 -57.5 -153t-153.5 -57zM259 769l78 131h80l-88 -131h-70zM411 649q-29 0 -46.5 17t-17.5 46q0 30 17.5 47.5t46.5 17.5t46.5 -17.5t17.5 -47.5
q0 -29 -17.5 -46t-46.5 -17zM189 649q-29 0 -46.5 17t-17.5 46q0 30 17.5 47.5t46.5 17.5t46.5 -17.5t17.5 -47.5q0 -29 -17.5 -46t-46.5 -17z" />
    <glyph glyph-name="alpha" unicode="&#x3b1;" 
d="M268 -10q-83 0 -130.5 55t-47.5 150v161q0 95 48 149.5t130 54.5q68 0 108 -36.5t40 -99.5l-18 21h18v105h90v-550h-90v105h-18l18 21q0 -62 -40 -99t-108 -37zM298 68q56 0 87 35t31 97v150q0 62 -31 97t-87 35q-57 0 -87.5 -34t-30.5 -98v-150q0 -64 30.5 -98t87.5 -34
z" />
    <glyph glyph-name="beta" unicode="&#x3b2;" 
d="M92 534q0 61 26.5 108t75 72.5t112.5 25.5q62 0 110 -23t74 -64.5t26 -96.5q0 -62 -31 -105.5t-86 -59.5q61 -16 96 -64t35 -119q0 -61 -27 -108t-75.5 -73.5t-112.5 -26.5h-133v-180h-90v714zM305 82q60 0 95 35.5t35 93.5t-34.5 91t-95.5 33h-44v78h41q55 0 87.5 34.5
t32.5 90.5q0 55 -32 87.5t-88 32.5t-88 -33t-32 -91v-452h123z" />
    <glyph glyph-name="gamma" unicode="&#x3b3;" 
d="M255 -180v180l-195 550h95l124 -365q9 -26 14.5 -51t8.5 -43q1 -3 1 -5.5t1 -4.5q1 3 1.5 6.5t0.5 7.5q10 57 21 90l121 365h92l-195 -550v-180h-90z" />
    <glyph glyph-name="delta" unicode="&#x3b4;" 
d="M300 -10q-97 0 -153.5 57.5t-56.5 157.5v83q0 89 39.5 143.5t104.5 54.5q29 0 52 -10t37 -22l4 4l-219 197v75h372v-75h-261l197 -174q47 -41 70.5 -87.5t23.5 -102.5v-86q0 -67 -25 -115t-72.5 -74t-112.5 -26zM300 70q57 0 88.5 35.5t31.5 99.5v86q0 67 -31.5 103.5
t-89.5 36.5q-57 0 -88 -36.5t-31 -103.5v-86q0 -64 31.5 -99.5t88.5 -35.5z" />
    <glyph glyph-name="epsilon" unicode="&#x3b5;" 
d="M279 -7q-92 0 -145.5 42.5t-53.5 116.5q0 59 36 96t99 41v4q-60 4 -93.5 35.5t-33.5 84.5q0 43 23 75.5t66.5 50.5t101.5 18h50q81 0 132.5 -38t61.5 -104h-95q-5 29 -31 45.5t-68 16.5h-50q-29 0 -51 -9t-33.5 -26.5t-11.5 -40.5q0 -35 25.5 -56t68.5 -21h113v-78h-111
q-48 0 -76 -23.5t-28 -63.5t28 -63t76 -23h47q46 0 76.5 15.5t37.5 41.5h95q-11 -63 -66.5 -100t-142.5 -37h-47z" />
    <glyph glyph-name="zeta" unicode="&#x3b6;" 
d="M445 -48q0 24 -11.5 36t-36.5 12h-128q-95 0 -148 46t-53 122q0 49 23 104t66.5 113t105.5 118l149 145h-322v82h415v-90l-185 -188q-50 -51 -86.5 -101t-56 -95.5t-19.5 -81.5q0 -44 29.5 -69t82.5 -25h127q74 0 106 -29.5t32 -98.5v-132h-90v132z" />
    <glyph glyph-name="eta" unicode="&#x3b7;" 
d="M92 0v550h90v-105h19l-19 -21q0 64 39 100t108 36q83 0 132 -51.5t49 -138.5v-550h-90v540q0 58 -31.5 91t-85.5 33q-57 0 -89 -35.5t-32 -98.5v-350h-90z" />
    <glyph glyph-name="theta" unicode="&#x3b8;" 
d="M300 -10q-65 0 -113 25t-73.5 72.5t-25.5 112.5v320q0 65 25.5 112.5t73.5 72.5t113 25t113 -25t73.5 -72.5t25.5 -111.5v-321q0 -65 -25.5 -112.5t-73.5 -72.5t-113 -25zM300 70q59 0 90.5 33.5t31.5 96.5v125h-244v-125q0 -63 31.5 -96.5t90.5 -33.5zM178 403h244v117
q0 63 -31.5 96.5t-90.5 33.5t-90.5 -33.5t-31.5 -96.5v-117z" />
    <glyph glyph-name="iota" unicode="&#x3b9;" 
d="M415 0q-73 0 -116.5 42.5t-43.5 112.5v313h-200v82h290v-395q0 -34 19 -53.5t51 -19.5h135v-82h-135z" />
    <glyph glyph-name="kappa" unicode="&#x3ba;" 
d="M95 0v550h90v-227h106l160 227h103l-185 -262l188 -288h-105l-160 245h-107v-245h-90z" />
    <glyph glyph-name="lambda" unicode="&#x3bb;" 
d="M50 0l204 541l-74 189h96l274 -730h-96l-131 357q-13 34 -24 81l-6 23q0 -46 -20 -104l-126 -357h-97z" />
    <glyph glyph-name="uni03BC" unicode="&#x3bc;" 
d="M93 -180v730h90v-350q0 -63 30 -97.5t85 -34.5q56 0 87.5 35t31.5 97v350h90v-550h-88v105h-20l18 21q0 -66 -28 -101t-92 -35t-89 34.5t-25 101.5l18 -21h-20l2 -125v-160h-90z" />
    <glyph glyph-name="nu" unicode="&#x3bd;" 
d="M241 0l-201 550h93l138 -370q11 -30 26 -89q1 -6 2.5 -11.5t2.5 -10.5l6 24q10 47 24 87l134 370h94l-201 -550h-118z" />
    <glyph glyph-name="xi" unicode="&#x3be;" 
d="M475 -48q0 22 -13 35t-35 13h-96q-113 0 -179.5 58t-66.5 156q0 87 53.5 137t144.5 49v-10q-83 -2 -132 41t-49 118q0 83 58.5 132t158.5 49h185v-82h-185q-57 0 -90 -29.5t-33 -80.5t33 -81t90 -30h153v-80h-149q-66 0 -104.5 -36t-38.5 -97t40.5 -96.5t110.5 -35.5h96
q64 0 101 -35t37 -95v-130h-90v130z" />
    <glyph glyph-name="omicron" unicode="&#x3bf;" 
d="M300 -8q-66 0 -114.5 25.5t-74.5 72.5t-26 112v146q0 65 26 112t74.5 72.5t114.5 25.5t114.5 -25.5t74.5 -72.5t26 -111v-147q0 -65 -26 -112t-74.5 -72.5t-114.5 -25.5zM300 72q59 0 92 33.5t33 96.5v146q0 63 -33 96.5t-92 33.5t-92 -33.5t-33 -96.5v-146
q0 -63 33 -96.5t92 -33.5z" />
    <glyph glyph-name="pi" unicode="&#x3c0;" 
d="M536 -5q-76 0 -121.5 48t-45.5 127v300h-173v-470h-87v470h-84v80h529v-80h-99v-306q0 -41 20 -63t56 -22h24v-84h-19z" />
    <glyph glyph-name="rho" unicode="&#x3c1;" 
d="M94 356q0 63 25.5 109t72.5 70.5t111 24.5t110.5 -24.5t71.5 -70.5t25 -109v-161q0 -95 -47.5 -150t-130.5 -55q-68 0 -108 37t-40 99l18 -21h-20l2 -125v-160h-90v536zM302 68q57 0 87.5 34t30.5 98v150q0 64 -30.5 98t-87.5 34t-87.5 -34t-30.5 -98v-150q0 -62 31 -97
t87 -35z" />
    <glyph glyph-name="uni03C2" unicode="&#x3c2;" 
d="M450 -48q0 23 -12.5 35.5t-35.5 12.5h-98q-67 0 -116 23t-76 68t-27 109v150q0 65 27 112.5t76.5 72.5t115.5 25q95 0 153 -51t61 -139h-90q-3 52 -35.5 81t-88.5 29q-60 0 -94.5 -34t-34.5 -95v-151q0 -61 34 -90.5t95 -29.5h98q66 0 102 -33.5t36 -94.5v-132h-90v132z
" />
    <glyph glyph-name="sigma" unicode="&#x3c3;" 
d="M297 -10q-63 0 -111 26t-74.5 74t-26.5 110v140q0 62 26.5 110t74.5 74t111 26h273v-82h-169v-16l-15 14q57 0 90 -34t33 -92v-140q0 -62 -26.5 -110t-74.5 -74t-111 -26zM297 70q57 0 89.5 35t32.5 95v140q0 60 -32.5 95t-89.5 35t-89.5 -35t-32.5 -95v-140
q0 -60 32.5 -95t89.5 -35z" />
    <glyph glyph-name="tau" unicode="&#x3c4;" 
d="M385 0q-71 0 -110.5 38t-39.5 107v323h-175v82h465v-82h-200v-323q0 -32 14.5 -47.5t45.5 -15.5h125v-82h-125z" />
    <glyph glyph-name="upsilon" unicode="&#x3c5;" 
d="M299 -10q-95 0 -152 57t-57 153v350h90v-350q0 -62 31.5 -96.5t87.5 -34.5q57 0 89 34.5t32 96.5v350h90v-350q0 -96 -57.5 -153t-153.5 -57z" />
    <glyph glyph-name="phi" unicode="&#x3c6;" 
d="M259 0q-95 0 -149.5 54.5t-54.5 147.5v348h83v-348q0 -62 33 -96.5t93 -34.5v479h108q79 0 126 -43t47 -117v-188q0 -93 -54 -147.5t-150 -54.5v-180h-82v180zM336 71q59 0 92.5 34.5t33.5 96.5v188q0 42 -24 66t-66 24h-36v-409z" />
    <glyph glyph-name="chi" unicode="&#x3c7;" 
d="M40 -180l210 370l-199 360h104l113 -216q12 -22 19 -36q4 -9 8 -16.5t7 -14.5l11 23q5 11 11 22t11 22l115 216h99l-199 -354l210 -376h-103l-125 232l-17 34l-16 34l-16 -34q-4 -8 -8 -16.5t-9 -16.5l-126 -233h-100z" />
    <glyph glyph-name="psi" unicode="&#x3c8;" 
d="M259 0q-95 0 -150 54t-55 148v348h83v-348q0 -62 33 -95.5t94 -33.5v477h72v-477q61 0 94 33.5t33 95.5v348h83v-348q0 -94 -55 -148t-150 -54v-180h-82v180z" />
    <glyph glyph-name="omega" unicode="&#x3c9;" 
d="M181 -10q-59 0 -92.5 43t-33.5 118v207q0 83 37.5 137.5t102.5 64.5v-95q-26 -5 -40.5 -33.5t-14.5 -73.5v-208q0 -40 16 -62t45 -22t45.5 22t16.5 62v195h74v-195q0 -40 16.5 -62t45.5 -22t45 22t16 62v208q0 42 -16 69t-44 33v95q67 -10 106 -63t39 -134v-207
q0 -75 -33.5 -118t-92.5 -43q-56 0 -88.5 36.5t-32.5 99.5h4q0 -63 -32.5 -99.5t-88.5 -36.5z" />
    <glyph glyph-name="iotadieresis" unicode="&#x3ca;" 
d="M415 0q-73 0 -116.5 42.5t-43.5 112.5v313h-200v82h290v-395q0 -34 19 -53.5t51 -19.5h135v-82h-135zM411 649q-29 0 -46.5 17t-17.5 46q0 30 17.5 47.5t46.5 17.5t46.5 -17.5t17.5 -47.5q0 -29 -17.5 -46t-46.5 -17zM189 649q-29 0 -46.5 17t-17.5 46q0 30 17.5 47.5
t46.5 17.5t46.5 -17.5t17.5 -47.5q0 -29 -17.5 -46t-46.5 -17z" />
    <glyph glyph-name="upsilondieresis" unicode="&#x3cb;" 
d="M299 -10q-95 0 -152 57t-57 153v350h90v-350q0 -62 31.5 -96.5t87.5 -34.5q57 0 89 34.5t32 96.5v350h90v-350q0 -96 -57.5 -153t-153.5 -57zM411 649q-29 0 -46.5 17t-17.5 46q0 30 17.5 47.5t46.5 17.5t46.5 -17.5t17.5 -47.5q0 -29 -17.5 -46t-46.5 -17zM189 649
q-29 0 -46.5 17t-17.5 46q0 30 17.5 47.5t46.5 17.5t46.5 -17.5t17.5 -47.5q0 -29 -17.5 -46t-46.5 -17z" />
    <glyph glyph-name="omicrontonos" unicode="&#x3cc;" 
d="M300 -8q-66 0 -114.5 25.5t-74.5 72.5t-26 112v146q0 65 26 112t74.5 72.5t114.5 25.5t114.5 -25.5t74.5 -72.5t26 -111v-147q0 -65 -26 -112t-74.5 -72.5t-114.5 -25.5zM300 72q59 0 92 33.5t33 96.5v146q0 63 -33 96.5t-92 33.5t-92 -33.5t-33 -96.5v-146
q0 -63 33 -96.5t92 -33.5zM242 645l106 140h97l-111 -140h-92z" />
    <glyph glyph-name="upsilontonos" unicode="&#x3cd;" 
d="M299 -10q-95 0 -152 57t-57 153v350h90v-350q0 -62 31.5 -96.5t87.5 -34.5q57 0 89 34.5t32 96.5v350h90v-350q0 -96 -57.5 -153t-153.5 -57zM242 645l106 140h97l-111 -140h-92z" />
    <glyph glyph-name="omegatonos" unicode="&#x3ce;" 
d="M181 -10q-59 0 -92.5 43t-33.5 118v207q0 83 37.5 137.5t102.5 64.5v-95q-26 -5 -40.5 -33.5t-14.5 -73.5v-208q0 -40 16 -62t45 -22t45.5 22t16.5 62v195h74v-195q0 -40 16.5 -62t45.5 -22t45 22t16 62v208q0 42 -16 69t-44 33v95q67 -10 106 -63t39 -134v-207
q0 -75 -33.5 -118t-92.5 -43q-56 0 -88.5 36.5t-32.5 99.5h4q0 -63 -32.5 -99.5t-88.5 -36.5zM232 645l106 140h97l-111 -140h-92z" />
    <glyph glyph-name="uni03CF" unicode="&#x3cf;" 
d="M364 -180v79h29q45 0 73 27.5t28 73.5v71h86v-71q0 -88 -48 -134t-139 -46h-29zM92 0v730h90v-313h108l162 313h98l-181 -351l191 -379h-103l-170 338h-105v-338h-90z" />
    <glyph glyph-name="uni03D5" unicode="&#x3d5;" 
d="M260 0q-96 0 -151 54t-55 148v148q0 93 55.5 146.5t150.5 53.5v180h80v-180q96 0 151 -53.5t55 -146.5v-148q0 -94 -55 -148t-151 -54v-180h-80v180zM262 479q-58 0 -91 -34t-33 -95v-148q0 -62 33 -96.5t91 -34.5v408zM338 71q58 0 91 34.5t33 96.5v148q0 61 -33 95
t-91 34v-408z" />
    <glyph glyph-name="uni03D6" unicode="&#x3d6;" 
d="M181 -10q-59 0 -92.5 43t-33.5 118v188q0 67 41.5 106t112.5 39l-66 -25v9h-128v82h570v-82h-128v-9l-66 25q71 0 112.5 -39t41.5 -106v-188q0 -75 -33.5 -118t-92.5 -43q-49 0 -80 28t-39 79q-8 -51 -39 -79t-80 -28zM201 66q29 0 45.5 22t16.5 62v195h74v-195
q0 -40 16.5 -62t45.5 -22t45 22t16 62v234q0 40 -16 62t-45 22h-198q-29 0 -45 -22t-16 -62v-234q0 -40 16 -62t45 -22z" />
    <glyph glyph-name="uni03D7" unicode="&#x3d7;" 
d="M334 -180v79h29q45 0 73 27.5t28 73.5v71h86v-71q0 -88 -48 -134t-139 -46h-29zM92 0v550h86v-300q0 -40 -3.5 -88.5t-7.5 -81.5l226 470h115v-550h-86v300q0 40 3.5 89t7.5 82l-226 -471h-115z" />
    <glyph glyph-name="uni0401" unicode="&#x401;" 
d="M100 0v730h420v-82h-331v-226h296v-80h-296v-260h331v-82h-420zM431 817q-29 0 -46.5 17t-17.5 46q0 30 17.5 47.5t46.5 17.5t46.5 -17.5t17.5 -47.5q0 -29 -17.5 -46t-46.5 -17zM209 817q-29 0 -46.5 17t-17.5 46q0 30 17.5 47.5t46.5 17.5t46.5 -17.5t17.5 -47.5
q0 -29 -17.5 -46t-46.5 -17z" />
    <glyph glyph-name="uni0402" unicode="&#x402;" 
d="M260 -180v82h70q53 0 84 30.5t31 82.5v281q0 60 -22.5 91.5t-64.5 31.5q-29 0 -57 -15.5t-57 -46.5l-44 -47v-310h-90v651h-110v79h320v-79h-120v-255l16 17q76 82 163 82q71 0 113.5 -48.5t42.5 -130.5v-301q0 -58 -25.5 -102.5t-72 -68.5t-107.5 -24h-70z" />
    <glyph glyph-name="uni0403" unicode="&#x403;" 
d="M130 0v730h425v-82h-335v-648h-90zM262 810l106 140h97l-111 -140h-92z" />
    <glyph glyph-name="uni0404" unicode="&#x404;" 
d="M304 -10q-66 0 -114.5 25t-74 72.5t-25.5 112.5v330q0 65 25.5 112.5t74 72.5t114.5 25q65 0 113 -25.5t73.5 -73t25.5 -111.5h-90q0 62 -32 96t-90 34q-59 0 -91.5 -33.5t-32.5 -95.5v-122h225v-82h-225v-127q0 -62 32.5 -96t91.5 -34q58 0 90 34t32 96h90
q0 -64 -25.5 -111.5t-73.5 -73t-113 -25.5z" />
    <glyph glyph-name="uni0405" unicode="&#x405;" 
d="M304 -10q-70 0 -122.5 25t-81 70.5t-28.5 106.5h90q0 -55 39 -88.5t103 -33.5q62 0 99 33.5t37 88.5q0 43 -22.5 75.5t-61.5 44.5l-108 34q-73 23 -114.5 75.5t-41.5 123.5q0 59 26.5 103t75 68t112.5 24q97 0 155 -53t58 -142h-90q0 53 -33.5 84t-89.5 31
q-57 0 -91.5 -31t-34.5 -82q0 -40 22.5 -69t63.5 -42l112 -36q69 -23 109.5 -78.5t40.5 -129.5q0 -61 -27.5 -106.5t-78.5 -70.5t-118 -25z" />
    <glyph glyph-name="uni0406" unicode="&#x406;" 
d="M105 0v82h149v566h-149v82h390v-82h-149v-566h149v-82h-390z" />
    <glyph glyph-name="uni0407" unicode="&#x407;" 
d="M105 0v82h149v566h-149v82h390v-82h-149v-566h149v-82h-390zM411 817q-29 0 -46.5 17t-17.5 46q0 30 17.5 47.5t46.5 17.5t46.5 -17.5t17.5 -47.5q0 -29 -17.5 -46t-46.5 -17zM189 817q-29 0 -46.5 17t-17.5 46q0 30 17.5 47.5t46.5 17.5t46.5 -17.5t17.5 -47.5
q0 -29 -17.5 -46t-46.5 -17z" />
    <glyph glyph-name="uni0408" unicode="&#x408;" 
d="M270 -10q-105 0 -165 59t-60 161h90q0 -67 35.5 -103.5t99.5 -36.5t99.5 36.5t35.5 103.5v438h-205v82h295v-520q0 -102 -60.5 -161t-164.5 -59z" />
    <glyph glyph-name="uni0409" unicode="&#x409;" 
d="M-5 -5v80h18q25 0 40 31.5t16 87.5l5 536h286v-300h60q72 0 116 -42.5t44 -112.5v-120q0 -70 -44 -112.5t-116 -42.5h-140v655h-127l-5 -461q-1 -92 -38 -145.5t-100 -53.5h-15zM420 75q36 0 58 22t22 58v120q0 36 -22 58t-58 22h-60v-280h60z" />
    <glyph glyph-name="uni040A" unicode="&#x40a;" 
d="M53 0v730h80v-300h147v300h80v-300h60q74 0 117 -42t43 -113v-120q0 -71 -43 -113t-117 -42h-140v355h-147v-355h-80zM420 75q38 0 59 21.5t21 58.5v120q0 38 -21 59t-59 21h-60v-280h60z" />
    <glyph glyph-name="uni040B" unicode="&#x40b;" 
d="M110 0v651h-110v79h320v-79h-120v-255l16 17q76 82 163 82q71 0 113.5 -48.5t42.5 -130.5v-316h-90v296q0 60 -22.5 91.5t-64.5 31.5q-29 0 -57 -15.5t-57 -46.5l-44 -47v-310h-90z" />
    <glyph glyph-name="uni040C" unicode="&#x40c;" 
d="M92 0v730h90v-313h108l162 313h98l-181 -351l191 -379h-103l-170 338h-105v-338h-90zM242 810l106 140h97l-111 -140h-92z" />
    <glyph glyph-name="uni040E" unicode="&#x40e;" 
d="M191 0l74 189l-215 541h98l131 -357q12 -32 20 -62.5t11 -47.5q8 50 27 110l115 357h98l-263 -730h-96zM300 805q-72 0 -116 40t-44 105h71q0 -39 24 -63t64 -24t65 24t25 63h71q0 -65 -44 -105t-116 -40z" />
    <glyph glyph-name="uni040F" unicode="&#x40f;" 
d="M255 -125v125h-161v730h90v-648h232v648h90v-730h-161v-125h-90z" />
    <glyph glyph-name="uni0410" unicode="&#x410;" 
d="M50 0l190 730h121l189 -730h-91l-48 194h-221l-48 -194h-92zM208 270h184l-56 225q-27 110 -36 163q-9 -54 -36 -162z" />
    <glyph glyph-name="uni0411" unicode="&#x411;" 
d="M94 0v730h406v-82h-316v-220h121q69 0 119.5 -26.5t78 -74.5t27.5 -113t-27.5 -113t-78 -74.5t-119.5 -26.5h-211zM305 82q62 0 97 35.5t35 96.5q0 62 -35 97t-97 35h-121v-264h121z" />
    <glyph glyph-name="uni0412" unicode="&#x412;" 
d="M93 0v730h207q66 0 114 -22.5t73.5 -65t25.5 -101.5q0 -76 -46.5 -120t-126.5 -43v15q86 2 138 -50t52 -140q0 -62 -26 -108t-74.5 -70.5t-114.5 -24.5h-222zM305 81q63 0 99.5 33.5t36.5 91.5q0 61 -37 98t-99 37h-124v-260h124zM299 419q58 0 91.5 31t33.5 84t-33 84
t-91 31h-119v-230h118z" />
    <glyph glyph-name="uni0413" unicode="&#x413;" 
d="M130 0v730h425v-82h-335v-648h-90z" />
    <glyph glyph-name="uni0414" unicode="&#x414;" 
d="M25 -140v217h45q20 36 36.5 96.5t17.5 124.5l7 432h374v-653h70v-217h-80v140h-390v-140h-80zM164 77h251v573h-198l-5 -352q-1 -71 -15.5 -131t-32.5 -90z" />
    <glyph glyph-name="uni0415" unicode="&#x415;" 
d="M100 0v730h420v-82h-331v-226h296v-80h-296v-260h331v-82h-420z" />
    <glyph glyph-name="uni0416" unicode="&#x416;" 
d="M12 0l132 376l-122 354h94l104 -324h42v324h76v-324h43l103 324h94l-120 -355l130 -375h-93l-112 342h-45v-342h-76v342h-45l-113 -342h-92z" />
    <glyph glyph-name="uni0417" unicode="&#x417;" 
d="M289 -10q-69 0 -122 25t-82.5 71t-30.5 106h90q2 -55 41.5 -88.5t103.5 -33.5q68 0 109 37t41 98t-41 98t-109 37h-91v80h90q61 0 98 33t37 87t-37 87t-98 33t-98.5 -34.5t-37.5 -90.5h-90q0 61 28.5 107.5t80.5 72t120 25.5q66 0 116.5 -24t78 -68t27.5 -102
q0 -77 -47.5 -121t-127.5 -43v10q58 1 101.5 -21.5t67 -65.5t23.5 -100q0 -64 -30 -112.5t-84.5 -75.5t-126.5 -27z" />
    <glyph glyph-name="uni0418" unicode="&#x418;" 
d="M90 0v730h87v-410q0 -105 -9 -215l222 625h120v-730h-87v410q0 49 3 110t7 105l-223 -625h-120z" />
    <glyph glyph-name="uni0419" unicode="&#x419;" 
d="M90 0v730h87v-410q0 -105 -9 -215l222 625h120v-730h-87v410q0 49 3 110t7 105l-223 -625h-120zM300 805q-72 0 -116 40t-44 105h71q0 -39 24 -63t64 -24t65 24t25 63h71q0 -65 -44 -105t-116 -40z" />
    <glyph glyph-name="uni041A" unicode="&#x41a;" 
d="M92 0v730h90v-313h108l162 313h98l-181 -351l191 -379h-103l-170 338h-105v-338h-90z" />
    <glyph glyph-name="uni041B" unicode="&#x41b;" 
d="M20 -5v84h18q44 0 63.5 39.5t20.5 135.5l8 476h376v-730h-90v648h-197l-7 -394q-2 -135 -42.5 -197t-126.5 -62h-23z" />
    <glyph glyph-name="uni041C" unicode="&#x41c;" 
d="M76 0v730h118l78 -236q17 -52 30 -112q13 59 30 113l74 235h118v-730h-88v345q0 74 6 150t16 159q1 8 2 15.5t2 15.5l-119 -365h-86l-120 365l2 -14q12 -89 18.5 -165t6.5 -161v-345h-88z" />
    <glyph glyph-name="uni041D" unicode="&#x41d;" 
d="M93 0v730h90v-312h234v312h90v-730h-90v336h-234v-336h-90z" />
    <glyph glyph-name="uni041E" unicode="&#x41e;" 
d="M300 -10q-65 0 -113 25t-73.5 72.5t-25.5 112.5v330q0 65 25.5 112.5t73.5 72.5t113 25t113 -25t73.5 -72.5t25.5 -111.5v-331q0 -65 -25.5 -112.5t-73.5 -72.5t-113 -25zM300 71q59 0 90.5 33.5t31.5 95.5v330q0 62 -31.5 95.5t-90.5 33.5t-90.5 -33.5t-31.5 -95.5v-330
q0 -62 31.5 -95.5t90.5 -33.5z" />
    <glyph glyph-name="uni041F" unicode="&#x41f;" 
d="M94 0v730h412v-730h-90v648h-232v-648h-90z" />
    <glyph glyph-name="uni0420" unicode="&#x420;" 
d="M92 0v730h235q67 0 117.5 -26.5t78 -75t27.5 -113.5t-27.5 -113.5t-78 -75t-117.5 -26.5h-145v-300h-90zM327 381q59 0 94.5 36.5t35.5 97.5t-35.5 97.5t-94.5 36.5h-145v-268h145z" />
    <glyph glyph-name="uni0421" unicode="&#x421;" 
d="M304 -10q-66 0 -115 25t-75 72.5t-26 112.5v330q0 65 26 112.5t75 72.5t115 25q65 0 113.5 -25.5t74.5 -73t26 -111.5h-90q0 62 -32.5 95.5t-91.5 33.5q-60 0 -93 -33.5t-33 -94.5v-331q0 -62 33 -95.5t93 -33.5q59 0 91.5 33.5t32.5 95.5h90q0 -64 -26 -111.5t-74.5 -73
t-113.5 -25.5z" />
    <glyph glyph-name="uni0422" unicode="&#x422;" 
d="M255 0v648h-200v82h490v-82h-200v-648h-90z" />
    <glyph glyph-name="uni0423" unicode="&#x423;" 
d="M191 0l74 189l-215 541h98l131 -357q12 -32 20 -62.5t11 -47.5q8 50 27 110l115 357h98l-263 -730h-96z" />
    <glyph glyph-name="uni0424" unicode="&#x424;" 
d="M258 45q-61 0 -107 25.5t-71.5 73t-25.5 109.5v234q0 64 25 112t71.5 74.5t107.5 26.5v70h84v-70q61 0 107.5 -26.5t71.5 -74.5t25 -112v-234q0 -62 -25.5 -109.5t-71.5 -73t-107 -25.5v-70h-84v70zM258 624q-56 0 -88 -36.5t-32 -100.5v-234q0 -62 32 -97t88 -35v503z
M342 121q56 0 88 35t32 97v234q0 64 -32 100.5t-88 36.5v-503z" />
    </font>
</defs>
</svg>
