<?xml version="1.0" encoding="UTF-8" standalone="no"?>
<!-- Created with Inkscape (http://www.inkscape.org/) -->
<svg xmlns:dc="http://purl.org/dc/elements/1.1/" xmlns:cc="http://creativecommons.org/ns#" xmlns:rdf="http://www.w3.org/1999/02/22-rdf-syntax-ns#" xmlns:svg="http://www.w3.org/2000/svg" xmlns="http://www.w3.org/2000/svg" xmlns:sodipodi="http://sodipodi.sourceforge.net/DTD/sodipodi-0.dtd" xmlns:inkscape="http://www.inkscape.org/namespaces/inkscape" width="345.02951" height="62.58284" viewBox="0 0 91.289054 16.558376" version="1.1" id="svg6058" inkscape:version="0.92.0 r15299" sodipodi:docname="leonardo.svg">
  <defs id="defs6052">
    <clipPath id="clipPath5259" clipPathUnits="userSpaceOnUse">
      <path inkscape:connector-curvature="0" id="path5257" d="M 51.61,112.52 V 66.983 h 255.58 v 45.537"/>
    </clipPath>
    <clipPath id="clipPath5249" clipPathUnits="userSpaceOnUse">
      <path inkscape:connector-curvature="0" id="path5247" d="M 51.61,112.52 V 66.983 h 255.58 v 45.537"/>
    </clipPath>
    <clipPath id="clipPath5239" clipPathUnits="userSpaceOnUse">
      <path inkscape:connector-curvature="0" id="path5237" d="M 51.61,112.52 V 66.983 h 255.58 v 45.537"/>
    </clipPath>
    <clipPath id="clipPath5229" clipPathUnits="userSpaceOnUse">
      <path inkscape:connector-curvature="0" id="path5227" d="M 51.61,112.52 V 66.983 h 255.58 v 45.537"/>
    </clipPath>
    <clipPath id="clipPath5219" clipPathUnits="userSpaceOnUse">
      <path inkscape:connector-curvature="0" id="path5217" d="M 51.61,112.52 V 66.983 h 255.58 v 45.537"/>
    </clipPath>
    <clipPath id="clipPath5209" clipPathUnits="userSpaceOnUse">
      <path inkscape:connector-curvature="0" id="path5207" d="M 51.61,112.52 V 66.983 h 255.58 v 45.537"/>
    </clipPath>
    <clipPath id="clipPath5199" clipPathUnits="userSpaceOnUse">
      <path inkscape:connector-curvature="0" id="path5197" d="M 51.61,112.52 V 66.983 h 255.58 v 45.537"/>
    </clipPath>
    <clipPath id="clipPath5189" clipPathUnits="userSpaceOnUse">
      <path inkscape:connector-curvature="0" id="path5187" d="M 51.61,112.52 V 66.983 h 255.58 v 45.537"/>
    </clipPath>
    <clipPath id="clipPath5179" clipPathUnits="userSpaceOnUse">
      <path inkscape:connector-curvature="0" id="path5177" d="M 51.61,112.52 V 66.983 h 255.58 v 45.537"/>
    </clipPath>
    <clipPath id="clipPath5169" clipPathUnits="userSpaceOnUse">
      <path inkscape:connector-curvature="0" id="path5167" d="M 51.61,112.52 V 66.983 h 255.58 v 45.537"/>
    </clipPath>
    <clipPath id="clipPath5159" clipPathUnits="userSpaceOnUse">
      <path inkscape:connector-curvature="0" id="path5157" d="M 51.61,112.52 V 66.983 h 255.58 v 45.537"/>
    </clipPath>
    <clipPath id="clipPath5149" clipPathUnits="userSpaceOnUse">
      <path inkscape:connector-curvature="0" id="path5147" d="M 51.61,112.52 V 66.983 h 255.58 v 45.537"/>
    </clipPath>
    <clipPath id="clipPath5139" clipPathUnits="userSpaceOnUse">
      <path inkscape:connector-curvature="0" id="path5137" d="M 51.61,112.52 V 66.983 h 255.58 v 45.537"/>
    </clipPath>
    <clipPath id="clipPath5129" clipPathUnits="userSpaceOnUse">
      <path inkscape:connector-curvature="0" id="path5127" d="M 51.61,112.52 V 66.983 h 255.58 v 45.537"/>
    </clipPath>
    <clipPath id="clipPath5119" clipPathUnits="userSpaceOnUse">
      <path inkscape:connector-curvature="0" id="path5117" d="M 0,841.67 V -0.60669 H 595.32 V 841.67"/>
    </clipPath>
    <clipPath id="clipPath5109" clipPathUnits="userSpaceOnUse">
      <path inkscape:connector-curvature="0" id="path5107" d="M 0,841.67 V -0.60669 H 595.32 V 841.67"/>
    </clipPath>
  </defs>
  <sodipodi:namedview id="base" pagecolor="#ffffff" bordercolor="#666666" borderopacity="1.0" inkscape:pageopacity="0.0" inkscape:pageshadow="2" inkscape:zoom="2.6149355" inkscape:cx="171.51476" inkscape:cy="30.291414" inkscape:document-units="mm" inkscape:current-layer="layer1" showgrid="false" fit-margin-top="0" fit-margin-left="0" fit-margin-right="0" fit-margin-bottom="0" units="px" inkscape:window-width="1280" inkscape:window-height="744" inkscape:window-x="-4" inkscape:window-y="-4" inkscape:window-maximized="1"/>
  <metadata id="metadata6055">
    <rdf:RDF>
      <cc:Work rdf:about="">
        <dc:format>image/svg+xml</dc:format>
        <dc:type rdf:resource="http://purl.org/dc/dcmitype/StillImage"/>
        <dc:title/>
      </cc:Work>
    </rdf:RDF>
  </metadata>
  <g inkscape:label="Layer 1" inkscape:groupmode="layer" id="layer1" transform="translate(34.796613,1.0735364)">
    <g id="g6386" transform="translate(0.2645843,-0.26458337)" style="fill:#ec0928;fill-opacity:1">
      <path inkscape:connector-curvature="0" id="path5111" style="fill:#ec0928;fill-opacity:1;fill-rule:nonzero;stroke:none;stroke-width:0.35650826" d="m -11.05664,11.604975 v 0 h -6.360176 l 2.137874,-8.2398676 h 1.361114 l -1.788689,6.8751166 h 4.9955 z"/>
      <path inkscape:connector-curvature="0" id="path5121" style="fill:#ec0928;fill-opacity:1;fill-rule:nonzero;stroke:none;stroke-width:0.35650826" d="m -3.2248927,11.604975 v 0 h -6.5240804 l 2.1414376,-8.2398676 h 6.5454592 l -0.3741281,1.3629668 h -5.1843457 l -0.4810218,1.846301 h 4.9456164 l -0.374128,1.3647503 h -4.9171114 l -0.5879155,2.3010985 h 5.1843457 z"/>
      <path inkscape:connector-curvature="0" id="path5131" style="fill:#ec0928;fill-opacity:1;fill-rule:nonzero;stroke:none;stroke-width:0.35650826" d="m 2.0663467,4.7280742 v 0 c -0.4810218,0 -0.7731979,0.2407754 -0.8800917,0.6688204 L 0.08881278,9.5981568 c -0.05344686,0.2140225 -0.05344686,0.3745394 0.028505,0.4815502 0.0783887,0.107012 0.23872932,0.160517 0.48102176,0.160517 H 4.6603011 c 0.4810218,0 0.773198,-0.240775 0.8800917,-0.6955728 L 6.6378351,5.3701418 C 6.6912819,5.1561193 6.6912819,4.9956024 6.6093301,4.8885911 6.5309413,4.7815799 6.3706007,4.7280742 6.1283083,4.7280742 Z m 2.2982151,6.8769008 v 0 H 0.27765837 c -0.64492548,0 -1.12594725,-0.160517 -1.39318157,-0.508304 -0.2672343,-0.347786 -0.2921762,-0.883199 -0.1318356,-1.5520198 L -0.14991654,5.3701418 C 0.19570651,4.0588971 1.0508563,3.3651074 2.362086,3.3651074 h 4.0869035 c 0.6698673,0 1.1223841,0.1605169 1.3896184,0.50652 v 0 c 0.2672343,0.3481433 0.2957393,0.8564468 0.1353987,1.55202 L 6.8765644,9.5981568 C 6.5558832,10.909401 5.6757915,11.604975 4.3645618,11.604975 Z"/>
      <path inkscape:connector-curvature="0" id="path5141" style="fill:#ec0928;fill-opacity:1;fill-rule:nonzero;stroke:none;stroke-width:0.35650826" d="m 16.311717,11.604975 v 0 H 15.616908 L 10.753244,5.4236474 9.1498376,11.604975 H 7.9455016 L 10.086939,3.3651074 h 1.122384 l 0.05345,0.053506 4.461032,5.8317571 1.525017,-5.8852628 h 1.204336 z"/>
      <path inkscape:connector-curvature="0" id="path5151" style="fill:#ec0928;fill-opacity:1;fill-rule:nonzero;stroke:none;stroke-width:0.35650826" d="m 30.293417,6.6278808 v 0 h 3.955067 c 0.481022,0 0.773198,-0.2140225 0.880092,-0.6688204 L 35.29248,5.3701418 C 35.34593,5.1561193 35.34593,4.9956024 35.26398,4.8885911 35.18559,4.7815799 35.021687,4.7280742 34.8079,4.7280742 h -4.033457 z m 4.674819,4.9770942 v 0 H 33.553675 L 33.044149,8.019384 H 29.94423 l -0.933538,3.585591 H 27.646015 L 29.78389,3.3651074 h 5.319744 c 0.669868,0 1.122384,0.1605169 1.389619,0.50652 0.267234,0.3481433 0.320681,0.8564468 0.135398,1.55202 l -0.16034,0.5621659 c -0.295739,1.150371 -0.962044,1.8195481 -2.006039,1.980065 z"/>
      <path inkscape:connector-curvature="0" id="path5161" style="fill:#ec0928;fill-opacity:1;fill-rule:nonzero;stroke:none;stroke-width:0.35650826" d="m 38.150105,10.240224 v 0 h 4.382643 c 0.830208,0 1.097443,-0.240775 1.31123,-1.070469 L 44.727633,5.7981868 C 44.859468,5.343389 44.859468,5.0758608 44.752575,4.9153439 44.645681,4.7815799 44.406952,4.7280742 44.004319,4.7280742 h -4.411148 z m 4.061962,1.364751 v 0 H 36.439806 L 38.57768,3.3651074 H 44.325 c 0.830208,0 1.364676,0.1854862 1.656852,0.5350563 0.29574,0.3998655 0.320682,1.0151802 0.08195,1.9515288 L 45.18015,9.2236174 c -0.427575,1.6857836 -1.282725,2.3813576 -2.968083,2.3813576 z"/>
      <path inkscape:connector-curvature="0" id="path5171" style="fill:#ec0928;fill-opacity:1;fill-rule:nonzero;stroke:none;stroke-width:0.35650826" d="m 49.965425,4.7280742 v 0 c -0.481021,0 -0.776761,0.2407754 -0.883654,0.6688204 l -1.09388,4.2012622 c -0.05345,0.2140225 -0.05345,0.3745394 0.02494,0.4815502 0.08195,0.107012 0.242293,0.160517 0.45608,0.160517 h 4.086904 c 0.45608,0 0.751819,-0.240775 0.883654,-0.6955728 l 1.097443,-4.1745094 c 0.05345,-0.2140225 0.02494,-0.3745394 -0.05345,-0.4815507 -0.08195,-0.1070112 -0.213788,-0.1605169 -0.45608,-0.1605169 z m 2.26971,6.8769008 v 0 h -4.061961 c -0.666304,0 -1.122384,-0.160517 -1.389619,-0.508304 C 46.516321,10.748885 46.462874,10.213472 46.65172,9.5446512 L 47.720657,5.3701418 C 48.06628,4.0588971 48.949935,3.3651074 50.257602,3.3651074 h 4.090466 c 0.641362,0 1.122384,0.1605169 1.364677,0.50652 0.267234,0.3481433 0.320681,0.8564468 0.16034,1.55202 L 54.775643,9.5981568 C 54.43002,10.909401 53.546365,11.604975 52.235135,11.604975 Z"/>
      <path inkscape:connector-curvature="0" id="path5181" style="fill:#ec0928;fill-opacity:1;fill-rule:nonzero;stroke:none;stroke-width:0.35650826" d="m 20.615971,6.5208696 v 0 h 5.344687 L 26.281339,5.343389 c 0.0285,-0.1337641 0.05701,-0.3210338 -0.02494,-0.4280451 -0.08195,-0.133764 -0.295739,-0.133764 -0.427575,-0.133764 h -4.090467 c -0.452516,0 -0.719751,0.1872697 -0.826644,0.6420675 z m 5.480085,5.0841054 v 0 H 24.652991 L 25.58653,7.9658783 h -5.344687 l -0.933538,3.6390967 h -1.418124 l 1.603406,-6.2348332 c 0.349186,-1.3647503 1.204336,-2.062107 2.56545,-2.062107 h 4.061961 c 0.669868,0 1.150889,0.1890532 1.418124,0.5386233 v 0 c 0.267234,0.3460031 0.320681,0.8814161 0.16034,1.5769893 z"/>
      <path inkscape:connector-curvature="0" id="path5191" style="fill:#ec0928;fill-opacity:1;fill-rule:nonzero;stroke:none;stroke-width:0.35650826" d="m -22.844524,11.444458 v 0 c -4.91818,-1.311245 -7.056411,-3.3448156 -7.056411,-3.3448156 0,0 2.111508,3.5588376 5.399202,4.9503406 l 0.187064,0.08026 0.05345,0.02675 v 0 c 0.08017,0.02675 0.133617,0.0535 0.187064,0.08026 0.02672,0 0.0538,0 0.08053,0 0.08017,0 0.160341,-0.02675 0.187064,-0.08026 l 1.095661,-1.311245 c 0.05345,-0.08026 0.05345,-0.160517 0.02672,-0.240775 -0.02672,-0.08026 -0.08017,-0.133764 -0.160341,-0.160517 z"/>
      <path inkscape:connector-curvature="0" id="path5201" style="fill:#ec0928;fill-opacity:1;fill-rule:nonzero;stroke:none;stroke-width:0.35650826" d="m -21.561442,6.2533414 v 0 c -0.08017,0 -0.481022,-0.053506 -0.80206,-0.053506 -2.004613,0 -7.270198,0.9631014 -7.270198,0.9631014 l 8.018811,1.1239749 h 0.02672 v 0 c 0.02672,0 0.02672,0 0.05345,-0.026753 0.08017,-0.053506 0.08017,-0.1337641 0.08017,-0.1605169 0.02672,-0.2407753 0.106894,-1.0704693 0.133617,-1.5252672 0,-0.1605169 -0.106893,-0.294281 -0.24051,-0.3210332 z"/>
      <path inkscape:connector-curvature="0" id="path5211" style="fill:#ec0928;fill-opacity:1;fill-rule:nonzero;stroke:none;stroke-width:0.35650826" d="m -29.6337,5.9590604 v 0 c 2.512715,-2.3014555 6.8159,-3.1325763 7.243475,-3.2110513 0.08017,-0.028536 0.160697,-0.082042 0.18742,-0.1355476 0.02672,-0.078475 0.02672,-0.1605168 -0.02672,-0.2389918 -0.133974,-0.2425588 -0.748613,-1.0701126 -0.989124,-1.3661771 -0.05345,-0.0784749 -0.16034,-0.10701126 -0.267234,-0.0784749 l -0.02672,0.0249693 c 0,0 0,0 -0.02672,0 v 0 l -0.240511,0.0820419 c -3.127354,1.2020932 -5.025074,3.7189981 -5.853856,4.9232315 z"/>
      <path inkscape:connector-curvature="0" id="path5221" style="fill:#ec0928;fill-opacity:1;fill-rule:nonzero;stroke:none;stroke-width:0.35650826" d="m -30.889702,5.9590604 v 0 c 0.02672,-0.2946376 0.160341,-0.9367052 0.240511,-1.1507277 0.828427,-2.434863 2.645976,-4.25405444 3.394589,-4.92465836 0.08017,-0.0535056 0.106893,-0.16051689 0.08017,-0.26752815 -0.05345,-0.10701127 -0.160341,-0.1605169 -0.267234,-0.1605169 l -1.577039,0.1355476 c -0.02672,0 -0.106894,0.0249693 -0.160341,0.0535056 -0.02672,0 -0.05345,0.0249693 -0.05345,0.0249693 l -0.26759,0.34957012 c -0.08017,0.10701127 -0.160341,0.21402253 -0.213788,0.32103379 -0.02672,0 -0.02672,0.0249693 -0.02672,0.0249693 l -0.133617,0.21402252 c -0.400852,0.72410958 -1.229278,2.72878728 -1.015491,5.37981288 z"/>
      <path inkscape:connector-curvature="0" id="path5231" style="fill:#ec0928;fill-opacity:1;fill-rule:nonzero;stroke:none;stroke-width:0.35650826" d="m -31.691761,6.0660717 v 0 c 0,0 -0.801703,-1.4717616 -0.908597,-3.4001045 V 2.480481 c 0,-0.1070113 -0.08017,-0.2140225 -0.187064,-0.2675282 -0.10725,-0.028536 -0.240867,0.024969 -0.294314,0.1070113 -0.320681,0.50652 -0.641362,1.3911464 -0.668085,1.444652 -0.02672,0.053506 -0.02672,0.1355476 0,0.1872698 0.400851,0.9367052 2.05806,2.1141858 2.05806,2.1141858 z"/>
      <path inkscape:connector-curvature="0" id="path5241" style="fill:#ec0928;fill-opacity:1;fill-rule:nonzero;stroke:none;stroke-width:0.35650826" d="m -33.963609,9.8389321 v 0 c -0.05345,0.053506 -0.05345,0.1337641 -0.05345,0.1872699 0.02672,0.18727 0.160341,1.043716 0.374128,1.55202 0.08017,0.18727 0.267235,0.160517 0.267235,0.160517 0.16034,0 0.213787,-0.240776 0.267234,-0.401292 0.401208,-1.4182564 1.363251,-3.2378046 1.363251,-3.2378046 0,0 -1.550315,0.8293373 -2.218401,1.7392897 z"/>
      <path inkscape:connector-curvature="0" id="path5251" style="fill:#ec0928;fill-opacity:1;fill-rule:nonzero;stroke:none;stroke-width:0.35650826" d="m -27.575284,14.28097 v 0 l -0.10725,-0.134121 h -0.02672 c -2.806317,-2.78265 -3.153721,-5.9134425 -3.153721,-5.9134425 0,0 -0.641719,4.5490485 1.737379,7.1979345 0,0 0.05345,0.0535 0.08017,0.0535 v 0 h 0.08017 l 1.790826,-0.267528 0.05345,-0.02675 c 0.05345,-0.02675 0.08017,-0.08026 0.106894,-0.107011 0.05345,-0.107011 0.02672,-0.214022 -0.05345,-0.294281 -0.106894,-0.107011 -0.293958,-0.267528 -0.507746,-0.508303 z"/>
      <path inkscape:connector-curvature="0" id="path5261" style="fill:#ec0928;fill-opacity:1;fill-rule:nonzero;stroke:none;stroke-width:0.35650826" d="m -31.905548,6.9756674 v 0 l -0.801703,-0.1872697 c -0.187421,-0.026753 -1.069294,-0.2407753 -1.443422,-0.5618091 -0.02672,-0.026753 -0.05345,-0.053506 -0.05345,-0.080258 -0.08017,-0.080259 -0.187064,-0.1070113 -0.267234,-0.080259 v 0 c -0.106894,0.026753 -0.160341,0.1070113 -0.18742,0.2140225 -0.05345,0.2140226 -0.160341,1.0968655 -0.133618,1.2577391 0,0.053506 0.05345,0.1070112 0.106894,0.1605169 l 0.08053,0.026753 0.05345,-0.026753 c 0.400851,-0.053506 1.443065,-0.3748961 1.89772,-0.5086602 z"/>
    </g>
  </g>
</svg>